<?xml version="1.0" standalone="no"?>
<!DOCTYPE svg PUBLIC "-//W3C//DTD SVG 1.1//EN" "http://www.w3.org/Graphics/SVG/1.1/DTD/svg11.dtd" >
<svg xmlns="http://www.w3.org/2000/svg" xmlns:xlink="http://www.w3.org/1999/xlink" version="1.1">
<metadata>
Created by FontForge 20170731 at Sun Apr 18 19:44:29 2021
 By Aleksey,,,
Copyright (c) 2015 by Dieter Hofrichter. All rights reserved.
</metadata>
<defs>
<font id="Carnas-Thin" horiz-adv-x="770" >
  <font-face 
    font-family="Carnas-Thin"
    font-weight="400"
    font-stretch="normal"
    units-per-em="2048"
    panose-1="2 0 5 3 3 0 0 2 0 4"
    ascent="1563"
    descent="-485"
    x-height="1014"
    cap-height="1454"
    bbox="-307 -545 2374 2001"
    underline-thickness="102"
    underline-position="-204"
    unicode-range="U+0020-FB04"
  />
<missing-glyph horiz-adv-x="1026" 
d="M0 0v1448h1026v-1448h-1026zM514 817l348 526h-698zM573 725l353 -526v1052zM164 102h698l-348 529zM102 1251v-1052l351 526z" />
    <glyph glyph-name="f_f" unicode="ff" horiz-adv-x="1253" 
d="M330 29q0 -35 -31 -35h-23q-32 0 -32 37v903h-144q-28 0 -28 24v27q0 29 30 29h142v114q0 198 71 279q96 109 330 113q33 0 35 -21q2 -20 2 -33q0 -26 -31 -28q-118 -6 -188 -28q-64 -20 -98 -79q-35 -61 -35 -201v-116h540v155q0 197 72 279q96 109 330 113q34 0 35 -21
q2 -20 2 -33q0 -26 -31 -28q-118 -6 -188 -28q-65 -21 -99 -79q-35 -61 -35 -201v-157h261q28 0 28 -25v-31q0 -24 -28 -24h-261v-905q0 -35 -30 -35h-23q-33 0 -33 37v903h-540v-905z" />
    <glyph glyph-name="fi" unicode="fi" horiz-adv-x="1095" 
d="M330 29q0 -35 -31 -35h-23q-32 0 -32 37v903h-144q-28 0 -28 24v27q0 29 30 29h142v155q0 198 71 279q96 109 330 113q33 0 35 -21q2 -20 2 -33q0 -26 -31 -28q-118 -6 -188 -28q-64 -20 -98 -79q-35 -61 -35 -201v-157h540q37 0 37 -39v-946q0 -35 -33 -35h-20
q-33 0 -33 35v905h-491v-905zM932 1362q0 -76 -70 -76q-71 0 -71 74q0 76 71 76q70 0 70 -74z" />
    <glyph glyph-name="fl" unicode="fl" horiz-adv-x="1118" 
d="M330 29q0 -35 -31 -35h-23q-32 0 -32 37v903h-144q-28 0 -28 24v27q0 29 30 29h142v116q0 209 100 300q56 52 144 79q87 27 264 27q61 0 114 -8q35 -6 35 -43v-1256q0 -85 29 -116q36 -36 108 -43q27 -2 27 -27q0 -30 -4 -37q-6 -12 -31 -12q-137 0 -190 92
q-25 45 -25 135v1231q-44 4 -110 4q-137 0 -203 -22q-68 -23 -109 -70q-63 -72 -63 -227v-123h260q28 0 28 -25v-31q0 -24 -28 -24h-260v-905z" />
    <glyph glyph-name="f_f_i" unicode="ffi" horiz-adv-x="1722" 
d="M330 29q0 -35 -31 -35h-23q-32 0 -32 37v903h-144q-28 0 -28 24v27q0 29 30 29h142v114q0 198 71 279q96 109 330 113q33 0 35 -21q2 -20 2 -33q0 -26 -31 -28q-118 -6 -188 -28q-64 -20 -98 -79q-35 -61 -35 -201v-116h540v155q0 197 72 279q96 109 330 113q34 0 35 -21
q2 -20 2 -33q0 -26 -31 -28q-118 -6 -188 -28q-65 -21 -99 -79q-35 -61 -35 -201v-157h541q37 0 37 -39v-946q0 -35 -33 -35h-20q-33 0 -33 35v905h-492v-905q0 -35 -30 -35h-23q-33 0 -33 37v903h-540v-905zM1559 1362q0 -76 -70 -76q-72 0 -72 74q0 76 72 76q70 0 70 -74z
" />
    <glyph glyph-name="f_f_l" unicode="ffl" horiz-adv-x="1744" 
d="M330 29q0 -35 -31 -35h-23q-32 0 -32 37v903h-144q-28 0 -28 24v27q0 29 30 29h142v114q0 198 71 279q96 109 330 113q33 0 35 -21q2 -20 2 -33q0 -26 -31 -28q-118 -6 -188 -28q-64 -20 -98 -79q-35 -61 -35 -201v-116h540v116q0 208 101 300q56 52 144 79q87 27 263 27
q62 0 115 -8q35 -6 35 -43v-1256q0 -87 28 -116q36 -35 109 -43q27 -2 27 -27q0 -30 -4 -37q-6 -12 -31 -12q-138 0 -191 92q-24 44 -24 135v1231q-44 4 -111 4q-137 0 -203 -22t-108 -70q-64 -73 -64 -227v-123h261q28 0 28 -25v-31q0 -24 -28 -24h-261v-905q0 -35 -30 -35
h-23q-33 0 -33 37v903h-540v-905z" />
    <glyph glyph-name="T_h" unicode="Th" horiz-adv-x="2263" 
d="M616 29q0 -35 -32 -35h-27q-33 0 -33 35v1333h-442q-35 0 -35 31v22q0 31 35 31h1214v61q0 33 27 33h33q26 0 26 -31v-561q59 48 173 69q115 21 225 21q133 0 191 -29q61 -30 85 -94q19 -52 19 -200v-688q0 -33 -33 -33h-21q-32 0 -32 33v682q0 114 -17 159
q-17 47 -60 68q-41 20 -149 20q-223 0 -336 -61q-24 -15 -34 -35q-11 -22 -11 -61v-772q0 -33 -32 -33h-21q-33 0 -33 33v1335h-680v-1333z" />
    <glyph glyph-name="Tcaron_h" unicode="&#x164;h" horiz-adv-x="2256" 
d="M616 29q0 -35 -32 -35h-27q-33 0 -33 35v1333h-442q-35 0 -35 31v22q0 31 35 31h1214v61q0 33 27 33h33q26 0 26 -31v-561q59 48 173 69q115 21 225 21q133 0 191 -29q61 -30 85 -94q19 -52 19 -200v-688q0 -33 -33 -33h-21q-32 0 -32 33v682q0 114 -17 159
q-17 47 -60 68q-41 20 -149 20q-223 0 -336 -61q-24 -15 -34 -35q-11 -22 -11 -61v-772q0 -33 -32 -33h-21q-33 0 -33 33v1335h-680v-1333zM815 1853q21 0 33 -6t12 -18q0 -13 -16 -29l-217 -205q-24 -24 -47 -24h-27q-25 0 -45 20l-227 217q-9 9 -9 21t15 18q16 6 35 6
t49 -24l198 -158l193 156q32 26 53 26z" />
    <glyph glyph-name="f_b" unicode="fb" horiz-adv-x="1751" 
d="M330 29q0 -35 -31 -35h-23q-32 0 -32 37v903h-144q-28 0 -28 24v27q0 29 30 29h142v116q0 209 100 300q56 52 144 79q87 27 264 27q61 0 114 -8q35 -6 35 -43v-545q111 98 375 98q185 0 270 -124q86 -125 86 -398q0 -216 -53 -337q-52 -119 -151 -163q-96 -43 -265 -43
q-153 0 -264 39q-47 17 -68 47q-16 23 -16 99v1294q-44 4 -110 4q-137 0 -203 -22q-68 -23 -109 -70q-63 -72 -63 -227v-123h260q28 0 28 -25v-31q0 -24 -28 -24h-260v-905zM901 160q0 -36 12 -54q11 -17 48 -28q98 -25 206 -25q229 0 303 98t74 351q0 244 -56 347
q-57 105 -239 105q-213 0 -307 -63q-29 -18 -35 -33q-6 -12 -6 -45v-653z" />
    <glyph glyph-name="f_f_b" unicode="ffb" horiz-adv-x="2377" 
d="M1528 160q0 -36 12 -54q11 -17 47 -28q98 -25 207 -25q229 0 303 98t74 351q0 244 -56 347q-57 105 -239 105q-212 0 -307 -63q-29 -18 -35 -33q-6 -12 -6 -45v-653zM330 29q0 -35 -31 -35h-23q-32 0 -32 37v903h-144q-28 0 -28 24v27q0 29 30 29h142v114q0 198 71 279
q96 109 330 113q33 0 35 -21q2 -20 2 -33q0 -26 -31 -28q-118 -6 -188 -28q-64 -20 -98 -79q-35 -61 -35 -201v-116h540v116q0 207 101 299q58 53 144 80q87 27 263 27q62 0 115 -8q35 -6 35 -43v-545q111 98 375 98q185 0 270 -124q86 -125 86 -398q0 -216 -53 -337
q-52 -119 -151 -163q-96 -43 -265 -43q-153 0 -264 39q-47 17 -68 47q-16 23 -16 99v1294q-44 4 -111 4q-137 0 -203 -22t-108 -70q-64 -73 -64 -227v-123h261q28 0 28 -25v-31q0 -24 -28 -24h-261v-905q0 -35 -30 -35h-23q-33 0 -33 37v903h-540v-905z" />
    <glyph glyph-name="f_f_h" unicode="ffh" horiz-adv-x="2408" 
d="M330 29q0 -35 -31 -35h-23q-32 0 -32 37v903h-144q-28 0 -28 24v27q0 29 30 29h142v114q0 198 71 279q96 109 330 113q33 0 35 -21q2 -20 2 -33q0 -26 -31 -28q-118 -6 -188 -28q-64 -20 -98 -79q-35 -61 -35 -201v-116h540v116q0 208 101 300q56 52 144 79q87 27 263 27
q62 0 115 -8q35 -6 35 -43v-537q59 48 173 69q115 21 224 21q134 0 192 -29q61 -30 85 -94q18 -49 18 -200v-688q0 -33 -33 -33h-20q-33 0 -33 33v682q0 117 -16 159q-17 47 -61 68q-41 20 -148 20q-223 0 -336 -61q-25 -16 -35 -35q-10 -20 -10 -61v-772q0 -33 -33 -33h-20
q-33 0 -33 33v1425q-44 4 -111 4q-137 0 -203 -22t-108 -70q-64 -73 -64 -227v-123h261q28 0 28 -25v-31q0 -24 -28 -24h-261v-905q0 -35 -30 -35h-23q-33 0 -33 37v903h-540v-905z" />
    <glyph glyph-name="f_f_j" unicode="ffj" horiz-adv-x="1722" 
d="M330 29q0 -35 -31 -35h-23q-32 0 -32 37v903h-144q-28 0 -28 24v27q0 29 30 29h142v114q0 198 71 279q96 109 330 113q33 0 35 -21q2 -20 2 -33q0 -26 -31 -28q-118 -6 -188 -28q-64 -20 -98 -79q-35 -61 -35 -200v-117h540v155q0 197 72 279q96 109 330 113q34 0 35 -21
q2 -20 2 -33q0 -26 -31 -28q-118 -6 -188 -28q-65 -21 -99 -79q-35 -61 -35 -201v-157h541q37 0 37 -39v-1110q0 -171 -78 -244q-45 -44 -127 -72q-81 -28 -131 -28q-23 0 -27 16q-4 15 -4 31q0 25 37 31q120 22 180 69q64 50 64 197v1069h-492v-905q0 -35 -30 -35h-23
q-33 0 -33 37v903h-540v-905zM1559 1362q0 -76 -70 -76q-72 0 -72 74q0 76 72 76q70 0 70 -74z" />
    <glyph glyph-name="f_f_k" unicode="ffk" horiz-adv-x="2260" 
d="M330 29q0 -35 -31 -35h-23q-32 0 -32 37v903h-144q-28 0 -28 24v27q0 29 30 29h142v114q0 198 71 279q96 109 330 113q33 0 35 -21q2 -20 2 -33q0 -26 -31 -28q-118 -6 -188 -28q-64 -20 -98 -79q-35 -61 -35 -201v-116h540v116q0 208 101 300q56 52 144 79q87 27 263 27
q62 0 115 -8q35 -6 35 -43v-883h153q64 0 91 33l305 358q21 27 51 27h22q29 0 29 -21q0 -18 -20 -41l-344 -389l405 -508q25 -30 25 -43q0 -24 -33 -24h-23q-26 0 -49 29l-373 466q-28 37 -77 37h-162v-497q0 -35 -33 -35h-20q-33 0 -33 35v1421q-39 6 -111 6
q-137 0 -203 -22t-108 -70q-64 -73 -64 -227v-123h261q28 0 28 -25v-31q0 -24 -28 -24h-261v-905q0 -35 -30 -35h-23q-33 0 -33 37v903h-540v-905z" />
    <glyph glyph-name="f_h" unicode="fh" horiz-adv-x="1781" 
d="M330 29q0 -35 -31 -35h-23q-32 0 -32 37v903h-144q-28 0 -28 24v27q0 29 30 29h142v116q0 209 100 300q56 52 144 79q87 27 264 27q61 0 114 -8q35 -6 35 -43v-537q59 48 173 69q115 21 224 21q134 0 192 -29q61 -30 85 -94q18 -49 18 -200v-688q0 -33 -32 -33h-21
q-33 0 -33 33v682q0 117 -16 159q-17 47 -60 68q-41 20 -149 20q-223 0 -336 -61q-25 -16 -35 -35q-10 -20 -10 -61v-772q0 -33 -33 -33h-20q-33 0 -33 33v1425q-44 4 -110 4q-137 0 -203 -22q-68 -23 -109 -70q-63 -72 -63 -227v-123h260q28 0 28 -25v-31q0 -24 -28 -24
h-260v-905z" />
    <glyph glyph-name="f_j" unicode="fj" horiz-adv-x="1095" 
d="M330 29q0 -35 -31 -35h-23q-32 0 -32 37v903h-144q-28 0 -28 24v27q0 29 30 29h142v155q0 198 71 279q96 109 330 113q33 0 35 -21q2 -20 2 -33q0 -26 -31 -28q-118 -6 -188 -28q-64 -20 -98 -79q-35 -61 -35 -201v-157h540q37 0 37 -39v-1110q0 -171 -78 -244
q-45 -44 -127 -72q-81 -28 -131 -28q-22 0 -26 16q-4 15 -4 31q0 25 37 31q120 22 180 69q63 50 63 197v1069h-491v-905zM932 1362q0 -76 -70 -76q-71 0 -71 74q0 76 71 76q70 0 70 -74z" />
    <glyph glyph-name="f_k" unicode="fk" horiz-adv-x="1634" 
d="M330 29q0 -35 -31 -35h-23q-32 0 -32 37v903h-144q-28 0 -28 24v27q0 29 30 29h142v116q0 209 100 300q56 52 144 79q87 27 264 27q61 0 114 -8q35 -6 35 -43v-883h154q63 0 90 33l305 358q21 27 51 27h23q28 0 28 -21q0 -18 -20 -41l-344 -389l405 -508q25 -30 25 -43
q0 -24 -33 -24h-22q-27 0 -50 29l-372 466q-28 37 -78 37h-162v-497q0 -35 -33 -35h-20q-33 0 -33 35v1423q-44 4 -110 4q-137 0 -203 -22q-68 -23 -109 -70q-63 -72 -63 -227v-123h260q28 0 28 -25v-31q0 -24 -28 -24h-260v-905z" />
    <glyph glyph-name="uni0162_h" unicode="&#x162;h" horiz-adv-x="2256" 
d="M582 -139q118 0 161 -45q43 -44 43 -125q0 -185 -225 -185q-59 0 -106 11q-19 6 -19 26q0 11 6 29q8 18 25 18q1 0 39 -6q25 -4 59 -4q133 0 133 103q0 54 -27 78t-104 24h-32q-33 0 -33 31q0 12 6 53l24 131q-8 6 -8 29v1333h-442q-35 0 -35 31v22q0 31 35 31h1214v61
q0 33 27 33h33q26 0 26 -31v-561q59 48 173 69q115 21 225 21q133 0 191 -29q61 -30 85 -94q19 -52 19 -200v-688q0 -33 -33 -33h-21q-32 0 -32 33v682q0 114 -17 159q-17 47 -60 68q-41 20 -149 20q-223 0 -336 -61q-24 -15 -34 -35q-11 -22 -11 -61v-772q0 -33 -32 -33
h-21q-33 0 -33 33v1335h-680v-1333q0 -23 -12 -29z" />
    <glyph glyph-name="uni021A_h" unicode="&#x21a;h" horiz-adv-x="2256" 
d="M616 29q0 -35 -32 -35h-27q-33 0 -33 35v1333h-442q-35 0 -35 31v22q0 31 35 31h1214v61q0 33 27 33h33q26 0 26 -31v-561q59 48 173 69q115 21 225 21q133 0 191 -29q61 -30 85 -94q19 -52 19 -200v-688q0 -33 -33 -33h-21q-32 0 -32 33v682q0 114 -17 159
q-17 47 -60 68q-41 20 -149 20q-223 0 -336 -61q-24 -15 -34 -35q-11 -22 -11 -61v-772q0 -33 -32 -33h-21q-33 0 -33 33v1335h-680v-1333zM567 -147h27q33 0 33 -37q0 -220 -133 -344q-17 -17 -31 -17q-12 0 -25 13q-12 12 -12 22q0 11 10 21q90 101 96 301q0 41 35 41z
" />
    <glyph glyph-name=".notdef" horiz-adv-x="1026" 
d="M0 0v1448h1026v-1448h-1026zM514 817l348 526h-698zM573 725l353 -526v1052zM164 102h698l-348 529zM102 1251v-1052l351 526z" />
    <glyph glyph-name=".null" horiz-adv-x="0" 
 />
    <glyph glyph-name="nonmarkingreturn" horiz-adv-x="681" 
 />
    <glyph glyph-name="space" unicode=" " horiz-adv-x="462" 
 />
    <glyph glyph-name="exclam" unicode="!" horiz-adv-x="569" 
d="M371 449q0 -31 -27 -31h-27q-28 0 -28 33q-10 853 -10 960q0 35 34 35h37q31 0 31 -35q0 -108 -10 -962zM395 59q0 -75 -76 -75q-75 0 -75 75q0 76 75 76q76 0 76 -76z" />
    <glyph glyph-name="quotedbl" unicode="&#x22;" horiz-adv-x="669" 
d="M225 993q0 -30 -24 -30h-27q-27 0 -27 32q-10 267 -10 437q0 34 35 34h33q31 0 31 -34q0 -144 -11 -439zM522 993q0 -30 -24 -30h-27q-27 0 -27 32q-10 267 -10 437q0 34 35 34h33q30 0 30 -34q0 -170 -10 -439z" />
    <glyph glyph-name="numbersign" unicode="#" horiz-adv-x="1222" 
d="M328 0q-6 -33 -35 -33q-41 0 -41 29q0 14 4 35l63 442h-198q-29 0 -29 25v37q0 28 31 28h211l41 279h-213q-29 0 -29 24v37q0 29 31 29h223l66 440q6 43 36 43q43 0 43 -26q0 -18 -4 -39l-63 -418h350l66 440q6 43 34 43q46 0 46 -26q0 -12 -5 -39l-63 -418h205
q30 0 30 -29v-37q0 -24 -28 -24h-219l-41 -279h217q30 0 30 -28v-37q0 -25 -28 -25h-234l-69 -473q-6 -33 -35 -33q-41 0 -41 29q0 14 4 35l64 442h-351zM453 842l-41 -279h350l41 279h-350z" />
    <glyph glyph-name="dollar" unicode="$" horiz-adv-x="1105" 
d="M608 -180q0 -35 -30 -35h-23q-31 0 -31 35v168q-209 0 -356 69q-29 15 -29 29q0 17 11 39q10 22 30 22q13 0 41 -12q139 -65 307 -65q118 0 194 27q77 27 107 77q31 51 41 91q11 44 11 98q0 42 -9 80q-8 34 -34 70q-29 40 -87 69q-63 32 -157 55l-184 47
q-123 30 -189 122q-65 90 -65 208q0 340 368 368v177q0 34 33 34h23q28 0 28 -34v-175q165 -5 283 -41q29 -12 29 -30q0 -8 -11 -39q-5 -17 -26 -17q-12 0 -39 9q-144 39 -256 39q-196 0 -269 -73q-71 -71 -71 -210q0 -114 49 -176q51 -65 213 -105l160 -41
q164 -52 234 -123q69 -71 69 -208q0 -347 -365 -377v-172z" />
    <glyph glyph-name="percent" unicode="%" horiz-adv-x="1712" 
d="M686 971q0 -259 -69 -353t-234 -94q-158 0 -227 92q-70 93 -70 345q0 257 79 348q80 92 230 92q163 0 227 -85t64 -345zM606 971q0 213 -47 286q-47 72 -168 72q-117 0 -171 -77q-54 -76 -54 -289q0 -221 50 -294t167 -73q82 0 127 27q46 28 71 108q25 81 25 240z
M1628 430q0 -259 -68 -352q-69 -94 -235 -94q-158 0 -227 92q-70 93 -70 344q0 257 79 348q80 92 230 92q163 0 227 -85t64 -345zM1548 430q0 214 -47 287q-46 71 -168 71q-117 0 -171 -76t-54 -290q0 -221 50 -294t167 -73q82 0 127 27q46 28 71 108q25 81 25 240zM551 -33
q-17 -33 -43 -33t-33 5q-8 6 -8 16q0 15 16 47l678 1409q23 45 47 45q21 0 31 -2q14 -1 14 -18t-20 -56z" />
    <glyph glyph-name="ampersand" unicode="&#x26;" horiz-adv-x="1460" 
d="M1124 162q-78 -97 -185 -142q-111 -47 -286 -47q-258 0 -378 108q-119 107 -119 294q0 157 81 251t265 160q-172 172 -172 334q0 154 89 246t281 92q138 0 220 -24q51 -15 51 -35q0 -9 -13 -45q-6 -17 -24 -17q-7 0 -70 17q-74 18 -174 18q-158 0 -213 -66
q-55 -65 -55 -178q0 -78 39 -144q41 -69 123 -157q78 -84 522 -522q57 119 57 303q0 44 -4 80t-4 45q0 23 16 29q17 6 46 6q24 0 30 -35q6 -38 6 -102q0 -240 -82 -391q73 -73 177 -166q30 -29 30 -43q0 -15 -12 -23q-17 -14 -43 -14q-23 0 -57 31q-91 85 -142 137z
M1061 225q-327 311 -504 500q-161 -55 -233 -132t-72 -216q0 -150 98 -235t307 -85q291 0 404 168z" />
    <glyph glyph-name="quotesingle" unicode="'" horiz-adv-x="372" 
d="M225 993q0 -30 -24 -30h-27q-27 0 -27 32q-10 267 -10 437q0 34 35 34h33q31 0 31 -34q0 -144 -11 -439z" />
    <glyph glyph-name="parenleft" unicode="(" horiz-adv-x="620" 
d="M221 643q0 -141 15 -257q16 -121 47 -205q35 -94 61 -150q27 -59 83 -121q51 -57 83 -87q43 -41 88 -79q10 -10 10 -20q0 -8 -12 -25q-10 -14 -25 -14q-12 0 -34 14q-408 264 -408 940q0 639 403 913q24 15 35 15q12 0 29 -23q8 -11 8 -20t-10 -19q-172 -121 -272 -320
q-101 -200 -101 -542z" />
    <glyph glyph-name="parenright" unicode=")" horiz-adv-x="620" 
d="M397 608q0 164 -24 299q-23 129 -58 220q-33 86 -91 166q-61 84 -97 119q-40 38 -107 95q-10 10 -10 21q0 6 13 24q11 15 24 15q11 0 35 -15q407 -263 407 -940q0 -639 -403 -913q-22 -14 -35 -14q-12 0 -28 22q-9 13 -9 21q0 7 11 18q171 120 272 321q100 199 100 541z
" />
    <glyph glyph-name="asterisk" unicode="*" horiz-adv-x="825" 
d="M408 983l-168 -240q-8 -12 -21 -12q-12 0 -39 21q-14 11 -14 22q0 13 10 23l180 229q-5 1 -96 27.5t-180 52.5q-25 8 -25 24q0 15 13 41q10 21 24 21q5 0 29 -6q245 -88 258 -92q-10 220 -10 284q0 20 8 30q7 9 37 9q22 0 30 -9q9 -11 9 -30q0 -116 -7 -286
q129 50 261 94q18 6 32 6q15 0 21 -16q8 -24 8 -39q0 -21 -23 -27q-185 -57 -284 -84q33 -44 53 -69q12 -14 37.5 -45.5t32.5 -40.5q35 -43 61 -76q8 -13 8 -23q0 -12 -14 -22q-30 -19 -39 -19q-14 0 -22 12z" />
    <glyph glyph-name="plus" unicode="+" horiz-adv-x="1435" 
d="M760 98q0 -26 -27 -26h-35q-24 0 -24 26v461h-463q-27 0 -27 29v33q0 28 27 28h461v457q0 29 26 29h35q27 0 27 -29v-457h463q28 0 28 -28v-33q0 -29 -28 -29h-463v-461z" />
    <glyph glyph-name="comma" unicode="," horiz-adv-x="407" 
d="M236 164h30q31 0 31 -37q0 -265 -174 -432q-24 -19 -33 -19q-12 0 -27 15q-14 14 -14 24q0 13 12 25q139 148 140 379q0 45 35 45z" />
    <glyph glyph-name="hyphen" unicode="-" horiz-adv-x="591" 
d="M489 502h-387q-28 0 -28 24v37q0 29 30 29h383q31 0 31 -29v-37q0 -24 -29 -24z" />
    <glyph glyph-name="period" unicode="." horiz-adv-x="409" 
d="M281 59q0 -75 -76 -75t-76 75q0 76 76 76t76 -76z" />
    <glyph glyph-name="slash" unicode="/" horiz-adv-x="753" 
d="M119 -172q-12 -33 -39 -33q-24 0 -39 6q-12 5 -12 21q0 9 8 33l590 1638q17 45 41 45q28 0 43 -6q12 -6 12 -16q0 -14 -12 -52z" />
    <glyph glyph-name="zero" unicode="0" horiz-adv-x="1122" 
d="M1026 707q0 -292 -51 -452q-51 -161 -150 -221q-101 -61 -270 -61q-163 0 -259 58t-148 215q-52 156 -52 440q0 178 24 308t64 209q40 78 105 126t130 64q64 16 156 16q127 0 205 -27q80 -28 138 -102q59 -75 83 -214q25 -144 25 -359zM934 707q0 253 -39 386t-114 183
q-74 49 -212 49q-131 0 -210 -49q-78 -49 -125 -192q-46 -141 -46 -394q0 -150 16 -270q15 -111 44 -183q28 -69 76 -111q44 -38 101 -54q54 -15 132 -15q104 0 170 24q65 24 115 93q49 68 70 199q22 135 22 334z" />
    <glyph glyph-name="one" unicode="1" horiz-adv-x="1122" 
d="M844 0h-510q-27 0 -27 29v24q0 31 27 31h225v1196l-225 -92q-29 -12 -41 -12q-15 0 -21 14q-14 27 -14 39q0 15 23 26l260 113q39 16 63 16h8q37 0 37 -47v-1253h195q28 0 28 -29v-26q0 -29 -28 -29z" />
    <glyph glyph-name="two" unicode="2" horiz-adv-x="1122" 
d="M924 0h-772q-57 0 -75 14q-20 15 -20 58t33 71q400 325 590 512q80 78 126 175q46 96 46 178q0 146 -75 232q-75 85 -263 85q-131 0 -254 -47q-64 -23 -65 -23q-19 0 -27 19q-8 18 -8 31q0 14 9 23q10 10 38 20q155 61 313 61q232 0 328 -103q96 -104 96 -288
q0 -209 -192 -410q-26 -26 -92 -88q-53 -50 -85 -79q-27 -25 -107 -93q-72 -62 -96 -81t-117 -96q-94 -78 -110 -89q162 2 779 2q34 0 34 -31v-22q0 -31 -34 -31z" />
    <glyph glyph-name="three" unicode="3" horiz-adv-x="1122" 
d="M641 729q126 -5 211 -94q86 -91 86 -244q0 -219 -120 -318q-121 -100 -353 -100q-194 0 -291 35q-31 12 -40 20t-9 21q0 18 12 39q10 16 27 16q8 0 16 -3q11 -4 23 -8q23 -7 24 -7q93 -29 242 -29q122 0 203 29q79 28 115 81t48 100q11 44 11 114q0 153 -91 229t-333 76
q-35 0 -35 41t43 41q220 0 303 72q82 72 82 200q0 156 -73 221q-71 64 -257 64q-115 0 -227 -39q-62 -22 -65 -22q-17 0 -23 14q-12 24 -12 35q0 15 9 22q11 9 38 19q138 55 289 55q233 0 323 -87t90 -280q0 -128 -77 -211q-75 -81 -189 -102z" />
    <glyph glyph-name="four" unicode="4" horiz-adv-x="1122" 
d="M758 389h-611q-51 0 -51 47q0 18 31 86l420 838q23 47 45 47q34 0 41 -4q14 -6 14 -21q0 -19 -16 -51l-434 -858h561v404q0 36 33 36h24q33 0 33 -34v-406h217q35 0 35 -31v-22q0 -31 -35 -31h-217v-360q0 -35 -33 -35h-24q-33 0 -33 35v360z" />
    <glyph glyph-name="five" unicode="5" horiz-adv-x="1122" 
d="M289 815q139 21 266 21q234 0 329 -97t95 -323q0 -443 -481 -443q-184 0 -303 35q-48 15 -48 41q0 13 13 39q6 16 26 16q8 0 19 -4l31 -10q20 -7 30 -8q89 -25 244 -25q377 0 377 357q0 196 -85 268t-265 72q-63 0 -162 -12q-91 -11 -101 -11q-65 0 -65 66q0 56 2 102
l22 438q2 47 41 47h596q35 0 35 -30v-23q0 -31 -35 -31h-557z" />
    <glyph glyph-name="six" unicode="6" horiz-adv-x="1122" 
d="M217 705q39 62 147 109q107 46 252 46q207 0 306 -103q98 -102 98 -329q0 -211 -112 -334q-111 -121 -337 -121q-206 0 -325 139t-119 474q0 123 4 198q5 88 19 174q16 96 38 154t66 123q39 58 99 95q61 37 143 58q84 21 190 21q148 0 227 -29q17 -6 17 -24
q0 -12 -10 -41q-6 -17 -19 -17q-3 0 -23 5q-16 4 -20 4q-92 18 -168 18q-88 0 -154 -15q-65 -15 -114 -37q-45 -20 -81 -69q-30 -40 -54 -87q-20 -38 -35 -118q-15 -79 -21 -134q-8 -76 -14 -160zM219 545q0 -80 8 -150q45 -336 355 -336q346 0 346 377q0 340 -314 340
q-131 0 -231 -38q-98 -37 -143 -105q-21 -29 -21 -88z" />
    <glyph glyph-name="seven" unicode="7" horiz-adv-x="1122" 
d="M891 1305q-95 0 -249 -1t-499 -1q-34 0 -34 30v21q0 30 34 30h781q63 0 63 -47q0 -28 -18 -73l-488 -1235q-18 -45 -45 -45q-22 0 -37 6q-20 7 -20 24q0 18 18 58z" />
    <glyph glyph-name="eight" unicode="8" horiz-adv-x="1122" 
d="M731 729q130 -23 203 -111q74 -89 74 -243q0 -402 -445 -402q-228 0 -339 96q-109 94 -109 302q0 284 272 356q-225 63 -225 332q0 350 409 350q209 0 302 -81q94 -82 94 -267q0 -263 -236 -332zM915 373q0 311 -354 311q-157 0 -256 -72q-98 -71 -98 -235
q0 -185 94 -252q95 -68 260 -68q167 0 261 71q93 70 93 245zM877 1055q0 134 -70 202t-244 68q-175 0 -242 -70t-67 -208q0 -148 89 -214q90 -67 220 -67q118 0 216 68t98 221z" />
    <glyph glyph-name="nine" unicode="9" horiz-adv-x="1122" 
d="M903 662q-48 -63 -151 -97q-107 -35 -240 -35q-207 0 -306 102q-100 103 -100 324q0 212 116 333q116 120 343 120q101 0 173 -27q75 -28 133 -92q62 -69 93 -188q31 -121 31 -301q0 -165 -9 -274q-9 -106 -41 -223q-31 -114 -90 -180q-60 -68 -163 -109
q-105 -42 -252 -42q-162 0 -252 33q-14 4 -14 27q0 12 10 41q6 16 19 16q7 0 23 -4t20 -4q111 -25 196 -25q86 0 156 17q69 17 114 43q46 27 79 70q30 40 52 92q17 40 30 111q12 64 18 126q6 63 12 139v7zM903 823q0 104 -10 183q-21 144 -94 230q-73 87 -244 87
q-356 0 -356 -375q0 -334 315 -334q134 0 237 39t130 82q22 37 22 88z" />
    <glyph glyph-name="colon" unicode=":" horiz-adv-x="448" 
d="M322 59q0 -75 -76 -75t-76 75q0 76 76 76t76 -76zM322 936q0 -76 -76 -76t-76 76t76 76t76 -76z" />
    <glyph glyph-name="semicolon" unicode=";" horiz-adv-x="448" 
d="M322 936q0 -76 -76 -76t-76 76t76 76t76 -76zM252 164h31q30 0 30 -37q0 -265 -174 -432q-24 -19 -33 -19q-11 0 -26 15q-14 14 -14 24q0 13 12 25q138 147 139 379q0 45 35 45z" />
    <glyph glyph-name="less" unicode="&#x3c;" horiz-adv-x="1435" 
d="M334 602l811 -375q24 -11 24 -37q0 -27 -6 -45t-24 -18q-17 0 -33 10l-848 402q-25 13 -25 47v26q0 32 25 45l858 416q12 6 27 6q14 0 18 -14q6 -17 6 -45q0 -26 -24 -37z" />
    <glyph glyph-name="equal" unicode="=" horiz-adv-x="1435" 
d="M1251 393q0 -28 -28 -28h-1012q-27 0 -27 28v29q0 29 27 29h1012q28 0 28 -29v-29zM1251 772q0 -27 -28 -27h-1012q-27 0 -27 27v33q0 26 27 26h1012q28 0 28 -26v-33z" />
    <glyph glyph-name="greater" unicode="&#x3e;" horiz-adv-x="1435" 
d="M1102 604l-811 375q-25 11 -25 37q0 27 6 45t25 18t33 -10l848 -401q24 -12 24 -47v-27q0 -33 -24 -45l-859 -416q-12 -6 -26 -6q-15 0 -19 14q-6 15 -6 45q0 26 25 37z" />
    <glyph glyph-name="question" unicode="?" horiz-adv-x="796" 
d="M340 418h-23q-28 0 -28 28q-2 70 -2 113q0 112 35 173q34 59 137 126q103 63 140 132q38 70 38 173q0 223 -252 223q-144 0 -246 -32q-18 -6 -28 -6q-14 0 -21 14q-8 22 -8 39q0 16 16 22q112 50 291 50q340 0 340 -304q0 -129 -41 -202q-40 -72 -160 -158
q-97 -69 -124 -112q-26 -41 -31 -132q-2 -66 -2 -119q0 -28 -31 -28zM395 59q0 -75 -76 -75q-75 0 -75 75q0 76 75 76q76 0 76 -76z" />
    <glyph glyph-name="at" unicode="@" horiz-adv-x="1644" 
d="M1004 225q-100 -108 -277 -108q-264 0 -264 254q0 144 56 283q57 141 153 225q107 94 297 94q113 0 207 -39q38 -18 38 -55q0 -31 -10 -70l-100 -473q-10 -41 -10 -80q0 -51 49 -51q43 0 96 31q104 67 163 207q60 143 60 296q0 518 -536 518q-320 0 -519 -227
q-200 -229 -200 -569q0 -298 158 -464q157 -165 475 -165q240 0 444 74q44 16 53 16q15 0 25 -24q6 -16 6 -25q0 -19 -47 -37q-213 -84 -487 -84q-342 0 -527 181q-186 181 -186 528q0 378 222 623t587 245q299 0 458 -144q158 -143 158 -440q0 -248 -125 -435
q-124 -185 -307 -185q-58 0 -83 22q-25 23 -27 78zM1018 356l94 435q8 43 8 51q0 25 -26 32q-52 19 -140 19q-145 0 -231 -74q-75 -64 -121 -187q-47 -126 -47 -241q0 -101 46 -147q47 -47 153 -47q120 0 211 73q11 8 30 31q16 17 23 55z" />
    <glyph glyph-name="A" unicode="A" horiz-adv-x="1173" 
d="M283 498l-162 -459q-15 -45 -41 -45q-32 0 -45 4q-17 6 -17 22q0 11 15 50l477 1321q22 63 80 63h14q48 0 72 -70l465 -1314q14 -36 14 -50q0 -16 -16 -22q-13 -4 -45 -4q-26 0 -41 45l-164 459h-606zM311 582h549l-270 784z" />
    <glyph glyph-name="B" unicode="B" horiz-adv-x="1286" 
d="M604 0h-205q-95 0 -135 38q-39 37 -39 134v1096q0 91 34 134q35 44 130 44h213q100 0 207 -12q297 -28 297 -347q0 -137 -51 -216q-50 -78 -164 -113q262 -61 262 -338q0 -293 -211 -377q-107 -43 -338 -43zM317 713v-541q0 -88 80 -88h211q216 0 297 35q154 72 154 303
q0 184 -156 258q-69 33 -239 33h-347zM317 797h347q168 0 219 26q129 66 129 256q0 121 -42 175q-43 56 -118 85q-58 23 -238 23h-227q-70 0 -70 -80v-485z" />
    <glyph glyph-name="C" unicode="C" horiz-adv-x="1220" 
d="M231 731q0 -75 6 -169q5 -74 19 -154q15 -84 45 -141q28 -52 79 -107q49 -52 125 -76q80 -25 179 -25q169 0 354 50q55 16 68 16q20 0 31 -29q4 -11 4 -22q0 -24 -45 -39q-188 -62 -406 -62q-283 0 -419 163t-136 564q0 414 129 593q130 180 467 180q193 0 334 -31
q47 -11 47 -39q0 -16 -10 -39q-6 -16 -29 -16q-8 0 -65 12q-107 26 -299 26q-97 0 -167 -19q-75 -20 -123 -51q-51 -33 -85 -84q-32 -49 -55 -103q-20 -48 -31 -123q-11 -79 -14 -134q-3 -60 -3 -141z" />
    <glyph glyph-name="D" unicode="D" horiz-adv-x="1429" 
d="M551 0h-158q-93 0 -131 39q-37 38 -37 129v1104q0 97 37 135q38 39 135 39h166q233 0 363 -39q368 -106 368 -668q0 -549 -379 -690q-129 -49 -364 -49zM317 172q0 -88 80 -88h168q224 0 344 53q289 129 289 604q0 445 -264 568q-114 53 -371 53h-174q-72 0 -72 -80
v-1110z" />
    <glyph glyph-name="E" unicode="E" horiz-adv-x="1132" 
d="M1014 0h-608q-99 0 -140 36t-41 140v1092q0 101 37 139q38 39 141 39h582q35 0 35 -31v-22q0 -31 -35 -31h-598q-70 0 -70 -80v-485h603q34 0 34 -31v-23q0 -30 -34 -30h-603v-541q0 -88 80 -88h617q35 0 35 -31v-22q0 -31 -35 -31z" />
    <glyph glyph-name="F" unicode="F" horiz-adv-x="1077" 
d="M317 31q0 -37 -32 -37h-29q-31 0 -31 35v1239q0 98 37 138t135 40h588q35 0 35 -31v-22q0 -31 -35 -31h-594q-74 0 -74 -86v-526h580q35 0 35 -31v-23q0 -30 -35 -30h-580v-635z" />
    <glyph glyph-name="G" unicode="G" horiz-adv-x="1349" 
d="M1204 158q0 -43 -14 -68q-17 -26 -51 -43q-148 -74 -443 -74q-288 0 -424 163q-137 164 -137 564q0 412 135 592q136 181 486 181q190 0 331 -31q48 -11 48 -37q0 -14 -9 -41q-6 -16 -24 -16q-21 0 -70 10q-137 28 -325 28q-128 0 -215 -39q-91 -41 -140 -99
q-50 -59 -78 -152q-27 -90 -35 -174q-8 -85 -8 -191q0 -87 5 -159q5 -75 17 -151q14 -90 43 -145q31 -58 78 -110q49 -53 127 -80q79 -27 183 -27q218 0 367 41q31 10 44 26q11 14 11 54v486h-365q-34 0 -34 30v23q0 31 34 31h422q41 0 41 -48v-544z" />
    <glyph glyph-name="H" unicode="H" horiz-adv-x="1437" 
d="M317 29q0 -35 -32 -35h-27q-33 0 -33 35v1388q0 35 35 35h27q30 0 30 -35v-620h803v620q0 35 35 35h27q30 0 30 -35v-1388q0 -35 -32 -35h-27q-33 0 -33 35v684h-803v-684z" />
    <glyph glyph-name="I" unicode="I" horiz-adv-x="542" 
d="M317 29q0 -35 -32 -35h-27q-33 0 -33 35v1390q0 35 35 35h27q30 0 30 -35v-1390z" />
    <glyph glyph-name="J" unicode="J" horiz-adv-x="604" 
d="M379 74q0 -105 -22 -165q-20 -55 -68 -95q-51 -42 -139 -77q-90 -36 -125 -36q-23 0 -29 16q-8 24 -8 37q0 26 37 33q122 27 184 72q78 57 78 215v1345q0 35 35 35h26q31 0 31 -35v-1345z" />
    <glyph glyph-name="K" unicode="K" horiz-adv-x="1210" 
d="M317 29q0 -35 -32 -35h-27q-33 0 -33 35v1390q0 35 35 35h27q30 0 30 -35v-624h191q67 0 90 32l453 598q21 27 49 27q27 0 41 -2q18 -2 18 -20t-20 -41q-362 -470 -496 -633l531 -693q24 -33 24 -43q0 -16 -16 -20q-15 -4 -47 -4q-27 0 -50 29l-497 653q-24 35 -78 35
h-193v-684z" />
    <glyph glyph-name="L" unicode="L" horiz-adv-x="1097" 
d="M1014 0h-613q-97 0 -137 38q-39 37 -39 130v1251q0 35 35 35h27q30 0 30 -35v-1247q0 -88 80 -88h617q35 0 35 -31v-22q0 -31 -35 -31z" />
    <glyph glyph-name="M" unicode="M" horiz-adv-x="1667" 
d="M315 29q0 -35 -32 -35h-25q-33 0 -33 35v1333q0 92 70 92h20q33 0 50 -15q14 -13 38 -65q375 -818 433 -960l428 960q35 80 88 80h18q42 0 57 -18t15 -72v-1335q0 -35 -33 -35h-23q-32 0 -32 35q0 1075 6 1345l-459 -997q-21 -49 -59 -49h-15q-39 0 -63 51l-455 995
q6 -285 6 -1345z" />
    <glyph glyph-name="N" unicode="N" horiz-adv-x="1443" 
d="M315 29q0 -35 -32 -35h-25q-33 0 -33 35v1349q0 76 62 76h22q27 0 42 -12t36 -45q581 -1000 743 -1303q-2 194 -2 1323q0 35 35 35h25q31 0 31 -35v-1362q0 -63 -54 -63h-26q-28 0 -42 11q-17 14 -34 42l-750 1309q2 -278 2 -1325z" />
    <glyph glyph-name="O" unicode="O" horiz-adv-x="1406" 
d="M1272 733q0 -296 -65 -465t-185 -231q-123 -64 -326 -64q-198 0 -316 63t-181 230q-64 171 -64 465q0 224 42 374q42 151 124 228q85 80 179 109q101 31 233 31q117 0 202 -17t155 -62q75 -48 114 -128q40 -81 64 -213q24 -131 24 -320zM1176 731q0 171 -18 285
q-18 117 -49 188q-31 73 -92 114q-57 38 -131 54q-70 15 -179 15q-123 0 -205 -27t-147 -96q-64 -68 -94 -200q-30 -130 -30 -331q0 -211 29 -348q28 -135 92 -206q63 -71 143 -95q83 -25 203 -25q124 0 203 24q83 25 147 92q67 71 97 205q31 141 31 351z" />
    <glyph glyph-name="P" unicode="P" horiz-adv-x="1255" 
d="M317 29q0 -35 -34 -35h-25q-33 0 -33 35v1249q0 83 35 126q34 42 127 42h182q233 0 340 -43q209 -84 209 -361q0 -304 -270 -378q-94 -27 -268 -27h-263v-608zM317 721h273q192 0 282 39q150 66 150 278q0 126 -39 190t-111 97q-83 37 -299 37h-180q-39 0 -58 -19
q-18 -18 -18 -65v-557z" />
    <glyph glyph-name="Q" unicode="Q" horiz-adv-x="1406" 
d="M1272 733q0 -281 -55 -442t-170 -238l319 -211q18 -11 18 -26q0 -11 -22 -43q-11 -17 -25 -17q-11 0 -22 8l-367 242q-105 -33 -252 -33q-198 0 -316 63t-181 230q-64 171 -64 465q0 224 42 374q42 151 124 228q85 80 179 109q101 31 233 31q117 0 202 -17t155 -62
q75 -48 114 -128q40 -81 64 -213q24 -131 24 -320zM1176 731q0 171 -18 285q-18 117 -49 188q-31 73 -92 114q-57 38 -131 54q-66 14 -179 14q-126 0 -205 -26q-82 -27 -147 -96q-64 -68 -94 -200q-30 -130 -30 -331q0 -211 29 -348q28 -135 92 -206q63 -71 143 -95
q83 -25 203 -25q124 0 203 24q83 25 147 92q67 71 97 205q31 141 31 351z" />
    <glyph glyph-name="R" unicode="R" horiz-adv-x="1257" 
d="M317 29q0 -35 -34 -35h-25q-33 0 -33 35v1245q0 90 36 131t128 41h164q243 0 342 -39q113 -45 160 -128t47 -218q0 -159 -79 -257q-80 -99 -228 -126l354 -617q16 -28 16 -41q0 -16 -16 -20q-18 -6 -43 -6q-26 0 -49 39l-355 633q-73 -7 -139 -7h-246v-630zM317 743h256
q186 0 283 41q150 66 150 273q0 125 -37 181t-111 89q-81 35 -301 35h-156q-47 0 -65 -21q-19 -22 -19 -65v-533z" />
    <glyph glyph-name="S" unicode="S" horiz-adv-x="1134" 
d="M692 731q183 -56 253 -131q73 -78 73 -223q0 -196 -113 -300t-370 -104q-214 0 -388 68q-34 15 -34 33q0 13 10 39q11 24 33 24q11 0 47 -14q153 -62 332 -62q103 0 180 21q76 21 114 50q40 31 62 76q24 50 28 80q5 38 5 81q0 40 -9 80q-7 32 -37 72q-29 40 -97 75
q-68 36 -171 68l-207 63q-134 44 -202 134q-70 93 -70 214q0 196 115 297t364 101q175 0 316 -39q32 -7 32 -33q0 -12 -10 -41q-6 -19 -30 -19q-2 0 -7 1t-16 3.5t-21 4.5q-140 36 -274 36q-218 0 -296 -77q-79 -78 -79 -226q0 -107 57 -173q58 -67 232 -122z" />
    <glyph glyph-name="T" unicode="T" horiz-adv-x="1140" 
d="M616 29q0 -35 -32 -35h-27q-33 0 -33 35v1333h-442q-35 0 -35 31v22q0 31 35 31h977q35 0 35 -31v-22q0 -31 -35 -31h-443v-1333z" />
    <glyph glyph-name="U" unicode="U" horiz-adv-x="1409" 
d="M1198 1419v-841q0 -179 -10 -260q-10 -84 -45 -150q-107 -197 -443 -197q-170 0 -279 48t-165 167q-45 94 -45 387v846q0 35 35 35h26q31 0 31 -35v-897q0 -232 47 -315q86 -148 355 -148q278 0 352 140q49 91 49 313v907q0 35 35 35h26q31 0 31 -35z" />
    <glyph glyph-name="V" unicode="V" horiz-adv-x="1153" 
d="M573 80l469 1327q15 45 41 45q23 0 45 -6q17 -6 17 -23q0 -10 -15 -49l-479 -1321q-22 -59 -67 -59h-23q-51 0 -72 61l-466 1317q-15 33 -15 51q0 17 17 23q23 6 47 6t39 -45q390 -1097 462 -1327z" />
    <glyph glyph-name="W" unicode="W" horiz-adv-x="1896" 
d="M948 1298l-383 -1259q-12 -45 -67 -45h-25q-47 0 -59 47l-338 1335q-8 32 -8 49t16 23q11 4 43 4q27 0 35 -33q281 -1103 332 -1331q70 249 383 1247q18 56 65 56h23q43 0 61 -56q324 -1068 373 -1249q26 116 334 1323q12 43 39 43q19 0 38 -4q19 -5 19 -25
q0 -12 -10 -51l-349 -1329q-15 -49 -63 -49h-25q-48 0 -63 49z" />
    <glyph glyph-name="X" unicode="X" horiz-adv-x="1277" 
d="M166 33q-27 -37 -60 -37q-29 0 -36 4q-13 5 -13 18q0 15 27 54l487 676l-444 618q-31 45 -31 59q0 19 21 23q14 2 39 2q27 0 45 -29l436 -616l438 614q24 33 51 33q28 0 37 -4q11 -6 11 -16q0 -22 -21 -50l-455 -637l480 -669q28 -38 28 -56q0 -14 -12 -20q-11 -4 -39 -4
q-30 0 -63 45q-385 535 -461 649z" />
    <glyph glyph-name="Y" unicode="Y" horiz-adv-x="1091" 
d="M592 31q0 -37 -33 -37h-27q-32 0 -32 37v614l-465 725q-27 40 -27 57t17 23q7 4 41 4q24 0 47 -35q356 -560 436 -696q55 98 428 686q29 45 57 45q21 0 31 -2q18 -2 18 -20q0 -23 -20 -52l-471 -735v-614z" />
    <glyph glyph-name="Z" unicode="Z" horiz-adv-x="1202" 
d="M1102 0h-987q-64 0 -64 55q0 29 27 66l913 1241h-829q-39 0 -39 31v20q0 33 39 33h878q66 0 66 -55q0 -33 -27 -66l-917 -1241h940q39 0 39 -31v-22q0 -31 -39 -31z" />
    <glyph glyph-name="bracketleft" unicode="[" horiz-adv-x="546" 
d="M254 -211h223q23 0 23 -20v-27q0 -27 -23 -27h-289q-22 0 -22 25v1776q0 22 22 22h289q23 0 23 -20v-31q0 -21 -23 -21h-223v-1677z" />
    <glyph glyph-name="backslash" unicode="\" horiz-adv-x="753" 
d="M633 -172l-592 1636q-12 38 -12 52q0 10 12 16q17 6 43 6q24 0 41 -45l590 -1638q8 -24 8 -33q0 -16 -12 -21q-15 -6 -39 -6q-27 0 -39 33z" />
    <glyph glyph-name="bracketright" unicode="]" horiz-adv-x="546" 
d="M293 1464h-223q-23 0 -23 21v26q0 27 23 27h288q23 0 23 -25v-1775q0 -23 -23 -23h-288q-23 0 -23 21v31q0 20 23 20h223v1677z" />
    <glyph glyph-name="asciicircum" unicode="^" horiz-adv-x="1439" 
d="M719 1294q-94 -216 -322 -696q-11 -23 -30 -23q-29 0 -48 7q-18 6 -18 20q0 11 8 29l340 717q16 34 56 34h28q42 0 58 -36l342 -719q8 -18 8 -27q0 -13 -13 -18q-18 -7 -53 -7q-17 0 -28 23q-288 604 -328 696z" />
    <glyph glyph-name="underscore" unicode="_" horiz-adv-x="1009" 
d="M0 -158h1010v-94h-1010v94z" />
    <glyph glyph-name="grave" unicode="`" horiz-adv-x="403" 
d="M291 1204l-250 275q-14 14 -14 24q0 19 16 25q12 6 45 6q31 0 53 -25l221 -272q13 -18 13 -27q0 -12 -10 -18q-12 -6 -35 -6q-22 0 -39 18z" />
    <glyph glyph-name="a" unicode="a" horiz-adv-x="1060" 
d="M872 174q0 -56 -14 -84q-12 -29 -47 -47q-120 -70 -356 -70q-195 0 -269 87q-73 86 -73 235q0 166 120 233q103 56 308 56q159 0 245 -13v129q0 120 -16 164q-18 47 -69 73q-50 26 -171 26q-138 0 -247 -31q-54 -17 -62 -17q-15 0 -20 17q-8 30 -8 35q0 19 26 26
q144 49 330 49q195 0 264 -69q36 -36 48 -95q11 -54 11 -165v-539zM786 498q-79 10 -239 10q-200 0 -283 -53q-63 -41 -63 -160q0 -117 55 -179q56 -63 213 -63q173 0 260 37q35 15 47 37q10 20 10 68v303z" />
    <glyph glyph-name="b" unicode="b" horiz-adv-x="1124" 
d="M188 158v1343q0 31 33 31h23q30 0 30 -31v-561q111 98 375 98q186 0 271 -124q86 -125 86 -398q0 -214 -54 -337q-52 -119 -150 -163q-96 -43 -265 -43q-154 0 -265 39q-45 16 -67 47q-17 25 -17 99zM274 160q0 -35 13 -54q11 -17 47 -28q98 -25 207 -25q229 0 303 98
t74 351q0 242 -57 347t-238 105q-213 0 -308 -63q-28 -18 -34 -33q-7 -14 -7 -45v-653z" />
    <glyph glyph-name="c" unicode="c" horiz-adv-x="935" 
d="M207 514q0 -83 6 -146q6 -59 26 -125q19 -63 54 -102t94 -63q63 -25 141 -25q129 0 250 31q40 12 47 12q14 0 21 -16q8 -13 8 -29q0 -24 -31 -35q-126 -43 -295 -43q-202 0 -306 119q-103 118 -103 400q0 287 104 418q105 132 348 132q117 0 228 -24q35 -8 35 -33
q0 -15 -9 -35q-7 -18 -24 -18q-18 0 -51 10q-78 21 -191 21q-92 0 -160 -27q-67 -27 -103 -66t-57 -102q-23 -69 -27 -120q-5 -63 -5 -134z" />
    <glyph glyph-name="d" unicode="d" horiz-adv-x="1124" 
d="M936 166q0 -54 -10 -74q-15 -32 -60 -55q-130 -64 -342 -64q-210 0 -308 119q-97 118 -97 393q0 315 111 437q110 120 364 120q167 0 256 -38v497q0 31 33 31h22q31 0 31 -31v-1335zM850 207v645q0 62 -39 78q-78 33 -223 33q-222 0 -301 -105q-80 -106 -80 -358
q0 -234 68 -340q70 -109 245 -109q186 0 277 41q32 15 43 39q10 20 10 76z" />
    <glyph glyph-name="e" unicode="e" horiz-adv-x="1042" 
d="M207 489q1 -253 89 -345q87 -91 279 -91q130 0 246 35q41 12 49 12q15 0 21 -14q10 -20 10 -35q0 -20 -33 -31q-136 -47 -299 -47q-246 0 -348 125t-102 408q0 280 111 408t335 128q121 0 194 -32t110 -104q38 -74 49 -148q12 -78 12 -199q0 -47 -12 -59q-11 -11 -39 -11
h-672zM207 565h631q2 24 2 60q0 79 -11 137q-11 57 -38 104q-28 48 -88 73q-59 24 -148 24q-191 0 -268 -103q-75 -101 -80 -295z" />
    <glyph glyph-name="f" unicode="f" horiz-adv-x="626" 
d="M330 29q0 -35 -31 -35h-23q-32 0 -32 37v903h-144q-28 0 -28 24v27q0 29 30 29h142v133q0 197 71 278q96 109 330 113q34 0 35 -20q2 -20 2 -33q0 -27 -31 -29q-118 -6 -188 -28q-65 -21 -98 -78q-35 -61 -35 -201v-135h260q28 0 28 -25v-31q0 -24 -28 -24h-260v-905z
" />
    <glyph glyph-name="g" unicode="g" horiz-adv-x="1120" 
d="M842 41q-102 -66 -330 -66q-205 0 -299 118t-94 392q0 313 108 434t357 121q167 0 290 -34q31 -8 45 -23q13 -14 13 -49v-928q0 -143 -35 -246q-82 -239 -588 -239q-38 0 -39 20q-2 16 -2 31q0 29 29 29q255 5 363 49q110 45 149 133q33 73 33 205v53zM846 184v686
q0 50 -37 62q-87 29 -238 29q-216 0 -290 -106t-74 -355q0 -234 66 -340q66 -107 243 -107q180 0 277 41q39 17 47 41q6 12 6 49z" />
    <glyph glyph-name="h" unicode="h" horiz-adv-x="1155" 
d="M274 27q0 -33 -32 -33h-21q-33 0 -33 33v1480q0 33 27 33h33q26 0 26 -31v-561q59 48 173 69q115 21 225 21q133 0 191 -29q61 -30 85 -94q19 -52 19 -200v-688q0 -33 -33 -33h-21q-32 0 -32 33v682q0 114 -17 159q-17 47 -60 68q-41 20 -149 20q-223 0 -336 -61
q-24 -15 -34 -35q-11 -22 -11 -61v-772z" />
    <glyph glyph-name="i" unicode="i" horiz-adv-x="462" 
d="M274 29q0 -35 -32 -35h-21q-33 0 -33 35v956q0 35 33 35h21q32 0 32 -35v-956zM299 1362q0 -76 -70 -76q-71 0 -71 74q0 76 71 76q70 0 70 -74z" />
    <glyph glyph-name="j" unicode="j" horiz-adv-x="462" 
d="M272 985v-1120q0 -171 -77 -244q-45 -44 -127 -72q-81 -28 -131 -28q-23 0 -27 16q-4 15 -4 31q0 25 37 31q120 22 180 69q63 50 63 197v1120q0 35 33 35h21q32 0 32 -35zM299 1362q0 -76 -70 -76q-71 0 -71 74q0 76 71 76q70 0 70 -74z" />
    <glyph glyph-name="k" unicode="k" horiz-adv-x="1007" 
d="M274 29q0 -35 -32 -35h-21q-33 0 -33 35v1448q0 34 33 34h21q32 0 32 -34v-875h154q63 0 90 33l305 358q21 27 51 27h23q29 0 29 -21q0 -17 -21 -41l-344 -389l406 -508q24 -29 24 -43q0 -24 -33 -24h-22q-26 0 -49 29l-373 466q-28 37 -78 37h-162v-497z" />
    <glyph glyph-name="l" unicode="l" horiz-adv-x="491" 
d="M274 229q0 -85 29 -116q35 -35 109 -43q26 -1 26 -27q0 -30 -4 -37q-6 -12 -31 -12q-137 0 -190 92q-25 45 -25 135v1276q0 35 35 35h21q30 0 30 -35v-1268z" />
    <glyph glyph-name="m" unicode="m" horiz-adv-x="1785" 
d="M274 27q0 -33 -32 -33h-21q-33 0 -33 33v809q0 86 60 114q169 88 409 88q187 0 250 -108q117 108 410 108q125 0 180 -29q58 -30 82 -94q18 -49 18 -200v-688q0 -33 -32 -33h-21q-33 0 -33 33v682q0 117 -16 159q-17 47 -54 68q-36 20 -141 20q-183 0 -317 -67
q-22 -10 -37 -33q-10 -16 -10 -59q0 -17 1 -40t1 -44v-686q0 -33 -33 -33h-20q-33 0 -33 33v690q0 109 -16 151q-16 46 -55 68q-36 20 -140 20q-200 0 -317 -59q-26 -16 -37 -33q-13 -23 -13 -65v-772z" />
    <glyph glyph-name="n" unicode="n" horiz-adv-x="1155" 
d="M274 27q0 -33 -32 -33h-21q-33 0 -33 33v809q0 86 60 114q169 88 424 88q133 0 191 -29q61 -30 85 -94q19 -52 19 -200v-688q0 -33 -33 -33h-21q-32 0 -32 33v682q0 114 -17 159q-17 47 -60 68q-41 20 -149 20q-214 0 -331 -59q-26 -16 -37 -33q-13 -23 -13 -65v-772z
" />
    <glyph glyph-name="o" unicode="o" horiz-adv-x="1095" 
d="M977 516q0 -315 -98 -428q-100 -115 -336 -115q-234 0 -329 112t-95 425q0 157 31 269q30 107 93 164t136 78t178 21q100 0 156 -11q60 -12 116 -42q54 -29 85 -89t47 -152t16 -232zM889 508q0 148 -18 236q-19 93 -60 138q-43 48 -101 64q-60 17 -157 17
q-115 0 -187 -32t-115 -132q-44 -102 -44 -283q0 -195 38 -298q37 -101 105 -133q69 -32 195 -32q93 0 149 15q57 15 105 59q48 43 69 138q21 93 21 243z" />
    <glyph glyph-name="p" unicode="p" horiz-adv-x="1124" 
d="M274 -449q0 -30 -32 -30h-23q-31 0 -31 30v1268q0 66 11 88q18 33 59 54q154 77 377 77q198 0 284 -116q87 -117 87 -394q0 -217 -54 -344q-53 -124 -151 -167q-100 -44 -271 -44q-156 0 -256 47v-469zM274 168q0 -62 39 -78q87 -37 219 -37q227 0 307 98q79 97 79 363
q0 234 -61 338q-60 102 -239 102q-178 0 -290 -51q-38 -17 -45 -37q-9 -20 -9 -73v-625z" />
    <glyph glyph-name="q" unicode="q" horiz-adv-x="1124" 
d="M936 -449q0 -30 -33 -30h-22q-31 0 -31 33v518q-112 -99 -375 -99q-185 0 -270 124q-86 125 -86 401q0 218 55 338q54 119 155 163q98 43 267 43q148 0 256 -38q46 -16 68 -48q16 -23 16 -98v-1307zM850 199v653q0 39 -12 57t-47 29q-98 25 -199 25q-231 0 -308 -100
t-77 -351q0 -97 6 -160q6 -64 24 -124q18 -62 49 -95q30 -33 85 -55q53 -21 131 -21q209 0 307 64q28 19 35 33q6 12 6 45z" />
    <glyph glyph-name="r" unicode="r" horiz-adv-x="714" 
d="M274 27q0 -33 -32 -33h-21q-33 0 -33 33v798q0 72 39 111q33 34 141 69q103 33 210 33q49 0 69 -4q21 -4 21 -20q0 -27 -4 -43q-4 -21 -25 -21q-11 0 -29 1t-37 1q-158 0 -249 -53q-29 -15 -39 -37q-11 -22 -11 -63v-772z" />
    <glyph glyph-name="s" unicode="s" horiz-adv-x="860" 
d="M481 453l-168 55q-109 35 -159 94q-52 61 -52 154q0 284 355 284q145 0 245 -24q35 -8 35 -33q0 -9 -8 -35q-6 -18 -22 -18q-13 0 -31 6q-105 27 -219 27q-157 0 -212 -53t-55 -142q0 -73 40 -116q42 -45 165 -85l146 -47q125 -41 182 -96q57 -56 57 -162
q0 -135 -89 -212t-279 -77q-185 0 -297 47q-25 11 -25 29q0 13 8 31q10 22 29 22q4 0 33 -10q102 -39 252 -39q87 0 150 19q60 18 87 51q28 34 35 63q8 32 8 72q0 69 -40 110t-171 85z" />
    <glyph glyph-name="t" unicode="t" horiz-adv-x="645" 
d="M322 356q0 -138 32 -198q24 -47 80 -68q55 -21 170 -27q31 -2 31 -28q0 -13 -2 -33q-1 -20 -35 -20q-116 2 -182 22q-68 21 -115 74q-65 77 -65 287v569h-144q-29 0 -29 29v22q0 29 31 29h142q0 57 6 246q0 36 26 36h27q27 0 27 -34v-248h256q32 0 32 -27v-22
q0 -31 -35 -31h-253v-578z" />
    <glyph glyph-name="u" unicode="u" horiz-adv-x="1155" 
d="M188 322v665q0 33 33 33h21q32 0 32 -33v-659q0 -134 21 -181q39 -94 240 -94q194 0 296 41q26 11 37 31q13 23 13 74v788q0 33 32 33h21q33 0 33 -33v-827q0 -90 -60 -119q-142 -68 -399 -68q-244 0 -295 131q-25 66 -25 218z" />
    <glyph glyph-name="v" unicode="v" horiz-adv-x="905" 
d="M453 80q43 121 342 901q15 41 39 41q17 0 36 -4q21 -2 21 -23q0 -17 -12 -47l-359 -911q-16 -43 -57 -43h-25q-41 0 -59 47l-350 905q-13 32 -13 45q0 22 23 27q15 4 39 4q13 0 21 -8q9 -8 16 -31q302 -798 338 -903z" />
    <glyph glyph-name="w" unicode="w" horiz-adv-x="1464" 
d="M731 874q-32 -112 -262 -827q-17 -53 -61 -53h-27q-45 0 -62 51l-274 905q-10 29 -10 43q0 24 22 25q19 4 39 4q15 0 21 -8t14 -37q211 -688 264 -899l262 825q21 64 68 64h16q17 0 26 -3q8 -3 21 -17q14 -16 21 -40q236 -688 276 -829l252 893q7 29 16 41q7 10 23 10
q18 0 39 -4q17 -5 17 -21q0 -3 -13 -57l-258 -887q-16 -59 -59 -59h-31q-29 0 -41 13q-13 15 -20 40q-245 714 -279 827z" />
    <glyph glyph-name="x" unicode="x" horiz-adv-x="985" 
d="M489 463l-329 -436q-23 -31 -49 -31q-23 0 -33 2q-17 5 -17 20q0 14 25 45l346 457l-321 430q-25 31 -25 45q0 15 16 19q19 4 45 4q22 0 52 -41l295 -399q45 63 303 407q23 33 49 33q28 0 39 -4q12 -2 12 -19q0 -9 -25 -45l-321 -428l348 -461q23 -29 23 -41
q0 -15 -17 -20q-11 -4 -33 -4q-30 0 -53 29z" />
    <glyph glyph-name="y" unicode="y" horiz-adv-x="1155" 
d="M188 305v682q0 33 33 33h21q32 0 32 -33v-676q0 -115 21 -166q18 -44 66 -67q49 -23 155 -23q200 0 315 62q26 16 37 33q13 23 13 65v772q0 33 32 33h21q33 0 33 -33v-979q0 -145 -35 -248q-82 -239 -574 -239q-38 0 -39 20q-2 16 -2 33q0 29 29 29q248 5 353 48
q106 44 145 132q33 73 33 205v69q-131 -84 -377 -84q-238 0 -287 129q-25 69 -25 203z" />
    <glyph glyph-name="z" unicode="z" horiz-adv-x="956" 
d="M850 0h-719q-65 0 -65 59q0 36 43 86q580 686 673 789h-651q-29 0 -29 27v22q0 31 35 31h660q75 0 75 -60q0 -34 -30 -75l-682 -799h688q33 0 33 -29v-26q0 -25 -31 -25z" />
    <glyph glyph-name="braceleft" unicode="{" horiz-adv-x="602" 
d="M176 629q80 -24 124 -85t44 -206v-338q0 -122 31 -168q41 -57 190 -57q17 0 17 -23v-31q0 -20 -23 -20q-120 2 -178 19q-58 18 -92 71q-41 62 -41 219v326q0 132 -43 185q-44 55 -139 71q-19 2 -19 22v23q0 20 19 25q101 17 141 74q41 59 41 179v318q0 150 43 215
q67 104 268 104q23 0 23 -26v-21q0 -26 -23 -26q-152 -4 -190 -72q-25 -48 -25 -160v-321q0 -148 -40 -204q-39 -55 -128 -93z" />
    <glyph glyph-name="bar" unicode="|" horiz-adv-x="417" 
d="M252 -272q0 -35 -33 -35h-20q-33 0 -33 35v1788q0 34 35 34h20q31 0 31 -34v-1788z" />
    <glyph glyph-name="braceright" unicode="}" horiz-adv-x="602" 
d="M426 625q-80 24 -124 85t-44 205v338q0 121 -31 168q-41 58 -190 58q-17 0 -17 22v31q0 20 23 20q120 -2 178 -19q58 -18 92 -71q41 -62 41 -219v-325q0 -133 43 -186t140 -70q18 -2 18 -23v-23q0 -20 -18 -24q-102 -17 -142 -75q-41 -59 -41 -179v-318q0 -150 -43 -215
q-67 -104 -268 -104q-23 0 -23 27v20q0 27 23 27q153 5 190 71q25 48 25 160v322q0 147 40 203q40 57 128 94z" />
    <glyph glyph-name="asciitilde" unicode="~" horiz-adv-x="1435" 
d="M266 512q-12 -16 -22 -16q-17 0 -35 18q-12 8 -12 25q0 14 8 22q78 99 146 139q66 39 147 39q84 0 250 -100q124 -74 202 -74q63 0 110 34t103 114q12 16 27 16q13 0 33 -16q14 -10 14 -23q0 -16 -12 -33q-65 -93 -127 -137q-61 -43 -150 -43q-99 0 -243 84
q-146 88 -220 88q-59 0 -109 -31t-110 -106z" />
    <glyph glyph-name="exclamdown" unicode="&#xa1;" horiz-adv-x="569" 
d="M199 571q0 31 26 31h27q29 0 29 -33q10 -853 10 -960q0 -35 -35 -35h-37q-31 0 -31 35q0 22 11 962zM174 961q0 75 76 75t76 -75q0 -76 -76 -76t-76 76z" />
    <glyph glyph-name="cent" unicode="&#xa2;" horiz-adv-x="1017" 
d="M629 -180q0 -35 -31 -35h-23q-30 0 -30 35v168q-191 8 -285 126t-94 392q0 259 88 383q89 125 291 143v162q0 35 33 35h22q29 0 29 -35v-158q132 0 223 -20q35 -8 35 -33q0 -17 -8 -35q-6 -16 -23 -16q-15 0 -45 6q-88 18 -199 18q-116 0 -189 -32q-74 -32 -109 -100
q-32 -62 -45 -132q-11 -60 -11 -164t10 -171q11 -72 40 -142q30 -73 94 -110t163 -37q135 0 252 26q11 2 24 6q14 5 22 6q3 0 7.5 1.5t6.5 1.5q14 0 22 -17q8 -13 8 -29q0 -23 -30 -34q-105 -35 -248 -39v-170z" />
    <glyph glyph-name="sterling" unicode="&#xa3;" horiz-adv-x="1202" 
d="M1108 0h-881q-28 0 -28 25v30q0 29 30 29h127v510h-151q-35 0 -35 27v26q0 29 35 29h151v323q0 185 66 273q56 74 138 105q84 32 222 32q166 0 295 -33q33 -8 33 -33q0 -11 -10 -40q-6 -19 -31 -19q-3 0 -43 8q-141 31 -254 31q-110 0 -167 -19t-99 -67q-57 -61 -57 -236
v-325h407q35 0 35 -29v-26q0 -27 -35 -27h-407v-510h657q31 0 31 -29v-30q0 -25 -29 -25z" />
    <glyph glyph-name="currency" unicode="&#xa4;" horiz-adv-x="1101" 
d="M946 260q-10 -10 -20 -10q-11 0 -23 12l-110 105q-106 -82 -244 -82q-142 0 -248 82l-100 -105q-14 -14 -25 -14q-12 0 -24 12l-17 16q-12 12 -12 23q0 13 12 25l109 108q-84 107 -84 248q0 133 84 244l-109 108q-12 12 -12 23q0 10 14 24l17 17q12 12 20 12q16 0 23 -12
l106 -109q107 86 246 86q146 0 242 -84l108 107q12 12 23 12q10 0 22 -12l17 -17q12 -12 12 -22q0 -11 -12 -23l-109 -108q84 -100 84 -246t-84 -246l113 -110q10 -10 10 -23t-12 -25zM850 680q0 132 -86 220q-86 87 -215 87q-127 0 -215 -88t-88 -217q0 -134 87 -223
q87 -88 216 -88t215 87q86 88 86 222z" />
    <glyph glyph-name="yen" unicode="&#xa5;" horiz-adv-x="1181" 
d="M961 713h-261l-65 -99v-94h326q34 0 34 -31v-12q0 -31 -34 -31h-326v-415q0 -37 -33 -37h-24q-33 0 -33 37v415h-316q-34 0 -34 31v12q0 31 34 31h316v94l-66 99h-250q-34 0 -34 30v13q0 30 34 30h201l-344 514q-27 40 -27 58q0 16 17 22q7 4 41 4q25 0 47 -34
q373 -564 428 -658q26 44 56 91q43 67 68 104q41 60 122 182q133 201 178 270q28 45 57 45q21 0 31 -2q18 -2 18 -20q0 -22 -20 -51l-352 -525h211q34 0 34 -30v-13q0 -30 -34 -30z" />
    <glyph glyph-name="brokenbar" unicode="&#xa6;" horiz-adv-x="452" 
d="M252 877q0 -35 -33 -35h-20q-33 0 -33 35v559q0 34 35 34h20q31 0 31 -34v-559zM252 -2q0 -35 -33 -35h-20q-33 0 -33 35v559q0 35 35 35h20q31 0 31 -35v-559z" />
    <glyph glyph-name="section" unicode="&#xa7;" horiz-adv-x="980" 
d="M696 213q67 -46 95 -94q30 -51 30 -150q0 -123 -81 -212t-275 -89q-201 0 -334 60q-16 7 -16 22q0 22 18 51q5 9 19 9h2q1 -1 2.5 -2t3.5 -1q4 -1 14 -5q2 -1 6 -2.5t6 -2.5q123 -45 287 -45q256 0 256 213q0 98 -53 154q-52 55 -219 123l-111 47q-154 63 -202 137
q-48 73 -48 178q0 218 223 275q-112 66 -112 243q0 46 12 89t43 96q30 51 100 83q68 31 170 31q146 0 254 -35q17 -6 17 -22q0 -30 -17 -53q-6 -6 -14 -6t-43 8q-102 24 -213 24q-115 0 -167 -58t-52 -151q0 -98 45 -149q46 -52 186 -113l127 -53q144 -61 192 -127
q50 -68 50 -180q0 -118 -55 -192q-54 -74 -146 -101zM805 500q0 86 -37 132t-143 97q-38 18 -98 41q-11 4 -93 37q-31 14 -51 14q-22 0 -43 -6q-152 -38 -152 -215q0 -81 35 -125q33 -42 127 -88q46 -21 122 -53q80 -34 124 -53q25 -9 39 -9t41 9q58 23 93 81q36 60 36 138z
" />
    <glyph glyph-name="dieresis" unicode="&#xa8;" horiz-adv-x="403" 
d="M92 1362q0 -74 -67 -74q-68 0 -68 72q0 74 68 74q67 0 67 -72zM444 1362q0 -74 -67 -74q-68 0 -68 72q0 74 68 74q67 0 67 -72z" />
    <glyph glyph-name="copyright" unicode="&#xa9;" horiz-adv-x="1699" 
d="M1575 707q0 -319 -201 -527q-201 -209 -526 -209t-526 209q-201 208 -201 527q0 317 201 527t524 210q333 0 531 -208t198 -529zM1501 707q0 290 -179 480q-178 189 -476 189q-293 0 -471 -190t-178 -479q0 -291 178 -479q178 -189 473 -189q296 0 474 188
q179 190 179 480zM563 711q0 -193 54 -288t221 -95q128 0 209 26q36 11 45 11q20 0 26 -25q6 -24 6 -27q0 -18 -26 -28q-100 -41 -260 -41q-186 0 -278 101q-93 102 -93 345q0 246 95 361q94 114 315 114q127 0 194 -14q31 -5 31 -29q0 -8 -8 -43q-7 -14 -21 -14q-5 0 -19 3
t-22 3q-64 10 -166 10q-81 0 -141 -21q-59 -21 -90 -53t-47 -86q-16 -53 -21 -99q-4 -39 -4 -111z" />
    <glyph glyph-name="ordfeminine" unicode="&#xaa;" horiz-adv-x="690" 
d="M571 655q0 -37 -12 -61q-12 -22 -33 -29q-77 -41 -231 -41q-219 0 -219 197q0 105 76 145q62 35 194 35q98 0 150 -6v68q0 63 -13 92q-21 55 -141 55q-74 0 -152 -18l-40 -11q-12 0 -19 15q-4 19 -4 32q0 15 18 21q87 29 209 29q134 0 178 -43q39 -39 39 -160v-320z
M496 836q-50 6 -142 6q-118 0 -166 -31q-36 -20 -36 -88q0 -66 32 -99q33 -34 123 -34q100 0 154 22q20 6 26 23q9 25 9 45v156z" />
    <glyph glyph-name="guillemotleft" unicode="&#xab;" horiz-adv-x="925" 
d="M176 541l277 -340q20 -26 20 -41q0 -13 -12 -19t-37 -6q-22 0 -51 35l-260 322q-27 30 -27 49q0 15 16 37l267 327q1 1 11 15q8 11 10 13q5 5 9 8q5 4 12 6q3 1 11 1q28 0 43 -6q12 -6 12 -16q0 -13 -24 -43zM539 541l276 -340q21 -27 21 -41q0 -12 -13 -19
q-12 -6 -37 -6q-22 0 -51 35l-260 322q-26 29 -26 49q0 15 16 37l266 327q1 1 11 15q5 7 11 13q5 5 9 8q6 4 11 6q3 1 11 1q26 0 43 -6q13 -6 13 -16q0 -12 -25 -43z" />
    <glyph glyph-name="logicalnot" unicode="&#xac;" horiz-adv-x="1435" 
d="M1231 98q0 -26 -25 -26h-32q-27 0 -27 26v461h-952q-29 0 -29 29v33q0 28 29 28h1011q25 0 25 -28v-523z" />
    <glyph glyph-name="uni00AD" unicode="&#xad;" horiz-adv-x="591" 
d="M489 502h-387q-28 0 -28 24v37q0 29 30 29h383q31 0 31 -29v-37q0 -24 -29 -24z" />
    <glyph glyph-name="registered" unicode="&#xae;" horiz-adv-x="1699" 
d="M1575 707q0 -319 -201 -527q-201 -209 -526 -209t-526 209q-201 208 -201 527q0 317 201 527t524 210q333 0 531 -208t198 -529zM1501 707q0 290 -179 480q-178 189 -476 189q-293 0 -471 -190t-178 -479q0 -291 178 -479q178 -189 473 -189q296 0 474 188
q179 190 179 480zM672 291q0 -27 -29 -27h-33q-28 0 -28 27v745q0 72 30 104q30 31 99 31h84q167 0 235 -28q123 -51 123 -228q0 -187 -168 -239q-2 -2 -6 -2l203 -348q14 -27 14 -39q0 -15 -20 -21q-19 -4 -41 -4q-23 0 -41 33l-207 362q-32 -2 -84 -2h-131v-364zM672 733
h139q121 0 164 21q41 16 66 60q26 44 26 99q0 127 -88 160q-48 19 -176 19h-74q-57 0 -57 -64v-295z" />
    <glyph glyph-name="macron" unicode="&#xaf;" horiz-adv-x="403" 
d="M434 1268h-467q-28 0 -28 24v37q0 29 30 29h463q31 0 31 -29v-37q0 -24 -29 -24z" />
    <glyph glyph-name="degree" unicode="&#xb0;" horiz-adv-x="688" 
d="M627 1178q0 -133 -78 -208t-207 -75q-125 0 -202 74t-77 207q0 132 79 207q80 75 210 75q129 0 202 -73t73 -207zM547 1176q0 104 -52 159q-53 56 -147 56q-92 0 -146 -57q-55 -58 -55 -163q0 -100 56 -154q55 -54 147 -54q93 0 145 56t52 157z" />
    <glyph glyph-name="plusminus" unicode="&#xb1;" horiz-adv-x="1435" 
d="M760 274q0 -26 -27 -26h-35q-24 0 -24 26v451h-463q-27 0 -27 27v32q0 27 27 27h461v444q0 29 26 29h35q27 0 27 -29v-444h463q28 0 28 -27v-32q0 -27 -28 -27h-463v-451zM1251 29q0 -29 -28 -29h-1012q-27 0 -27 29v30q0 29 27 29h1012q28 0 28 -29v-30z" />
    <glyph glyph-name="twosuperior" unicode="&#xb2;" 
d="M623 860h-498q-29 0 -39 11t-10 36q0 36 33 60q205 158 337 290q109 109 109 209q0 87 -45 135t-158 48q-78 0 -155 -27q-38 -12 -43 -12q-13 0 -19 12q-8 24 -8 35q0 15 31 26q99 37 207 37q149 0 209 -64q61 -66 61 -179q0 -135 -117 -252q-125 -124 -350 -295
q102 2 455 2q24 0 24 -21v-28q0 -23 -24 -23z" />
    <glyph glyph-name="threesuperior" unicode="&#xb3;" 
d="M434 1307q82 -7 136 -60q53 -51 53 -147q0 -133 -74 -195q-73 -61 -230 -61q-122 0 -188 20q-33 11 -33 29q0 12 11 37q6 12 18 12q2 0 10 -2q1 0 6.5 -1.5t8.5 -2.5l16 -4q63 -17 151 -17q137 0 181 50q43 49 43 131q0 88 -51 128t-195 42q-37 0 -37 34q0 37 39 37
q125 2 172 44t47 114q0 90 -41 122t-151 32q-74 0 -136 -21q-41 -14 -47 -14q-12 0 -18 14q-8 19 -8 29q0 19 28 29q90 34 195 34q148 0 203 -52t55 -169q0 -75 -46 -124q-47 -50 -118 -68z" />
    <glyph glyph-name="acute" unicode="&#xb4;" horiz-adv-x="403" 
d="M111 1204q-17 -18 -39 -18q-21 0 -33 6t-12 18q0 10 12 27l221 272q22 25 53 25q30 0 45 -4q17 -6 17 -23q0 -13 -15 -28z" />
    <glyph glyph-name="mu" unicode="&#xb5;" horiz-adv-x="1218" 
d="M309 -385q0 -33 -33 -33h-22q-33 0 -33 33v1372q0 33 33 33h20q33 0 33 -33v-661q0 -134 21 -181q39 -92 239 -92q195 0 297 41q26 11 37 31q12 21 12 74v788q0 33 33 33h21q32 0 32 -33v-827q0 -91 -59 -119q-142 -68 -399 -68q-182 0 -232 80v-438z" />
    <glyph glyph-name="paragraph" unicode="&#xb6;" horiz-adv-x="1132" 
d="M633 -227q0 -35 -33 -35h-20q-33 0 -33 35v725q-231 0 -342 124t-111 330q0 243 118 368q118 126 425 126h260q47 0 47 -43v-1630q0 -35 -33 -35h-20q-33 0 -33 35v1589h-225v-1589z" />
    <glyph glyph-name="periodcentered" unicode="&#xb7;" horiz-adv-x="409" 
d="M281 551q0 -76 -76 -76t-76 76t76 76t76 -76z" />
    <glyph glyph-name="cedilla" unicode="&#xb8;" horiz-adv-x="403" 
d="M176 -135q116 0 157 -42q40 -41 40 -122q0 -178 -217 -178q-62 0 -99 8q-18 6 -18 25q0 17 4 28q8 19 25 19q11 0 32 -4q30 -5 60 -5q129 0 129 99q0 52 -28 77q-26 23 -99 23h-31q-31 0 -31 29q0 18 6 51l27 147h68z" />
    <glyph glyph-name="onesuperior" unicode="&#xb9;" 
d="M561 860h-340q-22 0 -22 21v30q0 21 22 21h144v686l-136 -51q-1 0 -9 -3q-2 -1 -4.5 -1.5t-4.5 -1.5t-3 -1q-3 -1 -9 -1q-11 0 -15 10q-12 30 -12 39q0 12 16 18l162 66q29 12 49 12h9q36 0 36 -43v-729h115q25 0 25 -21v-32q0 -19 -23 -19z" />
    <glyph glyph-name="ordmasculine" unicode="&#xba;" horiz-adv-x="714" 
d="M635 856q0 -189 -64 -261q-63 -71 -217 -71q-149 0 -212 68q-62 66 -62 260q0 188 72 257t210 69q100 0 157 -22q55 -21 85 -92q31 -73 31 -208zM557 852q0 158 -42 208t-155 50q-104 0 -153 -52t-49 -202q0 -163 43 -212q44 -50 153 -50q110 0 157 48q46 47 46 210z" />
    <glyph glyph-name="guillemotright" unicode="&#xbb;" horiz-adv-x="925" 
d="M750 543l-277 340q-20 26 -20 41q0 12 12 18t37 6q22 0 51 -35l260 -321q27 -30 27 -49q0 -14 -17 -37l-266 -328q-3 -3 -11 -14q-7 -10 -10 -13q-6 -6 -10 -9q-6 -4 -11 -6q-3 -1 -11 -1q-28 0 -43 6q-12 6 -12 17q0 13 24 43zM387 543l-276 340q-21 27 -21 41
q0 12 12 18t37 6q22 0 51 -35l261 -321q26 -29 26 -49q0 -15 -16 -37l-266 -328q-7 -7 -12 -14q-7 -10 -10 -13l-2.5 -2.5t-3 -3.5t-3.5 -3q-6 -4 -11 -6q-3 -1 -12 -1q-26 0 -43 6q-12 6 -12 17q0 12 25 43z" />
    <glyph glyph-name="onequarter" unicode="&#xbc;" horiz-adv-x="1712" 
d="M518 -33q-16 -33 -43 -33q-26 0 -33 5q-8 6 -8 16q0 13 17 47l677 1409q22 45 48 45q20 0 30 -2q15 -2 15 -18t-21 -56zM1405 20q0 -24 -25 -24h-30q-23 0 -23 24v207h-375q-43 0 -43 37q0 22 21 60l258 491q12 31 33 31q4 0 24 -2h17q10 -1 10 -17q0 -13 -10 -30
l-263 -498h328v225q0 25 23 25h30q25 0 25 -25v-225h125q24 0 24 -23v-28q0 -21 -24 -21h-125v-207zM569 541h-340q-22 0 -22 20v31q0 20 22 20h144v686l-135 -51q-2 0 -10 -3q-2 -1 -4.5 -1.5t-4.5 -1.5t-3 -1q-3 -1 -9 -1q-10 0 -14 10q-13 33 -13 39q0 13 17 19l161 65
q28 12 50 12h8q37 0 37 -43v-729h114q25 0 25 -20v-33q0 -18 -23 -18z" />
    <glyph glyph-name="onehalf" unicode="&#xbd;" horiz-adv-x="1712" 
d="M1516 0h-498q-29 0 -39 11t-10 36q0 36 32 59q205 158 338 291q109 109 109 209q0 86 -45 134t-158 48q-81 0 -155 -26q-38 -12 -43 -12q-13 0 -19 12q-8 24 -8 35q0 15 31 26q99 37 206 37q150 0 210 -64q61 -66 61 -180q0 -134 -117 -251q-125 -124 -350 -295
q102 2 455 2q24 0 24 -21v-28q0 -23 -24 -23zM492 -33q-16 -33 -43 -33q-26 0 -33 5q-8 6 -8 16q0 15 16 47l678 1409q22 45 47 45q21 0 31 -2q14 -1 14 -18t-20 -56zM545 541h-340q-23 0 -23 20v31q0 20 23 20h143v686l-135 -51q-1 0 -9 -3l-7.5 -2.5t-5.5 -1.5
q-3 -1 -9 -1q-10 0 -14 10q-12 30 -12 39q0 13 16 19l162 65q28 12 49 12h8q37 0 37 -43v-729h115q24 0 24 -20v-33q0 -18 -22 -18z" />
    <glyph glyph-name="threequarters" unicode="&#xbe;" horiz-adv-x="1712" 
d="M602 -33q-16 -33 -43 -33q-26 0 -33 5q-8 6 -8 16q0 13 17 47l677 1409q22 45 48 45q20 0 30 -2q15 -2 15 -18t-21 -56zM514 987q83 -7 136 -59q52 -51 52 -148q0 -133 -73 -194q-74 -62 -230 -62q-119 0 -188 21q-33 11 -33 28q0 14 10 37q6 13 19 13q2 0 10 -2
q2 0 6.5 -2t7.5 -3l17 -4q60 -16 151 -16q138 0 181 49t43 131q0 87 -52 128q-51 41 -194 42q-37 0 -37 35q0 37 39 37q125 2 172 44t47 114q0 89 -41 121t-151 32q-77 0 -136 -20q-43 -15 -47 -15q-11 0 -18 15q-8 19 -8 28q0 19 28 29q93 35 195 35q148 0 203 -52t55 -169
q0 -75 -46 -124q-48 -52 -118 -69zM1477 20q0 -24 -25 -24h-31q-22 0 -22 24v207h-375q-43 0 -43 37q0 24 20 60l259 491q12 31 32 31q5 0 27 -2h14q10 -1 10 -17q0 -13 -10 -30l-262 -498h328v225q0 25 22 25h31q25 0 25 -25v-225h125q24 0 24 -23v-28q0 -21 -24 -21h-125
v-207z" />
    <glyph glyph-name="questiondown" unicode="&#xbf;" horiz-adv-x="796" 
d="M457 602h22q29 0 29 -29q2 -70 2 -112q0 -112 -35 -173q-34 -59 -137 -126q-103 -63 -140 -132q-38 -70 -38 -173q0 -224 252 -224q140 0 245 33q18 6 29 6q15 0 21 -14q8 -22 8 -39q0 -16 -17 -22q-112 -50 -290 -50q-340 0 -340 303q0 130 41 203t159 158
q97 69 124 112q28 43 32 132q2 66 2 118q0 29 31 29zM401 961q0 75 76 75t76 -75q0 -76 -76 -76t-76 76z" />
    <glyph glyph-name="Agrave" unicode="&#xc0;" horiz-adv-x="1173" 
d="M283 498l-162 -459q-15 -45 -41 -45q-32 0 -45 4q-17 6 -17 22q0 11 15 50l477 1321q22 63 80 63h14q48 0 72 -70l465 -1314q14 -36 14 -50q0 -16 -16 -22q-13 -4 -45 -4q-26 0 -41 45l-164 459h-606zM311 582h549l-270 784zM631 1583l-309 221q-19 16 -19 31q0 14 16 20
q29 9 58 9q28 0 57 -23l285 -225q18 -15 18 -29q0 -11 -12 -18q-18 -8 -39 -8q-27 0 -55 22z" />
    <glyph glyph-name="Aacute" unicode="&#xc1;" horiz-adv-x="1173" 
d="M283 498l-162 -459q-15 -45 -41 -45q-32 0 -45 4q-17 6 -17 22q0 11 15 50l477 1321q22 63 80 63h14q48 0 72 -70l465 -1314q14 -36 14 -50q0 -16 -16 -22q-13 -4 -45 -4q-26 0 -41 45l-164 459h-606zM311 582h549l-270 784zM541 1565q-29 -23 -56 -23q-21 0 -39 8
q-12 8 -12 19q0 12 19 28l284 226q28 22 58 22q31 0 57 -8q16 -6 16 -20q0 -16 -18 -31z" />
    <glyph glyph-name="Acircumflex" unicode="&#xc2;" horiz-adv-x="1173" 
d="M283 498l-162 -459q-15 -45 -41 -45q-32 0 -45 4q-17 6 -17 22q0 11 15 50l477 1321q22 63 80 63h14q48 0 72 -70l465 -1314q14 -36 14 -50q0 -16 -16 -22q-13 -4 -45 -4q-26 0 -41 45l-164 459h-606zM311 582h549l-270 784zM346 1561q-21 0 -33 6t-12 18q0 13 16 29
l218 205q24 24 47 24h26q25 0 45 -20l228 -217q8 -8 8 -21q0 -12 -14 -18q-16 -6 -35 -6t-49 24l-199 158l-193 -156q-32 -26 -53 -26z" />
    <glyph glyph-name="Atilde" unicode="&#xc3;" horiz-adv-x="1173" 
d="M283 498l-162 -459q-15 -45 -41 -45q-32 0 -45 4q-17 6 -17 22q0 11 15 50l477 1321q22 63 80 63h14q48 0 72 -70l465 -1314q14 -36 14 -50q0 -16 -16 -22q-13 -4 -45 -4q-26 0 -41 45l-164 459h-606zM311 582h549l-270 784zM317 1593q-21 0 -32 6q-13 7 -13 21
q0 12 13 45q60 135 161 135q47 0 166 -63q89 -49 136 -49q28 0 49 18q19 16 41 72q12 34 34 34q26 0 37 -8q11 -6 11 -18q0 -9 -7 -35q-30 -89 -69 -123q-40 -35 -99 -35q-56 0 -163 56q-108 57 -146 57q-30 0 -47 -17q-20 -20 -37 -69q-10 -27 -35 -27z" />
    <glyph glyph-name="Adieresis" unicode="&#xc4;" horiz-adv-x="1173" 
d="M283 498l-162 -459q-15 -45 -41 -45q-32 0 -45 4q-17 6 -17 22q0 11 15 50l477 1321q22 63 80 63h14q48 0 72 -70l465 -1314q14 -36 14 -50q0 -16 -16 -22q-13 -4 -45 -4q-26 0 -41 45l-164 459h-606zM311 582h549l-270 784zM471 1669q0 -74 -68 -74q-67 0 -67 72
q0 74 67 74q68 0 68 -72zM844 1669q0 -74 -68 -74q-67 0 -67 72q0 74 67 74q68 0 68 -72z" />
    <glyph glyph-name="Aring" unicode="&#xc5;" horiz-adv-x="1173" 
d="M283 498l-162 -459q-15 -45 -41 -45q-32 0 -45 4q-17 6 -17 22q0 11 15 50l477 1321q22 63 80 63h14q48 0 72 -70l465 -1314q14 -36 14 -50q0 -16 -16 -22q-13 -4 -45 -4q-26 0 -41 45l-164 459h-606zM311 582h549l-270 784zM772 1688q0 -87 -50 -134t-134 -47
q-79 0 -128 47q-48 46 -48 134q0 85 50 135q49 49 132 49q84 0 131 -48q47 -49 47 -136zM709 1690q0 122 -119 122q-54 0 -85 -31q-32 -32 -32 -91t32 -93q31 -32 87 -32q57 0 86 32q31 34 31 93z" />
    <glyph glyph-name="AE" unicode="&#xc6;" horiz-adv-x="1912" 
d="M449 518l-326 -483q-24 -39 -55 -39q-21 0 -37 2q-23 5 -23 22q0 7 25 48l858 1269q41 63 74 86q34 23 84 23h716q35 0 35 -31v-22q0 -31 -35 -31h-667v-565h602q35 0 35 -31v-23q0 -30 -35 -30h-602v-541q0 -88 80 -88h616q35 0 35 -31v-22q0 -31 -35 -31h-608
q-98 0 -139 36t-41 140v342h-557zM504 602h502v750z" />
    <glyph glyph-name="Ccedilla" unicode="&#xc7;" horiz-adv-x="1220" 
d="M686 -139q118 0 162 -45q43 -44 43 -125q0 -185 -225 -185q-60 0 -107 11q-18 6 -18 26q0 11 6 29q7 18 24 18q1 0 39 -6q25 -4 60 -4q133 0 133 103q0 54 -29 78q-28 24 -102 24h-33q-33 0 -33 31q0 12 6 53l21 106q-252 15 -375 181t-123 544q0 414 129 593
q130 180 467 180q193 0 334 -31q47 -11 47 -39q0 -16 -10 -39q-6 -16 -29 -16q-8 0 -65 12q-107 26 -299 26q-97 0 -167 -19q-75 -20 -123 -51q-51 -33 -85 -84q-32 -49 -55 -103q-20 -48 -31 -123q-11 -79 -14 -134q-3 -60 -3 -141q0 -75 6 -169q5 -74 19 -154
q15 -84 45 -141q28 -52 79 -107q49 -52 125 -76q80 -25 179 -25q169 0 354 50q55 16 68 16q20 0 31 -29q4 -11 4 -22q0 -24 -45 -39q-182 -58 -391 -62z" />
    <glyph glyph-name="Egrave" unicode="&#xc8;" horiz-adv-x="1132" 
d="M1014 0h-608q-99 0 -140 36t-41 140v1092q0 101 37 139q38 39 141 39h582q35 0 35 -31v-22q0 -31 -35 -31h-598q-70 0 -70 -80v-485h603q34 0 34 -31v-23q0 -30 -34 -30h-603v-541q0 -88 80 -88h617q35 0 35 -31v-22q0 -31 -35 -31zM657 1583l-309 221q-18 15 -18 31
q0 14 16 20q29 9 57 9q29 0 58 -23l284 -225q19 -16 19 -29q0 -11 -12 -18q-18 -8 -39 -8q-28 0 -56 22z" />
    <glyph glyph-name="Eacute" unicode="&#xc9;" horiz-adv-x="1132" 
d="M1014 0h-608q-99 0 -140 36t-41 140v1092q0 101 37 139q38 39 141 39h582q35 0 35 -31v-22q0 -31 -35 -31h-598q-70 0 -70 -80v-485h603q34 0 34 -31v-23q0 -30 -34 -30h-603v-541q0 -88 80 -88h617q35 0 35 -31v-22q0 -31 -35 -31zM643 1565q-29 -23 -55 -23
q-21 0 -39 8q-12 8 -12 19q0 13 18 28l285 226q28 22 57 22q31 0 57 -8q17 -6 17 -20q0 -15 -19 -31z" />
    <glyph glyph-name="Ecircumflex" unicode="&#xca;" horiz-adv-x="1132" 
d="M1014 0h-608q-99 0 -140 36t-41 140v1092q0 101 37 139q38 39 141 39h582q35 0 35 -31v-22q0 -31 -35 -31h-598q-70 0 -70 -80v-485h603q34 0 34 -31v-23q0 -30 -34 -30h-603v-541q0 -88 80 -88h617q35 0 35 -31v-22q0 -31 -35 -31zM387 1561q-21 0 -33 6t-12 18
q0 13 16 29l217 205q24 24 48 24h26q25 0 45 -20l228 -217q8 -8 8 -21q0 -12 -15 -18q-17 -6 -34 -6q-20 0 -50 24l-198 158l-193 -156q-32 -26 -53 -26z" />
    <glyph glyph-name="Edieresis" unicode="&#xcb;" horiz-adv-x="1132" 
d="M1014 0h-608q-99 0 -140 36t-41 140v1092q0 101 37 139q38 39 141 39h582q35 0 35 -31v-22q0 -31 -35 -31h-598q-70 0 -70 -80v-485h603q34 0 34 -31v-23q0 -30 -34 -30h-603v-541q0 -88 80 -88h617q35 0 35 -31v-22q0 -31 -35 -31zM514 1669q0 -74 -68 -74q-67 0 -67 72
q0 74 67 74q68 0 68 -72zM887 1669q0 -74 -68 -74q-67 0 -67 72q0 74 67 74q68 0 68 -72z" />
    <glyph glyph-name="Igrave" unicode="&#xcc;" horiz-adv-x="542" 
d="M317 29q0 -35 -32 -35h-27q-33 0 -33 35v1390q0 35 35 35h27q30 0 30 -35v-1390zM297 1583l-309 221q-19 16 -19 31q0 14 17 20q29 9 57 9t57 -23l285 -225q18 -15 18 -29q0 -11 -12 -18q-18 -8 -39 -8q-27 0 -55 22z" />
    <glyph glyph-name="Iacute" unicode="&#xcd;" horiz-adv-x="542" 
d="M317 29q0 -35 -32 -35h-27q-33 0 -33 35v1390q0 35 35 35h27q30 0 30 -35v-1390zM240 1583q-28 -22 -56 -22q-21 0 -39 8q-12 7 -12 18q0 13 19 29l284 225q29 23 58 23q28 0 57 -9q16 -6 16 -20q0 -16 -18 -31z" />
    <glyph glyph-name="Icircumflex" unicode="&#xce;" horiz-adv-x="542" 
d="M317 29q0 -35 -32 -35h-27q-33 0 -33 35v1390q0 35 35 35h27q30 0 30 -35v-1390zM23 1561q-21 0 -33 6q-13 7 -13 18q0 12 17 29l217 205q24 24 47 24h27q25 0 45 -20l227 -217q8 -8 8 -21q0 -12 -14 -18q-15 -6 -35 -6q-19 0 -49 24l-199 158l-192 -156q-32 -26 -53 -26
z" />
    <glyph glyph-name="Idieresis" unicode="&#xcf;" horiz-adv-x="542" 
d="M317 29q0 -35 -32 -35h-27q-33 0 -33 35v1390q0 35 35 35h27q30 0 30 -35v-1390zM154 1669q0 -74 -68 -74t-68 72q0 74 68 74t68 -72zM526 1669q0 -74 -67 -74q-68 0 -68 72q0 74 68 74q67 0 67 -72z" />
    <glyph glyph-name="Eth" unicode="&#xd0;" horiz-adv-x="1429" 
d="M551 0h-158q-93 0 -131 39q-37 38 -37 129v545h-141q-29 0 -29 24v31q0 29 31 29h139v475q0 97 37 135q38 39 135 39h166q233 0 363 -39q368 -106 368 -668q0 -549 -379 -690q-129 -49 -364 -49zM317 172q0 -88 80 -88h168q224 0 344 53q289 129 289 604q0 445 -264 568
q-114 53 -371 53h-174q-72 0 -72 -80v-485h433q30 0 30 -29v-31q0 -24 -28 -24h-435v-541z" />
    <glyph glyph-name="Ntilde" unicode="&#xd1;" horiz-adv-x="1443" 
d="M315 29q0 -35 -32 -35h-25q-33 0 -33 35v1349q0 76 62 76h22q27 0 42 -12t36 -45q581 -1000 743 -1303q-2 194 -2 1323q0 35 35 35h25q31 0 31 -35v-1362q0 -63 -54 -63h-26q-28 0 -42 11q-17 14 -34 42l-750 1309q2 -278 2 -1325zM453 1593q-23 0 -33 6q-12 6 -12 21
t12 45q60 135 162 135q48 0 166 -63q89 -49 135 -49q28 0 49 18q19 16 41 72q12 34 35 34q25 0 36 -8q11 -6 11 -18t-6 -35q-30 -87 -70 -123q-40 -35 -98 -35q-57 0 -164 56q-108 57 -146 57q-30 0 -47 -17q-20 -20 -37 -69q-11 -27 -34 -27z" />
    <glyph glyph-name="Ograve" unicode="&#xd2;" horiz-adv-x="1406" 
d="M1272 733q0 -296 -65 -465t-185 -231q-123 -64 -326 -64q-198 0 -316 63t-181 230q-64 171 -64 465q0 224 42 374q42 151 124 228q85 80 179 109q101 31 233 31q117 0 202 -17t155 -62q75 -48 114 -128q40 -81 64 -213q24 -131 24 -320zM1176 731q0 171 -18 285
q-18 117 -49 188q-31 73 -92 114q-57 38 -131 54q-70 15 -179 15q-123 0 -205 -27t-147 -96q-64 -68 -94 -200q-30 -130 -30 -331q0 -211 29 -348q28 -135 92 -206q63 -71 143 -95q83 -25 203 -25q124 0 203 24q83 25 147 92q67 71 97 205q31 141 31 351zM766 1583l-309 221
q-19 16 -19 31q0 14 17 20q29 9 57 9t57 -23l285 -225q18 -15 18 -29q0 -11 -12 -18q-18 -8 -39 -8q-27 0 -55 22z" />
    <glyph glyph-name="Oacute" unicode="&#xd3;" horiz-adv-x="1406" 
d="M1272 733q0 -296 -65 -465t-185 -231q-123 -64 -326 -64q-198 0 -316 63t-181 230q-64 171 -64 465q0 224 42 374q42 151 124 228q85 80 179 109q101 31 233 31q117 0 202 -17t155 -62q75 -48 114 -128q40 -81 64 -213q24 -131 24 -320zM1176 731q0 171 -18 285
q-18 117 -49 188q-31 73 -92 114q-57 38 -131 54q-70 15 -179 15q-123 0 -205 -27t-147 -96q-64 -68 -94 -200q-30 -130 -30 -331q0 -211 29 -348q28 -135 92 -206q63 -71 143 -95q83 -25 203 -25q124 0 203 24q83 25 147 92q67 71 97 205q31 141 31 351zM670 1583
q-28 -22 -56 -22q-21 0 -39 8q-12 7 -12 18q0 13 19 29l284 225q29 23 58 23q28 0 57 -9q16 -6 16 -20q0 -16 -18 -31z" />
    <glyph glyph-name="Ocircumflex" unicode="&#xd4;" horiz-adv-x="1406" 
d="M1272 733q0 -296 -65 -465t-185 -231q-123 -64 -326 -64q-198 0 -316 63t-181 230q-64 171 -64 465q0 224 42 374q42 151 124 228q85 80 179 109q101 31 233 31q117 0 202 -17t155 -62q75 -48 114 -128q40 -81 64 -213q24 -131 24 -320zM1176 731q0 171 -18 285
q-18 117 -49 188q-31 73 -92 114q-57 38 -131 54q-70 15 -179 15q-123 0 -205 -27t-147 -96q-64 -68 -94 -200q-30 -130 -30 -331q0 -211 29 -348q28 -135 92 -206q63 -71 143 -95q83 -25 203 -25q124 0 203 24q83 25 147 92q67 71 97 205q31 141 31 351zM465 1561
q-21 0 -33 6t-12 18q0 13 16 29l217 205q24 24 47 24h27q25 0 45 -20l227 -217q9 -9 9 -21t-15 -18t-35 -6q-19 0 -49 24l-198 158l-193 -156q-32 -26 -53 -26z" />
    <glyph glyph-name="Otilde" unicode="&#xd5;" horiz-adv-x="1406" 
d="M1272 733q0 -296 -65 -465t-185 -231q-123 -64 -326 -64q-198 0 -316 63t-181 230q-64 171 -64 465q0 224 42 374q42 151 124 228q85 80 179 109q101 31 233 31q117 0 202 -17t155 -62q75 -48 114 -128q40 -81 64 -213q24 -131 24 -320zM1176 731q0 171 -18 285
q-18 117 -49 188q-31 73 -92 114q-57 38 -131 54q-70 15 -179 15q-123 0 -205 -27t-147 -96q-64 -68 -94 -200q-30 -130 -30 -331q0 -211 29 -348q28 -135 92 -206q63 -71 143 -95q83 -25 203 -25q124 0 203 24q83 25 147 92q67 71 97 205q31 141 31 351zM442 1593
q-24 0 -32 6q-13 7 -13 21q0 12 13 45q60 135 161 135q47 0 166 -63q89 -49 135 -49q29 0 50 18q19 16 41 72q12 34 34 34q26 0 37 -8q10 -6 10 -18t-6 -35q-30 -89 -69 -123q-40 -35 -99 -35q-56 0 -163 56q-108 57 -146 57q-30 0 -47 -17q-20 -20 -37 -69q-11 -27 -35 -27
z" />
    <glyph glyph-name="Odieresis" unicode="&#xd6;" horiz-adv-x="1406" 
d="M1272 733q0 -296 -65 -465t-185 -231q-123 -64 -326 -64q-198 0 -316 63t-181 230q-64 171 -64 465q0 224 42 374q42 151 124 228q85 80 179 109q101 31 233 31q117 0 202 -17t155 -62q75 -48 114 -128q40 -81 64 -213q24 -131 24 -320zM1176 731q0 171 -18 285
q-18 117 -49 188q-31 73 -92 114q-57 38 -131 54q-70 15 -179 15q-123 0 -205 -27t-147 -96q-64 -68 -94 -200q-30 -130 -30 -331q0 -211 29 -348q28 -135 92 -206q63 -71 143 -95q83 -25 203 -25q124 0 203 24q83 25 147 92q67 71 97 205q31 141 31 351zM604 1669
q0 -74 -67 -74q-68 0 -68 72q0 74 68 74q67 0 67 -72zM977 1669q0 -74 -68 -74q-67 0 -67 72q0 74 67 74q68 0 68 -72z" />
    <glyph glyph-name="multiply" unicode="&#xd7;" horiz-adv-x="1435" 
d="M1126 260q11 -11 11 -18q0 -8 -11 -19l-22 -26q-13 -13 -21 -13q-9 0 -20 11l-348 344l-346 -346q-9 -9 -19 -9q-9 0 -18 9l-25 26q-8 13 -8 19q0 12 8 20l348 348l-350 348q-10 10 -10 21q0 8 10 18l25 27q8 8 18 8q11 0 19 -8l350 -350l352 350q8 8 18 8q9 0 17 -8
l26 -27q9 -14 9 -18q0 -7 -9 -21l-354 -348z" />
    <glyph glyph-name="Oslash" unicode="&#xd8;" horiz-adv-x="1406" 
d="M203 -27q-12 -16 -27 -16t-37 18q-14 11 -14 23q0 11 10 25l113 153q-105 174 -105 555q0 224 42 374q42 151 124 228q85 80 179 109q101 31 233 31q275 0 393 -107l90 123q12 18 27 18q11 0 22 -8q29 -18 29 -31q0 -8 -8 -24l-105 -144q111 -167 111 -567
q0 -296 -65 -465t-185 -231q-123 -64 -325 -64q-283 0 -406 133zM1186 731q0 343 -76 488l-756 -1037q100 -123 353 -123q122 0 202 24q82 25 148 92q68 70 98 205q31 141 31 351zM238 733q0 -326 69 -473l752 1028q-96 99 -344 99q-123 0 -205 -27q-81 -27 -146 -96
q-66 -71 -96 -200q-30 -130 -30 -331z" />
    <glyph glyph-name="Ugrave" unicode="&#xd9;" horiz-adv-x="1409" 
d="M1198 1419v-841q0 -179 -10 -260q-10 -84 -45 -150q-107 -197 -443 -197q-170 0 -279 48t-165 167q-45 94 -45 387v846q0 35 35 35h26q31 0 31 -35v-897q0 -232 47 -315q86 -148 355 -148q278 0 352 140q49 91 49 313v907q0 35 35 35h26q31 0 31 -35zM741 1583l-309 221
q-18 15 -18 31q0 14 16 20q29 9 57 9q29 0 58 -23l284 -225q19 -16 19 -29q0 -11 -12 -18q-18 -8 -39 -8q-28 0 -56 22z" />
    <glyph glyph-name="Uacute" unicode="&#xda;" horiz-adv-x="1409" 
d="M1198 1419v-841q0 -179 -10 -260q-10 -84 -45 -150q-107 -197 -443 -197q-170 0 -279 48t-165 167q-45 94 -45 387v846q0 35 35 35h26q31 0 31 -35v-897q0 -232 47 -315q86 -148 355 -148q278 0 352 140q49 91 49 313v907q0 35 35 35h26q31 0 31 -35zM662 1583
q-28 -22 -56 -22q-21 0 -39 8q-12 7 -12 18q0 14 18 29l285 225q29 23 57 23q29 0 58 -9q16 -6 16 -20q0 -16 -18 -31z" />
    <glyph glyph-name="Ucircumflex" unicode="&#xdb;" horiz-adv-x="1409" 
d="M1198 1419v-841q0 -179 -10 -260q-10 -84 -45 -150q-107 -197 -443 -197q-170 0 -279 48t-165 167q-45 94 -45 387v846q0 35 35 35h26q31 0 31 -35v-897q0 -232 47 -315q86 -148 355 -148q278 0 352 140q49 91 49 313v907q0 35 35 35h26q31 0 31 -35zM459 1561
q-21 0 -33 6t-12 18q0 13 16 29l217 205q24 24 47 24h27q25 0 45 -20l227 -217q8 -8 8 -21q0 -12 -14 -18q-16 -6 -35 -6t-49 24l-198 158l-193 -156q-32 -26 -53 -26z" />
    <glyph glyph-name="Udieresis" unicode="&#xdc;" horiz-adv-x="1409" 
d="M1198 1419v-841q0 -179 -10 -260q-10 -84 -45 -150q-107 -197 -443 -197q-170 0 -279 48t-165 167q-45 94 -45 387v846q0 35 35 35h26q31 0 31 -35v-897q0 -232 47 -315q86 -148 355 -148q278 0 352 140q49 91 49 313v907q0 35 35 35h26q31 0 31 -35zM594 1669
q0 -74 -68 -74q-67 0 -67 72q0 74 67 74q68 0 68 -72zM967 1669q0 -74 -68 -74t-68 72q0 74 68 74t68 -72z" />
    <glyph glyph-name="Yacute" unicode="&#xdd;" horiz-adv-x="1091" 
d="M592 31q0 -37 -33 -37h-27q-32 0 -32 37v614l-465 725q-27 40 -27 57t17 23q7 4 41 4q24 0 47 -35q356 -560 436 -696q55 98 428 686q29 45 57 45q21 0 31 -2q18 -2 18 -20q0 -23 -20 -52l-471 -735v-614zM530 1583q-28 -22 -55 -22q-21 0 -39 8q-12 7 -12 18q0 14 18 29
l285 225q29 23 57 23q29 0 58 -9q16 -6 16 -20q0 -16 -18 -31z" />
    <glyph glyph-name="Thorn" unicode="&#xde;" horiz-adv-x="1255" 
d="M317 338v-309q0 -35 -32 -35h-27q-33 0 -33 35v1390q0 35 35 35h27q30 0 30 -35v-272h252q233 0 340 -43q209 -84 209 -361q0 -305 -270 -378q-94 -27 -268 -27h-263zM317 422h273q192 0 282 39q152 66 152 278q0 218 -152 287q-83 37 -299 37h-256v-641z" />
    <glyph glyph-name="germandbls" unicode="&#xdf;" horiz-adv-x="1097" 
d="M289 29q0 -35 -33 -35h-20q-33 0 -33 35v997q0 224 39 313q44 95 139 147t221 52q175 0 263 -85q89 -86 89 -277q0 -159 -62 -243q-62 -85 -185 -122q171 -24 245 -111q72 -86 72 -266q0 -223 -98 -317q-131 -130 -426 -131q-34 0 -35 20q-2 20 -2 33q0 29 31 29
q294 7 383 125q59 77 59 235q0 168 -92 249q-91 81 -318 81q-37 0 -37 41q0 39 46 39q132 5 230 85q99 81 99 259q0 276 -268 276q-90 0 -166 -39t-106 -106q-35 -79 -35 -285v-999z" />
    <glyph glyph-name="agrave" unicode="&#xe0;" horiz-adv-x="1060" 
d="M872 174q0 -56 -14 -84q-12 -29 -47 -47q-120 -70 -356 -70q-195 0 -269 87q-73 86 -73 235q0 166 120 233q103 56 308 56q159 0 245 -13v129q0 120 -16 164q-18 47 -69 73q-50 26 -171 26q-138 0 -247 -31q-54 -17 -62 -17q-15 0 -20 17q-8 30 -8 35q0 19 26 26
q144 49 330 49q195 0 264 -69q36 -36 48 -95q11 -54 11 -165v-539zM786 498q-79 10 -239 10q-200 0 -283 -53q-63 -41 -63 -160q0 -117 55 -179q56 -63 213 -63q173 0 260 37q35 15 47 37q10 20 10 68v303zM543 1204l-250 275q-14 14 -14 24q0 19 16 25q12 6 45 6
q31 0 53 -25l221 -272q13 -18 13 -27q0 -12 -11 -18q-12 -6 -34 -6t-39 18z" />
    <glyph glyph-name="aacute" unicode="&#xe1;" horiz-adv-x="1060" 
d="M872 174q0 -56 -14 -84q-12 -29 -47 -47q-120 -70 -356 -70q-195 0 -269 87q-73 86 -73 235q0 166 120 233q103 56 308 56q159 0 245 -13v129q0 120 -16 164q-18 47 -69 73q-50 26 -171 26q-138 0 -247 -31q-54 -17 -62 -17q-15 0 -20 17q-8 30 -8 35q0 19 26 26
q144 49 330 49q195 0 264 -69q36 -36 48 -95q11 -54 11 -165v-539zM786 498q-79 10 -239 10q-200 0 -283 -53q-63 -41 -63 -160q0 -117 55 -179q56 -63 213 -63q173 0 260 37q35 15 47 37q10 20 10 68v303zM514 1204q-16 -18 -39 -18q-21 0 -33 6t-12 18q0 10 12 27l222 272
q22 25 53 25q30 0 45 -4q16 -6 16 -23q0 -14 -14 -28z" />
    <glyph glyph-name="acircumflex" unicode="&#xe2;" horiz-adv-x="1060" 
d="M872 174q0 -56 -14 -84q-12 -29 -47 -47q-120 -70 -356 -70q-195 0 -269 87q-73 86 -73 235q0 166 120 233q103 56 308 56q159 0 245 -13v129q0 120 -16 164q-18 47 -69 73q-50 26 -171 26q-138 0 -247 -31q-54 -17 -62 -17q-15 0 -20 17q-8 30 -8 35q0 19 26 26
q144 49 330 49q195 0 264 -69q36 -36 48 -95q11 -54 11 -165v-539zM786 498q-79 10 -239 10q-200 0 -283 -53q-63 -41 -63 -160q0 -117 55 -179q56 -63 213 -63q173 0 260 37q35 15 47 37q10 20 10 68v303zM297 1167q-22 0 -33 4q-12 5 -12 17q0 11 12 26l205 291
q16 25 45 25h27q24 0 39 -21l202 -290q15 -18 15 -29q0 -10 -11 -16q-9 -7 -34 -7q-22 0 -39 23l-191 244l-184 -240q-18 -27 -41 -27z" />
    <glyph glyph-name="atilde" unicode="&#xe3;" horiz-adv-x="1060" 
d="M872 174q0 -56 -14 -84q-12 -29 -47 -47q-120 -70 -356 -70q-195 0 -269 87q-73 86 -73 235q0 166 120 233q103 56 308 56q159 0 245 -13v129q0 120 -16 164q-18 47 -69 73q-50 26 -171 26q-138 0 -247 -31q-54 -17 -62 -17q-15 0 -20 17q-8 30 -8 35q0 19 26 26
q144 49 330 49q195 0 264 -69q36 -36 48 -95q11 -54 11 -165v-539zM786 498q-79 10 -239 10q-200 0 -283 -53q-63 -41 -63 -160q0 -117 55 -179q56 -63 213 -63q173 0 260 37q35 15 47 37q10 20 10 68v303zM258 1247q-22 0 -31 4q-14 6 -14 19t10 39q60 139 156 139
q44 0 158 -64q85 -49 131 -49q28 0 47 17t39 71q12 35 32 35q22 0 33 -4q15 -6 15 -18q0 -8 -9 -35q-29 -90 -65 -123q-38 -35 -94 -35q-51 0 -158 55q-110 58 -137 58q-25 0 -44 -17t-36 -65q-11 -27 -33 -27z" />
    <glyph glyph-name="adieresis" unicode="&#xe4;" horiz-adv-x="1060" 
d="M872 174q0 -56 -14 -84q-12 -29 -47 -47q-120 -70 -356 -70q-195 0 -269 87q-73 86 -73 235q0 166 120 233q103 56 308 56q159 0 245 -13v129q0 120 -16 164q-18 47 -69 73q-50 26 -171 26q-138 0 -247 -31q-54 -17 -62 -17q-15 0 -20 17q-8 30 -8 35q0 19 26 26
q144 49 330 49q195 0 264 -69q36 -36 48 -95q11 -54 11 -165v-539zM786 498q-79 10 -239 10q-200 0 -283 -53q-63 -41 -63 -160q0 -117 55 -179q56 -63 213 -63q173 0 260 37q35 15 47 37q10 20 10 68v303zM434 1362q0 -74 -67 -74q-68 0 -68 72q0 74 68 74q67 0 67 -72z
M786 1362q0 -74 -67 -74q-68 0 -68 72q0 74 68 74q67 0 67 -72z" />
    <glyph glyph-name="aring" unicode="&#xe5;" horiz-adv-x="1060" 
d="M872 174q0 -56 -14 -84q-12 -29 -47 -47q-120 -70 -356 -70q-195 0 -269 87q-73 86 -73 235q0 166 120 233q103 56 308 56q159 0 245 -13v129q0 120 -16 164q-18 47 -69 73q-50 26 -171 26q-138 0 -247 -31q-54 -17 -62 -17q-15 0 -20 17q-8 30 -8 35q0 19 26 26
q144 49 330 49q195 0 264 -69q36 -36 48 -95q11 -54 11 -165v-539zM786 498q-79 10 -239 10q-200 0 -283 -53q-63 -41 -63 -160q0 -117 55 -179q56 -63 213 -63q173 0 260 37q35 15 47 37q10 20 10 68v303zM717 1372q0 -89 -53 -139q-52 -49 -142 -49q-85 0 -135 49
q-51 49 -51 139t52 142q53 53 140 53q90 0 139 -51q50 -52 50 -144zM651 1376q0 64 -34 98q-33 33 -93 33q-57 0 -91 -34t-34 -99q0 -60 35 -97q34 -36 92 -36q56 0 91 36q34 35 34 99z" />
    <glyph glyph-name="ae" unicode="&#xe6;" horiz-adv-x="1710" 
d="M879 117q-147 -144 -412 -144q-196 0 -276 86q-78 84 -78 240q0 152 123 221q83 49 315 55q156 3 235 3v114q0 124 -16 168q-18 49 -71 76t-175 27q-115 0 -237 -31q-10 -1 -25 -6q-10 -3 -24 -7t-17 -4q-15 0 -20 17q-6 24 -6 35q0 19 26 26q157 49 322 49
q151 0 227 -40q75 -40 90 -154q91 194 367 194q98 0 164 -22q64 -21 107 -61q40 -37 63 -102q21 -61 29 -133q7 -64 7 -169q0 -31 -12 -43q-10 -10 -39 -10h-672q0 -258 87 -354q86 -95 274 -95q152 0 262 37q33 10 41 10q15 0 21 -14q10 -16 10 -33q0 -22 -31 -33
q-135 -47 -301 -47q-257 0 -358 144zM786 502q-121 0 -235 -2q-229 -6 -293 -58q-57 -46 -57 -145q0 -118 60 -181t220 -63q100 0 205 33q106 33 156 94q-56 115 -56 322zM874 578h631q2 24 2 47q0 169 -59 253q-60 85 -231 85q-187 0 -263 -99q-76 -98 -80 -286z" />
    <glyph glyph-name="ccedilla" unicode="&#xe7;" horiz-adv-x="935" 
d="M512 -135q116 0 157 -42q40 -41 40 -122q0 -178 -217 -178q-62 0 -99 8q-18 6 -18 25q0 17 4 28q8 19 24 19q12 0 33 -4q30 -5 60 -5q129 0 129 99q0 52 -28 77q-26 23 -99 23h-31q-31 0 -31 29q0 18 6 51l19 104q-169 18 -256 138q-86 119 -86 377q0 287 104 418
q105 132 348 132q117 0 228 -24q35 -8 35 -33q0 -15 -9 -35q-7 -18 -24 -18q-18 0 -51 10q-78 21 -191 21q-92 0 -160 -27q-67 -27 -103 -66t-57 -102q-23 -69 -27 -120q-5 -63 -5 -134q0 -83 6 -146q6 -59 26 -125q19 -63 54 -102t94 -63q63 -25 141 -25q129 0 250 31
q40 12 47 12q14 0 21 -16q8 -13 8 -29q0 -24 -31 -35q-126 -43 -295 -43z" />
    <glyph glyph-name="egrave" unicode="&#xe8;" horiz-adv-x="1042" 
d="M207 489q1 -253 89 -345q87 -91 279 -91q130 0 246 35q41 12 49 12q15 0 21 -14q10 -20 10 -35q0 -20 -33 -31q-136 -47 -299 -47q-246 0 -348 125t-102 408q0 280 111 408t335 128q121 0 194 -32t110 -104q38 -74 49 -148q12 -78 12 -199q0 -47 -12 -59q-11 -11 -39 -11
h-672zM207 565h631q2 24 2 60q0 79 -11 137q-11 57 -38 104q-28 48 -88 73q-59 24 -148 24q-191 0 -268 -103q-75 -101 -80 -295zM575 1204l-249 275q-15 15 -15 24q0 19 17 25q12 6 45 6q31 0 53 -25l221 -272q12 -17 12 -27q0 -12 -10 -18q-12 -6 -35 -6q-22 0 -39 18z
" />
    <glyph glyph-name="eacute" unicode="&#xe9;" horiz-adv-x="1042" 
d="M207 489q1 -253 89 -345q87 -91 279 -91q130 0 246 35q41 12 49 12q15 0 21 -14q10 -20 10 -35q0 -20 -33 -31q-136 -47 -299 -47q-246 0 -348 125t-102 408q0 280 111 408t335 128q121 0 194 -32t110 -104q38 -74 49 -148q12 -78 12 -199q0 -47 -12 -59q-11 -11 -39 -11
h-672zM207 565h631q2 24 2 60q0 79 -11 137q-11 57 -38 104q-28 48 -88 73q-59 24 -148 24q-191 0 -268 -103q-75 -101 -80 -295zM510 1204q-16 -18 -39 -18q-21 0 -33 6t-12 18q0 10 12 27l221 272q22 25 54 25q30 0 45 -4q16 -6 16 -23q0 -14 -14 -28z" />
    <glyph glyph-name="ecircumflex" unicode="&#xea;" horiz-adv-x="1042" 
d="M207 489q1 -253 89 -345q87 -91 279 -91q130 0 246 35q41 12 49 12q15 0 21 -14q10 -20 10 -35q0 -20 -33 -31q-136 -47 -299 -47q-246 0 -348 125t-102 408q0 280 111 408t335 128q121 0 194 -32t110 -104q38 -74 49 -148q12 -78 12 -199q0 -47 -12 -59q-11 -11 -39 -11
h-672zM207 565h631q2 24 2 60q0 79 -11 137q-11 57 -38 104q-28 48 -88 73q-59 24 -148 24q-191 0 -268 -103q-75 -101 -80 -295zM322 1167q-22 0 -33 4q-13 5 -13 17q0 10 13 26l205 291q16 25 45 25h26q24 0 39 -21l203 -290q14 -17 14 -29q0 -10 -10 -16q-9 -7 -35 -7
q-22 0 -39 23l-190 244l-185 -240q-18 -27 -40 -27z" />
    <glyph glyph-name="edieresis" unicode="&#xeb;" horiz-adv-x="1042" 
d="M207 489q1 -253 89 -345q87 -91 279 -91q130 0 246 35q41 12 49 12q15 0 21 -14q10 -20 10 -35q0 -20 -33 -31q-136 -47 -299 -47q-246 0 -348 125t-102 408q0 280 111 408t335 128q121 0 194 -32t110 -104q38 -74 49 -148q12 -78 12 -199q0 -47 -12 -59q-11 -11 -39 -11
h-672zM207 565h631q2 24 2 60q0 79 -11 137q-11 57 -38 104q-28 48 -88 73q-59 24 -148 24q-191 0 -268 -103q-75 -101 -80 -295zM436 1362q0 -74 -67 -74q-68 0 -68 72q0 74 68 74q67 0 67 -72zM788 1362q0 -74 -67 -74q-68 0 -68 72q0 74 68 74q67 0 67 -72z" />
    <glyph glyph-name="igrave" unicode="&#xec;" horiz-adv-x="462" 
d="M256 1204l-250 275q-14 14 -14 24q0 19 16 25q12 6 45 6q31 0 53 -25l222 -272q12 -17 12 -27q0 -12 -10 -18q-12 -6 -35 -6t-39 18zM274 29q0 -35 -32 -35h-21q-33 0 -33 35v956q0 35 33 35h21q32 0 32 -35v-956z" />
    <glyph glyph-name="iacute" unicode="&#xed;" horiz-adv-x="462" 
d="M274 29q0 -35 -32 -35h-21q-33 0 -33 35v956q0 35 33 35h21q32 0 32 -35v-956zM213 1204q-17 -18 -39 -18q-21 0 -33 6t-12 18q0 10 12 27l221 272q22 25 54 25q30 0 45 -4q16 -6 16 -23q0 -14 -14 -28z" />
    <glyph glyph-name="icircumflex" unicode="&#xee;" horiz-adv-x="462" 
d="M274 29q0 -35 -32 -35h-21q-33 0 -33 35v956q0 35 33 35h21q32 0 32 -35v-956zM6 1167q-22 0 -33 4q-12 5 -12 17q0 11 12 26l205 291q17 25 45 25h27q24 0 39 -21l203 -290q14 -17 14 -29q0 -10 -10 -16q-12 -7 -35 -7q-22 0 -39 23l-191 244l-184 -240q-18 -27 -41 -27
z" />
    <glyph glyph-name="idieresis" unicode="&#xef;" horiz-adv-x="462" 
d="M123 1362q0 -74 -68 -74q-67 0 -67 72q0 74 67 74q68 0 68 -72zM475 1362q0 -74 -67 -74q-68 0 -68 72q0 74 68 74q67 0 67 -72zM274 29q0 -35 -32 -35h-21q-33 0 -33 35v956q0 35 33 35h21q32 0 32 -35v-956z" />
    <glyph glyph-name="eth" unicode="&#xf0;" horiz-adv-x="1095" 
d="M956 1452l-157 -104q59 -67 100 -162q39 -91 54 -215q16 -130 20 -215q4 -81 4 -240q0 -216 -49 -335q-50 -121 -138 -164q-90 -44 -243 -44q-111 0 -190 22q-74 21 -132 79t-82 164t-24 272q0 162 32 272q32 109 95 163q65 55 137 76q74 21 178 21q92 0 182 -28
q92 -29 131 -101q-39 267 -149 387l-195 -129q-21 -14 -30 -14q-10 0 -33 33q-6 8 -6 16q0 13 14 23l191 125q-112 87 -320 102q-29 5 -29 21q0 9 5 36q5 17 26 17q28 0 58 -2q213 -21 335 -125l166 108q16 11 25 11q7 0 18 -13q21 -24 21 -36q0 -9 -15 -21zM889 508
q0 193 -36 292q-36 100 -102 131q-67 32 -194 32q-93 0 -153 -18q-61 -18 -107 -64q-48 -48 -69 -137q-21 -88 -21 -228q0 -153 19 -242q19 -91 65 -140q45 -48 103 -64q60 -17 155 -17q89 0 145 15q58 16 104 59q48 45 69 138q22 97 22 243z" />
    <glyph glyph-name="ntilde" unicode="&#xf1;" horiz-adv-x="1155" 
d="M274 27q0 -33 -32 -33h-21q-33 0 -33 33v809q0 86 60 114q169 88 424 88q133 0 191 -29q61 -30 85 -94q19 -52 19 -200v-688q0 -33 -33 -33h-21q-32 0 -32 33v682q0 114 -17 159q-17 47 -60 68q-41 20 -149 20q-214 0 -331 -59q-26 -16 -37 -33q-13 -23 -13 -65v-772z
M319 1247q-21 0 -30 4q-15 6 -15 19q0 11 11 39q60 139 155 139q44 0 158 -64q85 -49 131 -49q28 0 47 17t39 71q12 35 33 35q22 0 33 -4q14 -6 14 -18q0 -11 -8 -35q-29 -89 -66 -123q-38 -35 -94 -35q-51 0 -158 55q-110 58 -137 58q-25 0 -44 -17t-36 -65
q-10 -27 -33 -27z" />
    <glyph glyph-name="ograve" unicode="&#xf2;" horiz-adv-x="1095" 
d="M977 516q0 -315 -98 -428q-100 -115 -336 -115q-234 0 -329 112t-95 425q0 157 31 269q30 107 93 164t136 78t178 21q100 0 156 -11q60 -12 116 -42q54 -29 85 -89t47 -152t16 -232zM889 508q0 148 -18 236q-19 93 -60 138q-43 48 -101 64q-60 17 -157 17
q-115 0 -187 -32t-115 -132q-44 -102 -44 -283q0 -195 38 -298q37 -101 105 -133q69 -32 195 -32q93 0 149 15q57 15 105 59q48 43 69 138q21 93 21 243zM571 1204l-249 275q-15 15 -15 24q0 19 17 25q12 6 45 6q31 0 53 -25l221 -272q12 -17 12 -27q0 -12 -10 -18
q-12 -6 -35 -6q-22 0 -39 18z" />
    <glyph glyph-name="oacute" unicode="&#xf3;" horiz-adv-x="1095" 
d="M977 516q0 -315 -98 -428q-100 -115 -336 -115q-234 0 -329 112t-95 425q0 157 31 269q30 107 93 164t136 78t178 21q100 0 156 -11q60 -12 116 -42q54 -29 85 -89t47 -152t16 -232zM889 508q0 148 -18 236q-19 93 -60 138q-43 48 -101 64q-60 17 -157 17
q-115 0 -187 -32t-115 -132q-44 -102 -44 -283q0 -195 38 -298q37 -101 105 -133q69 -32 195 -32q93 0 149 15q57 15 105 59q48 43 69 138q21 93 21 243zM520 1204q-16 -18 -39 -18q-20 0 -32 6q-13 6 -13 18q0 9 13 27l221 272q22 25 53 25q30 0 45 -4q16 -6 16 -23
q0 -14 -14 -28z" />
    <glyph glyph-name="ocircumflex" unicode="&#xf4;" horiz-adv-x="1095" 
d="M977 516q0 -315 -98 -428q-100 -115 -336 -115q-234 0 -329 112t-95 425q0 157 31 269q30 107 93 164t136 78t178 21q100 0 156 -11q60 -12 116 -42q54 -29 85 -89t47 -152t16 -232zM889 508q0 148 -18 236q-19 93 -60 138q-43 48 -101 64q-60 17 -157 17
q-115 0 -187 -32t-115 -132q-44 -102 -44 -283q0 -195 38 -298q37 -101 105 -133q69 -32 195 -32q93 0 149 15q57 15 105 59q48 43 69 138q21 93 21 243zM338 1167q-22 0 -33 4q-12 5 -12 17q0 11 12 26l205 291q16 25 45 25h27q24 0 39 -21l202 -290q15 -18 15 -29
q0 -10 -11 -16q-9 -7 -34 -7q-22 0 -39 23l-191 244l-184 -240q-18 -27 -41 -27z" />
    <glyph glyph-name="otilde" unicode="&#xf5;" horiz-adv-x="1095" 
d="M977 516q0 -315 -98 -428q-100 -115 -336 -115q-234 0 -329 112t-95 425q0 157 31 269q30 107 93 164t136 78t178 21q100 0 156 -11q60 -12 116 -42q54 -29 85 -89t47 -152t16 -232zM889 508q0 148 -18 236q-19 93 -60 138q-43 48 -101 64q-60 17 -157 17
q-115 0 -187 -32t-115 -132q-44 -102 -44 -283q0 -195 38 -298q37 -101 105 -133q69 -32 195 -32q93 0 149 15q57 15 105 59q48 43 69 138q21 93 21 243zM291 1247q-22 0 -31 4q-14 6 -14 19t10 39q60 139 156 139q43 0 157 -64q85 -49 131 -49q29 0 48 17q17 16 38 71
q12 35 33 35q22 0 33 -4q14 -6 14 -18q0 -11 -8 -35q-29 -90 -65 -123q-38 -35 -95 -35q-50 0 -157 55q-110 58 -138 58q-25 0 -44 -17q-17 -16 -35 -65q-10 -27 -33 -27z" />
    <glyph glyph-name="odieresis" unicode="&#xf6;" horiz-adv-x="1095" 
d="M977 516q0 -315 -98 -428q-100 -115 -336 -115q-234 0 -329 112t-95 425q0 157 31 269q30 107 93 164t136 78t178 21q100 0 156 -11q60 -12 116 -42q54 -29 85 -89t47 -152t16 -232zM889 508q0 148 -18 236q-19 93 -60 138q-43 48 -101 64q-60 17 -157 17
q-115 0 -187 -32t-115 -132q-44 -102 -44 -283q0 -195 38 -298q37 -101 105 -133q69 -32 195 -32q93 0 149 15q57 15 105 59q48 43 69 138q21 93 21 243zM451 1362q0 -74 -68 -74t-68 72q0 74 68 74t68 -72zM803 1362q0 -74 -68 -74q-67 0 -67 72q0 74 67 74q68 0 68 -72z
" />
    <glyph glyph-name="divide" unicode="&#xf7;" horiz-adv-x="1435" 
d="M717 848q-27 0 -46 18q-20 18 -20 56q0 75 68 75q63 0 63 -75q0 -36 -18 -55t-47 -19zM1225 559h-1014q-27 0 -27 29v33q0 28 27 28h1014q24 0 24 -28v-33q0 -29 -24 -29zM717 199q-66 0 -66 75q0 74 68 74q63 0 63 -74q0 -36 -18 -56q-18 -19 -47 -19z" />
    <glyph glyph-name="oslash" unicode="&#xf8;" horiz-adv-x="1095" 
d="M195 -51q-12 -17 -25 -17t-35 19q-14 11 -14 22t10 25l80 108q-88 121 -88 404q0 162 33 270q34 110 98 164q67 57 140 77q75 21 179 21q190 0 279 -55l78 107q10 16 28 16q12 0 23 -8q23 -15 23 -29q0 -6 -9 -24l-84 -115q97 -115 97 -418q0 -314 -105 -428
q-106 -115 -342 -115q-195 0 -295 74zM920 508q0 255 -62 352l-543 -743q75 -64 248 -64q72 0 125 8q48 7 97 35q48 27 75 75q26 47 43 132q17 87 17 205zM211 516q0 -230 55 -334l535 736q-69 45 -232 45q-91 0 -153 -18t-111 -64t-72 -137q-22 -87 -22 -228z" />
    <glyph glyph-name="ugrave" unicode="&#xf9;" horiz-adv-x="1155" 
d="M188 322v665q0 33 33 33h21q32 0 32 -33v-659q0 -134 21 -181q39 -94 240 -94q194 0 296 41q26 11 37 31q13 23 13 74v788q0 33 32 33h21q33 0 33 -33v-827q0 -90 -60 -119q-142 -68 -399 -68q-244 0 -295 131q-25 66 -25 218zM596 1208l-250 275q-14 14 -14 24
q0 19 16 25q12 6 45 6q31 0 53 -25l222 -272q12 -17 12 -27q0 -12 -10 -18q-12 -6 -35 -6t-39 18z" />
    <glyph glyph-name="uacute" unicode="&#xfa;" horiz-adv-x="1155" 
d="M188 322v665q0 33 33 33h21q32 0 32 -33v-659q0 -134 21 -181q39 -94 240 -94q194 0 296 41q26 11 37 31q13 23 13 74v788q0 33 32 33h21q33 0 33 -33v-827q0 -90 -60 -119q-142 -68 -399 -68q-244 0 -295 131q-25 66 -25 218zM553 1204q-17 -18 -39 -18q-21 0 -33 6
t-12 18q0 10 12 27l221 272q22 25 54 25q30 0 45 -4q16 -6 16 -23q0 -14 -14 -28z" />
    <glyph glyph-name="ucircumflex" unicode="&#xfb;" horiz-adv-x="1155" 
d="M188 322v665q0 33 33 33h21q32 0 32 -33v-659q0 -134 21 -181q39 -94 240 -94q194 0 296 41q26 11 37 31q13 23 13 74v788q0 33 32 33h21q33 0 33 -33v-827q0 -90 -60 -119q-142 -68 -399 -68q-244 0 -295 131q-25 66 -25 218zM354 1167q-21 0 -32 4q-13 5 -13 17
q0 10 13 26l204 291q16 25 45 25h27q24 0 39 -21l203 -290q14 -17 14 -29q0 -10 -10 -16q-12 -7 -35 -7q-22 0 -39 23l-190 244l-185 -240q-18 -27 -41 -27z" />
    <glyph glyph-name="udieresis" unicode="&#xfc;" horiz-adv-x="1155" 
d="M188 322v665q0 33 33 33h21q32 0 32 -33v-659q0 -134 21 -181q39 -94 240 -94q194 0 296 41q26 11 37 31q13 23 13 74v788q0 33 32 33h21q33 0 33 -33v-827q0 -90 -60 -119q-142 -68 -399 -68q-244 0 -295 131q-25 66 -25 218zM471 1362q0 -74 -68 -74q-67 0 -67 72
q0 74 67 74q68 0 68 -72zM823 1362q0 -74 -67 -74q-68 0 -68 72q0 74 68 74q67 0 67 -72z" />
    <glyph glyph-name="yacute" unicode="&#xfd;" horiz-adv-x="1155" 
d="M188 305v682q0 33 33 33h21q32 0 32 -33v-676q0 -115 21 -166q18 -44 66 -67q49 -23 155 -23q200 0 315 62q26 16 37 33q13 23 13 65v772q0 33 32 33h21q33 0 33 -33v-979q0 -145 -35 -248q-82 -239 -574 -239q-38 0 -39 20q-2 16 -2 33q0 29 29 29q248 5 353 48
q106 44 145 132q33 73 33 205v69q-131 -84 -377 -84q-238 0 -287 129q-25 69 -25 203zM559 1204q-17 -18 -39 -18q-21 0 -33 6t-12 18q0 10 12 27l222 272q22 25 53 25q30 0 45 -4q16 -6 16 -23q0 -14 -14 -28z" />
    <glyph glyph-name="thorn" unicode="&#xfe;" horiz-adv-x="1124" 
d="M274 -469q0 -31 -30 -31h-25q-31 0 -31 31v1970q0 31 29 31h29q28 0 28 -31v-557q106 94 351 94q207 0 294 -118t87 -400q0 -310 -108 -429q-108 -118 -366 -118q-159 0 -258 45v-487zM274 168q0 -62 39 -78q87 -37 219 -37q229 0 308 97q78 96 78 362q0 236 -61 340
q-60 102 -239 102q-178 0 -290 -51q-38 -17 -45 -37q-9 -20 -9 -73v-625z" />
    <glyph glyph-name="ydieresis" unicode="&#xff;" horiz-adv-x="1155" 
d="M188 305v682q0 33 33 33h21q32 0 32 -33v-676q0 -115 21 -166q18 -44 66 -67q49 -23 155 -23q200 0 315 62q26 16 37 33q13 23 13 65v772q0 33 32 33h21q33 0 33 -33v-979q0 -145 -35 -248q-82 -239 -574 -239q-38 0 -39 20q-2 16 -2 33q0 29 29 29q248 5 353 48
q106 44 145 132q33 73 33 205v69q-131 -84 -377 -84q-238 0 -287 129q-25 69 -25 203zM481 1362q0 -74 -67 -74q-68 0 -68 72q0 74 68 74q67 0 67 -72zM834 1362q0 -74 -68 -74t-68 72q0 74 68 74t68 -72z" />
    <glyph glyph-name="Amacron" unicode="&#x100;" horiz-adv-x="1173" 
d="M283 498l-162 -459q-15 -45 -41 -45q-32 0 -45 4q-17 6 -17 22q0 11 15 50l477 1321q22 63 80 63h14q48 0 72 -70l465 -1314q14 -36 14 -50q0 -16 -16 -22q-13 -4 -45 -4q-26 0 -41 45l-164 459h-606zM311 582h549l-270 784zM840 1642h-508q-29 0 -29 25v37q0 29 31 29
h504q30 0 30 -29v-37q0 -25 -28 -25z" />
    <glyph glyph-name="amacron" unicode="&#x101;" horiz-adv-x="1060" 
d="M872 174q0 -56 -14 -84q-12 -29 -47 -47q-120 -70 -356 -70q-195 0 -269 87q-73 86 -73 235q0 166 120 233q103 56 308 56q159 0 245 -13v129q0 120 -16 164q-18 47 -69 73q-50 26 -171 26q-138 0 -247 -31q-54 -17 -62 -17q-15 0 -20 17q-8 30 -8 35q0 19 26 26
q144 49 330 49q195 0 264 -69q36 -36 48 -95q11 -54 11 -165v-539zM786 498q-79 10 -239 10q-200 0 -283 -53q-63 -41 -63 -160q0 -117 55 -179q56 -63 213 -63q173 0 260 37q35 15 47 37q10 20 10 68v303zM760 1268h-467q-29 0 -29 24v37q0 29 31 29h463q30 0 30 -29v-37
q0 -24 -28 -24z" />
    <glyph glyph-name="Abreve" unicode="&#x102;" horiz-adv-x="1173" 
d="M283 498l-162 -459q-15 -45 -41 -45q-32 0 -45 4q-17 6 -17 22q0 11 15 50l477 1321q22 63 80 63h14q48 0 72 -70l465 -1314q14 -36 14 -50q0 -16 -16 -22q-13 -4 -45 -4q-26 0 -41 45l-164 459h-606zM311 582h549l-270 784zM584 1563q-240 0 -273 204q-4 25 -4 41
q0 20 15 27q18 8 36 8q26 0 27 -22q12 -88 55 -130q44 -42 144 -42q103 0 152 44q48 44 59 128q4 22 24 22q27 0 39 -6q10 -6 10 -20q0 -20 -8 -62q-44 -192 -276 -192z" />
    <glyph glyph-name="abreve" unicode="&#x103;" horiz-adv-x="1060" 
d="M872 174q0 -56 -14 -84q-12 -29 -47 -47q-120 -70 -356 -70q-195 0 -269 87q-73 86 -73 235q0 166 120 233q103 56 308 56q159 0 245 -13v129q0 120 -16 164q-18 47 -69 73q-50 26 -171 26q-138 0 -247 -31q-54 -17 -62 -17q-15 0 -20 17q-8 30 -8 35q0 19 26 26
q144 49 330 49q195 0 264 -69q36 -36 48 -95q11 -54 11 -165v-539zM786 498q-79 10 -239 10q-200 0 -283 -53q-63 -41 -63 -160q0 -117 55 -179q56 -63 213 -63q173 0 260 37q35 15 47 37q10 20 10 68v303zM752 1462q19 0 30 -4q13 -5 13 -22q0 -13 -9 -62
q-43 -200 -264 -200q-231 0 -260 215q-4 25 -4 38q0 19 12 27q18 8 37 8t23 -20q10 -89 54 -136q43 -46 138 -46q101 0 146 45t57 135q4 22 27 22z" />
    <glyph glyph-name="Aogonek" unicode="&#x104;" horiz-adv-x="1173" 
d="M283 498l-162 -459q-15 -45 -41 -45q-32 0 -45 4q-17 6 -17 22q0 11 15 50l477 1321q22 63 80 63h14q48 0 72 -70l465 -1314q14 -36 14 -50q0 -9 -18 -24q-113 -74 -154 -127t-41 -133q0 -123 133 -123q31 0 62 4t41 4q14 0 20 -14q6 -17 6 -31q0 -20 -20 -27
q-42 -14 -123 -14q-100 0 -155 50q-54 49 -54 147q0 71 32 126q33 57 68 82q42 30 113 72q-12 22 -12 27l-164 459h-606zM311 582h549l-270 784z" />
    <glyph glyph-name="aogonek" unicode="&#x105;" horiz-adv-x="1060" 
d="M872 174q0 -56 -14 -84q-11 -26 -45 -47q-101 -67 -147 -139q-43 -68 -43 -154q0 -117 125 -117q25 0 59 3q10 1 19.5 2t14 1.5t5.5 0.5q14 0 16 -13q6 -21 6 -33q0 -20 -18 -24q-53 -12 -117 -12q-91 0 -144 48q-52 48 -52 140q0 147 137 248q-102 -21 -219 -21
q-195 0 -269 87q-73 86 -73 235q0 166 120 233q103 56 308 56q159 0 245 -13v129q0 120 -16 164q-18 47 -69 73q-50 26 -171 26q-138 0 -247 -31q-54 -17 -62 -17q-15 0 -20 17q-8 30 -8 35q0 19 26 26q144 49 330 49q195 0 264 -69q36 -36 48 -95q11 -54 11 -165v-539z
M786 498q-79 10 -239 10q-200 0 -283 -53q-63 -41 -63 -160q0 -117 55 -179q56 -63 213 -63q173 0 260 37q35 15 47 37q10 20 10 68v303z" />
    <glyph glyph-name="Cacute" unicode="&#x106;" horiz-adv-x="1220" 
d="M231 731q0 -75 6 -169q5 -74 19 -154q15 -84 45 -141q28 -52 79 -107q49 -52 125 -76q80 -25 179 -25q169 0 354 50q55 16 68 16q20 0 31 -29q4 -11 4 -22q0 -24 -45 -39q-188 -62 -406 -62q-283 0 -419 163t-136 564q0 414 129 593q130 180 467 180q193 0 334 -31
q47 -11 47 -39q0 -16 -10 -39q-6 -16 -29 -16q-8 0 -65 12q-107 26 -299 26q-97 0 -167 -19q-75 -20 -123 -51q-51 -33 -85 -84q-32 -49 -55 -103q-20 -48 -31 -123q-11 -79 -14 -134q-3 -60 -3 -141zM707 1583q-28 -22 -56 -22q-21 0 -39 8q-12 7 -12 18q0 14 18 29
l285 225q29 23 58 23q28 0 57 -9q16 -6 16 -20q0 -16 -18 -31z" />
    <glyph glyph-name="cacute" unicode="&#x107;" horiz-adv-x="935" 
d="M207 514q0 -83 6 -146q6 -59 26 -125q19 -63 54 -102t94 -63q63 -25 141 -25q129 0 250 31q40 12 47 12q14 0 21 -16q8 -13 8 -29q0 -24 -31 -35q-126 -43 -295 -43q-202 0 -306 119q-103 118 -103 400q0 287 104 418q105 132 348 132q117 0 228 -24q35 -8 35 -33
q0 -15 -9 -35q-7 -18 -24 -18q-18 0 -51 10q-78 21 -191 21q-92 0 -160 -27q-67 -27 -103 -66t-57 -102q-23 -69 -27 -120q-5 -63 -5 -134zM555 1204q-17 -18 -39 -18q-21 0 -33 6t-12 18q0 10 12 27l222 272q22 25 53 25q30 0 45 -4q16 -6 16 -23q0 -14 -14 -28z" />
    <glyph glyph-name="Ccircumflex" unicode="&#x108;" horiz-adv-x="1220" 
d="M231 731q0 -75 6 -169q5 -74 19 -154q15 -84 45 -141q28 -52 79 -107q49 -52 125 -76q80 -25 179 -25q169 0 354 50q55 16 68 16q20 0 31 -29q4 -11 4 -22q0 -24 -45 -39q-188 -62 -406 -62q-283 0 -419 163t-136 564q0 414 129 593q130 180 467 180q193 0 334 -31
q47 -11 47 -39q0 -16 -10 -39q-6 -16 -29 -16q-8 0 -65 12q-107 26 -299 26q-97 0 -167 -19q-75 -20 -123 -51q-51 -33 -85 -84q-32 -49 -55 -103q-20 -48 -31 -123q-11 -79 -14 -134q-3 -60 -3 -141zM473 1561q-21 0 -33 6t-12 18q0 13 16 29l218 205q24 24 47 24h26
q25 0 45 -20l228 -217q8 -8 8 -21q0 -12 -15 -18t-34 -6t-49 24l-199 158l-193 -156q-32 -26 -53 -26z" />
    <glyph glyph-name="ccircumflex" unicode="&#x109;" horiz-adv-x="935" 
d="M207 514q0 -83 6 -146q6 -59 26 -125q19 -63 54 -102t94 -63q63 -25 141 -25q129 0 250 31q40 12 47 12q14 0 21 -16q8 -13 8 -29q0 -24 -31 -35q-126 -43 -295 -43q-202 0 -306 119q-103 118 -103 400q0 287 104 418q105 132 348 132q117 0 228 -24q35 -8 35 -33
q0 -15 -9 -35q-7 -18 -24 -18q-18 0 -51 10q-78 21 -191 21q-92 0 -160 -27q-67 -27 -103 -66t-57 -102q-23 -69 -27 -120q-5 -63 -5 -134zM317 1167q-21 0 -32 4q-13 5 -13 17q0 10 13 26l204 291q16 25 46 25h26q24 0 39 -21l203 -290q14 -17 14 -29q0 -10 -10 -16
q-12 -7 -35 -7q-22 0 -39 23l-190 244l-185 -240q-18 -27 -41 -27z" />
    <glyph glyph-name="Cdotaccent" unicode="&#x10a;" horiz-adv-x="1220" 
d="M231 731q0 -75 6 -169q5 -74 19 -154q15 -84 45 -141q28 -52 79 -107q49 -52 125 -76q80 -25 179 -25q169 0 354 50q55 16 68 16q20 0 31 -29q4 -11 4 -22q0 -24 -45 -39q-188 -62 -406 -62q-283 0 -419 163t-136 564q0 414 129 593q130 180 467 180q193 0 334 -31
q47 -11 47 -39q0 -16 -10 -39q-6 -16 -29 -16q-8 0 -65 12q-107 26 -299 26q-97 0 -167 -19q-75 -20 -123 -51q-51 -33 -85 -84q-32 -49 -55 -103q-20 -48 -31 -123q-11 -79 -14 -134q-3 -60 -3 -141zM793 1669q0 -74 -68 -74t-68 72q0 74 68 74t68 -72z" />
    <glyph glyph-name="cdotaccent" unicode="&#x10b;" horiz-adv-x="935" 
d="M207 514q0 -83 6 -146q6 -59 26 -125q19 -63 54 -102t94 -63q63 -25 141 -25q129 0 250 31q40 12 47 12q14 0 21 -16q8 -13 8 -29q0 -24 -31 -35q-126 -43 -295 -43q-202 0 -306 119q-103 118 -103 400q0 287 104 418q105 132 348 132q117 0 228 -24q35 -8 35 -33
q0 -15 -9 -35q-7 -18 -24 -18q-18 0 -51 10q-78 21 -191 21q-92 0 -160 -27q-67 -27 -103 -66t-57 -102q-23 -69 -27 -120q-5 -63 -5 -134zM625 1362q0 -74 -68 -74t-68 72q0 74 68 74t68 -72z" />
    <glyph glyph-name="Ccaron" unicode="&#x10c;" horiz-adv-x="1220" 
d="M231 731q0 -75 6 -169q5 -74 19 -154q15 -84 45 -141q28 -52 79 -107q49 -52 125 -76q80 -25 179 -25q169 0 354 50q55 16 68 16q20 0 31 -29q4 -11 4 -22q0 -24 -45 -39q-188 -62 -406 -62q-283 0 -419 163t-136 564q0 414 129 593q130 180 467 180q193 0 334 -31
q47 -11 47 -39q0 -16 -10 -39q-6 -16 -29 -16q-8 0 -65 12q-107 26 -299 26q-97 0 -167 -19q-75 -20 -123 -51q-51 -33 -85 -84q-32 -49 -55 -103q-20 -48 -31 -123q-11 -79 -14 -134q-3 -60 -3 -141zM961 1853q20 0 32 -6q13 -7 13 -18q0 -12 -17 -29l-217 -205
q-24 -24 -47 -24h-27q-25 0 -45 20l-227 217q-8 8 -8 21q0 12 14 18q15 6 35 6q19 0 49 -24l199 -158l192 156q32 26 54 26z" />
    <glyph glyph-name="ccaron" unicode="&#x10d;" horiz-adv-x="935" 
d="M207 514q0 -83 6 -146q6 -59 26 -125q19 -63 54 -102t94 -63q63 -25 141 -25q129 0 250 31q40 12 47 12q14 0 21 -16q8 -13 8 -29q0 -24 -31 -35q-126 -43 -295 -43q-202 0 -306 119q-103 118 -103 400q0 287 104 418q105 132 348 132q117 0 228 -24q35 -8 35 -33
q0 -15 -9 -35q-7 -18 -24 -18q-18 0 -51 10q-78 21 -191 21q-92 0 -160 -27q-67 -27 -103 -66t-57 -102q-23 -69 -27 -120q-5 -63 -5 -134zM782 1538q20 0 35 -6q10 -4 10 -14q0 -9 -12 -27l-205 -291q-16 -24 -45 -24h-26q-25 0 -39 20l-203 291q-14 17 -14 29t10 16
q12 6 35 6t39 -22l190 -244l184 239q23 27 41 27z" />
    <glyph glyph-name="Dcaron" unicode="&#x10e;" horiz-adv-x="1429" 
d="M551 0h-158q-93 0 -131 39q-37 38 -37 129v1104q0 97 37 135q38 39 135 39h166q233 0 363 -39q368 -106 368 -668q0 -549 -379 -690q-129 -49 -364 -49zM317 172q0 -88 80 -88h168q224 0 344 53q289 129 289 604q0 445 -264 568q-114 53 -371 53h-174q-72 0 -72 -80
v-1110zM905 1853q21 0 33 -6t12 -18q0 -13 -16 -29l-217 -205q-24 -24 -47 -24h-27q-25 0 -45 20l-227 217q-9 9 -9 21t15 18q16 6 35 6t49 -24l198 -158l193 156q32 26 53 26z" />
    <glyph glyph-name="dcaron" unicode="&#x10f;" horiz-adv-x="1124" 
d="M936 166q0 -54 -10 -74q-15 -32 -60 -55q-130 -64 -342 -64q-210 0 -308 119q-97 118 -97 393q0 315 111 437q110 120 364 120q167 0 256 -38v497q0 31 33 31h22q31 0 31 -31v-1335zM850 207v645q0 62 -39 78q-78 33 -223 33q-222 0 -301 -105q-80 -106 -80 -358
q0 -234 68 -340q70 -109 245 -109q186 0 277 41q32 15 43 39q10 20 10 76zM1180 1532h26q33 0 33 -37q0 -220 -133 -344q-16 -16 -31 -16q-12 0 -24 12q-13 13 -13 22q0 10 11 21q90 101 96 301q0 41 35 41z" />
    <glyph glyph-name="Dcroat" unicode="&#x110;" horiz-adv-x="1429" 
d="M551 0h-158q-93 0 -131 39q-37 38 -37 129v545h-141q-29 0 -29 24v31q0 29 31 29h139v475q0 97 37 135q38 39 135 39h166q233 0 363 -39q368 -106 368 -668q0 -549 -379 -690q-129 -49 -364 -49zM317 172q0 -88 80 -88h168q224 0 344 53q289 129 289 604q0 445 -264 568
q-114 53 -371 53h-174q-72 0 -72 -80v-485h433q30 0 30 -29v-31q0 -24 -28 -24h-435v-541z" />
    <glyph glyph-name="dcroat" unicode="&#x111;" horiz-adv-x="1124" 
d="M936 166q0 -54 -10 -74q-15 -32 -60 -55q-130 -64 -342 -64q-210 0 -308 119q-97 118 -97 393q0 315 111 437q110 120 364 120q167 0 256 -38v208h-236q-28 0 -28 25v23q0 28 30 28h234v213q0 31 33 31h22q31 0 31 -31v-213h154q30 0 30 -28v-23q0 -25 -28 -25h-156
v-1046zM850 207v645q0 62 -39 78q-78 33 -223 33q-222 0 -301 -105q-80 -106 -80 -358q0 -234 68 -340q70 -109 245 -109q186 0 277 41q32 15 43 39q10 20 10 76z" />
    <glyph glyph-name="Emacron" unicode="&#x112;" horiz-adv-x="1132" 
d="M1014 0h-608q-99 0 -140 36t-41 140v1092q0 101 37 139q38 39 141 39h582q35 0 35 -31v-22q0 -31 -35 -31h-598q-70 0 -70 -80v-485h603q34 0 34 -31v-23q0 -30 -34 -30h-603v-541q0 -88 80 -88h617q35 0 35 -31v-22q0 -31 -35 -31zM901 1642h-508q-28 0 -28 25v37
q0 29 30 29h504q31 0 31 -29v-37q0 -25 -29 -25z" />
    <glyph glyph-name="emacron" unicode="&#x113;" horiz-adv-x="1042" 
d="M207 489q1 -253 89 -345q87 -91 279 -91q130 0 246 35q41 12 49 12q15 0 21 -14q10 -20 10 -35q0 -20 -33 -31q-136 -47 -299 -47q-246 0 -348 125t-102 408q0 280 111 408t335 128q121 0 194 -32t110 -104q38 -74 49 -148q12 -78 12 -199q0 -47 -12 -59q-11 -11 -39 -11
h-672zM207 565h631q2 24 2 60q0 79 -11 137q-11 57 -38 104q-28 48 -88 73q-59 24 -148 24q-191 0 -268 -103q-75 -101 -80 -295zM795 1268h-467q-29 0 -29 24v37q0 29 31 29h463q30 0 30 -29v-37q0 -24 -28 -24z" />
    <glyph glyph-name="Ebreve" unicode="&#x114;" horiz-adv-x="1132" 
d="M1014 0h-608q-99 0 -140 36t-41 140v1092q0 101 37 139q38 39 141 39h582q35 0 35 -31v-22q0 -31 -35 -31h-598q-70 0 -70 -80v-485h603q34 0 34 -31v-23q0 -30 -34 -30h-603v-541q0 -88 80 -88h617q35 0 35 -31v-22q0 -31 -35 -31zM623 1563q-240 0 -273 204
q-4 25 -4 41q0 20 14 27q18 8 37 8q26 0 27 -22q12 -88 55 -130t144 -42q103 0 152 44q48 44 59 128q4 22 24 22q27 0 39 -6q10 -6 10 -20q0 -20 -8 -62q-43 -192 -276 -192z" />
    <glyph glyph-name="ebreve" unicode="&#x115;" horiz-adv-x="1042" 
d="M207 489q1 -253 89 -345q87 -91 279 -91q130 0 246 35q41 12 49 12q15 0 21 -14q10 -20 10 -35q0 -20 -33 -31q-136 -47 -299 -47q-246 0 -348 125t-102 408q0 280 111 408t335 128q121 0 194 -32t110 -104q38 -74 49 -148q12 -78 12 -199q0 -47 -12 -59q-11 -11 -39 -11
h-672zM207 565h631q2 24 2 60q0 79 -11 137q-11 57 -38 104q-28 48 -88 73q-59 24 -148 24q-191 0 -268 -103q-75 -101 -80 -295zM776 1462q20 0 31 -4q12 -4 12 -22q0 -19 -8 -62q-43 -200 -264 -200q-231 0 -260 215q-4 25 -4 38q0 19 12 27q18 8 37 8q18 0 22 -20
q10 -88 55 -136q43 -46 138 -46q100 0 145 45q46 46 58 135q4 22 26 22z" />
    <glyph glyph-name="Edotaccent" unicode="&#x116;" horiz-adv-x="1132" 
d="M1014 0h-608q-99 0 -140 36t-41 140v1092q0 101 37 139q38 39 141 39h582q35 0 35 -31v-22q0 -31 -35 -31h-598q-70 0 -70 -80v-485h603q34 0 34 -31v-23q0 -30 -34 -30h-603v-541q0 -88 80 -88h617q35 0 35 -31v-22q0 -31 -35 -31zM717 1669q0 -74 -68 -74q-67 0 -67 72
q0 74 67 74q68 0 68 -72z" />
    <glyph glyph-name="edotaccent" unicode="&#x117;" horiz-adv-x="1042" 
d="M207 489q1 -253 89 -345q87 -91 279 -91q130 0 246 35q41 12 49 12q15 0 21 -14q10 -20 10 -35q0 -20 -33 -31q-136 -47 -299 -47q-246 0 -348 125t-102 408q0 280 111 408t335 128q121 0 194 -32t110 -104q38 -74 49 -148q12 -78 12 -199q0 -47 -12 -59q-11 -11 -39 -11
h-672zM207 565h631q2 24 2 60q0 79 -11 137q-11 57 -38 104q-28 48 -88 73q-59 24 -148 24q-191 0 -268 -103q-75 -101 -80 -295zM621 1362q0 -74 -68 -74t-68 72q0 74 68 74t68 -72z" />
    <glyph glyph-name="Eogonek" unicode="&#x118;" horiz-adv-x="1132" 
d="M1014 0h-45q-117 -76 -159 -129t-42 -135q0 -123 133 -123q31 0 62 4t41 4q14 0 20 -14q6 -16 6 -31q0 -20 -20 -27q-42 -14 -123 -14q-100 0 -155 50q-54 49 -54 147q0 95 45 152q44 56 143 116h-460q-99 0 -140 36t-41 140v1092q0 101 37 139q38 39 141 39h582
q35 0 35 -31v-22q0 -31 -35 -31h-598q-70 0 -70 -80v-485h603q34 0 34 -31v-23q0 -30 -34 -30h-603v-541q0 -88 80 -88h617q35 0 35 -31v-22q0 -31 -35 -31z" />
    <glyph glyph-name="eogonek" unicode="&#x119;" horiz-adv-x="1042" 
d="M207 489q1 -253 89 -345q87 -91 279 -91q130 0 246 35q41 12 49 12q15 0 21 -14q10 -20 10 -35q0 -20 -33 -31q-50 -18 -116 -30q-101 -68 -137 -117q-35 -48 -35 -123q0 -117 125 -117q25 0 59 3q10 1 19.5 2t14 1.5t5.5 0.5q11 0 16 -13q6 -21 6 -33q0 -20 -18 -24
q-53 -12 -117 -12q-92 0 -144 48t-52 140q0 82 33 131q35 51 104 98q-28 -2 -62 -2q-246 0 -348 125t-102 408q0 280 111 408t335 128q121 0 194 -32t110 -104q38 -74 49 -148q12 -78 12 -199q0 -47 -12 -59q-11 -11 -39 -11h-672zM207 565h631q2 24 2 60q0 79 -11 137
q-11 57 -38 104q-28 48 -88 73q-59 24 -148 24q-191 0 -268 -103q-75 -101 -80 -295z" />
    <glyph glyph-name="Ecaron" unicode="&#x11a;" horiz-adv-x="1132" 
d="M1014 0h-608q-99 0 -140 36t-41 140v1092q0 101 37 139q38 39 141 39h582q35 0 35 -31v-22q0 -31 -35 -31h-598q-70 0 -70 -80v-485h603q34 0 34 -31v-23q0 -30 -34 -30h-603v-541q0 -88 80 -88h617q35 0 35 -31v-22q0 -31 -35 -31zM877 1853q20 0 32 -6q13 -7 13 -18
q0 -12 -17 -29l-217 -205q-24 -24 -47 -24h-27q-25 0 -45 20l-227 217q-8 8 -8 21q0 12 14 18q16 6 35 6t49 -24l199 -158l192 156q32 26 54 26z" />
    <glyph glyph-name="ecaron" unicode="&#x11b;" horiz-adv-x="1042" 
d="M207 489q1 -253 89 -345q87 -91 279 -91q130 0 246 35q41 12 49 12q15 0 21 -14q10 -20 10 -35q0 -20 -33 -31q-136 -47 -299 -47q-246 0 -348 125t-102 408q0 280 111 408t335 128q121 0 194 -32t110 -104q38 -74 49 -148q12 -78 12 -199q0 -47 -12 -59q-11 -11 -39 -11
h-672zM207 565h631q2 24 2 60q0 79 -11 137q-11 57 -38 104q-28 48 -88 73q-59 24 -148 24q-191 0 -268 -103q-75 -101 -80 -295zM786 1538q20 0 35 -6q10 -4 10 -14q0 -9 -12 -27l-205 -291q-16 -24 -45 -24h-26q-25 0 -39 20l-203 291q-14 17 -14 29t10 16q12 6 35 6
t39 -22l190 -244l184 239q23 27 41 27z" />
    <glyph glyph-name="Gcircumflex" unicode="&#x11c;" horiz-adv-x="1349" 
d="M1204 158q0 -43 -14 -68q-17 -26 -51 -43q-148 -74 -443 -74q-288 0 -424 163q-137 164 -137 564q0 412 135 592q136 181 486 181q190 0 331 -31q48 -11 48 -37q0 -14 -9 -41q-6 -16 -24 -16q-21 0 -70 10q-137 28 -325 28q-128 0 -215 -39q-91 -41 -140 -99
q-50 -59 -78 -152q-27 -90 -35 -174q-8 -85 -8 -191q0 -87 5 -159q5 -75 17 -151q14 -90 43 -145q31 -58 78 -110q49 -53 127 -80q79 -27 183 -27q218 0 367 41q31 10 44 26q11 14 11 54v486h-365q-34 0 -34 30v23q0 31 34 31h422q41 0 41 -48v-544zM489 1561q-20 0 -32 6
q-13 7 -13 18q0 12 17 29l217 205q24 24 47 24h27q25 0 45 -20l227 -217q8 -8 8 -21q0 -12 -14 -18q-16 -6 -35 -6t-49 24l-199 158l-192 -156q-32 -26 -54 -26z" />
    <glyph glyph-name="gcircumflex" unicode="&#x11d;" horiz-adv-x="1120" 
d="M842 41q-102 -66 -330 -66q-205 0 -299 118t-94 392q0 313 108 434t357 121q167 0 290 -34q31 -8 45 -23q13 -14 13 -49v-928q0 -143 -35 -246q-82 -239 -588 -239q-38 0 -39 20q-2 16 -2 31q0 29 29 29q255 5 363 49q110 45 149 133q33 73 33 205v53zM846 184v686
q0 50 -37 62q-87 29 -238 29q-216 0 -290 -106t-74 -355q0 -234 66 -340q66 -107 243 -107q180 0 277 41q39 17 47 41q6 12 6 49zM362 1167q-21 0 -32 4q-13 5 -13 17q0 10 13 26l205 291q16 25 45 25h26q24 0 39 -21l203 -290q14 -17 14 -29q0 -10 -10 -16q-9 -7 -35 -7
q-22 0 -39 23l-190 244l-185 -240q-18 -27 -41 -27z" />
    <glyph glyph-name="Gbreve" unicode="&#x11e;" horiz-adv-x="1349" 
d="M1204 158q0 -43 -14 -68q-17 -26 -51 -43q-148 -74 -443 -74q-288 0 -424 163q-137 164 -137 564q0 412 135 592q136 181 486 181q190 0 331 -31q48 -11 48 -37q0 -14 -9 -41q-6 -16 -24 -16q-21 0 -70 10q-137 28 -325 28q-128 0 -215 -39q-91 -41 -140 -99
q-50 -59 -78 -152q-27 -90 -35 -174q-8 -85 -8 -191q0 -87 5 -159q5 -75 17 -151q14 -90 43 -145q31 -58 78 -110q49 -53 127 -80q79 -27 183 -27q218 0 367 41q31 10 44 26q11 14 11 54v486h-365q-34 0 -34 30v23q0 31 34 31h422q41 0 41 -48v-544zM731 1563
q-239 0 -272 204q-4 25 -4 41q0 20 14 27q18 8 37 8q25 0 26 -22q12 -87 56 -130q43 -42 143 -42q104 0 153 44q47 43 58 128q4 22 25 22q27 0 39 -6q10 -6 10 -20q0 -20 -8 -62q-43 -192 -277 -192z" />
    <glyph glyph-name="gbreve" unicode="&#x11f;" horiz-adv-x="1120" 
d="M842 41q-102 -66 -330 -66q-205 0 -299 118t-94 392q0 313 108 434t357 121q167 0 290 -34q31 -8 45 -23q13 -14 13 -49v-928q0 -143 -35 -246q-82 -239 -588 -239q-38 0 -39 20q-2 16 -2 31q0 29 29 29q255 5 363 49q110 45 149 133q33 73 33 205v53zM846 184v686
q0 50 -37 62q-87 29 -238 29q-216 0 -290 -106t-74 -355q0 -234 66 -340q66 -107 243 -107q180 0 277 41q39 17 47 41q6 12 6 49zM801 1462q19 0 30 -4q13 -5 13 -22q0 -19 -8 -62q-43 -200 -265 -200q-231 0 -260 215q-4 25 -4 38q0 19 12 27q18 8 37 8t23 -20
q10 -89 54 -136q43 -46 138 -46q101 0 146 45t57 135q4 22 27 22z" />
    <glyph glyph-name="Gdotaccent" unicode="&#x120;" horiz-adv-x="1349" 
d="M1204 158q0 -43 -14 -68q-17 -26 -51 -43q-148 -74 -443 -74q-288 0 -424 163q-137 164 -137 564q0 412 135 592q136 181 486 181q190 0 331 -31q48 -11 48 -37q0 -14 -9 -41q-6 -16 -24 -16q-21 0 -70 10q-137 28 -325 28q-128 0 -215 -39q-91 -41 -140 -99
q-50 -59 -78 -152q-27 -90 -35 -174q-8 -85 -8 -191q0 -87 5 -159q5 -75 17 -151q14 -90 43 -145q31 -58 78 -110q49 -53 127 -80q79 -27 183 -27q218 0 367 41q31 10 44 26q11 14 11 54v486h-365q-34 0 -34 30v23q0 31 34 31h422q41 0 41 -48v-544zM823 1669q0 -74 -67 -74
q-68 0 -68 72q0 74 68 74q67 0 67 -72z" />
    <glyph glyph-name="gdotaccent" unicode="&#x121;" horiz-adv-x="1120" 
d="M842 41q-102 -66 -330 -66q-205 0 -299 118t-94 392q0 313 108 434t357 121q167 0 290 -34q31 -8 45 -23q13 -14 13 -49v-928q0 -143 -35 -246q-82 -239 -588 -239q-38 0 -39 20q-2 16 -2 31q0 29 29 29q255 5 363 49q110 45 149 133q33 73 33 205v53zM846 184v686
q0 50 -37 62q-87 29 -238 29q-216 0 -290 -106t-74 -355q0 -234 66 -340q66 -107 243 -107q180 0 277 41q39 17 47 41q6 12 6 49zM649 1362q0 -74 -67 -74q-68 0 -68 72q0 74 68 74q67 0 67 -72z" />
    <glyph glyph-name="Gcommaaccent" unicode="&#x122;" horiz-adv-x="1349" 
d="M1204 158q0 -43 -14 -68q-17 -26 -51 -43q-148 -74 -443 -74q-288 0 -424 163q-137 164 -137 564q0 412 135 592q136 181 486 181q190 0 331 -31q48 -11 48 -37q0 -14 -9 -41q-6 -16 -24 -16q-21 0 -70 10q-137 28 -325 28q-128 0 -215 -39q-91 -41 -140 -99
q-50 -59 -78 -152q-27 -90 -35 -174q-8 -85 -8 -191q0 -87 5 -159q5 -75 17 -151q14 -90 43 -145q31 -58 78 -110q49 -53 127 -80q79 -27 183 -27q218 0 367 41q31 10 44 26q11 14 11 54v486h-365q-34 0 -34 30v23q0 31 34 31h422q41 0 41 -48v-544zM741 -147h27
q33 0 33 -37q0 -220 -133 -344q-17 -17 -31 -17q-12 0 -25 13q-12 12 -12 22q0 11 10 21q91 102 97 301q0 41 34 41z" />
    <glyph glyph-name="gcommaaccent" unicode="&#x123;" horiz-adv-x="1120" 
d="M584 1186h-37q-31 0 -31 31q0 215 129 350q16 16 31 16q10 0 26 -12q15 -11 15 -23t-12 -28q-89 -115 -89 -287q0 -47 -32 -47zM842 41q-102 -66 -330 -66q-205 0 -299 118t-94 392q0 313 108 434t357 121q167 0 290 -34q31 -8 45 -23q13 -14 13 -49v-928
q0 -143 -35 -246q-82 -239 -588 -239q-38 0 -39 20q-2 16 -2 31q0 29 29 29q255 5 363 49q110 45 149 133q33 73 33 205v53zM846 184v686q0 50 -37 62q-87 29 -238 29q-216 0 -290 -106t-74 -355q0 -234 66 -340q66 -107 243 -107q180 0 277 41q39 17 47 41q6 12 6 49z" />
    <glyph glyph-name="Hcircumflex" unicode="&#x124;" horiz-adv-x="1437" 
d="M317 29q0 -35 -32 -35h-27q-33 0 -33 35v1388q0 35 35 35h27q30 0 30 -35v-620h803v620q0 35 35 35h27q30 0 30 -35v-1388q0 -35 -32 -35h-27q-33 0 -33 35v684h-803v-684zM475 1561q-21 0 -33 6t-12 18q0 13 16 29l218 205q24 24 47 24h26q25 0 45 -20l228 -217
q8 -8 8 -21q0 -12 -14 -18q-17 -6 -35 -6q-19 0 -49 24l-199 158l-193 -156q-32 -26 -53 -26z" />
    <glyph glyph-name="hcircumflex" unicode="&#x125;" horiz-adv-x="1155" 
d="M274 27q0 -33 -32 -33h-21q-33 0 -33 33v1480q0 33 27 33h33q26 0 26 -31v-561q59 48 173 69q115 21 225 21q133 0 191 -29q61 -30 85 -94q19 -52 19 -200v-688q0 -33 -33 -33h-21q-32 0 -32 33v682q0 114 -17 159q-17 47 -60 68q-41 20 -149 20q-223 0 -336 -61
q-24 -15 -34 -35q-11 -22 -11 -61v-772zM33 1583q-21 0 -33 6t-12 19q0 12 16 28l217 205q25 25 47 25h27q24 0 45 -21l227 -217q8 -8 8 -20q0 -13 -14 -19q-15 -6 -35 -6q-18 0 -49 25l-198 157l-193 -155q-33 -27 -53 -27z" />
    <glyph glyph-name="Hbar" unicode="&#x126;" horiz-adv-x="1437" 
d="M317 29q0 -35 -32 -35h-27q-33 0 -33 35v981h-141q-29 0 -29 24v31q0 29 31 29h139v323q0 35 35 35h27q30 0 30 -35v-323h803v323q0 35 35 35h27q30 0 30 -35v-323h140q30 0 30 -29v-31q0 -24 -28 -24h-142v-981q0 -35 -32 -35h-27q-33 0 -33 35v684h-803v-684zM317 797
h803v213h-803v-213z" />
    <glyph glyph-name="hbar" unicode="&#x127;" horiz-adv-x="1155" 
d="M274 27q0 -33 -32 -33h-21q-33 0 -33 33v1185h-120q-29 0 -29 25v23q0 28 31 28h118v219q0 33 27 33h33q26 0 26 -31v-221h269q30 0 30 -28v-23q0 -25 -28 -25h-271v-264q59 48 173 69q115 21 225 21q133 0 191 -29q61 -30 85 -94q19 -52 19 -200v-688q0 -33 -33 -33h-21
q-32 0 -32 33v682q0 114 -17 159q-17 47 -60 68q-41 20 -149 20q-223 0 -336 -61q-24 -15 -34 -35q-11 -22 -11 -61v-772z" />
    <glyph glyph-name="Itilde" unicode="&#x128;" horiz-adv-x="542" 
d="M317 29q0 -35 -32 -35h-27q-33 0 -33 35v1390q0 35 35 35h27q30 0 30 -35v-1390zM-8 1593q-22 0 -33 6q-12 6 -12 21t12 45q60 135 162 135q47 0 166 -63q89 -49 135 -49q28 0 49 18q19 16 41 72q12 34 35 34q26 0 37 -8q10 -6 10 -18t-6 -35q-30 -87 -70 -123
q-40 -35 -98 -35q-57 0 -164 56q-108 57 -145 57q-31 0 -48 -17q-18 -18 -36 -69q-11 -27 -35 -27z" />
    <glyph glyph-name="itilde" unicode="&#x129;" horiz-adv-x="462" 
d="M-33 1247q-21 0 -30 4q-15 6 -15 19t10 39q60 139 156 139q44 0 158 -64q85 -49 131 -49q28 0 47 17t39 71q12 35 33 35t32 -4q15 -6 15 -18q0 -11 -8 -35q-29 -89 -66 -123q-38 -35 -94 -35q-51 0 -158 55q-110 58 -137 58q-25 0 -44 -17t-36 -65q-10 -27 -33 -27z
M274 29q0 -35 -32 -35h-21q-33 0 -33 35v956q0 35 33 35h21q32 0 32 -35v-956z" />
    <glyph glyph-name="Imacron" unicode="&#x12a;" horiz-adv-x="542" 
d="M317 29q0 -35 -32 -35h-27q-33 0 -33 35v1390q0 35 35 35h27q30 0 30 -35v-1390zM524 1642h-508q-28 0 -28 25v37q0 29 30 29h504q31 0 31 -29v-37q0 -25 -29 -25z" />
    <glyph glyph-name="imacron" unicode="&#x12b;" horiz-adv-x="462" 
d="M274 29q0 -35 -32 -35h-21q-33 0 -33 35v956q0 35 33 35h21q32 0 32 -35v-956zM469 1268h-467q-29 0 -29 24v37q0 29 31 29h463q31 0 31 -29v-37q0 -24 -29 -24z" />
    <glyph glyph-name="Ibreve" unicode="&#x12c;" horiz-adv-x="542" 
d="M317 29q0 -35 -32 -35h-27q-33 0 -33 35v1390q0 35 35 35h27q30 0 30 -35v-1390zM268 1563q-239 0 -272 204q-4 25 -4 41q0 20 14 27q18 8 37 8q26 0 27 -22q12 -88 55 -130t143 -42q104 0 153 44q47 43 58 128q4 22 25 22q27 0 39 -6q10 -6 10 -20q0 -20 -8 -62
q-43 -192 -277 -192z" />
    <glyph glyph-name="ibreve" unicode="&#x12d;" horiz-adv-x="462" 
d="M274 29q0 -35 -32 -35h-21q-33 0 -33 35v956q0 35 33 35h21q32 0 32 -35v-956zM473 1462q20 0 31 -4q12 -4 12 -22q0 -19 -8 -62q-43 -200 -264 -200q-231 0 -260 215q-4 25 -4 38q0 19 12 27q18 8 37 8q18 0 22 -20q10 -89 54 -136q43 -46 139 -46q100 0 145 45t57 135
q4 22 27 22z" />
    <glyph glyph-name="Iogonek" unicode="&#x12e;" horiz-adv-x="542" 
d="M317 29q0 -21 -16 -31q-108 -66 -150 -129q-40 -61 -40 -133q0 -123 133 -123q30 0 61 4t41 4q15 0 21 -14q6 -17 6 -31q0 -20 -21 -27q-42 -14 -123 -14q-99 0 -154 50t-55 147q0 95 51 157q49 59 156 121q-2 10 -2 27v1382q0 35 35 35h27q30 0 30 -35v-1390z" />
    <glyph glyph-name="iogonek" unicode="&#x12f;" horiz-adv-x="462" 
d="M274 29q0 -23 -16 -33q-108 -72 -145 -121t-37 -125q0 -117 125 -117q25 0 59 3q10 1 19.5 2t14 1.5t5.5 0.5q11 0 16 -13q7 -24 7 -33q0 -19 -19 -24q-52 -12 -117 -12q-92 0 -144 48t-52 140q0 96 48 153q47 56 152 113q-2 10 -2 23v950q0 35 33 35h21q32 0 32 -35
v-956zM299 1362q0 -76 -70 -76q-71 0 -71 74q0 76 71 76q70 0 70 -74z" />
    <glyph glyph-name="Idotaccent" unicode="&#x130;" horiz-adv-x="542" 
d="M317 29q0 -35 -32 -35h-27q-33 0 -33 35v1390q0 35 35 35h27q30 0 30 -35v-1390zM342 1669q0 -74 -68 -74q-67 0 -67 72q0 74 67 74q68 0 68 -72z" />
    <glyph glyph-name="dotlessi" unicode="&#x131;" horiz-adv-x="462" 
d="M274 29q0 -35 -32 -35h-21q-33 0 -33 35v956q0 35 33 35h21q32 0 32 -35v-956z" />
    <glyph glyph-name="IJ" unicode="&#x132;" horiz-adv-x="1146" 
d="M317 29q0 -35 -32 -35h-27q-33 0 -33 35v1390q0 35 35 35h27q30 0 30 -35v-1390zM922 74q0 -105 -22 -165q-20 -54 -69 -95q-51 -42 -139 -77q-90 -36 -125 -36q-22 0 -28 16q-9 27 -9 37q0 26 37 33q124 27 185 72q77 56 77 215v1345q0 35 35 35h27q31 0 31 -35v-1345z
" />
    <glyph glyph-name="ij" unicode="&#x133;" horiz-adv-x="987" 
d="M274 29q0 -35 -32 -35h-21q-33 0 -33 35v956q0 35 33 35h21q32 0 32 -35v-956zM299 1362q0 -76 -70 -76q-71 0 -71 74q0 76 71 76q70 0 70 -74zM762 985v-1120q0 -171 -78 -244q-45 -44 -127 -72q-81 -28 -131 -28q-23 0 -27 16q-4 15 -4 31q0 25 37 31q120 22 180 69
q64 50 64 197v1120q0 35 33 35h20q33 0 33 -35zM788 1362q0 -76 -69 -76q-72 0 -72 74q0 76 72 76q69 0 69 -74z" />
    <glyph glyph-name="Jcircumflex" unicode="&#x134;" horiz-adv-x="604" 
d="M379 74q0 -105 -22 -165q-20 -55 -68 -95q-51 -42 -139 -77q-90 -36 -125 -36q-23 0 -29 16q-8 24 -8 37q0 26 37 33q122 27 184 72q78 57 78 215v1345q0 35 35 35h26q31 0 31 -35v-1345zM88 1561q-21 0 -33 6t-12 18q0 13 16 29l217 205q24 24 48 24h26q25 0 45 -20
l228 -217q8 -8 8 -21q0 -12 -15 -18q-16 -6 -34 -6q-20 0 -50 24l-198 158l-193 -156q-32 -26 -53 -26z" />
    <glyph glyph-name="jcircumflex" unicode="&#x135;" horiz-adv-x="462" 
d="M289 999v-1194q0 -175 -68 -241q-77 -76 -256 -76q-45 0 -45 27q0 14 2 30q2 23 37 23q138 0 191 47q53 51 53 188v1196q0 35 33 35h20q33 0 33 -35zM20 1167h-24q-21 0 -21 19q0 12 13 28l205 291q16 25 45 25h26q24 0 39 -21l207 -299q10 -14 10 -24q0 -19 -20 -19h-23
q-24 0 -41 23l-190 244l-185 -240q-18 -27 -41 -27z" />
    <glyph glyph-name="Kcommaaccent" unicode="&#x136;" horiz-adv-x="1210" 
d="M317 29q0 -35 -32 -35h-27q-33 0 -33 35v1390q0 35 35 35h27q30 0 30 -35v-624h191q67 0 90 32l453 598q21 27 49 27q27 0 41 -2q18 -2 18 -20t-20 -41q-362 -470 -496 -633l531 -693q24 -33 24 -43q0 -16 -16 -20q-15 -4 -47 -4q-27 0 -50 29l-497 653q-24 35 -78 35
h-193v-684zM637 -147h27q32 0 32 -37q0 -220 -133 -344q-17 -17 -31 -17q-11 0 -24 13q-12 12 -12 22q0 11 10 21q90 101 96 301q0 41 35 41z" />
    <glyph glyph-name="kcommaaccent" unicode="&#x137;" horiz-adv-x="1007" 
d="M274 29q0 -35 -32 -35h-21q-33 0 -33 35v1448q0 34 33 34h21q32 0 32 -34v-875h154q63 0 90 33l305 358q21 27 51 27h23q29 0 29 -21q0 -17 -21 -41l-344 -389l406 -508q24 -29 24 -43q0 -24 -33 -24h-22q-26 0 -49 29l-373 466q-28 37 -78 37h-162v-497zM545 -147h26
q33 0 33 -37q0 -220 -133 -344q-17 -17 -31 -17q-11 0 -24 13t-13 22q0 10 11 21q90 101 96 301q0 41 35 41z" />
    <glyph glyph-name="kgreenlandic" unicode="&#x138;" horiz-adv-x="1007" 
d="M274 29q0 -35 -32 -35h-21q-33 0 -33 35v956q0 35 33 35h21q32 0 32 -35v-403h154q64 0 90 32l305 379q21 27 51 27h23q29 0 29 -21q0 -17 -21 -41l-344 -409l406 -488q24 -29 24 -43q0 -24 -33 -24h-22q-26 0 -49 29l-373 446q-28 37 -78 37h-162v-477z" />
    <glyph glyph-name="Lacute" unicode="&#x139;" horiz-adv-x="1097" 
d="M1014 0h-613q-97 0 -137 38q-39 37 -39 130v1251q0 35 35 35h27q30 0 30 -35v-1247q0 -88 80 -88h617q35 0 35 -31v-22q0 -31 -35 -31zM281 1583q-28 -22 -56 -22q-21 0 -39 8q-12 7 -12 18q0 13 19 29l284 225q29 23 58 23q28 0 57 -9q16 -6 16 -20q0 -16 -18 -31z" />
    <glyph glyph-name="lacute" unicode="&#x13a;" horiz-adv-x="491" 
d="M274 229q0 -85 29 -116q35 -35 109 -43q26 -1 26 -27q0 -30 -4 -37q-6 -12 -31 -12q-137 0 -190 92q-25 45 -25 135v1276q0 35 35 35h21q30 0 30 -35v-1268zM233 1624q-28 -22 -55 -22q-21 0 -39 8q-12 8 -12 18q0 14 18 29l285 225q29 23 57 23q29 0 58 -9q16 -6 16 -20
q0 -16 -18 -31z" />
    <glyph glyph-name="Lcommaaccent" unicode="&#x13b;" horiz-adv-x="1097" 
d="M1014 0h-613q-97 0 -137 38q-39 37 -39 130v1251q0 35 35 35h27q30 0 30 -35v-1247q0 -88 80 -88h617q35 0 35 -31v-22q0 -31 -35 -31zM608 -147h27q33 0 33 -37q0 -220 -133 -344q-17 -17 -31 -17q-12 0 -25 13q-12 12 -12 22q0 11 10 21q90 101 96 301q0 41 35 41z" />
    <glyph glyph-name="lcommaaccent" unicode="&#x13c;" horiz-adv-x="491" 
d="M274 229q0 -85 29 -116q35 -35 109 -43q26 -1 26 -27q0 -30 -4 -37q-6 -12 -31 -12q-137 0 -190 92q-25 45 -25 135v1276q0 35 35 35h21q30 0 30 -35v-1268zM287 -147h26q33 0 33 -37q0 -220 -133 -344q-17 -17 -31 -17q-11 0 -24 13t-13 22q0 10 11 21q90 101 96 301
q0 41 35 41z" />
    <glyph glyph-name="Lcaron" unicode="&#x13d;" horiz-adv-x="1097" 
d="M1014 0h-613q-97 0 -137 38q-39 37 -39 130v1251q0 35 35 35h27q30 0 30 -35v-1247q0 -88 80 -88h617q35 0 35 -31v-22q0 -31 -35 -31zM645 1470h27q33 0 33 -36q0 -219 -134 -344q-17 -17 -30 -17t-25 12t-12 23q0 10 10 20q90 100 96 302q0 40 35 40z" />
    <glyph glyph-name="lcaron" unicode="&#x13e;" horiz-adv-x="491" 
d="M274 229q0 -85 29 -116q35 -35 109 -43q26 -1 26 -27q0 -30 -4 -37q-6 -12 -31 -12q-137 0 -190 92q-25 45 -25 135v1276q0 35 35 35h21q30 0 30 -35v-1268zM543 1532h26q33 0 33 -37q0 -220 -133 -344q-16 -16 -31 -16q-12 0 -24 12q-13 13 -13 22q0 10 11 21
q90 101 96 301q0 41 35 41z" />
    <glyph glyph-name="Ldot" unicode="&#x13f;" horiz-adv-x="1097" 
d="M870 696q0 -75 -75 -75q-76 0 -76 75q0 76 76 76q75 0 75 -76zM1014 0h-613q-97 0 -137 38q-39 37 -39 130v1253q0 35 35 35h27q30 0 30 -35v-1249q0 -88 80 -88h617q35 0 35 -31v-22q0 -31 -35 -31z" />
    <glyph glyph-name="ldot" unicode="&#x140;" horiz-adv-x="667" 
d="M633 696q0 -73 -74 -73t-74 73q0 74 74 74t74 -74zM274 229q0 -85 29 -116q35 -35 109 -43q26 -1 26 -27q0 -30 -4 -37q-6 -12 -31 -12q-137 0 -190 92q-25 45 -25 135v1276q0 35 35 35h21q30 0 30 -35v-1268z" />
    <glyph glyph-name="Lslash" unicode="&#x141;" horiz-adv-x="1097" 
d="M1014 0h-613q-97 0 -137 38q-39 37 -39 130v379l-147 -103q-11 -8 -21 -8t-26 25q-15 21 -15 28q0 13 15 23l194 137v770q0 35 35 35h27q30 0 30 -35v-706l338 239q13 9 21 9q12 0 31 -25q14 -17 14 -29q0 -11 -14 -22l-390 -273v-440q0 -88 80 -88h617q35 0 35 -31v-22
q0 -31 -35 -31z" />
    <glyph glyph-name="lslash" unicode="&#x142;" horiz-adv-x="491" 
d="M274 229q0 -85 29 -116q35 -35 109 -43q26 -1 26 -27q0 -30 -4 -37q-6 -12 -31 -12q-137 0 -190 92q-25 45 -25 135v406l-116 -80q-11 -8 -21 -8q-13 1 -28 24q-13 19 -13 27q0 12 15 22l163 113v772q0 35 35 35h21q30 0 30 -35v-713l144 99q11 8 20 8q10 0 31 -27
q12 -16 12 -26q0 -13 -16 -23l-191 -131v-455z" />
    <glyph glyph-name="Nacute" unicode="&#x143;" horiz-adv-x="1443" 
d="M315 29q0 -35 -32 -35h-25q-33 0 -33 35v1349q0 76 62 76h22q27 0 42 -12t36 -45q581 -1000 743 -1303q-2 194 -2 1323q0 35 35 35h25q31 0 31 -35v-1362q0 -63 -54 -63h-26q-28 0 -42 11q-17 14 -34 42l-750 1309q2 -278 2 -1325zM727 1583q-28 -22 -55 -22q-21 0 -39 8
q-12 7 -12 18q0 14 18 29l285 225q29 23 57 23t57 -9q17 -6 17 -20q0 -15 -19 -31z" />
    <glyph glyph-name="nacute" unicode="&#x144;" horiz-adv-x="1155" 
d="M274 27q0 -33 -32 -33h-21q-33 0 -33 33v809q0 86 60 114q169 88 424 88q133 0 191 -29q61 -30 85 -94q19 -52 19 -200v-688q0 -33 -33 -33h-21q-32 0 -32 33v682q0 114 -17 159q-17 47 -60 68q-41 20 -149 20q-214 0 -331 -59q-26 -16 -37 -33q-13 -23 -13 -65v-772z
M559 1204q-17 -18 -39 -18q-21 0 -33 6t-12 18q0 10 12 27l222 272q22 25 53 25q30 0 45 -4q16 -6 16 -23q0 -14 -14 -28z" />
    <glyph glyph-name="Ncommaaccent" unicode="&#x145;" horiz-adv-x="1443" 
d="M315 29q0 -35 -32 -35h-25q-33 0 -33 35v1349q0 76 62 76h22q27 0 42 -12t36 -45q581 -1000 743 -1303q-2 194 -2 1323q0 35 35 35h25q31 0 31 -35v-1362q0 -63 -54 -63h-26q-28 0 -42 11q-17 14 -34 42l-750 1309q2 -278 2 -1325zM731 -147h27q33 0 33 -37
q0 -219 -134 -344q-17 -17 -30 -17q-12 0 -25 13q-12 12 -12 22q0 11 10 21q90 101 96 301q0 41 35 41z" />
    <glyph glyph-name="ncommaaccent" unicode="&#x146;" horiz-adv-x="1155" 
d="M274 27q0 -33 -32 -33h-21q-33 0 -33 33v809q0 86 60 114q169 88 424 88q133 0 191 -29q61 -30 85 -94q19 -52 19 -200v-688q0 -33 -33 -33h-21q-32 0 -32 33v682q0 114 -17 159q-17 47 -60 68q-41 20 -149 20q-214 0 -331 -59q-26 -16 -37 -33q-13 -23 -13 -65v-772z
M594 -147h27q32 0 32 -37q0 -220 -133 -344q-17 -17 -31 -17q-11 0 -24 13q-12 12 -12 22q0 11 10 21q90 101 96 301q0 41 35 41z" />
    <glyph glyph-name="Ncaron" unicode="&#x147;" horiz-adv-x="1443" 
d="M315 29q0 -35 -32 -35h-25q-33 0 -33 35v1349q0 76 62 76h22q27 0 42 -12t36 -45q581 -1000 743 -1303q-2 194 -2 1323q0 35 35 35h25q31 0 31 -35v-1362q0 -63 -54 -63h-26q-28 0 -42 11q-17 14 -34 42l-750 1309q2 -278 2 -1325zM977 1853q21 0 33 -6t12 -18
q0 -13 -16 -29l-218 -205q-24 -24 -47 -24h-26q-25 0 -45 20l-228 217q-8 8 -8 21q0 12 15 18q16 6 34 6q19 0 49 -24l199 -158l193 156q32 26 53 26z" />
    <glyph glyph-name="ncaron" unicode="&#x148;" horiz-adv-x="1155" 
d="M274 27q0 -33 -32 -33h-21q-33 0 -33 33v809q0 86 60 114q169 88 424 88q133 0 191 -29q61 -30 85 -94q19 -52 19 -200v-688q0 -33 -33 -33h-21q-32 0 -32 33v682q0 114 -17 159q-17 47 -60 68q-41 20 -149 20q-214 0 -331 -59q-26 -16 -37 -33q-13 -23 -13 -65v-772z
M793 1538q19 0 34 -6q11 -5 11 -14q0 -8 -13 -27l-204 -291q-15 -24 -46 -24h-26q-25 0 -39 20l-203 291q-14 17 -14 29t10 16q12 6 35 6t39 -22l190 -244l185 239q22 27 41 27z" />
    <glyph glyph-name="napostrophe" unicode="&#x149;" horiz-adv-x="1155" 
d="M274 27q0 -33 -32 -33h-21q-33 0 -33 33v809q0 86 60 114q169 88 424 88q133 0 191 -29q61 -30 85 -94q19 -52 19 -200v-688q0 -33 -33 -33h-21q-32 0 -32 33v682q0 114 -17 159q-17 47 -60 68q-41 20 -149 20q-214 0 -331 -59q-26 -16 -37 -33q-13 -23 -13 -65v-772z
M262 1581h27q33 0 33 -37q0 -219 -134 -344q-16 -16 -30 -16q-13 0 -25 12t-12 23q0 10 10 20q90 101 96 301q0 41 35 41z" />
    <glyph glyph-name="Eng" unicode="&#x14a;" horiz-adv-x="1443" 
d="M315 29q0 -35 -32 -35h-25q-33 0 -33 35v1349q0 76 62 76h22q27 0 42 -12t36 -45q581 -1000 743 -1303q-2 194 -2 1323q0 35 35 35h25q31 0 31 -35v-1493q0 -194 -99 -272q-53 -41 -136 -77q-82 -36 -120 -36q-22 0 -28 17q-9 27 -9 36q0 21 43 33q115 29 172 72
q84 61 84 215v22q-666 1147 -813 1420q2 -278 2 -1325z" />
    <glyph glyph-name="eng" unicode="&#x14b;" horiz-adv-x="1155" 
d="M274 27q0 -33 -32 -33h-21q-33 0 -33 33v809q0 86 60 114q169 88 424 88q133 0 191 -29q61 -30 85 -94q19 -52 19 -200v-848q0 -173 -78 -246q-45 -44 -127 -72q-81 -28 -131 -28q-23 0 -27 16q-6 24 -6 31q0 25 37 31q122 22 182 69q64 50 64 197v844q0 114 -17 159
q-17 47 -60 68q-41 20 -149 20q-214 0 -331 -59q-26 -16 -37 -33q-13 -23 -13 -65v-772z" />
    <glyph glyph-name="Omacron" unicode="&#x14c;" horiz-adv-x="1406" 
d="M1272 733q0 -296 -65 -465t-185 -231q-123 -64 -326 -64q-198 0 -316 63t-181 230q-64 171 -64 465q0 224 42 374q42 151 124 228q85 80 179 109q101 31 233 31q117 0 202 -17t155 -62q75 -48 114 -128q40 -81 64 -213q24 -131 24 -320zM1176 731q0 171 -18 285
q-18 117 -49 188q-31 73 -92 114q-57 38 -131 54q-70 15 -179 15q-123 0 -205 -27t-147 -96q-64 -68 -94 -200q-30 -130 -30 -331q0 -211 29 -348q28 -135 92 -206q63 -71 143 -95q83 -25 203 -25q124 0 203 24q83 25 147 92q67 71 97 205q31 141 31 351zM975 1643h-508
q-29 0 -29 24v37q0 29 31 29h504q31 0 31 -29v-37q0 -24 -29 -24z" />
    <glyph glyph-name="omacron" unicode="&#x14d;" horiz-adv-x="1095" 
d="M977 516q0 -315 -98 -428q-100 -115 -336 -115q-234 0 -329 112t-95 425q0 157 31 269q30 107 93 164t136 78t178 21q100 0 156 -11q60 -12 116 -42q54 -29 85 -89t47 -152t16 -232zM889 508q0 148 -18 236q-19 93 -60 138q-43 48 -101 64q-60 17 -157 17
q-115 0 -187 -32t-115 -132q-44 -102 -44 -283q0 -195 38 -298q37 -101 105 -133q69 -32 195 -32q93 0 149 15q57 15 105 59q48 43 69 138q21 93 21 243zM799 1268h-467q-29 0 -29 24v37q0 29 31 29h463q30 0 30 -29v-37q0 -24 -28 -24z" />
    <glyph glyph-name="Obreve" unicode="&#x14e;" horiz-adv-x="1406" 
d="M1272 733q0 -296 -65 -465t-185 -231q-123 -64 -326 -64q-198 0 -316 63t-181 230q-64 171 -64 465q0 224 42 374q42 151 124 228q85 80 179 109q101 31 233 31q117 0 202 -17t155 -62q75 -48 114 -128q40 -81 64 -213q24 -131 24 -320zM1176 731q0 171 -18 285
q-18 117 -49 188q-31 73 -92 114q-57 38 -131 54q-70 15 -179 15q-123 0 -205 -27t-147 -96q-64 -68 -94 -200q-30 -130 -30 -331q0 -211 29 -348q28 -135 92 -206q63 -71 143 -95q83 -25 203 -25q124 0 203 24q83 25 147 92q67 71 97 205q31 141 31 351zM715 1563
q-240 0 -273 204q-4 25 -4 41q0 20 15 27q18 8 36 8q26 0 27 -22q12 -88 55 -130t144 -42q103 0 152 44q48 44 59 128q4 22 24 22q27 0 39 -6q10 -6 10 -20q0 -20 -8 -62q-44 -192 -276 -192z" />
    <glyph glyph-name="obreve" unicode="&#x14f;" horiz-adv-x="1095" 
d="M977 516q0 -315 -98 -428q-100 -115 -336 -115q-234 0 -329 112t-95 425q0 157 31 269q30 107 93 164t136 78t178 21q100 0 156 -11q60 -12 116 -42q54 -29 85 -89t47 -152t16 -232zM889 508q0 148 -18 236q-19 93 -60 138q-43 48 -101 64q-60 17 -157 17
q-115 0 -187 -32t-115 -132q-44 -102 -44 -283q0 -195 38 -298q37 -101 105 -133q69 -32 195 -32q93 0 149 15q57 15 105 59q48 43 69 138q21 93 21 243zM791 1462q19 0 30 -4q13 -5 13 -22q0 -13 -9 -62q-43 -200 -264 -200q-231 0 -260 215q-4 25 -4 38q0 19 12 27
q18 8 37 8t23 -20q10 -89 54 -136q43 -46 138 -46q101 0 146 45t57 135q4 22 27 22z" />
    <glyph glyph-name="Ohungarumlaut" unicode="&#x150;" horiz-adv-x="1406" 
d="M1272 733q0 -296 -65 -465t-185 -231q-123 -64 -326 -64q-198 0 -316 63t-181 230q-64 171 -64 465q0 224 42 374q42 151 124 228q85 80 179 109q101 31 233 31q117 0 202 -17t155 -62q75 -48 114 -128q40 -81 64 -213q24 -131 24 -320zM1176 731q0 171 -18 285
q-18 117 -49 188q-31 73 -92 114q-57 38 -131 54q-70 15 -179 15q-123 0 -205 -27t-147 -96q-64 -68 -94 -200q-30 -130 -30 -331q0 -211 29 -348q28 -135 92 -206q63 -71 143 -95q83 -25 203 -25q124 0 203 24q83 25 147 92q67 71 97 205q31 141 31 351zM575 1583
q-28 -22 -55 -22q-19 0 -37 8q-12 7 -12 18q0 14 18 29l285 225q29 23 57 23q21 0 50 -9q16 -6 16 -20q0 -16 -18 -31zM899 1583q-28 -22 -55 -22q-19 0 -37 8q-12 7 -12 18q0 14 18 29l285 225q29 23 57 23q20 0 49 -9q17 -6 17 -20q0 -15 -19 -31z" />
    <glyph glyph-name="ohungarumlaut" unicode="&#x151;" horiz-adv-x="1095" 
d="M977 516q0 -315 -98 -428q-100 -115 -336 -115q-234 0 -329 112t-95 425q0 157 31 269q30 107 93 164t136 78t178 21q100 0 156 -11q60 -12 116 -42q54 -29 85 -89t47 -152t16 -232zM889 508q0 148 -18 236q-19 93 -60 138q-43 48 -101 64q-60 17 -157 17
q-115 0 -187 -32t-115 -132q-44 -102 -44 -283q0 -195 38 -298q37 -101 105 -133q69 -32 195 -32q93 0 149 15q57 15 105 59q48 43 69 138q21 93 21 243zM422 1204q-18 -18 -39 -18q-19 0 -29 6q-10 4 -10 18q0 10 12 27l207 272q22 25 49 25q26 0 43 -6t17 -21
q0 -10 -15 -28zM698 1204q-18 -18 -39 -18t-28 6q-10 4 -10 18q0 10 12 27l207 272q22 25 49 25q28 0 43 -6q16 -6 16 -21q0 -11 -14 -28z" />
    <glyph glyph-name="OE" unicode="&#x152;" horiz-adv-x="2062" 
d="M1944 0h-609q-96 0 -135 40t-39 169q-61 -133 -166 -184q-107 -52 -303 -52q-198 0 -315 63q-116 63 -179 230q-63 168 -63 465q0 178 29 312q28 130 77 214t124 131q77 49 156 66q86 19 188 19q182 0 290 -48q105 -46 162 -176q0 111 37 154t135 43h582q35 0 35 -31v-22
q0 -31 -35 -31h-598q-70 0 -70 -80v-485h602q35 0 35 -31v-23q0 -30 -35 -30h-602v-531q0 -98 80 -98h617q34 0 34 -31v-22q0 -31 -34 -31zM1157 731q0 213 -24 343q-24 128 -85 199q-59 68 -139 91q-76 22 -207 22q-125 0 -203 -26q-82 -27 -145 -96t-93 -200
q-30 -130 -30 -331q0 -208 28 -348q27 -134 91 -206q63 -71 143 -95q83 -25 201 -25q64 0 84 1q24 1 77 8q47 6 74 18q24 11 63 35q37 23 57 56q18 29 44 85q22 48 35 117q15 81 21 155q8 94 8 197z" />
    <glyph glyph-name="oe" unicode="&#x153;" horiz-adv-x="1814" 
d="M936 205q-43 -127 -136 -179q-94 -53 -257 -53q-234 0 -329 112t-95 425q0 157 31 269q30 107 93 164t136 78t178 21q170 0 259 -47q88 -46 126 -184q100 231 395 231q121 0 194 -32t110 -104q38 -74 49 -148q12 -78 12 -199q0 -47 -12 -59q-11 -11 -39 -11h-672
q1 -253 89 -345q87 -91 280 -91q129 0 245 35q41 12 49 12q14 0 21 -14q10 -20 10 -35q0 -20 -33 -31q-136 -47 -299 -47t-261 57t-144 175zM889 508q0 148 -18 236q-19 93 -60 138q-43 48 -101 64q-60 17 -157 17q-115 0 -187 -32t-115 -132q-44 -102 -44 -283
q0 -195 38 -298q37 -101 105 -133q69 -32 195 -32q93 0 149 15q57 15 105 59q48 43 69 138q21 93 21 243zM979 565h631q2 24 2 60q0 84 -10 137q-10 54 -39 104q-28 49 -87 73t-149 24q-191 0 -268 -103q-75 -101 -80 -295z" />
    <glyph glyph-name="Racute" unicode="&#x154;" horiz-adv-x="1257" 
d="M317 29q0 -35 -34 -35h-25q-33 0 -33 35v1245q0 90 36 131t128 41h164q243 0 342 -39q113 -45 160 -128t47 -218q0 -301 -271 -375q-7 -2 -36 -8l354 -617q16 -28 16 -41q0 -16 -16 -20q-18 -6 -43 -6q-26 0 -49 39l-355 633q-73 -7 -139 -7h-246v-630zM317 743h256
q186 0 283 41q150 66 150 273q0 125 -37 181t-111 89q-81 35 -301 35h-156q-47 0 -65 -21q-19 -22 -19 -65v-533zM612 1583q-28 -22 -55 -22q-21 0 -39 8q-12 7 -12 18q0 14 18 29l285 225q29 23 57 23q29 0 58 -9q16 -6 16 -20q0 -16 -18 -31z" />
    <glyph glyph-name="racute" unicode="&#x155;" horiz-adv-x="714" 
d="M274 27q0 -33 -32 -33h-21q-33 0 -33 33v798q0 72 39 111q33 34 141 69q103 33 210 33q49 0 69 -4q21 -4 21 -20q0 -27 -4 -43q-4 -21 -25 -21q-11 0 -29 1t-37 1q-158 0 -249 -53q-29 -15 -39 -37q-11 -22 -11 -63v-772zM422 1204q-16 -18 -39 -18q-21 0 -33 6t-12 18
q0 10 12 27l221 272q22 25 54 25q30 0 45 -4q16 -6 16 -23q0 -14 -14 -28z" />
    <glyph glyph-name="Rcommaaccent" unicode="&#x156;" horiz-adv-x="1257" 
d="M317 29q0 -35 -34 -35h-25q-33 0 -33 35v1245q0 90 36 131t128 41h164q243 0 342 -39q113 -45 160 -128t47 -218q0 -301 -271 -375q-7 -2 -36 -8l354 -617q16 -28 16 -41q0 -16 -16 -20q-18 -6 -43 -6q-26 0 -49 39l-355 633q-73 -7 -139 -7h-246v-630zM317 743h256
q186 0 283 41q150 66 150 273q0 125 -37 181t-111 89q-81 35 -301 35h-156q-47 0 -65 -21q-19 -22 -19 -65v-533zM639 -147h27q32 0 32 -37q0 -220 -133 -344q-17 -17 -30 -17q-12 0 -25 13q-12 12 -12 22q0 11 10 21q90 101 96 301q0 41 35 41z" />
    <glyph glyph-name="rcommaaccent" unicode="&#x157;" horiz-adv-x="714" 
d="M274 27q0 -33 -32 -33h-21q-33 0 -33 33v798q0 72 39 111q33 34 141 69q103 33 210 33q49 0 69 -4q21 -4 21 -20q0 -27 -4 -43q-4 -21 -25 -21q-11 0 -29 1t-37 1q-158 0 -249 -53q-29 -15 -39 -37q-11 -22 -11 -63v-772zM229 -147h27q33 0 33 -37q0 -220 -133 -344
q-17 -17 -31 -17q-12 0 -25 13q-12 12 -12 22q0 11 10 21q91 102 97 301q0 41 34 41z" />
    <glyph glyph-name="Rcaron" unicode="&#x158;" horiz-adv-x="1257" 
d="M317 29q0 -35 -34 -35h-25q-33 0 -33 35v1245q0 90 36 131t128 41h164q243 0 342 -39q113 -45 160 -128t47 -218q0 -301 -271 -375q-7 -2 -36 -8l354 -617q16 -28 16 -41q0 -16 -16 -20q-18 -6 -43 -6q-26 0 -49 39l-355 633q-73 -7 -139 -7h-246v-630zM317 743h256
q186 0 283 41q150 66 150 273q0 125 -37 181t-111 89q-81 35 -301 35h-156q-47 0 -65 -21q-19 -22 -19 -65v-533zM852 1853q21 0 33 -6t12 -18q0 -13 -16 -29l-217 -205q-24 -24 -48 -24h-26q-25 0 -45 20l-228 217q-8 8 -8 21q0 12 15 18q16 6 34 6q20 0 50 -24l198 -158
l193 156q32 26 53 26z" />
    <glyph glyph-name="rcaron" unicode="&#x159;" horiz-adv-x="714" 
d="M274 27q0 -33 -32 -33h-21q-33 0 -33 33v798q0 72 39 111q33 34 141 69q103 33 210 33q49 0 69 -4q21 -4 21 -20q0 -27 -4 -43q-4 -21 -25 -21q-11 0 -29 1t-37 1q-158 0 -249 -53q-29 -15 -39 -37q-11 -22 -11 -63v-772zM657 1538q19 0 35 -6q10 -4 10 -14q0 -9 -12 -27
l-205 -291q-15 -24 -45 -24h-26q-25 0 -39 20l-203 291q-14 17 -14 29t10 16q12 6 35 6t39 -22l190 -244l184 239q22 27 41 27z" />
    <glyph glyph-name="Sacute" unicode="&#x15a;" horiz-adv-x="1134" 
d="M692 731q183 -56 253 -131q73 -78 73 -223q0 -196 -113 -300t-370 -104q-214 0 -388 68q-34 15 -34 33q0 13 10 39q11 24 33 24q11 0 47 -14q153 -62 332 -62q103 0 180 21q76 21 114 50q40 31 62 76q24 50 28 80q5 38 5 81q0 40 -9 80q-7 32 -37 72q-29 40 -97 75
q-68 36 -171 68l-207 63q-134 44 -202 134q-70 93 -70 214q0 196 115 297t364 101q175 0 316 -39q32 -7 32 -33q0 -12 -10 -41q-6 -19 -30 -19q-2 0 -7 1t-16 3.5t-21 4.5q-140 36 -274 36q-218 0 -296 -77q-79 -78 -79 -226q0 -107 57 -173q58 -67 232 -122zM557 1583
q-28 -22 -55 -22q-21 0 -39 8q-12 7 -12 18q0 14 18 29l285 225q29 23 57 23t57 -9q17 -6 17 -20q0 -15 -19 -31z" />
    <glyph glyph-name="sacute" unicode="&#x15b;" horiz-adv-x="860" 
d="M481 453l-168 55q-109 35 -159 94q-52 61 -52 154q0 284 355 284q145 0 245 -24q35 -8 35 -33q0 -9 -8 -35q-6 -18 -22 -18q-13 0 -31 6q-105 27 -219 27q-157 0 -212 -53t-55 -142q0 -73 40 -116q42 -45 165 -85l146 -47q125 -41 182 -96q57 -56 57 -162
q0 -135 -89 -212t-279 -77q-185 0 -297 47q-25 11 -25 29q0 13 8 31q10 22 29 22q4 0 33 -10q102 -39 252 -39q87 0 150 19q60 18 87 51q28 34 35 63q8 32 8 72q0 69 -40 110t-171 85zM442 1204q-16 -18 -39 -18q-20 0 -32 6q-13 6 -13 18q0 9 13 27l221 272q22 25 53 25
q30 0 45 -4q17 -6 17 -23q0 -13 -15 -28z" />
    <glyph glyph-name="Scircumflex" unicode="&#x15c;" horiz-adv-x="1134" 
d="M692 731q183 -56 253 -131q73 -78 73 -223q0 -196 -113 -300t-370 -104q-214 0 -388 68q-34 15 -34 33q0 13 10 39q11 24 33 24q11 0 47 -14q153 -62 332 -62q103 0 180 21q76 21 114 50q40 31 62 76q24 50 28 80q5 38 5 81q0 40 -9 80q-7 32 -37 72q-29 40 -97 75
q-68 36 -171 68l-207 63q-134 44 -202 134q-70 93 -70 214q0 196 115 297t364 101q175 0 316 -39q32 -7 32 -33q0 -12 -10 -41q-6 -19 -30 -19q-2 0 -7 1t-16 3.5t-21 4.5q-140 36 -274 36q-218 0 -296 -77q-79 -78 -79 -226q0 -107 57 -173q58 -67 232 -122zM330 1561
q-21 0 -33 6t-12 18q0 13 16 29l217 205q24 24 47 24h27q25 0 45 -20l227 -217q8 -8 8 -21q0 -12 -14 -18q-15 -6 -35 -6q-19 0 -49 24l-199 158l-192 -156q-32 -26 -53 -26z" />
    <glyph glyph-name="scircumflex" unicode="&#x15d;" horiz-adv-x="860" 
d="M481 453l-168 55q-109 35 -159 94q-52 61 -52 154q0 284 355 284q145 0 245 -24q35 -8 35 -33q0 -9 -8 -35q-6 -18 -22 -18q-13 0 -31 6q-105 27 -219 27q-157 0 -212 -53t-55 -142q0 -73 40 -116q42 -45 165 -85l146 -47q125 -41 182 -96q57 -56 57 -162
q0 -135 -89 -212t-279 -77q-185 0 -297 47q-25 11 -25 29q0 13 8 31q10 22 29 22q4 0 33 -10q102 -39 252 -39q87 0 150 19q60 18 87 51q28 34 35 63q8 32 8 72q0 69 -40 110t-171 85zM217 1167q-22 0 -33 4q-12 5 -12 17q0 11 12 26l205 291q17 25 45 25h27q24 0 39 -21
l202 -290q15 -18 15 -29q0 -10 -10 -16q-12 -7 -35 -7q-22 0 -39 23l-191 244l-184 -240q-18 -27 -41 -27z" />
    <glyph glyph-name="Scedilla" unicode="&#x15e;" horiz-adv-x="1134" 
d="M561 -139q119 0 162 -45q43 -44 43 -125q0 -185 -225 -185q-60 0 -107 11q-18 6 -18 26q0 11 6 29q8 18 24 18q2 0 39 -6q25 -4 60 -4q133 0 133 103q0 53 -28 78q-27 24 -103 24h-33q-33 0 -33 31q0 12 6 53l19 104q-200 6 -359 68q-34 15 -34 33q0 13 10 39
q11 24 33 24q11 0 47 -14q153 -62 332 -62q103 0 180 21q76 21 114 50q40 31 62 76q24 50 28 80q5 38 5 81q0 40 -9 80q-7 32 -37 72q-29 40 -97 75q-68 36 -171 68l-207 63q-134 44 -202 134q-70 93 -70 214q0 196 115 297t364 101q175 0 316 -39q32 -7 32 -33
q0 -12 -10 -41q-6 -19 -30 -19q-2 0 -7 1t-16 3.5t-21 4.5q-140 36 -274 36q-218 0 -296 -77q-79 -78 -79 -226q0 -107 57 -173q58 -67 232 -122l178 -57q183 -56 253 -131q73 -78 73 -223q0 -188 -103 -291q-104 -104 -335 -111z" />
    <glyph glyph-name="scedilla" unicode="&#x15f;" horiz-adv-x="860" 
d="M412 -135q116 0 156 -42q40 -41 40 -122q0 -178 -217 -178q-61 0 -98 8q-19 6 -19 25q0 15 5 28q8 19 24 19q12 0 33 -4q30 -5 59 -5q129 0 129 99q0 53 -27 77q-26 23 -100 23h-30q-31 0 -31 29q0 18 6 51l18 102q-155 6 -245 45q-25 11 -25 29q0 13 8 31q10 22 29 22
q4 0 33 -10q102 -39 252 -39q87 0 150 19q60 18 87 51q28 34 35 63q8 32 8 72q0 69 -40 110t-171 85l-168 55q-109 35 -159 94q-52 61 -52 154q0 284 355 284q145 0 245 -24q35 -8 35 -33q0 -9 -8 -35q-6 -18 -22 -18q-13 0 -31 6q-105 27 -219 27q-157 0 -212 -53t-55 -142
q0 -73 40 -116q42 -45 165 -85l146 -47q125 -41 182 -96q57 -56 57 -162q0 -131 -86 -208q-85 -76 -266 -81z" />
    <glyph glyph-name="Scaron" unicode="&#x160;" horiz-adv-x="1134" 
d="M692 731q183 -56 253 -131q73 -78 73 -223q0 -196 -113 -300t-370 -104q-214 0 -388 68q-34 15 -34 33q0 13 10 39q11 24 33 24q11 0 47 -14q153 -62 332 -62q103 0 180 21q76 21 114 50q40 31 62 76q24 50 28 80q5 38 5 81q0 40 -9 80q-7 32 -37 72q-29 40 -97 75
q-68 36 -171 68l-207 63q-134 44 -202 134q-70 93 -70 214q0 196 115 297t364 101q175 0 316 -39q32 -7 32 -33q0 -12 -10 -41q-6 -19 -30 -19q-2 0 -7 1t-16 3.5t-21 4.5q-140 36 -274 36q-218 0 -296 -77q-79 -78 -79 -226q0 -107 57 -173q58 -67 232 -122zM817 1853
q21 0 33 -6t12 -18q0 -13 -16 -29l-217 -205q-24 -24 -47 -24h-27q-25 0 -45 20l-227 217q-9 9 -9 21t15 18t35 6q19 0 49 -24l198 -158l193 156q32 26 53 26z" />
    <glyph glyph-name="scaron" unicode="&#x161;" horiz-adv-x="860" 
d="M481 453l-168 55q-109 35 -159 94q-52 61 -52 154q0 284 355 284q145 0 245 -24q35 -8 35 -33q0 -9 -8 -35q-6 -18 -22 -18q-13 0 -31 6q-105 27 -219 27q-157 0 -212 -53t-55 -142q0 -73 40 -116q42 -45 165 -85l146 -47q125 -41 182 -96q57 -56 57 -162
q0 -135 -89 -212t-279 -77q-185 0 -297 47q-25 11 -25 29q0 13 8 31q10 22 29 22q4 0 33 -10q102 -39 252 -39q87 0 150 19q60 18 87 51q28 34 35 63q8 32 8 72q0 69 -40 110t-171 85zM682 1538q18 0 35 -6q10 -4 10 -14q0 -9 -12 -27l-205 -291q-15 -24 -45 -24h-27
q-25 0 -39 20l-202 291q-15 18 -15 29t11 16q12 6 34 6q23 0 39 -22l191 -244l184 239q23 27 41 27z" />
    <glyph glyph-name="uni0162" unicode="&#x162;" horiz-adv-x="1140" 
d="M567 -139q119 0 162 -45q43 -44 43 -125q0 -185 -225 -185q-60 0 -107 11q-18 6 -18 26q0 11 6 29q8 18 25 18q1 0 39 -6q25 -4 59 -4q133 0 133 103q0 54 -29 78t-102 24h-33q-33 0 -33 31q0 6 7 53l24 133q-6 8 -6 27v1333h-442q-35 0 -35 31v22q0 31 35 31h977
q34 0 34 -31v-22q0 -31 -34 -31h-443v-1333q0 -25 -14 -31z" />
    <glyph glyph-name="uni0163" unicode="&#x163;" horiz-adv-x="645" 
d="M403 -135q117 0 157 -42q40 -41 40 -122q0 -178 -217 -178q-61 0 -98 8q-19 6 -19 25q0 17 4 28q8 19 25 19q12 0 33 -4q30 -5 59 -5q129 0 129 99q0 52 -28 77q-26 23 -99 23h-31q-30 0 -30 29q0 18 6 51l28 154q-34 18 -61 51q-65 77 -65 287v569h-144q-29 0 -29 29v22
q0 29 31 29h142q0 57 6 246q0 36 26 36h27q27 0 27 -34v-248h256q32 0 32 -27v-22q0 -31 -35 -31h-253v-578q0 -138 32 -198q24 -47 80 -68q55 -21 170 -27q31 -2 31 -28q0 -13 -2 -33q-1 -20 -35 -20q-122 5 -172 18z" />
    <glyph glyph-name="Tcaron" unicode="&#x164;" horiz-adv-x="1140" 
d="M604 29q0 -35 -33 -35h-26q-33 0 -33 35v1333h-442q-35 0 -35 31v22q0 31 35 31h977q34 0 34 -31v-22q0 -31 -34 -31h-443v-1333zM805 1853q21 0 33 -6t12 -18q0 -13 -16 -29l-218 -205q-24 -24 -47 -24h-26q-25 0 -45 20l-228 217q-8 8 -8 21q0 12 14 18q15 6 35 6
q19 0 49 -24l199 -158l193 156q32 26 53 26z" />
    <glyph glyph-name="tcaron" unicode="&#x165;" horiz-adv-x="645" 
d="M322 356q0 -138 32 -198q24 -47 80 -68q55 -21 170 -27q31 -2 31 -28q0 -13 -2 -33q-1 -20 -35 -20q-116 2 -182 22q-68 21 -115 74q-65 77 -65 287v569h-144q-29 0 -29 29v22q0 29 31 29h142q0 57 6 246q0 36 26 36h27q27 0 27 -34v-248h256q32 0 32 -27v-22
q0 -31 -35 -31h-253v-578zM578 1528h26q33 0 33 -37q0 -220 -133 -344q-17 -17 -31 -17q-11 0 -24 13t-13 22q0 11 10 21q91 102 97 301q0 41 35 41z" />
    <glyph glyph-name="Tbar" unicode="&#x166;" horiz-adv-x="1140" 
d="M616 29q0 -35 -32 -35h-27q-33 0 -33 35v755h-282q-29 0 -29 25v31q0 28 31 28h280v494h-442q-35 0 -35 31v22q0 31 35 31h977q35 0 35 -31v-22q0 -31 -35 -31h-443v-494h289q31 0 31 -28v-31q0 -25 -29 -25h-291v-755z" />
    <glyph glyph-name="tbar" unicode="&#x167;" horiz-adv-x="645" 
d="M322 356q0 -138 32 -198q24 -47 80 -68q55 -21 170 -27q31 -2 31 -28q0 -13 -2 -33q-1 -20 -35 -20q-116 2 -182 22q-68 21 -115 74q-65 77 -65 287v253h-132q-28 0 -28 25v23q0 28 30 28h130v240h-144q-29 0 -29 29v22q0 29 31 29h142q0 57 6 246q0 36 26 36h27
q27 0 27 -34v-248h256q32 0 32 -27v-22q0 -31 -35 -31h-253v-240h200q31 0 31 -28v-23q0 -25 -29 -25h-202v-262z" />
    <glyph glyph-name="Utilde" unicode="&#x168;" horiz-adv-x="1409" 
d="M1198 1419v-841q0 -179 -10 -260q-10 -84 -45 -150q-107 -197 -443 -197q-170 0 -279 48t-165 167q-45 94 -45 387v846q0 35 35 35h26q31 0 31 -35v-897q0 -232 47 -315q86 -148 355 -148q278 0 352 140q49 91 49 313v907q0 35 35 35h26q31 0 31 -35zM440 1593
q-22 0 -32 6q-13 7 -13 21q0 12 13 45q60 135 161 135q47 0 166 -63q89 -49 135 -49q29 0 50 18q19 16 41 72q12 34 34 34q26 0 37 -8q10 -6 10 -18t-6 -35q-30 -89 -69 -123q-40 -35 -99 -35q-56 0 -163 56q-108 57 -146 57q-30 0 -47 -17q-20 -20 -37 -69q-11 -27 -35 -27
z" />
    <glyph glyph-name="utilde" unicode="&#x169;" horiz-adv-x="1155" 
d="M188 322v665q0 33 33 33h21q32 0 32 -33v-659q0 -134 21 -181q39 -94 240 -94q194 0 296 41q26 11 37 31q13 23 13 74v788q0 33 32 33h21q33 0 33 -33v-827q0 -90 -60 -119q-142 -68 -399 -68q-244 0 -295 131q-25 66 -25 218zM326 1247q-22 0 -31 4q-14 6 -14 19t10 39
q60 139 155 139q44 0 158 -64q85 -49 131 -49q28 0 47 17t39 71q12 35 33 35q22 0 33 -4q14 -6 14 -18q0 -11 -8 -35q-29 -89 -66 -123q-38 -35 -94 -35q-51 0 -158 55q-110 58 -137 58q-25 0 -44 -17t-36 -65q-10 -27 -32 -27z" />
    <glyph glyph-name="Umacron" unicode="&#x16a;" horiz-adv-x="1409" 
d="M1198 1419v-841q0 -179 -10 -260q-10 -84 -45 -150q-107 -197 -443 -197q-170 0 -279 48t-165 167q-45 94 -45 387v846q0 35 35 35h26q31 0 31 -35v-897q0 -232 47 -315q86 -148 355 -148q278 0 352 140q49 91 49 313v907q0 35 35 35h26q31 0 31 -35zM969 1642h-508
q-29 0 -29 25v37q0 29 31 29h504q30 0 30 -29v-37q0 -25 -28 -25z" />
    <glyph glyph-name="umacron" unicode="&#x16b;" horiz-adv-x="1155" 
d="M188 322v665q0 33 33 33h21q32 0 32 -33v-659q0 -134 21 -181q39 -94 240 -94q194 0 296 41q26 11 37 31q13 23 13 74v788q0 33 32 33h21q33 0 33 -33v-827q0 -90 -60 -119q-142 -68 -399 -68q-244 0 -295 131q-25 66 -25 218zM819 1268h-467q-28 0 -28 24v37q0 29 30 29
h463q31 0 31 -29v-37q0 -24 -29 -24z" />
    <glyph glyph-name="Ubreve" unicode="&#x16c;" horiz-adv-x="1409" 
d="M1198 1419v-841q0 -179 -10 -260q-10 -84 -45 -150q-107 -197 -443 -197q-170 0 -279 48t-165 167q-45 94 -45 387v846q0 35 35 35h26q31 0 31 -35v-897q0 -232 47 -315q86 -148 355 -148q278 0 352 140q49 91 49 313v907q0 35 35 35h26q31 0 31 -35zM698 1563
q-239 0 -272 204q-4 25 -4 41q0 20 14 27q18 8 37 8q26 0 27 -22q12 -88 55 -130t143 -42q104 0 153 44q47 43 58 128q4 22 25 22q27 0 39 -6q10 -6 10 -20q0 -20 -8 -62q-43 -192 -277 -192z" />
    <glyph glyph-name="ubreve" unicode="&#x16d;" horiz-adv-x="1155" 
d="M188 322v665q0 33 33 33h21q32 0 32 -33v-659q0 -134 21 -181q39 -94 240 -94q194 0 296 41q26 11 37 31q13 23 13 74v788q0 33 32 33h21q33 0 33 -33v-827q0 -90 -60 -119q-142 -68 -399 -68q-244 0 -295 131q-25 66 -25 218zM809 1462q20 0 31 -4q12 -4 12 -22
q0 -19 -8 -62q-43 -200 -264 -200q-232 0 -261 215q-4 25 -4 38q0 19 13 27q18 8 37 8q18 0 22 -20q10 -89 54 -136q43 -46 139 -46q100 0 145 45t57 135q4 22 27 22z" />
    <glyph glyph-name="Uring" unicode="&#x16e;" horiz-adv-x="1409" 
d="M1198 1419v-841q0 -179 -10 -260q-10 -84 -45 -150q-107 -197 -443 -197q-170 0 -279 48t-165 167q-45 94 -45 387v846q0 35 35 35h26q31 0 31 -35v-897q0 -232 47 -315q86 -148 355 -148q278 0 352 140q49 91 49 313v907q0 35 35 35h26q31 0 31 -35zM885 1688
q0 -87 -50 -134t-135 -47q-79 0 -128 47q-48 46 -48 134q0 85 50 135q49 49 133 49q85 0 131 -48q47 -49 47 -136zM821 1690q0 122 -119 122q-54 0 -85 -31t-31 -91q0 -61 31 -93t88 -32t86 32q30 33 30 93z" />
    <glyph glyph-name="uring" unicode="&#x16f;" horiz-adv-x="1155" 
d="M188 322v665q0 33 33 33h21q32 0 32 -33v-659q0 -134 21 -181q39 -94 240 -94q194 0 296 41q26 11 37 31q13 23 13 74v788q0 33 32 33h21q33 0 33 -33v-827q0 -90 -60 -119q-142 -68 -399 -68q-244 0 -295 131q-25 66 -25 218zM772 1372q0 -89 -53 -139q-52 -49 -141 -49
q-86 0 -136 49q-51 49 -51 139t52 142q53 53 141 53t138 -51q50 -52 50 -144zM707 1376q0 64 -34 98q-33 33 -93 33q-58 0 -92 -34q-33 -33 -33 -99q0 -62 34 -97q35 -36 93 -36q56 0 91 36q34 35 34 99z" />
    <glyph glyph-name="Uhungarumlaut" unicode="&#x170;" horiz-adv-x="1409" 
d="M1198 1419v-841q0 -179 -10 -260q-10 -84 -45 -150q-107 -197 -443 -197q-170 0 -279 48t-165 167q-45 94 -45 387v846q0 35 35 35h26q31 0 31 -35v-897q0 -232 47 -315q86 -148 355 -148q278 0 352 140q49 91 49 313v907q0 35 35 35h26q31 0 31 -35zM551 1583
q-28 -22 -55 -22q-19 0 -37 8q-13 8 -13 18q0 13 19 29l285 225q29 23 57 23q20 0 49 -9q16 -6 16 -20q0 -16 -18 -31zM874 1583q-28 -22 -55 -22q-19 0 -37 8q-12 7 -12 18q0 14 18 29l285 225q29 23 57 23q21 0 50 -9q16 -6 16 -20q0 -16 -18 -31z" />
    <glyph glyph-name="uhungarumlaut" unicode="&#x171;" horiz-adv-x="1155" 
d="M188 322v665q0 33 33 33h21q32 0 32 -33v-659q0 -134 21 -181q39 -94 240 -94q194 0 296 41q26 11 37 31q13 23 13 74v788q0 33 32 33h21q33 0 33 -33v-827q0 -90 -60 -119q-142 -68 -399 -68q-244 0 -295 131q-25 66 -25 218zM444 1204q-18 -18 -38 -18q-22 0 -29 6
q-10 4 -10 18q0 10 12 27l207 272q22 25 49 25q28 0 43 -6q16 -6 16 -21q0 -11 -14 -28zM721 1204q-18 -18 -39 -18q-18 0 -29 6q-10 4 -10 18q0 10 12 27l207 272q22 25 49 25t43 -6q17 -6 17 -21q0 -10 -15 -28z" />
    <glyph glyph-name="Uogonek" unicode="&#x172;" horiz-adv-x="1409" 
d="M1198 1419v-841q0 -179 -10 -260q-10 -84 -45 -150q-94 -172 -357 -193q-94 -63 -129 -113q-34 -49 -34 -126q0 -123 133 -123q30 0 61 4t41 4q15 0 21 -14q6 -16 6 -31q0 -20 -21 -27q-42 -14 -123 -14q-99 0 -154 50t-55 147q0 84 36 138q37 55 108 101q-158 4 -263 53
t-157 162q-45 94 -45 387v846q0 35 35 35h26q31 0 31 -35v-897q0 -232 47 -315q86 -148 355 -148q278 0 352 140q49 91 49 313v907q0 35 35 35h26q31 0 31 -35z" />
    <glyph glyph-name="uogonek" unicode="&#x173;" horiz-adv-x="1155" 
d="M188 322v665q0 33 33 33h21q32 0 32 -33v-659q0 -134 21 -181q39 -94 240 -94q194 0 296 41q26 11 37 31q13 23 13 74v788q0 33 32 33h21q33 0 33 -33v-827q0 -80 -60 -119q-207 -125 -207 -291q0 -117 125 -117q25 0 60 3q10 1 19.5 2t14 1.5t5.5 0.5q14 0 16 -13
q6 -21 6 -33q0 -20 -18 -24q-51 -12 -117 -12q-91 0 -144 48t-53 140q0 81 37 137q38 57 107 113q-121 -23 -250 -23q-244 0 -295 131q-25 66 -25 218z" />
    <glyph glyph-name="Wcircumflex" unicode="&#x174;" horiz-adv-x="1896" 
d="M948 1298l-383 -1259q-12 -45 -67 -45h-25q-47 0 -59 47l-338 1335q-8 32 -8 49t16 23q11 4 43 4q27 0 35 -33q281 -1103 332 -1331q70 249 383 1247q18 56 65 56h23q43 0 61 -56q324 -1068 373 -1249q26 116 334 1323q12 43 39 43q19 0 38 -4q19 -5 19 -25
q0 -12 -10 -51l-349 -1329q-15 -49 -63 -49h-25q-48 0 -63 49zM698 1561q-20 0 -32 6q-13 7 -13 18q0 12 17 29l217 205q24 24 47 24h27q25 0 45 -20l227 -217q8 -8 8 -21q0 -12 -14 -18q-15 -6 -35 -6q-19 0 -49 24l-199 158l-192 -156q-32 -26 -54 -26z" />
    <glyph glyph-name="wcircumflex" unicode="&#x175;" horiz-adv-x="1464" 
d="M731 874q-32 -112 -262 -827q-17 -53 -61 -53h-27q-45 0 -62 51l-274 905q-10 29 -10 43q0 24 22 25q19 4 39 4q15 0 21 -8t14 -37q211 -688 264 -899l262 825q21 64 68 64h16q17 0 26 -3q8 -3 21 -17q14 -16 21 -40q236 -688 276 -829l252 893q7 29 16 41q7 10 23 10
q18 0 39 -4q17 -5 17 -21q0 -3 -13 -57l-258 -887q-16 -59 -59 -59h-31q-29 0 -41 13q-13 15 -20 40q-245 714 -279 827zM506 1167q-22 0 -33 4q-12 5 -12 17q0 11 12 26l205 291q16 25 45 25h27q23 0 38 -21l203 -290q15 -18 15 -29q0 -10 -11 -16q-9 -7 -34 -7
q-22 0 -39 23l-191 244l-184 -240q-18 -27 -41 -27z" />
    <glyph glyph-name="Ycircumflex" unicode="&#x176;" horiz-adv-x="1091" 
d="M592 31q0 -37 -33 -37h-27q-32 0 -32 37v614l-465 725q-27 40 -27 57t17 23q7 4 41 4q24 0 47 -35q356 -560 436 -696q55 98 428 686q29 45 57 45q21 0 31 -2q18 -2 18 -20q0 -23 -20 -52l-471 -735v-614zM301 1561q-21 0 -33 6t-12 18q0 13 16 29l217 205q24 24 48 24
h26q25 0 45 -20l228 -217q8 -8 8 -21q0 -12 -15 -18t-34 -6q-20 0 -50 24l-198 158l-193 -156q-32 -26 -53 -26z" />
    <glyph glyph-name="ycircumflex" unicode="&#x177;" horiz-adv-x="1155" 
d="M188 305v682q0 33 33 33h21q32 0 32 -33v-676q0 -115 21 -166q18 -44 66 -67q49 -23 155 -23q200 0 315 62q26 16 37 33q13 23 13 65v772q0 33 32 33h21q33 0 33 -33v-979q0 -145 -35 -248q-82 -239 -574 -239q-38 0 -39 20q-2 16 -2 33q0 29 29 29q248 5 353 48
q106 44 145 132q33 73 33 205v69q-131 -84 -377 -84q-238 0 -287 129q-25 69 -25 203zM365 1167q-22 0 -33 4q-13 5 -13 17q0 10 13 26l205 291q17 25 45 25h26q24 0 39 -21l203 -290q14 -17 14 -29q0 -10 -10 -16q-12 -7 -35 -7q-22 0 -39 23l-190 244l-184 -240
q-18 -27 -41 -27z" />
    <glyph glyph-name="Ydieresis" unicode="&#x178;" horiz-adv-x="1091" 
d="M592 31q0 -37 -33 -37h-27q-32 0 -32 37v614l-465 725q-27 40 -27 57t17 23q7 4 41 4q24 0 47 -35q356 -560 436 -696q55 98 428 686q29 45 57 45q21 0 31 -2q18 -2 18 -20q0 -23 -20 -52l-471 -735v-614zM434 1669q0 -74 -67 -74q-68 0 -68 72q0 74 68 74q67 0 67 -72z
M807 1669q0 -74 -68 -74q-67 0 -67 72q0 74 67 74q68 0 68 -72z" />
    <glyph glyph-name="Zacute" unicode="&#x179;" horiz-adv-x="1202" 
d="M1102 0h-987q-64 0 -64 55q0 29 27 66l913 1241h-829q-39 0 -39 31v20q0 33 39 33h878q66 0 66 -55q0 -33 -27 -66l-917 -1241h940q39 0 39 -31v-22q0 -31 -39 -31zM621 1583q-28 -22 -56 -22q-21 0 -39 8q-12 7 -12 18q0 14 18 29l285 225q29 23 57 23q29 0 58 -9
q16 -6 16 -20q0 -16 -18 -31z" />
    <glyph glyph-name="zacute" unicode="&#x17a;" horiz-adv-x="956" 
d="M850 0h-719q-65 0 -65 59q0 36 43 86q580 686 673 789h-651q-29 0 -29 27v22q0 31 35 31h660q75 0 75 -60q0 -34 -30 -75l-682 -799h688q33 0 33 -29v-26q0 -25 -31 -25zM498 1204q-16 -18 -39 -18q-21 0 -33 6t-12 18q0 10 12 27l221 272q22 25 53 25q30 0 45 -4
q17 -6 17 -23q0 -14 -14 -28z" />
    <glyph glyph-name="Zdotaccent" unicode="&#x17b;" horiz-adv-x="1202" 
d="M1102 0h-987q-64 0 -64 55q0 29 27 66l913 1241h-829q-39 0 -39 31v20q0 33 39 33h878q66 0 66 -55q0 -33 -27 -66l-917 -1241h940q39 0 39 -31v-22q0 -31 -39 -31zM717 1669q0 -74 -68 -74q-67 0 -67 72q0 74 67 74q68 0 68 -72z" />
    <glyph glyph-name="zdotaccent" unicode="&#x17c;" horiz-adv-x="956" 
d="M850 0h-719q-65 0 -65 59q0 36 43 86q580 686 673 789h-651q-29 0 -29 27v22q0 31 35 31h660q75 0 75 -60q0 -34 -30 -75l-682 -799h688q33 0 33 -29v-26q0 -25 -31 -25zM584 1362q0 -74 -68 -74q-67 0 -67 72q0 74 67 74q68 0 68 -72z" />
    <glyph glyph-name="Zcaron" unicode="&#x17d;" horiz-adv-x="1202" 
d="M1102 0h-987q-64 0 -64 55q0 29 27 66l913 1241h-829q-39 0 -39 31v20q0 33 39 33h878q66 0 66 -55q0 -33 -27 -66l-917 -1241h940q39 0 39 -31v-22q0 -31 -39 -31zM866 1853q21 0 33 -6t12 -18q0 -13 -16 -29l-217 -205q-24 -24 -47 -24h-27q-25 0 -45 20l-227 217
q-8 8 -8 21q0 12 14 18q15 6 35 6q19 0 49 -24l199 -158l192 156q32 26 53 26z" />
    <glyph glyph-name="zcaron" unicode="&#x17e;" horiz-adv-x="956" 
d="M850 0h-719q-65 0 -65 59q0 36 43 86q580 686 673 789h-651q-29 0 -29 27v22q0 31 35 31h660q75 0 75 -60q0 -34 -30 -75l-682 -799h688q33 0 33 -29v-26q0 -25 -31 -25zM713 1538q20 0 35 -6q10 -4 10 -14q0 -8 -13 -27l-204 -291q-17 -24 -45 -24h-27q-25 0 -39 20
l-203 291q-14 17 -14 29t10 16q12 6 35 6t39 -22l190 -244l185 239q22 27 41 27z" />
    <glyph glyph-name="longs" unicode="&#x17f;" horiz-adv-x="518" 
d="M289 29q0 -35 -31 -35h-22q-33 0 -33 37v1116q0 197 71 278q96 109 330 113q34 0 35 -20q2 -20 2 -33q0 -27 -31 -29q-118 -6 -188 -28q-65 -21 -98 -78q-35 -61 -35 -201v-1120z" />
    <glyph glyph-name="florin" unicode="&#x192;" horiz-adv-x="911" 
d="M756 819h-244l-59 -696q-11 -129 -31 -189q-21 -61 -66 -106q-76 -76 -219 -76q-65 0 -108 8q-19 2 -19 23t6 43q6 18 27 18q5 0 36 -4t64 -4q124 0 158 64q47 90 57 219l60 700h-178q-35 0 -35 31v20q0 31 35 31h184l14 152q16 193 101 282q69 74 217 74q88 0 131 -12
q18 -6 18 -23q0 -18 -6 -41q-6 -18 -27 -18l-5 1q-5 0 -16 1.5t-23 2.5q-47 5 -74 5q-126 0 -170 -70q-44 -69 -54 -213l-12 -141h238q35 0 35 -31v-20q0 -31 -35 -31z" />
    <glyph glyph-name="Aringacute" unicode="&#x1fa;" horiz-adv-x="1173" 
d="M743 1550q0 -101 -77 -141q2 -3 10 -25l465 -1314q14 -36 14 -50q0 -16 -16 -22q-13 -4 -45 -4q-26 0 -41 45l-164 459h-606l-162 -459q-15 -45 -41 -45q-32 0 -45 4q-17 6 -17 22q0 11 15 50l477 1321l6 14q-86 33 -86 145q0 78 43 121t115 43q74 0 114 -43
q41 -44 41 -121zM311 582h549l-270 784zM682 1554q0 101 -96 101q-94 0 -94 -103q0 -48 26 -75q27 -29 70 -29q42 0 68 29t26 77zM586 1772q-22 -19 -41 -19q-15 0 -29 2q-14 1 -14 14q0 11 12 23l205 188q21 21 51 21q35 0 49 -2q21 -1 21 -17t-17 -28z" />
    <glyph glyph-name="aringacute" unicode="&#x1fb;" horiz-adv-x="1060" 
d="M872 186q0 -56 -16 -94q-15 -34 -47 -51q-119 -68 -354 -68q-195 0 -269 87q-73 86 -73 235q0 166 120 233q103 56 308 56q159 0 245 -13v129q0 120 -16 164q-18 47 -69 73q-50 26 -171 26q-138 0 -247 -31q-54 -17 -62 -17q-15 0 -20 17q-8 30 -8 35q0 19 26 26
q144 49 330 49q195 0 264 -69q36 -36 48 -95q11 -54 11 -165v-527zM786 498q-79 10 -239 10q-200 0 -283 -53q-63 -41 -63 -160q0 -117 55 -179q56 -63 213 -63q170 0 260 37q30 12 45 41q12 29 12 72v295zM727 1372q0 -89 -53 -139q-52 -49 -142 -49q-85 0 -135 49
q-51 49 -51 139t52 142q53 53 141 53q89 0 138 -51q50 -52 50 -144zM662 1376q0 64 -34 98q-33 33 -93 33q-58 0 -92 -34q-33 -33 -33 -99q0 -62 34 -97q35 -36 93 -36q57 0 91 36q34 35 34 99zM541 1655q-17 -19 -39 -19q-21 0 -33 6t-12 19q0 11 12 27l221 272
q22 25 53 25q27 0 45 -5q17 -6 17 -22q0 -15 -14 -29z" />
    <glyph glyph-name="AEacute" unicode="&#x1fc;" horiz-adv-x="1912" 
d="M449 518l-326 -483q-24 -39 -55 -39q-21 0 -37 2q-23 5 -23 22q0 7 25 48l858 1269q41 63 74 86q34 23 84 23h716q35 0 35 -31v-22q0 -31 -35 -31h-667v-565h602q35 0 35 -31v-23q0 -30 -35 -30h-602v-541q0 -88 80 -88h616q35 0 35 -31v-22q0 -31 -35 -31h-608
q-98 0 -139 36t-41 140v342h-557zM504 602h502v750zM1309 1583q-28 -22 -56 -22q-21 0 -39 8q-12 7 -12 18q0 13 19 29l284 225q29 23 58 23q28 0 57 -9q16 -6 16 -20q0 -16 -18 -31z" />
    <glyph glyph-name="aeacute" unicode="&#x1fd;" horiz-adv-x="1710" 
d="M879 117q-147 -144 -412 -144q-196 0 -276 86q-78 84 -78 240q0 152 123 221q83 49 315 55q156 3 235 3v114q0 124 -16 168q-18 49 -71 76t-175 27q-115 0 -237 -31q-10 -1 -25 -6q-10 -3 -24 -7t-17 -4q-15 0 -20 17q-6 24 -6 35q0 19 26 26q157 49 322 49
q151 0 227 -40q75 -40 90 -154q91 194 367 194q98 0 164 -22q64 -21 107 -61q40 -37 63 -102q21 -61 29 -133q7 -64 7 -169q0 -31 -12 -43q-10 -10 -39 -10h-672q0 -258 87 -354q86 -95 274 -95q152 0 262 37q33 10 41 10q15 0 21 -14q10 -16 10 -33q0 -22 -31 -33
q-135 -47 -301 -47q-257 0 -358 144zM786 502q-121 0 -235 -2q-229 -6 -293 -58q-57 -46 -57 -145q0 -118 60 -181t220 -63q100 0 205 33q106 33 156 94q-56 115 -56 322zM874 578h631q2 24 2 47q0 169 -59 253q-60 85 -231 85q-187 0 -263 -99q-76 -98 -80 -286zM899 1204
q-17 -18 -39 -18q-21 0 -33 6t-12 18q0 10 12 27l222 272q22 25 53 25q30 0 45 -4q16 -6 16 -23q0 -14 -14 -28z" />
    <glyph glyph-name="Oslashacute" unicode="&#x1fe;" horiz-adv-x="1406" 
d="M203 -27q-12 -16 -27 -16t-37 18q-14 11 -14 23q0 11 10 25l113 153q-105 174 -105 555q0 224 42 374q42 151 124 228q85 80 179 109q101 31 233 31q275 0 393 -107l90 123q12 18 27 18q11 0 22 -8q29 -18 29 -31q0 -8 -8 -24l-105 -144q111 -167 111 -567
q0 -296 -65 -465t-185 -231q-123 -64 -325 -64q-283 0 -406 133zM1186 731q0 343 -76 488l-756 -1037q100 -123 353 -123q122 0 202 24q82 25 148 92q68 70 98 205q31 141 31 351zM238 733q0 -326 69 -473l752 1028q-96 99 -344 99q-123 0 -205 -27q-81 -27 -146 -96
q-66 -71 -96 -200q-30 -130 -30 -331zM737 1583q-28 -22 -55 -22q-21 0 -39 8q-12 7 -12 18q0 14 18 29l285 225q29 23 57 23q29 0 58 -9q16 -6 16 -20q0 -16 -18 -31z" />
    <glyph glyph-name="oslashacute" unicode="&#x1ff;" horiz-adv-x="1095" 
d="M195 -51q-12 -17 -25 -17t-35 19q-14 11 -14 22t10 25l80 108q-88 121 -88 404q0 162 33 270q34 110 98 164q67 57 140 77q75 21 179 21q190 0 279 -55l78 107q10 16 28 16q12 0 23 -8q23 -15 23 -29q0 -6 -9 -24l-84 -115q97 -115 97 -418q0 -314 -105 -428
q-106 -115 -342 -115q-195 0 -295 74zM920 508q0 255 -62 352l-543 -743q75 -64 248 -64q72 0 125 8q48 7 97 35q48 27 75 75q26 47 43 132q17 87 17 205zM211 516q0 -230 55 -334l535 736q-69 45 -232 45q-91 0 -153 -18t-111 -64t-72 -137q-22 -87 -22 -228zM563 1204
q-17 -18 -39 -18q-20 0 -32 6q-13 6 -13 18q0 9 13 27l221 272q22 25 53 25q30 0 45 -4q16 -6 16 -23q0 -14 -14 -28z" />
    <glyph glyph-name="uni0218" unicode="&#x218;" horiz-adv-x="1134" 
d="M692 731q183 -56 253 -131q73 -78 73 -223q0 -196 -113 -300t-370 -104q-214 0 -388 68q-34 15 -34 33q0 13 10 39q11 24 33 24q11 0 47 -14q153 -62 332 -62q103 0 180 21q76 21 114 50q40 31 62 76q24 50 28 80q5 38 5 81q0 40 -9 80q-7 32 -37 72q-29 40 -97 75
q-68 36 -171 68l-207 63q-134 44 -202 134q-70 93 -70 214q0 196 115 297t364 101q175 0 316 -39q32 -7 32 -33q0 -12 -10 -41q-6 -19 -30 -19q-2 0 -7 1t-16 3.5t-21 4.5q-140 36 -274 36q-218 0 -296 -77q-79 -78 -79 -226q0 -107 57 -173q58 -67 232 -122zM563 -147h27
q33 0 33 -37q0 -219 -134 -344q-17 -17 -30 -17q-12 0 -25 13q-12 12 -12 22q0 11 10 21q90 101 96 301q0 41 35 41z" />
    <glyph glyph-name="uni0219" unicode="&#x219;" horiz-adv-x="860" 
d="M481 453l-168 55q-109 35 -159 94q-52 61 -52 154q0 284 355 284q145 0 245 -24q35 -8 35 -33q0 -9 -8 -35q-6 -18 -22 -18q-13 0 -31 6q-105 27 -219 27q-157 0 -212 -53t-55 -142q0 -73 40 -116q42 -45 165 -85l146 -47q125 -41 182 -96q57 -56 57 -162
q0 -135 -89 -212t-279 -77q-185 0 -297 47q-25 11 -25 29q0 13 8 31q10 22 29 22q4 0 33 -10q102 -39 252 -39q87 0 150 19q60 18 87 51q28 34 35 63q8 32 8 72q0 69 -40 110t-171 85zM432 -147h27q33 0 33 -37q0 -219 -134 -344q-17 -17 -30 -17q-12 0 -25 13
q-12 12 -12 22q0 11 10 21q90 101 96 301q0 41 35 41z" />
    <glyph glyph-name="uni021A" unicode="&#x21a;" horiz-adv-x="1140" 
d="M604 29q0 -35 -33 -35h-26q-33 0 -33 35v1333h-442q-35 0 -35 31v22q0 31 35 31h977q34 0 34 -31v-22q0 -31 -34 -31h-443v-1333zM555 -147h27q32 0 32 -37q0 -220 -133 -344q-17 -17 -30 -17q-12 0 -25 13q-12 12 -12 22q0 11 10 21q90 101 96 301q0 41 35 41z" />
    <glyph glyph-name="uni021B" unicode="&#x21b;" horiz-adv-x="645" 
d="M322 356q0 -138 32 -198q24 -47 80 -68q55 -21 170 -27q31 -2 31 -28q0 -13 -2 -33q-1 -20 -35 -20q-116 2 -182 22q-68 21 -115 74q-65 77 -65 287v569h-144q-29 0 -29 29v22q0 29 31 29h142q0 57 6 246q0 36 26 36h27q27 0 27 -34v-248h256q32 0 32 -27v-22
q0 -31 -35 -31h-253v-578zM371 -147h26q33 0 33 -37q0 -220 -133 -344q-17 -17 -31 -17q-11 0 -24 13t-13 22q0 10 11 21q90 101 96 301q0 41 35 41z" />
    <glyph glyph-name="circumflex" unicode="&#x2c6;" horiz-adv-x="403" 
d="M-25 1167q-21 0 -32 4q-13 5 -13 17q0 10 13 26l204 291q17 25 46 25h26q24 0 39 -21l203 -290q14 -17 14 -29q0 -10 -10 -16q-12 -7 -35 -7q-22 0 -39 23l-190 244l-185 -240q-18 -27 -41 -27z" />
    <glyph glyph-name="caron" unicode="&#x2c7;" horiz-adv-x="403" 
d="M430 1538q20 0 35 -6q10 -4 10 -14q0 -9 -12 -27l-205 -291q-15 -24 -45 -24h-27q-25 0 -39 20l-202 291q-15 18 -15 29t11 16q12 6 34 6q23 0 39 -22l191 -244l184 239q23 27 41 27z" />
    <glyph glyph-name="breve" unicode="&#x2d8;" horiz-adv-x="403" 
d="M432 1462q20 0 31 -4q12 -4 12 -22q0 -19 -8 -62q-43 -200 -264 -200q-231 0 -260 215q-4 25 -4 38q0 19 12 27q18 8 37 8q18 0 22 -20q10 -88 55 -136q43 -46 138 -46q100 0 145 45q46 46 58 135q4 22 26 22z" />
    <glyph glyph-name="dotaccent" unicode="&#x2d9;" horiz-adv-x="403" 
d="M270 1362q0 -74 -67 -74q-68 0 -68 72q0 74 68 74q67 0 67 -72z" />
    <glyph glyph-name="ring" unicode="&#x2da;" horiz-adv-x="403" 
d="M391 1372q0 -89 -53 -139q-52 -49 -141 -49q-86 0 -136 49q-51 49 -51 139t52 142q53 53 141 53q89 0 138 -51q50 -52 50 -144zM326 1376q0 64 -34 98q-33 33 -93 33q-57 0 -91 -34t-34 -99q0 -60 35 -97q34 -36 92 -36q57 0 91 36q34 35 34 99z" />
    <glyph glyph-name="ogonek" unicode="&#x2db;" horiz-adv-x="403" 
d="M344 10q-120 -77 -163 -129q-42 -51 -42 -131q0 -117 125 -117q26 0 60 3q10 1 19 2l13.5 1.5t5.5 0.5q15 0 17 -13q6 -21 6 -33q0 -20 -18 -24q-51 -12 -117 -12q-92 0 -145 48q-52 48 -52 140q0 96 46 149q45 52 149 115h96z" />
    <glyph glyph-name="tilde" unicode="&#x2dc;" horiz-adv-x="403" 
d="M-63 1247q-22 0 -31 4q-15 6 -15 19q0 11 11 39q60 139 155 139q44 0 158 -64q85 -49 131 -49q28 0 47 17t39 71q12 35 33 35q22 0 33 -4q14 -6 14 -18q0 -11 -8 -35q-28 -89 -66 -123q-38 -35 -94 -35q-51 0 -158 55q-110 58 -137 58q-25 0 -44 -17t-36 -65
q-11 -27 -32 -27z" />
    <glyph glyph-name="hungarumlaut" unicode="&#x2dd;" horiz-adv-x="403" 
d="M-23 1204q-18 -18 -38 -18q-21 0 -29 6q-10 4 -10 18q0 10 12 27l207 272q22 25 49 25q28 0 43 -6q16 -6 16 -21q0 -11 -14 -28zM254 1204q-18 -18 -39 -18q-19 0 -29 6q-10 4 -10 18q0 10 12 27l207 272q22 25 49 25q26 0 43 -6t17 -21q0 -10 -15 -28z" />
    <glyph glyph-name="uni0394" unicode="&#x394;" horiz-adv-x="1284" 
d="M1255 55q9 -20 9 -32q0 -23 -27 -23h-1192q-25 0 -25 23q0 3 7 24l555 1313q10 26 41 26h47q27 0 37 -26zM641 1294q-61 -164 -500 -1210h1000q-443 1058 -500 1210z" />
    <glyph glyph-name="uni03A9" unicode="&#x3a9;" horiz-adv-x="1468" 
d="M649 27q0 -27 -28 -27h-443q-28 0 -28 27v26q0 31 28 31h373q-207 84 -296 239t-89 416q0 340 140 505q141 167 444 167q296 0 421 -162q125 -163 125 -495q0 -258 -84 -414t-288 -256h364q29 0 29 -31v-26q0 -27 -29 -27h-442q-29 0 -29 27v59q0 26 23 37
q180 79 270 224q90 144 90 403q0 299 -102 437t-355 138t-367 -141t-114 -439q0 -248 90 -398t275 -224q22 -12 22 -37v-59z" />
    <glyph glyph-name="uni03BC" unicode="&#x3bc;" horiz-adv-x="1218" 
d="M309 -385q0 -33 -33 -33h-22q-33 0 -33 33v1372q0 33 33 33h20q33 0 33 -33v-661q0 -134 21 -181q39 -92 239 -92q195 0 297 41q26 11 37 31q12 21 12 74v788q0 33 33 33h21q32 0 32 -33v-827q0 -91 -59 -119q-142 -68 -399 -68q-182 0 -232 80v-438z" />
    <glyph glyph-name="pi" unicode="&#x3c0;" horiz-adv-x="1187" 
d="M360 27q0 -33 -30 -33h-21q-35 0 -35 35v905h-112q-29 0 -29 29v22q0 29 29 29h932q26 0 26 -29v-22q0 -29 -26 -29h-117v-559q0 -189 31 -307q10 -29 10 -48q0 -16 -17 -22q-15 -4 -36 -4q-17 0 -23 7t-12 26q-39 117 -39 344v563h-531v-907z" />
    <glyph glyph-name="Wgrave" unicode="&#x1e80;" horiz-adv-x="1896" 
d="M948 1298l-383 -1259q-12 -45 -67 -45h-25q-47 0 -59 47l-338 1335q-8 32 -8 49t16 23q11 4 43 4q27 0 35 -33q281 -1103 332 -1331q70 249 383 1247q18 56 65 56h23q43 0 61 -56q324 -1068 373 -1249q26 116 334 1323q12 43 39 43q19 0 38 -4q19 -5 19 -25
q0 -12 -10 -51l-349 -1329q-15 -49 -63 -49h-25q-48 0 -63 49zM942 1583l-309 221q-19 16 -19 31q0 14 17 20q29 9 57 9t57 -23l285 -225q19 -16 19 -29q0 -10 -13 -18q-18 -8 -39 -8q-27 0 -55 22z" />
    <glyph glyph-name="wgrave" unicode="&#x1e81;" horiz-adv-x="1464" 
d="M731 874q-32 -112 -262 -827q-17 -53 -61 -53h-27q-45 0 -62 51l-274 905q-10 29 -10 43q0 24 22 25q19 4 39 4q15 0 21 -8t14 -37q211 -688 264 -899l262 825q21 64 68 64h16q17 0 26 -3q8 -3 21 -17q14 -16 21 -40q236 -688 276 -829l252 893q7 29 16 41q7 10 23 10
q18 0 39 -4q17 -5 17 -21q0 -3 -13 -57l-258 -887q-16 -59 -59 -59h-31q-29 0 -41 13q-13 15 -20 40q-245 714 -279 827zM737 1204l-250 275q-14 14 -14 24q0 19 16 25q12 6 46 6q31 0 53 -25l221 -272q12 -17 12 -27q0 -12 -10 -18q-12 -6 -35 -6q-22 0 -39 18z" />
    <glyph glyph-name="Wacute" unicode="&#x1e82;" horiz-adv-x="1896" 
d="M948 1298l-383 -1259q-12 -45 -67 -45h-25q-47 0 -59 47l-338 1335q-8 32 -8 49t16 23q11 4 43 4q27 0 35 -33q281 -1103 332 -1331q70 249 383 1247q18 56 65 56h23q43 0 61 -56q324 -1068 373 -1249q26 116 334 1323q12 43 39 43q19 0 38 -4q19 -5 19 -25
q0 -12 -10 -51l-349 -1329q-15 -49 -63 -49h-25q-48 0 -63 49zM952 1583q-28 -22 -55 -22q-21 0 -39 8q-12 7 -12 18q0 14 18 29l285 225q29 23 57 23q29 0 58 -9q16 -6 16 -20q0 -16 -18 -31z" />
    <glyph glyph-name="wacute" unicode="&#x1e83;" horiz-adv-x="1464" 
d="M731 874q-32 -112 -262 -827q-17 -53 -61 -53h-27q-45 0 -62 51l-274 905q-10 29 -10 43q0 24 22 25q19 4 39 4q15 0 21 -8t14 -37q211 -688 264 -899l262 825q21 64 68 64h16q17 0 26 -3q8 -3 21 -17q14 -16 21 -40q236 -688 276 -829l252 893q7 29 16 41q7 10 23 10
q18 0 39 -4q17 -5 17 -21q0 -3 -13 -57l-258 -887q-16 -59 -59 -59h-31q-29 0 -41 13q-13 15 -20 40q-245 714 -279 827zM717 1204q-17 -18 -39 -18q-21 0 -33 6t-12 18q0 10 12 27l221 272q22 25 54 25q30 0 45 -4q16 -6 16 -23q0 -14 -14 -28z" />
    <glyph glyph-name="Wdieresis" unicode="&#x1e84;" horiz-adv-x="1896" 
d="M948 1298l-383 -1259q-12 -45 -67 -45h-25q-47 0 -59 47l-338 1335q-8 32 -8 49t16 23q11 4 43 4q27 0 35 -33q281 -1103 332 -1331q70 249 383 1247q18 56 65 56h23q43 0 61 -56q324 -1068 373 -1249q26 116 334 1323q12 43 39 43q19 0 38 -4q19 -5 19 -25
q0 -12 -10 -51l-349 -1329q-15 -49 -63 -49h-25q-48 0 -63 49zM827 1669q0 -74 -67 -74q-68 0 -68 72q0 74 68 74q67 0 67 -72zM1200 1669q0 -74 -67 -74q-68 0 -68 72q0 74 68 74q67 0 67 -72z" />
    <glyph glyph-name="wdieresis" unicode="&#x1e85;" horiz-adv-x="1464" 
d="M731 874q-32 -112 -262 -827q-17 -53 -61 -53h-27q-45 0 -62 51l-274 905q-10 29 -10 43q0 24 22 25q19 4 39 4q15 0 21 -8t14 -37q211 -688 264 -899l262 825q21 64 68 64h16q17 0 26 -3q8 -3 21 -17q14 -16 21 -40q236 -688 276 -829l252 893q7 29 16 41q7 10 23 10
q18 0 39 -4q17 -5 17 -21q0 -3 -13 -57l-258 -887q-16 -59 -59 -59h-31q-29 0 -41 13q-13 15 -20 40q-245 714 -279 827zM623 1362q0 -74 -68 -74t-68 72q0 74 68 74t68 -72zM975 1362q0 -74 -68 -74q-67 0 -67 72q0 74 67 74q68 0 68 -72z" />
    <glyph glyph-name="Ygrave" unicode="&#x1ef2;" horiz-adv-x="1091" 
d="M592 31q0 -37 -33 -37h-27q-32 0 -32 37v614l-465 725q-27 40 -27 57t17 23q7 4 41 4q24 0 47 -35q356 -560 436 -696q55 98 428 686q29 45 57 45q21 0 31 -2q18 -2 18 -20q0 -23 -20 -52l-471 -735v-614zM559 1583l-309 221q-19 16 -19 31q0 14 17 20q29 9 57 9t57 -23
l285 -225q19 -16 19 -29q0 -10 -13 -18q-18 -8 -39 -8q-27 0 -55 22z" />
    <glyph glyph-name="ygrave" unicode="&#x1ef3;" horiz-adv-x="1155" 
d="M188 305v682q0 33 33 33h21q32 0 32 -33v-676q0 -115 21 -166q18 -44 66 -67q49 -23 155 -23q200 0 315 62q26 16 37 33q13 23 13 65v772q0 33 32 33h21q33 0 33 -33v-979q0 -145 -35 -248q-82 -239 -574 -239q-38 0 -39 20q-2 16 -2 33q0 29 29 29q248 5 353 48
q106 44 145 132q33 73 33 205v69q-131 -84 -377 -84q-238 0 -287 129q-25 69 -25 203zM606 1204l-250 275q-14 14 -14 24q0 19 16 25q12 6 45 6q32 0 54 -25l221 -272q12 -17 12 -27q0 -12 -10 -18q-12 -6 -35 -6t-39 18z" />
    <glyph glyph-name="endash" unicode="&#x2013;" horiz-adv-x="1103" 
d="M1001 504h-899q-28 0 -28 24v33q0 29 30 29h895q31 0 31 -29v-33q0 -24 -29 -24z" />
    <glyph glyph-name="emdash" unicode="&#x2014;" horiz-adv-x="1697" 
d="M1595 504h-1493q-28 0 -28 24v33q0 29 30 29h1489q31 0 31 -29v-33q0 -24 -29 -24z" />
    <glyph glyph-name="quoteleft" unicode="&#x2018;" horiz-adv-x="339" 
d="M135 1065h-22q-35 0 -35 33q0 271 151 415q24 19 33 19q13 0 27 -14t14 -25q0 -13 -12 -25q-114 -120 -121 -358q0 -45 -35 -45z" />
    <glyph glyph-name="quoteright" unicode="&#x2019;" horiz-adv-x="339" 
d="M209 1532h22q35 0 35 -33q0 -272 -151 -416q-23 -18 -33 -18q-13 0 -27 14t-14 25q0 12 12 24q114 120 121 359q0 45 35 45z" />
    <glyph glyph-name="quotesinglbase" unicode="&#x201a;" horiz-adv-x="342" 
d="M209 160h22q35 0 35 -33q0 -272 -151 -416q-23 -18 -33 -18q-13 0 -27 14t-14 25q0 12 12 24q114 120 121 359q0 45 35 45z" />
    <glyph glyph-name="quotedblleft" unicode="&#x201c;" horiz-adv-x="630" 
d="M135 1065h-22q-35 0 -35 33q0 271 151 415q24 19 33 19q13 0 27 -14t14 -25q0 -13 -12 -25q-114 -120 -121 -358q0 -45 -35 -45zM422 1065h-23q-34 0 -34 33q0 271 151 415q24 19 33 19q12 0 26 -14q15 -15 15 -25q0 -13 -12 -25q-114 -120 -121 -358q0 -45 -35 -45z" />
    <glyph glyph-name="quotedblright" unicode="&#x201d;" horiz-adv-x="630" 
d="M496 1532h22q35 0 35 -33q0 -272 -152 -416q-23 -18 -32 -18q-13 0 -27 14t-14 25q0 12 12 24q114 120 121 359q0 45 35 45zM209 1532h22q35 0 35 -33q0 -272 -151 -416q-23 -18 -33 -18q-13 0 -27 14t-14 25q0 12 12 24q114 120 121 359q0 45 35 45z" />
    <glyph glyph-name="quotedblbase" unicode="&#x201e;" horiz-adv-x="630" 
d="M496 160h22q35 0 35 -33q0 -272 -152 -416q-23 -18 -32 -18q-13 0 -27 14t-14 25q0 12 12 24q114 120 121 359q0 45 35 45zM209 160h22q35 0 35 -33q0 -272 -151 -416q-23 -18 -33 -18q-13 0 -27 14t-14 25q0 12 12 24q114 120 121 359q0 45 35 45z" />
    <glyph glyph-name="dagger" unicode="&#x2020;" horiz-adv-x="946" 
d="M518 -141q0 -35 -33 -35h-24q-33 0 -33 35v1073h-326q-28 0 -28 24v29q0 29 30 29h324v418q0 34 35 34h24q31 0 31 -34v-418h324q30 0 30 -29v-29q0 -24 -28 -24h-326v-1073z" />
    <glyph glyph-name="daggerdbl" unicode="&#x2021;" horiz-adv-x="946" 
d="M518 -141q0 -35 -33 -35h-24q-33 0 -33 35v438h-326q-28 0 -28 25v28q0 29 30 29h324v553h-326q-28 0 -28 24v29q0 29 30 29h324v418q0 34 35 34h24q31 0 31 -34v-418h324q30 0 30 -29v-29q0 -24 -28 -24h-326v-553h324q30 0 30 -29v-28q0 -25 -28 -25h-326v-438z" />
    <glyph glyph-name="bullet" unicode="&#x2022;" horiz-adv-x="671" 
d="M561 547q0 -236 -225 -236t-225 234q0 233 225 233q108 0 167 -53q58 -52 58 -178z" />
    <glyph glyph-name="ellipsis" unicode="&#x2026;" horiz-adv-x="1820" 
d="M416 59q0 -75 -76 -75t-76 75q0 76 76 76t76 -76zM987 59q0 -75 -76 -75q-75 0 -75 75q0 76 75 76q76 0 76 -76zM1559 59q0 -75 -76 -75t-76 75q0 76 76 76t76 -76z" />
    <glyph glyph-name="perthousand" unicode="&#x2030;" horiz-adv-x="2457" 
d="M686 971q0 -259 -69 -353t-234 -94q-158 0 -227 92q-70 93 -70 345q0 257 79 348q80 92 230 92q163 0 227 -85t64 -345zM606 971q0 213 -47 286q-47 72 -168 72q-117 0 -171 -77q-54 -76 -54 -289q0 -221 50 -294t167 -73q82 0 127 27q46 28 71 108q25 81 25 240z
M1628 430q0 -259 -68 -352q-69 -94 -235 -94q-158 0 -227 92q-70 93 -70 344q0 257 79 348q80 92 230 92q163 0 227 -85t64 -345zM1548 430q0 214 -47 287q-46 71 -168 71q-117 0 -171 -76t-54 -290q0 -221 50 -294t167 -73q82 0 127 27q46 28 71 108q25 81 25 240zM551 -33
q-17 -33 -43 -33t-33 5q-8 6 -8 16q0 15 16 47l678 1409q23 45 47 45q21 0 31 -2q14 -1 14 -18t-20 -56zM2374 430q0 -258 -69 -352t-234 -94q-159 0 -228 92q-69 91 -69 344q0 258 78 348q80 92 231 92q162 0 226 -85q65 -86 65 -345zM2294 430q0 214 -47 287
q-46 71 -168 71q-117 0 -171 -76q-55 -78 -55 -290q0 -220 51 -294q50 -73 167 -73q81 0 126 27q46 28 71 108q26 84 26 240z" />
    <glyph glyph-name="guilsinglleft" unicode="&#x2039;" horiz-adv-x="565" 
d="M176 541l277 -340q20 -26 20 -41q0 -13 -12 -19t-37 -6q-22 0 -51 35l-260 322q-27 30 -27 49q0 15 16 37l267 327q1 1 11 15q8 11 10 13q5 5 9 8q5 4 12 6q3 1 11 1q28 0 43 -6q12 -6 12 -16q0 -13 -24 -43z" />
    <glyph glyph-name="guilsinglright" unicode="&#x203a;" horiz-adv-x="565" 
d="M387 543l-276 340q-21 27 -21 41q0 12 12 18t37 6q22 0 51 -35l261 -321q26 -29 26 -49q0 -15 -16 -37l-266 -328q-7 -7 -12 -14q-7 -10 -10 -13l-2.5 -2.5t-3 -3.5t-3.5 -3q-6 -4 -11 -6q-3 -1 -12 -1q-26 0 -43 6q-12 6 -12 17q0 12 25 43z" />
    <glyph glyph-name="fraction" unicode="&#x2044;" horiz-adv-x="172" 
d="M-223 -33q-17 -33 -43 -33t-33 5q-8 6 -8 16q0 15 16 47l678 1409q23 45 47 45q21 0 31 -2q14 -1 14 -18t-20 -56z" />
    <glyph glyph-name="zero.superior" unicode="&#x2070;" 
d="M686 1290q0 -258 -69 -352t-234 -94q-158 0 -227 92q-70 93 -70 344q0 257 79 348q80 92 230 92q163 0 227 -85t64 -345zM606 1290q0 214 -47 287q-47 72 -168 72q-117 0 -171 -77q-54 -76 -54 -290q0 -221 50 -294t167 -73q82 0 127 27q46 27 71 109q25 81 25 239z" />
    <glyph glyph-name="four.superior" unicode="&#x2074;" 
d="M563 881q0 -25 -24 -25h-31q-23 0 -23 25v206h-374q-43 0 -43 37q0 24 20 60l258 491q12 31 33 31q5 0 27 -2h14q10 -1 10 -16q0 -14 -10 -31l-262 -498h327v225q0 25 23 25h31q24 0 24 -25v-225h125q25 0 25 -22v-29q0 -21 -25 -21h-125v-206z" />
    <glyph glyph-name="five.superior" unicode="&#x2075;" 
d="M209 1364q66 12 160 12q147 0 209 -57q61 -57 61 -199q0 -276 -311 -276q-125 0 -195 20q-31 11 -31 25q0 8 11 39q4 14 20 14q2 0 12 -2l20 -5q3 -1 9.5 -2.5t9.5 -2.5q66 -15 150 -15q223 0 223 203q0 111 -50 149t-159 38q-35 0 -99 -8q-56 -7 -69 -7q-41 0 -41 41
q0 1 2 51l15 291q0 31 28 31h383q25 0 25 -21v-30q0 -21 -25 -21h-344z" />
    <glyph glyph-name="six.superior" unicode="&#x2076;" 
d="M172 1300q24 38 90 63q67 26 152 26q132 0 194 -63q62 -64 62 -204q0 -280 -289 -280q-137 0 -212 88t-75 295q0 125 12 205q11 76 49 151q36 71 108 106q69 33 188 33q93 0 149 -18q12 -2 12 -19q0 -12 -8 -38q0 -11 -14 -11q-16 0 -31 4q-58 11 -104 11q-72 0 -123 -17
q-50 -16 -78 -39q-28 -22 -46 -73t-24 -95q-6 -45 -12 -125zM174 1186q0 -55 4 -80q23 -191 209 -191q203 0 203 211q0 191 -184 191q-166 0 -218 -76q-14 -17 -14 -55z" />
    <glyph glyph-name="seven.superior" unicode="&#x2077;" 
d="M557 1634h-455q-24 0 -24 21v28q0 21 24 21h490q51 0 51 -39q0 -24 -16 -66l-293 -712q-11 -31 -33 -31q-18 0 -39 4q-14 7 -14 19q0 16 10 36z" />
    <glyph glyph-name="eight.superior" unicode="&#x2078;" 
d="M485 1305q174 -27 174 -215q0 -246 -288 -246q-150 0 -220 58q-71 59 -71 185q0 175 172 218q-141 37 -141 198q0 217 266 217q134 0 196 -50t62 -165q0 -157 -150 -200zM555 1497q0 76 -41 114t-143 38q-103 0 -143 -39t-40 -117q0 -82 53 -120t130 -38q70 0 128 38
q56 37 56 124zM578 1092q0 174 -207 174q-211 0 -211 -172q0 -106 55 -143q56 -38 156 -38q207 0 207 179z" />
    <glyph glyph-name="nine.superior" unicode="&#x2079;" 
d="M571 1255q-65 -75 -237 -75q-131 0 -193 62q-63 63 -63 200q0 134 74 206t221 72q137 0 208 -84q70 -83 70 -297q0 -122 -12 -203q-12 -79 -47 -153q-33 -69 -108 -105q-71 -34 -187 -34q-111 0 -166 18q-12 4 -12 21q0 7 8 39q5 12 14 12q16 0 31 -4q72 -15 125 -15
q70 0 122 19q48 18 77 43q26 23 43 76q17 51 21 90q6 55 11 112zM569 1370q0 71 -4 96q-12 84 -55 133q-44 50 -143 50q-211 0 -211 -211q0 -93 41 -140t145 -47q75 0 134 21q58 21 79 43q14 14 14 55z" />
    <glyph glyph-name="parenleft.superior" unicode="&#x207d;" horiz-adv-x="411" 
d="M166 1251q0 -121 18 -211q17 -87 58 -154q42 -69 68 -98q17 -19 83 -81q8 -8 8 -17q0 -6 -8 -14q-11 -8 -18 -8q-9 0 -29 10q-264 163 -264 571q0 401 260 557q23 13 29 13t22 -11q8 -8 8 -16t-8 -14q-109 -83 -168 -203q-59 -119 -59 -324z" />
    <glyph glyph-name="parenright.superior" unicode="&#x207e;" horiz-adv-x="411" 
d="M246 1235q0 116 -19 211q-18 91 -57 155q-38 63 -69 97q-24 26 -83 82q-8 8 -8 16q0 6 8 14q13 9 19 9q7 0 29 -11q264 -164 264 -571q0 -401 -260 -557q-21 -12 -29 -12q-9 0 -23 10q-8 8 -8 16q0 9 8 15q110 84 168 202q60 121 60 324z" />
    <glyph glyph-name="n.superior" unicode="&#x207f;" horiz-adv-x="749" 
d="M199 561q0 -24 -25 -24h-31q-22 0 -22 24v490q0 50 39 71q111 54 280 54q148 0 176 -76q13 -36 13 -123v-416q0 -24 -23 -24h-31q-22 0 -22 24v406q0 64 -10 90q-18 49 -123 49q-125 0 -191 -33q-17 -6 -24 -18q-6 -11 -6 -37v-457z" />
    <glyph glyph-name="zero.inferior" unicode="&#x2080;" 
d="M686 172q0 -257 -69 -352q-69 -94 -234 -94q-158 0 -227 92q-70 93 -70 344q0 257 79 348q80 92 230 92q163 0 227 -85t64 -345zM606 172q0 214 -47 287q-46 71 -168 71q-117 0 -171 -76t-54 -290q0 -221 50 -294t167 -73q82 0 127 27q46 28 71 108q25 81 25 240z" />
    <glyph glyph-name="one.inferior" unicode="&#x2081;" 
d="M561 -258h-340q-22 0 -22 20v31q0 21 22 21h144v686l-136 -51l-1 -1q-2 0 -4 -1l-4 -2t-4.5 -1.5t-4.5 -1.5t-3 -1q-3 -1 -9 -1q-10 0 -15 11q-12 30 -12 38q0 13 16 19l162 65q31 13 49 13h9q36 0 36 -43v-729h115q25 0 25 -21v-33q0 -18 -23 -18z" />
    <glyph glyph-name="two.inferior" unicode="&#x2082;" 
d="M623 -258h-498q-29 0 -39 11t-10 36q0 35 33 59q200 154 337 291q109 109 109 209q0 86 -45 134t-158 48q-81 0 -155 -26q-37 -12 -43 -12q-13 0 -19 12q-8 24 -8 35q0 15 31 26q99 37 207 37q149 0 209 -64q61 -66 61 -180q0 -135 -117 -252q-121 -119 -350 -294
q102 2 455 2q24 0 24 -21v-29q0 -22 -24 -22z" />
    <glyph glyph-name="three.inferior" unicode="&#x2083;" 
d="M434 188q83 -7 136 -59q53 -51 53 -147q0 -133 -74 -195q-73 -61 -230 -61q-122 0 -188 20q-33 11 -33 29q0 12 11 37q6 12 18 12q2 0 10 -2q1 0 6.5 -1.5t8.5 -2.5l16 -4q63 -17 151 -17q138 0 181 49t43 131q0 87 -51 128t-195 42q-37 0 -37 35q0 37 39 37
q125 2 172 44t47 114q0 90 -41 122q-40 31 -151 31q-77 0 -136 -20q-41 -14 -47 -14q-12 0 -18 14q-8 19 -8 29q0 18 28 28q93 35 195 35q148 0 203 -52t55 -169q0 -75 -46 -124q-48 -52 -118 -69z" />
    <glyph glyph-name="four.inferior" unicode="&#x2084;" 
d="M563 -238q0 -24 -24 -24h-31q-23 0 -23 24v207h-374q-43 0 -43 37q0 24 20 60l258 491q12 31 33 31q5 0 27 -2h14q10 -1 10 -17q0 -13 -10 -30l-262 -498h327v225q0 25 23 25h31q24 0 24 -25v-225h125q25 0 25 -23v-28q0 -21 -25 -21h-125v-207z" />
    <glyph glyph-name="five.inferior" unicode="&#x2085;" 
d="M209 246q66 12 160 12q147 0 209 -57q61 -57 61 -199q0 -276 -311 -276q-125 0 -195 20q-31 11 -31 25q0 8 11 39q4 14 20 14q2 0 12 -2l20 -5q3 -1 9.5 -2.5t9.5 -2.5q66 -15 150 -15q223 0 223 203q0 110 -50 148t-159 38q-43 0 -99 -7t-69 -7q-41 0 -41 41q0 1 2 51
l15 291q0 31 28 31h383q25 0 25 -21v-30q0 -21 -25 -21h-344z" />
    <glyph glyph-name="six.inferior" unicode="&#x2086;" 
d="M172 182q24 38 90 63q65 25 152 25q133 0 194 -62q62 -64 62 -204q0 -280 -289 -280q-137 0 -212 88t-75 294q0 125 12 205q12 77 49 152q35 70 108 105q71 34 188 34q93 0 149 -18q12 -2 12 -19q0 -13 -8 -39q0 -10 -14 -10q-16 0 -31 4q-53 10 -104 10q-75 0 -123 -16
q-50 -16 -78 -39q-28 -22 -46 -74q-18 -51 -24 -94q-6 -45 -12 -125zM174 68q0 -55 4 -80q23 -191 209 -191q203 0 203 211q0 191 -184 191q-166 0 -218 -76q-14 -17 -14 -55z" />
    <glyph glyph-name="seven.inferior" unicode="&#x2087;" 
d="M557 516h-455q-24 0 -24 21v28q0 21 24 21h490q51 0 51 -39q0 -24 -16 -66l-293 -712q-11 -31 -33 -31q-18 0 -39 4q-14 7 -14 18q0 17 10 37z" />
    <glyph glyph-name="eight.inferior" unicode="&#x2088;" 
d="M485 186q174 -27 174 -215q0 -245 -288 -245q-150 0 -220 58q-71 59 -71 185q0 174 172 217q-141 38 -141 199q0 217 266 217q134 0 196 -50t62 -165q0 -157 -150 -201zM555 379q0 76 -41 114q-40 37 -143 37q-104 0 -143 -38q-40 -39 -40 -117q0 -82 53 -120t130 -38
q70 0 128 38q56 37 56 124zM578 -27q0 174 -207 174q-211 0 -211 -172q0 -105 55 -142q56 -38 156 -38q207 0 207 178z" />
    <glyph glyph-name="nine.inferior" unicode="&#x2089;" 
d="M571 137q-66 -76 -237 -76q-130 0 -193 63t-63 200q0 133 74 205q75 73 221 73q137 0 208 -84q70 -83 70 -297q0 -123 -12 -204q-12 -78 -47 -152q-34 -70 -108 -106q-69 -33 -187 -33q-111 0 -166 18q-12 4 -12 20q0 7 8 39q5 13 14 13q16 0 31 -4q72 -15 125 -15
q70 0 122 19q48 18 77 43q26 23 43 75q16 50 21 91q6 55 11 112zM569 252q0 71 -4 96q-12 84 -55 133t-143 49q-211 0 -211 -211q0 -92 41 -139t145 -47q75 0 134 21q58 21 79 43q14 14 14 55z" />
    <glyph glyph-name="parenleft.inferior" unicode="&#x208d;" horiz-adv-x="411" 
d="M166 133q0 -121 18 -211q17 -87 58 -154q42 -69 68 -98q24 -26 83 -82q8 -8 8 -16q0 -6 -8 -14q-13 -9 -18 -9q-7 0 -29 11q-264 164 -264 571q0 401 260 557q21 12 29 12t22 -10q8 -8 8 -16q0 -9 -8 -15q-110 -84 -168 -202q-59 -119 -59 -324z" />
    <glyph glyph-name="parenright.inferior" unicode="&#x208e;" horiz-adv-x="411" 
d="M246 117q0 116 -19 211q-18 89 -57 154q-40 66 -69 98q-24 26 -83 82q-8 8 -8 16q0 6 8 14q11 8 19 8q9 0 29 -10q264 -164 264 -571q0 -401 -260 -557q-23 -13 -29 -13q-7 0 -23 11q-8 8 -8 16t8 14q109 83 168 203q60 121 60 324z" />
    <glyph glyph-name="Euro" unicode="&#x20ac;" horiz-adv-x="1236" 
d="M895 795h-489v-95v-98h489q35 0 35 -31v-12q0 -31 -35 -31h-485q5 -84 16 -143q12 -64 39 -128q27 -65 69 -105q43 -41 111 -68q69 -27 160 -27q166 0 278 31q48 14 62 14q16 0 26 -22q7 -18 7 -25q0 -25 -41 -37q-150 -43 -320 -43q-235 0 -356 124q-121 125 -144 429
h-147q-35 0 -35 31v12q0 31 35 31h143v70q0 71 2 123h-145q-35 0 -35 30v13q0 30 35 30h149q24 286 149 414q124 127 402 127q134 0 242 -18q39 -6 39 -33q0 -13 -8 -39q-6 -14 -27 -14q-5 0 -69 10t-222 10q-115 0 -198 -36t-126 -103q-44 -68 -65 -143q-20 -71 -26 -175
h485q35 0 35 -30v-13q0 -30 -35 -30z" />
    <glyph glyph-name="afii61289" unicode="&#x2113;" horiz-adv-x="870" 
d="M289 444q5 -188 69 -286q66 -101 185 -101q133 0 239 82q21 15 31 15q14 0 25 -13q18 -24 18 -32q0 -13 -10 -23q-130 -113 -320 -113q-138 0 -223 108q-85 107 -100 296q-64 -48 -101 -70q-18 -8 -26 -8q-12 0 -29 23q-10 14 -10 24q0 18 14 25q112 75 142 98
q-11 159 -11 272q0 296 41 428q40 128 114 185q71 55 185 55q234 0 234 -264q0 -179 -129 -363q-38 -54 -91 -110q-56 -59 -99 -98q-45 -40 -148 -130zM279 543q199 175 278 288q107 151 107 310q0 100 -39 142t-113 42q-127 0 -184 -127q-56 -126 -56 -438q0 -47 7 -217z
" />
    <glyph glyph-name="trademark" unicode="&#x2122;" horiz-adv-x="1591" 
d="M399 768q0 -25 -20 -25h-35q-18 0 -18 25v614h-209q-25 0 -25 21v20q0 23 25 23h487q29 0 29 -21v-22q0 -21 -29 -21h-205v-614zM846 768q0 -25 -19 -25h-34q-19 0 -19 29v625q0 53 47 53h21q37 -1 49 -35q165 -356 199 -436q30 74 190 434q16 37 55 37h19q45 0 45 -55
v-625q0 -27 -21 -27h-32q-19 0 -19 27q0 444 2 608q-56 -137 -199 -452q-12 -25 -38 -25h-13q-27 0 -39 27q-152 332 -198 450q4 -115 4 -610z" />
    <glyph glyph-name="Omega" unicode="&#x2126;" horiz-adv-x="1468" 
d="M649 27q0 -27 -28 -27h-443q-28 0 -28 27v26q0 31 28 31h373q-207 84 -296 239t-89 416q0 340 140 505q141 167 444 167q296 0 421 -162q125 -163 125 -495q0 -258 -84 -414t-288 -256h364q29 0 29 -31v-26q0 -27 -29 -27h-442q-29 0 -29 27v59q0 26 23 37
q180 79 270 224q90 144 90 403q0 299 -102 437t-355 138t-367 -141t-114 -439q0 -248 90 -398t275 -224q22 -12 22 -37v-59z" />
    <glyph glyph-name="estimated" unicode="&#x212e;" horiz-adv-x="1730" 
d="M1645 688h-1262q-12 0 -12 -8v-399q0 -22 20 -45q195 -218 477 -218q302 0 500 242h117q-112 -132 -273 -208q-163 -77 -346 -77q-323 0 -552 215q-228 214 -228 519q0 302 228 517q227 214 552 214q324 0 551 -214q228 -215 228 -517v-21zM1362 741v400q0 26 -23 49
q-201 207 -471 207q-277 0 -475 -215q-22 -18 -22 -49v-392q0 -10 12 -10h967q12 0 12 10z" />
    <glyph glyph-name="onethird" unicode="&#x2153;" horiz-adv-x="1712" 
d="M1370 446q83 -7 136 -59q53 -51 53 -147q0 -133 -74 -195q-73 -61 -230 -61q-122 0 -188 20q-33 11 -33 29q0 14 10 37q6 12 19 12q2 0 10 -2l16 -4q3 0 5.5 -1t5.5 -2t4 -1q63 -17 151 -17q138 0 181 49t43 132q0 87 -52 128q-51 41 -194 42q-37 0 -37 34q0 37 39 37
q125 2 172 44t47 114q0 90 -41 122q-40 31 -151 31q-77 0 -136 -20q-41 -14 -47 -14q-11 0 -18 14q-8 19 -8 29q0 18 28 28q93 35 195 35q148 0 203 -52t55 -169q0 -75 -46 -124q-48 -52 -118 -69zM508 -33q-16 -33 -43 -33q-26 0 -33 5q-8 6 -8 16q0 15 16 47l678 1409
q22 45 47 45q21 0 31 -2q14 -1 14 -18t-20 -56zM557 541h-340q-22 0 -22 20v31q0 20 22 20h143v686l-135 -51q-1 0 -9 -3q-2 -1 -4.5 -1.5t-4.5 -1.5t-3 -1q-3 -1 -9 -1q-11 0 -15 10q-12 30 -12 39q0 13 16 19l162 65q29 12 49 12h8q37 0 37 -43v-729h115q25 0 25 -20v-33
q0 -18 -23 -18z" />
    <glyph glyph-name="twothirds" unicode="&#x2154;" horiz-adv-x="1712" 
d="M602 -33q-16 -33 -43 -33q-26 0 -33 5q-8 6 -8 16q0 13 17 47l677 1409q22 45 48 45q20 0 30 -2q15 -2 15 -18t-21 -56zM668 541h-498q-29 0 -39 11t-10 36q0 35 33 59q205 158 338 291q108 108 108 209q0 86 -45 134t-158 48q-81 0 -155 -26q-41 -13 -43 -13
q-13 0 -19 13q-8 24 -8 34q0 16 31 27q99 37 207 37q150 0 210 -65q60 -64 60 -179q0 -135 -117 -252q-125 -124 -350 -295q102 2 455 2q24 0 24 -20v-29q0 -22 -24 -22zM1438 446q83 -7 136 -59q52 -51 52 -147q0 -133 -74 -195q-73 -61 -229 -61q-122 0 -188 20
q-33 11 -33 29q0 14 10 37q6 12 18 12q3 0 11 -2q1 0 6 -1.5t9 -2.5t9 -2.5t6 -1.5q63 -17 152 -17q137 0 180 49t43 132q0 88 -51 128t-195 42q-36 0 -36 34q0 37 39 37q125 2 172 44t47 114q0 90 -41 122q-40 31 -152 31q-76 0 -135 -20q-41 -14 -47 -14q-13 0 -19 14
q-8 19 -8 29q0 17 29 28q93 35 194 35q148 0 203 -52q56 -53 56 -169q0 -74 -47 -124q-49 -52 -117 -69z" />
    <glyph glyph-name="oneeighth" unicode="&#x215b;" horiz-adv-x="1712" 
d="M1405 444q174 -27 174 -215q0 -245 -289 -245q-150 0 -220 58q-71 59 -71 185q0 174 172 217q-141 37 -141 199q0 217 266 217q135 0 197 -50q61 -49 61 -165q0 -158 -149 -201zM481 -33q-17 -33 -43 -33q-25 0 -32 5q-9 7 -9 16q0 13 17 47l678 1409q22 45 47 45
q20 0 30 -2q15 -2 15 -18t-21 -56zM1497 231q0 175 -207 175q-211 0 -211 -173q0 -104 56 -142t155 -38q207 0 207 178zM528 541h-340q-22 0 -22 20v31q0 20 22 20h144v686l-135 -51q-3 0 -10 -3q-2 -1 -4.5 -1.5t-4.5 -1.5t-3 -1q-3 -1 -9 -1q-10 0 -14 10q-13 33 -13 39
q0 13 17 19l161 65q28 12 50 12h8q37 0 37 -43v-729h114q25 0 25 -20v-33q0 -18 -23 -18zM1475 637q0 76 -41 114q-40 37 -144 37q-103 0 -142 -38q-40 -39 -40 -117q0 -83 52 -120q53 -38 130 -38q70 0 128 38q57 37 57 124z" />
    <glyph glyph-name="threeeighths" unicode="&#x215c;" horiz-adv-x="1712" 
d="M524 -33q-16 -33 -43 -33q-25 0 -32 5q-9 7 -9 16q0 13 17 47l678 1409q23 45 47 45q20 0 30 -2q15 -2 15 -18t-21 -56zM451 987q83 -7 136 -59q52 -51 52 -148q0 -132 -74 -194t-229 -62q-120 0 -189 21q-32 10 -32 28q0 14 10 37q7 13 18 13q3 0 11 -2q2 0 6.5 -2
t7.5 -3l16 -4q60 -16 152 -16q137 0 180 49t43 131q0 88 -51 128t-195 42q-37 0 -37 35q0 37 39 37q125 2 172 44q48 43 48 114q0 89 -41 121t-152 32q-76 0 -135 -20q-43 -15 -47 -15q-13 0 -19 15q-8 19 -8 28q0 18 29 29q93 35 194 35q148 0 203 -52t55 -169
q0 -75 -46 -124q-49 -52 -117 -69zM1413 444q174 -27 174 -215q0 -245 -289 -245q-150 0 -220 58t-70 185q0 174 172 217q-142 38 -142 199q0 217 267 217q134 0 196 -50t62 -165q0 -157 -150 -201zM1483 637q0 76 -41 114q-40 37 -144 37q-103 0 -142 -38q-40 -39 -40 -117
q0 -83 52 -120q53 -38 130 -38q70 0 128 38q57 37 57 124zM1505 231q0 175 -207 175q-211 0 -211 -173q0 -104 56 -142t155 -38q207 0 207 178z" />
    <glyph glyph-name="fiveeighths" unicode="&#x215d;" horiz-adv-x="1712" 
d="M532 -33q-16 -33 -43 -33q-25 0 -32 5q-8 6 -8 16q0 15 16 47l678 1409q23 45 47 45q21 0 31 -2q14 -1 14 -18q0 -16 -21 -56zM225 1042q72 15 162 15q147 0 208 -58q60 -57 60 -198q0 -277 -311 -277q-120 0 -194 21q-31 11 -31 24q0 10 10 39q5 15 21 15q2 0 12 -2
q2 0 8.5 -2.5t10.5 -3.5l20 -5q62 -14 149 -14q223 0 223 203q0 110 -50 148t-158 38q-40 0 -100 -9t-68 -9q-41 0 -41 41q0 1 2 51l14 295q0 30 29 30h383q24 0 24 -20v-31q0 -20 -24 -20h-344zM1415 444q174 -27 174 -215q0 -245 -289 -245q-150 0 -220 58t-70 185
q0 174 172 217q-142 38 -142 199q0 217 267 217q134 0 196 -50t62 -165q0 -157 -150 -201zM1485 637q0 76 -41 114q-40 37 -144 37q-103 0 -142 -38q-40 -39 -40 -117q0 -83 52 -120q53 -38 130 -38q70 0 128 38q57 37 57 124zM1507 231q0 175 -207 175q-210 0 -210 -173
q0 -105 55 -142q56 -38 155 -38q207 0 207 178z" />
    <glyph glyph-name="seveneighths" unicode="&#x215e;" horiz-adv-x="1712" 
d="M442 -33q-16 -33 -43 -33q-25 0 -32 5q-9 7 -9 16q0 13 17 47l678 1409q23 45 47 45q20 0 30 -2q15 -2 15 -18t-21 -56zM606 1315h-454q-25 0 -25 20v29q0 20 25 20h489q51 0 51 -38q0 -24 -16 -66l-293 -713q-11 -30 -33 -30q-18 0 -39 4q-14 7 -14 18q0 17 10 37z
M1341 444q175 -27 175 -215q0 -245 -289 -245q-150 0 -220 58q-71 59 -71 185q0 174 172 217q-141 37 -141 199q0 217 266 217q135 0 197 -50q61 -49 61 -165q0 -157 -150 -201zM1411 637q0 76 -41 114q-40 37 -143 37q-104 0 -143 -38q-40 -39 -40 -117q0 -82 53 -120
t130 -38q70 0 128 38q56 37 56 124zM1434 231q0 175 -207 175q-211 0 -211 -173q0 -105 55 -142q56 -38 156 -38q207 0 207 178z" />
    <glyph glyph-name="arrowleft" unicode="&#x2190;" horiz-adv-x="1572" 
d="M1460 733q41 0 41 -31v-24q0 -33 -31 -33q-1007 0 -1255 2l584 -551q16 -12 16 -28q0 -13 -8 -21l-23 -29q-12 -12 -20 -12q-7 0 -23 12l-653 648q-10 7 -10 22q0 18 10 25l657 657q10 10 19 10q10 0 20 -10l23 -27q12 -12 12 -20q0 -13 -10 -23q-359 -357 -594 -571
q159 4 1245 4z" />
    <glyph glyph-name="arrowup" unicode="&#x2191;" horiz-adv-x="1572" 
d="M739 35q0 1075 4 1231q-183 -202 -575 -576q-8 -8 -18 -8q-13 0 -21 8l-18 23q-11 16 -11 22q0 10 11 21l657 653q10 12 23 12q15 0 22 -10l649 -651q13 -13 13 -21q0 -11 -13 -24l-18 -21q-10 -10 -23 -10q-10 0 -30 16l-553 566q2 -246 2 -1235q0 -31 -29 -31h-43
q-29 0 -29 35z" />
    <glyph glyph-name="arrowright" unicode="&#x2192;" horiz-adv-x="1572" 
d="M111 733q1084 0 1243 -4l-592 571q-8 11 -8 23q0 10 10 20l22 27q10 10 21 10q8 0 18 -10l658 -657q10 -7 10 -25q0 -15 -10 -22l-654 -648q-11 -8 -22 -8t-21 10l-22 27q-8 8 -8 19q0 14 16 30l582 551q-248 -2 -1254 -2q-28 0 -28 33v24q0 31 39 31z" />
    <glyph glyph-name="arrowdown" unicode="&#x2193;" horiz-adv-x="1572" 
d="M739 1341q0 41 29 41h43q29 0 29 -30q0 -993 -2 -1239l555 569q16 16 28 16q15 0 21 -6l20 -24q13 -13 13 -23q0 -9 -13 -22l-647 -652q-12 -12 -24 -12q-8 0 -23 12l-657 654q-13 13 -13 22q0 5 13 23l26 22q8 8 21 8q5 0 18 -8q327 -312 567 -577q-4 164 -4 1226z" />
    <glyph glyph-name="uni2196" unicode="&#x2196;" horiz-adv-x="1572" 
d="M1323 227q16 -12 16 -28q0 -15 -22 -37q-18 -21 -31 -21q-9 0 -20 11l-879 876q12 -381 12 -792q0 -22 -10 -33q-8 -8 -18 -8h-37q-15 0 -23 8q-8 13 -8 30v910q0 16 10 26q9 9 27 9h926q15 0 22 -7q8 -6 8 -22v-33q0 -20 -8 -26q-7 -7 -24 -7q-533 0 -822 11z" />
    <glyph glyph-name="uni2197" unicode="&#x2197;" horiz-adv-x="1572" 
d="M319 158q-17 -17 -26 -17q-16 0 -35 19q-22 26 -22 39q0 12 10 22l884 869q-3 0 -14.5 -0.5l-34.5 -1.5l-46 -2q-83 -3 -267 -6t-438 -3q-22 0 -29 6q-10 7 -10 25v39q0 14 8 22q9 9 27 9h915q12 0 25 -9q8 -6 8 -28v-920q0 -20 -6 -26q-9 -9 -23 -9h-33q-11 0 -18 7
q-10 6 -10 26q0 572 8 807z" />
    <glyph glyph-name="uni2198" unicode="&#x2198;" horiz-adv-x="1572" 
d="M252 1139q-16 15 -16 30q0 13 20 33q21 21 35 21q9 0 20 -11q722 -709 879 -874q0 12 -3 96q-4 102 -5 265q-2 242 -2 429q0 23 8 31q8 12 20 12h37q11 0 21 -10q8 -8 8 -28v-910q0 -18 -8 -26q-8 -11 -29 -11h-926q-15 0 -22 7q-6 7 -6 22v33q0 20 6 26q7 7 24 7
q557 0 822 -9z" />
    <glyph glyph-name="uni2199" unicode="&#x2199;" horiz-adv-x="1572" 
d="M1257 1212q22 17 27 17q14 0 37 -23q20 -21 20 -35t-10 -24l-882 -866q3 0 14 0.5t33.5 1t46.5 0.5q188 3 267 4q244 2 439 2q21 0 29 -8q10 -10 10 -23v-37q0 -14 -8 -22q-9 -9 -29 -9h-913q-19 0 -25 11q-10 10 -10 26v924q0 17 8 25t29 8h29q16 0 22 -8q8 -18 8 -27
q0 -564 -8 -799q102 108 866 862z" />
    <glyph glyph-name="partialdiff" unicode="&#x2202;" horiz-adv-x="1110" 
d="M872 768q-6 118 -15 198q-9 78 -30 152q-21 75 -55 116q-35 42 -91 66q-59 25 -136 25q-148 0 -232 -29q-26 -8 -28 -8q-19 0 -27 21q-10 21 -10 39q0 15 20 22q92 39 293 39q104 0 176 -33t118 -92q47 -61 71 -165q24 -105 33 -227q10 -135 10 -302q0 -328 -107 -473
q-106 -144 -330 -144q-395 0 -395 439q0 452 418 452q205 0 317 -96zM877 651q-90 131 -326 131q-159 0 -241 -85q-83 -86 -83 -287q0 -353 308 -353q122 0 201 54q77 53 112 184q29 108 29 356z" />
    <glyph glyph-name="Delta" unicode="&#x2206;" horiz-adv-x="1284" 
d="M1249 70q8 -19 8 -39q0 -31 -32 -31h-1166q-32 0 -32 29q0 12 10 41l545 1290q10 26 41 26h47q27 0 37 -26zM641 1294q-61 -164 -500 -1210h1000q-443 1058 -500 1210z" />
    <glyph glyph-name="product" unicode="&#x220f;" horiz-adv-x="1437" 
d="M330 -238q0 -34 -33 -34h-27q-32 0 -32 34v1588q0 34 38 34h889q35 0 35 -34v-1588q0 -34 -33 -34h-26q-33 0 -33 34v1538h-778v-1538z" />
    <glyph glyph-name="summation" unicode="&#x2211;" horiz-adv-x="1200" 
d="M1094 -266h-951q-57 0 -57 57q0 36 37 82l528 717l-499 676q-19 24 -19 51q0 67 66 67h841q35 0 35 -32v-21q0 -31 -35 -31h-811l502 -663q14 -20 14 -41q0 -23 -16 -45l-545 -733h910q34 0 34 -31v-23q0 -30 -34 -30z" />
    <glyph glyph-name="minus" unicode="&#x2212;" horiz-adv-x="1435" 
d="M1251 588q0 -29 -28 -29h-1012q-27 0 -27 29v33q0 28 27 28h1012q28 0 28 -28v-33z" />
    <glyph glyph-name="uni2215" unicode="&#x2215;" horiz-adv-x="172" 
d="M-223 -33q-17 -33 -43 -33t-33 5q-8 6 -8 16q0 15 16 47l678 1409q23 45 47 45q21 0 31 -2q14 -1 14 -18t-20 -56z" />
    <glyph glyph-name="uni2219" unicode="&#x2219;" horiz-adv-x="409" 
d="M281 551q0 -76 -76 -76t-76 76t76 76t76 -76z" />
    <glyph glyph-name="radical" unicode="&#x221a;" horiz-adv-x="1308" 
d="M690 -342q-6 -29 -31 -29h-34q-23 0 -35 25l-287 586l-117 -56q-8 -2 -14 -2q-12 0 -20 15q-17 29 -17 41t15 20l165 84q12 6 27 6q14 0 25 -20l274 -566l502 1639q6 26 31 26q32 0 47 -4q14 -4 14 -18q0 -11 -8 -37z" />
    <glyph glyph-name="infinity" unicode="&#x221e;" horiz-adv-x="1495" 
d="M748 657q96 119 179 170q88 54 181 54q122 0 194 -79q72 -80 72 -204q0 -132 -79 -215q-79 -84 -205 -84q-99 0 -169 49q-72 50 -173 174q-103 -121 -182 -172q-76 -49 -173 -49q-123 0 -199 78q-77 79 -77 205q0 130 80 215q80 84 209 84q94 0 167 -49q76 -51 175 -177z
M694 588q-95 120 -151 165q-56 46 -142 46t-143 -59q-57 -58 -57 -146q0 -93 55 -151t141 -58q83 0 152 51q67 50 145 152zM799 594q121 -138 159 -166q62 -45 136 -45q86 0 141 57q55 56 55 148t-52 148q-52 57 -136 57q-149 0 -303 -199z" />
    <glyph glyph-name="integral" unicode="&#x222b;" horiz-adv-x="647" 
d="M305 -106q0 106 -4 194l-41 969q-4 88 -4 160q0 116 54 176q53 59 153 59q60 0 92 -8q20 -4 20 -25q0 -26 -4 -39q-6 -20 -24 -20q-2 0 -35 3t-57 3q-113 0 -113 -154q0 -14 6 -155l41 -967q6 -153 6 -188q0 -120 -51 -176t-160 -56q-55 0 -88 6q-24 4 -24 27q0 10 4 35
q4 24 26 24q2 0 28 -3t54 -3q59 0 90 29t31 109z" />
    <glyph glyph-name="approxequal" unicode="&#x2248;" horiz-adv-x="1435" 
d="M266 313q-10 -14 -22 -14q-17 0 -35 18q-12 12 -12 23q0 17 8 25q85 105 147 140q67 38 146 38q83 0 250 -101q122 -73 202 -73q64 0 111 33q50 35 102 112q17 21 27 21q9 0 33 -19q14 -10 14 -24t-12 -31q-65 -93 -127 -137q-61 -43 -150 -43q-99 0 -243 84
q-151 88 -220 88q-60 0 -110 -32q-49 -31 -109 -108zM266 700q-10 -16 -22 -16q-17 0 -35 18q-12 12 -12 25q0 15 8 23q80 102 146 140q67 38 147 38q83 0 250 -101q122 -73 202 -73q114 0 213 147q16 19 27 19q10 0 33 -17q14 -11 14 -24q0 -17 -12 -33q-65 -93 -127 -137
q-61 -43 -150 -43q-95 0 -243 86q-154 86 -220 86q-60 0 -110 -32q-47 -30 -109 -106z" />
    <glyph glyph-name="notequal" unicode="&#x2260;" horiz-adv-x="1435" 
d="M481 33q-11 -19 -26 -19q-28 0 -37 4q-10 6 -10 17q0 6 8 24l153 306h-358q-27 0 -27 28v31q0 29 27 29h397l144 292h-541q-27 0 -27 27v33q0 26 27 26h582l157 312q10 22 31 22q22 0 33 -4q12 -1 12 -16q0 -13 -6 -25l-146 -289h349q28 0 28 -26v-33q0 -27 -28 -27h-389
l-146 -292h535q28 0 28 -29v-31q0 -28 -28 -28h-574z" />
    <glyph glyph-name="lessequal" unicode="&#x2264;" horiz-adv-x="1435" 
d="M1167 29q0 -29 -26 -29h-875q-26 0 -26 29v30q0 29 26 29h875q26 0 26 -29v-30zM340 776l805 -368q24 -11 24 -37q0 -24 -4 -43q-7 -21 -26 -21q-17 0 -33 10l-842 396q-24 12 -24 47v26q0 33 24 45l852 410q12 6 25 6q14 0 20 -18q6 -16 6 -41q0 -28 -24 -39z" />
    <glyph glyph-name="greaterequal" unicode="&#x2265;" horiz-adv-x="1435" 
d="M1194 29q0 -29 -27 -29h-874q-27 0 -27 29v30q0 29 27 29h874q27 0 27 -29v-30zM1096 778l-805 369q-25 11 -25 35q0 38 4 47q8 18 27 18q13 0 33 -10l841 -395q25 -12 25 -47v-27q0 -32 -25 -45l-852 -410q-12 -6 -24 -6q-15 0 -21 17q-6 16 -6 43q0 28 25 39z" />
    <glyph glyph-name="lozenge" unicode="&#x25ca;" horiz-adv-x="1439" 
d="M657 1370q11 23 39 23h58q20 0 32 -21l314 -649q4 -11 4 -23t-8 -30l-310 -650q-7 -20 -30 -20h-68q-22 0 -29 20l-321 654q-4 11 -4 24q0 12 4 23zM428 698l297 -604l285 606l-287 600z" />
    <glyph glyph-name="commaaccent" unicode="&#xf6c3;" horiz-adv-x="378" 
d="M229 -147h27q33 0 33 -37q0 -220 -133 -344q-17 -17 -31 -17q-12 0 -25 13q-12 12 -12 22q0 11 10 21q91 102 97 301q0 41 34 41z" />
    <glyph glyph-name="Dotlessi" horiz-adv-x="542" 
d="M317 29q0 -35 -32 -35h-27q-33 0 -33 35v1390q0 35 35 35h27q30 0 30 -35v-1390z" />
    <glyph glyph-name="Euro.denominator" horiz-adv-x="823" 
d="M590 481h-297v-53v-57h297q24 0 24 -21v-12q0 -23 -24 -23h-295q11 -123 62 -191q53 -69 178 -69q107 0 170 21q11 2 20.5 4t13.5 3l4 1q12 0 19 -14q6 -30 6 -33q0 -15 -27 -25q-91 -26 -206 -26q-151 0 -228 73t-92 256h-90q-23 0 -23 23v12q0 21 23 21h88v39v71h-88
q-23 0 -23 21v12q0 21 23 21h94q16 172 95 248q80 77 253 77q91 0 158 -12q25 -6 25 -23q0 -20 -7 -39q-6 -12 -18 -12q-6 0 -11 1t-17 3t-15 2q-40 6 -135 6q-133 0 -186 -65q-54 -65 -64 -186h293q24 0 24 -21v-12q0 -21 -24 -21z" />
    <glyph glyph-name="Euro.inferior" horiz-adv-x="823" 
d="M590 223h-297v-53v-57h297q24 0 24 -21v-12q0 -23 -24 -23h-295q11 -123 62 -191q53 -69 178 -69q107 0 170 21q11 2 20.5 4t13.5 3l4 1q12 0 19 -14q6 -30 6 -33q0 -15 -27 -25q-91 -26 -206 -26q-151 0 -228 74t-92 255h-90q-23 0 -23 23v12q0 21 23 21h88v39v71h-88
q-23 0 -23 21v12q0 20 23 20h94q17 174 95 249q80 77 253 77q91 0 158 -12q25 -6 25 -23q0 -20 -7 -39q-6 -12 -18 -12q-6 0 -11 1t-17 3t-15 2q-40 6 -135 6q-133 0 -186 -65t-64 -187h293q24 0 24 -20v-12q0 -21 -24 -21z" />
    <glyph glyph-name="Euro.numerator" horiz-adv-x="823" 
d="M590 1022h-297v-53v-58h297q24 0 24 -20v-12q0 -23 -24 -23h-295q11 -123 62 -191q53 -69 178 -69q110 0 170 20q11 2 20.5 4.5t13.5 3.5l4 1q11 0 19 -15q6 -30 6 -32q0 -14 -27 -25q-95 -27 -206 -27q-149 0 -228 74q-77 73 -92 256h-90q-23 0 -23 23v12q0 20 23 20h88
v39v72h-88q-23 0 -23 20v13q0 20 23 20h94q17 174 95 249q80 77 253 77q91 0 158 -12q25 -6 25 -23q0 -22 -7 -39q-6 -12 -18 -12q-6 0 -11 1t-17 3t-15 2q-40 6 -135 6q-133 0 -186 -65t-64 -187h293q24 0 24 -20v-13q0 -20 -24 -20z" />
    <glyph glyph-name="Euro.oldstyle" horiz-adv-x="1185" 
d="M895 707h-473v-89v-92h473q35 0 35 -30v-13q0 -30 -35 -30h-469q6 -88 24 -154q19 -68 54 -125q38 -60 102 -91q67 -32 160 -32q135 0 250 23l28 7q20 5 25 5q15 0 23 -23q6 -18 6 -24q0 -20 -35 -31q-135 -35 -285 -35q-208 0 -317 109q-108 108 -129 371h-131
q-35 0 -35 30v13q0 30 35 30h127v68q0 63 2 113h-129q-35 0 -35 30v13q0 30 35 30h133q24 246 135 357q110 110 356 110q134 0 217 -14q31 -5 31 -29q0 -20 -6 -37q-6 -16 -25 -16q-9 0 -34 4l-43 6q-63 6 -183 6q-186 0 -264 -103q-77 -102 -92 -284h469q35 0 35 -30v-13
q0 -30 -35 -30z" />
    <glyph glyph-name="Euro.superior" horiz-adv-x="823" 
d="M590 1341h-297v-53v-57h297q24 0 24 -21v-12q0 -22 -24 -22h-295q11 -124 62 -192q53 -69 178 -69q107 0 170 21q11 2 20.5 4t13.5 3l4 1q12 0 19 -14q6 -30 6 -33q0 -14 -27 -25q-88 -26 -206 -26q-149 0 -228 74q-77 73 -92 256h-90q-23 0 -23 22v12q0 21 23 21h88v39
v71h-88q-23 0 -23 21v12q0 21 23 21h94q17 174 95 249q79 76 253 76q91 0 158 -12q25 -6 25 -22q0 -20 -7 -39q-7 -13 -18 -13q-6 0 -11 1t-17 3t-15 2q-47 7 -135 7q-132 0 -186 -66q-54 -65 -64 -186h293q24 0 24 -21v-12q0 -21 -24 -21z" />
    <glyph glyph-name="Kgreenlandic" horiz-adv-x="1355" 
d="M1212 1024q-34 0 -34 31q0 118 45 244q45 127 125 196q16 16 30 16q11 0 27 -10q16 -12 16 -24q0 -17 -12 -29q-49 -44 -89 -143q-40 -98 -40 -234q0 -47 -35 -47h-33zM317 29q0 -35 -32 -35h-27q-33 0 -33 35v1390q0 35 35 35h27q30 0 30 -35v-624h191q67 0 90 32
l453 598q21 27 49 27q27 0 41 -2q18 -2 18 -20t-20 -41q-362 -470 -496 -633l531 -693q24 -33 24 -43q0 -16 -16 -20q-15 -4 -47 -4q-27 0 -50 29l-497 653q-24 35 -78 35h-193v-684z" />
    <glyph glyph-name="S_S" horiz-adv-x="2265" 
d="M692 731q183 -56 253 -131q73 -78 73 -223q0 -196 -113 -300t-370 -104q-214 0 -388 68q-34 15 -34 33q0 13 10 39q11 24 33 24q11 0 47 -14q153 -62 332 -62q103 0 180 21q76 21 114 50q40 31 62 76q24 50 28 80q5 38 5 81q0 40 -9 80q-7 32 -37 72q-29 40 -97 75
q-68 36 -171 68l-207 63q-134 44 -202 134q-70 93 -70 214q0 196 115 297t364 101q175 0 316 -39q32 -7 32 -33q0 -12 -10 -41q-6 -19 -30 -19q-2 0 -7 1t-16 3.5t-21 4.5q-140 36 -274 36q-218 0 -296 -77q-79 -78 -79 -226q0 -107 57 -173q58 -67 232 -122zM1823 731
q183 -56 253 -131q72 -76 72 -223q0 -197 -112 -300q-113 -104 -371 -104q-213 0 -387 68q-35 15 -35 33q0 13 10 39q11 24 33 24q11 0 47 -14q153 -62 332 -62q103 0 180 21q78 21 115 50q39 30 61 76q24 50 28 80q5 38 5 81q0 45 -8 80q-7 30 -38 72q-30 41 -96 75
q-68 36 -171 68l-207 63q-135 44 -203 134q-69 91 -69 214q0 197 114 297q115 101 365 101q174 0 315 -39q33 -8 33 -33q0 -12 -10 -41q-6 -19 -31 -19q-2 0 -7 1t-15.5 3.5t-20.5 4.5q-140 36 -274 36q-218 0 -296 -77q-79 -78 -79 -226q0 -108 56 -173q57 -66 233 -122z
" />
    <glyph glyph-name="a.superior" horiz-adv-x="690" 
d="M571 655q0 -37 -12 -61q-12 -22 -33 -29q-77 -41 -231 -41q-219 0 -219 197q0 105 76 145q62 35 194 35q98 0 150 -6v68q0 63 -13 92q-21 55 -141 55q-74 0 -152 -18l-40 -11q-12 0 -19 15q-4 19 -4 32q0 15 18 21q87 29 209 29q134 0 178 -43q39 -39 39 -160v-320z
M496 836q-50 6 -142 6q-118 0 -166 -31q-36 -20 -36 -88q0 -66 32 -99q33 -34 123 -34q100 0 154 22q20 6 26 23q9 25 9 45v156z" />
    <glyph glyph-name="acute.cap" horiz-adv-x="403" 
d="M90 1583q-28 -22 -55 -22q-21 0 -39 8q-12 7 -12 18q0 14 18 29l285 225q29 23 57 23t57 -9q17 -6 17 -20q0 -15 -19 -31z" />
    <glyph glyph-name="b.superior" horiz-adv-x="733" 
d="M121 637v815q0 23 24 23h31q23 0 23 -23v-334q70 58 229 58q118 0 170 -75q53 -76 53 -243q0 -196 -69 -265t-230 -69q-101 0 -178 25q-32 11 -43 31q-10 16 -10 57zM199 655q0 -25 6 -32q11 -11 28 -17q50 -12 121 -12q134 0 178 54q43 53 43 200q0 142 -33 199
q-34 59 -141 59q-119 0 -178 -37q-17 -11 -22 -18q-2 -8 -2 -27v-369z" />
    <glyph glyph-name="braceleft.cap" horiz-adv-x="602" 
d="M176 700q80 -24 124 -85t44 -205v-287q0 -121 31 -168q41 -57 190 -57q17 0 17 -23v-31q0 -20 -23 -20q-120 2 -178 19q-58 18 -92 71q-41 62 -41 219v275q0 132 -43 185q-44 55 -139 71q-19 2 -19 22v23q0 19 19 24q100 17 141 75q41 59 41 179v266q0 150 43 215
q68 105 268 105q23 0 23 -27v-20q0 -27 -23 -27q-152 -4 -190 -72q-25 -48 -25 -159v-271q0 -147 -40 -203q-40 -57 -128 -94z" />
    <glyph glyph-name="braceright.cap" horiz-adv-x="602" 
d="M426 696q-80 24 -124 85t-44 206v287q0 122 -31 168q-40 57 -190 57q-17 0 -17 23v30q0 21 23 21q116 -1 178 -20q59 -18 92 -70q41 -62 41 -219v-275q0 -132 43 -185q44 -54 140 -71q18 -1 18 -22v-23q0 -20 -18 -24q-102 -17 -142 -75q-41 -59 -41 -179v-267
q0 -150 -43 -215q-67 -104 -268 -104q-23 0 -23 26v21q0 27 23 27q153 5 190 71q25 48 25 160v270q0 148 40 204q39 55 128 93z" />
    <glyph glyph-name="bracketleft.cap" horiz-adv-x="546" 
d="M254 -88h223q23 0 23 -21v-26q0 -27 -23 -27h-289q-22 0 -22 25v1673q0 23 22 23h289q23 0 23 -21v-31q0 -20 -23 -20h-223v-1575z" />
    <glyph glyph-name="bracketright.cap" horiz-adv-x="546" 
d="M291 1485h-223q-23 0 -23 20v27q0 27 23 27h288q23 0 23 -25v-1673q0 -23 -23 -23h-288q-23 0 -23 21v30q0 21 23 21h223v1575z" />
    <glyph glyph-name="breve.cap" horiz-adv-x="403" 
d="M199 1563q-240 0 -273 204q-4 25 -4 41q0 20 15 27q18 8 36 8q26 0 27 -22q12 -88 55 -130t144 -42q103 0 152 44q48 44 59 128q4 22 24 22q27 0 39 -6q10 -6 10 -20q0 -20 -8 -62q-43 -192 -276 -192z" />
    <glyph glyph-name="bullet.cap" horiz-adv-x="671" 
d="M561 649q0 -235 -225 -235t-225 233q0 234 225 234q107 0 167 -54q58 -52 58 -178z" />
    </font>
</defs>
</svg>
