<?xml version="1.0" standalone="no"?>
<!DOCTYPE svg PUBLIC "-//W3C//DTD SVG 1.1//EN" "http://www.w3.org/Graphics/SVG/1.1/DTD/svg11.dtd" >
<svg xmlns="http://www.w3.org/2000/svg" xmlns:xlink="http://www.w3.org/1999/xlink" version="1.1">
<metadata>
Created by FontForge 20170731 at Sun Apr 18 19:44:21 2021
 By Aleksey,,,
Copyright (c) 2015 by Dieter Hofrichter. All rights reserved.
</metadata>
<defs>
<font id="Carnas-ExtraBoldIt" horiz-adv-x="817" >
  <font-face 
    font-family="Carnas-ExtraBoldIt"
    font-weight="400"
    font-style="italic"
    font-stretch="normal"
    units-per-em="2048"
    panose-1="2 0 5 3 0 0 0 9 0 4"
    ascent="1561"
    descent="-487"
    x-height="1020"
    cap-height="1448"
    bbox="-424 -575 2605 2038"
    underline-thickness="102"
    underline-position="-204"
    unicode-range="U+0020-FB04"
  />
<missing-glyph horiz-adv-x="1026" 
d="M0 0v1448h1026v-1448h-1026zM514 817l348 526h-698zM573 725l353 -526v1052zM164 102h698l-348 529zM102 1251v-1052l351 526z" />
    <glyph glyph-name="f_f" unicode="ff" horiz-adv-x="1421" 
d="M414 70q-12 -72 -76 -72h-205q-47 0 -47 43q0 17 6 41l144 682h-86q-58 0 -58 47q0 28 29 147q15 62 76 62h94l10 49q51 230 166 313q152 113 418 113q92 0 92 -65q0 -73 -14 -130q-10 -55 -78 -61q-103 -8 -145 -21q-41 -13 -70 -44q-33 -33 -45 -115l-9 -39h361l18 92
q46 225 166 311q163 115 426 115q44 0 68 -18t24 -50q0 -72 -14 -129q-10 -55 -78 -61q-101 -7 -150 -24q-44 -15 -73 -46q-37 -40 -49 -116l-15 -74h158q58 0 58 -51q0 -40 -31 -152q-12 -53 -78 -53h-162l-145 -694q-16 -72 -76 -72h-205q-49 0 -49 43q0 17 6 41l146 682
h-361z" />
    <glyph glyph-name="fi" unicode="fi" horiz-adv-x="1306" 
d="M414 70q-8 -72 -76 -72h-205q-47 0 -47 43q0 17 6 41l144 682h-86q-58 0 -58 47q0 28 29 147q15 62 76 62h94l18 92q46 227 168 313q157 113 393 113q97 0 97 -61q0 -62 -17 -136q-10 -55 -76 -61q-157 -18 -196 -63q-32 -39 -47 -123l-15 -74h615q51 0 51 -45
q0 -21 -10 -60l-182 -854q-15 -63 -70 -63h-209q-49 0 -49 43q0 9 8 49l143 674h-352zM1352 1382q0 -34 -15 -84q-15 -48 -43 -75q-52 -47 -133 -47q-141 0 -141 124q0 105 49 154q53 53 137 53q146 0 146 -125z" />
    <glyph glyph-name="fl" unicode="fl" horiz-adv-x="1376" 
d="M414 70q-8 -72 -76 -72h-205q-47 0 -47 43q0 17 6 41l144 682h-86q-58 0 -58 47q0 28 29 147q15 62 76 62h94l18 90q45 203 170 305q149 121 518 121q205 0 312 -18q69 -12 69 -70q0 -30 -10 -74l-203 -946q-14 -63 -14 -119q0 -39 21 -55q20 -16 75 -27q47 -8 47 -61
q0 -55 -26 -121q-18 -57 -94 -57q-359 0 -359 248q0 74 19 161l186 869q-41 6 -115 6q-164 0 -215 -55q-42 -49 -59 -125l-15 -72h158q55 0 55 -51q0 -43 -28 -152q-17 -53 -78 -53h-162z" />
    <glyph glyph-name="f_f_i" unicode="ffi" horiz-adv-x="1990" 
d="M414 70q-12 -72 -76 -72h-205q-47 0 -47 43q0 17 6 41l144 682h-86q-58 0 -58 47q0 28 29 147q15 62 76 62h94l10 49q51 230 166 313q152 113 418 113q92 0 92 -65q0 -73 -14 -130q-10 -55 -78 -61q-102 -8 -144 -22q-43 -15 -71 -43q-30 -28 -45 -115l-9 -39h361l18 92
q45 227 168 313q152 113 391 113q97 0 97 -61q0 -75 -15 -136q-10 -51 -77 -61q-162 -21 -195 -63q-37 -43 -49 -123l-15 -74h615q51 0 51 -45q0 -25 -8 -55l-184 -859q-15 -63 -68 -63h-211q-47 0 -47 43q0 20 6 49l143 674h-352l-145 -694q-16 -72 -76 -72h-205
q-49 0 -49 43q0 17 6 41l146 682h-361zM2036 1382q0 -34 -15 -84q-15 -48 -43 -75q-52 -47 -131 -47q-143 0 -143 124q0 103 51 154q51 53 135 53q146 0 146 -125z" />
    <glyph glyph-name="f_f_l" unicode="ffl" horiz-adv-x="2062" 
d="M414 70q-12 -72 -76 -72h-205q-47 0 -47 43q0 17 6 41l144 682h-86q-58 0 -58 47q0 28 29 147q15 62 76 62h94l10 49q51 230 166 313q152 113 418 113q92 0 92 -65q0 -73 -14 -130q-12 -56 -78 -61q-101 -7 -144 -21q-41 -13 -71 -44q-33 -33 -45 -115l-9 -39h361l18 90
q37 195 170 305q149 121 516 121q203 0 314 -18q69 -12 69 -70q0 -30 -10 -74l-205 -946q-14 -63 -14 -119q0 -38 22 -55q21 -17 76 -27q47 -6 47 -61q0 -37 -26 -119q-18 -59 -92 -59q-363 0 -363 248q0 74 19 161l186 869q-41 6 -115 6q-170 0 -213 -55q-42 -45 -59 -125
l-17 -72h158q58 0 58 -51q0 -40 -31 -152q-12 -53 -78 -53h-162l-145 -694q-16 -72 -76 -72h-205q-49 0 -49 43q0 17 6 41l146 682h-361z" />
    <glyph glyph-name="T_h" unicode="Th" horiz-adv-x="2316" 
d="M672 66q-12 -68 -70 -68h-219q-51 0 -51 49q0 15 6 39l231 1075h-319q-51 0 -51 37q0 35 34 186q8 35 23 49q14 13 47 13h1141l8 27q16 59 74 59h190q58 0 58 -49q0 -3 -5 -35l-100 -469q119 70 295 70q287 0 287 -185q0 -56 -19 -153l-137 -650q-15 -63 -70 -63h-210
q-50 0 -50 43q0 9 7 35l120 569q9 41 9 78q0 61 -103 61q-65 0 -108 -14q-35 -12 -56 -27q-16 -14 -26 -65l-129 -617q-12 -63 -68 -63h-211q-51 0 -51 43q0 11 6 41l229 1079h-477z" />
    <glyph glyph-name="Tcaron_h" unicode="&#x164;h" horiz-adv-x="2392" 
d="M672 66q-12 -68 -70 -68h-219q-51 0 -51 49q0 15 6 39l231 1075h-319q-51 0 -51 37q0 35 34 186q8 35 23 49q14 13 47 13h1141l8 27q16 59 74 59h190q58 0 58 -49q0 -3 -5 -35l-100 -469q119 70 295 70q287 0 287 -185q0 -56 -19 -153l-137 -650q-15 -63 -70 -63h-210
q-50 0 -50 43q0 9 7 35l120 569q9 41 9 78q0 61 -103 61q-65 0 -108 -14q-35 -12 -56 -27q-16 -14 -26 -65l-129 -617q-12 -63 -68 -63h-211q-51 0 -51 43q0 11 6 41l229 1079h-477zM1061 1913q78 0 117 -6q39 -5 39 -37q0 -27 -29 -51l-232 -205q-74 -62 -127 -62h-108
q-58 0 -98 54l-154 206q-18 24 -18 48q0 37 53 45q43 8 100 8q53 0 92 -45l105 -117l155 119q50 43 105 43z" />
    <glyph glyph-name="f_b" unicode="fb" horiz-adv-x="1912" 
d="M414 70q-8 -72 -76 -72h-205q-47 0 -47 43q0 17 6 41l144 682h-86q-58 0 -58 47q0 28 29 147q15 62 76 62h94l18 90q45 203 170 305q149 121 518 121q201 0 312 -18q69 -12 69 -70q0 -30 -10 -74l-82 -399q113 74 289 74q143 0 212 -74q68 -72 68 -227q0 -138 -45 -315
q-45 -178 -129 -286q-77 -99 -189 -137q-110 -37 -288 -37q-230 0 -354 45q-70 23 -70 91q0 34 11 81l229 1076q-41 6 -115 6q-164 0 -215 -55q-42 -49 -59 -125l-15 -72h158q55 0 55 -51q0 -43 -28 -152q-17 -53 -78 -53h-162zM1147 326q-6 -21 -6 -47q0 -33 39 -41
q36 -9 77 -9q68 0 109 19q39 18 66 67q35 64 62 181q26 115 26 178q0 56 -28 84q-26 26 -91 26q-95 0 -144 -36q-24 -18 -32 -60z" />
    <glyph glyph-name="f_f_b" unicode="ffb" horiz-adv-x="2596" 
d="M414 70q-12 -72 -76 -72h-205q-47 0 -47 43q0 17 6 41l144 682h-87q-57 0 -57 47q0 28 29 147q15 62 76 62h94l10 49q51 230 166 313q152 113 418 113q92 0 92 -66q0 -72 -14 -129q-15 -55 -80 -61q-104 -10 -145 -24q-41 -13 -68 -41q-28 -28 -45 -115l-9 -39h361l18 90
q37 195 170 305q149 121 516 121q203 0 314 -18q69 -12 69 -70q0 -30 -10 -74l-84 -399q118 74 291 74q143 0 211 -74t68 -227q0 -134 -45 -316q-44 -177 -128 -285q-77 -99 -190 -137q-111 -37 -289 -37q-230 0 -354 45q-68 24 -68 91q0 34 11 81l227 1076q-41 6 -115 6
q-164 0 -215 -55q-41 -50 -57 -125l-17 -72h158q58 0 58 -51q0 -40 -31 -152q-12 -53 -78 -53h-162l-145 -694q-16 -72 -76 -72h-205q-49 0 -49 43q0 17 6 41l146 682h-361zM1831 326q-6 -37 -6 -47q0 -31 39 -41q40 -9 80 -9q64 0 107 19q40 18 67 67q35 64 62 181
q26 115 26 178q0 56 -28 84q-26 26 -93 26q-92 0 -141 -36q-27 -21 -35 -62z" />
    <glyph glyph-name="f_f_h" unicode="ffh" horiz-adv-x="2615" 
d="M414 70q-12 -72 -76 -72h-205q-47 0 -47 43q0 17 6 41l144 682h-87q-57 0 -57 47q0 28 29 147q15 62 76 62h94l10 49q51 230 166 313q152 113 418 113q92 0 92 -65q0 -71 -14 -130q-10 -55 -78 -61q-103 -8 -145 -21q-41 -13 -70 -44q-33 -33 -45 -115l-9 -39h361l18 90
q37 195 170 305q149 121 516 121q203 0 314 -18q69 -12 69 -70q0 -30 -10 -74l-84 -395q53 31 136 50q88 20 159 20q287 0 287 -183q0 -58 -19 -155l-139 -650q-15 -63 -67 -63h-211q-50 0 -50 43q0 4 1 8q0 1 1.5 6t2.5 8q2 10 2 13l118 569q11 47 11 78q0 61 -103 61
q-59 0 -110 -16q-39 -11 -56 -25q-16 -15 -26 -65l-129 -617q-12 -63 -66 -63h-213q-49 0 -49 43q0 17 6 41l248 1184q-41 6 -115 6q-167 0 -213 -55q-42 -49 -59 -125l-17 -72h158q58 0 58 -51q0 -40 -31 -152q-12 -53 -78 -53h-162l-145 -694q-16 -72 -76 -72h-205
q-49 0 -49 43q0 17 6 41l146 682h-361z" />
    <glyph glyph-name="f_f_j" unicode="ffj" horiz-adv-x="2017" 
d="M414 70q-12 -72 -76 -72h-205q-47 0 -47 43q0 17 6 41l144 682h-87q-57 0 -57 47q0 28 29 147q15 62 76 62h94l10 49q51 230 166 313q152 113 418 113q92 0 92 -65q0 -73 -14 -130q-12 -56 -78 -61q-101 -7 -144 -21q-41 -13 -71 -44q-33 -33 -45 -115l-9 -39h361l18 92
q45 227 168 313q152 113 391 113q97 0 97 -61q0 -62 -17 -136q-10 -51 -75 -61q-162 -21 -195 -63q-37 -43 -49 -123l-15 -74h611q55 0 55 -45q0 -25 -8 -55l-199 -928q-47 -226 -149 -328q-59 -59 -175 -101q-115 -42 -245 -42q-40 0 -55 15q-14 14 -19 48q-4 36 -4 113
q0 69 72 80q120 17 174 53q51 38 78 156l161 778h-352l-145 -694q-16 -72 -76 -72h-205q-49 0 -49 43q0 17 6 41l146 682h-361zM2036 1382q0 -34 -15 -84q-15 -48 -43 -75q-52 -47 -131 -47q-143 0 -143 124q0 103 51 154q51 53 135 53q146 0 146 -125z" />
    <glyph glyph-name="f_f_k" unicode="ffk" horiz-adv-x="2580" 
d="M414 70q-12 -72 -76 -72h-205q-47 0 -47 43q0 17 6 41l144 682h-86q-58 0 -58 47q0 28 29 147q15 62 76 62h94l10 49q51 230 166 313q152 113 418 113q92 0 92 -65q0 -73 -14 -130q-12 -56 -78 -61q-101 -7 -144 -21q-41 -13 -71 -44q-33 -33 -45 -115l-9 -39h361l18 90
q37 195 170 305q149 121 516 121q203 0 314 -18q69 -12 69 -70q0 -30 -10 -74l-143 -672h69q69 0 103 43l186 232q38 47 86 47q197 0 225 -12q25 -11 25 -37q0 -17 -35 -64l-293 -350q53 -113 177 -448q12 -34 12 -64q0 -28 -37 -43q-37 -12 -238 -12q-49 0 -67 45l-131 358
q-15 37 -74 37h-66l-79 -373q-12 -63 -64 -63h-211q-53 0 -53 41q0 1 6 45l252 1182q-41 6 -115 6q-167 0 -213 -55q-42 -49 -59 -125l-17 -72h158q58 0 58 -51q0 -40 -31 -152q-12 -53 -78 -53h-162l-145 -694q-16 -72 -76 -72h-205q-49 0 -49 43q0 17 6 41l146 682h-361z
" />
    <glyph glyph-name="f_h" unicode="fh" horiz-adv-x="1931" 
d="M414 70q-8 -72 -76 -72h-205q-47 0 -47 43q0 17 6 41l144 682h-86q-58 0 -58 47q0 28 29 147q15 62 76 62h94l18 90q45 203 170 305q149 121 518 121q201 0 312 -18q69 -12 69 -70q0 -30 -10 -74l-84 -395q119 70 297 70q285 0 285 -183q0 -58 -19 -155l-137 -650
q-15 -63 -68 -63h-212q-48 0 -48 43q0 14 4 35l121 569q11 47 11 78q0 61 -105 61q-53 0 -108 -16q-34 -6 -56 -25q-18 -16 -28 -65l-129 -617q-12 -63 -66 -63h-211q-51 0 -51 43q0 17 6 41l250 1184q-41 6 -115 6q-164 0 -215 -55q-42 -49 -59 -125l-15 -72h158
q55 0 55 -51q0 -43 -28 -152q-17 -53 -78 -53h-162z" />
    <glyph glyph-name="f_j" unicode="fj" horiz-adv-x="1331" 
d="M414 70q-12 -72 -76 -72h-205q-47 0 -47 43q0 17 6 41l144 682h-86q-58 0 -58 47q0 28 29 147q15 62 76 62h94l18 92q45 223 168 313q157 113 393 113q97 0 97 -61q0 -62 -17 -136q-10 -51 -76 -61q-163 -21 -196 -63q-32 -39 -47 -123l-15 -74h615q51 0 51 -45
q0 -21 -10 -60l-197 -923q-50 -230 -149 -328q-61 -61 -176 -102t-246 -41q-40 0 -55 15q-14 14 -19 48q-4 36 -4 113q0 65 74 80q128 22 174 53q54 38 76 154l163 780h-352zM1352 1382q0 -34 -15 -84q-15 -48 -43 -75q-52 -47 -133 -47q-141 0 -141 124q0 105 49 154
q53 53 137 53q146 0 146 -125z" />
    <glyph glyph-name="f_k" unicode="fk" horiz-adv-x="1894" 
d="M414 70q-8 -72 -76 -72h-205q-47 0 -47 43q0 17 6 41l144 682h-86q-58 0 -58 47q0 28 29 147q15 62 76 62h94l18 90q45 203 170 305q149 121 518 121q201 0 312 -18q69 -12 69 -70q0 -30 -10 -74l-143 -672h71q68 0 103 46l184 231q37 45 88 45q197 0 225 -12
q23 -11 23 -37q0 -21 -33 -64l-293 -350q48 -103 176 -448q13 -37 13 -64q0 -28 -39 -43q-37 -12 -236 -12q-52 0 -67 45l-131 358q-15 37 -74 37h-66l-79 -373q-15 -63 -66 -63h-209q-53 0 -53 41q0 1 6 45l252 1182q-41 6 -115 6q-164 0 -215 -55q-42 -49 -59 -125
l-15 -72h158q55 0 55 -51q0 -43 -28 -152q-17 -53 -78 -53h-162z" />
    <glyph glyph-name="uni0162_h" unicode="&#x162;h" horiz-adv-x="2392" 
d="M539 -98q161 -16 161 -174q0 -155 -89 -218t-255 -63q-63 0 -96 10q-25 7 -37 19q-11 11 -12 32q0 17 12 74q15 49 66 49q24 0 53 -4q22 -2 53 -2q41 0 57 16q15 15 15 54q0 41 -47 41h-39q-47 0 -47 41q0 9 20 73l47 148h-18q-51 0 -51 49q0 15 6 39l231 1075h-319
q-51 0 -51 37q0 35 34 186q8 35 23 49q14 13 47 13h1141l8 27q16 59 74 59h190q58 0 58 -49q0 -3 -5 -35l-100 -469q119 70 295 70q287 0 287 -185q0 -56 -19 -153l-137 -650q-15 -63 -70 -63h-210q-50 0 -50 43q0 9 7 35l120 569q9 41 9 78q0 61 -103 61q-65 0 -108 -14
q-35 -12 -56 -27q-16 -14 -26 -65l-129 -617q-12 -63 -68 -63h-211q-51 0 -51 43q0 11 6 41l229 1079h-477l-235 -1095q-12 -68 -70 -68h-35z" />
    <glyph glyph-name="uni021A_h" unicode="&#x21a;h" horiz-adv-x="2392" 
d="M672 66q-12 -68 -70 -68h-219q-51 0 -51 49q0 15 6 39l231 1075h-319q-51 0 -51 37q0 35 34 186q8 35 23 49q14 13 47 13h1141l8 27q16 59 74 59h190q58 0 58 -49q0 -3 -5 -35l-100 -469q119 70 295 70q287 0 287 -185q0 -56 -19 -153l-137 -650q-15 -63 -70 -63h-210
q-50 0 -50 43q0 9 7 35l120 569q9 41 9 78q0 61 -103 61q-65 0 -108 -14q-35 -12 -56 -27q-16 -14 -26 -65l-129 -617q-12 -63 -68 -63h-211q-51 0 -51 43q0 11 6 41l229 1079h-477zM432 -96h84q64 0 64 -64q0 -43 -17 -100q-43 -141 -168 -270q-41 -45 -80 -45
q-30 0 -59 20q-35 21 -35 49q0 24 27 64q67 102 90 256q12 90 94 90z" />
    <glyph glyph-name=".notdef" horiz-adv-x="1026" 
d="M0 0v1448h1026v-1448h-1026zM514 817l348 526h-698zM573 725l353 -526v1052zM164 102h698l-348 529zM102 1251v-1052l351 526z" />
    <glyph glyph-name=".null" horiz-adv-x="0" 
 />
    <glyph glyph-name="nonmarkingreturn" horiz-adv-x="681" 
 />
    <glyph glyph-name="space" unicode=" " horiz-adv-x="448" 
 />
    <glyph glyph-name="exclam" unicode="!" horiz-adv-x="618" 
d="M514 590q-21 -78 -111 -78h-88q-90 0 -90 68q0 28 11 77q116 665 120 686q12 54 35 79q22 24 74 24h170q80 0 80 -74q0 -30 -201 -782zM477 215q0 -42 -16 -97t-47 -89q-52 -54 -150 -54q-160 0 -160 148q0 103 60 172q55 61 153 61q160 0 160 -141z" />
    <glyph glyph-name="quotedbl" unicode="&#x22;" horiz-adv-x="815" 
d="M412 922q-12 -42 -34 -60q-20 -16 -61 -16h-36q-37 0 -51 11q-15 12 -15 46q0 23 8 76q4 24 66 383q11 54 34 79q24 25 70 25h66q78 0 78 -57q0 -31 -11 -70q-22 -97 -114 -417zM788 922q-12 -45 -32 -60q-20 -16 -60 -16h-34q-39 0 -53 11q-15 12 -15 46q0 23 8 76
q30 181 66 383q11 58 33 80q24 24 73 24h64q77 0 77 -57q0 -34 -10 -70q-17 -67 -117 -417z" />
    <glyph glyph-name="numbersign" unicode="#" horiz-adv-x="1218" 
d="M360 27q-15 -64 -63 -64q-70 0 -89 10q-20 11 -20 37q0 14 13 58l73 290h-124q-58 0 -58 50q0 32 17 157q11 58 69 58h164l39 155h-133q-58 0 -58 49q0 36 17 158q11 57 67 57h175l81 320q6 31 21 43t51 12q58 0 80 -8q20 -7 20 -31q0 -18 -10 -57l-71 -279h245l82 318
q7 29 24 44q14 13 50 13q58 0 80 -8q20 -7 20 -31q0 -20 -10 -59l-72 -277h125q56 0 56 -49q0 -43 -15 -162q-4 -33 -19 -43q-14 -10 -46 -10h-168l-41 -155h135q57 0 57 -50q0 -26 -16 -161q-5 -30 -19 -42q-15 -12 -47 -12h-178l-84 -331q-15 -64 -63 -64q-70 0 -89 10
q-20 11 -20 37q0 9 13 58l73 290h-250zM553 778l-41 -155h248l41 155h-248z" />
    <glyph glyph-name="dollar" unicode="$" horiz-adv-x="1169" 
d="M618 -4l-32 -158q-11 -47 -49 -47h-131q-46 0 -46 35q0 6 1 10q0 2 1.5 6t2.5 7q2 10 2 12l28 129q-182 5 -305 49q-41 15 -41 61q0 53 37 146q21 51 76 51q30 0 84 -16q122 -31 276 -31q108 0 162 28q53 27 53 115q0 46 -25 74q-26 29 -98 53l-141 51q-133 49 -195 125
q-63 76 -63 197q0 434 473 485l33 152q15 55 59 55h125q41 0 41 -35q0 -25 -6 -49l-27 -121q134 -11 215 -34q48 -12 48 -62q0 -68 -29 -149q-17 -48 -66 -48q-27 0 -104 15q-119 22 -258 22q-166 0 -166 -137q0 -44 22 -73q22 -30 89 -54l147 -55q144 -55 208 -125
q62 -68 62 -186q0 -232 -115 -353t-348 -145z" />
    <glyph glyph-name="percent" unicode="%" horiz-adv-x="1804" 
d="M874 1167q0 -120 -43 -289q-44 -173 -116 -255q-92 -101 -269 -101q-146 0 -221 55q-73 54 -73 197q0 123 36 267q38 152 105 237q94 121 289 121q149 0 221 -45q71 -44 71 -187zM647 1141q0 47 -19 63q-20 17 -65 17q-67 0 -96 -54q-37 -66 -63 -183q-27 -122 -27 -189
q0 -55 19 -75q20 -22 65 -22q67 0 98 54t59 194q29 143 29 195zM561 -29q-23 -39 -59 -39q-7 0 -62 5q-28 1 -28 22q0 14 20 43l918 1409q29 45 65 45q41 0 66 -4q24 -2 24 -22q0 -19 -22 -48zM1767 627q0 -120 -43 -291q-44 -173 -116 -254q-90 -100 -271 -100
q-147 0 -221 54t-74 197q0 118 37 266t107 238q94 121 287 121q150 0 222 -45t72 -186zM1538 600q0 48 -18 64q-17 16 -64 16q-70 0 -100 -53q-33 -61 -60 -184q-26 -117 -26 -189q0 -55 19 -75q19 -21 63 -21q68 0 98 53t59 195q29 143 29 194z" />
    <glyph glyph-name="ampersand" unicode="&#x26;" horiz-adv-x="1513" 
d="M1012 92q-160 -119 -424 -119q-246 0 -371 104t-125 281q0 176 84 277q83 99 277 178q-86 118 -86 262q0 200 133 299q134 99 362 99q154 0 240 -23q53 -12 53 -57q0 -83 -27 -162q-12 -37 -61 -37q-20 0 -90 8q-74 10 -146 10q-149 0 -149 -122q0 -81 113 -218
q144 -180 280 -331q30 59 37 104q14 63 16 90q8 74 70 80q31 4 127 4q90 0 90 -67q0 -50 -6 -88q-18 -109 -61 -203q-43 -96 -91 -148q4 -5 29 -33t45 -51q66 -75 78 -92q27 -33 27 -67q0 -52 -76 -64q-83 -16 -184 -16q-70 0 -107 37q-49 52 -57 65zM858 291
q-132 148 -274 336q-156 -66 -156 -209q0 -85 59 -134q62 -51 160 -51q136 0 211 58z" />
    <glyph glyph-name="quotesingle" unicode="'" horiz-adv-x="438" 
d="M412 922q-15 -45 -35 -60q-20 -16 -60 -16h-36q-37 0 -51 11q-15 12 -15 46q0 23 8 76q30 181 66 383q11 54 34 79q24 25 70 25h66q78 0 78 -57q0 -31 -11 -70q-30 -135 -114 -417z" />
    <glyph glyph-name="parenleft" unicode="(" horiz-adv-x="694" 
d="M862 1450q-210 -151 -359 -466q-151 -319 -151 -673q0 -318 156 -520q14 -17 14 -37q0 -25 -28 -49t-50 -24q-26 0 -73 30q-109 68 -196 240q-87 173 -87 409q0 176 42 351q42 176 122 336q79 158 206 291t283 206q71 31 93 31q28 0 43 -23q20 -29 20 -49q0 -26 -35 -53z
" />
    <glyph glyph-name="parenright" unicode=")" horiz-adv-x="692" 
d="M-109 -195q213 153 362 467q148 312 148 672q0 317 -157 522q-13 16 -13 35q0 21 31 49q25 25 45 25q26 0 74 -31q108 -67 196 -238q89 -173 89 -411q0 -235 -72 -465q-72 -231 -224 -427q-153 -198 -360 -294q-60 -28 -88 -28q-30 0 -45 22q-20 26 -20 49q0 29 34 53z
" />
    <glyph glyph-name="asterisk" unicode="*" horiz-adv-x="866" 
d="M522 895l-137 -150q-24 -24 -55 -24q-30 0 -80 51q-27 27 -27 55q0 25 29 54q47 45 156 139q-114 41 -181 76q-49 27 -49 69q0 25 27 72q27 41 69 41q10 0 60 -18q147 -83 149 -84q4 110 15 190q4 37 20 54q16 18 57 18q27 0 66 -11q51 -15 51 -59q0 -20 -8 -55
q-12 -66 -37 -164q128 32 160 37q30 6 65 6q48 0 60 -59q6 -33 6 -74q0 -51 -64 -62q-101 -13 -200 -20q64 -102 104 -174q10 -17 10 -47q0 -35 -40 -56q-43 -26 -80 -26q-40 0 -58 41q-56 107 -88 180z" />
    <glyph glyph-name="plus" unicode="+" horiz-adv-x="1435" 
d="M762 137q-12 -65 -78 -65h-72q-65 0 -65 57q0 16 4 37l70 332h-349q-63 0 -63 59q0 35 12 86q12 66 76 66h358l74 360q12 66 76 66h78q65 0 65 -60q0 -1 -6 -39l-65 -327h344q67 0 67 -60q0 -21 -14 -84q-12 -67 -78 -67h-360z" />
    <glyph glyph-name="comma" unicode="," horiz-adv-x="530" 
d="M190 340h103q88 0 88 -80q0 -118 -100 -297t-213 -274q-62 -51 -95 -51q-36 0 -79 34q-41 33 -41 64q0 29 38 67q67 68 119 186q53 120 74 255q7 49 33 73q25 23 73 23z" />
    <glyph glyph-name="hyphen" unicode="-" horiz-adv-x="712" 
d="M565 422h-440q-51 0 -51 41q0 23 32 164q15 55 74 55h438q54 0 54 -41q0 -17 -35 -166q-7 -32 -25 -43q-16 -10 -47 -10z" />
    <glyph glyph-name="period" unicode="." horiz-adv-x="530" 
d="M401 215q0 -43 -16 -98q-17 -58 -47 -88q-52 -54 -150 -54q-159 0 -159 148q0 106 57 172q52 61 156 61q159 0 159 -141z" />
    <glyph glyph-name="slash" unicode="/" horiz-adv-x="847" 
d="M227 -145q-21 -64 -71 -64q-76 0 -119 6q-37 1 -37 35q0 15 14 51l629 1602q21 55 66 55q73 0 118 -6q37 -6 37 -39q0 -18 -16 -57z" />
    <glyph glyph-name="zero" unicode="0" horiz-adv-x="1208" 
d="M1223 1030q0 -191 -68 -472q-68 -280 -182 -417q-139 -168 -424 -168q-232 0 -345 88q-114 89 -114 320q0 190 58 435t167 392q152 201 451 201q119 0 190 -14q76 -15 141 -54q65 -40 95 -115q31 -79 31 -196zM889 993q0 82 -34 115q-35 33 -118 33q-117 0 -172 -99
q-56 -106 -99 -309q-44 -208 -44 -321q0 -98 35 -136q33 -36 114 -36q65 0 103 19q39 19 69 75q53 99 99 329q47 237 47 330z" />
    <glyph glyph-name="one" unicode="1" horiz-adv-x="1208" 
d="M872 0h-649q-51 0 -51 41q0 8 29 170q10 55 73 55h168l172 801l-163 -55q-22 -11 -50 -11t-39 31q-47 146 -47 164q0 34 47 51l265 99q99 38 192 38h21q137 0 137 -112q0 -39 -8 -82l-199 -924h152q53 0 53 -41q0 -33 -33 -172q-7 -32 -23 -43q-14 -10 -47 -10z" />
    <glyph glyph-name="two" unicode="2" horiz-adv-x="1208" 
d="M973 0h-832q-64 0 -91 32t-27 72q0 136 69 189q45 34 239 169q171 119 283 206q70 55 99 84q36 36 65 93q31 60 31 124q0 88 -49 130q-50 42 -156 42q-80 0 -168 -17q-5 -1 -16.5 -2.5t-15.5 -2.5q-3 -1 -15 -2.5t-17 -2.5q-18 -2 -22 -2q-36 0 -43 37q-22 122 -22 147
q0 50 63 68q159 45 387 45q424 0 424 -342q0 -151 -46 -255q-48 -107 -157 -202q-137 -119 -483 -338q162 2 549 2q53 0 53 -47q0 -28 -31 -172q-12 -55 -71 -55z" />
    <glyph glyph-name="three" unicode="3" horiz-adv-x="1208" 
d="M817 727q128 -15 184 -77q58 -64 58 -185q0 -260 -148 -375q-150 -117 -485 -117q-214 0 -328 39q-41 17 -41 60q0 45 39 153q15 41 58 41q9 0 73 -10q77 -16 228 -16q166 0 223 63q47 53 47 154q0 63 -48 90q-47 26 -167 28q-104 0 -104 97q0 82 27 127q27 44 104 49
q156 10 206 43q50 30 50 135q0 57 -41 86t-144 29q-92 0 -170 -15q-44 -10 -88 -10q-28 0 -35 37q-26 103 -26 147q0 51 63 66q162 43 373 43q222 0 310 -77q87 -76 87 -216q0 -166 -70 -260t-235 -129z" />
    <glyph glyph-name="four" unicode="4" horiz-adv-x="1208" 
d="M924 61q-15 -63 -74 -63h-184q-52 0 -52 49q0 16 7 51l45 199h-455q-88 0 -118 32q-30 31 -30 87q0 88 89 207l530 708q44 60 102 60q142 0 201 -7q43 -4 43 -36q0 -30 -18 -54l-551 -723h266l43 199q15 72 72 72h190q47 0 47 -45q0 -21 -8 -56l-37 -170h94q56 0 56 -47
q0 -25 -37 -180q-11 -47 -70 -47h-102z" />
    <glyph glyph-name="five" unicode="5" horiz-adv-x="1208" 
d="M539 862q73 12 184 12q379 0 379 -301q0 -139 -29 -243q-29 -103 -99 -187q-70 -83 -201 -127q-129 -43 -320 -43q-246 0 -347 29q-40 12 -40 64q0 24 32 151q12 47 62 47q19 0 88 -10q88 -14 215 -14q154 0 222 52q69 52 69 183q0 76 -51 107q-50 30 -148 30
q-68 0 -133 -4t-94 -4q-107 0 -107 98q0 31 31 152l119 455q22 75 75 75h680q52 0 52 -38q0 -48 -33 -183q-12 -55 -78 -55h-467z" />
    <glyph glyph-name="six" unicode="6" horiz-adv-x="1208" 
d="M492 805q102 84 290 84q359 0 359 -305q0 -312 -160 -475q-134 -136 -438 -136q-230 0 -332 104q-102 103 -102 312q0 203 68 445q69 245 192 380q175 195 516 195q195 0 276 -29q39 -12 39 -57q0 -59 -43 -160q-15 -37 -55 -37q-30 0 -88 11q-67 8 -162 8
q-173 0 -256 -98q-60 -67 -104 -242zM422 373q0 -73 37 -107q38 -35 125 -35q144 0 194 86q45 73 45 185q0 133 -157 133q-121 0 -174 -47q-23 -21 -37 -47q-33 -67 -33 -168z" />
    <glyph glyph-name="seven" unicode="7" horiz-adv-x="1208" 
d="M805 1110q-125 0 -253 -1t-319 -1q-59 0 -59 43q0 39 29 178q12 55 69 55h791q154 0 154 -104t-72 -227l-572 -992q-39 -69 -100 -69q-93 0 -190 10q-72 6 -72 55q0 31 29 84z" />
    <glyph glyph-name="eight" unicode="8" horiz-adv-x="1208" 
d="M913 727q213 -51 213 -256q0 -256 -145 -377t-463 -121q-240 0 -352 88q-113 89 -113 244q0 175 88 287q89 112 252 141q-87 22 -131 89q-43 65 -43 155q0 432 545 432q450 0 450 -303q0 -319 -301 -379zM786 453q0 129 -168 129q-107 0 -171 -55q-62 -53 -62 -158
q0 -140 172 -140q229 0 229 224zM891 1034q0 113 -150 113q-200 0 -200 -186q0 -117 145 -117q101 0 153 49t52 141z" />
    <glyph glyph-name="nine" unicode="9" horiz-adv-x="1208" 
d="M809 582q-102 -84 -289 -84q-180 0 -269 83t-89 236q0 295 162 459q130 133 432 133q225 0 329 -103q105 -104 105 -311q0 -202 -66 -448q-66 -248 -188 -381q-173 -193 -522 -193q-202 0 -289 29q-37 12 -37 57q0 49 39 162q12 39 53 39q20 0 94 -12q63 -10 156 -10
q190 0 275 98q59 66 104 246zM877 1008q0 143 -164 143q-140 0 -193 -86q-47 -73 -47 -180q0 -137 162 -137q118 0 170 47q24 21 39 49q33 66 33 164z" />
    <glyph glyph-name="colon" unicode=":" horiz-adv-x="571" 
d="M430 215q0 -42 -16 -97t-47 -89q-52 -54 -150 -54q-160 0 -160 148q0 103 60 172q52 61 151 61q162 0 162 -141zM561 893q0 -125 -63 -188q-52 -52 -152 -52q-158 0 -158 148q0 105 58 172q50 59 153 59q162 0 162 -139z" />
    <glyph glyph-name="semicolon" unicode=";" horiz-adv-x="571" 
d="M561 893q0 -125 -63 -188q-52 -52 -152 -52q-158 0 -158 148q0 105 58 172q50 59 153 59q162 0 162 -139zM231 340h103q88 0 88 -80q0 -118 -100 -297t-213 -274q-62 -51 -95 -51q-37 0 -80 34q-40 33 -40 64q0 29 38 67q67 68 119 186q53 120 74 255q7 49 33 73
q25 23 73 23z" />
    <glyph glyph-name="less" unicode="&#x3c;" horiz-adv-x="1435" 
d="M1137 123q-12 -57 -54 -57q-19 0 -41 12l-723 381q-49 24 -49 71q0 23 19 129q8 57 61 80l871 391q22 9 41 9q45 0 45 -49q0 -37 -17 -125q-8 -54 -65 -78l-717 -301l594 -289q47 -23 47 -74q0 -40 -12 -100z" />
    <glyph glyph-name="equal" unicode="=" horiz-adv-x="1435" 
d="M1229 340q-11 -66 -78 -66h-924q-65 0 -65 58q0 21 14 88q15 63 78 63h924q65 0 65 -57q0 -8 -14 -86zM1323 786q-10 -65 -78 -65h-923q-66 0 -66 57q0 22 14 86q16 66 78 66h924q65 0 65 -58q0 -12 -14 -86z" />
    <glyph glyph-name="greater" unicode="&#x3e;" horiz-adv-x="1435" 
d="M381 1092q12 57 49 57q20 0 41 -12l727 -381q47 -23 47 -72q0 -27 -16 -129q-11 -56 -64 -80l-870 -391q-19 -8 -39 -8q-47 0 -47 49q0 39 16 125q7 55 66 78l717 301l-592 289q-51 24 -51 73q0 31 16 101z" />
    <glyph glyph-name="question" unicode="?" horiz-adv-x="958" 
d="M510 512h-113q-65 0 -65 47q0 41 10 84q11 58 37 100q23 37 86 82q132 94 175 147q42 52 42 130q0 102 -143 102q-70 0 -144 -10l-36 -4t-25 -3t-8 -1q-45 0 -60 55q-14 52 -14 119q1 59 78 80q131 33 307 33q399 0 399 -275q0 -155 -65 -247q-67 -94 -221 -177
q-118 -62 -148 -151q-18 -58 -27 -78q-12 -33 -65 -33zM588 215q0 -39 -17 -98q-16 -56 -47 -90q-52 -52 -149 -52q-160 0 -160 148q0 104 59 172q55 61 154 61q160 0 160 -141z" />
    <glyph glyph-name="at" unicode="@" horiz-adv-x="1656" 
d="M981 225q-43 -55 -114 -82q-68 -26 -134 -26q-264 0 -264 258q0 129 62 272q64 147 163 230q114 96 293 96q133 0 246 -33q53 -15 53 -59q0 -23 -14 -90l-101 -390q-16 -58 -16 -86q0 -45 41 -45q36 0 76 29q93 63 145 191q53 132 53 268q0 236 -118 338t-361 102
q-303 0 -501 -219q-197 -218 -197 -549q0 -260 149 -402q151 -143 416 -143q239 0 420 62q48 16 65 16q31 0 46 -53q6 -16 6 -39q-5 -27 -49 -45q-227 -88 -494 -88q-338 0 -530 177q-193 178 -193 509q0 244 104 448t307 331q201 126 459 126q302 0 466 -140
q165 -141 165 -429q0 -155 -60 -302q-59 -146 -175 -243q-114 -96 -254 -96q-159 0 -160 106zM995 408l90 346q7 33 7 45q0 21 -31 26q-36 9 -80 9q-118 0 -180 -68q-62 -70 -101 -167q-38 -95 -38 -185q0 -148 126 -148q91 0 152 47q23 17 33 37q9 14 22 58z" />
    <glyph glyph-name="A" unicode="A" horiz-adv-x="1370" 
d="M440 346l-147 -278q-23 -43 -38 -59q-15 -15 -48 -15q-212 0 -248 10q-31 8 -31 37q0 32 25 80l610 1128q66 124 117 164q52 41 172 41h78q111 0 152 -44t53 -150l122 -1123q5 -50 5 -69q0 -46 -43 -62q-24 -12 -232 -12q-36 0 -50 17t-19 59l-27 276h-451zM575 618h304
q-28 335 -35 560z" />
    <glyph glyph-name="B" unicode="B" horiz-adv-x="1331" 
d="M522 0h-213q-109 0 -156 40q-49 41 -49 122q0 53 11 102l202 946q27 126 93 181q65 55 186 55h190q147 0 246 -16q140 -21 213 -94q72 -72 72 -185q0 -314 -266 -397q99 -22 154 -94t55 -175q0 -149 -72 -265t-215 -171q-123 -49 -451 -49zM528 614l-55 -254
q-6 -24 -6 -43q0 -47 65 -47h125q95 0 148 21q108 45 108 186q0 81 -57 111q-51 26 -176 26h-152zM584 872h125q123 0 163 17q105 39 105 172q0 87 -72 110q-31 11 -110 11h-86q-61 0 -76 -72z" />
    <glyph glyph-name="C" unicode="C" horiz-adv-x="1175" 
d="M467 551q0 -162 62 -234q63 -73 196 -73q107 0 186 10q74 10 93 10q40 0 51 -45q14 -73 14 -145q0 -17 -16 -32q-19 -17 -41 -24q-164 -45 -412 -45q-485 0 -485 516q0 236 82 472q83 238 245 372q169 140 488 140q158 0 280 -25q56 -12 56 -64q0 -78 -45 -172
q-12 -28 -47 -28q-30 0 -74 6q-73 12 -178 12q-186 0 -281 -104q-81 -88 -128 -248q-46 -156 -46 -299z" />
    <glyph glyph-name="D" unicode="D" horiz-adv-x="1413" 
d="M477 0h-168q-109 0 -156 40q-49 41 -49 122q0 45 11 94l200 944q53 246 283 246h166q227 0 373 -49q125 -40 197 -151q71 -110 71 -267q0 -154 -24 -289q-25 -140 -78 -265q-54 -128 -159 -228t-247 -146q-151 -51 -420 -51zM481 399q-12 -49 -12 -65q0 -47 63 -47h93
q101 0 182 37q129 60 191 241q63 183 63 367q0 147 -100 196q-61 33 -185 33h-67q-65 0 -80 -74z" />
    <glyph glyph-name="E" unicode="E" horiz-adv-x="1134" 
d="M954 0h-645q-109 0 -156 40q-49 41 -49 122q0 45 11 94l202 952q27 124 95 181q67 57 188 57h580q61 0 61 -45q0 -27 -39 -189q-12 -51 -74 -51h-419q-65 0 -80 -74l-43 -198h428q53 0 53 -45q0 -38 -39 -189q-15 -51 -65 -51h-437l-45 -203q-10 -44 -10 -67
q0 -49 64 -49h475q55 0 55 -41q0 -49 -39 -193q-15 -51 -72 -51z" />
    <glyph glyph-name="F" unicode="F" horiz-adv-x="1101" 
d="M408 61q-15 -63 -74 -63h-215q-49 0 -49 47q0 3 6 41l241 1122q27 124 95 181q67 57 188 57h563q60 0 60 -43q0 -35 -39 -191q-15 -51 -74 -51h-401q-65 0 -80 -74l-51 -243h401q53 0 53 -45q0 -23 -37 -189q-12 -49 -67 -49h-412z" />
    <glyph glyph-name="G" unicode="G" horiz-adv-x="1359" 
d="M1174 145q-12 -56 -31 -75q-17 -17 -64 -35q-160 -62 -467 -62q-241 0 -369 125t-128 369q0 261 88 510q89 251 272 379q166 117 475 117q186 0 314 -39q49 -12 49 -58q0 -21 -16 -80q-16 -58 -35 -94q-18 -33 -54 -33q-20 0 -61 9q-137 24 -219 24q-188 0 -283 -98
q-88 -89 -133 -248q-45 -158 -45 -305q0 -160 63 -234q63 -73 197 -73q92 0 162 20q36 12 43 49l43 199h-197q-43 0 -43 37t39 199q11 47 57 47h422q52 0 52 -41q0 -6 -7 -41z" />
    <glyph glyph-name="H" unicode="H" horiz-adv-x="1454" 
d="M408 61q-15 -63 -74 -63h-215q-49 0 -49 47q0 3 6 41l276 1294q15 68 74 68h213q53 0 53 -45q0 -13 -10 -62l-98 -452h463l106 491q15 68 74 68h213q53 0 53 -45q0 -13 -10 -62l-275 -1280q-15 -63 -73 -63h-215q-50 0 -50 47q0 1 1 5.5t2.5 15t3.5 20.5l112 518h-465z
" />
    <glyph glyph-name="I" unicode="I" horiz-adv-x="655" 
d="M408 61q-15 -63 -74 -63h-215q-49 0 -49 47q0 3 6 41l276 1294q15 68 74 68h213q53 0 53 -45q0 -13 -10 -62z" />
    <glyph glyph-name="J" unicode="J" horiz-adv-x="671" 
d="M698 1341l-247 -1155q-44 -214 -160 -327q-69 -65 -189 -111q-124 -47 -235 -47q-62 0 -72 59t-10 123q0 67 70 78q95 12 172 57q62 41 86 154l256 1208q15 68 73 68h213q54 0 54 -45q0 -9 -11 -62z" />
    <glyph glyph-name="K" unicode="K" horiz-adv-x="1347" 
d="M408 61q-15 -63 -74 -63h-215q-49 0 -49 47q0 3 6 41l276 1294q15 68 74 68h213q53 0 53 -45q0 -13 -10 -62l-98 -452h84q69 0 102 43l340 465q40 55 96 55q129 0 201 -8q51 -4 51 -55q0 -18 -35 -64l-448 -594q61 -143 237 -608q19 -54 19 -70q0 -45 -62 -51
q-73 -6 -229 -6q-45 0 -63 49l-187 516q-17 41 -74 41h-92z" />
    <glyph glyph-name="L" unicode="L" horiz-adv-x="1150" 
d="M909 0h-600q-109 0 -156 40q-49 41 -49 122q0 45 11 94l237 1116q15 76 80 76h207q53 0 53 -45q0 -10 -10 -64l-201 -936q-8 -40 -8 -67q0 -49 64 -49h424q55 0 55 -41t-37 -195q-12 -51 -70 -51z" />
    <glyph glyph-name="M" unicode="M" horiz-adv-x="1746" 
d="M403 63q-15 -65 -73 -65h-213q-47 0 -47 49q0 4 8 47l241 1125q11 53 26 90q13 34 43 71q31 38 82 56q52 18 128 18h72q54 0 87 -10q32 -10 54 -24q20 -13 32 -51q11 -34 16 -66q5 -34 11 -97q49 -475 52 -514q69 145 262 512q39 74 59 107q17 28 56 72q37 42 85 57
q43 14 115 14h80q182 0 182 -129q0 -46 -16 -129l-242 -1122q-16 -76 -80 -76h-213q-45 0 -45 49q0 6 9 55q146 690 225 1016q-59 -122 -400 -743q-41 -79 -76 -108t-98 -29h-26q-56 0 -78 29q-24 31 -31 100q-48 464 -67 749q-27 -146 -220 -1053z" />
    <glyph glyph-name="N" unicode="N" horiz-adv-x="1511" 
d="M399 63q-16 -65 -71 -65h-203q-55 0 -55 53q0 10 8 45l244 1133q24 116 85 171q60 54 181 54h98q94 0 128 -37q33 -36 50 -121q117 -579 164 -882q68 356 199 950q18 84 82 84h188q51 0 51 -51q0 -15 -8 -58l-248 -1169q-22 -105 -80 -146q-56 -40 -145 -40h-76
q-103 0 -147 39q-43 39 -64 143q-151 752 -172 901q-32 -182 -209 -1004z" />
    <glyph glyph-name="O" unicode="O" horiz-adv-x="1441" 
d="M1432 1038q0 -203 -70 -474q-68 -265 -199 -406q-170 -185 -501 -185q-124 0 -218 20q-95 20 -170 68q-77 49 -118 144q-41 96 -41 233q0 221 67 461q67 239 199 385q176 191 493 191q125 0 219 -16q89 -15 172 -59t125 -134t42 -228zM1079 983q0 128 -52 174
q-53 47 -175 47q-143 0 -225 -106q-75 -93 -118 -287q-44 -197 -44 -330q0 -137 51 -188t168 -51q87 0 144 24q56 23 102 99q62 99 106 302q43 199 43 316z" />
    <glyph glyph-name="P" unicode="P" horiz-adv-x="1308" 
d="M408 61q-15 -63 -78 -63h-211q-49 0 -49 49q0 1 0.5 3t1 5.5t0.5 6.5q1 8 5 24q3 12 3 16l231 1094q30 136 91 194q59 56 192 56h170q300 0 422 -66q149 -76 149 -278q0 -413 -352 -512q-139 -39 -369 -39h-102zM567 811h115q126 0 176 20q129 45 129 197q0 92 -72 125
q-46 21 -161 21h-52q-32 0 -48 -16t-23 -50z" />
    <glyph glyph-name="Q" unicode="Q" horiz-adv-x="1441" 
d="M1432 1038q0 -203 -70 -474q-68 -265 -199 -406q-16 -18 -49 -49l227 -138q27 -15 27 -41q0 -29 -113 -192q-17 -25 -38 -25q-15 0 -43 17l-404 247q-61 -4 -108 -4q-124 0 -218 20q-95 20 -170 68q-77 49 -118 144q-41 96 -41 233q0 221 67 461q67 239 199 385
q176 191 493 191q125 0 219 -16q89 -15 172 -59t125 -134t42 -228zM1079 983q0 128 -52 174q-53 47 -175 47q-143 0 -225 -106q-75 -93 -118 -287q-44 -197 -44 -330q0 -137 51 -188t168 -51q87 0 144 24q56 23 102 99q62 99 106 302q43 199 43 316z" />
    <glyph glyph-name="R" unicode="R" horiz-adv-x="1310" 
d="M410 72q-17 -74 -70 -74h-213q-55 0 -55 53q0 17 8 47l235 1106q27 127 94 185q66 57 199 57h152q260 0 389 -62q151 -76 151 -280q0 -389 -292 -506l166 -475q12 -33 12 -68q0 -44 -43 -51q-43 -10 -225 -10q-51 0 -66 49l-158 500q-46 -2 -110 -2h-74zM565 801h76
q138 0 197 22q118 46 118 213q0 87 -61 117q-52 23 -143 23h-45q-64 0 -76 -66z" />
    <glyph glyph-name="S" unicode="S" horiz-adv-x="1187" 
d="M827 842q157 -56 221 -129t64 -199q0 -283 -158 -412t-475 -129q-268 0 -416 54q-45 17 -45 65q0 52 39 148q24 59 80 59q8 0 26 -3q3 0 38 -8q6 -1 11.5 -2.5t9.5 -3t5 -1.5q143 -35 293 -35q112 0 171 35t59 129q0 50 -28 84q-26 31 -101 59l-148 53q-144 52 -210 132
t-66 210q0 525 624 525q206 0 350 -39q41 -12 41 -66q0 -60 -30 -151q-17 -52 -68 -52q-36 0 -98 15q-121 24 -277 24q-90 0 -138 -42t-48 -118q0 -49 25 -83q24 -32 94 -60z" />
    <glyph glyph-name="T" unicode="T" horiz-adv-x="1255" 
d="M672 66q-12 -68 -70 -68h-219q-51 0 -51 49q0 15 6 39l231 1075h-319q-51 0 -51 37q0 43 34 186q11 36 24 49t46 13h969q59 0 59 -39q0 -32 -41 -201q-10 -45 -67 -45h-316z" />
    <glyph glyph-name="U" unicode="U" horiz-adv-x="1404" 
d="M1454 1368l-170 -790q-39 -178 -67 -261q-28 -85 -78 -149q-80 -102 -209 -148q-130 -47 -336 -47q-82 0 -157 15q-80 16 -148 48q-74 35 -117 101q-43 67 -43 162q0 105 35 274l170 811q15 64 69 64h224q47 0 47 -43q0 -18 -8 -53l-179 -834q-14 -67 -14 -125
q0 -151 178 -151q148 0 211 63q58 53 88 199l187 880q11 64 67 64h205q49 0 49 -41q0 -20 -4 -39z" />
    <glyph glyph-name="V" unicode="V" horiz-adv-x="1335" 
d="M637 346q77 170 520 1032q39 74 98 74q167 0 236 -12q33 -8 33 -47q0 -27 -31 -80l-623 -1161q-26 -49 -39 -67q-18 -25 -41 -47q-26 -25 -66 -36q-36 -10 -93 -10h-99q-108 0 -149 45q-42 46 -49 137l-119 1145q-2 14 -2 43q0 59 41 76q41 14 244 14q32 0 47 -16
q13 -14 18 -58q65 -875 74 -1032z" />
    <glyph glyph-name="W" unicode="W" horiz-adv-x="1939" 
d="M1098 1055q-62 -161 -385 -889q-43 -96 -96 -135t-148 -39h-90q-168 0 -168 155q0 232 18 1164q0 43 7 78q12 48 65 53q79 10 231 10q60 0 60 -70q-1 -176 -25 -553q-23 -368 -37 -503q102 265 404 942q37 79 75 112q37 33 113 33h82q85 0 115 -28t31 -113q0 -45 1 -90
t1 -111q0 -436 -11 -747q71 221 388 1054q29 74 83 74q166 0 230 -10q33 -6 33 -41q0 -33 -27 -94l-465 -1141q-34 -87 -87 -131q-52 -43 -153 -43h-75q-107 0 -146 39t-39 137q0 664 15 887z" />
    <glyph glyph-name="X" unicode="X" horiz-adv-x="1351" 
d="M319 53q-47 -57 -98 -57q-232 0 -258 10q-26 7 -26 39q0 29 36 74l541 647l-256 561q-18 37 -18 62q0 39 43 51q37 10 235 10q58 0 80 -57l170 -402l322 398q56 63 104 63q206 0 252 -12q27 -6 27 -41q0 -25 -39 -72l-498 -600l285 -618q12 -33 12 -56q0 -42 -43 -49
q-59 -8 -232 -8q-31 0 -48 13q-16 12 -33 48l-195 441z" />
    <glyph glyph-name="Y" unicode="Y" horiz-adv-x="1263" 
d="M731 74q-12 -76 -72 -76h-217q-51 0 -51 51q0 10 8 53l101 488l-287 739q-16 39 -16 64q0 37 34 49q29 8 261 8q56 0 77 -61q116 -331 154 -467q92 150 338 464q52 64 104 64q238 0 262 -12q21 -8 21 -39q0 -23 -39 -70l-573 -731z" />
    <glyph glyph-name="Z" unicode="Z" horiz-adv-x="1251" 
d="M1053 0h-971q-113 0 -113 111q0 131 103 237l805 813h-603q-53 0 -53 51q0 35 29 162q18 72 82 72h852q133 0 133 -131q0 -135 -135 -271l-760 -759h672q65 0 65 -52q0 -47 -33 -178q-15 -55 -73 -55z" />
    <glyph glyph-name="bracketleft" unicode="[" horiz-adv-x="675" 
d="M434 -295h-379q-45 0 -45 41q0 23 6 47l359 1686q11 63 59 63h391q37 0 37 -29q0 -20 -14 -73q-8 -33 -53 -33h-183l-331 -1567h182q35 0 35 -28q0 -23 -11 -70q-10 -37 -53 -37z" />
    <glyph glyph-name="backslash" unicode="\" horiz-adv-x="923" 
d="M838 -123q6 -24 6 -45q0 -30 -41 -35q-30 -2 -103 -2q-28 0 -42 15t-21 47l-422 1583q-8 35 -8 53q0 39 43 43q30 2 108 2q41 0 56 -57z" />
    <glyph glyph-name="bracketright" unicode="]" horiz-adv-x="677" 
d="M319 1542h375q49 0 49 -41q0 -8 -8 -51l-354 -1681q-15 -64 -64 -64h-389q-37 0 -37 27q0 22 15 75q8 33 53 33h182l332 1567h-182q-37 0 -37 29q0 16 12 69q7 37 53 37z" />
    <glyph glyph-name="asciicircum" unicode="^" horiz-adv-x="1478" 
d="M1257 668q7 -21 7 -41q0 -54 -64 -54h-84q-64 0 -82 62l-141 502l-346 -516q-34 -48 -86 -48h-105q-63 0 -63 45q0 24 16 46l465 671q33 47 90 47h119q64 0 82 -61z" />
    <glyph glyph-name="underscore" unicode="_" horiz-adv-x="1009" 
d="M-88 -158h1008l-23 -94h-1008z" />
    <glyph glyph-name="grave" unicode="`" horiz-adv-x="403" 
d="M115 1229l-207 229q-25 28 -25 55q0 41 54 46q59 4 157 4q53 0 92 -60l152 -219q20 -26 20 -53q0 -33 -49 -39q-40 -4 -96 -4q-57 0 -98 41z" />
    <glyph glyph-name="a" unicode="a" horiz-adv-x="1126" 
d="M932 180q-15 -77 -49 -110q-33 -33 -90 -50q-158 -47 -396 -47q-358 0 -358 260q0 238 166 340q107 64 340 64q54 0 160 -8l6 26q8 35 8 58q0 65 -129 65q-122 0 -195 -14q-73 -12 -90 -12q-36 0 -47 47q-16 67 -16 127q0 54 69 75q155 48 355 48q77 0 151 -9
q59 -7 120 -29q57 -20 88 -69q30 -46 30 -119q0 -81 -21 -172zM662 416q-60 6 -115 6q-101 0 -144 -27q-51 -30 -51 -98q0 -90 113 -90q85 0 125 22q24 13 31 33q9 21 22 80z" />
    <glyph glyph-name="b" unicode="b" horiz-adv-x="1179" 
d="M57 190l269 1262q17 80 80 80h190q59 0 59 -49q0 -24 -4 -45l-98 -463q113 74 289 74q143 0 212 -74q68 -72 68 -227q0 -138 -45 -315q-45 -178 -129 -286q-77 -99 -189 -137q-110 -37 -288 -37q-231 0 -354 45q-70 23 -70 91q0 38 10 81zM414 326q-6 -24 -6 -47
q0 -34 38 -41q36 -9 78 -9q68 0 109 19q38 18 65 67q40 68 64 179q24 112 24 178q0 59 -26 85q-27 27 -92 27q-89 0 -142 -36q-26 -16 -34 -60z" />
    <glyph glyph-name="c" unicode="c" horiz-adv-x="948" 
d="M410 408q0 -177 163 -177q50 0 136 13l27 5q27 5 34 5q38 0 49 -47q15 -72 15 -144q0 -40 -56 -55q-125 -35 -299 -35q-195 0 -301 90t-106 271q0 166 60 336t183 270q136 109 385 109q148 0 236 -31q37 -15 37 -49q0 -20 -14 -78t-29 -88q-21 -37 -56 -37q-4 0 -65 8
q-74 10 -127 10q-115 0 -170 -59q-49 -49 -76 -143q-26 -91 -26 -174z" />
    <glyph glyph-name="d" unicode="d" horiz-adv-x="1181" 
d="M983 166q-7 -35 -27 -74q-23 -42 -90 -65q-148 -54 -395 -54q-399 0 -399 340q0 172 52 338q53 169 161 271q77 72 167 99q95 28 230 28q103 0 160 -23l90 426q17 80 78 80h190q62 0 62 -47q0 -1 -1 -6.5t-2.5 -17t-3.5 -23.5zM690 317l86 400q4 25 4 33q0 18 -16 28
q-28 15 -94 15q-98 0 -154 -58q-48 -51 -82 -160q-33 -106 -33 -202q0 -144 125 -144q72 0 117 17q20 7 31 26q9 15 16 45z" />
    <glyph glyph-name="e" unicode="e" horiz-adv-x="1083" 
d="M403 412q-4 -33 -4 -52q0 -74 45 -101q47 -28 138 -28q116 0 206 21q2 0 31 6t39 6q34 0 45 -39q23 -78 23 -133q0 -42 -47 -63q-124 -56 -387 -56q-420 0 -420 363q0 161 58 323q59 165 173 267q144 123 391 123q197 0 280 -74t83 -211q0 -141 -37 -270q-18 -54 -41 -70
q-18 -12 -53 -12h-523zM451 637h292q15 47 15 94t-23 70q-22 22 -86 22q-75 0 -125 -45q-49 -43 -73 -141z" />
    <glyph glyph-name="f" unicode="f" horiz-adv-x="737" 
d="M414 70q-8 -72 -76 -72h-205q-47 0 -47 43q0 17 6 41l144 682h-86q-58 0 -58 47q0 28 29 147q15 62 76 62h94l18 92q45 226 166 311q159 115 426 115q92 0 92 -68q0 -72 -14 -129q-10 -55 -78 -61q-103 -7 -148 -23q-47 -16 -75 -47q-35 -38 -47 -116l-15 -74h158
q55 0 55 -51q0 -43 -28 -152q-17 -53 -78 -53h-162z" />
    <glyph glyph-name="g" unicode="g" horiz-adv-x="1175" 
d="M621 6q-66 -33 -187 -33q-185 0 -274 86q-88 85 -88 269q0 158 57 331q57 172 164 267q78 68 166 95q93 28 227 28q247 0 395 -52q58 -23 58 -63q0 -11 -9 -70l-153 -739q-39 -189 -82 -287q-78 -173 -249 -245t-509 -72q-46 0 -64 12q-19 12 -20 45q-2 44 -2 129
q0 73 84 78q206 7 294 29q86 21 128 59q39 39 57 111zM694 326l82 385q4 21 4 30q0 25 -20 35q-31 17 -94 17q-109 0 -156 -58q-49 -64 -78 -164q-31 -109 -31 -196q0 -71 30 -106q29 -33 95 -33q87 0 123 20q20 7 31 31q7 12 14 39z" />
    <glyph glyph-name="h" unicode="h" horiz-adv-x="1196" 
d="M358 61q-16 -63 -65 -63h-213q-49 0 -49 43q0 17 6 41l289 1372q16 78 82 78h188q57 0 57 -49q0 -15 -2 -35l-102 -469q54 31 138 50q88 20 159 20q287 0 287 -185q0 -60 -21 -159l-137 -644q-15 -63 -68 -63h-211q-49 0 -49 43q0 14 4 35l121 569q10 43 10 76
q0 63 -104 63q-55 0 -109 -16q-40 -12 -55 -27q-17 -17 -27 -65z" />
    <glyph glyph-name="i" unicode="i" horiz-adv-x="579" 
d="M365 61q-15 -63 -70 -63h-209q-49 0 -49 43q0 20 6 49l186 868q15 64 70 64h213q45 0 45 -43q0 -20 -10 -59zM625 1382q0 -34 -15 -84q-15 -49 -41 -75q-52 -47 -133 -47q-143 0 -143 124q0 103 51 154q53 53 137 53q144 0 144 -125z" />
    <glyph glyph-name="j" unicode="j" horiz-adv-x="579" 
d="M348 -8q-50 -230 -149 -328q-61 -61 -176 -102t-246 -41q-41 0 -56 15q-13 13 -18 46q-4 36 -4 115q0 69 72 80q121 17 176 53q49 37 76 154l206 974q15 64 70 64h213q45 0 45 -43q0 -6 -10 -55zM625 1382q0 -34 -15 -84q-15 -49 -41 -75q-52 -47 -133 -47
q-143 0 -143 124q0 103 51 154q53 53 137 53q144 0 144 -125z" />
    <glyph glyph-name="k" unicode="k" horiz-adv-x="1163" 
d="M358 61q-15 -63 -65 -63h-209q-53 0 -53 41q0 1 6 45l293 1384q12 64 76 64h196q53 0 53 -47q0 -24 -4 -39l-157 -744h71q63 0 101 46l186 229q38 47 88 47q195 0 225 -12q23 -11 23 -37q0 -21 -33 -64l-297 -352q41 -89 180 -446q13 -37 13 -64q0 -28 -39 -43
q-33 -12 -238 -12q-50 0 -65 45l-131 358q-15 37 -76 37h-64z" />
    <glyph glyph-name="l" unicode="l" horiz-adv-x="647" 
d="M645 1438l-217 -1010q-14 -64 -14 -119q0 -39 21 -55t77 -27q47 -8 47 -61q0 -46 -27 -119q-18 -59 -94 -59q-360 0 -360 248q0 66 18 161l226 1055q17 80 79 80h189q61 0 61 -49q0 -1 -6 -45z" />
    <glyph glyph-name="m" unicode="m" horiz-adv-x="1787" 
d="M367 61q-17 -63 -68 -63h-211q-49 0 -49 43q0 19 6 43l160 750q18 96 104 131q213 84 502 84q147 0 219 -66q136 66 389 66q301 0 301 -193q0 -91 -20 -182l-129 -613q-15 -63 -68 -63h-211q-49 0 -49 43q0 15 6 45l119 559q10 53 10 74q0 65 -88 65q-64 0 -119 -18
q-19 -5 -43 -23q-14 -10 -20 -30q-9 -27 -16 -64l-125 -588q-15 -63 -66 -63h-213q-47 0 -47 43q0 19 6 49l119 555q10 53 10 74q0 65 -86 65q-70 0 -121 -18q-12 -5 -22.5 -10t-16 -8t-6.5 -3q-17 -12 -24 -49z" />
    <glyph glyph-name="n" unicode="n" horiz-adv-x="1200" 
d="M365 61q-17 -63 -68 -63h-211q-49 0 -49 43q0 19 6 43l160 750q18 96 104 131q213 84 522 84q304 0 304 -193q0 -88 -21 -182l-131 -613q-15 -63 -68 -63h-211q-49 0 -49 43q0 15 6 45l119 557q10 49 10 76q0 65 -100 65q-66 0 -117 -16q-24 -6 -49 -23q-18 -17 -24 -49z
" />
    <glyph glyph-name="o" unicode="o" horiz-adv-x="1153" 
d="M1100 711q0 -139 -47 -313q-46 -171 -138 -275q-127 -150 -403 -150q-99 0 -174 14q-74 14 -136 50q-65 38 -98 109q-32 70 -32 182q0 156 47 317q47 160 149 262q136 142 383 142q105 0 175 -12q75 -13 139 -44q67 -33 101 -103q34 -69 34 -179zM766 668q0 67 -31 93
q-29 25 -102 25q-92 0 -137 -67q-43 -63 -66 -174q-24 -114 -24 -185q0 -74 30 -101q31 -28 101 -28q89 0 139 64q38 50 64 177q26 128 26 196z" />
    <glyph glyph-name="p" unicode="p" horiz-adv-x="1202" 
d="M256 -418q-7 -35 -27 -50q-17 -13 -57 -13h-184q-60 0 -60 45q0 9 9 43l264 1235q12 55 24 76q20 38 90 65q66 26 213 46q149 20 260 20q185 0 260 -69q74 -68 74 -243q0 -131 -44 -307q-43 -172 -128 -280q-77 -99 -184 -138q-108 -39 -270 -39q-95 0 -152 23zM412 319
q-4 -25 -4 -40q0 -28 20 -35q27 -15 88 -15q82 0 121 21q40 22 70 78q31 58 56 174q23 108 23 164q0 65 -27 92q-26 26 -95 26q-63 0 -117 -22q-26 -12 -37 -27q-12 -15 -18 -43z" />
    <glyph glyph-name="q" unicode="q" horiz-adv-x="1181" 
d="M631 35q-92 -62 -230 -62q-153 0 -241 90q-88 89 -88 242q0 161 47 320q46 157 147 268q81 87 187 122q103 34 274 34q206 0 342 -50q70 -27 70 -81q0 -23 -9 -72l-270 -1262q-15 -65 -72 -65h-200q-56 0 -56 45q0 1 1 6.5t3.5 17.5t4.5 25zM692 334l80 362q6 30 6 52
q0 21 -16 28q-29 17 -88 17q-107 0 -158 -60q-55 -66 -84 -165q-31 -105 -31 -203q0 -136 125 -136q82 0 127 27q21 15 27 33q2 6 12 45z" />
    <glyph glyph-name="r" unicode="r" horiz-adv-x="815" 
d="M365 61q-17 -63 -68 -63h-215q-45 0 -45 43q0 9 6 47l156 729q12 59 31 86t65 55q61 37 183 63q131 28 233 28t147 -17q33 -15 33 -59q0 -88 -33 -160q-18 -39 -65 -39q-2 0 -64 2t-65 2q-83 0 -119 -16q-20 -6 -33 -25q-12 -18 -18 -53z" />
    <glyph glyph-name="s" unicode="s" horiz-adv-x="931" 
d="M635 606q117 -39 168 -95q53 -59 53 -149q0 -191 -113 -292q-109 -97 -350 -97q-262 0 -377 47q-32 15 -32 48q0 44 41 159q16 43 65 43q20 0 64 -12q123 -33 266 -33q74 0 98 29q19 25 19 53q0 22 -17 37q-15 14 -65 29l-115 35q-112 33 -172 90q-59 56 -59 155
q0 201 137 308q118 88 352 88q172 0 276 -29q41 -12 41 -51q0 -61 -32 -160q-11 -39 -60 -39q-27 0 -57 6q-111 21 -209 21q-64 0 -98 -23q-25 -19 -25 -59q0 -42 82 -70z" />
    <glyph glyph-name="t" unicode="t" horiz-adv-x="763" 
d="M555 760l-72 -328q-10 -44 -10 -90t29 -70q26 -21 119 -32q49 -6 49 -60t-25 -135q-16 -61 -80 -61q-204 1 -319 52q-113 50 -113 191q0 94 33 238l63 295h-92q-51 0 -51 43q0 29 31 155q15 62 76 62h98q0 15 53 215q21 70 78 70h180q53 0 53 -45q0 -29 -10 -78l-37 -162
h140q63 0 63 -51q0 -43 -29 -156q-15 -53 -77 -53h-150z" />
    <glyph glyph-name="u" unicode="u" horiz-adv-x="1200" 
d="M1006 180q-18 -96 -105 -131q-201 -76 -518 -76q-303 0 -303 197q0 89 20 180l129 608q15 64 68 64h211q49 0 49 -43q0 -15 -6 -45l-117 -545q-12 -67 -12 -88q0 -68 102 -68q63 0 117 17q27 7 47 22q19 16 25 50l135 636q15 64 65 64h211q50 0 50 -43q0 -15 -7 -43z" />
    <glyph glyph-name="v" unicode="v" horiz-adv-x="1105" 
d="M508 330q86 189 330 635q33 61 88 61q106 0 207 -12q45 -6 45 -45q0 -29 -25 -74l-440 -743q-50 -85 -101 -124q-46 -36 -135 -36h-67q-94 0 -131 37q-38 38 -50 125l-106 747q-4 21 -4 43q0 64 57 70q105 12 203 12q59 0 65 -70q63 -612 64 -626z" />
    <glyph glyph-name="w" unicode="w" horiz-adv-x="1599" 
d="M852 670l-248 -543q-38 -79 -89 -107q-52 -28 -144 -28h-49q-157 0 -158 143l-14 752q0 49 2 71q6 52 53 58q73 10 227 10q55 0 55 -59q0 -290 -22 -670q70 181 240 547q38 81 75 111q40 32 111 32h37q72 0 103 -31q29 -29 34 -100q14 -284 14 -557q77 217 246 666
q24 61 84 61q133 0 211 -12q37 -4 37 -51q0 -19 -25 -74l-338 -764q-33 -73 -82 -103q-50 -30 -137 -30h-47q-168 0 -170 137q-6 380 -6 541z" />
    <glyph glyph-name="x" unicode="x" horiz-adv-x="1114" 
d="M530 313q-69 -89 -221 -264q-46 -55 -94 -55q-165 0 -248 12q-33 6 -33 41q0 27 37 64l394 413l-193 383q-16 32 -16 51q0 44 41 52q111 18 235 18q52 0 80 -61q13 -30 96 -230q23 33 189 230q49 61 102 61q171 0 238 -16q28 -7 28 -39q0 -30 -32 -66l-359 -383l205 -405
q20 -36 20 -64t-38 -43q-8 -3 -103 -11q-84 -7 -143 -7q-30 0 -45 12q-12 10 -29 43q-82 190 -111 264z" />
    <glyph glyph-name="y" unicode="y" horiz-adv-x="1200" 
d="M643 25q-125 -52 -264 -52q-301 0 -301 199q0 75 20 172l131 614q15 64 70 64h213q45 0 45 -45q0 -9 -1 -16q-2 -16 -4 -23q-3 -12 -3 -16l-115 -537q-12 -49 -12 -92q0 -60 104 -60q59 0 113 17q31 8 47 22q22 22 29 58l133 628q15 64 72 64h204q50 0 50 -45
q0 -3 -7 -47l-178 -838q-40 -182 -74 -258q-84 -176 -253 -244q-173 -69 -527 -69q-86 0 -86 63q0 85 2 123q6 76 76 78q239 6 343 35q102 28 132 84q19 36 35 96z" />
    <glyph glyph-name="z" unicode="z" horiz-adv-x="1015" 
d="M827 0h-749q-121 0 -121 104q0 131 100 213l543 437h-426q-51 0 -51 43q0 38 33 159q18 64 73 64h660q66 0 97 -28q30 -27 30 -85q0 -129 -129 -235q-348 -291 -504 -406h504q49 0 49 -49q0 -24 -33 -168q-12 -49 -76 -49z" />
    <glyph glyph-name="braceleft" unicode="{" horiz-adv-x="757" 
d="M315 623q164 -30 164 -187q0 -41 -16 -112l-57 -273q-13 -62 -13 -94q0 -41 17 -70q21 -33 122 -45q39 -4 39 -39q0 -28 -10 -61q-15 -47 -65 -47q-252 0 -314 78q-43 49 -43 131q0 53 15 125l59 274q18 88 18 119q0 119 -110 131q-45 6 -45 41q0 24 8 59q18 58 63 68
q87 17 135 74t72 174l49 229q41 190 117 258q59 55 142 76q79 20 215 20q55 0 55 -41q0 -19 -6 -57q-6 -30 -22 -41q-15 -10 -46 -12q-109 -7 -153 -53q-29 -29 -56 -152l-57 -266q-28 -136 -95 -209q-64 -70 -182 -98z" />
    <glyph glyph-name="bar" unicode="|" horiz-adv-x="575" 
d="M268 -236q-12 -63 -65 -63h-142q-47 0 -47 39q0 19 6 49l361 1698q12 63 68 63h145q45 0 45 -39q0 -6 -8 -49z" />
    <glyph glyph-name="braceright" unicode="}" horiz-adv-x="768" 
d="M510 623q-164 30 -164 186q0 39 16 115l58 270q10 47 10 94t-16 70q-22 33 -123 45q-39 5 -39 39q0 28 10 61q15 49 68 49q247 0 313 -79q43 -49 43 -132q0 -44 -16 -124l-60 -275q-16 -76 -16 -119q0 -117 108 -129q48 -6 48 -41q0 -21 -9 -61q-18 -57 -65 -68
q-87 -17 -134 -73q-49 -58 -73 -175l-47 -229q-38 -181 -119 -258q-60 -56 -139 -75q-77 -19 -215 -19q-58 0 -58 39q0 13 7 57q6 31 22 41t47 12q104 4 154 54q28 29 55 151l57 266q28 135 96 209q66 72 181 99z" />
    <glyph glyph-name="asciitilde" unicode="~" horiz-adv-x="1435" 
d="M381 487q-34 -34 -59 -34q-39 0 -78 36q-39 37 -39 70q0 28 20 51q153 174 310 174q101 0 233 -75q106 -60 182 -60q86 0 158 78q37 37 68 37q22 0 61 -31q30 -24 41 -38q10 -13 10 -33q0 -29 -20 -52q-140 -182 -320 -182q-110 0 -233 70q-112 63 -178 63
q-82 0 -156 -74z" />
    <glyph glyph-name="exclamdown" unicode="&#xa1;" horiz-adv-x="618" 
d="M121 444q21 78 110 78h91q86 0 86 -65q0 -1 -9 -80q-97 -565 -120 -686q-10 -55 -33 -79t-76 -24h-170q-80 0 -80 74q0 52 201 782zM158 819q0 125 63 187q53 53 150 53q159 0 159 -148q0 -104 -59 -172q-52 -61 -154 -61q-159 0 -159 141z" />
    <glyph glyph-name="cent" unicode="&#xa2;" horiz-adv-x="1056" 
d="M647 -4l-33 -158q-11 -47 -51 -47h-125q-43 0 -43 35q0 17 6 41l29 129q-297 39 -297 338q0 134 54 303t151 266q114 109 313 127l33 146q12 55 57 55h121q41 0 41 -37q0 -10 -8 -53l-25 -107q76 -6 140 -28q30 -8 30 -48q0 -17 -15 -77q-13 -53 -28 -88q-18 -39 -51 -39
q-2 0 -63 8q-59 10 -135 10q-123 0 -179 -65q-92 -113 -92 -316q0 -77 39 -109q40 -32 119 -32q100 0 149 14q44 10 68 10q25 0 35 -32q24 -99 24 -142q0 -41 -45 -59q-92 -35 -219 -45z" />
    <glyph glyph-name="sterling" unicode="&#xa3;" horiz-adv-x="1294" 
d="M1044 0h-884q-49 0 -49 41q0 56 28 178q15 55 76 55h109l61 281h-133q-51 0 -51 41q0 36 26 139q17 64 78 64h131l29 129q51 224 131 313q85 98 191 133q107 35 264 35q166 0 262 -27q41 -12 41 -59q0 -71 -41 -164q-15 -37 -56 -37q-19 0 -55 7q-42 8 -43 8
q-94 8 -143 8q-109 0 -158 -49q-42 -45 -72 -185l-24 -112h295q51 0 51 -45q0 -34 -27 -146q-15 -53 -71 -53h-299l-60 -281h441q55 0 55 -38q0 -37 -31 -187q-6 -31 -22 -40t-50 -9z" />
    <glyph glyph-name="currency" unicode="&#xa4;" horiz-adv-x="1128" 
d="M1036 225q-22 -24 -47 -24q-27 0 -49 22l-96 99q-91 -62 -232 -62q-136 0 -235 59l-92 -96q-24 -24 -49 -24q-26 0 -50 24l-18 23q-25 25 -25 47q0 21 25 51l98 100q-71 101 -71 236q0 128 69 233l-96 99q-25 30 -25 49q0 26 25 51l18 16q30 25 50 25q24 0 47 -25l96 -98
q99 72 233 72q139 0 230 -70l98 96q28 25 47 25q26 0 49 -25l17 -16q22 -26 22 -49t-22 -49l-97 -99q68 -100 68 -235q0 -136 -68 -236l99 -100q22 -26 22 -49q0 -27 -22 -49zM850 680q0 115 -67 184q-66 68 -171 68q-104 0 -173 -69q-68 -68 -68 -181q0 -118 67 -186
q68 -70 174 -70q105 0 171 69q67 70 67 185z" />
    <glyph glyph-name="yen" unicode="&#xa5;" horiz-adv-x="1390" 
d="M770 61q-15 -63 -74 -63h-209q-51 0 -51 49l6 37l60 281h-269q-36 0 -36 36q0 17 12 74q10 43 55 43h271l10 47l-35 82h-213q-39 0 -39 37q0 22 14 74q10 43 54 43h120l-192 461q-10 26 -10 51q0 46 43 61q23 10 233 10q32 0 47 -14q17 -16 29 -49q120 -298 166 -451
q143 195 356 451q51 63 107 63q229 0 258 -12q22 -12 22 -45q0 -23 -39 -70l-397 -456h109q49 0 49 -37q0 -16 -15 -76q-11 -41 -55 -41h-217l-63 -72l-13 -57h254q47 0 47 -37q0 -19 -14 -75q-8 -41 -53 -41h-267z" />
    <glyph glyph-name="brokenbar" unicode="&#xa6;" horiz-adv-x="575" 
d="M512 905q-12 -63 -66 -63h-141q-47 0 -47 39q0 19 6 49l101 477q12 63 67 63h146q45 0 45 -40q0 -1 -9 -50zM324 25q-12 -64 -66 -64h-141q-47 0 -47 39q0 19 6 49l100 477q12 64 68 64h145q45 0 45 -41q0 -6 -8 -49z" />
    <glyph glyph-name="section" unicode="&#xa7;" horiz-adv-x="1114" 
d="M805 268q88 -67 88 -190q0 -206 -134 -307t-378 -101q-199 0 -342 47q-47 17 -47 64q0 67 39 156q12 32 55 32q6 0 19 -3t30 -6l10 -2t9.5 -2t5.5 -1q116 -29 256 -29q151 0 151 99q0 29 -20 52q-21 24 -80 58l-143 82q-124 70 -179 138t-55 159q0 126 73 214t193 110
q-80 57 -80 180q0 395 461 397q174 0 297 -35q47 -15 47 -63q0 -71 -37 -154q-15 -37 -55 -37q-11 0 -65 13q-94 22 -211 22q-131 0 -131 -98q0 -53 112 -119l123 -72q139 -81 189 -144q51 -64 51 -148q0 -126 -66 -205q-67 -81 -186 -107zM760 508q0 53 -58 88
q-74 50 -161 100q-19 11 -45 11q-14 0 -35 -7q-33 -12 -57 -42q-23 -29 -23 -68q0 -43 68 -88q98 -63 163 -96q19 -11 43 -11q15 0 33 8q26 11 49 44q23 32 23 61z" />
    <glyph glyph-name="dieresis" unicode="&#xa8;" horiz-adv-x="403" 
d="M141 1378q0 -98 -45 -141q-41 -41 -112 -41q-119 0 -119 109q0 91 41 135q45 47 117 47q118 0 118 -109zM539 1378q0 -98 -45 -141q-41 -41 -113 -41q-119 0 -119 109q0 86 43 135q45 47 113 47q121 0 121 -109z" />
    <glyph glyph-name="copyright" unicode="&#xa9;" horiz-adv-x="1699" 
d="M1618 707q0 -319 -201 -527q-201 -209 -526 -209t-526 209q-201 208 -201 527q0 317 201 527t524 210q333 0 531 -208t198 -529zM1530 707q0 283 -175 467t-466 184q-286 0 -458 -184q-173 -185 -173 -467q0 -279 173 -466q173 -186 460 -186q288 0 464 185
q175 184 175 467zM748 616q0 -165 163 -165q93 0 146 10q29 6 45 6q22 0 28 -25q19 -78 19 -104q0 -32 -41 -43q-112 -31 -274 -31q-152 0 -242 84t-90 252q0 322 178 473q111 96 321 96q132 0 183 -16q37 -10 37 -41q0 -49 -25 -121q-8 -18 -37 -18q-21 0 -45 2
q-66 8 -110 8q-122 0 -173 -63q-83 -111 -83 -304z" />
    <glyph glyph-name="ordfeminine" unicode="&#xaa;" horiz-adv-x="718" 
d="M670 651q-12 -51 -31 -67q-23 -20 -61 -31q-107 -29 -254 -29q-228 0 -228 160q0 140 103 207q61 37 215 37q52 0 96 -2q6 30 6 43q0 35 -74 35q-41 0 -120 -9q-2 0 -20 -2l-12.5 -2.5t-11.5 -1.5q-3 0 -5.5 -0.5t-4.5 -1t-3.5 -0.5h-2.5q-25 0 -31 31q-8 61 -8 84
q0 41 43 53q79 27 230 27q122 0 186 -26q63 -26 63 -109q0 -56 -12 -107zM481 791q-36 2 -65 2q-56 0 -80 -13q-29 -15 -29 -55q0 -47 62 -47q48 0 71 10q13 7 19 21t22 82z" />
    <glyph glyph-name="guillemotleft" unicode="&#xab;" horiz-adv-x="1142" 
d="M360 535l168 -314q17 -28 17 -47q0 -31 -45 -37q-25 -4 -138 -4q-44 0 -71 43l-191 322q-16 28 -16 51q0 24 37 61l301 297q51 51 100 51q104 0 142 -6t38 -32q0 -24 -28 -52zM825 535l168 -314q17 -28 17 -47q0 -31 -47 -37q-25 -4 -138 -4q-42 0 -69 43l-191 322
q-16 28 -16 51q0 28 37 61l299 297q51 51 100 51q103 0 141 -6q39 -6 39 -32q0 -24 -28 -52z" />
    <glyph glyph-name="logicalnot" unicode="&#xac;" horiz-adv-x="1435" 
d="M1180 137q-15 -65 -80 -65h-74q-65 0 -65 57q0 18 4 33l69 336h-776q-65 0 -65 59q0 29 14 86q17 66 78 66h923q68 0 68 -60q0 -19 -6 -43z" />
    <glyph glyph-name="uni00AD" unicode="&#xad;" horiz-adv-x="712" 
d="M565 422h-440q-51 0 -51 41q0 23 32 164q15 55 74 55h438q54 0 54 -41q0 -17 -35 -166q-7 -32 -25 -43q-16 -10 -47 -10z" />
    <glyph glyph-name="registered" unicode="&#xae;" horiz-adv-x="1699" 
d="M1616 707q0 -319 -201 -527q-201 -209 -526 -209q-326 0 -527 209q-200 207 -200 527q0 318 200 527q201 210 525 210q333 0 531 -208t198 -529zM1526 707q0 283 -175 467t-464 184q-285 0 -459 -184t-174 -467q0 -280 174 -466t461 -186q289 0 463 185q174 184 174 467z
M715 330q-6 -49 -49 -49h-119q-47 0 -47 38q0 15 6 39l137 654q18 87 58 122q39 35 126 35h101q177 0 256 -43q90 -46 90 -172q0 -226 -180 -303l100 -282q10 -26 10 -39q0 -41 -51 -47q-58 -7 -117 -7q-46 0 -57 41l-86 299h-70h-45zM813 786h74q66 0 96 11q68 27 68 110
q0 53 -37 74q-23 12 -82 12h-29q-44 0 -55 -47z" />
    <glyph glyph-name="macron" unicode="&#xaf;" horiz-adv-x="403" 
d="M408 1214h-457q-53 0 -53 46q0 30 24 114q17 56 74 56h453q55 0 55 -41q0 -21 -25 -119q-12 -56 -71 -56z" />
    <glyph glyph-name="degree" unicode="&#xb0;" horiz-adv-x="688" 
d="M774 1202q0 -142 -81 -224q-81 -83 -220 -83q-118 0 -189 68t-71 190q0 141 81 223t222 82q124 0 191 -66t67 -190zM664 1192q0 168 -160 168q-85 0 -134 -52q-51 -54 -51 -157q0 -75 46 -118q45 -42 120 -42q80 0 129 52q50 53 50 149z" />
    <glyph glyph-name="plusminus" unicode="&#xb1;" horiz-adv-x="1435" 
d="M803 391q-12 -65 -80 -65h-72q-63 0 -63 57q0 18 4 39l65 319h-346q-65 0 -65 60q0 24 12 84q15 65 78 65h358l70 348q12 66 78 66h76q65 0 65 -61q0 -18 -4 -37l-64 -316h342q68 0 68 -57q0 -17 -12 -86q-12 -66 -80 -66h-361zM1118 0h-930q-65 0 -65 57q0 22 14 86
q12 66 76 66h932q67 0 67 -59q0 -10 -14 -84q-12 -66 -80 -66z" />
    <glyph glyph-name="twosuperior" unicode="&#xb2;" 
d="M780 860h-528q-53 0 -69 19q-15 18 -15 57q0 74 61 117q157 99 297 202q133 96 133 189q0 98 -120 98q-49 0 -101 -6q-43 -8 -57 -8q-23 0 -29 24q-12 72 -12 99q0 30 41 41q103 28 244 28q274 0 274 -211q0 -161 -135 -278q-101 -83 -275 -191h326q35 0 35 -30
q0 -28 -21 -113q-10 -37 -49 -37z" />
    <glyph glyph-name="threesuperior" unicode="&#xb3;" 
d="M684 1305q79 -7 116 -48q36 -39 36 -114q0 -162 -97 -230q-95 -69 -309 -69q-143 0 -209 22q-26 10 -26 39t26 103q7 28 39 28q10 0 45 -8q53 -8 146 -8q96 0 129 33q26 27 26 82q0 35 -29 49q-27 13 -112 18q-51 4 -51 58q0 49 21 85q20 35 65 35q92 0 123 25
q26 20 26 74q0 34 -21 49q-20 14 -85 14q-56 0 -109 -8q-30 -6 -51 -6t-27 24q-14 67 -14 101t39 41q107 26 244 26q143 0 196 -45t53 -129q0 -103 -43 -162q-42 -58 -147 -79z" />
    <glyph glyph-name="acute" unicode="&#xb4;" horiz-adv-x="403" 
d="M184 1229q-46 -43 -98 -43q-34 0 -96 6q-58 8 -58 45q0 23 27 53l201 221q46 52 96 52q97 0 162 -7q51 -6 51 -43q0 -24 -27 -51z" />
    <glyph glyph-name="mu" unicode="&#xb5;" horiz-adv-x="1257" 
d="M303 -356q-12 -64 -70 -64h-198q-60 0 -60 45q0 9 9 49l272 1284q15 64 66 64h215q45 0 45 -45q0 -27 -7 -55l-114 -529q-10 -54 -10 -82q0 -71 110 -71q92 0 121 10q31 8 47 22q18 13 25 50l137 636q15 64 67 64h211q50 0 50 -45l-1 -5q-1 -6 -3.5 -19t-4.5 -27
l-163 -760q-21 -101 -105 -131q-175 -62 -385 -62q-123 0 -176 33z" />
    <glyph glyph-name="paragraph" unicode="&#xb6;" horiz-adv-x="1193" 
d="M526 -219q-10 -43 -41 -43h-51q-31 0 -31 24q0 8 5 31l147 676q-203 0 -292 90q-89 91 -89 240q0 159 67 308q66 147 193 232q158 107 449 107h270q59 0 59 -43q0 -5 -6 -49l-336 -1571q-10 -45 -43 -45h-49q-28 0 -28 26q0 14 4 29l325 1532h-225z" />
    <glyph glyph-name="periodcentered" unicode="&#xb7;" horiz-adv-x="530" 
d="M469 602q0 -124 -63 -186q-51 -51 -150 -51q-160 0 -160 147q0 101 60 170q52 61 153 61q160 0 160 -141z" />
    <glyph glyph-name="cedilla" unicode="&#xb8;" horiz-adv-x="403" 
d="M285 -94q159 -12 159 -166q0 -149 -88 -209q-87 -59 -250 -59q-60 0 -96 10q-44 12 -45 49q0 29 12 72q15 47 64 47q22 0 51 -4q22 -2 53 -2q42 0 56 14t14 51q0 39 -45 39h-39q-47 0 -47 43q0 11 20 70l56 159h162z" />
    <glyph glyph-name="onesuperior" unicode="&#xb9;" 
d="M709 860h-400q-33 0 -33 27t21 121q6 36 51 36h90l103 451l-105 -33q-18 -6 -35 -6t-24 21q-31 91 -31 108q0 22 31 33l180 65q62 21 115 21h14q100 0 100 -78q0 -27 -14 -90l-108 -492h81q35 0 35 -26q0 -37 -22 -125q-10 -33 -49 -33z" />
    <glyph glyph-name="ordmasculine" unicode="&#xba;" horiz-adv-x="735" 
d="M772 973q0 -86 -29 -193q-29 -105 -88 -166q-84 -90 -256 -90q-138 0 -210 45t-72 174q0 234 125 353q89 86 241 86q138 0 214 -41q75 -41 75 -168zM545 942q0 36 -17 51q-16 15 -55 15q-50 0 -78 -37q-22 -33 -37 -101q-14 -62 -14 -106q0 -40 16 -55t56 -15q49 0 76 35
q19 26 36 102t17 111z" />
    <glyph glyph-name="guillemotright" unicode="&#xbb;" horiz-adv-x="1142" 
d="M821 557l-168 313q-14 27 -14 45q0 33 45 39q25 4 137 4q45 0 72 -43l190 -323q15 -24 15 -49q0 -27 -35 -62l-299 -299q-49 -49 -102 -49q-109 0 -142 4q-39 6 -39 35q0 22 29 51zM358 557l-168 313q-16 26 -16 45q0 33 47 39q25 4 137 4q43 0 70 -43l190 -323
q17 -29 17 -49q0 -25 -37 -62l-299 -299q-49 -49 -102 -49q-109 0 -140 4q-39 6 -39 35q0 22 29 51z" />
    <glyph glyph-name="onequarter" unicode="&#xbc;" horiz-adv-x="1804" 
d="M1470 39q-8 -41 -49 -41h-129q-32 0 -32 31q0 19 4 34l26 111h-274q-101 0 -101 78q0 66 56 139l329 418q30 37 68 37q95 0 139 -4q27 -2 27 -25q0 -19 -10 -33l-344 -430h149l25 109q10 45 47 45h131q35 0 35 -29q0 -7 -4 -23t-4 -20l-19 -82h49q39 0 39 -28
q0 -5 -29 -121q-6 -31 -45 -31h-53zM612 541h-397q-37 0 -37 26q0 23 25 121q10 37 49 37h92l100 451l-104 -33q-18 -6 -35 -6q-15 0 -22 20q-33 95 -33 109q0 21 31 32l180 66q59 20 117 20h12q100 0 100 -77q0 -27 -14 -90l-109 -492h82q37 0 37 -27q0 -26 -24 -125
q-6 -32 -50 -32zM512 -29q-22 -39 -57 -39q-9 0 -64 5q-26 1 -26 22q0 15 18 43l917 1409q28 45 66 45q41 0 66 -4q22 -1 22 -22q0 -19 -22 -48z" />
    <glyph glyph-name="onehalf" unicode="&#xbd;" horiz-adv-x="1804" 
d="M1552 0h-526q-54 0 -70 18q-16 17 -16 58q0 77 61 117q33 23 135 90q98 65 164 112q134 99 134 189q0 98 -121 98q-56 0 -101 -6q-43 -8 -57 -8q-23 0 -29 24q-14 64 -14 99q0 29 41 40q107 29 246 29q272 0 272 -211q0 -164 -135 -278q-90 -74 -272 -191h325
q33 0 33 -30q0 -23 -20 -113q-6 -37 -50 -37zM596 541h-397q-37 0 -37 26q0 27 24 121q10 37 50 37h92l100 451l-104 -33q-18 -6 -35 -6q-16 0 -23 20q-33 95 -33 109q0 21 31 32l180 66q59 20 117 20h12q101 0 101 -77q0 -23 -15 -90l-108 -492h82q37 0 37 -27
q0 -22 -25 -125q-6 -32 -49 -32zM483 -29q-23 -39 -57 -39q-9 0 -64 5q-26 1 -26 22q0 15 18 43l918 1409q29 45 65 45q41 0 66 -4q22 -1 22 -22q0 -19 -22 -48z" />
    <glyph glyph-name="threequarters" unicode="&#xbe;" horiz-adv-x="1804" 
d="M588 -29q-22 -39 -58 -39q-8 0 -63 5q-27 1 -27 22q0 13 19 43l917 1409q28 45 66 45q40 0 65 -4q23 -2 23 -22q0 -17 -23 -48zM655 985q81 -7 118 -47q36 -39 36 -115q0 -160 -96 -229q-96 -70 -310 -70q-143 0 -210 23q-27 11 -27 39q0 26 27 102q12 29 38 29
q13 0 48 -8q56 -9 143 -9q98 0 131 33q27 29 27 82q0 35 -31 50q-33 17 -113 18q-51 0 -51 57q0 49 21 85t65 36q93 0 123 24q27 21 27 74q0 34 -23 49t-86 15q-60 0 -109 -6q-8 0 -28 -5q-16 -4 -23 -4q-19 0 -24 25q-13 78 -13 100q0 35 41 43q106 25 240 25
q144 0 197 -45t53 -129q0 -103 -43 -162t-148 -80zM1538 39q-8 -41 -49 -41h-129q-33 0 -33 31q0 19 4 34l27 111h-275q-100 0 -100 78q0 68 55 139l330 418q30 37 68 37q95 0 139 -4q27 -2 27 -25q0 -17 -11 -33l-344 -430h150l24 109q11 45 47 45h131q35 0 35 -29
q0 -7 -4 -23t-4 -20l-18 -82h49q39 0 39 -28q0 -5 -29 -121q-6 -31 -45 -31h-53z" />
    <glyph glyph-name="questiondown" unicode="&#xbf;" horiz-adv-x="958" 
d="M475 524h115q65 0 65 -47q0 -41 -10 -84q-15 -63 -38 -100q-24 -39 -85 -82q-134 -98 -177 -149q-42 -49 -42 -128q0 -100 146 -102q69 0 143 10q19 2 36 4t24 3l7 1q47 0 62 -57q14 -62 14 -117q-1 -61 -78 -79q-144 -33 -307 -33q-401 0 -401 274q0 154 66 248
q64 91 221 176q62 34 97 69q34 34 52 83q18 58 27 78q12 32 63 32zM399 821q0 125 64 187q53 53 149 53q160 0 160 -148q0 -104 -59 -172q-55 -61 -154 -61q-160 0 -160 141z" />
    <glyph glyph-name="Agrave" unicode="&#xc0;" horiz-adv-x="1370" 
d="M424 346l-148 -278q-24 -46 -37 -59q-15 -15 -49 -15q-211 0 -247 10q-31 8 -31 37q0 32 25 80l610 1128q66 124 117 164q52 41 172 41h77q112 0 153 -44q40 -43 52 -150l123 -1123q4 -40 4 -69q0 -46 -43 -62q-24 -12 -231 -12q-36 0 -50 17q-16 19 -20 59l-27 276h-450
zM559 618h303q-28 335 -35 560zM770 1581l-270 199q-33 24 -33 51q0 44 55 45q49 4 189 4q59 0 108 -49l189 -186q28 -27 28 -52q0 -33 -37 -39q-33 -6 -122 -6q-58 0 -107 33z" />
    <glyph glyph-name="Aacute" unicode="&#xc1;" horiz-adv-x="1370" 
d="M440 346l-147 -278q-23 -43 -38 -59q-15 -15 -48 -15q-212 0 -248 10q-31 8 -31 37q0 32 25 80l610 1128q66 124 117 164q52 41 172 41h78q111 0 152 -44t53 -150l122 -1123q5 -50 5 -69q0 -46 -43 -62q-24 -12 -232 -12q-36 0 -50 17t-19 59l-27 276h-451zM575 618h304
q-28 335 -35 560zM944 1563q-52 -33 -108 -33q-74 0 -115 6q-47 5 -47 37q0 31 33 55l239 187q58 47 115 47q145 0 180 -4q66 -6 66 -43q0 -34 -37 -56z" />
    <glyph glyph-name="Acircumflex" unicode="&#xc2;" horiz-adv-x="1370" 
d="M440 346l-147 -278q-23 -43 -38 -59q-15 -15 -48 -15q-212 0 -248 10q-31 8 -31 37q0 32 25 80l610 1128q66 124 117 164q52 41 172 41h78q111 0 152 -44t53 -150l122 -1123q5 -50 5 -69q0 -46 -43 -62q-24 -12 -232 -12q-36 0 -50 17t-19 59l-27 276h-451zM575 618h304
q-28 335 -35 560zM670 1550q-76 0 -117 6q-41 8 -41 39q0 27 31 52l229 202q73 64 127 64h111q59 0 98 -55l152 -207q18 -24 18 -47q0 -34 -51 -45q-35 -7 -101 -7q-54 0 -94 45l-106 117l-152 -121q-52 -43 -104 -43z" />
    <glyph glyph-name="Atilde" unicode="&#xc3;" horiz-adv-x="1370" 
d="M424 346l-148 -278q-24 -46 -37 -59q-15 -15 -49 -15q-211 0 -247 10q-31 8 -31 37q0 32 25 80l610 1128q66 124 117 164q52 41 172 41h77q112 0 153 -44q40 -43 52 -150l123 -1123q4 -40 4 -69q0 -46 -43 -62q-24 -12 -231 -12q-36 0 -50 17q-16 19 -20 59l-27 276h-450
zM559 618h303q-28 335 -35 560zM614 1544q-58 0 -82 6q-30 10 -30 43q0 21 18 64q84 203 225 203q35 0 144 -52q68 -34 108 -34q49 0 78 51q27 43 80 43q49 0 70 -6q35 -8 35 -39q0 -33 -33 -94q-86 -173 -207 -173q-56 0 -164 54q-58 32 -96 32q-48 0 -76 -45
q-17 -29 -32 -42q-12 -11 -38 -11z" />
    <glyph glyph-name="Adieresis" unicode="&#xc4;" horiz-adv-x="1370" 
d="M440 346l-147 -278q-23 -43 -38 -59q-15 -15 -48 -15q-212 0 -248 10q-31 8 -31 37q0 32 25 80l610 1128q66 124 117 164q52 41 172 41h78q111 0 152 -44t53 -150l122 -1123q5 -50 5 -69q0 -46 -43 -62q-24 -12 -232 -12q-36 0 -50 17t-19 59l-27 276h-451zM575 618h304
q-28 335 -35 560zM834 1739q0 -96 -48 -142q-41 -41 -110 -41q-121 0 -121 109q0 91 43 135q45 47 115 47q121 0 121 -108zM1245 1739q0 -97 -47 -142q-41 -41 -113 -41q-118 0 -118 109q0 91 43 135q45 47 114 47q121 0 121 -108z" />
    <glyph glyph-name="Aring" unicode="&#xc5;" horiz-adv-x="1370" 
d="M440 346l-147 -278q-23 -43 -38 -59q-15 -15 -48 -15q-212 0 -248 10q-31 8 -31 37q0 32 25 80l610 1128q66 124 117 164q52 41 172 41h78q111 0 152 -44t53 -150l122 -1123q5 -50 5 -69q0 -46 -43 -62q-24 -12 -232 -12q-36 0 -50 17t-19 59l-27 276h-451zM575 618h304
q-28 335 -35 560zM1098 1724q0 -99 -56 -158t-155 -59q-83 0 -129 46q-47 47 -47 130q0 101 55 160q56 60 154 60q85 0 131 -46q47 -47 47 -133zM1008 1720q0 101 -97 101q-49 0 -82 -36q-32 -35 -32 -91q0 -103 98 -103q53 0 83 34q30 35 30 95z" />
    <glyph glyph-name="AE" unicode="&#xc6;" horiz-adv-x="1988" 
d="M350 59q-50 -63 -129 -63q-159 0 -239 4q-50 2 -50 47q0 29 33 68l940 1171q73 92 135 126q61 34 166 34h832q59 0 59 -45q0 -50 -37 -189q-15 -51 -73 -51h-465l-62 -272h410q53 0 53 -45q0 -19 -37 -189q-6 -29 -20 -40t-47 -11h-416l-47 -211q-8 -40 -8 -59
q0 -49 59 -49h461q55 0 55 -45q0 -44 -39 -189q-12 -51 -72 -51h-638q-193 0 -193 152q0 57 12 114l21 92h-424zM793 633h276l117 528z" />
    <glyph glyph-name="Ccedilla" unicode="&#xc7;" horiz-adv-x="1175" 
d="M655 -98q162 -16 162 -174q0 -155 -89 -218q-88 -63 -255 -63q-60 0 -96 10q-25 7 -37 19q-11 11 -12 32q0 17 12 74q15 49 66 49q24 0 53 -4q22 -2 53 -2q40 0 56 16t16 54q0 41 -47 41h-39q-47 0 -47 41q0 9 20 73l41 130q-397 45 -397 509q0 236 82 472
q83 238 245 372q169 140 488 140q158 0 280 -25q56 -12 56 -64q0 -78 -45 -172q-12 -28 -47 -28q-30 0 -74 6q-73 12 -178 12q-186 0 -281 -104q-81 -88 -128 -248q-46 -156 -46 -299q0 -162 62 -234q63 -73 196 -73q107 0 186 10q74 10 93 10q40 0 51 -45q14 -73 14 -145
q0 -17 -16 -32q-19 -17 -41 -24q-154 -42 -336 -43z" />
    <glyph glyph-name="Egrave" unicode="&#xc8;" horiz-adv-x="1134" 
d="M954 0h-645q-109 0 -156 40q-49 41 -49 122q0 45 11 94l202 952q27 124 95 181q67 57 188 57h580q61 0 61 -45q0 -27 -39 -189q-12 -51 -74 -51h-419q-65 0 -80 -74l-43 -198h428q53 0 53 -45q0 -38 -39 -189q-15 -51 -65 -51h-437l-45 -203q-10 -44 -10 -67
q0 -49 64 -49h475q55 0 55 -41q0 -49 -39 -193q-15 -51 -72 -51zM745 1581l-270 199q-33 24 -33 51q0 43 56 45q49 4 188 4q60 0 109 -49l188 -186q29 -27 29 -52q0 -33 -37 -39q-35 -6 -123 -6q-58 0 -107 33z" />
    <glyph glyph-name="Eacute" unicode="&#xc9;" horiz-adv-x="1134" 
d="M954 0h-645q-109 0 -156 40q-49 41 -49 122q0 45 11 94l202 952q27 124 95 181q67 57 188 57h580q61 0 61 -45q0 -27 -39 -189q-12 -51 -74 -51h-419q-65 0 -80 -74l-43 -198h428q53 0 53 -45q0 -38 -39 -189q-15 -51 -65 -51h-437l-45 -203q-10 -44 -10 -67
q0 -49 64 -49h475q55 0 55 -41q0 -49 -39 -193q-15 -51 -72 -51zM918 1563q-52 -33 -109 -33q-76 0 -115 6q-47 5 -47 37q0 31 33 55l240 187q58 47 114 47q145 0 180 -4q66 -6 66 -43q0 -34 -37 -56z" />
    <glyph glyph-name="Ecircumflex" unicode="&#xca;" horiz-adv-x="1134" 
d="M954 0h-645q-109 0 -156 40q-49 41 -49 122q0 45 11 94l202 952q27 124 95 181q67 57 188 57h580q61 0 61 -45q0 -27 -39 -189q-12 -51 -74 -51h-419q-65 0 -80 -74l-43 -198h428q53 0 53 -45q0 -38 -39 -189q-15 -51 -65 -51h-437l-45 -203q-10 -44 -10 -67
q0 -49 64 -49h475q55 0 55 -41q0 -49 -39 -193q-15 -51 -72 -51zM604 1550q-76 0 -117 6q-41 8 -41 39q0 27 31 52l230 202q73 64 127 64h110q59 0 98 -55l152 -207q18 -24 18 -47q0 -34 -51 -45q-35 -7 -100 -7q-53 0 -94 45l-107 117l-151 -121q-52 -43 -105 -43z" />
    <glyph glyph-name="Edieresis" unicode="&#xcb;" horiz-adv-x="1134" 
d="M954 0h-645q-109 0 -156 40q-49 41 -49 122q0 45 11 94l202 952q27 124 95 181q67 57 188 57h580q61 0 61 -45q0 -27 -39 -189q-12 -51 -74 -51h-419q-65 0 -80 -74l-43 -198h428q53 0 53 -45q0 -38 -39 -189q-15 -51 -65 -51h-437l-45 -203q-10 -44 -10 -67
q0 -49 64 -49h475q55 0 55 -41q0 -49 -39 -193q-15 -51 -72 -51zM793 1739q0 -96 -48 -142q-41 -41 -110 -41q-121 0 -121 109q0 91 43 135q45 47 115 47q121 0 121 -108zM1204 1739q0 -97 -47 -142q-41 -41 -113 -41q-118 0 -118 109q0 91 43 135q45 47 114 47
q121 0 121 -108z" />
    <glyph glyph-name="Igrave" unicode="&#xcc;" horiz-adv-x="655" 
d="M408 61q-15 -63 -74 -63h-215q-49 0 -49 47q0 3 6 41l276 1294q15 68 74 68h213q53 0 53 -45q0 -13 -10 -62zM479 1581l-270 199q-33 24 -33 51q0 44 55 45q49 4 189 4q59 0 108 -49l189 -186q28 -27 28 -52q0 -33 -36 -39q-35 -6 -123 -6q-58 0 -107 33z" />
    <glyph glyph-name="Iacute" unicode="&#xcd;" horiz-adv-x="655" 
d="M408 61q-15 -63 -74 -63h-215q-49 0 -49 47q0 3 6 41l276 1294q15 68 74 68h213q53 0 53 -45q0 -13 -10 -62zM606 1581q-52 -33 -108 -33q-76 0 -115 6q-47 5 -47 37t33 56l239 186q58 47 115 47q145 0 180 -4q66 -6 66 -43q0 -34 -37 -55z" />
    <glyph glyph-name="Icircumflex" unicode="&#xce;" horiz-adv-x="655" 
d="M408 61q-15 -63 -74 -63h-215q-49 0 -49 47q0 3 6 41l276 1294q15 68 74 68h213q53 0 53 -45q0 -13 -10 -62zM326 1550q-76 0 -117 6q-41 8 -41 39q0 27 31 52l229 202q73 64 127 64h111q59 0 98 -55l151 -207q19 -25 19 -47q0 -34 -51 -45q-35 -7 -101 -7q-54 0 -94 45
l-106 117l-152 -121q-50 -43 -104 -43z" />
    <glyph glyph-name="Idieresis" unicode="&#xcf;" horiz-adv-x="655" 
d="M408 61q-15 -63 -74 -63h-215q-49 0 -49 47q0 3 6 41l276 1294q15 68 74 68h213q53 0 53 -45q0 -13 -10 -62zM487 1739q0 -97 -47 -142q-41 -41 -110 -41q-121 0 -121 109q0 91 43 135q45 47 115 47q120 0 120 -108zM899 1739q0 -97 -47 -142q-41 -41 -113 -41
q-118 0 -118 109q0 91 43 135q45 47 114 47q121 0 121 -108z" />
    <glyph glyph-name="Eth" unicode="&#xd0;" horiz-adv-x="1413" 
d="M477 0h-168q-109 0 -156 40q-49 41 -49 122q0 45 11 94l78 367h-97q-49 0 -49 45q0 24 27 143q10 55 67 55h103l71 334q53 246 283 246h166q227 0 373 -49q125 -40 197 -151q71 -110 71 -267q0 -154 -24 -289q-25 -140 -78 -265q-54 -128 -159 -228t-247 -146
q-151 -51 -420 -51zM481 399q-12 -49 -12 -65q0 -47 63 -47h93q101 0 182 37q129 60 191 241q63 183 63 367q0 147 -100 196q-61 33 -185 33h-67q-65 0 -80 -74l-47 -221h190q51 0 51 -43q0 -29 -28 -151q-6 -31 -21 -40t-47 -9h-199z" />
    <glyph glyph-name="Ntilde" unicode="&#xd1;" horiz-adv-x="1511" 
d="M399 63q-16 -65 -71 -65h-203q-55 0 -55 53q0 10 8 45l244 1133q24 116 85 171q60 54 181 54h98q94 0 128 -37q33 -36 50 -121q117 -579 164 -882q68 356 199 950q18 84 82 84h188q51 0 51 -51q0 -15 -8 -58l-248 -1169q-22 -105 -80 -146q-56 -40 -145 -40h-76
q-103 0 -147 39q-43 39 -64 143q-151 752 -172 901q-32 -182 -209 -1004zM756 1544q-58 0 -82 6q-31 11 -31 43q0 18 19 64q84 203 225 203q34 0 143 -52q68 -34 109 -34q49 0 78 51q28 43 79 43q48 0 70 -6q35 -8 35 -39q0 -33 -33 -94q-86 -173 -207 -173q-56 0 -164 54
q-58 32 -96 32q-47 0 -76 -45q-19 -31 -31 -42t-38 -11z" />
    <glyph glyph-name="Ograve" unicode="&#xd2;" horiz-adv-x="1441" 
d="M1432 1038q0 -203 -70 -474q-68 -265 -199 -406q-170 -185 -501 -185q-124 0 -218 20q-95 20 -170 68q-77 49 -118 144q-41 96 -41 233q0 221 67 461q67 239 199 385q176 191 493 191q125 0 219 -16q89 -15 172 -59t125 -134t42 -228zM1079 983q0 128 -52 174
q-53 47 -175 47q-143 0 -225 -106q-75 -93 -118 -287q-44 -197 -44 -330q0 -137 51 -188t168 -51q87 0 144 24q56 23 102 99q62 99 106 302q43 199 43 316zM817 1581l-270 199q-33 24 -33 51q0 44 55 45q49 4 189 4q59 0 108 -49l189 -186q28 -27 28 -52q0 -33 -36 -39
q-35 -6 -123 -6q-58 0 -107 33z" />
    <glyph glyph-name="Oacute" unicode="&#xd3;" horiz-adv-x="1441" 
d="M1432 1038q0 -203 -70 -474q-68 -265 -199 -406q-170 -185 -501 -185q-124 0 -218 20q-95 20 -170 68q-77 49 -118 144q-41 96 -41 233q0 221 67 461q67 239 199 385q176 191 493 191q125 0 219 -16q89 -15 172 -59t125 -134t42 -228zM1079 983q0 128 -52 174
q-53 47 -175 47q-143 0 -225 -106q-75 -93 -118 -287q-44 -197 -44 -330q0 -137 51 -188t168 -51q87 0 144 24q56 23 102 99q62 99 106 302q43 199 43 316zM975 1581q-52 -33 -109 -33q-75 0 -114 6q-47 5 -47 37q0 33 32 56l240 186q58 47 115 47q145 0 180 -4
q65 -6 65 -43q0 -34 -37 -55z" />
    <glyph glyph-name="Ocircumflex" unicode="&#xd4;" horiz-adv-x="1441" 
d="M1432 1038q0 -203 -70 -474q-68 -265 -199 -406q-170 -185 -501 -185q-124 0 -218 20q-95 20 -170 68q-77 49 -118 144q-41 96 -41 233q0 221 67 461q67 239 199 385q176 191 493 191q125 0 219 -16q89 -15 172 -59t125 -134t42 -228zM1079 983q0 128 -52 174
q-53 47 -175 47q-143 0 -225 -106q-75 -93 -118 -287q-44 -197 -44 -330q0 -137 51 -188t168 -51q87 0 144 24q56 23 102 99q62 99 106 302q43 199 43 316zM700 1550q-77 0 -116 6q-41 8 -41 39q0 28 30 52l230 202q73 64 127 64h110q60 0 99 -55l151 -207q19 -25 19 -47
q0 -34 -52 -45q-35 -7 -100 -7q-53 0 -94 45l-107 117l-151 -121q-50 -43 -105 -43z" />
    <glyph glyph-name="Otilde" unicode="&#xd5;" horiz-adv-x="1441" 
d="M1415 1038q0 -207 -69 -474q-68 -265 -199 -406q-170 -185 -502 -185q-123 0 -217 20q-95 20 -170 68q-79 50 -119 144q-41 96 -41 233q0 218 68 461q67 239 199 385q176 191 493 191q124 0 218 -16q89 -15 172 -59t125 -134t42 -228zM1063 983q0 128 -52 174
q-53 47 -175 47q-144 0 -226 -106q-73 -91 -117 -287q-44 -197 -44 -330q0 -137 51 -188t168 -51q87 0 144 24q54 23 101 99q64 101 107 302q43 199 43 316zM662 1544q-58 0 -82 6q-31 11 -31 43q0 21 18 64q84 203 226 203q34 0 143 -52q68 -34 108 -34q50 0 78 51
q28 43 80 43q48 0 70 -6q35 -8 35 -39q0 -33 -33 -94q-86 -173 -207 -173q-56 0 -164 54q-58 32 -96 32q-47 0 -76 -45q-17 -29 -32 -42q-12 -11 -37 -11z" />
    <glyph glyph-name="Odieresis" unicode="&#xd6;" horiz-adv-x="1441" 
d="M1432 1038q0 -203 -70 -474q-68 -265 -199 -406q-170 -185 -501 -185q-124 0 -218 20q-95 20 -170 68q-77 49 -118 144q-41 96 -41 233q0 221 67 461q67 239 199 385q176 191 493 191q125 0 219 -16q89 -15 172 -59t125 -134t42 -228zM1079 983q0 128 -52 174
q-53 47 -175 47q-143 0 -225 -106q-75 -93 -118 -287q-44 -197 -44 -330q0 -137 51 -188t168 -51q87 0 144 24q56 23 102 99q62 99 106 302q43 199 43 316zM877 1739q0 -96 -48 -142q-41 -41 -110 -41q-121 0 -121 109q0 91 43 135q45 47 115 47q121 0 121 -108zM1288 1739
q0 -97 -47 -142q-41 -41 -113 -41q-118 0 -118 109q0 91 43 135q45 47 114 47q121 0 121 -108z" />
    <glyph glyph-name="multiply" unicode="&#xd7;" horiz-adv-x="1435" 
d="M1149 344q22 -22 22 -51q0 -27 -24 -51l-62 -62q-23 -22 -51 -22t-51 26l-242 265l-301 -273q-20 -20 -49 -20q-27 0 -49 28l-45 49q-23 28 -23 50q0 27 31 55l301 270l-248 266q-24 24 -24 50q0 29 28 53l64 59q23 23 47 23q29 0 53 -27l244 -268l305 276q23 21 47 21
q31 0 54 -29l43 -51q20 -26 20 -49q0 -29 -27 -53l-307 -273z" />
    <glyph glyph-name="Oslash" unicode="&#xd8;" horiz-adv-x="1441" 
d="M207 -29q-20 -20 -31 -20q-18 0 -74 51q-14 11 -14 27q0 9 18 32l76 93q-67 106 -67 284q0 221 67 461q67 239 199 385q176 191 493 191q238 0 363 -60l92 109q15 16 31 16q10 0 26 -12q60 -43 60 -62q0 -15 -14 -30l-86 -105q86 -107 86 -293q0 -203 -70 -474
q-68 -265 -199 -406q-170 -185 -501 -185q-254 0 -383 84zM684 242q87 0 144 24q56 23 102 99q62 99 106 302q43 199 43 316q0 17 -2 31l-581 -697q44 -75 188 -75zM627 1098q-72 -92 -116 -282q-45 -193 -46 -327l559 670q-51 45 -172 45q-143 0 -225 -106z" />
    <glyph glyph-name="Ugrave" unicode="&#xd9;" horiz-adv-x="1404" 
d="M1454 1368l-170 -790q-39 -178 -67 -261q-28 -85 -78 -149q-80 -102 -209 -148q-130 -47 -336 -47q-82 0 -157 15q-80 16 -148 48q-74 35 -117 101q-43 67 -43 162q0 105 35 274l170 811q15 64 69 64h224q47 0 47 -43q0 -18 -8 -53l-179 -834q-14 -67 -14 -125
q0 -151 178 -151q148 0 211 63q58 53 88 199l187 880q11 64 67 64h205q49 0 49 -41q0 -20 -4 -39zM807 1581l-270 199q-33 24 -33 51q0 44 55 45q49 4 189 4q59 0 108 -49l188 -186q29 -27 29 -52q0 -33 -37 -39q-33 -6 -123 -6q-57 0 -106 33z" />
    <glyph glyph-name="Uacute" unicode="&#xda;" horiz-adv-x="1404" 
d="M1454 1368l-170 -790q-39 -178 -67 -261q-28 -85 -78 -149q-80 -102 -209 -148q-130 -47 -336 -47q-82 0 -157 15q-80 16 -148 48q-74 35 -117 101q-43 67 -43 162q0 105 35 274l170 811q15 64 69 64h224q47 0 47 -43q0 -18 -8 -53l-179 -834q-14 -67 -14 -125
q0 -151 178 -151q148 0 211 63q58 53 88 199l187 880q11 64 67 64h205q49 0 49 -41q0 -20 -4 -39zM979 1581q-53 -33 -109 -33q-75 0 -114 6q-47 5 -47 37q0 33 32 56l240 186q58 47 115 47q145 0 180 -4q65 -6 65 -43q0 -35 -36 -55z" />
    <glyph glyph-name="Ucircumflex" unicode="&#xdb;" horiz-adv-x="1404" 
d="M1454 1368l-170 -790q-39 -178 -67 -261q-28 -85 -78 -149q-80 -102 -209 -148q-130 -47 -336 -47q-82 0 -157 15q-80 16 -148 48q-74 35 -117 101q-43 67 -43 162q0 105 35 274l170 811q15 64 69 64h224q47 0 47 -43q0 -18 -8 -53l-179 -834q-14 -67 -14 -125
q0 -151 178 -151q148 0 211 63q58 53 88 199l187 880q11 64 67 64h205q49 0 49 -41q0 -20 -4 -39zM698 1550q-76 0 -116 6q-41 8 -41 39q0 28 30 52l230 202q73 64 127 64h110q60 0 99 -55l151 -207q19 -25 19 -47q0 -34 -52 -45q-35 -7 -100 -7q-53 0 -94 45l-107 117
l-151 -121q-52 -43 -105 -43z" />
    <glyph glyph-name="Udieresis" unicode="&#xdc;" horiz-adv-x="1404" 
d="M1454 1368l-170 -790q-39 -178 -67 -261q-28 -85 -78 -149q-80 -102 -209 -148q-130 -47 -336 -47q-82 0 -157 15q-80 16 -148 48q-74 35 -117 101q-43 67 -43 162q0 105 35 274l170 811q15 64 69 64h224q47 0 47 -43q0 -18 -8 -53l-179 -834q-14 -67 -14 -125
q0 -151 178 -151q148 0 211 63q58 53 88 199l187 880q11 64 67 64h205q49 0 49 -41q0 -20 -4 -39zM891 1739q0 -97 -47 -142q-41 -41 -111 -41q-121 0 -121 109q0 91 43 135q45 47 115 47q121 0 121 -108zM1303 1739q0 -96 -48 -142q-41 -41 -112 -41q-119 0 -119 109
q0 91 43 135q45 47 115 47q121 0 121 -108z" />
    <glyph glyph-name="Yacute" unicode="&#xdd;" horiz-adv-x="1263" 
d="M731 74q-12 -76 -72 -76h-217q-51 0 -51 51q0 10 8 53l101 488l-287 739q-16 39 -16 64q0 37 34 49q29 8 261 8q56 0 77 -61q116 -331 154 -467q92 150 338 464q52 64 104 64q238 0 262 -12q21 -8 21 -39q0 -23 -39 -70l-573 -731zM903 1567q-53 -33 -108 -33
q-75 0 -115 6q-47 5 -47 37q0 31 33 55l239 187q58 47 115 47q145 0 180 -4q66 -6 66 -43q0 -34 -37 -56z" />
    <glyph glyph-name="Thorn" unicode="&#xde;" horiz-adv-x="1310" 
d="M444 276l-47 -215q-15 -63 -73 -63h-213q-50 0 -50 47q0 1 1 5.5t2.5 15t3.5 20.5l276 1294q15 68 74 68h211q53 0 53 -43q0 -21 -10 -64l-39 -174h67q316 0 422 -59q148 -77 148 -262q0 -195 -86 -340q-85 -144 -275 -195q-129 -35 -364 -35h-101zM500 532h106
q122 0 182 19q127 43 127 215q0 93 -61 115q-44 18 -178 18h-98z" />
    <glyph glyph-name="germandbls" unicode="&#xdf;" horiz-adv-x="1206" 
d="M356 57q-10 -59 -67 -59h-199q-59 0 -59 45q0 18 4 39l190 895q49 233 111 334q69 108 182 168q111 59 320 59q186 0 274 -81t88 -206q0 -169 -74 -282q-68 -103 -206 -140q219 -39 219 -284q0 -324 -201 -461q-69 -47 -178 -73q-112 -27 -223 -27q-82 0 -82 55
q0 51 8 125q7 61 61 67q161 16 213 58q86 66 86 229q0 119 -176 148q-57 8 -57 84q0 66 24 119t72 65q112 27 150 80q45 72 45 184q0 102 -109 102q-97 0 -147 -71q-27 -40 -60 -185z" />
    <glyph glyph-name="agrave" unicode="&#xe0;" horiz-adv-x="1126" 
d="M932 180q-15 -77 -49 -110q-33 -33 -90 -50q-158 -47 -396 -47q-358 0 -358 260q0 238 166 340q107 64 340 64q54 0 160 -8l6 26q8 35 8 58q0 65 -129 65q-122 0 -195 -14q-73 -12 -90 -12q-36 0 -47 47q-16 67 -16 127q0 54 69 75q155 48 355 48q77 0 151 -9
q59 -7 120 -29q57 -20 88 -69q30 -46 30 -119q0 -81 -21 -172zM662 416q-60 6 -115 6q-101 0 -144 -27q-51 -30 -51 -98q0 -90 113 -90q85 0 125 22q24 13 31 33q9 21 22 80zM582 1229l-207 229q-25 28 -25 55q0 41 53 46q59 4 158 4q53 0 92 -60l152 -219q20 -26 20 -53
q0 -33 -49 -39q-40 -4 -96 -4q-57 0 -98 41z" />
    <glyph glyph-name="aacute" unicode="&#xe1;" horiz-adv-x="1126" 
d="M932 180q-15 -77 -49 -110q-33 -33 -90 -50q-158 -47 -396 -47q-358 0 -358 260q0 238 166 340q107 64 340 64q54 0 160 -8l6 26q8 35 8 58q0 65 -129 65q-122 0 -195 -14q-73 -12 -90 -12q-36 0 -47 47q-16 67 -16 127q0 54 69 75q155 48 355 48q77 0 151 -9
q59 -7 120 -29q57 -20 88 -69q30 -46 30 -119q0 -81 -21 -172zM662 416q-60 6 -115 6q-101 0 -144 -27q-51 -30 -51 -98q0 -90 113 -90q85 0 125 22q24 13 31 33q9 21 22 80zM799 1229q-46 -43 -99 -43q-34 0 -96 6q-57 8 -57 45q0 24 26 53l201 221q46 52 96 52
q97 0 162 -7q51 -6 51 -43q0 -25 -26 -51z" />
    <glyph glyph-name="acircumflex" unicode="&#xe2;" horiz-adv-x="1126" 
d="M932 180q-15 -77 -49 -110q-33 -33 -90 -50q-158 -47 -396 -47q-358 0 -358 260q0 238 166 340q107 64 340 64q54 0 160 -8l6 26q8 35 8 58q0 65 -129 65q-122 0 -195 -14q-73 -12 -90 -12q-36 0 -47 47q-16 67 -16 127q0 54 69 75q155 48 355 48q77 0 151 -9
q59 -7 120 -29q57 -20 88 -69q30 -46 30 -119q0 -81 -21 -172zM662 416q-60 6 -115 6q-101 0 -144 -27q-51 -30 -51 -98q0 -90 113 -90q85 0 125 22q24 13 31 33q9 21 22 80zM502 1182q-57 0 -101 4q-43 4 -43 41q0 24 31 55l199 219q57 62 108 62h125q50 0 80 -62l119 -225
q10 -20 10 -45q0 -33 -49 -43q-33 -6 -90 -6q-53 0 -82 47l-82 129l-135 -133q-43 -43 -90 -43z" />
    <glyph glyph-name="atilde" unicode="&#xe3;" horiz-adv-x="1126" 
d="M932 180q-15 -77 -49 -110q-33 -33 -90 -50q-158 -47 -396 -47q-358 0 -358 260q0 238 166 340q107 64 340 64q54 0 160 -8l6 26q8 35 8 58q0 65 -129 65q-122 0 -195 -14q-73 -12 -90 -12q-36 0 -47 47q-16 67 -16 127q0 54 69 75q155 48 355 48q77 0 151 -9
q59 -7 120 -29q57 -20 88 -69q30 -46 30 -119q0 -81 -21 -172zM662 416q-60 6 -115 6q-101 0 -144 -27q-51 -30 -51 -98q0 -90 113 -90q85 0 125 22q24 13 31 33q9 21 22 80zM465 1184q-2 0 -72 8q-37 6 -37 43q0 23 17 68q35 95 91 147q58 53 124 53q40 0 135 -51
q61 -35 102 -35q46 0 74 49q24 47 64 47q57 0 81 -6q31 -11 31 -39q0 -25 -28 -96q-78 -172 -203 -172q-61 0 -152 53q-57 33 -86 33q-47 0 -76 -47q-17 -31 -30 -44q-11 -11 -35 -11z" />
    <glyph glyph-name="adieresis" unicode="&#xe4;" horiz-adv-x="1126" 
d="M932 180q-15 -77 -49 -110q-33 -33 -90 -50q-158 -47 -396 -47q-358 0 -358 260q0 238 166 340q107 64 340 64q54 0 160 -8l6 26q8 35 8 58q0 65 -129 65q-122 0 -195 -14q-73 -12 -90 -12q-36 0 -47 47q-16 67 -16 127q0 54 69 75q155 48 355 48q77 0 151 -9
q59 -7 120 -29q57 -20 88 -69q30 -46 30 -119q0 -81 -21 -172zM662 416q-60 6 -115 6q-101 0 -144 -27q-51 -30 -51 -98q0 -90 113 -90q85 0 125 22q24 13 31 33q9 21 22 80zM676 1378q0 -98 -45 -141q-41 -41 -113 -41q-119 0 -119 109q0 91 41 135q45 47 117 47
q119 0 119 -109zM1073 1378q0 -98 -45 -141q-41 -41 -113 -41q-118 0 -118 109q0 86 43 135q45 47 112 47q121 0 121 -109z" />
    <glyph glyph-name="aring" unicode="&#xe5;" horiz-adv-x="1126" 
d="M932 180q-15 -77 -49 -110q-33 -33 -90 -50q-158 -47 -396 -47q-358 0 -358 260q0 238 166 340q107 64 340 64q54 0 160 -8l6 26q8 35 8 58q0 65 -129 65q-122 0 -195 -14q-73 -12 -90 -12q-36 0 -47 47q-16 67 -16 127q0 54 69 75q155 48 355 48q77 0 151 -9
q59 -7 120 -29q57 -20 88 -69q30 -46 30 -119q0 -81 -21 -172zM662 416q-60 6 -115 6q-101 0 -144 -27q-51 -30 -51 -98q0 -90 113 -90q85 0 125 22q24 13 31 33q9 21 22 80zM907 1397q0 -106 -59 -165q-61 -61 -164 -61q-86 0 -137 48q-49 46 -49 135q0 103 61 164t162 61
q87 0 137 -47q49 -46 49 -135zM813 1395q0 102 -102 102q-54 0 -88 -37q-35 -38 -35 -96q0 -111 104 -111q58 0 89 37q32 38 32 105z" />
    <glyph glyph-name="ae" unicode="&#xe6;" horiz-adv-x="1660" 
d="M731 86q-148 -113 -352 -113q-166 0 -253 69t-87 196q0 238 170 333q114 66 344 66l154 -6l8 33q4 15 4 49q0 65 -135 65q-118 0 -209 -18q-53 -8 -70 -8q-42 0 -49 49q-16 74 -16 125q0 62 77 80q151 43 353 43q250 0 295 -109q114 109 311 109q189 0 273 -73
q83 -72 83 -212q0 -142 -39 -275q-15 -53 -39 -65q-18 -12 -51 -12h-522q-6 -30 -6 -58q0 -68 45 -95q47 -28 131 -28q99 0 219 23q4 0 16 3q15 4 25 5q16 2 23 2q32 0 47 -53q24 -84 24 -121t-47 -61q-115 -56 -379 -56q-246 0 -348 113zM666 416q-65 4 -121 4
q-115 0 -152 -27q-41 -33 -41 -100q0 -86 113 -86q52 0 110 13q59 13 84 32q-4 25 -4 47q0 64 11 117zM1024 635h295q14 46 14 92q0 49 -25 73q-24 23 -89 23q-152 0 -195 -188z" />
    <glyph glyph-name="ccedilla" unicode="&#xe7;" horiz-adv-x="948" 
d="M469 -94q160 -12 160 -166q0 -149 -88 -209q-87 -59 -250 -59q-63 0 -96 10q-44 12 -45 49q0 29 12 72q15 47 63 47q22 0 51 -4q22 -2 54 -2q41 0 55 14t14 51q0 39 -45 39h-39q-47 0 -47 43q0 9 21 70l43 129q-260 60 -260 344q0 166 60 336t183 270q136 109 385 109
q148 0 236 -31q37 -15 37 -49q0 -20 -14 -78t-29 -88q-21 -37 -56 -37q-4 0 -65 8q-74 10 -127 10q-115 0 -170 -59q-49 -49 -76 -143q-26 -91 -26 -174q0 -177 163 -177q50 0 136 13l27 5q27 5 34 5q38 0 49 -47q15 -72 15 -144q0 -40 -56 -55q-121 -31 -289 -35z" />
    <glyph glyph-name="egrave" unicode="&#xe8;" horiz-adv-x="1085" 
d="M403 412q-4 -33 -4 -52q0 -74 45 -101q47 -28 138 -28q116 0 206 21q2 0 31 6t39 6q34 0 45 -39q23 -78 23 -133q0 -42 -47 -63q-124 -56 -387 -56q-420 0 -420 363q0 161 58 323q59 165 173 267q144 123 391 123q197 0 280 -74t83 -211q0 -141 -37 -270q-18 -54 -41 -70
q-18 -12 -53 -12h-523zM451 637h292q15 47 15 94t-23 70q-22 22 -86 22q-75 0 -125 -45q-49 -43 -73 -141zM600 1229l-207 229q-24 27 -24 55q0 41 53 46q59 4 158 4q53 0 92 -60l151 -219q21 -27 21 -53q0 -33 -49 -39q-40 -4 -97 -4t-98 41z" />
    <glyph glyph-name="eacute" unicode="&#xe9;" horiz-adv-x="1085" 
d="M403 412q-4 -33 -4 -52q0 -74 45 -101q47 -28 138 -28q116 0 206 21q2 0 31 6t39 6q34 0 45 -39q23 -78 23 -133q0 -42 -47 -63q-124 -56 -387 -56q-420 0 -420 363q0 161 58 323q59 165 173 267q144 123 391 123q197 0 280 -74t83 -211q0 -141 -37 -270q-18 -54 -41 -70
q-18 -12 -53 -12h-523zM451 637h292q15 47 15 94t-23 70q-22 22 -86 22q-75 0 -125 -45q-49 -43 -73 -141zM784 1229q-46 -43 -98 -43q-34 0 -96 6q-58 8 -58 45q0 23 27 53l201 221q46 52 96 52q97 0 162 -7q51 -6 51 -43q0 -24 -27 -51z" />
    <glyph glyph-name="ecircumflex" unicode="&#xea;" horiz-adv-x="1085" 
d="M403 412q-4 -33 -4 -52q0 -74 45 -101q47 -28 138 -28q116 0 206 21q2 0 31 6t39 6q34 0 45 -39q23 -78 23 -133q0 -42 -47 -63q-124 -56 -387 -56q-420 0 -420 363q0 161 58 323q59 165 173 267q144 123 391 123q197 0 280 -74t83 -211q0 -141 -37 -270q-18 -54 -41 -70
q-18 -12 -53 -12h-523zM451 637h292q15 47 15 94t-23 70q-22 22 -86 22q-75 0 -125 -45q-49 -43 -73 -141zM524 1182q-56 0 -100 4q-43 4 -43 41q0 24 31 55l198 219q57 62 109 62h125q50 0 80 -62l118 -225q11 -22 11 -45q0 -33 -49 -43q-33 -6 -91 -6q-53 0 -82 47
l-81 129l-136 -133q-43 -43 -90 -43z" />
    <glyph glyph-name="edieresis" unicode="&#xeb;" horiz-adv-x="1085" 
d="M403 412q-4 -33 -4 -52q0 -74 45 -101q47 -28 138 -28q116 0 206 21q2 0 31 6t39 6q34 0 45 -39q23 -78 23 -133q0 -42 -47 -63q-124 -56 -387 -56q-420 0 -420 363q0 161 58 323q59 165 173 267q144 123 391 123q197 0 280 -74t83 -211q0 -141 -37 -270q-18 -54 -41 -70
q-18 -12 -53 -12h-523zM451 637h292q15 47 15 94t-23 70q-22 22 -86 22q-75 0 -125 -45q-49 -43 -73 -141zM670 1378q0 -98 -45 -141q-41 -41 -113 -41q-119 0 -119 109q0 91 41 135q45 47 117 47q119 0 119 -109zM1067 1378q0 -98 -45 -141q-41 -41 -113 -41
q-118 0 -118 109q0 86 43 135q45 47 112 47q121 0 121 -109z" />
    <glyph glyph-name="igrave" unicode="&#xec;" horiz-adv-x="579" 
d="M297 1229l-207 229q-24 27 -24 55q0 41 53 46q59 4 157 4q54 0 93 -60l151 -219q21 -27 21 -53q0 -33 -49 -39q-40 -4 -97 -4t-98 41zM365 61q-15 -63 -70 -63h-209q-49 0 -49 43q0 8 3 26t3 23l186 868q17 64 70 64h213q45 0 45 -43q0 -19 -10 -55z" />
    <glyph glyph-name="iacute" unicode="&#xed;" horiz-adv-x="579" 
d="M481 1229q-46 -43 -98 -43q-35 0 -96 6q-58 8 -58 45q0 23 27 53l201 221q46 52 96 52q97 0 162 -7q51 -6 51 -43q0 -24 -27 -51zM365 61q-15 -63 -70 -63h-209q-49 0 -49 43q0 8 3 26t3 23l186 868q17 64 70 64h213q45 0 45 -43q0 -19 -10 -55z" />
    <glyph glyph-name="icircumflex" unicode="&#xee;" horiz-adv-x="579" 
d="M365 61q-15 -63 -70 -63h-209q-49 0 -49 43q0 8 3 26t3 23l186 868q17 64 70 64h213q45 0 45 -43q0 -19 -10 -55zM227 1182q-56 0 -100 4q-43 4 -43 41q0 24 31 55l198 219q57 62 109 62h125q50 0 80 -62l118 -225q11 -22 11 -45q0 -33 -49 -43q-33 -6 -91 -6
q-52 0 -81 47l-82 129l-136 -133q-43 -43 -90 -43z" />
    <glyph glyph-name="idieresis" unicode="&#xef;" horiz-adv-x="579" 
d="M377 1378q0 -98 -45 -141q-41 -41 -113 -41q-119 0 -119 109q0 91 41 135q45 47 117 47q119 0 119 -109zM774 1378q0 -98 -45 -141q-41 -41 -113 -41q-118 0 -118 109q0 86 43 135q45 47 112 47q121 0 121 -109zM365 61q-15 -63 -70 -63h-209q-49 0 -49 43q0 8 3 26t3 23
l186 868q17 64 70 64h213q45 0 45 -43q0 -19 -10 -55z" />
    <glyph glyph-name="eth" unicode="&#xf0;" horiz-adv-x="1161" 
d="M1098 1343l-76 -45q96 -144 96 -393q0 -539 -194 -778q-125 -152 -416 -152q-100 0 -175 14t-139 49q-68 37 -102 108q-35 73 -35 182q0 365 179 549q135 137 389 137q57 0 115 -18t75 -48q-6 120 -53 197l-121 -70q-33 -20 -55 -20q-23 0 -37 26q-51 78 -51 105
q0 28 43 55l57 33q-67 26 -160 37q-45 5 -45 47q0 55 27 121q21 51 67 51q44 0 74 -2q192 -21 313 -92l119 71q32 19 54 19q21 0 36 -23q56 -85 56 -108q0 -29 -41 -52zM770 653q0 66 -34 91q-35 26 -109 26q-104 0 -148 -65q-40 -59 -64 -167t-24 -176q0 -74 34 -101
q36 -28 110 -28q98 0 145 64q38 52 64 171q26 121 26 185z" />
    <glyph glyph-name="ntilde" unicode="&#xf1;" horiz-adv-x="1200" 
d="M365 61q-17 -63 -68 -63h-211q-49 0 -49 43q0 19 6 43l160 750q18 96 104 131q213 84 522 84q304 0 304 -193q0 -88 -21 -182l-131 -613q-15 -63 -68 -63h-211q-49 0 -49 43q0 15 6 45l119 557q10 49 10 76q0 65 -100 65q-66 0 -117 -16q-24 -6 -49 -23q-18 -17 -24 -49z
M496 1184q-2 0 -72 8q-37 6 -37 43q0 26 16 68q34 94 92 147t123 53q42 0 136 -51q61 -35 102 -35q46 0 74 49q24 47 63 47q58 0 82 -6q31 -11 31 -39q0 -23 -29 -96q-78 -172 -203 -172q-60 0 -151 53q-57 33 -86 33q-47 0 -76 -47q-16 -29 -31 -44q-11 -11 -34 -11z" />
    <glyph glyph-name="ograve" unicode="&#xf2;" horiz-adv-x="1153" 
d="M1100 711q0 -139 -47 -313q-46 -171 -138 -275q-127 -150 -403 -150q-99 0 -174 14q-74 14 -136 50q-65 38 -98 109q-32 70 -32 182q0 156 47 317q47 160 149 262q136 142 383 142q105 0 175 -12q75 -13 139 -44q67 -33 101 -103q34 -69 34 -179zM766 668q0 67 -31 93
q-29 25 -102 25q-92 0 -137 -67q-43 -63 -66 -174q-24 -114 -24 -185q0 -74 30 -101q31 -28 101 -28q89 0 139 64q38 50 64 177q26 128 26 196zM569 1229l-207 229q-24 27 -24 55q0 41 53 46q59 4 158 4q53 0 92 -60l152 -219q20 -26 20 -53q0 -33 -49 -39q-40 -4 -96 -4
q-58 0 -99 41z" />
    <glyph glyph-name="oacute" unicode="&#xf3;" horiz-adv-x="1153" 
d="M1100 711q0 -139 -47 -313q-46 -171 -138 -275q-127 -150 -403 -150q-99 0 -174 14q-74 14 -136 50q-65 38 -98 109q-32 70 -32 182q0 156 47 317q47 160 149 262q136 142 383 142q105 0 175 -12q75 -13 139 -44q67 -33 101 -103q34 -69 34 -179zM766 668q0 67 -31 93
q-29 25 -102 25q-92 0 -137 -67q-43 -63 -66 -174q-24 -114 -24 -185q0 -74 30 -101q31 -28 101 -28q89 0 139 64q38 50 64 177q26 128 26 196zM762 1229q-46 -43 -98 -43q-36 0 -97 6q-57 8 -57 45q0 23 27 53l200 221q46 52 97 52q96 0 161 -7q52 -6 52 -43q0 -24 -27 -51
z" />
    <glyph glyph-name="ocircumflex" unicode="&#xf4;" horiz-adv-x="1153" 
d="M1100 711q0 -139 -47 -313q-46 -171 -138 -275q-127 -150 -403 -150q-99 0 -174 14q-74 14 -136 50q-65 38 -98 109q-32 70 -32 182q0 156 47 317q47 160 149 262q136 142 383 142q105 0 175 -12q75 -13 139 -44q67 -33 101 -103q34 -69 34 -179zM766 668q0 67 -31 93
q-29 25 -102 25q-92 0 -137 -67q-43 -63 -66 -174q-24 -114 -24 -185q0 -74 30 -101q31 -28 101 -28q89 0 139 64q38 50 64 177q26 128 26 196zM530 1182q-56 0 -100 4q-43 4 -43 41q0 24 31 55l198 219q57 62 109 62h125q50 0 80 -62l119 -225q10 -20 10 -45q0 -33 -49 -43
q-34 -6 -90 -6q-53 0 -82 47l-82 129l-135 -133q-43 -43 -91 -43z" />
    <glyph glyph-name="otilde" unicode="&#xf5;" horiz-adv-x="1153" 
d="M1100 711q0 -139 -47 -313q-46 -171 -138 -275q-127 -150 -403 -150q-99 0 -174 14q-74 14 -136 50q-65 38 -98 109q-32 70 -32 182q0 156 47 317q47 160 149 262q136 142 383 142q105 0 175 -12q75 -13 139 -44q67 -33 101 -103q34 -69 34 -179zM766 668q0 67 -31 93
q-29 25 -102 25q-92 0 -137 -67q-43 -63 -66 -174q-24 -114 -24 -185q0 -74 30 -101q31 -28 101 -28q89 0 139 64q38 50 64 177q26 128 26 196zM483 1184q-1 0 -71 8q-37 6 -37 43q0 26 16 68q35 95 91 147q58 53 124 53q40 0 135 -51q61 -35 103 -35q46 0 74 49
q24 47 63 47q58 0 82 -6q31 -11 31 -39q0 -23 -29 -96q-78 -172 -203 -172q-60 0 -151 53q-57 33 -86 33q-47 0 -76 -47q-16 -29 -31 -44q-11 -11 -35 -11z" />
    <glyph glyph-name="odieresis" unicode="&#xf6;" horiz-adv-x="1153" 
d="M1100 711q0 -139 -47 -313q-46 -171 -138 -275q-127 -150 -403 -150q-99 0 -174 14q-74 14 -136 50q-65 38 -98 109q-32 70 -32 182q0 156 47 317q47 160 149 262q136 142 383 142q105 0 175 -12q75 -13 139 -44q67 -33 101 -103q34 -69 34 -179zM766 668q0 67 -31 93
q-29 25 -102 25q-92 0 -137 -67q-43 -63 -66 -174q-24 -114 -24 -185q0 -74 30 -101q31 -28 101 -28q89 0 139 64q38 50 64 177q26 128 26 196zM692 1378q0 -98 -45 -141q-41 -41 -112 -41q-119 0 -119 109q0 91 41 135q45 47 116 47q119 0 119 -109zM1090 1378
q0 -97 -46 -141q-41 -41 -112 -41q-119 0 -119 109q0 86 43 135q45 47 113 47q121 0 121 -109z" />
    <glyph glyph-name="divide" unicode="&#xf7;" horiz-adv-x="1435" 
d="M961 1008q0 -78 -39 -127q-39 -50 -121 -50q-121 0 -121 115q0 168 151 168q52 0 91 -27t39 -79zM1198 502h-922q-65 0 -65 59q0 20 14 84q15 68 76 68h924q67 0 67 -56q0 -25 -14 -94q-15 -61 -80 -61zM813 260q0 -76 -39 -124t-119 -48q-123 0 -123 113q0 168 154 168
q50 0 89 -28q38 -27 38 -81z" />
    <glyph glyph-name="oslash" unicode="&#xf8;" horiz-adv-x="1153" 
d="M164 -57q-17 -19 -29 -19q-15 1 -67 47q-11 11 -11 23q0 14 17 31l61 71q-63 82 -63 232q0 156 47 318q47 160 149 263q137 140 383 140q184 0 273 -37l77 92q11 14 29 14q10 0 27 -12q47 -39 47 -55q0 -15 -12 -27l-68 -78q76 -82 76 -235q0 -139 -47 -313
q-46 -171 -138 -275q-127 -150 -403 -150q-186 0 -283 47zM535 227q97 0 149 70q37 49 64 168q26 116 28 190l-346 -401q33 -27 105 -27zM485 719q-34 -48 -60 -149q-24 -94 -30 -173l326 379q-39 17 -84 17q-102 0 -152 -74z" />
    <glyph glyph-name="ugrave" unicode="&#xf9;" horiz-adv-x="1200" 
d="M1006 180q-18 -96 -105 -131q-201 -76 -518 -76q-303 0 -303 197q0 89 20 180l129 608q15 64 68 64h211q49 0 49 -43q0 -15 -6 -45l-117 -545q-12 -67 -12 -88q0 -68 102 -68q63 0 117 17q27 7 47 22q19 16 25 50l135 636q15 64 65 64h211q50 0 50 -43q0 -15 -7 -43z
M618 1233l-206 229q-25 28 -25 56q0 40 53 45q59 4 158 4q53 0 92 -60l152 -219q20 -26 20 -53q0 -33 -49 -39q-40 -4 -96 -4q-58 0 -99 41z" />
    <glyph glyph-name="uacute" unicode="&#xfa;" horiz-adv-x="1200" 
d="M1006 180q-18 -96 -105 -131q-201 -76 -518 -76q-303 0 -303 197q0 89 20 180l129 608q15 64 68 64h211q49 0 49 -43q0 -15 -6 -45l-117 -545q-12 -67 -12 -88q0 -68 102 -68q63 0 117 17q27 7 47 22q19 16 25 50l135 636q15 64 65 64h211q50 0 50 -43q0 -15 -7 -43z
M805 1229q-46 -43 -98 -43q-35 0 -97 6q-57 8 -57 45q0 23 27 53l200 221q46 52 97 52q96 0 161 -7q52 -6 52 -43q0 -24 -27 -51z" />
    <glyph glyph-name="ucircumflex" unicode="&#xfb;" horiz-adv-x="1200" 
d="M1006 180q-18 -96 -105 -131q-201 -76 -518 -76q-303 0 -303 197q0 89 20 180l129 608q15 64 68 64h211q49 0 49 -43q0 -15 -6 -45l-117 -545q-12 -67 -12 -88q0 -68 102 -68q63 0 117 17q27 7 47 22q19 16 25 50l135 636q15 64 65 64h211q50 0 50 -43q0 -15 -7 -43z
M545 1182q-57 0 -101 4q-43 4 -43 41q0 24 31 55l199 219q57 62 108 62h125q50 0 80 -62l119 -225q10 -20 10 -45q0 -33 -49 -43q-34 -6 -90 -6q-53 0 -82 47l-82 129l-135 -133q-43 -43 -90 -43z" />
    <glyph glyph-name="udieresis" unicode="&#xfc;" horiz-adv-x="1200" 
d="M1006 180q-18 -96 -105 -131q-201 -76 -518 -76q-303 0 -303 197q0 89 20 180l129 608q15 64 68 64h211q49 0 49 -43q0 -15 -6 -45l-117 -545q-12 -67 -12 -88q0 -68 102 -68q63 0 117 17q27 7 47 22q19 16 25 50l135 636q15 64 65 64h211q50 0 50 -43q0 -15 -7 -43z
M696 1378q0 -98 -45 -141q-41 -41 -112 -41q-119 0 -119 109q0 91 41 135q45 47 117 47q118 0 118 -109zM1094 1378q0 -98 -45 -141q-41 -41 -113 -41q-119 0 -119 109q0 86 43 135q45 47 113 47q121 0 121 -109z" />
    <glyph glyph-name="yacute" unicode="&#xfd;" horiz-adv-x="1200" 
d="M643 25q-125 -52 -264 -52q-301 0 -301 199q0 75 20 172l131 614q15 64 70 64h213q45 0 45 -45q0 -9 -1 -16q-2 -16 -4 -23q-3 -12 -3 -16l-115 -537q-12 -49 -12 -92q0 -60 104 -60q59 0 113 17q31 8 47 22q22 22 29 58l133 628q15 64 72 64h204q50 0 50 -45
q0 -3 -7 -47l-178 -838q-40 -182 -74 -258q-84 -176 -253 -244q-173 -69 -527 -69q-86 0 -86 63q0 85 2 123q6 76 76 78q239 6 343 35q102 28 132 84q19 36 35 96zM803 1229q-46 -43 -98 -43q-36 0 -97 6q-57 8 -57 45q0 23 27 53l200 221q46 52 96 52q97 0 162 -7
q51 -6 51 -43q0 -25 -26 -51z" />
    <glyph glyph-name="thorn" unicode="&#xfe;" horiz-adv-x="1206" 
d="M354 18l-98 -450q-12 -68 -78 -68h-194q-54 0 -54 49l1 5q1 4 2.5 13.5t3.5 20.5l395 1864q11 45 26 62q16 18 56 18h186q39 0 51 -9q13 -10 13 -38q0 -5 -11 -58l-106 -489q102 106 297 106q146 0 222 -66q77 -66 77 -224q0 -116 -35 -274q-34 -155 -98 -267
q-74 -131 -186 -178t-296 -47q-130 0 -174 30zM403 256q44 -20 117 -20q86 0 131 23q47 25 74 79q35 66 57 165q23 101 23 165q0 60 -31 88q-29 26 -102 26q-79 0 -137 -32q-14 -6 -25 -23q-8 -18 -14 -41z" />
    <glyph glyph-name="ydieresis" unicode="&#xff;" horiz-adv-x="1200" 
d="M643 25q-125 -52 -264 -52q-301 0 -301 199q0 75 20 172l131 614q15 64 70 64h213q45 0 45 -45q0 -9 -1 -16q-2 -16 -4 -23q-3 -12 -3 -16l-115 -537q-12 -49 -12 -92q0 -60 104 -60q59 0 113 17q31 8 47 22q22 22 29 58l133 628q15 64 72 64h204q50 0 50 -45
q0 -3 -7 -47l-178 -838q-40 -182 -74 -258q-84 -176 -253 -244q-173 -69 -527 -69q-86 0 -86 63q0 85 2 123q6 76 76 78q239 6 343 35q102 28 132 84q19 36 35 96zM692 1378q0 -98 -45 -141q-41 -41 -112 -41q-119 0 -119 109q0 91 41 135q45 47 116 47q119 0 119 -109z
M1090 1378q0 -97 -46 -141q-41 -41 -112 -41q-119 0 -119 109q0 86 43 135q45 47 113 47q121 0 121 -109z" />
    <glyph glyph-name="Amacron" unicode="&#x100;" horiz-adv-x="1370" 
d="M440 346l-147 -278q-23 -43 -38 -59q-15 -15 -48 -15q-212 0 -248 10q-31 8 -31 37q0 32 25 80l610 1128q66 124 117 164q52 41 172 41h78q111 0 152 -44t53 -150l122 -1123q5 -50 5 -69q0 -46 -43 -62q-24 -12 -232 -12q-36 0 -50 17t-19 59l-27 276h-451zM575 618h304
q-28 335 -35 560zM1174 1585h-535q-53 0 -53 43q0 31 24 115q15 57 76 57h531q55 0 55 -43q0 -22 -25 -117q-7 -32 -24 -44q-15 -11 -49 -11z" />
    <glyph glyph-name="amacron" unicode="&#x101;" horiz-adv-x="1126" 
d="M932 180q-15 -77 -49 -110q-33 -33 -90 -50q-158 -47 -396 -47q-358 0 -358 260q0 238 166 340q107 64 340 64q54 0 160 -8l6 26q8 35 8 58q0 65 -129 65q-122 0 -195 -14q-73 -12 -90 -12q-36 0 -47 47q-16 67 -16 127q0 54 69 75q155 48 355 48q77 0 151 -9
q59 -7 120 -29q57 -20 88 -69q30 -46 30 -119q0 -81 -21 -172zM662 416q-60 6 -115 6q-101 0 -144 -27q-51 -30 -51 -98q0 -90 113 -90q85 0 125 22q24 13 31 33q9 21 22 80zM924 1214h-457q-53 0 -53 46q0 30 24 114q17 56 74 56h453q55 0 55 -41q0 -21 -25 -119
q-12 -56 -71 -56z" />
    <glyph glyph-name="Abreve" unicode="&#x102;" horiz-adv-x="1370" 
d="M440 346l-147 -278q-23 -43 -38 -59q-15 -15 -48 -15q-212 0 -248 10q-31 8 -31 37q0 32 25 80l610 1128q66 124 117 164q52 41 172 41h78q111 0 152 -44t53 -150l122 -1123q5 -50 5 -69q0 -46 -43 -62q-24 -12 -232 -12q-36 0 -50 17t-19 59l-27 276h-451zM575 618h304
q-28 335 -35 560zM1153 1884q58 0 76 -6q33 -8 33 -47q0 -44 -23 -98q-80 -193 -350 -193q-122 0 -212 61q-89 60 -89 177q0 46 6 63q11 34 61 41q20 2 58 2q34 0 48 -10t19 -39q4 -35 17 -53q30 -47 116 -47q75 0 107 23t55 75q16 32 29 41q14 10 49 10z" />
    <glyph glyph-name="abreve" unicode="&#x103;" horiz-adv-x="1126" 
d="M932 180q-15 -77 -49 -110q-33 -33 -90 -50q-158 -47 -396 -47q-358 0 -358 260q0 238 166 340q107 64 340 64q54 0 160 -8l6 26q8 35 8 58q0 65 -129 65q-122 0 -195 -14q-73 -12 -90 -12q-36 0 -47 47q-16 67 -16 127q0 54 69 75q155 48 355 48q77 0 151 -9
q59 -7 120 -29q57 -20 88 -69q30 -46 30 -119q0 -81 -21 -172zM662 416q-60 6 -115 6q-101 0 -144 -27q-51 -30 -51 -98q0 -90 113 -90q85 0 125 22q24 13 31 33q9 21 22 80zM940 1532q47 0 74 -6q28 -6 28 -47q0 -49 -22 -99q-46 -104 -122 -157q-77 -54 -218 -54
q-136 0 -208 66q-73 67 -73 156q0 42 7 75q12 53 45 60q30 6 67 6q64 0 64 -49q0 -46 10 -66q22 -55 113 -55q68 0 102 29q33 29 57 84q17 34 31 45q15 12 45 12z" />
    <glyph glyph-name="Aogonek" unicode="&#x104;" horiz-adv-x="1370" 
d="M440 346l-147 -278q-23 -43 -38 -59q-15 -15 -48 -15q-212 0 -248 10q-31 8 -31 37q0 32 25 80l610 1128q66 124 117 164q52 41 172 41h78q111 0 152 -44t53 -150l122 -1123q5 -50 5 -69q0 -46 -43 -62q-1 -1 -7 -3q-3 -1 -6 -1q-132 -85 -183 -141q-54 -60 -54 -140
q0 -35 21 -56t59 -21q31 0 52 1t36 1q20 0 32 -10q11 -10 17 -37q6 -24 6 -64q0 -31 -13 -44q-12 -12 -51 -23q-49 -11 -143 -11q-242 0 -242 195q0 125 65 205t183 137h-4q-36 0 -50 17t-19 59l-27 276h-451zM575 618h304q-28 335 -35 560z" />
    <glyph glyph-name="aogonek" unicode="&#x105;" horiz-adv-x="1126" 
d="M932 180q-15 -77 -49 -110q-18 -18 -52 -35q-34 -25 -58 -41q-45 -30 -58 -40q-23 -16 -48 -37q-31 -25 -45 -42q-3 -4 -31 -41q-18 -24 -24 -49q-6 -24 -6 -53q0 -70 76 -70q29 0 49 1t35 1q23 0 33 -9q10 -8 16 -38q8 -35 8 -61q-2 -28 -15 -42q-15 -15 -48 -22
q-43 -10 -140 -10q-231 0 -231 184q0 224 234 318q-1 0 -10.5 -1t-28.5 -2.5t-40 -2.5q-80 -5 -102 -5q-358 0 -358 260q0 238 166 340q107 64 340 64q54 0 160 -8l6 26q8 35 8 58q0 65 -129 65q-122 0 -195 -14q-73 -12 -90 -12q-36 0 -47 47q-16 67 -16 127q0 54 69 75
q155 48 355 48q77 0 151 -9q59 -7 120 -29q57 -20 88 -69q30 -46 30 -119q0 -81 -21 -172zM662 416q-60 6 -115 6q-101 0 -144 -27q-51 -30 -51 -98q0 -90 113 -90q85 0 125 22q24 13 31 33q9 21 22 80z" />
    <glyph glyph-name="Cacute" unicode="&#x106;" horiz-adv-x="1175" 
d="M467 551q0 -162 62 -234q63 -73 196 -73q107 0 186 10q74 10 93 10q40 0 51 -45q14 -73 14 -145q0 -17 -16 -32q-19 -17 -41 -24q-164 -45 -412 -45q-485 0 -485 516q0 236 82 472q83 238 245 372q169 140 488 140q158 0 280 -25q56 -12 56 -64q0 -78 -45 -172
q-12 -28 -47 -28q-30 0 -74 6q-73 12 -178 12q-186 0 -281 -104q-81 -88 -128 -248q-46 -156 -46 -299zM967 1581q-53 -33 -109 -33q-76 0 -115 6q-47 5 -47 37t33 56l240 186q58 47 114 47q146 0 181 -4q65 -6 65 -43q0 -34 -37 -55z" />
    <glyph glyph-name="cacute" unicode="&#x107;" horiz-adv-x="948" 
d="M410 408q0 -177 163 -177q50 0 136 13l27 5q27 5 34 5q38 0 49 -47q15 -72 15 -144q0 -40 -56 -55q-125 -35 -299 -35q-195 0 -301 90t-106 271q0 166 60 336t183 270q136 109 385 109q148 0 236 -31q37 -15 37 -49q0 -20 -14 -78t-29 -88q-21 -37 -56 -37q-4 0 -65 8
q-74 10 -127 10q-115 0 -170 -59q-49 -49 -76 -143q-26 -91 -26 -174zM782 1229q-46 -43 -98 -43q-34 0 -96 6q-58 8 -58 45q0 23 27 53l201 221q46 52 96 52q97 0 162 -7q51 -6 51 -43q0 -24 -27 -51z" />
    <glyph glyph-name="Ccircumflex" unicode="&#x108;" horiz-adv-x="1175" 
d="M467 551q0 -162 62 -234q63 -73 196 -73q107 0 186 10q74 10 93 10q40 0 51 -45q14 -73 14 -145q0 -17 -16 -32q-19 -17 -41 -24q-164 -45 -412 -45q-485 0 -485 516q0 236 82 472q83 238 245 372q169 140 488 140q158 0 280 -25q56 -12 56 -64q0 -78 -45 -172
q-12 -28 -47 -28q-30 0 -74 6q-73 12 -178 12q-186 0 -281 -104q-81 -88 -128 -248q-46 -156 -46 -299zM696 1550q-77 0 -116 6q-41 8 -41 39q0 28 30 52l230 202q73 64 127 64h110q60 0 99 -55l151 -207q19 -25 19 -47q0 -34 -52 -45q-35 -7 -100 -7q-53 0 -94 45l-107 117
l-151 -121q-50 -43 -105 -43z" />
    <glyph glyph-name="ccircumflex" unicode="&#x109;" horiz-adv-x="948" 
d="M410 408q0 -177 163 -177q50 0 136 13l27 5q27 5 34 5q38 0 49 -47q15 -72 15 -144q0 -40 -56 -55q-125 -35 -299 -35q-195 0 -301 90t-106 271q0 166 60 336t183 270q136 109 385 109q148 0 236 -31q37 -15 37 -49q0 -20 -14 -78t-29 -88q-21 -37 -56 -37q-4 0 -65 8
q-74 10 -127 10q-115 0 -170 -59q-49 -49 -76 -143q-26 -91 -26 -174zM508 1182q-56 0 -100 4q-43 4 -43 41q0 25 30 55l199 219q57 62 108 62h125q50 0 80 -62l119 -225q10 -20 10 -45q0 -33 -49 -43q-35 -6 -90 -6q-53 0 -82 47l-82 129l-135 -133q-43 -43 -90 -43z" />
    <glyph glyph-name="Cdotaccent" unicode="&#x10a;" horiz-adv-x="1175" 
d="M467 551q0 -162 62 -234q63 -73 196 -73q107 0 186 10q74 10 93 10q40 0 51 -45q14 -73 14 -145q0 -17 -16 -32q-19 -17 -41 -24q-164 -45 -412 -45q-485 0 -485 516q0 236 82 472q83 238 245 372q169 140 488 140q158 0 280 -25q56 -12 56 -64q0 -78 -45 -172
q-12 -28 -47 -28q-30 0 -74 6q-73 12 -178 12q-186 0 -281 -104q-81 -88 -128 -248q-46 -156 -46 -299zM1032 1739q0 -99 -45 -142q-41 -41 -113 -41q-118 0 -118 109q0 86 43 135q45 47 112 47q121 0 121 -108z" />
    <glyph glyph-name="cdotaccent" unicode="&#x10b;" horiz-adv-x="948" 
d="M410 408q0 -177 163 -177q50 0 136 13l27 5q27 5 34 5q38 0 49 -47q15 -72 15 -144q0 -40 -56 -55q-125 -35 -299 -35q-195 0 -301 90t-106 271q0 166 60 336t183 270q136 109 385 109q148 0 236 -31q37 -15 37 -49q0 -20 -14 -78t-29 -88q-21 -37 -56 -37q-4 0 -65 8
q-74 10 -127 10q-115 0 -170 -59q-49 -49 -76 -143q-26 -91 -26 -174zM838 1378q0 -90 -45 -141q-41 -41 -113 -41q-119 0 -119 109q0 86 43 135q39 47 113 47q121 0 121 -109z" />
    <glyph glyph-name="Ccaron" unicode="&#x10c;" horiz-adv-x="1175" 
d="M467 551q0 -162 62 -234q63 -73 196 -73q107 0 186 10q74 10 93 10q40 0 51 -45q14 -73 14 -145q0 -17 -16 -32q-19 -17 -41 -24q-164 -45 -412 -45q-485 0 -485 516q0 236 82 472q83 238 245 372q169 140 488 140q158 0 280 -25q56 -12 56 -64q0 -78 -45 -172
q-12 -28 -47 -28q-30 0 -74 6q-73 12 -178 12q-186 0 -281 -104q-81 -88 -128 -248q-46 -156 -46 -299zM1135 1913q77 0 116 -6q39 -5 39 -37q0 -27 -28 -51l-232 -205q-74 -62 -127 -62h-108q-59 0 -99 54l-153 206q-19 25 -19 48q0 37 54 45q43 8 100 8q53 0 92 -45
l104 -117l156 119q50 43 105 43z" />
    <glyph glyph-name="ccaron" unicode="&#x10d;" horiz-adv-x="948" 
d="M410 408q0 -177 163 -177q50 0 136 13l27 5q27 5 34 5q38 0 49 -47q15 -72 15 -144q0 -40 -56 -55q-125 -35 -299 -35q-195 0 -301 90t-106 271q0 166 60 336t183 270q136 109 385 109q148 0 236 -31q37 -15 37 -49q0 -20 -14 -78t-29 -88q-21 -37 -56 -37q-4 0 -65 8
q-74 10 -127 10q-115 0 -170 -59q-49 -49 -76 -143q-26 -91 -26 -174zM891 1571q56 0 100 -4q43 -4 43 -39q0 -25 -30 -55l-199 -220q-60 -63 -105 -63h-129q-46 0 -79 63l-117 222q-13 26 -13 47q0 37 50 43q33 6 90 6q52 0 82 -45l82 -129l135 131q43 43 90 43z" />
    <glyph glyph-name="Dcaron" unicode="&#x10e;" horiz-adv-x="1413" 
d="M477 0h-168q-109 0 -156 40q-49 41 -49 122q0 45 11 94l200 944q53 246 283 246h166q227 0 373 -49q125 -40 197 -151q71 -110 71 -267q0 -154 -24 -289q-25 -140 -78 -265q-54 -128 -159 -228t-247 -146q-151 -51 -420 -51zM481 399q-12 -49 -12 -65q0 -47 63 -47h93
q101 0 182 37q129 60 191 241q63 183 63 367q0 147 -100 196q-61 33 -185 33h-67q-65 0 -80 -74zM1110 1913q78 0 117 -6q39 -5 39 -37q0 -27 -29 -51l-231 -205q-74 -62 -127 -62h-109q-58 0 -98 54l-154 206q-18 24 -18 48q0 37 53 45q43 8 100 8q53 0 92 -45l105 -117
l156 119q50 43 104 43z" />
    <glyph glyph-name="dcaron" unicode="&#x10f;" horiz-adv-x="1181" 
d="M983 166q-7 -35 -27 -74q-23 -42 -90 -65q-148 -54 -395 -54q-399 0 -399 340q0 172 52 338q53 169 161 271q77 72 167 99q95 28 230 28q103 0 160 -23l90 426q17 80 78 80h190q62 0 62 -47q0 -1 -1 -6.5t-2.5 -17t-3.5 -23.5zM690 317l86 400q4 25 4 33q0 18 -16 28
q-28 15 -94 15q-98 0 -154 -58q-48 -51 -82 -160q-33 -106 -33 -202q0 -144 125 -144q72 0 117 17q20 7 31 26q9 15 16 45zM1499 1532h84q64 0 64 -68q0 -39 -17 -96q-46 -153 -168 -270q-43 -43 -80 -43q-26 0 -59 18q-33 21 -33 51q0 23 25 62q68 95 90 256q12 90 94 90z
" />
    <glyph glyph-name="Dcroat" unicode="&#x110;" horiz-adv-x="1413" 
d="M477 0h-168q-109 0 -156 40q-49 41 -49 122q0 45 11 94l78 367h-97q-49 0 -49 45q0 24 27 143q10 55 67 55h103l71 334q53 246 283 246h166q227 0 373 -49q125 -40 197 -151q71 -110 71 -267q0 -154 -24 -289q-25 -140 -78 -265q-54 -128 -159 -228t-247 -146
q-151 -51 -420 -51zM481 399q-12 -49 -12 -65q0 -47 63 -47h93q101 0 182 37q129 60 191 241q63 183 63 367q0 147 -100 196q-61 33 -185 33h-67q-65 0 -80 -74l-47 -221h190q51 0 51 -43q0 -29 -28 -151q-6 -31 -21 -40t-47 -9h-199z" />
    <glyph glyph-name="dcroat" unicode="&#x111;" horiz-adv-x="1181" 
d="M983 166q-7 -35 -27 -74q-23 -42 -90 -65q-148 -54 -395 -54q-399 0 -399 340q0 172 52 338q53 169 161 271q77 72 167 99q95 28 230 28q103 0 160 -23l28 139h-149q-51 0 -51 43q0 17 22 117q18 59 70 59h156l14 68q17 80 78 80h190q62 0 62 -47q0 -1 -1 -6.5t-2.5 -17
t-3.5 -23.5l-12 -54h55q50 0 50 -45q0 -24 -23 -125q-12 -49 -70 -49h-59zM690 317l86 400q4 25 4 33q0 18 -16 28q-28 15 -94 15q-98 0 -154 -58q-48 -51 -82 -160q-33 -106 -33 -202q0 -144 125 -144q72 0 117 17q20 7 31 26q9 15 16 45z" />
    <glyph glyph-name="Emacron" unicode="&#x112;" horiz-adv-x="1134" 
d="M954 0h-645q-109 0 -156 40q-49 41 -49 122q0 45 11 94l202 952q27 124 95 181q67 57 188 57h580q61 0 61 -45q0 -27 -39 -189q-12 -51 -74 -51h-419q-65 0 -80 -74l-43 -198h428q53 0 53 -45q0 -38 -39 -189q-15 -51 -65 -51h-437l-45 -203q-10 -44 -10 -67
q0 -49 64 -49h475q55 0 55 -41q0 -49 -39 -193q-15 -51 -72 -51zM1104 1585h-535q-53 0 -53 43q0 28 25 115q15 57 75 57h531q55 0 55 -43q0 -25 -24 -117q-7 -31 -25 -44q-15 -11 -49 -11z" />
    <glyph glyph-name="emacron" unicode="&#x113;" horiz-adv-x="1085" 
d="M403 412q-4 -33 -4 -52q0 -74 45 -101q47 -28 138 -28q116 0 206 21q2 0 31 6t39 6q34 0 45 -39q23 -78 23 -133q0 -42 -47 -63q-124 -56 -387 -56q-420 0 -420 363q0 161 58 323q59 165 173 267q144 123 391 123q197 0 280 -74t83 -211q0 -141 -37 -270q-18 -54 -41 -70
q-18 -12 -53 -12h-523zM451 637h292q15 47 15 94t-23 70q-22 22 -86 22q-75 0 -125 -45q-49 -43 -73 -141zM938 1214h-457q-53 0 -53 46q0 26 25 114q17 56 73 56h453q55 0 55 -41q0 -25 -24 -119q-12 -56 -72 -56z" />
    <glyph glyph-name="Ebreve" unicode="&#x114;" horiz-adv-x="1134" 
d="M954 0h-645q-109 0 -156 40q-49 41 -49 122q0 45 11 94l202 952q27 124 95 181q67 57 188 57h580q61 0 61 -45q0 -27 -39 -189q-12 -51 -74 -51h-419q-65 0 -80 -74l-43 -198h428q53 0 53 -45q0 -38 -39 -189q-15 -51 -65 -51h-437l-45 -203q-10 -44 -10 -67
q0 -49 64 -49h475q55 0 55 -41q0 -49 -39 -193q-15 -51 -72 -51zM1067 1884q58 0 76 -6q33 -8 33 -47q0 -44 -23 -98q-80 -193 -350 -193q-122 0 -212 61q-89 60 -89 177q0 46 6 63q11 34 61 41q20 2 58 2q34 0 48 -10t19 -39q4 -35 17 -53q30 -47 116 -47q75 0 107 23
t55 75q16 32 29 41q14 10 49 10z" />
    <glyph glyph-name="ebreve" unicode="&#x115;" horiz-adv-x="1085" 
d="M403 412q-4 -33 -4 -52q0 -74 45 -101q47 -28 138 -28q116 0 206 21q2 0 31 6t39 6q34 0 45 -39q23 -78 23 -133q0 -42 -47 -63q-124 -56 -387 -56q-420 0 -420 363q0 161 58 323q59 165 173 267q144 123 391 123q197 0 280 -74t83 -211q0 -141 -37 -270q-18 -54 -41 -70
q-18 -12 -53 -12h-523zM451 637h292q15 47 15 94t-23 70q-22 22 -86 22q-75 0 -125 -45q-49 -43 -73 -141zM954 1532q46 0 74 -6q29 -6 29 -47q0 -47 -23 -99q-46 -104 -122 -157q-77 -54 -218 -54q-136 0 -208 66t-72 156q0 47 6 75q12 53 45 60q30 6 67 6q64 0 64 -49
q0 -46 10 -66q22 -55 113 -55q68 0 102 29q35 30 58 84q17 35 30 45q15 12 45 12z" />
    <glyph glyph-name="Edotaccent" unicode="&#x116;" horiz-adv-x="1134" 
d="M954 0h-645q-109 0 -156 40q-49 41 -49 122q0 45 11 94l202 952q27 124 95 181q67 57 188 57h580q61 0 61 -45q0 -27 -39 -189q-12 -51 -74 -51h-419q-65 0 -80 -74l-43 -198h428q53 0 53 -45q0 -38 -39 -189q-15 -51 -65 -51h-437l-45 -203q-10 -44 -10 -67
q0 -49 64 -49h475q55 0 55 -41q0 -49 -39 -193q-15 -51 -72 -51zM973 1739q0 -99 -45 -142q-41 -41 -113 -41q-119 0 -119 109q0 86 43 135q45 47 113 47q121 0 121 -108z" />
    <glyph glyph-name="edotaccent" unicode="&#x117;" horiz-adv-x="1085" 
d="M403 412q-4 -33 -4 -52q0 -74 45 -101q47 -28 138 -28q116 0 206 21q2 0 31 6t39 6q34 0 45 -39q23 -78 23 -133q0 -42 -47 -63q-124 -56 -387 -56q-420 0 -420 363q0 161 58 323q59 165 173 267q144 123 391 123q197 0 280 -74t83 -211q0 -141 -37 -270q-18 -54 -41 -70
q-18 -12 -53 -12h-523zM451 637h292q15 47 15 94t-23 70q-22 22 -86 22q-75 0 -125 -45q-49 -43 -73 -141zM854 1378q0 -90 -45 -141q-41 -41 -113 -41q-118 0 -118 109q0 86 43 135q39 47 112 47q121 0 121 -109z" />
    <glyph glyph-name="Eogonek" unicode="&#x118;" horiz-adv-x="1134" 
d="M954 0h-26q-130 -84 -180 -140q-54 -60 -54 -139q0 -34 22 -56q21 -21 58 -21q31 0 52 1t36 1q21 0 33 -10q10 -9 16 -37q7 -28 7 -64q0 -30 -14 -44q-12 -13 -50 -23q-49 -11 -143 -11q-242 0 -242 195q0 126 68 208q66 79 192 140h-420q-109 0 -156 40q-49 41 -49 122
q0 45 11 94l202 952q27 124 95 181q67 57 188 57h580q61 0 61 -45q0 -27 -39 -189q-12 -51 -74 -51h-419q-65 0 -80 -74l-43 -198h428q53 0 53 -45q0 -38 -39 -189q-15 -51 -65 -51h-437l-45 -203q-10 -44 -10 -67q0 -49 64 -49h475q55 0 55 -41q0 -49 -39 -193
q-15 -51 -72 -51z" />
    <glyph glyph-name="eogonek" unicode="&#x119;" horiz-adv-x="1085" 
d="M403 412q-4 -33 -4 -52q0 -74 45 -101q47 -28 138 -28q116 0 206 21q2 0 31 6t39 6q34 0 45 -39q23 -78 23 -133q0 -42 -47 -63q-32 -15 -101 -31q-108 -67 -166 -130q-55 -59 -55 -136q0 -70 76 -70q29 0 49 1t35 1q23 0 33 -9q10 -8 16 -38q8 -35 8 -61q-2 -28 -15 -42
q-15 -15 -48 -22q-43 -10 -140 -10q-231 0 -231 184q0 196 201 307h-49q-420 0 -420 363q0 161 58 323q59 165 173 267q144 123 391 123q197 0 280 -74t83 -211q0 -141 -37 -270q-18 -54 -41 -70q-18 -12 -53 -12h-523zM451 637h292q15 47 15 94t-23 70q-22 22 -86 22
q-75 0 -125 -45q-49 -43 -73 -141z" />
    <glyph glyph-name="Ecaron" unicode="&#x11a;" horiz-adv-x="1134" 
d="M954 0h-645q-109 0 -156 40q-49 41 -49 122q0 45 11 94l202 952q27 124 95 181q67 57 188 57h580q61 0 61 -45q0 -27 -39 -189q-12 -51 -74 -51h-419q-65 0 -80 -74l-43 -198h428q53 0 53 -45q0 -38 -39 -189q-15 -51 -65 -51h-437l-45 -203q-10 -44 -10 -67
q0 -49 64 -49h475q55 0 55 -41q0 -49 -39 -193q-15 -51 -72 -51zM1094 1913q77 0 116 -6q39 -5 39 -37q0 -27 -28 -51l-232 -205q-74 -62 -127 -62h-108q-59 0 -99 54l-153 206q-19 25 -19 48q0 37 54 45q43 8 100 8q53 0 92 -45l105 -117l155 119q50 43 105 43z" />
    <glyph glyph-name="ecaron" unicode="&#x11b;" horiz-adv-x="1085" 
d="M403 412q-4 -33 -4 -52q0 -74 45 -101q47 -28 138 -28q116 0 206 21q2 0 31 6t39 6q34 0 45 -39q23 -78 23 -133q0 -42 -47 -63q-124 -56 -387 -56q-420 0 -420 363q0 161 58 323q59 165 173 267q144 123 391 123q197 0 280 -74t83 -211q0 -141 -37 -270q-18 -54 -41 -70
q-18 -12 -53 -12h-523zM451 637h292q15 47 15 94t-23 70q-22 22 -86 22q-75 0 -125 -45q-49 -43 -73 -141zM930 1571q56 0 100 -4q43 -4 43 -39q0 -24 -31 -55l-198 -220q-60 -63 -105 -63h-129q-50 0 -80 63l-116 222q-13 26 -13 47q0 37 50 43q33 6 90 6q52 0 82 -45
l82 -129l135 131q43 43 90 43z" />
    <glyph glyph-name="Gcircumflex" unicode="&#x11c;" horiz-adv-x="1359" 
d="M1174 145q-12 -56 -31 -75q-17 -17 -64 -35q-160 -62 -467 -62q-241 0 -369 125t-128 369q0 261 88 510q89 251 272 379q166 117 475 117q186 0 314 -39q49 -12 49 -58q0 -21 -16 -80q-16 -58 -35 -94q-18 -33 -54 -33q-20 0 -61 9q-137 24 -219 24q-188 0 -283 -98
q-88 -89 -133 -248q-45 -158 -45 -305q0 -160 63 -234q63 -73 197 -73q92 0 162 20q36 12 43 49l43 199h-197q-43 0 -43 37t39 199q11 47 57 47h422q52 0 52 -41q0 -6 -7 -41zM692 1550q-78 0 -117 6q-40 7 -40 39q0 28 30 52l230 202q73 64 127 64h110q59 0 98 -55
l152 -207q18 -24 18 -47q0 -34 -51 -45q-35 -7 -100 -7q-53 0 -94 45l-107 117l-151 -121q-50 -43 -105 -43z" />
    <glyph glyph-name="gcircumflex" unicode="&#x11d;" horiz-adv-x="1175" 
d="M621 6q-66 -33 -187 -33q-185 0 -274 86q-88 85 -88 269q0 158 57 331q57 172 164 267q78 68 166 95q93 28 227 28q247 0 395 -52q58 -23 58 -63q0 -11 -9 -70l-153 -739q-39 -189 -82 -287q-78 -173 -249 -245t-509 -72q-46 0 -64 12q-19 12 -20 45q-2 44 -2 129
q0 73 84 78q206 7 294 29q86 21 128 59q39 39 57 111zM694 326l82 385q4 21 4 30q0 25 -20 35q-31 17 -94 17q-109 0 -156 -58q-49 -64 -78 -164q-31 -109 -31 -196q0 -71 30 -106q29 -33 95 -33q87 0 123 20q20 7 31 31q7 12 14 39zM545 1182q-57 0 -101 4q-43 4 -43 41
q0 24 31 55l199 219q57 62 108 62h125q50 0 80 -62l119 -225q10 -20 10 -45q0 -33 -49 -43q-34 -6 -90 -6q-53 0 -82 47l-82 129l-135 -133q-43 -43 -90 -43z" />
    <glyph glyph-name="Gbreve" unicode="&#x11e;" horiz-adv-x="1359" 
d="M1174 145q-12 -56 -31 -75q-17 -17 -64 -35q-160 -62 -467 -62q-241 0 -369 125t-128 369q0 261 88 510q89 251 272 379q166 117 475 117q186 0 314 -39q49 -12 49 -58q0 -21 -16 -80q-16 -58 -35 -94q-18 -33 -54 -33q-20 0 -61 9q-137 24 -219 24q-188 0 -283 -98
q-88 -89 -133 -248q-45 -158 -45 -305q0 -160 63 -234q63 -73 197 -73q92 0 162 20q36 12 43 49l43 199h-197q-43 0 -43 37t39 199q11 47 57 47h422q52 0 52 -41q0 -6 -7 -41zM1167 1884q58 0 76 -6q33 -8 33 -47q0 -44 -23 -98q-80 -193 -350 -193q-122 0 -212 61
q-89 60 -89 177q0 46 6 63q11 33 62 41q20 2 57 2q34 0 48 -10q16 -11 20 -39q4 -37 16 -53q30 -47 117 -47q74 0 106 23q34 25 56 75q16 33 28 41q14 10 49 10z" />
    <glyph glyph-name="gbreve" unicode="&#x11f;" horiz-adv-x="1175" 
d="M621 6q-66 -33 -187 -33q-185 0 -274 86q-88 85 -88 269q0 158 57 331q57 172 164 267q78 68 166 95q93 28 227 28q247 0 395 -52q58 -23 58 -63q0 -11 -9 -70l-153 -739q-39 -189 -82 -287q-78 -173 -249 -245t-509 -72q-46 0 -64 12q-19 12 -20 45q-2 44 -2 129
q0 73 84 78q206 7 294 29q86 21 128 59q39 39 57 111zM694 326l82 385q4 21 4 30q0 25 -20 35q-31 17 -94 17q-109 0 -156 -58q-49 -64 -78 -164q-31 -109 -31 -196q0 -71 30 -106q29 -33 95 -33q87 0 123 20q20 7 31 31q7 12 14 39zM989 1532q47 0 74 -6q29 -6 29 -47
q0 -47 -23 -99q-46 -104 -122 -157q-77 -54 -218 -54q-136 0 -208 66t-72 156q0 47 6 75q12 53 45 60q30 6 67 6q64 0 64 -49q0 -46 10 -66q22 -55 113 -55q68 0 102 29q33 29 57 84q17 34 31 45q15 12 45 12z" />
    <glyph glyph-name="Gdotaccent" unicode="&#x120;" horiz-adv-x="1359" 
d="M1174 145q-12 -56 -31 -75q-17 -17 -64 -35q-160 -62 -467 -62q-241 0 -369 125t-128 369q0 261 88 510q89 251 272 379q166 117 475 117q186 0 314 -39q49 -12 49 -58q0 -21 -16 -80q-16 -58 -35 -94q-18 -33 -54 -33q-20 0 -61 9q-137 24 -219 24q-188 0 -283 -98
q-88 -89 -133 -248q-45 -158 -45 -305q0 -160 63 -234q63 -73 197 -73q92 0 162 20q36 12 43 49l43 199h-197q-43 0 -43 37t39 199q11 47 57 47h422q52 0 52 -41q0 -6 -7 -41zM1073 1739q0 -99 -45 -142q-41 -41 -113 -41q-118 0 -118 109q0 86 43 135q45 47 112 47
q121 0 121 -108z" />
    <glyph glyph-name="gdotaccent" unicode="&#x121;" horiz-adv-x="1175" 
d="M621 6q-66 -33 -187 -33q-185 0 -274 86q-88 85 -88 269q0 158 57 331q57 172 164 267q78 68 166 95q93 28 227 28q247 0 395 -52q58 -23 58 -63q0 -11 -9 -70l-153 -739q-39 -189 -82 -287q-78 -173 -249 -245t-509 -72q-46 0 -64 12q-19 12 -20 45q-2 44 -2 129
q0 73 84 78q206 7 294 29q86 21 128 59q39 39 57 111zM694 326l82 385q4 21 4 30q0 25 -20 35q-31 17 -94 17q-109 0 -156 -58q-49 -64 -78 -164q-31 -109 -31 -196q0 -71 30 -106q29 -33 95 -33q87 0 123 20q20 7 31 31q7 12 14 39zM891 1378q0 -90 -45 -141
q-41 -41 -113 -41q-119 0 -119 109q0 86 43 135q39 47 113 47q121 0 121 -109z" />
    <glyph glyph-name="Gcommaaccent" unicode="&#x122;" horiz-adv-x="1359" 
d="M1174 145q-12 -56 -31 -75q-17 -17 -64 -35q-160 -62 -467 -62q-241 0 -369 125t-128 369q0 261 88 510q89 251 272 379q166 117 475 117q186 0 314 -39q49 -12 49 -58q0 -21 -16 -80q-16 -58 -35 -94q-18 -33 -54 -33q-20 0 -61 9q-137 24 -219 24q-188 0 -283 -98
q-88 -89 -133 -248q-45 -158 -45 -305q0 -160 63 -234q63 -73 197 -73q92 0 162 20q36 12 43 49l43 199h-197q-43 0 -43 37t39 199q11 47 57 47h422q52 0 52 -41q0 -6 -7 -41zM614 -96h84q64 0 64 -64q0 -43 -17 -100q-44 -143 -167 -270q-41 -45 -80 -45q-31 0 -60 20
q-35 21 -35 49q0 24 27 64q67 102 90 256q12 90 94 90z" />
    <glyph glyph-name="gcommaaccent" unicode="&#x123;" horiz-adv-x="1175" 
d="M621 6q-66 -33 -187 -33q-185 0 -274 86q-88 85 -88 269q0 158 57 331q57 172 164 267q78 68 166 95q93 28 227 28q247 0 395 -52q58 -23 58 -63q0 -9 -9 -68l-153 -741q-39 -189 -82 -287q-78 -173 -249 -245t-509 -72q-84 0 -84 65q0 102 6 129q12 61 91 66
q203 7 285 29q80 21 122 63q39 39 57 113zM694 326l82 387q4 19 4 28q0 25 -20 35q-31 17 -94 17q-109 0 -156 -58q-48 -59 -78 -163q-31 -108 -31 -197q0 -71 30 -106q29 -33 95 -33q87 0 123 20q20 7 31 31q7 12 14 39zM754 1182h-84q-28 0 -46 18t-18 49q0 40 17 97
q47 156 168 270q50 45 77 45q24 0 64 -21q31 -19 31 -49q0 -18 -25 -63q-69 -107 -90 -256q-6 -46 -27 -68t-67 -22z" />
    <glyph glyph-name="Hcircumflex" unicode="&#x124;" horiz-adv-x="1454" 
d="M408 61q-15 -63 -74 -63h-215q-49 0 -49 47q0 3 6 41l276 1294q15 68 74 68h213q53 0 53 -45q0 -13 -10 -62l-98 -452h463l106 491q15 68 74 68h213q53 0 53 -45q0 -13 -10 -62l-275 -1280q-15 -63 -73 -63h-215q-50 0 -50 47q0 1 1 5.5t2.5 15t3.5 20.5l112 518h-465z
M711 1550q-77 0 -117 6q-41 8 -41 39q0 27 31 52l229 202q73 64 127 64h111q59 0 98 -55l151 -207q19 -25 19 -47q0 -34 -51 -45q-35 -7 -101 -7q-53 0 -94 45l-106 117l-152 -121q-52 -43 -104 -43z" />
    <glyph glyph-name="hcircumflex" unicode="&#x125;" horiz-adv-x="1196" 
d="M358 61q-16 -63 -65 -63h-213q-49 0 -49 43q0 17 6 41l289 1372q16 78 82 78h188q57 0 57 -49q0 -15 -2 -35l-102 -469q54 31 138 50q88 20 159 20q287 0 287 -185q0 -60 -21 -159l-137 -644q-15 -63 -68 -63h-211q-49 0 -49 43q0 14 4 35l121 569q10 43 10 76
q0 63 -104 63q-55 0 -109 -16q-40 -12 -55 -27q-17 -17 -27 -65zM328 1604q-78 0 -117 6q-41 8 -41 39q0 26 31 51l229 203q72 63 127 63h111q59 0 98 -55l152 -207q18 -24 18 -47q0 -35 -51 -45q-30 -6 -101 -6q-54 0 -94 45l-106 116l-152 -120q-50 -43 -104 -43z" />
    <glyph glyph-name="Hbar" unicode="&#x126;" horiz-adv-x="1454" 
d="M408 61q-15 -63 -74 -63h-215q-49 0 -49 47q0 3 6 41l194 913h-77q-50 0 -50 43q0 35 27 146q15 55 68 55h86l28 137q15 68 74 68h213q53 0 53 -45q0 -13 -10 -62l-23 -98h463l31 137q15 68 74 68h213q53 0 53 -45q0 -13 -10 -62l-23 -98h78q49 0 49 -41q0 -28 -28 -153
q-8 -30 -24 -40q-17 -10 -48 -10h-78l-201 -938q-15 -63 -73 -63h-215q-50 0 -50 47q0 1 1 5.5t2.5 15t3.5 20.5l112 518h-465zM584 889h463l22 110h-463z" />
    <glyph glyph-name="hbar" unicode="&#x127;" horiz-adv-x="1196" 
d="M358 61q-16 -63 -65 -63h-213q-49 0 -49 43q0 17 6 41l227 1083h-55q-51 0 -51 43q0 21 24 117q15 59 68 59h61l15 70q16 78 82 78h188q57 0 57 -49q0 -15 -2 -35l-14 -64h149q52 0 52 -45q0 -13 -25 -125q-12 -49 -70 -49h-153l-41 -186q54 31 138 50q88 20 159 20
q287 0 287 -185q0 -60 -21 -159l-137 -644q-15 -63 -68 -63h-211q-49 0 -49 43q0 14 4 35l121 569q10 43 10 76q0 63 -104 63q-55 0 -109 -16q-40 -12 -55 -27q-17 -17 -27 -65z" />
    <glyph glyph-name="Itilde" unicode="&#x128;" horiz-adv-x="655" 
d="M408 61q-15 -63 -74 -63h-215q-49 0 -49 47q0 3 6 41l276 1294q15 68 74 68h213q53 0 53 -45q0 -13 -10 -62zM276 1544q-57 0 -81 6q-31 11 -31 43q0 21 18 64q84 203 226 203q34 0 143 -52q68 -34 108 -34q49 0 78 51q28 43 80 43q47 0 70 -6q35 -8 35 -39
q0 -33 -33 -94q-86 -173 -207 -173q-56 0 -164 54q-58 32 -96 32q-48 0 -76 -45q-17 -29 -32 -42q-12 -11 -38 -11z" />
    <glyph glyph-name="itilde" unicode="&#x129;" horiz-adv-x="579" 
d="M184 1184q-1 0 -71 8q-37 6 -37 43q0 26 16 68q35 95 91 147q58 53 124 53q41 0 135 -51q61 -35 103 -35q45 0 73 49q24 47 64 47q58 0 82 -6q31 -11 31 -39q0 -23 -29 -96q-78 -172 -203 -172q-60 0 -151 53q-57 33 -86 33q-47 0 -76 -47q-16 -29 -31 -44
q-11 -11 -35 -11zM365 61q-15 -63 -70 -63h-209q-49 0 -49 43q0 8 3 26t3 23l186 868q17 64 70 64h213q45 0 45 -43q0 -19 -10 -55z" />
    <glyph glyph-name="Imacron" unicode="&#x12a;" horiz-adv-x="655" 
d="M408 61q-15 -63 -74 -63h-215q-49 0 -49 47q0 3 6 41l276 1294q15 68 74 68h213q53 0 53 -45q0 -13 -10 -62zM809 1585h-535q-53 0 -53 43q0 28 25 115q15 57 76 57h530q55 0 55 -43q0 -25 -24 -117q-7 -31 -25 -44q-15 -11 -49 -11z" />
    <glyph glyph-name="imacron" unicode="&#x12b;" horiz-adv-x="579" 
d="M659 1214h-456q-53 0 -53 46q0 30 24 114q17 56 74 56h452q56 0 56 -41q0 -21 -25 -119q-12 -56 -72 -56zM365 61q-15 -63 -70 -63h-209q-49 0 -49 43q0 8 3 26t3 23l186 868q17 64 70 64h213q45 0 45 -43q0 -19 -10 -55z" />
    <glyph glyph-name="Ibreve" unicode="&#x12c;" horiz-adv-x="655" 
d="M408 61q-15 -63 -74 -63h-215q-49 0 -49 47q0 3 6 41l276 1294q15 68 74 68h213q53 0 53 -45q0 -13 -10 -62zM803 1884q58 0 76 -6q32 -7 32 -47q0 -47 -22 -98q-80 -193 -350 -193q-122 0 -212 61q-89 60 -89 177q0 46 6 63q11 34 61 41q20 2 57 2q35 0 49 -10t19 -39
q4 -37 16 -53q30 -47 117 -47q75 0 107 23t55 75q16 32 29 41q14 10 49 10z" />
    <glyph glyph-name="ibreve" unicode="&#x12d;" horiz-adv-x="579" 
d="M682 1532q47 0 74 -6q28 -6 28 -47q0 -49 -22 -99q-46 -104 -122 -157q-77 -54 -218 -54q-136 0 -208 66q-73 67 -73 156q0 47 6 75q12 52 46 60q30 6 67 6q64 0 64 -49q0 -46 10 -66q21 -55 112 -55q69 0 103 29q33 29 57 84q17 34 31 45q15 12 45 12zM365 61
q-15 -63 -70 -63h-209q-49 0 -49 43q0 8 3 26t3 23l186 868q17 64 70 64h213q45 0 45 -43q0 -19 -10 -55z" />
    <glyph glyph-name="Iogonek" unicode="&#x12e;" horiz-adv-x="655" 
d="M408 61q-15 -63 -74 -63q-124 -80 -176 -138q-54 -60 -54 -139q0 -34 22 -56q21 -21 58 -21q32 0 53 1t35 1q21 0 33 -10q11 -10 17 -37q6 -24 6 -64q0 -30 -14 -44q-12 -13 -50 -23q-49 -11 -143 -11q-242 0 -242 195q0 126 67 208q66 81 189 138h-16q-49 0 -49 47
q0 3 6 41l276 1294q15 68 74 68h213q53 0 53 -45q0 -13 -10 -62z" />
    <glyph glyph-name="iogonek" unicode="&#x12f;" horiz-adv-x="579" 
d="M365 61q-15 -63 -70 -63h-8q-108 -67 -166 -130q-55 -59 -55 -136q0 -70 75 -70q29 0 49 1t35 1q23 0 33 -9q10 -8 16 -38q9 -40 9 -61q-1 -27 -16 -42t-48 -22q-43 -10 -139 -10q-232 0 -232 184q0 121 65 198t183 134h-10q-49 0 -49 43q0 20 6 49l186 868q15 64 70 64
h213q45 0 45 -43q0 -20 -10 -59zM625 1382q0 -34 -15 -84q-15 -49 -41 -75q-52 -47 -133 -47q-143 0 -143 124q0 103 51 154q53 53 137 53q144 0 144 -125z" />
    <glyph glyph-name="Idotaccent" unicode="&#x130;" horiz-adv-x="655" 
d="M408 61q-15 -63 -74 -63h-215q-49 0 -49 47q0 3 6 41l276 1294q15 68 74 68h213q53 0 53 -45q0 -13 -10 -62zM717 1739q0 -99 -45 -142q-41 -41 -113 -41q-119 0 -119 109q0 86 43 135q45 47 113 47q121 0 121 -108z" />
    <glyph glyph-name="dotlessi" unicode="&#x131;" horiz-adv-x="579" 
d="M365 61q-15 -63 -70 -63h-209q-49 0 -49 43q0 8 3 26t3 23l186 868q17 64 70 64h213q45 0 45 -43q0 -19 -10 -55z" />
    <glyph glyph-name="IJ" unicode="&#x132;" horiz-adv-x="1327" 
d="M408 61q-15 -63 -74 -63h-215q-49 0 -49 47q0 3 6 41l276 1294q15 68 74 68h213q53 0 53 -45q0 -13 -10 -62zM1352 1341l-248 -1155q-44 -214 -160 -327q-69 -66 -188 -111q-124 -47 -236 -47q-61 0 -71 59q-11 64 -11 123q0 67 70 78q95 12 172 57q62 41 86 154
l256 1208q15 68 74 68h213q53 0 53 -45q0 -13 -10 -62z" />
    <glyph glyph-name="ij" unicode="&#x133;" horiz-adv-x="1159" 
d="M365 61q-15 -63 -70 -63h-209q-49 0 -49 43q0 20 6 49l186 868q15 64 70 64h213q45 0 45 -43q0 -20 -10 -59zM625 1382q0 -34 -15 -84q-15 -49 -41 -75q-52 -47 -133 -47q-143 0 -143 124q0 103 51 154q53 53 137 53q144 0 144 -125zM928 -8q-49 -229 -150 -328
q-61 -61 -176 -102t-246 -41q-40 0 -55 15q-13 13 -18 46q-4 36 -4 115q0 70 71 80q121 17 176 53q49 37 76 154l207 974q15 64 70 64h213q45 0 45 -43q0 -2 -11 -55zM1204 1382q0 -38 -14 -84q-15 -49 -41 -75q-52 -47 -133 -47q-144 0 -144 124q0 102 52 154q53 53 137 53
q143 0 143 -125z" />
    <glyph glyph-name="Jcircumflex" unicode="&#x134;" horiz-adv-x="671" 
d="M698 1341l-247 -1155q-44 -214 -160 -327q-69 -65 -189 -111q-124 -47 -235 -47q-62 0 -72 59t-10 123q0 67 70 78q95 12 172 57q62 41 86 154l256 1208q15 68 73 68h213q54 0 54 -45q0 -9 -11 -62zM334 1550q-76 0 -117 6q-41 8 -41 39q0 27 31 52l229 202q73 64 127 64
h111q59 0 98 -55l152 -207q18 -24 18 -47q0 -34 -51 -45q-35 -7 -100 -7q-55 0 -95 45l-106 117l-152 -121q-50 -43 -104 -43z" />
    <glyph glyph-name="jcircumflex" unicode="&#x135;" horiz-adv-x="579" 
d="M348 -8q-50 -235 -149 -328q-150 -143 -428 -143q-74 0 -74 63q0 65 10 119q11 66 74 74q122 22 166 53q49 33 76 154l206 974q15 64 70 64h213q45 0 45 -43q0 -19 -10 -55zM219 1182q-56 0 -100 4q-43 4 -43 41q0 25 30 55l199 219q57 62 109 62h125q49 0 79 -62
l119 -225q11 -22 11 -45q0 -32 -50 -43q-34 -6 -90 -6q-53 0 -82 47l-82 129l-135 -133q-43 -43 -90 -43z" />
    <glyph glyph-name="Kcommaaccent" unicode="&#x136;" horiz-adv-x="1347" 
d="M408 61q-15 -63 -74 -63h-215q-49 0 -49 47q0 3 6 41l276 1294q15 68 74 68h213q53 0 53 -45q0 -13 -10 -62l-98 -452h84q69 0 102 43l340 465q40 55 96 55q129 0 201 -8q51 -4 51 -55q0 -18 -35 -64l-448 -594q61 -143 237 -608q19 -54 19 -70q0 -45 -62 -51
q-73 -6 -229 -6q-45 0 -63 49l-187 516q-17 41 -74 41h-92zM586 -96h84q63 0 63 -64q0 -46 -16 -100q-43 -141 -168 -270q-41 -45 -80 -45q-30 0 -59 20q-35 21 -35 49q0 25 26 64q69 104 91 256q12 90 94 90z" />
    <glyph glyph-name="kcommaaccent" unicode="&#x137;" horiz-adv-x="1163" 
d="M358 61q-15 -63 -65 -63h-209q-53 0 -53 41q0 1 6 45l293 1384q12 64 76 64h196q53 0 53 -47q0 -24 -4 -39l-157 -744h71q63 0 101 46l186 229q38 47 88 47q195 0 225 -12q23 -11 23 -37q0 -21 -33 -64l-297 -352q41 -89 180 -446q13 -37 13 -64q0 -28 -39 -43
q-33 -12 -238 -12q-50 0 -65 45l-131 358q-15 37 -76 37h-64zM477 -96h84q64 0 64 -64q0 -43 -17 -100q-44 -141 -168 -270q-40 -45 -80 -45q-30 0 -59 20q-35 21 -35 49q0 24 27 64q67 102 90 256q12 90 94 90z" />
    <glyph glyph-name="kgreenlandic" unicode="&#x138;" horiz-adv-x="1165" 
d="M358 61q-15 -63 -65 -63h-209q-53 0 -53 41q0 1 6 45l184 874q12 64 76 64h199q51 0 51 -47q0 -18 -4 -43l-56 -250h70q69 0 102 45l195 250q38 47 88 47q193 0 223 -12q23 -11 23 -37q0 -21 -33 -64q-219 -279 -301 -370q46 -95 184 -428q13 -37 13 -62q0 -33 -37 -45
q-38 -12 -240 -12q-47 0 -65 45l-138 338q-15 37 -75 37h-64z" />
    <glyph glyph-name="Lacute" unicode="&#x139;" horiz-adv-x="1150" 
d="M909 0h-600q-109 0 -156 40q-49 41 -49 122q0 45 11 94l237 1116q15 76 80 76h207q53 0 53 -45q0 -10 -10 -64l-201 -936q-8 -40 -8 -67q0 -49 64 -49h424q55 0 55 -41t-37 -195q-12 -51 -70 -51zM627 1581q-53 -33 -109 -33q-76 0 -115 6q-47 5 -47 37t33 56l240 186
q58 47 114 47q146 0 181 -4q65 -6 65 -43q0 -34 -37 -55z" />
    <glyph glyph-name="lacute" unicode="&#x13a;" horiz-adv-x="647" 
d="M645 1438l-217 -1010q-14 -64 -14 -119q0 -39 21 -55t77 -27q47 -8 47 -61q0 -46 -27 -119q-18 -59 -94 -59q-360 0 -360 248q0 66 18 161l226 1055q17 80 79 80h189q61 0 61 -49q0 -1 -6 -45zM596 1622q-53 -33 -109 -33q-73 0 -114 6q-47 5 -47 37q0 33 32 56l240 186
q58 47 115 47q145 0 180 -4q65 -6 65 -43q0 -35 -36 -55z" />
    <glyph glyph-name="Lcommaaccent" unicode="&#x13b;" horiz-adv-x="1150" 
d="M909 0h-600q-109 0 -156 40q-49 41 -49 122q0 45 11 94l237 1116q15 76 80 76h207q53 0 53 -45q0 -10 -10 -64l-201 -936q-8 -40 -8 -67q0 -49 64 -49h424q55 0 55 -41t-37 -195q-12 -51 -70 -51zM498 -96h84q63 0 63 -64q0 -46 -16 -100q-43 -141 -168 -270
q-41 -45 -80 -45q-30 0 -59 20q-35 21 -35 49q0 25 26 64q67 102 90 256q12 90 95 90z" />
    <glyph glyph-name="lcommaaccent" unicode="&#x13c;" horiz-adv-x="647" 
d="M645 1438l-217 -1010q-14 -64 -14 -119q0 -39 21 -55t77 -27q47 -8 47 -61q0 -46 -27 -119q-18 -59 -94 -59q-360 0 -360 248q0 66 18 161l226 1055q17 80 79 80h189q61 0 61 -49q0 -1 -6 -45zM225 -96h84q64 0 64 -64q0 -43 -17 -100q-44 -141 -168 -270
q-40 -45 -79 -45q-31 0 -60 20q-35 21 -35 49q0 24 27 64q67 102 90 256q12 90 94 90z" />
    <glyph glyph-name="Lcaron" unicode="&#x13d;" horiz-adv-x="1150" 
d="M909 0h-600q-109 0 -156 40q-49 41 -49 122q0 45 11 94l237 1116q15 76 80 76h207q53 0 53 -45q0 -10 -10 -64l-201 -936q-8 -40 -8 -67q0 -49 64 -49h424q55 0 55 -41t-37 -195q-12 -51 -70 -51zM981 1448h84q63 0 63 -68q0 -42 -16 -96q-46 -153 -168 -270
q-43 -43 -80 -43q-26 0 -59 18q-33 21 -33 51q0 23 25 62q68 95 90 256q12 90 94 90z" />
    <glyph glyph-name="lcaron" unicode="&#x13e;" horiz-adv-x="647" 
d="M645 1438l-217 -1010q-14 -64 -14 -119q0 -39 21 -55t77 -27q47 -8 47 -61q0 -46 -27 -119q-18 -59 -94 -59q-360 0 -360 248q0 66 18 161l226 1055q17 80 79 80h189q61 0 61 -49q0 -1 -6 -45zM891 1532h84q63 0 63 -68q0 -42 -16 -96q-46 -153 -168 -270
q-43 -43 -80 -43q-26 0 -59 18q-33 21 -33 51q0 23 25 62q68 95 90 256q12 90 94 90z" />
    <glyph glyph-name="Ldot" unicode="&#x13f;" horiz-adv-x="1150" 
d="M909 0h-600q-109 0 -156 40q-49 41 -49 122q0 45 11 94l237 1114q16 78 80 78h207q53 0 53 -45q0 -10 -10 -64l-201 -936q-8 -40 -8 -67q0 -49 64 -49h424q55 0 55 -41t-37 -195q-12 -51 -70 -51zM1135 788q0 -120 -62 -182q-49 -51 -143 -51q-156 0 -156 143
q0 105 57 168q51 60 148 60q156 0 156 -138z" />
    <glyph glyph-name="ldot" unicode="&#x140;" horiz-adv-x="874" 
d="M647 1438l-217 -1008q-14 -64 -14 -121q0 -39 21 -55q20 -16 75 -27q49 -7 49 -61q0 -37 -26 -119q-22 -59 -97 -59q-358 0 -358 248q0 78 18 161l226 1055q17 80 77 80h191q59 0 59 -49q0 -20 -4 -45zM944 782q0 -120 -57 -172q-49 -49 -137 -49q-154 0 -154 141
q0 94 51 154q50 59 146 59q151 0 151 -133z" />
    <glyph glyph-name="Lslash" unicode="&#x141;" horiz-adv-x="1150" 
d="M909 0h-600q-109 0 -156 40q-49 41 -49 122q0 45 11 94l41 193l-17 -9q-25 -14 -45 -14q-29 0 -47 37q-59 115 -59 133q0 31 30 49l203 113l131 614q15 76 80 76h207q53 0 53 -45q0 -10 -10 -64l-80 -370l150 84q22 12 45 12q18 0 39 -33q65 -109 65 -139q0 -26 -33 -47
l-331 -184l-56 -259q-8 -40 -8 -67q0 -49 64 -49h424q55 0 55 -41t-37 -195q-12 -51 -70 -51z" />
    <glyph glyph-name="lslash" unicode="&#x142;" horiz-adv-x="647" 
d="M645 1438l-100 -461l16 8q31 14 45 14q25 -2 41 -34q49 -98 49 -121q0 -27 -37 -43l-170 -88l-61 -285q-14 -64 -14 -119q0 -39 21 -55t77 -27q47 -8 47 -61q0 -46 -27 -119q-18 -59 -94 -59q-360 0 -360 248q0 66 18 161l27 125l-8 -4q-28 -16 -49 -16q-18 0 -35 33
q-51 95 -51 122t38 45l160 84l144 666q17 80 79 80h189q61 0 61 -49q0 -1 -6 -45z" />
    <glyph glyph-name="Nacute" unicode="&#x143;" horiz-adv-x="1511" 
d="M399 63q-16 -65 -71 -65h-203q-55 0 -55 53q0 10 8 45l244 1133q24 116 85 171q60 54 181 54h98q94 0 128 -37q33 -36 50 -121q117 -579 164 -882q68 356 199 950q18 84 82 84h188q51 0 51 -51q0 -15 -8 -58l-248 -1169q-22 -105 -80 -146q-56 -40 -145 -40h-76
q-103 0 -147 39q-43 39 -64 143q-151 752 -172 901q-32 -182 -209 -1004zM1051 1581q-53 -33 -109 -33q-74 0 -115 6q-47 5 -47 37t33 56l240 186q58 47 114 47q146 0 181 -4q65 -6 65 -43q0 -34 -37 -55z" />
    <glyph glyph-name="nacute" unicode="&#x144;" horiz-adv-x="1200" 
d="M365 61q-17 -63 -68 -63h-211q-49 0 -49 43q0 19 6 43l160 750q18 96 104 131q213 84 522 84q304 0 304 -193q0 -88 -21 -182l-131 -613q-15 -63 -68 -63h-211q-49 0 -49 43q0 15 6 45l119 557q10 49 10 76q0 65 -100 65q-66 0 -117 -16q-24 -6 -49 -23q-18 -17 -24 -49z
M801 1229q-46 -43 -99 -43q-34 0 -96 6q-57 8 -57 45q0 24 26 53l201 221q46 52 96 52q97 0 162 -7q51 -6 51 -43q0 -25 -26 -51z" />
    <glyph glyph-name="Ncommaaccent" unicode="&#x145;" horiz-adv-x="1511" 
d="M399 63q-16 -65 -71 -65h-203q-55 0 -55 53q0 10 8 45l244 1133q24 116 85 171q60 54 181 54h98q94 0 128 -37q33 -36 50 -121q117 -579 164 -882q68 356 199 950q18 84 82 84h188q51 0 51 -51q0 -15 -8 -58l-248 -1169q-22 -105 -80 -146q-56 -40 -145 -40h-76
q-103 0 -147 39q-43 39 -64 143q-151 752 -172 901q-32 -182 -209 -1004zM631 -96h84q63 0 63 -64q0 -46 -16 -100q-44 -141 -168 -270q-40 -45 -80 -45q-30 0 -59 20q-35 21 -35 49q0 25 26 64q69 104 91 256q12 90 94 90z" />
    <glyph glyph-name="ncommaaccent" unicode="&#x146;" horiz-adv-x="1200" 
d="M365 61q-17 -63 -68 -63h-211q-49 0 -49 43q0 19 6 43l160 750q18 96 104 131q213 84 522 84q304 0 304 -193q0 -88 -21 -182l-131 -613q-15 -63 -68 -63h-211q-49 0 -49 43q0 15 6 45l119 557q10 49 10 76q0 65 -100 65q-66 0 -117 -16q-24 -6 -49 -23q-18 -17 -24 -49z
M471 -96h84q63 0 63 -64q0 -46 -16 -100q-44 -141 -168 -270q-41 -45 -80 -45q-30 0 -59 20q-35 21 -35 49q0 24 27 64q67 102 90 256q12 90 94 90z" />
    <glyph glyph-name="Ncaron" unicode="&#x147;" horiz-adv-x="1511" 
d="M399 63q-16 -65 -71 -65h-203q-55 0 -55 53q0 10 8 45l244 1133q24 116 85 171q60 54 181 54h98q94 0 128 -37q33 -36 50 -121q117 -579 164 -882q68 356 199 950q18 84 82 84h188q51 0 51 -51q0 -15 -8 -58l-248 -1169q-22 -105 -80 -146q-56 -40 -145 -40h-76
q-103 0 -147 39q-43 39 -64 143q-151 752 -172 901q-32 -182 -209 -1004zM1245 1913q78 0 117 -6q39 -5 39 -37q0 -27 -29 -51l-231 -205q-74 -62 -127 -62h-109q-58 0 -98 54l-154 206q-18 24 -18 48q0 37 53 45q43 8 100 8q54 0 93 -45l104 -117l156 119q50 43 104 43z
" />
    <glyph glyph-name="ncaron" unicode="&#x148;" horiz-adv-x="1200" 
d="M365 61q-17 -63 -68 -63h-211q-49 0 -49 43q0 19 6 43l160 750q18 96 104 131q213 84 522 84q304 0 304 -193q0 -88 -21 -182l-131 -613q-15 -63 -68 -63h-211q-49 0 -49 43q0 15 6 45l119 557q10 49 10 76q0 65 -100 65q-66 0 -117 -16q-24 -6 -49 -23q-18 -17 -24 -49z
M936 1571q56 0 100 -4q43 -4 43 -39q0 -25 -30 -55l-199 -220q-60 -63 -105 -63h-129q-46 0 -79 63l-117 222q-12 24 -12 47q0 37 49 43q33 6 90 6q52 0 82 -45l82 -129l135 131q43 43 90 43z" />
    <glyph glyph-name="napostrophe" unicode="&#x149;" horiz-adv-x="1200" 
d="M365 61q-17 -63 -68 -63h-211q-49 0 -49 43q0 19 6 43l160 750q18 96 104 131q213 84 522 84q304 0 304 -193q0 -88 -21 -182l-131 -613q-15 -63 -68 -63h-211q-49 0 -49 43q0 15 6 45l119 557q10 49 10 76q0 65 -100 65q-66 0 -117 -16q-24 -6 -49 -23q-18 -17 -24 -49z
M401 1645h84q64 0 64 -64q0 -43 -17 -100q-44 -144 -167 -271q-40 -45 -80 -45q-30 0 -60 21q-35 21 -35 49q0 23 27 63q67 102 90 256q12 91 94 91z" />
    <glyph glyph-name="Eng" unicode="&#x14a;" horiz-adv-x="1511" 
d="M399 63q-16 -65 -71 -65h-203q-55 0 -55 53q0 10 8 45l244 1133q28 122 82 172q58 53 176 53h100q88 0 122 -36q33 -35 64 -128q183 -533 207 -637q21 116 154 713q18 84 82 84h188q51 0 51 -51q0 -18 -8 -58l-278 -1310q-49 -227 -158 -328q-70 -65 -190 -111
q-123 -47 -236 -47q-60 0 -70 60q-8 42 -8 123q0 68 72 79q97 15 166 56q65 40 88 153l8 41q-295 908 -326 1010q-50 -256 -209 -1004z" />
    <glyph glyph-name="eng" unicode="&#x14b;" horiz-adv-x="1200" 
d="M365 61q-17 -63 -68 -63h-211q-49 0 -49 43q0 19 6 43l160 750q18 96 104 131q213 84 522 84q304 0 304 -193q0 -88 -21 -182l-145 -682q-49 -233 -150 -328q-150 -143 -426 -143q-43 0 -56 15t-18 48q-6 56 -6 113q0 66 76 78q123 17 178 55q54 38 76 154l137 659
q10 49 10 76q0 65 -100 65q-61 0 -121 -18q-23 -6 -45 -21q-18 -15 -24 -49z" />
    <glyph glyph-name="Omacron" unicode="&#x14c;" horiz-adv-x="1441" 
d="M1432 1038q0 -203 -70 -474q-68 -265 -199 -406q-170 -185 -501 -185q-124 0 -218 20q-95 20 -170 68q-77 49 -118 144q-41 96 -41 233q0 221 67 461q67 239 199 385q176 191 493 191q125 0 219 -16q89 -15 172 -59t125 -134t42 -228zM1079 983q0 128 -52 174
q-53 47 -175 47q-143 0 -225 -106q-75 -93 -118 -287q-44 -197 -44 -330q0 -137 51 -188t168 -51q87 0 144 24q56 23 102 99q62 99 106 302q43 199 43 316zM1204 1585h-534q-54 0 -54 43q0 28 25 115q15 57 76 57h530q56 0 56 -43q0 -22 -25 -117q-7 -31 -25 -44
q-15 -11 -49 -11z" />
    <glyph glyph-name="omacron" unicode="&#x14d;" horiz-adv-x="1153" 
d="M1100 711q0 -139 -47 -313q-46 -171 -138 -275q-127 -150 -403 -150q-99 0 -174 14q-74 14 -136 50q-65 38 -98 109q-32 70 -32 182q0 156 47 317q47 160 149 262q136 142 383 142q105 0 175 -12q75 -13 139 -44q67 -33 101 -103q34 -69 34 -179zM766 668q0 67 -31 93
q-29 25 -102 25q-92 0 -137 -67q-43 -63 -66 -174q-24 -114 -24 -185q0 -74 30 -101q31 -28 101 -28q89 0 139 64q38 50 64 177q26 128 26 196zM944 1214h-457q-53 0 -53 46q0 26 25 114q17 56 73 56h453q55 0 55 -41q0 -25 -24 -119q-12 -56 -72 -56z" />
    <glyph glyph-name="Obreve" unicode="&#x14e;" horiz-adv-x="1441" 
d="M1432 1038q0 -203 -70 -474q-68 -265 -199 -406q-170 -185 -501 -185q-124 0 -218 20q-95 20 -170 68q-77 49 -118 144q-41 96 -41 233q0 221 67 461q67 239 199 385q176 191 493 191q125 0 219 -16q89 -15 172 -59t125 -134t42 -228zM1079 983q0 128 -52 174
q-53 47 -175 47q-143 0 -225 -106q-75 -93 -118 -287q-44 -197 -44 -330q0 -137 51 -188t168 -51q87 0 144 24q56 23 102 99q62 99 106 302q43 199 43 316zM1212 1884q58 0 76 -6q33 -8 33 -47q0 -44 -23 -98q-80 -193 -350 -193q-122 0 -212 61q-89 60 -89 177q0 46 6 63
q11 33 62 41q20 2 57 2q34 0 48 -10q16 -11 20 -39q4 -37 16 -53q30 -47 117 -47q74 0 106 23q34 25 56 75q16 33 28 41q14 10 49 10z" />
    <glyph glyph-name="obreve" unicode="&#x14f;" horiz-adv-x="1153" 
d="M1100 711q0 -139 -47 -313q-46 -171 -138 -275q-127 -150 -403 -150q-99 0 -174 14q-74 14 -136 50q-65 38 -98 109q-32 70 -32 182q0 156 47 317q47 160 149 262q136 142 383 142q105 0 175 -12q75 -13 139 -44q67 -33 101 -103q34 -69 34 -179zM766 668q0 67 -31 93
q-29 25 -102 25q-92 0 -137 -67q-43 -63 -66 -174q-24 -114 -24 -185q0 -74 30 -101q31 -28 101 -28q89 0 139 64q38 50 64 177q26 128 26 196zM956 1532q47 0 74 -6q29 -6 29 -47q0 -47 -23 -99q-46 -104 -122 -157q-77 -54 -218 -54q-136 0 -208 66t-72 156q0 47 6 75
q12 53 45 60q30 6 68 6q63 0 63 -49q0 -46 10 -66q22 -55 113 -55q68 0 102 29q35 30 58 84q17 35 30 45q15 12 45 12z" />
    <glyph glyph-name="Ohungarumlaut" unicode="&#x150;" horiz-adv-x="1441" 
d="M1432 1038q0 -203 -70 -474q-68 -265 -199 -406q-170 -185 -501 -185q-124 0 -218 20q-95 20 -170 68q-77 49 -118 144q-41 96 -41 233q0 221 67 461q67 239 199 385q176 191 493 191q125 0 219 -16q89 -15 172 -59t125 -134t42 -228zM1079 983q0 128 -52 174
q-53 47 -175 47q-143 0 -225 -106q-75 -93 -118 -287q-44 -197 -44 -330q0 -137 51 -188t168 -51q87 0 144 24q56 23 102 99q62 99 106 302q43 199 43 316zM786 1581q-51 -33 -104 -33q-68 0 -102 6q-50 6 -50 37q0 25 39 62l205 184q49 43 111 43q99 0 145 -6q57 -4 57 -39
q0 -33 -38 -61zM1247 1581q-49 -33 -106 -33q-68 0 -101 6q-49 6 -49 37q0 28 37 62l207 184q49 43 111 43q100 0 143 -6q59 -6 59 -39q0 -31 -39 -61z" />
    <glyph glyph-name="ohungarumlaut" unicode="&#x151;" horiz-adv-x="1153" 
d="M1100 711q0 -139 -47 -313q-46 -171 -138 -275q-127 -150 -403 -150q-99 0 -174 14q-74 14 -136 50q-65 38 -98 109q-32 70 -32 182q0 156 47 317q47 160 149 262q136 142 383 142q105 0 175 -12q75 -13 139 -44q67 -33 101 -103q34 -69 34 -179zM766 668q0 67 -31 93
q-29 25 -102 25q-92 0 -137 -67q-43 -63 -66 -174q-24 -114 -24 -185q0 -74 30 -101q31 -28 101 -28q89 0 139 64q38 50 64 177q26 128 26 196zM641 1229q-46 -43 -96 -43t-80 6q-59 7 -59 47q0 24 26 53l186 219q46 52 97 52q78 0 137 -9q51 -8 51 -41t-24 -55zM1024 1229
q-46 -43 -98 -43q-48 0 -78 6q-57 8 -57 47q0 25 22 53l188 219q46 52 97 52q78 0 139 -9q51 -8 51 -41q0 -27 -28 -55z" />
    <glyph glyph-name="OE" unicode="&#x152;" horiz-adv-x="1947" 
d="M1767 0h-632q-108 0 -129 55q-9 27 -9 58q-107 -140 -348 -140q-121 0 -212 20q-92 20 -166 68q-75 49 -116 144q-40 93 -40 233q0 222 67 460t199 384q179 193 494 193q280 0 333 -146q6 27 21 51q23 40 59 53t119 13h586q59 0 59 -43q0 -36 -37 -191q-15 -51 -73 -51
h-422q-63 0 -78 -74l-45 -198h428q55 0 55 -45q0 -10 -39 -189q-6 -29 -20 -40t-47 -11h-437l-45 -203q-10 -49 -10 -67q0 -49 64 -49h477q53 0 53 -41q0 -42 -39 -193q-12 -51 -70 -51zM1057 981q0 125 -49 173q-50 48 -158 48q-144 0 -223 -104q-75 -96 -118 -288
q-44 -196 -44 -329q0 -140 49 -189q50 -50 166 -50q76 0 128 24q51 23 97 99q66 104 108 295q44 200 44 321z" />
    <glyph glyph-name="oe" unicode="&#x153;" horiz-adv-x="1728" 
d="M831 86q-107 -113 -325 -113q-98 0 -173 14q-74 14 -135 50q-64 38 -95 109t-31 182q0 156 47 318q47 160 149 263q137 140 381 140q243 0 340 -115q126 115 340 115q196 0 281 -74q84 -73 84 -211q0 -140 -39 -270q-15 -56 -41 -70q-21 -12 -51 -12h-523q-6 -30 -6 -52
q0 -74 45 -101q47 -28 140 -28q113 0 202 21q49 12 72 12q35 0 45 -39q27 -90 27 -131q0 -42 -47 -65q-120 -56 -390 -56q-223 0 -297 113zM764 668q0 70 -30 94t-103 24q-90 0 -135 -67q-43 -63 -66 -174q-24 -114 -24 -185q0 -75 29 -101q31 -28 100 -28q90 0 137 64
q38 49 65 177q27 126 27 196zM1085 637h293q17 42 17 92q0 94 -109 94q-80 0 -127 -45q-51 -44 -74 -141z" />
    <glyph glyph-name="Racute" unicode="&#x154;" horiz-adv-x="1310" 
d="M410 72q-17 -74 -70 -74h-213q-55 0 -55 53q0 17 8 47l235 1106q27 127 94 185q66 57 199 57h152q260 0 389 -62q151 -76 151 -280q0 -389 -292 -506l166 -475q12 -33 12 -68q0 -44 -43 -51q-43 -10 -225 -10q-51 0 -66 49l-158 500q-46 -2 -110 -2h-74zM565 801h76
q138 0 197 22q118 46 118 213q0 87 -61 117q-52 23 -143 23h-45q-64 0 -76 -66zM948 1581q-52 -33 -108 -33q-74 0 -115 6q-47 5 -47 37t33 56l239 186q58 47 115 47q145 0 180 -4q66 -6 66 -43q0 -34 -37 -55z" />
    <glyph glyph-name="racute" unicode="&#x155;" horiz-adv-x="815" 
d="M365 61q-17 -63 -68 -63h-215q-45 0 -45 43q0 9 6 47l156 729q12 59 31 86t65 55q61 37 183 63q131 28 233 28t147 -17q33 -15 33 -59q0 -88 -33 -160q-18 -39 -65 -39q-2 0 -64 2t-65 2q-83 0 -119 -16q-20 -6 -33 -25q-12 -18 -18 -53zM686 1229q-46 -43 -98 -43
q-34 0 -96 6q-58 8 -58 45q0 23 27 53l201 221q46 52 96 52q97 0 162 -7q51 -6 51 -43q0 -24 -27 -51z" />
    <glyph glyph-name="Rcommaaccent" unicode="&#x156;" horiz-adv-x="1310" 
d="M410 72q-17 -74 -70 -74h-213q-55 0 -55 53q0 17 8 47l235 1106q27 127 94 185q66 57 199 57h152q260 0 389 -62q151 -76 151 -280q0 -389 -292 -506l166 -475q12 -33 12 -68q0 -44 -43 -51q-43 -10 -225 -10q-51 0 -66 49l-158 500q-46 -2 -110 -2h-74zM565 801h76
q138 0 197 22q118 46 118 213q0 87 -61 117q-52 23 -143 23h-45q-64 0 -76 -66zM582 -96h84q63 0 63 -64q0 -46 -16 -100q-43 -141 -168 -270q-40 -45 -80 -45q-30 0 -59 20q-35 21 -35 49q0 25 26 64q67 102 90 256q12 90 95 90z" />
    <glyph glyph-name="rcommaaccent" unicode="&#x157;" horiz-adv-x="815" 
d="M365 61q-17 -63 -68 -63h-215q-45 0 -45 43q0 9 6 47l156 729q12 59 31 86t65 55q61 37 183 63q131 28 233 28t147 -17q33 -15 33 -59q0 -88 -33 -160q-18 -39 -65 -39q-2 0 -64 2t-65 2q-83 0 -119 -16q-20 -6 -33 -25q-12 -18 -18 -53zM158 -96h84q63 0 63 -64
q0 -46 -16 -100q-43 -141 -168 -270q-40 -45 -80 -45q-30 0 -59 20q-35 21 -35 49q0 25 26 64q67 102 90 256q12 90 95 90z" />
    <glyph glyph-name="Rcaron" unicode="&#x158;" horiz-adv-x="1310" 
d="M410 72q-17 -74 -70 -74h-213q-55 0 -55 53q0 17 8 47l235 1106q27 127 94 185q66 57 199 57h152q260 0 389 -62q151 -76 151 -280q0 -389 -292 -506l166 -475q12 -33 12 -68q0 -44 -43 -51q-43 -10 -225 -10q-51 0 -66 49l-158 500q-46 -2 -110 -2h-74zM1098 1913
q77 0 116 -6q39 -5 39 -37q0 -27 -28 -51l-232 -205q-74 -62 -127 -62h-108q-59 0 -99 54l-153 206q-19 25 -19 48q0 37 54 45q43 8 100 8q53 0 92 -45l105 -117l155 119q50 43 105 43zM565 801h76q138 0 197 22q118 46 118 213q0 87 -61 117q-52 23 -143 23h-45
q-64 0 -76 -66z" />
    <glyph glyph-name="rcaron" unicode="&#x159;" horiz-adv-x="815" 
d="M365 61q-17 -63 -68 -63h-215q-45 0 -45 43q0 9 6 47l156 729q12 59 31 86t65 55q61 37 183 63q131 28 233 28t147 -17q33 -15 33 -59q0 -88 -33 -160q-18 -39 -65 -39q-2 0 -64 2t-65 2q-83 0 -119 -16q-20 -6 -33 -25q-12 -18 -18 -53zM799 1571q56 0 100 -4
q43 -4 43 -39q0 -24 -31 -55l-198 -220q-60 -63 -105 -63h-129q-50 0 -80 63l-116 222q-13 26 -13 47q0 37 49 43q35 6 91 6q52 0 82 -45l81 -129l136 131q43 43 90 43z" />
    <glyph glyph-name="Sacute" unicode="&#x15a;" horiz-adv-x="1187" 
d="M827 842q157 -56 221 -129t64 -199q0 -283 -158 -412t-475 -129q-268 0 -416 54q-45 17 -45 65q0 52 39 148q24 59 80 59q8 0 26 -3q3 0 38 -8q6 -1 11.5 -2.5t9.5 -3t5 -1.5q143 -35 293 -35q112 0 171 35t59 129q0 50 -28 84q-26 31 -101 59l-148 53q-144 52 -210 132
t-66 210q0 525 624 525q206 0 350 -39q41 -12 41 -66q0 -60 -30 -151q-17 -52 -68 -52q-36 0 -98 15q-121 24 -277 24q-90 0 -138 -42t-48 -118q0 -49 25 -83q24 -32 94 -60zM834 1581q-53 -33 -109 -33q-75 0 -115 6q-47 5 -47 37t33 56l240 186q58 47 114 47q145 0 180 -4
q66 -6 66 -43q0 -34 -37 -55z" />
    <glyph glyph-name="sacute" unicode="&#x15b;" horiz-adv-x="931" 
d="M635 606q117 -39 168 -95q53 -59 53 -149q0 -191 -113 -292q-109 -97 -350 -97q-262 0 -377 47q-32 15 -32 48q0 44 41 159q16 43 65 43q20 0 64 -12q123 -33 266 -33q74 0 98 29q19 25 19 53q0 22 -17 37q-15 14 -65 29l-115 35q-112 33 -172 90q-59 56 -59 155
q0 201 137 308q118 88 352 88q172 0 276 -29q41 -12 41 -51q0 -61 -32 -160q-11 -39 -60 -39q-27 0 -57 6q-111 21 -209 21q-64 0 -98 -23q-25 -19 -25 -59q0 -42 82 -70zM664 1229q-46 -43 -99 -43q-35 0 -96 6q-57 8 -57 45q0 24 26 53l201 221q46 52 96 52q97 0 162 -7
q51 -6 51 -43q0 -25 -26 -51z" />
    <glyph glyph-name="Scircumflex" unicode="&#x15c;" horiz-adv-x="1187" 
d="M827 842q157 -56 221 -129t64 -199q0 -283 -158 -412t-475 -129q-268 0 -416 54q-45 17 -45 65q0 52 39 148q24 59 80 59q8 0 26 -3q3 0 38 -8q6 -1 11.5 -2.5t9.5 -3t5 -1.5q143 -35 293 -35q112 0 171 35t59 129q0 50 -28 84q-26 31 -101 59l-148 53q-144 52 -210 132
t-66 210q0 525 624 525q206 0 350 -39q41 -12 41 -66q0 -60 -30 -151q-17 -52 -68 -52q-36 0 -98 15q-121 24 -277 24q-90 0 -138 -42t-48 -118q0 -49 25 -83q24 -32 94 -60zM571 1550q-77 0 -116 6q-41 8 -41 39q0 28 30 52l230 202q73 64 127 64h110q60 0 99 -55l151 -207
q19 -25 19 -47q0 -34 -52 -45q-35 -7 -100 -7q-54 0 -94 45l-107 117l-151 -121q-52 -43 -105 -43z" />
    <glyph glyph-name="scircumflex" unicode="&#x15d;" horiz-adv-x="931" 
d="M635 606q117 -39 168 -95q53 -59 53 -149q0 -191 -113 -292q-109 -97 -350 -97q-262 0 -377 47q-32 15 -32 48q0 44 41 159q16 43 65 43q20 0 64 -12q123 -33 266 -33q74 0 98 29q19 25 19 53q0 22 -17 37q-15 14 -65 29l-115 35q-112 33 -172 90q-59 56 -59 155
q0 201 137 308q118 88 352 88q172 0 276 -29q41 -12 41 -51q0 -61 -32 -160q-11 -39 -60 -39q-27 0 -57 6q-111 21 -209 21q-64 0 -98 -23q-25 -19 -25 -59q0 -42 82 -70zM397 1182q-56 0 -100 4q-43 4 -43 41q0 24 31 55l198 219q57 62 109 62h125q50 0 80 -62l118 -225
q11 -22 11 -45q0 -33 -49 -43q-35 -6 -91 -6q-52 0 -81 47l-82 129l-136 -133q-43 -43 -90 -43z" />
    <glyph glyph-name="Scedilla" unicode="&#x15e;" horiz-adv-x="1187" 
d="M551 -98q162 -16 162 -174q0 -155 -89 -218q-88 -63 -255 -63q-64 0 -97 10q-24 7 -36 19t-13 32q0 12 13 74q15 49 65 49q24 0 53 -4q22 -2 54 -2q40 0 56 16q15 15 15 54q0 41 -47 41h-39q-47 0 -47 41q0 6 21 73l39 123q-214 6 -343 54q-45 17 -45 65q0 52 39 148
q24 59 80 59q8 0 26 -3q3 0 38 -8q6 -1 11.5 -2.5t9.5 -3t5 -1.5q143 -35 293 -35q112 0 171 35t59 129q0 50 -28 84q-26 31 -101 59l-148 53q-144 52 -210 132t-66 210q0 525 624 525q206 0 350 -39q41 -12 41 -66q0 -60 -30 -151q-17 -52 -68 -52q-36 0 -98 15
q-121 24 -277 24q-90 0 -138 -42t-48 -118q0 -49 25 -83q24 -32 94 -60l155 -59q157 -56 221 -129t64 -199q0 -262 -134 -391q-134 -130 -407 -146z" />
    <glyph glyph-name="scedilla" unicode="&#x15f;" horiz-adv-x="931" 
d="M430 -94q160 -12 160 -166q0 -149 -88 -209q-87 -59 -250 -59q-60 0 -96 10q-44 12 -45 49q0 29 12 72q15 47 63 47q23 0 52 -4q22 -2 53 -2q41 0 55 14t14 51q0 39 -45 39h-39q-47 0 -47 43q0 9 21 70l39 114q-191 12 -273 45q-32 15 -32 48q0 44 41 159q16 43 65 43
q20 0 64 -12q123 -33 266 -33q74 0 98 29q19 25 19 53q0 22 -17 37q-15 14 -65 29l-115 35q-112 33 -172 90q-59 56 -59 155q0 201 137 308q118 88 352 88q172 0 276 -29q41 -12 41 -51q0 -61 -32 -160q-11 -39 -60 -39q-27 0 -57 6q-111 21 -209 21q-64 0 -98 -23
q-25 -19 -25 -59q0 -42 82 -70l119 -39q117 -39 168 -95q53 -59 53 -149q0 -191 -113 -292q-95 -85 -290 -95z" />
    <glyph glyph-name="Scaron" unicode="&#x160;" horiz-adv-x="1187" 
d="M827 842q157 -56 221 -129t64 -199q0 -283 -158 -412t-475 -129q-268 0 -416 54q-45 17 -45 65q0 52 39 148q24 59 80 59q8 0 26 -3q3 0 38 -8q6 -1 11.5 -2.5t9.5 -3t5 -1.5q143 -35 293 -35q112 0 171 35t59 129q0 50 -28 84q-26 31 -101 59l-148 53q-144 52 -210 132
t-66 210q0 525 624 525q206 0 350 -39q41 -12 41 -66q0 -60 -30 -151q-17 -52 -68 -52q-36 0 -98 15q-121 24 -277 24q-90 0 -138 -42t-48 -118q0 -49 25 -83q24 -32 94 -60zM1059 1913q77 0 117 -6q38 -4 38 -37q0 -27 -28 -51l-232 -205q-74 -62 -127 -62h-108
q-58 0 -98 54l-154 206q-18 24 -18 48q0 37 53 45q43 8 100 8q53 0 92 -45l105 -117l155 119q52 43 105 43z" />
    <glyph glyph-name="scaron" unicode="&#x161;" horiz-adv-x="931" 
d="M635 606q117 -39 168 -95q53 -59 53 -149q0 -191 -113 -292q-109 -97 -350 -97q-262 0 -377 47q-32 15 -32 48q0 44 41 159q16 43 65 43q20 0 64 -12q123 -33 266 -33q74 0 98 29q19 25 19 53q0 22 -17 37q-15 14 -65 29l-115 35q-112 33 -172 90q-59 56 -59 155
q0 201 137 308q118 88 352 88q172 0 276 -29q41 -12 41 -51q0 -61 -32 -160q-11 -39 -60 -39q-27 0 -57 6q-111 21 -209 21q-64 0 -98 -23q-25 -19 -25 -59q0 -42 82 -70zM834 1571q56 0 100 -4q43 -4 43 -39q0 -24 -31 -55l-198 -220q-60 -63 -105 -63h-129q-47 0 -80 63
l-117 222q-12 24 -12 47q0 37 49 43q34 6 90 6q52 0 82 -45l82 -129l135 131q43 43 91 43z" />
    <glyph glyph-name="uni0162" unicode="&#x162;" horiz-adv-x="1255" 
d="M537 -98q161 -16 161 -174q0 -155 -89 -218t-255 -63q-60 0 -96 10q-25 7 -37 19q-11 11 -12 32q0 17 12 74q15 49 66 49q24 0 53 -4q22 -2 53 -2q41 0 57 16q15 15 15 54q0 41 -47 41h-39q-47 0 -47 41q0 9 20 73l47 148h-28q-52 0 -52 49q0 11 7 39l231 1075h-319
q-52 0 -52 37q0 38 35 186q11 36 24 49t46 13h969q59 0 59 -39q0 -32 -41 -201q-10 -45 -68 -45h-315l-236 -1095q-12 -68 -69 -68h-25z" />
    <glyph glyph-name="uni0163" unicode="&#x163;" horiz-adv-x="763" 
d="M418 -94q160 -12 160 -166q0 -149 -89 -209q-87 -59 -249 -59q-61 0 -97 10q-44 12 -45 49q0 25 13 72q15 47 63 47q22 0 51 -4q22 -2 54 -2q41 0 55 14t14 51q0 39 -45 39h-39q-47 0 -47 43q0 9 21 70l53 155q-158 51 -158 211q0 94 33 238l63 295h-92q-51 0 -51 43
q0 29 31 155q15 62 76 62h98q0 15 53 215q21 70 78 70h180q53 0 53 -45q0 -29 -10 -78l-37 -162h140q63 0 63 -51q0 -43 -29 -156q-15 -53 -77 -53h-150l-72 -328q-10 -44 -10 -90t29 -70q26 -21 119 -32q49 -6 49 -60t-25 -135q-16 -61 -80 -61q-61 0 -121 6z" />
    <glyph glyph-name="Tcaron" unicode="&#x164;" horiz-adv-x="1255" 
d="M659 66q-12 -68 -69 -68h-219q-52 0 -52 49q0 11 7 39l231 1075h-319q-52 0 -52 37q0 38 35 186q11 36 24 49t46 13h969q59 0 59 -39q0 -32 -41 -201q-10 -45 -68 -45h-315zM1040 1913q78 0 117 -6q39 -5 39 -37q0 -27 -29 -51l-231 -205q-74 -62 -127 -62h-109
q-58 0 -98 54l-153 206q-19 25 -19 48q0 37 53 45q43 8 101 8q53 0 92 -45l104 -117l156 119q50 43 104 43z" />
    <glyph glyph-name="tcaron" unicode="&#x165;" horiz-adv-x="763" 
d="M555 760l-72 -328q-10 -44 -10 -90t29 -70q26 -21 119 -32q49 -6 49 -60t-25 -135q-16 -61 -80 -61q-204 1 -319 52q-113 50 -113 191q0 94 33 238l63 295h-92q-51 0 -51 43q0 29 31 155q15 62 76 62h98q0 15 53 215q21 70 78 70h180q53 0 53 -45q0 -29 -10 -78l-37 -162
h140q63 0 63 -51q0 -43 -29 -156q-15 -53 -77 -53h-150zM928 1561h84q63 0 63 -68q0 -42 -16 -96q-47 -154 -168 -271q-43 -43 -80 -43q-24 0 -59 19q-33 21 -33 51q0 23 24 61q69 96 91 256q12 91 94 91z" />
    <glyph glyph-name="Tbar" unicode="&#x166;" horiz-adv-x="1255" 
d="M672 66q-12 -68 -70 -68h-219q-51 0 -51 49q0 15 6 39l119 551h-207q-49 0 -49 45q0 25 26 143q12 56 70 56h211l61 280h-319q-51 0 -51 37q0 43 34 186q11 36 24 49t46 13h969q59 0 59 -39q0 -32 -41 -201q-10 -45 -67 -45h-316l-61 -280h227q49 0 49 -39
q0 -16 -30 -156q-6 -30 -22 -40q-15 -9 -48 -9h-227z" />
    <glyph glyph-name="tbar" unicode="&#x167;" horiz-adv-x="763" 
d="M555 760l-23 -101h119q49 0 49 -45q0 -29 -24 -125q-12 -49 -70 -49h-121l-2 -8q-10 -44 -10 -90t29 -70q26 -21 119 -32q49 -6 49 -60t-25 -135q-16 -61 -80 -61q-204 1 -319 52q-113 50 -113 191q0 95 27 213h-64q-51 0 -51 43q0 14 25 117q15 59 69 59h68l22 101h-92
q-51 0 -51 43q0 29 31 155q15 62 76 62h98q0 15 53 215q21 70 78 70h180q53 0 53 -45q0 -29 -10 -78l-37 -162h140q63 0 63 -51q0 -43 -29 -156q-15 -53 -77 -53h-150z" />
    <glyph glyph-name="Utilde" unicode="&#x168;" horiz-adv-x="1404" 
d="M1454 1368l-170 -790q-39 -178 -67 -261q-28 -85 -78 -149q-80 -102 -209 -148q-130 -47 -336 -47q-82 0 -157 15q-80 16 -148 48q-74 35 -117 101q-43 67 -43 162q0 105 35 274l170 811q15 64 69 64h224q47 0 47 -43q0 -18 -8 -53l-179 -834q-14 -67 -14 -125
q0 -151 178 -151q148 0 211 63q58 53 88 199l187 880q11 64 67 64h205q49 0 49 -41q0 -20 -4 -39zM690 1544q-58 0 -82 6q-30 10 -30 43q0 21 18 64q84 203 225 203q35 0 144 -52q68 -34 108 -34q49 0 78 51q28 43 80 43q47 0 69 -6q35 -8 35 -39q0 -34 -32 -94
q-86 -173 -207 -173q-56 0 -164 54q-58 32 -96 32q-48 0 -76 -45q-17 -29 -32 -42q-12 -11 -38 -11z" />
    <glyph glyph-name="utilde" unicode="&#x169;" horiz-adv-x="1200" 
d="M1006 180q-18 -96 -105 -131q-201 -76 -518 -76q-303 0 -303 197q0 89 20 180l129 608q15 64 68 64h211q49 0 49 -43q0 -15 -6 -45l-117 -545q-12 -67 -12 -88q0 -68 102 -68q63 0 117 17q27 7 47 22q19 16 25 50l135 636q15 64 65 64h211q50 0 50 -43q0 -15 -7 -43z
M518 1184q-2 0 -72 8q-36 6 -36 43q0 26 16 68q35 95 91 147q58 53 124 53q41 0 135 -51q61 -35 103 -35q45 0 73 49q24 47 64 47q58 0 82 -6q30 -11 30 -39q0 -25 -28 -96q-78 -172 -203 -172q-61 0 -152 53q-57 33 -86 33q-46 0 -75 -47q-16 -29 -31 -44q-11 -11 -35 -11z
" />
    <glyph glyph-name="Umacron" unicode="&#x16a;" horiz-adv-x="1404" 
d="M1454 1368l-170 -790q-39 -178 -67 -261q-28 -85 -78 -149q-80 -102 -209 -148q-130 -47 -336 -47q-82 0 -157 15q-80 16 -148 48q-74 35 -117 101q-43 67 -43 162q0 105 35 274l170 811q15 64 69 64h224q47 0 47 -43q0 -18 -8 -53l-179 -834q-14 -67 -14 -125
q0 -151 178 -151q148 0 211 63q58 53 88 199l187 880q11 64 67 64h205q49 0 49 -41q0 -20 -4 -39zM1171 1585h-534q-53 0 -53 43q0 31 24 115q15 57 76 57h530q56 0 56 -43q0 -22 -25 -117q-7 -32 -24 -44q-15 -11 -50 -11z" />
    <glyph glyph-name="umacron" unicode="&#x16b;" horiz-adv-x="1200" 
d="M1006 180q-18 -96 -105 -131q-201 -76 -518 -76q-303 0 -303 197q0 89 20 180l129 608q15 64 68 64h211q49 0 49 -43q0 -15 -6 -45l-117 -545q-12 -67 -12 -88q0 -68 102 -68q63 0 117 17q27 7 47 22q19 16 25 50l135 636q15 64 65 64h211q50 0 50 -43q0 -15 -7 -43z
M942 1214h-457q-53 0 -53 46q0 26 25 114q17 56 73 56h453q55 0 55 -41q0 -25 -24 -119q-12 -56 -72 -56z" />
    <glyph glyph-name="Ubreve" unicode="&#x16c;" horiz-adv-x="1404" 
d="M1454 1368l-170 -790q-39 -178 -67 -261q-28 -85 -78 -149q-80 -102 -209 -148q-130 -47 -336 -47q-82 0 -157 15q-80 16 -148 48q-74 35 -117 101q-43 67 -43 162q0 105 35 274l170 811q15 64 69 64h224q47 0 47 -43q0 -18 -8 -53l-179 -834q-14 -67 -14 -125
q0 -151 178 -151q148 0 211 63q58 53 88 199l187 880q11 64 67 64h205q49 0 49 -41q0 -20 -4 -39zM1161 1884q58 0 76 -6q33 -8 33 -47q0 -44 -23 -98q-80 -193 -350 -193q-122 0 -212 61q-89 60 -89 177q0 46 6 63q11 33 62 41q20 2 57 2q34 0 48 -10t19 -39q4 -35 17 -53
q30 -47 117 -47q74 0 106 23t55 75q16 32 29 41q14 10 49 10z" />
    <glyph glyph-name="ubreve" unicode="&#x16d;" horiz-adv-x="1200" 
d="M1006 180q-18 -96 -105 -131q-201 -76 -518 -76q-303 0 -303 197q0 89 20 180l129 608q15 64 68 64h211q49 0 49 -43q0 -15 -6 -45l-117 -545q-12 -67 -12 -88q0 -68 102 -68q63 0 117 17q27 7 47 22q19 16 25 50l135 636q15 64 65 64h211q50 0 50 -43q0 -15 -7 -43z
M983 1532q45 0 74 -6q28 -6 28 -47q0 -49 -22 -99q-46 -104 -122 -157q-77 -54 -218 -54q-136 0 -208 66q-73 67 -73 156q0 42 7 75q12 53 45 60q30 6 67 6q64 0 64 -49q0 -46 10 -66q22 -55 113 -55q68 0 102 29q33 29 57 84q17 34 31 45q15 12 45 12z" />
    <glyph glyph-name="Uring" unicode="&#x16e;" horiz-adv-x="1404" 
d="M1454 1368l-170 -790q-39 -178 -67 -261q-28 -85 -78 -149q-80 -102 -209 -148q-130 -47 -336 -47q-82 0 -157 15q-80 16 -148 48q-74 35 -117 101q-43 67 -43 162q0 105 35 274l170 811q15 64 69 64h224q47 0 47 -43q0 -18 -8 -53l-179 -834q-14 -67 -14 -125
q0 -151 178 -151q148 0 211 63q58 53 88 199l187 880q11 64 67 64h205q49 0 49 -41q0 -20 -4 -39zM1122 1724q0 -100 -55 -158q-56 -59 -156 -59q-83 0 -129 46q-47 47 -47 130q0 99 56 160q55 60 153 60q85 0 131 -46q47 -47 47 -133zM1032 1720q0 101 -96 101
q-49 0 -82 -36t-33 -91q0 -103 99 -103q52 0 82 34q30 35 30 95z" />
    <glyph glyph-name="uring" unicode="&#x16f;" horiz-adv-x="1200" 
d="M1006 180q-18 -96 -105 -131q-201 -76 -518 -76q-303 0 -303 197q0 89 20 180l129 608q15 64 68 64h211q49 0 49 -43q0 -15 -6 -45l-117 -545q-12 -67 -12 -88q0 -68 102 -68q63 0 117 17q27 7 47 22q19 16 25 50l135 636q15 64 65 64h211q50 0 50 -43q0 -15 -7 -43z
M934 1397q0 -105 -60 -165q-61 -61 -163 -61q-87 0 -138 48q-49 46 -49 135q0 102 62 164q61 61 162 61q87 0 137 -47q49 -46 49 -135zM840 1395q0 102 -103 102q-54 0 -88 -37q-35 -38 -35 -96q0 -111 105 -111q58 0 89 37q32 38 32 105z" />
    <glyph glyph-name="Uhungarumlaut" unicode="&#x170;" horiz-adv-x="1404" 
d="M1454 1368l-170 -790q-39 -178 -67 -261q-28 -85 -78 -149q-80 -102 -209 -148q-130 -47 -336 -47q-82 0 -157 15q-80 16 -148 48q-74 35 -117 101q-43 67 -43 162q0 105 35 274l170 811q15 64 69 64h224q47 0 47 -43q0 -18 -8 -53l-179 -834q-14 -67 -14 -125
q0 -151 178 -151q148 0 211 63q58 53 88 199l187 880q11 64 67 64h205q49 0 49 -41q0 -20 -4 -39zM797 1581q-51 -33 -105 -33q-69 0 -102 6q-49 6 -49 37q0 25 39 62l204 184q49 43 111 43q100 0 145 -6q58 -5 58 -39q0 -33 -39 -61zM1257 1581q-49 -33 -106 -33
q-65 0 -100 6q-50 6 -50 37q0 28 37 62l207 184q49 43 111 43q100 0 143 -6q60 -6 60 -39q0 -31 -39 -61z" />
    <glyph glyph-name="uhungarumlaut" unicode="&#x171;" horiz-adv-x="1200" 
d="M1006 180q-18 -96 -105 -131q-201 -76 -518 -76q-303 0 -303 197q0 89 20 180l129 608q15 64 68 64h211q49 0 49 -43q0 -15 -6 -45l-117 -545q-12 -67 -12 -88q0 -68 102 -68q63 0 117 17q27 7 47 22q19 16 25 50l135 636q15 64 65 64h211q50 0 50 -43q0 -15 -7 -43z
M653 1229q-46 -43 -96 -43t-80 6q-59 7 -59 47q0 24 26 53l187 219q46 52 96 52q78 0 137 -9q51 -8 51 -41t-24 -55zM1036 1229q-46 -43 -98 -43q-48 0 -78 6q-57 8 -57 47q0 25 22 53l189 219q46 52 96 52q78 0 139 -9q51 -8 51 -41q0 -27 -28 -55z" />
    <glyph glyph-name="Uogonek" unicode="&#x172;" horiz-adv-x="1404" 
d="M1454 1368l-170 -790q-39 -178 -67 -261q-28 -85 -78 -149q-124 -155 -377 -184q-111 -76 -157 -130q-48 -57 -48 -133q0 -34 22 -56q21 -21 58 -21q31 0 52 1t36 1q21 0 33 -10q10 -9 16 -37q6 -24 6 -64q0 -31 -13 -44t-50 -23q-49 -11 -144 -11q-241 0 -241 195
q0 206 211 323q-81 5 -146 22q-74 20 -131 51q-63 35 -100 98q-37 64 -37 153q0 105 35 274l170 811q15 64 69 64h224q47 0 47 -43q0 -18 -8 -53l-179 -834q-14 -67 -14 -125q0 -151 178 -151q148 0 211 63q58 53 88 199l187 880q11 64 67 64h205q49 0 49 -41q0 -20 -4 -39z
" />
    <glyph glyph-name="uogonek" unicode="&#x173;" horiz-adv-x="1200" 
d="M1006 180q-18 -96 -105 -131q-3 -1 -13 -4t-27.5 -8.5t-35.5 -11.5q-254 -152 -254 -293q0 -70 76 -70q29 0 49 1t35 1q23 0 33 -9q10 -8 16 -38q8 -35 8 -61q-2 -28 -15 -42q-15 -15 -48 -22q-43 -10 -139 -10q-232 0 -232 186q0 211 238 316q-146 -11 -209 -11
q-303 0 -303 197q0 89 20 180l129 608q15 64 68 64h211q49 0 49 -43q0 -15 -6 -45l-117 -545q-12 -67 -12 -88q0 -68 102 -68q63 0 117 17q27 7 47 22q19 16 25 50l135 636q15 64 65 64h211q50 0 50 -43q0 -15 -7 -43z" />
    <glyph glyph-name="Wcircumflex" unicode="&#x174;" horiz-adv-x="1939" 
d="M1098 1055q-62 -161 -385 -889q-43 -96 -96 -135t-148 -39h-90q-168 0 -168 155q0 232 18 1164q0 43 7 78q12 48 65 53q79 10 231 10q60 0 60 -70q-1 -176 -25 -553q-23 -368 -37 -503q102 265 404 942q37 79 75 112q37 33 113 33h82q85 0 115 -28t31 -113q0 -45 1 -90
t1 -111q0 -436 -11 -747q71 221 388 1054q29 74 83 74q166 0 230 -10q33 -6 33 -41q0 -33 -27 -94l-465 -1141q-34 -87 -87 -131q-52 -43 -153 -43h-75q-107 0 -146 39t-39 137q0 664 15 887zM963 1550q-77 0 -117 6q-41 8 -41 39q0 27 31 52l229 202q73 64 127 64h111
q59 0 98 -55l151 -207q19 -25 19 -47q0 -34 -51 -45q-35 -7 -101 -7q-53 0 -94 45l-106 117l-152 -121q-50 -43 -104 -43z" />
    <glyph glyph-name="wcircumflex" unicode="&#x175;" horiz-adv-x="1599" 
d="M852 670l-248 -543q-38 -79 -89 -107q-52 -28 -144 -28h-49q-157 0 -158 143l-14 752q0 49 2 71q6 52 53 58q73 10 227 10q55 0 55 -59q0 -290 -22 -670q70 181 240 547q38 81 75 111q40 32 111 32h37q72 0 103 -31q29 -29 34 -100q14 -284 14 -557q77 217 246 666
q24 61 84 61q133 0 211 -12q37 -4 37 -51q0 -19 -25 -74l-338 -764q-33 -73 -82 -103q-50 -30 -137 -30h-47q-168 0 -170 137q-6 380 -6 541zM752 1182q-57 0 -101 4q-43 4 -43 41q0 24 31 55l199 219q57 62 108 62h125q50 0 80 -62l119 -225q10 -20 10 -45q0 -33 -49 -43
q-35 -6 -90 -6q-53 0 -82 47l-82 129l-135 -133q-43 -43 -90 -43z" />
    <glyph glyph-name="Ycircumflex" unicode="&#x176;" horiz-adv-x="1263" 
d="M731 74q-12 -76 -72 -76h-217q-51 0 -51 51q0 10 8 53l101 488l-287 739q-16 39 -16 64q0 37 34 49q29 8 261 8q56 0 77 -61q116 -331 154 -467q92 150 338 464q52 64 104 64q238 0 262 -12q21 -8 21 -39q0 -23 -39 -70l-573 -731zM602 1550q-78 0 -117 6q-41 8 -41 39
q0 27 31 52l230 202q73 64 126 64h111q59 0 98 -55l152 -207q18 -24 18 -47q0 -34 -51 -45q-35 -7 -100 -7q-54 0 -94 45l-107 117l-151 -121q-50 -43 -105 -43z" />
    <glyph glyph-name="ycircumflex" unicode="&#x177;" horiz-adv-x="1200" 
d="M643 25q-125 -52 -264 -52q-301 0 -301 199q0 75 20 172l131 614q15 64 70 64h213q45 0 45 -45q0 -9 -1 -16q-2 -16 -4 -23q-3 -12 -3 -16l-115 -537q-12 -49 -12 -92q0 -60 104 -60q59 0 113 17q31 8 47 22q22 22 29 58l133 628q15 64 72 64h204q50 0 50 -45
q0 -3 -7 -47l-178 -838q-40 -182 -74 -258q-84 -176 -253 -244q-173 -69 -527 -69q-86 0 -86 63q0 85 2 123q6 76 76 78q239 6 343 35q102 28 132 84q19 36 35 96zM537 1182q-57 0 -101 4q-43 4 -43 41q0 24 31 55l199 219q57 62 108 62h125q50 0 80 -62l119 -225
q10 -20 10 -45q0 -33 -49 -43q-33 -6 -90 -6q-53 0 -82 47l-82 129l-135 -133q-43 -43 -90 -43z" />
    <glyph glyph-name="Ydieresis" unicode="&#x178;" horiz-adv-x="1263" 
d="M731 74q-12 -76 -72 -76h-217q-51 0 -51 51q0 10 8 53l101 488l-287 739q-16 39 -16 64q0 37 34 49q29 8 261 8q56 0 77 -61q116 -331 154 -467q92 150 338 464q52 64 104 64q238 0 262 -12q21 -8 21 -39q0 -23 -39 -70l-573 -731zM784 1739q0 -97 -47 -142
q-41 -41 -110 -41q-121 0 -121 109q0 91 43 135q45 47 115 47q120 0 120 -108zM1196 1739q0 -97 -47 -142q-41 -41 -113 -41q-119 0 -119 109q0 89 44 135q45 47 114 47q121 0 121 -108z" />
    <glyph glyph-name="Zacute" unicode="&#x179;" horiz-adv-x="1251" 
d="M1053 0h-971q-113 0 -113 111q0 131 103 237l805 813h-603q-53 0 -53 51q0 35 29 162q18 72 82 72h852q133 0 133 -131q0 -135 -135 -271l-760 -759h672q65 0 65 -52q0 -47 -33 -178q-15 -55 -73 -55zM868 1581q-52 -33 -108 -33q-76 0 -115 6q-47 5 -47 37t33 56
l239 186q58 47 115 47q145 0 180 -4q66 -6 66 -43q0 -34 -37 -55z" />
    <glyph glyph-name="zacute" unicode="&#x17a;" horiz-adv-x="1015" 
d="M827 0h-749q-121 0 -121 104q0 131 100 213l543 437h-426q-51 0 -51 43q0 38 33 159q18 64 73 64h660q66 0 97 -28q30 -27 30 -85q0 -129 -129 -235q-348 -291 -504 -406h504q49 0 49 -49q0 -24 -33 -168q-12 -49 -76 -49zM709 1229q-46 -43 -99 -43q-34 0 -96 6
q-57 8 -57 45q0 24 26 53l201 221q46 52 96 52q97 0 162 -7q51 -6 51 -43q0 -25 -26 -51z" />
    <glyph glyph-name="Zdotaccent" unicode="&#x17b;" horiz-adv-x="1251" 
d="M1053 0h-971q-113 0 -113 111q0 131 103 237l805 813h-603q-53 0 -53 51q0 35 29 162q18 72 82 72h852q133 0 133 -131q0 -135 -135 -271l-760 -759h672q65 0 65 -52q0 -47 -33 -178q-15 -55 -73 -55zM942 1739q0 -99 -45 -142q-41 -41 -113 -41q-118 0 -118 109
q0 86 43 135q45 47 112 47q121 0 121 -108z" />
    <glyph glyph-name="zdotaccent" unicode="&#x17c;" horiz-adv-x="1015" 
d="M827 0h-749q-121 0 -121 104q0 131 100 213l543 437h-426q-51 0 -51 43q0 38 33 159q18 64 73 64h660q66 0 97 -28q30 -27 30 -85q0 -129 -129 -235q-348 -291 -504 -406h504q49 0 49 -49q0 -24 -33 -168q-12 -49 -76 -49zM768 1378q0 -90 -45 -141q-41 -41 -113 -41
q-118 0 -118 109q0 86 43 135q39 47 112 47q121 0 121 -109z" />
    <glyph glyph-name="Zcaron" unicode="&#x17d;" horiz-adv-x="1251" 
d="M1053 0h-971q-113 0 -113 111q0 131 103 237l805 813h-603q-53 0 -53 51q0 35 29 162q18 72 82 72h852q133 0 133 -131q0 -135 -135 -271l-760 -759h672q65 0 65 -52q0 -47 -33 -178q-15 -55 -73 -55zM1057 1913q78 0 117 -6q38 -4 38 -37q0 -27 -28 -51l-232 -205
q-74 -62 -127 -62h-108q-59 0 -99 54l-153 206q-19 25 -19 48q0 37 54 45q43 8 100 8q53 0 92 -45l105 -117l155 119q52 43 105 43z" />
    <glyph glyph-name="zcaron" unicode="&#x17e;" horiz-adv-x="1015" 
d="M827 0h-749q-121 0 -121 104q0 131 100 213l543 437h-426q-51 0 -51 43q0 38 33 159q18 64 73 64h660q66 0 97 -28q30 -27 30 -85q0 -129 -129 -235q-348 -291 -504 -406h504q49 0 49 -49q0 -24 -33 -168q-12 -49 -76 -49zM844 1571q56 0 100 -4q43 -4 43 -39
q0 -24 -31 -55l-198 -220q-60 -63 -105 -63h-129q-50 0 -80 63l-116 222q-13 26 -13 47q0 37 50 43q35 6 90 6q52 0 82 -45l81 -129l136 131q43 43 90 43z" />
    <glyph glyph-name="longs" unicode="&#x17f;" horiz-adv-x="602" 
d="M367 70q-12 -72 -76 -72h-205q-49 0 -49 43q0 17 6 41l219 1030q46 227 166 313q157 113 416 113q43 0 67 -18q25 -19 25 -50q0 -59 -16 -129q-12 -56 -78 -61q-91 -7 -140 -24q-41 -14 -73 -46q-31 -39 -47 -116z" />
    <glyph glyph-name="florin" unicode="&#x192;" horiz-adv-x="1099" 
d="M774 696l-117 -563q-47 -224 -145 -297q-58 -41 -133 -63q-72 -21 -205 -21q-105 0 -156 21q-28 12 -28 63q0 44 30 144q12 45 64 45q6 0 41 -3q46 -4 55 -4q75 0 105 33q33 34 51 131l108 514h-159q-43 0 -43 35q0 29 20 113q10 43 55 43h166l33 153q45 210 146 289
q112 86 337 86q105 0 156 -18q35 -17 35 -64q0 -39 -31 -147q-16 -43 -63 -43q-8 0 -45 3q-38 3 -56 3q-75 0 -108 -35q-35 -35 -53 -123l-23 -104h217q49 0 49 -41q0 -40 -20 -109q-8 -41 -60 -41h-223z" />
    <glyph glyph-name="Aringacute" unicode="&#x1fa;" horiz-adv-x="1370" 
d="M1081 1567q0 -81 -45 -137q49 -16 70 -56q22 -40 29 -114l122 -1123q5 -50 5 -69q0 -46 -43 -62q-24 -12 -236 -12q-33 0 -47 17q-13 16 -18 59l-27 276h-451l-147 -276q-23 -47 -39 -61q-16 -15 -47 -15q-212 0 -248 10q-29 8 -29 39q0 34 23 78l610 1128q51 94 85 131
q36 39 97 54q-24 38 -24 96q0 93 52 146q53 55 142 55q79 0 122 -43q44 -44 44 -121zM575 618h304q-29 388 -35 560q-71 -165 -269 -560zM1014 1796q-45 -27 -86 -27q-49 0 -94 5q-46 5 -46 34q0 28 33 52l197 143q52 35 98 35q101 0 156 -4q47 -2 47 -37q0 -30 -33 -51z
M995 1565q0 90 -88 90q-44 0 -74 -32q-30 -31 -30 -83q0 -46 24 -70t68 -24q47 0 74 32q26 30 26 87z" />
    <glyph glyph-name="aringacute" unicode="&#x1fb;" horiz-adv-x="1126" 
d="M932 180q-15 -77 -49 -110q-33 -33 -90 -50q-158 -47 -396 -47q-358 0 -358 260q0 238 166 340q107 64 340 64q54 0 160 -8l6 26q8 35 8 58q0 65 -129 65q-122 0 -195 -14q-73 -12 -90 -12q-36 0 -47 47q-16 67 -16 127q0 54 69 75q155 48 355 48q77 0 151 -9
q59 -7 120 -29q57 -20 88 -69q30 -46 30 -119q0 -81 -21 -172zM662 416q-60 6 -115 6q-101 0 -144 -27q-51 -30 -51 -98q0 -90 113 -90q85 0 125 22q24 13 31 33q9 21 22 80zM901 1395q0 -106 -59 -165q-61 -61 -164 -61q-84 0 -135 48q-49 46 -49 135q0 103 61 164t162 61
q85 0 135 -48q49 -48 49 -134zM807 1395q0 98 -102 98q-53 0 -88 -36q-33 -34 -33 -95q0 -109 104 -109q119 0 119 142zM817 1675q-46 -41 -94 -41q-63 0 -96 4q-58 8 -58 45q0 25 27 52l205 225q45 49 92 49q109 0 162 -8q49 -10 49 -41q0 -30 -27 -51z" />
    <glyph glyph-name="AEacute" unicode="&#x1fc;" horiz-adv-x="1988" 
d="M350 59q-50 -63 -129 -63q-159 0 -239 4q-50 2 -50 47q0 29 33 68l940 1171q73 92 135 126q61 34 166 34h832q59 0 59 -45q0 -50 -37 -189q-15 -51 -73 -51h-465l-62 -272h410q53 0 53 -45q0 -19 -37 -189q-6 -29 -20 -40t-47 -11h-416l-47 -211q-8 -40 -8 -59
q0 -49 59 -49h461q55 0 55 -45q0 -44 -39 -189q-12 -51 -72 -51h-638q-193 0 -193 152q0 57 12 114l21 92h-424zM793 633h276l117 528zM1599 1581q-53 -33 -108 -33q-75 0 -115 6q-47 5 -47 37t33 56l240 186q58 47 114 47q145 0 180 -4q66 -6 66 -43q0 -34 -37 -55z" />
    <glyph glyph-name="aeacute" unicode="&#x1fd;" horiz-adv-x="1660" 
d="M731 86q-148 -113 -352 -113q-166 0 -253 69t-87 196q0 238 170 333q114 66 344 66l154 -6l8 33q4 15 4 49q0 65 -135 65q-118 0 -209 -18q-53 -8 -70 -8q-42 0 -49 49q-16 74 -16 125q0 62 77 80q151 43 353 43q250 0 295 -109q114 109 311 109q189 0 273 -73
q83 -72 83 -212q0 -142 -39 -275q-15 -53 -39 -65q-18 -12 -51 -12h-522q-6 -30 -6 -58q0 -68 45 -95q47 -28 131 -28q99 0 219 23q4 0 16 3q15 4 25 5q16 2 23 2q32 0 47 -53q24 -84 24 -121t-47 -61q-115 -56 -379 -56q-246 0 -348 113zM666 416q-65 4 -121 4
q-115 0 -152 -27q-41 -33 -41 -100q0 -86 113 -86q52 0 110 13q59 13 84 32q-4 25 -4 47q0 64 11 117zM1024 635h295q14 46 14 92q0 49 -25 73q-24 23 -89 23q-152 0 -195 -188zM1090 1229q-46 -43 -99 -43q-35 0 -96 6q-57 8 -57 45q0 24 26 53l201 221q46 52 96 52
q97 0 162 -7q51 -6 51 -43q0 -25 -26 -51z" />
    <glyph glyph-name="Oslashacute" unicode="&#x1fe;" horiz-adv-x="1441" 
d="M207 -29q-20 -20 -31 -20q-18 0 -74 51q-14 11 -14 27q0 9 18 32l76 93q-67 106 -67 284q0 221 67 461q67 239 199 385q176 191 493 191q238 0 363 -60l92 109q15 16 31 16q10 0 26 -12q60 -43 60 -62q0 -15 -14 -30l-86 -105q86 -107 86 -293q0 -203 -70 -474
q-68 -265 -199 -406q-170 -185 -501 -185q-254 0 -383 84zM684 242q87 0 144 24q56 23 102 99q62 99 106 302q43 199 43 316q0 17 -2 31l-581 -697q44 -75 188 -75zM627 1098q-72 -92 -116 -282q-45 -193 -46 -327l559 670q-51 45 -172 45q-143 0 -225 -106zM1001 1581
q-53 -33 -108 -33q-75 0 -115 6q-47 5 -47 37t33 56l240 186q58 47 114 47q145 0 180 -4q66 -6 66 -43q0 -34 -37 -55z" />
    <glyph glyph-name="oslashacute" unicode="&#x1ff;" horiz-adv-x="1153" 
d="M164 -57q-17 -19 -29 -19q-15 1 -67 47q-11 11 -11 23q0 14 17 31l61 71q-63 82 -63 232q0 156 47 318q47 160 149 263q137 140 383 140q184 0 273 -37l77 92q11 14 29 14q10 0 27 -12q47 -39 47 -55q0 -15 -12 -27l-68 -78q76 -82 76 -235q0 -139 -47 -313
q-46 -171 -138 -275q-127 -150 -403 -150q-186 0 -283 47zM766 1229q-46 -43 -98 -43q-36 0 -97 6q-57 8 -57 45q0 23 27 53l200 221q46 52 97 52q96 0 161 -7q52 -6 52 -43q0 -24 -27 -51zM535 227q97 0 149 70q37 49 64 168q26 116 28 190l-346 -401q33 -27 105 -27z
M485 719q-34 -48 -60 -149q-24 -94 -30 -173l326 379q-39 17 -84 17q-102 0 -152 -74z" />
    <glyph glyph-name="uni0218" unicode="&#x218;" horiz-adv-x="1187" 
d="M827 842q157 -56 221 -129t64 -199q0 -283 -158 -412t-475 -129q-268 0 -416 54q-45 17 -45 65q0 52 39 148q24 59 80 59q8 0 26 -3q3 0 38 -8q6 -1 11.5 -2.5t9.5 -3t5 -1.5q143 -35 293 -35q112 0 171 35t59 129q0 50 -28 84q-26 31 -101 59l-148 53q-144 52 -210 132
t-66 210q0 525 624 525q206 0 350 -39q41 -12 41 -66q0 -60 -30 -151q-17 -52 -68 -52q-36 0 -98 15q-121 24 -277 24q-90 0 -138 -42t-48 -118q0 -49 25 -83q24 -32 94 -60zM483 -96h84q64 0 64 -64q0 -43 -17 -100q-44 -141 -168 -270q-40 -45 -79 -45q-31 0 -60 20
q-35 21 -35 49q0 24 27 64q67 102 90 256q12 90 94 90z" />
    <glyph glyph-name="uni0219" unicode="&#x219;" horiz-adv-x="931" 
d="M635 606q117 -39 168 -95q53 -59 53 -149q0 -191 -113 -292q-109 -97 -350 -97q-262 0 -377 47q-32 15 -32 48q0 44 41 159q16 43 65 43q20 0 64 -12q123 -33 266 -33q74 0 98 29q19 25 19 53q0 22 -17 37q-15 14 -65 29l-115 35q-112 33 -172 90q-59 56 -59 155
q0 201 137 308q118 88 352 88q172 0 276 -29q41 -12 41 -51q0 -61 -32 -160q-11 -39 -60 -39q-27 0 -57 6q-111 21 -209 21q-64 0 -98 -23q-25 -19 -25 -59q0 -42 82 -70zM340 -96h84q63 0 63 -64q0 -46 -16 -100q-43 -141 -168 -270q-40 -45 -80 -45q-30 0 -59 20
q-35 21 -35 49q0 24 27 64q67 102 90 256q12 90 94 90z" />
    <glyph glyph-name="uni021A" unicode="&#x21a;" horiz-adv-x="1255" 
d="M659 66q-12 -68 -69 -68h-219q-52 0 -52 49q0 11 7 39l231 1075h-319q-52 0 -52 37q0 38 35 186q11 36 24 49t46 13h969q59 0 59 -39q0 -32 -41 -201q-10 -45 -68 -45h-315zM438 -96h84q64 0 64 -64q0 -43 -17 -100q-43 -141 -168 -270q-40 -45 -79 -45q-31 0 -60 20
q-35 21 -35 49q0 24 27 64q67 102 90 256q12 90 94 90z" />
    <glyph glyph-name="uni021B" unicode="&#x21b;" horiz-adv-x="763" 
d="M555 760l-72 -328q-10 -44 -10 -90t29 -70q26 -21 119 -32q49 -6 49 -60t-25 -135q-16 -61 -80 -61q-204 1 -319 52q-113 50 -113 191q0 94 33 238l63 295h-92q-51 0 -51 43q0 29 31 155q15 62 76 62h98q0 15 53 215q21 70 78 70h180q53 0 53 -45q0 -29 -10 -78l-37 -162
h140q63 0 63 -51q0 -43 -29 -156q-15 -53 -77 -53h-150zM315 -96h84q64 0 64 -64q0 -43 -17 -100q-44 -143 -167 -270q-41 -45 -80 -45q-31 0 -60 20q-35 21 -35 49q0 24 27 64q67 102 90 256q12 90 94 90z" />
    <glyph glyph-name="circumflex" unicode="&#x2c6;" horiz-adv-x="403" 
d="M10 1182q-56 0 -100 4q-43 4 -43 41q0 24 31 55l198 219q57 62 109 62h125q50 0 80 -62l118 -225q11 -22 11 -45q0 -32 -50 -43q-33 -6 -90 -6q-53 0 -82 47l-81 129l-136 -133q-43 -43 -90 -43z" />
    <glyph glyph-name="caron" unicode="&#x2c7;" horiz-adv-x="403" 
d="M395 1571q57 0 101 -4q43 -4 43 -39q0 -24 -31 -55l-199 -220q-60 -63 -104 -63h-129q-47 0 -80 63l-117 222q-12 24 -12 47q0 37 49 43q33 6 90 6q52 0 82 -45l82 -129l135 131q43 43 90 43z" />
    <glyph glyph-name="breve" unicode="&#x2d8;" horiz-adv-x="403" 
d="M424 1532q47 0 74 -6q28 -6 28 -47q0 -49 -22 -99q-46 -104 -122 -157q-77 -54 -218 -54q-136 0 -208 66q-73 67 -73 156q0 47 6 75q12 53 45 60q30 6 68 6q64 0 64 -49q0 -46 10 -66q21 -55 112 -55q69 0 103 29q33 29 57 84q17 34 31 45q15 12 45 12z" />
    <glyph glyph-name="dotaccent" unicode="&#x2d9;" horiz-adv-x="403" 
d="M340 1378q0 -90 -45 -141q-41 -41 -113 -41q-119 0 -119 109q0 86 43 135q39 47 113 47q121 0 121 -109z" />
    <glyph glyph-name="ring" unicode="&#x2da;" horiz-adv-x="403" 
d="M406 1397q0 -105 -60 -165q-61 -61 -164 -61q-86 0 -137 48q-49 46 -49 135q0 103 61 164t162 61q87 0 137 -47t50 -135zM311 1395q0 102 -102 102q-54 0 -88 -37q-35 -38 -35 -96q0 -111 104 -111q59 0 90 37t31 105z" />
    <glyph glyph-name="ogonek" unicode="&#x2db;" horiz-adv-x="403" 
d="M440 18q-125 -77 -191 -143q-63 -63 -63 -143q0 -70 76 -70q29 0 49 1t35 1q22 0 33 -9q10 -8 16 -38q8 -35 8 -61q-1 -28 -15 -42q-15 -15 -48 -22q-43 -10 -139 -10q-232 0 -232 184q0 132 76 211q77 80 217 141h178z" />
    <glyph glyph-name="tilde" unicode="&#x2dc;" horiz-adv-x="403" 
d="M-49 1184q-2 0 -72 8q-37 6 -37 43q0 23 17 68q35 95 91 147q58 53 124 53q40 0 135 -51q61 -35 102 -35q46 0 74 49q24 47 64 47q57 0 81 -6q31 -11 31 -39q0 -23 -29 -96q-78 -172 -202 -172q-61 0 -152 53q-57 33 -86 33q-47 0 -76 -47q-17 -31 -30 -44
q-11 -11 -35 -11z" />
    <glyph glyph-name="hungarumlaut" unicode="&#x2dd;" horiz-adv-x="403" 
d="M-4 1229q-46 -43 -96 -43t-80 6q-60 8 -60 47q0 23 27 53l186 219q46 52 97 52q78 0 137 -9q51 -8 51 -41q0 -32 -25 -55zM379 1229q-46 -43 -98 -43q-48 0 -78 6q-58 8 -58 47q0 24 23 53l188 219q46 52 97 52q78 0 139 -9q51 -8 51 -41q0 -26 -29 -55z" />
    <glyph glyph-name="uni0394" unicode="&#x394;" horiz-adv-x="1513" 
d="M1401 129q6 -49 6 -59q0 -70 -80 -70h-1290q-38 0 -49 11q-13 13 -13 34q0 24 23 64l747 1204q22 37 47 55q20 14 58 14h264q34 0 49 -15t21 -54zM928 1047q-79 -145 -459 -764h573q-108 705 -114 764z" />
    <glyph glyph-name="uni03A9" unicode="&#x3a9;" horiz-adv-x="1546" 
d="M639 72q-8 -41 -31 -57q-22 -15 -67 -15h-410q-38 0 -54 8t-16 33q0 31 29 170q10 42 26 55t54 13h279q-133 53 -204 141q-71 89 -71 239q0 159 54 315q53 155 163 261q190 176 543 176q292 0 417 -104q126 -105 126 -318q0 -323 -156 -514q-101 -128 -297 -196h289
q36 0 52 -11q15 -10 15 -37q0 -40 -28 -159q-10 -45 -23 -59q-12 -13 -55 -13h-430q-82 0 -82 55q0 48 41 242q17 80 84 113q103 50 155 157q76 149 76 348q0 123 -56 169t-175 46q-167 0 -246 -96q-59 -70 -89 -187q-30 -115 -30 -220q0 -155 111 -221q49 -27 49 -87
q0 -38 -43 -247z" />
    <glyph glyph-name="uni03BC" unicode="&#x3bc;" horiz-adv-x="1257" 
d="M303 -356q-12 -64 -70 -64h-198q-60 0 -60 45q0 9 9 49l272 1284q15 64 66 64h215q45 0 45 -45q0 -27 -7 -55l-114 -529q-10 -54 -10 -82q0 -71 110 -71q92 0 121 10q31 8 47 22q18 13 25 50l137 636q15 64 67 64h211q50 0 50 -45l-1 -5q-1 -6 -3.5 -19t-4.5 -27
l-163 -760q-21 -101 -105 -131q-175 -62 -385 -62q-123 0 -176 33z" />
    <glyph glyph-name="pi" unicode="&#x3c0;" horiz-adv-x="1320" 
d="M426 68q-7 -43 -24 -56q-15 -12 -56 -12h-180q-62 0 -62 45q0 11 1 17q2 9 5 18q3 8 3 12l141 660h-49q-33 0 -46 9q-14 9 -14 32q0 13 31 163q7 36 27 51q17 13 61 13h989q72 0 72 -49q0 -10 -31 -156q-7 -36 -26 -50q-17 -13 -56 -13h-51l-80 -365q-14 -66 -32 -192
q-3 -16 -7 -57q-5 -56 -8 -70q-11 -68 -82 -68h-176q-37 0 -48 14t-11 52q0 71 51 317l78 369h-273z" />
    <glyph glyph-name="Wgrave" unicode="&#x1e80;" horiz-adv-x="1939" 
d="M1098 1055q-62 -161 -385 -889q-43 -96 -96 -135t-148 -39h-90q-168 0 -168 155q0 232 18 1164q0 43 7 78q12 48 65 53q79 10 231 10q60 0 60 -70q-1 -176 -25 -553q-23 -368 -37 -503q102 265 404 942q37 79 75 112q37 33 113 33h82q85 0 115 -28t31 -113q0 -45 1 -90
t1 -111q0 -436 -11 -747q71 221 388 1054q29 74 83 74q166 0 230 -10q33 -6 33 -41q0 -33 -27 -94l-465 -1141q-34 -87 -87 -131q-52 -43 -153 -43h-75q-107 0 -146 39t-39 137q0 664 15 887zM1057 1581l-271 199q-32 23 -32 51q0 44 55 45q49 4 188 4q60 0 109 -49
l188 -186q29 -27 29 -52q0 -33 -37 -39q-33 -6 -123 -6q-57 0 -106 33z" />
    <glyph glyph-name="wgrave" unicode="&#x1e81;" horiz-adv-x="1599" 
d="M852 670l-248 -543q-38 -79 -89 -107q-52 -28 -144 -28h-49q-157 0 -158 143l-14 752q0 49 2 71q6 52 53 58q73 10 227 10q55 0 55 -59q0 -290 -22 -670q70 181 240 547q38 81 75 111q40 32 111 32h37q72 0 103 -31q29 -29 34 -100q14 -284 14 -557q77 217 246 666
q24 61 84 61q133 0 211 -12q37 -4 37 -51q0 -19 -25 -74l-338 -764q-33 -73 -82 -103q-50 -30 -137 -30h-47q-168 0 -170 137q-6 380 -6 541zM807 1229l-207 229q-25 28 -25 55q0 41 54 46q59 4 157 4q54 0 93 -60l151 -219q21 -27 21 -53q0 -33 -50 -39q-40 -4 -96 -4
q-57 0 -98 41z" />
    <glyph glyph-name="Wacute" unicode="&#x1e82;" horiz-adv-x="1939" 
d="M1098 1055q-62 -161 -385 -889q-43 -96 -96 -135t-148 -39h-90q-168 0 -168 155q0 232 18 1164q0 43 7 78q12 48 65 53q79 10 231 10q60 0 60 -70q-1 -176 -25 -553q-23 -368 -37 -503q102 265 404 942q37 79 75 112q37 33 113 33h82q85 0 115 -28t31 -113q0 -45 1 -90
t1 -111q0 -436 -11 -747q71 221 388 1054q29 74 83 74q166 0 230 -10q33 -6 33 -41q0 -33 -27 -94l-465 -1141q-34 -87 -87 -131q-52 -43 -153 -43h-75q-107 0 -146 39t-39 137q0 664 15 887zM1253 1581q-53 -33 -108 -33q-76 0 -115 6q-47 5 -47 37t33 56l239 186
q58 47 115 47q145 0 180 -4q66 -6 66 -43q0 -34 -37 -55z" />
    <glyph glyph-name="wacute" unicode="&#x1e83;" horiz-adv-x="1599" 
d="M852 670l-248 -543q-38 -79 -89 -107q-52 -28 -144 -28h-49q-157 0 -158 143l-14 752q0 49 2 71q6 52 53 58q73 10 227 10q55 0 55 -59q0 -290 -22 -670q70 181 240 547q38 81 75 111q40 32 111 32h37q72 0 103 -31q29 -29 34 -100q14 -284 14 -557q77 217 246 666
q24 61 84 61q133 0 211 -12q37 -4 37 -51q0 -19 -25 -74l-338 -764q-33 -73 -82 -103q-50 -30 -137 -30h-47q-168 0 -170 137q-6 380 -6 541zM1024 1229q-46 -43 -98 -43q-36 0 -97 6q-57 8 -57 45q0 23 27 53l200 221q46 52 97 52q96 0 161 -7q52 -6 52 -43q0 -24 -27 -51z
" />
    <glyph glyph-name="Wdieresis" unicode="&#x1e84;" horiz-adv-x="1939" 
d="M1098 1055q-62 -161 -385 -889q-43 -96 -96 -135t-148 -39h-90q-168 0 -168 155q0 232 18 1164q0 43 7 78q12 48 65 53q79 10 231 10q60 0 60 -70q-1 -176 -25 -553q-23 -368 -37 -503q102 265 404 942q37 79 75 112q37 33 113 33h82q85 0 115 -28t31 -113q0 -45 1 -90
t1 -111q0 -436 -11 -747q71 221 388 1054q29 74 83 74q166 0 230 -10q33 -6 33 -41q0 -33 -27 -94l-465 -1141q-34 -87 -87 -131q-52 -43 -153 -43h-75q-107 0 -146 39t-39 137q0 664 15 887zM1135 1739q0 -96 -48 -142q-41 -41 -110 -41q-121 0 -121 109q0 91 43 135
q45 47 115 47q121 0 121 -108zM1546 1739q0 -97 -47 -142q-41 -41 -113 -41q-118 0 -118 109q0 91 43 135q45 47 114 47q121 0 121 -108z" />
    <glyph glyph-name="wdieresis" unicode="&#x1e85;" horiz-adv-x="1599" 
d="M852 670l-248 -543q-38 -79 -89 -107q-52 -28 -144 -28h-49q-157 0 -158 143l-14 752q0 49 2 71q6 52 53 58q73 10 227 10q55 0 55 -59q0 -290 -22 -670q70 181 240 547q38 81 75 111q40 32 111 32h37q72 0 103 -31q29 -29 34 -100q14 -284 14 -557q77 217 246 666
q24 61 84 61q133 0 211 -12q37 -4 37 -51q0 -19 -25 -74l-338 -764q-33 -73 -82 -103q-50 -30 -137 -30h-47q-168 0 -170 137q-6 380 -6 541zM907 1378q0 -98 -45 -141q-41 -41 -112 -41q-119 0 -119 109q0 91 41 135q45 47 116 47q119 0 119 -109zM1305 1378
q0 -98 -45 -141q-41 -41 -113 -41q-119 0 -119 109q0 86 43 135q45 47 113 47q121 0 121 -109z" />
    <glyph glyph-name="Ygrave" unicode="&#x1ef2;" horiz-adv-x="1263" 
d="M731 74q-12 -76 -72 -76h-217q-51 0 -51 51q0 10 8 53l101 488l-287 739q-16 39 -16 64q0 37 34 49q29 8 261 8q56 0 77 -61q116 -331 154 -467q92 150 338 464q52 64 104 64q238 0 262 -12q21 -8 21 -39q0 -23 -39 -70l-573 -731zM713 1581l-271 199q-32 23 -32 51
q0 44 55 45q49 4 188 4q60 0 109 -49l188 -186q29 -27 29 -52q0 -33 -37 -39q-34 -6 -123 -6q-57 0 -106 33z" />
    <glyph glyph-name="ygrave" unicode="&#x1ef3;" horiz-adv-x="1200" 
d="M643 25q-125 -52 -264 -52q-301 0 -301 199q0 75 20 172l131 614q15 64 70 64h213q45 0 45 -45q0 -9 -1 -16q-2 -16 -4 -23q-3 -12 -3 -16l-115 -537q-12 -49 -12 -92q0 -60 104 -60q59 0 113 17q31 8 47 22q22 22 29 58l133 628q15 64 72 64h204q50 0 50 -45
q0 -3 -7 -47l-178 -838q-40 -182 -74 -258q-84 -176 -253 -244q-173 -69 -527 -69q-86 0 -86 63q0 85 2 123q6 76 76 78q239 6 343 35q102 28 132 84q19 36 35 96zM604 1229l-207 229q-24 27 -24 55q0 41 53 46q59 4 158 4q53 0 92 -60l151 -219q21 -27 21 -53
q0 -33 -49 -39q-40 -4 -97 -4t-98 41z" />
    <glyph glyph-name="endash" unicode="&#x2013;" horiz-adv-x="1153" 
d="M1010 424h-885q-51 0 -51 43q0 27 32 156q15 55 74 55h881q53 0 53 -41q0 -17 -35 -160q-15 -53 -69 -53z" />
    <glyph glyph-name="emdash" unicode="&#x2014;" horiz-adv-x="1767" 
d="M1624 424h-1499q-51 0 -51 43q0 25 32 156q15 55 74 55h1497q54 0 54 -41q0 -37 -35 -160q-15 -53 -72 -53z" />
    <glyph glyph-name="quoteleft" unicode="&#x2018;" horiz-adv-x="458" 
d="M340 897h-96q-46 0 -62 16t-16 52q0 109 91 270q92 162 200 254q56 45 82 45q34 0 75 -29q37 -30 37 -65q0 -26 -37 -66q-142 -160 -180 -385q-8 -49 -28 -70q-22 -22 -66 -22z" />
    <glyph glyph-name="quoteright" unicode="&#x2019;" horiz-adv-x="458" 
d="M424 1534h98q48 0 63 -16t15 -52q0 -110 -93 -271q-92 -160 -200 -255q-44 -43 -82 -43q-33 0 -73 33q-37 28 -37 63q0 22 35 66q144 162 182 385q7 48 27 69q19 21 65 21z" />
    <glyph glyph-name="quotesinglbase" unicode="&#x201a;" horiz-adv-x="468" 
d="M170 248h96q48 0 63 -17t15 -51q0 -108 -93 -270t-200 -254q-49 -45 -82 -45q-30 0 -75 31q-35 29 -35 65q0 26 37 66q141 156 180 383q7 49 27 70q20 22 67 22z" />
    <glyph glyph-name="quotedblleft" unicode="&#x201c;" horiz-adv-x="876" 
d="M754 897h-95q-45 0 -62 16t-17 52q0 109 94 272q96 166 198 252q56 45 80 45q35 0 76 -29q37 -28 37 -65q0 -22 -35 -66q-140 -158 -180 -385q-10 -49 -31 -70q-22 -22 -65 -22zM340 897h-96q-46 0 -62 16t-16 52q0 109 91 270q92 162 200 254q56 45 82 45q34 0 75 -29
q37 -30 37 -65q0 -26 -37 -66q-142 -160 -180 -385q-8 -49 -28 -70q-22 -22 -66 -22z" />
    <glyph glyph-name="quotedblright" unicode="&#x201d;" horiz-adv-x="876" 
d="M430 1534h98q46 0 62 -16t16 -52q0 -108 -93 -270q-93 -161 -200 -252q-58 -47 -82 -47q-33 0 -73 31q-37 28 -37 65q0 22 35 66q142 160 180 385q8 46 29 68q22 22 65 22zM846 1534h96q48 0 63 -16t15 -52q0 -107 -92 -271q-90 -160 -199 -251q-53 -47 -82 -47
q-36 0 -76 31q-36 29 -36 65q0 27 36 66q143 167 181 385q7 48 28 69t66 21z" />
    <glyph glyph-name="quotedblbase" unicode="&#x201e;" horiz-adv-x="878" 
d="M170 248h96q48 0 63 -17t15 -51q0 -108 -93 -270t-200 -254q-49 -45 -82 -45q-30 0 -75 31q-35 29 -35 65q0 26 37 66q141 156 180 383q7 49 27 70q20 22 67 22zM584 248h96q47 0 62 -17q16 -18 16 -51q0 -108 -93 -271q-92 -163 -198 -253q-55 -45 -82 -45q-34 0 -74 31
q-37 28 -37 65q0 22 35 66q139 153 180 383q10 49 31 70q22 22 64 22z" />
    <glyph glyph-name="dagger" unicode="&#x2020;" horiz-adv-x="989" 
d="M518 -121q-10 -55 -57 -55h-189q-45 0 -45 35q0 13 4 32l197 924h-240q-38 0 -38 33q0 20 36 188q8 45 52 45h247l72 330q10 55 57 55h191q43 0 43 -36q0 -17 -6 -41l-66 -308h238q41 0 41 -28q0 -6 -41 -203q-8 -35 -56 -35h-239z" />
    <glyph glyph-name="daggerdbl" unicode="&#x2021;" horiz-adv-x="989" 
d="M510 -121q-12 -55 -59 -55h-189q-45 0 -45 35q0 13 4 32l64 299h-232q-41 0 -41 33q0 16 37 189q7 45 53 45h240l78 358h-240q-41 0 -41 33q0 15 37 188q8 45 55 45h244l72 330q10 55 59 55h189q43 0 43 -36q0 -13 -7 -41l-65 -308h240q38 0 38 -28q0 -21 -40 -203
q-8 -35 -54 -35h-241l-76 -358h246q39 0 39 -29q0 -15 -41 -203q-8 -35 -54 -35h-248z" />
    <glyph glyph-name="bullet" unicode="&#x2022;" horiz-adv-x="792" 
d="M721 641q0 -70 -26 -162q-25 -90 -81 -141q-86 -84 -247 -84q-265 0 -265 240q0 173 99 278q89 96 252 96q268 0 268 -227z" />
    <glyph glyph-name="ellipsis" unicode="&#x2026;" horiz-adv-x="2136" 
d="M530 215q0 -44 -16 -99q-17 -58 -49 -87q-59 -54 -150 -54q-159 0 -159 148q0 104 59 172q55 61 154 61q161 0 161 -141zM1186 215q0 -38 -17 -97q-16 -55 -47 -89q-52 -54 -149 -54q-160 0 -160 148q0 104 59 172q55 61 154 61q160 0 160 -141zM1843 215q0 -43 -16 -98
q-17 -58 -47 -88q-52 -54 -150 -54q-160 0 -160 148q0 105 58 172q55 61 153 61q162 0 162 -141z" />
    <glyph glyph-name="perthousand" unicode="&#x2030;" horiz-adv-x="2594" 
d="M874 1167q0 -120 -43 -289q-44 -173 -116 -255q-92 -101 -269 -101q-146 0 -221 55q-73 54 -73 197q0 123 36 267q38 152 105 237q94 121 289 121q149 0 221 -45q71 -44 71 -187zM647 1141q0 47 -19 63q-20 17 -65 17q-67 0 -96 -54q-37 -66 -63 -183q-27 -122 -27 -189
q0 -55 19 -75q20 -22 65 -22q67 0 98 54t59 194q29 143 29 195zM561 -29q-23 -39 -59 -39q-7 0 -62 5q-28 1 -28 22q0 14 20 43l918 1409q29 45 65 45q41 0 66 -4q24 -2 24 -22q0 -18 -22 -50zM1767 627q0 -121 -43 -290q-44 -173 -116 -255q-91 -100 -271 -100
q-147 0 -221 54t-74 197q0 118 37 266t107 238q94 121 287 121q150 0 222 -45t72 -186zM1538 600q0 48 -18 64q-17 16 -64 16q-70 0 -100 -53q-33 -61 -60 -184q-26 -117 -26 -189q0 -55 19 -75q19 -21 63 -21q68 0 98 53t59 195q29 143 29 194zM2540 627q0 -121 -43 -290
q-43 -171 -117 -255q-91 -100 -271 -100q-148 0 -220 54t-72 197q0 124 36 268q38 151 105 236q94 121 289 121q149 0 221 -45t72 -186zM2312 600q0 48 -18 64q-17 16 -66 16q-68 0 -98 -53q-31 -58 -59 -184q-27 -121 -27 -189q0 -55 19 -75q19 -21 63 -21q68 0 98 53
q32 56 60 195t28 194z" />
    <glyph glyph-name="guilsinglleft" unicode="&#x2039;" horiz-adv-x="688" 
d="M360 535l168 -314q17 -28 17 -47q0 -31 -45 -37q-25 -4 -138 -4q-44 0 -71 43l-191 322q-16 28 -16 51q0 24 37 61l301 297q51 51 100 51q104 0 142 -6t38 -32q0 -24 -28 -52z" />
    <glyph glyph-name="guilsinglright" unicode="&#x203a;" horiz-adv-x="688" 
d="M358 557l-168 313q-16 26 -16 45q0 33 47 39q25 4 137 4q43 0 70 -43l190 -323q17 -29 17 -49q0 -25 -37 -62l-299 -299q-49 -49 -102 -49q-109 0 -140 4q-39 6 -39 35q0 22 29 51z" />
    <glyph glyph-name="fraction" unicode="&#x2044;" horiz-adv-x="172" 
d="M-276 -29q-23 -39 -58 -39q-8 0 -63 5q-27 1 -27 22q0 15 18 43l918 1409q28 45 66 45q40 0 65 -4q23 -2 23 -22q0 -17 -23 -48z" />
    <glyph glyph-name="zero.superior" unicode="&#x2070;" 
d="M942 1487q0 -121 -43 -290q-43 -171 -117 -255q-91 -100 -270 -100q-148 0 -220 54q-73 55 -73 198q0 118 37 266q37 150 104 237q96 121 289 121q149 0 221 -45t72 -186zM713 1460q0 47 -19 64q-17 16 -65 16q-67 0 -97 -53q-34 -59 -61 -182t-27 -191q0 -53 20 -75
q19 -21 62 -21q69 0 99 53t59 195q29 143 29 194z" />
    <glyph glyph-name="four.superior" unicode="&#x2074;" 
d="M752 899q-8 -41 -47 -41h-132q-32 0 -32 31q0 20 4 35l26 110h-272q-102 0 -102 78q0 72 55 139l330 418q30 37 67 37q95 0 139 -4q29 -2 29 -25q0 -15 -12 -32l-344 -431h149l25 109q11 45 49 45h131q33 0 33 -29q0 -4 -8 -39l-19 -86h49q39 0 39 -28q0 -7 -26 -121
q-6 -31 -45 -31h-56z" />
    <glyph glyph-name="five.superior" unicode="&#x2075;" 
d="M514 1389q60 6 109 6q239 0 239 -185q0 -178 -88 -272t-325 -94q-171 0 -220 16q-26 7 -26 41q0 41 20 100q8 31 43 31q6 0 62 -6q61 -8 127 -8q87 0 129 28q41 27 41 99q0 76 -115 76q-13 0 -77 -2q-14 0 -27 -0.5t-19 -1t-8 -0.5q-78 0 -78 73q0 41 21 107l71 258
q15 49 47 49h437q36 0 36 -25q0 -23 -22 -120q-10 -37 -53 -37h-289z" />
    <glyph glyph-name="six.superior" unicode="&#x2076;" 
d="M489 1356q59 49 177 49q223 0 223 -184q0 -200 -103 -295q-83 -82 -280 -82q-148 0 -212 63q-65 63 -65 193q0 123 43 268q44 147 121 229q114 123 330 123q126 0 176 -20q27 -8 27 -39q0 -38 -29 -105q-7 -22 -37 -22q-14 0 -35 4t-30 4q-36 4 -95 4q-102 0 -151 -57
q-37 -42 -60 -133zM442 1090q0 -76 95 -76q85 0 112 49q25 45 25 102q0 74 -92 74q-52 0 -88 -20q-17 -8 -29 -29q-23 -40 -23 -100z" />
    <glyph glyph-name="seven.superior" unicode="&#x2077;" 
d="M653 1522h-346q-41 0 -41 28q0 33 21 117q6 37 45 37h497q101 0 101 -82q0 -60 -56 -152l-339 -571q-24 -43 -66 -43q-88 0 -127 6q-53 8 -53 37q0 20 20 51z" />
    <glyph glyph-name="eight.superior" unicode="&#x2078;" 
d="M733 1303q135 -30 135 -154q0 -157 -93 -231q-94 -74 -298 -74q-305 0 -305 203q0 106 57 175q57 68 162 85q-110 28 -110 149q0 264 352 264q293 0 293 -186q0 -192 -193 -231zM641 1135q0 75 -104 75q-140 0 -140 -125q0 -77 105 -77q76 0 107 31q32 32 32 96z
M707 1489q0 63 -89 63q-122 0 -122 -106q0 -68 90 -68q121 0 121 111z" />
    <glyph glyph-name="nine.superior" unicode="&#x2079;" 
d="M662 1214q-64 -53 -175 -53t-168 51t-57 144q0 180 105 282q88 82 276 82q145 0 210 -64q67 -65 67 -192q0 -124 -39 -273q-39 -147 -117 -230q-111 -119 -336 -119q-129 0 -186 18q-25 11 -25 39q0 36 23 100q12 33 39 33l7 -1q6 -1 21 -3t31 -4q50 -6 102 -6
q116 0 162 55q38 44 60 141zM707 1473q0 77 -95 77q-80 0 -110 -51q-27 -41 -27 -98q0 -76 90 -76q63 0 97 29q16 12 22 26q23 46 23 93z" />
    <glyph glyph-name="parenleft.superior" unicode="&#x207d;" horiz-adv-x="471" 
d="M723 1739q-133 -95 -229 -285q-97 -191 -97 -405q0 -189 99 -312q10 -11 10 -22q0 -14 -21 -35q-14 -14 -32 -14q-23 0 -50 18q-70 44 -128 147q-56 100 -56 248q0 142 47 285q46 138 147 261q99 120 232 177q47 19 62 19q16 0 28 -17q13 -23 13 -32q0 -14 -25 -33z" />
    <glyph glyph-name="parenright.superior" unicode="&#x207e;" horiz-adv-x="471" 
d="M61 748q135 92 230 283q96 192 96 407q0 187 -98 313q-10 10 -10 21q0 14 20 34q18 15 33 15q19 0 49 -19q70 -44 128 -147q56 -100 56 -248q0 -224 -112 -430q-112 -207 -312 -293q-39 -18 -63 -18q-17 0 -29 16q-12 24 -12 33q0 15 24 33z" />
    <glyph glyph-name="n.superior" unicode="&#x207f;" horiz-adv-x="761" 
d="M317 582q-15 -43 -45 -43h-147q-33 0 -33 28q0 14 4 29l99 453q15 60 69 81q142 52 336 52q195 0 195 -121q0 -51 -15 -111l-80 -368q-7 -43 -45 -43h-147q-31 0 -31 28q0 14 4 29l74 334q6 38 6 41q0 35 -57 35q-29 0 -62 -7q-10 -3 -28 -12q-10 -7 -15 -29z" />
    <glyph glyph-name="zero.inferior" unicode="&#x2080;" 
d="M717 369q0 -121 -43 -290q-44 -171 -117 -255q-91 -100 -270 -100q-148 0 -220 54q-73 55 -73 197q0 119 37 267q37 150 104 237q96 121 289 121q149 0 221 -45t72 -186zM487 342q0 48 -18 64q-17 16 -66 16q-66 0 -96 -53q-34 -59 -61 -183q-27 -123 -27 -190
q0 -53 20 -75q19 -21 62 -21q68 0 98 53q32 56 60 194q28 139 28 195z" />
    <glyph glyph-name="one.inferior" unicode="&#x2081;" 
d="M479 -258h-395q-37 0 -37 27q0 26 25 120q6 37 47 37h92l100 451l-104 -33q-18 -6 -33 -6q-17 0 -24 20q-33 94 -33 109q0 23 30 33l181 65q61 21 116 21h13q102 0 102 -78q0 -30 -16 -90l-107 -492h80q37 0 37 -26q0 -33 -23 -125q-10 -33 -51 -33z" />
    <glyph glyph-name="two.inferior" unicode="&#x2082;" 
d="M551 -258h-528q-54 0 -69 18t-15 58q0 77 61 116q136 85 297 203q133 96 133 189q0 98 -121 98q-47 0 -100 -6q-43 -8 -55 -8q-23 0 -29 24q-14 63 -14 98q0 30 39 41q107 29 245 29q275 0 275 -211q0 -166 -135 -280q-78 -66 -275 -189h326q35 0 35 -31q0 -26 -21 -112
q-10 -37 -49 -37z" />
    <glyph glyph-name="three.inferior" unicode="&#x2083;" 
d="M457 186q78 -7 115 -47q36 -39 36 -114q0 -161 -96 -230q-94 -69 -309 -69q-145 0 -211 22q-27 10 -27 39q0 30 27 102q8 29 37 29q15 0 63 -8q53 -8 129 -8q99 0 131 32q25 28 25 82q0 35 -29 50q-25 13 -110 18q-54 5 -54 57q0 47 22 85q21 36 64 36q92 0 123 25
q29 23 29 73q0 35 -24 50q-22 14 -87 14q-71 0 -106 -6q-40 -8 -49 -8q-19 0 -25 24q-18 69 -18 98q0 35 41 43q114 27 241 27q145 0 197 -45q53 -45 53 -129q0 -103 -43 -162t-145 -80z" />
    <glyph glyph-name="four.inferior" unicode="&#x2084;" 
d="M524 -219q-8 -41 -49 -41h-131q-31 0 -31 31q0 24 4 39l25 106h-272q-101 0 -101 78q0 71 54 139l329 418q28 37 68 37q95 0 139 -4q29 -2 29 -25q0 -19 -10 -33l-345 -430h150l25 109q10 45 47 45h131q32 0 32 -29q0 -13 -8 -43l-16 -82h49q37 0 37 -28q0 -14 -27 -121
q-6 -31 -45 -31h-53z" />
    <glyph glyph-name="five.inferior" unicode="&#x2085;" 
d="M285 270q60 6 108 6q242 0 242 -184q0 -178 -88 -272t-326 -94q-160 0 -221 16q-27 8 -27 41q0 28 21 100q12 31 43 31q5 0 61 -6q61 -8 127 -8q91 0 131 27q41 27 41 100q0 75 -116 75q-13 0 -77 -2q-14 0 -27 -0.5t-19 -1t-8 -0.5q-78 0 -78 74q0 39 20 102l72 263
q15 49 51 49h434q35 0 35 -25q0 -24 -22 -121q-10 -37 -52 -37h-291z" />
    <glyph glyph-name="six.inferior" unicode="&#x2086;" 
d="M283 238q59 49 176 49q223 0 223 -185q0 -200 -102 -295q-82 -81 -281 -81q-147 0 -212 63q-64 63 -64 193q0 123 43 268q44 149 120 229q114 123 330 123q126 0 176 -20q27 -7 27 -39q0 -38 -29 -105q-7 -22 -37 -22q-14 0 -35 4t-30 4q-36 4 -94 4q-102 0 -152 -57
q-35 -40 -59 -133zM236 -29q0 -75 94 -75q85 0 112 49q25 45 25 102q0 74 -92 74q-51 0 -88 -21q-18 -8 -29 -28q-22 -38 -22 -101z" />
    <glyph glyph-name="seven.inferior" unicode="&#x2087;" 
d="M424 403h-346q-41 0 -41 29q0 21 20 117q6 37 47 37h496q100 0 100 -82q0 -63 -53 -152l-340 -571q-24 -43 -65 -43q-86 0 -129 6q-52 8 -52 39q0 19 19 49z" />
    <glyph glyph-name="eight.inferior" unicode="&#x2088;" 
d="M528 184q136 -30 136 -153q0 -158 -94 -232q-92 -73 -298 -73q-305 0 -305 202q0 105 58 175q57 69 161 85q-110 28 -110 150q0 264 352 264q293 0 293 -186q0 -193 -193 -232zM436 16q0 76 -104 76q-139 0 -139 -125q0 -78 104 -78q75 0 107 32t32 95zM502 371
q0 63 -88 63q-123 0 -123 -106q0 -68 90 -68q121 0 121 111z" />
    <glyph glyph-name="nine.inferior" unicode="&#x2089;" 
d="M436 96q-64 -53 -174 -53q-111 0 -168 51t-57 144q0 181 104 282q88 82 277 82q145 0 210 -64q66 -64 66 -192q0 -124 -39 -273q-39 -150 -116 -231q-111 -118 -336 -118q-127 0 -187 18q-24 10 -24 39q0 38 22 100q12 33 39 33l7 -1q6 -1 21.5 -3t31.5 -4q49 -6 102 -6
q116 0 162 55q37 42 59 141zM481 354q0 78 -94 78q-81 0 -111 -51q-26 -39 -26 -98q0 -76 90 -76q62 0 96 29q18 13 23 26q22 44 22 92z" />
    <glyph glyph-name="parenleft.inferior" unicode="&#x208d;" horiz-adv-x="471" 
d="M498 621q-134 -97 -230 -285q-96 -189 -96 -406q0 -189 98 -311q11 -13 11 -22q0 -14 -21 -35q-15 -15 -33 -15q-21 0 -49 19q-70 44 -128 147q-56 100 -56 248q0 142 47 285q46 140 146 261q99 120 233 177q45 18 61 18q17 0 29 -16q12 -21 12 -33q0 -14 -24 -32z" />
    <glyph glyph-name="parenright.inferior" unicode="&#x208e;" horiz-adv-x="471" 
d="M-164 -371q134 92 230 284t96 406q0 187 -99 314q-10 10 -10 20q0 14 21 35q17 14 32 14q22 0 50 -18q70 -44 128 -147q56 -100 56 -248q0 -222 -113 -430q-113 -207 -311 -293q-43 -19 -63 -19q-17 0 -29 17q-12 24 -12 33q0 14 24 32z" />
    <glyph glyph-name="Euro" unicode="&#x20ac;" horiz-adv-x="1353" 
d="M1049 477h-357q0 -118 58 -171q56 -52 172 -52q114 0 186 12q27 4 29 4q7 1 17 2.5t12 1.5q16 2 18 2q39 0 45 -34q26 -91 26 -160q0 -47 -53 -64q-146 -45 -375 -45q-215 0 -338 124q-122 123 -122 366v14h-129q-43 0 -43 35q0 24 12 74q11 45 55 45h115q17 105 22 129
h-108q-43 0 -43 35q0 20 14 73q10 45 53 45h131q55 150 142 269q169 227 538 227q158 0 250 -23q49 -10 49 -57q0 -43 -41 -172q-12 -35 -45 -35q-10 0 -37 4t-40 4q-81 9 -144 9q-192 0 -276 -135q-24 -35 -49 -91h340q38 0 38 -32q0 -18 -12 -80q-11 -41 -55 -41h-367
q-24 -84 -30 -129h370q41 0 41 -35q0 -27 -14 -80q-8 -39 -55 -39z" />
    <glyph glyph-name="afii61289" unicode="&#x2113;" horiz-adv-x="1032" 
d="M504 442q-6 -33 -6 -65q0 -86 48 -119t136 -33q61 0 135 23q36 14 62 14q45 0 57 -43q29 -92 29 -110q0 -49 -68 -76q-153 -60 -307 -60q-308 0 -361 232q-7 33 -12 78q-64 -35 -67 -37q-33 -15 -54 -15q-22 0 -38 14q-14 13 -31 60q-19 52 -19 68q0 39 62 69q6 3 21 11
t25 13t27.5 14.5t25.5 13.5q30 15 42 22q7 132 29 223q52 267 125 402q71 132 177 200t271 68q153 0 225 -78t72 -192q0 -140 -57 -242q-58 -103 -176 -205q-28 -25 -90 -69t-77 -54q-7 -5 -22 -14l-40 -24t-47 -29q-21 -13 -45.5 -28.5t-36 -22.5t-15.5 -9zM524 709
q92 62 219 176q111 105 111 202q0 89 -88 89q-77 0 -127 -74q-54 -83 -92 -258q-12 -50 -23 -135z" />
    <glyph glyph-name="trademark" unicode="&#x2122;" horiz-adv-x="1675" 
d="M535 793q-11 -50 -48 -50h-100q-39 0 -39 33q0 5 6 35l103 473h-150q-35 0 -35 27q0 20 19 96q7 39 47 39h471q39 0 39 -33q0 -23 -19 -96q-6 -33 -45 -33h-145zM1020 784q-8 -41 -45 -41h-98q-35 0 -35 29q0 14 4 35l110 514q15 63 44 93q30 32 90 32h73q40 0 59 -19
q17 -17 23 -59q35 -228 39 -258q22 42 139 248q51 88 138 88h59q84 0 84 -74q0 -23 -10 -67l-111 -517q-7 -45 -47 -45h-104q-33 0 -33 29q0 17 8 47q91 407 104 459q-48 -100 -182 -340q-24 -47 -76 -47h-28q-53 0 -60 49q-32 220 -43 338z" />
    <glyph glyph-name="Omega" unicode="&#x2126;" horiz-adv-x="1546" 
d="M639 72q-8 -41 -31 -57q-22 -15 -67 -15h-410q-38 0 -54 8t-16 33q0 31 29 170q10 42 26 55t54 13h279q-133 53 -204 141q-71 89 -71 239q0 159 54 315q53 155 163 261q190 176 543 176q292 0 417 -104q126 -105 126 -318q0 -323 -156 -514q-101 -128 -297 -196h289
q36 0 52 -11q15 -10 15 -37q0 -40 -28 -159q-10 -45 -23 -59q-12 -13 -55 -13h-430q-82 0 -82 55q0 48 41 242q17 80 84 113q103 50 155 157q76 149 76 348q0 123 -56 169t-175 46q-167 0 -246 -96q-59 -70 -89 -187q-30 -115 -30 -220q0 -155 111 -221q49 -27 49 -87
q0 -38 -43 -247z" />
    <glyph glyph-name="estimated" unicode="&#x212e;" horiz-adv-x="1730" 
d="M1702 688h-1262q-12 0 -12 -8v-399q0 -21 21 -45q195 -218 477 -218q301 0 499 242h117q-113 -133 -272 -208q-163 -77 -346 -77q-323 0 -552 215t-229 519q0 302 229 517q227 214 552 214q324 0 551 -214t227 -517v-21zM1419 741v400q0 27 -22 49q-201 207 -471 207
q-134 0 -261 -58q-124 -57 -214 -157q-23 -23 -23 -49v-392q0 -10 12 -10h967q12 0 12 10z" />
    <glyph glyph-name="onethird" unicode="&#x2153;" horiz-adv-x="1804" 
d="M1499 444q80 -8 116 -47t36 -114q0 -162 -97 -230q-94 -69 -309 -69q-144 0 -209 22q-26 10 -26 39t24 102q12 29 39 29q9 0 26 -4t25 -4q59 -8 140 -8q98 0 131 33q26 27 26 81q0 36 -29 51q-31 16 -112 17q-51 0 -51 57q0 51 20 85q21 36 66 36q90 0 121 25
q28 21 28 73q0 36 -23 50q-22 14 -87 14q-52 0 -99 -6q-49 -6 -61 -6q-18 0 -23 24q-10 74 -10 99q0 35 41 43q123 24 238 24q144 0 196 -45q54 -46 54 -129q0 -103 -43 -162t-148 -80zM614 541h-397q-37 0 -37 26q0 23 25 121q10 37 49 37h92l100 451l-104 -33
q-18 -6 -35 -6q-15 0 -22 20q-33 95 -33 109q0 21 31 32l180 66q59 20 117 20h12q100 0 100 -77q0 -27 -14 -90l-109 -492h82q37 0 37 -27q0 -26 -24 -125q-6 -32 -50 -32zM514 -29q-22 -39 -57 -39q-9 0 -64 5q-26 1 -26 22q0 15 18 43l918 1409q29 45 65 45q41 0 66 -4
q22 -1 22 -22q0 -19 -22 -48z" />
    <glyph glyph-name="twothirds" unicode="&#x2154;" horiz-adv-x="1804" 
d="M600 -29q-22 -39 -57 -39q-9 0 -64 5q-26 1 -26 22q0 15 18 43l918 1409q29 45 65 45q41 0 66 -4q22 -1 22 -22q0 -19 -22 -48zM717 541h-529q-52 0 -69 18q-17 19 -17 57q0 73 64 117q287 194 299 203q131 96 131 188q0 99 -121 99q-49 0 -98 -6q-49 -9 -60 -9
q-20 0 -26 25q-15 69 -15 98q0 30 41 41q107 29 244 29q275 0 275 -211q0 -161 -136 -279q-89 -76 -274 -190h326q34 0 34 -31q0 -18 -20 -112q-10 -37 -49 -37zM1559 444q78 -7 115 -47q36 -39 36 -114q0 -163 -96 -230q-94 -69 -309 -69q-144 0 -209 22q-27 10 -27 39
q0 25 25 102q12 29 39 29q8 0 25 -4t26 -4q59 -8 139 -8q98 0 131 33q27 29 27 81q0 36 -30 51q-31 16 -112 17q-51 0 -51 57q0 49 21 85t65 36q90 0 121 25q29 21 29 73q0 35 -24 50q-22 14 -87 14q-53 0 -98 -6q-50 -6 -62 -6q-21 0 -22 24q-10 74 -10 99q0 35 41 43
q123 24 237 24q145 0 197 -45q53 -45 53 -129q0 -103 -43 -162t-147 -80z" />
    <glyph glyph-name="oneeighth" unicode="&#x215b;" horiz-adv-x="1804" 
d="M1528 442q135 -30 135 -153q0 -159 -93 -232q-92 -73 -298 -73q-305 0 -305 202q0 106 57 175q57 68 162 85q-111 28 -111 150q0 264 352 264q293 0 293 -186q0 -193 -192 -232zM594 541h-397q-37 0 -37 26q0 27 24 121q10 37 49 37h93l100 451l-104 -33q-18 -6 -35 -6
q-16 0 -23 20q-33 95 -33 109q0 21 31 32l180 66q59 20 117 20h12q101 0 101 -77q0 -23 -15 -90l-108 -492h82q37 0 37 -27q0 -22 -25 -125q-6 -32 -49 -32zM483 -29q-23 -39 -57 -39q-9 0 -64 5q-26 1 -26 22q0 15 18 43l918 1409q29 45 65 45q41 0 66 -4q22 -1 22 -22
q0 -19 -22 -48zM1436 274q0 76 -105 76q-139 0 -139 -125q0 -78 104 -78q76 0 108 32t32 95zM1501 629q0 63 -88 63q-123 0 -123 -106q0 -68 90 -68q121 0 121 111z" />
    <glyph glyph-name="threeeighths" unicode="&#x215c;" horiz-adv-x="1804" 
d="M543 -29q-23 -39 -58 -39q-8 0 -63 5q-27 1 -27 22q0 13 19 43l917 1409q29 45 66 45q40 0 65 -4q23 -2 23 -22q0 -17 -23 -48zM623 985q80 -7 117 -47q36 -39 36 -115q0 -160 -96 -229q-96 -70 -309 -70q-144 0 -211 23q-27 11 -27 39q0 26 27 102q12 29 39 29
q12 0 47 -8q56 -9 143 -9q98 0 131 33q27 29 27 82q0 35 -31 50q-33 17 -113 18q-51 0 -51 57q0 49 21 85t65 36q93 0 123 24q27 21 27 74q0 34 -23 49t-86 15q-59 0 -108 -6q-9 0 -29 -5q-16 -4 -23 -4q-19 0 -24 25q-12 72 -12 100q0 35 41 43q106 25 239 25
q145 0 197 -45q53 -45 53 -129q0 -103 -43 -162t-147 -80zM1571 442q135 -30 135 -153q0 -159 -93 -232q-92 -73 -298 -73q-305 0 -305 202q0 106 57 175q57 68 162 85q-111 28 -111 150q0 264 352 264q293 0 293 -186q0 -193 -192 -232zM1479 274q0 76 -105 76
q-139 0 -139 -125q0 -78 104 -78q76 0 108 32t32 95zM1544 629q0 63 -88 63q-123 0 -123 -106q0 -68 90 -68q121 0 121 111z" />
    <glyph glyph-name="fiveeighths" unicode="&#x215d;" horiz-adv-x="1804" 
d="M561 -29q-23 -39 -57 -39q-9 0 -64 5q-26 1 -26 22q0 15 18 43l918 1409q29 45 65 45q41 0 66 -4q22 -1 22 -22q0 -19 -22 -48zM467 1069q57 6 111 6q237 0 237 -184q0 -182 -88 -274q-89 -93 -324 -93q-158 0 -223 17q-26 7 -26 41q0 41 22 100q12 31 43 31q7 0 62 -6
q68 -9 127 -9q89 0 131 28q41 27 41 99q0 76 -117 76q-13 0 -77 -2q-14 0 -27 -0.5t-19 -1t-8 -0.5q-78 0 -78 74q0 29 18 102l72 262q15 49 51 49h436q35 0 35 -24q0 -27 -22 -121q-6 -37 -51 -37h-291zM1579 442q135 -30 135 -153q0 -159 -93 -232q-92 -73 -298 -73
q-305 0 -305 202q0 106 57 175q57 68 162 85q-111 28 -111 150q0 264 353 264q293 0 293 -186q0 -193 -193 -232zM1487 274q0 76 -105 76q-139 0 -139 -125q0 -78 105 -78q75 0 107 32t32 95zM1552 629q0 63 -88 63q-123 0 -123 -106q0 -68 91 -68q120 0 120 111z" />
    <glyph glyph-name="seveneighths" unicode="&#x215e;" horiz-adv-x="1804" 
d="M444 -29q-22 -39 -57 -39q-8 0 -63 5q-27 1 -27 22q0 15 18 43l918 1409q29 45 65 45q41 0 66 -4q22 -1 22 -22q0 -19 -22 -48zM608 1202h-346q-41 0 -41 31t21 115q7 36 51 36h491q101 0 101 -81q0 -61 -54 -152l-339 -571q-24 -43 -68 -43q-50 0 -129 6q-49 6 -49 39
q0 20 18 49zM1477 442q135 -30 135 -153q0 -159 -93 -232q-92 -73 -298 -73q-306 0 -306 202q0 105 58 175q57 68 162 85q-111 28 -111 150q0 264 352 264q293 0 293 -186q0 -193 -192 -232zM1384 274q0 76 -104 76q-139 0 -139 -125q0 -78 104 -78q76 0 108 32q31 31 31 95
zM1450 629q0 63 -88 63q-123 0 -123 -106q0 -68 90 -68q121 0 121 111z" />
    </font>
</defs>
</svg>
