<?xml version="1.0" standalone="no"?>
<!DOCTYPE svg PUBLIC "-//W3C//DTD SVG 1.1//EN" "http://www.w3.org/Graphics/SVG/1.1/DTD/svg11.dtd" >
<svg xmlns="http://www.w3.org/2000/svg" xmlns:xlink="http://www.w3.org/1999/xlink" version="1.1">
<metadata>
Created by FontForge 20170731 at Sun Apr 18 19:44:27 2021
 By Aleksey,,,
Copyright (c) 2015 by Dieter Hofrichter. All rights reserved.
</metadata>
<defs>
<font id="Carnas-Medium" horiz-adv-x="796" >
  <font-face 
    font-family="Carnas-Medium"
    font-weight="400"
    font-stretch="normal"
    units-per-em="2048"
    panose-1="2 0 6 3 0 0 0 2 0 4"
    ascent="1561"
    descent="-487"
    x-height="1024"
    cap-height="1450"
    bbox="-322 -578 2466 2023"
    underline-thickness="102"
    underline-position="-204"
    unicode-range="U+0020-FB04"
  />
<missing-glyph horiz-adv-x="1026" 
d="M0 0v1448h1026v-1448h-1026zM514 817l348 526h-698zM573 725l353 -526v1052zM164 102h698l-348 529zM102 1251v-1052l351 526z" />
    <glyph glyph-name="f_f" unicode="ff" horiz-adv-x="1378" 
d="M438 45q0 -49 -47 -49h-135q-45 0 -45 55v780h-113q-51 0 -51 52v90q0 51 51 51h113v78q0 206 90 291q112 109 389 114q62 0 68 -43q2 -36 2 -98q0 -47 -49 -51q-114 -8 -168 -26q-55 -19 -78 -58q-27 -43 -27 -137v-70h459v113q0 213 88 297q112 109 387 114
q67 0 68 -43q6 -73 6 -98q0 -47 -49 -51q-119 -11 -170 -27q-52 -17 -76 -57q-29 -47 -29 -148v-100h207q49 0 49 -49v-96q0 -48 -51 -48h-205v-786q0 -49 -45 -49h-135q-45 0 -45 55v780h-459v-786z" />
    <glyph glyph-name="fi" unicode="fi" horiz-adv-x="1224" 
d="M438 45q0 -49 -47 -49h-135q-45 0 -45 55v780h-113q-51 0 -51 52v90q0 51 51 51h113v113q0 211 90 297q112 109 363 114q61 0 67 -43q4 -51 4 -98t-49 -51q-91 -6 -144 -25q-50 -18 -77 -59q-27 -44 -27 -148v-100h586q47 0 47 -53v-922q0 -53 -47 -53h-133q-47 0 -47 53
v782h-406v-786zM1087 1350q0 -136 -131 -136q-127 0 -127 134q0 137 127 137q62 0 98 -31q33 -29 33 -104z" />
    <glyph glyph-name="fl" unicode="fl" horiz-adv-x="1267" 
d="M438 45q0 -49 -47 -49h-135q-45 0 -45 55v780h-113q-51 0 -51 52v90q0 51 51 51h113v94q0 212 111 303q69 58 172 86q107 29 317 29q127 0 195 -12q32 -4 46 -17q13 -12 13 -45v-1114q0 -86 22 -123q24 -40 113 -57q41 -6 41 -47q0 -49 -10 -92q-7 -39 -57 -39
q-222 0 -295 116q-41 67 -41 213v1016q-44 4 -101 4q-192 0 -252 -69q-47 -56 -47 -164v-82h205q49 0 49 -49v-96q0 -48 -51 -48h-203v-786z" />
    <glyph glyph-name="f_f_i" unicode="ffi" horiz-adv-x="1910" 
d="M438 45q0 -49 -47 -49h-135q-45 0 -45 55v780h-113q-51 0 -51 52v90q0 51 51 51h113v78q0 206 90 291q112 109 389 114q62 0 68 -43q2 -36 2 -98q0 -47 -49 -51q-114 -8 -168 -26q-55 -19 -78 -58q-27 -43 -27 -137v-70h459v113q0 213 88 297q109 109 367 114
q61 0 67 -43q4 -24 4 -98q0 -47 -51 -51q-96 -7 -146 -26q-48 -18 -75 -58q-29 -41 -29 -148v-100h588q47 0 47 -53v-922q0 -53 -49 -53h-133q-45 0 -45 53v782h-408v-786q0 -49 -45 -49h-135q-45 0 -45 55v780h-459v-786zM1772 1350q0 -136 -130 -136q-129 0 -129 134
q0 137 129 137q130 0 130 -135z" />
    <glyph glyph-name="f_f_l" unicode="ffl" horiz-adv-x="1953" 
d="M438 45q0 -49 -47 -49h-135q-45 0 -45 55v780h-113q-51 0 -51 52v90q0 51 51 51h113v78q0 206 90 291q112 109 387 114q67 0 68 -43q4 -47 4 -98q0 -47 -49 -51q-114 -8 -168 -26q-55 -19 -78 -58q-27 -43 -27 -137v-70h459v94q0 212 109 303q68 60 172 87q109 28 319 28
q120 0 193 -10q32 -4 47 -18q14 -13 14 -44v-1116q0 -85 23 -123q24 -41 112 -57q41 -6 41 -47q0 -52 -8 -92q-7 -39 -59 -39q-222 0 -295 116q-41 67 -41 213v1016q-44 4 -103 4q-190 0 -250 -69q-49 -52 -49 -164v-82h207q49 0 49 -49v-96q0 -48 -51 -48h-205v-786
q0 -49 -45 -49h-135q-45 0 -45 55v780h-459v-786z" />
    <glyph glyph-name="T_h" unicode="Th" horiz-adv-x="2340" 
d="M729 51q0 -55 -51 -55h-135q-51 0 -51 55v1186h-375q-51 0 -51 43v117q0 49 51 49h1186v35q0 55 51 55h127q29 0 38 -13q9 -14 9 -46v-502q51 34 155 55q102 21 201 21q132 0 198 -32q65 -32 87 -97q20 -57 20 -201v-672q0 -53 -47 -53h-133q-47 0 -47 53v625
q0 83 -10 112q-27 68 -154 68q-136 0 -215 -35q-35 -17 -41 -31q-14 -17 -14 -63v-676q0 -53 -47 -53h-131q-47 0 -47 53v1188h-574v-1186z" />
    <glyph glyph-name="Tcaron_h" unicode="&#x164;h" horiz-adv-x="2336" 
d="M729 51q0 -55 -51 -55h-135q-51 0 -51 55v1186h-375q-51 0 -51 43v117q0 49 51 49h1186v35q0 55 51 55h127q29 0 38 -13q9 -14 9 -46v-502q51 34 155 55q102 21 201 21q132 0 198 -32q65 -32 87 -97q20 -57 20 -201v-672q0 -53 -47 -53h-133q-47 0 -47 53v625
q0 83 -10 112q-27 68 -154 68q-136 0 -215 -35q-35 -17 -41 -31q-14 -17 -14 -63v-676q0 -53 -47 -53h-131q-47 0 -47 53v1188h-574v-1186zM842 1896q44 0 78 -6q41 -8 41 -39q0 -13 -23 -41l-201 -202q-45 -49 -94 -49h-86q-44 0 -84 40l-209 216q-16 16 -16 38q0 29 41 37
q38 6 82 6q40 0 86 -41l149 -131l152 136q42 36 84 36z" />
    <glyph glyph-name="f_b" unicode="fb" horiz-adv-x="1855" 
d="M438 45q0 -49 -47 -49h-135q-45 0 -45 55v780h-113q-51 0 -51 52v90q0 51 51 51h113v94q0 212 111 303q69 58 172 86q107 29 317 29q122 0 195 -10q30 -4 45 -18q14 -13 14 -44v-495q113 82 336 82q184 0 270 -122t86 -401q0 -166 -31 -279q-30 -110 -98 -170
q-69 -61 -155 -83q-90 -23 -222 -23q-197 0 -329 43q-53 22 -70 58q-14 25 -14 82v1179q-44 4 -101 4q-192 0 -252 -69q-47 -56 -47 -164v-82h205q49 0 49 -49v-96q0 -48 -51 -48h-203v-786zM1065 256q0 -38 12 -53q13 -19 43 -25q52 -14 135 -14q169 0 222 73t53 275
q0 191 -40 265q-40 75 -169 75q-156 0 -223 -43q-22 -12 -27 -27q-6 -18 -6 -43v-483z" />
    <glyph glyph-name="f_f_b" unicode="ffb" horiz-adv-x="2539" 
d="M438 45q0 -49 -47 -49h-135q-45 0 -45 55v780h-113q-51 0 -51 52v90q0 51 51 51h113v78q0 206 90 291q112 109 385 114q62 0 68 -43q6 -61 6 -98q0 -47 -49 -51q-114 -8 -168 -26q-55 -19 -78 -58q-27 -43 -27 -137v-70h459v94q0 212 109 303q68 60 172 87q109 28 319 28
q120 0 193 -10q32 -4 47 -18q14 -13 14 -44v-495q113 82 334 82q187 0 272 -123q86 -124 86 -400q0 -170 -30 -279q-30 -108 -99 -170q-69 -61 -155 -83q-90 -23 -222 -23q-201 0 -329 43q-53 22 -70 58q-14 25 -14 82v1179q-47 4 -103 4q-190 0 -250 -69q-49 -52 -49 -164
v-82h207q49 0 49 -49v-96q0 -48 -51 -48h-205v-786q0 -49 -45 -49h-135q-45 0 -45 55v780h-459v-786zM1751 256q0 -38 12 -53q13 -19 43 -25q48 -14 133 -14q171 0 223 72q52 71 52 276q0 190 -39 265t-170 75q-159 0 -221 -43q-22 -12 -27 -27q-6 -18 -6 -43v-483z" />
    <glyph glyph-name="f_f_h" unicode="ffh" horiz-adv-x="2564" 
d="M438 45q0 -49 -47 -49h-135q-45 0 -45 55v780h-113q-51 0 -51 52v90q0 51 51 51h113v78q0 206 90 291q112 109 389 114q62 0 68 -43q2 -36 2 -98q0 -47 -49 -51q-116 -10 -169 -27t-77 -57q-27 -43 -27 -137v-70h459v94q0 212 109 303q68 60 172 87q109 28 319 28
q120 0 193 -10q32 -4 47 -18q14 -13 14 -44v-489q50 34 157 55q105 21 191 21q134 0 201 -32q66 -31 90 -95q20 -49 20 -201v-674q0 -53 -45 -53h-135q-45 0 -45 53v625q0 71 -14 112q-23 68 -152 68q-125 0 -215 -35q-24 -11 -41 -31q-12 -18 -12 -63v-676q0 -53 -49 -53
h-133q-45 0 -45 53v1286q-44 4 -103 4q-190 0 -250 -69q-49 -52 -49 -164v-82h207q49 0 49 -49v-96q0 -48 -51 -48h-205v-786q0 -49 -45 -49h-135q-45 0 -45 55v780h-459v-786z" />
    <glyph glyph-name="f_f_j" unicode="ffj" horiz-adv-x="1908" 
d="M438 45q0 -49 -47 -49h-135q-45 0 -45 55v780h-113q-51 0 -51 52v90q0 51 51 51h113v78q0 206 90 291q112 109 389 114q62 0 68 -43q2 -36 2 -98q0 -46 -51 -51q-117 -11 -168 -27q-52 -17 -76 -57q-27 -43 -27 -137v-70h459v113q0 213 88 297q109 109 367 114
q61 0 67 -43q2 -36 2 -98q0 -49 -45 -51q-99 -10 -149 -27q-49 -16 -76 -55q-29 -41 -29 -150v-100h588q47 0 47 -53v-1028q0 -209 -80 -295q-49 -55 -144 -91t-202 -36q-47 0 -57 43q-8 56 -8 88q0 52 51 59q111 17 162 60q51 39 51 170v890h-408v-786q0 -49 -45 -49h-135
q-45 0 -45 55v780h-459v-786zM1772 1350q0 -136 -130 -136q-129 0 -129 134q0 137 129 137q130 0 130 -135z" />
    <glyph glyph-name="f_f_k" unicode="ffk" horiz-adv-x="2471" 
d="M438 45q0 -49 -47 -49h-135q-45 0 -45 55v780h-113q-51 0 -51 52v90q0 51 51 51h113v78q0 206 90 291q112 109 385 114q61 0 68 -43q6 -39 6 -98q0 -47 -49 -51q-117 -12 -171 -28q-51 -15 -75 -56q-27 -43 -27 -137v-70h459v94q0 212 109 303q68 60 172 87
q109 28 319 28q120 0 193 -10q32 -4 47 -18q14 -13 14 -44v-800h107q62 0 92 41l213 286q29 39 67 39q101 0 144 -8q28 -6 28 -31q0 -22 -20 -49l-281 -360l336 -490q25 -39 25 -57q0 -25 -31 -33q-18 -8 -156 -8q-35 0 -63 39l-279 399q-24 37 -82 37h-100v-420
q0 -53 -49 -53h-133q-45 0 -45 53v1284q-40 6 -103 6q-190 0 -250 -69q-49 -52 -49 -164v-82h207q49 0 49 -49v-96q0 -48 -51 -48h-205v-786q0 -49 -45 -49h-135q-45 0 -45 55v780h-459v-786z" />
    <glyph glyph-name="f_h" unicode="fh" horiz-adv-x="1878" 
d="M438 45q0 -49 -47 -49h-135q-45 0 -45 55v780h-113q-51 0 -51 52v90q0 51 51 51h113v94q0 212 111 303q69 58 172 86q107 29 317 29q124 0 193 -10q32 -4 47 -18q14 -13 14 -44v-489q50 34 157 55q105 21 191 21q136 0 203 -32q66 -31 90 -95q20 -54 20 -201v-674
q0 -53 -47 -53h-135q-45 0 -45 53v625q0 83 -10 112q-27 68 -156 68q-131 0 -215 -35q-30 -16 -41 -31q-12 -18 -12 -63v-676q0 -53 -47 -53h-133q-47 0 -47 53v1286q-36 4 -101 4q-192 0 -252 -69q-47 -56 -47 -164v-82h205q49 0 49 -49v-96q0 -48 -51 -48h-203v-786z" />
    <glyph glyph-name="f_j" unicode="fj" horiz-adv-x="1222" 
d="M438 45q0 -49 -47 -49h-135q-45 0 -45 55v780h-113q-51 0 -51 52v90q0 51 51 51h113v113q0 211 90 297q112 109 365 114q66 0 67 -43q2 -36 2 -98q0 -47 -49 -51q-95 -7 -147 -26q-51 -19 -74 -56q-27 -44 -27 -150v-100h586q47 0 47 -53v-1028q0 -209 -80 -295
q-49 -55 -144 -91t-200 -36q-47 0 -57 43q-8 56 -8 88q0 52 49 59q111 17 162 60q51 39 51 170v890h-406v-786zM1087 1350q0 -136 -131 -136q-127 0 -127 134q0 137 127 137q62 0 98 -31q33 -29 33 -104z" />
    <glyph glyph-name="f_k" unicode="fk" horiz-adv-x="1785" 
d="M438 45q0 -49 -47 -49h-135q-45 0 -45 55v780h-113q-51 0 -51 52v90q0 51 51 51h113v94q0 212 111 303q69 58 172 86q107 29 317 29q124 0 193 -10q61 -10 61 -66v-796h109q61 0 90 41l215 286q30 39 67 39q113 0 142 -8q28 -6 28 -31q0 -26 -20 -49l-279 -362
q111 -153 334 -488q23 -35 23 -57q0 -29 -29 -35q-18 -6 -154 -6q-37 0 -65 39l-279 399q-27 37 -80 37h-102v-420q0 -53 -47 -53h-133q-47 0 -47 53v1286q-47 4 -103 4q-190 0 -250 -69q-47 -56 -47 -164v-82h205q49 0 49 -49v-96q0 -48 -51 -48h-203v-786z" />
    <glyph glyph-name="uni0162_h" unicode="&#x162;h" horiz-adv-x="2336" 
d="M657 -113q65 -2 105 -18q41 -17 59 -49q19 -35 25 -64q6 -30 6 -75q0 -218 -289 -218q-57 0 -106 11q-43 7 -43 47q0 32 6 59q11 41 53 41q9 0 53 -6q28 -2 49 -2q87 0 87 68q0 37 -19 53q-17 14 -65 14h-35q-43 0 -43 39q0 37 8 74l29 135q-45 4 -45 55v1186h-375
q-51 0 -51 43v117q0 49 51 49h1186v35q0 55 51 55h127q29 0 38 -13q9 -14 9 -46v-502q51 34 155 55q102 21 201 21q132 0 198 -32q65 -32 87 -97q20 -57 20 -201v-672q0 -53 -47 -53h-133q-47 0 -47 53v625q0 83 -10 112q-27 68 -154 68q-136 0 -215 -35q-35 -17 -41 -31
q-14 -17 -14 -63v-676q0 -53 -47 -53h-131q-47 0 -47 53v1188h-574v-1186q0 -55 -51 -55z" />
    <glyph glyph-name="uni021A_h" unicode="&#x21a;h" horiz-adv-x="2336" 
d="M729 51q0 -55 -51 -55h-135q-51 0 -51 55v1186h-375q-51 0 -51 43v117q0 49 51 49h1186v35q0 55 51 55h127q29 0 38 -13q9 -14 9 -46v-502q51 34 155 55q102 21 201 21q132 0 198 -32q65 -32 87 -97q20 -57 20 -201v-672q0 -53 -47 -53h-133q-47 0 -47 53v625
q0 83 -10 112q-27 68 -154 68q-136 0 -215 -35q-35 -17 -41 -31q-14 -17 -14 -63v-676q0 -53 -47 -53h-131q-47 0 -47 53v1188h-574v-1186zM590 -115h59q62 0 62 -69q0 -214 -127 -357q-33 -37 -62 -37q-24 0 -53 17q-31 22 -31 45q0 18 15 47q61 102 63 283q0 71 74 71z
" />
    <glyph glyph-name=".notdef" horiz-adv-x="1026" 
d="M0 0v1448h1026v-1448h-1026zM514 817l348 526h-698zM573 725l353 -526v1052zM164 102h698l-348 529zM102 1251v-1052l351 526z" />
    <glyph glyph-name=".null" horiz-adv-x="0" 
 />
    <glyph glyph-name="nonmarkingreturn" horiz-adv-x="681" 
 />
    <glyph glyph-name="space" unicode=" " horiz-adv-x="454" 
 />
    <glyph glyph-name="exclam" unicode="!" horiz-adv-x="604" 
d="M440 535q-2 -60 -67 -60h-64q-69 0 -71 66q-23 785 -23 823q0 82 66 82h118q66 0 66 -76q0 -30 -25 -835zM485 133q0 -156 -153 -156q-150 0 -150 156q0 82 42 121t110 39q151 0 151 -160z" />
    <glyph glyph-name="quotedbl" unicode="&#x22;" horiz-adv-x="776" 
d="M287 942q-1 -36 -17 -50q-14 -13 -45 -13h-28q-33 0 -47 13q-16 14 -17 54q-22 280 -22 434q0 86 73 86h56q71 0 71 -75q0 -128 -24 -449zM641 942q-1 -37 -16 -50q-14 -13 -45 -13h-29q-34 0 -48 14q-17 17 -18 53q-20 273 -20 434q0 86 76 86h53q35 0 52 -16
q18 -16 18 -59q0 -145 -23 -449z" />
    <glyph glyph-name="numbersign" unicode="#" horiz-adv-x="1220" 
d="M360 14q-6 -47 -51 -47q-47 0 -63 10q-17 11 -17 33q0 20 4 49l50 342h-154q-47 0 -47 48v106q0 45 49 45h182l29 203h-166q-45 0 -45 45v106q0 45 47 45h193l55 365q7 51 53 51q51 0 66 -7q16 -7 16 -30q0 -24 -4 -49l-49 -330h287l55 365q8 51 51 51q55 0 69 -7
q15 -8 15 -30q0 -6 -6 -49l-49 -330h157q50 0 50 -47v-106q0 -28 -12 -35q-13 -8 -35 -8h-191l-29 -203h168q49 0 49 -47v-109q0 -43 -47 -43h-200l-58 -387q-5 -28 -14 -37q-10 -10 -35 -10q-52 0 -66 10q-16 11 -16 33l6 49l50 342h-289zM477 803l-28 -203h288l29 203
h-289z" />
    <glyph glyph-name="dollar" unicode="$" horiz-adv-x="1142" 
d="M672 -166q0 -47 -39 -47h-88q-41 0 -41 47v154q-212 5 -355 61q-40 18 -40 53q0 29 24 95q17 45 53 45q11 0 62 -17q134 -45 303 -45q80 0 136 17q55 17 78 46q25 31 32 59q8 32 8 69q0 81 -39 124q-39 44 -166 72l-168 37q-297 69 -297 379q0 351 369 395v162
q0 47 43 47h86q39 0 39 -47v-158q178 -4 280 -39q41 -15 41 -55q0 -30 -24 -98q-12 -39 -41 -39q-25 0 -64 10q-130 29 -266 29q-132 0 -182 -47q-49 -46 -49 -139q0 -75 34 -119q35 -45 150 -74l166 -41q180 -51 249 -129q68 -77 68 -244q0 -350 -362 -401v-162z" />
    <glyph glyph-name="percent" unicode="%" horiz-adv-x="1765" 
d="M721 971q0 -260 -73 -354q-72 -93 -255 -93q-172 0 -246 92q-73 91 -73 347q0 255 84 346q84 92 245 92q121 0 185 -32q63 -32 98 -125q35 -94 35 -273zM555 967q0 180 -32 238q-32 57 -124 57q-85 0 -123 -62q-36 -59 -36 -237q0 -187 34 -245q35 -59 121 -59
q90 0 125 59t35 249zM596 -31q-18 -35 -49 -35q-37 0 -49 5q-17 6 -17 20q0 17 15 45l678 1407q23 47 55 47q26 0 45 -4q22 -1 22 -22q0 -14 -18 -52zM1694 430q0 -257 -74 -352q-73 -94 -254 -94q-175 0 -247 92t-72 346q0 255 82 346q83 92 247 92q118 0 184 -32
q64 -32 99 -126q35 -96 35 -272zM1528 426q0 181 -32 239q-31 56 -124 56q-86 0 -124 -62t-38 -237q0 -183 35 -244q34 -59 121 -59q90 0 126 58q36 59 36 249z" />
    <glyph glyph-name="ampersand" unicode="&#x26;" horiz-adv-x="1495" 
d="M1092 117q-140 -144 -437 -144q-534 0 -534 424q0 157 69 246q69 88 238 156q-139 140 -139 315q0 352 405 352q137 0 242 -24q59 -15 59 -51q0 -57 -20 -111q-12 -35 -47 -35q-10 0 -44 6q-13 2 -40 9q-63 10 -150 10q-184 0 -184 -154q0 -60 34 -112q38 -57 126 -150
l411 -403q35 79 35 186q0 25 -3 59t-3 39q0 53 43 60q48 8 94 8q62 0 72 -49q8 -35 8 -101q0 -236 -88 -366l182 -174q35 -33 35 -56q0 -39 -49 -49q-64 -16 -127 -16q-50 0 -88 35q-94 84 -100 90zM958 268q-213 198 -403 396q-199 -77 -199 -250q0 -118 78 -182
q77 -64 232 -64q207 0 292 100z" />
    <glyph glyph-name="quotesingle" unicode="'" horiz-adv-x="421" 
d="M287 942q-1 -36 -17 -50q-14 -13 -45 -13h-28q-33 0 -47 13q-16 14 -17 54q-22 280 -22 434q0 86 73 86h56q71 0 71 -75q0 -128 -24 -449z" />
    <glyph glyph-name="parenleft" unicode="(" horiz-adv-x="677" 
d="M322 637q0 -159 20 -278q21 -125 46 -201q26 -78 78 -153q50 -71 88 -111q39 -41 103 -99q15 -12 15 -33q0 -17 -35 -61q-18 -18 -41 -18q-22 0 -61 24q-72 44 -140 109q-66 63 -135 171q-70 110 -110 274q-41 169 -41 374q0 193 37 348q37 157 104 266q69 114 134 181
q67 70 148 122q40 23 62 23q18 0 41 -23q33 -33 33 -55q0 -21 -17 -33q-158 -131 -243 -313q-86 -184 -86 -514z" />
    <glyph glyph-name="parenright" unicode=")" horiz-adv-x="677" 
d="M356 621q0 157 -20 274q-22 129 -47 201q-26 76 -79 153q-50 73 -87 113q-25 27 -103 100q-14 14 -14 33q0 24 35 59q17 21 39 21q26 0 61 -23q76 -47 140 -109q67 -65 135 -172q70 -109 110 -276q41 -170 41 -372q0 -189 -38 -350q-37 -157 -102 -266
q-65 -108 -133 -178q-69 -71 -149 -122q-41 -24 -61 -24q-25 0 -43 22q-33 33 -33 55q0 18 17 35q75 60 128 124q53 63 102 159q51 99 76 232q25 134 25 311z" />
    <glyph glyph-name="asterisk" unicode="*" horiz-adv-x="856" 
d="M426 920l-129 -189q-18 -29 -45 -29q-21 0 -70 37q-26 20 -26 47q0 14 18 41q56 78 145 181q-34 7 -217 57q-47 15 -47 53q0 26 15 66q17 41 57 41q6 0 45 -11q100 -31 193 -69q-17 148 -17 219q0 36 17 53t63 17q50 0 66 -16q14 -14 14 -52q0 -116 -8 -223
q183 69 202 76q24 6 43 6q33 0 48 -39q14 -43 14 -66q0 -41 -45 -53q-50 -14 -223 -61q122 -144 147 -179q14 -15 14 -41q0 -25 -28 -47q-45 -32 -68 -32q-27 0 -47 26q-60 79 -131 187z" />
    <glyph glyph-name="plus" unicode="+" horiz-adv-x="1435" 
d="M801 121q0 -49 -53 -49h-60q-53 0 -53 49v399h-402q-49 0 -49 58v51q0 57 49 57h400v397q0 52 53 52h62q53 0 53 -52v-397h401q49 0 49 -57v-51q0 -58 -49 -58h-401v-399z" />
    <glyph glyph-name="comma" unicode="," horiz-adv-x="493" 
d="M242 289h73q72 0 72 -72q0 -131 -58 -283q-57 -149 -145 -251q-40 -48 -69 -48q-26 0 -68 25q-39 24 -39 53q0 27 23 58q114 163 129 434q6 84 82 84z" />
    <glyph glyph-name="hyphen" unicode="-" horiz-adv-x="667" 
d="M545 449h-422q-51 0 -51 51v100q0 49 51 49h420q53 0 53 -49v-104q0 -47 -51 -47z" />
    <glyph glyph-name="period" unicode="." horiz-adv-x="493" 
d="M397 133q0 -156 -153 -156q-148 0 -148 156q0 82 42 121t110 39q149 0 149 -160z" />
    <glyph glyph-name="slash" unicode="/" horiz-adv-x="817" 
d="M197 -156q-18 -51 -58 -51q-51 0 -88 6q-24 6 -24 31q0 15 10 41l581 1616q21 53 56 53q58 0 88 -6q26 -6 26 -31q0 -21 -12 -55z" />
    <glyph glyph-name="zero" unicode="0" horiz-adv-x="1173" 
d="M1092 702q0 -286 -55 -448q-55 -161 -160 -220q-108 -61 -295 -61q-135 0 -226 32q-89 31 -153 112t-92 220q-29 143 -29 355q0 171 26 303q26 131 68 208q43 78 111 125q66 46 140 64q68 17 171 17q140 0 225 -27q89 -28 151 -102q64 -76 91 -215t27 -363zM856 700
q0 214 -26 324q-26 108 -79 147q-54 39 -161 39q-98 0 -155 -39t-88 -154q-32 -117 -32 -325q0 -216 31 -334q29 -112 84 -151q52 -37 154 -37q105 0 158 37q54 38 84 152q30 115 30 341z" />
    <glyph glyph-name="one" unicode="1" horiz-adv-x="1173" 
d="M942 0h-600q-53 0 -53 49v105q0 49 53 49h203v948l-209 -82q-23 -10 -47 -10q-23 0 -33 26q-39 111 -39 125q0 25 29 37l252 103q87 34 147 34h12q117 0 117 -120v-1061h166q53 0 53 -49v-107q0 -47 -51 -47z" />
    <glyph glyph-name="two" unicode="2" horiz-adv-x="1173" 
d="M995 0h-796q-127 0 -127 125q0 94 80 160q358 283 471 395q155 149 155 285q0 125 -60 185t-214 60q-98 0 -221 -30q-11 -2 -27 -6q-5 -1 -14.5 -4t-13.5 -4q-12 -3 -19 -3q-27 0 -35 27q-27 80 -27 110q0 37 50 54q156 55 362 55q261 0 356 -107q97 -109 97 -305
q0 -221 -164 -379q-170 -164 -510 -413q162 2 657 2q54 0 54 -49v-111q0 -47 -54 -47z" />
    <glyph glyph-name="three" unicode="3" horiz-adv-x="1173" 
d="M717 733q297 -29 297 -340q0 -207 -121 -313q-122 -107 -395 -107q-193 0 -330 35q-51 15 -51 51q0 43 24 119q11 29 39 29q13 0 76 -14q96 -21 231 -21q167 0 230 54t63 169q0 116 -65 163q-66 48 -234 54q-53 1 -79 24q-23 20 -23 81q0 58 24 79q25 22 74 23
q143 6 204 53q60 47 60 138q0 110 -55 155q-56 45 -203 45q-93 0 -204 -24q-67 -15 -72 -15q-23 0 -31 25q-24 84 -24 113q0 35 51 51q157 49 334 49q258 0 347 -89t89 -292q0 -107 -67 -188q-67 -80 -189 -107z" />
    <glyph glyph-name="four" unicode="4" horiz-adv-x="1173" 
d="M715 330h-541q-102 0 -102 114q0 80 39 156l389 741q29 56 73 56q105 0 152 -11q20 -6 20 -30q0 -26 -14 -53l-420 -766h404v274q0 57 49 57h125q47 0 47 -53v-278h143q56 0 56 -52v-108q0 -47 -56 -47h-143v-279q0 -55 -49 -55h-123q-49 0 -49 55v279z" />
    <glyph glyph-name="five" unicode="5" horiz-adv-x="1173" 
d="M389 838q132 16 217 16q234 0 334 -89q98 -88 98 -333q0 -231 -125 -345t-405 -114q-195 0 -330 35q-51 15 -51 51q0 25 25 113q8 33 41 33q11 0 79 -15q85 -18 238 -18q163 0 228 58q67 59 67 194q0 137 -67 184t-199 47q-64 0 -155 -8t-101 -8q-99 0 -99 106
q0 47 4 138l25 440q1 25 17 44q14 17 36 17h647q52 0 52 -47v-112q0 -45 -56 -45h-503z" />
    <glyph glyph-name="six" unicode="6" horiz-adv-x="1173" 
d="M338 768q45 51 131 80q91 31 201 31q219 0 316 -102q97 -101 97 -341q0 -233 -117 -347q-119 -116 -366 -116q-254 0 -372 150q-117 148 -117 506q0 202 25 336q26 137 90 240q65 104 181 154q117 50 287 50q184 0 271 -29q34 -12 34 -45q0 -35 -22 -116q-11 -29 -35 -29
q-14 0 -23 1q-18 2 -28 4q-15 3 -21 3q-66 12 -165 12q-211 0 -282 -96q-70 -95 -85 -346zM344 508q0 -84 10 -133q34 -207 254 -207q134 0 195 61t61 207q0 129 -56 189q-57 61 -181 61q-213 0 -269 -98q-14 -25 -14 -80z" />
    <glyph glyph-name="seven" unicode="7" horiz-adv-x="1173" 
d="M807 1182q-117 0 -260 -1t-402 -1q-53 0 -53 47v110q0 47 51 47h777q75 0 108 -27t33 -87q0 -51 -43 -164l-424 -1047q-27 -67 -76 -67q-83 0 -137 8q-39 8 -39 45q0 25 18 72z" />
    <glyph glyph-name="eight" unicode="8" horiz-adv-x="1173" 
d="M813 729q264 -43 264 -344q0 -211 -116 -311q-118 -101 -377 -101q-258 0 -373 98t-115 306q0 282 266 350q-225 57 -225 313q0 192 114 280q115 89 347 89q234 0 340 -85t106 -277q0 -255 -231 -318zM844 395q0 224 -256 224q-260 0 -260 -224q0 -130 65 -180
q66 -51 193 -51q126 0 192 54t66 177zM815 1016q0 102 -50 150q-49 48 -177 48q-126 0 -176 -50t-50 -152q0 -199 224 -199q97 0 163 48t66 155z" />
    <glyph glyph-name="nine" unicode="9" horiz-adv-x="1173" 
d="M838 608q-101 -98 -330 -98q-222 0 -318 100t-96 338q0 461 496 461q254 0 364 -146q111 -147 111 -511q0 -196 -26 -335q-25 -135 -89 -241q-62 -104 -179 -154q-119 -51 -290 -51q-198 0 -291 29q-30 10 -30 47q0 39 20 113q8 33 37 33q2 0 9.5 -1t24 -2.5t30.5 -3.5
q111 -18 194 -18q110 0 183 28q70 27 108 91q35 59 51 134q15 71 21 187zM831 879q0 93 -12 149q-40 186 -244 186q-134 0 -197 -62q-65 -63 -65 -204q0 -127 58 -187q57 -59 182 -59q101 0 176 28q71 26 88 63q14 31 14 86z" />
    <glyph glyph-name="colon" unicode=":" horiz-adv-x="534" 
d="M438 133q0 -156 -153 -156q-148 0 -148 156q0 82 42 121t110 39q149 0 149 -160zM438 870q0 -157 -153 -157q-61 0 -105 36q-43 36 -43 119q0 82 42 120q43 38 110 38q69 0 109 -34t40 -122z" />
    <glyph glyph-name="semicolon" unicode=";" horiz-adv-x="534" 
d="M440 870q0 -157 -157 -157q-144 0 -144 155q0 82 42 120q43 38 110 38q69 0 109 -34t40 -122zM268 289h74q74 0 74 -72q0 -128 -59 -284q-59 -155 -146 -250q-40 -48 -70 -48q-28 0 -67 25q-39 24 -39 53q0 26 22 58q116 165 131 434q4 84 80 84z" />
    <glyph glyph-name="less" unicode="&#x3c;" horiz-adv-x="1435" 
d="M403 604l721 -323q43 -18 43 -68q0 -40 -4 -76q-6 -43 -39 -43q-20 0 -41 12l-813 386q-41 21 -41 73v72q0 51 41 72l813 393q24 12 45 12q27 0 33 -41q6 -39 6 -74q0 -45 -43 -67z" />
    <glyph glyph-name="equal" unicode="=" horiz-adv-x="1435" 
d="M1251 367q0 -58 -49 -58h-969q-49 0 -49 58v49q0 55 49 55h969q49 0 49 -55v-49zM1251 786q0 -55 -49 -55h-969q-49 0 -49 55v54q0 55 49 55h969q49 0 49 -55v-54z" />
    <glyph glyph-name="greater" unicode="&#x3e;" horiz-adv-x="1435" 
d="M1034 604l-723 324q-43 21 -43 67t6 76q6 43 37 43q17 0 43 -10l811 -387q43 -21 43 -74v-72q0 -50 -41 -71l-815 -394q-24 -12 -43 -12q-27 0 -35 41q-4 24 -4 74q0 49 43 67z" />
    <glyph glyph-name="question" unicode="?" horiz-adv-x="890" 
d="M430 475h-76q-54 0 -55 37q-4 35 -4 98q0 82 24 129q25 48 99 101q96 69 134 128t38 136q0 172 -199 172q-103 0 -192 -21q-53 -8 -54 -8q-38 0 -49 41q-16 60 -16 86q1 45 47 60q135 41 297 41q224 0 315 -83q90 -82 90 -249q0 -124 -39 -195q-42 -76 -169 -160
q-76 -53 -102 -86q-28 -36 -34 -98q-4 -40 -4 -48q-1 -11 -4 -46q-5 -35 -47 -35zM539 133q0 -156 -154 -156q-149 0 -149 156q0 160 151 160q152 0 152 -160z" />
    <glyph glyph-name="at" unicode="@" horiz-adv-x="1652" 
d="M969 225q-89 -108 -256 -108q-271 0 -271 262q0 134 57 275q58 142 152 225q107 94 293 94q124 0 234 -37q45 -12 45 -55q0 -35 -11 -82l-94 -422q-10 -43 -10 -84q0 -47 43 -47t86 28q93 61 146 192q53 132 53 273q0 482 -510 482q-302 0 -497 -212q-196 -213 -196 -548
q0 -284 155 -441q154 -155 450 -155q240 0 428 65q46 17 61 17q25 0 37 -41q6 -15 6 -33q0 -25 -47 -43q-219 -86 -489 -86q-345 0 -539 184q-195 184 -195 533q0 375 232 622q231 246 598 246q302 0 468 -145q167 -146 167 -439q0 -249 -131 -437q-130 -187 -322 -187
q-137 0 -143 104zM979 387l84 373q10 39 10 55q0 25 -26 29q-49 12 -111 12q-124 0 -199 -70q-64 -62 -104 -171q-39 -108 -39 -209q0 -166 160 -166q105 0 174 57q14 10 33 35q11 15 18 55z" />
    <glyph glyph-name="A" unicode="A" horiz-adv-x="1292" 
d="M383 401l-117 -344q-12 -38 -23 -50q-12 -13 -38 -13q-132 0 -164 8q-25 8 -25 37q0 27 15 61l420 1203q28 82 64 117q35 34 120 34h51q77 0 108 -31q29 -29 58 -116l412 -1203q14 -36 14 -63t-25 -39q-24 -8 -161 -8q-27 0 -41 14q-15 14 -25 49l-119 344h-524zM442 604
h410l-203 641q-29 -105 -207 -641z" />
    <glyph glyph-name="B" unicode="B" horiz-adv-x="1325" 
d="M612 0h-221q-105 0 -155 48t-50 159v1024q0 215 203 215h234q113 0 219 -12q170 -18 251 -104t81 -243q0 -133 -52 -214q-50 -77 -161 -115q127 -30 193 -112q65 -82 65 -226q0 -292 -207 -375q-114 -45 -400 -45zM422 651v-370q0 -45 17 -62q18 -18 61 -18h168
q144 0 198 22q113 47 113 217q0 140 -117 187q-60 24 -203 24h-237zM422 844h227q146 0 187 20q100 40 100 183q0 87 -33 128q-32 39 -94 62q-46 14 -162 14h-162q-63 0 -63 -75v-332z" />
    <glyph glyph-name="C" unicode="C" horiz-adv-x="1212" 
d="M350 731q0 -289 80 -423t299 -134q146 0 291 37q44 12 67 12q27 0 37 -28q23 -64 23 -109q0 -34 -47 -51q-177 -62 -424 -62q-285 0 -426 163q-141 164 -141 564q0 414 137 593q138 180 481 180q213 0 340 -31q51 -12 51 -51q0 -57 -24 -125q-8 -25 -39 -25q-24 0 -68 10
q-96 21 -244 21q-231 0 -312 -128t-81 -413z" />
    <glyph glyph-name="D" unicode="D" horiz-adv-x="1437" 
d="M565 0h-176q-107 0 -155 48t-48 157v1028q0 107 51 161q49 52 156 52h193q250 0 381 -39q362 -105 362 -668q0 -279 -82 -446q-83 -168 -286 -244q-129 -49 -396 -49zM422 289q0 -80 76 -80h133q153 0 243 41q119 56 165 173t46 314q0 191 -43 301q-43 111 -155 160
q-90 41 -266 41h-132q-67 0 -67 -78v-872z" />
    <glyph glyph-name="E" unicode="E" horiz-adv-x="1150" 
d="M1034 0h-637q-107 0 -159 47t-52 162v1022q0 110 50 163q49 52 159 52h606q52 0 52 -49v-117q0 -43 -52 -43h-514q-65 0 -65 -76v-307h524q53 0 53 -49v-115q0 -45 -53 -45h-524v-356q0 -45 17 -62q18 -18 61 -18h534q53 0 53 -51v-113q0 -45 -53 -45z" />
    <glyph glyph-name="F" unicode="F" horiz-adv-x="1095" 
d="M422 53q0 -57 -51 -57h-135q-50 0 -50 55v1180q0 109 51 163q49 52 156 52h598q51 0 51 -49v-117q0 -43 -51 -43h-502q-67 0 -67 -80v-352h483q53 0 53 -51v-115q0 -45 -53 -45h-483v-541z" />
    <glyph glyph-name="G" unicode="G" horiz-adv-x="1368" 
d="M1239 154q0 -52 -16 -72q-15 -22 -52 -37q-174 -72 -481 -72q-299 0 -440 162t-141 565q0 413 145 592q146 181 498 181q222 0 364 -35q49 -15 49 -52q0 -56 -24 -124q-6 -25 -37 -25q-4 0 -70 8q-150 27 -280 27q-230 0 -317 -132t-87 -409q0 -133 16 -234
q15 -97 55 -173q40 -78 116 -115q75 -37 192 -37q147 0 262 31q43 12 43 59v307h-272q-39 0 -39 39v127q0 43 41 43h428q47 0 47 -51v-573z" />
    <glyph glyph-name="H" unicode="H" horiz-adv-x="1464" 
d="M422 51q0 -55 -51 -55h-135q-50 0 -50 55v1344q0 55 52 55h137q47 0 47 -53v-543h620v541q0 55 54 55h137q45 0 45 -53v-1346q0 -55 -51 -55h-133q-52 0 -52 55v594h-620v-594z" />
    <glyph glyph-name="I" unicode="I" horiz-adv-x="608" 
d="M422 51q0 -55 -51 -55h-135q-50 0 -50 55v1344q0 55 52 55h137q47 0 47 -53v-1346z" />
    <glyph glyph-name="J" unicode="J" horiz-adv-x="665" 
d="M481 143q0 -214 -88 -303q-51 -54 -155 -97q-102 -42 -197 -42q-49 0 -59 43q-9 49 -9 92q0 49 50 60q110 18 163 59q60 47 60 180v1260q0 55 51 55h137q47 0 47 -53v-1254z" />
    <glyph glyph-name="K" unicode="K" horiz-adv-x="1308" 
d="M422 51q0 -55 -51 -55h-135q-50 0 -50 55v1344q0 55 52 55h137q47 0 47 -53v-545h143q63 0 92 39l340 516q29 45 70 45q88 0 139 -6q37 -1 37 -37q0 -26 -20 -53q-300 -451 -406 -598q71 -99 443 -658q26 -38 26 -63q0 -32 -35 -37q-45 -4 -166 -4q-38 0 -65 41l-381 573
q-23 35 -80 35h-137v-594z" />
    <glyph glyph-name="L" unicode="L" horiz-adv-x="1142" 
d="M1026 0h-633q-103 0 -155 47t-52 152v1196q0 55 52 55h137q47 0 47 -53v-1110q0 -78 76 -78h528q51 0 51 -51v-113q0 -45 -51 -45z" />
    <glyph glyph-name="M" unicode="M" horiz-adv-x="1732" 
d="M418 51q0 -55 -49 -55h-138q-45 0 -45 55v1223q0 84 36 132t132 48h54q83 0 112 -31q30 -31 80 -151q216 -514 270 -676q71 196 269 676q19 52 35 83q12 24 34 52q23 29 53 38t76 9h60q95 0 122 -42t27 -138v-1217q0 -61 -51 -61h-135q-47 0 -47 59q0 941 6 1159
q-52 -157 -326 -837q-22 -58 -44 -82q-21 -23 -64 -23h-31q-41 0 -66 23q-23 22 -45 76q-253 628 -331 843q6 -221 6 -1163z" />
    <glyph glyph-name="N" unicode="N" horiz-adv-x="1497" 
d="M416 51q0 -55 -54 -55h-126q-50 0 -50 55v1237q0 86 37 126t121 40h64q47 0 76 -16t43 -36q13 -19 38 -67q406 -774 525 -1044q-5 195 -5 1093q0 66 56 66h121q49 0 49 -61v-1268q0 -79 -36 -107q-35 -28 -97 -28h-54q-71 0 -104 27t-74 108q-409 785 -534 1055
q4 -280 4 -1125z" />
    <glyph glyph-name="O" unicode="O" horiz-adv-x="1433" 
d="M1325 733q0 -223 -36 -372q-35 -146 -116 -233q-80 -86 -190 -120q-113 -35 -274 -35q-162 0 -267 34q-107 35 -184 119q-78 86 -114 233q-35 144 -35 372q0 224 45 374q45 151 133 228q91 80 191 109q107 31 247 31q127 0 218 -17q92 -17 166 -62q78 -47 122 -128
q45 -82 69 -213q25 -136 25 -320zM1081 729q0 227 -38 347q-37 118 -111 157q-73 39 -215 39q-94 0 -158 -23q-63 -23 -113 -80q-47 -55 -72 -165q-24 -108 -24 -273q0 -172 22 -288q21 -111 71 -170q47 -56 112 -78q61 -21 158 -21q94 0 156 20q61 20 113 76t76 170
q23 108 23 289z" />
    <glyph glyph-name="P" unicode="P" horiz-adv-x="1290" 
d="M422 51q0 -55 -53 -55h-133q-50 0 -50 55v1174q0 116 47 169q46 52 162 52h183q276 0 399 -49q207 -84 207 -377q0 -320 -273 -402q-121 -34 -319 -34h-170v-533zM422 776h182q158 0 221 27q117 47 117 203q0 168 -115 215q-63 24 -231 24h-111q-63 0 -63 -71v-398z" />
    <glyph glyph-name="Q" unicode="Q" horiz-adv-x="1433" 
d="M1325 733q0 -480 -190 -643l258 -170q22 -12 22 -35q0 -19 -76 -135q-14 -20 -34 -20q-19 0 -35 12l-373 246q-80 -15 -188 -15q-162 0 -267 34q-107 35 -184 119q-78 86 -114 233q-35 144 -35 372q0 224 45 374q45 151 133 228q91 80 191 109q107 31 247 31
q127 0 218 -17q92 -17 166 -62q78 -47 122 -128q45 -82 69 -213q25 -136 25 -320zM1081 729q0 227 -38 347q-37 118 -111 157q-73 39 -215 39q-94 0 -158 -23q-63 -23 -113 -80q-47 -55 -72 -165q-24 -108 -24 -273q0 -172 22 -288q21 -111 71 -170q47 -56 112 -78
q61 -21 158 -21q94 0 156 20q61 20 113 76t76 170q23 108 23 289z" />
    <glyph glyph-name="R" unicode="R" horiz-adv-x="1298" 
d="M422 51q0 -55 -53 -55h-133q-50 0 -50 55v1176q0 113 48 166t163 53h158q279 0 399 -47q207 -84 207 -375q0 -302 -250 -393l297 -529q27 -53 27 -67q0 -29 -27 -33q-40 -8 -166 -8q-41 0 -65 45l-289 549q-50 -2 -121 -2h-145v-535zM422 778h153q147 0 228 29
q117 47 117 205q0 170 -113 211q-60 22 -215 22h-98q-72 0 -72 -71v-396z" />
    <glyph glyph-name="S" unicode="S" horiz-adv-x="1179" 
d="M739 811q196 -56 268 -138q72 -83 72 -261q0 -214 -121 -326q-122 -113 -407 -113q-239 0 -418 60q-47 17 -47 53q0 33 23 107q15 47 57 47q16 0 67 -17q150 -49 322 -49q168 0 225 58q58 60 58 151q0 81 -42 128q-40 45 -184 83l-184 47q-317 84 -317 401q0 209 120 319
q123 112 394 112q229 0 358 -43q45 -15 45 -56q0 -38 -20 -102q-11 -41 -45 -41q-23 0 -66 10q-159 29 -289 29q-144 0 -200 -53t-56 -152q0 -75 41 -124q41 -48 166 -83z" />
    <glyph glyph-name="T" unicode="T" horiz-adv-x="1224" 
d="M729 51q0 -55 -51 -55h-135q-51 0 -51 55v1186h-375q-51 0 -51 43v117q0 49 51 49h989q53 0 53 -49v-117q0 -43 -53 -43h-377v-1186z" />
    <glyph glyph-name="U" unicode="U" horiz-adv-x="1427" 
d="M1255 1399v-821q0 -164 -12 -254q-12 -92 -49 -154q-115 -199 -494 -199q-384 0 -483 213q-45 99 -45 389v826q0 51 51 51h142q43 0 43 -51v-885q0 -179 43 -244q66 -96 262 -96q213 0 270 92q45 69 45 242v891q0 51 51 51h131q45 0 45 -51z" />
    <glyph glyph-name="V" unicode="V" horiz-adv-x="1280" 
d="M639 244q34 111 385 1145q21 63 66 63q106 0 155 -12q27 -6 27 -35q0 -18 -17 -64l-430 -1228q-21 -59 -52 -89t-105 -30h-64q-72 0 -106 32q-33 32 -56 95l-419 1218q-15 43 -15 64q0 26 25 37q30 12 166 12q27 0 39 -13q12 -14 24 -50q312 -935 377 -1145z" />
    <glyph glyph-name="W" unicode="W" horiz-adv-x="1939" 
d="M973 1137q-57 -232 -273 -1020q-18 -68 -51 -95q-34 -28 -100 -28h-62q-117 0 -145 121l-285 1220q-8 35 -8 68q0 37 37 41q53 8 158 8q43 0 55 -53q209 -931 246 -1159q57 262 280 1054q16 60 43 85q28 26 82 26h54q58 0 86 -23q26 -22 43 -86q225 -835 272 -1056
q38 223 244 1151q12 61 57 61q108 0 156 -8q28 -4 28 -39q0 -31 -10 -70l-285 -1216q-15 -65 -46 -94q-33 -31 -101 -31h-53q-73 0 -106 28q-32 27 -50 97q-225 846 -266 1018z" />
    <glyph glyph-name="X" unicode="X" horiz-adv-x="1337" 
d="M303 45q-33 -49 -82 -49q-140 0 -158 6q-26 6 -26 35q0 18 29 59l446 654l-408 591q-30 44 -30 64q0 30 28 37q29 8 179 8q36 0 69 -47l326 -490l325 488q35 51 76 51q132 0 162 -8q23 -8 23 -31q0 -22 -25 -63l-414 -609l443 -645q26 -38 26 -61q0 -27 -26 -33
q-40 -6 -174 -6q-45 0 -82 55l-353 527z" />
    <glyph glyph-name="Y" unicode="Y" horiz-adv-x="1212" 
d="M725 53q0 -57 -51 -57h-135q-50 0 -50 57v557l-454 733q-27 45 -27 66q0 24 25 35q19 8 182 8q42 0 72 -51q249 -405 327 -553q77 142 328 547q34 57 78 57q127 0 162 -8q22 -7 22 -31q0 -25 -22 -63l-457 -734v-563z" />
    <glyph glyph-name="Z" unicode="Z" horiz-adv-x="1255" 
d="M1143 0h-971q-129 0 -129 129q0 81 43 131l799 977h-723q-53 0 -53 53v99q0 27 15 42t40 15h833q158 0 158 -133q0 -94 -59 -166l-772 -938h821q55 0 55 -51v-111q0 -47 -57 -47z" />
    <glyph glyph-name="bracketleft" unicode="[" horiz-adv-x="624" 
d="M348 -180h201q35 0 35 -33v-43q0 -35 -35 -35h-346q-39 0 -39 47v1741q0 49 39 49h346q35 0 35 -33v-45q0 -34 -35 -34h-201v-1614z" />
    <glyph glyph-name="backslash" unicode="\" horiz-adv-x="817" 
d="M618 -156l-579 1604q-12 34 -12 55q0 25 24 31q33 6 90 6q35 0 56 -53l581 -1616q10 -26 10 -41q0 -25 -26 -31q-35 -6 -86 -6q-40 0 -58 51z" />
    <glyph glyph-name="bracketright" unicode="]" horiz-adv-x="624" 
d="M274 1434h-200q-35 0 -35 32v43q0 37 35 37h348q39 0 39 -51v-1739q0 -47 -41 -47h-346q-35 0 -35 31v47q0 33 37 33h198v1614z" />
    <glyph glyph-name="asciicircum" unicode="^" horiz-adv-x="1462" 
d="M729 1200l-274 -588q-21 -41 -62 -41q-27 0 -76 9q-43 7 -43 36q0 15 11 37l331 682q23 47 74 47h82q54 0 76 -49l332 -684q10 -16 10 -33q0 -28 -35 -36q-40 -9 -86 -9q-40 0 -61 43q-176 350 -279 586z" />
    <glyph glyph-name="underscore" unicode="_" horiz-adv-x="1009" 
d="M0 -158h1010v-94h-1010v94z" />
    <glyph glyph-name="grave" unicode="`" horiz-adv-x="403" 
d="M229 1219l-229 243q-27 30 -27 51q0 29 45 37q50 6 121 6q53 0 86 -45l185 -239q18 -27 18 -45q0 -29 -35 -35q-37 -6 -82 -6q-47 0 -82 33z" />
    <glyph glyph-name="a" unicode="a" horiz-adv-x="1097" 
d="M952 172q0 -66 -22 -92q-22 -31 -66 -47q-60 -24 -175 -42t-222 -18q-215 0 -296 88q-81 89 -81 242q0 176 115 250q98 61 323 61q122 0 199 -8v68q0 77 -12 110q-27 70 -191 70q-100 0 -215 -23q-80 -12 -82 -12q-29 0 -39 33q-16 60 -16 100q0 39 41 54q161 47 344 47
q246 0 326 -80q69 -67 69 -271v-530zM727 442q-103 9 -172 9q-150 0 -203 -35q-45 -27 -45 -107q0 -78 40 -118q39 -39 149 -39q123 0 188 26q29 12 35 35q8 26 8 70v159z" />
    <glyph glyph-name="b" unicode="b" horiz-adv-x="1169" 
d="M154 156v1319q0 57 47 57h131q49 0 49 -57v-506q113 82 334 82q184 0 270 -122t86 -401q0 -166 -31 -279q-30 -109 -97 -170t-155 -83q-90 -23 -221 -23q-201 0 -329 43q-54 18 -72 58q-12 29 -12 82zM381 256q0 -42 10 -53q13 -19 43 -25q52 -14 135 -14q169 0 222 73
t53 275q0 191 -40 265q-41 75 -169 75q-156 0 -223 -43q-21 -15 -27 -27q-4 -11 -4 -43v-483z" />
    <glyph glyph-name="c" unicode="c" horiz-adv-x="948" 
d="M328 514q0 -184 52 -266t195 -82q105 0 193 18q42 11 59 11q24 0 35 -29q21 -76 21 -100q0 -38 -35 -50q-117 -43 -297 -43q-228 0 -340 118q-113 119 -113 405q0 290 113 424q112 133 379 133q150 0 241 -27q35 -12 35 -45q0 -43 -20 -117q-10 -30 -37 -30q-13 0 -34 4
t-27 4q-67 14 -156 14q-158 0 -211 -83t-53 -259z" />
    <glyph glyph-name="d" unicode="d" horiz-adv-x="1171" 
d="M1018 168q0 -53 -8 -72q-17 -36 -70 -59q-143 -64 -395 -64q-237 0 -342 113q-105 112 -105 406q0 318 117 440q117 121 379 121q135 0 199 -29v453q0 55 55 55h123q27 0 37 -11t10 -44v-1309zM793 279v491q0 51 -33 66q-41 20 -150 20q-168 0 -225 -78t-57 -284
q0 -177 50 -254q49 -76 179 -76q128 0 195 29q23 7 34 30q7 21 7 56z" />
    <glyph glyph-name="e" unicode="e" horiz-adv-x="1069" 
d="M326 444q2 -164 69 -221t213 -57q134 0 234 27q44 10 57 10q30 0 41 -29q21 -50 21 -102q0 -30 -33 -45q-127 -54 -346 -54q-267 0 -378 126q-112 127 -112 409q0 286 119 416q119 129 362 129q111 0 189 -27q76 -26 121 -68q42 -39 65 -115q23 -77 29 -144q6 -69 6 -177
q0 -53 -18 -65q-16 -13 -45 -13h-594zM328 614h438q2 16 2 43q0 111 -43 163t-162 52q-126 0 -178 -64t-57 -194z" />
    <glyph glyph-name="f" unicode="f" horiz-adv-x="696" 
d="M438 45q0 -49 -47 -49h-135q-45 0 -45 55v780h-113q-51 0 -51 52v90q0 51 51 51h113v102q0 212 90 297q116 110 385 115q66 0 72 -45q6 -85 6 -96q0 -47 -51 -51q-115 -11 -169 -27q-55 -17 -79 -57q-27 -44 -27 -148v-90h205q49 0 49 -49v-96q0 -48 -51 -48h-203v-786z
" />
    <glyph glyph-name="g" unicode="g" horiz-adv-x="1167" 
d="M780 20q-69 -45 -241 -45q-231 0 -336 113q-105 112 -105 404q0 319 114 439t372 120q228 0 366 -43q62 -18 62 -97v-833q0 -169 -27 -268q-79 -289 -684 -289q-57 0 -65 47q-7 47 -7 86q0 56 54 61q232 11 329 40q99 30 133 85q35 56 35 148v32zM786 274v502
q0 50 -30 62q-51 18 -158 18q-165 0 -218 -77q-52 -76 -52 -281q0 -177 47 -253q47 -75 176 -75q127 0 194 29q30 16 35 32q6 12 6 43z" />
    <glyph glyph-name="h" unicode="h" horiz-adv-x="1193" 
d="M381 49q0 -53 -49 -53h-131q-47 0 -47 53v1426q0 61 51 61h125q51 0 51 -61v-500q48 34 155 55q105 21 193 21q134 0 201 -32q66 -31 90 -95q20 -54 20 -201v-674q0 -53 -47 -53h-133q-47 0 -47 53v625q0 74 -12 112q-23 68 -152 68q-113 0 -215 -35q-28 -10 -43 -31
q-10 -16 -10 -63v-676z" />
    <glyph glyph-name="i" unicode="i" horiz-adv-x="534" 
d="M381 49q0 -53 -49 -53h-131q-47 0 -47 53v924q0 55 47 55h133q47 0 47 -53v-926zM393 1350q0 -136 -129 -136q-127 0 -127 134q0 137 127 137q62 0 96 -31q33 -30 33 -104z" />
    <glyph glyph-name="j" unicode="j" horiz-adv-x="534" 
d="M381 975v-1032q0 -209 -80 -295q-49 -55 -145 -91t-201 -36q-47 0 -57 45q-7 47 -7 86q0 53 50 59q103 12 161 60q52 40 52 170v1032q0 55 47 55h133q47 0 47 -53zM397 1350q0 -136 -129 -136t-129 134q0 137 129 137t129 -135z" />
    <glyph glyph-name="k" unicode="k" horiz-adv-x="1101" 
d="M381 49q0 -53 -49 -53h-131q-47 0 -47 53v1419q0 54 47 54h133q47 0 47 -52v-806h106q62 0 91 41l215 286q30 39 67 39q118 0 144 -8q24 -6 24 -33q0 -20 -18 -47q-190 -252 -281 -362q76 -104 338 -488q20 -29 20 -53q0 -31 -28 -37q-26 -8 -154 -8q-37 0 -65 39
l-279 399q-24 37 -80 37h-100v-420z" />
    <glyph glyph-name="l" unicode="l" horiz-adv-x="583" 
d="M381 348q0 -86 20 -123q24 -40 117 -57q39 -6 39 -47q0 -52 -8 -92q-7 -39 -60 -39q-223 0 -296 116q-39 63 -39 213v1160q0 53 49 53h133q45 0 45 -53v-1131z" />
    <glyph glyph-name="m" unicode="m" horiz-adv-x="1806" 
d="M381 49q0 -53 -49 -53h-131q-47 0 -47 53v795q0 89 67 119q207 88 477 88q192 0 254 -97q115 97 398 97q130 0 194 -32t88 -95q19 -54 19 -201v-674q0 -53 -45 -53h-133q-48 0 -48 53v625q0 83 -10 114q-12 37 -44 52q-29 14 -103 14q-106 0 -199 -37q-31 -12 -43 -29
q-10 -11 -10 -40q0 -16 1 -35t1 -37v-627q0 -53 -47 -53h-133q-47 0 -47 53v629q0 68 -13 110q-12 36 -43 52q-28 14 -100 14q-111 0 -199 -33q-38 -17 -45 -30q-10 -11 -10 -68v-674z" />
    <glyph glyph-name="n" unicode="n" horiz-adv-x="1193" 
d="M381 49q0 -53 -49 -53h-131q-47 0 -47 53v791q0 95 69 125q91 40 236 63q147 23 266 23q137 0 204 -32t91 -95q20 -54 20 -201v-674q0 -53 -47 -53h-133q-47 0 -47 53v625q0 75 -12 114q-11 37 -44 51q-35 15 -108 15q-132 0 -217 -35q-24 -7 -39 -24q-12 -16 -12 -56
v-690z" />
    <glyph glyph-name="o" unicode="o" horiz-adv-x="1140" 
d="M1042 520q0 -314 -110 -430q-111 -117 -369 -117q-249 0 -357 114t-108 427q0 163 34 271q35 110 102 166q68 56 150 79q83 23 194 23q125 0 207 -20q79 -19 142 -75q62 -55 89 -161q26 -103 26 -277zM815 510q0 210 -50 278t-192 68q-128 0 -187 -70q-58 -68 -58 -268
q0 -216 52 -284t187 -68q137 0 193 66q55 65 55 278z" />
    <glyph glyph-name="p" unicode="p" horiz-adv-x="1171" 
d="M381 -426q0 -53 -57 -53h-123q-27 0 -37 11t-10 42v1266q0 59 10 82q12 35 67 59q61 27 184 49q120 21 230 21q232 0 331 -113q99 -112 99 -406q0 -171 -29 -277q-30 -108 -95 -172q-63 -62 -152 -86t-221 -24q-131 0 -197 33v-432zM381 258q0 -54 31 -65q51 -23 147 -23
q172 0 229 74q58 75 58 286q0 181 -46 254q-47 74 -179 74q-120 0 -201 -35q-28 -15 -33 -30q-6 -12 -6 -54v-481z" />
    <glyph glyph-name="q" unicode="q" horiz-adv-x="1169" 
d="M1016 -426q0 -53 -47 -53h-129q-26 0 -38 12q-11 11 -11 41v481q-113 -82 -336 -82q-185 0 -271 123q-86 124 -86 402q0 163 31 278q30 111 99 171q70 61 157 83q90 23 221 23q202 0 326 -45q52 -18 69 -56q15 -33 15 -82v-1296zM791 283v485q0 37 -13 55q-16 19 -43 25
q-46 12 -131 12q-167 0 -223 -74q-55 -73 -55 -274q0 -190 39 -266t170 -76q158 0 223 43q18 12 26 29q7 17 7 41z" />
    <glyph glyph-name="r" unicode="r" horiz-adv-x="780" 
d="M381 49q0 -53 -49 -53h-131q-47 0 -47 53v778q0 54 11 77q13 27 44 50q53 37 166 66q121 31 225 31q79 0 121 -11q33 -10 33 -45q0 -65 -11 -118q-6 -31 -45 -31q-3 0 -9.5 0.5t-19 1t-23.5 0.5q-10 0 -23.5 0.5t-21 1t-11.5 0.5q-108 0 -168 -33q-27 -12 -33 -29
q-8 -22 -8 -57v-682z" />
    <glyph glyph-name="s" unicode="s" horiz-adv-x="913" 
d="M492 397l-154 41q-125 32 -188 103q-62 70 -62 196q0 314 399 314q183 0 289 -33q39 -11 39 -49q0 -27 -24 -111q-6 -31 -37 -31q-5 0 -49 7q-101 26 -226 26q-99 0 -134 -30q-34 -30 -34 -85q0 -41 27 -65t115 -51l139 -41q146 -44 203 -107t57 -192q0 -316 -408 -316
q-232 0 -348 52q-33 12 -33 49q0 23 29 102q15 37 45 37q15 0 53 -12q119 -35 263 -35q106 0 143 34t37 87q0 41 -27 63q-29 24 -114 47z" />
    <glyph glyph-name="t" unicode="t" horiz-adv-x="722" 
d="M434 406q0 -123 35 -170q39 -51 199 -62q45 -2 45 -49q0 -49 -4 -96q-6 -45 -58 -45q-156 0 -240 22q-86 23 -137 86q-38 48 -53 121q-14 67 -14 201v417h-117q-47 0 -47 50v92q0 51 51 51h117q1 50 8 221q5 58 47 58h123q45 0 45 -60v-219h197q57 0 57 -49v-92
q0 -52 -53 -52h-201v-425z" />
    <glyph glyph-name="u" unicode="u" horiz-adv-x="1193" 
d="M154 340v635q0 53 47 53h133q47 0 47 -53v-604q0 -105 14 -133q27 -68 170 -68q136 0 195 20q23 7 39 25q14 14 14 59v701q0 53 49 53h131q47 0 47 -53v-809q0 -96 -69 -129q-149 -64 -445 -64q-294 0 -346 138q-26 64 -26 229z" />
    <glyph glyph-name="v" unicode="v" horiz-adv-x="1032" 
d="M518 233q47 158 262 744q21 53 60 53q80 0 141 -6q37 -1 37 -41q0 -20 -12 -53l-320 -824q-22 -58 -53 -86q-29 -26 -92 -26h-56q-66 0 -93 24q-28 25 -52 88l-309 822q-15 34 -15 53q0 37 37 43q45 6 154 6q39 0 57 -51q209 -594 254 -746z" />
    <glyph glyph-name="w" unicode="w" horiz-adv-x="1560" 
d="M782 733q-24 -101 -188 -637q-18 -60 -51 -81t-97 -21h-38q-59 0 -90 22t-46 78l-221 826q-10 39 -10 61q0 37 37 43q39 6 151 6q39 0 54 -51q129 -509 180 -756q62 254 186 649q19 65 44 89t77 24h31q54 0 79 -22q26 -23 44 -82q153 -463 200 -658q46 236 166 750
q15 57 53 57q103 0 146 -6q35 -6 35 -39q0 -5 -13 -59l-213 -828q-15 -57 -47 -80q-33 -24 -94 -24h-39q-60 0 -92 23q-33 24 -49 79q-159 509 -195 637z" />
    <glyph glyph-name="x" unicode="x" horiz-adv-x="1073" 
d="M530 373l-233 -332q-35 -45 -74 -45q-110 0 -157 4q-27 6 -27 35q0 19 24 53l322 436l-295 408q-27 33 -27 57q0 25 25 31q59 10 172 10q37 0 76 -53l209 -295q77 117 207 297q38 51 77 51q119 0 156 -8q8 -2 16 -11q9 -11 9 -20q0 -19 -25 -55l-297 -410l324 -438
q22 -29 22 -53q0 -21 -22 -33q-18 -6 -174 -6q-42 0 -72 43z" />
    <glyph glyph-name="y" unicode="y" horiz-adv-x="1193" 
d="M154 305v670q0 53 47 53h133q47 0 47 -53v-621q0 -83 12 -116q24 -66 160 -66q128 0 207 35q24 7 39 24q14 14 14 54v690q0 53 49 53h131q47 0 47 -53v-916q0 -167 -26 -254q-40 -153 -207 -219q-164 -65 -473 -65q-29 0 -45 8q-14 7 -19 33q-6 45 -6 94q0 59 51 59
q249 7 348 41q96 32 123 101q21 51 21 139v43q-117 -66 -330 -66q-251 0 -301 131q-22 62 -22 201z" />
    <glyph glyph-name="z" unicode="z" horiz-adv-x="1003" 
d="M901 0h-717q-62 0 -96 28q-33 27 -33 99q0 77 51 133l558 567h-521q-53 0 -53 45v101q0 23 14 37t37 14h650q69 0 104 -30t35 -99q0 -81 -64 -150q-385 -392 -551 -548h590q43 0 43 -50v-108q0 -15 -12 -27t-35 -12z" />
    <glyph glyph-name="braceleft" unicode="{" horiz-adv-x="694" 
d="M236 629q96 -21 145 -89t49 -204v-303q0 -117 35 -164q34 -46 160 -51q34 -4 34 -45v-35q0 -41 -43 -41q-246 0 -313 88q-55 73 -55 223v301q0 132 -39 186t-123 66q-41 5 -41 47v31q0 43 35 51q90 16 129 75t39 179v270q0 165 55 236q82 104 307 104q49 0 49 -41v-30
q0 -41 -43 -45q-126 -12 -159 -68q-27 -45 -27 -149v-291q0 -140 -47 -207q-46 -65 -147 -94z" />
    <glyph glyph-name="bar" unicode="|" horiz-adv-x="509" 
d="M346 -250q0 -53 -47 -53h-90q-45 0 -45 53v1747q0 53 47 53h92q27 0 35 -12q8 -13 8 -39v-1749z" />
    <glyph glyph-name="braceright" unicode="}" horiz-adv-x="694" 
d="M446 625q-192 43 -192 293v303q0 114 -35 161q-31 42 -160 54q-34 4 -34 47v30q0 41 43 41q245 0 311 -86q57 -74 57 -223v-303q0 -128 39 -184t125 -68q41 -6 41 -45v-33q0 -44 -39 -51q-88 -16 -127 -75q-39 -58 -39 -177v-272q0 -166 -55 -234q-79 -106 -305 -106
q-49 0 -49 47v25q0 47 41 47q125 5 159 65q27 45 27 152v289q0 139 47 206q48 67 145 97z" />
    <glyph glyph-name="asciitilde" unicode="~" horiz-adv-x="1435" 
d="M317 498q-25 -31 -47 -31q-30 0 -61 31q-25 25 -25 49q0 21 17 43q147 178 299 178q89 0 241 -86q117 -66 193 -66q52 0 90 23q37 22 88 82q28 33 51 33q21 0 60 -31q28 -24 28 -47q0 -20 -18 -49q-72 -95 -138 -137q-70 -44 -163 -44q-105 0 -238 76q-128 74 -196 74
q-93 0 -181 -98z" />
    <glyph glyph-name="exclamdown" unicode="&#xa1;" horiz-adv-x="598" 
d="M160 494q0 61 65 61h66q35 0 51 -12q17 -12 18 -49q23 -711 23 -828q0 -82 -66 -82h-116q-35 0 -50 17q-16 18 -16 59q0 98 25 834zM113 897q0 156 153 156q150 0 150 -156q0 -160 -152 -160q-151 0 -151 160z" />
    <glyph glyph-name="cent" unicode="&#xa2;" horiz-adv-x="1040" 
d="M692 -166q0 -47 -37 -47h-86q-23 0 -30 10q-9 13 -9 37v156q-195 12 -290 129q-95 118 -95 383q0 257 88 381q89 125 297 147v158q0 47 41 47h82q39 0 39 -47v-154q128 -5 189 -24q37 -10 37 -45q0 -59 -19 -113q-8 -29 -35 -29q-28 0 -55 6q-73 13 -162 13
q-158 0 -211 -77t-53 -247q0 -173 50 -256q49 -82 190 -82q120 0 200 23q33 10 58 10q23 0 34 -27q23 -69 23 -102q0 -35 -35 -47q-89 -30 -211 -45v-158z" />
    <glyph glyph-name="sterling" unicode="&#xa3;" horiz-adv-x="1255" 
d="M1110 0h-877q-47 0 -47 45v115q0 45 50 45h108v362h-135q-51 0 -51 47v91q0 47 51 47h135v204q0 188 68 289q61 89 156 127q93 37 241 37q169 0 301 -31q43 -7 43 -47q0 -53 -20 -117q-7 -30 -43 -30q-28 0 -76 8q-121 20 -201 20q-143 0 -199 -69q-41 -52 -41 -197v-194
h351q51 0 51 -47v-93q0 -45 -49 -45h-353v-362h535q49 0 49 -47v-117q0 -41 -47 -41z" />
    <glyph glyph-name="currency" unicode="&#xa4;" horiz-adv-x="1116" 
d="M973 240q-18 -21 -39 -21q-16 0 -35 19l-104 102q-100 -70 -238 -70q-137 0 -238 68l-96 -100q-21 -21 -39 -21t-39 21l-18 20q-18 18 -18 37q0 23 18 41l102 104q-75 103 -75 240q0 132 75 238l-102 102q-18 18 -18 37q0 23 20 43l16 14q23 23 37 23q21 0 39 -21
l101 -102q95 76 235 76q145 0 236 -74l104 100q21 21 37 21q19 0 37 -21l18 -16q19 -19 19 -41q0 -18 -19 -37l-102 -102q76 -100 76 -240q0 -136 -76 -240l104 -104q17 -17 17 -39q0 -20 -19 -39zM823 680q0 124 -75 198t-191 74q-113 0 -188 -75q-76 -76 -76 -195
q0 -124 75 -201q74 -75 189 -75q116 0 191 75t75 199z" />
    <glyph glyph-name="yen" unicode="&#xa5;" horiz-adv-x="1304" 
d="M1055 672h-234l-53 -82v-70h287q45 0 45 -43v-41q0 -41 -45 -41h-287v-342q0 -57 -51 -57h-131q-49 0 -49 57v342h-287q-43 0 -43 41v41q0 43 43 43h287v64l-58 88h-229q-43 0 -43 41v43q0 39 43 39h149l-311 481q-22 38 -22 63q0 29 24 37q19 8 166 8q37 0 72 -53
q238 -360 329 -524q73 129 328 520q35 57 80 57q132 0 156 -8t24 -35t-22 -59l-320 -487h152q45 0 45 -39v-43q0 -41 -45 -41z" />
    <glyph glyph-name="brokenbar" unicode="&#xa6;" horiz-adv-x="530" 
d="M346 893q0 -51 -47 -51h-90q-45 0 -45 51v524q0 53 47 53h92q27 0 35 -12q8 -13 8 -41v-524zM346 14q0 -51 -47 -51h-90q-45 0 -45 51v525q0 53 47 53h92q27 0 35 -12q8 -13 8 -41v-525z" />
    <glyph glyph-name="section" unicode="&#xa7;" horiz-adv-x="1060" 
d="M776 256q125 -78 125 -246q0 -342 -428 -342q-211 0 -346 49q-33 12 -33 45q0 30 31 117q11 25 37 25q11 0 55 -13q119 -32 258 -32q201 0 201 135q0 62 -35 99q-35 36 -145 81l-142 62q-154 67 -212 137q-56 68 -56 186q0 123 59 192q61 71 154 95q-111 66 -111 246
q0 143 87 236t294 93q180 0 289 -32q35 -8 35 -43q0 -40 -29 -119q-8 -25 -33 -25q-11 0 -59 8q-97 19 -201 19q-93 0 -131 -34q-39 -35 -39 -99q0 -60 33 -95q32 -34 141 -79l140 -60q157 -66 210 -135q52 -68 52 -192q0 -111 -56 -183q-57 -74 -145 -96zM772 512
q0 52 -24 80q-21 25 -95 65q-29 14 -184 82q-26 13 -47 13q-14 0 -35 -7q-44 -15 -73 -53t-29 -96q0 -54 25 -83q24 -29 91 -62q48 -25 108 -50l63 -27t38 -16q26 -8 43 -8q9 0 31 8q36 16 62 60t26 94z" />
    <glyph glyph-name="dieresis" unicode="&#xa8;" horiz-adv-x="403" 
d="M125 1348q0 -125 -115 -125q-116 0 -116 123q0 124 116 124q115 0 115 -122zM508 1348q0 -125 -117 -125q-112 0 -112 123q0 124 112 124q117 0 117 -122z" />
    <glyph glyph-name="copyright" unicode="&#xa9;" horiz-adv-x="1699" 
d="M1575 707q0 -319 -201 -527q-201 -209 -526 -209t-526 209q-201 208 -201 527q0 317 201 527t524 210q333 0 531 -208t198 -529zM1493 707q0 286 -177 472q-176 185 -470 185q-290 0 -465 -186q-176 -187 -176 -471t176 -471t467 -187q290 0 468 187q177 186 177 471z
M643 717q0 -171 49 -242q50 -72 180 -72q98 0 181 21q29 8 45 8q20 0 28 -24q17 -51 17 -78q0 -24 -31 -35q-96 -39 -276 -39q-185 0 -278 99t-93 343q0 248 96 359q95 110 318 110q126 0 206 -16q35 -6 35 -37q0 -50 -18 -90q-6 -18 -27 -18q-5 0 -20 3t-23 3q-83 8 -139 8
q-148 0 -199 -71t-51 -232z" />
    <glyph glyph-name="ordfeminine" unicode="&#xaa;" horiz-adv-x="712" 
d="M618 655q0 -47 -14 -67q-23 -23 -45 -29q-91 -35 -256 -35q-136 0 -189 56t-53 147q0 108 76 154q60 39 201 39q46 0 119 -5v35q0 44 -6 60q-18 37 -111 37q-62 0 -135 -13q-9 0 -28 -4t-25 -4q-23 0 -29 25q-8 43 -8 69q0 27 28 37q79 27 217 27q164 0 213 -49
q45 -45 45 -166v-314zM457 807q-24 4 -97 4q-88 0 -116 -18q-27 -18 -27 -66q0 -82 107 -82q71 0 110 17q14 7 19 20q4 11 4 43v82z" />
    <glyph glyph-name="guillemotleft" unicode="&#xab;" horiz-adv-x="1085" 
d="M301 543l248 -326q20 -27 20 -47q0 -30 -26 -31q-55 -6 -117 -6q-35 0 -68 39l-252 309q-28 32 -28 60t22 51l252 315q40 49 74 49q67 0 117 -8q28 -4 28 -26q0 -20 -24 -54zM731 543l248 -326q20 -26 20 -47q0 -30 -26 -31q-44 -6 -115 -6q-37 0 -70 39l-251 309
q-29 34 -29 60q0 30 20 51l254 315q40 49 76 49q64 0 117 -8q26 -4 26 -26q0 -20 -24 -54z" />
    <glyph glyph-name="logicalnot" unicode="&#xac;" horiz-adv-x="1435" 
d="M1231 121q0 -49 -51 -49h-58q-53 0 -53 49v399h-854q-49 0 -49 58v51q0 57 49 57h965q51 0 51 -57v-508z" />
    <glyph glyph-name="uni00AD" unicode="&#xad;" horiz-adv-x="653" 
d="M537 449h-420q-45 0 -45 47v106q0 45 47 45h416q49 0 49 -47v-108q0 -43 -47 -43z" />
    <glyph glyph-name="registered" unicode="&#xae;" horiz-adv-x="1699" 
d="M1575 707q0 -319 -201 -527q-201 -209 -526 -209t-526 209q-201 208 -201 527q0 317 201 527t524 210q333 0 531 -208t198 -529zM1493 707q0 286 -177 472q-176 185 -470 185q-290 0 -465 -186q-176 -187 -176 -471t176 -471t467 -187q290 0 468 187q177 186 177 471z
M723 313q0 -39 -41 -39h-86q-41 0 -41 43v699q0 155 145 155h93q184 0 260 -32q127 -51 127 -234t-148 -243l178 -310q17 -34 17 -45q0 -29 -31 -31q-45 -6 -96 -6q-32 0 -53 37l-173 324h-71h-80v-318zM723 766h98q86 0 121 14q72 28 72 117q0 97 -68 121q-39 12 -129 12
h-47q-47 0 -47 -53v-211z" />
    <glyph glyph-name="macron" unicode="&#xaf;" horiz-adv-x="403" 
d="M449 1229h-490q-53 0 -53 51v82q0 49 53 49h487q54 0 54 -51v-86q0 -26 -13 -36q-12 -9 -38 -9z" />
    <glyph glyph-name="degree" unicode="&#xb0;" horiz-adv-x="688" 
d="M627 1178q0 -133 -78 -208t-207 -75q-125 0 -202 74t-77 207q0 132 79 207q80 75 210 75q129 0 202 -73t73 -207zM528 1176q0 96 -47 146t-133 50q-87 0 -136 -52q-50 -53 -50 -149q0 -93 51 -142q52 -50 137 -50t131 52q47 53 47 145z" />
    <glyph glyph-name="plusminus" unicode="&#xb1;" horiz-adv-x="1435" 
d="M801 348q0 -51 -53 -51h-60q-53 0 -53 51v385h-402q-49 0 -49 55v52q0 55 49 55h400v381q0 51 53 51h62q53 0 53 -51v-381h401q49 0 49 -55v-52q0 -55 -49 -55h-401v-385zM1251 55q0 -55 -49 -55h-969q-49 0 -49 55v54q0 55 49 55h969q49 0 49 -55v-54z" />
    <glyph glyph-name="twosuperior" unicode="&#xb2;" 
d="M664 860h-517q-75 0 -75 74q0 52 51 90q150 111 287 236q98 89 98 182q0 70 -38 105q-37 34 -128 34q-73 0 -135 -14q-40 -8 -51 -8q-17 0 -23 16q-14 48 -14 80q0 20 31 31q103 34 235 34q168 0 228 -66q61 -67 61 -190q0 -132 -101 -233q-105 -110 -282 -232
q102 2 373 2q34 0 34 -30v-78q0 -33 -34 -33z" />
    <glyph glyph-name="threesuperior" unicode="&#xb3;" 
d="M471 1307q101 -10 147 -58t46 -149q0 -128 -75 -192q-74 -64 -255 -64q-141 0 -211 20q-35 12 -35 35q0 27 21 82q6 18 26 18q7 0 25 -3t24 -3q72 -12 142 -12q103 0 138 32q34 31 34 91q0 64 -37 88q-38 25 -139 29q-41 2 -56 18q-14 15 -14 53q0 39 15 57q15 17 57 19
q78 7 114 33q33 24 33 74q0 61 -32 84q-31 22 -120 22q-65 0 -122 -12q-40 -8 -50 -8q-14 0 -20 18q-14 42 -14 78q0 28 28 35q93 28 215 28q165 0 222 -54t57 -177q0 -149 -164 -182z" />
    <glyph glyph-name="acute" unicode="&#xb4;" horiz-adv-x="403" 
d="M170 1219q-27 -33 -82 -33q-42 0 -80 6q-35 6 -35 35q0 19 19 47l184 237q33 45 86 45q72 0 121 -6q45 -4 45 -37q0 -21 -27 -51z" />
    <glyph glyph-name="mu" unicode="&#xb5;" horiz-adv-x="1241" 
d="M403 -367q0 -51 -47 -51h-133q-47 0 -47 51v1342q0 53 47 53h133q47 0 47 -53v-606q0 -93 17 -133q27 -66 168 -66q137 0 196 20q23 7 39 25q13 13 13 59v701q0 53 51 53h131q47 0 47 -53v-813q0 -92 -72 -125q-141 -62 -395 -62q-144 0 -195 45v-387z" />
    <glyph glyph-name="paragraph" unicode="&#xb6;" horiz-adv-x="1167" 
d="M657 -223q0 -39 -34 -39h-35q-37 0 -37 41v700q-457 0 -457 459q0 115 26 204q25 85 86 158q59 71 175 109q112 37 281 37h268q59 0 59 -55v-1612q0 -41 -37 -41h-34q-35 0 -35 41v1560h-226v-1562z" />
    <glyph glyph-name="periodcentered" unicode="&#xb7;" horiz-adv-x="493" 
d="M397 549q0 -158 -153 -158q-62 0 -105 36t-43 120q0 83 42 120q43 38 110 38q69 0 109 -34t40 -122z" />
    <glyph glyph-name="cedilla" unicode="&#xb8;" horiz-adv-x="403" 
d="M229 -106q60 -1 101 -19q38 -16 56 -48q19 -33 23 -61q5 -33 5 -73q0 -207 -277 -207q-63 0 -100 8q-43 12 -43 45q0 28 6 58q7 23 18 31q10 7 33 7q24 0 49 -4q28 -2 47 -2q86 0 86 64q0 37 -19 52q-20 15 -62 15h-33q-43 0 -43 39q0 27 10 70l33 151h131z" />
    <glyph glyph-name="onesuperior" unicode="&#xb9;" 
d="M618 858h-382q-33 0 -33 31v78q0 34 33 34h120v539l-120 -43q-15 -6 -31 -6q-15 0 -21 18q-28 78 -28 86q0 18 20 25l162 66q46 18 94 18h14q74 0 74 -82v-621h96q35 0 35 -32v-82q0 -29 -33 -29z" />
    <glyph glyph-name="ordmasculine" unicode="&#xba;" horiz-adv-x="741" 
d="M676 858q0 -190 -72 -262t-237 -72q-162 0 -232 70q-69 69 -69 260t79 260q81 70 230 70q162 0 232 -64q69 -63 69 -262zM510 854q0 118 -28 157q-27 38 -109 38q-76 0 -109 -40q-33 -41 -33 -153q0 -121 30 -160t108 -39q80 0 110 38q31 39 31 159z" />
    <glyph glyph-name="guillemotright" unicode="&#xbb;" horiz-adv-x="1085" 
d="M784 545l-247 325q-21 27 -21 48q0 24 29 30q50 8 114 8q33 0 68 -41l252 -307q29 -34 29 -59q0 -28 -23 -53l-252 -316q-39 -47 -76 -47q-77 0 -112 6q-31 5 -31 29q0 17 25 53zM354 545l-248 325q-20 27 -20 48q0 28 27 30q61 8 114 8q35 0 70 -41l252 -309
q29 -34 29 -59q0 -26 -23 -51l-252 -316q-39 -47 -76 -47q-77 0 -114 6q-29 5 -29 29q0 17 25 53z" />
    <glyph glyph-name="onequarter" unicode="&#xbc;" horiz-adv-x="1765" 
d="M1495 35q0 -37 -37 -37h-88q-33 0 -33 37v158h-319q-47 0 -65 14q-19 15 -19 53q0 46 33 109l231 442q18 35 51 35q79 0 101 -2q18 -4 18 -23q0 -13 -10 -33l-244 -452h223v149q0 37 35 37h90q33 0 33 -35v-151h80q37 0 37 -33v-80q0 -30 -37 -30h-80v-158zM600 541h-383
q-33 0 -33 30v78q0 33 33 33h121v541l-121 -45l-31 -7q-12 0 -20 19q-29 81 -29 88q0 18 21 25l161 63q49 20 95 20h14q74 0 74 -81v-623h96q35 0 35 -33v-80q0 -28 -33 -28zM563 -31q-18 -35 -49 -35q-37 0 -49 5q-16 6 -16 20q0 13 16 45l678 1407q23 47 53 47q26 0 47 -4
q21 -2 21 -22q0 -12 -19 -52z" />
    <glyph glyph-name="onehalf" unicode="&#xbd;" horiz-adv-x="1765" 
d="M1585 0h-516q-76 0 -76 74q0 52 51 90q156 115 287 235q98 89 98 183q0 71 -37 105t-128 34q-74 0 -136 -14q-45 -9 -51 -9q-16 0 -22 17q-15 51 -15 80q0 19 31 30q107 35 236 35q168 0 228 -66t60 -190q0 -133 -100 -233q-103 -107 -283 -232q102 2 373 2q35 0 35 -30
v-78q0 -33 -35 -33zM578 541h-383q-33 0 -33 30v78q0 33 33 33h120v541l-120 -45l-31 -7q-13 0 -21 19q-28 78 -28 88q0 18 20 25l162 63q49 20 94 20h14q74 0 74 -81v-623h96q35 0 35 -33v-80q0 -28 -32 -28zM526 -31q-18 -35 -49 -35q-37 0 -49 5q-16 6 -16 20q0 13 16 45
l678 1407q23 47 53 47q26 0 47 -4q21 -2 21 -22q0 -12 -19 -52z" />
    <glyph glyph-name="threequarters" unicode="&#xbe;" horiz-adv-x="1765" 
d="M641 -31q-18 -35 -49 -35q-37 0 -49 5q-17 6 -17 20q0 11 17 45l678 1407q23 47 53 47q26 0 47 -4q20 -1 20 -22q0 -14 -18 -52zM541 987q102 -11 147 -57t45 -150q0 -126 -75 -191q-76 -65 -255 -65q-137 0 -210 21q-35 12 -35 35q0 29 20 82q6 18 27 18q6 0 24 -3
t25 -3q72 -12 141 -12q105 0 139 31q33 30 33 91q0 64 -37 88q-38 25 -139 29q-39 1 -55 19q-14 15 -14 53t15 56t56 20q81 7 115 32q33 24 33 74q0 61 -32 84t-120 23q-61 0 -123 -13q-40 -8 -49 -8q-14 0 -20 19q-15 45 -15 77q0 27 29 35q96 29 215 29q164 0 221 -54
q58 -55 58 -178q0 -149 -164 -182zM1559 35q0 -37 -37 -37h-88q-33 0 -33 37v158h-320q-46 0 -64 14q-20 15 -20 53q0 46 33 109l232 442q17 35 51 35q78 0 100 -2q19 -5 19 -23q0 -11 -11 -33l-243 -452h223v149q0 37 35 37h90q33 0 33 -35v-151h79q37 0 37 -33v-80
q0 -30 -37 -30h-79v-158z" />
    <glyph glyph-name="questiondown" unicode="&#xbf;" horiz-adv-x="890" 
d="M461 555h76q54 0 55 -37q4 -33 4 -98q0 -82 -24 -129q-26 -51 -99 -101q-96 -69 -134 -128t-38 -136q0 -172 199 -172q104 0 192 21l53 8q39 0 50 -41q16 -60 16 -86q-2 -47 -47 -59q-125 -41 -297 -41q-224 0 -315 83t-91 248q0 121 41 195q41 75 168 160q79 52 105 85
q27 35 33 95q0 5 1.5 23t2.5 29q0 8 0.5 17t1 14t0.5 7q4 43 47 43zM354 897q0 156 154 156q149 0 149 -156q0 -160 -153 -160q-150 0 -150 160z" />
    <glyph glyph-name="Agrave" unicode="&#xc0;" horiz-adv-x="1292" 
d="M383 401l-117 -344q-12 -38 -23 -50q-12 -13 -38 -13q-132 0 -164 8q-25 8 -25 37q0 27 15 61l420 1203q28 82 64 117q35 34 120 34h51q77 0 108 -31q29 -29 58 -116l412 -1203q14 -36 14 -63t-25 -39q-24 -8 -161 -8q-27 0 -41 14q-15 14 -25 49l-119 344h-524zM442 604
h410l-203 641q-29 -105 -207 -641zM627 1581l-299 201q-31 19 -31 49q0 31 47 37q101 8 139 8q48 0 95 -41l237 -197q27 -24 27 -49q0 -24 -35 -30q-59 -9 -84 -9q-49 0 -96 31z" />
    <glyph glyph-name="Aacute" unicode="&#xc1;" horiz-adv-x="1292" 
d="M383 401l-117 -344q-12 -38 -23 -50q-12 -13 -38 -13q-132 0 -164 8q-25 8 -25 37q0 27 15 61l420 1203q28 82 64 117q35 34 120 34h51q77 0 108 -31q29 -29 58 -116l412 -1203q14 -36 14 -63t-25 -39q-24 -8 -161 -8q-27 0 -41 14q-15 14 -25 49l-119 344h-524zM442 604
h410l-203 641q-29 -105 -207 -641zM668 1563q-42 -31 -95 -31q-30 0 -86 8q-34 6 -34 31t28 49l236 197q47 41 94 41q20 0 139 -9q47 -6 47 -37t-32 -51z" />
    <glyph glyph-name="Acircumflex" unicode="&#xc2;" horiz-adv-x="1292" 
d="M383 401l-117 -344q-12 -38 -23 -50q-12 -13 -38 -13q-132 0 -164 8q-25 8 -25 37q0 27 15 61l420 1203q28 82 64 117q35 34 120 34h51q77 0 108 -31q29 -29 58 -116l412 -1203q14 -36 14 -63t-25 -39q-24 -8 -161 -8q-27 0 -41 14q-15 14 -25 49l-119 344h-524zM442 604
h410l-203 641q-29 -105 -207 -641zM412 1550q-40 0 -76 9q-41 11 -41 36q0 23 20 43l201 201q51 51 96 51h84q43 0 86 -43l209 -215q17 -17 17 -37q0 -28 -41 -36q-59 -9 -84 -9q-38 0 -84 41l-150 131l-151 -133q-40 -39 -86 -39z" />
    <glyph glyph-name="Atilde" unicode="&#xc3;" horiz-adv-x="1292" 
d="M383 401l-117 -344q-12 -38 -23 -50q-12 -13 -38 -13q-132 0 -164 8q-25 8 -25 37q0 27 15 61l420 1203q28 82 64 117q35 34 120 34h51q77 0 108 -31q29 -29 58 -116l412 -1203q14 -36 14 -63t-25 -39q-24 -8 -161 -8q-27 0 -41 14q-15 14 -25 49l-119 344h-524zM442 604
h410l-203 641q-29 -105 -207 -641zM389 1554q-24 0 -57 7q-33 11 -33 45q0 16 12 53q69 182 195 182q59 0 162 -53q72 -39 116 -39q54 0 82 61q21 43 60 43q28 0 49 -6q39 -6 39 -39q0 -23 -13 -65q-61 -178 -194 -178q-61 0 -168 55q-79 39 -115 39q-48 0 -75 -57
q-23 -48 -60 -48z" />
    <glyph glyph-name="Adieresis" unicode="&#xc4;" horiz-adv-x="1292" 
d="M383 401l-117 -344q-12 -38 -23 -50q-12 -13 -38 -13q-132 0 -164 8q-25 8 -25 37q0 27 15 61l420 1203q28 82 64 117q35 34 120 34h51q77 0 108 -31q29 -29 58 -116l412 -1203q14 -36 14 -63t-25 -39q-24 -8 -161 -8q-27 0 -41 14q-15 14 -25 49l-119 344h-524zM442 604
h410l-203 641q-29 -105 -207 -641zM561 1692q0 -125 -115 -125q-116 0 -116 123q0 127 116 127q115 0 115 -125zM965 1692q0 -125 -117 -125q-113 0 -113 123q0 127 113 127q56 0 87 -28q30 -27 30 -97z" />
    <glyph glyph-name="Aring" unicode="&#xc5;" horiz-adv-x="1292" 
d="M383 401l-117 -344q-12 -38 -23 -50q-12 -13 -38 -13q-132 0 -164 8q-25 8 -25 37q0 27 15 61l420 1203q28 82 64 117q35 34 120 34h51q77 0 108 -31q29 -29 58 -116l412 -1203q14 -36 14 -63t-25 -39q-24 -8 -161 -8q-27 0 -41 14q-15 14 -25 49l-119 344h-524zM442 604
h410l-203 641q-29 -105 -207 -641zM838 1698q0 -89 -54 -140t-141 -51q-85 0 -134 49q-50 50 -50 142t52 144t138 52t137 -52q52 -54 52 -144zM754 1702q0 115 -109 115q-49 0 -79 -30q-29 -29 -29 -87q0 -57 29 -86q31 -31 81 -31q107 0 107 119z" />
    <glyph glyph-name="AE" unicode="&#xc6;" horiz-adv-x="1986" 
d="M528 418l-245 -375q-33 -47 -78 -47q-99 0 -154 4q-41 2 -41 37q0 20 25 59l770 1209q52 81 97 110q48 31 124 31h811q51 0 51 -49v-117q0 -43 -51 -43h-580v-383h525q51 0 51 -49v-115q0 -45 -51 -45h-525v-356q0 -80 78 -80h537q27 0 38 -11t11 -40v-113q0 -45 -49 -45
h-645q-98 0 -153 44q-54 43 -54 159v215h-492zM641 623h379v606q-51 -88 -379 -606z" />
    <glyph glyph-name="Ccedilla" unicode="&#xc7;" horiz-adv-x="1212" 
d="M709 -113q64 -2 104 -18q41 -17 59 -49q19 -35 25 -64q6 -30 6 -75q0 -218 -289 -218q-57 0 -106 11q-43 7 -43 47q0 32 6 59q11 41 53 41q10 0 54 -6q28 -2 49 -2q86 0 86 68q0 37 -19 53q-17 14 -65 14h-35q-43 0 -43 39q0 37 8 74l25 116q-239 23 -357 189t-118 534
q0 414 137 593q138 180 481 180q213 0 340 -31q51 -12 51 -51q0 -57 -24 -125q-8 -25 -39 -25q-24 0 -68 10q-96 21 -244 21q-231 0 -312 -128t-81 -413q0 -289 80 -423t299 -134q146 0 291 37q44 12 67 12q27 0 37 -28q23 -64 23 -109q0 -34 -47 -51q-168 -56 -375 -62z
" />
    <glyph glyph-name="Egrave" unicode="&#xc8;" horiz-adv-x="1150" 
d="M1034 0h-637q-107 0 -159 47t-52 162v1022q0 110 50 163q49 52 159 52h606q52 0 52 -49v-117q0 -43 -52 -43h-514q-65 0 -65 -76v-307h524q53 0 53 -49v-115q0 -45 -53 -45h-524v-356q0 -45 17 -62q18 -18 61 -18h534q53 0 53 -51v-113q0 -45 -53 -45zM604 1581l-299 201
q-31 19 -31 49q0 31 48 37q101 8 139 8q47 0 94 -41l238 -197q26 -23 26 -49q0 -24 -35 -30q-59 -9 -84 -9q-50 0 -96 31z" />
    <glyph glyph-name="Eacute" unicode="&#xc9;" horiz-adv-x="1150" 
d="M1034 0h-637q-107 0 -159 47t-52 162v1022q0 110 50 163q49 52 159 52h606q52 0 52 -49v-117q0 -43 -52 -43h-514q-65 0 -65 -76v-307h524q53 0 53 -49v-115q0 -45 -53 -45h-524v-356q0 -45 17 -62q18 -18 61 -18h534q53 0 53 -51v-113q0 -45 -53 -45zM709 1563
q-42 -31 -95 -31q-30 0 -86 8q-34 6 -34 31t28 49l236 197q47 41 94 41q20 0 139 -9q47 -6 47 -37t-32 -51z" />
    <glyph glyph-name="Ecircumflex" unicode="&#xca;" horiz-adv-x="1150" 
d="M1034 0h-637q-107 0 -159 47t-52 162v1022q0 110 50 163q49 52 159 52h606q52 0 52 -49v-117q0 -43 -52 -43h-514q-65 0 -65 -76v-307h524q53 0 53 -49v-115q0 -45 -53 -45h-524v-356q0 -45 17 -62q18 -18 61 -18h534q53 0 53 -51v-113q0 -45 -53 -45zM399 1550
q-39 0 -75 9q-41 11 -41 36q0 23 20 43l201 201q51 51 96 51h84q43 0 86 -43l209 -215q16 -16 16 -37q0 -28 -41 -36q-59 -9 -84 -9q-38 0 -84 41l-149 131l-152 -133q-41 -39 -86 -39z" />
    <glyph glyph-name="Edieresis" unicode="&#xcb;" horiz-adv-x="1150" 
d="M1034 0h-637q-107 0 -159 47t-52 162v1022q0 110 50 163q49 52 159 52h606q52 0 52 -49v-117q0 -43 -52 -43h-514q-65 0 -65 -76v-307h524q53 0 53 -49v-115q0 -45 -53 -45h-524v-356q0 -45 17 -62q18 -18 61 -18h534q53 0 53 -51v-113q0 -45 -53 -45zM551 1692
q0 -125 -115 -125q-117 0 -117 123q0 127 117 127q115 0 115 -125zM954 1692q0 -125 -116 -125q-113 0 -113 123q0 127 113 127q56 0 87 -28q29 -26 29 -97z" />
    <glyph glyph-name="Igrave" unicode="&#xcc;" horiz-adv-x="608" 
d="M422 51q0 -55 -51 -55h-135q-50 0 -50 55v1344q0 55 52 55h137q47 0 47 -53v-1346zM281 1581l-299 201q-31 19 -31 49q0 31 47 37q101 8 139 8q47 0 94 -41l238 -197q27 -24 27 -49q0 -24 -35 -30q-59 -9 -84 -9q-49 0 -96 31z" />
    <glyph glyph-name="Iacute" unicode="&#xcd;" horiz-adv-x="608" 
d="M422 51q0 -55 -51 -55h-135q-50 0 -50 55v1344q0 55 52 55h137q47 0 47 -53v-1346zM336 1581q-42 -31 -94 -31q-23 0 -86 9q-35 6 -35 30q0 25 29 49l235 197q47 41 94 41q33 0 139 -8q48 -6 48 -37q0 -30 -33 -51z" />
    <glyph glyph-name="Icircumflex" unicode="&#xce;" horiz-adv-x="608" 
d="M422 51q0 -55 -51 -55h-135q-50 0 -50 55v1344q0 55 52 55h137q47 0 47 -53v-1346zM61 1550q-39 0 -75 9q-41 11 -41 36q0 23 20 43l201 201q51 51 96 51h84q43 0 86 -43l209 -215q16 -16 16 -37q0 -28 -41 -36q-59 -9 -84 -9q-37 0 -83 41l-150 131l-152 -133
q-40 -39 -86 -39z" />
    <glyph glyph-name="Idieresis" unicode="&#xcf;" horiz-adv-x="608" 
d="M422 51q0 -55 -51 -55h-135q-50 0 -50 55v1344q0 55 52 55h137q47 0 47 -53v-1346zM215 1692q0 -125 -115 -125q-116 0 -116 123q0 127 116 127q115 0 115 -125zM618 1692q0 -125 -116 -125q-113 0 -113 123q0 127 113 127q56 0 87 -28q29 -26 29 -97z" />
    <glyph glyph-name="Eth" unicode="&#xd0;" horiz-adv-x="1437" 
d="M565 0h-176q-107 0 -155 48t-48 157v450h-102q-49 0 -49 45v95q0 45 51 45h100v393q0 107 51 161q49 52 156 52h193q250 0 381 -39q362 -105 362 -668q0 -279 -82 -446q-83 -168 -286 -244q-129 -49 -396 -49zM422 289q0 -80 76 -80h133q153 0 243 41q119 56 165 173
t46 314q0 191 -43 301q-43 111 -155 160q-90 41 -266 41h-132q-67 0 -67 -78v-321h305q51 0 51 -45v-97q0 -43 -49 -43h-307v-366z" />
    <glyph glyph-name="Ntilde" unicode="&#xd1;" horiz-adv-x="1497" 
d="M416 51q0 -55 -54 -55h-126q-50 0 -50 55v1237q0 86 37 126t121 40h64q47 0 76 -16t43 -36q13 -19 38 -67q406 -774 525 -1044q-5 195 -5 1093q0 66 56 66h121q49 0 49 -61v-1268q0 -79 -36 -107q-35 -28 -97 -28h-54q-71 0 -104 27t-74 108q-409 785 -534 1055
q4 -280 4 -1125zM492 1554q-25 0 -58 7q-33 11 -33 45q0 12 13 53q69 182 194 182q59 0 162 -53q72 -39 117 -39q54 0 82 61q21 43 59 43q28 0 49 -6q39 -6 39 -39q0 -26 -12 -65q-61 -178 -195 -178q-61 0 -168 55q-79 39 -114 39q-49 0 -76 -57q-23 -48 -59 -48z" />
    <glyph glyph-name="Ograve" unicode="&#xd2;" horiz-adv-x="1433" 
d="M1325 733q0 -223 -36 -372q-35 -146 -116 -233q-80 -86 -190 -120q-113 -35 -274 -35q-162 0 -267 34q-107 35 -184 119q-78 86 -114 233q-35 144 -35 372q0 224 45 374q45 151 133 228q91 80 191 109q107 31 247 31q127 0 218 -17q92 -17 166 -62q78 -47 122 -128
q45 -82 69 -213q25 -136 25 -320zM1081 729q0 227 -38 347q-37 118 -111 157q-73 39 -215 39q-94 0 -158 -23q-63 -23 -113 -80q-47 -55 -72 -165q-24 -108 -24 -273q0 -172 22 -288q21 -111 71 -170q47 -56 112 -78q61 -21 158 -21q94 0 156 20q61 20 113 76t76 170
q23 108 23 289zM700 1581l-299 201q-30 18 -30 49t47 37q101 8 139 8q47 0 94 -41l238 -197q26 -23 26 -49q0 -24 -34 -30q-59 -9 -84 -9q-51 0 -97 31z" />
    <glyph glyph-name="Oacute" unicode="&#xd3;" horiz-adv-x="1433" 
d="M1325 733q0 -223 -36 -372q-35 -146 -116 -233q-80 -86 -190 -120q-113 -35 -274 -35q-162 0 -267 34q-107 35 -184 119q-78 86 -114 233q-35 144 -35 372q0 224 45 374q45 151 133 228q91 80 191 109q107 31 247 31q127 0 218 -17q92 -17 166 -62q78 -47 122 -128
q45 -82 69 -213q25 -136 25 -320zM1081 729q0 227 -38 347q-37 118 -111 157q-73 39 -215 39q-94 0 -158 -23q-63 -23 -113 -80q-47 -55 -72 -165q-24 -108 -24 -273q0 -172 22 -288q21 -111 71 -170q47 -56 112 -78q61 -21 158 -21q94 0 156 20q61 20 113 76t76 170
q23 108 23 289zM739 1581q-42 -31 -94 -31q-23 0 -86 9q-35 6 -35 30q0 25 29 49l235 197q47 41 95 41q33 0 139 -8q47 -6 47 -37q0 -30 -33 -51z" />
    <glyph glyph-name="Ocircumflex" unicode="&#xd4;" horiz-adv-x="1433" 
d="M1325 733q0 -223 -36 -372q-35 -146 -116 -233q-80 -86 -190 -120q-113 -35 -274 -35q-162 0 -267 34q-107 35 -184 119q-78 86 -114 233q-35 144 -35 372q0 224 45 374q45 151 133 228q91 80 191 109q107 31 247 31q127 0 218 -17q92 -17 166 -62q78 -47 122 -128
q45 -82 69 -213q25 -136 25 -320zM1081 729q0 227 -38 347q-37 118 -111 157q-73 39 -215 39q-94 0 -158 -23q-63 -23 -113 -80q-47 -55 -72 -165q-24 -108 -24 -273q0 -172 22 -288q21 -111 71 -170q47 -56 112 -78q61 -21 158 -21q94 0 156 20q61 20 113 76t76 170
q23 108 23 289zM479 1550q-40 0 -76 9q-41 11 -41 36q0 22 21 43l201 201q51 51 96 51h84q43 0 86 -43l209 -215q16 -16 16 -37q0 -28 -41 -36q-59 -9 -84 -9q-38 0 -84 41l-149 131l-152 -133q-41 -39 -86 -39z" />
    <glyph glyph-name="Otilde" unicode="&#xd5;" horiz-adv-x="1433" 
d="M1325 733q0 -223 -36 -372q-35 -146 -116 -233q-80 -86 -190 -120q-113 -35 -274 -35q-162 0 -267 34q-107 35 -184 119q-78 86 -114 233q-35 144 -35 372q0 224 45 374q45 151 133 228q91 80 191 109q107 31 247 31q127 0 218 -17q92 -17 166 -62q78 -47 122 -128
q45 -82 69 -213q25 -136 25 -320zM1081 729q0 227 -38 347q-37 118 -111 157q-73 39 -215 39q-94 0 -158 -23q-63 -23 -113 -80q-47 -55 -72 -165q-24 -108 -24 -273q0 -172 22 -288q21 -111 71 -170q47 -56 112 -78q61 -21 158 -21q94 0 156 20q61 20 113 76t76 170
q23 108 23 289zM457 1554q-27 0 -58 7q-32 10 -32 45q0 16 12 53q69 182 194 182q59 0 162 -53q72 -39 117 -39q54 0 82 61q21 43 59 43q27 0 49 -6q39 -6 39 -39q0 -26 -12 -65q-61 -178 -195 -178q-60 0 -167 55q-79 39 -115 39q-49 0 -76 -57q-25 -48 -59 -48z" />
    <glyph glyph-name="Odieresis" unicode="&#xd6;" horiz-adv-x="1433" 
d="M1325 733q0 -223 -36 -372q-35 -146 -116 -233q-80 -86 -190 -120q-113 -35 -274 -35q-162 0 -267 34q-107 35 -184 119q-78 86 -114 233q-35 144 -35 372q0 224 45 374q45 151 133 228q91 80 191 109q107 31 247 31q127 0 218 -17q92 -17 166 -62q78 -47 122 -128
q45 -82 69 -213q25 -136 25 -320zM1081 729q0 227 -38 347q-37 118 -111 157q-73 39 -215 39q-94 0 -158 -23q-63 -23 -113 -80q-47 -55 -72 -165q-24 -108 -24 -273q0 -172 22 -288q21 -111 71 -170q47 -56 112 -78q61 -21 158 -21q94 0 156 20q61 20 113 76t76 170
q23 108 23 289zM645 1692q0 -125 -115 -125q-116 0 -116 123q0 127 116 127q115 0 115 -125zM1049 1692q0 -125 -117 -125q-113 0 -113 123q0 127 113 127q56 0 87 -28q30 -27 30 -97z" />
    <glyph glyph-name="multiply" unicode="&#xd7;" horiz-adv-x="1435" 
d="M1135 309q18 -21 18 -39q0 -21 -18 -39l-41 -41q-22 -22 -39 -22t-37 20l-303 295l-299 -297q-18 -18 -39 -18q-19 0 -37 18l-39 39q-18 18 -18 37q0 23 18 41l303 303l-309 303q-19 19 -19 39t19 39l45 41q19 19 37 19t39 -21l301 -301l309 303q19 19 37 19q20 0 39 -19
l37 -41q18 -18 18 -39q0 -24 -18 -41l-310 -301z" />
    <glyph glyph-name="Oslash" unicode="&#xd8;" horiz-adv-x="1433" 
d="M219 -41q-15 -18 -31 -18q-19 0 -67 36q-15 12 -15 23q0 15 15 33l100 139q-112 173 -112 559q0 224 45 374t132 228q89 80 191 109q108 31 248 31q260 0 385 -80l84 114q13 19 31 19q10 0 24 -10q56 -35 56 -50q0 -10 -13 -28l-92 -127q125 -169 125 -578
q0 -295 -70 -465q-69 -168 -198 -231q-131 -64 -350 -64q-271 0 -402 105zM1081 729q0 232 -41 361l-596 -820q76 -96 269 -96q94 0 156 20q61 20 113 76t76 170q23 108 23 289zM350 731q0 -217 35 -336l586 807q-78 70 -254 70q-94 0 -158 -23q-63 -23 -113 -80
q-47 -55 -72 -165q-24 -108 -24 -273z" />
    <glyph glyph-name="Ugrave" unicode="&#xd9;" horiz-adv-x="1427" 
d="M1255 1399v-821q0 -164 -12 -254q-12 -92 -49 -154q-115 -199 -494 -199q-384 0 -483 213q-45 99 -45 389v826q0 51 51 51h142q43 0 43 -51v-885q0 -179 43 -244q66 -96 262 -96q213 0 270 92q45 69 45 242v891q0 51 51 51h131q45 0 45 -51zM696 1581l-299 201
q-30 18 -30 49t47 37q101 8 139 8q47 0 94 -41l238 -197q26 -23 26 -49q0 -24 -34 -30q-59 -9 -84 -9q-51 0 -97 31z" />
    <glyph glyph-name="Uacute" unicode="&#xda;" horiz-adv-x="1427" 
d="M1255 1399v-821q0 -164 -12 -254q-12 -92 -49 -154q-115 -199 -494 -199q-384 0 -483 213q-45 99 -45 389v826q0 51 51 51h142q43 0 43 -51v-885q0 -179 43 -244q66 -96 262 -96q213 0 270 92q45 69 45 242v891q0 51 51 51h131q45 0 45 -51zM737 1581q-42 -31 -94 -31
q-23 0 -86 9q-35 6 -35 30q0 25 29 49l235 197q47 41 95 41q33 0 139 -8q47 -6 47 -37q0 -30 -33 -51z" />
    <glyph glyph-name="Ucircumflex" unicode="&#xdb;" horiz-adv-x="1427" 
d="M1255 1399v-821q0 -164 -12 -254q-12 -92 -49 -154q-115 -199 -494 -199q-384 0 -483 213q-45 99 -45 389v826q0 51 51 51h142q43 0 43 -51v-885q0 -179 43 -244q66 -96 262 -96q213 0 270 92q45 69 45 242v891q0 51 51 51h131q45 0 45 -51zM483 1550q-39 0 -75 9
q-41 11 -41 36q0 23 20 43l201 201q51 51 96 51h84q43 0 86 -43l209 -215q16 -16 16 -37q0 -28 -41 -36q-59 -9 -84 -9q-38 0 -84 41l-149 131l-152 -133q-41 -39 -86 -39z" />
    <glyph glyph-name="Udieresis" unicode="&#xdc;" horiz-adv-x="1427" 
d="M1255 1399v-821q0 -164 -12 -254q-12 -92 -49 -154q-115 -199 -494 -199q-384 0 -483 213q-45 99 -45 389v826q0 51 51 51h142q43 0 43 -51v-885q0 -179 43 -244q66 -96 262 -96q213 0 270 92q45 69 45 242v891q0 51 51 51h131q45 0 45 -51zM637 1692q0 -125 -115 -125
q-116 0 -116 123q0 127 116 127q115 0 115 -125zM1040 1692q0 -125 -116 -125q-113 0 -113 123q0 127 113 127q56 0 87 -28q29 -26 29 -97z" />
    <glyph glyph-name="Yacute" unicode="&#xdd;" horiz-adv-x="1212" 
d="M725 53q0 -57 -51 -57h-135q-50 0 -50 57v557l-454 733q-27 45 -27 66q0 24 25 35q19 8 182 8q42 0 72 -51q249 -405 327 -553q77 142 328 547q34 57 78 57q127 0 162 -8q22 -7 22 -31q0 -25 -22 -63l-457 -734v-563zM653 1573q-42 -31 -94 -31q-30 0 -86 8q-35 6 -35 31
t29 49l235 197q47 41 95 41q33 0 139 -8q47 -6 47 -37q0 -30 -33 -51z" />
    <glyph glyph-name="Thorn" unicode="&#xde;" horiz-adv-x="1290" 
d="M422 311v-260q0 -26 -14 -40q-15 -15 -37 -15h-135q-50 0 -50 55v1344q0 55 52 55h135q49 0 49 -53v-223h156q283 0 401 -50q205 -82 205 -376q0 -322 -271 -402q-125 -35 -321 -35h-170zM422 504h182q152 0 221 26q119 47 119 205q0 167 -117 213q-60 27 -231 27h-174
v-471z" />
    <glyph glyph-name="germandbls" unicode="&#xdf;" horiz-adv-x="1177" 
d="M389 45q0 -49 -47 -49h-135q-45 0 -45 51v948q0 241 37 324q101 219 442 219q207 0 301 -88t94 -268q0 -160 -57 -245t-186 -120q174 -21 244 -106q71 -86 71 -269q0 -246 -115 -346q-58 -50 -171 -80q-114 -30 -236 -30q-63 0 -68 41q-4 25 -4 94q0 45 43 51
q219 16 279 78q45 50 45 199q0 129 -59 179q-60 51 -226 58q-54 5 -77 25t-23 77t20 78q21 22 68 27q111 12 169 68q56 55 56 182q0 105 -47 152q-46 46 -146 46q-159 0 -202 -94q-25 -53 -25 -219v-983z" />
    <glyph glyph-name="agrave" unicode="&#xe0;" horiz-adv-x="1097" 
d="M952 172q0 -66 -22 -92q-22 -31 -66 -47q-60 -24 -175 -42t-222 -18q-215 0 -296 88q-81 89 -81 242q0 176 115 250q98 61 323 61q122 0 199 -8v68q0 77 -12 110q-27 70 -191 70q-100 0 -215 -23q-80 -12 -82 -12q-29 0 -39 33q-16 60 -16 100q0 39 41 54q161 47 344 47
q246 0 326 -80q69 -67 69 -271v-530zM727 442q-103 9 -172 9q-150 0 -203 -35q-45 -27 -45 -107q0 -78 40 -118q39 -39 149 -39q123 0 188 26q29 12 35 35q8 26 8 70v159zM496 1219l-230 243q-26 29 -26 51q0 29 45 37q49 6 121 6q53 0 86 -45l184 -239q18 -27 18 -45
q0 -29 -35 -35q-37 -6 -81 -6q-48 0 -82 33z" />
    <glyph glyph-name="aacute" unicode="&#xe1;" horiz-adv-x="1097" 
d="M952 172q0 -66 -22 -92q-22 -31 -66 -47q-60 -24 -175 -42t-222 -18q-215 0 -296 88q-81 89 -81 242q0 176 115 250q98 61 323 61q122 0 199 -8v68q0 77 -12 110q-27 70 -191 70q-100 0 -215 -23q-80 -12 -82 -12q-29 0 -39 33q-16 60 -16 100q0 39 41 54q161 47 344 47
q246 0 326 -80q69 -67 69 -271v-530zM727 442q-103 9 -172 9q-150 0 -203 -35q-45 -27 -45 -107q0 -78 40 -118q39 -39 149 -39q123 0 188 26q29 12 35 35q8 26 8 70v159zM614 1219q-27 -33 -82 -33q-42 0 -79 6q-35 6 -35 35q0 20 18 47l185 237q35 45 86 45q71 0 120 -6
q45 -4 45 -37q0 -22 -26 -51z" />
    <glyph glyph-name="acircumflex" unicode="&#xe2;" horiz-adv-x="1097" 
d="M952 172q0 -66 -22 -92q-22 -31 -66 -47q-60 -24 -175 -42t-222 -18q-215 0 -296 88q-81 89 -81 242q0 176 115 250q98 61 323 61q122 0 199 -8v68q0 77 -12 110q-27 70 -191 70q-100 0 -215 -23q-80 -12 -82 -12q-29 0 -39 33q-16 60 -16 100q0 39 41 54q161 47 344 47
q246 0 326 -80q69 -67 69 -271v-530zM727 442q-103 9 -172 9q-150 0 -203 -35q-45 -27 -45 -107q0 -78 40 -118q39 -39 149 -39q123 0 188 26q29 12 35 35q8 26 8 70v159zM340 1178q-39 0 -66 6q-43 6 -43 37q0 18 17 41l180 243q33 47 82 47h80q48 0 78 -41l182 -247
q16 -22 16 -43q0 -31 -41 -37q-35 -6 -69 -6q-43 0 -72 36l-137 170l-133 -167q-33 -39 -74 -39z" />
    <glyph glyph-name="atilde" unicode="&#xe3;" horiz-adv-x="1097" 
d="M952 172q0 -66 -22 -92q-22 -31 -66 -47q-60 -24 -175 -42t-222 -18q-215 0 -296 88q-81 89 -81 242q0 176 115 250q98 61 323 61q122 0 199 -8v68q0 77 -12 110q-27 70 -191 70q-100 0 -215 -23q-80 -12 -82 -12q-29 0 -39 33q-16 60 -16 100q0 39 41 54q161 47 344 47
q246 0 326 -80q69 -67 69 -271v-530zM727 442q-103 9 -172 9q-150 0 -203 -35q-45 -27 -45 -107q0 -78 40 -118q39 -39 149 -39q123 0 188 26q29 12 35 35q8 26 8 70v159zM289 1204q-36 0 -51 4q-39 8 -39 41q0 13 12 51q78 187 186 187q50 0 156 -55q83 -39 113 -39
q46 0 73 61q21 43 60 43q25 0 49 -6q37 -7 37 -37q0 -25 -17 -76q-60 -166 -180 -166q-56 0 -164 54q-78 39 -104 39q-42 0 -70 -54q-23 -47 -61 -47z" />
    <glyph glyph-name="adieresis" unicode="&#xe4;" horiz-adv-x="1097" 
d="M952 172q0 -66 -22 -92q-22 -31 -66 -47q-60 -24 -175 -42t-222 -18q-215 0 -296 88q-81 89 -81 242q0 176 115 250q98 61 323 61q122 0 199 -8v68q0 77 -12 110q-27 70 -191 70q-100 0 -215 -23q-80 -12 -82 -12q-29 0 -39 33q-16 60 -16 100q0 39 41 54q161 47 344 47
q246 0 326 -80q69 -67 69 -271v-530zM727 442q-103 9 -172 9q-150 0 -203 -35q-45 -27 -45 -107q0 -78 40 -118q39 -39 149 -39q123 0 188 26q29 12 35 35q8 26 8 70v159zM487 1348q0 -125 -114 -125q-117 0 -117 123q0 124 117 124q114 0 114 -122zM870 1348
q0 -125 -116 -125q-113 0 -113 123q0 124 113 124q116 0 116 -122z" />
    <glyph glyph-name="aring" unicode="&#xe5;" horiz-adv-x="1097" 
d="M952 172q0 -66 -22 -92q-22 -31 -66 -47q-60 -24 -175 -42t-222 -18q-215 0 -296 88q-81 89 -81 242q0 176 115 250q98 61 323 61q122 0 199 -8v68q0 77 -12 110q-27 70 -191 70q-100 0 -215 -23q-80 -12 -82 -12q-29 0 -39 33q-16 60 -16 100q0 39 41 54q161 47 344 47
q246 0 326 -80q69 -67 69 -271v-530zM727 442q-103 9 -172 9q-150 0 -203 -35q-45 -27 -45 -107q0 -78 40 -118q39 -39 149 -39q123 0 188 26q29 12 35 35q8 26 8 70v159zM754 1372q0 -96 -57 -147t-148 -51q-88 0 -142 51q-55 52 -55 147t57 149t146 54q93 0 145 -54
q54 -56 54 -149zM668 1376q0 123 -117 123q-54 0 -85 -33q-32 -34 -32 -92t32 -92q32 -33 87 -33q115 0 115 127z" />
    <glyph glyph-name="ae" unicode="&#xe6;" horiz-adv-x="1691" 
d="M840 96q-130 -123 -381 -123q-203 0 -286 89t-83 249q0 172 119 244q104 64 344 64q69 0 174 -3v62q0 73 -12 106q-29 70 -193 70q-108 0 -225 -25q-59 -10 -72 -10q-29 0 -39 37q-12 52 -12 100q0 35 41 50q161 47 338 47q136 0 217 -31q77 -30 102 -111q44 67 132 105
q87 37 190 37q134 0 220 -36t126 -115q41 -81 53 -164q13 -93 13 -224q0 -40 -21 -55q-13 -13 -43 -13h-596q1 -163 67 -222q64 -58 206 -58q150 0 251 29q29 8 54 8q29 0 41 -39q18 -69 18 -90q0 -34 -33 -49q-121 -52 -346 -52q-262 0 -364 123zM727 446q-50 5 -162 5
q-164 0 -215 -39q-43 -34 -43 -101q0 -78 43 -120q42 -41 152 -41q73 0 148 22q78 23 112 57q-35 78 -35 217zM948 621h447q2 16 2 38q0 115 -43 171q-44 57 -164 57q-129 0 -183 -66q-55 -67 -59 -200z" />
    <glyph glyph-name="ccedilla" unicode="&#xe7;" horiz-adv-x="948" 
d="M549 -106q58 -1 100 -19q39 -17 57 -48q17 -30 22 -61q5 -33 5 -73q0 -207 -276 -207q-64 0 -101 8q-43 12 -43 45q0 28 6 58q7 22 19 31q10 7 33 7q24 0 49 -4q28 -2 47 -2q86 0 86 64q0 37 -19 52q-20 15 -63 15h-33q-43 0 -43 39q0 23 11 70l24 115q-166 24 -249 144
q-83 121 -83 368q0 290 113 424q112 133 379 133q150 0 241 -27q35 -12 35 -45q0 -43 -20 -117q-10 -30 -37 -30q-13 0 -34 4t-27 4q-67 14 -156 14q-158 0 -211 -83t-53 -259q0 -184 52 -266t195 -82q105 0 193 18q42 11 59 11q24 0 35 -29q21 -76 21 -100q0 -38 -35 -50
q-111 -38 -287 -43z" />
    <glyph glyph-name="egrave" unicode="&#xe8;" horiz-adv-x="1069" 
d="M326 444q2 -164 69 -221t213 -57q134 0 234 27q44 10 57 10q30 0 41 -29q21 -50 21 -102q0 -30 -33 -45q-127 -54 -346 -54q-267 0 -378 126q-112 127 -112 409q0 286 119 416q119 129 362 129q111 0 189 -27q76 -26 121 -68q42 -39 65 -115q23 -77 29 -144q6 -69 6 -177
q0 -53 -18 -65q-16 -13 -45 -13h-594zM328 614h438q2 16 2 43q0 111 -43 163t-162 52q-126 0 -178 -64t-57 -194zM514 1219l-229 243q-27 30 -27 51q0 29 45 37q50 6 121 6q52 0 86 -45l184 -239q19 -28 19 -45q0 -29 -35 -35q-37 -6 -82 -6q-48 0 -82 33z" />
    <glyph glyph-name="eacute" unicode="&#xe9;" horiz-adv-x="1069" 
d="M326 444q2 -164 69 -221t213 -57q134 0 234 27q44 10 57 10q30 0 41 -29q21 -50 21 -102q0 -30 -33 -45q-127 -54 -346 -54q-267 0 -378 126q-112 127 -112 409q0 286 119 416q119 129 362 129q111 0 189 -27q76 -26 121 -68q42 -39 65 -115q23 -77 29 -144q6 -69 6 -177
q0 -53 -18 -65q-16 -13 -45 -13h-594zM328 614h438q2 16 2 43q0 111 -43 163t-162 52q-126 0 -178 -64t-57 -194zM602 1219q-27 -33 -82 -33q-42 0 -80 6q-34 6 -34 35q0 20 18 47l184 237q34 45 86 45q72 0 121 -6q45 -4 45 -37q0 -22 -26 -51z" />
    <glyph glyph-name="ecircumflex" unicode="&#xea;" horiz-adv-x="1069" 
d="M326 444q2 -164 69 -221t213 -57q134 0 234 27q44 10 57 10q30 0 41 -29q21 -50 21 -102q0 -30 -33 -45q-127 -54 -346 -54q-267 0 -378 126q-112 127 -112 409q0 286 119 416q119 129 362 129q111 0 189 -27q76 -26 121 -68q42 -39 65 -115q23 -77 29 -144q6 -69 6 -177
q0 -53 -18 -65q-16 -13 -45 -13h-594zM328 614h438q2 16 2 43q0 111 -43 163t-162 52q-126 0 -178 -64t-57 -194zM354 1178q-38 0 -65 6q-43 6 -43 37q0 19 16 41l180 243q33 47 82 47h80q48 0 78 -41l182 -247q17 -23 17 -43q0 -31 -41 -37q-33 -6 -70 -6q-43 0 -72 36
l-137 170l-133 -167q-33 -39 -74 -39z" />
    <glyph glyph-name="edieresis" unicode="&#xeb;" horiz-adv-x="1069" 
d="M326 444q2 -164 69 -221t213 -57q134 0 234 27q44 10 57 10q30 0 41 -29q21 -50 21 -102q0 -30 -33 -45q-127 -54 -346 -54q-267 0 -378 126q-112 127 -112 409q0 286 119 416q119 129 362 129q111 0 189 -27q76 -26 121 -68q42 -39 65 -115q23 -77 29 -144q6 -69 6 -177
q0 -53 -18 -65q-16 -13 -45 -13h-594zM328 614h438q2 16 2 43q0 111 -43 163t-162 52q-126 0 -178 -64t-57 -194zM483 1348q0 -125 -114 -125q-117 0 -117 123q0 124 117 124q114 0 114 -122zM866 1348q0 -125 -116 -125q-113 0 -113 123q0 124 113 124q116 0 116 -122z" />
    <glyph glyph-name="igrave" unicode="&#xec;" horiz-adv-x="534" 
d="M221 1219l-229 243q-27 30 -27 51q0 29 45 37q50 6 121 6q51 0 86 -45l184 -239q19 -28 19 -45q0 -29 -35 -35q-38 -6 -82 -6q-47 0 -82 33zM381 49q0 -53 -47 -53h-133q-45 0 -45 53v924q0 55 47 55h133q45 0 45 -53v-926z" />
    <glyph glyph-name="iacute" unicode="&#xed;" horiz-adv-x="534" 
d="M332 1219q-27 -33 -82 -33q-42 0 -80 6q-35 6 -35 35q0 19 19 47l184 237q34 45 86 45q72 0 121 -6q45 -4 45 -37q0 -21 -27 -51zM381 49q0 -53 -47 -53h-133q-45 0 -45 53v924q0 55 47 55h133q45 0 45 -53v-926z" />
    <glyph glyph-name="icircumflex" unicode="&#xee;" horiz-adv-x="534" 
d="M381 49q0 -53 -47 -53h-133q-45 0 -45 53v924q0 55 47 55h133q45 0 45 -53v-926zM59 1178q-37 0 -65 6q-43 6 -43 37q0 19 16 41l180 243q33 47 82 47h80q48 0 78 -41l182 -247q17 -23 17 -43q0 -31 -41 -37q-33 -6 -70 -6q-43 0 -72 36l-137 170l-133 -167
q-33 -39 -74 -39z" />
    <glyph glyph-name="idieresis" unicode="&#xef;" horiz-adv-x="534" 
d="M190 1348q0 -125 -114 -125q-117 0 -117 123q0 124 117 124q114 0 114 -122zM573 1348q0 -125 -116 -125q-113 0 -113 123q0 124 113 124q116 0 116 -122zM381 49q0 -53 -47 -53h-133q-45 0 -45 53v924q0 55 47 55h133q45 0 45 -53v-926z" />
    <glyph glyph-name="eth" unicode="&#xf0;" horiz-adv-x="1130" 
d="M985 1405l-108 -72q99 -120 134 -313q33 -184 33 -496q0 -315 -112 -433t-365 -118q-122 0 -206 23q-83 23 -144 82q-62 60 -90 166q-29 108 -29 270q0 158 34 261q36 108 99 160q68 55 144 76q78 21 184 21q71 0 144 -23q78 -24 106 -75q-30 175 -115 278l-133 -86
q-29 -18 -45 -18q-14 0 -35 29q-35 52 -35 67q0 19 27 37l102 66q-91 47 -229 59q-39 4 -39 37t12 90q6 37 48 37q29 0 59 -2q207 -18 336 -96l139 90q22 16 39 16t31 -20q41 -61 41 -76q0 -19 -27 -37zM815 508q0 200 -50 267t-187 67q-133 0 -192 -70q-58 -68 -58 -256
q0 -215 53 -283q52 -67 190 -67q136 0 190 64t54 278z" />
    <glyph glyph-name="ntilde" unicode="&#xf1;" horiz-adv-x="1193" 
d="M381 49q0 -53 -49 -53h-131q-47 0 -47 53v791q0 95 69 125q91 40 236 63q147 23 266 23q137 0 204 -32t91 -95q20 -54 20 -201v-674q0 -53 -47 -53h-133q-47 0 -47 53v625q0 75 -12 114q-11 37 -44 51q-35 15 -108 15q-132 0 -217 -35q-24 -7 -39 -24q-12 -16 -12 -56
v-690zM350 1204q-36 0 -51 4q-39 8 -39 41q0 13 12 51q78 187 187 187q49 0 155 -55q82 -39 113 -39q47 0 74 61q21 43 59 43q25 0 49 -6q37 -7 37 -37q0 -28 -16 -76q-60 -166 -180 -166q-56 0 -164 54q-78 39 -105 39q-41 0 -69 -54q-23 -47 -62 -47z" />
    <glyph glyph-name="ograve" unicode="&#xf2;" horiz-adv-x="1140" 
d="M1042 520q0 -314 -110 -430q-111 -117 -369 -117q-249 0 -357 114t-108 427q0 163 34 271q35 110 102 166q68 56 150 79q83 23 194 23q125 0 207 -20q79 -19 142 -75q62 -55 89 -161q26 -103 26 -277zM815 510q0 210 -50 278t-192 68q-128 0 -187 -70q-58 -68 -58 -268
q0 -216 52 -284t187 -68q137 0 193 66q55 65 55 278zM524 1219l-229 243q-27 30 -27 51q0 29 45 37q50 6 121 6q52 0 86 -45l185 -239q18 -27 18 -45q0 -29 -35 -35q-38 -6 -82 -6q-48 0 -82 33z" />
    <glyph glyph-name="oacute" unicode="&#xf3;" horiz-adv-x="1140" 
d="M1042 520q0 -314 -110 -430q-111 -117 -369 -117q-249 0 -357 114t-108 427q0 163 34 271q35 110 102 166q68 56 150 79q83 23 194 23q125 0 207 -20q79 -19 142 -75q62 -55 89 -161q26 -103 26 -277zM815 510q0 210 -50 278t-192 68q-128 0 -187 -70q-58 -68 -58 -268
q0 -216 52 -284t187 -68q137 0 193 66q55 65 55 278zM623 1219q-27 -33 -82 -33q-43 0 -80 6q-35 6 -35 35q0 20 18 47l185 237q35 45 86 45q71 0 121 -6q45 -4 45 -37q0 -21 -27 -51z" />
    <glyph glyph-name="ocircumflex" unicode="&#xf4;" horiz-adv-x="1140" 
d="M1042 520q0 -314 -110 -430q-111 -117 -369 -117q-249 0 -357 114t-108 427q0 163 34 271q35 110 102 166q68 56 150 79q83 23 194 23q125 0 207 -20q79 -19 142 -75q62 -55 89 -161q26 -103 26 -277zM815 510q0 210 -50 278t-192 68q-128 0 -187 -70q-58 -68 -58 -268
q0 -216 52 -284t187 -68q137 0 193 66q55 65 55 278zM371 1178q-39 0 -66 6q-43 6 -43 37q0 18 17 41l180 243q33 47 82 47h80q47 0 77 -41l183 -247q16 -22 16 -43q0 -31 -41 -37q-33 -6 -70 -6q-42 0 -71 36l-137 170l-134 -167q-33 -39 -73 -39z" />
    <glyph glyph-name="otilde" unicode="&#xf5;" horiz-adv-x="1140" 
d="M1042 520q0 -314 -110 -430q-111 -117 -369 -117q-249 0 -357 114t-108 427q0 163 34 271q35 110 102 166q68 56 150 79q83 23 194 23q125 0 207 -20q79 -19 142 -75q62 -55 89 -161q26 -103 26 -277zM815 510q0 210 -50 278t-192 68q-128 0 -187 -70q-58 -68 -58 -268
q0 -216 52 -284t187 -68q137 0 193 66q55 65 55 278zM322 1204q-37 0 -52 4q-39 8 -39 41q0 10 13 51q78 187 186 187q50 0 156 -55q82 -39 112 -39q47 0 74 61q21 43 59 43q26 0 50 -6q37 -7 37 -37q0 -25 -17 -76q-60 -166 -180 -166q-56 0 -164 54q-78 39 -104 39
q-42 0 -70 -54q-23 -47 -61 -47z" />
    <glyph glyph-name="odieresis" unicode="&#xf6;" horiz-adv-x="1140" 
d="M1042 520q0 -314 -110 -430q-111 -117 -369 -117q-249 0 -357 114t-108 427q0 163 34 271q35 110 102 166q68 56 150 79q83 23 194 23q125 0 207 -20q79 -19 142 -75q62 -55 89 -161q26 -103 26 -277zM815 510q0 210 -50 278t-192 68q-128 0 -187 -70q-58 -68 -58 -268
q0 -216 52 -284t187 -68q137 0 193 66q55 65 55 278zM500 1348q0 -125 -115 -125q-117 0 -117 123q0 124 117 124q115 0 115 -122zM883 1348q0 -125 -117 -125q-113 0 -113 123q0 124 113 124q117 0 117 -122z" />
    <glyph glyph-name="divide" unicode="&#xf7;" horiz-adv-x="1435" 
d="M717 840q-105 0 -105 112q0 57 31 86t78 29q102 0 102 -115q0 -112 -106 -112zM1204 520h-973q-47 0 -47 58v53q0 57 47 57h973q45 0 45 -57v-53q0 -58 -45 -58zM717 131q-105 0 -105 117q0 57 31 85q30 27 78 27q102 0 102 -112q0 -117 -106 -117z" />
    <glyph glyph-name="oslash" unicode="&#xf8;" horiz-adv-x="1140" 
d="M213 -68q-12 -16 -25 -16q-17 0 -63 35q-14 11 -14 22q0 12 14 29l72 98q-103 126 -103 414q0 162 36 271q35 108 106 166q68 56 151 79q84 23 195 23q181 0 274 -43l78 106q11 17 27 17q11 0 24 -9q49 -33 49 -47q0 -15 -8 -26l-78 -107q107 -119 107 -424
q0 -313 -114 -430t-372 -117q-185 0 -286 56zM834 510q0 162 -27 240l-401 -551q50 -39 165 -39q73 0 116 12q44 12 80 48t51 107q16 75 16 183zM317 518q0 -148 23 -219l391 539q-51 24 -153 24q-140 0 -200 -70q-61 -72 -61 -274z" />
    <glyph glyph-name="ugrave" unicode="&#xf9;" horiz-adv-x="1193" 
d="M154 340v635q0 53 47 53h133q47 0 47 -53v-604q0 -105 14 -133q27 -68 170 -68q136 0 195 20q23 7 39 25q14 14 14 59v701q0 53 49 53h131q47 0 47 -53v-809q0 -96 -69 -129q-149 -64 -445 -64q-294 0 -346 138q-26 64 -26 229zM547 1223l-230 243q-26 29 -26 52
q0 28 45 36q58 7 121 7q51 0 86 -45l184 -240q18 -27 18 -45q0 -29 -34 -35q-38 -6 -82 -6q-47 0 -82 33z" />
    <glyph glyph-name="uacute" unicode="&#xfa;" horiz-adv-x="1193" 
d="M154 340v635q0 53 47 53h133q47 0 47 -53v-604q0 -105 14 -133q27 -68 170 -68q136 0 195 20q23 7 39 25q14 14 14 59v701q0 53 49 53h131q47 0 47 -53v-809q0 -96 -69 -129q-149 -64 -445 -64q-294 0 -346 138q-26 64 -26 229zM649 1219q-27 -33 -82 -33q-43 0 -80 6
q-34 6 -34 35q0 20 18 47l184 237q33 45 86 45q71 0 121 -6q45 -4 45 -37q0 -22 -26 -51z" />
    <glyph glyph-name="ucircumflex" unicode="&#xfb;" horiz-adv-x="1193" 
d="M154 340v635q0 53 47 53h133q47 0 47 -53v-604q0 -105 14 -133q27 -68 170 -68q136 0 195 20q23 7 39 25q14 14 14 59v701q0 53 49 53h131q47 0 47 -53v-809q0 -96 -69 -129q-149 -64 -445 -64q-294 0 -346 138q-26 64 -26 229zM387 1178q-38 0 -65 6q-43 6 -43 37
q0 19 16 41l180 243q33 47 82 47h80q48 0 78 -41l182 -247q16 -22 16 -43q0 -31 -41 -37q-34 -6 -69 -6q-43 0 -72 36l-137 170l-133 -167q-33 -39 -74 -39z" />
    <glyph glyph-name="udieresis" unicode="&#xfc;" horiz-adv-x="1193" 
d="M154 340v635q0 53 47 53h133q47 0 47 -53v-604q0 -105 14 -133q27 -68 170 -68q136 0 195 20q23 7 39 25q14 14 14 59v701q0 53 49 53h131q47 0 47 -53v-809q0 -96 -69 -129q-149 -64 -445 -64q-294 0 -346 138q-26 64 -26 229zM520 1348q0 -125 -114 -125
q-117 0 -117 123q0 124 117 124q114 0 114 -122zM903 1348q0 -125 -117 -125q-112 0 -112 123q0 124 112 124q117 0 117 -122z" />
    <glyph glyph-name="yacute" unicode="&#xfd;" horiz-adv-x="1193" 
d="M154 305v670q0 53 47 53h133q47 0 47 -53v-621q0 -83 12 -116q24 -66 160 -66q128 0 207 35q24 7 39 24q14 14 14 54v690q0 53 49 53h131q47 0 47 -53v-916q0 -167 -26 -254q-40 -153 -207 -219q-164 -65 -473 -65q-29 0 -45 8q-14 7 -19 33q-6 45 -6 94q0 59 51 59
q249 7 348 41q96 32 123 101q21 51 21 139v43q-117 -66 -330 -66q-251 0 -301 131q-22 62 -22 201zM649 1219q-27 -33 -82 -33q-43 0 -80 6q-34 6 -34 35q0 20 18 47l184 237q33 45 86 45q71 0 121 -6q45 -4 45 -37q0 -22 -26 -51z" />
    <glyph glyph-name="thorn" unicode="&#xfe;" horiz-adv-x="1171" 
d="M381 -446q0 -30 -12 -42t-43 -12h-121q-26 0 -38 12q-11 11 -11 42v1921q0 34 11 45q12 12 42 12h119q33 0 43 -11t10 -44v-523q97 95 319 95q200 0 288 -118q89 -119 89 -411q0 -216 -54 -335q-53 -116 -156 -160q-101 -43 -281 -43q-138 0 -205 34v-462zM383 258
q0 -54 31 -65q52 -23 147 -23q173 0 230 74q57 73 57 286q0 181 -46 254q-47 74 -177 74q-122 0 -203 -35q-22 -12 -33 -30q-6 -12 -6 -54v-481z" />
    <glyph glyph-name="ydieresis" unicode="&#xff;" horiz-adv-x="1193" 
d="M154 305v670q0 53 47 53h133q47 0 47 -53v-621q0 -83 12 -116q24 -66 160 -66q128 0 207 35q24 7 39 24q14 14 14 54v690q0 53 49 53h131q47 0 47 -53v-916q0 -167 -26 -254q-40 -153 -207 -219q-164 -65 -473 -65q-29 0 -45 8q-14 7 -19 33q-6 45 -6 94q0 59 51 59
q249 7 348 41q96 32 123 101q21 51 21 139v43q-117 -66 -330 -66q-251 0 -301 131q-22 62 -22 201zM528 1348q0 -125 -114 -125q-117 0 -117 123q0 124 117 124q114 0 114 -122zM911 1348q0 -125 -116 -125q-113 0 -113 123q0 124 113 124q116 0 116 -122z" />
    <glyph glyph-name="Amacron" unicode="&#x100;" horiz-adv-x="1292" 
d="M383 401l-117 -344q-12 -38 -23 -50q-12 -13 -38 -13q-132 0 -164 8q-25 8 -25 37q0 27 15 61l420 1203q28 82 64 117q35 34 120 34h51q77 0 108 -31q29 -29 58 -116l412 -1203q14 -36 14 -63t-25 -39q-24 -8 -161 -8q-27 0 -41 14q-15 14 -25 49l-119 344h-524zM442 604
h410l-203 641q-29 -105 -207 -641zM909 1599h-522q-55 0 -55 50v84q0 49 57 49h518q54 0 54 -51v-84q0 -29 -12 -38q-13 -10 -40 -10z" />
    <glyph glyph-name="amacron" unicode="&#x101;" horiz-adv-x="1097" 
d="M952 172q0 -66 -22 -92q-22 -31 -66 -47q-60 -24 -175 -42t-222 -18q-215 0 -296 88q-81 89 -81 242q0 176 115 250q98 61 323 61q122 0 199 -8v68q0 77 -12 110q-27 70 -191 70q-100 0 -215 -23q-80 -12 -82 -12q-29 0 -39 33q-16 60 -16 100q0 39 41 54q161 47 344 47
q246 0 326 -80q69 -67 69 -271v-530zM727 442q-103 9 -172 9q-150 0 -203 -35q-45 -27 -45 -107q0 -78 40 -118q39 -39 149 -39q123 0 188 26q29 12 35 35q8 26 8 70v159zM797 1229h-490q-53 0 -53 51v82q0 49 53 49h488q53 0 53 -51v-86q0 -27 -12 -36t-39 -9z" />
    <glyph glyph-name="Abreve" unicode="&#x102;" horiz-adv-x="1292" 
d="M383 401l-117 -344q-12 -38 -23 -50q-12 -13 -38 -13q-132 0 -164 8q-25 8 -25 37q0 27 15 61l420 1203q28 82 64 117q35 34 120 34h51q77 0 108 -31q29 -29 58 -116l412 -1203q14 -36 14 -63t-25 -39q-24 -8 -161 -8q-27 0 -41 14q-15 14 -25 49l-119 344h-524zM442 604
h410l-203 641q-29 -105 -207 -641zM641 1546q-264 0 -305 199q-8 43 -8 67q0 46 43 56q27 6 61 6q41 0 51 -43q15 -61 49 -90q36 -31 113 -31q84 0 120 30t52 89q11 45 55 45q33 0 60 -6q35 -6 35 -47q0 -37 -13 -78q-29 -98 -99 -147q-71 -50 -214 -50z" />
    <glyph glyph-name="abreve" unicode="&#x103;" horiz-adv-x="1097" 
d="M952 172q0 -66 -22 -92q-22 -31 -66 -47q-60 -24 -175 -42t-222 -18q-215 0 -296 88q-81 89 -81 242q0 176 115 250q98 61 323 61q122 0 199 -8v68q0 77 -12 110q-27 70 -191 70q-100 0 -215 -23q-80 -12 -82 -12q-29 0 -39 33q-16 60 -16 100q0 39 41 54q161 47 344 47
q246 0 326 -80q69 -67 69 -271v-530zM727 442q-103 9 -172 9q-150 0 -203 -35q-45 -27 -45 -107q0 -78 40 -118q39 -39 149 -39q123 0 188 26q29 12 35 35q8 26 8 70v159zM768 1513q39 0 55 -4q35 -8 35 -47q0 -45 -12 -84q-56 -207 -299 -207q-253 0 -291 209
q-10 49 -10 72q0 48 43 55q24 6 57 6q23 0 33 -10q9 -9 14 -37q12 -63 47 -98t111 -35q80 0 114 34q33 33 50 97q12 49 53 49z" />
    <glyph glyph-name="Aogonek" unicode="&#x104;" horiz-adv-x="1292" 
d="M383 401l-117 -344q-12 -38 -23 -50q-12 -13 -38 -13q-132 0 -164 8q-25 8 -25 37q0 27 15 61l420 1203q28 82 64 117q35 34 120 34h51q77 0 108 -31q29 -29 58 -116l412 -1203q14 -36 14 -63t-25 -39q-11 -2 -51 -6q-107 -77 -151 -129q-43 -50 -43 -129
q0 -103 100 -103q11 0 57 4q35 3 39 3q33 0 41 -41q6 -24 6 -60q0 -34 -45 -49q-50 -12 -133 -12q-246 0 -246 223q0 115 58 182q56 65 168 121q-12 10 -27 51l-119 344h-524zM442 604h410l-203 641q-29 -105 -207 -641z" />
    <glyph glyph-name="aogonek" unicode="&#x105;" horiz-adv-x="1097" 
d="M952 172q0 -66 -22 -92q-15 -21 -41 -37q-201 -141 -201 -291q0 -98 96 -98q32 0 54 1t36 1q37 0 44 -37q6 -38 6 -57q0 -39 -50 -47q-47 -11 -122 -11q-240 0 -240 213q0 67 27 124t53 83q29 29 76 66q-94 -17 -201 -17q-215 0 -296 88q-81 89 -81 242q0 176 115 250
q98 61 323 61q122 0 199 -8v68q0 77 -12 110q-27 70 -191 70q-100 0 -215 -23q-80 -12 -82 -12q-29 0 -39 33q-16 60 -16 100q0 39 41 54q161 47 344 47q246 0 326 -80q69 -67 69 -271v-530zM727 442q-103 9 -172 9q-150 0 -203 -35q-45 -27 -45 -107q0 -78 40 -118
q39 -39 149 -39q123 0 188 26q29 12 35 35q8 26 8 70v159z" />
    <glyph glyph-name="Cacute" unicode="&#x106;" horiz-adv-x="1212" 
d="M350 731q0 -289 80 -423t299 -134q146 0 291 37q44 12 67 12q27 0 37 -28q23 -64 23 -109q0 -34 -47 -51q-177 -62 -424 -62q-285 0 -426 163q-141 164 -141 564q0 414 137 593q138 180 481 180q213 0 340 -31q51 -12 51 -51q0 -57 -24 -125q-8 -25 -39 -25q-24 0 -68 10
q-96 21 -244 21q-231 0 -312 -128t-81 -413zM760 1581q-42 -31 -94 -31q-23 0 -86 9q-35 6 -35 30q0 25 28 49l236 197q47 41 94 41q33 0 139 -8q48 -6 48 -37q0 -30 -33 -51z" />
    <glyph glyph-name="cacute" unicode="&#x107;" horiz-adv-x="948" 
d="M328 514q0 -184 52 -266t195 -82q105 0 193 18q42 11 59 11q24 0 35 -29q21 -76 21 -100q0 -38 -35 -50q-117 -43 -297 -43q-228 0 -340 118q-113 119 -113 405q0 290 113 424q112 133 379 133q150 0 241 -27q35 -12 35 -45q0 -43 -20 -117q-10 -30 -37 -30q-13 0 -34 4
t-27 4q-67 14 -156 14q-158 0 -211 -83t-53 -259zM616 1219q-27 -33 -81 -33q-43 0 -80 6q-35 6 -35 35q0 20 18 47l185 237q33 45 86 45q71 0 120 -6q45 -4 45 -37q0 -22 -26 -51z" />
    <glyph glyph-name="Ccircumflex" unicode="&#x108;" horiz-adv-x="1212" 
d="M350 731q0 -289 80 -423t299 -134q146 0 291 37q44 12 67 12q27 0 37 -28q23 -64 23 -109q0 -34 -47 -51q-177 -62 -424 -62q-285 0 -426 163q-141 164 -141 564q0 414 137 593q138 180 481 180q213 0 340 -31q51 -12 51 -51q0 -57 -24 -125q-8 -25 -39 -25q-24 0 -68 10
q-96 21 -244 21q-231 0 -312 -128t-81 -413zM483 1550q-39 0 -75 9q-41 11 -41 36q0 23 20 43l201 201q51 51 96 51h84q43 0 86 -43l209 -215q16 -16 16 -37q0 -28 -41 -36q-59 -9 -84 -9q-38 0 -84 41l-149 131l-152 -133q-41 -39 -86 -39z" />
    <glyph glyph-name="ccircumflex" unicode="&#x109;" horiz-adv-x="948" 
d="M328 514q0 -184 52 -266t195 -82q105 0 193 18q42 11 59 11q24 0 35 -29q21 -76 21 -100q0 -38 -35 -50q-117 -43 -297 -43q-228 0 -340 118q-113 119 -113 405q0 290 113 424q112 133 379 133q150 0 241 -27q35 -12 35 -45q0 -43 -20 -117q-10 -30 -37 -30q-13 0 -34 4
t-27 4q-67 14 -156 14q-158 0 -211 -83t-53 -259zM348 1178q-37 0 -65 6q-43 6 -43 37q0 19 16 41l180 243q33 47 82 47h80q48 0 78 -41l182 -247q16 -22 16 -43q0 -31 -40 -37q-35 -6 -70 -6q-43 0 -72 36l-137 170l-133 -167q-33 -39 -74 -39z" />
    <glyph glyph-name="Cdotaccent" unicode="&#x10a;" horiz-adv-x="1212" 
d="M350 731q0 -289 80 -423t299 -134q146 0 291 37q44 12 67 12q27 0 37 -28q23 -64 23 -109q0 -34 -47 -51q-177 -62 -424 -62q-285 0 -426 163q-141 164 -141 564q0 414 137 593q138 180 481 180q213 0 340 -31q51 -12 51 -51q0 -57 -24 -125q-8 -25 -39 -25q-24 0 -68 10
q-96 21 -244 21q-231 0 -312 -128t-81 -413zM831 1692q0 -125 -114 -125q-117 0 -117 123q0 127 117 127q114 0 114 -125z" />
    <glyph glyph-name="cdotaccent" unicode="&#x10b;" horiz-adv-x="948" 
d="M328 514q0 -184 52 -266t195 -82q105 0 193 18q42 11 59 11q24 0 35 -29q21 -76 21 -100q0 -38 -35 -50q-117 -43 -297 -43q-228 0 -340 118q-113 119 -113 405q0 290 113 424q112 133 379 133q150 0 241 -27q35 -12 35 -45q0 -43 -20 -117q-10 -30 -37 -30q-13 0 -34 4
t-27 4q-67 14 -156 14q-158 0 -211 -83t-53 -259zM674 1348q0 -125 -115 -125q-117 0 -117 123q0 124 117 124q115 0 115 -122z" />
    <glyph glyph-name="Ccaron" unicode="&#x10c;" horiz-adv-x="1212" 
d="M350 731q0 -289 80 -423t299 -134q146 0 291 37q44 12 67 12q27 0 37 -28q23 -64 23 -109q0 -34 -47 -51q-177 -62 -424 -62q-285 0 -426 163q-141 164 -141 564q0 414 137 593q138 180 481 180q213 0 340 -31q51 -12 51 -51q0 -57 -24 -125q-8 -25 -39 -25q-24 0 -68 10
q-96 21 -244 21q-231 0 -312 -128t-81 -413zM950 1896q45 0 78 -6q41 -8 41 -39q0 -15 -22 -41l-201 -202q-45 -49 -94 -49h-86q-44 0 -84 40l-209 216q-17 17 -17 38q0 29 41 37q37 6 82 6q40 0 86 -41l150 -131l151 136q42 36 84 36z" />
    <glyph glyph-name="ccaron" unicode="&#x10d;" horiz-adv-x="948" 
d="M328 514q0 -184 52 -266t195 -82q105 0 193 18q42 11 59 11q24 0 35 -29q21 -76 21 -100q0 -38 -35 -50q-117 -43 -297 -43q-228 0 -340 118q-113 119 -113 405q0 290 113 424q112 133 379 133q150 0 241 -27q35 -12 35 -45q0 -43 -20 -117q-10 -30 -37 -30q-13 0 -34 4
t-27 4q-67 14 -156 14q-158 0 -211 -83t-53 -259zM764 1559q34 0 65 -7q43 -6 43 -36q0 -15 -16 -41l-180 -244q-38 -47 -82 -47h-80q-48 0 -78 41l-182 248q-16 26 -16 43q0 30 41 36q40 7 69 7q42 0 72 -37l137 -168l133 166q33 39 74 39z" />
    <glyph glyph-name="Dcaron" unicode="&#x10e;" horiz-adv-x="1437" 
d="M565 0h-176q-107 0 -155 48t-48 157v1028q0 107 51 161q49 52 156 52h193q250 0 381 -39q362 -105 362 -668q0 -279 -82 -446q-83 -168 -286 -244q-129 -49 -396 -49zM422 289q0 -80 76 -80h133q153 0 243 41q119 56 165 173t46 314q0 191 -43 301q-43 111 -155 160
q-90 41 -266 41h-132q-67 0 -67 -78v-872zM924 1896q42 0 77 -6q41 -8 41 -39q0 -15 -22 -41l-201 -202q-45 -49 -94 -49h-86q-44 0 -84 40l-209 216q-16 16 -16 38q0 29 41 37q37 6 82 6q40 0 86 -41l149 -131l152 136q42 36 84 36z" />
    <glyph glyph-name="dcaron" unicode="&#x10f;" horiz-adv-x="1171" 
d="M1018 168q0 -53 -8 -72q-17 -36 -70 -59q-143 -64 -395 -64q-237 0 -342 113q-105 112 -105 406q0 318 117 440q117 121 379 121q135 0 199 -29v453q0 55 55 55h123q27 0 37 -11t10 -44v-1309zM793 279v491q0 51 -33 66q-41 20 -150 20q-168 0 -225 -78t-57 -284
q0 -177 50 -254q49 -76 179 -76q128 0 195 29q23 7 34 30q7 21 7 56zM1257 1532h60q61 0 61 -70q0 -220 -127 -356q-33 -37 -61 -37q-26 0 -53 18q-31 17 -31 46q0 23 14 45q63 104 64 284q0 70 73 70z" />
    <glyph glyph-name="Dcroat" unicode="&#x110;" horiz-adv-x="1437" 
d="M565 0h-176q-107 0 -155 48t-48 157v450h-102q-49 0 -49 45v95q0 45 51 45h100v393q0 107 51 161q49 52 156 52h193q250 0 381 -39q362 -105 362 -668q0 -279 -82 -446q-83 -168 -286 -244q-129 -49 -396 -49zM422 289q0 -80 76 -80h133q153 0 243 41q119 56 165 173
t46 314q0 191 -43 301q-43 111 -155 160q-90 41 -266 41h-132q-67 0 -67 -78v-321h305q51 0 51 -45v-97q0 -43 -49 -43h-307v-366z" />
    <glyph glyph-name="dcroat" unicode="&#x111;" horiz-adv-x="1171" 
d="M1018 168q0 -53 -8 -72q-17 -36 -70 -59q-143 -64 -395 -64q-237 0 -342 113q-105 112 -105 406q0 318 117 440q117 121 379 121q135 0 199 -29v158h-199q-47 0 -47 47v71q0 50 49 50h197v127q0 55 55 55h123q27 0 37 -11t10 -44v-127h92q51 0 51 -50v-75q0 -43 -49 -43
h-94v-1014zM793 279v491q0 51 -33 66q-41 20 -150 20q-168 0 -225 -78t-57 -284q0 -177 50 -254q49 -76 179 -76q128 0 195 29q23 7 34 30q7 21 7 56z" />
    <glyph glyph-name="Emacron" unicode="&#x112;" horiz-adv-x="1150" 
d="M1034 0h-637q-107 0 -159 47t-52 162v1022q0 110 50 163q49 52 159 52h606q52 0 52 -49v-117q0 -43 -52 -43h-514q-65 0 -65 -76v-307h524q53 0 53 -49v-115q0 -45 -53 -45h-524v-356q0 -45 17 -62q18 -18 61 -18h534q53 0 53 -51v-113q0 -45 -53 -45zM903 1599h-522
q-55 0 -55 50v84q0 49 57 49h518q53 0 53 -51v-84q0 -30 -11 -38q-13 -10 -40 -10z" />
    <glyph glyph-name="emacron" unicode="&#x113;" horiz-adv-x="1069" 
d="M326 444q2 -164 69 -221t213 -57q134 0 234 27q44 10 57 10q30 0 41 -29q21 -50 21 -102q0 -30 -33 -45q-127 -54 -346 -54q-267 0 -378 126q-112 127 -112 409q0 286 119 416q119 129 362 129q111 0 189 -27q76 -26 121 -68q42 -39 65 -115q23 -77 29 -144q6 -69 6 -177
q0 -53 -18 -65q-16 -13 -45 -13h-594zM328 614h438q2 16 2 43q0 111 -43 163t-162 52q-126 0 -178 -64t-57 -194zM811 1229h-489q-54 0 -54 51v82q0 49 54 49h487q53 0 53 -51v-86q0 -27 -12 -36t-39 -9z" />
    <glyph glyph-name="Ebreve" unicode="&#x114;" horiz-adv-x="1150" 
d="M1034 0h-637q-107 0 -159 47t-52 162v1022q0 110 50 163q49 52 159 52h606q52 0 52 -49v-117q0 -43 -52 -43h-514q-65 0 -65 -76v-307h524q53 0 53 -49v-115q0 -45 -53 -45h-524v-356q0 -45 17 -62q18 -18 61 -18h534q53 0 53 -51v-113q0 -45 -53 -45zM635 1546
q-264 0 -305 199q-8 43 -8 67q0 46 43 56q27 6 61 6q41 0 51 -43q15 -61 49 -90q36 -31 113 -31q84 0 120 30t52 89q12 45 55 45q32 0 60 -6q35 -6 35 -47q0 -37 -13 -78q-29 -98 -99 -147q-71 -50 -214 -50z" />
    <glyph glyph-name="ebreve" unicode="&#x115;" horiz-adv-x="1069" 
d="M326 444q2 -164 69 -221t213 -57q134 0 234 27q44 10 57 10q30 0 41 -29q21 -50 21 -102q0 -30 -33 -45q-127 -54 -346 -54q-267 0 -378 126q-112 127 -112 409q0 286 119 416q119 129 362 129q111 0 189 -27q76 -26 121 -68q42 -39 65 -115q23 -77 29 -144q6 -69 6 -177
q0 -53 -18 -65q-16 -13 -45 -13h-594zM328 614h438q2 16 2 43q0 111 -43 163t-162 52q-126 0 -178 -64t-57 -194zM780 1513q40 0 56 -4q34 -7 34 -47q0 -45 -12 -84q-56 -207 -299 -207q-253 0 -291 209q-10 49 -10 72q0 48 43 55q24 6 57 6q23 0 33 -10q11 -11 15 -37
q12 -63 47 -98t110 -35q80 0 114 34q33 33 50 97q12 49 53 49z" />
    <glyph glyph-name="Edotaccent" unicode="&#x116;" horiz-adv-x="1150" 
d="M1034 0h-637q-107 0 -159 47t-52 162v1022q0 110 50 163q49 52 159 52h606q52 0 52 -49v-117q0 -43 -52 -43h-514q-65 0 -65 -76v-307h524q53 0 53 -49v-115q0 -45 -53 -45h-524v-356q0 -45 17 -62q18 -18 61 -18h534q53 0 53 -51v-113q0 -45 -53 -45zM756 1692
q0 -125 -115 -125q-117 0 -117 123q0 127 117 127q115 0 115 -125z" />
    <glyph glyph-name="edotaccent" unicode="&#x117;" horiz-adv-x="1069" 
d="M326 444q2 -164 69 -221t213 -57q134 0 234 27q44 10 57 10q30 0 41 -29q21 -50 21 -102q0 -30 -33 -45q-127 -54 -346 -54q-267 0 -378 126q-112 127 -112 409q0 286 119 416q119 129 362 129q111 0 189 -27q76 -26 121 -68q42 -39 65 -115q23 -77 29 -144q6 -69 6 -177
q0 -53 -18 -65q-16 -13 -45 -13h-594zM328 614h438q2 16 2 43q0 111 -43 163t-162 52q-126 0 -178 -64t-57 -194zM682 1348q0 -125 -115 -125q-116 0 -116 123q0 124 116 124q115 0 115 -122z" />
    <glyph glyph-name="Eogonek" unicode="&#x118;" horiz-adv-x="1150" 
d="M1034 0h-26q-115 -81 -157 -132q-44 -53 -44 -130q0 -103 100 -103q12 0 58 4q35 3 39 3q32 0 40 -41q7 -28 7 -60q0 -34 -45 -49q-50 -12 -134 -12q-245 0 -245 223q0 113 55 178q57 67 160 119h-445q-107 0 -159 47t-52 162v1022q0 110 50 163q49 52 159 52h606
q52 0 52 -49v-117q0 -43 -52 -43h-514q-65 0 -65 -76v-307h524q53 0 53 -49v-115q0 -45 -53 -45h-524v-356q0 -45 17 -62q18 -18 61 -18h534q53 0 53 -51v-113q0 -45 -53 -45z" />
    <glyph glyph-name="eogonek" unicode="&#x119;" horiz-adv-x="1069" 
d="M326 444q2 -164 69 -221t213 -57q134 0 234 27q44 10 57 10q30 0 41 -29q21 -50 21 -102q0 -30 -33 -45q-41 -19 -117 -35q-93 -65 -140 -120q-42 -50 -42 -120q0 -98 96 -98q31 0 53 1t37 1q36 0 43 -37q6 -38 6 -57q0 -40 -49 -47q-47 -11 -123 -11q-239 0 -239 213
q0 165 159 256h-30q-267 0 -378 126q-112 127 -112 409q0 286 119 416q119 129 362 129q111 0 189 -27q76 -26 121 -68q42 -39 65 -115q23 -77 29 -144q6 -69 6 -177q0 -53 -18 -65q-16 -13 -45 -13h-594zM328 614h438q2 16 2 43q0 111 -43 163t-162 52q-126 0 -178 -64
t-57 -194z" />
    <glyph glyph-name="Ecaron" unicode="&#x11a;" horiz-adv-x="1150" 
d="M1034 0h-637q-107 0 -159 47t-52 162v1022q0 110 50 163q49 52 159 52h606q52 0 52 -49v-117q0 -43 -52 -43h-514q-65 0 -65 -76v-307h524q53 0 53 -49v-115q0 -45 -53 -45h-524v-356q0 -45 17 -62q18 -18 61 -18h534q53 0 53 -51v-113q0 -45 -53 -45zM870 1896
q44 0 78 -6q41 -8 41 -39q0 -15 -22 -41l-201 -202q-45 -49 -94 -49h-86q-44 0 -84 40l-209 216q-17 17 -17 38q0 29 41 37q38 6 82 6q40 0 86 -41l150 -131l151 136q42 36 84 36z" />
    <glyph glyph-name="ecaron" unicode="&#x11b;" horiz-adv-x="1069" 
d="M326 444q2 -164 69 -221t213 -57q134 0 234 27q44 10 57 10q30 0 41 -29q21 -50 21 -102q0 -30 -33 -45q-127 -54 -346 -54q-267 0 -378 126q-112 127 -112 409q0 286 119 416q119 129 362 129q111 0 189 -27q76 -26 121 -68q42 -39 65 -115q23 -77 29 -144q6 -69 6 -177
q0 -53 -18 -65q-16 -13 -45 -13h-594zM328 614h438q2 16 2 43q0 111 -43 163t-162 52q-126 0 -178 -64t-57 -194zM770 1559q33 0 66 -7q43 -6 43 -36q0 -13 -17 -41l-180 -244q-38 -47 -82 -47h-80q-48 0 -78 41l-182 248q-16 26 -16 43q0 30 41 36q38 7 69 7q42 0 72 -37
l137 -168l133 166q33 39 74 39z" />
    <glyph glyph-name="Gcircumflex" unicode="&#x11c;" horiz-adv-x="1368" 
d="M1239 154q0 -52 -16 -72q-15 -22 -52 -37q-174 -72 -481 -72q-299 0 -440 162t-141 565q0 413 145 592q146 181 498 181q222 0 364 -35q49 -15 49 -52q0 -56 -24 -124q-6 -25 -37 -25q-4 0 -70 8q-150 27 -280 27q-230 0 -317 -132t-87 -409q0 -133 16 -234
q15 -97 55 -173q40 -78 116 -115q75 -37 192 -37q147 0 262 31q43 12 43 59v307h-272q-39 0 -39 39v127q0 43 41 43h428q47 0 47 -51v-573zM494 1550q-40 0 -76 9q-41 11 -41 36q0 23 20 43l201 201q51 51 96 51h84q43 0 86 -43l209 -215q17 -17 17 -37q0 -28 -41 -36
q-59 -9 -84 -9q-38 0 -84 41l-150 131l-151 -133q-40 -39 -86 -39z" />
    <glyph glyph-name="gcircumflex" unicode="&#x11d;" horiz-adv-x="1167" 
d="M780 20q-69 -45 -241 -45q-231 0 -336 113q-105 112 -105 404q0 319 114 439t372 120q228 0 366 -43q62 -18 62 -97v-833q0 -169 -27 -268q-79 -289 -684 -289q-57 0 -65 47q-7 47 -7 86q0 56 54 61q232 11 329 40q99 30 133 85q35 56 35 148v32zM786 274v502
q0 50 -30 62q-51 18 -158 18q-165 0 -218 -77q-52 -76 -52 -281q0 -177 47 -253q47 -75 176 -75q127 0 194 29q30 16 35 32q6 12 6 43zM403 1178q-38 0 -65 6q-43 6 -43 37q0 19 16 41l181 243q33 47 81 47h80q48 0 78 -41l182 -247q17 -23 17 -43q0 -31 -41 -37
q-34 -6 -70 -6q-42 0 -71 36l-138 170l-133 -167q-33 -39 -74 -39z" />
    <glyph glyph-name="Gbreve" unicode="&#x11e;" horiz-adv-x="1368" 
d="M1239 154q0 -52 -16 -72q-15 -22 -52 -37q-174 -72 -481 -72q-299 0 -440 162t-141 565q0 413 145 592q146 181 498 181q222 0 364 -35q49 -15 49 -52q0 -56 -24 -124q-6 -25 -37 -25q-4 0 -70 8q-150 27 -280 27q-230 0 -317 -132t-87 -409q0 -133 16 -234
q15 -97 55 -173q40 -78 116 -115q75 -37 192 -37q147 0 262 31q43 12 43 59v307h-272q-39 0 -39 39v127q0 43 41 43h428q47 0 47 -51v-573zM725 1546q-264 0 -305 199q-8 43 -8 67q0 46 43 56q28 6 61 6q41 0 51 -43q15 -61 49 -90q36 -31 113 -31q84 0 120 30t52 89
q12 45 55 45q32 0 60 -6q35 -6 35 -47q0 -37 -13 -78q-29 -98 -99 -147q-71 -50 -214 -50z" />
    <glyph glyph-name="gbreve" unicode="&#x11f;" horiz-adv-x="1167" 
d="M780 20q-69 -45 -241 -45q-231 0 -336 113q-105 112 -105 404q0 319 114 439t372 120q228 0 366 -43q62 -18 62 -97v-833q0 -169 -27 -268q-79 -289 -684 -289q-57 0 -65 47q-7 47 -7 86q0 56 54 61q232 11 329 40q99 30 133 85q35 56 35 148v32zM786 274v502
q0 50 -30 62q-51 18 -158 18q-165 0 -218 -77q-52 -76 -52 -281q0 -177 47 -253q47 -75 176 -75q127 0 194 29q30 16 35 32q6 12 6 43zM805 1513q39 0 55 -4q35 -8 35 -47q0 -45 -12 -84q-55 -207 -299 -207q-253 0 -291 209q-10 49 -10 72q0 48 43 55q24 6 57 6
q23 0 33 -10q9 -9 14 -37q12 -63 47 -98t111 -35q79 0 113 34q35 35 51 97q12 49 53 49z" />
    <glyph glyph-name="Gdotaccent" unicode="&#x120;" horiz-adv-x="1368" 
d="M1239 154q0 -52 -16 -72q-15 -22 -52 -37q-174 -72 -481 -72q-299 0 -440 162t-141 565q0 413 145 592q146 181 498 181q222 0 364 -35q49 -15 49 -52q0 -56 -24 -124q-6 -25 -37 -25q-4 0 -70 8q-150 27 -280 27q-230 0 -317 -132t-87 -409q0 -133 16 -234
q15 -97 55 -173q40 -78 116 -115q75 -37 192 -37q147 0 262 31q43 12 43 59v307h-272q-39 0 -39 39v127q0 43 41 43h428q47 0 47 -51v-573zM852 1692q0 -125 -115 -125q-116 0 -116 123q0 127 116 127q115 0 115 -125z" />
    <glyph glyph-name="gdotaccent" unicode="&#x121;" horiz-adv-x="1167" 
d="M780 20q-69 -45 -241 -45q-231 0 -336 113q-105 112 -105 404q0 319 114 439t372 120q228 0 366 -43q62 -18 62 -97v-833q0 -169 -27 -268q-79 -289 -684 -289q-57 0 -65 47q-7 47 -7 86q0 56 54 61q232 11 329 40q99 30 133 85q35 56 35 148v32zM786 274v502
q0 50 -30 62q-51 18 -158 18q-165 0 -218 -77q-52 -76 -52 -281q0 -177 47 -253q47 -75 176 -75q127 0 194 29q30 16 35 32q6 12 6 43zM719 1348q0 -125 -115 -125q-117 0 -117 123q0 124 117 124q115 0 115 -122z" />
    <glyph glyph-name="Gcommaaccent" unicode="&#x122;" horiz-adv-x="1368" 
d="M1239 154q0 -52 -16 -72q-15 -22 -52 -37q-174 -72 -481 -72q-299 0 -440 162t-141 565q0 413 145 592q146 181 498 181q222 0 364 -35q49 -15 49 -52q0 -56 -24 -124q-6 -25 -37 -25q-4 0 -70 8q-150 27 -280 27q-230 0 -317 -132t-87 -409q0 -133 16 -234
q15 -97 55 -173q40 -78 116 -115q75 -37 192 -37q147 0 262 31q43 12 43 59v307h-272q-39 0 -39 39v127q0 43 41 43h428q47 0 47 -51v-573zM709 -115h59q61 0 61 -69q0 -214 -127 -357q-33 -37 -61 -37q-24 0 -53 17q-31 22 -31 45q0 20 14 47q63 104 64 283q0 71 74 71z
" />
    <glyph glyph-name="gcommaaccent" unicode="&#x123;" horiz-adv-x="1167" 
d="M618 1182h-63q-59 0 -59 67q0 218 127 361q33 37 61 37q23 0 53 -19q31 -22 31 -45q0 -15 -16 -47q-61 -106 -62 -281q0 -73 -72 -73zM780 20q-69 -45 -241 -45q-231 0 -336 113q-105 112 -105 404q0 319 114 439t372 120q228 0 366 -43q62 -18 62 -97v-833
q0 -174 -25 -268q-79 -289 -684 -289q-59 0 -65 45q-9 63 -9 88q0 54 56 59q230 12 328 42t132 85q35 56 35 148v32zM786 274v502q0 50 -30 62q-51 18 -158 18q-165 0 -218 -77q-52 -76 -52 -281q0 -177 47 -253q47 -75 176 -75q127 0 194 29q30 16 35 32q6 12 6 43z" />
    <glyph glyph-name="Hcircumflex" unicode="&#x124;" horiz-adv-x="1464" 
d="M422 51q0 -55 -51 -55h-135q-50 0 -50 55v1344q0 55 52 55h137q47 0 47 -53v-543h620v541q0 55 54 55h137q45 0 45 -53v-1346q0 -55 -51 -55h-133q-52 0 -52 55v594h-620v-594zM494 1550q-40 0 -76 9q-41 11 -41 36q0 23 20 43l201 201q51 51 96 51h84q43 0 86 -43
l209 -215q17 -17 17 -37q0 -28 -41 -36q-59 -9 -84 -9q-38 0 -84 41l-150 131l-151 -133q-40 -39 -86 -39z" />
    <glyph glyph-name="hcircumflex" unicode="&#x125;" horiz-adv-x="1193" 
d="M381 49q0 -53 -49 -53h-131q-47 0 -47 53v1426q0 61 51 61h125q51 0 51 -61v-500q48 34 155 55q105 21 193 21q134 0 201 -32q66 -31 90 -95q20 -54 20 -201v-674q0 -53 -47 -53h-133q-47 0 -47 53v625q0 74 -12 112q-23 68 -152 68q-113 0 -215 -35q-28 -10 -43 -31
q-10 -16 -10 -63v-676zM76 1591q-44 0 -76 8q-41 11 -41 37q0 22 21 43l200 201q51 51 96 51h84q43 0 86 -43l209 -215q17 -17 17 -37q0 -29 -41 -37q-53 -8 -84 -8q-38 0 -84 41l-150 131l-151 -133q-40 -39 -86 -39z" />
    <glyph glyph-name="Hbar" unicode="&#x126;" horiz-adv-x="1464" 
d="M422 51q0 -55 -51 -55h-135q-50 0 -50 55v950h-98q-47 0 -47 48v92q0 45 47 45h98v209q0 55 52 55h137q47 0 47 -53v-211h620v209q0 55 54 55h137q45 0 45 -53v-211h86q51 0 51 -45v-97q0 -43 -49 -43h-88v-950q0 -55 -51 -55h-133q-52 0 -52 55v594h-620v-594zM422 854
h620v147h-620v-147z" />
    <glyph glyph-name="hbar" unicode="&#x127;" horiz-adv-x="1193" 
d="M381 49q0 -53 -49 -53h-131q-47 0 -47 53v1133h-78q-45 0 -45 47v71q0 50 47 50h76v125q0 61 51 61h125q51 0 51 -61v-125h213q49 0 49 -50v-75q0 -43 -47 -43h-215v-207q48 34 155 55q105 21 193 21q134 0 201 -32q66 -31 90 -95q20 -54 20 -201v-674q0 -53 -47 -53
h-133q-47 0 -47 53v625q0 74 -12 112q-23 68 -152 68q-113 0 -215 -35q-28 -10 -43 -31q-10 -16 -10 -63v-676z" />
    <glyph glyph-name="Itilde" unicode="&#x128;" horiz-adv-x="608" 
d="M422 51q0 -55 -51 -55h-135q-50 0 -50 55v1344q0 55 52 55h137q47 0 47 -53v-1346zM35 1554q-25 0 -58 7q-32 10 -32 45q0 16 12 53q69 182 195 182q58 0 161 -53q72 -39 117 -39q54 0 82 61q21 43 59 43q27 0 50 -6q38 -6 38 -39q0 -26 -12 -65q-61 -178 -194 -178
q-61 0 -168 55q-80 39 -115 39q-49 0 -76 -57q-25 -48 -59 -48z" />
    <glyph glyph-name="itilde" unicode="&#x129;" horiz-adv-x="534" 
d="M10 1204q-36 0 -51 4q-39 8 -39 41q0 13 12 51q78 187 187 187q49 0 155 -55q82 -39 113 -39q47 0 74 61q21 43 59 43q25 0 49 -6q37 -7 37 -37q0 -28 -16 -76q-60 -166 -180 -166q-56 0 -164 54q-78 39 -105 39q-41 0 -69 -54q-23 -47 -62 -47zM381 49q0 -53 -47 -53
h-133q-45 0 -45 53v924q0 55 47 55h133q45 0 45 -53v-926z" />
    <glyph glyph-name="Imacron" unicode="&#x12a;" horiz-adv-x="608" 
d="M422 51q0 -55 -51 -55h-135q-50 0 -50 55v1344q0 55 52 55h137q47 0 47 -53v-1346zM563 1599h-522q-55 0 -55 50v84q0 49 57 49h518q53 0 53 -51v-84q0 -30 -11 -38q-13 -10 -40 -10z" />
    <glyph glyph-name="imacron" unicode="&#x12b;" horiz-adv-x="534" 
d="M514 1229h-489q-54 0 -54 51v82q0 49 54 49h487q53 0 53 -51v-86q0 -27 -12 -36t-39 -9zM381 49q0 -53 -47 -53h-133q-45 0 -45 53v924q0 55 47 55h133q45 0 45 -53v-926z" />
    <glyph glyph-name="Ibreve" unicode="&#x12c;" horiz-adv-x="608" 
d="M422 51q0 -55 -51 -55h-135q-50 0 -50 55v1344q0 55 52 55h137q47 0 47 -53v-1346zM297 1546q-264 0 -305 199q-8 43 -8 67q0 46 43 56q29 6 61 6q41 0 51 -43q15 -61 49 -90q36 -31 113 -31q84 0 120 30t52 89q10 45 55 45q33 0 60 -6q35 -6 35 -47q0 -37 -13 -78
q-29 -98 -99 -147q-71 -50 -214 -50z" />
    <glyph glyph-name="ibreve" unicode="&#x12d;" horiz-adv-x="534" 
d="M489 1513q40 0 56 -4q35 -8 35 -47q0 -42 -13 -84q-56 -207 -299 -207q-253 0 -291 209q-10 49 -10 72q0 48 43 55q24 6 58 6q22 0 32 -10q11 -11 15 -37q12 -63 47 -98t110 -35q80 0 114 34q33 33 50 97q12 49 53 49zM381 49q0 -53 -47 -53h-133q-45 0 -45 53v924
q0 55 47 55h133q45 0 45 -53v-926z" />
    <glyph glyph-name="Iogonek" unicode="&#x12e;" horiz-adv-x="608" 
d="M422 51q0 -50 -47 -55q-108 -80 -152 -131q-43 -50 -43 -127q0 -103 101 -103q11 0 57 4q34 3 39 3q33 0 41 -41q6 -24 6 -60q0 -34 -45 -49q-49 -12 -133 -12q-246 0 -246 223q0 113 54 177t159 120q-27 10 -27 51v1344q0 55 52 55h137q47 0 47 -53v-1346z" />
    <glyph glyph-name="iogonek" unicode="&#x12f;" horiz-adv-x="534" 
d="M381 49q0 -47 -41 -53q-101 -71 -145 -123q-43 -50 -43 -121q0 -98 96 -98q31 0 53 1t37 1q36 0 43 -37q6 -37 6 -57q0 -40 -49 -47q-47 -11 -123 -11q-240 0 -240 213q0 105 54 168q53 62 153 113q-28 10 -28 51v924q0 55 47 55h133q47 0 47 -53v-926zM393 1350
q0 -136 -129 -136q-127 0 -127 134q0 137 127 137q62 0 96 -31q33 -30 33 -104z" />
    <glyph glyph-name="Idotaccent" unicode="&#x130;" horiz-adv-x="608" 
d="M422 51q0 -55 -51 -55h-135q-50 0 -50 55v1344q0 55 52 55h137q47 0 47 -53v-1346zM414 1692q0 -125 -115 -125q-117 0 -117 123q0 127 117 127q115 0 115 -125z" />
    <glyph glyph-name="dotlessi" unicode="&#x131;" horiz-adv-x="534" 
d="M381 49q0 -53 -47 -53h-133q-45 0 -45 53v924q0 55 47 55h133q45 0 45 -53v-926z" />
    <glyph glyph-name="IJ" unicode="&#x132;" horiz-adv-x="1273" 
d="M422 51q0 -55 -51 -55h-135q-50 0 -50 55v1344q0 55 52 55h137q47 0 47 -53v-1346zM1087 143q0 -214 -88 -303q-51 -54 -155 -97q-102 -42 -197 -42q-49 0 -59 43q-8 43 -8 92q0 50 49 60q111 18 164 59q59 46 59 180v1260q0 55 51 55h137q47 0 47 -53v-1254z" />
    <glyph glyph-name="ij" unicode="&#x133;" horiz-adv-x="1105" 
d="M381 49q0 -53 -49 -53h-131q-47 0 -47 53v924q0 55 47 55h133q47 0 47 -53v-926zM393 1350q0 -136 -129 -136q-127 0 -127 134q0 137 127 137q62 0 96 -31q33 -30 33 -104zM930 975v-1032q0 -209 -80 -295q-49 -55 -145 -91t-201 -36q-48 0 -58 45q-6 40 -6 86
q0 53 49 59q104 12 162 60q51 39 51 170v1032q0 55 48 55h133q47 0 47 -53zM946 1350q0 -136 -129 -136t-129 134q0 137 129 137t129 -135z" />
    <glyph glyph-name="Jcircumflex" unicode="&#x134;" horiz-adv-x="665" 
d="M481 143q0 -214 -88 -303q-51 -54 -155 -97q-102 -42 -197 -42q-49 0 -59 43q-9 49 -9 92q0 49 50 60q110 18 163 59q60 47 60 180v1260q0 55 51 55h137q47 0 47 -53v-1254zM121 1550q-40 0 -76 9q-41 11 -41 36q0 22 21 43l200 201q51 51 97 51h84q43 0 86 -43l208 -215
q17 -17 17 -37q0 -28 -41 -36q-59 -9 -84 -9q-38 0 -84 41l-150 131l-151 -133q-41 -39 -86 -39z" />
    <glyph glyph-name="jcircumflex" unicode="&#x135;" horiz-adv-x="534" 
d="M389 981v-1102q0 -209 -70 -287q-96 -102 -352 -102q-67 0 -67 51q0 73 4 94q5 49 53 50q122 5 160 34q45 34 45 154v1108q0 53 47 53h135q45 0 45 -53zM70 1178q-38 0 -66 6q-43 6 -43 37q0 19 16 41l181 243q33 47 82 47h79q48 0 78 -41l183 -247q16 -22 16 -43
q0 -31 -41 -37q-35 -6 -70 -6q-42 0 -71 36l-138 170l-133 -167q-33 -39 -73 -39z" />
    <glyph glyph-name="Kcommaaccent" unicode="&#x136;" horiz-adv-x="1294" 
d="M422 51q0 -55 -51 -55h-135q-50 0 -50 55v1344q0 55 52 55h137q47 0 47 -53v-545h143q63 0 92 39l340 516q29 45 70 45q88 0 139 -6q37 -1 37 -37q0 -26 -20 -53q-300 -451 -406 -598q71 -99 443 -658q26 -38 26 -63q0 -32 -35 -37q-45 -4 -166 -4q-38 0 -65 41l-381 573
q-23 35 -80 35h-137v-594zM664 -115h59q61 0 61 -69q0 -214 -127 -357q-33 -37 -61 -37q-24 0 -53 17q-31 22 -31 45q0 20 14 47q63 104 64 283q0 71 74 71z" />
    <glyph glyph-name="kcommaaccent" unicode="&#x137;" horiz-adv-x="1101" 
d="M381 49q0 -53 -49 -53h-131q-47 0 -47 53v1419q0 54 47 54h133q47 0 47 -52v-806h106q62 0 91 41l215 286q30 39 67 39q118 0 144 -8q24 -6 24 -33q0 -20 -18 -47q-190 -252 -281 -362q76 -104 338 -488q20 -29 20 -53q0 -31 -28 -37q-26 -8 -154 -8q-37 0 -65 39
l-279 399q-24 37 -80 37h-100v-420zM567 -115h60q61 0 61 -69q0 -214 -127 -357q-33 -37 -61 -37q-25 0 -54 17q-30 21 -30 45q0 20 14 47q63 104 64 283q0 71 73 71z" />
    <glyph glyph-name="kgreenlandic" unicode="&#x138;" horiz-adv-x="1105" 
d="M381 49q0 -53 -49 -53h-131q-47 0 -47 53v924q0 55 47 55h133q47 0 47 -53v-332h106q64 0 91 41l215 307q27 39 67 39q104 0 144 -8q24 -2 24 -33q0 -20 -18 -47q-217 -293 -283 -377l340 -473q23 -35 23 -55q0 -29 -35 -37q-30 -6 -150 -6q-37 0 -65 39l-279 379
q-27 37 -80 37h-100v-400z" />
    <glyph glyph-name="Lacute" unicode="&#x139;" horiz-adv-x="1142" 
d="M1026 0h-633q-103 0 -155 47t-52 152v1196q0 55 52 55h137q47 0 47 -53v-1110q0 -78 76 -78h528q51 0 51 -51v-113q0 -45 -51 -45zM367 1581q-42 -31 -95 -31q-23 0 -86 9q-34 6 -34 30q0 25 28 49l236 197q47 41 94 41q33 0 139 -8q47 -6 47 -37t-32 -51z" />
    <glyph glyph-name="lacute" unicode="&#x13a;" horiz-adv-x="583" 
d="M381 348q0 -86 20 -123q24 -40 117 -57q39 -6 39 -47q0 -52 -8 -92q-7 -39 -60 -39q-223 0 -296 116q-39 63 -39 213v1160q0 53 49 53h133q45 0 45 -53v-1131zM322 1622q-42 -31 -95 -31q-30 0 -86 8q-35 6 -35 31t29 49l236 197q47 41 94 41q33 0 139 -8q47 -6 47 -37
q0 -30 -33 -51z" />
    <glyph glyph-name="Lcommaaccent" unicode="&#x13b;" horiz-adv-x="1142" 
d="M1026 0h-633q-103 0 -155 47t-52 152v1196q0 55 52 55h137q47 0 47 -53v-1110q0 -78 76 -78h528q51 0 51 -51v-113q0 -45 -51 -45zM598 -115h59q62 0 62 -69q0 -214 -127 -357q-33 -37 -62 -37q-24 0 -53 17q-31 22 -31 45q0 18 15 47q61 102 63 283q0 71 74 71z" />
    <glyph glyph-name="lcommaaccent" unicode="&#x13c;" horiz-adv-x="583" 
d="M381 348q0 -86 20 -123q24 -40 117 -57q39 -6 39 -47q0 -52 -8 -92q-7 -39 -60 -39q-223 0 -296 116q-39 63 -39 213v1160q0 53 49 53h133q45 0 45 -53v-1131zM299 -115h59q62 0 62 -69q0 -214 -127 -357q-33 -37 -62 -37q-24 0 -53 17q-31 22 -31 45q0 18 15 47
q61 102 63 283q0 71 74 71z" />
    <glyph glyph-name="Lcaron" unicode="&#x13d;" horiz-adv-x="1142" 
d="M1026 0h-633q-103 0 -155 47t-52 152v1196q0 55 52 55h137q47 0 47 -53v-1110q0 -78 76 -78h528q51 0 51 -51v-113q0 -45 -51 -45zM729 1483h59q62 0 62 -70q0 -220 -127 -356q-33 -37 -61 -37q-27 0 -54 18q-30 16 -30 45q0 23 14 45q62 102 63 285q0 70 74 70z" />
    <glyph glyph-name="lcaron" unicode="&#x13e;" horiz-adv-x="583" 
d="M381 348q0 -86 20 -123q24 -40 117 -57q39 -6 39 -47q0 -52 -8 -92q-7 -39 -60 -39q-223 0 -296 116q-39 63 -39 213v1160q0 53 49 53h133q45 0 45 -53v-1131zM643 1532h59q62 0 62 -70q0 -220 -127 -356q-33 -37 -62 -37q-26 0 -53 18q-30 16 -30 46q0 23 14 45
q62 102 63 284q0 70 74 70z" />
    <glyph glyph-name="Ldot" unicode="&#x13f;" horiz-adv-x="1142" 
d="M1026 0h-633q-103 0 -155 47t-52 152v1196q0 55 52 55h137q47 0 47 -53v-1110q0 -78 76 -78h528q51 0 51 -51v-113q0 -45 -51 -45zM1004 719q0 -156 -154 -156q-63 0 -107 35q-43 34 -43 121q0 160 154 160q150 0 150 -160z" />
    <glyph glyph-name="ldot" unicode="&#x140;" horiz-adv-x="792" 
d="M807 721q0 -152 -145 -152q-59 0 -102 35q-42 34 -42 117q0 80 41 116q39 35 105 35t104 -31q39 -31 39 -120zM381 348q0 -86 20 -123q24 -40 117 -57q39 -6 39 -47q0 -52 -8 -92q-7 -39 -60 -39q-223 0 -296 116q-39 63 -39 213v1160q0 53 49 53h133q45 0 45 -53v-1131z
" />
    <glyph glyph-name="Lslash" unicode="&#x141;" horiz-adv-x="1142" 
d="M1026 0h-633q-103 0 -155 47t-52 152v264l-67 -45q-16 -12 -35 -12q-15 0 -37 28q-51 80 -51 94q0 23 22 41l168 115v711q0 55 52 55h137q47 0 47 -53v-549l244 168q18 12 36 12q19 0 37 -24q58 -85 58 -99q0 -20 -25 -39l-350 -241v-338q0 -78 76 -78h528q51 0 51 -51
v-113q0 -45 -51 -45z" />
    <glyph glyph-name="lslash" unicode="&#x142;" horiz-adv-x="583" 
d="M381 348q0 -86 20 -123q24 -40 117 -57q39 -6 39 -47q0 -52 -8 -92q-7 -39 -60 -39q-223 0 -296 116q-39 63 -39 213v242l-56 -35q-20 -14 -37 -14q-21 0 -36 27q-41 70 -41 88q0 21 24 37l146 94v721q0 53 49 53h133q45 0 45 -53v-574l72 47q21 15 36 15q19 0 37 -29
q45 -68 45 -86q0 -17 -24 -35l-166 -108v-361z" />
    <glyph glyph-name="Nacute" unicode="&#x143;" horiz-adv-x="1497" 
d="M416 51q0 -55 -54 -55h-126q-50 0 -50 55v1237q0 86 37 126t121 40h64q47 0 76 -16t43 -36q13 -19 38 -67q406 -774 525 -1044q-5 195 -5 1093q0 66 56 66h121q49 0 49 -61v-1268q0 -79 -36 -107q-35 -28 -97 -28h-54q-71 0 -104 27t-74 108q-409 785 -534 1055
q4 -280 4 -1125zM817 1581q-42 -31 -94 -31q-23 0 -86 9q-35 6 -35 30q0 25 29 49l235 197q47 41 95 41q33 0 139 -8q47 -6 47 -37q0 -30 -33 -51z" />
    <glyph glyph-name="nacute" unicode="&#x144;" horiz-adv-x="1193" 
d="M381 49q0 -53 -49 -53h-131q-47 0 -47 53v791q0 95 69 125q91 40 236 63q147 23 266 23q137 0 204 -32t91 -95q20 -54 20 -201v-674q0 -53 -47 -53h-133q-47 0 -47 53v625q0 75 -12 114q-11 37 -44 51q-35 15 -108 15q-132 0 -217 -35q-24 -7 -39 -24q-12 -16 -12 -56
v-690zM647 1219q-27 -33 -82 -33q-43 0 -80 6q-34 6 -34 35q0 20 18 47l184 237q35 45 86 45q71 0 121 -6q45 -4 45 -37q0 -22 -26 -51z" />
    <glyph glyph-name="Ncommaaccent" unicode="&#x145;" horiz-adv-x="1497" 
d="M416 51q0 -55 -54 -55h-126q-50 0 -50 55v1237q0 86 37 126t121 40h64q47 0 76 -16t43 -36q13 -19 38 -67q406 -774 525 -1044q-5 195 -5 1093q0 66 56 66h121q49 0 49 -61v-1268q0 -79 -36 -107q-35 -28 -97 -28h-54q-71 0 -104 27t-74 108q-409 785 -534 1055
q4 -280 4 -1125zM717 -115h59q62 0 62 -69q0 -214 -127 -357q-33 -37 -62 -37q-24 0 -53 17q-31 22 -31 45q0 18 15 47q61 102 63 283q0 71 74 71z" />
    <glyph glyph-name="ncommaaccent" unicode="&#x146;" horiz-adv-x="1193" 
d="M381 49q0 -53 -49 -53h-131q-47 0 -47 53v791q0 95 69 125q91 40 236 63q147 23 266 23q137 0 204 -32t91 -95q20 -54 20 -201v-674q0 -53 -47 -53h-133q-47 0 -47 53v625q0 75 -12 114q-11 37 -44 51q-35 15 -108 15q-132 0 -217 -35q-24 -7 -39 -24q-12 -16 -12 -56
v-690zM580 -115h59q61 0 61 -69q0 -214 -127 -357q-33 -37 -61 -37q-24 0 -53 17q-31 22 -31 45q0 20 14 47q63 104 64 283q0 71 74 71z" />
    <glyph glyph-name="Ncaron" unicode="&#x147;" horiz-adv-x="1497" 
d="M416 51q0 -55 -54 -55h-126q-50 0 -50 55v1237q0 86 37 126t121 40h64q47 0 76 -16t43 -36q13 -19 38 -67q406 -774 525 -1044q-5 195 -5 1093q0 66 56 66h121q49 0 49 -61v-1268q0 -79 -36 -107q-35 -28 -97 -28h-54q-71 0 -104 27t-74 108q-409 785 -534 1055
q4 -280 4 -1125zM997 1896q43 0 78 -6q41 -8 41 -39q0 -15 -22 -41l-201 -202q-45 -49 -94 -49h-86q-44 0 -84 40l-209 216q-17 17 -17 38q0 29 41 37q37 6 82 6q40 0 86 -41l150 -131l151 136q42 36 84 36z" />
    <glyph glyph-name="ncaron" unicode="&#x148;" horiz-adv-x="1193" 
d="M381 49q0 -53 -49 -53h-131q-47 0 -47 53v791q0 95 69 125q91 40 236 63q147 23 266 23q137 0 204 -32t91 -95q20 -54 20 -201v-674q0 -53 -47 -53h-133q-47 0 -47 53v625q0 75 -12 114q-11 37 -44 51q-35 15 -108 15q-132 0 -217 -35q-24 -7 -39 -24q-12 -16 -12 -56
v-690zM797 1559q33 0 65 -7q43 -6 43 -36q0 -15 -16 -41l-180 -244q-38 -47 -82 -47h-80q-48 0 -78 41l-182 248q-17 28 -17 43q0 30 41 36q38 7 70 7q42 0 72 -37l137 -168l133 166q33 39 74 39z" />
    <glyph glyph-name="napostrophe" unicode="&#x149;" horiz-adv-x="1193" 
d="M381 49q0 -53 -49 -53h-131q-47 0 -47 53v791q0 95 69 125q91 40 236 63q147 23 266 23q137 0 204 -32t91 -95q20 -54 20 -201v-674q0 -53 -47 -53h-133q-47 0 -47 53v625q0 75 -12 114q-11 37 -44 51q-35 15 -108 15q-132 0 -217 -35q-24 -7 -39 -24q-12 -16 -12 -56
v-690zM223 1620h60q61 0 61 -70q0 -213 -127 -356q-33 -37 -61 -37q-25 0 -54 17q-30 21 -30 45q0 20 14 47q63 104 64 282q0 72 73 72z" />
    <glyph glyph-name="Eng" unicode="&#x14a;" horiz-adv-x="1497" 
d="M416 51q0 -55 -54 -55h-126q-50 0 -50 55v1235q0 87 37 127q38 41 121 41h64q61 0 91 -27q29 -26 68 -92q418 -705 523 -917q-5 413 -5 964q0 66 56 66h121q49 0 49 -62v-1394q0 -220 -92 -309q-57 -54 -155 -97t-194 -43q-46 0 -57 45q-14 46 -14 93q0 49 49 59
q125 29 166 59q61 46 61 156v20q-576 1022 -663 1196q4 -277 4 -1120z" />
    <glyph glyph-name="eng" unicode="&#x14b;" horiz-adv-x="1193" 
d="M381 49q0 -53 -49 -53h-131q-47 0 -47 53v791q0 95 69 125q91 40 236 63q147 23 266 23q137 0 204 -32t91 -95q20 -54 20 -201v-778q0 -205 -84 -297q-50 -53 -145 -90t-195 -37q-49 0 -59 43q-10 37 -10 88q0 52 49 59q113 18 166 60q51 39 51 170v733q0 75 -12 114
q-11 37 -44 51q-35 15 -108 15q-132 0 -217 -35q-24 -7 -39 -24q-12 -16 -12 -56v-690z" />
    <glyph glyph-name="Omacron" unicode="&#x14c;" horiz-adv-x="1433" 
d="M1325 733q0 -223 -36 -372q-35 -146 -116 -233q-80 -86 -190 -120q-113 -35 -274 -35q-162 0 -267 34q-107 35 -184 119q-78 86 -114 233q-35 144 -35 372q0 224 45 374q45 151 133 228q91 80 191 109q107 31 247 31q127 0 218 -17q92 -17 166 -62q78 -47 122 -128
q45 -82 69 -213q25 -136 25 -320zM1081 729q0 227 -38 347q-37 118 -111 157q-73 39 -215 39q-94 0 -158 -23q-63 -23 -113 -80q-47 -55 -72 -165q-24 -108 -24 -273q0 -172 22 -288q21 -111 71 -170q47 -56 112 -78q61 -21 158 -21q94 0 156 20q61 20 113 76t76 170
q23 108 23 289zM989 1599h-522q-55 0 -55 50v84q0 49 57 49h518q53 0 53 -51v-84q0 -30 -11 -38q-13 -10 -40 -10z" />
    <glyph glyph-name="omacron" unicode="&#x14d;" horiz-adv-x="1140" 
d="M1042 520q0 -314 -110 -430q-111 -117 -369 -117q-249 0 -357 114t-108 427q0 163 34 271q35 110 102 166q68 56 150 79q83 23 194 23q125 0 207 -20q79 -19 142 -75q62 -55 89 -161q26 -103 26 -277zM815 510q0 210 -50 278t-192 68q-128 0 -187 -70q-58 -68 -58 -268
q0 -216 52 -284t187 -68q137 0 193 66q55 65 55 278zM825 1229h-489q-53 0 -53 51v82q0 49 53 49h487q54 0 54 -51v-86q0 -26 -13 -36q-12 -9 -39 -9z" />
    <glyph glyph-name="Obreve" unicode="&#x14e;" horiz-adv-x="1433" 
d="M1325 733q0 -223 -36 -372q-35 -146 -116 -233q-80 -86 -190 -120q-113 -35 -274 -35q-162 0 -267 34q-107 35 -184 119q-78 86 -114 233q-35 144 -35 372q0 224 45 374q45 151 133 228q91 80 191 109q107 31 247 31q127 0 218 -17q92 -17 166 -62q78 -47 122 -128
q45 -82 69 -213q25 -136 25 -320zM1081 729q0 227 -38 347q-37 118 -111 157q-73 39 -215 39q-94 0 -158 -23q-63 -23 -113 -80q-47 -55 -72 -165q-24 -108 -24 -273q0 -172 22 -288q21 -111 71 -170q47 -56 112 -78q61 -21 158 -21q94 0 156 20q61 20 113 76t76 170
q23 108 23 289zM717 1546q-264 0 -305 199q-9 49 -9 67q0 46 43 56q28 6 62 6q41 0 51 -43q15 -61 49 -90q36 -31 113 -31q84 0 120 30t52 89q12 45 55 45q32 0 60 -6q34 -6 34 -47t-12 -78q-29 -98 -99 -147q-71 -50 -214 -50z" />
    <glyph glyph-name="obreve" unicode="&#x14f;" horiz-adv-x="1140" 
d="M1042 520q0 -314 -110 -430q-111 -117 -369 -117q-249 0 -357 114t-108 427q0 163 34 271q35 110 102 166q68 56 150 79q83 23 194 23q125 0 207 -20q79 -19 142 -75q62 -55 89 -161q26 -103 26 -277zM815 510q0 210 -50 278t-192 68q-128 0 -187 -70q-58 -68 -58 -268
q0 -216 52 -284t187 -68q137 0 193 66q55 65 55 278zM793 1513q39 0 55 -4q35 -8 35 -47q0 -42 -13 -84q-56 -207 -299 -207q-252 0 -290 209q-11 53 -11 72q0 48 43 55q24 6 58 6q22 0 32 -10q11 -11 15 -37q12 -63 47 -98t110 -35q80 0 114 34q33 33 50 97q12 49 54 49z
" />
    <glyph glyph-name="Ohungarumlaut" unicode="&#x150;" horiz-adv-x="1433" 
d="M1325 733q0 -223 -36 -372q-35 -146 -116 -233q-80 -86 -190 -120q-113 -35 -274 -35q-162 0 -267 34q-107 35 -184 119q-78 86 -114 233q-35 144 -35 372q0 224 45 374q45 151 133 228q91 80 191 109q107 31 247 31q127 0 218 -17q92 -17 166 -62q78 -47 122 -128
q45 -82 69 -213q25 -136 25 -320zM1081 729q0 227 -38 347q-37 118 -111 157q-73 39 -215 39q-94 0 -158 -23q-63 -23 -113 -80q-47 -55 -72 -165q-24 -108 -24 -273q0 -172 22 -288q21 -111 71 -170q47 -56 112 -78q61 -21 158 -21q94 0 156 20q61 20 113 76t76 170
q23 108 23 289zM590 1581q-42 -31 -88 -31q-19 0 -82 9q-35 6 -35 32q0 22 31 51l221 193q47 41 94 41q58 0 119 -8q43 -6 43 -33q0 -28 -31 -53zM1010 1581q-47 -31 -90 -31q-19 0 -82 9q-35 6 -35 32t31 51l221 193q47 41 96 41q53 0 117 -8q41 -6 41 -33q0 -28 -31 -53z
" />
    <glyph glyph-name="ohungarumlaut" unicode="&#x151;" horiz-adv-x="1140" 
d="M1042 520q0 -314 -110 -430q-111 -117 -369 -117q-249 0 -357 114t-108 427q0 163 34 271q35 110 102 166q68 56 150 79q83 23 194 23q125 0 207 -20q79 -19 142 -75q62 -55 89 -161q26 -103 26 -277zM815 510q0 210 -50 278t-192 68q-128 0 -187 -70q-58 -68 -58 -268
q0 -216 52 -284t187 -68q137 0 193 66q55 65 55 278zM475 1219q-35 -33 -76 -33q-45 0 -63 6q-37 7 -37 35q0 14 20 45l166 239q30 45 82 45q47 0 92 -6q46 -6 46 -39q0 -25 -21 -49zM819 1219q-33 -33 -78 -33t-61 6q-35 8 -35 35q0 22 17 45l167 239q30 45 84 45
q44 0 88 -6q50 -6 50 -39q0 -21 -25 -49z" />
    <glyph glyph-name="OE" unicode="&#x152;" horiz-adv-x="2015" 
d="M1898 0h-630q-76 0 -118 28q-40 27 -52 107q-56 -93 -149 -127q-94 -35 -249 -35q-210 0 -336 64q-124 63 -190 230q-65 164 -65 464q0 222 44 374q43 149 130 228t188 109q105 31 246 31q148 0 242 -35q95 -35 147 -125q18 133 164 133h594q53 0 53 -49v-117
q0 -43 -53 -43h-512q-66 0 -66 -76v-307h524q52 0 52 -49v-115q0 -45 -52 -45h-524v-350q0 -86 76 -86h536q52 0 52 -51v-113q0 -45 -52 -45zM1051 729q0 231 -35 350q-34 117 -103 155q-68 38 -202 38q-93 0 -157 -23q-62 -22 -111 -80q-47 -56 -70 -165q-23 -110 -23 -273
q0 -172 22 -288q21 -111 68 -170q45 -56 107 -78q60 -21 153 -21q77 0 118 7q44 8 94 38t77 89q25 55 44 164q18 105 18 257z" />
    <glyph glyph-name="oe" unicode="&#x153;" horiz-adv-x="1785" 
d="M924 131q-50 -86 -137 -122t-224 -36q-249 0 -357 114t-108 427q0 163 34 271q35 110 102 166q68 56 150 79q83 23 194 23q144 0 229 -33q86 -33 133 -125q102 158 350 158q91 0 162 -17q72 -17 114 -52q44 -36 71 -77q28 -41 41 -107q14 -66 18 -126q4 -53 4 -150
q0 -55 -21 -67q-18 -13 -45 -13h-596q1 -164 72 -222q68 -56 213 -56q131 0 231 27q44 10 60 10q28 0 39 -29q22 -51 22 -100q0 -32 -33 -47q-125 -54 -346 -54q-267 0 -372 158zM815 510q0 210 -50 278t-192 68q-128 0 -187 -70q-58 -68 -58 -268q0 -216 52 -284t187 -68
q137 0 193 66q55 65 55 278zM1042 614h441q2 22 2 39q0 113 -45 166t-160 53q-126 0 -179 -62q-55 -64 -59 -196z" />
    <glyph glyph-name="Racute" unicode="&#x154;" horiz-adv-x="1298" 
d="M422 51q0 -55 -53 -55h-133q-50 0 -50 55v1176q0 113 48 166t163 53h158q279 0 399 -47q207 -84 207 -375q0 -302 -250 -393l297 -529q27 -53 27 -67q0 -29 -27 -33q-40 -8 -166 -8q-41 0 -65 45l-289 549q-50 -2 -121 -2h-145v-535zM422 778h153q147 0 228 29
q117 47 117 205q0 170 -113 211q-60 22 -215 22h-98q-72 0 -72 -71v-396zM700 1581q-42 -31 -94 -31q-23 0 -86 9q-35 6 -35 30q0 25 29 49l236 197q47 41 94 41q33 0 139 -8q47 -6 47 -37q0 -30 -33 -51z" />
    <glyph glyph-name="racute" unicode="&#x155;" horiz-adv-x="780" 
d="M381 49q0 -53 -49 -53h-131q-47 0 -47 53v778q0 54 11 77q13 27 44 50q53 37 166 66q121 31 225 31q79 0 121 -11q33 -10 33 -45q0 -65 -11 -118q-6 -31 -45 -31q-3 0 -9.5 0.5t-19 1t-23.5 0.5q-10 0 -23.5 0.5t-21 1t-11.5 0.5q-108 0 -168 -33q-27 -12 -33 -29
q-8 -22 -8 -57v-682zM508 1219q-27 -33 -82 -33q-42 0 -80 6q-35 6 -35 35q0 19 19 47l184 237q34 45 86 45q72 0 121 -6q45 -4 45 -37q0 -21 -27 -51z" />
    <glyph glyph-name="Rcommaaccent" unicode="&#x156;" horiz-adv-x="1298" 
d="M422 51q0 -55 -53 -55h-133q-50 0 -50 55v1176q0 113 48 166t163 53h158q279 0 399 -47q207 -84 207 -375q0 -302 -250 -393l297 -529q27 -53 27 -67q0 -29 -27 -33q-40 -8 -166 -8q-41 0 -65 45l-289 549q-50 -2 -121 -2h-145v-535zM422 778h153q147 0 228 29
q117 47 117 205q0 170 -113 211q-60 22 -215 22h-98q-72 0 -72 -71v-396zM635 -115h59q62 0 62 -69q0 -214 -127 -357q-33 -37 -62 -37q-24 0 -53 17q-31 22 -31 45q0 18 15 47q61 102 63 283q0 71 74 71z" />
    <glyph glyph-name="rcommaaccent" unicode="&#x157;" horiz-adv-x="780" 
d="M381 49q0 -53 -49 -53h-131q-47 0 -47 53v778q0 54 11 77q13 27 44 50q53 37 166 66q121 31 225 31q79 0 121 -11q33 -10 33 -45q0 -65 -11 -118q-6 -31 -45 -31q-3 0 -9.5 0.5t-19 1t-23.5 0.5q-10 0 -23.5 0.5t-21 1t-11.5 0.5q-108 0 -168 -33q-27 -12 -33 -29
q-8 -22 -8 -57v-682zM252 -115h59q62 0 62 -69q0 -214 -127 -357q-33 -37 -62 -37q-24 0 -53 17q-31 22 -31 45q0 18 15 47q61 102 63 283q0 71 74 71z" />
    <glyph glyph-name="Rcaron" unicode="&#x158;" horiz-adv-x="1298" 
d="M422 51q0 -55 -53 -55h-133q-50 0 -50 55v1176q0 113 48 166t163 53h158q279 0 399 -47q207 -84 207 -375q0 -302 -250 -393l297 -529q27 -53 27 -67q0 -29 -27 -33q-40 -8 -166 -8q-41 0 -65 45l-289 549q-50 -2 -121 -2h-145v-535zM422 778h153q147 0 228 29
q117 47 117 205q0 170 -113 211q-60 22 -215 22h-98q-72 0 -72 -71v-396zM866 1896q45 0 78 -6q41 -8 41 -39q0 -15 -22 -41l-201 -202q-45 -49 -94 -49h-86q-44 0 -84 40l-209 216q-17 17 -17 38q0 29 41 37q37 6 82 6q40 0 86 -41l150 -131l151 136q42 36 84 36z" />
    <glyph glyph-name="rcaron" unicode="&#x159;" horiz-adv-x="780" 
d="M381 49q0 -53 -49 -53h-131q-47 0 -47 53v778q0 54 11 77q13 27 44 50q53 37 166 66q121 31 225 31q79 0 121 -11q33 -10 33 -45q0 -65 -11 -118q-6 -31 -45 -31q-3 0 -9.5 0.5t-19 1t-23.5 0.5q-10 0 -23.5 0.5t-21 1t-11.5 0.5q-108 0 -168 -33q-27 -12 -33 -29
q-8 -22 -8 -57v-682zM655 1559q33 0 66 -7q43 -6 43 -36q0 -15 -16 -41l-181 -244q-38 -47 -82 -47h-79q-48 0 -78 41l-183 248q-16 26 -16 43q0 30 41 36q40 7 70 7q41 0 71 -37l138 -168l133 166q33 39 73 39z" />
    <glyph glyph-name="Sacute" unicode="&#x15a;" horiz-adv-x="1179" 
d="M739 811q196 -56 268 -138q72 -83 72 -261q0 -214 -121 -326q-122 -113 -407 -113q-239 0 -418 60q-47 17 -47 53q0 33 23 107q15 47 57 47q16 0 67 -17q150 -49 322 -49q168 0 225 58q58 60 58 151q0 81 -42 128q-40 45 -184 83l-184 47q-317 84 -317 401q0 209 120 319
q123 112 394 112q229 0 358 -43q45 -15 45 -56q0 -38 -20 -102q-11 -41 -45 -41q-23 0 -66 10q-159 29 -289 29q-144 0 -200 -53t-56 -152q0 -75 41 -124q41 -48 166 -83zM651 1581q-42 -31 -94 -31q-23 0 -86 9q-35 6 -35 30q0 25 29 49l235 197q47 41 95 41q33 0 139 -8
q47 -6 47 -37q0 -30 -33 -51z" />
    <glyph glyph-name="sacute" unicode="&#x15b;" horiz-adv-x="913" 
d="M492 397l-154 41q-125 32 -188 103q-62 70 -62 196q0 314 399 314q183 0 289 -33q39 -11 39 -49q0 -27 -24 -111q-6 -31 -37 -31q-5 0 -49 7q-101 26 -226 26q-99 0 -134 -30q-34 -30 -34 -85q0 -41 27 -65t115 -51l139 -41q146 -44 203 -107t57 -192q0 -316 -408 -316
q-232 0 -348 52q-33 12 -33 49q0 23 29 102q15 37 45 37q15 0 53 -12q119 -35 263 -35q106 0 143 34t37 87q0 41 -27 63q-29 24 -114 47zM539 1219q-27 -33 -82 -33q-43 0 -80 6q-35 6 -35 35q0 20 18 47l185 237q33 45 86 45q71 0 121 -6q45 -4 45 -37q0 -21 -27 -51z" />
    <glyph glyph-name="Scircumflex" unicode="&#x15c;" horiz-adv-x="1179" 
d="M739 811q196 -56 268 -138q72 -83 72 -261q0 -214 -121 -326q-122 -113 -407 -113q-239 0 -418 60q-47 17 -47 53q0 33 23 107q15 47 57 47q16 0 67 -17q150 -49 322 -49q168 0 225 58q58 60 58 151q0 81 -42 128q-40 45 -184 83l-184 47q-317 84 -317 401q0 209 120 319
q123 112 394 112q229 0 358 -43q45 -15 45 -56q0 -38 -20 -102q-11 -41 -45 -41q-23 0 -66 10q-159 29 -289 29q-144 0 -200 -53t-56 -152q0 -75 41 -124q41 -48 166 -83zM356 1550q-39 0 -75 9q-41 11 -41 36q0 23 20 43l201 201q51 51 96 51h84q43 0 86 -43l209 -215
q16 -16 16 -37q0 -28 -41 -36q-59 -9 -84 -9q-38 0 -84 41l-149 131l-152 -133q-41 -39 -86 -39z" />
    <glyph glyph-name="scircumflex" unicode="&#x15d;" horiz-adv-x="913" 
d="M492 397l-154 41q-125 32 -188 103q-62 70 -62 196q0 314 399 314q183 0 289 -33q39 -11 39 -49q0 -27 -24 -111q-6 -31 -37 -31q-5 0 -49 7q-101 26 -226 26q-99 0 -134 -30q-34 -30 -34 -85q0 -41 27 -65t115 -51l139 -41q146 -44 203 -107t57 -192q0 -316 -408 -316
q-232 0 -348 52q-33 12 -33 49q0 23 29 102q15 37 45 37q15 0 53 -12q119 -35 263 -35q106 0 143 34t37 87q0 41 -27 63q-29 24 -114 47zM268 1178q-38 0 -65 6q-43 6 -43 37q0 19 16 41l180 243q33 47 82 47h80q48 0 78 -41l182 -247q17 -23 17 -43q0 -31 -41 -37
q-34 -6 -70 -6q-43 0 -72 36l-137 170l-133 -167q-33 -39 -74 -39z" />
    <glyph glyph-name="Scedilla" unicode="&#x15e;" horiz-adv-x="1179" 
d="M602 -113q65 -2 105 -18q41 -17 59 -49q19 -35 25 -64q6 -30 6 -75q0 -218 -289 -218q-58 0 -107 11q-43 7 -43 47q0 27 7 59q11 41 53 41q9 0 53 -6q28 -2 49 -2q86 0 86 68q0 38 -18 53q-17 14 -66 14h-35q-43 0 -43 39q0 33 9 74l24 114q-185 6 -344 58q-47 17 -47 53
q0 33 23 107q15 47 57 47q16 0 67 -17q150 -49 322 -49q168 0 225 58q58 60 58 151q0 81 -42 128q-40 45 -184 83l-184 47q-317 84 -317 401q0 209 120 319q123 112 394 112q229 0 358 -43q45 -15 45 -56q0 -38 -20 -102q-11 -41 -45 -41q-23 0 -66 10q-159 29 -289 29
q-144 0 -200 -53t-56 -152q0 -75 41 -124q41 -48 166 -83l180 -47q196 -56 268 -138q72 -83 72 -261q0 -203 -106 -313q-107 -112 -355 -124z" />
    <glyph glyph-name="scedilla" unicode="&#x15f;" horiz-adv-x="913" 
d="M473 -106q58 -1 100 -19q39 -17 57 -48q17 -30 22 -61q5 -33 5 -73q0 -207 -276 -207q-63 0 -100 8q-43 12 -43 45q0 28 6 58q7 23 18 31q10 7 33 7q24 0 49 -4q28 -2 47 -2q86 0 86 64q0 37 -19 52q-20 15 -63 15h-33q-43 0 -43 39q0 23 11 70l22 108q-174 12 -256 48
q-33 12 -33 49q0 23 29 102q15 37 45 37q15 0 53 -12q119 -35 263 -35q106 0 143 34t37 87q0 41 -27 63q-29 24 -114 47l-154 41q-125 32 -188 103q-62 70 -62 196q0 314 399 314q183 0 289 -33q39 -11 39 -49q0 -27 -24 -111q-6 -31 -37 -31q-5 0 -49 7q-101 26 -226 26
q-99 0 -134 -30q-34 -30 -34 -85q0 -41 27 -65t115 -51l139 -41q146 -44 203 -107t57 -192q0 -299 -367 -314z" />
    <glyph glyph-name="Scaron" unicode="&#x160;" horiz-adv-x="1179" 
d="M739 811q196 -56 268 -138q72 -83 72 -261q0 -214 -121 -326q-122 -113 -407 -113q-239 0 -418 60q-47 17 -47 53q0 33 23 107q15 47 57 47q16 0 67 -17q150 -49 322 -49q168 0 225 58q58 60 58 151q0 81 -42 128q-40 45 -184 83l-184 47q-317 84 -317 401q0 209 120 319
q123 112 394 112q229 0 358 -43q45 -15 45 -56q0 -38 -20 -102q-11 -41 -45 -41q-23 0 -66 10q-159 29 -289 29q-144 0 -200 -53t-56 -152q0 -75 41 -124q41 -48 166 -83zM831 1896q45 0 78 -6q41 -8 41 -39q0 -15 -22 -41l-201 -202q-45 -49 -94 -49h-86q-44 0 -84 40
l-209 216q-16 16 -16 38q0 29 41 37q38 6 81 6q40 0 86 -41l150 -131l152 136q42 36 83 36z" />
    <glyph glyph-name="scaron" unicode="&#x161;" horiz-adv-x="913" 
d="M492 397l-154 41q-125 32 -188 103q-62 70 -62 196q0 314 399 314q183 0 289 -33q39 -11 39 -49q0 -27 -24 -111q-6 -31 -37 -31q-5 0 -49 7q-101 26 -226 26q-99 0 -134 -30q-34 -30 -34 -85q0 -41 27 -65t115 -51l139 -41q146 -44 203 -107t57 -192q0 -316 -408 -316
q-232 0 -348 52q-33 12 -33 49q0 23 29 102q15 37 45 37q15 0 53 -12q119 -35 263 -35q106 0 143 34t37 87q0 41 -27 63q-29 24 -114 47zM680 1559q32 0 65 -7q43 -6 43 -36q0 -15 -16 -41l-180 -244q-38 -47 -82 -47h-80q-48 0 -78 41l-182 248q-16 26 -16 43q0 30 41 36
q39 7 69 7q42 0 72 -37l137 -168l133 166q33 39 74 39z" />
    <glyph glyph-name="uni0162" unicode="&#x162;" horiz-adv-x="1224" 
d="M643 -113q65 -2 105 -18q41 -17 59 -49t24 -64q7 -35 7 -75q0 -218 -289 -218q-58 0 -107 11q-43 7 -43 47q0 27 7 59q11 41 53 41q9 0 53 -6q28 -2 49 -2q86 0 86 68q0 38 -18 53q-17 14 -66 14h-35q-43 0 -43 39q0 33 9 74l28 135q-43 6 -43 55v1186h-375q-51 0 -51 43
v117q0 49 51 49h990q53 0 53 -49v-117q0 -43 -53 -43h-377v-1186q0 -55 -51 -55h-2z" />
    <glyph glyph-name="uni0163" unicode="&#x163;" horiz-adv-x="722" 
d="M461 -106q113 -4 151 -57q37 -52 37 -144q0 -207 -276 -207q-64 0 -101 8q-43 12 -43 45q0 23 7 58q7 23 18 31q10 7 33 7q24 0 49 -4q28 -2 47 -2q86 0 86 64q0 37 -19 52q-20 15 -63 15h-33q-43 0 -43 39q0 23 11 70l36 156q-52 24 -84 67q-38 48 -53 121
q-14 67 -14 201v417h-117q-47 0 -47 50v92q0 51 51 51h117q1 50 8 221q5 58 47 58h123q45 0 45 -60v-219h197q57 0 57 -49v-92q0 -52 -53 -52h-201v-425q0 -123 35 -170q39 -51 199 -62q45 -2 45 -49q0 -49 -4 -96q-6 -45 -58 -45q-101 0 -168 8z" />
    <glyph glyph-name="Tcaron" unicode="&#x164;" horiz-adv-x="1224" 
d="M717 51q0 -55 -51 -55h-136q-51 0 -51 55v1186h-375q-51 0 -51 43v117q0 49 51 49h990q53 0 53 -49v-117q0 -43 -53 -43h-377v-1186zM834 1896q42 0 77 -6q41 -8 41 -39q0 -15 -22 -41l-201 -202q-45 -49 -94 -49h-86q-44 0 -84 40l-209 216q-16 16 -16 38q0 29 41 37
q38 6 81 6q41 0 87 -41l149 -131l152 136q42 36 84 36z" />
    <glyph glyph-name="tcaron" unicode="&#x165;" horiz-adv-x="722" 
d="M434 406q0 -123 35 -170q39 -51 199 -62q45 -2 45 -49q0 -49 -4 -96q-6 -45 -58 -45q-156 0 -240 22q-86 23 -137 86q-38 48 -53 121q-14 67 -14 201v417h-117q-47 0 -47 50v92q0 51 51 51h117q1 50 8 221q5 58 47 58h123q45 0 45 -60v-219h197q57 0 57 -49v-92
q0 -52 -53 -52h-201v-425zM659 1573h60q61 0 61 -70q0 -220 -127 -356q-33 -37 -61 -37q-26 0 -53 18q-31 17 -31 46q0 23 14 45q63 104 64 284q0 70 73 70z" />
    <glyph glyph-name="Tbar" unicode="&#x166;" horiz-adv-x="1224" 
d="M729 51q0 -55 -51 -55h-135q-51 0 -51 55v639h-248q-45 0 -45 45v92q0 47 47 47h246v363h-375q-51 0 -51 43v117q0 49 51 49h989q53 0 53 -49v-117q0 -43 -53 -43h-377v-363h254q47 0 47 -47v-94q0 -43 -45 -43h-256v-639z" />
    <glyph glyph-name="tbar" unicode="&#x167;" horiz-adv-x="722" 
d="M434 406q0 -123 35 -170q39 -51 199 -62q45 -2 45 -49q0 -49 -4 -96q-6 -45 -58 -45q-156 0 -240 22q-86 23 -137 86q-38 48 -53 121q-14 67 -14 201v94h-113q-49 0 -49 45v72q0 49 51 49h111v157h-117q-47 0 -47 50v92q0 51 51 51h117q1 50 8 221q5 58 47 58h123
q45 0 45 -60v-219h197q57 0 57 -49v-92q0 -52 -53 -52h-201v-157h129q49 0 49 -47v-78q0 -41 -47 -41h-131v-102z" />
    <glyph glyph-name="Utilde" unicode="&#x168;" horiz-adv-x="1427" 
d="M1255 1399v-821q0 -164 -12 -254q-12 -92 -49 -154q-115 -199 -494 -199q-384 0 -483 213q-45 99 -45 389v826q0 51 51 51h142q43 0 43 -51v-885q0 -179 43 -244q66 -96 262 -96q213 0 270 92q45 69 45 242v891q0 51 51 51h131q45 0 45 -51zM457 1554q-27 0 -58 7
q-32 10 -32 45q0 16 12 53q69 182 194 182q59 0 162 -53q72 -39 117 -39q54 0 82 61q21 43 59 43q27 0 49 -6q39 -6 39 -39q0 -26 -12 -65q-61 -178 -195 -178q-60 0 -167 55q-79 39 -115 39q-49 0 -76 -57q-25 -48 -59 -48z" />
    <glyph glyph-name="utilde" unicode="&#x169;" horiz-adv-x="1193" 
d="M154 340v635q0 53 47 53h133q47 0 47 -53v-604q0 -105 14 -133q27 -68 170 -68q136 0 195 20q23 7 39 25q14 14 14 59v701q0 53 49 53h131q47 0 47 -53v-809q0 -96 -69 -129q-149 -64 -445 -64q-294 0 -346 138q-26 64 -26 229zM348 1204q-36 0 -51 4q-39 8 -39 41
q0 13 12 51q78 187 187 187q49 0 155 -55q82 -39 113 -39q47 0 74 61q21 43 59 43q25 0 49 -6q37 -7 37 -37q0 -28 -16 -76q-60 -166 -180 -166q-56 0 -164 54q-78 39 -105 39q-41 0 -69 -54q-24 -47 -62 -47z" />
    <glyph glyph-name="Umacron" unicode="&#x16a;" horiz-adv-x="1427" 
d="M1255 1399v-821q0 -164 -12 -254q-12 -92 -49 -154q-115 -199 -494 -199q-384 0 -483 213q-45 99 -45 389v826q0 51 51 51h142q43 0 43 -51v-885q0 -179 43 -244q66 -96 262 -96q213 0 270 92q45 69 45 242v891q0 51 51 51h131q45 0 45 -51zM981 1599h-522q-56 0 -56 50
v84q0 49 58 49h518q53 0 53 -51v-84q0 -30 -11 -38q-13 -10 -40 -10z" />
    <glyph glyph-name="umacron" unicode="&#x16b;" horiz-adv-x="1193" 
d="M154 340v635q0 53 47 53h133q47 0 47 -53v-604q0 -105 14 -133q27 -68 170 -68q136 0 195 20q23 7 39 25q14 14 14 59v701q0 53 49 53h131q47 0 47 -53v-809q0 -96 -69 -129q-149 -64 -445 -64q-294 0 -346 138q-26 64 -26 229zM844 1229h-490q-53 0 -53 51v82
q0 49 53 49h488q53 0 53 -51v-86q0 -27 -12 -36t-39 -9z" />
    <glyph glyph-name="Ubreve" unicode="&#x16c;" horiz-adv-x="1427" 
d="M1255 1399v-821q0 -164 -12 -254q-12 -92 -49 -154q-115 -199 -494 -199q-384 0 -483 213q-45 99 -45 389v826q0 51 51 51h142q43 0 43 -51v-885q0 -179 43 -244q66 -96 262 -96q213 0 270 92q45 69 45 242v891q0 51 51 51h131q45 0 45 -51zM707 1546q-265 0 -306 199
q-8 43 -8 67q0 46 43 56q28 6 62 6q41 0 51 -43q15 -61 49 -90q36 -31 113 -31q83 0 119 30q37 31 53 89q11 45 55 45q32 0 59 -6q35 -6 35 -47t-12 -78q-29 -98 -99 -147q-71 -50 -214 -50z" />
    <glyph glyph-name="ubreve" unicode="&#x16d;" horiz-adv-x="1193" 
d="M154 340v635q0 53 47 53h133q47 0 47 -53v-604q0 -105 14 -133q27 -68 170 -68q136 0 195 20q23 7 39 25q14 14 14 59v701q0 53 49 53h131q47 0 47 -53v-809q0 -96 -69 -129q-149 -64 -445 -64q-294 0 -346 138q-26 64 -26 229zM811 1513q39 0 55 -4q35 -8 35 -47
q0 -45 -12 -84q-55 -207 -299 -207q-253 0 -291 209q-10 49 -10 72q0 48 43 55q24 6 57 6q23 0 33 -10q9 -9 14 -37q12 -63 47 -98t111 -35q80 0 114 34q33 33 50 97q12 49 53 49z" />
    <glyph glyph-name="Uring" unicode="&#x16e;" horiz-adv-x="1427" 
d="M1255 1399v-821q0 -164 -12 -254q-12 -92 -49 -154q-115 -199 -494 -199q-384 0 -483 213q-45 99 -45 389v826q0 51 51 51h142q43 0 43 -51v-885q0 -179 43 -244q66 -96 262 -96q213 0 270 92q45 69 45 242v891q0 51 51 51h131q45 0 45 -51zM905 1698q0 -90 -53 -140
q-54 -51 -141 -51q-85 0 -134 49q-51 51 -51 142t53 144q52 52 138 52t137 -52t51 -144zM821 1702q0 115 -108 115q-49 0 -79 -30t-30 -87q0 -56 30 -86q31 -31 81 -31q106 0 106 119z" />
    <glyph glyph-name="uring" unicode="&#x16f;" horiz-adv-x="1193" 
d="M154 340v635q0 53 47 53h133q47 0 47 -53v-604q0 -105 14 -133q27 -68 170 -68q136 0 195 20q23 7 39 25q14 14 14 59v701q0 53 49 53h131q47 0 47 -53v-809q0 -96 -69 -129q-149 -64 -445 -64q-294 0 -346 138q-26 64 -26 229zM797 1372q0 -96 -57 -147t-148 -51
q-88 0 -142 51q-55 52 -55 147t57 149t146 54q92 0 145 -54q54 -56 54 -149zM711 1376q0 123 -117 123q-54 0 -85 -33q-32 -34 -32 -92t32 -92q31 -33 87 -33q115 0 115 127z" />
    <glyph glyph-name="Uhungarumlaut" unicode="&#x170;" horiz-adv-x="1427" 
d="M1255 1399v-821q0 -164 -12 -254q-12 -92 -49 -154q-115 -199 -494 -199q-384 0 -483 213q-45 99 -45 389v826q0 51 51 51h142q43 0 43 -51v-885q0 -179 43 -244q66 -96 262 -96q213 0 270 92q45 69 45 242v891q0 51 51 51h131q45 0 45 -51zM567 1581q-42 -31 -88 -31
q-19 0 -82 9q-35 6 -35 32q0 22 31 51l221 193q47 41 95 41q57 0 118 -8q43 -6 43 -33q0 -29 -30 -53zM987 1581q-47 -31 -90 -31q-19 0 -82 9q-35 6 -35 32t31 51l221 193q47 41 96 41q53 0 117 -8q41 -6 41 -33q0 -28 -31 -53z" />
    <glyph glyph-name="uhungarumlaut" unicode="&#x171;" horiz-adv-x="1193" 
d="M154 340v635q0 53 47 53h133q47 0 47 -53v-604q0 -105 14 -133q27 -68 170 -68q136 0 195 20q23 7 39 25q14 14 14 59v701q0 53 49 53h131q47 0 47 -53v-809q0 -96 -69 -129q-149 -64 -445 -64q-294 0 -346 138q-26 64 -26 229zM496 1219q-34 -33 -76 -33q-46 0 -64 6
q-37 7 -37 35q0 12 21 45l166 239q30 45 82 45q47 0 92 -6t45 -39q0 -26 -20 -49zM840 1219q-33 -33 -78 -33q-46 0 -62 6q-34 7 -34 35q0 23 16 45l168 239q30 45 84 45q44 0 88 -6q49 -6 49 -39q0 -22 -24 -49z" />
    <glyph glyph-name="Uogonek" unicode="&#x172;" horiz-adv-x="1427" 
d="M1255 1399v-821q0 -164 -12 -254q-12 -92 -49 -154q-95 -163 -373 -193q-94 -69 -130 -117q-38 -50 -38 -122q0 -103 101 -103q7 0 57 4q37 3 39 3q33 0 41 -41q6 -24 6 -60q0 -34 -45 -49q-50 -12 -133 -12q-246 0 -246 223q0 171 164 270q-330 15 -420 211
q-45 99 -45 389v826q0 51 51 51h142q43 0 43 -51v-885q0 -179 43 -244q66 -96 262 -96q213 0 270 92q45 69 45 242v891q0 51 51 51h131q45 0 45 -51z" />
    <glyph glyph-name="uogonek" unicode="&#x173;" horiz-adv-x="1193" 
d="M154 340v635q0 53 47 53h133q47 0 47 -53v-604q0 -105 14 -133q27 -68 170 -68q136 0 195 20q23 7 39 25q14 14 14 59v701q0 53 49 53h131q47 0 47 -53v-809q0 -95 -71 -129q-118 -81 -169 -140q-55 -64 -55 -145q0 -98 97 -98q31 0 53 1t37 1q36 0 43 -37q6 -38 6 -57
q0 -40 -49 -47q-49 -11 -123 -11q-240 0 -240 213q0 160 164 267q-104 -11 -209 -11q-164 1 -243 37q-77 35 -101 101q-26 64 -26 229z" />
    <glyph glyph-name="Wcircumflex" unicode="&#x174;" horiz-adv-x="1939" 
d="M973 1137q-57 -232 -273 -1020q-18 -68 -51 -95q-34 -28 -100 -28h-62q-117 0 -145 121l-285 1220q-8 35 -8 68q0 37 37 41q53 8 158 8q43 0 55 -53q209 -931 246 -1159q57 262 280 1054q16 60 43 85q28 26 82 26h54q58 0 86 -23q26 -22 43 -86q225 -835 272 -1056
q38 223 244 1151q12 61 57 61q108 0 156 -8q28 -4 28 -39q0 -31 -10 -70l-285 -1216q-15 -65 -46 -94q-33 -31 -101 -31h-53q-73 0 -106 28q-32 27 -50 97q-225 846 -266 1018zM735 1550q-40 0 -76 9q-41 11 -41 36q0 22 21 43l201 201q51 51 96 51h84q43 0 86 -43l209 -215
q16 -16 16 -37q0 -28 -41 -36q-59 -9 -84 -9q-38 0 -84 41l-149 131l-152 -133q-41 -39 -86 -39z" />
    <glyph glyph-name="wcircumflex" unicode="&#x175;" horiz-adv-x="1560" 
d="M782 733q-24 -101 -188 -637q-18 -60 -51 -81t-97 -21h-38q-59 0 -90 22t-46 78l-221 826q-10 39 -10 61q0 37 37 43q39 6 151 6q39 0 54 -51q129 -509 180 -756q62 254 186 649q19 65 44 89t77 24h31q54 0 79 -22q26 -23 44 -82q153 -463 200 -658q46 236 166 750
q15 57 53 57q103 0 146 -6q35 -6 35 -39q0 -5 -13 -59l-213 -828q-15 -57 -47 -80q-33 -24 -94 -24h-39q-60 0 -92 23q-33 24 -49 79q-159 509 -195 637zM575 1178q-38 0 -65 6q-43 6 -43 37q0 19 16 41l181 243q33 47 81 47h80q48 0 78 -41l182 -247q17 -23 17 -43
q0 -31 -41 -37q-33 -6 -70 -6q-42 0 -71 36l-138 170l-133 -167q-33 -39 -74 -39z" />
    <glyph glyph-name="Ycircumflex" unicode="&#x176;" horiz-adv-x="1212" 
d="M725 53q0 -57 -51 -57h-135q-50 0 -50 57v557l-454 733q-27 45 -27 66q0 24 25 35q19 8 182 8q42 0 72 -51q249 -405 327 -553q77 142 328 547q34 57 78 57q127 0 162 -8q22 -7 22 -31q0 -25 -22 -63l-457 -734v-563zM377 1550q-40 0 -76 9q-41 11 -41 36q0 22 21 43
l200 201q51 51 97 51h84q43 0 86 -43l208 -215q17 -17 17 -37q0 -28 -41 -36q-59 -9 -84 -9q-38 0 -84 41l-150 131l-151 -133q-41 -39 -86 -39z" />
    <glyph glyph-name="ycircumflex" unicode="&#x177;" horiz-adv-x="1193" 
d="M154 305v670q0 53 47 53h133q47 0 47 -53v-621q0 -83 12 -116q24 -66 160 -66q128 0 207 35q24 7 39 24q14 14 14 54v690q0 53 49 53h131q47 0 47 -53v-916q0 -167 -26 -254q-40 -153 -207 -219q-164 -65 -473 -65q-29 0 -45 8q-14 7 -19 33q-6 45 -6 94q0 59 51 59
q249 7 348 41q96 32 123 101q21 51 21 139v43q-117 -66 -330 -66q-251 0 -301 131q-22 62 -22 201zM397 1178q-37 0 -65 6q-43 6 -43 37q0 19 16 41l180 243q33 47 82 47h80q48 0 78 -41l182 -247q17 -23 17 -43q0 -31 -41 -37q-33 -6 -70 -6q-43 0 -72 36l-137 170
l-133 -167q-33 -39 -74 -39z" />
    <glyph glyph-name="Ydieresis" unicode="&#x178;" horiz-adv-x="1212" 
d="M725 53q0 -57 -51 -57h-135q-50 0 -50 57v557l-454 733q-27 45 -27 66q0 24 25 35q19 8 182 8q42 0 72 -51q249 -405 327 -553q77 142 328 547q34 57 78 57q127 0 162 -8q22 -7 22 -31q0 -25 -22 -63l-457 -734v-563zM528 1692q0 -125 -114 -125q-117 0 -117 123
q0 127 117 127q114 0 114 -125zM932 1692q0 -125 -117 -125q-113 0 -113 123q0 127 113 127q56 0 87 -28q30 -27 30 -97z" />
    <glyph glyph-name="Zacute" unicode="&#x179;" horiz-adv-x="1255" 
d="M1143 0h-971q-129 0 -129 129q0 81 43 131l799 977h-723q-53 0 -53 53v99q0 27 15 42t40 15h833q158 0 158 -133q0 -94 -59 -166l-772 -938h821q55 0 55 -51v-111q0 -47 -57 -47zM700 1581q-42 -31 -94 -31q-23 0 -86 9q-35 6 -35 30q0 25 29 49l236 197q47 41 94 41
q33 0 139 -8q47 -6 47 -37q0 -30 -33 -51z" />
    <glyph glyph-name="zacute" unicode="&#x17a;" horiz-adv-x="1003" 
d="M901 0h-717q-62 0 -96 28q-33 27 -33 99q0 77 51 133l558 567h-521q-53 0 -53 45v101q0 23 14 37t37 14h650q69 0 104 -30t35 -99q0 -81 -64 -150q-385 -392 -551 -548h590q43 0 43 -50v-108q0 -15 -12 -27t-35 -12zM575 1219q-27 -33 -81 -33q-43 0 -80 6q-35 6 -35 35
q0 20 18 47l185 237q33 45 86 45q70 0 120 -6q46 -5 46 -37q0 -21 -27 -51z" />
    <glyph glyph-name="Zdotaccent" unicode="&#x17b;" horiz-adv-x="1255" 
d="M1143 0h-971q-129 0 -129 129q0 81 43 131l799 977h-723q-53 0 -53 53v99q0 27 15 42t40 15h833q158 0 158 -133q0 -94 -59 -166l-772 -938h821q55 0 55 -51v-111q0 -47 -57 -47zM762 1692q0 -125 -115 -125q-117 0 -117 123q0 127 117 127q115 0 115 -125z" />
    <glyph glyph-name="zdotaccent" unicode="&#x17c;" horiz-adv-x="1003" 
d="M901 0h-717q-62 0 -96 28q-33 27 -33 99q0 77 51 133l558 567h-521q-53 0 -53 45v101q0 23 14 37t37 14h650q69 0 104 -30t35 -99q0 -81 -64 -150q-385 -392 -551 -548h590q43 0 43 -50v-108q0 -15 -12 -27t-35 -12zM639 1348q0 -125 -115 -125q-116 0 -116 123
q0 124 116 124q115 0 115 -122z" />
    <glyph glyph-name="Zcaron" unicode="&#x17d;" horiz-adv-x="1255" 
d="M1143 0h-971q-129 0 -129 129q0 81 43 131l799 977h-723q-53 0 -53 53v99q0 27 15 42t40 15h833q158 0 158 -133q0 -94 -59 -166l-772 -938h821q55 0 55 -51v-111q0 -47 -57 -47zM870 1896q44 0 78 -6q41 -8 41 -39q0 -15 -22 -41l-201 -202q-45 -49 -94 -49h-86
q-44 0 -84 40l-209 216q-17 17 -17 38q0 29 41 37q38 6 82 6q40 0 86 -41l150 -131l151 136q42 36 84 36z" />
    <glyph glyph-name="zcaron" unicode="&#x17e;" horiz-adv-x="1003" 
d="M901 0h-717q-62 0 -96 28q-33 27 -33 99q0 77 51 133l558 567h-521q-53 0 -53 45v101q0 23 14 37t37 14h650q69 0 104 -30t35 -99q0 -81 -64 -150q-385 -392 -551 -548h590q43 0 43 -50v-108q0 -15 -12 -27t-35 -12zM711 1559q33 0 65 -7q43 -6 43 -36q0 -15 -16 -41
l-180 -244q-38 -47 -82 -47h-80q-48 0 -78 41l-182 248q-17 28 -17 43q0 30 41 36q39 7 70 7q42 0 72 -37l137 -168l133 166q33 39 74 39z" />
    <glyph glyph-name="longs" unicode="&#x17f;" horiz-adv-x="569" 
d="M389 45q0 -49 -45 -49h-137q-45 0 -45 55v1075q0 213 90 297q116 110 379 115q66 0 67 -43q2 -36 2 -98q0 -45 -49 -51q-101 -7 -158 -25q-53 -17 -77 -57q-27 -46 -27 -150v-1069z" />
    <glyph glyph-name="florin" unicode="&#x192;" horiz-adv-x="1021" 
d="M854 743h-231l-54 -614q-18 -217 -106 -295q-94 -82 -285 -82q-98 0 -141 15q-31 11 -31 47q0 37 17 108q11 35 47 35q8 0 39 -4t57 -4q97 0 127 45q34 51 45 166l51 583h-166q-43 0 -43 39v70q0 41 43 41h180l15 151q18 208 108 287q89 80 281 80q110 0 151 -14
q29 -12 29 -49q0 -46 -10 -105q-6 -35 -47 -35q-11 0 -44 4q-42 5 -63 5q-95 0 -133 -50q-38 -51 -45 -157l-10 -117h219q47 0 47 -41v-70q0 -39 -47 -39z" />
    <glyph glyph-name="Aringacute" unicode="&#x1fa;" horiz-adv-x="1292" 
d="M825 1550q0 -77 -41 -123q34 -23 68 -120l412 -1203q14 -36 14 -63t-25 -39q-24 -8 -161 -8q-27 0 -41 14q-15 14 -25 49l-119 344h-524l-117 -344q-12 -38 -23 -50q-12 -13 -38 -13q-132 0 -164 8q-25 8 -25 37q0 18 15 61l420 1203q32 97 77 124q-39 45 -39 123
q0 84 47 129q46 45 123 45q79 0 122 -45q44 -46 44 -129zM442 604h410l-203 641q-29 -105 -207 -641zM702 1786q-35 -23 -71 -23q-40 0 -76 4q-31 6 -31 25q0 23 21 41l186 162q34 28 76 28q108 0 127 -4q35 -8 35 -32q0 -22 -27 -43zM752 1554q0 101 -97 101q-40 0 -67 -27
t-27 -76q0 -87 74 -102h45q72 12 72 104z" />
    <glyph glyph-name="aringacute" unicode="&#x1fb;" horiz-adv-x="1097" 
d="M952 172q0 -66 -22 -92q-22 -31 -66 -47q-60 -24 -175 -42t-222 -18q-215 0 -296 88q-81 89 -81 242q0 176 115 250q98 61 323 61q122 0 199 -8v68q0 77 -12 110q-27 70 -191 70q-100 0 -215 -23q-80 -12 -82 -12q-29 0 -39 33q-16 51 -16 102q0 37 41 52q165 47 344 47
q249 0 326 -78q69 -69 69 -273v-530zM727 442q-103 9 -172 9q-150 0 -203 -35q-45 -27 -45 -107q0 -78 40 -118q39 -39 149 -39q123 0 188 26q29 12 35 35q8 26 8 70v159zM762 1372q0 -94 -55 -145t-148 -51q-89 0 -142 51q-52 51 -52 145q0 95 54 149t146 54q91 0 144 -54
q53 -55 53 -149zM680 1376q0 58 -32 92q-32 33 -87 33q-53 0 -86 -33t-33 -94q0 -59 33 -92t88 -33q117 0 117 127zM623 1669q-33 -33 -70 -33q-42 0 -66 6q-38 7 -38 33q0 14 18 41l182 236q30 41 80 41q63 0 107 -4q34 -4 34 -37q0 -23 -20 -43z" />
    <glyph glyph-name="AEacute" unicode="&#x1fc;" horiz-adv-x="1986" 
d="M528 418l-245 -375q-33 -47 -78 -47q-99 0 -154 4q-41 2 -41 37q0 20 25 59l770 1209q52 81 97 110q48 31 124 31h811q51 0 51 -49v-117q0 -43 -51 -43h-580v-383h525q51 0 51 -49v-115q0 -45 -51 -45h-525v-356q0 -80 78 -80h537q27 0 38 -11t11 -40v-113q0 -45 -49 -45
h-645q-98 0 -153 44q-54 43 -54 159v215h-492zM641 623h379v606q-51 -88 -379 -606zM1362 1581q-42 -31 -94 -31q-23 0 -86 9q-35 6 -35 30q0 25 29 49l235 197q47 41 94 41q34 0 140 -8q47 -6 47 -37q0 -30 -33 -51z" />
    <glyph glyph-name="aeacute" unicode="&#x1fd;" horiz-adv-x="1691" 
d="M840 96q-130 -123 -381 -123q-203 0 -286 89t-83 249q0 172 119 244q104 64 344 64q69 0 174 -3v62q0 73 -12 106q-29 70 -193 70q-108 0 -225 -25q-59 -10 -72 -10q-29 0 -39 37q-12 52 -12 100q0 35 41 50q161 47 338 47q136 0 217 -31q77 -30 102 -111q44 67 132 105
q87 37 190 37q134 0 220 -36t126 -115q41 -81 53 -164q13 -93 13 -224q0 -40 -21 -55q-13 -13 -43 -13h-596q1 -163 67 -222q64 -58 206 -58q150 0 251 29q29 8 54 8q29 0 41 -39q18 -69 18 -90q0 -34 -33 -49q-121 -52 -346 -52q-262 0 -364 123zM727 446q-50 5 -162 5
q-164 0 -215 -39q-43 -34 -43 -101q0 -78 43 -120q42 -41 152 -41q73 0 148 22q78 23 112 57q-35 78 -35 217zM948 621h447q2 16 2 38q0 115 -43 171q-44 57 -164 57q-129 0 -183 -66q-55 -67 -59 -200zM946 1219q-27 -33 -82 -33q-42 0 -80 6q-34 6 -34 35q0 20 18 47
l184 237q35 45 86 45q72 0 121 -6q45 -4 45 -37q0 -22 -26 -51z" />
    <glyph glyph-name="Oslashacute" unicode="&#x1fe;" horiz-adv-x="1433" 
d="M219 -41q-15 -18 -31 -18q-19 0 -67 36q-15 12 -15 23q0 15 15 33l100 139q-112 173 -112 559q0 224 45 374t132 228q89 80 191 109q108 31 248 31q260 0 385 -80l84 114q13 19 31 19q10 0 24 -10q56 -35 56 -50q0 -10 -13 -28l-92 -127q125 -169 125 -578
q0 -295 -70 -465q-69 -168 -198 -231q-131 -64 -350 -64q-271 0 -402 105zM1081 729q0 232 -41 361l-596 -820q76 -96 269 -96q94 0 156 20q61 20 113 76t76 170q23 108 23 289zM350 731q0 -217 35 -336l586 807q-78 70 -254 70q-94 0 -158 -23q-63 -23 -113 -80
q-47 -55 -72 -165q-24 -108 -24 -273zM780 1581q-42 -31 -94 -31q-23 0 -86 9q-35 6 -35 30q0 25 29 49l235 197q47 41 95 41q33 0 139 -8q47 -6 47 -37q0 -30 -33 -51z" />
    <glyph glyph-name="oslashacute" unicode="&#x1ff;" horiz-adv-x="1140" 
d="M213 -68q-12 -16 -25 -16q-17 0 -63 35q-14 11 -14 22q0 12 14 29l72 98q-103 126 -103 414q0 162 36 271q35 108 106 166q68 56 151 79q84 23 195 23q181 0 274 -43l78 106q11 17 27 17q11 0 24 -9q49 -33 49 -47q0 -15 -8 -26l-78 -107q107 -119 107 -424
q0 -313 -114 -430t-372 -117q-185 0 -286 56zM834 510q0 162 -27 240l-401 -551q50 -39 165 -39q73 0 116 12q44 12 80 48t51 107q16 75 16 183zM317 518q0 -148 23 -219l391 539q-51 24 -153 24q-140 0 -200 -70q-61 -72 -61 -274zM618 1219q-27 -33 -81 -33q-43 0 -80 6
q-35 6 -35 35q0 20 18 47l185 237q35 45 86 45q71 0 120 -6q46 -5 46 -37q0 -21 -27 -51z" />
    <glyph glyph-name="uni0218" unicode="&#x218;" horiz-adv-x="1179" 
d="M739 811q196 -56 268 -138q72 -83 72 -261q0 -214 -121 -326q-122 -113 -407 -113q-239 0 -418 60q-47 17 -47 53q0 33 23 107q15 47 57 47q16 0 67 -17q150 -49 322 -49q168 0 225 58q58 60 58 151q0 81 -42 128q-40 45 -184 83l-184 47q-317 84 -317 401q0 209 120 319
q123 112 394 112q229 0 358 -43q45 -15 45 -56q0 -38 -20 -102q-11 -41 -45 -41q-23 0 -66 10q-159 29 -289 29q-144 0 -200 -53t-56 -152q0 -75 41 -124q41 -48 166 -83zM557 -115h59q62 0 62 -69q0 -214 -127 -357q-33 -37 -62 -37q-24 0 -53 17q-30 21 -30 45q0 20 14 47
q61 102 63 283q0 71 74 71z" />
    <glyph glyph-name="uni0219" unicode="&#x219;" horiz-adv-x="913" 
d="M492 397l-154 41q-125 32 -188 103q-62 70 -62 196q0 314 399 314q183 0 289 -33q39 -11 39 -49q0 -27 -24 -111q-6 -31 -37 -31q-5 0 -49 7q-101 26 -226 26q-99 0 -134 -30q-34 -30 -34 -85q0 -41 27 -65t115 -51l139 -41q146 -44 203 -107t57 -192q0 -316 -408 -316
q-232 0 -348 52q-33 12 -33 49q0 23 29 102q15 37 45 37q15 0 53 -12q119 -35 263 -35q106 0 143 34t37 87q0 41 -27 63q-29 24 -114 47zM444 -115h60q61 0 61 -69q0 -214 -127 -357q-33 -37 -61 -37q-24 0 -53 17q-31 22 -31 45q0 20 14 47q63 104 64 283q0 71 73 71z" />
    <glyph glyph-name="uni021A" unicode="&#x21a;" horiz-adv-x="1224" 
d="M717 51q0 -55 -51 -55h-136q-51 0 -51 55v1186h-375q-51 0 -51 43v117q0 49 51 49h990q53 0 53 -49v-117q0 -43 -53 -43h-377v-1186zM582 -115h59q61 0 61 -69q0 -214 -127 -357q-33 -37 -61 -37q-24 0 -53 17q-31 22 -31 45q0 20 14 47q63 104 64 283q0 71 74 71z" />
    <glyph glyph-name="uni021B" unicode="&#x21b;" horiz-adv-x="722" 
d="M434 406q0 -123 35 -170q39 -51 199 -62q45 -2 45 -49q0 -49 -4 -96q-6 -45 -58 -45q-156 0 -240 22q-86 23 -137 86q-38 48 -53 121q-14 67 -14 201v417h-117q-47 0 -47 50v92q0 51 51 51h117q1 50 8 221q5 58 47 58h123q45 0 45 -60v-219h197q57 0 57 -49v-92
q0 -52 -53 -52h-201v-425zM387 -115h59q62 0 62 -69q0 -214 -127 -357q-33 -37 -62 -37q-24 0 -53 17q-30 21 -30 45q0 20 14 47q61 102 63 283q0 71 74 71z" />
    <glyph glyph-name="circumflex" unicode="&#x2c6;" horiz-adv-x="403" 
d="M-6 1178q-39 0 -66 6q-43 6 -43 37q0 18 17 41l180 243q33 47 82 47h80q48 0 78 -41l182 -247q16 -22 16 -43q0 -31 -41 -37q-35 -6 -69 -6q-43 0 -72 36l-137 170l-133 -167q-33 -39 -74 -39z" />
    <glyph glyph-name="caron" unicode="&#x2c7;" horiz-adv-x="403" 
d="M412 1559q32 0 65 -7q43 -6 43 -36q0 -15 -16 -41l-180 -244q-38 -47 -82 -47h-80q-48 0 -78 41l-182 248q-17 28 -17 43q0 30 41 36q40 7 70 7q42 0 72 -37l137 -168l133 166q33 39 74 39z" />
    <glyph glyph-name="breve" unicode="&#x2d8;" horiz-adv-x="403" 
d="M420 1513q39 0 55 -4q35 -8 35 -47q0 -45 -12 -84q-56 -207 -299 -207q-253 0 -291 209q-10 49 -10 72q0 48 43 55q24 6 57 6q23 0 33 -10q9 -9 14 -37q12 -63 47 -98t111 -35q79 0 113 34q35 35 51 97q12 49 53 49z" />
    <glyph glyph-name="dotaccent" unicode="&#x2d9;" horiz-adv-x="403" 
d="M317 1348q0 -125 -114 -125q-117 0 -117 123q0 124 117 124q114 0 114 -122z" />
    <glyph glyph-name="ring" unicode="&#x2da;" horiz-adv-x="403" 
d="M401 1372q0 -97 -56 -147q-57 -51 -148 -51q-89 0 -143 51t-54 147t56 149q57 54 147 54q93 0 145 -54q53 -55 53 -149zM315 1376q0 123 -116 123q-53 0 -85 -33q-32 -34 -32 -92t32 -92q32 -33 87 -33q114 0 114 127z" />
    <glyph glyph-name="ogonek" unicode="&#x2db;" horiz-adv-x="403" 
d="M395 14q-123 -85 -168 -136q-47 -53 -47 -126q0 -98 96 -98q32 0 54 1t37 1q36 0 43 -37q6 -37 6 -57q0 -40 -49 -47q-49 -11 -123 -11q-240 0 -240 213q0 114 61 178q58 61 179 119h151z" />
    <glyph glyph-name="tilde" unicode="&#x2dc;" horiz-adv-x="403" 
d="M-49 1204q-36 0 -51 4q-39 8 -39 41q0 13 12 51q78 187 186 187q50 0 156 -55q83 -39 113 -39q46 0 73 61q21 43 60 43q25 0 49 -6q37 -7 37 -37q0 -25 -17 -76q-60 -166 -180 -166q-56 0 -164 54q-78 39 -104 39q-42 0 -70 -54q-24 -47 -61 -47z" />
    <glyph glyph-name="hungarumlaut" unicode="&#x2dd;" horiz-adv-x="403" 
d="M2 1219q-35 -33 -76 -33q-45 0 -63 6q-37 7 -37 35q0 14 20 45l166 239q30 45 82 45q46 0 92 -6q45 -6 45 -39q0 -26 -20 -49zM346 1219q-33 -33 -78 -33q-44 0 -61 6q-35 8 -35 35q0 23 16 45l168 239q30 45 84 45q45 0 88 -6q50 -6 50 -39q0 -21 -25 -49z" />
    <glyph glyph-name="uni0394" unicode="&#x394;" horiz-adv-x="1419" 
d="M1378 84q8 -19 8 -39q0 -45 -55 -45h-1245q-53 0 -53 45q0 9 8 35l518 1251q23 53 70 53h174q46 0 67 -53zM713 1141q-78 -215 -379 -934h747q-30 77 -137 345q-70 175 -100 248q-46 110 -62 153q-9 25 -23.5 63t-19.5 51q-3 7 -26 74z" />
    <glyph glyph-name="uni03A9" unicode="&#x3a9;" horiz-adv-x="1515" 
d="M686 55q0 -33 -14 -44t-49 -11h-430q-33 0 -45 9q-11 8 -11 40v96q0 32 13 45t40 13h322q-188 73 -275 201q-90 133 -90 372q0 322 150 478q151 157 471 157q327 0 461 -154q133 -152 133 -471q0 -230 -86 -367q-85 -136 -272 -216h315q29 0 44 -13q13 -12 13 -45v-90
q0 -33 -10 -44t-43 -11h-430q-36 0 -50 11q-16 13 -16 44v162q0 59 47 82q120 56 181 163t61 296q0 248 -80 348q-79 98 -272 98q-195 0 -282 -105t-87 -349q0 -342 244 -453q47 -23 47 -82v-160z" />
    <glyph glyph-name="uni03BC" unicode="&#x3bc;" horiz-adv-x="1241" 
d="M403 -367q0 -51 -51 -51h-127q-49 0 -49 51v1342q0 53 47 53h133q47 0 47 -53v-606q0 -93 17 -133q27 -66 168 -66q137 0 196 20q23 7 39 25q13 13 13 59v701q0 53 51 53h131q47 0 47 -53v-813q0 -92 -72 -125q-141 -62 -395 -62q-144 0 -195 45v-387z" />
    <glyph glyph-name="pi" unicode="&#x3c0;" horiz-adv-x="1265" 
d="M463 55q0 -35 -12 -47t-43 -12h-111q-57 0 -57 61v770h-74q-29 0 -41 12t-12 42v86q0 57 55 57h967q59 0 59 -57v-84q0 -56 -53 -56h-78v-444q0 -150 18 -240q13 -80 13 -92q0 -24 -9 -38q-7 -12 -34 -13q-39 -6 -121 -6q-48 0 -60 55q-26 123 -26 330v448h-381v-772z
" />
    <glyph glyph-name="Wgrave" unicode="&#x1e80;" horiz-adv-x="1939" 
d="M973 1137q-57 -232 -273 -1020q-18 -68 -51 -95q-34 -28 -100 -28h-62q-117 0 -145 121l-285 1220q-8 35 -8 68q0 37 37 41q53 8 158 8q43 0 55 -53q209 -931 246 -1159q57 262 280 1054q16 60 43 85q28 26 82 26h54q58 0 86 -23q26 -22 43 -86q225 -835 272 -1056
q38 223 244 1151q12 61 57 61q108 0 156 -8q28 -4 28 -39q0 -31 -10 -70l-285 -1216q-15 -65 -46 -94q-33 -31 -101 -31h-53q-73 0 -106 28q-32 27 -50 97q-225 846 -266 1018zM911 1581l-299 201q-30 18 -30 49t47 37q101 8 139 8q47 0 94 -41l238 -197q26 -23 26 -49
q0 -24 -34 -30q-59 -9 -84 -9q-51 0 -97 31z" />
    <glyph glyph-name="wgrave" unicode="&#x1e81;" horiz-adv-x="1560" 
d="M782 733q-24 -101 -188 -637q-18 -60 -51 -81t-97 -21h-38q-59 0 -90 22t-46 78l-221 826q-10 39 -10 61q0 37 37 43q39 6 151 6q39 0 54 -51q129 -509 180 -756q62 254 186 649q19 65 44 89t77 24h31q54 0 79 -22q26 -23 44 -82q153 -463 200 -658q46 236 166 750
q15 57 53 57q103 0 146 -6q35 -6 35 -39q0 -5 -13 -59l-213 -828q-15 -57 -47 -80q-33 -24 -94 -24h-39q-60 0 -92 23q-33 24 -49 79q-159 509 -195 637zM713 1219l-230 243q-26 29 -26 51q0 29 45 37q49 6 121 6q53 0 86 -45l184 -239q18 -27 18 -45q0 -29 -34 -35
q-38 -6 -82 -6q-47 0 -82 33z" />
    <glyph glyph-name="Wacute" unicode="&#x1e82;" horiz-adv-x="1939" 
d="M973 1137q-57 -232 -273 -1020q-18 -68 -51 -95q-34 -28 -100 -28h-62q-117 0 -145 121l-285 1220q-8 35 -8 68q0 37 37 41q53 8 158 8q43 0 55 -53q209 -931 246 -1159q57 262 280 1054q16 60 43 85q28 26 82 26h54q58 0 86 -23q26 -22 43 -86q225 -835 272 -1056
q38 223 244 1151q12 61 57 61q108 0 156 -8q28 -4 28 -39q0 -31 -10 -70l-285 -1216q-15 -65 -46 -94q-33 -31 -101 -31h-53q-73 0 -106 28q-32 27 -50 97q-225 846 -266 1018zM1036 1581q-42 -31 -94 -31q-23 0 -86 9q-35 6 -35 30q0 25 29 49l235 197q47 41 95 41
q33 0 139 -8q47 -6 47 -37q0 -30 -33 -51z" />
    <glyph glyph-name="wacute" unicode="&#x1e83;" horiz-adv-x="1560" 
d="M782 733q-24 -101 -188 -637q-18 -60 -51 -81t-97 -21h-38q-59 0 -90 22t-46 78l-221 826q-10 39 -10 61q0 37 37 43q39 6 151 6q39 0 54 -51q129 -509 180 -756q62 254 186 649q19 65 44 89t77 24h31q54 0 79 -22q26 -23 44 -82q153 -463 200 -658q46 236 166 750
q15 57 53 57q103 0 146 -6q35 -6 35 -39q0 -5 -13 -59l-213 -828q-15 -57 -47 -80q-33 -24 -94 -24h-39q-60 0 -92 23q-33 24 -49 79q-159 509 -195 637zM844 1219q-27 -33 -82 -33q-42 0 -80 6q-35 6 -35 35q0 19 19 47l184 237q33 45 86 45q72 0 121 -6q45 -4 45 -37
q0 -21 -27 -51z" />
    <glyph glyph-name="Wdieresis" unicode="&#x1e84;" horiz-adv-x="1939" 
d="M973 1137q-57 -232 -273 -1020q-18 -68 -51 -95q-34 -28 -100 -28h-62q-117 0 -145 121l-285 1220q-8 35 -8 68q0 37 37 41q53 8 158 8q43 0 55 -53q209 -931 246 -1159q57 262 280 1054q16 60 43 85q28 26 82 26h54q58 0 86 -23q26 -22 43 -86q225 -835 272 -1056
q38 223 244 1151q12 61 57 61q108 0 156 -8q28 -4 28 -39q0 -31 -10 -70l-285 -1216q-15 -65 -46 -94q-33 -31 -101 -31h-53q-73 0 -106 28q-32 27 -50 97q-225 846 -266 1018zM883 1692q0 -125 -115 -125q-117 0 -117 123q0 127 117 127q115 0 115 -125zM1286 1692
q0 -125 -117 -125q-112 0 -112 123q0 127 112 127q56 0 87 -28q30 -27 30 -97z" />
    <glyph glyph-name="wdieresis" unicode="&#x1e85;" horiz-adv-x="1560" 
d="M782 733q-24 -101 -188 -637q-18 -60 -51 -81t-97 -21h-38q-59 0 -90 22t-46 78l-221 826q-10 39 -10 61q0 37 37 43q39 6 151 6q39 0 54 -51q129 -509 180 -756q62 254 186 649q19 65 44 89t77 24h31q54 0 79 -22q26 -23 44 -82q153 -463 200 -658q46 236 166 750
q15 57 53 57q103 0 146 -6q35 -6 35 -39q0 -5 -13 -59l-213 -828q-15 -57 -47 -80q-33 -24 -94 -24h-39q-60 0 -92 23q-33 24 -49 79q-159 509 -195 637zM707 1348q0 -125 -115 -125q-117 0 -117 123q0 124 117 124q115 0 115 -122zM1090 1348q0 -125 -117 -125
q-113 0 -113 123q0 124 113 124q117 0 117 -122z" />
    <glyph glyph-name="Ygrave" unicode="&#x1ef2;" horiz-adv-x="1212" 
d="M725 53q0 -57 -51 -57h-135q-50 0 -50 57v557l-454 733q-27 45 -27 66q0 24 25 35q19 8 182 8q42 0 72 -51q249 -405 327 -553q77 142 328 547q34 57 78 57q127 0 162 -8q22 -7 22 -31q0 -25 -22 -63l-457 -734v-563zM549 1581l-299 201q-31 19 -31 49q0 31 47 37
q101 8 140 8q47 0 94 -41l237 -197q27 -24 27 -49q0 -24 -35 -30q-59 -9 -84 -9q-49 0 -96 31z" />
    <glyph glyph-name="ygrave" unicode="&#x1ef3;" horiz-adv-x="1193" 
d="M154 305v670q0 53 47 53h133q47 0 47 -53v-621q0 -83 12 -116q24 -66 160 -66q128 0 207 35q24 7 39 24q14 14 14 54v690q0 53 49 53h131q47 0 47 -53v-916q0 -167 -26 -254q-40 -153 -207 -219q-164 -65 -473 -65q-29 0 -45 8q-14 7 -19 33q-6 45 -6 94q0 59 51 59
q249 7 348 41q96 32 123 101q21 51 21 139v43q-117 -66 -330 -66q-251 0 -301 131q-22 62 -22 201zM549 1219l-230 243q-26 29 -26 51q0 29 45 37q50 6 121 6q52 0 86 -45l184 -239q19 -28 19 -45q0 -29 -35 -35q-38 -6 -82 -6q-47 0 -82 33z" />
    <glyph glyph-name="endash" unicode="&#x2013;" horiz-adv-x="1126" 
d="M1010 453h-893q-45 0 -45 45v100q0 47 47 47h889q49 0 49 -47v-102q0 -43 -47 -43z" />
    <glyph glyph-name="emdash" unicode="&#x2014;" horiz-adv-x="1738" 
d="M1622 453h-1505q-45 0 -45 45v100q0 47 47 47h1501q49 0 49 -47v-102q0 -43 -47 -43z" />
    <glyph glyph-name="quoteleft" unicode="&#x2018;" horiz-adv-x="428" 
d="M211 940h-84q-68 0 -68 70q0 119 47 262q46 139 127 223q41 41 70 41q33 0 62 -20q34 -21 34 -50q0 -24 -18 -51q-94 -146 -94 -395q0 -80 -76 -80z" />
    <glyph glyph-name="quoteright" unicode="&#x2019;" horiz-adv-x="428" 
d="M217 1534h84q68 0 68 -70q0 -119 -47 -260q-46 -138 -129 -227q-35 -39 -68 -39q-35 0 -64 20q-32 22 -32 50q0 22 20 49q93 153 94 397q0 80 74 80z" />
    <glyph glyph-name="quotesinglbase" unicode="&#x201a;" horiz-adv-x="430" 
d="M217 223h84q68 0 68 -71q0 -120 -47 -261q-46 -139 -129 -225q-35 -39 -68 -39t-62 19q-34 22 -34 49q0 24 20 51q93 155 94 395q0 82 74 82z" />
    <glyph glyph-name="quotedblleft" unicode="&#x201c;" horiz-adv-x="800" 
d="M211 940h-84q-68 0 -68 72q0 119 47 260q46 137 127 223q41 41 70 41q33 0 62 -20q34 -21 34 -50q0 -24 -18 -51q-94 -146 -94 -395q0 -80 -76 -80zM584 940h-84q-68 0 -68 72q0 121 47 262q46 138 129 221q38 41 66 41q34 0 63 -20q35 -23 35 -50q0 -24 -20 -51
q-94 -150 -95 -395q0 -80 -73 -80z" />
    <glyph glyph-name="quotedblright" unicode="&#x201d;" horiz-adv-x="800" 
d="M588 1534h86q65 0 65 -70q0 -120 -47 -263q-46 -139 -129 -224q-39 -39 -65 -39q-28 0 -64 20q-33 22 -33 50q0 19 19 49q93 153 94 397q0 80 74 80zM217 1534h84q68 0 68 -70q0 -121 -48 -262q-48 -140 -128 -225q-35 -39 -68 -39q-35 0 -64 20q-32 20 -32 50
q0 20 20 49q89 140 94 397q0 80 74 80z" />
    <glyph glyph-name="quotedblbase" unicode="&#x201e;" horiz-adv-x="802" 
d="M588 223h84q67 0 67 -71q0 -123 -46 -258q-48 -140 -130 -228q-35 -39 -67 -39q-27 0 -62 19q-35 23 -35 49q0 23 21 51q93 155 94 395q0 82 74 82zM217 223h84q68 0 68 -71q0 -123 -46 -258q-48 -140 -130 -228q-35 -39 -68 -39q-34 0 -64 19q-32 20 -32 49q0 24 20 51
q93 155 94 395q0 82 74 82z" />
    <glyph glyph-name="dagger" unicode="&#x2020;" horiz-adv-x="972" 
d="M590 -129q0 -47 -43 -47h-123q-43 0 -43 47v987h-277q-36 0 -36 37v123q0 39 36 39h277v362q0 47 45 47h123q41 0 41 -47v-362h274q25 0 33 -8t8 -29v-125q0 -37 -39 -37h-276v-987z" />
    <glyph glyph-name="daggerdbl" unicode="&#x2021;" horiz-adv-x="972" 
d="M590 -129q0 -47 -43 -47h-123q-43 0 -43 47v358h-277q-36 0 -36 39v121q0 39 36 39h277v430h-277q-36 0 -36 37v123q0 39 36 39h277v362q0 47 45 47h123q41 0 41 -47v-362h274q25 0 33 -8t8 -29v-125q0 -37 -39 -37h-276v-430h274q41 0 41 -37v-125q0 -37 -39 -37h-276
v-358z" />
    <glyph glyph-name="bullet" unicode="&#x2022;" horiz-adv-x="743" 
d="M639 535q0 -279 -268 -279q-267 0 -267 276q0 281 267 281q131 0 199 -64q69 -65 69 -214z" />
    <glyph glyph-name="ellipsis" unicode="&#x2026;" horiz-adv-x="2052" 
d="M545 133q0 -156 -154 -156q-149 0 -149 156q0 82 43 121t110 39q150 0 150 -160zM1178 133q0 -156 -154 -156q-150 0 -150 156q0 82 44 121t110 39q150 0 150 -160zM1810 133q0 -156 -153 -156q-148 0 -148 156q0 160 152 160q149 0 149 -160z" />
    <glyph glyph-name="perthousand" unicode="&#x2030;" horiz-adv-x="2537" 
d="M721 971q0 -260 -73 -354q-72 -93 -255 -93q-172 0 -246 92q-73 91 -73 347q0 255 84 346q84 92 245 92q121 0 185 -32q63 -32 98 -125q35 -94 35 -273zM555 967q0 180 -32 238q-32 57 -124 57q-85 0 -123 -62q-36 -59 -36 -237q0 -187 34 -245q35 -59 121 -59
q90 0 125 59t35 249zM596 -31q-18 -35 -49 -35q-37 0 -49 5q-17 6 -17 20q0 17 15 45l678 1407q23 47 55 47q26 0 45 -4q22 -1 22 -22q0 -14 -18 -52zM1694 430q0 -257 -74 -352q-73 -94 -254 -94q-175 0 -247 92t-72 346q0 255 82 346q83 92 247 92q118 0 184 -32
q64 -32 99 -126q35 -96 35 -272zM1528 426q0 181 -32 239q-31 56 -124 56q-86 0 -124 -62t-38 -237q0 -183 35 -244q34 -59 121 -59q90 0 126 58q36 59 36 249zM2466 430q0 -258 -75 -352t-255 -94q-173 0 -245 92t-72 346t84 346t245 92q118 0 184 -32q64 -32 99 -126
q35 -96 35 -272zM2298 426q0 180 -31 239q-29 56 -123 56q-87 0 -125 -61q-37 -59 -37 -238q0 -183 35 -244q34 -59 123 -59t123 58q35 59 35 249z" />
    <glyph glyph-name="guilsinglleft" unicode="&#x2039;" horiz-adv-x="655" 
d="M301 543l248 -326q20 -27 20 -47q0 -30 -26 -31q-55 -6 -117 -6q-35 0 -68 39l-252 309q-28 32 -28 60t22 51l252 315q40 49 74 49q67 0 117 -8q28 -4 28 -26q0 -20 -24 -54z" />
    <glyph glyph-name="guilsinglright" unicode="&#x203a;" horiz-adv-x="655" 
d="M354 545l-248 325q-20 27 -20 48q0 28 27 30q54 8 114 8q35 0 70 -41l252 -309q29 -34 29 -59q0 -26 -23 -51l-252 -316q-39 -47 -76 -47q-79 0 -116 6q-27 5 -27 29q0 17 25 53z" />
    <glyph glyph-name="fraction" unicode="&#x2044;" horiz-adv-x="172" 
d="M-207 -31q-18 -35 -49 -35q-37 0 -49 5q-17 6 -17 20q0 11 17 45l678 1407q23 47 53 47q26 0 47 -4q21 -2 21 -22q0 -12 -19 -52z" />
    <glyph glyph-name="zero.superior" unicode="&#x2070;" 
d="M721 1290q0 -259 -73 -353q-72 -93 -255 -93q-172 0 -246 92q-73 91 -73 346q0 254 84 346t245 92q123 0 185 -31q63 -32 98 -125q35 -94 35 -274zM555 1286q0 181 -32 239q-31 56 -124 56q-86 0 -123 -61q-36 -59 -36 -238q0 -187 34 -245t121 -58q91 0 125 58
q35 59 35 249z" />
    <glyph glyph-name="four.superior" unicode="&#x2074;" 
d="M623 895q0 -37 -37 -37h-88q-33 0 -33 37v158h-320q-46 0 -64 14q-20 15 -20 53q0 46 33 109l232 442q18 35 51 35q78 0 100 -2q19 -5 19 -23q0 -10 -11 -32l-243 -453h223v150q0 36 35 36h90q33 0 33 -34v-152h79q37 0 37 -33v-80q0 -30 -37 -30h-79v-158z" />
    <glyph glyph-name="five.superior" unicode="&#x2075;" 
d="M272 1374q107 10 138 10q146 0 208 -53t62 -209q0 -140 -79 -209t-259 -69q-152 0 -215 20q-33 12 -33 35q0 15 19 78q7 22 28 22q15 0 58 -8q44 -10 137 -10q95 0 135 32q39 31 39 105q0 78 -39 102q-37 23 -125 23q-28 0 -75 -3q-46 -3 -60 -3q-80 0 -80 78q0 46 2 78
l14 272q5 39 35 39h416q33 0 33 -31v-82q0 -28 -37 -28h-311z" />
    <glyph glyph-name="six.superior" unicode="&#x2076;" 
d="M252 1335q64 64 203 64t199 -63q61 -64 61 -212q0 -282 -309 -282q-166 0 -241 94t-75 315q0 243 82 356t289 113q107 0 176 -18q22 -6 22 -31q0 -44 -14 -82q-5 -18 -22 -18q-15 0 -58 6q-55 6 -96 6q-125 0 -167 -53t-50 -195zM254 1163q0 -35 6 -73q18 -113 148 -113
q76 0 113 35q36 34 36 114q0 72 -34 105t-105 33q-117 0 -152 -54q-12 -21 -12 -47z" />
    <glyph glyph-name="seven.superior" unicode="&#x2077;" 
d="M504 1563h-400q-34 0 -34 30v80q0 31 34 31h496q94 0 94 -70q0 -35 -24 -92l-267 -645q-21 -45 -53 -45q-56 0 -100 6q-27 6 -27 31q0 22 10 45z" />
    <glyph glyph-name="eight.superior" unicode="&#x2078;" 
d="M541 1305q166 -24 166 -209q0 -129 -75 -191q-74 -61 -243 -61q-170 0 -242 59q-73 60 -73 187q0 174 168 215q-144 37 -144 188q0 119 74 173t225 54q155 0 223 -52t68 -171q0 -153 -147 -192zM539 1106q0 121 -148 121q-153 0 -153 -123q0 -129 153 -129q148 0 148 131
zM522 1475q0 60 -28 85t-103 25q-73 0 -103 -27t-30 -85q0 -111 131 -111q57 0 95 27t38 86z" />
    <glyph glyph-name="nine.superior" unicode="&#x2079;" 
d="M532 1225q-69 -58 -198 -58q-138 0 -198 62q-60 61 -60 207q0 284 315 284q164 0 235 -92q70 -91 70 -315q0 -245 -82 -357t-295 -112q-133 0 -182 18q-22 7 -22 31q0 32 14 80q6 20 27 20q8 0 61 -8q43 -6 102 -6q124 0 165 56q42 57 48 190zM530 1399q0 34 -8 82
q-24 106 -141 106q-78 0 -116 -35t-38 -114q0 -75 34 -106q35 -32 108 -32q121 0 151 50q10 20 10 49z" />
    <glyph glyph-name="parenleft.superior" unicode="&#x207d;" horiz-adv-x="446" 
d="M221 1247q0 -213 51 -321q51 -107 154 -203q8 -8 8 -18q0 -13 -14 -27q-14 -10 -27 -10q-21 0 -45 12q-272 163 -272 567q0 396 268 559q28 15 47 15q13 0 29 -11q14 -14 14 -26q0 -16 -10 -23q-99 -82 -151 -196q-52 -113 -52 -318z" />
    <glyph glyph-name="parenright.superior" unicode="&#x207e;" horiz-adv-x="446" 
d="M225 1241q0 149 -31 255q-31 107 -70 158q-36 48 -104 111q-8 8 -8 19q0 14 15 26q16 11 26 11q14 0 45 -13q273 -158 273 -567q0 -223 -81 -359t-190 -200q-27 -14 -45 -14t-28 10q-17 17 -17 27q0 13 10 20q100 83 153 198q52 114 52 318z" />
    <glyph glyph-name="n.superior" unicode="&#x207f;" horiz-adv-x="772" 
d="M264 573q0 -34 -37 -34h-96q-31 0 -31 34v480q0 61 45 77q133 54 328 54q157 0 186 -80q15 -34 15 -123v-408q0 -34 -33 -34h-98q-31 0 -31 34v375q0 43 -8 62q-12 37 -86 37q-81 0 -123 -17q-14 -5 -25 -16q-6 -8 -6 -31v-410z" />
    <glyph glyph-name="zero.inferior" unicode="&#x2080;" 
d="M721 172q0 -259 -73 -353q-72 -93 -255 -93q-172 0 -246 92q-73 91 -73 346q0 254 84 346t245 92q121 0 185 -32q63 -32 98 -125q35 -94 35 -273zM555 168q0 181 -32 239q-31 56 -124 56q-85 0 -123 -62q-36 -59 -36 -237q0 -187 34 -245t121 -58q91 0 125 58
q35 59 35 249z" />
    <glyph glyph-name="one.inferior" unicode="&#x2081;" 
d="M618 -256h-382q-33 0 -33 31v78q0 32 33 32h120v541l-120 -45q-15 -6 -31 -6q-13 0 -21 18q-28 78 -28 88q0 18 20 25l162 63q51 21 94 21h14q74 0 74 -82v-623h96q35 0 35 -32v-80q0 -29 -33 -29z" />
    <glyph glyph-name="two.inferior" unicode="&#x2082;" 
d="M664 -258h-517q-75 0 -75 74q0 52 51 90q156 115 287 235q98 89 98 183q0 70 -38 105q-37 34 -128 34q-73 0 -135 -14q-45 -9 -51 -9q-17 0 -23 17q-14 48 -14 80q0 19 31 30q107 35 235 35q168 0 228 -66q61 -67 61 -190q0 -132 -101 -233q-105 -110 -282 -232
q102 2 373 2q34 0 34 -30v-78q0 -33 -34 -33z" />
    <glyph glyph-name="three.inferior" unicode="&#x2083;" 
d="M471 188q102 -10 147 -57q46 -48 46 -149q0 -128 -75 -192q-74 -64 -255 -64q-141 0 -211 20q-35 12 -35 35q0 27 21 82q6 18 26 18q7 0 25 -3t24 -3q69 -12 142 -12q103 0 138 32q34 31 34 91q0 64 -37 88q-37 23 -139 28q-40 1 -56 19q-14 15 -14 53t15 56t57 20
q78 7 114 33q33 24 33 73q0 61 -32 84t-120 23q-65 0 -122 -12q-45 -9 -50 -9q-14 0 -20 19q-14 42 -14 78q0 27 28 34q93 29 215 29q165 0 222 -54t57 -177q0 -150 -164 -183z" />
    <glyph glyph-name="four.inferior" unicode="&#x2084;" 
d="M623 -223q0 -37 -37 -37h-88q-33 0 -33 37v157h-320q-44 0 -64 15t-20 53q0 46 33 109l232 442q18 35 51 35q78 0 100 -2q19 -5 19 -23q0 -11 -11 -33l-243 -452h223v149q0 37 35 37h90q33 0 33 -35v-151h79q37 0 37 -33v-80q0 -31 -37 -31h-79v-157z" />
    <glyph glyph-name="five.inferior" unicode="&#x2085;" 
d="M272 256q107 10 138 10q146 0 208 -53t62 -209q0 -140 -79 -209t-259 -69q-152 0 -215 20q-33 12 -33 35q0 15 19 78q7 22 28 22q15 0 58 -8q44 -10 137 -10q95 0 135 32q39 31 39 105q0 77 -39 101t-125 24q-28 0 -75 -3t-60 -3q-80 0 -80 78q0 45 2 77l14 273
q5 39 35 39h416q33 0 33 -31v-82q0 -29 -37 -29h-311z" />
    <glyph glyph-name="six.inferior" unicode="&#x2086;" 
d="M252 217q64 64 203 64t199 -63q61 -64 61 -212q0 -282 -309 -282q-166 0 -241 94t-75 315q0 242 82 355q82 114 289 114q107 0 176 -18q22 -6 22 -31q0 -44 -14 -82q-5 -18 -22 -18q-15 0 -58 6q-55 6 -96 6q-125 0 -167 -53t-50 -195zM254 45q0 -36 6 -74
q18 -112 148 -112q76 0 113 35q36 34 36 114q0 72 -34 105q-33 32 -105 32q-117 0 -152 -53q-12 -21 -12 -47z" />
    <glyph glyph-name="seven.inferior" unicode="&#x2087;" 
d="M504 444h-400q-34 0 -34 31v80q0 31 34 31h496q94 0 94 -70q0 -35 -24 -92l-267 -645q-21 -45 -53 -45q-56 0 -100 6q-27 6 -27 31q0 22 10 45z" />
    <glyph glyph-name="eight.inferior" unicode="&#x2088;" 
d="M541 186q166 -24 166 -209q0 -129 -75 -190q-74 -61 -243 -61q-170 0 -242 59q-73 60 -73 186q0 175 168 215q-144 38 -144 189q0 119 74 173t225 54q155 0 223 -52t68 -171q0 -154 -147 -193zM539 -12q0 121 -148 121q-153 0 -153 -123q0 -129 153 -129q148 0 148 131z
M522 356q0 60 -28 85q-29 26 -103 26q-72 0 -103 -28q-30 -27 -30 -85q0 -110 131 -110q59 0 95 26q38 27 38 86z" />
    <glyph glyph-name="nine.inferior" unicode="&#x2089;" 
d="M532 106q-68 -57 -198 -57q-138 0 -198 62t-60 206q0 285 315 285q164 0 235 -92q70 -91 70 -315q0 -245 -82 -357t-295 -112q-133 0 -182 18q-22 7 -22 31q0 32 14 80q6 20 27 20q8 0 61 -8q43 -6 102 -6q124 0 165 56q42 57 48 189zM530 281q0 33 -8 81
q-24 107 -141 107q-78 0 -116 -35t-38 -115q0 -74 34 -105q35 -32 108 -32q121 0 151 49q10 20 10 50z" />
    <glyph glyph-name="parenleft.inferior" unicode="&#x208d;" horiz-adv-x="446" 
d="M221 129q0 -214 51 -322q50 -105 154 -202q8 -8 8 -19q0 -12 -14 -26q-16 -11 -27 -11q-19 0 -45 13q-272 163 -272 567q0 396 268 559q27 14 47 14q15 0 29 -10q14 -14 14 -26q0 -16 -10 -23q-98 -82 -151 -197q-52 -113 -52 -317z" />
    <glyph glyph-name="parenright.inferior" unicode="&#x208e;" horiz-adv-x="446" 
d="M225 123q0 149 -31 255q-31 107 -70 158q-36 48 -104 111q-8 8 -8 19q0 14 15 26q14 10 26 10q17 0 45 -12q273 -158 273 -567q0 -223 -81 -360q-80 -135 -190 -199q-28 -15 -45 -15t-28 11q-17 17 -17 26q0 14 10 21q101 83 153 197t52 319z" />
    <glyph glyph-name="Euro" unicode="&#x20ac;" horiz-adv-x="1306" 
d="M961 774h-418v-76v-80h418q40 0 40 -38v-41q0 -43 -40 -43h-410q21 -163 91 -240q70 -78 230 -78q124 0 246 31q52 12 62 12q22 0 32 -24q29 -75 29 -121q0 -31 -43 -47q-162 -54 -367 -54q-233 0 -358 117q-126 118 -154 404h-137q-45 0 -45 43v41q0 38 45 38h131v52
q0 58 2 104h-133q-45 0 -45 39v41q0 43 45 43h142q30 269 159 390q130 122 402 122q165 0 282 -27q45 -12 45 -47q0 -41 -24 -123q-6 -24 -35 -24q-5 0 -68 10q-70 10 -194 10q-166 0 -241 -75q-76 -76 -97 -236h408q40 0 40 -41v-43q0 -39 -40 -39z" />
    <glyph glyph-name="afii61289" unicode="&#x2113;" horiz-adv-x="964" 
d="M412 444q10 -282 235 -282q81 0 176 43q37 18 54 18q27 0 43 -33q32 -67 32 -84q0 -31 -32 -51q-134 -82 -310 -82q-324 0 -387 342q-51 -35 -76 -47q-24 -12 -38 -12q-19 0 -30 10q-10 9 -32 45q-18 33 -18 56q0 31 30 47q63 39 131 84q-14 143 -14 243q0 273 45 410
q44 133 128 195q85 63 229 63q150 0 223 -78q73 -77 73 -221q0 -191 -143 -373q-55 -72 -123 -132q-76 -67 -196 -161zM385 645q151 128 219 221q86 115 86 230q0 135 -125 135q-100 0 -143 -94q-43 -87 -43 -326q0 -58 6 -166z" />
    <glyph glyph-name="trademark" unicode="&#x2122;" horiz-adv-x="1640" 
d="M432 778q0 -35 -35 -35h-73q-31 0 -31 35v543h-174q-33 0 -33 31v59q0 35 33 35h483q35 0 35 -33v-61q0 -31 -35 -31h-170v-543zM901 778q0 -35 -29 -35h-77q-29 0 -29 37v572q0 96 88 96h45q60 0 84 -62q109 -255 135 -325q27 74 129 319q27 68 92 68h43q78 0 78 -96
v-570q0 -39 -33 -39h-73q-29 0 -29 37q0 403 2 537q-30 -94 -145 -383q-16 -39 -56 -39h-22q-40 0 -57 41q-149 379 -150 381q4 -160 4 -539z" />
    <glyph glyph-name="Omega" unicode="&#x2126;" horiz-adv-x="1515" 
d="M686 55q0 -33 -14 -44t-49 -11h-430q-33 0 -45 9q-11 8 -11 40v96q0 32 13 45t40 13h322q-188 73 -275 201q-90 133 -90 372q0 322 150 478q151 157 471 157q327 0 461 -154q133 -152 133 -471q0 -230 -86 -367q-85 -136 -272 -216h315q29 0 44 -13q13 -12 13 -45v-90
q0 -33 -10 -44t-43 -11h-430q-36 0 -50 11q-16 13 -16 44v162q0 59 47 82q242 108 242 459q0 248 -80 348q-79 98 -272 98q-195 0 -282 -105t-87 -349q0 -342 244 -453q47 -23 47 -82v-160z" />
    <glyph glyph-name="estimated" unicode="&#x212e;" horiz-adv-x="1730" 
d="M1645 688h-1262q-12 0 -12 -8v-399q0 -22 20 -45q195 -218 477 -218q302 0 500 242h117q-112 -132 -273 -208q-163 -77 -346 -77q-323 0 -552 215q-228 214 -228 519q0 302 228 517q227 214 552 214q324 0 551 -214q228 -215 228 -517v-21zM1362 741v400q0 26 -23 49
q-201 207 -471 207q-277 0 -475 -215q-22 -18 -22 -49v-392q0 -10 12 -10h967q12 0 12 10z" />
    <glyph glyph-name="onethird" unicode="&#x2153;" horiz-adv-x="1765" 
d="M1442 446q102 -10 147 -57q45 -46 45 -149q0 -128 -74 -192t-255 -64q-141 0 -211 20q-35 12 -35 35q0 29 20 82q6 18 27 18q6 0 24 -3t25 -3q69 -12 141 -12q104 0 139 32q33 30 33 91q0 65 -36 88q-37 23 -140 28q-39 1 -55 19q-14 15 -14 53t15 56t56 20q80 7 115 33
q33 24 33 73q0 61 -32 84t-120 23q-66 0 -123 -12q-45 -9 -49 -9q-14 0 -20 19q-15 45 -15 78q0 26 29 34q93 29 215 29q164 0 221 -54q58 -55 58 -177q0 -150 -164 -183zM606 541h-383q-33 0 -33 30v78q0 33 33 33h121v541l-121 -45q-2 0 -10 -2q-2 -1 -6 -2.5t-5 -1.5
q-3 -1 -9 -1q-13 0 -21 19q-29 81 -29 88q0 18 21 25l162 63q49 20 94 20h14q74 0 74 -81v-623h96q35 0 35 -33v-80q0 -28 -33 -28zM559 -31q-18 -35 -49 -35q-37 0 -49 5q-17 6 -17 20q0 11 17 45l678 1407q23 47 53 47q26 0 47 -4q21 -2 21 -22q0 -12 -19 -52z" />
    <glyph glyph-name="twothirds" unicode="&#x2154;" horiz-adv-x="1765" 
d="M639 -31q-17 -35 -49 -35q-37 0 -49 5q-17 6 -17 20q0 11 17 45l678 1407q23 47 53 47q26 0 47 -4q20 -1 20 -22q0 -14 -18 -52zM694 541h-516q-76 0 -76 73q0 53 52 91q150 111 286 235q99 90 99 182q0 71 -38 106q-37 34 -128 34q-69 0 -135 -15q-40 -8 -52 -8
q-16 0 -22 16q-14 48 -14 80q0 21 30 31q107 35 236 35q167 0 228 -67t61 -189q0 -133 -101 -234q-102 -107 -282 -231q102 2 372 2q35 0 35 -31v-78q0 -32 -35 -32zM1489 446q102 -10 147 -57q45 -46 45 -149q0 -128 -74 -192t-255 -64q-141 0 -211 20q-35 12 -35 35
q0 29 20 82q6 18 27 18q7 0 25 -3t24 -3q72 -12 141 -12q104 0 139 32q34 31 34 91q0 64 -37 88q-37 23 -140 28q-39 1 -55 19q-14 15 -14 53t15 56t56 20q80 7 115 33q33 24 33 73q0 61 -32 84t-120 23q-63 0 -123 -12q-45 -9 -49 -9q-14 0 -20 19q-15 45 -15 78
q0 26 29 34q96 29 215 29q164 0 221 -54q58 -55 58 -177q0 -150 -164 -183z" />
    <glyph glyph-name="oneeighth" unicode="&#x215b;" horiz-adv-x="1765" 
d="M1491 444q166 -24 166 -208q0 -130 -75 -191q-74 -61 -243 -61t-241 59q-74 60 -74 186q0 175 168 215q-143 37 -143 189q0 119 73 173q74 54 226 54q154 0 222 -52t68 -171q0 -154 -147 -193zM586 541h-383q-33 0 -33 30v78q0 33 33 33h121v541l-121 -45q-2 0 -10 -2
l-12 -4q-3 -1 -9 -1q-12 0 -20 19q-29 81 -29 88q0 18 20 25l162 63q49 20 94 20h15q73 0 73 -81v-623h97q34 0 34 -33v-80q0 -28 -32 -28zM530 -31q-18 -35 -49 -35q-37 0 -49 5q-16 6 -16 20q0 13 16 45l678 1407q23 47 53 47q26 0 47 -4q21 -2 21 -22q0 -12 -19 -52z
M1489 246q0 121 -148 121q-153 0 -153 -123q0 -129 153 -129q148 0 148 131zM1473 614q0 59 -29 85t-103 26q-72 0 -103 -28q-30 -27 -30 -85q0 -110 131 -110q60 0 96 26q38 27 38 86z" />
    <glyph glyph-name="threeeighths" unicode="&#x215c;" horiz-adv-x="1765" 
d="M571 -31q-18 -35 -49 -35q-37 0 -49 5q-16 6 -16 20q0 13 16 45l678 1407q23 47 53 47q26 0 47 -4q21 -2 21 -22q0 -12 -19 -52zM487 987q103 -11 148 -57t45 -150q0 -126 -75 -191q-76 -65 -255 -65q-137 0 -211 21q-35 12 -35 35q0 26 21 82q6 18 27 18q6 0 24 -3
t25 -3q69 -12 141 -12q104 0 138 31t34 91q0 64 -37 88q-38 25 -139 29q-39 1 -55 19q-15 17 -15 53q0 37 16 56q15 18 56 20q81 7 115 32q32 23 32 74q0 62 -31 84q-32 23 -120 23q-61 0 -123 -13q-40 -8 -49 -8q-15 0 -21 19q-14 42 -14 77q0 27 29 35q96 29 215 29
q164 0 221 -54t57 -178q0 -149 -164 -182zM1495 444q166 -24 166 -208q0 -130 -75 -191q-74 -61 -243 -61t-241 59q-74 60 -74 186q0 175 168 215q-143 37 -143 189q0 119 73 173q74 54 226 54q154 0 222 -52t68 -171q0 -154 -147 -193zM1493 246q0 121 -147 121
q-154 0 -154 -123q0 -129 154 -129q147 0 147 131zM1477 614q0 59 -29 85t-102 26t-104 -28q-30 -27 -30 -85q0 -110 131 -110q60 0 96 26q38 27 38 86z" />
    <glyph glyph-name="fiveeighths" unicode="&#x215d;" horiz-adv-x="1765" 
d="M582 -31q-17 -35 -50 -35q-37 0 -49 5q-16 6 -16 20q0 13 16 45l678 1407q23 47 53 47q27 0 48 -4q20 -1 20 -22q0 -14 -18 -52zM289 1055q107 10 137 10q147 0 209 -53q61 -52 61 -209q0 -140 -79 -209q-81 -70 -259 -70q-149 0 -215 21q-32 12 -32 35q0 17 18 77
q8 23 29 23q14 0 57 -8q44 -10 137 -10q97 0 135 31q39 31 39 106q0 77 -39 101t-125 24q-28 0 -74 -3t-61 -3q-80 0 -80 77q0 30 3 78l14 273q4 38 35 38h415q33 0 33 -30v-82q0 -29 -37 -29h-311zM1499 444q166 -24 166 -208q0 -130 -75 -191q-74 -61 -242 -61
q-170 0 -242 59q-74 60 -74 186q0 175 168 215q-143 37 -143 189q0 119 73 173q74 54 226 54q154 0 222 -52q69 -52 69 -171q0 -154 -148 -193zM1497 246q0 121 -147 121q-154 0 -154 -123q0 -129 154 -129q147 0 147 131zM1481 614q0 59 -29 85t-102 26t-104 -28
q-29 -26 -29 -85q0 -110 131 -110q59 0 95 26q38 27 38 86z" />
    <glyph glyph-name="seveneighths" unicode="&#x215e;" horiz-adv-x="1765" 
d="M485 -31q-18 -35 -49 -35q-37 0 -49 5q-16 6 -16 20q0 13 16 45l678 1407q23 47 53 47q26 0 47 -4q21 -2 21 -22q0 -12 -19 -52zM537 1243h-400q-35 0 -35 31v80q0 30 35 30h496q94 0 94 -69q0 -33 -25 -92l-266 -645q-21 -46 -53 -46q-49 0 -100 7q-27 6 -27 30
q0 22 10 45zM1423 444q166 -24 166 -208q0 -130 -75 -191q-74 -61 -242 -61q-170 0 -242 59q-74 60 -74 186q0 175 168 215q-143 37 -143 189q0 119 74 173q73 54 225 54q154 0 222 -52q69 -52 69 -171q0 -154 -148 -193zM1421 246q0 121 -147 121q-154 0 -154 -123
q0 -129 154 -129q147 0 147 131zM1405 614q0 59 -29 85t-102 26t-104 -28q-29 -26 -29 -85q0 -110 131 -110q59 0 95 26q38 27 38 86z" />
    <glyph glyph-name="arrowleft" unicode="&#x2190;" horiz-adv-x="1572" 
d="M1421 797q80 0 80 -66v-82q0 -69 -69 -69q-874 0 -1018 4l420 -391q34 -30 34 -64q0 -23 -16 -43l-49 -57q-21 -21 -47 -25q-19 0 -47 23l-615 610q-22 21 -22 51t22 51l623 619q21 22 43 22q24 0 45 -22l47 -53q22 -22 22 -45q0 -32 -24 -54l-436 -413q140 4 1007 4z
" />
    <glyph glyph-name="arrowup" unicode="&#x2191;" horiz-adv-x="1572" 
d="M678 72q0 851 4 991q-126 -141 -422 -414q-22 -22 -49 -22t-43 16l-45 49q-25 25 -25 49t23 47l620 619q23 23 50 23q28 0 49 -23l612 -612q23 -23 23 -47q0 -27 -25 -52l-47 -49q-18 -18 -41 -18q-33 0 -66 33l-397 401q2 -212 2 -991q0 -72 -63 -72h-97q-63 0 -63 72z
" />
    <glyph glyph-name="arrowright" unicode="&#x2192;" horiz-adv-x="1572" 
d="M152 795q864 0 1005 -4l-438 415q-25 23 -25 51q0 27 21 48l49 51q22 24 49 24q17 0 43 -22l623 -619q22 -21 22 -51t-22 -51l-617 -610q-21 -21 -47 -21q-22 0 -45 23l-51 57q-19 19 -19 43q0 35 33 64q405 375 426 393q-145 -4 -1020 -4q-31 0 -49 18t-18 51v78
q0 66 80 66z" />
    <glyph glyph-name="arrowdown" unicode="&#x2193;" horiz-adv-x="1572" 
d="M678 1300q0 82 63 82h97q63 0 63 -71q0 -782 -2 -994l397 404q33 33 66 33q22 0 39 -17l49 -51q25 -25 25 -49q0 -26 -23 -49l-610 -613q-24 -24 -51 -24q-26 0 -50 24l-620 619q-23 23 -23 47t25 49l49 49q17 17 43 17t49 -23q234 -220 418 -414q-4 141 -4 981z" />
    <glyph glyph-name="uni2196" unicode="&#x2196;" horiz-adv-x="1572" 
d="M1335 313q35 -30 35 -57q0 -21 -31 -57q-69 -76 -96 -76q-23 0 -49 22l-709 709q9 -148 9 -571q0 -43 -21 -66q-16 -16 -43 -16h-78q-33 0 -49 16q-16 20 -16 55v858q0 38 20 54q23 20 60 20h870q33 0 49 -16q17 -22 17 -51v-66q0 -29 -17 -51q-15 -16 -55 -16
q-500 0 -621 10z" />
    <glyph glyph-name="uni2197" unicode="&#x2197;" horiz-adv-x="1572" 
d="M389 158q-33 -33 -57 -33q-26 0 -51 25q-59 62 -66 73q-12 18 -12 35q0 24 24 47l729 699q-300 -11 -594 -11q-41 0 -63 19q-16 16 -16 47v80q0 29 16 49q16 16 51 16h867q31 0 51 -20q18 -16 18 -62v-864q0 -35 -16 -51q-17 -19 -49 -19h-76q-35 0 -47 17q-19 22 -19 57
q0 433 6 586q-185 -196 -696 -690z" />
    <glyph glyph-name="uni2198" unicode="&#x2198;" horiz-adv-x="1572" 
d="M238 1065q-33 29 -33 57t28 56q72 73 99 73q26 0 47 -20q601 -586 713 -709q0 14 -3 83q-5 116 -6 198q-2 172 -2 291q0 42 21 65q19 19 41 19h82q23 0 47 -19q16 -16 16 -53v-860q0 -33 -20 -53q-18 -21 -60 -21h-870q-33 0 -49 16q-15 15 -15 52v69q0 34 15 49
q22 19 61 19q387 0 606 -8z" />
    <glyph glyph-name="uni2199" unicode="&#x2199;" horiz-adv-x="1572" 
d="M1186 1225q28 28 55 28q24 0 51 -24q76 -73 76 -105q0 -28 -25 -53l-729 -700q283 10 596 10q40 0 62 -21q18 -15 18 -45v-75q0 -34 -16 -50q-18 -18 -51 -18h-852q-41 0 -64 23q-20 17 -20 69v858q0 36 16 52t51 16h78q31 0 47 -16q17 -19 17 -60q0 -332 -9 -579
q154 164 699 690z" />
    <glyph glyph-name="partialdiff" unicode="&#x2202;" horiz-adv-x="1142" 
d="M807 807q-7 245 -69 342q-60 94 -208 94q-112 0 -200 -26q-9 -2 -18.5 -4.5t-14 -3.5t-6.5 -1q-38 0 -49 35q-15 43 -15 70q0 38 41 53q116 43 297 43q172 0 268 -70q95 -69 141 -241q46 -171 46 -486q0 -318 -111 -478q-111 -161 -372 -161q-201 0 -311 104
q-109 103 -109 341q0 244 111 352q112 109 325 109q170 0 254 -72zM815 618q-77 97 -250 97q-126 0 -192 -63t-66 -224t62 -225t180 -64q104 0 161 42q56 41 83 155q22 92 22 282z" />
    <glyph glyph-name="Delta" unicode="&#x2206;" horiz-adv-x="1419" 
d="M1374 92q8 -24 8 -43q0 -49 -57 -49h-1233q-57 0 -57 47q0 20 10 43l514 1241q23 53 70 53h174q46 0 67 -53zM713 1145q-54 -152 -379 -938h747q-329 819 -368 938z" />
    <glyph glyph-name="product" unicode="&#x220f;" horiz-adv-x="1464" 
d="M430 -209q0 -34 -12 -49q-11 -14 -47 -14h-109q-35 0 -49 13t-14 48v1530q0 65 67 65h934q66 0 66 -67v-1526q0 -33 -13 -49q-11 -14 -47 -14h-116q-36 0 -48 13t-12 48v1389h-600v-1387z" />
    <glyph glyph-name="summation" unicode="&#x2211;" horiz-adv-x="1232" 
d="M1094 -270h-889q-73 0 -103 31t-30 100q0 79 57 155l453 570l-430 542q-43 50 -43 115q0 141 124 141h834q66 0 66 -63v-92q0 -32 -16 -42q-15 -9 -56 -9h-674l424 -514q29 -35 29 -74q0 -41 -37 -84l-475 -567h768q36 0 52 -13q15 -12 15 -45v-100q0 -33 -15 -42t-54 -9
z" />
    <glyph glyph-name="minus" unicode="&#x2212;" horiz-adv-x="1435" 
d="M1251 575q0 -55 -49 -55h-971q-47 0 -47 55v58q0 57 47 57h971q49 0 49 -57v-58z" />
    <glyph glyph-name="uni2215" unicode="&#x2215;" horiz-adv-x="172" 
d="M-207 -31q-18 -35 -49 -35q-37 0 -49 5q-17 6 -17 20q0 11 17 45l678 1407q23 47 53 47q26 0 47 -4q21 -2 21 -22q0 -12 -19 -52z" />
    <glyph glyph-name="uni2219" unicode="&#x2219;" horiz-adv-x="477" 
d="M375 549q0 -141 -137 -141q-136 0 -136 139q0 145 138 145q135 0 135 -143z" />
    <glyph glyph-name="radical" unicode="&#x221a;" horiz-adv-x="1302" 
d="M735 -322q-16 -49 -55 -49h-90q-37 0 -60 41l-258 502l-90 -41q-26 -10 -37 -10q-22 0 -34 31q-27 53 -27 71q0 27 37 43l196 90q25 11 43 11q23 0 41 -37l234 -457l448 1507q15 50 58 50q34 0 69 -7q41 -6 41 -37q0 -15 -8 -45z" />
    <glyph glyph-name="infinity" unicode="&#x221e;" horiz-adv-x="1495" 
d="M748 719q168 196 352 196q130 0 209 -87q80 -88 80 -224q0 -142 -83 -233q-82 -90 -223 -90q-96 0 -170 47q-73 46 -165 153q-90 -105 -169 -153q-77 -47 -178 -47q-132 0 -213 81q-82 82 -82 228q0 148 85 237q86 91 221 91q95 0 171 -47q77 -48 165 -152zM653 598
q-50 60 -82 92q-29 29 -71 52q-44 24 -90 24q-68 0 -113 -47t-45 -123q0 -71 44 -118q43 -46 110 -46q69 0 124 40q56 40 123 126zM844 602q82 -96 130 -133q47 -37 111 -37q69 0 112 45q44 46 44 119q0 75 -41 121q-40 45 -110 45q-118 0 -246 -160z" />
    <glyph glyph-name="integral" unicode="&#x222b;" horiz-adv-x="681" 
d="M281 -41q0 65 -5 170l-36 879q-4 88 -4 163q0 281 268 281q60 0 98 -6q49 -6 49 -47q0 -42 -8 -74q-7 -39 -49 -39h-4q-4 1 -11.5 1.5t-16.5 0.5q-40 2 -52 2q-98 0 -98 -139q0 -63 4 -139l39 -883q4 -95 4 -182q0 -145 -72 -211t-211 -66q-56 0 -86 6q-39 6 -39 43
q0 36 6 70q8 47 47 47q1 0 5 -0.5t11 -1t14 -0.5q34 -2 44 -2q52 0 77 27q26 28 26 100z" />
    <glyph glyph-name="approxequal" unicode="&#x2248;" horiz-adv-x="1435" 
d="M317 283q-24 -29 -47 -29q-28 0 -59 31q-27 27 -27 47q0 28 17 45q146 176 299 176q94 0 241 -84q113 -66 193 -66q50 0 90 23q37 21 88 80q28 37 51 37q21 0 60 -33q28 -22 28 -49q0 -20 -18 -47q-74 -94 -139 -136q-70 -45 -162 -45q-105 0 -238 76q-129 72 -196 72
q-98 0 -181 -98zM317 735q-24 -30 -47 -30q-31 0 -61 30q-25 25 -25 47q0 23 17 45q148 177 299 177q89 0 241 -86q120 -64 193 -64q98 0 178 102q30 35 51 35q23 0 60 -30q28 -24 28 -48q0 -21 -18 -49q-70 -93 -138 -136q-70 -44 -163 -44q-105 0 -238 76q-127 71 -196 71
q-96 0 -181 -96z" />
    <glyph glyph-name="notequal" unicode="&#x2260;" horiz-adv-x="1435" 
d="M520 53q-18 -39 -53 -39q-37 0 -53 4q-31 6 -31 31q0 13 12 37l117 223h-281q-47 0 -47 58v51q0 55 47 55h357l125 258h-482q-47 0 -47 55v54q0 55 47 55h562l116 229q21 43 58 43q28 0 53 -4q24 -6 24 -30q0 -16 -10 -39l-102 -199h270q49 0 49 -55v-54q0 -55 -49 -55
h-348l-127 -258h475q49 0 49 -55v-51q0 -58 -49 -58h-553z" />
    <glyph glyph-name="lessequal" unicode="&#x2264;" horiz-adv-x="1435" 
d="M1174 55q0 -55 -50 -55h-835q-49 0 -49 55v54q0 55 49 55h835q50 0 50 -55v-54zM426 809l704 -289q46 -18 46 -65q0 -53 -5 -80q-6 -45 -41 -45q-8 0 -34 10l-813 358q-43 18 -43 72v72q0 50 43 71l813 365q26 10 39 10q27 0 34 -43q7 -33 7 -84q0 -37 -48 -59z" />
    <glyph glyph-name="greaterequal" unicode="&#x2265;" horiz-adv-x="1435" 
d="M1194 55q0 -55 -47 -55h-836q-47 0 -47 55v54q0 55 47 55h836q47 0 47 -55v-54zM1010 809l-705 289q-45 18 -45 63q0 61 4 82q8 45 41 45q12 0 35 -10l813 -358q43 -18 43 -72v-72q0 -50 -43 -71l-813 -365q-23 -10 -39 -10q-27 0 -35 41q-6 30 -6 86q0 38 47 59z" />
    <glyph glyph-name="lozenge" unicode="&#x25ca;" horiz-adv-x="1462" 
d="M623 1376q18 41 65 41h98q41 0 62 -41l305 -620q10 -17 10 -43q0 -24 -10 -47l-307 -625q-21 -41 -62 -41h-98q-42 0 -63 41l-316 623q-12 28 -12 49q0 20 10 43zM477 711l262 -523l250 525l-254 522z" />
    <glyph glyph-name="commaaccent" unicode="&#xf6c3;" horiz-adv-x="378" 
d="M205 -115h59q62 0 62 -69q0 -214 -127 -357q-33 -37 -62 -37q-24 0 -53 17q-31 22 -31 45q0 18 15 47q61 102 63 283q0 71 74 71z" />
    <glyph glyph-name="Dotlessi" horiz-adv-x="608" 
d="M422 51q0 -55 -51 -55h-135q-50 0 -50 55v1344q0 55 52 55h137q47 0 47 -53v-1346z" />
    <glyph glyph-name="Euro.denominator" horiz-adv-x="864" 
d="M631 469h-256v-43v-45h256q28 0 28 -27v-28q0 -29 -28 -29h-250q15 -91 58 -131q44 -41 136 -41q89 0 152 18q9 2 18.5 4.5t14 3.5t6.5 1q14 0 22 -17q19 -54 19 -86q0 -23 -29 -31q-97 -32 -235 -32q-147 0 -227 70q-81 70 -99 241h-86q-27 0 -27 29v26q0 29 27 29h82
v29v59h-82q-27 0 -27 27v28q0 25 27 25h88q21 164 103 237q83 74 253 74q117 0 185 -18q26 -6 26 -31q0 -44 -16 -86q-8 -18 -22 -18q-7 0 -12 1q-10 2 -16 3q-12 2 -15 2q-37 6 -117 6q-100 0 -146 -40t-61 -130h250q28 0 28 -25v-28q0 -27 -28 -27z" />
    <glyph glyph-name="Euro.inferior" horiz-adv-x="864" 
d="M631 211h-256v-43v-45h256q28 0 28 -27v-28q0 -29 -28 -29h-250q15 -91 58 -131q44 -41 136 -41q89 0 152 18q9 2 18.5 4.5t14 3.5t6.5 1q14 0 22 -17q19 -54 19 -86q0 -23 -29 -31q-97 -32 -235 -32q-147 0 -227 70q-81 70 -99 241h-86q-27 0 -27 29v26q0 29 27 29h82
v29v59h-82q-27 0 -27 27v28q0 25 27 25h88q21 164 103 237q83 74 253 74q117 0 185 -18q26 -6 26 -31q0 -44 -16 -86q-8 -18 -22 -18q-7 0 -12 1q-10 2 -16 3q-12 2 -15 2q-37 6 -117 6q-100 0 -146 -40t-61 -130h250q28 0 28 -25v-28q0 -27 -28 -27z" />
    <glyph glyph-name="Euro.numerator" horiz-adv-x="864" 
d="M631 1010h-256v-43v-45h256q28 0 28 -27v-29q0 -28 -28 -28h-250q15 -91 58 -131q44 -41 136 -41q89 0 152 18q35 8 39 8q15 0 22 -16q19 -54 19 -86q0 -23 -29 -31q-96 -33 -235 -33q-145 0 -227 71q-81 70 -99 241h-86q-27 0 -27 28v27q0 29 27 29h82v28v60h-82
q-27 0 -27 26v29q0 25 27 25h88q21 164 103 237q83 74 253 74q114 0 185 -19q26 -6 26 -30q0 -44 -16 -86q-8 -19 -22 -19q-7 0 -12 1q-10 2 -16 3q-12 2 -15 2q-44 7 -117 7q-100 0 -146 -40t-61 -130h250q28 0 28 -25v-29q0 -26 -28 -26z" />
    <glyph glyph-name="Euro.oldstyle" horiz-adv-x="1277" 
d="M961 688h-410v-70v-73h410q40 0 40 -39v-41q0 -39 -40 -39h-400q18 -131 83 -196q64 -64 200 -64q128 0 229 20q12 2 25 4.5t19.5 3.5t8.5 1q24 0 31 -27q21 -57 21 -111q0 -33 -39 -45q-135 -39 -338 -39q-215 0 -330 103q-114 102 -141 350h-129q-39 0 -39 39v39
q0 41 39 41h121v49q0 54 2 94h-123q-39 0 -39 41v37q0 41 39 41h133q28 233 150 338q120 104 372 104q176 0 262 -20q37 -7 37 -45q0 -55 -18 -115q-11 -25 -37 -25q-6 0 -36 5q-24 4 -40 4q-64 8 -168 8q-140 0 -207 -63t-88 -191h400q40 0 40 -39v-39q0 -41 -40 -41z" />
    <glyph glyph-name="Euro.superior" horiz-adv-x="864" 
d="M631 1329h-256v-43v-45h256q28 0 28 -27v-28q0 -29 -28 -29h-250q15 -91 58 -131q44 -41 136 -41q85 0 152 19q35 8 39 8q14 0 22 -17q19 -54 19 -86q0 -22 -29 -30q-101 -33 -235 -33q-147 0 -227 70q-81 70 -99 241h-86q-27 0 -27 29v26q0 29 27 29h82v29v59h-82
q-27 0 -27 27v28q0 25 27 25h88q21 165 103 238t253 73q117 0 185 -18q26 -6 26 -31q0 -44 -16 -86q-8 -18 -22 -18q-7 0 -12 1q-10 2 -16 3q-12 2 -15 2q-37 6 -117 6q-100 0 -146 -40t-61 -130h250q28 0 28 -25v-28q0 -27 -28 -27z" />
    <glyph glyph-name="Kgreenlandic" horiz-adv-x="1505" 
d="M1307 930q-58 0 -58 59q0 125 49 265q50 142 129 221q36 36 60 36t57 -18q31 -19 31 -43q0 -27 -19 -51q-106 -136 -106 -395q0 -74 -68 -74h-75zM422 51q0 -55 -51 -55h-135q-50 0 -50 55v1344q0 55 52 55h137q47 0 47 -53v-545h143q63 0 92 39l340 516q29 45 70 45
q88 0 139 -6q37 -1 37 -37q0 -26 -20 -53q-300 -451 -406 -598q71 -99 443 -658q26 -38 26 -63q0 -32 -35 -37q-45 -4 -166 -4q-38 0 -65 41l-381 573q-23 35 -80 35h-137v-594z" />
    <glyph glyph-name="S_S" horiz-adv-x="2357" 
d="M739 811q196 -56 268 -138q72 -83 72 -261q0 -214 -121 -326q-122 -113 -407 -113q-239 0 -418 60q-47 17 -47 53q0 33 23 107q15 47 57 47q16 0 67 -17q150 -49 322 -49q168 0 225 58q58 60 58 151q0 81 -42 128q-40 45 -184 83l-184 47q-317 84 -317 401q0 209 120 319
q123 112 394 112q229 0 358 -43q45 -15 45 -56q0 -38 -20 -102q-11 -41 -45 -41q-23 0 -66 10q-159 29 -289 29q-144 0 -200 -53t-56 -152q0 -75 41 -124q41 -48 166 -83zM1913 811q195 -55 267 -138q73 -84 73 -261q0 -214 -121 -326q-122 -113 -408 -113q-238 0 -417 60
q-47 17 -47 53q0 37 22 107q15 47 57 47q17 0 68 -17q148 -49 322 -49q168 0 225 58t57 151q0 81 -42 128q-41 45 -183 83l-184 47q-318 84 -318 401q0 208 121 319q123 112 393 112q230 0 359 -43q45 -15 45 -56q0 -34 -21 -102q-11 -41 -45 -41q-21 0 -65 10
q-159 29 -289 29q-145 0 -201 -53q-55 -52 -55 -152q0 -75 41 -124q41 -48 166 -83z" />
    <glyph glyph-name="a.superior" horiz-adv-x="712" 
d="M618 655q0 -47 -14 -67q-19 -19 -45 -29q-102 -35 -256 -35q-136 0 -189 56t-53 147q0 110 76 156q60 39 201 39q60 0 119 -4v32q0 44 -6 60q-18 37 -111 37q-71 0 -129 -11q-11 0 -32 -4t-27 -4q-21 0 -29 25q-10 39 -10 67q0 25 26 37q79 27 221 27q164 0 213 -49
q45 -45 45 -166v-314zM457 805q-24 4 -97 4q-84 0 -118 -21q-25 -19 -25 -59q0 -84 107 -84q71 0 110 17q14 7 19 20q4 11 4 43v80z" />
    <glyph glyph-name="acute.cap" horiz-adv-x="403" 
d="M143 1581q-42 -31 -94 -31q-23 0 -86 9q-35 6 -35 30q0 25 29 49l236 197q47 41 94 41q33 0 139 -8q47 -6 47 -37q0 -30 -33 -51z" />
    <glyph glyph-name="b.superior" horiz-adv-x="759" 
d="M100 639v799q0 37 33 37h96q35 0 35 -37v-303q65 49 205 49q117 0 170 -75q53 -76 53 -243q0 -201 -76 -271q-77 -71 -245 -71q-133 0 -217 27q-33 7 -45 37q-9 18 -9 51zM264 711q0 -27 6 -33q6 -9 25 -14q40 -7 78 -7q96 0 126 40q29 39 29 157q0 110 -22 151
q-22 42 -96 42q-91 0 -127 -25q-15 -8 -17 -14q-2 -10 -2 -25v-272z" />
    <glyph glyph-name="braceleft.cap" horiz-adv-x="694" 
d="M236 700q96 -21 145 -89t49 -203v-252q0 -117 35 -164q34 -46 160 -51q34 -4 34 -50v-30q0 -41 -43 -41q-246 0 -313 88q-55 73 -55 223v250q0 131 -39 185q-40 55 -123 67q-41 6 -41 47v31q0 43 35 51q90 16 129 75t39 179v219q0 164 55 235q82 105 307 105q49 0 49 -47
v-25q0 -41 -43 -45q-125 -11 -159 -67q-27 -45 -27 -150v-240q0 -139 -47 -206t-147 -95z" />
    <glyph glyph-name="braceright.cap" horiz-adv-x="694" 
d="M446 696q-192 44 -192 293v252q0 115 -35 162q-33 46 -160 53q-34 4 -34 47v31q0 41 43 41q245 0 311 -86q57 -73 57 -223v-252q0 -130 39 -185t125 -67q41 -6 41 -45v-33q0 -44 -39 -51q-88 -16 -127 -75q-39 -58 -39 -177v-221q0 -166 -55 -234q-79 -106 -305 -106
q-49 0 -49 47v24q0 48 41 48q125 5 159 65q27 45 27 152v237q0 140 47 207q47 66 145 96z" />
    <glyph glyph-name="bracketleft.cap" horiz-adv-x="624" 
d="M348 -68h201q35 0 35 -32v-43q0 -37 -35 -37h-346q-39 0 -39 51v1636q0 47 39 47h346q35 0 35 -30v-47q0 -31 -35 -31h-201v-1514z" />
    <glyph glyph-name="bracketright.cap" horiz-adv-x="624" 
d="M272 1444h-198q-35 0 -35 33v43q0 34 35 34h346q15 0 27 -13q12 -14 12 -34v-1638q0 -49 -39 -49h-346q-35 0 -35 33v45q0 14 10 24t25 10h198v1512z" />
    <glyph glyph-name="breve.cap" horiz-adv-x="403" 
d="M197 1546q-265 0 -306 199q-8 43 -8 67q0 46 43 56q29 6 62 6q41 0 51 -43q15 -61 49 -90q36 -31 113 -31q84 0 120 30t52 89q12 45 55 45q31 0 59 -6q35 -6 35 -47t-12 -78q-29 -98 -99 -147q-71 -50 -214 -50z" />
    </font>
</defs>
</svg>
