<?xml version="1.0" standalone="no"?>
<!DOCTYPE svg PUBLIC "-//W3C//DTD SVG 1.1//EN" "http://www.w3.org/Graphics/SVG/1.1/DTD/svg11.dtd" >
<svg xmlns="http://www.w3.org/2000/svg" xmlns:xlink="http://www.w3.org/1999/xlink" version="1.1">
<metadata>
Created by FontForge 20170731 at Sun Apr 18 19:44:19 2021
 By Aleksey,,,
Copyright (c) 2015 by Dieter Hofrichter. All rights reserved.
</metadata>
<defs>
<font id="Carnas-Bold" horiz-adv-x="806" >
  <font-face 
    font-family="Carnas-Bold"
    font-weight="400"
    font-stretch="normal"
    units-per-em="2048"
    panose-1="2 0 8 3 0 0 0 2 0 4"
    ascent="1561"
    descent="-487"
    x-height="1028"
    cap-height="1448"
    bbox="-326 -584 2535 2030"
    underline-thickness="102"
    underline-position="-204"
    unicode-range="U+0020-FB04"
  />
<missing-glyph horiz-adv-x="1026" 
d="M0 0v1448h1026v-1448h-1026zM514 817l348 526h-698zM573 725l353 -526v1052zM164 102h698l-348 529zM102 1251v-1052l351 526z" />
    <glyph glyph-name="f_f" unicode="ff" horiz-adv-x="1423" 
d="M475 51q0 -24 -14 -38q-15 -15 -39 -15h-172q-49 0 -49 59v746h-103q-59 0 -59 57v109q0 59 57 59h105v66q0 207 94 295q122 111 410 116q71 0 77 -51q4 -51 4 -117q0 -55 -57 -59q-116 -11 -160 -25q-48 -15 -69 -51q-25 -39 -25 -119v-55h430v98q0 216 94 304
q122 111 410 116q72 0 78 -51q4 -51 4 -117q0 -53 -55 -59q-118 -12 -164 -27q-48 -15 -68 -49q-24 -43 -24 -131v-84h186q55 0 55 -57v-115q0 -53 -57 -53h-184v-752q0 -23 -15 -38t-37 -15h-174q-49 0 -49 59v746h-430v-752z" />
    <glyph glyph-name="fi" unicode="fi" horiz-adv-x="1267" 
d="M475 51q0 -24 -14 -38q-15 -15 -39 -15h-172q-49 0 -49 59v746h-103q-59 0 -59 57v109q0 59 57 59h105v98q0 216 94 304q116 111 377 116q72 0 78 -51q4 -55 4 -117q0 -54 -56 -59q-152 -7 -198 -76q-25 -39 -25 -131v-84h600q51 0 51 -57v-916q0 -57 -53 -57h-170
q-51 0 -51 57v748h-377v-752zM1139 1348q0 -154 -150 -154q-147 0 -147 152q0 153 147 153q73 0 111 -34q39 -35 39 -117z" />
    <glyph glyph-name="fl" unicode="fl" horiz-adv-x="1318" 
d="M475 51q0 -24 -14 -38q-15 -15 -39 -15h-172q-49 0 -49 59v746h-103q-59 0 -59 57v109q0 59 57 59h105v86q0 215 112 305q68 59 181 88t337 29q144 0 220 -12q35 -6 53 -20q16 -13 16 -48v-1071q0 -86 21 -125q21 -45 114 -61q45 -6 45 -54q0 -59 -10 -108
q-6 -27 -20 -37t-47 -10q-143 0 -216 29q-75 30 -116 94q-45 72 -45 237v950q-55 5 -98 5q-181 0 -232 -62q-41 -50 -41 -145v-70h187q55 0 55 -57v-115q0 -53 -58 -53h-184v-752z" />
    <glyph glyph-name="f_f_i" unicode="ffi" horiz-adv-x="1972" 
d="M475 51q0 -24 -14 -38q-15 -15 -39 -15h-172q-49 0 -49 59v746h-103q-59 0 -59 57v109q0 59 57 59h105v66q0 207 94 295q122 111 410 116q71 0 77 -51q4 -51 4 -117q0 -55 -57 -59q-116 -11 -160 -25q-48 -15 -69 -51q-25 -39 -25 -119v-55h430v98q0 216 94 304
q117 111 381 116q72 0 78 -51q4 -25 4 -117q0 -53 -57 -59q-84 -7 -133 -24q-45 -15 -68 -52q-24 -37 -24 -131v-84h602q49 0 49 -57v-916q0 -57 -53 -57h-170q-49 0 -49 57v748h-379v-752q0 -23 -15 -38t-37 -15h-174q-49 0 -49 59v746h-430v-752zM1843 1348
q0 -154 -149 -154q-148 0 -148 152q0 153 148 153q72 0 110 -34q39 -35 39 -117z" />
    <glyph glyph-name="f_f_l" unicode="ffl" horiz-adv-x="2025" 
d="M475 51q0 -24 -14 -38q-15 -15 -39 -15h-172q-49 0 -49 59v746h-103q-59 0 -59 57v109q0 59 57 59h105v66q0 207 94 295q122 111 410 116q71 0 77 -51q4 -51 4 -117q0 -55 -57 -59q-105 -7 -159 -24q-48 -15 -70 -52q-25 -39 -25 -119v-55h430v86q0 215 113 305
q68 59 181 88t339 29q136 0 217 -10q35 -5 52 -19q18 -15 18 -49v-1073q0 -88 20 -125q22 -44 115 -61q45 -6 45 -54q0 -65 -8 -108q-11 -47 -70 -47q-141 0 -214 29q-75 30 -116 94q-45 72 -45 237v950q-55 5 -100 5q-180 0 -231 -62q-41 -50 -41 -145v-70h186q55 0 55 -57
v-115q0 -53 -57 -53h-184v-752q0 -23 -15 -38t-37 -15h-174q-49 0 -49 59v746h-430v-752z" />
    <glyph glyph-name="T_h" unicode="Th" horiz-adv-x="2365" 
d="M768 59q0 -61 -57 -61h-174q-56 0 -56 61v1141h-352q-57 0 -57 47v144q0 55 57 55h1176v27q0 63 59 63h158q32 0 44 -16q11 -15 11 -54v-483q50 30 147 51q99 21 195 21q244 0 289 -131q20 -59 20 -201v-668q0 -57 -51 -57h-172q-51 0 -51 57v609q0 69 -10 98
q-22 61 -134 61t-176 -26q-32 -12 -43 -29q-14 -17 -14 -63v-650q0 -57 -53 -57h-168q-51 0 -51 57v1145h-537v-1141z" />
    <glyph glyph-name="Tcaron_h" unicode="&#x164;h" horiz-adv-x="2363" 
d="M768 59q0 -61 -57 -61h-174q-56 0 -56 61v1141h-352q-57 0 -57 47v144q0 55 57 55h1176v27q0 63 59 63h158q32 0 44 -16q11 -15 11 -54v-483q50 30 147 51q99 21 195 21q244 0 289 -131q20 -59 20 -201v-668q0 -57 -51 -57h-172q-51 0 -51 57v609q0 69 -10 98
q-22 61 -134 61t-176 -26q-32 -12 -43 -29q-14 -17 -14 -63v-650q0 -57 -53 -57h-168q-51 0 -51 57v1145h-537v-1141zM854 1907q47 0 88 -9q45 -6 45 -40q0 -24 -22 -46l-197 -200q-56 -56 -104 -56h-99q-46 0 -92 46l-207 215q-16 17 -16 43q0 30 45 38q47 9 94 9
q43 0 92 -45l140 -125l143 129q47 41 90 41z" />
    <glyph glyph-name="f_b" unicode="fb" horiz-adv-x="1890" 
d="M475 51q0 -24 -14 -38q-15 -15 -39 -15h-172q-49 0 -49 59v746h-103q-59 0 -59 57v109q0 59 57 59h105v86q0 215 112 305q68 59 181 88t337 29q139 0 220 -10q37 -4 53 -19t16 -49v-481q114 78 322 78q186 0 272 -122t86 -401q0 -169 -32 -282q-32 -112 -100 -171
q-70 -61 -159 -83q-92 -23 -227 -23q-217 0 -352 45q-55 18 -72 60q-12 28 -12 78v1144q-55 5 -98 5q-181 0 -232 -62q-41 -50 -41 -145v-70h187q55 0 55 -57v-115q0 -53 -58 -53h-184v-752zM1120 285q0 -38 13 -54q10 -16 41 -22q39 -10 112 -10q148 0 193 64q45 65 45 253
q0 177 -34 242t-147 65q-133 0 -194 -39q-19 -11 -23 -24q-6 -18 -6 -41v-434z" />
    <glyph glyph-name="f_f_b" unicode="ffb" horiz-adv-x="2594" 
d="M475 51q0 -24 -14 -38q-15 -15 -39 -15h-172q-49 0 -49 59v746h-103q-59 0 -59 57v109q0 59 57 59h105v66q0 207 94 295q124 115 407 116q72 0 78 -51q6 -38 6 -117q0 -55 -57 -59q-105 -7 -159 -24q-48 -15 -70 -52q-25 -39 -25 -119v-55h430v86q0 215 113 305
q68 59 181 88t339 29q136 0 217 -10q35 -5 52 -19q18 -15 18 -49v-481q119 78 321 78q187 0 273 -122t86 -401q0 -169 -32 -282q-32 -112 -100 -171q-70 -61 -159 -83q-92 -23 -227 -23q-221 0 -351 45q-55 17 -71 60q-13 31 -13 78v1144q-58 5 -100 5q-180 0 -231 -62
q-41 -50 -41 -145v-70h186q55 0 55 -57v-115q0 -53 -57 -53h-184v-752q0 -23 -15 -38t-37 -15h-174q-49 0 -49 59v746h-430v-752zM1825 285q0 -39 12 -54q10 -16 43 -22q37 -10 109 -10q147 0 193 64t46 253q0 176 -33 242q-33 65 -147 65q-136 0 -193 -39q-20 -10 -24 -24
q-6 -18 -6 -41v-434z" />
    <glyph glyph-name="f_f_h" unicode="ffh" horiz-adv-x="2615" 
d="M475 51q0 -24 -14 -38q-15 -15 -39 -15h-172q-49 0 -49 59v746h-103q-59 0 -59 57v109q0 59 57 59h105v66q0 207 94 295q122 111 410 116q69 0 77 -51q4 -25 4 -117q0 -55 -57 -59q-116 -11 -160 -25q-48 -15 -69 -51q-25 -39 -25 -119v-55h430v86q0 215 113 305
q68 59 181 88t339 29q136 0 217 -10q35 -5 52 -19q18 -15 18 -49v-475q50 30 151 51q102 21 183 21q136 0 203 -32q69 -33 92 -97q20 -50 20 -201v-670q0 -57 -49 -57h-174q-49 0 -49 57v609q0 57 -13 98q-21 61 -133 61q-110 0 -174 -26q-25 -6 -43 -29q-14 -21 -14 -63
v-650q0 -57 -53 -57h-170q-50 0 -50 57v1245q-55 5 -100 5q-180 0 -231 -62q-41 -50 -41 -145v-70h186q55 0 55 -57v-115q0 -53 -57 -53h-184v-752q0 -23 -15 -38t-37 -15h-174q-49 0 -49 59v746h-430v-752z" />
    <glyph glyph-name="f_f_j" unicode="ffj" horiz-adv-x="1970" 
d="M475 51q0 -24 -14 -38q-15 -15 -39 -15h-172q-49 0 -49 59v746h-103q-59 0 -59 57v109q0 59 57 59h105v66q0 207 94 295q122 111 410 116q71 0 77 -51q4 -51 4 -117q0 -53 -57 -59q-116 -11 -160 -25q-48 -15 -69 -51q-25 -39 -25 -119v-55h430v98q0 216 94 304
q117 111 379 116q72 0 78 -51q4 -51 4 -117q0 -53 -51 -59q-95 -11 -136 -25q-46 -16 -69 -49q-24 -37 -24 -133v-84h602q49 0 49 -57v-1004q0 -220 -80 -311q-51 -57 -152 -96t-223 -39q-56 0 -67 51q-11 58 -11 106q0 60 56 68q111 18 155 55q50 38 50 162v840h-379v-752
q0 -23 -15 -38t-37 -15h-174q-49 0 -49 59v746h-430v-752zM1843 1348q0 -154 -149 -154q-148 0 -148 152q0 153 148 153q72 0 110 -34q39 -35 39 -117z" />
    <glyph glyph-name="f_f_k" unicode="ffk" horiz-adv-x="2543" 
d="M475 51q0 -24 -14 -38q-15 -15 -39 -15h-172q-49 0 -49 59v746h-103q-59 0 -59 57v109q0 59 57 59h105v66q0 207 94 295q124 115 407 116q72 0 78 -51q6 -44 6 -117q0 -53 -57 -59q-116 -11 -160 -25q-48 -15 -69 -51q-25 -39 -25 -119v-55h430v86q0 215 113 305
q68 59 181 88t339 29q136 0 217 -10q35 -5 52 -19q18 -15 18 -49v-776h92q64 0 92 43l184 266q27 43 72 43q143 0 182 -10q29 -6 29 -35q0 -24 -20 -51q-59 -84 -261 -352l316 -484q24 -41 24 -61q0 -27 -30 -37q-29 -10 -199 -10q-46 0 -70 43l-247 379q-22 37 -82 37h-82
v-398q0 -57 -53 -57h-170q-50 0 -50 57v1243q-46 7 -100 7q-180 0 -231 -62q-41 -50 -41 -145v-70h186q55 0 55 -57v-115q0 -53 -57 -53h-184v-752q0 -23 -15 -38t-37 -15h-174q-49 0 -49 59v746h-430v-752z" />
    <glyph glyph-name="f_h" unicode="fh" horiz-adv-x="1910" 
d="M475 51q0 -24 -14 -38q-15 -15 -39 -15h-172q-49 0 -49 59v746h-103q-59 0 -59 57v109q0 59 57 59h105v86q0 215 112 305q68 59 181 88t337 29q139 0 218 -10q36 -4 54 -19q17 -14 17 -49v-475q46 30 150 51q102 21 182 21q139 0 206 -32t91 -97q20 -50 20 -201v-670
q0 -57 -51 -57h-172q-51 0 -51 57v609q0 72 -8 98q-21 61 -135 61q-100 0 -174 -26q-33 -12 -45 -29q-13 -16 -13 -63v-650q0 -57 -53 -57h-170q-51 0 -51 57v1245q-45 5 -98 5q-181 0 -232 -62q-41 -50 -41 -145v-70h187q55 0 55 -57v-115q0 -53 -58 -53h-184v-752z" />
    <glyph glyph-name="f_j" unicode="fj" horiz-adv-x="1265" 
d="M475 51q0 -24 -14 -38q-15 -15 -39 -15h-172q-49 0 -49 59v746h-103q-59 0 -59 57v109q0 59 57 59h105v98q0 216 94 304q116 111 379 116q76 0 78 -51q2 -38 2 -117q0 -54 -56 -59q-84 -7 -133 -24q-42 -14 -65 -50q-25 -39 -25 -133v-84h600q51 0 51 -57v-1004
q0 -222 -79 -311q-51 -57 -152 -96t-223 -39q-58 0 -68 51q-10 53 -10 106q0 61 55 68q107 17 156 55q47 38 47 162v840h-377v-752zM1139 1348q0 -154 -150 -154q-147 0 -147 152q0 153 147 153q73 0 111 -34q39 -35 39 -117z" />
    <glyph glyph-name="f_k" unicode="fk" horiz-adv-x="1837" 
d="M475 51q0 -24 -14 -38q-15 -15 -39 -15h-172q-49 0 -49 59v746h-103q-59 0 -59 57v109q0 59 57 59h105v86q0 215 112 305q68 59 181 88t337 29q139 0 218 -10q71 -10 71 -72v-772h92q65 0 93 43l184 266q27 43 72 43q149 0 182 -10q29 -11 29 -35q0 -25 -21 -53
l-258 -352q126 -183 311 -482q25 -36 25 -61q0 -31 -31 -39q-30 -8 -196 -8q-44 0 -72 43l-246 379q-22 37 -82 37h-82v-398q0 -57 -53 -57h-170q-51 0 -51 57v1245q-63 5 -101 5q-178 0 -229 -62q-41 -50 -41 -145v-70h187q55 0 55 -57v-115q0 -53 -58 -53h-184v-752z" />
    <glyph glyph-name="uni0162_h" unicode="&#x162;h" horiz-adv-x="2363" 
d="M680 -106q60 -1 104 -21q41 -18 59 -52q17 -33 22 -65q5 -33 5 -78q0 -223 -301 -223q-62 0 -106 10q-49 10 -49 52q0 37 6 65q10 45 59 45q13 0 56 -6q28 -2 47 -2q77 0 77 62q0 35 -17 48t-56 13h-37q-45 0 -45 41q0 35 10 78l29 137h-6q-56 0 -56 61v1141h-352
q-57 0 -57 47v144q0 55 57 55h1176v27q0 63 59 63h158q32 0 44 -16q11 -15 11 -54v-483q50 30 147 51q99 21 195 21q244 0 289 -131q20 -59 20 -201v-668q0 -57 -51 -57h-172q-51 0 -51 57v609q0 69 -10 98q-22 61 -134 61t-176 -26q-32 -12 -43 -29q-14 -17 -14 -63v-650
q0 -57 -53 -57h-168q-51 0 -51 57v1145h-537v-1141q0 -61 -57 -61h-13z" />
    <glyph glyph-name="uni021A_h" unicode="&#x21a;h" horiz-adv-x="2363" 
d="M768 59q0 -61 -57 -61h-174q-56 0 -56 61v1141h-352q-57 0 -57 47v144q0 55 57 55h1176v27q0 63 59 63h158q32 0 44 -16q11 -15 11 -54v-483q50 30 147 51q99 21 195 21q244 0 289 -131q20 -59 20 -201v-668q0 -57 -51 -57h-172q-51 0 -51 57v609q0 69 -10 98
q-22 61 -134 61t-176 -26q-32 -12 -43 -29q-14 -17 -14 -63v-650q0 -57 -53 -57h-168q-51 0 -51 57v1145h-537v-1141zM600 -106h68q67 0 67 -78q0 -216 -127 -359q-33 -41 -67 -41q-20 0 -60 19q-32 17 -32 49q0 24 14 51q55 105 57 281q0 78 80 78z" />
    <glyph glyph-name=".notdef" horiz-adv-x="1026" 
d="M0 0v1448h1026v-1448h-1026zM514 817l348 526h-698zM573 725l353 -526v1052zM164 102h698l-348 529zM102 1251v-1052l351 526z" />
    <glyph glyph-name=".null" horiz-adv-x="0" 
 />
    <glyph glyph-name="nonmarkingreturn" horiz-adv-x="681" 
 />
    <glyph glyph-name="space" unicode=" " horiz-adv-x="450" 
 />
    <glyph glyph-name="exclam" unicode="!" horiz-adv-x="612" 
d="M463 561q-1 -67 -80 -67h-78q-43 0 -62 15q-21 16 -22 58q-26 669 -26 783q0 96 75 96h146q38 0 58 -20t20 -68q0 -75 -31 -797zM504 147q0 -170 -170 -170q-164 0 -164 170q0 93 46 135t122 42q166 0 166 -177z" />
    <glyph glyph-name="quotedbl" unicode="&#x22;" horiz-adv-x="798" 
d="M299 934q-1 -40 -18 -55q-16 -15 -50 -15h-30q-35 0 -51 15q-17 15 -21 59q-25 298 -25 434q0 94 84 94h60q39 0 59 -17q21 -18 21 -67q0 -123 -29 -448zM666 934q-1 -39 -19 -55q-17 -15 -51 -15h-29q-35 0 -53 16q-15 14 -20 58q-23 293 -23 434q0 94 84 94h57
q43 0 61 -17q19 -18 19 -67q0 -111 -26 -448z" />
    <glyph glyph-name="numbersign" unicode="#" horiz-adv-x="1218" 
d="M371 18q-5 -29 -16 -40t-38 -11q-57 0 -76 10q-20 11 -20 37q0 25 4 54l47 313h-139q-55 0 -55 53v127q0 51 55 51h172l27 179h-150q-53 0 -53 53v127q0 49 55 49h183l51 342q8 53 57 53q56 0 77 -8q19 -7 19 -31t-4 -53l-47 -303h268l52 342q8 53 55 53q64 0 81 -7
t17 -32q0 -4 -6 -53l-45 -303h141q56 0 56 -51v-129q0 -28 -13 -39q-11 -10 -41 -10h-178l-26 -179h151q55 0 55 -53v-129q0 -28 -12 -39q-11 -10 -41 -10h-188l-53 -363q-5 -29 -16 -40t-40 -11q-61 0 -78 10q-18 10 -18 37q0 4 6 54l47 313h-270zM485 791l-26 -179h268
l27 179h-269z" />
    <glyph glyph-name="dollar" unicode="$" horiz-adv-x="1155" 
d="M692 -162q0 -49 -41 -49h-110q-25 0 -34 10q-9 11 -9 39v150q-219 6 -355 59q-45 18 -45 62q0 39 29 112q18 51 61 51q20 0 68 -16q138 -43 303 -43q134 0 177 43q44 44 44 119q0 73 -34 110q-35 39 -144 62l-162 35q-311 69 -311 393q0 355 369 401v160q0 51 45 51h108
q41 0 41 -51v-154q178 -4 277 -39q45 -18 45 -61q0 -19 -25 -117q-11 -45 -47 -45q-33 0 -72 10q-130 27 -268 27q-109 0 -153 -41q-43 -40 -43 -119q0 -63 30 -103t129 -63l168 -38q182 -52 253 -134q69 -79 69 -251q0 -358 -363 -410v-160z" />
    <glyph glyph-name="percent" unicode="%" horiz-adv-x="1783" 
d="M733 971q0 -261 -75 -354t-261 -93q-178 0 -253 93q-74 92 -74 348q0 253 85 344q86 92 253 92q122 0 189 -32q66 -32 101 -125q35 -94 35 -273zM539 967q0 174 -27 225t-109 51q-76 0 -107 -56q-32 -58 -32 -224q0 -175 30 -229t105 -54q79 0 109 54q31 56 31 233z
M610 -31q-18 -35 -51 -35q-41 0 -53 5q-19 6 -19 22q0 17 13 43l678 1407q23 47 57 47q32 0 51 -4q25 -2 25 -22q0 -12 -19 -52zM1716 430q0 -258 -76 -352t-262 -94q-178 0 -252 93q-73 92 -73 347q0 134 23 219q23 86 71 134q47 47 103 65q57 18 139 18q122 0 189 -32
q66 -32 102 -126q36 -95 36 -272zM1520 426q0 174 -27 225t-109 51q-76 0 -107 -56q-32 -58 -32 -224q0 -174 30 -228q31 -55 105 -55q78 0 109 55q31 56 31 232z" />
    <glyph glyph-name="ampersand" unicode="&#x26;" horiz-adv-x="1507" 
d="M1081 106q-136 -133 -426 -133q-546 0 -546 433q0 153 68 240q70 89 229 157q-132 137 -132 301q0 364 418 364q139 0 244 -24q61 -15 61 -55q0 -73 -20 -132q-12 -38 -55 -38q-10 0 -84 12q-54 10 -142 10q-155 0 -155 -133q0 -54 31 -100q33 -48 126 -146l377 -364
q25 58 25 153q0 10 -2 52q0 9 -0.5 18t-1 13.5t-0.5 6.5q0 61 49 68q56 8 112 8q43 0 60 -11q18 -12 24 -42q9 -40 9 -100q0 -230 -90 -359l186 -180q35 -35 35 -59q0 -43 -62 -58q-76 -16 -153 -16q-61 0 -99 35q-63 55 -86 79zM924 281q-189 174 -373 364
q-160 -68 -160 -219q0 -109 72 -166t207 -57q182 0 254 78z" />
    <glyph glyph-name="quotesingle" unicode="'" horiz-adv-x="432" 
d="M299 934q-1 -40 -18 -55q-16 -15 -50 -15h-30q-35 0 -51 15q-17 15 -21 59q-25 298 -25 434q0 94 84 94h60q39 0 59 -17q21 -18 21 -67q0 -123 -29 -448z" />
    <glyph glyph-name="parenleft" unicode="(" horiz-adv-x="696" 
d="M354 637q0 -185 24 -320q24 -134 77 -230q54 -97 96 -145q55 -62 125 -130q16 -15 16 -37q0 -26 -43 -72q-20 -20 -45 -20q-27 0 -69 26q-77 46 -141 108q-68 67 -137 172q-72 110 -113 274q-42 167 -42 372q0 194 40 353q40 160 108 268q70 112 136 178q69 69 146 118
q45 27 70 27q17 0 45 -23q41 -41 41 -65t-18 -39q-103 -91 -161 -172q-63 -88 -108 -250q-47 -168 -47 -393z" />
    <glyph glyph-name="parenright" unicode=")" horiz-adv-x="696" 
d="M342 625q0 183 -24 316q-24 136 -76 230q-52 96 -97 148q-51 59 -125 131q-16 16 -16 37q0 23 43 69q18 23 45 23q26 0 70 -27q75 -44 139 -107t137 -172q72 -108 114 -275q42 -166 42 -371q0 -195 -40 -354q-41 -163 -109 -269q-72 -112 -136 -178q-72 -73 -145 -117
q-43 -26 -68 -26q-27 0 -49 22q-41 41 -41 66q0 20 19 39q73 65 122 125q50 61 98 155q48 95 72 227q25 139 25 308z" />
    <glyph glyph-name="asterisk" unicode="*" horiz-adv-x="862" 
d="M430 907q-28 -41 -55.5 -82t-43.5 -64t-22 -32q-22 -31 -51 -31q-19 0 -74 39q-30 21 -30 51q0 19 18 46q51 72 139 172q-80 16 -202 53q-54 15 -54 55q0 30 17 72q15 45 63 45q14 0 47 -10q99 -32 178 -66q-16 131 -16 207q0 39 18 57q19 19 70 19q58 0 73 -17t15 -57
q0 -109 -8 -211q88 37 188 72q22 8 45 8q37 0 54 -45q16 -44 16 -70q0 -43 -49 -59q-127 -36 -211 -55l139 -170q17 -23 17 -43q0 -29 -31 -52q-50 -37 -74 -37q-28 0 -53 31q-84 113 -123 174z" />
    <glyph glyph-name="plus" unicode="+" horiz-adv-x="1435" 
d="M813 129q0 -57 -61 -57h-68q-61 0 -61 57v381h-381q-58 0 -58 65v58q0 65 58 65h379v379q0 58 61 58h70q61 0 61 -58v-379h381q57 0 57 -65v-58q0 -65 -57 -65h-381v-381z" />
    <glyph glyph-name="comma" unicode="," horiz-adv-x="512" 
d="M242 313h86q80 0 80 -77q0 -132 -62 -294q-62 -163 -149 -261q-44 -52 -76 -52q-31 0 -78 25q-43 27 -43 59q0 28 25 64q113 176 125 444q6 92 92 92z" />
    <glyph glyph-name="hyphen" unicode="-" horiz-adv-x="684" 
d="M557 434h-430q-57 0 -57 55v123q0 54 57 54h428q59 0 59 -54v-127q0 -51 -57 -51z" />
    <glyph glyph-name="period" unicode="." horiz-adv-x="512" 
d="M422 147q0 -170 -170 -170q-70 0 -117 39t-47 131q0 93 46 135t122 42q78 0 122 -38t44 -139z" />
    <glyph glyph-name="slash" unicode="/" horiz-adv-x="837" 
d="M221 -150q-11 -32 -22 -44q-12 -13 -39 -13q-66 0 -105 6q-28 6 -28 33q0 19 10 45l579 1610q21 53 60 53q65 0 104 -6q31 -6 31 -35q0 -17 -14 -55z" />
    <glyph glyph-name="zero" unicode="0" horiz-adv-x="1189" 
d="M1114 702q0 -289 -55 -447t-165 -220t-304 -62q-188 0 -295 60q-106 60 -163 218q-56 156 -56 443q0 220 37 362q38 146 111 219q74 73 165 104q90 30 217 30q118 0 192 -16t141 -61q64 -43 100 -123q37 -82 56 -202q19 -121 19 -305zM831 698q0 206 -21 306
q-21 99 -69 136q-47 36 -143 36q-131 0 -185 -98q-55 -99 -55 -384q0 -204 26 -314q25 -105 73 -141q46 -34 135 -34q93 0 140 34q49 35 74 141t25 318z" />
    <glyph glyph-name="one" unicode="1" horiz-adv-x="1189" 
d="M967 0h-625q-59 0 -59 55v127q0 54 59 54h195v876l-195 -74q-23 -10 -47 -10q-26 0 -37 29q-47 132 -47 151q0 24 31 39l239 96q100 41 178 41h17q137 0 137 -141v-1007h152q59 0 59 -54v-131q0 -31 -13 -41t-44 -10z" />
    <glyph glyph-name="two" unicode="2" horiz-adv-x="1189" 
d="M1014 0h-813q-133 0 -133 139q0 103 86 172q332 260 442 365q149 140 149 276q0 118 -56 170q-59 54 -197 54q-100 0 -218 -27q-63 -14 -73 -14q-30 0 -37 28q-25 98 -25 137q0 40 51 56q165 53 375 53q141 0 237 -32q95 -32 142 -92q47 -61 65 -129q17 -65 17 -165
q0 -220 -154 -368q-156 -150 -471 -381q162 2 613 2q57 0 57 -56v-135q0 -53 -57 -53z" />
    <glyph glyph-name="three" unicode="3" horiz-adv-x="1189" 
d="M741 733q155 -15 226 -97q71 -81 71 -243q0 -207 -119 -313q-121 -107 -411 -107q-194 0 -340 35q-51 15 -51 55q0 50 26 142q11 33 43 33q12 0 74 -13q90 -18 234 -18q149 0 207 47q57 46 57 147q0 105 -60 146q-61 41 -215 47q-60 1 -87 27q-25 24 -25 96q0 65 26 88
q28 25 84 29q127 6 182 47q54 41 54 120q0 97 -50 136q-49 39 -186 39q-91 0 -196 -21q-57 -12 -74 -12q-29 0 -35 28q-26 107 -26 138q0 40 51 55q146 45 346 45q141 0 230 -24q92 -25 136 -75q48 -54 64 -118t16 -168q0 -105 -64 -184q-65 -80 -188 -107z" />
    <glyph glyph-name="four" unicode="4" horiz-adv-x="1189" 
d="M700 313h-516q-116 0 -116 129q0 93 47 185l368 710q29 58 84 58q145 0 187 -11q22 -7 22 -32q0 -27 -14 -54l-408 -743h346v238q0 63 56 63h157q54 0 54 -59v-242h118q62 0 62 -55v-135q0 -52 -62 -52h-118v-254q0 -28 -17 -45q-16 -16 -41 -16h-153q-56 0 -56 61v254z
" />
    <glyph glyph-name="five" unicode="5" horiz-adv-x="1189" 
d="M422 844q116 14 205 14q235 0 334 -87q98 -86 98 -337q0 -232 -122 -346q-123 -115 -421 -115q-226 0 -342 35q-51 15 -51 55q0 44 24 134q7 39 50 39q17 0 79 -13q83 -16 234 -16q150 0 208 48t58 169q0 120 -60 161q-59 40 -184 40q-63 0 -151 -8q-77 -7 -94 -7
q-111 0 -111 115q0 47 4 123l25 471q1 26 18 46q16 19 39 19h666q55 0 55 -51v-139q0 -51 -61 -51h-486z" />
    <glyph glyph-name="six" unicode="6" horiz-adv-x="1189" 
d="M379 786q95 99 309 99q224 0 320 -102t96 -345q0 -236 -119 -350q-120 -115 -375 -115q-270 0 -388 153q-118 152 -118 517q0 394 133 581q131 185 461 185q190 0 283 -29q39 -12 39 -51q0 -45 -25 -139q-11 -33 -39 -33q-33 0 -82 10q-72 11 -163 11q-189 0 -255 -85
q-66 -86 -77 -307zM385 498q0 -72 12 -129q30 -168 219 -168q121 0 174 52q54 53 54 183q0 118 -51 171q-51 52 -162 52q-191 0 -232 -84q-14 -27 -14 -77z" />
    <glyph glyph-name="seven" unicode="7" horiz-adv-x="1189" 
d="M772 1145q-121 0 -260 -1t-365 -1q-61 0 -61 53v137q0 51 57 51h789q81 0 116 -28t35 -96q0 -70 -43 -175l-409 -1017q-30 -76 -88 -76q-111 0 -170 10q-45 8 -45 51q0 31 18 76z" />
    <glyph glyph-name="eight" unicode="8" horiz-adv-x="1189" 
d="M838 729q262 -40 262 -340q0 -212 -120 -314t-390 -102q-264 0 -382 99t-118 307q0 282 266 348q-227 57 -227 309q0 195 119 284t360 89q238 0 350 -86q111 -86 111 -281q0 -252 -231 -313zM819 403q0 197 -223 197q-227 0 -227 -199q0 -112 56 -158t169 -46
q112 0 169 48q56 47 56 158zM793 1006q0 92 -43 134q-44 42 -154 42t-154 -44q-43 -43 -43 -137q0 -174 195 -174q199 0 199 179z" />
    <glyph glyph-name="nine" unicode="9" horiz-adv-x="1189" 
d="M815 594q-101 -90 -309 -90q-224 0 -320 99t-96 343q0 234 125 348q126 115 383 115q267 0 379 -151q110 -149 110 -521q0 -397 -129 -581q-129 -185 -462 -185q-211 0 -301 29q-39 12 -39 51q0 49 22 133q10 39 45 39q9 0 70 -6q83 -14 194 -14q188 0 254 90
q67 91 74 301zM809 895q0 86 -14 139q-41 150 -211 150q-117 0 -175 -55q-57 -54 -57 -181q0 -120 51 -169q52 -50 162 -50q93 0 156 25q59 24 74 57q14 31 14 84z" />
    <glyph glyph-name="colon" unicode=":" horiz-adv-x="552" 
d="M463 147q0 -170 -170 -170q-71 0 -117 39q-47 39 -47 131q0 93 46 135q47 42 122 42q78 0 122 -38t44 -139zM463 858q0 -172 -170 -172q-71 0 -117 39q-47 39 -47 131q0 174 168 174q79 0 122 -37q44 -38 44 -135z" />
    <glyph glyph-name="semicolon" unicode=";" horiz-adv-x="552" 
d="M465 858q0 -172 -174 -172q-158 0 -158 170q0 174 168 174q77 0 120 -37q44 -38 44 -135zM270 313h86q82 0 82 -77q0 -132 -61 -294q-61 -161 -150 -261q-44 -52 -77 -52q-31 0 -78 25q-43 27 -43 59q0 23 24 66q112 175 127 442q5 92 90 92z" />
    <glyph glyph-name="less" unicode="&#x3c;" horiz-adv-x="1435" 
d="M426 604l692 -307q49 -22 49 -76q0 -46 -4 -86q-6 -49 -43 -49q-27 0 -45 12l-801 381q-47 21 -47 80v86q0 57 47 80l799 387q24 12 49 12q33 0 39 -49q6 -46 6 -82q0 -51 -49 -75z" />
    <glyph glyph-name="equal" unicode="=" horiz-adv-x="1435" 
d="M1251 358q0 -65 -57 -65h-952q-58 0 -58 65v56q0 63 58 63h952q57 0 57 -63v-56zM1251 791q0 -64 -57 -64h-952q-58 0 -58 64v59q0 63 58 63h952q57 0 57 -63v-59z" />
    <glyph glyph-name="greater" unicode="&#x3e;" horiz-adv-x="1435" 
d="M1012 604l-695 309q-47 23 -47 76q0 46 4 86q6 49 43 49q25 0 45 -10l799 -383q49 -24 49 -80v-86q0 -51 -47 -80l-798 -387q-29 -12 -50 -12q-18 0 -27 10q-10 11 -14 39q-4 27 -4 82q0 54 49 76z" />
    <glyph glyph-name="question" unicode="?" horiz-adv-x="923" 
d="M461 494h-94q-57 0 -64 38q-6 34 -6 95q0 73 20 113q21 43 89 94q96 72 133 127q36 53 36 126q0 75 -40 115q-41 41 -142 41q-96 0 -176 -16q-53 -8 -59 -8q-48 0 -60 49q-16 58 -16 100q2 54 57 70q121 37 297 37q239 0 333 -82q95 -83 95 -258q0 -116 -41 -192
q-40 -75 -172 -161q-68 -45 -94 -77q-27 -34 -35 -91q-4 -36 -4 -44q-1 -17 -4 -42q-6 -34 -53 -34zM575 147q0 -170 -169 -170q-164 0 -164 170q0 177 168 177q165 0 165 -177z" />
    <glyph glyph-name="at" unicode="@" horiz-adv-x="1654" 
d="M956 225q-86 -108 -249 -108q-271 0 -271 266q0 131 57 272q58 143 152 224q107 94 291 94q126 0 242 -35q49 -12 49 -55q0 -26 -13 -86l-90 -408q-10 -43 -10 -84q0 -47 41 -47q38 0 82 29q88 61 139 188t51 264q0 471 -501 471q-294 0 -489 -208t-195 -541
q0 -280 154 -433t440 -153q237 0 424 64q44 16 63 16q28 0 43 -47q6 -15 6 -35q0 -27 -47 -45q-220 -86 -491 -86q-348 0 -543 185q-197 186 -197 534q0 375 235 622q234 246 601 246q302 0 471 -145q170 -146 170 -439q0 -250 -133 -437t-326 -187q-149 0 -156 104z
M967 397l80 351q10 43 10 59q0 25 -27 29q-53 10 -100 10q-120 0 -187 -70q-62 -62 -100 -165q-37 -101 -37 -199q0 -160 148 -160q94 0 161 53q9 6 33 37q12 17 19 55z" />
    <glyph glyph-name="A" unicode="A" horiz-adv-x="1331" 
d="M416 373l-101 -310q-12 -40 -26 -54q-15 -15 -43 -15q-160 0 -203 10q-29 8 -29 41q0 27 15 66l401 1167q34 99 76 138q41 38 143 38h66q94 0 129 -35q34 -34 67 -135l394 -1169q14 -36 14 -68q0 -31 -27 -43q-23 -10 -202 -10q-29 0 -44 15q-16 16 -28 54l-105 310h-497
zM485 612h365q-140 447 -180 596q-37 -139 -185 -596z" />
    <glyph glyph-name="B" unicode="B" horiz-adv-x="1337" 
d="M616 0h-227q-111 0 -163 51t-52 166v1004q0 225 215 225h240q117 0 223 -12q176 -18 260 -104t84 -243q0 -133 -51 -213q-50 -78 -162 -116q129 -30 194 -112q64 -80 64 -226q0 -290 -207 -373q-120 -47 -418 -47zM457 633v-320q0 -42 17 -59q18 -18 61 -18h151
q119 0 168 20q98 39 98 190q0 123 -104 166q-52 21 -191 21h-200zM457 858h188q128 0 174 19q92 39 92 159q0 81 -29 116q-30 36 -87 54q-49 13 -136 13h-141q-61 0 -61 -74v-287z" />
    <glyph glyph-name="C" unicode="C" horiz-adv-x="1210" 
d="M389 731q0 -279 78 -401q78 -121 276 -121q131 0 271 33q44 12 67 12q28 0 39 -29q31 -87 31 -135q0 -37 -49 -55q-175 -62 -432 -62q-284 0 -428 163q-144 164 -144 564q0 414 141 593q142 180 486 180q226 0 344 -31q51 -12 51 -53q0 -76 -30 -152q-8 -27 -41 -27
q-21 0 -70 11q-86 16 -223 16q-211 0 -289 -114t-78 -392z" />
    <glyph glyph-name="D" unicode="D" horiz-adv-x="1439" 
d="M569 0h-182q-111 0 -162 51t-51 166v1006q0 223 217 223h203q256 0 387 -39q360 -105 360 -668q0 -284 -80 -448q-81 -166 -286 -242q-129 -49 -406 -49zM457 326q0 -80 75 -80h121q131 0 209 39q107 50 147 155t40 297q0 185 -39 284t-140 144q-78 37 -231 37h-117
q-65 0 -65 -76v-800z" />
    <glyph glyph-name="E" unicode="E" horiz-adv-x="1157" 
d="M1042 0h-649q-110 0 -165 50q-54 50 -54 169v1002q0 225 219 225h615q57 0 57 -55v-144q0 -47 -57 -47h-486q-65 0 -65 -76v-252h499q58 0 58 -55v-143q0 -49 -58 -49h-499v-299q0 -45 17 -62q18 -18 61 -18h507q58 0 58 -56v-141q0 -49 -58 -49z" />
    <glyph glyph-name="F" unicode="F" horiz-adv-x="1101" 
d="M457 59q0 -61 -58 -61h-172q-53 0 -53 61v1162q0 225 217 225h602q58 0 58 -55v-144q0 -47 -58 -47h-471q-65 0 -65 -78v-301h452q58 0 58 -55v-143q0 -50 -58 -50h-452v-514z" />
    <glyph glyph-name="G" unicode="G" horiz-adv-x="1374" 
d="M1251 154q0 -53 -18 -74q-16 -19 -49 -35q-184 -72 -496 -72q-301 0 -445 162q-145 163 -145 565q0 409 149 591t503 182q232 0 374 -35q52 -15 52 -56q0 -70 -29 -149q-11 -29 -41 -29q-4 0 -70 8q-142 25 -266 25q-210 0 -295 -118q-86 -119 -86 -388q0 -279 76 -401
q76 -123 278 -123q142 0 230 26q37 10 37 54v254h-240q-41 0 -41 43v157q0 47 43 47h430q49 0 49 -53v-581z" />
    <glyph glyph-name="H" unicode="H" horiz-adv-x="1474" 
d="M457 59q0 -61 -58 -61h-172q-53 0 -53 61v1327q0 62 55 62h177q51 0 51 -59v-517h561v514q0 62 57 62h174q51 0 51 -59v-1330q0 -61 -57 -61h-170q-55 0 -55 61v566h-561v-566z" />
    <glyph glyph-name="I" unicode="I" horiz-adv-x="630" 
d="M457 59q0 -61 -58 -61h-172q-53 0 -53 61v1327q0 62 55 62h177q51 0 51 -59v-1330z" />
    <glyph glyph-name="J" unicode="J" horiz-adv-x="686" 
d="M516 164q0 -222 -88 -316q-51 -59 -160 -103q-108 -44 -221 -44q-59 0 -70 51q-10 41 -10 109q0 56 53 67q111 18 158 56q53 41 53 170v1232q0 62 58 62h174q53 0 53 -59v-1225z" />
    <glyph glyph-name="K" unicode="K" horiz-adv-x="1341" 
d="M457 59q0 -61 -58 -61h-172q-53 0 -53 61v1327q0 62 55 62h177q51 0 51 -59v-519h127q67 0 94 41l301 490q28 49 76 49q108 0 174 -6q43 -6 43 -43q0 -25 -21 -58q-274 -443 -374 -583l411 -649q29 -41 29 -68q0 -39 -43 -43q-55 -4 -205 -4q-41 0 -70 45l-342 549
q-23 35 -82 35h-118v-566z" />
    <glyph glyph-name="L" unicode="L" horiz-adv-x="1157" 
d="M1030 0h-641q-215 0 -215 209v1177q0 62 55 62h177q51 0 51 -59v-1067q0 -76 75 -76h498q57 0 57 -56v-141q0 -49 -57 -49z" />
    <glyph glyph-name="M" unicode="M" horiz-adv-x="1755" 
d="M453 57q0 -59 -56 -59h-174q-49 0 -49 61v1188q0 96 41 152q40 55 160 55h61q102 0 134 -35q33 -36 89 -178q185 -473 224 -596l219 600q30 80 40 100q14 28 39 59q26 32 61 41q36 9 93 9h70q115 0 145 -48q31 -50 31 -159v-1181q0 -68 -57 -68h-172q-54 0 -54 65
q0 780 9 1104q-73 -238 -283 -790q-27 -70 -51 -95q-24 -26 -76 -26h-33q-49 0 -77 26t-50 87q-229 618 -291 798q7 -236 7 -1110z" />
    <glyph glyph-name="N" unicode="N" horiz-adv-x="1515" 
d="M449 59q0 -61 -58 -61h-164q-53 0 -53 61v1203q0 98 44 145t144 47h78q78 0 114 -31q33 -29 71 -106q339 -693 452 -967q-6 186 -6 1022q0 76 62 76h153q55 0 55 -70v-1233q0 -92 -43 -126q-42 -33 -116 -33h-64q-87 0 -126 32t-85 125q-367 748 -463 979q5 -313 5 -1063
z" />
    <glyph glyph-name="O" unicode="O" horiz-adv-x="1441" 
d="M1343 733q0 -229 -36 -372q-38 -149 -119 -233q-82 -86 -195 -120q-114 -35 -280 -35t-274 34q-111 35 -189 119q-81 87 -116 233q-36 149 -36 372q0 226 46 374q46 149 137 228q92 80 196 109q110 31 252 31q130 0 223 -17t170 -62q81 -47 125 -128q46 -84 71 -213
q25 -128 25 -320zM1049 729q0 217 -34 325t-101 146q-65 37 -193 37q-114 0 -182 -38q-69 -38 -109 -151q-41 -115 -41 -317q0 -163 21 -268t64 -160q44 -56 100 -75t143 -19q85 0 141 18q52 17 101 72q47 53 68 159q22 110 22 271z" />
    <glyph glyph-name="P" unicode="P" horiz-adv-x="1302" 
d="M457 59q0 -61 -60 -61h-170q-53 0 -53 61v1149q0 128 51 183t174 55h183q296 0 417 -51q207 -84 207 -381q0 -326 -274 -408q-121 -37 -336 -37h-139v-510zM457 793h151q134 0 201 24q106 40 106 180q0 154 -102 193q-57 20 -209 20h-88q-59 0 -59 -67v-350z" />
    <glyph glyph-name="Q" unicode="Q" horiz-adv-x="1441" 
d="M1343 733q0 -466 -182 -633l240 -155q24 -17 24 -39q0 -23 -94 -162q-15 -23 -37 -23q-16 0 -39 15l-376 248q-90 -11 -166 -11q-166 0 -274 34q-111 35 -189 119q-81 87 -116 233q-36 149 -36 372q0 226 46 374q46 149 137 228q92 80 196 109q110 31 252 31
q130 0 223 -17t170 -62q81 -47 125 -128q46 -84 71 -213q25 -128 25 -320zM1049 729q0 217 -34 325t-101 146q-65 37 -193 37q-114 0 -182 -38q-69 -38 -109 -151q-41 -115 -41 -317q0 -163 21 -268t64 -160q44 -56 100 -75t143 -19q85 0 141 18q52 17 101 72q47 53 68 159
q22 110 22 271z" />
    <glyph glyph-name="R" unicode="R" horiz-adv-x="1312" 
d="M457 59q0 -61 -60 -61h-170q-53 0 -53 61v1153q0 121 51 178q50 56 176 56h156q293 0 416 -49q209 -86 209 -383q0 -300 -232 -396l279 -503q28 -52 28 -74q0 -33 -30 -37q-44 -10 -205 -10q-48 0 -72 47l-268 526q-46 -2 -113 -2h-112v-506zM457 791h121q134 0 206 24
q107 41 107 184q0 155 -103 193q-52 18 -184 18h-80q-67 0 -67 -67v-352z" />
    <glyph glyph-name="S" unicode="S" horiz-adv-x="1193" 
d="M754 834q201 -56 273 -141q73 -87 73 -269q0 -220 -124 -335q-125 -116 -419 -116q-250 0 -430 60q-51 17 -51 63q0 24 26 121q17 53 66 53q22 0 76 -16q147 -45 319 -45q145 0 194 48q50 48 50 130q0 77 -36 118q-36 40 -157 70l-178 43q-170 41 -251 140t-81 274
q0 212 123 326q124 115 404 115q240 0 373 -43q49 -15 49 -64q0 -27 -25 -121q-11 -47 -51 -47q-29 0 -72 10q-146 27 -293 27q-124 0 -170 -46q-47 -47 -47 -130q0 -67 36 -110t142 -70z" />
    <glyph glyph-name="T" unicode="T" horiz-adv-x="1253" 
d="M768 59q0 -61 -57 -61h-174q-56 0 -56 61v1141h-352q-57 0 -57 47v144q0 55 57 55h993q58 0 58 -55v-144q0 -47 -58 -47h-354v-1141z" />
    <glyph glyph-name="U" unicode="U" horiz-adv-x="1433" 
d="M1274 1391v-813q0 -164 -12 -254t-50 -154q-122 -199 -512 -199q-396 0 -495 213q-45 99 -45 389v818q0 57 55 57h180q47 0 47 -57v-879q0 -162 43 -221q57 -82 232 -82q189 0 241 78q46 64 46 221v883q0 57 55 57h166q49 0 49 -57z" />
    <glyph glyph-name="V" unicode="V" horiz-adv-x="1323" 
d="M659 293q15 52 359 1091q21 68 74 68q141 0 192 -12q31 -8 31 -41q0 -20 -17 -66l-413 -1202q-22 -66 -61 -102q-38 -35 -128 -35h-78q-91 0 -128 37t-64 110l-403 1188q-15 39 -15 68q0 31 27 43q29 12 207 12q31 0 45 -14t26 -54q312 -963 346 -1091z" />
    <glyph glyph-name="W" unicode="W" horiz-adv-x="1953" 
d="M981 1098q-48 -223 -236 -957q-22 -81 -60 -114q-37 -33 -118 -33h-75q-72 0 -113 33q-43 35 -60 110l-268 1186q-8 37 -8 74q0 43 45 47q56 8 195 8q49 0 61 -59q178 -848 219 -1112q50 261 246 1001q18 70 48 98q31 29 95 29h64q72 0 103 -26q30 -25 48 -99
q206 -820 240 -1003q38 253 213 1103q12 68 63 68q139 0 195 -8q33 -8 33 -43q0 -27 -10 -76l-265 -1184q-16 -74 -53 -110q-37 -37 -121 -37h-63q-87 0 -128 33q-40 33 -61 116q-179 729 -229 955z" />
    <glyph glyph-name="X" unicode="X" horiz-adv-x="1355" 
d="M348 49q-35 -53 -88 -53q-175 0 -199 8q-30 6 -30 39q0 21 28 61l433 646l-396 585q-30 43 -30 64q0 33 32 43q32 8 224 8q44 0 77 -51l289 -445l289 441q37 57 84 57q166 0 203 -8q28 -6 28 -37q0 -27 -26 -66l-402 -600l432 -639q25 -39 25 -61q0 -31 -31 -37
q-46 -8 -219 -8q-50 0 -90 59l-313 486q-105 -170 -320 -492z" />
    <glyph glyph-name="Y" unicode="Y" horiz-adv-x="1253" 
d="M770 59q0 -29 -16 -45t-41 -16h-172q-56 0 -56 61v541l-450 737q-27 45 -27 68q0 27 27 39q24 8 229 8q49 0 82 -57q198 -328 291 -508q75 144 293 504q34 61 84 61q178 0 207 -10q24 -10 24 -35q0 -23 -24 -66l-451 -733v-549z" />
    <glyph glyph-name="Z" unicode="Z" horiz-adv-x="1273" 
d="M1157 0h-975q-141 0 -141 143q0 89 55 156l748 901h-682q-58 0 -58 60v122q0 27 17 46q17 18 45 18h827q89 0 135 -35t46 -119q0 -102 -74 -194l-709 -852h768q60 0 60 -56v-137q0 -53 -62 -53z" />
    <glyph glyph-name="bracketleft" unicode="[" horiz-adv-x="649" 
d="M381 -170h192q39 0 39 -37v-47q0 -39 -39 -39h-366q-45 0 -45 55v1731q0 55 47 55h364q39 0 39 -35v-51q0 -37 -41 -37h-190v-1595z" />
    <glyph glyph-name="backslash" unicode="\" horiz-adv-x="837" 
d="M614 -150l-575 1594q-14 38 -14 55q0 29 30 35q40 6 105 6q38 0 59 -53l580 -1610q12 -33 12 -45q0 -27 -31 -33q-40 -6 -102 -6q-46 0 -64 57z" />
    <glyph glyph-name="bracketright" unicode="]" horiz-adv-x="649" 
d="M268 1425h-192q-39 0 -39 37v47q0 39 39 39h366q45 0 45 -57v-1729q0 -26 -13 -40q-13 -15 -34 -15h-364q-39 0 -39 35v51q0 37 41 37h190v1595z" />
    <glyph glyph-name="asciicircum" unicode="^" horiz-adv-x="1470" 
d="M733 1174q-100 -228 -260 -556q-23 -47 -70 -47q-29 0 -88 9q-49 7 -49 43q0 16 10 36l328 672q24 51 82 51h98q55 0 82 -51l330 -674q10 -20 10 -34q0 -36 -43 -43q-47 -9 -96 -9t-72 50q-155 309 -262 553z" />
    <glyph glyph-name="underscore" unicode="_" horiz-adv-x="1009" 
d="M0 -158h1010v-94h-1010v94z" />
    <glyph glyph-name="grave" unicode="`" horiz-adv-x="403" 
d="M217 1223l-225 237q-31 36 -31 56q0 32 51 38q70 7 138 7q56 0 92 -48l178 -233q20 -23 20 -49q0 -31 -41 -39q-39 -6 -94 -6q-51 0 -88 37z" />
    <glyph glyph-name="a" unicode="a" horiz-adv-x="1110" 
d="M979 176q0 -67 -25 -98q-28 -32 -71 -47q-60 -21 -186 -40q-121 -18 -226 -18q-223 0 -306 89t-83 245q0 175 115 252q96 66 327 66q97 0 183 -9v52q0 64 -11 94q-24 59 -174 59q-97 0 -205 -18q-80 -12 -88 -12q-35 0 -45 38q-20 79 -20 119q0 47 45 62q152 47 352 47
q259 0 344 -84q74 -72 74 -273v-524zM707 430q-88 8 -148 8q-135 0 -176 -30q-39 -24 -39 -95q0 -64 35 -99q34 -34 125 -34q108 0 166 25q24 11 30 33q7 21 7 69v123z" />
    <glyph glyph-name="b" unicode="b" horiz-adv-x="1183" 
d="M141 156v1312q0 64 54 64h167q31 0 42 -14q12 -15 12 -50v-491q114 78 321 78q186 0 272 -122q85 -121 85 -401q0 -169 -32 -282q-32 -112 -100 -171q-70 -61 -159 -83q-92 -23 -225 -23q-218 0 -353 45q-54 17 -71 60q-13 29 -13 78zM416 285q0 -43 10 -54
q10 -16 43 -22q39 -10 111 -10q147 0 193 64t46 253q0 177 -34 242t-146 65q-133 0 -195 -39q-19 -11 -24 -24q-4 -11 -4 -41v-434z" />
    <glyph glyph-name="c" unicode="c" horiz-adv-x="952" 
d="M369 514q0 -172 48 -243q48 -70 175 -70q97 0 170 14q39 10 63 10q33 0 43 -32q23 -74 23 -123q0 -42 -35 -54q-113 -43 -297 -43q-238 0 -353 118q-116 119 -116 407q0 292 116 426q115 133 390 133q140 0 244 -29q37 -12 37 -47q0 -57 -23 -141q-11 -35 -41 -35
q-13 0 -36 4t-29 4q-63 12 -144 12q-139 0 -187 -72t-48 -239z" />
    <glyph glyph-name="d" unicode="d" horiz-adv-x="1187" 
d="M1047 168q0 -48 -9 -70q-16 -37 -73 -61q-61 -27 -183 -45q-128 -19 -231 -19q-247 0 -354 112t-107 409q0 320 119 442q118 121 385 121q124 0 180 -27v440q0 62 62 62h157q29 0 41 -12q13 -13 13 -50v-1302zM774 301v444q0 49 -31 64q-33 16 -125 16q-150 0 -200 -69
q-49 -68 -49 -264q0 -161 44 -228q43 -65 156 -65q115 0 168 24q20 7 31 29q6 18 6 49z" />
    <glyph glyph-name="e" unicode="e" horiz-adv-x="1079" 
d="M365 432q2 -138 63 -184q62 -47 190 -47q138 0 230 22q43 10 61 10q35 0 47 -32q23 -64 23 -123q0 -36 -33 -51q-128 -54 -360 -54q-274 0 -388 127q-114 128 -114 410q0 290 121 418q121 129 373 129q114 0 196 -28q80 -27 124 -68t68 -118q22 -72 29 -147q6 -69 6 -184
q0 -53 -22 -68q-17 -12 -47 -12h-567zM369 627h372q2 14 2 39q0 98 -36 141q-37 45 -140 45q-104 0 -150 -55t-48 -170z" />
    <glyph glyph-name="f" unicode="f" horiz-adv-x="718" 
d="M475 51q0 -24 -14 -38q-15 -15 -39 -15h-172q-49 0 -49 59v746h-103q-59 0 -59 57v109q0 59 57 59h105v92q0 215 94 303q122 111 407 115q74 0 80 -51q6 -49 6 -117q0 -52 -57 -57q-108 -10 -160 -26q-48 -14 -71 -50q-25 -42 -25 -133v-76h187q55 0 55 -57v-115
q0 -53 -58 -53h-184v-752z" />
    <glyph glyph-name="g" unicode="g" horiz-adv-x="1181" 
d="M760 14q-62 -39 -213 -39q-239 0 -348 112t-109 407q0 320 116 441q116 120 378 120q245 0 391 -47q65 -21 65 -103v-805q0 -186 -24 -276q-41 -160 -218 -232q-175 -71 -499 -71q-67 0 -74 55q-8 66 -8 102q0 65 62 70q223 12 318 38q93 25 128 73q35 47 35 129v26z
M766 301v449q0 47 -29 59q-38 16 -129 16q-149 0 -194 -67q-45 -68 -45 -260q0 -161 41 -228q40 -65 153 -65q109 0 168 26q25 13 31 29q4 9 4 41z" />
    <glyph glyph-name="h" unicode="h" horiz-adv-x="1206" 
d="M416 55q0 -57 -54 -57h-169q-52 0 -52 57v1411q0 70 60 70h157q58 0 58 -72v-481q46 30 149 51q102 21 183 21q135 0 204 -32q68 -32 92 -97q21 -60 21 -201v-670q0 -57 -51 -57h-172q-51 0 -51 57v609q0 67 -11 98q-21 61 -133 61q-100 0 -174 -26q-28 -7 -45 -29
q-12 -15 -12 -63v-650z" />
    <glyph glyph-name="i" unicode="i" horiz-adv-x="557" 
d="M416 55q0 -57 -54 -57h-169q-52 0 -52 57v916q0 59 54 59h170q51 0 51 -57v-918zM426 1348q0 -82 -37 -118t-113 -36q-145 0 -145 152q0 153 145 153q75 0 112 -34q38 -35 38 -117z" />
    <glyph glyph-name="j" unicode="j" horiz-adv-x="559" 
d="M418 973v-1006q0 -216 -80 -311q-49 -57 -152 -96q-102 -39 -225 -39q-56 0 -67 53q-9 52 -9 104q0 60 54 68q105 15 157 55q47 38 47 162v1008q0 59 52 59h172q51 0 51 -57zM430 1348q0 -154 -149 -154q-148 0 -148 152q0 153 148 153q72 0 110 -34q39 -35 39 -117z" />
    <glyph glyph-name="k" unicode="k" horiz-adv-x="1132" 
d="M416 55q0 -57 -54 -57h-169q-52 0 -52 57v1411q0 60 54 60h170q51 0 51 -58v-786h90q62 0 92 43l184 266q30 43 72 43q151 0 184 -10q27 -8 27 -37q0 -21 -21 -49q-196 -275 -260 -356q40 -52 316 -480q22 -37 22 -59q0 -33 -30 -39q-33 -10 -197 -10q-46 0 -70 43
l-247 379q-24 37 -82 37h-80v-398z" />
    <glyph glyph-name="l" unicode="l" horiz-adv-x="614" 
d="M416 385q0 -86 18 -125q22 -44 117 -61q45 -6 45 -54q0 -65 -8 -108q-11 -47 -70 -47q-144 0 -216 29q-75 30 -116 94q-45 72 -45 237v1125q0 57 54 57h172q29 0 39 -13t10 -44v-1090z" />
    <glyph glyph-name="m" unicode="m" horiz-adv-x="1812" 
d="M416 55q0 -57 -54 -57h-169q-52 0 -52 57v793q0 89 70 119q213 88 502 88q197 0 254 -92q118 92 395 92q132 0 199 -32q66 -32 90 -97q18 -53 18 -201v-670q0 -57 -49 -57h-172q-51 0 -51 57v609q0 69 -11 100q-18 59 -129 59q-80 0 -157 -26q-23 -7 -45 -29
q-13 -13 -13 -39q0 -15 1 -32t1 -31v-611q0 -57 -51 -57h-172q-51 0 -51 57v613q0 67 -10 96q-12 32 -40 46q-26 13 -87 13q-87 0 -160 -24q-40 -17 -47 -31q-10 -11 -10 -68v-645z" />
    <glyph glyph-name="n" unicode="n" horiz-adv-x="1206" 
d="M416 55q0 -57 -54 -57h-169q-52 0 -52 57v787q0 98 74 127q87 37 245 62q153 24 283 24q138 0 208 -32q69 -32 93 -97q21 -60 21 -201v-670q0 -57 -51 -57h-172q-51 0 -51 57v609q0 69 -11 100q-16 59 -133 59q-119 0 -178 -26q-28 -10 -39 -23q-14 -14 -14 -51v-668z
" />
    <glyph glyph-name="o" unicode="o" horiz-adv-x="1155" 
d="M1065 522q0 -314 -115 -432q-114 -117 -379 -117q-255 0 -368 115t-113 428q0 162 36 271q36 111 106 167q71 57 154 80q84 23 200 23q129 0 212 -20q82 -20 146 -75q66 -57 93 -163q28 -110 28 -277zM791 512q0 190 -42 252q-42 61 -167 61q-114 0 -164 -63
q-49 -62 -49 -244q0 -191 44 -255q43 -62 162 -62q121 0 168 60q48 62 48 251z" />
    <glyph glyph-name="p" unicode="p" horiz-adv-x="1187" 
d="M416 -418q0 -61 -64 -61h-157q-29 0 -41 12q-13 13 -13 49v1264q0 55 11 80q12 34 71 61q59 25 190 47q126 21 236 21q241 0 345 -112t104 -408q0 -221 -58 -348q-57 -124 -161 -169q-105 -45 -285 -45q-114 0 -178 29v-420zM416 287q0 -52 28 -64q39 -18 123 -18
q155 0 204 67q50 68 50 265q0 163 -42 228q-42 64 -156 64q-111 0 -172 -30q-23 -11 -29 -27q-6 -12 -6 -49v-436z" />
    <glyph glyph-name="q" unicode="q" horiz-adv-x="1183" 
d="M1042 -418q0 -61 -53 -61h-162q-33 0 -45 13q-12 14 -12 46v471q-114 -78 -321 -78q-187 0 -273 123q-86 124 -86 402q0 168 32 281q32 112 102 172q71 61 161 83q92 23 225 23q216 0 348 -47q57 -18 72 -58q12 -28 12 -78v-1292zM770 309v434q0 39 -12 56q-11 16 -41 22
q-53 10 -109 10q-148 0 -194 -65q-47 -67 -47 -254q0 -179 33 -242q34 -65 147 -65q131 0 192 37q21 15 25 26q6 15 6 41z" />
    <glyph glyph-name="r" unicode="r" horiz-adv-x="802" 
d="M416 55q0 -57 -54 -57h-169q-52 0 -52 57v774q0 51 14 79q15 30 48 53q51 33 175 64q122 30 230 30q96 0 137 -13q37 -15 37 -53q0 -89 -12 -139q-8 -35 -51 -35q-4 0 -12 0.5t-22.5 1t-25.5 0.5q-60 2 -61 2q-94 0 -145 -26q-23 -12 -29 -27q-8 -16 -8 -53v-658z" />
    <glyph glyph-name="s" unicode="s" horiz-adv-x="931" 
d="M496 383l-150 39q-132 34 -199 104q-65 68 -65 207q0 322 416 322q197 0 301 -37q41 -12 41 -53q0 -26 -29 -134q-6 -34 -41 -34q-2 0 -55 8q-107 24 -228 24q-81 0 -107 -23q-28 -25 -28 -67q0 -34 22 -53t97 -41l139 -39q153 -44 209 -107q58 -66 58 -202
q0 -324 -422 -324q-239 0 -363 52q-37 15 -37 53q0 20 33 127q15 43 51 43q13 0 62 -15q109 -32 266 -32q145 0 145 94q0 33 -21 51q-22 19 -95 37z" />
    <glyph glyph-name="t" unicode="t" horiz-adv-x="747" 
d="M471 420q0 -117 37 -160q33 -40 180 -51q49 -4 49 -55q0 -62 -4 -117q-6 -53 -63 -53q-170 0 -261 24t-143 88q-42 49 -56 125q-13 71 -13 207v375h-107q-53 0 -53 53v115q0 57 57 57h109q1 58 8 213q5 64 55 64h156q49 0 49 -66v-211h178q64 0 64 -55v-115
q0 -55 -60 -55h-182v-383z" />
    <glyph glyph-name="u" unicode="u" horiz-adv-x="1206" 
d="M141 346v627q0 57 52 57h172q51 0 51 -57v-590q0 -91 14 -119q22 -59 145 -59q111 0 162 16q25 7 39 21q15 15 15 55v676q0 57 53 57h170q51 0 51 -57v-805q0 -98 -74 -131q-152 -64 -459 -64q-308 0 -364 140q-27 67 -27 233z" />
    <glyph glyph-name="v" unicode="v" horiz-adv-x="1075" 
d="M541 281q40 137 233 696q21 57 68 57q117 0 176 -8q43 -7 43 -45q0 -22 -12 -55l-306 -797q-29 -75 -65 -104q-39 -31 -111 -31h-65q-78 0 -113 30q-34 30 -61 103l-297 795q-15 38 -15 57q0 41 43 47q59 8 191 8q47 0 63 -55q194 -577 228 -698z" />
    <glyph glyph-name="w" unicode="w" horiz-adv-x="1593" 
d="M801 707q-30 -131 -164 -596q-18 -69 -59 -93q-40 -24 -119 -24h-43q-129 0 -158 115l-205 802q-10 43 -10 68q0 41 41 47q53 8 190 8q46 0 58 -55q95 -388 155 -719q37 168 158 604q18 70 49 99q29 28 90 28h37q64 0 93 -25q31 -26 49 -92q136 -444 174 -614
q46 275 139 715q12 59 57 59q124 0 180 -8q41 -8 41 -45q0 -9 -12 -59l-199 -809q-16 -65 -54 -91q-42 -28 -113 -28h-43q-74 0 -110 26q-38 27 -56 91q-143 488 -166 596z" />
    <glyph glyph-name="x" unicode="x" horiz-adv-x="1103" 
d="M545 342l-203 -297q-34 -49 -80 -49q-152 0 -201 6q-30 6 -30 39q0 21 24 55l316 430l-289 402q-27 33 -27 59q0 29 29 35q86 12 213 12q29 0 45 -12t39 -45q44 -60 180 -262q80 129 176 264q37 55 86 55q157 0 201 -10q23 -8 23 -33t-23 -59l-291 -404l316 -432
q22 -29 22 -55q0 -25 -24 -37q-19 -8 -222 -8q-43 0 -77 49z" />
    <glyph glyph-name="y" unicode="y" horiz-adv-x="1206" 
d="M141 305v668q0 57 52 57h172q51 0 51 -57v-606q0 -72 10 -101q21 -59 139 -59q103 0 172 26q28 10 39 23q15 15 15 51v666q0 57 53 57h170q51 0 51 -57v-897q0 -162 -23 -256q-44 -162 -214 -231q-169 -68 -504 -68q-37 0 -51 10q-15 10 -19 37q-8 74 -8 115q0 65 57 67
q248 7 346 38q97 30 119 91q16 48 16 119v35q-112 -60 -315 -60q-255 0 -305 131q-23 69 -23 201z" />
    <glyph glyph-name="z" unicode="z" horiz-adv-x="1019" 
d="M920 0h-732q-67 0 -103 30t-36 111q0 94 60 154l516 502h-484q-57 0 -57 49v125q0 23 16 40t41 17h662q73 0 110 -33t37 -112q0 -100 -76 -172l-503 -480h555q23 0 35 -16q12 -17 12 -39v-131q0 -15 -16 -31q-14 -14 -37 -14z" />
    <glyph glyph-name="braceleft" unicode="{" horiz-adv-x="724" 
d="M256 629q205 -40 205 -293v-293q0 -115 35 -162q30 -43 147 -51q41 -2 41 -55v-31q0 -47 -49 -47q-254 0 -326 86q-61 76 -61 225v295q0 128 -38 183t-118 67q-49 6 -49 53v35q0 49 43 59q87 17 124 75q38 59 38 177v258q0 172 59 240q85 106 320 106q57 0 57 -53v-24
q0 -50 -49 -54q-113 -8 -148 -65q-26 -39 -26 -148v-280q0 -138 -50 -208q-49 -68 -155 -95z" />
    <glyph glyph-name="bar" unicode="|" horiz-adv-x="540" 
d="M379 -242q0 -59 -53 -59h-113q-51 0 -51 59v1735q0 57 53 57h117q29 0 38 -13t9 -42v-1737z" />
    <glyph glyph-name="braceright" unicode="}" horiz-adv-x="724" 
d="M455 625q-203 41 -203 293v292q0 115 -35 162q-29 39 -149 51q-41 2 -41 56v30q0 47 49 47q253 0 325 -86q64 -79 64 -225v-295q0 -130 37 -183q38 -55 119 -67q49 -6 49 -53v-35q0 -48 -45 -59q-85 -17 -122 -75q-38 -59 -38 -177v-258q0 -167 -62 -240
q-85 -106 -317 -106q-57 0 -57 53v25q0 53 47 53q111 4 149 66q27 40 27 147v281q0 139 49 207q50 69 154 96z" />
    <glyph glyph-name="asciitilde" unicode="~" horiz-adv-x="1435" 
d="M336 494q-29 -35 -57 -35q-32 0 -70 35q-31 31 -31 57q0 25 21 49q147 176 303 176q91 0 237 -82q112 -61 189 -61q52 0 87 19t81 71q34 39 59 39q27 0 68 -35q32 -28 32 -55t-20 -54q-69 -89 -140 -135q-71 -45 -169 -45q-112 0 -236 72q-120 70 -188 70q-89 0 -166 -86
z" />
    <glyph glyph-name="exclamdown" unicode="&#xa1;" horiz-adv-x="608" 
d="M145 471q2 70 80 70h78q40 0 62 -16q21 -15 22 -58q27 -641 27 -782q0 -48 -17 -73q-17 -24 -59 -24h-143q-41 0 -60 19q-18 18 -18 67q0 159 28 797zM104 885q0 172 170 172q164 0 164 -170q0 -176 -168 -176q-74 0 -120 38t-46 136z" />
    <glyph glyph-name="cent" unicode="&#xa2;" horiz-adv-x="1048" 
d="M713 -162q0 -49 -39 -49h-107q-24 0 -33 10q-10 12 -10 39v154q-197 15 -291 131t-94 379q0 255 87 379q87 125 298 149v156q0 51 45 51h103q41 0 41 -51v-152q111 -5 178 -24q37 -10 37 -49q0 -69 -21 -138q-7 -32 -39 -32q-35 0 -59 6q-73 12 -150 12q-138 0 -187 -67
q-48 -66 -48 -226q0 -162 47 -232q47 -69 170 -69q117 0 184 21q29 10 58 10q28 0 39 -31q26 -77 26 -125q0 -34 -35 -51q-74 -35 -200 -45v-156z" />
    <glyph glyph-name="sterling" unicode="&#xa3;" horiz-adv-x="1273" 
d="M1112 0h-876q-54 0 -54 51v139q0 52 56 52h102v319h-129q-57 0 -57 53v109q0 51 57 51h129v170q0 187 68 293q63 94 161 133q99 39 248 39q172 0 299 -29q45 -12 45 -53q0 -65 -18 -139q-7 -33 -45 -33q-16 0 -27 1q-24 2 -36 4q-19 3 -25 3q-111 17 -185 17
q-124 0 -174 -64q-35 -47 -35 -186v-156h330q58 0 58 -51v-113q0 -49 -56 -49h-332v-319h494q55 0 55 -54v-141q0 -47 -53 -47z" />
    <glyph glyph-name="currency" unicode="&#xa4;" horiz-adv-x="1122" 
d="M981 233q-21 -22 -43 -22q-21 0 -41 20l-100 101q-96 -66 -236 -66q-134 0 -235 64l-95 -99q-22 -22 -45 -22q-21 0 -43 22l-18 21q-23 23 -23 43q0 22 23 45l100 102q-73 101 -73 238q0 134 71 235l-98 101q-23 23 -23 43q0 25 25 47l18 16q23 23 41 23q22 0 43 -23
l99 -100q100 74 233 74q143 0 234 -72l100 98q28 23 43 23q22 0 43 -23l16 -16q21 -21 21 -45q0 -19 -21 -43l-98 -100q72 -100 72 -238q0 -136 -72 -238l100 -102q21 -21 21 -43q0 -21 -21 -45zM813 680q0 120 -71 191t-181 71q-109 0 -181 -72q-73 -73 -73 -188
q0 -122 72 -194t182 -72q108 0 180 72t72 192z" />
    <glyph glyph-name="yen" unicode="&#xa5;" horiz-adv-x="1345" 
d="M1087 659h-225l-49 -75v-64h274q48 0 48 -45v-51q0 -43 -48 -43h-274v-322q0 -29 -16 -45t-41 -16h-166q-55 0 -55 61v322h-279q-45 0 -45 43v51q0 45 45 45h279v55l-54 84h-225q-45 0 -45 46v51q0 43 45 43h135l-301 471q-22 38 -22 65q0 29 28 41q24 8 207 8
q43 0 80 -57q222 -346 297 -485q80 145 295 483q37 59 86 59q178 0 199 -10q26 -10 26 -39t-22 -61l-312 -475h135q48 0 48 -43v-51q0 -46 -48 -46z" />
    <glyph glyph-name="brokenbar" unicode="&#xa6;" horiz-adv-x="555" 
d="M379 899q0 -57 -53 -57h-113q-51 0 -51 57v514q0 57 53 57h117q47 0 47 -57v-514zM379 20q0 -57 -53 -57h-113q-51 0 -51 57v515q0 57 53 57h117q47 0 47 -57v-515z" />
    <glyph glyph-name="section" unicode="&#xa7;" horiz-adv-x="1087" 
d="M805 270q123 -77 123 -247q0 -355 -451 -355q-210 0 -348 47q-39 15 -39 52q0 40 33 139q10 28 45 28l57 -10q131 -33 250 -33q182 0 182 113q0 52 -28 80q-29 30 -121 70l-152 65q-158 68 -216 136t-58 192q0 122 59 193q61 74 152 96q-111 66 -111 247q0 338 400 338
q195 0 297 -30q41 -12 41 -52q0 -51 -29 -135q-11 -33 -41 -33q-5 0 -64 9q-82 18 -204 18q-146 0 -146 -111q0 -48 30 -78q31 -31 126 -71l141 -59q163 -66 218 -138q53 -70 53 -196q0 -106 -56 -180t-143 -95zM760 516q0 43 -20 68q-21 25 -76 53q-61 33 -183 82
q-24 12 -47 12q-14 0 -31 -6q-34 -12 -60 -47t-26 -82q0 -44 23 -72q21 -25 78 -53q22 -12 57 -28q10 -4 34 -14t38 -16q41 -18 69 -30q26 -8 43 -8q11 0 29 8q30 16 50 52q22 39 22 81z" />
    <glyph glyph-name="dieresis" unicode="&#xa8;" horiz-adv-x="403" 
d="M131 1346q0 -136 -125 -136t-125 133q0 136 125 136t125 -133zM522 1346q0 -75 -32 -105q-33 -31 -95 -31q-123 0 -123 133q0 136 123 136q61 0 94 -30t33 -103z" />
    <glyph glyph-name="copyright" unicode="&#xa9;" horiz-adv-x="1699" 
d="M1575 707q0 -319 -201 -527q-201 -209 -526 -209t-526 209q-201 208 -201 527q0 317 201 527t524 210q333 0 531 -208t198 -529zM1489 707q0 283 -176 470q-175 185 -467 185q-286 0 -462 -186q-175 -185 -175 -469q0 -283 175 -468q176 -186 464 -186q290 0 465 186
q176 187 176 468zM672 719q0 -165 46 -227q47 -64 167 -64q101 0 170 18q35 7 45 7q22 0 30 -25q19 -54 19 -92q0 -26 -31 -37q-99 -39 -282 -39q-185 0 -279 98t-94 342q0 248 96 359q95 110 320 110q121 0 213 -18q34 -6 34 -39q0 -61 -20 -104q-6 -19 -29 -19q-6 0 -21 3
t-24 3q-94 9 -131 9q-130 0 -180 -64q-49 -62 -49 -221z" />
    <glyph glyph-name="ordfeminine" unicode="&#xaa;" horiz-adv-x="720" 
d="M635 655q0 -50 -17 -67q-17 -21 -47 -29q-107 -35 -266 -35q-141 0 -194 56q-54 57 -54 149q0 108 74 158q60 39 205 39q64 0 108 -2v24q0 34 -6 49q-16 31 -100 31q-74 0 -127 -10q-2 0 -20 -2l-12.5 -2.5t-11.5 -1.5q-3 0 -5.5 -0.5t-4 -1t-3 -0.5h-2.5q-21 0 -31 28
q-10 44 -10 80q0 29 30 41q83 27 221 27q174 0 226 -51q47 -45 47 -166v-314zM444 799q-21 4 -82 4q-75 0 -100 -17q-22 -15 -22 -59q0 -65 90 -65q63 0 94 14q12 6 16 20q4 11 4 43v60z" />
    <glyph glyph-name="guillemotleft" unicode="&#xab;" horiz-adv-x="1118" 
d="M326 543l243 -322q21 -28 21 -49q0 -28 -31 -33q-63 -6 -133 -6q-39 0 -72 39l-250 309q-28 32 -28 60q0 27 22 55l250 311q40 51 80 51q72 0 131 -8q31 -5 31 -28q0 -20 -25 -56zM772 543l242 -322q20 -26 20 -49q0 -32 -30 -33q-56 -6 -132 -6q-40 0 -73 39l-250 309
q-29 34 -29 60q0 30 23 55l250 311q41 51 79 51q73 0 134 -8q30 -4 30 -28q0 -22 -24 -56z" />
    <glyph glyph-name="logicalnot" unicode="&#xac;" horiz-adv-x="1435" 
d="M1231 129q0 -57 -62 -57h-63q-62 0 -62 57v381h-823q-55 0 -55 65v58q0 65 55 65h948q62 0 62 -65v-504z" />
    <glyph glyph-name="uni00AD" unicode="&#xad;" horiz-adv-x="673" 
d="M553 434h-430q-53 0 -53 53v127q0 50 55 50h426q55 0 55 -52v-131q0 -47 -53 -47z" />
    <glyph glyph-name="registered" unicode="&#xae;" horiz-adv-x="1699" 
d="M1575 707q0 -319 -201 -527q-201 -209 -526 -209t-526 209q-201 208 -201 527q0 317 201 527t524 210q333 0 531 -208t198 -529zM1489 707q0 283 -176 470q-175 185 -467 185q-286 0 -462 -186q-175 -185 -175 -469q0 -283 175 -468q176 -186 464 -186q290 0 465 186
q176 187 176 468zM739 322q0 -43 -45 -43h-104q-43 0 -43 47v684q0 81 35 122q33 39 114 39h95q194 0 270 -32q129 -51 129 -236q0 -181 -139 -244l170 -299q16 -32 16 -47q0 -27 -35 -32q-65 -7 -115 -7q-36 0 -57 37l-160 314h-67h-64v-303zM739 776h86q74 0 107 12
q63 22 63 105q0 90 -61 108q-41 13 -111 13h-39q-45 0 -45 -51v-187z" />
    <glyph glyph-name="macron" unicode="&#xaf;" horiz-adv-x="403" 
d="M453 1223h-496q-57 0 -57 55v90q0 53 57 53h494q57 0 57 -55v-94q0 -29 -13 -39t-42 -10z" />
    <glyph glyph-name="degree" unicode="&#xb0;" horiz-adv-x="688" 
d="M627 1178q0 -133 -78 -208t-207 -75q-125 0 -202 74t-77 207q0 132 79 207q80 75 210 75q129 0 202 -73t73 -207zM522 1176q0 95 -46 142q-47 48 -128 48q-84 0 -132 -50t-48 -145q0 -88 49 -137t133 -49q79 0 126 50q46 49 46 141z" />
    <glyph glyph-name="plusminus" unicode="&#xb1;" horiz-adv-x="1435" 
d="M813 371q0 -60 -61 -60h-68q-61 0 -61 60v364h-381q-58 0 -58 66v57q0 64 58 64h379v360q0 59 61 59h70q61 0 61 -59v-360h381q57 0 57 -64v-57q0 -66 -57 -66h-381v-364zM1251 63q0 -63 -57 -63h-952q-58 0 -58 63v60q0 63 58 63h952q57 0 57 -63v-60z" />
    <glyph glyph-name="twosuperior" unicode="&#xb2;" 
d="M678 860h-520q-50 0 -68 21t-18 63q0 61 57 100q125 93 268 220q95 86 95 170q0 68 -36 98q-37 31 -118 31q-54 0 -129 -13q-40 -8 -51 -8q-21 0 -27 19q-14 53 -14 94q0 25 30 33q99 32 246 32q174 0 234 -67q59 -66 59 -191q0 -131 -98 -229q-99 -99 -264 -211
q102 2 354 2q37 0 37 -35v-92q0 -37 -37 -37z" />
    <glyph glyph-name="threesuperior" unicode="&#xb3;" 
d="M483 1307q104 -10 150 -58q45 -47 45 -149q0 -125 -75 -191q-74 -65 -265 -65q-144 0 -217 20q-35 12 -35 37q0 36 20 96q6 21 31 21q8 0 14 -1q9 -1 21 -3q16 -2 18 -2q63 -11 138 -11q91 0 124 28q31 27 31 79q0 58 -32 78q-30 19 -125 24q-45 1 -61 21q-15 18 -15 61
q0 42 16 61q16 18 62 23q71 7 99 29t28 63q0 55 -29 75t-109 20q-49 0 -118 -11q-40 -8 -49 -8q-19 0 -25 21q-14 52 -14 92q0 29 30 37q87 26 221 26q172 0 229 -54q56 -53 56 -179q0 -147 -164 -180z" />
    <glyph glyph-name="acute" unicode="&#xb4;" horiz-adv-x="403" 
d="M182 1223q-30 -37 -90 -37q-51 0 -90 6q-41 6 -41 39q0 25 21 49l178 233q36 48 92 48q70 0 137 -7q51 -6 51 -38q0 -22 -30 -56z" />
    <glyph glyph-name="mu" unicode="&#xb5;" horiz-adv-x="1249" 
d="M436 -360q0 -58 -53 -58h-170q-51 0 -51 58v1333q0 57 51 57h172q51 0 51 -57v-590q0 -89 15 -119q24 -59 145 -59q114 0 162 16q25 6 41 21q12 12 12 55v676q0 57 55 57h168q51 0 51 -57v-809q0 -94 -73 -127q-147 -62 -396 -62q-130 0 -180 37v-372z" />
    <glyph glyph-name="paragraph" unicode="&#xb6;" horiz-adv-x="1179" 
d="M666 -221q0 -41 -35 -41h-41q-37 0 -37 43v694q-459 0 -459 459q0 115 26 205q25 87 88 159q64 73 178 110q117 38 284 38h272q62 0 62 -57v-1608q0 -43 -37 -43h-39q-37 0 -37 43v1552h-225v-1554z" />
    <glyph glyph-name="periodcentered" unicode="&#xb7;" horiz-adv-x="512" 
d="M422 549q0 -172 -170 -172q-70 0 -117 39t-47 131q0 174 168 174q79 0 122 -37q44 -38 44 -135z" />
    <glyph glyph-name="cedilla" unicode="&#xb8;" horiz-adv-x="403" 
d="M240 -100q60 -1 100 -20q39 -18 55 -51q18 -38 22 -62q5 -32 5 -74q0 -213 -289 -213q-63 0 -100 8q-49 12 -49 49q0 29 8 64q7 27 19 34q14 9 36 9q24 0 53 -4q24 -2 45 -2q76 0 76 55q0 35 -16 48t-55 13h-35q-45 0 -45 41q0 21 12 74l33 151h145z" />
    <glyph glyph-name="onesuperior" unicode="&#xb9;" 
d="M635 858h-393q-39 0 -39 35v92q0 37 39 37h110v496l-112 -41q-3 0 -11 -2q-2 -1 -6 -2.5t-5 -1.5q-3 -1 -9 -1q-19 0 -25 21q-32 89 -32 102q0 20 20 27l164 63q53 21 106 21h17q86 0 86 -90v-592h88q39 0 39 -37v-94q0 -33 -37 -33z" />
    <glyph glyph-name="ordmasculine" unicode="&#xba;" horiz-adv-x="751" 
d="M688 860q0 -192 -74 -264t-243 -72q-165 0 -238 70q-72 69 -72 262q0 191 82 260q84 70 236 70q167 0 238 -65t71 -261zM496 854q0 108 -24 142t-95 34q-66 0 -93 -36q-28 -37 -28 -138q0 -108 26 -143t93 -35t94 34t27 142z" />
    <glyph glyph-name="guillemotright" unicode="&#xbb;" horiz-adv-x="1118" 
d="M793 547l-244 321q-21 27 -21 50q0 26 33 32q59 8 131 8q38 0 72 -40l250 -306q28 -32 28 -61t-22 -57l-250 -312q-39 -49 -80 -49q-88 0 -129 6q-33 5 -33 31q0 19 25 55zM348 547l-244 321q-20 27 -20 50q0 27 31 32q67 8 131 8q39 0 73 -40l250 -308q29 -38 29 -61
q0 -26 -23 -55l-249 -312q-39 -49 -80 -49q-88 0 -131 6q-31 5 -31 31q0 19 25 55z" />
    <glyph glyph-name="onequarter" unicode="&#xbc;" horiz-adv-x="1783" 
d="M1524 39q0 -41 -39 -41h-109q-37 0 -37 41v143h-301q-48 0 -72 18t-24 62q0 52 35 119l223 430q17 35 57 35q93 0 121 -2q23 -5 23 -23q0 -15 -10 -35l-238 -438h186v127q0 41 39 41h111q35 0 35 -39v-129h65q43 0 43 -37v-94q0 -35 -43 -35h-65v-143zM602 541h-393
q-39 0 -39 34v93q0 37 39 37h110v495l-112 -41q-17 -6 -31 -6q-18 0 -24 21q-33 90 -33 102q0 20 20 27l164 63q50 20 107 20h16q86 0 86 -90v-591h88q39 0 39 -37v-95q0 -32 -37 -32zM580 -31q-18 -35 -52 -35q-43 0 -55 5q-18 6 -18 22t14 43l678 1407q21 47 55 47
q32 0 53 -4q25 -2 25 -22q0 -14 -18 -52z" />
    <glyph glyph-name="onehalf" unicode="&#xbd;" horiz-adv-x="1783" 
d="M1622 0h-520q-51 0 -68 20q-18 21 -18 64q0 61 57 100q132 98 268 219q95 86 95 170q0 69 -36 99t-118 30q-57 0 -129 -12q-40 -8 -51 -8q-21 0 -27 18q-14 53 -14 95q0 24 31 32q102 33 245 33q174 0 234 -67q59 -66 59 -191q0 -131 -98 -229q-99 -99 -264 -211
q102 2 354 2q37 0 37 -35v-92q0 -37 -37 -37zM588 541h-393q-39 0 -39 34v93q0 37 39 37h110v495l-112 -41q-15 -6 -31 -6q-19 0 -25 21q-33 90 -33 102q0 20 21 27l164 63q50 20 106 20h17q86 0 86 -90v-591h88q39 0 39 -37v-95q0 -32 -37 -32zM551 -31q-18 -35 -51 -35
q-44 0 -56 5q-18 6 -18 22t14 43l678 1407q21 47 56 47q32 0 53 -4q24 -2 24 -22q0 -14 -18 -52z" />
    <glyph glyph-name="threequarters" unicode="&#xbe;" horiz-adv-x="1783" 
d="M655 -31q-18 -35 -51 -35q-43 0 -55 5q-19 6 -19 22q0 14 15 43l678 1407q21 47 55 47q32 0 53 -4q25 -2 25 -22q0 -12 -19 -52zM551 987q104 -10 149 -57q45 -46 45 -150q0 -125 -74 -190q-75 -66 -265 -66q-142 0 -218 21q-34 12 -34 37q0 36 20 96q6 20 31 20
q7 0 13 -1t22 -3t18 -2q57 -10 137 -10q91 0 124 28q32 27 32 78q0 57 -33 78q-32 20 -125 25q-45 1 -60 20q-16 19 -16 62q0 40 17 60t61 24q74 8 100 28q27 21 27 64q0 56 -28 75t-109 19q-56 0 -119 -10q-40 -8 -49 -8q-18 0 -24 20q-15 55 -15 92q0 29 31 37
q90 27 221 27q171 0 228 -54t57 -180q0 -147 -164 -180zM1587 39q0 -41 -39 -41h-108q-37 0 -37 41v143h-301q-49 0 -73 18q-23 17 -23 62q0 54 34 119l224 430q18 35 57 35q93 0 121 -2q22 -4 22 -23q0 -15 -10 -35l-237 -438h186v127q0 41 39 41h110q35 0 35 -39v-129h66
q43 0 43 -37v-94q0 -35 -43 -35h-66v-143z" />
    <glyph glyph-name="questiondown" unicode="&#xbf;" horiz-adv-x="923" 
d="M463 541h92q59 0 66 -39q6 -33 6 -94q0 -72 -21 -114q-21 -43 -88 -93q-96 -72 -133 -127t-37 -127q0 -74 41 -115t141 -41q99 0 175 16q16 2 31 4.5t22 3.5t8 1q47 0 59 -49q17 -76 17 -101q-1 -54 -58 -69q-118 -39 -297 -39q-237 0 -332 83q-96 84 -96 259
q0 119 40 192q41 75 171 160q71 46 94 73q24 28 35 87q6 23 7 46q1 16 4 38q8 45 53 45zM348 885q0 172 170 172q164 0 164 -170q0 -176 -168 -176q-75 0 -121 38q-45 37 -45 136z" />
    <glyph glyph-name="Agrave" unicode="&#xc0;" horiz-adv-x="1331" 
d="M416 373l-101 -310q-12 -40 -26 -54q-15 -15 -43 -15q-160 0 -203 10q-29 8 -29 41q0 27 15 66l401 1167q34 99 76 138q41 38 143 38h66q94 0 129 -35q34 -34 67 -135l394 -1169q14 -36 14 -68q0 -31 -27 -43q-23 -10 -202 -10q-29 0 -44 15q-16 16 -28 54l-105 310h-497
zM485 612h365q-140 447 -180 596q-37 -139 -185 -596zM635 1581l-297 197q-35 23 -35 53q0 33 53 39q78 8 158 8q53 0 102 -43l228 -193q28 -27 28 -51q0 -29 -38 -35q-43 -6 -97 -6t-102 31z" />
    <glyph glyph-name="Aacute" unicode="&#xc1;" horiz-adv-x="1331" 
d="M416 373l-101 -310q-12 -40 -26 -54q-15 -15 -43 -15q-160 0 -203 10q-29 8 -29 41q0 27 15 66l401 1167q34 99 76 138q41 38 143 38h66q94 0 129 -35q34 -34 67 -135l394 -1169q14 -36 14 -68q0 -31 -27 -43q-23 -10 -202 -10q-29 0 -44 15q-16 16 -28 54l-105 310h-497
zM485 612h365q-140 447 -180 596q-37 -139 -185 -596zM707 1563q-48 -31 -103 -31q-52 0 -96 6q-41 6 -41 35q0 23 31 51l227 193q49 43 100 43q63 0 158 -9q53 -6 53 -39t-37 -55z" />
    <glyph glyph-name="Acircumflex" unicode="&#xc2;" horiz-adv-x="1331" 
d="M416 373l-101 -310q-12 -40 -26 -54q-15 -15 -43 -15q-160 0 -203 10q-29 8 -29 41q0 27 15 66l401 1167q34 99 76 138q41 38 143 38h66q94 0 129 -35q34 -34 67 -135l394 -1169q14 -36 14 -68q0 -31 -27 -43q-23 -10 -202 -10q-29 0 -44 15q-16 16 -28 54l-105 310h-497
zM485 612h365q-140 447 -180 596q-37 -139 -185 -596zM432 1550q-45 0 -86 9q-45 11 -45 40q0 23 21 46l198 198q53 58 105 58h98q44 0 92 -48l207 -215q16 -17 16 -41q0 -31 -45 -38q-47 -9 -94 -9q-46 0 -92 43l-139 125l-144 -129q-40 -39 -92 -39z" />
    <glyph glyph-name="Atilde" unicode="&#xc3;" horiz-adv-x="1331" 
d="M416 373l-101 -310q-12 -40 -26 -54q-15 -15 -43 -15q-160 0 -203 10q-29 8 -29 41q0 27 15 66l401 1167q34 99 76 138q41 38 143 38h66q94 0 129 -35q34 -34 67 -135l394 -1169q14 -36 14 -68q0 -31 -27 -43q-23 -10 -202 -10q-29 0 -44 15q-16 16 -28 54l-105 310h-497
zM485 612h365q-140 447 -180 596q-37 -139 -185 -596zM414 1548q-34 0 -64 6q-39 10 -39 50q0 8 13 55q69 190 202 190q64 0 160 -51q67 -37 113 -37q55 0 82 56q23 45 63 45q25 0 53 -7q45 -6 45 -40q0 -24 -14 -72q-61 -182 -199 -182q-61 0 -172 55q-70 35 -106 35
q-50 0 -74 -52q-15 -28 -27 -39q-14 -12 -36 -12z" />
    <glyph glyph-name="Adieresis" unicode="&#xc4;" horiz-adv-x="1331" 
d="M416 373l-101 -310q-12 -40 -26 -54q-15 -15 -43 -15q-160 0 -203 10q-29 8 -29 41q0 27 15 66l401 1167q34 99 76 138q41 38 143 38h66q94 0 129 -35q34 -34 67 -135l394 -1169q14 -36 14 -68q0 -31 -27 -43q-23 -10 -202 -10q-29 0 -44 15q-16 16 -28 54l-105 310h-497
zM485 612h365q-140 447 -180 596q-37 -139 -185 -596zM588 1698q0 -135 -125 -135t-125 133q0 135 125 135t125 -133zM999 1698q0 -135 -127 -135q-122 0 -122 133q0 135 122 135q62 0 95 -30q32 -29 32 -103z" />
    <glyph glyph-name="Aring" unicode="&#xc5;" horiz-adv-x="1331" 
d="M416 373l-101 -310q-12 -40 -26 -54q-15 -15 -43 -15q-160 0 -203 10q-29 8 -29 41q0 27 15 66l401 1167q34 99 76 138q41 38 143 38h66q94 0 129 -35q34 -34 67 -135l394 -1169q14 -36 14 -68q0 -31 -27 -43q-23 -10 -202 -10q-29 0 -44 15q-16 16 -28 54l-105 310h-497
zM485 612h365q-140 447 -180 596q-37 -139 -185 -596zM860 1700q0 -92 -54 -142q-56 -51 -142 -51q-83 0 -136 51q-51 49 -51 142q0 94 52 146t141 52q88 0 139 -52t51 -146zM772 1704q0 115 -106 115q-47 0 -77 -30t-30 -87q0 -55 30 -85t79 -30q104 0 104 117z" />
    <glyph glyph-name="AE" unicode="&#xc6;" horiz-adv-x="2011" 
d="M555 389l-211 -334q-37 -59 -94 -59q-123 0 -191 4q-47 2 -47 43q0 21 25 63l739 1190q51 82 104 117q50 33 138 33h844q57 0 57 -55v-144q0 -47 -57 -47h-551v-328h499q56 0 56 -55v-143q0 -49 -56 -49h-499v-301q0 -78 75 -78h510q31 0 43 -12q13 -13 13 -44v-141
q0 -49 -56 -49h-655q-102 0 -158 46q-57 46 -57 165v178h-471zM686 629h340v563q-14 -26 -340 -563z" />
    <glyph glyph-name="Ccedilla" unicode="&#xc7;" horiz-adv-x="1210" 
d="M713 -106q60 -1 104 -21q41 -18 59 -52q17 -33 22 -65q5 -33 5 -78q0 -223 -301 -223q-62 0 -106 10q-50 11 -50 52q0 32 7 65q11 45 59 45q12 0 55 -6q28 -2 47 -2q78 0 78 62q0 35 -17 48t-57 13h-36q-45 0 -45 41q0 35 10 78l24 119q-236 23 -354 188
q-119 167 -119 532q0 414 141 593q142 180 486 180q226 0 344 -31q51 -12 51 -53q0 -76 -30 -152q-8 -27 -41 -27q-21 0 -70 11q-86 16 -223 16q-211 0 -289 -114t-78 -392q0 -279 78 -401q78 -121 276 -121q131 0 271 33q44 12 67 12q28 0 39 -29q31 -87 31 -135
q0 -37 -49 -55q-160 -56 -375 -62z" />
    <glyph glyph-name="Egrave" unicode="&#xc8;" horiz-adv-x="1157" 
d="M1042 0h-649q-110 0 -165 50q-54 50 -54 169v1002q0 225 219 225h615q57 0 57 -55v-144q0 -47 -57 -47h-486q-65 0 -65 -76v-252h499q58 0 58 -55v-143q0 -49 -58 -49h-499v-299q0 -45 17 -62q18 -18 61 -18h507q58 0 58 -56v-141q0 -49 -58 -49zM594 1581l-297 197
q-35 23 -35 53q0 33 53 39q78 8 158 8q53 0 102 -43l228 -193q28 -27 28 -51q0 -29 -38 -35q-43 -6 -97 -6t-102 31z" />
    <glyph glyph-name="Eacute" unicode="&#xc9;" horiz-adv-x="1157" 
d="M1042 0h-649q-110 0 -165 50q-54 50 -54 169v1002q0 225 219 225h615q57 0 57 -55v-144q0 -47 -57 -47h-486q-65 0 -65 -76v-252h499q58 0 58 -55v-143q0 -49 -58 -49h-499v-299q0 -45 17 -62q18 -18 61 -18h507q58 0 58 -56v-141q0 -49 -58 -49zM727 1563
q-48 -31 -102 -31q-53 0 -97 6q-41 6 -41 35q0 23 31 51l227 193q49 43 101 43q63 0 158 -9q53 -6 53 -39t-37 -55z" />
    <glyph glyph-name="Ecircumflex" unicode="&#xca;" horiz-adv-x="1157" 
d="M1042 0h-649q-110 0 -165 50q-54 50 -54 169v1002q0 225 219 225h615q57 0 57 -55v-144q0 -47 -57 -47h-486q-65 0 -65 -76v-252h499q58 0 58 -55v-143q0 -49 -58 -49h-499v-299q0 -45 17 -62q18 -18 61 -18h507q58 0 58 -56v-141q0 -49 -58 -49zM403 1550q-45 0 -86 9
q-45 11 -45 40q0 23 21 46l199 198q53 58 104 58h98q44 0 92 -48l207 -215q17 -19 17 -41q0 -31 -45 -38q-47 -9 -95 -9q-46 0 -92 43l-139 125l-143 -129q-41 -39 -93 -39z" />
    <glyph glyph-name="Edieresis" unicode="&#xcb;" horiz-adv-x="1157" 
d="M1042 0h-649q-110 0 -165 50q-54 50 -54 169v1002q0 225 219 225h615q57 0 57 -55v-144q0 -47 -57 -47h-486q-65 0 -65 -76v-252h499q58 0 58 -55v-143q0 -49 -58 -49h-499v-299q0 -45 17 -62q18 -18 61 -18h507q58 0 58 -56v-141q0 -49 -58 -49zM561 1698
q0 -135 -125 -135t-125 133q0 135 125 135t125 -133zM973 1698q0 -135 -127 -135q-123 0 -123 133q0 135 123 135q61 0 94 -30t33 -103z" />
    <glyph glyph-name="Igrave" unicode="&#xcc;" horiz-adv-x="630" 
d="M457 59q0 -61 -58 -61h-172q-53 0 -53 61v1327q0 62 55 62h177q51 0 51 -59v-1330zM285 1581l-297 197q-35 23 -35 53q0 33 53 39q78 8 158 8q53 0 102 -43l228 -193q28 -27 28 -51q0 -29 -39 -35q-43 -6 -96 -6q-54 0 -102 31z" />
    <glyph glyph-name="Iacute" unicode="&#xcd;" horiz-adv-x="630" 
d="M457 59q0 -61 -58 -61h-172q-53 0 -53 61v1327q0 62 55 62h177q51 0 51 -59v-1330zM365 1581q-48 -31 -103 -31q-52 0 -96 6q-41 6 -41 35q0 23 31 51l227 193q49 43 100 43q73 0 158 -8q53 -6 53 -39t-37 -55z" />
    <glyph glyph-name="Icircumflex" unicode="&#xce;" horiz-adv-x="630" 
d="M457 59q0 -61 -58 -61h-172q-53 0 -53 61v1327q0 62 55 62h177q51 0 51 -59v-1330zM76 1550q-45 0 -86 9q-45 11 -45 40q0 25 20 46l199 198q53 58 104 58h99q44 0 92 -48l207 -215q16 -17 16 -41q0 -31 -45 -38q-47 -9 -94 -9q-46 0 -92 43l-140 125l-143 -129
q-40 -39 -92 -39z" />
    <glyph glyph-name="Idieresis" unicode="&#xcf;" horiz-adv-x="630" 
d="M457 59q0 -61 -58 -61h-172q-53 0 -53 61v1327q0 62 55 62h177q51 0 51 -59v-1330zM233 1698q0 -135 -124 -135q-125 0 -125 133q0 135 125 135q124 0 124 -133zM645 1698q0 -135 -127 -135q-123 0 -123 133q0 135 123 135q61 0 94 -30t33 -103z" />
    <glyph glyph-name="Eth" unicode="&#xd0;" horiz-adv-x="1439" 
d="M569 0h-182q-111 0 -162 51t-51 166v422h-90q-55 0 -55 51v113q0 51 57 51h88v369q0 223 217 223h203q256 0 387 -39q360 -105 360 -668q0 -284 -80 -448q-81 -166 -286 -242q-129 -49 -406 -49zM457 326q0 -80 75 -80h121q131 0 209 39q107 50 147 155t40 297
q0 185 -39 284t-140 144q-78 37 -231 37h-117q-65 0 -65 -76v-272h262q57 0 57 -51v-117q0 -47 -55 -47h-264v-313z" />
    <glyph glyph-name="Ntilde" unicode="&#xd1;" horiz-adv-x="1515" 
d="M449 59q0 -61 -58 -61h-164q-53 0 -53 61v1203q0 98 44 145t144 47h78q78 0 114 -31q33 -29 71 -106q339 -693 452 -967q-6 186 -6 1022q0 76 62 76h153q55 0 55 -70v-1233q0 -92 -43 -126q-42 -33 -116 -33h-64q-87 0 -126 32t-85 125q-367 748 -463 979q5 -313 5 -1063
zM506 1548q-34 0 -64 6q-39 10 -39 50q0 8 13 55q69 190 202 190q64 0 160 -51q67 -37 113 -37q55 0 82 56q23 45 63 45q26 0 54 -7q45 -6 45 -40q0 -21 -15 -72q-61 -182 -198 -182q-61 0 -172 55q-70 35 -107 35q-50 0 -74 -52q-24 -51 -63 -51z" />
    <glyph glyph-name="Ograve" unicode="&#xd2;" horiz-adv-x="1441" 
d="M1343 733q0 -229 -36 -372q-38 -149 -119 -233q-82 -86 -195 -120q-114 -35 -280 -35t-274 34q-111 35 -189 119q-81 87 -116 233q-36 149 -36 372q0 226 46 374q46 149 137 228q92 80 196 109q110 31 252 31q130 0 223 -17t170 -62q81 -47 125 -128q46 -84 71 -213
q25 -128 25 -320zM1049 729q0 217 -34 325t-101 146q-65 37 -193 37q-114 0 -182 -38q-69 -38 -109 -151q-41 -115 -41 -317q0 -163 21 -268t64 -160q44 -56 100 -75t143 -19q85 0 141 18q52 17 101 72q47 53 68 159q22 110 22 271zM688 1581l-297 197q-35 23 -35 53
q0 33 54 39q78 8 157 8q54 0 103 -43l227 -193q29 -27 29 -51q0 -29 -39 -35q-43 -6 -96 -6q-55 0 -103 31z" />
    <glyph glyph-name="Oacute" unicode="&#xd3;" horiz-adv-x="1441" 
d="M1343 733q0 -229 -36 -372q-38 -149 -119 -233q-82 -86 -195 -120q-114 -35 -280 -35t-274 34q-111 35 -189 119q-81 87 -116 233q-36 149 -36 372q0 226 46 374q46 149 137 228q92 80 196 109q110 31 252 31q130 0 223 -17t170 -62q81 -47 125 -128q46 -84 71 -213
q25 -128 25 -320zM1049 729q0 217 -34 325t-101 146q-65 37 -193 37q-114 0 -182 -38q-69 -38 -109 -151q-41 -115 -41 -317q0 -163 21 -268t64 -160q44 -56 100 -75t143 -19q85 0 141 18q52 17 101 72q47 53 68 159q22 110 22 271zM760 1581q-48 -31 -103 -31q-53 0 -96 6
q-41 6 -41 35q0 23 31 51l227 193q49 43 101 43q72 0 157 -8q54 -6 54 -39t-37 -55z" />
    <glyph glyph-name="Ocircumflex" unicode="&#xd4;" horiz-adv-x="1441" 
d="M1343 733q0 -229 -36 -372q-38 -149 -119 -233q-82 -86 -195 -120q-114 -35 -280 -35t-274 34q-111 35 -189 119q-81 87 -116 233q-36 149 -36 372q0 226 46 374q46 149 137 228q92 80 196 109q110 31 252 31q130 0 223 -17t170 -62q81 -47 125 -128q46 -84 71 -213
q25 -128 25 -320zM1049 729q0 217 -34 325t-101 146q-65 37 -193 37q-114 0 -182 -38q-69 -38 -109 -151q-41 -115 -41 -317q0 -163 21 -268t64 -160q44 -56 100 -75t143 -19q85 0 141 18q52 17 101 72q47 53 68 159q22 110 22 271zM485 1550q-45 0 -86 9q-45 11 -45 40
q0 23 21 46l198 198q53 58 105 58h98q44 0 92 -48l207 -215q17 -19 17 -41q0 -31 -45 -38q-47 -9 -95 -9q-46 0 -92 43l-139 125l-143 -129q-40 -39 -93 -39z" />
    <glyph glyph-name="Otilde" unicode="&#xd5;" horiz-adv-x="1441" 
d="M1343 733q0 -229 -36 -372q-38 -149 -119 -233q-82 -86 -195 -120q-114 -35 -280 -35t-274 34q-111 35 -189 119q-81 87 -116 233q-36 149 -36 372q0 226 46 374q46 149 137 228q92 80 196 109q110 31 252 31q130 0 223 -17t170 -62q81 -47 125 -128q46 -84 71 -213
q25 -128 25 -320zM1049 729q0 217 -34 325t-101 146q-65 37 -193 37q-114 0 -182 -38q-69 -38 -109 -151q-41 -115 -41 -317q0 -163 21 -268t64 -160q44 -56 100 -75t143 -19q85 0 141 18q52 17 101 72q47 53 68 159q22 110 22 271zM465 1548q-34 0 -64 6q-38 10 -38 50
q0 12 12 55q69 190 203 190q63 0 159 -51q67 -37 113 -37q55 0 82 56q22 45 63 45q26 0 54 -7q45 -6 45 -40q0 -21 -15 -72q-61 -182 -198 -182q-61 0 -172 55q-70 35 -107 35q-50 0 -74 -52q-24 -51 -63 -51z" />
    <glyph glyph-name="Odieresis" unicode="&#xd6;" horiz-adv-x="1441" 
d="M1343 733q0 -229 -36 -372q-38 -149 -119 -233q-82 -86 -195 -120q-114 -35 -280 -35t-274 34q-111 35 -189 119q-81 87 -116 233q-36 149 -36 372q0 226 46 374q46 149 137 228q92 80 196 109q110 31 252 31q130 0 223 -17t170 -62q81 -47 125 -128q46 -84 71 -213
q25 -128 25 -320zM1049 729q0 217 -34 325t-101 146q-65 37 -193 37q-114 0 -182 -38q-69 -38 -109 -151q-41 -115 -41 -317q0 -163 21 -268t64 -160q44 -56 100 -75t143 -19q85 0 141 18q52 17 101 72q47 53 68 159q22 110 22 271zM655 1698q0 -135 -125 -135
q-124 0 -124 133q0 135 124 135q125 0 125 -133zM1067 1698q0 -135 -127 -135q-123 0 -123 133q0 135 123 135q61 0 94 -30t33 -103z" />
    <glyph glyph-name="multiply" unicode="&#xd7;" horiz-adv-x="1435" 
d="M1137 324q22 -22 22 -43q0 -26 -22 -48l-45 -45q-24 -24 -45 -24t-43 22l-289 281l-285 -283q-22 -22 -43 -22t-43 22l-45 43q-23 23 -23 45t23 45l287 289l-293 289q-23 23 -23 45t23 45l49 47q21 21 43 21t45 -23l287 -289l295 291q24 21 43 21q22 0 45 -23l43 -45
q20 -20 20 -45t-20 -45l-295 -289z" />
    <glyph glyph-name="Oslash" unicode="&#xd8;" horiz-adv-x="1441" 
d="M223 -49q-15 -21 -30 -21q-16 0 -80 47q-15 12 -15 25q0 15 15 33l98 137q-115 174 -115 559q0 226 46 374q46 149 136 228t195 109q110 31 254 31q254 0 379 -72l82 112q13 19 31 19q12 0 26 -10q66 -45 66 -62q0 -12 -13 -28l-88 -121q129 -162 129 -578
q0 -229 -36 -372q-38 -149 -119 -233q-82 -86 -195 -120q-114 -35 -280 -35q-264 0 -400 97zM1047 729q0 198 -31 313l-541 -745q69 -88 240 -88q85 0 141 18q52 17 101 72q47 53 68 159q22 110 22 271zM387 731q0 -171 25 -287l530 732q-67 61 -223 61q-114 0 -182 -38
q-69 -38 -109 -151q-41 -115 -41 -317z" />
    <glyph glyph-name="Ugrave" unicode="&#xd9;" horiz-adv-x="1433" 
d="M1274 1391v-813q0 -164 -12 -254t-50 -154q-122 -199 -512 -199q-396 0 -495 213q-45 99 -45 389v818q0 57 55 57h180q47 0 47 -57v-879q0 -162 43 -221q57 -82 232 -82q189 0 241 78q46 64 46 221v883q0 57 55 57h166q49 0 49 -57zM690 1581l-297 197q-35 23 -35 53
q0 33 54 39q78 8 157 8q54 0 103 -43l227 -193q29 -27 29 -51q0 -29 -39 -35q-43 -6 -96 -6q-55 0 -103 31z" />
    <glyph glyph-name="Uacute" unicode="&#xda;" horiz-adv-x="1433" 
d="M1274 1391v-813q0 -164 -12 -254t-50 -154q-122 -199 -512 -199q-396 0 -495 213q-45 99 -45 389v818q0 57 55 57h180q47 0 47 -57v-879q0 -162 43 -221q57 -82 232 -82q189 0 241 78q46 64 46 221v883q0 57 55 57h166q49 0 49 -57zM760 1581q-48 -31 -103 -31
q-53 0 -96 6q-41 6 -41 35q0 23 31 51l227 193q49 43 101 43q72 0 157 -8q54 -6 54 -39t-37 -55z" />
    <glyph glyph-name="Ucircumflex" unicode="&#xdb;" horiz-adv-x="1433" 
d="M1274 1391v-813q0 -164 -12 -254t-50 -154q-122 -199 -512 -199q-396 0 -495 213q-45 99 -45 389v818q0 57 55 57h180q47 0 47 -57v-879q0 -162 43 -221q57 -82 232 -82q189 0 241 78q46 64 46 221v883q0 57 55 57h166q49 0 49 -57zM492 1550q-45 0 -86 9q-46 11 -46 40
q0 23 21 46l199 198q53 58 104 58h98q44 0 92 -48l207 -215q17 -19 17 -41q0 -31 -45 -38q-47 -9 -95 -9q-46 0 -92 43l-139 125l-143 -129q-40 -39 -92 -39z" />
    <glyph glyph-name="Udieresis" unicode="&#xdc;" horiz-adv-x="1433" 
d="M1274 1391v-813q0 -164 -12 -254t-50 -154q-122 -199 -512 -199q-396 0 -495 213q-45 99 -45 389v818q0 57 55 57h180q47 0 47 -57v-879q0 -162 43 -221q57 -82 232 -82q189 0 241 78q46 64 46 221v883q0 57 55 57h166q49 0 49 -57zM649 1698q0 -135 -125 -135t-125 133
q0 135 125 135t125 -133zM1061 1698q0 -135 -127 -135q-123 0 -123 133q0 135 123 135q61 0 94 -30t33 -103z" />
    <glyph glyph-name="Yacute" unicode="&#xdd;" horiz-adv-x="1253" 
d="M770 59q0 -29 -16 -45t-41 -16h-172q-56 0 -56 61v541l-450 737q-27 45 -27 68q0 27 27 39q24 8 229 8q49 0 82 -57q198 -328 291 -508q75 144 293 504q34 61 84 61q178 0 207 -10q24 -10 24 -35q0 -23 -24 -66l-451 -733v-549zM690 1571q-48 -31 -102 -31q-52 0 -96 6
q-41 6 -41 35q0 24 30 51l228 193q49 43 100 43q73 0 158 -8q53 -6 53 -39q0 -34 -37 -56z" />
    <glyph glyph-name="Thorn" unicode="&#xde;" horiz-adv-x="1302" 
d="M457 305v-246q0 -28 -17 -45q-16 -16 -41 -16h-172q-53 0 -53 61v1327q0 62 55 62h174q54 0 54 -59v-207h125q295 0 419 -52q205 -82 205 -380q0 -326 -272 -408q-121 -37 -338 -37h-139zM457 528h151q131 0 201 25q109 39 109 182q0 151 -105 191q-51 22 -209 22h-147
v-420z" />
    <glyph glyph-name="germandbls" unicode="&#xdf;" horiz-adv-x="1198" 
d="M424 51q0 -21 -13 -37t-38 -16h-176q-47 0 -47 55v934q0 243 36 324q100 227 467 227q217 0 314 -89q96 -89 96 -265q0 -162 -56 -243q-58 -84 -184 -118q171 -21 242 -108q72 -88 72 -271q0 -252 -127 -354q-57 -48 -167 -76q-109 -28 -229 -28q-72 0 -77 47
q-7 39 -7 110q0 52 45 58q190 18 242 65q45 45 45 189q0 110 -52 155q-54 47 -196 54q-52 5 -75 28q-25 25 -25 92q0 66 21 93q20 26 65 32q95 12 142 62q46 49 46 159q0 99 -39 138q-41 41 -131 41q-134 0 -174 -84q-20 -41 -20 -199v-975z" />
    <glyph glyph-name="agrave" unicode="&#xe0;" horiz-adv-x="1110" 
d="M979 176q0 -67 -25 -98q-28 -32 -71 -47q-60 -21 -186 -40q-121 -18 -226 -18q-223 0 -306 89t-83 245q0 175 115 252q96 66 327 66q97 0 183 -9v52q0 64 -11 94q-24 59 -174 59q-97 0 -205 -18q-80 -12 -88 -12q-35 0 -45 38q-20 79 -20 119q0 47 45 62q152 47 352 47
q259 0 344 -84q74 -72 74 -273v-524zM707 430q-88 8 -148 8q-135 0 -176 -30q-39 -24 -39 -95q0 -64 35 -99q34 -34 125 -34q108 0 166 25q24 11 30 33q7 21 7 69v123zM489 1223l-225 237q-31 36 -31 56q0 32 52 38q70 7 137 7q56 0 92 -48l178 -233q21 -24 21 -49
q0 -31 -41 -39q-40 -6 -94 -6q-52 0 -89 37z" />
    <glyph glyph-name="aacute" unicode="&#xe1;" horiz-adv-x="1110" 
d="M979 176q0 -67 -25 -98q-28 -32 -71 -47q-60 -21 -186 -40q-121 -18 -226 -18q-223 0 -306 89t-83 245q0 175 115 252q96 66 327 66q97 0 183 -9v52q0 64 -11 94q-24 59 -174 59q-97 0 -205 -18q-80 -12 -88 -12q-35 0 -45 38q-20 79 -20 119q0 47 45 62q152 47 352 47
q259 0 344 -84q74 -72 74 -273v-524zM707 430q-88 8 -148 8q-135 0 -176 -30q-39 -24 -39 -95q0 -64 35 -99q34 -34 125 -34q108 0 166 25q24 11 30 33q7 21 7 69v123zM643 1223q-30 -37 -90 -37q-49 0 -90 6t-41 39q0 26 20 49l179 233q36 48 92 48q67 0 137 -7
q51 -6 51 -38q0 -20 -31 -56z" />
    <glyph glyph-name="acircumflex" unicode="&#xe2;" horiz-adv-x="1110" 
d="M979 176q0 -67 -25 -98q-28 -32 -71 -47q-60 -21 -186 -40q-121 -18 -226 -18q-223 0 -306 89t-83 245q0 175 115 252q96 66 327 66q97 0 183 -9v52q0 64 -11 94q-24 59 -174 59q-97 0 -205 -18q-80 -12 -88 -12q-35 0 -45 38q-20 79 -20 119q0 47 45 62q152 47 352 47
q259 0 344 -84q74 -72 74 -273v-524zM707 430q-88 8 -148 8q-135 0 -176 -30q-39 -24 -39 -95q0 -64 35 -99q34 -34 125 -34q108 0 166 25q24 11 30 33q7 21 7 69v123zM356 1180q-40 0 -75 6q-50 8 -50 41q0 20 19 45l174 233q39 54 90 54h92q52 0 86 -46l176 -239
q19 -25 19 -47q0 -35 -47 -41q-39 -6 -80 -6q-43 0 -78 41l-125 151l-121 -151q-35 -41 -80 -41z" />
    <glyph glyph-name="atilde" unicode="&#xe3;" horiz-adv-x="1110" 
d="M979 176q0 -67 -25 -98q-28 -32 -71 -47q-60 -21 -186 -40q-121 -18 -226 -18q-223 0 -306 89t-83 245q0 175 115 252q96 66 327 66q97 0 183 -9v52q0 64 -11 94q-24 59 -174 59q-97 0 -205 -18q-80 -12 -88 -12q-35 0 -45 38q-20 79 -20 119q0 47 45 62q152 47 352 47
q259 0 344 -84q74 -72 74 -273v-524zM707 430q-88 8 -148 8q-135 0 -176 -30q-39 -24 -39 -95q0 -64 35 -99q34 -34 125 -34q108 0 166 25q24 11 30 33q7 21 7 69v123zM299 1196q-41 0 -57 4q-43 7 -43 45q0 17 12 55q44 100 88 147q45 48 107 48q50 0 153 -53
q73 -37 109 -37q44 0 71 55q18 45 64 45q22 0 55 -4q41 -6 41 -43q0 -26 -18 -82q-62 -170 -185 -170q-56 0 -166 54q-66 36 -96 36q-43 0 -67 -49q-27 -51 -68 -51z" />
    <glyph glyph-name="adieresis" unicode="&#xe4;" horiz-adv-x="1110" 
d="M979 176q0 -67 -25 -98q-28 -32 -71 -47q-60 -21 -186 -40q-121 -18 -226 -18q-223 0 -306 89t-83 245q0 175 115 252q96 66 327 66q97 0 183 -9v52q0 64 -11 94q-24 59 -174 59q-97 0 -205 -18q-80 -12 -88 -12q-35 0 -45 38q-20 79 -20 119q0 47 45 62q152 47 352 47
q259 0 344 -84q74 -72 74 -273v-524zM707 430q-88 8 -148 8q-135 0 -176 -30q-39 -24 -39 -95q0 -64 35 -99q34 -34 125 -34q108 0 166 25q24 11 30 33q7 21 7 69v123zM502 1346q0 -136 -125 -136t-125 133q0 136 125 136t125 -133zM893 1346q0 -75 -32 -105
q-33 -31 -95 -31q-123 0 -123 133q0 136 123 136q61 0 94 -30t33 -103z" />
    <glyph glyph-name="aring" unicode="&#xe5;" horiz-adv-x="1110" 
d="M979 176q0 -67 -25 -98q-28 -32 -71 -47q-60 -21 -186 -40q-121 -18 -226 -18q-223 0 -306 89t-83 245q0 175 115 252q96 66 327 66q97 0 183 -9v52q0 64 -11 94q-24 59 -174 59q-97 0 -205 -18q-80 -12 -88 -12q-35 0 -45 38q-20 79 -20 119q0 47 45 62q152 47 352 47
q259 0 344 -84q74 -72 74 -273v-524zM707 430q-88 8 -148 8q-135 0 -176 -30q-39 -24 -39 -95q0 -64 35 -99q34 -34 125 -34q108 0 166 25q24 11 30 33q7 21 7 69v123zM766 1372q0 -97 -56 -147q-57 -51 -151 -51q-90 0 -144 51q-55 52 -55 147q0 97 57 151t148 54
q93 0 147 -54t54 -151zM676 1376q0 123 -115 123q-51 0 -83 -33q-32 -34 -32 -92q0 -56 32 -90q32 -33 85 -33q113 0 113 125z" />
    <glyph glyph-name="ae" unicode="&#xe6;" horiz-adv-x="1685" 
d="M827 92q-130 -119 -372 -119q-373 0 -373 342q0 176 117 248q109 68 342 68q49 0 85 -1t81 -1v45q0 63 -11 88q-22 59 -176 59q-124 0 -221 -20q-59 -10 -74 -10q-33 0 -45 43q-12 57 -12 120q0 43 49 58q151 45 340 45q132 0 213 -28q78 -27 107 -97q43 57 130 91
q86 34 179 34q92 0 165 -17q71 -17 116 -53q48 -39 75 -80q28 -43 43 -111q16 -72 20 -132q5 -70 5 -158q0 -43 -25 -60q-12 -12 -45 -12h-569q2 -137 60 -185t181 -48q145 0 250 24q35 8 56 8q34 0 49 -45q20 -74 20 -108q0 -35 -35 -53q-122 -54 -358 -54q-262 0 -367 119
zM707 434q-39 4 -142 4q-137 0 -184 -35q-37 -28 -37 -86q0 -137 164 -137q63 0 132 18q70 18 97 44q-25 58 -30 192zM973 631h385q2 14 2 37q0 98 -37 147t-141 49q-112 0 -158 -56q-47 -57 -51 -177z" />
    <glyph glyph-name="ccedilla" unicode="&#xe7;" horiz-adv-x="952" 
d="M555 -100q60 -1 100 -20q41 -19 56 -51q17 -35 21 -62q5 -32 5 -74q0 -213 -288 -213q-64 0 -101 8q-49 12 -49 49q0 29 8 64q7 26 20 34q14 9 35 9q25 0 54 -4q24 -2 45 -2q76 0 76 55q0 34 -17 48q-16 13 -55 13h-35q-45 0 -45 41q0 21 12 74l25 117q-168 27 -249 147
q-83 122 -83 365q0 292 116 426q115 133 390 133q140 0 244 -29q37 -12 37 -47q0 -57 -23 -141q-11 -35 -41 -35q-13 0 -36 4t-29 4q-63 12 -144 12q-139 0 -187 -72t-48 -239q0 -172 48 -243q48 -70 175 -70q97 0 170 14q39 10 63 10q33 0 43 -32q23 -74 23 -123
q0 -42 -35 -54q-106 -38 -289 -43z" />
    <glyph glyph-name="egrave" unicode="&#xe8;" horiz-adv-x="1079" 
d="M365 432q2 -138 63 -184q62 -47 190 -47q138 0 230 22q43 10 61 10q35 0 47 -32q23 -64 23 -123q0 -36 -33 -51q-128 -54 -360 -54q-274 0 -388 127q-114 128 -114 410q0 290 121 418q121 129 373 129q114 0 196 -28q80 -27 124 -68t68 -118q22 -72 29 -147q6 -69 6 -184
q0 -53 -22 -68q-17 -12 -47 -12h-567zM369 627h372q2 14 2 39q0 98 -36 141q-37 45 -140 45q-104 0 -150 -55t-48 -170zM502 1223l-226 237q-30 34 -30 56q0 32 51 38q70 7 137 7q56 0 92 -48l179 -233q20 -23 20 -49q0 -31 -41 -39q-41 -6 -94 -6q-51 0 -88 37z" />
    <glyph glyph-name="eacute" unicode="&#xe9;" horiz-adv-x="1079" 
d="M365 432q2 -138 63 -184q62 -47 190 -47q138 0 230 22q43 10 61 10q35 0 47 -32q23 -64 23 -123q0 -36 -33 -51q-128 -54 -360 -54q-274 0 -388 127q-114 128 -114 410q0 290 121 418q121 129 373 129q114 0 196 -28q80 -27 124 -68t68 -118q22 -72 29 -147q6 -69 6 -184
q0 -53 -22 -68q-17 -12 -47 -12h-567zM369 627h372q2 14 2 39q0 98 -36 141q-37 45 -140 45q-104 0 -150 -55t-48 -170zM627 1223q-30 -37 -90 -37q-50 0 -91 6q-40 6 -40 39q0 26 20 49l178 233q36 48 92 48q68 0 138 -7q51 -6 51 -38q0 -20 -31 -56z" />
    <glyph glyph-name="ecircumflex" unicode="&#xea;" horiz-adv-x="1079" 
d="M365 432q2 -138 63 -184q62 -47 190 -47q138 0 230 22q43 10 61 10q35 0 47 -32q23 -64 23 -123q0 -36 -33 -51q-128 -54 -360 -54q-274 0 -388 127q-114 128 -114 410q0 290 121 418q121 129 373 129q114 0 196 -28q80 -27 124 -68t68 -118q22 -72 29 -147q6 -69 6 -184
q0 -53 -22 -68q-17 -12 -47 -12h-567zM369 627h372q2 14 2 39q0 98 -36 141q-37 45 -140 45q-104 0 -150 -55t-48 -170zM367 1180q-43 0 -76 6q-49 7 -49 41q0 21 18 45l174 233q39 54 90 54h92q51 0 86 -46l177 -239q18 -24 18 -47q0 -35 -47 -41q-41 -6 -80 -6
q-43 0 -78 41l-125 151l-121 -151q-35 -41 -79 -41z" />
    <glyph glyph-name="edieresis" unicode="&#xeb;" horiz-adv-x="1079" 
d="M365 432q2 -138 63 -184q62 -47 190 -47q138 0 230 22q43 10 61 10q35 0 47 -32q23 -64 23 -123q0 -36 -33 -51q-128 -54 -360 -54q-274 0 -388 127q-114 128 -114 410q0 290 121 418q121 129 373 129q114 0 196 -28q80 -27 124 -68t68 -118q22 -72 29 -147q6 -69 6 -184
q0 -53 -22 -68q-17 -12 -47 -12h-567zM369 627h372q2 14 2 39q0 98 -36 141q-37 45 -140 45q-104 0 -150 -55t-48 -170zM496 1346q0 -136 -125 -136t-125 133q0 136 125 136t125 -133zM887 1346q0 -75 -32 -105q-33 -31 -95 -31q-123 0 -123 133q0 136 123 136q61 0 94 -30
t33 -103z" />
    <glyph glyph-name="igrave" unicode="&#xec;" horiz-adv-x="557" 
d="M217 1223l-225 237q-31 36 -31 56q0 32 51 38q70 7 138 7q56 0 92 -48l178 -233q20 -23 20 -49q0 -31 -41 -39q-39 -6 -94 -6q-51 0 -88 37zM418 55q0 -57 -53 -57h-170q-52 0 -52 57v916q0 59 54 59h172q49 0 49 -57v-918z" />
    <glyph glyph-name="iacute" unicode="&#xed;" horiz-adv-x="557" 
d="M365 1223q-30 -37 -91 -37q-50 0 -90 6q-41 6 -41 39q0 25 21 49l178 233q36 48 92 48q67 0 137 -7q52 -6 52 -38q0 -20 -31 -56zM418 55q0 -57 -53 -57h-170q-52 0 -52 57v916q0 59 54 59h172q49 0 49 -57v-918z" />
    <glyph glyph-name="icircumflex" unicode="&#xee;" horiz-adv-x="557" 
d="M418 55q0 -57 -53 -57h-170q-52 0 -52 57v916q0 59 54 59h172q49 0 49 -57v-918zM78 1180q-42 0 -76 6q-49 7 -49 41q0 21 18 45l174 233q39 54 91 54h92q52 0 86 -46l176 -239q18 -24 18 -47q0 -35 -47 -41q-39 -6 -80 -6q-43 0 -78 41l-124 151l-121 -151
q-35 -41 -80 -41z" />
    <glyph glyph-name="idieresis" unicode="&#xef;" horiz-adv-x="557" 
d="M211 1346q0 -136 -125 -136t-125 133q0 136 125 136t125 -133zM602 1346q0 -75 -32 -105q-33 -31 -95 -31q-123 0 -123 133q0 136 123 136q61 0 94 -30t33 -103zM418 55q0 -57 -53 -57h-170q-52 0 -52 57v916q0 59 54 59h172q49 0 49 -57v-918z" />
    <glyph glyph-name="eth" unicode="&#xf0;" horiz-adv-x="1142" 
d="M995 1393l-94 -64q97 -118 131 -308q35 -195 35 -495q0 -315 -116 -434t-378 -119q-127 0 -212 24q-86 24 -148 83q-63 60 -93 167q-30 108 -30 269q0 151 35 258q34 104 101 159q68 55 146 76q79 21 185 21q63 0 132 -22q70 -22 97 -68q-28 156 -102 248l-113 -74
q-29 -20 -49 -20q-16 0 -37 28q-43 62 -43 82t29 41l74 47q-77 36 -199 47q-43 4 -43 41q0 54 14 107q10 43 56 43q29 0 59 -2q204 -15 336 -88l131 86q29 18 43 18q20 0 35 -22q47 -67 47 -88q0 -23 -29 -41zM791 508q0 181 -43 240t-164 59q-112 0 -164 -64
q-51 -63 -51 -227q0 -195 45 -255t166 -60q81 0 120 20q43 22 66 88q25 70 25 199z" />
    <glyph glyph-name="ntilde" unicode="&#xf1;" horiz-adv-x="1206" 
d="M416 55q0 -57 -54 -57h-169q-52 0 -52 57v787q0 98 74 127q87 37 245 62q153 24 283 24q138 0 208 -32q69 -32 93 -97q21 -60 21 -201v-670q0 -57 -51 -57h-172q-51 0 -51 57v609q0 69 -11 100q-16 59 -133 59q-119 0 -178 -26q-28 -10 -39 -23q-14 -14 -14 -51v-668z
M362 1196q-41 0 -57 4q-43 7 -43 45q0 17 12 55q44 100 88 147q45 48 107 48q51 0 154 -53q73 -37 108 -37q45 0 72 55q18 45 63 45q23 0 56 -4q41 -6 41 -43q0 -23 -19 -82q-62 -170 -184 -170q-56 0 -166 54q-66 36 -96 36q-44 0 -68 -49q-27 -51 -68 -51z" />
    <glyph glyph-name="ograve" unicode="&#xf2;" horiz-adv-x="1155" 
d="M1065 522q0 -314 -115 -432q-114 -117 -379 -117q-255 0 -368 115t-113 428q0 162 36 271q36 111 106 167q71 57 154 80q84 23 200 23q129 0 212 -20q82 -20 146 -75q66 -57 93 -163q28 -110 28 -277zM791 512q0 190 -42 252q-42 61 -167 61q-114 0 -164 -63
q-49 -62 -49 -244q0 -191 44 -255q43 -62 162 -62q121 0 168 60q48 62 48 251zM518 1223l-225 237q-31 36 -31 56q0 32 51 38q67 7 138 7q56 0 92 -48l178 -233q20 -23 20 -49q0 -31 -41 -39q-39 -6 -94 -6q-51 0 -88 37z" />
    <glyph glyph-name="oacute" unicode="&#xf3;" horiz-adv-x="1155" 
d="M1065 522q0 -314 -115 -432q-114 -117 -379 -117q-255 0 -368 115t-113 428q0 162 36 271q36 111 106 167q71 57 154 80q84 23 200 23q129 0 212 -20q82 -20 146 -75q66 -57 93 -163q28 -110 28 -277zM791 512q0 190 -42 252q-42 61 -167 61q-114 0 -164 -63
q-49 -62 -49 -244q0 -191 44 -255q43 -62 162 -62q121 0 168 60q48 62 48 251zM651 1223q-30 -37 -90 -37q-49 0 -90 6t-41 39q0 25 21 49l178 233q36 48 92 48q67 0 137 -7q51 -6 51 -38q0 -22 -30 -56z" />
    <glyph glyph-name="ocircumflex" unicode="&#xf4;" horiz-adv-x="1155" 
d="M1065 522q0 -314 -115 -432q-114 -117 -379 -117q-255 0 -368 115t-113 428q0 162 36 271q36 111 106 167q71 57 154 80q84 23 200 23q129 0 212 -20q82 -20 146 -75q66 -57 93 -163q28 -110 28 -277zM791 512q0 190 -42 252q-42 61 -167 61q-114 0 -164 -63
q-49 -62 -49 -244q0 -191 44 -255q43 -62 162 -62q121 0 168 60q48 62 48 251zM383 1180q-43 0 -76 6q-49 7 -49 41q0 21 18 45l175 233q39 54 90 54h92q51 0 86 -46l176 -239q18 -24 18 -47q0 -35 -47 -41q-39 -6 -80 -6q-42 0 -77 41l-125 151l-121 -151q-35 -41 -80 -41z
" />
    <glyph glyph-name="otilde" unicode="&#xf5;" horiz-adv-x="1155" 
d="M1065 522q0 -314 -115 -432q-114 -117 -379 -117q-255 0 -368 115t-113 428q0 162 36 271q36 111 106 167q71 57 154 80q84 23 200 23q129 0 212 -20q82 -20 146 -75q66 -57 93 -163q28 -110 28 -277zM791 512q0 190 -42 252q-42 61 -167 61q-114 0 -164 -63
q-49 -62 -49 -244q0 -191 44 -255q43 -62 162 -62q121 0 168 60q48 62 48 251zM332 1196q-42 0 -58 4q-43 7 -43 45q0 14 13 55q44 100 88 147q45 48 106 48q51 0 154 -53q73 -37 108 -37q45 0 72 55q18 45 64 45q22 0 55 -4q41 -6 41 -43q0 -23 -19 -82q-62 -170 -184 -170
q-56 0 -166 54q-66 36 -96 36q-44 0 -68 -49q-27 -51 -67 -51z" />
    <glyph glyph-name="odieresis" unicode="&#xf6;" horiz-adv-x="1155" 
d="M1065 522q0 -314 -115 -432q-114 -117 -379 -117q-255 0 -368 115t-113 428q0 162 36 271q36 111 106 167q71 57 154 80q84 23 200 23q129 0 212 -20q82 -20 146 -75q66 -57 93 -163q28 -110 28 -277zM791 512q0 190 -42 252q-42 61 -167 61q-114 0 -164 -63
q-49 -62 -49 -244q0 -191 44 -255q43 -62 162 -62q121 0 168 60q48 62 48 251zM514 1346q0 -136 -125 -136t-125 133q0 136 125 136t125 -133zM905 1346q0 -75 -32 -105q-33 -31 -95 -31q-123 0 -123 133q0 136 123 136q61 0 94 -30t33 -103z" />
    <glyph glyph-name="divide" unicode="&#xf7;" horiz-adv-x="1435" 
d="M717 838q-117 0 -117 125q0 124 123 124q115 0 115 -124q0 -125 -121 -125zM1198 510h-958q-56 0 -56 65v60q0 65 56 65h958q51 0 51 -65v-60q0 -65 -51 -65zM717 113q-117 0 -117 127q0 64 34 94q36 31 89 31q115 0 115 -125q0 -127 -121 -127z" />
    <glyph glyph-name="oslash" unicode="&#xf8;" horiz-adv-x="1155" 
d="M217 -74q-16 -16 -27 -16q-15 0 -71 41q-15 12 -15 22q0 7 15 31l69 96q-104 123 -104 416q0 163 37 271q38 112 108 167q73 58 156 80q86 23 201 23q170 0 270 -39l76 106q12 17 26 17q11 0 27 -11q55 -37 55 -55q0 -15 -8 -26l-71 -101q110 -116 110 -426
q0 -315 -118 -432q-119 -117 -382 -117q-176 0 -284 50zM805 512q0 123 -19 199l-354 -488q43 -30 143 -30q129 0 179 62q51 63 51 257zM352 518q0 -111 15 -174l340 471q-49 19 -125 19q-125 0 -178 -66q-52 -65 -52 -250z" />
    <glyph glyph-name="ugrave" unicode="&#xf9;" horiz-adv-x="1206" 
d="M141 346v627q0 57 52 57h172q51 0 51 -57v-590q0 -91 14 -119q22 -59 145 -59q111 0 162 16q25 7 39 21q15 15 15 55v676q0 57 53 57h170q51 0 51 -57v-805q0 -98 -74 -131q-152 -64 -459 -64q-308 0 -364 140q-27 67 -27 233zM541 1227l-226 237q-30 34 -30 56
q0 33 51 39q60 6 137 6q57 0 92 -47l178 -234q21 -24 21 -49q0 -31 -41 -39q-41 -6 -94 -6q-51 0 -88 37z" />
    <glyph glyph-name="uacute" unicode="&#xfa;" horiz-adv-x="1206" 
d="M141 346v627q0 57 52 57h172q51 0 51 -57v-590q0 -91 14 -119q22 -59 145 -59q111 0 162 16q25 7 39 21q15 15 15 55v676q0 57 53 57h170q51 0 51 -57v-805q0 -98 -74 -131q-152 -64 -459 -64q-308 0 -364 140q-27 67 -27 233zM676 1223q-30 -37 -90 -37q-50 0 -90 6
q-41 6 -41 39q0 26 20 49l178 233q36 48 92 48q68 0 138 -7q51 -6 51 -38q0 -20 -31 -56z" />
    <glyph glyph-name="ucircumflex" unicode="&#xfb;" horiz-adv-x="1206" 
d="M141 346v627q0 57 52 57h172q51 0 51 -57v-590q0 -91 14 -119q22 -59 145 -59q111 0 162 16q25 7 39 21q15 15 15 55v676q0 57 53 57h170q51 0 51 -57v-805q0 -98 -74 -131q-152 -64 -459 -64q-308 0 -364 140q-27 67 -27 233zM399 1180q-42 0 -75 6q-50 8 -50 41
q0 20 19 45l174 233q39 54 90 54h92q51 0 86 -46l176 -239q19 -25 19 -47q0 -35 -47 -41q-41 -6 -80 -6q-43 0 -78 41l-125 151l-121 -151q-35 -41 -80 -41z" />
    <glyph glyph-name="udieresis" unicode="&#xfc;" horiz-adv-x="1206" 
d="M141 346v627q0 57 52 57h172q51 0 51 -57v-590q0 -91 14 -119q22 -59 145 -59q111 0 162 16q25 7 39 21q15 15 15 55v676q0 57 53 57h170q51 0 51 -57v-805q0 -98 -74 -131q-152 -64 -459 -64q-308 0 -364 140q-27 67 -27 233zM532 1346q0 -136 -124 -136
q-125 0 -125 133q0 136 125 136q124 0 124 -133zM924 1346q0 -75 -32 -105q-33 -31 -95 -31q-123 0 -123 133q0 136 123 136q61 0 94 -30t33 -103z" />
    <glyph glyph-name="yacute" unicode="&#xfd;" horiz-adv-x="1206" 
d="M141 305v668q0 57 52 57h172q51 0 51 -57v-606q0 -72 10 -101q21 -59 139 -59q103 0 172 26q28 10 39 23q15 15 15 51v666q0 57 53 57h170q51 0 51 -57v-897q0 -162 -23 -256q-44 -162 -214 -231q-169 -68 -504 -68q-37 0 -51 10q-15 10 -19 37q-8 74 -8 115q0 65 57 67
q248 7 346 38q97 30 119 91q16 48 16 119v35q-112 -60 -315 -60q-255 0 -305 131q-23 69 -23 201zM674 1223q-30 -37 -90 -37q-51 0 -90 6q-41 6 -41 39q0 26 20 49l178 233q36 48 92 48q71 0 138 -7q51 -6 51 -38q0 -20 -31 -56z" />
    <glyph glyph-name="thorn" unicode="&#xfe;" horiz-adv-x="1187" 
d="M418 -438q0 -62 -64 -62h-155q-27 0 -42 13q-14 12 -14 49v1904q0 36 13 52q11 14 49 14h151q39 0 51 -12q11 -11 11 -50v-512q95 95 307 95q197 0 286 -117q89 -118 89 -416q0 -162 -29 -270q-29 -106 -93 -165q-65 -59 -152 -80t-222 -21q-131 0 -186 32v-454zM420 287
q0 -52 29 -64q41 -18 122 -18q155 0 204 67q50 68 50 265q0 163 -42 228q-42 64 -156 64q-111 0 -172 -30q-23 -11 -29 -27q-6 -12 -6 -49v-436z" />
    <glyph glyph-name="ydieresis" unicode="&#xff;" horiz-adv-x="1206" 
d="M141 305v668q0 57 52 57h172q51 0 51 -57v-606q0 -72 10 -101q21 -59 139 -59q103 0 172 26q28 10 39 23q15 15 15 51v666q0 57 53 57h170q51 0 51 -57v-897q0 -162 -23 -256q-44 -162 -214 -231q-169 -68 -504 -68q-37 0 -51 10q-15 10 -19 37q-8 74 -8 115q0 65 57 67
q248 7 346 38q97 30 119 91q16 48 16 119v35q-112 -60 -315 -60q-255 0 -305 131q-23 69 -23 201zM541 1346q0 -136 -125 -136t-125 133q0 136 125 136t125 -133zM932 1346q0 -75 -32 -105q-33 -31 -95 -31q-123 0 -123 133q0 136 123 136q61 0 94 -30t33 -103z" />
    <glyph glyph-name="Amacron" unicode="&#x100;" horiz-adv-x="1331" 
d="M416 373l-101 -310q-12 -40 -26 -54q-15 -15 -43 -15q-160 0 -203 10q-29 8 -29 41q0 27 15 66l401 1167q34 99 76 138q41 38 143 38h66q94 0 129 -35q34 -34 67 -135l394 -1169q14 -36 14 -68q0 -31 -27 -43q-23 -10 -202 -10q-29 0 -44 15q-16 16 -28 54l-105 310h-497
zM485 612h365q-140 447 -180 596q-37 -139 -185 -596zM932 1591h-526q-60 0 -60 56v92q0 53 62 53h522q59 0 59 -55v-95q0 -27 -13 -39q-14 -12 -44 -12z" />
    <glyph glyph-name="amacron" unicode="&#x101;" horiz-adv-x="1110" 
d="M979 176q0 -67 -25 -98q-28 -32 -71 -47q-60 -21 -186 -40q-121 -18 -226 -18q-223 0 -306 89t-83 245q0 175 115 252q96 66 327 66q97 0 183 -9v52q0 64 -11 94q-24 59 -174 59q-97 0 -205 -18q-80 -12 -88 -12q-35 0 -45 38q-20 79 -20 119q0 47 45 62q152 47 352 47
q259 0 344 -84q74 -72 74 -273v-524zM707 430q-88 8 -148 8q-135 0 -176 -30q-39 -24 -39 -95q0 -64 35 -99q34 -34 125 -34q108 0 166 25q24 11 30 33q7 21 7 69v123zM811 1223h-496q-57 0 -57 55v90q0 53 57 53h494q57 0 57 -55v-94q0 -29 -13 -39t-42 -10z" />
    <glyph glyph-name="Abreve" unicode="&#x102;" horiz-adv-x="1331" 
d="M416 373l-101 -310q-12 -40 -26 -54q-15 -15 -43 -15q-160 0 -203 10q-29 8 -29 41q0 27 15 66l401 1167q34 99 76 138q41 38 143 38h66q94 0 129 -35q34 -34 67 -135l394 -1169q14 -36 14 -68q0 -31 -27 -43q-23 -10 -202 -10q-29 0 -44 15q-16 16 -28 54l-105 310h-497
zM485 612h365q-140 447 -180 596q-37 -139 -185 -596zM662 1544q-273 0 -314 199q-8 43 -8 72q0 49 49 59q30 6 68 6q44 0 55 -47q21 -111 154 -111q78 0 113 27q33 26 50 82q7 28 22 39q13 10 40 10q35 0 65 -6q39 -6 39 -51t-12 -82q-33 -99 -103 -148t-218 -49z" />
    <glyph glyph-name="abreve" unicode="&#x103;" horiz-adv-x="1110" 
d="M979 176q0 -67 -25 -98q-28 -32 -71 -47q-60 -21 -186 -40q-121 -18 -226 -18q-223 0 -306 89t-83 245q0 175 115 252q96 66 327 66q97 0 183 -9v52q0 64 -11 94q-24 59 -174 59q-97 0 -205 -18q-80 -12 -88 -12q-35 0 -45 38q-20 79 -20 119q0 47 45 62q152 47 352 47
q259 0 344 -84q74 -72 74 -273v-524zM707 430q-88 8 -148 8q-135 0 -176 -30q-39 -24 -39 -95q0 -64 35 -99q34 -34 125 -34q108 0 166 25q24 11 30 33q7 21 7 69v123zM778 1524q34 0 62 -6q39 -8 39 -52t-15 -90q-28 -99 -98 -152t-209 -53q-257 0 -297 205q-10 54 -10 80
q0 53 49 60q35 8 61 8q23 0 36 -11q12 -11 18 -40q23 -125 149 -125q75 0 107 31q33 31 49 91q15 54 59 54z" />
    <glyph glyph-name="Aogonek" unicode="&#x104;" horiz-adv-x="1331" 
d="M416 373l-101 -310q-12 -40 -26 -54q-15 -15 -43 -15q-160 0 -203 10q-29 8 -29 41q0 27 15 66l401 1167q34 99 76 138q41 38 143 38h66q94 0 129 -35q34 -34 67 -135l394 -1169q14 -36 14 -68q0 -31 -27 -43q-22 -8 -73 -8q-108 -79 -150 -130q-43 -52 -43 -128
q0 -98 94 -98q21 0 57 3t40 3q19 0 29 -10q11 -11 16 -35q6 -27 6 -66q0 -38 -51 -53q-50 -12 -136 -12q-254 0 -254 229q0 116 59 184t165 119q-17 12 -33 61l-105 310h-497zM485 612h365q-140 447 -180 596q-37 -139 -185 -596z" />
    <glyph glyph-name="aogonek" unicode="&#x105;" horiz-adv-x="1110" 
d="M979 176q0 -67 -25 -98q-22 -27 -51 -39q-110 -81 -161 -142q-52 -62 -52 -143q0 -96 90 -96q32 0 54 1t36 1q22 0 33 -8q10 -7 15 -33q6 -41 6 -63q0 -40 -56 -52q-43 -10 -125 -10q-131 0 -189 55t-58 164q0 167 155 273q-99 -13 -180 -13q-223 0 -306 89t-83 245
q0 175 115 252q96 66 327 66q97 0 183 -9v52q0 64 -11 94q-24 59 -174 59q-97 0 -205 -18q-80 -12 -88 -12q-35 0 -45 38q-20 79 -20 119q0 47 45 62q152 47 352 47q259 0 344 -84q74 -72 74 -273v-524zM707 430q-88 8 -148 8q-135 0 -176 -30q-39 -24 -39 -95q0 -64 35 -99
q34 -34 125 -34q108 0 166 25q24 11 30 33q7 21 7 69v123z" />
    <glyph glyph-name="Cacute" unicode="&#x106;" horiz-adv-x="1210" 
d="M389 731q0 -279 78 -401q78 -121 276 -121q131 0 271 33q44 12 67 12q28 0 39 -29q31 -87 31 -135q0 -37 -49 -55q-175 -62 -432 -62q-284 0 -428 163q-144 164 -144 564q0 414 141 593q142 180 486 180q226 0 344 -31q51 -12 51 -53q0 -76 -30 -152q-8 -27 -41 -27
q-21 0 -70 11q-86 16 -223 16q-211 0 -289 -114t-78 -392zM772 1581q-48 -31 -102 -31t-97 6q-41 6 -41 35q0 23 31 51l228 193q49 43 100 43q73 0 158 -8q53 -6 53 -39t-37 -55z" />
    <glyph glyph-name="cacute" unicode="&#x107;" horiz-adv-x="952" 
d="M369 514q0 -172 48 -243q48 -70 175 -70q97 0 170 14q39 10 63 10q33 0 43 -32q23 -74 23 -123q0 -42 -35 -54q-113 -43 -297 -43q-238 0 -353 118q-116 119 -116 407q0 292 116 426q115 133 390 133q140 0 244 -29q37 -12 37 -47q0 -57 -23 -141q-11 -35 -41 -35
q-13 0 -36 4t-29 4q-63 12 -144 12q-139 0 -187 -72t-48 -239zM631 1223q-30 -37 -90 -37q-49 0 -90 6t-41 39q0 26 20 49l178 233q36 48 92 48q68 0 138 -7q51 -6 51 -38q0 -20 -31 -56z" />
    <glyph glyph-name="Ccircumflex" unicode="&#x108;" horiz-adv-x="1210" 
d="M389 731q0 -279 78 -401q78 -121 276 -121q131 0 271 33q44 12 67 12q28 0 39 -29q31 -87 31 -135q0 -37 -49 -55q-175 -62 -432 -62q-284 0 -428 163q-144 164 -144 564q0 414 141 593q142 180 486 180q226 0 344 -31q51 -12 51 -53q0 -76 -30 -152q-8 -27 -41 -27
q-21 0 -70 11q-86 16 -223 16q-211 0 -289 -114t-78 -392zM485 1550q-45 0 -86 9q-45 11 -45 40q0 23 21 46l198 198q53 58 105 58h98q44 0 92 -48l207 -215q17 -19 17 -41q0 -31 -45 -38q-47 -9 -95 -9q-46 0 -92 43l-139 125l-143 -129q-40 -39 -93 -39z" />
    <glyph glyph-name="ccircumflex" unicode="&#x109;" horiz-adv-x="952" 
d="M369 514q0 -172 48 -243q48 -70 175 -70q97 0 170 14q39 10 63 10q33 0 43 -32q23 -74 23 -123q0 -42 -35 -54q-113 -43 -297 -43q-238 0 -353 118q-116 119 -116 407q0 292 116 426q115 133 390 133q140 0 244 -29q37 -12 37 -47q0 -57 -23 -141q-11 -35 -41 -35
q-13 0 -36 4t-29 4q-63 12 -144 12q-139 0 -187 -72t-48 -239zM360 1180q-40 0 -75 6q-49 7 -49 41q0 21 18 45l174 233q39 54 90 54h92q52 0 86 -46l176 -239q19 -25 19 -47q0 -35 -47 -41q-41 -6 -80 -6q-43 0 -78 41l-125 151l-121 -151q-35 -41 -80 -41z" />
    <glyph glyph-name="Cdotaccent" unicode="&#x10a;" horiz-adv-x="1210" 
d="M389 731q0 -279 78 -401q78 -121 276 -121q131 0 271 33q44 12 67 12q28 0 39 -29q31 -87 31 -135q0 -37 -49 -55q-175 -62 -432 -62q-284 0 -428 163q-144 164 -144 564q0 414 141 593q142 180 486 180q226 0 344 -31q51 -12 51 -53q0 -76 -30 -152q-8 -27 -41 -27
q-21 0 -70 11q-86 16 -223 16q-211 0 -289 -114t-78 -392zM844 1698q0 -135 -125 -135q-127 0 -127 133q0 135 127 135q125 0 125 -133z" />
    <glyph glyph-name="cdotaccent" unicode="&#x10b;" horiz-adv-x="952" 
d="M369 514q0 -172 48 -243q48 -70 175 -70q97 0 170 14q39 10 63 10q33 0 43 -32q23 -74 23 -123q0 -42 -35 -54q-113 -43 -297 -43q-238 0 -353 118q-116 119 -116 407q0 292 116 426q115 133 390 133q140 0 244 -29q37 -12 37 -47q0 -57 -23 -141q-11 -35 -41 -35
q-13 0 -36 4t-29 4q-63 12 -144 12q-139 0 -187 -72t-48 -239zM686 1346q0 -136 -125 -136q-127 0 -127 133q0 136 127 136q125 0 125 -133z" />
    <glyph glyph-name="Ccaron" unicode="&#x10c;" horiz-adv-x="1210" 
d="M389 731q0 -279 78 -401q78 -121 276 -121q131 0 271 33q44 12 67 12q28 0 39 -29q31 -87 31 -135q0 -37 -49 -55q-175 -62 -432 -62q-284 0 -428 163q-144 164 -144 564q0 414 141 593q142 180 486 180q226 0 344 -31q51 -12 51 -53q0 -76 -30 -152q-8 -27 -41 -27
q-21 0 -70 11q-86 16 -223 16q-211 0 -289 -114t-78 -392zM948 1907q47 0 88 -9q45 -6 45 -40q0 -24 -22 -46l-197 -200q-56 -56 -104 -56h-99q-46 0 -92 46l-207 215q-16 17 -16 43q0 30 45 38q47 9 94 9q43 0 92 -45l140 -125l143 129q47 41 90 41z" />
    <glyph glyph-name="ccaron" unicode="&#x10d;" horiz-adv-x="952" 
d="M369 514q0 -172 48 -243q48 -70 175 -70q97 0 170 14q39 10 63 10q33 0 43 -32q23 -74 23 -123q0 -42 -35 -54q-113 -43 -297 -43q-238 0 -353 118q-116 119 -116 407q0 292 116 426q115 133 390 133q140 0 244 -29q37 -12 37 -47q0 -57 -23 -141q-11 -35 -41 -35
q-13 0 -36 4t-29 4q-63 12 -144 12q-139 0 -187 -72t-48 -239zM760 1565q43 0 76 -6q49 -6 49 -41q0 -18 -19 -43l-174 -236q-39 -51 -90 -51h-92q-32 0 -50 9t-36 36l-176 240q-19 25 -19 45q0 35 47 41q39 6 80 6q45 0 78 -41l125 -150l121 150q35 41 80 41z" />
    <glyph glyph-name="Dcaron" unicode="&#x10e;" horiz-adv-x="1439" 
d="M569 0h-182q-111 0 -162 51t-51 166v1006q0 223 217 223h203q256 0 387 -39q360 -105 360 -668q0 -284 -80 -448q-81 -166 -286 -242q-129 -49 -406 -49zM457 326q0 -80 75 -80h121q131 0 209 39q107 50 147 155t40 297q0 185 -39 284t-140 144q-78 37 -231 37h-117
q-65 0 -65 -76v-800zM932 1907q47 0 88 -9q45 -6 45 -40q0 -23 -23 -46l-196 -200q-56 -56 -105 -56h-98q-46 0 -92 46l-207 215q-16 17 -16 43q0 30 45 38q47 9 94 9q43 0 92 -45l139 -125l144 129q47 41 90 41z" />
    <glyph glyph-name="dcaron" unicode="&#x10f;" horiz-adv-x="1187" 
d="M1047 168q0 -48 -9 -70q-16 -37 -73 -61q-61 -27 -183 -45q-128 -19 -231 -19q-247 0 -354 112t-107 409q0 320 119 442q118 121 385 121q124 0 180 -27v440q0 62 62 62h157q29 0 41 -12q13 -13 13 -50v-1302zM774 301v444q0 49 -31 64q-33 16 -125 16q-150 0 -200 -69
q-49 -68 -49 -264q0 -161 44 -228q43 -65 156 -65q115 0 168 24q20 7 31 29q6 18 6 49zM1288 1532h68q67 0 67 -76q0 -219 -127 -358q-33 -41 -67 -41q-30 0 -60 18q-32 17 -32 49q0 25 14 52q56 101 57 280q0 76 80 76z" />
    <glyph glyph-name="Dcroat" unicode="&#x110;" horiz-adv-x="1439" 
d="M569 0h-182q-111 0 -162 51t-51 166v422h-90q-55 0 -55 51v113q0 51 57 51h88v369q0 223 217 223h203q256 0 387 -39q360 -105 360 -668q0 -284 -80 -448q-81 -166 -286 -242q-129 -49 -406 -49zM457 326q0 -80 75 -80h121q131 0 209 39q107 50 147 155t40 297
q0 185 -39 284t-140 144q-78 37 -231 37h-117q-65 0 -65 -76v-272h262q57 0 57 -51v-117q0 -47 -55 -47h-264v-313z" />
    <glyph glyph-name="dcroat" unicode="&#x111;" horiz-adv-x="1187" 
d="M1047 168q0 -48 -9 -70q-16 -37 -73 -61q-61 -27 -183 -45q-128 -19 -231 -19q-247 0 -354 112t-107 409q0 320 119 442q118 121 385 121q124 0 180 -27v144h-186q-53 0 -53 53v86q0 55 55 55h184v102q0 62 62 62h157q29 0 41 -12q13 -13 13 -50v-102h71q56 0 56 -55v-90
q0 -49 -54 -49h-73v-1006zM774 301v444q0 49 -31 64q-33 16 -125 16q-150 0 -200 -69q-49 -68 -49 -264q0 -161 44 -228q43 -65 156 -65q115 0 168 24q20 7 31 29q6 18 6 49z" />
    <glyph glyph-name="Emacron" unicode="&#x112;" horiz-adv-x="1157" 
d="M1042 0h-649q-110 0 -165 50q-54 50 -54 169v1002q0 225 219 225h615q57 0 57 -55v-144q0 -47 -57 -47h-486q-65 0 -65 -76v-252h499q58 0 58 -55v-143q0 -49 -58 -49h-499v-299q0 -45 17 -62q18 -18 61 -18h507q58 0 58 -56v-141q0 -49 -58 -49zM903 1591h-526
q-60 0 -60 56v92q0 53 62 53h522q60 0 60 -55v-95q0 -27 -14 -39q-13 -12 -44 -12z" />
    <glyph glyph-name="emacron" unicode="&#x113;" horiz-adv-x="1079" 
d="M365 432q2 -138 63 -184q62 -47 190 -47q138 0 230 22q43 10 61 10q35 0 47 -32q23 -64 23 -123q0 -36 -33 -51q-128 -54 -360 -54q-274 0 -388 127q-114 128 -114 410q0 290 121 418q121 129 373 129q114 0 196 -28q80 -27 124 -68t68 -118q22 -72 29 -147q6 -69 6 -184
q0 -53 -22 -68q-17 -12 -47 -12h-567zM369 627h372q2 14 2 39q0 98 -36 141q-37 45 -140 45q-104 0 -150 -55t-48 -170zM819 1223h-495q-58 0 -58 55v90q0 53 58 53h493q57 0 57 -55v-94q0 -29 -13 -39t-42 -10z" />
    <glyph glyph-name="Ebreve" unicode="&#x114;" horiz-adv-x="1157" 
d="M1042 0h-649q-110 0 -165 50q-54 50 -54 169v1002q0 225 219 225h615q57 0 57 -55v-144q0 -47 -57 -47h-486q-65 0 -65 -76v-252h499q58 0 58 -55v-143q0 -49 -58 -49h-499v-299q0 -45 17 -62q18 -18 61 -18h507q58 0 58 -56v-141q0 -49 -58 -49zM641 1544
q-272 0 -313 199q-9 49 -9 72q0 48 50 59q30 6 67 6q45 0 56 -47q21 -111 153 -111q79 0 114 27q33 26 50 82q7 29 21 39q13 10 40 10q36 0 66 -6q39 -6 39 -51t-12 -82q-33 -98 -104 -148q-70 -49 -218 -49z" />
    <glyph glyph-name="ebreve" unicode="&#x115;" horiz-adv-x="1079" 
d="M365 432q2 -138 63 -184q62 -47 190 -47q138 0 230 22q43 10 61 10q35 0 47 -32q23 -64 23 -123q0 -36 -33 -51q-128 -54 -360 -54q-274 0 -388 127q-114 128 -114 410q0 290 121 418q121 129 373 129q114 0 196 -28q80 -27 124 -68t68 -118q22 -72 29 -147q6 -69 6 -184
q0 -53 -22 -68q-17 -12 -47 -12h-567zM369 627h372q2 14 2 39q0 98 -36 141q-37 45 -140 45q-104 0 -150 -55t-48 -170zM786 1524q34 0 62 -6q39 -8 39 -52t-15 -90q-28 -99 -98 -152t-209 -53q-257 0 -297 205q-10 54 -10 80q0 53 49 60q35 8 62 8q22 0 35 -11
q12 -11 18 -40q23 -125 149 -125q75 0 107 31q33 31 49 91q15 54 59 54z" />
    <glyph glyph-name="Edotaccent" unicode="&#x116;" horiz-adv-x="1157" 
d="M1042 0h-649q-110 0 -165 50q-54 50 -54 169v1002q0 225 219 225h615q57 0 57 -55v-144q0 -47 -57 -47h-486q-65 0 -65 -76v-252h499q58 0 58 -55v-143q0 -49 -58 -49h-499v-299q0 -45 17 -62q18 -18 61 -18h507q58 0 58 -56v-141q0 -49 -58 -49zM770 1698
q0 -135 -125 -135q-127 0 -127 133q0 135 127 135q125 0 125 -133z" />
    <glyph glyph-name="edotaccent" unicode="&#x117;" horiz-adv-x="1079" 
d="M365 432q2 -138 63 -184q62 -47 190 -47q138 0 230 22q43 10 61 10q35 0 47 -32q23 -64 23 -123q0 -36 -33 -51q-128 -54 -360 -54q-274 0 -388 127q-114 128 -114 410q0 290 121 418q121 129 373 129q114 0 196 -28q80 -27 124 -68t68 -118q22 -72 29 -147q6 -69 6 -184
q0 -53 -22 -68q-17 -12 -47 -12h-567zM369 627h372q2 14 2 39q0 98 -36 141q-37 45 -140 45q-104 0 -150 -55t-48 -170zM698 1346q0 -136 -125 -136q-127 0 -127 133q0 136 127 136q125 0 125 -133z" />
    <glyph glyph-name="Eogonek" unicode="&#x118;" horiz-adv-x="1157" 
d="M1042 0h-28q-117 -86 -157 -134q-44 -53 -44 -128q0 -98 94 -98q21 0 57 3t40 3q19 0 29 -10q11 -11 16 -35q6 -27 6 -66q0 -38 -51 -53q-50 -12 -136 -12q-254 0 -254 229q0 113 58 182q58 68 159 119h-438q-110 0 -165 50q-54 50 -54 169v1002q0 225 219 225h615
q57 0 57 -55v-144q0 -47 -57 -47h-486q-65 0 -65 -76v-252h499q58 0 58 -55v-143q0 -49 -58 -49h-499v-299q0 -45 17 -62q18 -18 61 -18h507q58 0 58 -56v-141q0 -49 -58 -49z" />
    <glyph glyph-name="eogonek" unicode="&#x119;" horiz-adv-x="1079" 
d="M365 432q2 -138 63 -184q62 -47 190 -47q138 0 230 22q43 10 61 10q35 0 47 -32q23 -64 23 -123q0 -36 -33 -51q-43 -19 -123 -35q-97 -71 -140 -121q-42 -49 -42 -117q0 -96 90 -96q31 0 53 1t37 1q22 0 33 -8q9 -6 14 -33q6 -41 6 -63q0 -40 -55 -52q-43 -10 -125 -10
q-131 0 -189 55q-59 56 -59 164q0 169 160 260h-20q-274 0 -388 127q-114 128 -114 410q0 290 121 418q121 129 373 129q114 0 196 -28q80 -27 124 -68t68 -118q22 -72 29 -147q6 -69 6 -184q0 -53 -22 -68q-17 -12 -47 -12h-567zM369 627h372q2 14 2 39q0 98 -36 141
q-37 45 -140 45q-104 0 -150 -55t-48 -170z" />
    <glyph glyph-name="Ecaron" unicode="&#x11a;" horiz-adv-x="1157" 
d="M1042 0h-649q-110 0 -165 50q-54 50 -54 169v1002q0 225 219 225h615q57 0 57 -55v-144q0 -47 -57 -47h-486q-65 0 -65 -76v-252h499q58 0 58 -55v-143q0 -49 -58 -49h-499v-299q0 -45 17 -62q18 -18 61 -18h507q58 0 58 -56v-141q0 -49 -58 -49zM872 1907q48 0 89 -9
q45 -6 45 -40q0 -23 -23 -46l-197 -200q-56 -56 -104 -56h-98q-46 0 -92 46l-207 215q-17 19 -17 43q0 30 45 38q47 9 95 9q42 0 92 -45l139 -125l143 129q47 41 90 41z" />
    <glyph glyph-name="ecaron" unicode="&#x11b;" horiz-adv-x="1079" 
d="M365 432q2 -138 63 -184q62 -47 190 -47q138 0 230 22q43 10 61 10q35 0 47 -32q23 -64 23 -123q0 -36 -33 -51q-128 -54 -360 -54q-274 0 -388 127q-114 128 -114 410q0 290 121 418q121 129 373 129q114 0 196 -28q80 -27 124 -68t68 -118q22 -72 29 -147q6 -69 6 -184
q0 -53 -22 -68q-17 -12 -47 -12h-567zM369 627h372q2 14 2 39q0 98 -36 141q-37 45 -140 45q-104 0 -150 -55t-48 -170zM768 1565q43 0 76 -6q49 -6 49 -41q0 -18 -19 -43l-174 -236q-39 -51 -90 -51h-92q-32 0 -50 9t-36 36l-176 240q-18 24 -18 45q0 35 47 41q39 6 80 6
q44 0 77 -41l125 -150l121 150q35 41 80 41z" />
    <glyph glyph-name="Gcircumflex" unicode="&#x11c;" horiz-adv-x="1374" 
d="M1251 154q0 -53 -18 -74q-16 -19 -49 -35q-184 -72 -496 -72q-301 0 -445 162q-145 163 -145 565q0 409 149 591t503 182q232 0 374 -35q52 -15 52 -56q0 -70 -29 -149q-11 -29 -41 -29q-4 0 -70 8q-142 25 -266 25q-210 0 -295 -118q-86 -119 -86 -388q0 -279 76 -401
q76 -123 278 -123q142 0 230 26q37 10 37 54v254h-240q-41 0 -41 43v157q0 47 43 47h430q49 0 49 -53v-581zM494 1550q-45 0 -86 9q-46 11 -46 40q0 23 21 46l199 198q53 58 104 58h98q45 0 93 -48l206 -215q17 -19 17 -41q0 -31 -45 -38q-47 -9 -94 -9t-93 43l-139 125
l-143 -129q-40 -39 -92 -39z" />
    <glyph glyph-name="gcircumflex" unicode="&#x11d;" horiz-adv-x="1181" 
d="M760 14q-62 -39 -213 -39q-239 0 -348 112t-109 407q0 320 116 441q116 120 378 120q245 0 391 -47q65 -21 65 -103v-805q0 -186 -24 -276q-41 -160 -218 -232q-175 -71 -499 -71q-67 0 -74 55q-8 66 -8 102q0 65 62 70q223 12 318 38q93 25 128 73q35 47 35 129v26z
M766 301v449q0 47 -29 59q-38 16 -129 16q-149 0 -194 -67q-45 -68 -45 -260q0 -161 41 -228q40 -65 153 -65q109 0 168 26q25 13 31 29q4 9 4 41zM420 1180q-43 0 -76 6q-49 7 -49 41q0 21 18 45l174 233q39 54 91 54h92q51 0 86 -46l176 -239q18 -24 18 -47q0 -35 -47 -41
q-39 -6 -80 -6q-43 0 -78 41l-124 151l-121 -151q-35 -41 -80 -41z" />
    <glyph glyph-name="Gbreve" unicode="&#x11e;" horiz-adv-x="1374" 
d="M1251 154q0 -53 -18 -74q-16 -19 -49 -35q-184 -72 -496 -72q-301 0 -445 162q-145 163 -145 565q0 409 149 591t503 182q232 0 374 -35q52 -15 52 -56q0 -70 -29 -149q-11 -29 -41 -29q-4 0 -70 8q-142 25 -266 25q-210 0 -295 -118q-86 -119 -86 -388q0 -279 76 -401
q76 -123 278 -123q142 0 230 26q37 10 37 54v254h-240q-41 0 -41 43v157q0 47 43 47h430q49 0 49 -53v-581zM725 1544q-272 0 -313 199q-9 49 -9 72q0 48 50 59q30 6 67 6q44 0 55 -47q21 -111 154 -111q79 0 114 27q33 26 50 82q7 29 21 39q13 10 40 10q36 0 66 -6
q39 -6 39 -51t-12 -82q-33 -98 -104 -148q-70 -49 -218 -49z" />
    <glyph glyph-name="gbreve" unicode="&#x11f;" horiz-adv-x="1181" 
d="M760 14q-62 -39 -213 -39q-239 0 -348 112t-109 407q0 320 116 441q116 120 378 120q245 0 391 -47q65 -21 65 -103v-805q0 -186 -24 -276q-41 -160 -218 -232q-175 -71 -499 -71q-67 0 -74 55q-8 66 -8 102q0 65 62 70q223 12 318 38q93 25 128 73q35 47 35 129v26z
M766 301v449q0 47 -29 59q-38 16 -129 16q-149 0 -194 -67q-45 -68 -45 -260q0 -161 41 -228q40 -65 153 -65q109 0 168 26q25 13 31 29q4 9 4 41zM811 1524q33 0 61 -6q39 -8 39 -52q0 -47 -14 -90q-28 -99 -98 -152t-209 -53q-257 0 -297 205q-10 54 -10 80q0 53 49 60
q35 8 61 8q23 0 36 -11q11 -10 17 -40q23 -125 150 -125q74 0 106 31q34 32 50 91q15 54 59 54z" />
    <glyph glyph-name="Gdotaccent" unicode="&#x120;" horiz-adv-x="1374" 
d="M1251 154q0 -53 -18 -74q-16 -19 -49 -35q-184 -72 -496 -72q-301 0 -445 162q-145 163 -145 565q0 409 149 591t503 182q232 0 374 -35q52 -15 52 -56q0 -70 -29 -149q-11 -29 -41 -29q-4 0 -70 8q-142 25 -266 25q-210 0 -295 -118q-86 -119 -86 -388q0 -279 76 -401
q76 -123 278 -123q142 0 230 26q37 10 37 54v254h-240q-41 0 -41 43v157q0 47 43 47h430q49 0 49 -53v-581zM862 1698q0 -135 -125 -135q-127 0 -127 133q0 135 127 135q125 0 125 -133z" />
    <glyph glyph-name="gdotaccent" unicode="&#x121;" horiz-adv-x="1181" 
d="M760 14q-62 -39 -213 -39q-239 0 -348 112t-109 407q0 320 116 441q116 120 378 120q245 0 391 -47q65 -21 65 -103v-805q0 -186 -24 -276q-41 -160 -218 -232q-175 -71 -499 -71q-67 0 -74 55q-8 66 -8 102q0 65 62 70q223 12 318 38q93 25 128 73q35 47 35 129v26z
M766 301v449q0 47 -29 59q-38 16 -129 16q-149 0 -194 -67q-45 -68 -45 -260q0 -161 41 -228q40 -65 153 -65q109 0 168 26q25 13 31 29q4 9 4 41zM737 1346q0 -136 -125 -136q-127 0 -127 133q0 136 127 136q125 0 125 -133z" />
    <glyph glyph-name="Gcommaaccent" unicode="&#x122;" horiz-adv-x="1374" 
d="M1251 154q0 -53 -18 -74q-16 -19 -49 -35q-184 -72 -496 -72q-301 0 -445 162q-145 163 -145 565q0 409 149 591t503 182q232 0 374 -35q52 -15 52 -56q0 -70 -29 -149q-11 -29 -41 -29q-4 0 -70 8q-142 25 -266 25q-210 0 -295 -118q-86 -119 -86 -388q0 -279 76 -401
q76 -123 278 -123q142 0 230 26q37 10 37 54v254h-240q-41 0 -41 43v157q0 47 43 47h430q49 0 49 -53v-581zM700 -106h68q68 0 68 -78q0 -216 -127 -359q-33 -41 -68 -41q-19 0 -59 19q-33 18 -33 49q0 24 14 51q57 107 58 281q0 78 79 78z" />
    <glyph glyph-name="gcommaaccent" unicode="&#x123;" horiz-adv-x="1181" 
d="M631 1182h-74q-65 0 -65 71q0 220 126 365q33 41 68 41q29 0 59 -21q33 -18 33 -47q0 -21 -16 -53q-53 -108 -53 -276q0 -80 -78 -80zM760 14q-62 -39 -213 -39q-239 0 -348 112t-109 407q0 320 116 441q116 120 378 120q245 0 391 -47q65 -21 65 -103v-805
q0 -186 -24 -276q-41 -160 -218 -232q-175 -71 -499 -71q-67 0 -74 51q-8 66 -8 106q0 65 64 70q226 15 317 39t127 72q35 47 35 129v26zM766 301v449q0 47 -29 59q-38 16 -129 16q-149 0 -194 -67q-45 -68 -45 -260q0 -161 41 -228q40 -65 153 -65q109 0 168 26
q25 13 31 29q4 9 4 41z" />
    <glyph glyph-name="Hcircumflex" unicode="&#x124;" horiz-adv-x="1474" 
d="M457 59q0 -61 -58 -61h-172q-53 0 -53 61v1327q0 62 55 62h177q51 0 51 -59v-517h561v514q0 62 57 62h174q51 0 51 -59v-1330q0 -61 -57 -61h-170q-55 0 -55 61v566h-561v-566zM502 1550q-45 0 -86 9q-45 11 -45 40q0 25 20 46l199 198q53 58 104 58h99q44 0 92 -48
l207 -215q16 -17 16 -41q0 -31 -45 -38q-47 -9 -94 -9q-46 0 -92 43l-140 125l-143 -129q-40 -39 -92 -39z" />
    <glyph glyph-name="hcircumflex" unicode="&#x125;" horiz-adv-x="1206" 
d="M416 55q0 -57 -54 -57h-169q-52 0 -52 57v1411q0 70 60 70h157q58 0 58 -72v-481q46 30 149 51q102 21 183 21q135 0 204 -32q68 -32 92 -97q21 -60 21 -201v-670q0 -57 -51 -57h-172q-51 0 -51 57v609q0 67 -11 98q-21 61 -133 61q-100 0 -174 -26q-28 -7 -45 -29
q-12 -15 -12 -63v-650zM90 1597q-45 0 -86 9q-45 10 -45 41q0 23 21 45l198 198q53 58 105 58h98q45 0 92 -47l207 -215q16 -17 16 -41q0 -31 -45 -39q-47 -9 -94 -9q-46 0 -92 43l-139 125l-144 -129q-41 -39 -92 -39z" />
    <glyph glyph-name="Hbar" unicode="&#x126;" horiz-adv-x="1474" 
d="M457 59q0 -61 -58 -61h-172q-53 0 -53 61v940h-84q-55 0 -55 54v110q0 51 55 51h84v172q0 62 55 62h177q51 0 51 -59v-175h561v172q0 62 57 62h174q51 0 51 -59v-175h68q57 0 57 -51v-114q0 -50 -55 -50h-70v-940q0 -61 -57 -61h-170q-55 0 -55 61v566h-561v-566z
M457 872h561v127h-561v-127z" />
    <glyph glyph-name="hbar" unicode="&#x127;" horiz-adv-x="1206" 
d="M416 55q0 -57 -54 -57h-169q-52 0 -52 57v1119h-61q-53 0 -53 53v86q0 55 55 55h59v98q0 70 60 70h157q58 0 58 -72v-96h194q56 0 56 -55v-90q0 -49 -54 -49h-196v-191q46 30 149 51q102 21 183 21q135 0 204 -32q68 -32 92 -97q21 -60 21 -201v-670q0 -57 -51 -57h-172
q-51 0 -51 57v609q0 67 -11 98q-21 61 -133 61q-100 0 -174 -26q-28 -7 -45 -29q-12 -15 -12 -63v-650z" />
    <glyph glyph-name="Itilde" unicode="&#x128;" horiz-adv-x="630" 
d="M457 59q0 -61 -58 -61h-172q-53 0 -53 61v1327q0 62 55 62h177q51 0 51 -59v-1330zM51 1548q-33 0 -63 6q-39 10 -39 50q0 12 12 55q69 190 203 190q64 0 160 -51q67 -37 112 -37q55 0 82 56q22 45 64 45q25 0 53 -7q45 -6 45 -40q0 -24 -14 -72q-61 -182 -199 -182
q-61 0 -172 55q-70 35 -107 35q-49 0 -73 -52q-24 -51 -64 -51z" />
    <glyph glyph-name="itilde" unicode="&#x129;" horiz-adv-x="557" 
d="M27 1196q-42 0 -58 4q-43 7 -43 45q0 14 13 55q44 100 88 147q45 48 106 48q51 0 154 -53q73 -37 108 -37q45 0 72 55q18 45 63 45q23 0 56 -4q41 -6 41 -43q0 -23 -19 -82q-62 -170 -184 -170q-56 0 -166 54q-66 36 -96 36q-44 0 -68 -49q-27 -51 -67 -51zM418 55
q0 -57 -53 -57h-170q-52 0 -52 57v916q0 59 54 59h172q49 0 49 -57v-918z" />
    <glyph glyph-name="Imacron" unicode="&#x12a;" horiz-adv-x="630" 
d="M457 59q0 -61 -58 -61h-172q-53 0 -53 61v1327q0 62 55 62h177q51 0 51 -59v-1330zM578 1591h-527q-59 0 -59 56v92q0 53 61 53h522q60 0 60 -55v-95q0 -27 -13 -39t-44 -12z" />
    <glyph glyph-name="imacron" unicode="&#x12b;" horiz-adv-x="557" 
d="M530 1223h-495q-58 0 -58 55v90q0 53 58 53h493q58 0 58 -55v-94q0 -28 -14 -39q-13 -10 -42 -10zM418 55q0 -57 -53 -57h-170q-52 0 -52 57v916q0 59 54 59h172q49 0 49 -57v-918z" />
    <glyph glyph-name="Ibreve" unicode="&#x12c;" horiz-adv-x="630" 
d="M457 59q0 -61 -58 -61h-172q-53 0 -53 61v1327q0 62 55 62h177q51 0 51 -59v-1330zM309 1544q-272 0 -313 199q-8 43 -8 72q0 49 49 59q30 6 67 6q45 0 56 -47q21 -111 153 -111q79 0 114 27q33 26 50 82q7 28 22 39q13 10 40 10q35 0 65 -6q39 -6 39 -51t-12 -82
q-33 -98 -104 -148q-70 -49 -218 -49z" />
    <glyph glyph-name="ibreve" unicode="&#x12d;" horiz-adv-x="557" 
d="M500 1524q32 0 61 -6q39 -8 39 -52q0 -47 -14 -90q-28 -98 -99 -152q-70 -53 -208 -53q-257 0 -297 205q-11 60 -11 80q0 53 49 60q35 8 62 8q23 0 36 -11q11 -10 17 -40q23 -125 150 -125q74 0 106 31q33 31 49 91q15 54 60 54zM418 55q0 -57 -53 -57h-170q-52 0 -52 57
v916q0 59 54 59h172q49 0 49 -57v-918z" />
    <glyph glyph-name="Iogonek" unicode="&#x12e;" horiz-adv-x="630" 
d="M457 59q0 -53 -45 -59q-110 -79 -155 -133q-44 -53 -44 -129q0 -98 94 -98q21 0 57 3t39 3q20 0 30 -10q11 -11 16 -35q6 -27 6 -66q0 -38 -52 -53q-49 -12 -135 -12q-254 0 -254 229q0 115 57 181q60 69 156 118q-53 0 -53 61v1327q0 62 55 62h177q51 0 51 -59v-1330z
" />
    <glyph glyph-name="iogonek" unicode="&#x12f;" horiz-adv-x="557" 
d="M416 55q0 -51 -43 -55q-107 -81 -147 -127q-44 -52 -44 -119q0 -96 90 -96q32 0 54 1t36 1q22 0 33 -8q10 -7 15 -33q6 -39 6 -63q0 -40 -56 -52q-44 -10 -124 -10q-132 0 -190 55t-58 164t54 172q55 64 153 113h-2q-52 0 -52 57v916q0 59 54 59h170q51 0 51 -57v-918z
M426 1348q0 -82 -37 -118t-113 -36q-145 0 -145 152q0 153 145 153q75 0 112 -34q38 -35 38 -117z" />
    <glyph glyph-name="Idotaccent" unicode="&#x130;" horiz-adv-x="630" 
d="M457 59q0 -61 -58 -61h-172q-53 0 -53 61v1327q0 62 55 62h177q51 0 51 -59v-1330zM438 1698q0 -135 -125 -135q-127 0 -127 133q0 135 127 135q125 0 125 -133z" />
    <glyph glyph-name="dotlessi" unicode="&#x131;" horiz-adv-x="557" 
d="M418 55q0 -57 -53 -57h-170q-52 0 -52 57v916q0 59 54 59h172q49 0 49 -57v-918z" />
    <glyph glyph-name="IJ" unicode="&#x132;" horiz-adv-x="1316" 
d="M457 59q0 -61 -58 -61h-172q-53 0 -53 61v1327q0 62 55 62h177q51 0 51 -59v-1330zM1145 164q0 -222 -88 -316q-51 -59 -160 -103q-108 -44 -221 -44q-60 0 -70 51q-10 41 -10 109q0 56 53 67q111 18 158 56q53 41 53 170v1232q0 62 58 62h174q53 0 53 -59v-1225z" />
    <glyph glyph-name="ij" unicode="&#x133;" horiz-adv-x="1146" 
d="M416 55q0 -57 -54 -57h-169q-52 0 -52 57v916q0 59 54 59h170q51 0 51 -57v-918zM426 1348q0 -82 -37 -118t-113 -36q-145 0 -145 152q0 153 145 153q75 0 112 -34q38 -35 38 -117zM987 973v-1006q0 -216 -80 -311q-50 -57 -151 -96q-102 -39 -226 -39q-56 0 -67 53
q-8 46 -8 104q0 60 53 68q106 15 158 55q47 38 47 162v1008q0 59 51 59h172q51 0 51 -57zM999 1348q0 -154 -149 -154q-148 0 -148 152q0 153 148 153q73 0 111 -34t38 -117z" />
    <glyph glyph-name="Jcircumflex" unicode="&#x134;" horiz-adv-x="686" 
d="M516 164q0 -222 -88 -316q-51 -59 -160 -103q-108 -44 -221 -44q-59 0 -70 51q-10 41 -10 109q0 56 53 67q111 18 158 56q53 41 53 170v1232q0 62 58 62h174q53 0 53 -59v-1225zM133 1550q-45 0 -86 9q-45 11 -45 40q0 23 21 46l198 198q53 58 105 58h98q44 0 92 -48
l207 -215q16 -17 16 -41q0 -31 -45 -38q-47 -9 -94 -9q-46 0 -92 43l-139 125l-144 -129q-40 -39 -92 -39z" />
    <glyph glyph-name="jcircumflex" unicode="&#x135;" horiz-adv-x="559" 
d="M424 977v-1075q0 -222 -72 -301q-100 -111 -383 -111q-75 0 -75 59q0 89 4 113q5 56 59 57q118 7 149 31q44 33 44 144v1083q0 57 51 57h174q49 0 49 -57zM86 1180q-42 0 -76 6q-49 7 -49 41q0 20 19 45l174 233q39 54 90 54h92q51 0 86 -46l176 -239q18 -24 18 -47
q0 -35 -47 -41q-40 -6 -80 -6q-42 0 -77 41l-125 151l-121 -151q-35 -41 -80 -41z" />
    <glyph glyph-name="Kcommaaccent" unicode="&#x136;" horiz-adv-x="1312" 
d="M457 59q0 -61 -58 -61h-172q-53 0 -53 61v1327q0 62 55 62h177q51 0 51 -59v-519h127q67 0 94 41l301 490q28 49 76 49q108 0 174 -6q43 -6 43 -43q0 -25 -21 -58q-274 -443 -374 -583l411 -649q29 -41 29 -68q0 -39 -43 -43q-55 -4 -205 -4q-41 0 -70 45l-342 549
q-23 35 -82 35h-118v-566zM676 -106h67q68 0 68 -78q0 -216 -127 -359q-33 -41 -68 -41q-19 0 -59 19q-33 18 -33 49q0 22 15 51q55 105 57 281q0 78 80 78z" />
    <glyph glyph-name="kcommaaccent" unicode="&#x137;" horiz-adv-x="1132" 
d="M416 55q0 -57 -54 -57h-169q-52 0 -52 57v1411q0 60 54 60h170q51 0 51 -58v-786h90q62 0 92 43l184 266q30 43 72 43q151 0 184 -10q27 -8 27 -37q0 -21 -21 -49q-196 -275 -260 -356q40 -52 316 -480q22 -37 22 -59q0 -33 -30 -39q-33 -10 -197 -10q-46 0 -70 43
l-247 379q-24 37 -82 37h-80v-398zM580 -106h67q68 0 68 -78q0 -216 -127 -359q-33 -41 -68 -41q-19 0 -59 19q-33 18 -33 49q0 24 14 51q57 107 58 281q0 78 80 78z" />
    <glyph glyph-name="kgreenlandic" unicode="&#x138;" horiz-adv-x="1140" 
d="M416 55q0 -57 -54 -57h-169q-52 0 -52 57v916q0 59 54 59h170q51 0 51 -57v-311h90q65 0 92 43l184 286q27 43 72 43q140 0 184 -10q27 -6 27 -37q0 -21 -21 -49q-186 -275 -260 -371q122 -175 316 -465q24 -41 24 -61q0 -31 -30 -37q-20 -10 -199 -10q-40 0 -70 43
l-247 358q-27 37 -82 37h-80v-377z" />
    <glyph glyph-name="Lacute" unicode="&#x139;" horiz-adv-x="1157" 
d="M1030 0h-641q-215 0 -215 209v1177q0 62 55 62h177q51 0 51 -59v-1067q0 -76 75 -76h498q57 0 57 -56v-141q0 -49 -57 -49zM391 1581q-48 -31 -102 -31q-53 0 -96 6q-41 6 -41 35q0 24 30 51l228 193q49 43 100 43q73 0 158 -8q53 -6 53 -39t-37 -55z" />
    <glyph glyph-name="lacute" unicode="&#x13a;" horiz-adv-x="614" 
d="M416 385q0 -86 18 -125q22 -44 117 -61q45 -6 45 -54q0 -65 -8 -108q-11 -47 -70 -47q-144 0 -216 29q-75 30 -116 94q-45 72 -45 237v1125q0 57 54 57h172q29 0 39 -13t10 -44v-1090zM346 1622q-48 -31 -102 -31t-97 6q-41 6 -41 35q0 23 31 51l228 193q49 43 100 43
q73 0 158 -8q53 -6 53 -39t-37 -55z" />
    <glyph glyph-name="Lcommaaccent" unicode="&#x13b;" horiz-adv-x="1157" 
d="M1030 0h-641q-215 0 -215 209v1177q0 62 55 62h177q51 0 51 -59v-1067q0 -76 75 -76h498q57 0 57 -56v-141q0 -49 -57 -49zM598 -106h68q67 0 67 -78q0 -216 -127 -359q-33 -41 -67 -41q-20 0 -60 19q-33 18 -33 49q0 22 15 51q55 105 57 281q0 78 80 78z" />
    <glyph glyph-name="lcommaaccent" unicode="&#x13c;" horiz-adv-x="614" 
d="M416 385q0 -86 18 -125q22 -44 117 -61q45 -6 45 -54q0 -65 -8 -108q-11 -47 -70 -47q-144 0 -216 29q-75 30 -116 94q-45 72 -45 237v1125q0 57 54 57h172q29 0 39 -13t10 -44v-1090zM307 -106h68q67 0 67 -78q0 -216 -127 -359q-33 -41 -67 -41q-20 0 -60 19
q-32 17 -32 49q0 24 14 51q55 105 57 281q0 78 80 78z" />
    <glyph glyph-name="Lcaron" unicode="&#x13d;" horiz-adv-x="1157" 
d="M1030 0h-641q-215 0 -215 209v1177q0 62 55 62h177q51 0 51 -59v-1067q0 -76 75 -76h498q57 0 57 -56v-141q0 -49 -57 -49zM762 1485h67q68 0 68 -76q0 -219 -127 -358q-33 -41 -68 -41q-29 0 -59 18q-33 18 -33 49q0 23 15 51q55 100 57 281q0 76 80 76z" />
    <glyph glyph-name="lcaron" unicode="&#x13e;" horiz-adv-x="614" 
d="M416 385q0 -86 18 -125q22 -44 117 -61q45 -6 45 -54q0 -65 -8 -108q-11 -47 -70 -47q-144 0 -216 29q-75 30 -116 94q-45 72 -45 237v1125q0 57 54 57h172q29 0 39 -13t10 -44v-1090zM680 1532h68q67 0 67 -76q0 -219 -127 -358q-33 -41 -67 -41q-30 0 -60 18
q-33 18 -33 49q0 24 15 52q56 101 57 280q0 76 80 76z" />
    <glyph glyph-name="Ldot" unicode="&#x13f;" horiz-adv-x="1157" 
d="M1030 0h-641q-215 0 -215 209v1177q0 62 55 62h177q51 0 51 -59v-1067q0 -76 75 -76h498q57 0 57 -56v-141q0 -49 -57 -49zM1038 729q0 -172 -170 -172q-70 0 -116 39q-47 39 -47 131q0 176 167 176q78 0 122 -38t44 -136z" />
    <glyph glyph-name="ldot" unicode="&#x140;" horiz-adv-x="833" 
d="M854 729q0 -166 -160 -166q-155 0 -155 166q0 168 159 168q72 0 114 -36t42 -132zM416 385q0 -86 18 -125q22 -44 117 -61q45 -6 45 -54q0 -65 -8 -108q-11 -47 -70 -47q-144 0 -216 29q-75 30 -116 94q-45 72 -45 237v1125q0 57 54 57h172q29 0 39 -13t10 -44v-1090z
" />
    <glyph glyph-name="Lslash" unicode="&#x141;" horiz-adv-x="1157" 
d="M1030 0h-641q-215 0 -215 209v227l-41 -26q-23 -13 -41 -13t-39 29q-65 99 -65 115q0 29 24 45l162 110v690q0 62 55 62h177q51 0 51 -59v-500l215 147q21 15 41 15q18 0 39 -27q69 -102 69 -119q0 -26 -26 -43l-338 -231v-309q0 -76 75 -76h498q57 0 57 -56v-141
q0 -49 -57 -49z" />
    <glyph glyph-name="lslash" unicode="&#x142;" horiz-adv-x="614" 
d="M416 385q0 -86 18 -125q22 -44 117 -61q45 -6 45 -54q0 -65 -8 -108q-11 -47 -70 -47q-144 0 -216 29q-75 30 -116 94q-45 72 -45 237v191l-32 -21q-21 -14 -43 -14q-25 0 -39 26q-52 90 -52 107q0 24 29 41l137 88v707q0 57 54 57h172q29 0 39 -13t10 -44v-533l49 33
q26 16 43 16q16 0 37 -28q55 -83 55 -107q0 -18 -29 -39l-155 -100v-332z" />
    <glyph glyph-name="Nacute" unicode="&#x143;" horiz-adv-x="1515" 
d="M449 59q0 -61 -58 -61h-164q-53 0 -53 61v1203q0 98 44 145t144 47h78q78 0 114 -31q33 -29 71 -106q339 -693 452 -967q-6 186 -6 1022q0 76 62 76h153q55 0 55 -70v-1233q0 -92 -43 -126q-42 -33 -116 -33h-64q-87 0 -126 32t-85 125q-367 748 -463 979q5 -313 5 -1063
zM844 1581q-48 -31 -103 -31q-53 0 -96 6q-41 6 -41 35q0 23 31 51l227 193q49 43 101 43q72 0 157 -8q54 -6 54 -39t-37 -55z" />
    <glyph glyph-name="nacute" unicode="&#x144;" horiz-adv-x="1206" 
d="M416 55q0 -57 -54 -57h-169q-52 0 -52 57v787q0 98 74 127q87 37 245 62q153 24 283 24q138 0 208 -32q69 -32 93 -97q21 -60 21 -201v-670q0 -57 -51 -57h-172q-51 0 -51 57v609q0 69 -11 100q-16 59 -133 59q-119 0 -178 -26q-28 -10 -39 -23q-14 -14 -14 -51v-668z
M672 1223q-30 -37 -90 -37q-50 0 -90 6q-41 6 -41 39q0 26 20 49l178 233q36 48 92 48q68 0 138 -7q51 -6 51 -38q0 -20 -31 -56z" />
    <glyph glyph-name="Ncommaaccent" unicode="&#x145;" horiz-adv-x="1515" 
d="M449 59q0 -61 -58 -61h-164q-53 0 -53 61v1203q0 98 44 145t144 47h78q78 0 114 -31q33 -29 71 -106q339 -693 452 -967q-6 186 -6 1022q0 76 62 76h153q55 0 55 -70v-1233q0 -92 -43 -126q-42 -33 -116 -33h-64q-87 0 -126 32t-85 125q-367 748 -463 979q5 -313 5 -1063
zM717 -106h67q68 0 68 -78q0 -216 -127 -359q-33 -41 -68 -41q-19 0 -59 19q-33 18 -33 49q0 22 15 51q55 105 57 281q0 78 80 78z" />
    <glyph glyph-name="ncommaaccent" unicode="&#x146;" horiz-adv-x="1206" 
d="M416 55q0 -57 -54 -57h-169q-52 0 -52 57v787q0 98 74 127q87 37 245 62q153 24 283 24q138 0 208 -32q69 -32 93 -97q21 -60 21 -201v-670q0 -57 -51 -57h-172q-51 0 -51 57v609q0 69 -11 100q-16 59 -133 59q-119 0 -178 -26q-28 -10 -39 -23q-14 -14 -14 -51v-668z
M580 -106h67q68 0 68 -78q0 -216 -127 -359q-33 -41 -68 -41q-19 0 -59 19q-33 18 -33 49q0 24 14 51q57 107 58 281q0 78 80 78z" />
    <glyph glyph-name="Ncaron" unicode="&#x147;" horiz-adv-x="1515" 
d="M449 59q0 -61 -58 -61h-164q-53 0 -53 61v1203q0 98 44 145t144 47h78q78 0 114 -31q33 -29 71 -106q339 -693 452 -967q-6 186 -6 1022q0 76 62 76h153q55 0 55 -70v-1233q0 -92 -43 -126q-42 -33 -116 -33h-64q-87 0 -126 32t-85 125q-367 748 -463 979q5 -313 5 -1063
zM1008 1907q47 0 88 -9q45 -6 45 -40q0 -23 -23 -46l-196 -200q-56 -56 -105 -56h-98q-46 0 -92 46l-207 215q-17 19 -17 43q0 30 46 38q47 9 94 9q43 0 92 -45l139 -125l144 129q47 41 90 41z" />
    <glyph glyph-name="ncaron" unicode="&#x148;" horiz-adv-x="1206" 
d="M416 55q0 -57 -54 -57h-169q-52 0 -52 57v787q0 98 74 127q87 37 245 62q153 24 283 24q138 0 208 -32q69 -32 93 -97q21 -60 21 -201v-670q0 -57 -51 -57h-172q-51 0 -51 57v609q0 69 -11 100q-16 59 -133 59q-119 0 -178 -26q-28 -10 -39 -23q-14 -14 -14 -51v-668z
M801 1565q43 0 76 -6q49 -6 49 -41q0 -18 -19 -43l-174 -236q-39 -51 -90 -51h-92q-32 0 -50 9t-36 36l-176 240q-19 25 -19 45q0 35 47 41q39 6 80 6q45 0 78 -41l125 -150l121 150q35 41 80 41z" />
    <glyph glyph-name="napostrophe" unicode="&#x149;" horiz-adv-x="1206" 
d="M416 55q0 -57 -54 -57h-169q-52 0 -52 57v787q0 98 74 127q87 37 245 62q153 24 283 24q138 0 208 -32q69 -32 93 -97q21 -60 21 -201v-670q0 -57 -51 -57h-172q-51 0 -51 57v609q0 69 -11 100q-16 59 -133 59q-119 0 -178 -26q-28 -10 -39 -23q-14 -14 -14 -51v-668z
M213 1630h68q67 0 67 -78q0 -215 -127 -358q-33 -41 -67 -41q-22 0 -60 18q-33 18 -33 50q0 23 15 51q56 105 57 280q0 78 80 78z" />
    <glyph glyph-name="Eng" unicode="&#x14a;" horiz-adv-x="1515" 
d="M449 59q0 -61 -58 -61h-164q-53 0 -53 61v1201q0 100 44 147t144 47h78q75 0 113 -32q37 -31 76 -105q355 -611 448 -801q-6 466 -6 856q0 76 62 76h153q55 0 55 -70v-1366q0 -228 -90 -319q-57 -62 -158 -104q-105 -44 -221 -44q-56 0 -67 54q-14 52 -14 108q0 57 53 68
q116 21 160 55q55 43 55 139v19q-508 917 -615 1130q5 -313 5 -1059z" />
    <glyph glyph-name="eng" unicode="&#x14b;" horiz-adv-x="1206" 
d="M416 55q0 -57 -54 -57h-169q-52 0 -52 57v787q0 98 74 127q87 37 245 62q153 24 283 24q138 0 208 -32q69 -32 93 -97q21 -60 21 -201v-756q0 -213 -86 -313q-48 -54 -153 -95q-102 -40 -214 -40q-54 0 -69 51q-13 60 -13 106q0 57 54 68q107 15 159 55q48 39 48 162v701
q0 69 -11 100q-16 59 -133 59q-119 0 -178 -26q-28 -10 -39 -23q-14 -14 -14 -51v-668z" />
    <glyph glyph-name="Omacron" unicode="&#x14c;" horiz-adv-x="1441" 
d="M1343 733q0 -229 -36 -372q-38 -149 -119 -233q-82 -86 -195 -120q-114 -35 -280 -35t-274 34q-111 35 -189 119q-81 87 -116 233q-36 149 -36 372q0 226 46 374q46 149 137 228q92 80 196 109q110 31 252 31q130 0 223 -17t170 -62q81 -47 125 -128q46 -84 71 -213
q25 -128 25 -320zM1049 729q0 217 -34 325t-101 146q-65 37 -193 37q-114 0 -182 -38q-69 -38 -109 -151q-41 -115 -41 -317q0 -163 21 -268t64 -160q44 -56 100 -75t143 -19q85 0 141 18q52 17 101 72q47 53 68 159q22 110 22 271zM995 1591h-526q-59 0 -59 56v92
q0 53 61 53h522q60 0 60 -55v-95q0 -27 -14 -39q-13 -12 -44 -12z" />
    <glyph glyph-name="omacron" unicode="&#x14d;" horiz-adv-x="1155" 
d="M1065 522q0 -314 -115 -432q-114 -117 -379 -117q-255 0 -368 115t-113 428q0 162 36 271q36 111 106 167q71 57 154 80q84 23 200 23q129 0 212 -20q82 -20 146 -75q66 -57 93 -163q28 -110 28 -277zM791 512q0 190 -42 252q-42 61 -167 61q-114 0 -164 -63
q-49 -62 -49 -244q0 -191 44 -255q43 -62 162 -62q121 0 168 60q48 62 48 251zM836 1223h-496q-57 0 -57 55v90q0 53 57 53h494q57 0 57 -55v-94q0 -29 -13 -39t-42 -10z" />
    <glyph glyph-name="Obreve" unicode="&#x14e;" horiz-adv-x="1441" 
d="M1343 733q0 -229 -36 -372q-38 -149 -119 -233q-82 -86 -195 -120q-114 -35 -280 -35t-274 34q-111 35 -189 119q-81 87 -116 233q-36 149 -36 372q0 226 46 374q46 149 137 228q92 80 196 109q110 31 252 31q130 0 223 -17t170 -62q81 -47 125 -128q46 -84 71 -213
q25 -128 25 -320zM1049 729q0 217 -34 325t-101 146q-65 37 -193 37q-114 0 -182 -38q-69 -38 -109 -151q-41 -115 -41 -317q0 -163 21 -268t64 -160q44 -56 100 -75t143 -19q85 0 141 18q52 17 101 72q47 53 68 159q22 110 22 271zM721 1544q-272 0 -313 199q-9 49 -9 72
q0 48 50 59q30 6 67 6q44 0 55 -47q21 -111 154 -111q79 0 114 27q33 26 50 82q7 29 21 39q13 10 40 10q36 0 66 -6q39 -6 39 -51q0 -41 -13 -82q-33 -99 -103 -148t-218 -49z" />
    <glyph glyph-name="obreve" unicode="&#x14f;" horiz-adv-x="1155" 
d="M1065 522q0 -314 -115 -432q-114 -117 -379 -117q-255 0 -368 115t-113 428q0 162 36 271q36 111 106 167q71 57 154 80q84 23 200 23q129 0 212 -20q82 -20 146 -75q66 -57 93 -163q28 -110 28 -277zM791 512q0 190 -42 252q-42 61 -167 61q-114 0 -164 -63
q-49 -62 -49 -244q0 -191 44 -255q43 -62 162 -62q121 0 168 60q48 62 48 251zM797 1524q34 0 61 -6q39 -8 39 -52q0 -47 -14 -90q-28 -98 -99 -152q-70 -53 -209 -53q-256 0 -296 205q-11 60 -11 80q0 53 49 60q35 8 62 8q26 0 37 -11q10 -10 16 -40q23 -125 150 -125
q74 0 106 31q33 31 49 91q15 54 60 54z" />
    <glyph glyph-name="Ohungarumlaut" unicode="&#x150;" horiz-adv-x="1441" 
d="M1343 733q0 -229 -36 -372q-38 -149 -119 -233q-82 -86 -195 -120q-114 -35 -280 -35t-274 34q-111 35 -189 119q-81 87 -116 233q-36 149 -36 372q0 226 46 374q46 149 137 228q92 80 196 109q110 31 252 31q130 0 223 -17t170 -62q81 -47 125 -128q46 -84 71 -213
q25 -128 25 -320zM1049 729q0 217 -34 325t-101 146q-65 37 -193 37q-114 0 -182 -38q-69 -38 -109 -151q-41 -115 -41 -317q0 -163 21 -268t64 -160q44 -56 100 -75t143 -19q85 0 141 18q52 17 101 72q47 53 68 159q22 110 22 271zM594 1581q-46 -31 -96 -31q-47 0 -92 6
q-39 6 -39 37q0 27 32 56l209 186q49 43 103 43q83 0 133 -6q47 -6 47 -37q0 -35 -33 -57zM1032 1581q-48 -31 -96 -31q-47 0 -92 6q-39 6 -39 37q0 27 33 56l209 186q49 43 102 43q80 0 131 -6q47 -6 47 -37q0 -30 -33 -57z" />
    <glyph glyph-name="ohungarumlaut" unicode="&#x151;" horiz-adv-x="1155" 
d="M1065 522q0 -314 -115 -432q-114 -117 -379 -117q-255 0 -368 115t-113 428q0 162 36 271q36 111 106 167q71 57 154 80q84 23 200 23q129 0 212 -20q82 -20 146 -75q66 -57 93 -163q28 -110 28 -277zM791 512q0 190 -42 252q-42 61 -167 61q-114 0 -164 -63
q-49 -62 -49 -244q0 -191 44 -255q43 -62 162 -62q121 0 168 60q48 62 48 251zM492 1223q-40 -37 -86 -37q-49 0 -70 6q-41 11 -41 39q0 23 20 49l158 233q31 48 90 48q40 0 101 -7q53 -6 53 -41q0 -28 -23 -53zM848 1223q-37 -37 -84 -37q-52 0 -70 6q-41 8 -41 39
q0 24 19 49l159 233q31 48 91 48q40 0 98 -7q55 -6 55 -41q0 -23 -24 -53z" />
    <glyph glyph-name="OE" unicode="&#x152;" horiz-adv-x="1998" 
d="M1884 0h-639q-69 0 -110 25q-40 25 -58 90q-57 -82 -143 -111q-91 -31 -232 -31q-164 0 -270 34q-109 35 -186 119q-79 86 -113 232q-35 149 -35 373t45 374q45 151 133 228q90 79 194 109q108 31 251 31q274 0 366 -140q24 113 162 113h598q58 0 58 -55v-144
q0 -47 -58 -47h-483q-66 0 -66 -76v-252h500q55 0 55 -55v-143q0 -49 -55 -49h-500v-295q0 -84 76 -84h510q28 0 42 -12q13 -12 13 -44v-141q0 -49 -55 -49zM1016 729q0 220 -30 328t-90 144t-183 36q-171 0 -247 -104q-77 -106 -77 -402q0 -157 19 -268q18 -105 61 -160
t96 -75q51 -19 137 -19q63 0 108 8q40 7 85 38q43 30 67 85q22 52 38 152q16 102 16 237z" />
    <glyph glyph-name="oe" unicode="&#x153;" horiz-adv-x="1775" 
d="M920 111q-100 -138 -349 -138q-255 0 -368 115t-113 428q0 162 36 271q36 111 106 167q71 57 154 80q84 23 200 23q133 0 217 -30q85 -30 135 -107q105 137 336 137q81 0 148 -14q69 -14 110 -35q47 -23 76 -63q31 -42 48 -80t26 -102q11 -74 13 -116q3 -53 3 -133
q0 -55 -23 -70q-15 -12 -47 -12h-569q1 -139 64 -185q62 -46 192 -46q133 0 227 22q44 10 62 10q35 0 47 -32q24 -57 24 -121q0 -36 -33 -51q-120 -56 -360 -56q-256 0 -362 138zM791 512q0 190 -42 252q-42 61 -167 61q-114 0 -164 -63q-49 -62 -49 -244q0 -191 44 -255
q43 -62 162 -62q121 0 168 60q48 62 48 251zM1063 627h377q2 20 2 34q0 101 -39 146t-139 45q-107 0 -152 -54q-44 -53 -49 -171z" />
    <glyph glyph-name="Racute" unicode="&#x154;" horiz-adv-x="1312" 
d="M457 59q0 -61 -60 -61h-170q-53 0 -53 61v1153q0 121 51 178q50 56 176 56h156q293 0 416 -49q209 -86 209 -383q0 -300 -232 -396l279 -503q28 -52 28 -74q0 -33 -30 -37q-44 -10 -205 -10q-48 0 -72 47l-268 526q-46 -2 -113 -2h-112v-506zM457 791h121q134 0 206 24
q107 41 107 184q0 155 -103 193q-52 18 -184 18h-80q-67 0 -67 -67v-352zM727 1581q-48 -31 -102 -31q-53 0 -97 6q-41 6 -41 35q0 23 31 51l227 193q49 43 101 43q73 0 158 -8q53 -6 53 -39t-37 -55z" />
    <glyph glyph-name="racute" unicode="&#x155;" horiz-adv-x="802" 
d="M416 55q0 -57 -54 -57h-169q-52 0 -52 57v774q0 51 14 79q15 30 48 53q51 33 175 64q122 30 230 30q96 0 137 -13q37 -15 37 -53q0 -89 -12 -139q-8 -35 -51 -35q-4 0 -12 0.5t-22.5 1t-25.5 0.5q-60 2 -61 2q-94 0 -145 -26q-23 -12 -29 -27q-8 -16 -8 -53v-658z
M530 1223q-30 -37 -90 -37q-51 0 -90 6q-41 6 -41 39q0 25 21 49l178 233q36 48 92 48q71 0 137 -7q51 -6 51 -38q0 -22 -30 -56z" />
    <glyph glyph-name="Rcommaaccent" unicode="&#x156;" horiz-adv-x="1312" 
d="M457 59q0 -61 -60 -61h-170q-53 0 -53 61v1153q0 121 51 178q50 56 176 56h156q293 0 416 -49q209 -86 209 -383q0 -300 -232 -396l279 -503q28 -52 28 -74q0 -33 -30 -37q-44 -10 -205 -10q-48 0 -72 47l-268 526q-46 -2 -113 -2h-112v-506zM457 791h121q134 0 206 24
q107 41 107 184q0 155 -103 193q-52 18 -184 18h-80q-67 0 -67 -67v-352zM637 -106h68q67 0 67 -78q0 -216 -127 -359q-33 -41 -67 -41q-20 0 -60 19q-33 18 -33 49q0 22 15 51q55 105 57 281q0 78 80 78z" />
    <glyph glyph-name="rcommaaccent" unicode="&#x157;" horiz-adv-x="802" 
d="M416 55q0 -57 -54 -57h-169q-52 0 -52 57v774q0 51 14 79q15 30 48 53q51 33 175 64q122 30 230 30q96 0 137 -13q37 -15 37 -53q0 -89 -12 -139q-8 -35 -51 -35q-4 0 -12 0.5t-22.5 1t-25.5 0.5q-60 2 -61 2q-94 0 -145 -26q-23 -12 -29 -27q-8 -16 -8 -53v-658z
M262 -106h68q67 0 67 -78q0 -216 -127 -359q-33 -41 -67 -41q-20 0 -60 19q-32 17 -32 49q0 24 14 51q55 105 57 281q0 78 80 78z" />
    <glyph glyph-name="Rcaron" unicode="&#x158;" horiz-adv-x="1312" 
d="M457 59q0 -61 -60 -61h-170q-53 0 -53 61v1153q0 121 51 178q50 56 176 56h156q293 0 416 -49q209 -86 209 -383q0 -300 -232 -396l279 -503q28 -52 28 -74q0 -33 -30 -37q-44 -10 -205 -10q-48 0 -72 47l-268 526q-46 -2 -113 -2h-112v-506zM457 791h121q134 0 206 24
q107 41 107 184q0 155 -103 193q-52 18 -184 18h-80q-67 0 -67 -67v-352zM874 1907q48 0 89 -9q45 -6 45 -40q0 -23 -23 -46l-197 -200q-56 -56 -104 -56h-98q-46 0 -92 46l-207 215q-17 19 -17 43q0 30 45 38q47 9 95 9q42 0 92 -45l139 -125l143 129q47 41 90 41z" />
    <glyph glyph-name="rcaron" unicode="&#x159;" horiz-adv-x="802" 
d="M416 55q0 -57 -54 -57h-169q-52 0 -52 57v774q0 51 14 79q15 30 48 53q51 33 175 64q122 30 230 30q96 0 137 -13q37 -15 37 -53q0 -89 -12 -139q-8 -35 -51 -35q-4 0 -12 0.5t-22.5 1t-25.5 0.5q-60 2 -61 2q-94 0 -145 -26q-23 -12 -29 -27q-8 -16 -8 -53v-658z
M657 1565q43 0 76 -6q49 -6 49 -41q0 -19 -18 -43l-174 -236q-39 -51 -90 -51h-92q-33 0 -51 9q-17 8 -35 36l-177 240q-18 24 -18 45q0 35 47 41q41 6 80 6q45 0 78 -41l125 -150l121 150q35 41 79 41z" />
    <glyph glyph-name="Sacute" unicode="&#x15a;" horiz-adv-x="1193" 
d="M754 834q201 -56 273 -141q73 -87 73 -269q0 -220 -124 -335q-125 -116 -419 -116q-250 0 -430 60q-51 17 -51 63q0 24 26 121q17 53 66 53q22 0 76 -16q147 -45 319 -45q145 0 194 48q50 48 50 130q0 77 -36 118q-36 40 -157 70l-178 43q-170 41 -251 140t-81 274
q0 212 123 326q124 115 404 115q240 0 373 -43q49 -15 49 -64q0 -27 -25 -121q-11 -47 -51 -47q-29 0 -72 10q-146 27 -293 27q-124 0 -170 -46q-47 -47 -47 -130q0 -67 36 -110t142 -70zM678 1581q-48 -31 -103 -31q-53 0 -96 6q-41 6 -41 35q0 23 31 51l227 193
q49 43 101 43q72 0 157 -8q54 -6 54 -39t-37 -55z" />
    <glyph glyph-name="sacute" unicode="&#x15b;" horiz-adv-x="931" 
d="M496 383l-150 39q-132 34 -199 104q-65 68 -65 207q0 322 416 322q197 0 301 -37q41 -12 41 -53q0 -26 -29 -134q-6 -34 -41 -34q-2 0 -55 8q-107 24 -228 24q-81 0 -107 -23q-28 -25 -28 -67q0 -34 22 -53t97 -41l139 -39q153 -44 209 -107q58 -66 58 -202
q0 -324 -422 -324q-239 0 -363 52q-37 15 -37 53q0 20 33 127q15 43 51 43q13 0 62 -15q109 -32 266 -32q145 0 145 94q0 33 -21 51q-22 19 -95 37zM565 1223q-30 -37 -90 -37q-49 0 -90 6t-41 39q0 25 21 49l178 233q36 48 92 48q67 0 137 -7q51 -6 51 -38q0 -22 -30 -56z
" />
    <glyph glyph-name="Scircumflex" unicode="&#x15c;" horiz-adv-x="1193" 
d="M754 834q201 -56 273 -141q73 -87 73 -269q0 -220 -124 -335q-125 -116 -419 -116q-250 0 -430 60q-51 17 -51 63q0 24 26 121q17 53 66 53q22 0 76 -16q147 -45 319 -45q145 0 194 48q50 48 50 130q0 77 -36 118q-36 40 -157 70l-178 43q-170 41 -251 140t-81 274
q0 212 123 326q124 115 404 115q240 0 373 -43q49 -15 49 -64q0 -27 -25 -121q-11 -47 -51 -47q-29 0 -72 10q-146 27 -293 27q-124 0 -170 -46q-47 -47 -47 -130q0 -67 36 -110t142 -70zM367 1550q-45 0 -86 9q-45 11 -45 40q0 25 20 46l199 198q53 58 104 58h98
q45 0 93 -48l206 -215q17 -19 17 -41q0 -31 -45 -38q-47 -9 -94 -9t-93 43l-139 125l-143 -129q-41 -39 -92 -39z" />
    <glyph glyph-name="scircumflex" unicode="&#x15d;" horiz-adv-x="931" 
d="M496 383l-150 39q-132 34 -199 104q-65 68 -65 207q0 322 416 322q197 0 301 -37q41 -12 41 -53q0 -26 -29 -134q-6 -34 -41 -34q-2 0 -55 8q-107 24 -228 24q-81 0 -107 -23q-28 -25 -28 -67q0 -34 22 -53t97 -41l139 -39q153 -44 209 -107q58 -66 58 -202
q0 -324 -422 -324q-239 0 -363 52q-37 15 -37 53q0 20 33 127q15 43 51 43q13 0 62 -15q109 -32 266 -32q145 0 145 94q0 33 -21 51q-22 19 -95 37zM287 1180q-42 0 -76 6q-49 7 -49 41q0 21 18 45l174 233q39 54 90 54h93q52 0 86 -46l176 -239q18 -24 18 -47
q0 -35 -47 -41q-40 -6 -80 -6q-43 0 -78 41l-125 151l-120 -151q-35 -41 -80 -41z" />
    <glyph glyph-name="Scedilla" unicode="&#x15e;" horiz-adv-x="1193" 
d="M610 -106q61 -1 105 -21q40 -18 58 -52q19 -36 23 -65q5 -33 5 -78q0 -223 -301 -223q-63 0 -107 10q-49 10 -49 52q0 37 6 65q10 45 60 45q12 0 55 -6q28 -2 47 -2q78 0 78 62q0 35 -18 48q-17 13 -56 13h-37q-45 0 -45 41q0 35 10 78l25 114q-194 10 -342 58
q-51 17 -51 63q0 24 26 121q17 53 66 53q22 0 76 -16q147 -45 319 -45q145 0 194 48q50 48 50 130q0 77 -36 118q-36 40 -157 70l-178 43q-170 41 -251 140t-81 274q0 212 123 326q124 115 404 115q240 0 373 -43q49 -15 49 -64q0 -27 -25 -121q-11 -47 -51 -47
q-29 0 -72 10q-146 27 -293 27q-124 0 -170 -46q-47 -47 -47 -130q0 -67 36 -110t142 -70l181 -45q201 -56 273 -141q73 -87 73 -269q0 -207 -110 -322q-111 -115 -365 -127z" />
    <glyph glyph-name="scedilla" unicode="&#x15f;" horiz-adv-x="931" 
d="M489 -100q61 -1 101 -20q39 -18 55 -51q18 -38 22 -62q5 -32 5 -74q0 -213 -289 -213q-63 0 -100 8q-50 12 -50 49q0 24 9 64q7 27 19 34q14 9 36 9q24 0 53 -4q24 -2 45 -2q76 0 76 55q0 35 -16 48t-56 13h-34q-46 0 -46 41q0 17 13 74l22 108q-173 10 -262 48
q-37 15 -37 53q0 20 33 127q15 43 51 43q13 0 62 -15q109 -32 266 -32q145 0 145 94q0 33 -21 51q-22 19 -95 37l-150 39q-132 34 -199 104q-65 68 -65 207q0 322 416 322q197 0 301 -37q41 -12 41 -53q0 -26 -29 -134q-6 -34 -41 -34q-2 0 -55 8q-107 24 -228 24
q-81 0 -107 -23q-28 -25 -28 -67q0 -34 22 -53t97 -41l139 -39q153 -44 209 -107q58 -66 58 -202q0 -305 -375 -322z" />
    <glyph glyph-name="Scaron" unicode="&#x160;" horiz-adv-x="1193" 
d="M754 834q201 -56 273 -141q73 -87 73 -269q0 -220 -124 -335q-125 -116 -419 -116q-250 0 -430 60q-51 17 -51 63q0 24 26 121q17 53 66 53q22 0 76 -16q147 -45 319 -45q145 0 194 48q50 48 50 130q0 77 -36 118q-36 40 -157 70l-178 43q-170 41 -251 140t-81 274
q0 212 123 326q124 115 404 115q240 0 373 -43q49 -15 49 -64q0 -27 -25 -121q-11 -47 -51 -47q-29 0 -72 10q-146 27 -293 27q-124 0 -170 -46q-47 -47 -47 -130q0 -67 36 -110t142 -70zM840 1907q47 0 88 -9q45 -6 45 -40q0 -23 -23 -46l-196 -200q-56 -56 -105 -56h-98
q-46 0 -92 46l-207 215q-16 17 -16 43q0 30 45 38q47 9 94 9q42 0 92 -45l139 -125l144 129q47 41 90 41z" />
    <glyph glyph-name="scaron" unicode="&#x161;" horiz-adv-x="931" 
d="M496 383l-150 39q-132 34 -199 104q-65 68 -65 207q0 322 416 322q197 0 301 -37q41 -12 41 -53q0 -26 -29 -134q-6 -34 -41 -34q-2 0 -55 8q-107 24 -228 24q-81 0 -107 -23q-28 -25 -28 -67q0 -34 22 -53t97 -41l139 -39q153 -44 209 -107q58 -66 58 -202
q0 -324 -422 -324q-239 0 -363 52q-37 15 -37 53q0 20 33 127q15 43 51 43q13 0 62 -15q109 -32 266 -32q145 0 145 94q0 33 -21 51q-22 19 -95 37zM682 1565q43 0 76 -6q49 -6 49 -41q0 -18 -19 -43l-174 -236q-39 -51 -90 -51h-92q-32 0 -50 9t-36 36l-176 240
q-18 24 -18 45q0 35 47 41q39 6 80 6q44 0 77 -41l125 -150l121 150q35 41 80 41z" />
    <glyph glyph-name="uni0162" unicode="&#x162;" horiz-adv-x="1253" 
d="M666 -106q60 -1 104 -21q40 -18 58 -52q19 -36 23 -65q5 -33 5 -78q0 -223 -301 -223q-62 0 -106 10q-50 11 -50 52q0 32 7 65q10 45 59 45q11 0 55 -6q28 -2 47 -2q78 0 78 62q0 35 -17 48t-57 13h-36q-46 0 -46 41q0 31 11 78l28 137h-4q-55 0 -55 61v1141h-352
q-58 0 -58 47v144q0 55 58 55h993q57 0 57 -55v-144q0 -47 -57 -47h-354v-1141q0 -61 -58 -61h-14z" />
    <glyph glyph-name="uni0163" unicode="&#x163;" horiz-adv-x="747" 
d="M481 -100q61 -1 101 -20q39 -18 55 -51q17 -35 21 -62q6 -38 6 -74q0 -213 -289 -213q-64 0 -101 8q-49 12 -49 49q0 29 8 64q7 26 20 34q14 9 36 9q24 0 53 -4q24 -2 45 -2q76 0 76 55q0 34 -17 48q-16 13 -55 13h-35q-45 0 -45 41q0 17 13 74l32 156q-52 23 -90 71
q-42 49 -56 125q-13 71 -13 207v375h-107q-53 0 -53 53v115q0 57 57 57h109q1 58 8 213q5 64 55 64h156q49 0 49 -66v-211h178q64 0 64 -55v-115q0 -55 -60 -55h-182v-383q0 -117 37 -160q33 -40 180 -51q49 -4 49 -55q0 -62 -4 -117q-6 -53 -63 -53q-102 0 -172 8z" />
    <glyph glyph-name="Tcaron" unicode="&#x164;" horiz-adv-x="1253" 
d="M756 59q0 -61 -58 -61h-174q-55 0 -55 61v1141h-352q-58 0 -58 47v144q0 55 58 55h993q57 0 57 -55v-144q0 -47 -57 -47h-354v-1141zM846 1907q47 0 88 -9q45 -6 45 -40q0 -23 -23 -46l-196 -200q-56 -56 -105 -56h-98q-46 0 -92 46l-207 215q-16 17 -16 43q0 30 45 38
q47 9 94 9q43 0 92 -45l139 -125l144 129q47 41 90 41z" />
    <glyph glyph-name="tcaron" unicode="&#x165;" horiz-adv-x="747" 
d="M471 420q0 -117 37 -160q33 -40 180 -51q49 -4 49 -55q0 -62 -4 -117q-6 -53 -63 -53q-170 0 -261 24t-143 88q-42 49 -56 125q-13 71 -13 207v375h-107q-53 0 -53 53v115q0 57 57 57h109q1 58 8 213q5 64 55 64h156q49 0 49 -66v-211h178q64 0 64 -55v-115
q0 -55 -60 -55h-182v-383zM690 1585h68q67 0 67 -76q0 -219 -127 -358q-33 -41 -67 -41q-30 0 -60 18q-32 17 -32 50q0 24 14 51q56 101 57 280q0 76 80 76z" />
    <glyph glyph-name="Tbar" unicode="&#x166;" horiz-adv-x="1253" 
d="M768 59q0 -61 -57 -61h-174q-56 0 -56 61v605h-235q-53 0 -53 51v110q0 52 55 52h233v323h-352q-57 0 -57 47v144q0 55 57 55h993q58 0 58 -55v-144q0 -47 -58 -47h-354v-323h240q55 0 55 -52v-114q0 -29 -12 -38t-41 -9h-242v-605z" />
    <glyph glyph-name="tbar" unicode="&#x167;" horiz-adv-x="747" 
d="M471 420q0 -117 37 -160q33 -40 180 -51q49 -4 49 -55q0 -62 -4 -117q-6 -53 -63 -53q-170 0 -261 24t-143 88q-42 49 -56 125q-13 71 -13 207v47h-107q-55 0 -55 51v86q0 56 57 56h105v135h-107q-53 0 -53 53v115q0 57 57 57h109q1 58 8 213q5 64 55 64h156q49 0 49 -66
v-211h178q64 0 64 -55v-115q0 -55 -60 -55h-182v-135h107q55 0 55 -54v-92q0 -47 -53 -47h-109v-55z" />
    <glyph glyph-name="Utilde" unicode="&#x168;" horiz-adv-x="1433" 
d="M1274 1391v-813q0 -164 -12 -254t-50 -154q-122 -199 -512 -199q-396 0 -495 213q-45 99 -45 389v818q0 57 55 57h180q47 0 47 -57v-879q0 -162 43 -221q57 -82 232 -82q189 0 241 78q46 64 46 221v883q0 57 55 57h166q49 0 49 -57zM465 1548q-34 0 -64 6q-39 10 -39 50
q0 8 13 55q69 190 203 190q63 0 159 -51q67 -37 113 -37q55 0 82 56q22 45 63 45q26 0 54 -7q45 -6 45 -40q0 -21 -15 -72q-61 -182 -198 -182q-61 0 -172 55q-70 35 -107 35q-50 0 -74 -52q-24 -51 -63 -51z" />
    <glyph glyph-name="utilde" unicode="&#x169;" horiz-adv-x="1206" 
d="M141 346v627q0 57 52 57h172q51 0 51 -57v-590q0 -91 14 -119q22 -59 145 -59q111 0 162 16q25 7 39 21q15 15 15 55v676q0 57 53 57h170q51 0 51 -57v-805q0 -98 -74 -131q-152 -64 -459 -64q-308 0 -364 140q-27 67 -27 233zM358 1196q-41 0 -57 4q-43 7 -43 45
q0 17 12 55q44 100 88 147q45 48 107 48q50 0 153 -53q73 -37 109 -37q45 0 72 55q18 45 63 45q23 0 56 -4q40 -6 40 -43q0 -26 -18 -82q-62 -170 -184 -170q-56 0 -166 54q-69 36 -96 36q-44 0 -68 -49q-27 -51 -68 -51z" />
    <glyph glyph-name="Umacron" unicode="&#x16a;" horiz-adv-x="1433" 
d="M1274 1391v-813q0 -164 -12 -254t-50 -154q-122 -199 -512 -199q-396 0 -495 213q-45 99 -45 389v818q0 57 55 57h180q47 0 47 -57v-879q0 -162 43 -221q57 -82 232 -82q189 0 241 78q46 64 46 221v883q0 57 55 57h166q49 0 49 -57zM987 1591h-526q-60 0 -60 56v92
q0 53 62 53h522q59 0 59 -55v-95q0 -27 -13 -39q-14 -12 -44 -12z" />
    <glyph glyph-name="umacron" unicode="&#x16b;" horiz-adv-x="1206" 
d="M141 346v627q0 57 52 57h172q51 0 51 -57v-590q0 -91 14 -119q22 -59 145 -59q111 0 162 16q25 7 39 21q15 15 15 55v676q0 57 53 57h170q51 0 51 -57v-805q0 -98 -74 -131q-152 -64 -459 -64q-308 0 -364 140q-27 67 -27 233zM854 1223h-496q-57 0 -57 55v90q0 53 57 53
h494q57 0 57 -55v-94q0 -29 -13 -39t-42 -10z" />
    <glyph glyph-name="Ubreve" unicode="&#x16c;" horiz-adv-x="1433" 
d="M1274 1391v-813q0 -164 -12 -254t-50 -154q-122 -199 -512 -199q-396 0 -495 213q-45 99 -45 389v818q0 57 55 57h180q47 0 47 -57v-879q0 -162 43 -221q57 -82 232 -82q189 0 241 78q46 64 46 221v883q0 57 55 57h166q49 0 49 -57zM713 1544q-273 0 -314 199
q-8 43 -8 72q0 49 49 59q30 6 68 6q44 0 55 -47q21 -111 154 -111q79 0 113 27q35 27 51 82q7 29 21 39q13 10 40 10q36 0 66 -6q39 -6 39 -51q0 -41 -13 -82q-33 -99 -103 -148t-218 -49z" />
    <glyph glyph-name="ubreve" unicode="&#x16d;" horiz-adv-x="1206" 
d="M141 346v627q0 57 52 57h172q51 0 51 -57v-590q0 -91 14 -119q22 -59 145 -59q111 0 162 16q25 7 39 21q15 15 15 55v676q0 57 53 57h170q51 0 51 -57v-805q0 -98 -74 -131q-152 -64 -459 -64q-308 0 -364 140q-27 67 -27 233zM815 1524q33 0 62 -6q38 -7 38 -52
q0 -47 -14 -90q-28 -99 -98 -152t-209 -53q-257 0 -297 205q-10 54 -10 80q0 53 49 60q35 8 61 8q23 0 36 -11q12 -11 18 -40q23 -125 149 -125q75 0 107 31q33 31 49 91q15 54 59 54z" />
    <glyph glyph-name="Uring" unicode="&#x16e;" horiz-adv-x="1433" 
d="M1274 1391v-813q0 -164 -12 -254t-50 -154q-122 -199 -512 -199q-396 0 -495 213q-45 99 -45 389v818q0 57 55 57h180q47 0 47 -57v-879q0 -162 43 -221q57 -82 232 -82q189 0 241 78q46 64 46 221v883q0 57 55 57h166q49 0 49 -57zM913 1700q0 -92 -54 -142
q-56 -51 -142 -51q-82 0 -135 51q-52 50 -52 142q0 93 53 146q52 52 140 52t139 -52t51 -146zM825 1704q0 115 -106 115q-47 0 -77 -30t-30 -87q0 -55 30 -85t79 -30q104 0 104 117z" />
    <glyph glyph-name="uring" unicode="&#x16f;" horiz-adv-x="1206" 
d="M141 346v627q0 57 52 57h172q51 0 51 -57v-590q0 -91 14 -119q22 -59 145 -59q111 0 162 16q25 7 39 21q15 15 15 55v676q0 57 53 57h170q51 0 51 -57v-805q0 -98 -74 -131q-152 -64 -459 -64q-308 0 -364 140q-27 67 -27 233zM805 1372q0 -97 -56 -147q-57 -51 -151 -51
q-90 0 -144 51q-55 52 -55 147q0 97 57 151t148 54q93 0 147 -54t54 -151zM715 1376q0 123 -115 123q-52 0 -83 -33q-32 -34 -32 -92q0 -56 32 -90q31 -33 85 -33q113 0 113 125z" />
    <glyph glyph-name="Uhungarumlaut" unicode="&#x170;" horiz-adv-x="1433" 
d="M1274 1391v-813q0 -164 -12 -254t-50 -154q-122 -199 -512 -199q-396 0 -495 213q-45 99 -45 389v818q0 57 55 57h180q47 0 47 -57v-879q0 -162 43 -221q57 -82 232 -82q189 0 241 78q46 64 46 221v883q0 57 55 57h166q49 0 49 -57zM573 1581q-47 -31 -96 -31
q-47 0 -92 6q-39 6 -39 37q0 26 33 56l209 186q49 43 102 43q84 0 133 -6q47 -6 47 -37q0 -35 -32 -57zM1012 1581q-48 -31 -97 -31q-47 0 -92 6q-39 6 -39 37q0 27 33 56l209 186q49 43 102 43q81 0 132 -6q47 -6 47 -37q0 -30 -33 -57z" />
    <glyph glyph-name="uhungarumlaut" unicode="&#x171;" horiz-adv-x="1206" 
d="M141 346v627q0 57 52 57h172q51 0 51 -57v-590q0 -91 14 -119q22 -59 145 -59q111 0 162 16q25 7 39 21q15 15 15 55v676q0 57 53 57h170q51 0 51 -57v-805q0 -98 -74 -131q-152 -64 -459 -64q-308 0 -364 140q-27 67 -27 233zM512 1223q-40 -37 -86 -37q-49 0 -70 6
q-41 11 -41 39q0 22 21 49l158 233q31 48 90 48q39 0 100 -7q53 -6 53 -41q0 -30 -22 -53zM868 1223q-37 -37 -84 -37q-51 0 -69 6q-41 8 -41 39q0 25 18 49l160 233q31 48 90 48q40 0 98 -7q56 -6 56 -41q0 -22 -25 -53z" />
    <glyph glyph-name="Uogonek" unicode="&#x172;" horiz-adv-x="1433" 
d="M1274 1391v-813q0 -164 -12 -254t-50 -154q-101 -163 -385 -193q-92 -67 -129 -116q-39 -51 -39 -123q0 -98 95 -98q20 0 56 3t40 3q20 0 30 -10q9 -9 15 -35q6 -27 6 -66q0 -38 -51 -53q-50 -12 -135 -12q-254 0 -254 229q0 175 166 274q-332 15 -422 211
q-45 99 -45 389v818q0 57 55 57h180q47 0 47 -57v-879q0 -162 43 -221q57 -82 232 -82q189 0 241 78q46 64 46 221v883q0 57 55 57h166q49 0 49 -57z" />
    <glyph glyph-name="uogonek" unicode="&#x173;" horiz-adv-x="1206" 
d="M141 346v627q0 57 52 57h172q51 0 51 -57v-590q0 -91 14 -119q22 -59 145 -59q111 0 162 16q25 7 39 21q15 15 15 55v676q0 57 53 57h170q51 0 51 -57v-805q0 -98 -74 -131q-55 -38 -95 -69q-33 -26 -71 -61q-42 -39 -59 -76q-16 -35 -16 -77q0 -96 90 -96q31 0 53 1
t37 1q22 0 33 -8q9 -6 14 -33q6 -41 6 -63q0 -40 -55 -52q-44 -10 -125 -10q-132 0 -190 55t-58 164q0 95 43 154q43 60 141 119q-85 -13 -207 -13q-308 0 -364 140q-27 67 -27 233z" />
    <glyph glyph-name="Wcircumflex" unicode="&#x174;" horiz-adv-x="1953" 
d="M981 1098q-48 -223 -236 -957q-22 -81 -60 -114q-37 -33 -118 -33h-75q-72 0 -113 33q-43 35 -60 110l-268 1186q-8 37 -8 74q0 43 45 47q56 8 195 8q49 0 61 -59q178 -848 219 -1112q50 261 246 1001q18 70 48 98q31 29 95 29h64q72 0 103 -26q30 -25 48 -99
q206 -820 240 -1003q38 253 213 1103q12 68 63 68q139 0 195 -8q33 -8 33 -43q0 -27 -10 -76l-265 -1184q-16 -74 -53 -110q-37 -37 -121 -37h-63q-87 0 -128 33q-40 33 -61 116q-179 729 -229 955zM748 1550q-46 0 -87 9q-45 11 -45 40q0 23 21 46l199 198q53 58 104 58h98
q44 0 92 -48l207 -215q17 -19 17 -41q0 -31 -45 -38q-47 -9 -95 -9q-46 0 -92 43l-139 125l-143 -129q-40 -39 -92 -39z" />
    <glyph glyph-name="wcircumflex" unicode="&#x175;" horiz-adv-x="1593" 
d="M801 707q-30 -131 -164 -596q-18 -69 -59 -93q-40 -24 -119 -24h-43q-129 0 -158 115l-205 802q-10 43 -10 68q0 41 41 47q53 8 190 8q46 0 58 -55q95 -388 155 -719q37 168 158 604q18 70 49 99q29 28 90 28h37q64 0 93 -25q31 -26 49 -92q136 -444 174 -614
q46 275 139 715q12 59 57 59q124 0 180 -8q41 -8 41 -45q0 -9 -12 -59l-199 -809q-16 -65 -54 -91q-42 -28 -113 -28h-43q-74 0 -110 26q-38 27 -56 91q-143 488 -166 596zM600 1180q-43 0 -76 6q-49 7 -49 41q0 20 19 45l174 233q39 54 90 54h92q51 0 86 -46l176 -239
q18 -24 18 -47q0 -35 -47 -41q-41 -6 -79 -6q-43 0 -78 41l-125 151l-121 -151q-35 -41 -80 -41z" />
    <glyph glyph-name="Ycircumflex" unicode="&#x176;" horiz-adv-x="1253" 
d="M770 59q0 -29 -16 -45t-41 -16h-172q-56 0 -56 61v541l-450 737q-27 45 -27 68q0 27 27 39q24 8 229 8q49 0 82 -57q198 -328 291 -508q75 144 293 504q34 61 84 61q178 0 207 -10q24 -10 24 -35q0 -23 -24 -66l-451 -733v-549zM401 1550q-45 0 -86 9q-45 11 -45 40
q0 23 21 46l198 198q53 58 105 58h98q44 0 92 -48l207 -215q17 -19 17 -41q0 -31 -45 -38q-47 -9 -95 -9q-46 0 -92 43l-139 125l-143 -129q-40 -39 -93 -39z" />
    <glyph glyph-name="ycircumflex" unicode="&#x177;" horiz-adv-x="1206" 
d="M141 305v668q0 57 52 57h172q51 0 51 -57v-606q0 -72 10 -101q21 -59 139 -59q103 0 172 26q28 10 39 23q15 15 15 51v666q0 57 53 57h170q51 0 51 -57v-897q0 -162 -23 -256q-44 -162 -214 -231q-169 -68 -504 -68q-37 0 -51 10q-15 10 -19 37q-8 74 -8 115q0 65 57 67
q248 7 346 38q97 30 119 91q16 48 16 119v35q-112 -60 -315 -60q-255 0 -305 131q-23 69 -23 201zM410 1180q-42 0 -76 6q-49 7 -49 41q0 21 18 45l174 233q39 54 90 54h92q52 0 86 -46l177 -239q18 -24 18 -47q0 -35 -47 -41q-39 -6 -80 -6q-43 0 -78 41l-125 151
l-121 -151q-35 -41 -79 -41z" />
    <glyph glyph-name="Ydieresis" unicode="&#x178;" horiz-adv-x="1253" 
d="M770 59q0 -29 -16 -45t-41 -16h-172q-56 0 -56 61v541l-450 737q-27 45 -27 68q0 27 27 39q24 8 229 8q49 0 82 -57q198 -328 291 -508q75 144 293 504q34 61 84 61q178 0 207 -10q24 -10 24 -35q0 -23 -24 -66l-451 -733v-549zM555 1698q0 -135 -125 -135t-125 133
q0 135 125 135t125 -133zM967 1698q0 -135 -127 -135q-123 0 -123 133q0 135 123 135q61 0 94 -30t33 -103z" />
    <glyph glyph-name="Zacute" unicode="&#x179;" horiz-adv-x="1273" 
d="M1157 0h-975q-141 0 -141 143q0 89 55 156l748 901h-682q-58 0 -58 60v122q0 27 17 46q17 18 45 18h827q89 0 135 -35t46 -119q0 -102 -74 -194l-709 -852h768q60 0 60 -56v-137q0 -53 -62 -53zM723 1581q-48 -31 -102 -31q-53 0 -97 6q-41 6 -41 35q0 23 31 51l227 193
q49 43 101 43q72 0 157 -8q54 -6 54 -39t-37 -55z" />
    <glyph glyph-name="zacute" unicode="&#x17a;" horiz-adv-x="1019" 
d="M920 0h-732q-67 0 -103 30t-36 111q0 94 60 154l516 502h-484q-57 0 -57 49v125q0 23 16 40t41 17h662q73 0 110 -33t37 -112q0 -100 -76 -172l-503 -480h555q23 0 35 -16q12 -17 12 -39v-131q0 -15 -16 -31q-14 -14 -37 -14zM596 1223q-30 -37 -90 -37q-51 0 -90 6
q-41 6 -41 39q0 26 20 49l178 233q36 48 93 48q70 0 137 -7q51 -6 51 -38q0 -20 -31 -56z" />
    <glyph glyph-name="Zdotaccent" unicode="&#x17b;" horiz-adv-x="1273" 
d="M1157 0h-975q-141 0 -141 143q0 89 55 156l748 901h-682q-58 0 -58 60v122q0 27 17 46q17 18 45 18h827q89 0 135 -35t46 -119q0 -102 -74 -194l-709 -852h768q60 0 60 -56v-137q0 -53 -62 -53zM778 1698q0 -135 -125 -135q-127 0 -127 133q0 135 127 135q125 0 125 -133
z" />
    <glyph glyph-name="zdotaccent" unicode="&#x17c;" horiz-adv-x="1019" 
d="M920 0h-732q-67 0 -103 30t-36 111q0 94 60 154l516 502h-484q-57 0 -57 49v125q0 23 16 40t41 17h662q73 0 110 -33t37 -112q0 -100 -76 -172l-503 -480h555q23 0 35 -16q12 -17 12 -39v-131q0 -15 -16 -31q-14 -14 -37 -14zM653 1346q0 -136 -125 -136q-127 0 -127 133
q0 136 127 136q125 0 125 -133z" />
    <glyph glyph-name="Zcaron" unicode="&#x17d;" horiz-adv-x="1273" 
d="M1157 0h-975q-141 0 -141 143q0 89 55 156l748 901h-682q-58 0 -58 60v122q0 27 17 46q17 18 45 18h827q89 0 135 -35t46 -119q0 -102 -74 -194l-709 -852h768q60 0 60 -56v-137q0 -53 -62 -53zM874 1907q48 0 89 -9q45 -6 45 -40q0 -23 -23 -46l-197 -200
q-56 -56 -104 -56h-98q-46 0 -92 46l-207 215q-17 19 -17 43q0 30 45 38q47 9 95 9q42 0 92 -45l139 -125l143 129q47 41 90 41z" />
    <glyph glyph-name="zcaron" unicode="&#x17e;" horiz-adv-x="1019" 
d="M920 0h-732q-67 0 -103 30t-36 111q0 94 60 154l516 502h-484q-57 0 -57 49v125q0 23 16 40t41 17h662q73 0 110 -33t37 -112q0 -100 -76 -172l-503 -480h555q23 0 35 -16q12 -17 12 -39v-131q0 -15 -16 -31q-14 -14 -37 -14zM713 1565q41 0 75 -6q50 -6 50 -41
q0 -18 -19 -43l-174 -236q-39 -51 -90 -51h-92q-32 0 -50 9t-36 36l-176 240q-19 25 -19 45q0 35 47 41q40 6 80 6q45 0 78 -41l125 -150l121 150q35 41 80 41z" />
    <glyph glyph-name="longs" unicode="&#x17f;" horiz-adv-x="587" 
d="M424 51q0 -24 -14 -38q-15 -15 -37 -15h-176q-47 0 -47 59v1063q0 219 94 303q122 110 397 115q72 0 78 -49q2 -40 2 -119q0 -51 -55 -57q-108 -11 -152 -25q-48 -15 -68 -49q-22 -37 -22 -135v-1053z" />
    <glyph glyph-name="florin" unicode="&#x192;" horiz-adv-x="1058" 
d="M887 721h-228l-51 -590q-21 -219 -110 -295q-100 -84 -305 -84q-97 0 -148 17q-35 15 -35 55q0 55 15 127q11 41 53 41q10 0 41 -4t55 -4q86 0 115 39q36 51 43 149l49 549h-164q-45 0 -45 41v86q0 43 45 43h180l15 151q18 211 110 289q95 82 303 82q108 0 156 -16
q35 -15 35 -56q0 -55 -15 -127q-7 -38 -53 -38q-10 0 -43 4t-59 4q-86 0 -119 -41q-36 -45 -43 -144l-10 -108h213q51 0 51 -43v-86q0 -41 -51 -41z" />
    <glyph glyph-name="Aringacute" unicode="&#x1fa;" horiz-adv-x="1331" 
d="M854 1550q0 -70 -37 -116q23 -11 41 -33q20 -25 28 -46q3 -9 12 -34t13 -37l394 -1169q14 -36 14 -68q0 -31 -27 -43q-23 -10 -202 -10q-29 0 -44 15q-16 16 -28 54l-105 310h-497l-101 -310q-12 -40 -26 -54q-15 -15 -43 -15q-160 0 -203 10q-29 8 -29 41q0 23 15 66
l401 1167q22 67 46 104t65 54q-33 45 -33 114q0 84 47 131q48 48 127 48t126 -47q46 -46 46 -132zM485 612h365q-140 447 -180 596q-37 -139 -185 -596zM737 1792q-36 -25 -82 -25q-32 0 -82 5q-36 4 -36 28t24 45l182 154q39 31 84 31q119 0 146 -5q37 -7 37 -34t-29 -45z
M774 1554q0 101 -96 101q-44 0 -69 -27q-25 -26 -25 -76q0 -79 63 -100h2h64q61 18 61 102z" />
    <glyph glyph-name="aringacute" unicode="&#x1fb;" horiz-adv-x="1110" 
d="M979 176q0 -67 -25 -98q-28 -32 -71 -47q-60 -21 -186 -40q-121 -18 -226 -18q-223 0 -306 89t-83 245q0 175 115 252q96 66 327 66q97 0 183 -9v52q0 64 -11 94q-24 59 -174 59q-97 0 -205 -18q-80 -12 -88 -12q-37 0 -47 38q-16 60 -16 121q0 45 45 60q152 47 350 47
q268 0 344 -82q74 -74 74 -275v-524zM707 430q-88 8 -148 8q-135 0 -176 -30q-39 -24 -39 -95q0 -64 35 -99q34 -34 125 -34q108 0 166 25q24 11 30 33q7 21 7 69v123zM774 1372q0 -94 -57 -146q-56 -52 -150 -52q-91 0 -143 52q-53 53 -53 146q0 97 55 151q56 54 147 54
q93 0 147 -54t54 -151zM686 1376q0 123 -117 123q-53 0 -85 -32q-31 -31 -31 -93q0 -60 31 -91q32 -32 87 -32q115 0 115 125zM651 1673q-40 -37 -80 -37q-21 0 -77 6q-48 8 -48 37q0 17 19 45l172 226q38 45 86 45q102 0 129 -4q39 -5 39 -39q0 -21 -23 -49z" />
    <glyph glyph-name="AEacute" unicode="&#x1fc;" horiz-adv-x="2011" 
d="M555 389l-211 -334q-37 -59 -94 -59q-123 0 -191 4q-47 2 -47 43q0 21 25 63l739 1190q51 82 104 117q50 33 138 33h844q57 0 57 -55v-144q0 -47 -57 -47h-551v-328h499q56 0 56 -55v-143q0 -49 -56 -49h-499v-301q0 -78 75 -78h510q31 0 43 -12q13 -13 13 -44v-141
q0 -49 -56 -49h-655q-102 0 -158 46q-57 46 -57 165v178h-471zM686 629h340v563q-14 -26 -340 -563zM1374 1581q-48 -31 -102 -31q-52 0 -96 6q-41 6 -41 35q0 24 30 51l228 193q49 43 100 43q73 0 158 -8q53 -6 53 -39t-37 -55z" />
    <glyph glyph-name="aeacute" unicode="&#x1fd;" horiz-adv-x="1685" 
d="M827 92q-130 -119 -372 -119q-373 0 -373 342q0 176 117 248q109 68 342 68q49 0 85 -1t81 -1v45q0 63 -11 88q-22 59 -176 59q-124 0 -221 -20q-59 -10 -74 -10q-33 0 -45 43q-12 57 -12 120q0 43 49 58q151 45 340 45q132 0 213 -28q78 -27 107 -97q43 57 130 91
q86 34 179 34q92 0 165 -17q71 -17 116 -53q48 -39 75 -80q28 -43 43 -111q16 -72 20 -132q5 -70 5 -158q0 -43 -25 -60q-12 -12 -45 -12h-569q2 -137 60 -185t181 -48q145 0 250 24q35 8 56 8q34 0 49 -45q20 -74 20 -108q0 -35 -35 -53q-122 -54 -358 -54q-262 0 -367 119
zM707 434q-39 4 -142 4q-137 0 -184 -35q-37 -28 -37 -86q0 -137 164 -137q63 0 132 18q70 18 97 44q-25 58 -30 192zM973 631h385q2 14 2 37q0 98 -37 147t-141 49q-112 0 -158 -56q-47 -57 -51 -177zM956 1223q-30 -37 -90 -37q-51 0 -90 6q-41 6 -41 39q0 25 21 49
l178 233q36 48 92 48q70 0 137 -7q51 -6 51 -38q0 -22 -30 -56z" />
    <glyph glyph-name="Oslashacute" unicode="&#x1fe;" horiz-adv-x="1441" 
d="M223 -49q-15 -21 -30 -21q-16 0 -80 47q-15 12 -15 25q0 15 15 33l98 137q-115 174 -115 559q0 226 46 374q46 149 136 228t195 109q110 31 254 31q254 0 379 -72l82 112q13 19 31 19q12 0 26 -10q66 -45 66 -62q0 -12 -13 -28l-88 -121q129 -162 129 -578
q0 -229 -36 -372q-38 -149 -119 -233q-82 -86 -195 -120q-114 -35 -280 -35q-264 0 -400 97zM1047 729q0 198 -31 313l-541 -745q69 -88 240 -88q85 0 141 18q52 17 101 72q47 53 68 159q22 110 22 271zM387 731q0 -171 25 -287l530 732q-67 61 -223 61q-114 0 -182 -38
q-69 -38 -109 -151q-41 -115 -41 -317zM791 1581q-48 -31 -103 -31q-52 0 -96 6q-41 6 -41 35q0 23 31 51l227 193q49 43 100 43q73 0 158 -8q53 -6 53 -39t-37 -55z" />
    <glyph glyph-name="oslashacute" unicode="&#x1ff;" horiz-adv-x="1155" 
d="M217 -74q-16 -16 -27 -16q-15 0 -71 41q-15 12 -15 22q0 7 15 31l69 96q-104 123 -104 416q0 163 37 271q38 112 108 167q73 58 156 80q86 23 201 23q170 0 270 -39l76 106q12 17 26 17q11 0 27 -11q55 -37 55 -55q0 -15 -8 -26l-71 -101q110 -116 110 -426
q0 -315 -118 -432q-119 -117 -382 -117q-176 0 -284 50zM631 1223q-30 -37 -90 -37q-49 0 -90 6t-41 39q0 26 20 49l178 233q36 48 92 48q68 0 138 -7q51 -6 51 -38q0 -20 -31 -56zM805 512q0 123 -19 199l-354 -488q43 -30 143 -30q129 0 179 62q51 63 51 257zM352 518
q0 -111 15 -174l340 471q-49 19 -125 19q-125 0 -178 -66q-52 -65 -52 -250z" />
    <glyph glyph-name="uni0218" unicode="&#x218;" horiz-adv-x="1193" 
d="M754 834q201 -56 273 -141q73 -87 73 -269q0 -220 -124 -335q-125 -116 -419 -116q-250 0 -430 60q-51 17 -51 63q0 24 26 121q17 53 66 53q22 0 76 -16q147 -45 319 -45q145 0 194 48q50 48 50 130q0 77 -36 118q-36 40 -157 70l-178 43q-170 41 -251 140t-81 274
q0 212 123 326q124 115 404 115q240 0 373 -43q49 -15 49 -64q0 -27 -25 -121q-11 -47 -51 -47q-29 0 -72 10q-146 27 -293 27q-124 0 -170 -46q-47 -47 -47 -130q0 -67 36 -110t142 -70zM559 -106h68q67 0 67 -78q0 -216 -127 -359q-33 -41 -67 -41q-20 0 -60 19
q-32 17 -32 49q0 24 14 51q55 105 57 281q0 78 80 78z" />
    <glyph glyph-name="uni0219" unicode="&#x219;" horiz-adv-x="931" 
d="M496 383l-150 39q-132 34 -199 104q-65 68 -65 207q0 322 416 322q197 0 301 -37q41 -12 41 -53q0 -26 -29 -134q-6 -34 -41 -34q-2 0 -55 8q-107 24 -228 24q-81 0 -107 -23q-28 -25 -28 -67q0 -34 22 -53t97 -41l139 -39q153 -44 209 -107q58 -66 58 -202
q0 -324 -422 -324q-239 0 -363 52q-37 15 -37 53q0 20 33 127q15 43 51 43q13 0 62 -15q109 -32 266 -32q145 0 145 94q0 33 -21 51q-22 19 -95 37zM453 -106h67q68 0 68 -78q0 -216 -127 -359q-33 -41 -68 -41q-19 0 -59 19q-33 18 -33 49q0 24 14 51q57 107 58 281
q0 78 80 78z" />
    <glyph glyph-name="uni021A" unicode="&#x21a;" horiz-adv-x="1253" 
d="M756 59q0 -61 -58 -61h-174q-55 0 -55 61v1141h-352q-58 0 -58 47v144q0 55 58 55h993q57 0 57 -55v-144q0 -47 -57 -47h-354v-1141zM594 -106h68q67 0 67 -78q0 -216 -127 -359q-33 -41 -67 -41q-20 0 -60 19q-33 18 -33 49q0 22 15 51q55 105 57 281q0 78 80 78z" />
    <glyph glyph-name="uni021B" unicode="&#x21b;" horiz-adv-x="747" 
d="M471 420q0 -117 37 -160q33 -40 180 -51q49 -4 49 -55q0 -62 -4 -117q-6 -53 -63 -53q-170 0 -261 24t-143 88q-42 49 -56 125q-13 71 -13 207v375h-107q-53 0 -53 53v115q0 57 57 57h109q1 58 8 213q5 64 55 64h156q49 0 49 -66v-211h178q64 0 64 -55v-115
q0 -55 -60 -55h-182v-383zM395 -106h68q67 0 67 -78q0 -216 -127 -359q-33 -41 -67 -41q-20 0 -60 19q-32 17 -32 49q0 24 14 51q55 105 57 281q0 78 80 78z" />
    <glyph glyph-name="circumflex" unicode="&#x2c6;" horiz-adv-x="403" 
d="M0 1180q-42 0 -76 6q-49 7 -49 41q0 20 19 45l174 233q39 54 90 54h92q52 0 86 -46l176 -239q18 -24 18 -47q0 -35 -47 -41q-40 -6 -80 -6q-42 0 -77 41l-125 151l-121 -151q-35 -41 -80 -41z" />
    <glyph glyph-name="caron" unicode="&#x2c7;" horiz-adv-x="403" 
d="M406 1565q40 0 75 -6q49 -6 49 -41q0 -19 -18 -43l-174 -236q-39 -51 -90 -51h-92q-33 0 -51 9q-17 8 -35 36l-176 240q-19 25 -19 45q0 35 47 41q40 6 80 6q45 0 78 -41l125 -150l121 150q35 41 80 41z" />
    <glyph glyph-name="breve" unicode="&#x2d8;" horiz-adv-x="403" 
d="M418 1524q32 0 61 -6q39 -8 39 -52q0 -47 -14 -90q-28 -99 -98 -152t-209 -53q-257 0 -297 205q-11 60 -11 80q0 52 50 60q35 8 61 8q23 0 36 -11q11 -10 17 -40q23 -125 150 -125q74 0 106 31q33 31 49 91q15 54 60 54z" />
    <glyph glyph-name="dotaccent" unicode="&#x2d9;" horiz-adv-x="403" 
d="M328 1346q0 -136 -125 -136q-127 0 -127 133q0 136 127 136q125 0 125 -133z" />
    <glyph glyph-name="ring" unicode="&#x2da;" horiz-adv-x="403" 
d="M403 1372q0 -97 -56 -147q-57 -51 -150 -51q-91 0 -145 51t-54 147q0 98 56 151q57 54 149 54t146 -54t54 -151zM313 1376q0 123 -114 123q-51 0 -83 -33q-32 -34 -32 -92q0 -56 32 -90q32 -33 85 -33q112 0 112 125z" />
    <glyph glyph-name="ogonek" unicode="&#x2db;" horiz-adv-x="403" 
d="M406 16q-120 -85 -169 -138q-49 -54 -49 -124q0 -96 91 -96q31 0 53 1t37 1q21 0 32 -8q10 -7 15 -33q6 -39 6 -63q0 -40 -55 -52q-44 -10 -125 -10q-132 0 -190 55t-58 164q0 120 63 184q61 62 185 119h164z" />
    <glyph glyph-name="tilde" unicode="&#x2dc;" horiz-adv-x="403" 
d="M-45 1196q-41 0 -57 4q-43 7 -43 45q0 17 12 55q44 100 88 147q45 48 106 48q51 0 154 -53q73 -37 109 -37q44 0 71 55q18 45 64 45q22 0 55 -4q41 -6 41 -43q0 -26 -18 -82q-62 -170 -185 -170q-56 0 -166 54q-66 36 -96 36q-43 0 -67 -49q-27 -51 -68 -51z" />
    <glyph glyph-name="hungarumlaut" unicode="&#x2dd;" horiz-adv-x="403" 
d="M8 1223q-38 -37 -86 -37q-46 0 -69 6q-41 11 -41 39q0 23 20 49l158 233q31 48 90 48q40 0 100 -7q53 -6 53 -41q0 -30 -22 -53zM365 1223q-37 -37 -84 -37q-52 0 -70 6q-41 8 -41 39q0 25 18 49l160 233q31 48 90 48q41 0 99 -7q55 -6 55 -41q0 -22 -25 -53z" />
    <glyph glyph-name="uni0394" unicode="&#x394;" horiz-adv-x="1464" 
d="M1419 94q8 -24 8 -41q0 -53 -63 -53h-1266q-61 0 -61 51q0 9 8 39l506 1233q24 61 80 61h217q56 0 78 -61zM737 1096q-41 -115 -340 -852h664q-17 44 -59 151.5t-64 164.5q-60 154 -87 225q-36 94 -53 138q-29 74 -38 101q-15 42 -23 72z" />
    <glyph glyph-name="uni03A9" unicode="&#x3a9;" horiz-adv-x="1529" 
d="M698 63q0 -37 -17 -50t-58 -13h-426q-39 0 -51 11q-13 12 -13 44v119q0 37 14 51q15 15 48 15h305q-182 69 -271 192q-88 122 -88 356q0 316 153 469q154 154 480 154q338 0 473 -150t135 -464q0 -226 -87 -355t-265 -202h299q35 0 51 -14q15 -14 15 -52v-111
q0 -39 -12 -51t-48 -12h-428q-40 0 -57 13q-19 14 -19 50v193q0 67 56 96q200 99 200 408q0 235 -72 322t-245 87q-174 0 -252 -94q-78 -95 -78 -323q0 -294 203 -402q55 -28 55 -96v-191z" />
    <glyph glyph-name="uni03BC" unicode="&#x3bc;" horiz-adv-x="1249" 
d="M436 -360q0 -58 -53 -58h-170q-51 0 -51 58v1333q0 57 51 57h172q51 0 51 -57v-590q0 -89 15 -119q24 -59 145 -59q114 0 162 16q25 6 41 21q12 12 12 55v676q0 57 55 57h168q51 0 51 -57v-809q0 -94 -73 -127q-147 -62 -396 -62q-130 0 -180 37v-372z" />
    <glyph glyph-name="pi" unicode="&#x3c0;" horiz-adv-x="1292" 
d="M498 66q0 -38 -14 -54q-13 -14 -50 -14h-141q-66 0 -66 68v731h-59q-35 0 -49 13q-15 14 -15 46v107q0 65 66 65h977q72 0 72 -65v-105q0 -61 -64 -61h-61v-412q0 -141 12 -217q12 -86 12 -107q0 -31 -10 -45t-41 -16q-49 -6 -149 -6q-34 0 -47 15q-13 14 -19 48
q-25 139 -25 324v416h-329v-731z" />
    <glyph glyph-name="Wgrave" unicode="&#x1e80;" horiz-adv-x="1953" 
d="M981 1098q-48 -223 -236 -957q-22 -81 -60 -114q-37 -33 -118 -33h-75q-72 0 -113 33q-43 35 -60 110l-268 1186q-8 37 -8 74q0 43 45 47q56 8 195 8q49 0 61 -59q178 -848 219 -1112q50 261 246 1001q18 70 48 98q31 29 95 29h64q72 0 103 -26q30 -25 48 -99
q206 -820 240 -1003q38 253 213 1103q12 68 63 68q139 0 195 -8q33 -8 33 -43q0 -27 -10 -76l-265 -1184q-16 -74 -53 -110q-37 -37 -121 -37h-63q-87 0 -128 33q-40 33 -61 116q-179 729 -229 955zM909 1581l-297 197q-34 22 -34 53q0 33 53 39q78 8 157 8q54 0 103 -43
l227 -193q29 -27 29 -51q0 -29 -39 -35q-44 -6 -96 -6q-55 0 -103 31z" />
    <glyph glyph-name="wgrave" unicode="&#x1e81;" horiz-adv-x="1593" 
d="M801 707q-30 -131 -164 -596q-18 -69 -59 -93q-40 -24 -119 -24h-43q-129 0 -158 115l-205 802q-10 43 -10 68q0 41 41 47q53 8 190 8q46 0 58 -55q95 -388 155 -719q37 168 158 604q18 70 49 99q29 28 90 28h37q64 0 93 -25q31 -26 49 -92q136 -444 174 -614
q46 275 139 715q12 59 57 59q124 0 180 -8q41 -8 41 -45q0 -9 -12 -59l-199 -809q-16 -65 -54 -91q-42 -28 -113 -28h-43q-74 0 -110 26q-38 27 -56 91q-143 488 -166 596zM715 1223l-226 237q-30 34 -30 56q0 32 51 38q70 7 137 7q56 0 92 -48l178 -233q21 -24 21 -49
q0 -31 -41 -39q-40 -6 -94 -6q-51 0 -88 37z" />
    <glyph glyph-name="Wacute" unicode="&#x1e82;" horiz-adv-x="1953" 
d="M981 1098q-48 -223 -236 -957q-22 -81 -60 -114q-37 -33 -118 -33h-75q-72 0 -113 33q-43 35 -60 110l-268 1186q-8 37 -8 74q0 43 45 47q56 8 195 8q49 0 61 -59q178 -848 219 -1112q50 261 246 1001q18 70 48 98q31 29 95 29h64q72 0 103 -26q30 -25 48 -99
q206 -820 240 -1003q38 253 213 1103q12 68 63 68q139 0 195 -8q33 -8 33 -43q0 -27 -10 -76l-265 -1184q-16 -74 -53 -110q-37 -37 -121 -37h-63q-87 0 -128 33q-40 33 -61 116q-179 729 -229 955zM1061 1581q-48 -31 -103 -31q-52 0 -96 6q-41 6 -41 35q0 23 31 51
l227 193q49 43 101 43q72 0 157 -8q54 -6 54 -39t-37 -55z" />
    <glyph glyph-name="wacute" unicode="&#x1e83;" horiz-adv-x="1593" 
d="M801 707q-30 -131 -164 -596q-18 -69 -59 -93q-40 -24 -119 -24h-43q-129 0 -158 115l-205 802q-10 43 -10 68q0 41 41 47q53 8 190 8q46 0 58 -55q95 -388 155 -719q37 168 158 604q18 70 49 99q29 28 90 28h37q64 0 93 -25q31 -26 49 -92q136 -444 174 -614
q46 275 139 715q12 59 57 59q124 0 180 -8q41 -8 41 -45q0 -9 -12 -59l-199 -809q-16 -65 -54 -91q-42 -28 -113 -28h-43q-74 0 -110 26q-38 27 -56 91q-143 488 -166 596zM881 1223q-30 -37 -90 -37q-51 0 -91 6q-41 6 -41 39q0 25 21 49l178 233q36 48 92 48q67 0 137 -7
q52 -6 52 -38q0 -20 -31 -56z" />
    <glyph glyph-name="Wdieresis" unicode="&#x1e84;" horiz-adv-x="1953" 
d="M981 1098q-48 -223 -236 -957q-22 -81 -60 -114q-37 -33 -118 -33h-75q-72 0 -113 33q-43 35 -60 110l-268 1186q-8 37 -8 74q0 43 45 47q56 8 195 8q49 0 61 -59q178 -848 219 -1112q50 261 246 1001q18 70 48 98q31 29 95 29h64q72 0 103 -26q30 -25 48 -99
q206 -820 240 -1003q38 253 213 1103q12 68 63 68q139 0 195 -8q33 -8 33 -43q0 -27 -10 -76l-265 -1184q-16 -74 -53 -110q-37 -37 -121 -37h-63q-87 0 -128 33q-40 33 -61 116q-179 729 -229 955zM899 1698q0 -135 -125 -135t-125 133q0 135 125 135t125 -133zM1311 1698
q0 -135 -127 -135q-123 0 -123 133q0 135 123 135q61 0 94 -30t33 -103z" />
    <glyph glyph-name="wdieresis" unicode="&#x1e85;" horiz-adv-x="1593" 
d="M801 707q-30 -131 -164 -596q-18 -69 -59 -93q-40 -24 -119 -24h-43q-129 0 -158 115l-205 802q-10 43 -10 68q0 41 41 47q53 8 190 8q46 0 58 -55q95 -388 155 -719q37 168 158 604q18 70 49 99q29 28 90 28h37q64 0 93 -25q31 -26 49 -92q136 -444 174 -614
q46 275 139 715q12 59 57 59q124 0 180 -8q41 -8 41 -45q0 -9 -12 -59l-199 -809q-16 -65 -54 -91q-42 -28 -113 -28h-43q-74 0 -110 26q-38 27 -56 91q-143 488 -166 596zM731 1346q0 -136 -125 -136t-125 133q0 136 125 136t125 -133zM1122 1346q0 -75 -31 -105
q-33 -31 -96 -31q-123 0 -123 133q0 136 123 136q62 0 95 -30q32 -29 32 -103z" />
    <glyph glyph-name="Ygrave" unicode="&#x1ef2;" horiz-adv-x="1253" 
d="M770 59q0 -29 -16 -45t-41 -16h-172q-56 0 -56 61v541l-450 737q-27 45 -27 68q0 27 27 39q24 8 229 8q49 0 82 -57q198 -328 291 -508q75 144 293 504q34 61 84 61q178 0 207 -10q24 -10 24 -35q0 -23 -24 -66l-451 -733v-549zM555 1581l-297 197q-35 23 -35 53
q0 33 53 39q78 8 158 8q54 0 103 -43l227 -193q29 -27 29 -51q0 -29 -39 -35q-44 -6 -97 -6q-54 0 -102 31z" />
    <glyph glyph-name="ygrave" unicode="&#x1ef3;" horiz-adv-x="1206" 
d="M141 305v668q0 57 52 57h172q51 0 51 -57v-606q0 -72 10 -101q21 -59 139 -59q103 0 172 26q28 10 39 23q15 15 15 51v666q0 57 53 57h170q51 0 51 -57v-897q0 -162 -23 -256q-44 -162 -214 -231q-169 -68 -504 -68q-37 0 -51 10q-15 10 -19 37q-8 74 -8 115q0 65 57 67
q248 7 346 38q97 30 119 91q16 48 16 119v35q-112 -60 -315 -60q-255 0 -305 131q-23 69 -23 201zM541 1223l-226 237q-30 34 -30 56q0 32 51 38q70 7 137 7q56 0 92 -48l178 -233q21 -24 21 -49q0 -31 -41 -39q-41 -6 -94 -6q-51 0 -88 37z" />
    <glyph glyph-name="endash" unicode="&#x2013;" horiz-adv-x="1134" 
d="M1012 438h-889q-53 0 -53 51v121q0 52 55 52h885q55 0 55 -52v-125q0 -47 -53 -47z" />
    <glyph glyph-name="emdash" unicode="&#x2014;" horiz-adv-x="1753" 
d="M1630 438h-1507q-53 0 -53 51v121q0 52 55 52h1503q55 0 55 -52v-125q0 -47 -53 -47z" />
    <glyph glyph-name="quoteleft" unicode="&#x2018;" horiz-adv-x="446" 
d="M225 915h-94q-76 0 -76 78q0 122 50 269q48 142 131 231q45 45 75 45q33 0 70 -22q39 -22 39 -54q0 -24 -21 -57q-90 -150 -90 -401q0 -89 -84 -89z" />
    <glyph glyph-name="quoteright" unicode="&#x2019;" horiz-adv-x="446" 
d="M219 1534h96q74 0 74 -76q0 -126 -49 -269q-50 -146 -131 -233q-39 -43 -74 -43q-37 0 -72 21q-36 22 -36 55q0 24 20 55q85 150 90 404q0 86 82 86z" />
    <glyph glyph-name="quotesinglbase" unicode="&#x201a;" horiz-adv-x="448" 
d="M219 236h96q74 0 74 -78q0 -127 -49 -270q-50 -146 -131 -230q-39 -43 -74 -43q-39 0 -72 20q-36 22 -36 54q0 26 20 57q89 152 90 401q0 89 82 89z" />
    <glyph glyph-name="quotedblleft" unicode="&#x201c;" horiz-adv-x="837" 
d="M225 915h-94q-76 0 -76 80q0 123 50 268q49 141 131 230q45 45 75 45q33 0 70 -22q39 -22 39 -54q0 -24 -21 -57q-90 -150 -90 -401q0 -89 -84 -89zM616 915h-96q-74 0 -74 80q0 125 50 270q50 146 131 228q41 45 73 45q35 0 72 -22t37 -54q0 -24 -21 -57
q-89 -150 -90 -401q0 -89 -82 -89z" />
    <glyph glyph-name="quotedblright" unicode="&#x201d;" horiz-adv-x="837" 
d="M608 1534h97q73 0 73 -76q0 -126 -49 -270q-51 -149 -131 -232q-43 -43 -74 -43q-36 0 -71 21q-37 22 -37 55q0 28 20 55q85 147 90 404q0 86 82 86zM219 1534h96q74 0 74 -76q0 -123 -50 -270q-49 -145 -130 -232q-39 -43 -74 -43q-37 0 -72 21q-36 22 -36 55
q0 28 20 55q85 141 90 404q0 86 82 86z" />
    <glyph glyph-name="quotedblbase" unicode="&#x201e;" horiz-adv-x="839" 
d="M608 236h97q73 0 73 -78q0 -124 -49 -267q-50 -144 -131 -233q-39 -43 -74 -43q-38 0 -71 20q-37 22 -37 54q0 26 20 57q89 152 90 401q0 89 82 89zM219 236h96q74 0 74 -78q0 -124 -49 -267q-50 -144 -131 -233q-39 -43 -74 -43q-39 0 -72 20q-36 22 -36 54q0 26 20 57
q89 152 90 401q0 89 82 89z" />
    <glyph glyph-name="dagger" unicode="&#x2020;" horiz-adv-x="980" 
d="M614 -125q0 -51 -47 -51h-155q-45 0 -45 51v963h-261q-40 0 -40 41v149q0 41 38 41h263v346q0 51 47 51h155q45 0 45 -51v-346h258q24 0 34 -8q9 -7 9 -31v-153q0 -39 -41 -39h-260v-963z" />
    <glyph glyph-name="daggerdbl" unicode="&#x2021;" horiz-adv-x="980" 
d="M614 -125q0 -51 -47 -51h-155q-45 0 -45 51v336h-261q-40 0 -40 41v149q0 41 38 41h263v396h-261q-40 0 -40 41v149q0 41 38 41h263v346q0 51 47 51h155q45 0 45 -51v-346h258q24 0 34 -8q9 -7 9 -31v-153q0 -39 -41 -39h-260v-396h258q25 0 34 -9t9 -30v-153
q0 -39 -41 -39h-260v-336z" />
    <glyph glyph-name="bullet" unicode="&#x2022;" horiz-adv-x="768" 
d="M666 532q0 -292 -283 -292q-281 0 -281 290q0 293 281 293q139 0 211 -66t72 -225z" />
    <glyph glyph-name="ellipsis" unicode="&#x2026;" horiz-adv-x="2101" 
d="M571 147q0 -170 -170 -170q-163 0 -163 170q0 93 47 135t123 42q163 0 163 -177zM1217 147q0 -170 -170 -170q-164 0 -164 170q0 93 47 135q46 42 123 42q164 0 164 -177zM1864 147q0 -170 -170 -170q-164 0 -164 170q0 93 46 135t122 42q166 0 166 -177z" />
    <glyph glyph-name="perthousand" unicode="&#x2030;" horiz-adv-x="2566" 
d="M733 971q0 -261 -75 -354t-261 -93q-178 0 -253 93q-74 92 -74 348q0 253 85 344q86 92 253 92q122 0 189 -32q66 -32 101 -125q35 -94 35 -273zM539 967q0 174 -27 225t-109 51q-76 0 -107 -56q-32 -58 -32 -224q0 -175 30 -229t105 -54q79 0 109 54q31 56 31 233z
M610 -31q-18 -35 -51 -35q-41 0 -53 5q-19 6 -19 22q0 17 13 43l678 1407q23 47 57 47q32 0 51 -4q25 -2 25 -22q0 -12 -19 -52zM1716 430q0 -258 -76 -352t-262 -94q-178 0 -252 93q-73 92 -73 347q0 134 23 219q23 86 71 134q47 47 103 65q57 18 139 18q122 0 189 -32
q66 -32 102 -126q36 -95 36 -272zM1520 426q0 174 -27 225t-109 51q-76 0 -107 -56q-32 -58 -32 -224q0 -174 30 -228q31 -55 105 -55q78 0 109 55q31 56 31 232zM2497 430q0 -258 -76 -352t-262 -94q-179 0 -252 93q-74 94 -74 347t85 344q86 92 253 92q121 0 188 -32
q66 -32 102 -126t36 -272zM2300 426q0 174 -27 225t-108 51q-77 0 -108 -56q-32 -58 -32 -224q0 -174 30 -228q31 -55 108 -55q76 0 107 55q30 54 30 232z" />
    <glyph glyph-name="guilsinglleft" unicode="&#x2039;" horiz-adv-x="673" 
d="M326 543l243 -322q21 -28 21 -49q0 -28 -31 -33q-63 -6 -133 -6q-39 0 -72 39l-250 309q-28 32 -28 60q0 27 22 55l250 311q40 51 80 51q72 0 131 -8q31 -5 31 -28q0 -20 -25 -56z" />
    <glyph glyph-name="guilsinglright" unicode="&#x203a;" horiz-adv-x="673" 
d="M348 547l-244 321q-20 27 -20 50q0 27 31 32q64 8 131 8q39 0 73 -40l250 -308q29 -38 29 -61q0 -26 -23 -55l-249 -312q-39 -49 -80 -49q-90 0 -131 6q-31 5 -31 31q0 19 25 55z" />
    <glyph glyph-name="fraction" unicode="&#x2044;" horiz-adv-x="172" 
d="M-201 -31q-18 -35 -51 -35q-43 0 -55 5q-19 6 -19 22q0 14 15 43l678 1407q21 47 55 47q32 0 53 -4q25 -2 25 -22q0 -12 -19 -52z" />
    <glyph glyph-name="zero.superior" unicode="&#x2070;" 
d="M733 1290q0 -260 -75 -353t-261 -93q-178 0 -253 93q-74 92 -74 347q0 253 85 344q86 92 253 92q124 0 189 -31q66 -32 101 -125q35 -94 35 -274zM539 1286q0 174 -27 225q-28 52 -109 52q-75 0 -107 -57q-32 -58 -32 -224q0 -174 30 -228q31 -55 105 -55q78 0 109 55
q31 56 31 232z" />
    <glyph glyph-name="four.superior" unicode="&#x2074;" 
d="M641 899q0 -41 -39 -41h-108q-37 0 -37 41v143h-301q-49 0 -73 18t-24 62q0 52 35 119l223 430q18 35 58 35q93 0 121 -2q22 -4 22 -23q0 -14 -10 -34l-238 -439h187v127q0 41 39 41h110q35 0 35 -39v-129h66q43 0 43 -37v-94q0 -35 -43 -35h-66v-143z" />
    <glyph glyph-name="five.superior" unicode="&#x2075;" 
d="M293 1378q19 0 58 4t71 4q148 0 210 -52t62 -210q0 -137 -80 -209q-78 -71 -266 -71q-157 0 -223 20q-33 12 -33 37q0 17 19 90q7 27 32 27q17 0 60 -8q59 -9 135 -9q87 0 122 26q34 25 34 91q0 69 -35 89t-113 20q-24 0 -68 -3q-43 -3 -59 -3q-92 0 -92 86q0 48 2 84
l14 272q5 41 39 41h426q35 0 35 -33v-96q0 -33 -39 -33h-303z" />
    <glyph glyph-name="six.superior" unicode="&#x2076;" 
d="M279 1348q65 55 188 55q142 0 202 -63t60 -214q0 -146 -76 -215q-77 -69 -239 -69q-176 0 -251 96t-75 322q0 238 86 350q85 110 291 110q109 0 182 -18q27 -6 27 -33q0 -51 -15 -96q-6 -21 -26 -21q-8 0 -66 7q-56 6 -94 6q-109 0 -149 -46q-40 -47 -45 -171zM283 1157
q0 -39 6 -72q16 -90 127 -90q68 0 99 30q32 30 32 101q0 68 -31 96q-30 27 -94 27q-102 0 -131 -47q-8 -16 -8 -45z" />
    <glyph glyph-name="seven.superior" unicode="&#x2077;" 
d="M485 1542h-379q-38 0 -38 33v96q0 33 38 33h496q107 0 107 -78q0 -40 -27 -106l-256 -619q-21 -49 -59 -49q-71 0 -121 8q-31 6 -31 33q0 26 10 49z" />
    <glyph glyph-name="eight.superior" unicode="&#x2078;" 
d="M559 1305q164 -24 164 -207q0 -132 -76 -193t-252 -61q-177 0 -250 60t-73 188q0 174 166 213q-144 35 -144 186q0 121 76 175t236 54q156 0 229 -53q72 -52 72 -172q0 -151 -148 -190zM526 1110q0 107 -129 107q-135 0 -135 -109q0 -115 135 -115q129 0 129 117z
M512 1468q0 53 -26 76t-89 23t-90 -24q-26 -23 -26 -77q0 -96 114 -96q117 0 117 98z" />
    <glyph glyph-name="nine.superior" unicode="&#x2079;" 
d="M520 1217q-64 -52 -186 -52q-139 0 -200 61q-60 60 -60 210q0 146 79 215q80 69 244 69q175 0 244 -94q70 -96 70 -321q0 -243 -85 -352t-298 -109q-135 0 -189 16q-26 7 -26 33q0 47 14 96q6 23 31 23q20 0 57 -6q72 -9 113 -9q107 0 148 50q39 48 44 170zM518 1409
q0 42 -10 78q-24 82 -121 82q-69 0 -102 -30t-33 -101q0 -70 30 -96q29 -25 95 -25q104 0 131 45q10 14 10 47z" />
    <glyph glyph-name="parenleft.superior" unicode="&#x207d;" horiz-adv-x="458" 
d="M240 1247q0 -149 28 -251q28 -103 66 -154q42 -57 102 -113q8 -8 8 -20q0 -17 -16 -29q-12 -12 -29 -12q-24 0 -49 14q-276 162 -276 565q0 396 272 559q31 17 51 17q18 0 31 -13q18 -15 18 -28q0 -14 -12 -25q-95 -83 -145 -195q-49 -110 -49 -315z" />
    <glyph glyph-name="parenright.superior" unicode="&#x207e;" horiz-adv-x="458" 
d="M217 1243q0 211 -48 319q-48 109 -146 199q-11 11 -11 21q0 16 17 28q23 13 30 13q21 0 50 -15q110 -61 191 -195q83 -137 83 -370q0 -226 -82 -360q-84 -137 -190 -199q-29 -16 -50 -16q-20 0 -30 10q-21 16 -21 31q0 12 10 22q98 84 147 197q50 115 50 315z" />
    <glyph glyph-name="n.superior" unicode="&#x207f;" horiz-adv-x="780" 
d="M285 578q0 -39 -39 -39h-119q-35 0 -35 39v477q0 61 47 78q135 53 344 53q158 0 191 -80q14 -36 14 -123v-405q0 -39 -35 -39h-123q-32 0 -32 39v364q0 40 -6 55q-10 33 -76 33t-99 -12q-8 -1 -24 -17q-8 -11 -8 -28v-395z" />
    <glyph glyph-name="zero.inferior" unicode="&#x2080;" 
d="M733 172q0 -260 -75 -353t-261 -93q-178 0 -253 93q-74 92 -74 347q0 253 85 344q86 92 253 92q122 0 189 -32q66 -32 101 -125q35 -94 35 -273zM539 168q0 174 -27 225t-109 51q-76 0 -107 -56q-32 -58 -32 -224q0 -175 30 -229t105 -54q79 0 109 54q31 56 31 233z" />
    <glyph glyph-name="one.inferior" unicode="&#x2081;" 
d="M635 -258h-393q-39 0 -39 37v90q0 37 39 37h110v495l-112 -39q-15 -6 -31 -6q-19 0 -25 21q-32 89 -32 102q0 18 20 25l164 65q59 19 106 19h17q86 0 86 -88v-594h88q39 0 39 -37v-92q0 -35 -37 -35z" />
    <glyph glyph-name="two.inferior" unicode="&#x2082;" 
d="M678 -258h-520q-51 0 -68 20q-18 21 -18 64q0 61 57 100q132 98 268 219q95 86 95 170q0 69 -36 99t-118 30q-60 0 -129 -12q-40 -8 -51 -8q-21 0 -27 18q-14 53 -14 95q0 25 30 32q102 33 246 33q174 0 234 -67q59 -66 59 -191q0 -131 -98 -229q-99 -99 -264 -211
q102 2 354 2q37 0 37 -35v-92q0 -37 -37 -37z" />
    <glyph glyph-name="three.inferior" unicode="&#x2083;" 
d="M483 188q105 -10 150 -57t45 -149q0 -125 -75 -191q-74 -65 -265 -65q-144 0 -217 20q-35 12 -35 37q0 36 20 96q6 21 31 21q8 0 14 -1q9 -1 21 -3q16 -2 18 -2q63 -11 138 -11q91 0 124 28q31 27 31 79q0 58 -32 78q-30 19 -125 24q-45 1 -61 21q-15 18 -15 61
q0 41 16 60t62 24q71 7 99 29t28 63q0 55 -29 75q-28 19 -109 19q-55 0 -118 -10q-40 -8 -49 -8q-19 0 -25 20q-14 52 -14 93q0 29 30 36q90 27 221 27q172 0 229 -54q56 -53 56 -179q0 -148 -164 -181z" />
    <glyph glyph-name="four.inferior" unicode="&#x2084;" 
d="M641 -219q0 -41 -39 -41h-108q-37 0 -37 41v143h-301q-49 0 -73 18t-24 62q0 52 35 119l223 430q18 35 58 35q93 0 121 -2q22 -4 22 -23q0 -15 -10 -35l-238 -438h187v127q0 41 39 41h110q35 0 35 -39v-129h66q43 0 43 -37v-94q0 -35 -43 -35h-66v-143z" />
    <glyph glyph-name="five.inferior" unicode="&#x2085;" 
d="M293 260q19 0 58 4t71 4q148 0 210 -52t62 -210q0 -137 -80 -209q-78 -71 -266 -71q-157 0 -223 20q-33 12 -33 37q0 17 19 90q7 27 32 27q11 0 60 -9q53 -8 135 -8q87 0 122 26q34 25 34 91q0 69 -35 89t-113 20q-10 0 -68 -4q-44 -3 -59 -3q-92 0 -92 86q0 48 2 84
l14 273q5 41 39 41h426q35 0 35 -33v-96q0 -33 -39 -33h-303z" />
    <glyph glyph-name="six.inferior" unicode="&#x2086;" 
d="M279 229q67 56 188 56q142 0 202 -63t60 -214q0 -146 -76 -215q-77 -69 -239 -69q-176 0 -251 96t-75 321q0 239 86 351q85 110 291 110q109 0 182 -18q27 -6 27 -33q0 -51 -15 -96q-6 -21 -26 -21q-17 0 -66 6q-56 6 -94 6q-109 0 -149 -46t-45 -171zM283 39
q0 -39 6 -72q17 -90 127 -90q68 0 99 30q32 30 32 101q0 67 -31 95t-94 28q-102 0 -131 -47q-8 -16 -8 -45z" />
    <glyph glyph-name="seven.inferior" unicode="&#x2087;" 
d="M485 424h-379q-38 0 -38 33v96q0 33 38 33h496q107 0 107 -78q0 -41 -27 -107l-256 -618q-21 -49 -59 -49q-71 0 -121 8q-31 6 -31 33q0 26 10 49z" />
    <glyph glyph-name="eight.inferior" unicode="&#x2088;" 
d="M559 186q164 -24 164 -206q0 -132 -76 -193t-252 -61q-177 0 -250 60t-73 187q0 174 166 213q-144 34 -144 187q0 121 76 175t236 54q156 0 229 -53q72 -53 72 -172q0 -152 -148 -191zM526 -8q0 106 -129 106q-135 0 -135 -108q0 -115 135 -115q129 0 129 117zM512 350
q0 53 -26 76t-89 23t-90 -24q-26 -23 -26 -77q0 -96 114 -96q117 0 117 98z" />
    <glyph glyph-name="nine.inferior" unicode="&#x2089;" 
d="M520 98q-63 -51 -186 -51q-139 0 -200 61q-60 60 -60 209q0 146 79 215q81 70 244 70q175 0 244 -94q70 -96 70 -322q0 -242 -85 -351t-298 -109q-135 0 -189 16q-26 7 -26 33q0 47 14 96q6 23 31 23q13 0 57 -7q64 -8 113 -8q108 0 148 49q39 48 44 170zM518 291
q0 42 -10 78q-24 82 -121 82q-69 0 -102 -30t-33 -102q0 -69 30 -95q29 -25 95 -25q104 0 131 45q10 14 10 47z" />
    <glyph glyph-name="parenleft.inferior" unicode="&#x208d;" horiz-adv-x="458" 
d="M240 129q0 -149 28 -251q28 -103 66 -154q42 -57 102 -113q8 -8 8 -21q0 -16 -16 -28q-13 -13 -29 -13q-22 0 -49 15q-276 162 -276 565q0 396 272 559q31 17 51 17q18 0 31 -13q18 -15 18 -28q0 -14 -12 -25q-94 -83 -145 -196q-49 -110 -49 -314z" />
    <glyph glyph-name="parenright.inferior" unicode="&#x208e;" horiz-adv-x="458" 
d="M217 125q0 210 -48 318q-49 110 -146 200q-11 11 -11 21q0 16 17 28q23 13 30 13q21 0 50 -15q110 -61 191 -195q83 -137 83 -370q0 -227 -82 -361q-83 -135 -190 -198q-31 -17 -50 -17t-30 11q-21 16 -21 30q0 13 10 23q98 84 147 197q50 115 50 315z" />
    <glyph glyph-name="Euro" unicode="&#x20ac;" horiz-adv-x="1329" 
d="M981 768h-393v-70v-73h393q45 0 45 -43v-50q0 -45 -45 -45h-383q21 -145 88 -208q69 -64 209 -64q114 0 235 31q52 12 62 12q23 0 35 -27q35 -97 35 -149q0 -33 -43 -49q-166 -58 -381 -58q-233 0 -361 116q-126 115 -155 396h-136q-47 0 -47 45v50q0 43 47 43h127v45
q0 54 2 98h-129q-47 0 -47 43v49q0 45 47 45h140q30 263 161 384q131 120 404 120q182 0 295 -29q45 -12 45 -51q0 -62 -29 -149q-8 -27 -37 -27q-4 0 -67 10q-75 11 -185 11q-147 0 -219 -63t-94 -206h381q45 0 45 -43v-51q0 -43 -45 -43z" />
    <glyph glyph-name="afii61289" unicode="&#x2113;" horiz-adv-x="997" 
d="M453 444q6 -137 65 -193t164 -56q78 0 154 32q45 17 55 17q42 0 57 -39q29 -75 29 -99q0 -38 -41 -59q-137 -74 -297 -74q-336 0 -410 326q-39 -27 -67 -43q-30 -12 -43 -12q-20 0 -35 12q-14 11 -37 53q-22 40 -22 64q0 35 38 55q49 29 125 80q-14 127 -14 233
q0 271 45 406q84 262 377 262q162 0 240 -82q77 -81 77 -227q0 -186 -147 -375q-90 -110 -313 -281zM420 676q131 109 201 201q77 104 77 206q0 119 -114 119q-92 0 -131 -84q-37 -78 -37 -291q0 -35 4 -151z" />
    <glyph glyph-name="trademark" unicode="&#x2122;" horiz-adv-x="1656" 
d="M442 782q0 -39 -39 -39h-86q-36 0 -36 39v523h-162q-35 0 -35 32v72q0 37 35 37h483q37 0 37 -35v-74q0 -32 -37 -32h-160v-523zM920 782q0 -39 -33 -39h-90q-33 0 -33 41v553q0 111 100 111h53q70 0 97 -70q79 -191 114 -293q23 72 109 285q29 78 104 78h50
q90 0 90 -109v-553q0 -43 -37 -43h-88q-33 0 -33 41q0 430 4 514q-19 -65 -129 -362q-16 -43 -59 -43h-27q-42 0 -63 45q-107 275 -134 360q5 -192 5 -516z" />
    <glyph glyph-name="Omega" unicode="&#x2126;" horiz-adv-x="1529" 
d="M698 63q0 -37 -17 -50t-58 -13h-426q-39 0 -51 11q-13 12 -13 44v119q0 37 14 51q15 15 48 15h305q-182 69 -271 192q-88 122 -88 356q0 316 153 469q154 154 480 154q338 0 473 -150t135 -464q0 -226 -87 -355t-265 -202h299q35 0 51 -14q15 -14 15 -52v-111
q0 -39 -12 -51t-48 -12h-428q-40 0 -57 13q-19 14 -19 50v193q0 67 56 96q200 99 200 408q0 235 -72 322t-245 87q-174 0 -252 -94q-78 -95 -78 -323q0 -294 203 -402q55 -28 55 -96v-191z" />
    <glyph glyph-name="estimated" unicode="&#x212e;" horiz-adv-x="1730" 
d="M1645 688h-1262q-12 0 -12 -8v-399q0 -22 20 -45q195 -218 477 -218q302 0 500 242h117q-112 -132 -273 -208q-163 -77 -346 -77q-323 0 -552 215q-228 214 -228 519q0 302 228 517q227 214 552 214q324 0 551 -214q228 -215 228 -517v-21zM1362 741v400q0 26 -23 49
q-201 207 -471 207q-277 0 -475 -215q-22 -18 -22 -49v-392q0 -10 12 -10h967q12 0 12 10z" />
    <glyph glyph-name="onethird" unicode="&#x2153;" horiz-adv-x="1783" 
d="M1462 446q105 -10 150 -57q45 -46 45 -149q0 -125 -75 -191q-74 -65 -265 -65q-144 0 -217 20q-35 12 -35 37q0 36 20 96q6 21 31 21q7 0 13 -1t22 -3t18 -2q63 -11 138 -11q91 0 124 28q31 27 31 79q0 58 -32 78q-30 19 -125 24q-45 1 -61 21q-15 18 -15 61q0 42 16 61
q16 18 62 23q71 7 99 29t28 63q0 55 -29 75q-28 19 -109 19q-55 0 -118 -10q-40 -8 -50 -8q-18 0 -24 21q-14 52 -14 92q0 29 30 37q87 26 221 26q172 0 229 -54q56 -53 56 -179q0 -148 -164 -181zM606 541h-393q-39 0 -39 34v93q0 37 39 37h111v495l-113 -41q-15 -6 -31 -6
q-18 0 -24 21q-33 90 -33 102q0 20 20 27l164 63q50 20 107 20h16q86 0 86 -90v-591h88q39 0 39 -37v-95q0 -32 -37 -32zM575 -31q-18 -35 -51 -35q-43 0 -55 5q-18 6 -18 22t14 43l678 1407q21 47 55 47q32 0 53 -4q25 -2 25 -22q0 -12 -19 -52z" />
    <glyph glyph-name="twothirds" unicode="&#x2154;" horiz-adv-x="1783" 
d="M653 -31q-18 -35 -51 -35q-43 0 -55 5q-19 6 -19 22q0 14 15 43l678 1407q21 47 55 47q32 0 53 -4q25 -2 25 -22q0 -12 -19 -52zM705 541h-521q-50 0 -67 20q-19 22 -19 64q0 60 58 100q132 98 268 219q94 85 94 170q0 68 -36 98q-37 31 -117 31q-57 0 -129 -12
q-40 -8 -52 -8q-20 0 -26 18q-15 57 -15 94q0 25 31 33q102 33 246 33q173 0 233 -68q60 -67 60 -190q0 -131 -99 -230t-264 -211q153 3 355 3q36 0 36 -35v-92q0 -37 -36 -37zM1507 446q105 -10 150 -57q45 -46 45 -149q0 -125 -75 -191q-74 -65 -265 -65q-144 0 -217 20
q-35 12 -35 37q0 36 20 96q6 21 31 21q8 0 14 -1q9 -1 21 -3q16 -2 18 -2q63 -11 138 -11q91 0 124 28q31 27 31 79q0 58 -32 78q-30 19 -125 24q-45 1 -61 21q-15 18 -15 61q0 42 16 61q16 18 62 23q71 7 99 29t28 63q0 55 -29 75q-28 19 -109 19q-55 0 -118 -10
q-40 -8 -49 -8q-19 0 -25 21q-14 52 -14 92q0 29 30 37q87 26 221 26q172 0 229 -54q56 -53 56 -179q0 -148 -164 -181z" />
    <glyph glyph-name="oneeighth" unicode="&#x215b;" horiz-adv-x="1783" 
d="M1522 444q164 -24 164 -206q0 -132 -76 -193t-252 -61t-250 60t-74 187q0 174 166 213q-143 34 -143 187q0 121 76 175q77 54 235 54q156 0 229 -53q72 -52 72 -172q0 -152 -147 -191zM580 541h-394q-39 0 -39 34v93q0 37 39 37h111v495l-113 -41q-16 -6 -30 -6
q-19 0 -25 21q-33 90 -33 102q0 20 21 27l164 63q50 20 106 20h16q86 0 86 -90v-591h89q38 0 38 -37v-95q0 -32 -36 -32zM549 -31q-18 -35 -51 -35q-44 0 -56 5q-18 6 -18 22t14 43l678 1407q21 47 55 47q33 0 54 -4q24 -2 24 -22q0 -14 -18 -52zM1489 250q0 106 -129 106
q-135 0 -135 -108q0 -115 135 -115q129 0 129 117zM1475 608q0 53 -26 76t-89 23t-90 -24t-27 -77q0 -96 115 -96q117 0 117 98z" />
    <glyph glyph-name="threeeighths" unicode="&#x215c;" horiz-adv-x="1783" 
d="M590 -31q-18 -35 -51 -35q-44 0 -56 5q-18 6 -18 22t14 43l678 1407q21 47 55 47q33 0 54 -4q24 -2 24 -22q0 -14 -18 -52zM500 987q104 -10 149 -57q45 -46 45 -150q0 -125 -74 -190q-75 -66 -266 -66q-140 0 -217 21q-35 12 -35 37q0 33 21 96q6 20 31 20q7 0 13 -1
q9 -1 21 -3q16 -2 19 -2q57 -10 137 -10q91 0 124 28q32 27 32 78q0 57 -33 78q-32 20 -125 25q-45 1 -60 20q-16 19 -16 62q0 40 17 60t61 24q73 8 99 28q28 22 28 64q0 55 -29 75q-28 19 -108 19q-56 0 -119 -10q-40 -8 -49 -8q-19 0 -25 20q-14 52 -14 92q0 29 31 37
q90 27 221 27q171 0 228 -54t57 -180q0 -147 -164 -180zM1524 444q164 -24 164 -206q0 -132 -76 -193t-252 -61t-250 60t-74 187q0 174 166 213q-143 34 -143 187q0 121 76 175q77 54 235 54q156 0 229 -53q72 -52 72 -172q0 -152 -147 -191zM1491 250q0 106 -129 106
q-135 0 -135 -108q0 -115 135 -115q129 0 129 117zM1477 608q0 53 -26 76t-89 23t-90 -24t-27 -77q0 -96 115 -96q117 0 117 98z" />
    <glyph glyph-name="fiveeighths" unicode="&#x215d;" horiz-adv-x="1783" 
d="M598 -31q-18 -35 -51 -35q-43 0 -55 5q-19 6 -19 22t14 43l678 1407q21 47 56 47q32 0 53 -4q24 -2 24 -22q0 -14 -18 -52zM309 1059q20 0 59 4t70 4q148 0 210 -52q63 -53 63 -210q0 -137 -80 -209q-79 -72 -266 -72q-155 0 -224 21q-32 12 -32 37q0 21 18 90
q7 26 33 26q16 0 59 -8q53 -8 135 -8q87 0 122 26q34 25 34 91q0 69 -35 89q-34 19 -113 19q-24 0 -68 -3t-58 -3q-93 0 -93 86q0 48 2 84l15 272q5 41 39 41h426q34 0 34 -32v-97q0 -32 -38 -32h-304zM1530 444q164 -24 164 -206q0 -132 -76 -193t-252 -61t-250 60t-74 187
q0 174 166 213q-143 34 -143 187q0 121 76 175q77 54 235 54q157 0 230 -53q71 -52 71 -172q0 -152 -147 -191zM1497 250q0 106 -129 106q-135 0 -135 -108q0 -115 135 -115q129 0 129 117zM1483 608q0 53 -26 76t-89 23t-90 -24t-27 -77q0 -96 115 -96q117 0 117 98z" />
    <glyph glyph-name="seveneighths" unicode="&#x215e;" horiz-adv-x="1783" 
d="M502 -31q-18 -35 -51 -35q-44 0 -56 5q-18 6 -18 22t14 43l678 1407q21 47 55 47q33 0 54 -4q24 -2 24 -22q0 -14 -18 -52zM514 1223h-379q-39 0 -39 32v97q0 32 39 32h496q106 0 106 -77q0 -43 -26 -107l-256 -618q-21 -50 -60 -50q-65 0 -121 9q-30 6 -30 32
q0 27 10 50zM1452 444q164 -24 164 -206q0 -132 -76 -193t-252 -61t-250 60q-73 60 -73 187q0 174 165 213q-143 34 -143 187q0 121 76 175q77 54 235 54q157 0 230 -53q71 -52 71 -172q0 -152 -147 -191zM1419 250q0 106 -129 106q-135 0 -135 -108q0 -115 135 -115
q129 0 129 117zM1405 608q0 53 -26 76t-89 23t-90 -24q-26 -23 -26 -77q0 -96 114 -96q117 0 117 98z" />
    <glyph glyph-name="arrowleft" unicode="&#x2190;" horiz-adv-x="1572" 
d="M1409 817q92 0 92 -78v-100q0 -80 -82 -80q-801 0 -940 4l367 -340q41 -38 41 -76q0 -30 -21 -51l-57 -63q-23 -25 -55 -29q-29 0 -56 27l-604 596q-24 24 -24 61q0 38 24 60l613 608q24 24 53 24q27 0 53 -26l53 -60q27 -30 27 -53q0 -32 -29 -61l-383 -367q135 4 928 4
z" />
    <glyph glyph-name="arrowup" unicode="&#x2191;" horiz-adv-x="1572" 
d="M657 92q0 742 5 909q-69 -76 -369 -364q-29 -29 -60 -29q-23 0 -51 23l-57 55q-27 27 -27 55q0 31 27 58l608 606q27 27 58 27t59 -25l600 -602q25 -28 25 -55q0 -31 -27 -58l-59 -59q-24 -21 -48 -21q-38 0 -77 39q-271 271 -344 353q4 -136 4 -920q0 -84 -76 -84h-115
q-76 0 -76 92z" />
    <glyph glyph-name="arrowright" unicode="&#x2192;" horiz-adv-x="1572" 
d="M164 817q792 0 928 -4q-32 30 -385 367q-29 29 -29 59q0 27 24 55l58 60q23 26 53 26q26 0 53 -24l613 -608q24 -24 24 -60q0 -38 -24 -61l-607 -596q-30 -25 -53 -25q-31 0 -55 27l-59 63q-23 23 -23 49q0 39 39 78l371 340q-136 -4 -940 -4q-36 0 -58 21t-22 59v100
q0 78 92 78z" />
    <glyph glyph-name="arrowdown" unicode="&#x2193;" horiz-adv-x="1572" 
d="M657 1288q0 94 76 94h115q35 0 55 -23q21 -24 21 -61q0 -784 -4 -919l346 352q39 39 75 39q28 0 48 -20l59 -60q27 -27 27 -55q0 -27 -25 -57l-600 -603q-29 -26 -59 -26q-29 0 -58 26l-610 611q-25 25 -25 55q0 28 27 55l59 56q26 22 49 22q33 0 62 -29
q245 -234 367 -364q-5 168 -5 907z" />
    <glyph glyph-name="uni2196" unicode="&#x2196;" horiz-adv-x="1572" 
d="M1343 340q35 -35 35 -66q0 -33 -28 -61q-58 -62 -84 -83q-21 -17 -43 -17q-30 0 -58 28q-512 502 -651 656q10 -263 10 -500q0 -50 -22 -76q-20 -20 -51 -20h-93q-39 0 -59 20q-18 18 -18 62v845q0 38 24 62q26 22 70 22h852q39 0 57 -18q19 -19 19 -59v-82
q0 -39 -19 -58q-17 -20 -63 -20q-318 0 -537 8z" />
    <glyph glyph-name="uni2197" unicode="&#x2197;" horiz-adv-x="1572" 
d="M414 150q-35 -35 -66 -35q-34 0 -57 26q-67 67 -82 89q-16 23 -16 44q0 34 26 60l670 643q-331 -12 -516 -12q-49 0 -72 22q-20 20 -20 51v97q0 41 18 59q17 18 59 18h844q44 0 66 -24q22 -22 22 -70v-848q0 -43 -18 -61q-19 -19 -58 -19h-88q-36 0 -55 19q-20 20 -20 65
q0 406 8 512q-151 -158 -645 -636z" />
    <glyph glyph-name="uni2198" unicode="&#x2198;" horiz-adv-x="1572" 
d="M229 1040q-34 34 -34 70q0 30 26 57q57 63 84 83q24 18 45 18q29 0 58 -29q480 -469 653 -655q-12 331 -12 499q0 50 22 76q21 21 51 21h95q33 0 57 -21q18 -21 18 -61v-844q0 -32 -24 -61q-23 -25 -70 -25h-852q-37 0 -57 20q-19 19 -19 58v82q0 38 19 57q21 21 63 21
q290 0 537 -9z" />
    <glyph glyph-name="uni2199" unicode="&#x2199;" horiz-adv-x="1572" 
d="M1161 1233q33 33 62 33q32 0 77 -47q78 -78 78 -111q0 -36 -30 -66l-666 -643q134 11 526 11q43 0 68 -23q20 -17 20 -53v-90q0 -35 -20 -58q-20 -20 -57 -20h-852q-37 0 -64 27q-24 28 -24 67v844q0 36 20 59q21 21 57 21h90q36 0 54 -21q22 -22 22 -69q0 -264 -10 -508
q154 164 649 647z" />
    <glyph glyph-name="partialdiff" unicode="&#x2202;" horiz-adv-x="1153" 
d="M784 819q-6 236 -65 317q-60 83 -195 83q-102 0 -190 -27q-22 -8 -41 -8q-46 0 -57 41q-15 49 -15 78q0 46 47 63q120 43 299 43q173 0 270 -63q96 -62 148 -237q51 -173 51 -488t-111 -482q-111 -166 -386 -166q-207 0 -319 103q-111 102 -111 344q0 244 113 353
q115 110 331 110q158 0 231 -64zM795 610q-72 84 -224 84q-119 0 -177 -55t-58 -205t53 -211q52 -59 164 -59q97 0 147 39q50 40 74 145q21 95 21 262z" />
    <glyph glyph-name="Delta" unicode="&#x2206;" horiz-adv-x="1464" 
d="M1417 98q8 -24 8 -43q0 -55 -65 -55h-1256q-65 0 -65 53q0 20 10 43l502 1227q24 61 80 61h217q56 0 78 -61zM737 1096q-45 -127 -340 -852h664q-307 795 -324 852z" />
    <glyph glyph-name="product" unicode="&#x220f;" horiz-adv-x="1472" 
d="M465 -201q0 -39 -15 -55t-55 -16h-137q-38 0 -55 15t-17 54v1514q0 73 76 73h950q74 0 74 -77v-1506q0 -42 -14 -57q-15 -16 -53 -16h-146q-39 0 -54 15t-15 54v1344h-539v-1342z" />
    <glyph glyph-name="summation" unicode="&#x2211;" horiz-adv-x="1245" 
d="M1094 -270h-877q-149 0 -149 149q0 66 17 104q20 44 60 93l414 510l-412 506q-49 61 -49 131q0 161 144 161h833q40 0 58 -15t18 -56v-113q0 -37 -17 -48q-16 -11 -65 -11h-627l396 -469q34 -43 34 -84q0 -48 -45 -94l-448 -519h719q43 0 60 -13q18 -14 18 -52v-123
q0 -36 -19 -47q-17 -10 -63 -10z" />
    <glyph glyph-name="minus" unicode="&#x2212;" horiz-adv-x="1435" 
d="M1251 573q0 -65 -55 -65h-956q-56 0 -56 65v64q0 65 56 65h956q55 0 55 -65v-64z" />
    <glyph glyph-name="uni2215" unicode="&#x2215;" horiz-adv-x="172" 
d="M-201 -31q-18 -35 -51 -35q-43 0 -55 5q-19 6 -19 22q0 14 15 43l678 1407q21 47 55 47q32 0 53 -4q25 -2 25 -22q0 -12 -19 -52z" />
    <glyph glyph-name="uni2219" unicode="&#x2219;" horiz-adv-x="499" 
d="M406 549q0 -162 -158 -162q-67 0 -111 37q-45 38 -45 123q0 166 160 166q72 0 113 -35t41 -129z" />
    <glyph glyph-name="radical" unicode="&#x221a;" horiz-adv-x="1300" 
d="M750 -315q-11 -31 -24 -43q-15 -13 -40 -13h-108q-26 0 -40 11q-15 12 -26 36l-250 478l-82 -37q-26 -13 -43 -13q-26 0 -41 35q-28 56 -28 80q0 28 43 49l204 92q31 13 50 13q26 0 49 -41l219 -426l430 1468q15 56 65 56q40 0 84 -7q45 -7 45 -43q0 -19 -8 -45z" />
    <glyph glyph-name="infinity" unicode="&#x221e;" horiz-adv-x="1495" 
d="M748 737q88 101 165 144q83 47 185 47q130 0 213 -90q82 -89 82 -232q0 -148 -85 -239q-87 -93 -227 -93q-96 0 -170 47q-73 46 -163 148q-91 -101 -166 -147q-79 -48 -179 -48q-135 0 -218 84q-83 85 -83 234q0 152 87 244t225 92q97 0 171 -46q75 -46 163 -145z
M639 602q-73 85 -117 119q-46 35 -108 35q-65 0 -105 -43q-41 -44 -41 -115q0 -65 41 -109q40 -43 101 -43q64 0 114 37q55 40 115 119zM858 604q72 -87 121 -123q47 -35 102 -35q63 0 104 42q40 41 40 110q0 75 -37 115q-38 41 -103 41q-104 0 -227 -150z" />
    <glyph glyph-name="integral" unicode="&#x222b;" horiz-adv-x="694" 
d="M272 -20q0 81 -4 161l-37 852q-4 88 -4 166q0 293 291 293q60 0 100 -6q58 -6 58 -53t-8 -84q-6 -27 -19 -35t-39 -8q-11 0 -30 1t-52 1q-94 0 -94 -133q0 -63 4 -136l37 -858q4 -95 4 -180q0 -153 -78 -222t-229 -69q-57 0 -84 6q-45 8 -45 50q0 26 8 79q8 54 55 54
q1 0 5 -0.5t10.5 -1t13.5 -0.5q32 -2 41 -2q49 0 72 26q24 27 24 99z" />
    <glyph glyph-name="approxequal" unicode="&#x2248;" horiz-adv-x="1435" 
d="M336 274q-28 -32 -57 -32q-30 0 -68 34q-31 31 -31 56q0 30 19 49q147 176 303 176q92 0 237 -80q106 -61 189 -61q86 0 168 88q38 41 59 41q25 0 68 -37q32 -26 32 -55q0 -25 -20 -52q-69 -89 -140 -135q-71 -45 -169 -45q-112 0 -236 72q-121 67 -188 67
q-89 0 -166 -86zM336 745q-30 -34 -57 -34q-32 0 -70 37q-29 29 -29 53q0 29 19 51q150 176 303 176q86 0 237 -82q112 -61 189 -61q99 0 168 90q30 39 59 39q27 0 68 -35q32 -28 32 -55t-20 -54q-69 -89 -140 -135q-71 -45 -169 -45q-112 0 -236 72q-123 69 -188 69
q-88 0 -166 -86z" />
    <glyph glyph-name="notequal" unicode="&#x2260;" horiz-adv-x="1435" 
d="M532 59q-21 -45 -61 -45q-39 0 -59 4q-35 6 -35 33q0 14 12 43l105 199h-254q-56 0 -56 65v58q0 63 56 63h340l120 248h-460q-56 0 -56 64v59q0 63 56 63h553l104 207q16 30 26 39q11 10 38 10q34 0 61 -6q29 -6 29 -33q0 -18 -11 -43l-90 -174h246q55 0 55 -63v-59
q0 -64 -55 -64h-336l-121 -248h457q55 0 55 -63v-58q0 -65 -55 -65h-547z" />
    <glyph glyph-name="lessequal" unicode="&#x2264;" horiz-adv-x="1435" 
d="M1176 63q0 -63 -58 -63h-821q-57 0 -57 63v60q0 63 57 63h821q58 0 58 -63v-60zM455 819l669 -264q54 -23 54 -74q0 -67 -4 -92q-8 -51 -46 -51q-16 0 -36 10l-803 346q-49 22 -49 80v84q0 59 49 80l801 352q23 10 43 10q31 0 38 -49q7 -38 7 -96q0 -43 -54 -65z" />
    <glyph glyph-name="greaterequal" unicode="&#x2265;" horiz-adv-x="1435" 
d="M1194 63q0 -63 -53 -63h-824q-55 0 -55 63v60q0 63 55 63h824q53 0 53 -63v-60zM981 819l-670 264q-53 23 -53 72q0 67 4 94q8 51 45 51q8 0 37 -10l803 -346q49 -22 49 -80v-86q0 -57 -49 -78l-801 -352q-26 -10 -43 -10q-31 0 -39 47q-6 38 -6 98q0 45 53 66z" />
    <glyph glyph-name="lozenge" unicode="&#x25ca;" horiz-adv-x="1470" 
d="M610 1378q21 47 76 47h111q47 0 71 -47l303 -612q13 -26 13 -49q0 -27 -13 -51l-305 -619q-23 -47 -71 -47h-111q-50 0 -74 47l-315 619q-12 28 -12 51q0 25 12 49zM494 715l249 -498l240 500l-244 500z" />
    <glyph glyph-name="commaaccent" unicode="&#xf6c3;" horiz-adv-x="378" 
d="M199 -106h67q68 0 68 -78q0 -216 -127 -359q-33 -41 -68 -41q-19 0 -59 19q-33 18 -33 49q0 24 14 51q57 107 58 281q0 78 80 78z" />
    <glyph glyph-name="Dotlessi" horiz-adv-x="630" 
d="M457 59q0 -61 -58 -61h-172q-53 0 -53 61v1327q0 62 55 62h177q51 0 51 -59v-1330z" />
    <glyph glyph-name="Euro.denominator" horiz-adv-x="878" 
d="M643 465h-240v-39v-41h240q31 0 31 -29v-34q0 -29 -31 -29h-231q15 -82 55 -115q41 -33 123 -33q63 0 145 19q35 8 39 8q16 0 23 -16q22 -59 22 -103q0 -23 -28 -33q-103 -34 -246 -34q-147 0 -227 68q-81 69 -99 239h-86q-29 0 -29 29v32q0 31 29 31h80v25v55h-80
q-29 0 -29 29v34q0 27 29 27h88q21 160 105 232q85 73 254 73q122 0 190 -18q29 -8 29 -35q0 -49 -21 -100q-8 -19 -22 -19q-7 0 -12 1q-10 2 -16 3q-12 2 -15 2q-53 6 -113 6q-88 0 -130 -32q-43 -32 -58 -113h231q31 0 31 -27v-34q0 -29 -31 -29z" />
    <glyph glyph-name="Euro.inferior" horiz-adv-x="878" 
d="M643 207h-240v-39v-41h240q31 0 31 -29v-35q0 -28 -31 -28h-231q15 -80 55 -114t123 -34q63 0 145 19q35 8 39 8q16 0 23 -16q22 -59 22 -103q0 -23 -28 -33q-103 -34 -246 -34q-146 0 -227 69t-99 238h-86q-29 0 -29 28v33q0 31 29 31h80v25v55h-80q-29 0 -29 29v34
q0 27 29 27h88q21 160 105 232q85 73 254 73q122 0 190 -18q29 -8 29 -35q0 -49 -21 -100q-8 -19 -22 -19q-7 0 -12 1q-10 2 -16 3q-12 2 -15 2q-53 6 -113 6q-88 0 -130 -32q-43 -32 -58 -113h231q31 0 31 -27v-34q0 -29 -31 -29z" />
    <glyph glyph-name="Euro.numerator" horiz-adv-x="878" 
d="M643 1006h-240v-39v-41h240q31 0 31 -29v-35q0 -28 -31 -28h-231q15 -82 55 -115q41 -33 123 -33q63 0 145 19q35 8 39 8q15 0 23 -17q22 -59 22 -102q0 -26 -28 -33q-96 -35 -246 -35q-146 0 -227 69t-99 239h-86q-29 0 -29 28v33q0 31 29 31h80v24v56h-80q-29 0 -29 28
v35q0 27 29 27h88q21 160 105 232q85 73 254 73q119 0 190 -19q29 -8 29 -34q0 -50 -21 -101q-8 -18 -22 -18q-7 0 -12 1q-10 2 -16 3q-12 2 -15 2q-51 6 -113 6q-86 0 -130 -33q-43 -33 -58 -112h231q31 0 31 -27v-35q0 -28 -31 -28z" />
    <glyph glyph-name="Euro.oldstyle" horiz-adv-x="1308" 
d="M981 684h-387v-66v-67h387q43 0 43 -41v-49q0 -41 -43 -41h-375q21 -117 81 -168t181 -51q123 0 224 20q34 6 53 6q25 0 35 -26q24 -73 24 -138q0 -34 -41 -49q-137 -41 -354 -41q-216 0 -335 101q-117 100 -146 346h-127q-41 0 -41 41v47q0 43 41 43h118v43q0 33 3 90
h-121q-41 0 -41 43v45q0 43 41 43h131q33 230 157 333t377 103q179 0 277 -22q41 -8 41 -51q0 -40 -25 -138q-7 -26 -41 -26q-18 0 -74 8q-67 8 -163 8q-126 0 -190 -50q-62 -48 -83 -165h373q43 0 43 -41v-47q0 -43 -43 -43z" />
    <glyph glyph-name="Euro.superior" horiz-adv-x="878" 
d="M643 1325h-240v-39v-41h240q31 0 31 -28v-35q0 -29 -31 -29h-231q15 -82 55 -115q39 -32 123 -32q67 0 145 18q35 8 39 8q16 0 23 -16q22 -59 22 -103q0 -22 -28 -32q-107 -35 -246 -35q-147 0 -227 68q-81 69 -99 239h-86q-29 0 -29 29v32q0 31 29 31h80v25v55h-80
q-29 0 -29 29v35q0 26 29 26h88q21 161 105 233t254 72q122 0 190 -18q29 -8 29 -35q0 -49 -21 -100q-8 -19 -22 -19q-7 0 -12 1q-10 2 -16 3q-12 2 -15 2q-59 7 -113 7q-86 0 -130 -33q-43 -32 -58 -113h231q31 0 31 -26v-35q0 -29 -31 -29z" />
    <glyph glyph-name="Kgreenlandic" horiz-adv-x="1554" 
d="M1339 903q-36 0 -52 16q-15 15 -15 52q0 127 51 271q50 142 131 226q43 43 70 43q32 0 65 -20q37 -21 37 -49q0 -31 -20 -58q-99 -140 -99 -401q0 -80 -80 -80h-88zM457 59q0 -61 -58 -61h-172q-53 0 -53 61v1327q0 62 55 62h177q51 0 51 -59v-519h127q67 0 94 41
l301 490q28 49 76 49q108 0 174 -6q43 -6 43 -43q0 -25 -21 -58q-274 -443 -374 -583l411 -649q29 -41 29 -68q0 -39 -43 -43q-55 -4 -205 -4q-41 0 -70 45l-342 549q-23 35 -82 35h-118v-566z" />
    <glyph glyph-name="S_S" horiz-adv-x="2387" 
d="M754 834q201 -56 273 -141q73 -87 73 -269q0 -220 -124 -335q-125 -116 -419 -116q-250 0 -430 60q-51 17 -51 63q0 24 26 121q17 53 66 53q22 0 76 -16q147 -45 319 -45q145 0 194 48q50 48 50 130q0 77 -36 118q-36 40 -157 70l-178 43q-170 41 -251 140t-81 274
q0 212 123 326q124 115 404 115q240 0 373 -43q49 -15 49 -64q0 -27 -25 -121q-11 -47 -51 -47q-29 0 -72 10q-146 27 -293 27q-124 0 -170 -46q-47 -47 -47 -130q0 -67 36 -110t142 -70zM1944 834q201 -56 273 -141q73 -87 73 -269q0 -220 -124 -335q-125 -116 -419 -116
q-250 0 -430 60q-51 17 -51 63q0 24 26 121q17 53 66 53q22 0 76 -16q147 -45 319 -45q145 0 194 48q50 48 50 130q0 77 -36 118q-36 40 -157 70l-178 43q-170 41 -251 140t-81 274q0 212 123 326q124 115 404 115q235 0 372 -44q50 -15 50 -63q0 -27 -25 -121
q-11 -47 -51 -47q-28 0 -72 10q-145 27 -293 27q-124 0 -170 -46q-47 -47 -47 -130q0 -67 36 -110t142 -70z" />
    <glyph glyph-name="a.superior" horiz-adv-x="720" 
d="M635 655q0 -50 -17 -67q-17 -21 -47 -29q-107 -35 -266 -35q-141 0 -194 56q-54 57 -54 149q0 108 74 158q60 39 205 39q64 0 108 -2v24q0 34 -6 49q-16 31 -100 31q-62 0 -123 -8q-12 0 -33 -4t-30 -4q-21 0 -31 26q-12 38 -12 80q0 29 30 41q79 27 223 27
q176 0 226 -51q47 -47 47 -168v-312zM444 799q-21 4 -82 4q-70 0 -102 -19q-20 -14 -20 -51q0 -71 90 -71q63 0 94 14q12 6 16 20q4 11 4 43v60z" />
    <glyph glyph-name="acute.cap" horiz-adv-x="403" 
d="M156 1581q-48 -31 -103 -31q-53 0 -96 6q-41 6 -41 35q0 23 31 51l227 193q49 43 100 43q73 0 158 -8q53 -6 53 -39t-36 -55z" />
    <glyph glyph-name="b.superior" horiz-adv-x="768" 
d="M92 641v793q0 41 37 41h119q37 0 37 -41v-293q69 45 196 45q117 0 171 -75q55 -76 55 -243q0 -202 -78 -273q-79 -71 -252 -71q-145 0 -232 29q-33 7 -45 37q-8 16 -8 51zM285 727q0 -27 6 -33q6 -8 24 -12q30 -6 64 -6q84 0 109 37q26 38 26 143q0 100 -19 137t-83 37
q-78 0 -111 -20q-12 -8 -14 -15q-2 -10 -2 -24v-244z" />
    </font>
</defs>
</svg>
