<?xml version="1.0" standalone="no"?>
<!DOCTYPE svg PUBLIC "-//W3C//DTD SVG 1.1//EN" "http://www.w3.org/Graphics/SVG/1.1/DTD/svg11.dtd" >
<svg xmlns="http://www.w3.org/2000/svg" xmlns:xlink="http://www.w3.org/1999/xlink" version="1.1">
<metadata>
Created by FontForge 20170731 at Sun Apr 18 19:44:26 2021
 By Aleksey,,,
Copyright (c) 2015 by Dieter Hofrichter. All rights reserved.
</metadata>
<defs>
<font id="Carnas-MediumIt" horiz-adv-x="796" >
  <font-face 
    font-family="Carnas-MediumIt"
    font-weight="400"
    font-style="italic"
    font-stretch="normal"
    units-per-em="2048"
    panose-1="2 0 6 3 0 0 0 9 0 4"
    ascent="1561"
    descent="-487"
    x-height="1014"
    cap-height="1450"
    bbox="-403 -565 2482 2023"
    underline-thickness="102"
    underline-position="-204"
    unicode-range="U+0020-FB04"
  />
<missing-glyph horiz-adv-x="1026" 
d="M0 0v1448h1026v-1448h-1026zM514 817l348 526h-698zM573 725l353 -526v1052zM164 102h698l-348 529zM102 1251v-1052l351 526z" />
    <glyph glyph-name="f_f" unicode="ff" horiz-adv-x="1333" 
d="M342 53q-8 -57 -59 -57h-129q-39 0 -39 37q0 20 4 35l162 757h-107q-43 0 -43 37q0 19 19 103q10 49 59 49h113l14 65q45 226 151 305q139 111 390 111q69 0 69 -51q0 -36 -8 -90q-6 -42 -57 -47q-108 -7 -167 -26q-58 -18 -91 -54q-41 -44 -62 -156l-12 -57h416l22 112
q43 216 152 299q142 113 393 113q70 0 70 -51q0 -31 -9 -90q-11 -47 -57 -47q-190 -6 -262 -86q-40 -45 -64 -152l-20 -98h196q44 0 44 -39q0 -40 -21 -109q-12 -41 -61 -41h-197l-166 -772q-12 -57 -59 -57h-129q-39 0 -39 37q0 20 4 35l164 757h-416z" />
    <glyph glyph-name="fi" unicode="fi" horiz-adv-x="1220" 
d="M342 53q-8 -57 -59 -57h-129q-39 0 -39 37q0 20 4 35l162 757h-107q-43 0 -43 37q0 19 19 103q10 49 59 49h113l22 112q44 216 154 301q141 111 372 111q72 0 72 -47q0 -54 -8 -94q-6 -43 -55 -47q-195 -18 -248 -80q-43 -54 -64 -158l-18 -98h584q41 0 41 -37
q0 -2 -1 -8t-3.5 -19.5t-4.5 -27.5l-188 -873q-12 -53 -55 -53h-131q-41 0 -41 37q0 19 6 41l162 751h-408zM1257 1382q0 -88 -47 -129q-38 -34 -100 -34q-109 0 -109 96q0 86 41 125q39 39 103 39q112 0 112 -97z" />
    <glyph glyph-name="fl" unicode="fl" horiz-adv-x="1269" 
d="M342 53q-8 -57 -59 -57h-129q-39 0 -39 37q0 20 4 35l162 757h-107q-43 0 -43 37q0 19 19 103q10 49 59 49h113l22 106q40 199 158 299q141 117 465 117q156 0 245 -16q60 -12 60 -60q0 -21 -10 -65l-226 -1043q-12 -52 -12 -102q0 -40 25 -59q23 -17 79 -25
q37 -6 37 -47q0 -47 -20 -90q-12 -39 -68 -39q-286 0 -286 205q0 68 16 139l217 1001q-40 6 -119 6q-208 0 -264 -71q-50 -58 -74 -164l-20 -92h196q43 0 43 -39q0 -43 -20 -109q-11 -41 -59 -41h-197z" />
    <glyph glyph-name="f_f_i" unicode="ffi" horiz-adv-x="1861" 
d="M342 53q-8 -57 -59 -57h-129q-39 0 -39 37q0 20 4 35l162 757h-107q-43 0 -43 37q0 24 18 103q10 49 60 49h113l14 65q45 226 151 305q139 111 390 111q69 0 69 -51q0 -36 -8 -90q-6 -42 -57 -47q-108 -7 -167 -26q-58 -18 -91 -54q-41 -44 -62 -156l-12 -57h416l22 112
q45 216 152 301q144 111 372 111q72 0 72 -47q0 -57 -6 -94q-7 -42 -57 -47q-193 -18 -246 -80q-43 -54 -64 -158l-20 -98h584q43 0 43 -37q0 -9 -1 -14t-5 -19q-3 -10 -3 -14l-188 -881q-12 -53 -55 -53h-133q-39 0 -39 37q0 16 4 41l162 751h-408l-166 -772
q-12 -57 -59 -57h-129q-39 0 -39 37q0 20 4 35l164 757h-416zM1898 1382q0 -88 -47 -129q-38 -34 -98 -34q-111 0 -111 96q0 82 43 125q39 39 103 39q110 0 110 -97z" />
    <glyph glyph-name="f_f_l" unicode="ffl" horiz-adv-x="1914" 
d="M342 53q-8 -57 -59 -57h-129q-39 0 -39 37q0 20 4 35l162 757h-107q-43 0 -43 37q0 19 19 103q10 49 59 49h113l14 65q45 226 151 305q139 111 390 111q69 0 69 -51q0 -36 -8 -90q-6 -42 -57 -47q-108 -7 -167 -26q-58 -18 -91 -54q-41 -44 -62 -156l-12 -57h416l22 106
q40 199 158 299q141 117 465 117q156 0 245 -16q60 -10 60 -60q0 -21 -10 -65l-226 -1043q-12 -52 -12 -102q0 -40 25 -59q23 -17 80 -25q36 -6 36 -47q0 -40 -16 -88q-11 -41 -68 -41q-290 0 -290 205q0 68 16 139l215 1001q-41 6 -117 6q-203 0 -264 -71q-50 -58 -74 -164
l-20 -92h196q46 0 46 -39q0 -29 -23 -109q-11 -41 -59 -41h-199l-166 -772q-12 -57 -59 -57h-129q-39 0 -39 37q0 20 4 35l164 757h-416z" />
    <glyph glyph-name="T_h" unicode="Th" horiz-adv-x="2283" 
d="M606 51q-7 -55 -55 -55h-141q-41 0 -41 39q0 14 4 35l254 1169h-365q-43 0 -43 31q0 19 23 129q11 47 57 47h1161l8 37q12 49 58 49h123q45 0 45 -39q0 -8 -4 -29l-107 -503q116 83 334 83q272 0 272 -180q0 -70 -20 -157l-137 -658q-11 -53 -58 -53h-133q-41 0 -41 35
q0 13 6 37l129 596q11 49 11 102q0 84 -140 84q-117 0 -196 -35q-28 -12 -47 -29q-19 -19 -29 -67l-141 -670q-12 -53 -58 -53h-131q-43 0 -43 35q0 9 6 39l250 1169h-555z" />
    <glyph glyph-name="Tcaron_h" unicode="&#x164;h" horiz-adv-x="2336" 
d="M606 51q-7 -55 -55 -55h-141q-41 0 -41 39q0 14 4 35l254 1169h-365q-43 0 -43 31q0 19 23 129q11 47 57 47h1161l8 37q12 49 58 49h123q45 0 45 -39q0 -8 -4 -29l-107 -503q116 83 334 83q272 0 272 -180q0 -70 -20 -157l-137 -658q-11 -53 -58 -53h-133q-41 0 -41 35
q0 13 6 37l129 596q11 49 11 102q0 84 -140 84q-117 0 -196 -35q-28 -12 -47 -29q-19 -19 -29 -67l-141 -670q-12 -53 -58 -53h-131q-43 0 -43 35q0 9 6 39l250 1169h-555zM1059 1896q62 0 92 -6q33 -4 33 -32q0 -22 -27 -43l-237 -207q-56 -49 -105 -49h-84q-47 0 -80 43
l-164 208q-16 17 -16 39q0 32 43 39q50 6 78 6q39 0 78 -39l125 -129l176 132q50 38 88 38z" />
    <glyph glyph-name="f_b" unicode="fb" horiz-adv-x="1837" 
d="M342 53q-8 -57 -59 -57h-129q-39 0 -39 37q0 20 4 35l162 757h-107q-43 0 -43 37q0 19 19 103q10 49 59 49h113l22 106q40 199 158 299q141 117 465 117q154 0 243 -16q62 -11 62 -60q0 -21 -10 -65l-93 -437q117 84 320 84q280 0 280 -299q0 -143 -43 -314
q-44 -176 -124 -279q-78 -102 -184 -139q-109 -38 -275 -38q-189 0 -309 41q-66 24 -66 90q0 36 10 80l246 1151q-40 6 -119 6q-208 0 -264 -71q-50 -58 -74 -164l-20 -92h196q43 0 43 -39q0 -43 -20 -109q-11 -41 -59 -41h-197zM1020 264q-4 -21 -4 -45q0 -34 41 -45
q49 -14 121 -14q178 0 247 106q51 78 80 206q31 135 31 220q0 77 -38 118q-37 40 -132 40q-60 0 -127 -19q-63 -18 -90 -45q-17 -17 -27 -55z" />
    <glyph glyph-name="f_f_b" unicode="ffb" horiz-adv-x="2480" 
d="M342 53q-8 -57 -59 -57h-129q-39 0 -39 37q0 20 4 35l162 757h-107q-43 0 -43 37q0 19 19 103q10 49 59 49h113l14 65q45 226 151 305q139 111 390 111q69 0 69 -51q0 -43 -10 -90q-7 -42 -59 -47q-114 -11 -166 -27q-55 -17 -88 -53q-41 -44 -62 -156l-12 -57h416
l22 106q40 199 158 299q141 117 465 117q154 0 243 -16q62 -11 62 -60q0 -21 -10 -65l-93 -437q118 84 320 84q278 0 278 -299q0 -147 -41 -315q-42 -172 -124 -278q-78 -102 -184 -139q-109 -38 -275 -38q-189 0 -309 41q-66 24 -66 90q0 36 10 80l244 1151q-41 6 -117 6
q-202 0 -268 -73q-46 -59 -70 -162l-20 -92h196q46 0 46 -39q0 -29 -23 -109q-11 -41 -59 -41h-199l-166 -772q-12 -57 -59 -57h-129q-39 0 -39 37q0 20 4 35l164 757h-416zM1665 264q-6 -30 -6 -45q0 -35 43 -45q49 -14 119 -14q181 0 250 106q47 70 78 205q30 131 30 221
q0 77 -38 118q-37 40 -132 40q-60 0 -125 -19q-62 -18 -90 -45q-19 -17 -29 -55z" />
    <glyph glyph-name="f_f_h" unicode="ffh" horiz-adv-x="2512" 
d="M342 53q-8 -57 -59 -57h-129q-39 0 -39 37q0 20 4 35l162 757h-107q-43 0 -43 37q0 19 19 103q10 49 59 49h113l14 65q45 226 151 305q139 111 390 111q69 0 69 -51q0 -26 -8 -90q-6 -42 -57 -47q-108 -7 -167 -26q-58 -18 -91 -54q-41 -44 -62 -156l-12 -57h416l22 106
q40 199 158 299q141 117 465 117q154 0 243 -16q62 -11 62 -60q0 -21 -10 -65l-93 -434q120 83 334 83q273 0 273 -176q0 -72 -19 -161l-139 -658q-11 -53 -57 -53h-131q-41 0 -41 35l6 37l127 596q10 44 10 102q0 84 -139 84q-122 0 -197 -35q-31 -11 -49 -29
q-17 -21 -27 -67l-141 -670q-12 -53 -55 -53h-135q-41 0 -41 35q0 15 6 39l268 1265q-41 6 -117 6q-203 0 -264 -71q-50 -58 -74 -164l-20 -92h196q46 0 46 -39q0 -29 -23 -109q-11 -41 -59 -41h-199l-166 -772q-12 -57 -59 -57h-129q-39 0 -39 37q0 20 4 35l164 757h-416z
" />
    <glyph glyph-name="f_f_j" unicode="ffj" horiz-adv-x="1894" 
d="M342 53q-8 -57 -59 -57h-129q-39 0 -39 37q0 20 4 35l162 757h-107q-43 0 -43 37q0 24 18 103q10 49 60 49h113l14 65q45 226 151 305q139 111 390 111q69 0 69 -51q0 -36 -8 -90q-6 -42 -57 -47q-108 -7 -167 -26q-58 -18 -91 -54q-41 -44 -62 -156l-12 -57h416l22 112
q45 216 152 301q144 111 372 111q72 0 72 -47q0 -52 -8 -94q-8 -46 -57 -47q-191 -18 -244 -80q-43 -54 -64 -158l-20 -98h577q50 0 50 -37q0 -6 -5 -26q-4 -16 -4 -19l-211 -989q-45 -210 -141 -299q-56 -51 -163 -87q-108 -36 -197 -36q-48 0 -54 47q-6 40 -6 74
q0 55 58 63q129 22 188 64q61 40 90 172l187 884h-408l-166 -772q-12 -57 -59 -57h-129q-39 0 -39 37q0 20 4 35l164 757h-416zM1898 1382q0 -88 -47 -129q-38 -34 -98 -34q-111 0 -111 96q0 82 43 125q39 39 103 39q110 0 110 -97z" />
    <glyph glyph-name="f_f_k" unicode="ffk" horiz-adv-x="2422" 
d="M342 53q-8 -57 -59 -57h-129q-39 0 -39 37q0 20 4 35l162 757h-107q-43 0 -43 37q0 19 19 103q10 49 59 49h113l14 65q45 226 151 305q139 111 390 111q69 0 69 -51q0 -36 -8 -90q-6 -42 -57 -47q-108 -7 -167 -26q-58 -18 -91 -54q-41 -44 -62 -156l-12 -57h416l22 106
q40 199 158 299q141 117 465 117q154 0 243 -16q62 -11 62 -60q0 -21 -10 -65l-154 -731h96q67 0 99 38l252 277q33 39 73 39q132 0 156 -8q20 -6 20 -29q0 -17 -30 -55l-342 -369q67 -132 221 -465q12 -27 12 -53q0 -25 -29 -37q-24 -8 -153 -8q-40 0 -58 39l-182 399
q-16 37 -71 37h-105l-90 -420q-12 -53 -55 -53h-133q-43 0 -43 35q0 6 1 11q2 10 3 16q2 12 2 14l270 1263q-41 6 -117 6q-203 0 -264 -71q-50 -58 -74 -164l-20 -92h196q46 0 46 -39q0 -29 -23 -109q-11 -41 -59 -41h-199l-166 -772q-12 -57 -59 -57h-129q-39 0 -39 37
q0 20 4 35l164 757h-416z" />
    <glyph glyph-name="f_h" unicode="fh" horiz-adv-x="1869" 
d="M342 53q-8 -57 -59 -57h-129q-39 0 -39 37q0 20 4 35l162 757h-107q-43 0 -43 37q0 19 19 103q10 49 59 49h113l22 106q40 199 158 299q141 117 465 117q154 0 243 -16q62 -11 62 -60q0 -21 -10 -65l-93 -434q120 83 334 83q273 0 273 -176q0 -72 -19 -161l-139 -658
q-11 -53 -57 -53h-134q-38 0 -38 35l6 37l125 594q14 63 14 104q0 84 -141 84q-109 0 -195 -33q-31 -11 -51 -31q-19 -19 -29 -67l-141 -670q-6 -26 -18 -40q-12 -13 -35 -13h-136q-40 0 -40 35q0 15 6 39l270 1265q-40 6 -119 6q-208 0 -264 -71q-50 -58 -74 -164l-20 -92
h196q43 0 43 -39q0 -43 -20 -109q-11 -41 -59 -41h-197z" />
    <glyph glyph-name="f_j" unicode="fj" horiz-adv-x="1253" 
d="M342 53q-8 -57 -59 -57h-129q-39 0 -39 37q0 20 4 35l162 757h-107q-43 0 -43 37q0 19 19 103q10 49 59 49h113l22 112q45 216 154 301q141 111 372 111q72 0 72 -47q0 -41 -8 -94q-7 -42 -55 -47q-195 -18 -248 -80q-43 -54 -64 -158l-18 -98h584q41 0 41 -37
q0 -12 -9 -57l-211 -977q-45 -209 -141 -299q-58 -54 -164 -88q-108 -35 -196 -35q-48 0 -54 47q-6 40 -6 74q0 52 60 63q127 22 186 64q62 44 90 170l189 886h-408zM1257 1382q0 -88 -47 -129q-38 -34 -100 -34q-109 0 -109 96q0 86 41 125q39 39 103 39q112 0 112 -97z
" />
    <glyph glyph-name="f_k" unicode="fk" horiz-adv-x="1779" 
d="M342 53q-8 -57 -59 -57h-129q-39 0 -39 37q0 20 4 35l162 757h-107q-43 0 -43 37q0 19 19 103q10 49 59 49h113l22 106q40 199 158 299q141 117 465 117q154 0 243 -16q62 -11 62 -60q0 -21 -10 -65l-156 -731h100q66 0 101 41l249 276q33 39 74 39q128 0 154 -10
q20 -6 20 -29q0 -19 -32 -55l-340 -369q67 -126 219 -465q14 -31 14 -53q0 -25 -29 -37q-26 -8 -153 -8q-40 0 -58 39l-182 399q-16 37 -72 37h-104l-92 -420q-12 -53 -53 -53h-134q-43 0 -43 35q0 6 1 11q0 2 1.5 7.5t2.5 8.5q2 12 2 14l272 1263q-40 6 -119 6
q-208 0 -264 -71q-52 -58 -74 -164l-20 -92h196q43 0 43 -39q0 -43 -20 -109q-11 -41 -59 -41h-197z" />
    <glyph glyph-name="uni0162_h" unicode="&#x162;h" horiz-adv-x="2336" 
d="M510 -111q166 -10 166 -165q0 -144 -82 -202q-83 -59 -234 -59q-49 0 -96 11q-39 8 -39 43q0 22 11 61q11 41 51 41q18 0 47 -4q24 -2 57 -2q51 0 74 18q22 18 22 66q0 53 -67 53h-37q-41 0 -41 37q0 17 16 68l48 141q-37 4 -37 39q0 14 4 35l254 1169h-365q-43 0 -43 31
q0 19 23 129q11 47 57 47h1161l8 37q12 49 58 49h123q45 0 45 -39q0 -8 -4 -29l-107 -503q116 83 334 83q272 0 272 -180q0 -70 -20 -157l-137 -658q-11 -53 -58 -53h-133q-41 0 -41 35q0 13 6 37l129 596q11 49 11 102q0 84 -140 84q-117 0 -196 -35q-28 -12 -47 -29
q-19 -19 -29 -67l-141 -670q-12 -53 -58 -53h-131q-43 0 -43 35q0 9 6 39l250 1169h-555l-256 -1188q-7 -55 -55 -55h-10z" />
    <glyph glyph-name="uni021A_h" unicode="&#x21a;h" horiz-adv-x="2336" 
d="M606 51q-7 -55 -55 -55h-141q-41 0 -41 39q0 14 4 35l254 1169h-365q-43 0 -43 31q0 19 23 129q11 47 57 47h1161l8 37q12 49 58 49h123q45 0 45 -39q0 -8 -4 -29l-107 -503q116 83 334 83q272 0 272 -180q0 -70 -20 -157l-137 -658q-11 -53 -58 -53h-133q-41 0 -41 35
q0 13 6 37l129 596q11 49 11 102q0 84 -140 84q-117 0 -196 -35q-28 -12 -47 -29q-19 -19 -29 -67l-141 -670q-12 -53 -58 -53h-131q-43 0 -43 35q0 9 6 39l250 1169h-555zM426 -113h66q55 0 55 -55q0 -39 -17 -96q-45 -136 -168 -264q-33 -37 -63 -37q-25 0 -51 20
q-27 17 -27 41q0 22 23 53q79 96 102 261q15 77 80 77z" />
    <glyph glyph-name=".notdef" horiz-adv-x="1026" 
d="M0 0v1448h1026v-1448h-1026zM514 817l348 526h-698zM573 725l353 -526v1052zM164 102h698l-348 529zM102 1251v-1052l351 526z" />
    <glyph glyph-name=".null" horiz-adv-x="0" 
 />
    <glyph glyph-name="nonmarkingreturn" horiz-adv-x="681" 
 />
    <glyph glyph-name="space" unicode=" " horiz-adv-x="454" 
 />
    <glyph glyph-name="exclam" unicode="!" horiz-adv-x="598" 
d="M459 535q-15 -60 -76 -60h-68q-61 0 -61 51q0 36 6 60l152 784q15 76 80 76h114q60 0 60 -55q0 -19 -207 -856zM434 176q0 -105 -53 -156q-43 -43 -121 -43q-131 0 -131 121q0 89 51 146q43 49 125 49q129 0 129 -117z" />
    <glyph glyph-name="quotedbl" unicode="&#x22;" horiz-adv-x="755" 
d="M387 940q-16 -61 -74 -61h-34q-52 0 -52 47q0 1 1 8t3.5 22t4.5 31q54 310 69 395q7 41 27 64q17 20 55 20h59q60 0 60 -47q0 -31 -8 -61q-21 -90 -111 -418zM741 940q-16 -61 -73 -61h-33q-53 0 -53 47q0 31 6 61q19 106 34 190q19 105 35 205q12 84 86 84h56
q61 0 61 -47q0 -31 -8 -61q-21 -90 -111 -418z" />
    <glyph glyph-name="numbersign" unicode="#" horiz-adv-x="1220" 
d="M344 16q-12 -51 -53 -51q-50 0 -66 8q-14 7 -14 29q0 7 10 51l88 348h-151q-45 0 -45 41q0 37 10 111q6 47 55 47h182l54 203h-166q-45 0 -45 39q0 42 12 110q6 47 51 47h197l94 365q6 29 18 41t43 12q74 0 74 -33q0 -12 -12 -57l-84 -328h291l92 363q12 55 61 55
q47 0 61 -7q15 -8 15 -26t-12 -59l-84 -326h156q45 0 45 -38q0 -44 -11 -115q-6 -43 -53 -43h-186l-53 -203h165q47 0 47 -39q0 -31 -10 -117q-6 -43 -53 -43h-201l-98 -385q-12 -51 -55 -51q-48 0 -64 8q-14 7 -14 29q0 18 10 51l88 348h-291zM545 803l-51 -203h290l52 203
h-291z" />
    <glyph glyph-name="dollar" unicode="$" horiz-adv-x="1142" 
d="M592 -8l-35 -162q-6 -43 -45 -43h-86q-37 0 -37 31q0 9 4 30l33 142q-188 5 -311 55q-37 16 -37 51q0 24 28 105q15 41 58 41q20 0 65 -17q135 -43 285 -43q139 0 213 41t74 158q0 59 -33 98q-34 40 -133 80l-152 62q-237 95 -237 315q0 411 473 444l33 160q11 47 49 47
h84q35 0 35 -26q0 -8 -7 -43l-28 -136q120 -10 209 -39q39 -12 39 -49q0 -48 -21 -108q-15 -37 -51 -37q-21 0 -78 14q-130 29 -256 29q-244 0 -244 -195q0 -56 32 -99q31 -41 120 -79l141 -57q144 -62 204 -129q60 -68 60 -182q0 -419 -448 -459z" />
    <glyph glyph-name="percent" unicode="%" horiz-adv-x="1765" 
d="M844 1169q0 -118 -40 -285q-40 -169 -110 -255q-86 -107 -260 -107q-143 0 -211 53q-67 52 -67 193q0 119 35 263q36 149 102 239q90 125 276 125q143 0 209 -45t66 -181zM676 1147q0 64 -26 88q-27 25 -95 25q-90 0 -135 -74q-42 -69 -70 -195q-28 -127 -28 -207
q0 -70 28 -98q29 -29 94 -29q93 0 134 68q36 61 67 208q31 149 31 214zM528 -31q-24 -35 -53 -35q-9 0 -51 3q-21 1 -21 18q0 16 21 43l917 1413q27 45 62 45q32 0 51 -4q21 -2 21 -20q0 -17 -23 -48zM1720 629q0 -120 -40 -287q-41 -172 -107 -254q-84 -106 -262 -106
q-140 0 -210 53q-69 53 -69 192q0 115 36 264q36 150 101 238q95 125 277 125q143 0 209 -45q65 -44 65 -180zM1552 606q0 64 -25 88q-27 25 -95 25q-91 0 -136 -74q-41 -67 -69 -194q-29 -131 -29 -207q0 -70 29 -99q28 -28 94 -28q93 0 133 67q38 64 68 208t30 214z" />
    <glyph glyph-name="ampersand" unicode="&#x26;" horiz-adv-x="1492" 
d="M1051 119q-169 -146 -455 -146q-232 0 -353 104q-120 103 -120 269q0 179 93 281q92 101 296 178q-100 124 -100 276q0 190 125 291t346 101q147 0 231 -23q49 -15 49 -51q0 -54 -22 -113q-11 -31 -45 -31q-3 0 -25 2q-9 1 -38 7q-14 3 -29 6q-53 10 -148 10
q-221 0 -221 -188q0 -91 113 -236q172 -218 344 -412q51 79 69 185q14 75 17 104q5 56 49 62q36 2 94 2q63 0 63 -54q0 -37 -10 -96q-39 -233 -151 -366q101 -120 145 -168q25 -25 25 -60q0 -36 -50 -47q-62 -14 -124 -14q-57 0 -86 35l-39 43q-37 41 -43 49zM940 264
q-132 149 -332 404q-248 -86 -248 -279q0 -102 73 -163q72 -60 206 -60q200 0 301 98z" />
    <glyph glyph-name="quotesingle" unicode="'" horiz-adv-x="411" 
d="M387 940q-16 -61 -74 -61h-34q-52 0 -52 47q0 12 9 61q31 190 69 395q7 41 27 64q17 20 55 20h59q62 0 62 -49q0 -26 -10 -59q-21 -90 -111 -418z" />
    <glyph glyph-name="parenleft" unicode="(" horiz-adv-x="663" 
d="M831 1456q-237 -145 -389 -458q-153 -315 -153 -685q0 -325 180 -542q12 -15 12 -31q0 -17 -22 -39q-18 -18 -39 -18q-23 0 -62 24q-103 72 -185 238q-81 163 -81 395q0 377 166 710q167 335 477 480q53 24 72 24q25 0 35 -18q16 -28 16 -41q0 -23 -27 -39z" />
    <glyph glyph-name="parenright" unicode=")" horiz-adv-x="661" 
d="M-102 -217q242 152 393 462q149 305 149 681q0 307 -178 534q-14 17 -14 33q0 23 24 45q20 16 35 16q26 0 58 -22q104 -71 187 -237t83 -398q0 -369 -165 -703q-165 -335 -470 -485q-48 -26 -78 -26q-23 0 -37 20q-16 22 -16 39q0 23 29 41z" />
    <glyph glyph-name="asterisk" unicode="*" horiz-adv-x="849" 
d="M528 920q-7 -7 -31.5 -32.5t-43.5 -45.5q-74 -76 -84 -86q-21 -21 -43 -21q-28 0 -68 43q-22 22 -22 45q0 21 24 45q105 96 174 156q-163 67 -203 90q-41 18 -41 57q0 21 23 62q21 35 57 35q18 0 52 -17l176 -98q7 121 20 215q4 32 18 47t46 15q10 0 55 -9q43 -10 43 -49
q0 -6 -6 -49q-5 -31 -23 -104q-11 -44 -20 -89q174 38 186 39q44 7 60 7q41 0 49 -48q6 -29 6 -65q-1 -40 -53 -51q-109 -15 -228 -25q37 -58 115 -196q10 -17 10 -39q0 -30 -35 -47q-41 -23 -67 -23q-30 0 -47 35q-73 145 -99 203z" />
    <glyph glyph-name="plus" unicode="+" horiz-adv-x="1435" 
d="M741 121q-12 -49 -59 -49h-55q-49 0 -49 45q0 11 4 30l82 373h-396q-47 0 -47 47q0 26 8 68q12 51 58 51h403l82 397q11 52 57 52h62q45 0 45 -45q0 -16 -4 -35l-76 -369h391q49 0 49 -47q0 -17 -10 -66q-11 -53 -59 -53h-404z" />
    <glyph glyph-name="comma" unicode="," horiz-adv-x="493" 
d="M172 289h82q72 0 72 -66q0 -110 -92 -277q-94 -170 -201 -253q-52 -41 -76 -41q-29 0 -63 29q-33 27 -33 51q0 26 33 55q64 64 119 177q54 111 75 245q12 80 84 80z" />
    <glyph glyph-name="hyphen" unicode="-" horiz-adv-x="696" 
d="M555 453h-418q-41 0 -41 32q0 20 23 117q12 43 57 43h416q43 0 43 -33q0 -13 -25 -118q-11 -41 -55 -41z" />
    <glyph glyph-name="period" unicode="." horiz-adv-x="493" 
d="M342 176q0 -100 -55 -156q-39 -43 -119 -43q-131 0 -131 121q0 87 49 146q43 49 125 49q131 0 131 -117z" />
    <glyph glyph-name="slash" unicode="/" horiz-adv-x="780" 
d="M135 -156q-18 -51 -61 -51q-44 0 -84 4q-29 2 -29 29q0 18 14 45l725 1616q16 31 25 42q10 11 31 11q55 0 88 -6q26 -6 26 -31q0 -16 -18 -55z" />
    <glyph glyph-name="zero" unicode="0" horiz-adv-x="1173" 
d="M1180 1038q0 -184 -64 -466q-63 -277 -168 -418q-134 -181 -411 -181q-221 0 -328 87t-107 311q0 184 58 434q57 244 159 395q144 209 435 209q222 0 323 -76q103 -77 103 -295zM944 1010q0 110 -45 156t-170 46q-153 0 -231 -131q-68 -113 -114 -330q-46 -215 -46 -356
q0 -125 48 -175t169 -50q79 0 133 26t94 93q64 108 113 351q49 242 49 370z" />
    <glyph glyph-name="one" unicode="1" horiz-adv-x="1173" 
d="M831 0h-598q-40 0 -40 33q0 22 20 119q11 47 59 47h183l204 950l-196 -68q-26 -10 -45 -10q-22 0 -33 23q-31 95 -31 112q0 30 39 45l273 103q84 30 137 30h16q94 0 94 -81q0 -32 -8 -72l-219 -1032h180q41 0 41 -33q0 -35 -20 -125q-5 -25 -17 -33q-13 -8 -39 -8z" />
    <glyph glyph-name="two" unicode="2" horiz-adv-x="1173" 
d="M932 0h-817q-49 0 -72 24q-23 25 -23 56q0 110 56 149q9 6 69.5 49t112.5 79q143 100 236 168q106 78 188 147q94 78 142 154t48 186q0 198 -243 198q-101 0 -197 -24q-63 -17 -78 -17q-29 0 -35 29q-22 82 -22 105q0 36 59 57q160 49 359 49q403 0 403 -336
q0 -146 -48 -251q-48 -106 -159 -206q-35 -31 -86 -71q-71 -56 -90 -70q-63 -47 -105 -75l-52.5 -35t-47.5 -32q-48 -34 -105 -71l-95 -63q162 2 637 2q43 0 43 -37q0 -31 -21 -121q-6 -43 -57 -43z" />
    <glyph glyph-name="three" unicode="3" horiz-adv-x="1173" 
d="M770 727q123 -12 183 -76q59 -64 59 -184q0 -246 -129 -363q-142 -131 -467 -131q-198 0 -312 41q-41 15 -41 49q0 31 31 113q17 31 45 31q11 0 68 -14q104 -23 231 -23q199 0 277 84q61 68 61 205q0 83 -63 120t-219 39q-74 0 -74 72q0 122 96 127q194 12 264 62
q72 55 72 182q0 149 -221 149q-121 0 -203 -22q-63 -14 -80 -14q-18 0 -29 30q-22 76 -22 101q0 41 61 57q153 47 347 47q209 0 294 -77q84 -76 84 -218q0 -324 -313 -387z" />
    <glyph glyph-name="four" unicode="4" horiz-adv-x="1173" 
d="M868 49q-8 -53 -59 -53h-117q-43 0 -43 41q0 15 6 45l58 250h-512q-113 0 -113 94q0 64 72 160l563 760q43 55 82 55q69 0 137 -6q29 -6 29 -29q0 -25 -21 -55l-585 -776h391l59 276q11 57 55 57h125q39 0 39 -37q0 -1 -6 -45l-55 -251h143q45 0 45 -39q0 -18 -24 -123
q-11 -41 -58 -41h-149z" />
    <glyph glyph-name="five" unicode="5" horiz-adv-x="1173" 
d="M461 850q81 16 215 16q190 0 285 -70q96 -70 96 -231q0 -285 -141 -438q-142 -154 -480 -154q-227 0 -334 35q-36 12 -36 51q0 28 28 109q15 37 49 37q11 0 78 -15q110 -22 230 -22q191 0 276 81q86 81 86 251q0 98 -60 136q-61 38 -184 38q-74 0 -160 -8
q-21 -2 -45 -4.5t-35.5 -3.5t-15.5 -1q-75 0 -75 76q0 31 22 123l119 463q16 65 63 65h637q41 0 41 -32q0 -40 -20 -127q-10 -43 -64 -43h-493z" />
    <glyph glyph-name="six" unicode="6" horiz-adv-x="1173" 
d="M403 768q114 109 340 109q357 0 357 -308q0 -299 -148 -458q-130 -138 -417 -138q-209 0 -311 99q-101 98 -101 301q0 202 73 462q72 256 197 392q173 182 488 182q183 0 256 -27q28 -7 28 -43q0 -43 -30 -116q-12 -29 -41 -29q-1 0 -8.5 1t-26 3t-35.5 4q-86 12 -164 12
q-203 0 -307 -116q-90 -99 -150 -330zM344 365q0 -95 47 -148t166 -53q183 0 252 100q65 93 65 248q0 82 -50 129t-152 47q-195 0 -269 -86q-17 -20 -34 -63q-25 -75 -25 -174z" />
    <glyph glyph-name="seven" unicode="7" horiz-adv-x="1173" 
d="M889 1184q-112 0 -250 -1t-393 -1q-47 0 -47 35q0 36 20 122q7 45 57 45h775q120 0 120 -81q0 -78 -53 -173l-626 -1077q-32 -59 -82 -59q-15 0 -129 8q-50 6 -50 43q0 27 27 72z" />
    <glyph glyph-name="eight" unicode="8" horiz-adv-x="1173" 
d="M870 723q108 -21 161 -89q54 -69 54 -171q0 -250 -142 -370q-143 -120 -429 -120q-220 0 -328 87t-108 239q0 183 90 295q90 113 256 141q-86 24 -130 89t-44 149q0 436 518 436q408 0 408 -289q0 -323 -306 -397zM846 449q0 172 -223 172q-137 0 -225 -65
q-87 -64 -87 -210q0 -92 63 -138q62 -46 169 -46q303 0 303 287zM946 1069q0 148 -201 148q-268 0 -268 -246q0 -75 50 -116q49 -40 143 -40q127 0 202 67q74 66 74 187z" />
    <glyph glyph-name="nine" unicode="9" horiz-adv-x="1173" 
d="M874 621q-118 -113 -333 -113q-181 0 -272 85t-91 236q0 281 150 443q129 137 411 137q414 0 414 -399q0 -205 -71 -463t-197 -393q-169 -181 -490 -181q-187 0 -266 27q-27 10 -27 43q0 36 29 115q15 32 41 32q22 0 84 -12q54 -10 150 -10q214 0 319 117q52 57 83 130
q31 74 66 206zM932 1016q0 201 -215 201q-179 0 -248 -99q-70 -100 -70 -244q0 -81 53 -131q52 -49 152 -49q85 0 161 26q74 25 107 64q25 35 35 62q25 75 25 170z" />
    <glyph glyph-name="colon" unicode=":" horiz-adv-x="534" 
d="M373 176q0 -104 -54 -156q-43 -43 -118 -43q-131 0 -131 121q0 89 51 146q40 49 121 49q131 0 131 -117zM522 909q0 -102 -55 -157q-41 -41 -121 -41q-129 0 -129 120q0 89 49 144q43 49 123 49q133 0 133 -115z" />
    <glyph glyph-name="semicolon" unicode=";" horiz-adv-x="534" 
d="M522 909q0 -102 -55 -157q-41 -41 -121 -41q-129 0 -129 120q0 89 49 144q43 49 123 49q133 0 133 -115zM213 289h82q72 0 72 -66q0 -110 -92 -277q-94 -170 -201 -253q-52 -41 -76 -41q-30 0 -64 29q-32 26 -32 51q0 27 32 55q156 157 195 422q12 80 84 80z" />
    <glyph glyph-name="less" unicode="&#x3c;" horiz-adv-x="1435" 
d="M1139 131q-7 -43 -39 -43q-17 0 -33 10l-743 391q-35 18 -35 56q0 29 12 98q11 48 47 64l907 403q17 6 33 6q35 0 35 -37q0 -34 -14 -98q-7 -42 -49 -59l-789 -334l643 -320q35 -18 35 -57q0 -31 -10 -80z" />
    <glyph glyph-name="equal" unicode="=" horiz-adv-x="1435" 
d="M1245 358q-7 -49 -59 -49h-959q-49 0 -49 43q0 27 10 68q10 51 58 51h960q49 0 49 -45q0 -18 -10 -68zM1335 780q-7 -49 -59 -49h-961q-47 0 -47 43q0 20 11 66q11 53 57 53h960q50 0 50 -45q0 -15 -11 -68z" />
    <glyph glyph-name="greater" unicode="&#x3e;" horiz-adv-x="1435" 
d="M393 1081q12 43 37 43q13 0 33 -10l745 -393q33 -17 33 -53q0 -29 -12 -101q-6 -43 -47 -61l-906 -402q-26 -10 -32 -10q-35 0 -35 39q0 27 12 96q8 45 49 62l789 334l-641 319q-37 18 -37 57q0 35 12 80z" />
    <glyph glyph-name="question" unicode="?" horiz-adv-x="890" 
d="M446 475h-79q-48 0 -48 41q0 16 15 94q17 83 49 129q35 50 119 101q126 82 176 142q49 59 49 157q0 61 -43 98t-131 37q-80 0 -188 -19q-14 -2 -27.5 -4t-19.5 -3l-5 -1q-31 0 -43 41q-14 57 -14 86q1 43 53 58q141 41 307 41q186 0 273 -73q86 -72 86 -196
q0 -150 -66 -241q-69 -95 -217 -179q-81 -46 -117 -83q-35 -37 -53 -99q-2 -6 -5 -21.5t-6 -25.5q-9 -36 -13 -47q-10 -33 -52 -33zM512 176q0 -102 -53 -158q-41 -41 -119 -41q-133 0 -133 121q0 89 51 146q43 49 125 49q129 0 129 -117z" />
    <glyph glyph-name="at" unicode="@" horiz-adv-x="1652" 
d="M993 225q-92 -108 -260 -108q-260 0 -260 245q0 134 63 281q64 150 166 236q112 94 297 94q121 0 228 -37q47 -17 47 -57q0 -39 -14 -82l-109 -420q-16 -58 -16 -86q0 -45 45 -45q41 0 84 28q101 67 160 207q59 141 59 285q0 233 -122 344q-121 111 -372 111
q-317 0 -520 -232t-203 -569q0 -264 150 -410q149 -145 430 -145q243 0 432 65q51 17 61 17q23 0 35 -41q8 -22 8 -35q-5 -23 -51 -41q-226 -86 -491 -86q-334 0 -521 173q-186 173 -186 499q0 239 103 448q102 207 303 336t458 129q297 0 455 -140q160 -142 160 -421
q0 -146 -56 -294t-167 -250q-112 -103 -256 -103q-139 0 -140 104zM1012 387l100 381q10 33 10 47q0 21 -30 29q-53 12 -103 12q-130 0 -205 -70q-69 -67 -114 -179q-45 -111 -45 -210q0 -157 151 -157q104 0 178 57q18 12 33 33q10 16 25 57z" />
    <glyph glyph-name="A" unicode="A" horiz-adv-x="1280" 
d="M381 406l-191 -351q-22 -39 -33 -49q-13 -12 -38 -12q-139 0 -168 6q-23 6 -23 33q0 15 25 67l670 1203q49 90 87 120q39 31 119 31h54q75 0 105 -34t40 -113l148 -1196q4 -33 4 -60q0 -34 -33 -49q-26 -8 -152 -8q-28 0 -39 14t-16 49l-43 349h-516zM481 604h406
q-54 488 -64 645q-78 -156 -342 -645z" />
    <glyph glyph-name="B" unicode="B" horiz-adv-x="1300" 
d="M514 0h-203q-94 0 -138 35t-44 108q0 53 10 97l213 993q24 115 81 164q56 49 169 49h180q117 0 228 -14q132 -18 202 -92q68 -73 68 -183q0 -327 -272 -403q204 -46 204 -262q0 -153 -70 -272q-70 -120 -214 -175q-123 -45 -414 -45zM465 653l-78 -356q-6 -24 -6 -47
q0 -51 65 -51h154q157 0 217 24q150 60 150 260q0 101 -76 140q-62 30 -199 30h-227zM506 844h211q141 0 188 20q135 60 135 228q0 115 -92 145q-42 14 -162 14h-129q-35 0 -52 -17q-16 -16 -27 -58z" />
    <glyph glyph-name="C" unicode="C" horiz-adv-x="1183" 
d="M381 506q0 -334 305 -334q95 0 242 25q62 12 84 12q33 0 39 -35q16 -71 16 -106q0 -31 -53 -48q-170 -47 -406 -47q-473 0 -473 496q0 229 80 478q79 246 238 382q168 144 477 144q162 0 284 -25q50 -12 50 -53q0 -53 -31 -121q-11 -25 -39 -25l-8 1q-8 1 -27 4t-39 6
q-73 14 -211 14q-203 0 -315 -115q-100 -101 -157 -293q-56 -187 -56 -360z" />
    <glyph glyph-name="D" unicode="D" horiz-adv-x="1409" 
d="M469 0h-158q-94 0 -138 35t-44 108q0 46 10 90l211 994q24 116 82 168q57 51 170 51h150q217 0 360 -47q128 -44 197 -156q69 -113 69 -272q0 -151 -24 -284q-24 -132 -80 -263q-54 -126 -158 -227q-103 -100 -246 -146q-152 -51 -401 -51zM391 319q-8 -43 -8 -57
q0 -55 63 -55h115q133 0 254 45q166 66 244 264t78 422q0 193 -129 256q-85 45 -254 45h-97q-65 0 -82 -78z" />
    <glyph glyph-name="E" unicode="E" horiz-adv-x="1122" 
d="M940 0h-629q-94 0 -138 35t-44 108q0 46 10 90l213 996q24 114 82 166q57 51 170 51h567q52 0 52 -39q0 -31 -25 -129q-10 -39 -61 -39h-480q-65 0 -82 -78l-69 -309h495q46 0 46 -35q0 -23 -27 -131q-10 -39 -55 -39h-502l-72 -323q-8 -35 -8 -62q0 -55 63 -55h529
q49 0 49 -35q0 -38 -25 -133q-7 -39 -59 -39z" />
    <glyph glyph-name="F" unicode="F" horiz-adv-x="1079" 
d="M334 49q-12 -53 -60 -53h-137q-41 0 -41 37q0 3 6 41l250 1157q24 115 82 165t170 50h547q47 0 47 -35q0 -25 -27 -133q-7 -39 -57 -39h-457q-65 0 -82 -78l-73 -336h465q45 0 45 -37q0 -3 -25 -131q-7 -36 -55 -36h-475z" />
    <glyph glyph-name="G" unicode="G" horiz-adv-x="1343" 
d="M1153 147q-15 -56 -31 -73q-18 -20 -61 -37q-160 -64 -440 -64q-233 0 -360 119q-126 118 -126 354q0 244 78 493q78 248 236 384q97 82 210 115q119 35 291 35q190 0 310 -37q45 -12 45 -50q0 -45 -35 -120q-10 -27 -41 -27q-29 0 -66 8q-114 27 -252 27
q-215 0 -333 -129q-98 -104 -147 -287q-50 -186 -50 -352q0 -334 309 -334q130 0 225 27q45 12 56 59l69 313h-266q-39 0 -39 31q0 29 27 137q10 39 49 39h422q45 0 45 -37q0 -11 -6 -41z" />
    <glyph glyph-name="H" unicode="H" horiz-adv-x="1437" 
d="M334 49q-12 -53 -60 -53h-137q-41 0 -41 37q0 3 6 41l285 1321q10 55 59 55h136q43 0 43 -37q0 -6 -9 -51l-110 -510h592l116 543q10 55 60 55h135q45 0 45 -37q0 -7 -10 -51l-281 -1313q-12 -53 -59 -53h-137q-41 0 -41 37q0 3 6 41l125 571h-594z" />
    <glyph glyph-name="I" unicode="I" horiz-adv-x="610" 
d="M334 49q-12 -53 -60 -53h-137q-41 0 -41 37q0 3 6 41l285 1321q10 55 59 55h136q43 0 43 -37q0 -6 -9 -51z" />
    <glyph glyph-name="J" unicode="J" horiz-adv-x="624" 
d="M629 1362l-260 -1219q-43 -199 -158 -305q-60 -56 -174 -96q-115 -41 -191 -41q-47 0 -53 43q-8 53 -8 88q0 52 57 62q122 23 185 63q75 46 104 178l268 1260q10 55 60 55h135q43 0 43 -37q0 -11 -8 -51z" />
    <glyph glyph-name="K" unicode="K" horiz-adv-x="1280" 
d="M334 49q-12 -53 -60 -53h-137q-41 0 -41 37q0 3 6 41l285 1321q10 55 59 55h136q43 0 43 -37q0 -6 -9 -51l-110 -510h117q67 0 100 39l418 516q35 45 78 45q107 0 141 -6q35 -5 35 -41q0 -15 -33 -55l-504 -613q55 -103 295 -637q18 -45 18 -59q0 -16 -13 -28
q-13 -11 -34 -13q-45 -4 -149 -4q-38 0 -55 41l-254 569q-17 39 -74 39h-129z" />
    <glyph glyph-name="L" unicode="L" horiz-adv-x="1116" 
d="M905 0h-594q-94 0 -138 35t-44 108q0 46 10 90l248 1158q10 59 62 59h133q43 0 43 -37q0 -11 -9 -51l-225 -1038q-6 -27 -6 -62q0 -55 64 -55h493q45 0 45 -33q0 -28 -24 -135q-7 -39 -58 -39z" />
    <glyph glyph-name="M" unicode="M" horiz-adv-x="1701" 
d="M332 51q-10 -55 -60 -55h-135q-41 0 -41 39q0 19 6 43l260 1196q21 91 61 135q41 45 138 45h51q85 0 109 -35q25 -36 43 -147q94 -519 115 -676q94 177 399 674q35 58 48 77q16 23 45 53q29 31 63 43q30 11 77 11h60q131 0 131 -98q0 -37 -12 -103l-258 -1196
q-12 -61 -64 -61h-133q-39 0 -39 39q0 13 6 43q185 868 252 1139q-119 -216 -506 -840q-38 -61 -62 -82q-26 -23 -69 -23h-22q-38 0 -57 22q-16 19 -27 77q-117 694 -136 843q-51 -276 -243 -1163z" />
    <glyph glyph-name="N" unicode="N" horiz-adv-x="1476" 
d="M328 51q-10 -55 -58 -55h-129q-45 0 -45 43q0 13 6 37l263 1210q18 88 61 128t127 40h65q39 0 60 -7q22 -7 36 -26q12 -16 19 -35q9 -25 17 -51q209 -733 282 -1044q32 173 234 1093q12 66 63 66h121q41 0 41 -39q0 -5 -6 -49l-264 -1237q-30 -139 -158 -139h-55
q-70 0 -99 27q-28 26 -51 108q-262 918 -291 1059q-61 -310 -239 -1129z" />
    <glyph glyph-name="O" unicode="O" horiz-adv-x="1419" 
d="M1389 1047q0 -209 -69 -481q-69 -270 -194 -412q-91 -98 -201 -139q-114 -42 -276 -42q-249 0 -382 98q-132 97 -132 353q0 217 70 476q68 253 203 398q168 177 458 177q91 0 171 -10q79 -10 143 -35q69 -27 112 -73t70 -124t27 -186zM1143 1008q0 156 -66 211
q-65 55 -227 55q-178 0 -275 -115q-91 -106 -143 -322q-53 -220 -53 -382q0 -163 66 -223t225 -60q103 0 171 28t120 105q80 114 131 337q51 225 51 366z" />
    <glyph glyph-name="P" unicode="P" horiz-adv-x="1275" 
d="M334 49q-12 -53 -62 -53h-135q-41 0 -41 39q0 16 10 55l244 1137q27 120 79 169q53 50 169 50h164q267 0 381 -60q149 -72 149 -274q0 -398 -350 -494q-115 -32 -332 -32h-161zM489 776h173q148 0 221 27q79 30 122 100q42 69 42 162q0 111 -82 154q-60 28 -215 28h-95
q-35 0 -52 -17t-28 -59z" />
    <glyph glyph-name="Q" unicode="Q" horiz-adv-x="1419" 
d="M1389 1047q0 -209 -69 -481q-69 -270 -194 -412q-45 -47 -75 -70l260 -162q22 -16 22 -37q0 -25 -73 -131q-15 -22 -33 -22q-21 0 -43 16l-377 238q-80 -13 -158 -13q-249 0 -382 98q-132 97 -132 353q0 217 70 476q68 253 203 398q168 177 458 177q91 0 171 -10
q79 -10 143 -35q69 -27 112 -73t70 -124t27 -186zM1143 1008q0 156 -66 211q-65 55 -227 55q-178 0 -275 -115q-91 -106 -143 -322q-53 -220 -53 -382q0 -163 66 -223t225 -60q103 0 171 28t120 105q80 114 131 337q51 225 51 366z" />
    <glyph glyph-name="R" unicode="R" horiz-adv-x="1277" 
d="M336 55q-12 -59 -57 -59h-134q-45 0 -45 43q0 14 11 67l241 1125q27 116 81 165q55 50 171 50h144q252 0 370 -53q148 -68 148 -269q0 -182 -78 -314t-248 -185l184 -527q11 -39 11 -55q0 -32 -35 -43q-24 -6 -148 -6q-42 0 -57 45l-182 551q-52 -2 -125 -2h-137z
M489 778h134q169 0 249 33q150 57 150 268q0 105 -76 142q-58 26 -209 26h-78q-68 0 -84 -76z" />
    <glyph glyph-name="S" unicode="S" horiz-adv-x="1157" 
d="M633 594l-156 61q-254 96 -254 336q0 482 574 482q196 0 329 -43q39 -12 39 -56q0 -23 -26 -104q-11 -39 -52 -39q-39 0 -75 10q-137 33 -273 33q-266 0 -266 -221q0 -68 34 -114t128 -83l149 -59q149 -60 215 -133q66 -74 66 -193q0 -258 -147 -378t-439 -120
q-246 0 -397 62q-39 17 -39 49q0 35 31 111q16 45 59 45q13 0 72 -19q149 -47 303 -47q145 0 224 49t79 176q0 64 -35 108q-34 43 -143 87z" />
    <glyph glyph-name="T" unicode="T" horiz-adv-x="1198" 
d="M606 51q-7 -55 -55 -55h-141q-41 0 -41 39q0 14 4 35l254 1169h-365q-43 0 -43 31q0 19 23 129q11 47 57 47h961q47 0 47 -31q0 -30 -25 -139q-7 -37 -57 -37h-363z" />
    <glyph glyph-name="U" unicode="U" horiz-adv-x="1396" 
d="M1415 1382l-172 -802q-39 -178 -66 -267q-26 -86 -77 -149q-79 -101 -199 -146q-121 -45 -313 -45q-82 0 -153 15q-76 16 -137 48q-66 35 -105 100q-39 66 -39 159q0 113 36 280l175 824q12 51 59 51h139q39 0 39 -37q0 -21 -6 -43l-180 -850q-21 -95 -21 -160
q0 -188 234 -188q194 0 274 92q59 65 98 244l191 891q12 51 55 51h135q37 0 37 -33q0 -16 -4 -35z" />
    <glyph glyph-name="V" unicode="V" horiz-adv-x="1249" 
d="M573 244q84 172 609 1145q33 63 82 63q112 0 155 -10q23 -5 23 -37q0 -17 -27 -70l-674 -1220q-25 -46 -41 -67q-18 -23 -50 -38q-33 -16 -83 -16h-65q-78 0 -107 33q-30 34 -37 102l-139 1210q-2 16 -2 45q0 48 33 58q31 10 162 10q27 0 37 -14q9 -13 14 -49
q92 -913 110 -1145z" />
    <glyph glyph-name="W" unicode="W" horiz-adv-x="1908" 
d="M1094 1141q-35 -82 -490 -1024q-30 -68 -69 -95q-40 -28 -107 -28h-61q-121 0 -121 112q-4 597 -4 1229q0 44 6 68q6 36 45 41q53 8 153 8q48 0 48 -55q-15 -933 -23 -1151q101 243 498 1048q30 61 58 86t83 25h59q62 0 83 -24q22 -25 26 -85q41 -696 45 -1052
q53 158 467 1147q24 61 70 61q106 0 149 -8q27 -4 27 -33t-23 -80l-524 -1212q-27 -64 -65 -94q-39 -31 -107 -31h-53q-75 0 -102 29q-28 29 -32 96q-31 630 -36 1022z" />
    <glyph glyph-name="X" unicode="X" horiz-adv-x="1308" 
d="M225 45q-43 -49 -86 -49q-142 0 -168 8q-20 7 -20 33q0 19 37 63l573 662l-278 579q-19 40 -19 60q0 30 35 41q42 8 147 8q45 0 66 -47q178 -375 227 -488q123 156 414 486q43 51 88 51q131 0 162 -10q22 -6 22 -33q0 -22 -36 -61l-531 -619l307 -633q17 -34 17 -55
q0 -31 -31 -37q-42 -8 -152 -8q-27 0 -41 11q-13 11 -30 44l-250 524q-117 -144 -453 -530z" />
    <glyph glyph-name="Y" unicode="Y" horiz-adv-x="1181" 
d="M629 57q-6 -61 -60 -61h-137q-41 0 -41 41q0 11 8 51l109 522l-291 733q-16 44 -16 62q0 29 26 39q24 8 172 8q41 0 62 -51q155 -406 203 -555q105 148 428 549q45 57 90 57q133 0 168 -8q18 -6 18 -31q0 -24 -35 -65l-590 -732z" />
    <glyph glyph-name="Z" unicode="Z" horiz-adv-x="1218" 
d="M1038 0h-964q-105 0 -105 90q0 96 72 170l948 979h-700q-47 0 -47 39q0 21 20 111q15 57 66 57h848q114 0 114 -100q0 -106 -88 -195l-919 -944h784q53 0 53 -41q0 -35 -22 -123q-10 -43 -60 -43z" />
    <glyph glyph-name="bracketleft" unicode="[" horiz-adv-x="624" 
d="M391 -291h-340q-33 0 -33 33q0 12 7 47l358 1688q12 49 47 49h348q31 0 31 -25q0 -14 -12 -59q-6 -29 -43 -29h-199l-338 -1593h199q30 0 30 -25q0 -18 -10 -57q-6 -29 -45 -29z" />
    <glyph glyph-name="backslash" unicode="\" horiz-adv-x="917" 
d="M811 -131q8 -35 8 -43q0 -28 -28 -29q-14 -2 -78 -2q-39 0 -51 49l-426 1604q-11 39 -11 51q0 35 35 37q32 2 78 2q30 0 45 -55z" />
    <glyph glyph-name="bracketright" unicode="]" horiz-adv-x="624" 
d="M307 1526h336q39 0 39 -33q0 -20 -10 -59l-355 -1678q-11 -47 -47 -47h-350q-29 0 -29 23q0 12 11 59q8 29 45 29h198l336 1593h-198q-29 0 -29 25q0 9 8 57q8 31 45 31z" />
    <glyph glyph-name="asciicircum" unicode="^" horiz-adv-x="1462" 
d="M1233 651q6 -18 6 -35q0 -41 -47 -41h-68q-47 0 -59 48l-152 573l-403 -586q-23 -35 -64 -35h-81q-48 0 -48 35q0 16 13 35l491 701q23 36 68 36h94q49 0 61 -47z" />
    <glyph glyph-name="underscore" unicode="_" horiz-adv-x="1009" 
d="M-88 -158h1008l-23 -94h-1008z" />
    <glyph glyph-name="grave" unicode="`" horiz-adv-x="403" 
d="M172 1221l-215 243q-23 23 -23 47q0 34 46 39q51 4 126 4q43 0 76 -49l170 -237q19 -25 19 -45q0 -27 -39 -33q-24 -2 -80 -2q-50 0 -80 33z" />
    <glyph glyph-name="a" unicode="a" horiz-adv-x="1099" 
d="M885 182q-16 -71 -45 -106q-22 -28 -78 -49q-151 -54 -373 -54q-330 0 -330 256q0 238 170 330q102 57 328 57q80 0 191 -10l10 49q12 57 12 97q0 92 -164 92q-119 0 -209 -19q-57 -14 -80 -14q-26 0 -34 35q-17 63 -17 92q0 39 53 57q144 45 334 45q62 0 107 -3
q48 -3 95 -16q51 -14 81 -35t51 -60t21 -95q0 -71 -23 -180zM717 444q-68 9 -162 9q-141 0 -203 -35q-73 -43 -73 -144q0 -127 159 -127q107 0 176 29q22 7 41 37q14 26 25 76z" />
    <glyph glyph-name="b" unicode="b" horiz-adv-x="1148" 
d="M88 184l272 1286q12 62 62 62h123q45 0 45 -39q0 -21 -2 -35l-107 -502q113 84 318 84q280 0 280 -299q0 -139 -42 -312t-124 -279q-78 -103 -183 -139q-109 -38 -275 -38q-192 0 -310 41q-67 24 -67 90q0 36 10 80zM332 264q-6 -16 -6 -45q0 -33 43 -45q63 -14 118 -14
q181 0 250 106q49 72 79 204q30 130 30 220q0 79 -38 119q-37 39 -128 39q-59 0 -129 -19q-65 -18 -92 -45q-17 -15 -27 -53z" />
    <glyph glyph-name="c" unicode="c" horiz-adv-x="935" 
d="M319 375q0 -213 207 -213q62 0 158 16q10 0 36 6t34 6q31 0 37 -32q16 -74 16 -103q0 -33 -49 -45q-117 -37 -295 -37q-179 0 -279 88t-100 265q0 160 55 324q56 166 166 270q132 120 381 120q147 0 229 -26q33 -10 33 -43q0 -48 -30 -117q-15 -29 -44 -29q-4 0 -31 5
q-6 1 -13.5 2.5t-11 2.5t-5.5 1q-73 12 -149 12q-142 0 -222 -84q-59 -62 -91 -174q-32 -113 -32 -215z" />
    <glyph glyph-name="d" unicode="d" horiz-adv-x="1155" 
d="M936 166q-7 -49 -29 -78q-22 -36 -84 -59q-141 -56 -362 -56q-182 0 -280 86q-97 85 -97 254t55 334q55 166 166 271q129 122 389 122q129 0 195 -28l94 458q15 62 61 62h125q43 0 43 -39q0 -19 -2 -35zM729 272l107 492q4 13 4 33q0 27 -21 34q-51 23 -143 23
q-131 0 -209 -70q-71 -65 -111 -183q-41 -121 -41 -249q0 -192 185 -192q105 0 168 24q31 12 41 33q15 30 20 55z" />
    <glyph glyph-name="e" unicode="e" horiz-adv-x="1052" 
d="M322 442q-9 -52 -9 -96q0 -102 57 -143q58 -41 173 -41q114 0 221 26q60 13 63 13q22 0 33 -29q21 -66 21 -96q0 -33 -45 -51q-133 -52 -355 -52q-397 0 -397 355q0 160 53 321q52 158 162 262q135 129 381 129q182 0 258 -70t76 -204q0 -128 -31 -246q-12 -48 -33 -65
q-20 -13 -51 -13h-577zM356 612h430q17 54 17 129q0 65 -35 95q-34 30 -123 30q-123 0 -196 -69q-55 -55 -93 -185z" />
    <glyph glyph-name="f" unicode="f" horiz-adv-x="692" 
d="M342 53q-8 -57 -59 -57h-129q-39 0 -39 37q0 20 4 35l162 757h-107q-43 0 -43 37q0 19 19 103q10 49 59 49h113l22 110q45 221 152 301q142 113 391 113q71 0 71 -51q0 -37 -8 -90q-8 -46 -57 -47q-200 -11 -262 -86q-43 -44 -64 -156l-18 -94h194q43 0 43 -39
q0 -43 -20 -109q-11 -41 -59 -41h-197z" />
    <glyph glyph-name="g" unicode="g" horiz-adv-x="1144" 
d="M672 20q-80 -45 -238 -45q-350 0 -350 353q0 155 54 320q54 164 159 263q139 129 397 129q216 0 346 -47q52 -18 52 -57q0 -3 -9 -62l-165 -792q-33 -166 -87 -277q-74 -153 -238 -219q-162 -65 -460 -65q-63 0 -63 47q0 58 4 94q5 28 18 37q15 11 49 12q224 6 317 36
t142 89q40 51 64 146zM731 270l107 498q4 21 4 29q0 27 -27 37q-54 20 -145 20q-148 0 -224 -84q-57 -66 -94 -182q-37 -115 -37 -230q0 -194 185 -194q107 0 174 29q32 16 41 34q9 14 16 43z" />
    <glyph glyph-name="h" unicode="h" horiz-adv-x="1179" 
d="M287 49q-11 -53 -54 -53h-133q-43 0 -43 35q0 15 6 39l297 1403q12 59 64 59h121q45 0 45 -39q0 -13 -2 -29l-111 -506q116 82 336 82q272 0 272 -176q0 -75 -20 -162l-137 -653q-11 -53 -58 -53h-131q-41 0 -41 35q0 19 7 45l126 583q13 67 13 103q0 86 -142 86
q-113 0 -196 -37q-34 -12 -49 -27q-19 -19 -29 -69z" />
    <glyph glyph-name="i" unicode="i" horiz-adv-x="532" 
d="M291 49q-12 -53 -58 -53h-131q-41 0 -41 37q0 17 9 51l190 881q11 53 55 53h134q38 0 38 -37q0 -7 -1 -13q-2 -14 -4 -20q-3 -10 -3 -14zM567 1382q0 -90 -45 -129q-38 -34 -98 -34q-111 0 -111 96q0 85 43 125q39 39 103 39q108 0 108 -97z" />
    <glyph glyph-name="j" unicode="j" horiz-adv-x="532" 
d="M266 -57q-40 -204 -141 -299q-57 -51 -164 -87t-197 -36q-28 0 -38 10t-15 35q-6 40 -6 78q0 54 57 61q131 23 189 64q59 40 88 170l221 1026q11 53 55 53h134q38 0 38 -37q0 -8 -8 -43zM567 1382q0 -90 -45 -129q-38 -34 -98 -34q-111 0 -111 96q0 85 43 125
q39 39 103 39q108 0 108 -97z" />
    <glyph glyph-name="k" unicode="k" horiz-adv-x="1091" 
d="M287 49q-11 -53 -54 -53h-133q-43 0 -43 35q0 6 1 11q2 10 3 16q2 12 2 14l302 1409q12 51 59 51h127q41 0 41 -37q0 -10 -4 -31l-170 -800h100q63 0 98 41l250 274q33 39 74 39q130 0 156 -8q20 -6 20 -29q0 -17 -33 -55q-255 -285 -344 -371q18 -30 224 -463
q14 -31 14 -53q0 -25 -31 -37q-19 -8 -151 -8q-40 0 -58 39l-182 399q-18 37 -74 37h-102z" />
    <glyph glyph-name="l" unicode="l" horiz-adv-x="583" 
d="M582 1458l-236 -1106q-14 -62 -14 -102q0 -41 24 -59q23 -17 80 -25q37 -6 37 -45q0 -42 -16 -90q-15 -41 -68 -41q-291 0 -291 205q0 50 19 139l241 1136q15 62 60 62h125q45 0 45 -39q0 -6 -1 -9q-1 -2 -3 -14q-2 -10 -2 -12z" />
    <glyph glyph-name="m" unicode="m" horiz-adv-x="1771" 
d="M293 49q-15 -53 -57 -53h-132q-41 0 -41 35q0 13 7 41l161 759q18 92 97 125q199 86 456 86q167 0 226 -81q137 81 393 81q119 0 200 -42q80 -41 80 -142q0 -80 -20 -176l-133 -633q-11 -53 -57 -53h-134q-39 0 -39 35q0 8 7 43l127 585q12 51 12 101q0 90 -131 90
q-90 0 -189 -37q-24 -11 -47 -27q-13 -15 -20 -41q-4 -18 -7 -34q-3 -19 -10 -47l-131 -615q-11 -53 -55 -53h-133q-39 0 -39 35q0 17 6 47l125 581q12 57 12 99q0 50 -30 71t-95 21q-95 0 -194 -37q-34 -16 -45 -25q-20 -20 -27 -57z" />
    <glyph glyph-name="n" unicode="n" horiz-adv-x="1173" 
d="M291 49q-12 -53 -55 -53h-134q-41 0 -41 35q0 13 7 41l161 759q21 92 99 125q198 86 475 86q121 0 202 -42q80 -41 80 -142q0 -90 -20 -176l-135 -633q-11 -53 -56 -53h-133q-41 0 -41 35q0 8 7 43l127 585q14 63 14 101q0 90 -141 90q-111 0 -201 -37q-14 -8 -45 -25
q-15 -15 -25 -57z" />
    <glyph glyph-name="o" unicode="o" horiz-adv-x="1122" 
d="M1057 719q0 -133 -43 -306q-44 -177 -125 -282q-122 -158 -395 -158q-91 0 -163 14q-69 13 -128 49q-59 35 -89 105q-30 69 -30 174q0 152 46 318q47 169 142 270q129 137 371 137q102 0 163 -10q64 -10 127 -42q63 -31 93 -98q31 -68 31 -171zM825 686q0 96 -48 130
q-47 34 -152 34q-130 0 -193 -84q-54 -70 -84 -206q-31 -143 -31 -224q0 -100 45 -137q44 -37 148 -37q150 0 213 96q46 68 74 209q28 139 28 219z" />
    <glyph glyph-name="p" unicode="p" horiz-adv-x="1161" 
d="M186 -428q-7 -28 -21 -40q-12 -11 -44 -11h-117q-47 0 -47 35l6 38l264 1235q10 51 29 80q21 38 82 62q65 28 192 49q121 20 238 20q174 0 242 -71q69 -72 69 -238q0 -130 -39 -296q-39 -169 -116 -273q-78 -108 -184 -148q-109 -41 -271 -41q-127 0 -190 33zM330 260
q-4 -25 -4 -41q0 -27 24 -39q39 -20 135 -20q110 0 167 28q59 29 100 103q40 71 67 196t27 195q0 86 -36 126t-130 40q-93 0 -178 -35q-36 -16 -49 -35q-14 -18 -21 -53z" />
    <glyph glyph-name="q" unicode="q" horiz-adv-x="1155" 
d="M588 -397l94 442q-105 -72 -264 -72q-156 0 -245 92t-89 244q0 170 57 337t174 269q80 72 171 98q95 27 237 27q177 0 299 -45q68 -29 68 -77q0 -30 -11 -72l-270 -1272q-11 -53 -57 -53h-127q-45 0 -45 35q0 7 8 47zM731 281l100 467q7 28 7 47q0 27 -21 34
q-52 25 -135 25q-136 0 -205 -63q-78 -67 -120 -189t-42 -254q0 -90 46 -139t135 -49q115 0 188 43q18 10 33 35q7 12 14 43z" />
    <glyph glyph-name="r" unicode="r" horiz-adv-x="768" 
d="M291 49q-12 -53 -55 -53h-136q-39 0 -39 35q0 8 7 43l159 743q18 86 80 131q52 38 161 65q110 27 224 27q92 0 121 -10q27 -8 27 -45q0 -63 -23 -115q-12 -30 -51 -30q-3 0 -9 0.5t-18 1t-22 0.5q-52 2 -53 2q-115 0 -168 -29q-29 -12 -41 -33q-11 -17 -21 -59z" />
    <glyph glyph-name="s" unicode="s" horiz-adv-x="890" 
d="M590 575q207 -74 207 -241q0 -169 -101 -264q-106 -97 -342 -97q-219 0 -334 50q-28 12 -28 38q0 37 33 115q15 33 49 33q24 0 53 -12q113 -39 254 -39q119 0 158 45q32 38 32 90q0 36 -23 56q-27 23 -99 46l-121 39q-207 69 -207 244q0 185 125 280q101 82 329 82
q158 0 252 -28q37 -7 37 -41q0 -33 -24 -115q-11 -29 -45 -29q-12 0 -47 7q-123 24 -207 24q-105 0 -150 -33q-43 -34 -43 -104q0 -62 121 -105z" />
    <glyph glyph-name="t" unicode="t" horiz-adv-x="712" 
d="M500 823l-92 -420q-13 -57 -13 -106q0 -62 41 -92q30 -22 139 -33q43 -6 43 -47q0 -32 -16 -96q-15 -45 -63 -45q-178 1 -280 51q-101 49 -101 184q0 76 28 213l86 391h-104q-39 0 -39 33q0 32 18 111q15 47 62 47h106l56 227q15 55 59 55h117q39 0 39 -34q0 -27 -8 -62
l-41 -186h172q51 0 51 -39q0 -41 -21 -109q-10 -43 -61 -43h-178z" />
    <glyph glyph-name="u" unicode="u" horiz-adv-x="1173" 
d="M958 176q-21 -95 -98 -125q-192 -78 -469 -78q-287 0 -287 193q0 76 21 172l135 627q11 53 53 53h133q41 0 41 -35q0 -13 -6 -43l-127 -584q-12 -57 -12 -100q0 -92 145 -92q114 0 193 29q29 12 47 30q19 19 25 53l147 689q11 53 55 53h131q41 0 41 -35q0 -11 -6 -41z
" />
    <glyph glyph-name="v" unicode="v" horiz-adv-x="1024" 
d="M446 233q108 215 412 734q30 53 72 53q66 0 139 -10q33 -2 33 -35q0 -23 -23 -64l-487 -805q-38 -62 -70 -87t-92 -25h-51q-66 0 -91 26q-25 27 -36 91l-129 804q-4 21 -4 41q0 48 43 54q54 10 135 10q26 0 38 -13q10 -11 15 -44q78 -540 96 -730z" />
    <glyph glyph-name="w" unicode="w" horiz-adv-x="1531" 
d="M831 731q-60 -127 -319 -635q-29 -60 -68 -82q-36 -20 -100 -20h-39q-109 0 -115 106l-36 801q-2 32 -2 57q0 48 43 54q88 8 147 8q45 0 45 -53q8 -289 14 -742q90 204 316 637q36 65 63 88q30 25 80 25h29q51 0 74 -23q22 -22 28 -82q43 -443 51 -643q64 160 318 736
q24 57 70 57q89 0 143 -10q24 -2 24 -37q0 -17 -24 -70l-377 -807q-24 -55 -61 -79q-36 -23 -99 -23h-39q-113 0 -120 102q-42 508 -46 635z" />
    <glyph glyph-name="x" unicode="x" horiz-adv-x="1050" 
d="M516 369l-299 -328q-43 -45 -78 -45q-126 0 -159 6q-25 6 -25 33q0 24 35 59l409 430l-202 396q-17 29 -17 47q0 33 31 39q57 14 154 14q25 0 36 -11q13 -13 29 -42q21 -39 139 -293q95 112 267 295q45 51 84 51q108 0 153 -12q23 -8 23 -29q0 -23 -33 -61l-377 -398
l221 -424q17 -28 17 -53q0 -27 -31 -35q-29 -12 -158 -12q-38 0 -59 43q-119 241 -160 330z" />
    <glyph glyph-name="y" unicode="y" horiz-adv-x="1173" 
d="M696 35q-130 -62 -307 -62q-287 0 -287 195q0 66 21 168l137 631q10 51 55 51h134q38 0 38 -35q0 -13 -6 -43l-125 -584q-14 -53 -14 -106q0 -86 145 -86q113 0 195 31q31 11 47 28q18 26 25 64l145 678q11 53 59 53h127q41 0 41 -35q0 -20 -4 -35l-188 -889
q-37 -171 -78 -254q-78 -155 -248 -220q-168 -64 -479 -64q-59 0 -59 49q0 50 6 80q10 65 57 65q242 1 352 38q108 36 152 106q34 57 51 137z" />
    <glyph glyph-name="z" unicode="z" horiz-adv-x="985" 
d="M803 0h-729q-101 0 -101 88q0 90 84 166l633 565h-504q-39 0 -39 33q0 23 23 113q15 49 59 49h643q109 0 109 -92q0 -89 -94 -177l-615 -550h572q41 0 41 -41q0 -14 -23 -115q-7 -39 -59 -39z" />
    <glyph glyph-name="braceleft" unicode="{" horiz-adv-x="694" 
d="M274 616q146 -35 146 -178q0 -31 -17 -119l-61 -288q-12 -61 -12 -103q0 -43 20 -69q28 -38 135 -43q31 -5 31 -33q0 -33 -6 -51q-15 -35 -53 -35q-204 0 -267 63q-51 51 -51 131q0 50 17 129l61 287q19 93 19 119q0 120 -123 137q-33 6 -33 33q0 10 8 47q12 45 47 51
q90 16 139 73t76 173l58 254q41 187 104 250q92 92 326 92q43 0 43 -33q0 -15 -7 -47q-8 -41 -51 -41q-127 -4 -176 -61q-31 -39 -55 -154l-62 -280q-29 -140 -90 -206q-64 -69 -166 -98z" />
    <glyph glyph-name="bar" unicode="|" horiz-adv-x="509" 
d="M201 -250q-12 -53 -56 -53h-92q-39 0 -39 35q0 11 6 41l369 1724q11 53 53 53h95q38 0 38 -32l-8 -41z" />
    <glyph glyph-name="braceright" unicode="}" horiz-adv-x="720" 
d="M494 614q-144 33 -144 181q0 47 17 118l59 287q12 66 12 103q0 48 -20 69q-28 38 -135 45q-31 5 -31 31q0 33 6 51q15 37 53 37q201 0 267 -63q51 -47 51 -132q0 -42 -19 -131l-59 -284q-16 -76 -16 -119q0 -119 118 -137q35 -6 35 -33q0 -25 -6 -49q-16 -43 -49 -49
q-92 -17 -140 -72q-48 -56 -75 -176l-56 -254q-41 -181 -106 -246q-53 -53 -129 -74q-73 -20 -197 -20q-43 0 -43 33q0 14 7 49q8 39 53 39q124 0 174 59q31 41 55 156l62 278q30 140 91 207q60 66 165 96z" />
    <glyph glyph-name="asciitilde" unicode="~" horiz-adv-x="1435" 
d="M350 498q-27 -27 -45 -27q-25 0 -59 29q-29 27 -29 51q0 21 16 41q153 176 306 176q86 0 237 -86q114 -66 191 -66q96 0 186 105q28 31 49 31q16 0 47 -23q43 -33 43 -57q0 -18 -16 -41q-141 -185 -311 -185q-108 0 -236 76q-125 74 -192 74q-89 0 -187 -98z" />
    <glyph glyph-name="exclamdown" unicode="&#xa1;" horiz-adv-x="598" 
d="M152 492q16 61 75 61h68q61 0 61 -49q0 -13 -4 -37l-4 -25q-15 -76 -65 -342q-32 -171 -43 -223q-16 -75 -24 -121q-9 -51 -13 -66q-5 -19 -6 -32q-15 -76 -78 -76h-115q-59 0 -59 56q0 34 207 854zM174 852q0 100 55 156q40 43 119 43q131 0 131 -121q0 -89 -51 -146
q-40 -49 -123 -49q-131 0 -131 117z" />
    <glyph glyph-name="cent" unicode="&#xa2;" horiz-adv-x="1040" 
d="M616 -8l-32 -162q-10 -43 -47 -43h-82q-37 0 -37 31q0 10 4 35l33 139q-295 34 -295 338q0 139 51 304q51 164 147 265q109 115 318 133l33 150q10 49 49 49h80q34 0 34 -31q0 -15 -6 -45l-26 -119q87 -6 157 -28q31 -8 31 -41q0 -42 -35 -117q-12 -31 -39 -31
q-19 0 -59 8q-63 15 -152 15q-147 0 -223 -88q-119 -134 -119 -383q0 -98 50 -145q49 -46 153 -46q83 0 172 19q44 10 62 10q22 0 30 -23q25 -77 25 -102q0 -32 -41 -49q-89 -31 -236 -43z" />
    <glyph glyph-name="sterling" unicode="&#xa3;" horiz-adv-x="1255" 
d="M1032 0h-876q-41 0 -41 31q0 30 20 127q10 43 60 43h116l82 368h-141q-43 0 -43 33q0 28 18 100q11 50 62 50h139l47 204q45 208 125 299q78 88 178 121t252 33q156 0 260 -29q39 -10 39 -47q0 -50 -29 -119q-12 -28 -47 -28q-10 0 -40 6t-37 6q-115 16 -177 16
q-142 0 -211 -63q-56 -53 -86 -205l-43 -194h336q45 0 45 -37q0 -23 -18 -103q-10 -43 -57 -43h-344l-78 -368h526q43 0 43 -33q0 -37 -22 -131q-7 -37 -58 -37z" />
    <glyph glyph-name="currency" unicode="&#xa4;" horiz-adv-x="1116" 
d="M1026 240q-21 -21 -37 -21q-18 0 -37 19l-102 102q-100 -70 -238 -70t-239 68l-97 -100q-21 -21 -36 -21q-20 0 -41 21l-19 20q-18 22 -18 39t18 39l103 104q-76 104 -76 240q0 131 76 238l-103 102q-18 22 -18 37q0 25 18 41l19 18q24 21 39 21q18 0 36 -21l101 -102
q95 76 237 76q145 0 236 -74l102 100q21 21 37 21q19 0 37 -21l16 -16q21 -21 21 -41q0 -16 -21 -37l-100 -102q76 -100 76 -240t-76 -240l104 -104q17 -17 17 -37q0 -17 -19 -41zM877 680q0 123 -75 198q-74 74 -190 74q-115 0 -190 -75q-76 -76 -76 -195q0 -125 76 -201
q75 -75 190 -75q116 0 190 75q75 77 75 199z" />
    <glyph glyph-name="yen" unicode="&#xa5;" horiz-adv-x="1304" 
d="M684 49q-12 -53 -59 -53h-133q-43 0 -43 39q0 5 3 17t3 16l67 327h-284q-35 0 -35 31q0 18 10 55q8 39 47 39h291l14 64l-39 88h-229q-35 0 -35 30q0 9 10 58q8 35 50 35h151l-209 481q-12 27 -12 51q0 37 35 49q24 8 151 8q41 0 62 -53q175 -415 215 -530q13 17 83 101
q44 52 147 174q108 127 212 251q47 57 88 57q147 0 166 -8q23 -11 23 -35q0 -19 -37 -63l-424 -483h149q41 0 41 -29q0 -22 -10 -59q-8 -35 -47 -35h-238l-71 -82l-17 -70h285q39 0 39 -33q0 -20 -10 -57q-8 -35 -45 -35h-293z" />
    <glyph glyph-name="brokenbar" unicode="&#xa6;" horiz-adv-x="509" 
d="M444 893q-12 -51 -55 -51h-92q-39 0 -39 32q0 14 6 44l109 499q11 53 53 53h94q39 0 39 -32l-1 -4q-1 -5 -3 -16.5t-4 -22.5zM256 14q-12 -51 -55 -51h-92q-39 0 -39 33q0 11 6 41l108 502q11 53 54 53h94q39 0 39 -35l-1 -5q-1 -5 -3.5 -15.5t-4.5 -22.5z" />
    <glyph glyph-name="section" unicode="&#xa7;" horiz-adv-x="1054" 
d="M745 248q89 -69 89 -193q0 -178 -118 -281q-119 -104 -351 -104q-197 0 -324 51q-43 16 -43 54q0 43 33 112q12 27 43 27q16 0 57 -14q109 -41 260 -41q211 0 211 161q0 44 -33 79q-31 32 -129 89l-108 64q-117 68 -168 135t-51 154q0 139 78 218q79 81 196 97
q-80 57 -80 180q0 162 100 271q99 109 326 110q155 0 271 -35q40 -12 40 -51q0 -45 -28 -110q-12 -29 -43 -29l-62 12q-128 25 -202 25q-185 0 -185 -158q0 -84 142 -164l94 -55q137 -80 188 -143t51 -148q0 -132 -68 -209t-186 -104zM784 506q0 82 -86 133q-97 64 -161 100
q-29 13 -54 13q-18 0 -45 -9q-116 -34 -116 -149q0 -69 94 -129q101 -66 180 -103q16 -10 39 -10q27 0 47 10q102 56 102 144z" />
    <glyph glyph-name="dieresis" unicode="&#xa8;" horiz-adv-x="403" 
d="M127 1380q0 -88 -39 -125q-33 -32 -94 -32q-103 0 -103 92q0 78 39 117q37 38 97 38q100 0 100 -90zM512 1380q0 -86 -41 -125q-32 -32 -94 -32q-101 0 -101 92q0 77 39 117q37 38 95 38q102 0 102 -90z" />
    <glyph glyph-name="copyright" unicode="&#xa9;" horiz-adv-x="1699" 
d="M1618 707q0 -319 -201 -527q-201 -209 -526 -209t-526 209q-201 208 -201 527q0 317 201 527t524 210q333 0 531 -208t198 -529zM1534 707q0 287 -175 472t-470 185q-289 0 -464 -186q-175 -185 -175 -471t175 -471q176 -187 466 -187q292 0 468 187q175 185 175 471z
M694 600q0 -197 191 -197q96 0 164 17q43 8 47 8q22 0 28 -25q17 -59 17 -75q0 -27 -37 -37q-110 -35 -270 -35q-152 0 -238 84t-86 250q0 322 170 475q111 102 326 102q100 0 174 -16q34 -7 34 -37q0 -43 -18 -88q-8 -18 -31 -18q-14 0 -47 4q-50 8 -121 8q-134 0 -198 -70
q-105 -114 -105 -350z" />
    <glyph glyph-name="ordfeminine" unicode="&#xaa;" horiz-adv-x="706" 
d="M643 653q-15 -51 -29 -65q-17 -21 -53 -33q-99 -31 -239 -31q-211 0 -211 156q0 147 104 203q64 35 211 35q36 0 113 -5q12 51 12 78q0 49 -96 49q-70 0 -129 -10q-8 0 -27 -4t-27 -4q-18 0 -24 25q-10 36 -10 63q0 29 34 41q85 27 217 27q58 0 90 -4q33 -4 70 -17
q34 -12 53 -40q19 -29 19 -68q0 -48 -14 -107zM516 809q-24 4 -92 4q-87 0 -119 -16q-41 -21 -41 -84q0 -68 92 -68q72 0 101 10q15 5 26 23q10 18 33 131z" />
    <glyph glyph-name="guillemotleft" unicode="&#xab;" horiz-adv-x="1052" 
d="M301 537l176 -324q15 -24 15 -43q0 -27 -35 -33q-44 -4 -107 -4q-36 0 -65 45l-191 322q-14 22 -14 49q0 24 31 55l311 303q47 47 92 47q84 0 109 -4q32 -6 32 -28t-28 -50zM733 537l174 -324q17 -28 17 -43q0 -27 -39 -33q-36 -4 -103 -4q-36 0 -65 45l-191 322
q-14 22 -14 49q0 24 31 55l311 303q47 47 92 47q84 0 109 -4q28 -6 28 -28q0 -23 -26 -50z" />
    <glyph glyph-name="logicalnot" unicode="&#xac;" horiz-adv-x="1435" 
d="M1184 121q-7 -49 -60 -49h-55q-49 0 -49 41q0 13 4 28l82 379h-848q-49 0 -49 47q0 25 10 68q12 51 57 51h957q55 0 55 -45q0 -15 -6 -39z" />
    <glyph glyph-name="uni00AD" unicode="&#xad;" horiz-adv-x="681" 
d="M551 451h-418q-45 0 -45 41q0 71 10 110q6 43 54 43h415q45 0 45 -39q0 -78 -10 -114q-2 -41 -51 -41z" />
    <glyph glyph-name="registered" unicode="&#xae;" horiz-adv-x="1699" 
d="M1616 707q0 -319 -201 -527q-201 -209 -526 -209q-326 0 -527 209q-200 207 -200 527q0 318 200 527q201 210 525 210q333 0 531 -208t198 -529zM1534 707q0 286 -177 472q-176 185 -470 185q-289 0 -465 -186q-176 -187 -176 -471t176 -471t467 -187q290 0 468 187
q177 186 177 471zM676 313q-6 -39 -41 -39h-84q-39 0 -39 33q0 5 3 17t3 18l146 680q17 81 54 115t118 34h94q153 0 233 -38q94 -51 94 -172q0 -232 -200 -304l114 -305q9 -27 9 -37q0 -33 -39 -39q-37 -6 -84 -6q-34 0 -49 39l-107 322h-74h-79zM774 766h100q79 0 121 14
q92 33 92 142q0 70 -51 94q-27 14 -108 14h-45q-52 0 -64 -53z" />
    <glyph glyph-name="macron" unicode="&#xaf;" horiz-adv-x="403" 
d="M414 1229h-459q-45 0 -45 39q0 32 18 94q12 47 62 47h456q48 0 48 -37q0 -24 -21 -96q-11 -47 -59 -47z" />
    <glyph glyph-name="degree" unicode="&#xb0;" horiz-adv-x="688" 
d="M776 1204q0 -141 -81 -225t-222 -84q-118 0 -189 68t-71 190q0 139 83 222t222 83q122 0 190 -65t68 -189zM678 1194q0 178 -170 178q-91 0 -143 -56q-54 -59 -54 -165q0 -82 47 -127t127 -45q88 0 140 55q53 56 53 160z" />
    <glyph glyph-name="plusminus" unicode="&#xb1;" horiz-adv-x="1435" 
d="M776 346q-6 -51 -57 -51h-55q-50 0 -50 43q0 16 4 35l78 362h-393q-47 0 -47 45q0 25 10 68q7 49 58 49h401l82 385q11 51 55 51h60q49 0 49 -47q0 -14 -4 -33l-76 -356h391q51 0 51 -45q0 -5 -12 -68q-10 -49 -57 -49h-404zM1143 0h-963q-49 0 -49 45q0 27 10 68
q12 51 58 51h966q49 0 49 -47q0 -15 -12 -68q-10 -49 -59 -49z" />
    <glyph glyph-name="twosuperior" unicode="&#xb2;" 
d="M758 860h-518q-41 0 -55 16q-13 14 -13 46q0 57 49 94q244 165 350 248q129 99 129 202q0 117 -145 117q-60 0 -117 -12q-49 -10 -53 -10q-21 0 -25 20q-10 49 -10 72q0 22 39 37q99 30 227 30q261 0 261 -209q0 -156 -138 -274q-117 -100 -333 -238h376q29 0 29 -26
q0 -18 -12 -84q-6 -29 -41 -29z" />
    <glyph glyph-name="threesuperior" unicode="&#xb3;" 
d="M657 1305q152 -17 152 -160q0 -149 -86 -223q-95 -78 -297 -78q-127 0 -199 24q-26 10 -26 33q0 15 20 78q6 20 31 20q10 0 45 -8q67 -12 145 -12q123 0 162 45q37 38 37 113q0 45 -37 66q-40 23 -135 24q-45 0 -45 47q0 90 68 90q109 0 155 35q39 33 39 100
q0 84 -131 84q-81 0 -127 -12q-43 -8 -45 -8q-17 0 -23 20q-14 59 -14 70q0 25 39 37q127 30 227 30q137 0 189 -46q53 -47 53 -132q0 -193 -197 -237z" />
    <glyph glyph-name="acute" unicode="&#xb4;" horiz-adv-x="403" 
d="M160 1221q-40 -35 -82 -35q-26 0 -76 6q-43 7 -43 37q0 22 23 45l217 237q37 43 82 43q81 0 127 -6q41 -8 41 -37q0 -24 -23 -45z" />
    <glyph glyph-name="mu" unicode="&#xb5;" horiz-adv-x="1241" 
d="M244 -367q-12 -51 -58 -51h-127q-45 0 -45 35q0 5 9 45l276 1303q11 53 53 53h137q37 0 37 -37q0 -23 -6 -47l-123 -567q-14 -63 -14 -105q0 -94 158 -94q118 0 188 29q31 13 45 26q17 15 27 53l147 689q11 53 56 53h133q41 0 41 -37q0 -10 -4 -26q-5 -20 -5 -19
l-165 -768q-18 -93 -97 -127q-169 -68 -377 -68q-146 0 -200 54z" />
    <glyph glyph-name="paragraph" unicode="&#xb6;" horiz-adv-x="1167" 
d="M510 -223q-6 -39 -39 -39h-39q-29 0 -29 24q0 4 5 27l147 690q-197 0 -287 91q-90 92 -90 243q0 167 66 308q66 140 192 222q154 103 428 103h271q51 0 51 -39q0 -9 -6 -47l-338 -1581q-6 -41 -41 -41h-39q-29 0 -29 24q0 12 4 27l330 1550h-225z" />
    <glyph glyph-name="periodcentered" unicode="&#xb7;" horiz-adv-x="493" 
d="M416 594q0 -104 -54 -158q-41 -41 -120 -41q-131 0 -131 121q0 86 51 143q44 50 123 50q131 0 131 -115z" />
    <glyph glyph-name="cedilla" unicode="&#xb8;" horiz-adv-x="403" 
d="M260 -106q164 -8 164 -158q0 -137 -80 -194q-78 -56 -229 -56q-68 0 -97 10q-34 12 -36 41q0 23 12 60q10 38 51 38q18 0 43 -4q24 -2 57 -2q50 0 71 18q22 19 22 62q0 51 -64 51h-37q-41 0 -41 37q0 15 17 66l55 157h133z" />
    <glyph glyph-name="onesuperior" unicode="&#xb9;" 
d="M682 860h-373q-28 0 -28 23t16 88q6 30 43 30h106l121 541l-114 -39q-18 -6 -33 -6q-14 0 -21 16q-22 65 -22 80q0 19 26 29l175 64q45 18 88 18h12q72 0 72 -59q0 -17 -13 -74l-125 -570h99q30 0 30 -22q0 -26 -16 -90q-8 -29 -43 -29z" />
    <glyph glyph-name="ordmasculine" unicode="&#xba;" horiz-adv-x="722" 
d="M750 979q0 -85 -27 -191t-80 -170q-82 -94 -252 -94q-125 0 -195 44q-69 44 -69 167q0 93 29 195q28 100 90 162q84 86 235 86q131 0 200 -39t69 -160zM584 954q0 54 -27 72t-86 18q-73 0 -111 -47q-32 -41 -49 -117q-18 -80 -18 -128q0 -55 25 -76q26 -21 85 -21
q84 0 119 54q26 40 43 119q19 87 19 126z" />
    <glyph glyph-name="guillemotright" unicode="&#xbb;" horiz-adv-x="1052" 
d="M981 483l-311 -303q-47 -47 -92 -47q-84 0 -109 4q-31 6 -31 31q0 18 29 47l324 336l-177 323q-14 27 -14 44q0 26 37 32q20 4 104 4q39 0 66 -43l190 -323q15 -24 15 -49q0 -20 -31 -56zM358 551l-176 323q-14 22 -14 44q0 26 37 32q20 4 106 4q37 0 64 -43l190 -323
q15 -24 15 -49t-31 -56l-311 -303q-47 -47 -93 -47q-83 0 -108 4q-31 6 -31 31q0 18 29 47z" />
    <glyph glyph-name="onequarter" unicode="&#xbc;" horiz-adv-x="1765" 
d="M1413 31q-6 -33 -39 -33h-88q-29 0 -29 25q0 12 5 30l32 142h-305q-78 0 -78 63q0 57 41 109l346 444q24 35 56 35q67 0 100 -4q19 0 19 -21q0 -15 -13 -33l-354 -454h219l35 151q6 37 39 37h88q29 0 29 -22q0 -4 -7 -39l-28 -127h80q32 0 32 -25q0 -9 -20 -88
q-6 -26 -37 -26h-84zM600 541h-373q-28 0 -28 22q0 23 16 88q6 31 43 31h107l120 541l-114 -39q-18 -6 -33 -6q-12 0 -19 16q-24 72 -24 80q0 18 27 29l174 63q50 18 90 18h10q72 0 72 -59q0 -25 -11 -74l-127 -569h101q31 0 31 -23q0 -12 -19 -90q-7 -28 -43 -28zM481 -31
q-24 -35 -53 -35q-13 0 -49 3q-21 1 -21 18q0 15 19 43l917 1413q30 45 62 45q34 0 53 -4q18 -2 18 -20q0 -19 -22 -48z" />
    <glyph glyph-name="onehalf" unicode="&#xbd;" horiz-adv-x="1765" 
d="M1507 0h-518q-39 0 -52 15q-13 14 -13 46q0 58 49 95q302 209 350 247q58 47 95 95q34 44 34 108q0 117 -143 117q-65 0 -121 -12l-51 -11q-19 0 -25 21q-12 49 -12 72q0 21 41 36q102 31 225 31q260 0 260 -209q0 -157 -137 -274q-130 -109 -332 -238h377q29 0 29 -26
q0 -6 -15 -84q-6 -29 -41 -29zM573 541h-372q-29 0 -29 22q0 23 16 88q6 31 43 31h107l121 541l-115 -39q-18 -6 -33 -6q-11 0 -18 16q-25 75 -25 80q0 18 27 29l174 63q49 18 90 18h10q72 0 72 -59q0 -30 -10 -74l-127 -569h100q31 0 31 -23q0 -12 -19 -90q-6 -28 -43 -28z
M453 -31q-24 -35 -54 -35q-13 0 -49 3q-20 1 -20 18q0 16 18 43l918 1413q30 45 61 45q34 0 53 -4q19 -2 19 -20q0 -17 -23 -48z" />
    <glyph glyph-name="threequarters" unicode="&#xbe;" horiz-adv-x="1765" 
d="M567 -31q-24 -35 -53 -35q-13 0 -49 3q-21 1 -21 18q0 15 19 43l917 1413q30 45 62 45q34 0 53 -4q18 -2 18 -20q0 -19 -22 -48zM643 985q150 -15 150 -160q0 -154 -84 -223q-91 -78 -299 -78q-124 0 -199 25q-27 11 -27 33t21 77q6 21 33 21q8 0 43 -8q73 -13 145 -13
q116 0 162 46q37 38 37 112q0 47 -37 68t-137 22q-43 0 -43 47q0 90 69 90q108 0 154 35q39 33 39 101q0 42 -30 63t-101 21q-68 0 -125 -13q-43 -8 -47 -8q-17 0 -23 21q-12 51 -12 71q0 25 41 37q116 29 225 29q135 0 187 -46q53 -47 53 -132q0 -195 -195 -238zM1487 31
q-6 -33 -39 -33h-88q-29 0 -29 25q0 15 4 30l33 142h-305q-78 0 -78 63q0 57 41 109l346 444q24 35 55 35q68 0 101 -4q18 0 18 -21q0 -17 -12 -33l-354 -454h219l35 151q6 37 39 37h88q28 0 28 -22q0 -9 -6 -39l-29 -127h80q33 0 33 -25q0 -9 -20 -88q-6 -26 -37 -26h-84z
" />
    <glyph glyph-name="questiondown" unicode="&#xbf;" horiz-adv-x="890" 
d="M477 555h80q47 0 47 -41q0 -26 -12 -94q-17 -84 -50 -129q-38 -51 -118 -101q-128 -83 -177 -142q-50 -61 -50 -157q0 -59 43 -96q44 -38 133 -39q78 0 186 19l53 8q29 0 41 -41q15 -61 15 -86q0 -42 -54 -57q-152 -41 -305 -41q-189 0 -274 72q-86 72 -86 196
q0 151 66 242q67 93 216 178q80 46 114 82q33 36 56 100q12 39 25 88q8 39 51 39zM412 854q0 100 55 156q40 43 119 43q131 0 131 -121q0 -89 -51 -146q-43 -49 -123 -49q-131 0 -131 117z" />
    <glyph glyph-name="Agrave" unicode="&#xc0;" horiz-adv-x="1280" 
d="M334 406l-191 -351q-22 -39 -33 -49q-14 -12 -38 -12q-140 0 -168 6q-23 6 -23 33q0 15 25 67l669 1203q49 89 88 120t119 31h54q75 0 105 -34t40 -113l147 -1196q5 -42 5 -60q0 -34 -33 -49q-26 -8 -152 -8q-28 0 -39 14t-16 49l-43 349h-516zM434 604h406
q-54 488 -64 645q-78 -156 -342 -645zM745 1581l-274 207q-29 23 -29 45q0 37 47 39q39 4 150 4q44 0 90 -43l209 -199q25 -23 25 -45q0 -27 -31 -33q-28 -6 -96 -6q-44 0 -91 31z" />
    <glyph glyph-name="Aacute" unicode="&#xc1;" horiz-adv-x="1280" 
d="M381 406l-191 -351q-22 -39 -33 -49q-13 -12 -38 -12q-139 0 -168 6q-23 6 -23 33q0 15 25 67l670 1203q49 90 87 120q39 31 119 31h54q75 0 105 -34t40 -113l148 -1196q4 -33 4 -60q0 -34 -33 -49q-26 -8 -152 -8q-28 0 -39 14t-16 49l-43 349h-516zM481 604h406
q-54 488 -64 645q-78 -156 -342 -645zM879 1563q-44 -29 -93 -29q-71 0 -90 4q-39 4 -39 33q0 26 29 47l262 199q56 41 96 41q76 0 144 -5q53 -6 53 -36q0 -31 -31 -50z" />
    <glyph glyph-name="Acircumflex" unicode="&#xc2;" horiz-adv-x="1280" 
d="M381 406l-191 -351q-22 -39 -33 -49q-13 -12 -38 -12q-139 0 -168 6q-23 6 -23 33q0 15 25 67l670 1203q49 90 87 120q39 31 119 31h54q75 0 105 -34t40 -113l148 -1196q4 -33 4 -60q0 -34 -33 -49q-26 -8 -152 -8q-28 0 -39 14t-16 49l-43 349h-516zM481 604h406
q-54 488 -64 645q-78 -156 -342 -645zM627 1552q-57 0 -92 7q-33 7 -33 32q0 21 26 43l238 207q60 51 104 51h86q50 0 80 -45l162 -209q16 -22 16 -39q0 -28 -40 -38q-28 -7 -80 -7q-44 0 -78 39l-127 129l-172 -131q-51 -39 -90 -39z" />
    <glyph glyph-name="Atilde" unicode="&#xc3;" horiz-adv-x="1280" 
d="M334 406l-191 -351q-22 -39 -33 -49q-14 -12 -38 -12q-140 0 -168 6q-23 6 -23 33q0 15 25 67l669 1203q49 89 88 120t119 31h54q75 0 105 -34t40 -113l147 -1196q5 -42 5 -60q0 -34 -33 -49q-26 -8 -152 -8q-28 0 -39 14t-16 49l-43 349h-516zM434 604h406
q-54 488 -64 645q-78 -156 -342 -645zM553 1559q-45 0 -66 6q-24 11 -24 34q0 20 16 58q76 184 209 184q44 0 148 -55q69 -39 114 -39q52 0 86 61q22 43 66 43q36 0 59 -6q27 -7 27 -33q0 -24 -25 -79q-73 -166 -198 -166q-61 0 -162 53q-80 41 -111 41q-47 0 -80 -57
q-8 -15 -12 -21q-6 -8 -11 -13q-7 -7 -16 -9q-10 -2 -20 -2z" />
    <glyph glyph-name="Adieresis" unicode="&#xc4;" horiz-adv-x="1280" 
d="M381 406l-191 -351q-22 -39 -33 -49q-13 -12 -38 -12q-139 0 -168 6q-23 6 -23 33q0 15 25 67l670 1203q49 90 87 120q39 31 119 31h54q75 0 105 -34t40 -113l148 -1196q4 -33 4 -60q0 -34 -33 -49q-26 -8 -152 -8q-28 0 -39 14t-16 49l-43 349h-516zM481 604h406
q-54 488 -64 645q-78 -156 -342 -645zM788 1724q0 -84 -38 -122q-40 -35 -95 -35q-102 0 -102 92q0 79 39 119q39 39 96 39q100 0 100 -93zM1190 1724q0 -81 -41 -122q-40 -35 -96 -35q-99 0 -99 92q0 80 39 119q37 39 94 39q103 0 103 -93z" />
    <glyph glyph-name="Aring" unicode="&#xc5;" horiz-adv-x="1280" 
d="M381 406l-191 -351q-22 -39 -33 -49q-13 -12 -38 -12q-139 0 -168 6q-23 6 -23 33q0 15 25 67l670 1203q49 90 87 120q39 31 119 31h54q75 0 105 -34t40 -113l148 -1196q4 -33 4 -60q0 -34 -33 -49q-26 -8 -152 -8q-28 0 -39 14t-16 49l-43 349h-516zM481 604h406
q-54 488 -64 645q-78 -156 -342 -645zM1063 1720q0 -99 -54 -156t-153 -57q-80 0 -126 45t-46 127q0 99 54 157t151 58q82 0 128 -46t46 -128zM981 1716q0 101 -100 101q-50 0 -85 -35q-34 -34 -34 -92q0 -107 102 -107q53 0 85 35t32 98z" />
    <glyph glyph-name="AE" unicode="&#xc6;" horiz-adv-x="1941" 
d="M227 49q-39 -53 -100 -53q-107 0 -158 4q-37 1 -37 35q0 24 33 61l1012 1209q64 78 118 111q49 30 136 30h764q47 0 47 -37q0 -20 -25 -131q-8 -39 -59 -39h-526l-86 -387h477q41 0 41 -35q0 -18 -23 -131q-7 -39 -57 -39h-479l-72 -325q-8 -40 -8 -60q0 -55 59 -55h516
q45 0 45 -37q0 -18 -24 -131q-12 -39 -60 -39h-618q-174 0 -174 137q0 52 12 103l41 180h-479zM694 621h367l137 614z" />
    <glyph glyph-name="Ccedilla" unicode="&#xc7;" horiz-adv-x="1183" 
d="M637 -111q166 -10 166 -165q0 -144 -82 -202q-83 -59 -234 -59q-49 0 -96 11q-39 8 -39 43q0 25 10 61q11 41 52 41q18 0 47 -4q24 -2 57 -2q52 0 74 18t22 66q0 53 -67 53h-37q-41 0 -41 37q0 17 16 68l41 125q-391 39 -391 489q0 229 80 478q79 246 238 382
q168 144 477 144q162 0 284 -25q50 -12 50 -53q0 -53 -31 -121q-11 -25 -39 -25l-8 1q-8 1 -27 4t-39 6q-73 14 -211 14q-203 0 -315 -115q-100 -101 -157 -293q-56 -187 -56 -360q0 -334 305 -334q95 0 242 25q62 12 84 12q33 0 39 -35q16 -71 16 -106q0 -31 -53 -48
q-154 -42 -352 -47z" />
    <glyph glyph-name="Egrave" unicode="&#xc8;" horiz-adv-x="1122" 
d="M940 0h-629q-94 0 -138 35t-44 108q0 46 10 90l213 996q24 114 82 166q57 51 170 51h567q52 0 52 -39q0 -31 -25 -129q-10 -39 -61 -39h-480q-65 0 -82 -78l-69 -309h495q46 0 46 -35q0 -23 -27 -131q-10 -39 -55 -39h-502l-72 -323q-8 -35 -8 -62q0 -55 63 -55h529
q49 0 49 -35q0 -38 -25 -133q-7 -39 -59 -39zM764 1581l-275 207q-28 22 -28 45q0 37 47 39q39 4 149 4q45 0 91 -43l208 -199q25 -23 25 -45q0 -27 -31 -33q-28 -6 -96 -6q-44 0 -90 31z" />
    <glyph glyph-name="Eacute" unicode="&#xc9;" horiz-adv-x="1122" 
d="M940 0h-629q-94 0 -138 35t-44 108q0 46 10 90l213 996q24 114 82 166q57 51 170 51h567q52 0 52 -39q0 -31 -25 -129q-10 -39 -61 -39h-480q-65 0 -82 -78l-69 -309h495q46 0 46 -35q0 -23 -27 -131q-10 -39 -55 -39h-502l-72 -323q-8 -35 -8 -62q0 -55 63 -55h529
q49 0 49 -35q0 -38 -25 -133q-7 -39 -59 -39zM889 1563q-44 -29 -92 -29q-71 0 -90 4q-39 4 -39 33q0 26 28 47l262 199q56 41 97 41q75 0 143 -5q53 -6 53 -36q0 -32 -30 -50z" />
    <glyph glyph-name="Ecircumflex" unicode="&#xca;" horiz-adv-x="1122" 
d="M940 0h-629q-94 0 -138 35t-44 108q0 46 10 90l213 996q24 114 82 166q57 51 170 51h567q52 0 52 -39q0 -31 -25 -129q-10 -39 -61 -39h-480q-65 0 -82 -78l-69 -309h495q46 0 46 -35q0 -23 -27 -131q-10 -39 -55 -39h-502l-72 -323q-8 -35 -8 -62q0 -55 63 -55h529
q49 0 49 -35q0 -38 -25 -133q-7 -39 -59 -39zM600 1552q-57 0 -92 7q-33 7 -33 32q0 21 27 43l237 207q60 51 105 51h86q50 0 80 -45l161 -209q17 -23 17 -39q0 -27 -41 -38q-28 -7 -80 -7q-43 0 -78 39l-127 129l-172 -131q-51 -39 -90 -39z" />
    <glyph glyph-name="Edieresis" unicode="&#xcb;" horiz-adv-x="1122" 
d="M940 0h-629q-94 0 -138 35t-44 108q0 46 10 90l213 996q24 114 82 166q57 51 170 51h567q52 0 52 -39q0 -31 -25 -129q-10 -39 -61 -39h-480q-65 0 -82 -78l-69 -309h495q46 0 46 -35q0 -23 -27 -131q-10 -39 -55 -39h-502l-72 -323q-8 -35 -8 -62q0 -55 63 -55h529
q49 0 49 -35q0 -38 -25 -133q-7 -39 -59 -39zM766 1724q0 -83 -39 -122q-40 -35 -94 -35q-103 0 -103 92q0 79 39 119q39 39 97 39q100 0 100 -93zM1167 1724q0 -81 -41 -122q-40 -35 -96 -35q-98 0 -98 92q0 80 39 119q38 39 94 39q102 0 102 -93z" />
    <glyph glyph-name="Igrave" unicode="&#xcc;" horiz-adv-x="610" 
d="M334 49q-12 -53 -60 -53h-137q-41 0 -41 37q0 3 6 41l285 1321q10 55 59 55h136q43 0 43 -37q0 -6 -9 -51zM492 1581l-275 207q-29 23 -29 45q0 37 48 39q39 4 149 4q44 0 90 -43l209 -199q25 -23 25 -45q0 -27 -31 -33q-28 -6 -96 -6q-44 0 -90 31z" />
    <glyph glyph-name="Iacute" unicode="&#xcd;" horiz-adv-x="610" 
d="M334 49q-12 -53 -60 -53h-137q-41 0 -41 37q0 3 6 41l285 1321q10 55 59 55h136q43 0 43 -37q0 -6 -9 -51zM553 1581q-44 -29 -92 -29q-71 0 -90 4q-39 4 -39 33q0 26 28 47l263 199q56 41 96 41q88 0 143 -4q53 -6 53 -37t-30 -49z" />
    <glyph glyph-name="Icircumflex" unicode="&#xce;" horiz-adv-x="610" 
d="M334 49q-12 -53 -60 -53h-137q-41 0 -41 37q0 3 6 41l285 1321q10 55 59 55h136q43 0 43 -37q0 -6 -9 -51zM295 1552q-57 0 -92 7q-33 7 -33 32q0 21 27 43l237 207q60 51 105 51h86q50 0 80 -45l161 -209q17 -23 17 -39q0 -27 -41 -38q-28 -7 -80 -7q-44 0 -78 39
l-127 129l-172 -131q-51 -39 -90 -39z" />
    <glyph glyph-name="Idieresis" unicode="&#xcf;" horiz-adv-x="610" 
d="M334 49q-12 -53 -60 -53h-137q-41 0 -41 37q0 3 6 41l285 1321q10 55 59 55h136q43 0 43 -37q0 -6 -9 -51zM451 1724q0 -83 -39 -122q-40 -35 -95 -35q-102 0 -102 92q0 79 39 119q39 39 96 39q101 0 101 -93zM852 1724q0 -81 -41 -122q-40 -35 -96 -35q-99 0 -99 92
q0 80 39 119q37 39 95 39q102 0 102 -93z" />
    <glyph glyph-name="Eth" unicode="&#xd0;" horiz-adv-x="1409" 
d="M469 0h-158q-94 0 -138 35t-44 108q0 46 10 90l90 424h-137q-41 0 -41 37q0 34 15 101q11 45 53 45h149l82 387q24 116 82 168q57 51 170 51h150q217 0 360 -47q128 -44 197 -156q69 -113 69 -272q0 -151 -24 -284q-24 -132 -80 -263q-54 -126 -158 -227
q-103 -100 -246 -146q-152 -51 -401 -51zM391 319q-8 -43 -8 -57q0 -55 63 -55h115q133 0 254 45q166 66 244 264t78 422q0 193 -129 256q-85 45 -254 45h-97q-65 0 -82 -78l-71 -321h260q43 0 43 -37q0 -23 -19 -107q-6 -24 -16 -31q-11 -8 -35 -8h-272z" />
    <glyph glyph-name="Ntilde" unicode="&#xd1;" horiz-adv-x="1476" 
d="M328 51q-10 -55 -58 -55h-129q-45 0 -45 43q0 13 6 37l263 1210q18 88 61 128t127 40h65q39 0 60 -7q22 -7 36 -26q12 -16 19 -35q9 -25 17 -51q209 -733 282 -1044q32 173 234 1093q12 66 63 66h121q41 0 41 -39q0 -5 -6 -49l-264 -1237q-30 -139 -158 -139h-55
q-70 0 -99 27q-28 26 -51 108q-262 918 -291 1059q-61 -310 -239 -1129zM725 1559q-45 0 -66 6q-24 11 -24 34q0 20 16 58q76 184 209 184q44 0 148 -55q69 -39 114 -39q52 0 86 61q22 43 66 43q36 0 59 -6q27 -7 27 -33q0 -24 -25 -79q-73 -166 -198 -166q-61 0 -162 53
q-80 41 -111 41q-47 0 -80 -57q-8 -15 -12 -21q-6 -8 -11 -13q-7 -7 -16 -9q-10 -2 -20 -2z" />
    <glyph glyph-name="Ograve" unicode="&#xd2;" horiz-adv-x="1419" 
d="M1389 1047q0 -209 -69 -481q-69 -270 -194 -412q-91 -98 -201 -139q-114 -42 -276 -42q-249 0 -382 98q-132 97 -132 353q0 217 70 476q68 253 203 398q168 177 458 177q91 0 171 -10q79 -10 143 -35q69 -27 112 -73t70 -124t27 -186zM1143 1008q0 156 -66 211
q-65 55 -227 55q-178 0 -275 -115q-91 -106 -143 -322q-53 -220 -53 -382q0 -163 66 -223t225 -60q103 0 171 28t120 105q80 114 131 337q51 225 51 366zM848 1581l-275 207q-28 22 -28 45q0 37 47 39q39 4 149 4q44 0 90 -43l209 -199q25 -23 25 -45q0 -27 -31 -33
q-28 -6 -96 -6q-44 0 -90 31z" />
    <glyph glyph-name="Oacute" unicode="&#xd3;" horiz-adv-x="1419" 
d="M1389 1047q0 -209 -69 -481q-69 -270 -194 -412q-91 -98 -201 -139q-114 -42 -276 -42q-249 0 -382 98q-132 97 -132 353q0 217 70 476q68 253 203 398q168 177 458 177q91 0 171 -10q79 -10 143 -35q69 -27 112 -73t70 -124t27 -186zM1143 1008q0 156 -66 211
q-65 55 -227 55q-178 0 -275 -115q-91 -106 -143 -322q-53 -220 -53 -382q0 -163 66 -223t225 -60q103 0 171 28t120 105q80 114 131 337q51 225 51 366zM942 1581q-44 -29 -92 -29q-71 0 -90 4q-39 4 -39 33q0 26 29 47l262 199q56 41 96 41q88 0 143 -4q54 -6 54 -37
q0 -30 -31 -49z" />
    <glyph glyph-name="Ocircumflex" unicode="&#xd4;" horiz-adv-x="1419" 
d="M1389 1047q0 -209 -69 -481q-69 -270 -194 -412q-91 -98 -201 -139q-114 -42 -276 -42q-249 0 -382 98q-132 97 -132 353q0 217 70 476q68 253 203 398q168 177 458 177q91 0 171 -10q79 -10 143 -35q69 -27 112 -73t70 -124t27 -186zM1143 1008q0 156 -66 211
q-65 55 -227 55q-178 0 -275 -115q-91 -106 -143 -322q-53 -220 -53 -382q0 -163 66 -223t225 -60q103 0 171 28t120 105q80 114 131 337q51 225 51 366zM698 1552q-57 0 -92 7q-33 7 -33 32q0 21 27 43l238 207q60 51 104 51h86q50 0 80 -45l162 -209q16 -22 16 -39
q0 -27 -41 -38q-28 -7 -80 -7q-43 0 -78 39l-126 129l-173 -131q-51 -39 -90 -39z" />
    <glyph glyph-name="Otilde" unicode="&#xd5;" horiz-adv-x="1419" 
d="M1341 1047q0 -213 -68 -481q-69 -270 -194 -412q-91 -98 -201 -139q-114 -42 -276 -42q-249 0 -382 98q-132 97 -132 353q0 217 70 476q69 254 202 398q168 177 459 177q91 0 171 -10q79 -10 143 -35q69 -27 112 -73t70 -124q26 -75 26 -186zM1096 1008q0 156 -66 211
q-65 55 -227 55q-178 0 -275 -115q-91 -106 -143 -322q-53 -220 -53 -382q0 -163 66 -223t225 -60q103 0 171 28q67 27 119 105q80 114 131 337q52 229 52 366zM621 1559q-43 0 -66 6q-25 11 -25 34q0 18 17 58q76 184 209 184q43 0 147 -55q69 -39 115 -39q52 0 86 61
q22 43 65 43q39 0 60 -6q26 -7 26 -33t-24 -79q-73 -166 -199 -166q-61 0 -162 53q-80 41 -110 41q-47 0 -80 -57q-8 -15 -12 -21q-3 -4 -12 -13q-8 -8 -15 -9q-10 -2 -20 -2z" />
    <glyph glyph-name="Odieresis" unicode="&#xd6;" horiz-adv-x="1419" 
d="M1389 1047q0 -209 -69 -481q-69 -270 -194 -412q-91 -98 -201 -139q-114 -42 -276 -42q-249 0 -382 98q-132 97 -132 353q0 217 70 476q68 253 203 398q168 177 458 177q91 0 171 -10q79 -10 143 -35q69 -27 112 -73t70 -124t27 -186zM1143 1008q0 156 -66 211
q-65 55 -227 55q-178 0 -275 -115q-91 -106 -143 -322q-53 -220 -53 -382q0 -163 66 -223t225 -60q103 0 171 28t120 105q80 114 131 337q51 225 51 366zM862 1724q0 -83 -39 -122q-40 -35 -94 -35q-102 0 -102 92q0 79 39 119q39 39 96 39q100 0 100 -93zM1264 1724
q0 -81 -41 -122q-40 -35 -97 -35q-98 0 -98 92q0 80 39 119q37 39 94 39q103 0 103 -93z" />
    <glyph glyph-name="multiply" unicode="&#xd7;" horiz-adv-x="1435" 
d="M1155 313q16 -16 16 -41q0 -21 -18 -39l-47 -47q-17 -16 -41 -16q-19 0 -37 18l-270 295l-334 -301q-16 -16 -37 -16q-19 0 -37 22l-33 37q-18 21 -18 41t23 43l331 299l-274 297q-19 19 -19 37q0 25 23 43l47 43q19 19 37 19q21 0 39 -21l272 -299l340 305q22 17 35 17
q22 0 39 -23l35 -41q14 -17 14 -35q0 -26 -20 -43l-342 -301z" />
    <glyph glyph-name="Oslash" unicode="&#xd8;" horiz-adv-x="1419" 
d="M197 -27q-18 -18 -31 -18q-17 0 -68 45q-14 11 -14 25q0 16 14 30l90 109q-53 101 -53 260q0 217 70 476q68 253 203 398q168 177 458 177q244 0 363 -70l86 102q15 17 28 17q14 0 25 -8q57 -44 57 -58q0 -13 -12 -28l-92 -111q68 -101 68 -272q0 -209 -69 -481
q-69 -270 -194 -412q-91 -98 -201 -139q-114 -42 -276 -42q-255 0 -375 93zM670 172q103 0 171 28t120 105q80 114 131 337q51 225 51 366q0 34 -8 90l-707 -848q62 -78 242 -78zM379 455q0 -38 2 -62l692 828q-64 53 -223 53q-178 0 -275 -115q-91 -106 -143 -322
q-53 -220 -53 -382z" />
    <glyph glyph-name="Ugrave" unicode="&#xd9;" horiz-adv-x="1396" 
d="M1415 1382l-172 -802q-39 -178 -66 -267q-26 -86 -77 -149q-79 -101 -199 -146q-121 -45 -313 -45q-82 0 -153 15q-76 16 -137 48q-66 35 -105 100q-39 66 -39 159q0 113 36 280l175 824q12 51 59 51h139q39 0 39 -37q0 -21 -6 -43l-180 -850q-21 -95 -21 -160
q0 -188 234 -188q194 0 274 92q59 65 98 244l191 891q12 51 55 51h135q37 0 37 -33q0 -16 -4 -35zM823 1581l-274 207q-29 23 -29 45q0 37 47 39q39 4 150 4q44 0 90 -43l209 -199q24 -22 24 -45q0 -27 -30 -33q-29 -6 -97 -6q-43 0 -90 31z" />
    <glyph glyph-name="Uacute" unicode="&#xda;" horiz-adv-x="1396" 
d="M1415 1382l-172 -802q-39 -178 -66 -267q-26 -86 -77 -149q-79 -101 -199 -146q-121 -45 -313 -45q-82 0 -153 15q-76 16 -137 48q-66 35 -105 100q-39 66 -39 159q0 113 36 280l175 824q12 51 59 51h139q39 0 39 -37q0 -21 -6 -43l-180 -850q-21 -95 -21 -160
q0 -188 234 -188q194 0 274 92q59 65 98 244l191 891q12 51 55 51h135q37 0 37 -33q0 -16 -4 -35zM948 1581q-44 -29 -92 -29q-71 0 -90 4q-39 4 -39 33q0 26 29 47l262 199q56 41 96 41q88 0 143 -4q54 -6 54 -37q0 -30 -31 -49z" />
    <glyph glyph-name="Ucircumflex" unicode="&#xdb;" horiz-adv-x="1396" 
d="M1415 1382l-172 -802q-39 -178 -66 -267q-26 -86 -77 -149q-79 -101 -199 -146q-121 -45 -313 -45q-82 0 -153 15q-76 16 -137 48q-66 35 -105 100q-39 66 -39 159q0 113 36 280l175 824q12 51 59 51h139q39 0 39 -37q0 -21 -6 -43l-180 -850q-21 -95 -21 -160
q0 -188 234 -188q194 0 274 92q59 65 98 244l191 891q12 51 55 51h135q37 0 37 -33q0 -16 -4 -35zM680 1552q-57 0 -92 7q-33 7 -33 32q0 21 27 43l237 207q60 51 105 51h86q50 0 80 -45l161 -209q17 -23 17 -39q0 -27 -41 -38q-28 -7 -80 -7q-43 0 -78 39l-127 129
l-172 -131q-51 -39 -90 -39z" />
    <glyph glyph-name="Udieresis" unicode="&#xdc;" horiz-adv-x="1396" 
d="M1415 1382l-172 -802q-39 -178 -66 -267q-26 -86 -77 -149q-79 -101 -199 -146q-121 -45 -313 -45q-82 0 -153 15q-76 16 -137 48q-66 35 -105 100q-39 66 -39 159q0 113 36 280l175 824q12 51 59 51h139q39 0 39 -37q0 -21 -6 -43l-180 -850q-21 -95 -21 -160
q0 -188 234 -188q194 0 274 92q59 65 98 244l191 891q12 51 55 51h135q37 0 37 -33q0 -16 -4 -35zM858 1724q0 -83 -39 -122q-40 -35 -94 -35q-102 0 -102 92q0 79 39 119q39 39 96 39q100 0 100 -93zM1260 1724q0 -81 -41 -122q-40 -35 -97 -35q-98 0 -98 92q0 80 39 119
q37 39 94 39q103 0 103 -93z" />
    <glyph glyph-name="Yacute" unicode="&#xdd;" horiz-adv-x="1181" 
d="M629 57q-6 -61 -60 -61h-137q-41 0 -41 41q0 11 8 51l109 522l-291 733q-16 44 -16 62q0 29 26 39q24 8 172 8q41 0 62 -51q155 -406 203 -555q105 148 428 549q45 57 90 57q133 0 168 -8q18 -6 18 -31q0 -24 -35 -65l-590 -732zM840 1573q-44 -29 -92 -29q-72 0 -91 4
q-39 4 -39 33q0 26 29 47l262 199q56 41 97 41q88 0 143 -4q53 -6 53 -37q0 -30 -31 -49z" />
    <glyph glyph-name="Thorn" unicode="&#xde;" horiz-adv-x="1282" 
d="M381 295l-55 -246q-8 -53 -58 -53h-137q-39 0 -39 37q0 18 4 37l283 1325q15 55 59 55h135q43 0 43 -35q0 -5 -8 -53l-47 -207h135q272 0 383 -57q148 -72 148 -256q0 -420 -353 -516q-116 -31 -333 -31h-160zM420 483h168q153 0 231 27q79 30 120 105q40 74 40 169
q0 110 -78 148q-57 24 -225 24h-154z" />
    <glyph glyph-name="germandbls" unicode="&#xdf;" horiz-adv-x="1159" 
d="M289 45q-12 -49 -58 -49h-125q-45 0 -45 37q0 6 5 33l194 929q51 238 107 330q66 105 168 159t278 54q169 0 254 -78q86 -78 86 -203q0 -191 -98 -313q-68 -89 -199 -127q227 -33 227 -278q0 -310 -184 -445q-150 -108 -418 -108q-65 0 -65 41q0 44 4 88q6 51 53 53
q217 16 291 84q94 88 94 272q0 80 -57 124q-57 43 -187 54q-59 4 -59 62q0 122 84 133q164 18 221 96q64 84 64 232q0 67 -42 102q-43 35 -114 35q-130 0 -197 -98q-33 -49 -73 -226z" />
    <glyph glyph-name="agrave" unicode="&#xe0;" horiz-adv-x="1099" 
d="M885 182q-16 -71 -45 -106q-22 -28 -78 -49q-151 -54 -373 -54q-330 0 -330 256q0 238 170 330q102 57 328 57q80 0 191 -10l10 49q12 57 12 97q0 92 -164 92q-119 0 -209 -19q-57 -14 -80 -14q-26 0 -34 35q-17 63 -17 92q0 39 53 57q144 45 334 45q62 0 107 -3
q48 -3 95 -16q51 -14 81 -35t51 -60t21 -95q0 -71 -23 -180zM717 444q-68 9 -162 9q-141 0 -203 -35q-73 -43 -73 -144q0 -127 159 -127q107 0 176 29q22 7 41 37q14 26 25 76zM598 1221l-215 243q-23 23 -23 47q0 34 46 39q51 4 126 4q43 0 76 -49l170 -237q19 -25 19 -45
q0 -27 -39 -33q-24 -2 -80 -2q-50 0 -80 33z" />
    <glyph glyph-name="aacute" unicode="&#xe1;" horiz-adv-x="1099" 
d="M885 182q-16 -71 -45 -106q-22 -28 -78 -49q-151 -54 -373 -54q-330 0 -330 256q0 238 170 330q102 57 328 57q80 0 191 -10l10 49q12 57 12 97q0 92 -164 92q-119 0 -209 -19q-57 -14 -80 -14q-26 0 -34 35q-17 63 -17 92q0 39 53 57q144 45 334 45q62 0 107 -3
q48 -3 95 -16q51 -14 81 -35t51 -60t21 -95q0 -71 -23 -180zM717 444q-68 9 -162 9q-141 0 -203 -35q-73 -43 -73 -144q0 -127 159 -127q107 0 176 29q22 7 41 37q14 26 25 76zM754 1221q-40 -35 -82 -35q-26 0 -76 6q-43 7 -43 37q0 23 22 45l218 237q37 43 81 43
q80 0 127 -6q41 -8 41 -37q0 -24 -22 -45z" />
    <glyph glyph-name="acircumflex" unicode="&#xe2;" horiz-adv-x="1099" 
d="M885 182q-16 -71 -45 -106q-22 -28 -78 -49q-151 -54 -373 -54q-330 0 -330 256q0 238 170 330q102 57 328 57q80 0 191 -10l10 49q12 57 12 97q0 92 -164 92q-119 0 -209 -19q-57 -14 -80 -14q-26 0 -34 35q-17 63 -17 92q0 39 53 57q144 45 334 45q62 0 107 -3
q48 -3 95 -16q51 -14 81 -35t51 -60t21 -95q0 -71 -23 -180zM717 444q-68 9 -162 9q-141 0 -203 -35q-73 -43 -73 -144q0 -127 159 -127q107 0 176 29q22 7 41 37q14 26 25 76zM479 1178q-47 0 -80 4q-32 4 -32 32q0 24 26 50l217 239q45 49 90 49h95q40 0 67 -49l125 -246
q10 -17 10 -38q0 -29 -39 -37q-33 -4 -71 -4q-44 0 -68 39l-98 165l-166 -165q-39 -39 -76 -39z" />
    <glyph glyph-name="atilde" unicode="&#xe3;" horiz-adv-x="1099" 
d="M885 182q-16 -71 -45 -106q-22 -28 -78 -49q-151 -54 -373 -54q-330 0 -330 256q0 238 170 330q102 57 328 57q80 0 191 -10l10 49q12 57 12 97q0 92 -164 92q-119 0 -209 -19q-57 -14 -80 -14q-26 0 -34 35q-17 63 -17 92q0 39 53 57q144 45 334 45q62 0 107 -3
q48 -3 95 -16q51 -14 81 -35t51 -60t21 -95q0 -71 -23 -180zM717 444q-68 9 -162 9q-141 0 -203 -35q-73 -43 -73 -144q0 -127 159 -127q107 0 176 29q22 7 41 37q14 26 25 76zM444 1204q-34 0 -59 4q-31 5 -31 37q0 15 17 60q78 182 202 182q47 0 138 -53q68 -41 108 -41
q49 0 82 61q22 43 53 43q50 0 68 -6q25 -5 25 -31q0 -29 -23 -80q-76 -168 -195 -168q-58 0 -151 54q-66 39 -98 39q-51 0 -80 -54q-10 -18 -17 -28q-7 -9 -14 -13q-11 -6 -25 -6z" />
    <glyph glyph-name="adieresis" unicode="&#xe4;" horiz-adv-x="1099" 
d="M885 182q-16 -71 -45 -106q-22 -28 -78 -49q-151 -54 -373 -54q-330 0 -330 256q0 238 170 330q102 57 328 57q80 0 191 -10l10 49q12 57 12 97q0 92 -164 92q-119 0 -209 -19q-57 -14 -80 -14q-26 0 -34 35q-17 63 -17 92q0 39 53 57q144 45 334 45q62 0 107 -3
q48 -3 95 -16q51 -14 81 -35t51 -60t21 -95q0 -71 -23 -180zM717 444q-68 9 -162 9q-141 0 -203 -35q-73 -43 -73 -144q0 -127 159 -127q107 0 176 29q22 7 41 37q14 26 25 76zM645 1380q0 -88 -39 -125q-33 -32 -94 -32q-102 0 -102 92q0 78 39 117q37 38 96 38
q100 0 100 -90zM1030 1380q0 -86 -41 -125q-32 -32 -94 -32q-100 0 -100 92q0 77 39 117q37 38 94 38q102 0 102 -90z" />
    <glyph glyph-name="aring" unicode="&#xe5;" horiz-adv-x="1099" 
d="M885 182q-16 -71 -45 -106q-22 -28 -78 -49q-151 -54 -373 -54q-330 0 -330 256q0 238 170 330q102 57 328 57q80 0 191 -10l10 49q12 57 12 97q0 92 -164 92q-119 0 -209 -19q-57 -14 -80 -14q-26 0 -34 35q-17 63 -17 92q0 39 53 57q144 45 334 45q62 0 107 -3
q48 -3 95 -16q51 -14 81 -35t51 -60t21 -95q0 -71 -23 -180zM717 444q-68 9 -162 9q-141 0 -203 -35q-73 -43 -73 -144q0 -127 159 -127q107 0 176 29q22 7 41 37q14 26 25 76zM893 1397q0 -104 -59 -163q-60 -60 -160 -60q-84 0 -133 48t-49 134q0 96 60 157q60 62 159 62
q83 0 133 -47q49 -46 49 -131zM807 1395q0 104 -107 104q-55 0 -91 -37q-36 -38 -36 -98q0 -115 109 -115q59 0 92 38q33 37 33 108z" />
    <glyph glyph-name="ae" unicode="&#xe6;" horiz-adv-x="1677" 
d="M770 98q-160 -125 -387 -125q-161 0 -243 70q-81 69 -81 190q0 234 166 324q108 57 348 57q24 0 177 -6l12 60q8 42 8 86q0 90 -170 90q-104 0 -213 -23q-59 -10 -68 -10q-26 0 -38 39q-17 62 -17 88q0 42 60 59q154 43 340 43q132 0 203 -30q70 -30 85 -107
q122 137 346 137q177 0 254 -70q78 -70 78 -204q0 -123 -33 -252q-11 -45 -30 -59q-20 -13 -47 -13h-582q-8 -46 -8 -104q0 -176 223 -176q123 0 229 28q49 11 60 11q29 0 39 -37q18 -74 18 -86q0 -35 -43 -53q-127 -52 -344 -52q-247 0 -342 125zM717 446q-92 5 -168 5
q-157 0 -213 -39q-57 -39 -57 -144q0 -121 163 -121q66 0 151 22q81 21 122 56q-10 33 -10 74q0 67 12 147zM973 612h428q18 55 18 127q0 67 -36 97t-126 30q-224 0 -284 -254z" />
    <glyph glyph-name="ccedilla" unicode="&#xe7;" horiz-adv-x="935" 
d="M444 -106q164 -8 164 -158q0 -137 -80 -194q-78 -56 -229 -56q-67 0 -96 10q-35 12 -37 41q0 23 12 60q10 38 51 38q18 0 43 -4q24 -2 58 -2q49 0 70 18q22 19 22 62q0 51 -64 51h-36q-41 0 -41 37q0 18 16 66l43 123q-256 55 -256 340q0 160 55 324q56 166 166 270
q132 120 381 120q147 0 229 -26q33 -10 33 -43q0 -48 -30 -117q-15 -29 -44 -29q-4 0 -31 5q-6 1 -13.5 2.5t-11 2.5t-5.5 1q-73 12 -149 12q-142 0 -222 -84q-59 -62 -91 -174q-32 -113 -32 -215q0 -213 207 -213q62 0 158 16q10 0 36 6t34 6q31 0 37 -32q16 -74 16 -103
q0 -33 -49 -45q-123 -37 -289 -37z" />
    <glyph glyph-name="egrave" unicode="&#xe8;" horiz-adv-x="1058" 
d="M322 442q-9 -52 -9 -96q0 -102 57 -143q58 -41 173 -41q114 0 221 26q60 13 63 13q22 0 33 -29q21 -66 21 -96q0 -33 -45 -51q-133 -52 -355 -52q-397 0 -397 355q0 160 53 321q52 158 162 262q135 129 381 129q182 0 258 -70t76 -204q0 -128 -31 -246q-12 -48 -33 -65
q-20 -13 -51 -13h-577zM356 612h430q17 54 17 129q0 65 -35 95q-34 30 -123 30q-123 0 -196 -69q-55 -55 -93 -185zM614 1221l-215 243q-22 22 -22 47q0 35 45 39q51 4 127 4q43 0 76 -49l170 -237q18 -24 18 -45q0 -27 -39 -33q-24 -2 -80 -2q-50 0 -80 33z" />
    <glyph glyph-name="eacute" unicode="&#xe9;" horiz-adv-x="1058" 
d="M322 442q-9 -52 -9 -96q0 -102 57 -143q58 -41 173 -41q114 0 221 26q60 13 63 13q22 0 33 -29q21 -66 21 -96q0 -33 -45 -51q-133 -52 -355 -52q-397 0 -397 355q0 160 53 321q52 158 162 262q135 129 381 129q182 0 258 -70t76 -204q0 -128 -31 -246q-12 -48 -33 -65
q-20 -13 -51 -13h-577zM356 612h430q17 54 17 129q0 65 -35 95q-34 30 -123 30q-123 0 -196 -69q-55 -55 -93 -185zM735 1221q-40 -35 -82 -35q-25 0 -75 6q-43 7 -43 37q0 23 22 45l217 237q37 43 82 43q82 0 127 -6q41 -8 41 -37q0 -24 -23 -45z" />
    <glyph glyph-name="ecircumflex" unicode="&#xea;" horiz-adv-x="1058" 
d="M322 442q-9 -52 -9 -96q0 -102 57 -143q58 -41 173 -41q114 0 221 26q60 13 63 13q22 0 33 -29q21 -66 21 -96q0 -33 -45 -51q-133 -52 -355 -52q-397 0 -397 355q0 160 53 321q52 158 162 262q135 129 381 129q182 0 258 -70t76 -204q0 -128 -31 -246q-12 -48 -33 -65
q-20 -13 -51 -13h-577zM356 612h430q17 54 17 129q0 65 -35 95q-34 30 -123 30q-123 0 -196 -69q-55 -55 -93 -185zM502 1178q-47 0 -80 4t-33 32q0 23 27 50l217 239q45 49 90 49h94q41 0 68 -49l125 -246q10 -17 10 -38q0 -29 -39 -37q-33 -4 -72 -4q-43 0 -67 39l-99 165
l-165 -165q-39 -39 -76 -39z" />
    <glyph glyph-name="edieresis" unicode="&#xeb;" horiz-adv-x="1058" 
d="M322 442q-9 -52 -9 -96q0 -102 57 -143q58 -41 173 -41q114 0 221 26q60 13 63 13q22 0 33 -29q21 -66 21 -96q0 -33 -45 -51q-133 -52 -355 -52q-397 0 -397 355q0 160 53 321q52 158 162 262q135 129 381 129q182 0 258 -70t76 -204q0 -128 -31 -246q-12 -48 -33 -65
q-20 -13 -51 -13h-577zM356 612h430q17 54 17 129q0 65 -35 95q-34 30 -123 30q-123 0 -196 -69q-55 -55 -93 -185zM649 1380q0 -88 -39 -125q-33 -32 -94 -32q-102 0 -102 92q0 78 39 117q37 38 96 38q100 0 100 -90zM1034 1380q0 -86 -41 -125q-32 -32 -94 -32
q-100 0 -100 92q0 77 39 117q37 38 94 38q102 0 102 -90z" />
    <glyph glyph-name="igrave" unicode="&#xec;" horiz-adv-x="532" 
d="M319 1221l-215 243q-22 22 -22 47q0 35 45 39q51 4 127 4q43 0 76 -49l170 -237q18 -24 18 -45q0 -27 -39 -33q-24 -2 -80 -2q-50 0 -80 33zM291 49q-12 -53 -58 -53h-131q-41 0 -41 37q0 6 1 11q0 2 1.5 7.5t2.5 8.5q2 12 2 14l192 891q11 53 55 53h134q38 0 38 -37
l-1 -5q-1 -4 -3 -15.5t-4 -22.5z" />
    <glyph glyph-name="iacute" unicode="&#xed;" horiz-adv-x="532" 
d="M432 1221q-40 -35 -82 -35q-26 0 -76 6q-43 7 -43 37q0 22 23 45l217 237q37 43 82 43q82 0 127 -6q41 -8 41 -37q0 -24 -23 -45zM291 49q-12 -53 -58 -53h-131q-41 0 -41 37q0 6 1 11q0 2 1.5 7.5t2.5 8.5q2 12 2 14l192 891q11 53 55 53h134q38 0 38 -37l-1 -5
q-1 -4 -3 -15.5t-4 -22.5z" />
    <glyph glyph-name="icircumflex" unicode="&#xee;" horiz-adv-x="532" 
d="M291 49q-12 -53 -58 -53h-131q-41 0 -41 37q0 6 1 11q0 2 1.5 7.5t2.5 8.5q2 12 2 14l192 891q11 53 55 53h134q38 0 38 -37l-1 -5q-1 -4 -3 -15.5t-4 -22.5zM199 1178q-47 0 -80 4t-33 32q0 23 27 50l217 239q45 49 90 49h94q41 0 68 -49l125 -246q10 -17 10 -38
q0 -29 -39 -37q-33 -4 -72 -4q-43 0 -67 39l-99 165l-166 -165q-39 -39 -75 -39z" />
    <glyph glyph-name="idieresis" unicode="&#xef;" horiz-adv-x="532" 
d="M350 1380q0 -88 -39 -125q-33 -32 -94 -32q-102 0 -102 92q0 78 39 117q37 38 96 38q100 0 100 -90zM735 1380q0 -86 -41 -125q-32 -32 -94 -32q-100 0 -100 92q0 77 39 117q37 38 94 38q102 0 102 -90zM291 49q-12 -53 -58 -53h-131q-41 0 -41 37q0 6 1 11q0 2 1.5 7.5
t2.5 8.5q2 12 2 14l192 891q11 53 55 53h134q38 0 38 -37l-1 -5q-1 -4 -3 -15.5t-4 -22.5z" />
    <glyph glyph-name="eth" unicode="&#xf0;" horiz-adv-x="1144" 
d="M1106 1384l-117 -69q98 -140 98 -395q0 -542 -184 -789q-114 -156 -401 -156q-92 0 -164 14q-69 13 -132 48q-61 34 -95 104q-33 69 -33 174q0 149 45 308q45 160 137 262q124 135 373 135q199 0 244 -84q-6 173 -74 268l-154 -90q-30 -18 -47 -18q-18 0 -33 24
q-34 56 -34 76q0 24 32 41l121 72q-86 45 -225 57q-35 5 -35 39q0 37 16 88q15 37 52 37q39 0 69 -2q197 -21 318 -105l141 84q24 15 43 15q17 0 29 -17q39 -60 39 -80q0 -24 -29 -41zM840 680q0 93 -54 127q-52 33 -159 33q-138 0 -199 -82q-54 -71 -84 -202
q-31 -136 -31 -218q0 -98 51 -137q49 -37 158 -37q153 0 213 94q45 67 75 206q30 138 30 216z" />
    <glyph glyph-name="ntilde" unicode="&#xf1;" horiz-adv-x="1173" 
d="M291 49q-12 -53 -55 -53h-134q-41 0 -41 35q0 13 7 41l161 759q21 92 99 125q198 86 475 86q121 0 202 -42q80 -41 80 -142q0 -90 -20 -176l-135 -633q-11 -53 -56 -53h-133q-41 0 -41 35q0 8 7 43l127 585q14 63 14 101q0 90 -141 90q-111 0 -201 -37q-14 -8 -45 -25
q-15 -15 -25 -57zM479 1204q-34 0 -59 4q-31 5 -31 37q0 15 17 60q78 182 202 182q46 0 137 -53q68 -41 109 -41q49 0 82 61q22 43 53 43q50 0 68 -6q24 -5 24 -31q0 -32 -22 -80q-77 -168 -195 -168q-58 0 -151 54q-66 39 -99 39q-50 0 -79 -54q-10 -18 -17 -28
q-7 -9 -14 -13q-10 -6 -25 -6z" />
    <glyph glyph-name="ograve" unicode="&#xf2;" horiz-adv-x="1122" 
d="M1057 719q0 -133 -43 -306q-44 -177 -125 -282q-122 -158 -395 -158q-91 0 -163 14q-69 13 -128 49q-59 35 -89 105q-30 69 -30 174q0 152 46 318q47 169 142 270q129 137 371 137q102 0 163 -10q64 -10 127 -42q63 -31 93 -98q31 -68 31 -171zM825 686q0 96 -48 130
q-47 34 -152 34q-130 0 -193 -84q-54 -70 -84 -206q-31 -143 -31 -224q0 -100 45 -137q44 -37 148 -37q150 0 213 96q46 68 74 209q28 139 28 219zM594 1221l-215 243q-23 23 -23 47q0 35 45 39q51 4 127 4q43 0 76 -49l170 -237q19 -25 19 -45q0 -27 -39 -33q-24 -2 -80 -2
q-50 0 -80 33z" />
    <glyph glyph-name="oacute" unicode="&#xf3;" horiz-adv-x="1122" 
d="M1057 719q0 -133 -43 -306q-44 -177 -125 -282q-122 -158 -395 -158q-91 0 -163 14q-69 13 -128 49q-59 35 -89 105q-30 69 -30 174q0 152 46 318q47 169 142 270q129 137 371 137q102 0 163 -10q64 -10 127 -42q63 -31 93 -98q31 -68 31 -171zM825 686q0 96 -48 130
q-47 34 -152 34q-130 0 -193 -84q-54 -70 -84 -206q-31 -143 -31 -224q0 -100 45 -137q44 -37 148 -37q150 0 213 96q46 68 74 209q28 139 28 219zM721 1221q-40 -35 -82 -35q-27 0 -76 6q-43 7 -43 37q0 22 23 45l217 237q37 43 82 43q80 0 127 -6q41 -8 41 -37
q0 -24 -23 -45z" />
    <glyph glyph-name="ocircumflex" unicode="&#xf4;" horiz-adv-x="1122" 
d="M1057 719q0 -133 -43 -306q-44 -177 -125 -282q-122 -158 -395 -158q-91 0 -163 14q-69 13 -128 49q-59 35 -89 105q-30 69 -30 174q0 152 46 318q47 169 142 270q129 137 371 137q102 0 163 -10q64 -10 127 -42q63 -31 93 -98q31 -68 31 -171zM825 686q0 96 -48 130
q-47 34 -152 34q-130 0 -193 -84q-54 -70 -84 -206q-31 -143 -31 -224q0 -100 45 -137q44 -37 148 -37q150 0 213 96q46 68 74 209q28 139 28 219zM508 1178q-47 0 -80 4t-33 32q0 23 27 50l217 239q45 49 90 49h94q41 0 68 -49l125 -246q10 -17 10 -38q0 -29 -39 -37
q-33 -4 -72 -4q-43 0 -67 39l-98 165l-166 -165q-39 -39 -76 -39z" />
    <glyph glyph-name="otilde" unicode="&#xf5;" horiz-adv-x="1122" 
d="M1057 719q0 -133 -43 -306q-44 -177 -125 -282q-122 -158 -395 -158q-91 0 -163 14q-69 13 -128 49q-59 35 -89 105q-30 69 -30 174q0 152 46 318q47 169 142 270q129 137 371 137q102 0 163 -10q64 -10 127 -42q63 -31 93 -98q31 -68 31 -171zM825 686q0 96 -48 130
q-47 34 -152 34q-130 0 -193 -84q-54 -70 -84 -206q-31 -143 -31 -224q0 -100 45 -137q44 -37 148 -37q150 0 213 96q46 68 74 209q28 139 28 219zM467 1204q-34 0 -59 4q-31 5 -31 37q0 18 16 60q78 182 203 182q46 0 137 -53q68 -41 109 -41q49 0 82 61q22 43 53 43
q49 0 67 -6q25 -5 25 -31q0 -32 -22 -80q-77 -168 -195 -168q-59 0 -152 54q-66 39 -98 39q-51 0 -80 -54q-12 -23 -16 -28q-7 -9 -14 -13q-11 -6 -25 -6z" />
    <glyph glyph-name="odieresis" unicode="&#xf6;" horiz-adv-x="1122" 
d="M1057 719q0 -133 -43 -306q-44 -177 -125 -282q-122 -158 -395 -158q-91 0 -163 14q-69 13 -128 49q-59 35 -89 105q-30 69 -30 174q0 152 46 318q47 169 142 270q129 137 371 137q102 0 163 -10q64 -10 127 -42q63 -31 93 -98q31 -68 31 -171zM825 686q0 96 -48 130
q-47 34 -152 34q-130 0 -193 -84q-54 -70 -84 -206q-31 -143 -31 -224q0 -100 45 -137q44 -37 148 -37q150 0 213 96q46 68 74 209q28 139 28 219zM668 1380q0 -88 -39 -125q-33 -32 -94 -32q-103 0 -103 92q0 78 39 117q37 38 96 38q101 0 101 -90zM1053 1380
q0 -86 -41 -125q-32 -32 -95 -32q-100 0 -100 92q0 77 39 117q37 38 94 38q103 0 103 -90z" />
    <glyph glyph-name="divide" unicode="&#xf7;" horiz-adv-x="1435" 
d="M938 983q0 -63 -32 -104t-95 -41q-94 0 -94 92q0 139 121 139q40 0 70 -21t30 -65zM1229 524h-961q-45 0 -45 47q0 23 10 66q10 51 56 51h960q49 0 49 -43q0 -25 -10 -74q-12 -47 -59 -47zM793 272q0 -59 -33 -100t-94 -41q-97 0 -97 92q0 63 32 101q30 36 91 36
q41 0 71 -21t30 -67z" />
    <glyph glyph-name="oslash" unicode="&#xf8;" horiz-adv-x="1122" 
d="M150 -57q-17 -17 -29 -17q-16 0 -62 41q-12 12 -12 23q0 12 14 26l74 86q-51 80 -51 213q0 154 46 320q47 169 142 270q129 137 371 137q174 0 262 -38l80 92q11 14 29 14q10 0 26 -12q45 -39 45 -49q0 -15 -12 -27l-76 -88q60 -80 60 -213q0 -129 -44 -307
q-43 -175 -124 -283q-122 -158 -395 -158q-179 0 -275 52zM510 160q150 0 217 100q44 68 74 209t30 217q0 24 -4 49l-465 -542q44 -33 148 -33zM309 334v-27l451 524q-48 23 -131 23q-137 0 -203 -88q-56 -69 -86 -208q-31 -143 -31 -224z" />
    <glyph glyph-name="ugrave" unicode="&#xf9;" horiz-adv-x="1173" 
d="M958 176q-21 -95 -98 -125q-192 -78 -469 -78q-287 0 -287 193q0 76 21 172l135 627q11 53 53 53h133q41 0 41 -35q0 -13 -6 -43l-127 -584q-12 -57 -12 -100q0 -92 145 -92q114 0 193 29q29 12 47 30q19 19 25 53l147 689q11 53 55 53h131q41 0 41 -35q0 -11 -6 -41z
M643 1225l-215 243q-22 22 -22 48q0 34 45 38q63 5 127 5q42 0 75 -50l170 -237q19 -25 19 -45q0 -27 -39 -33q-24 -2 -80 -2q-50 0 -80 33z" />
    <glyph glyph-name="uacute" unicode="&#xfa;" horiz-adv-x="1173" 
d="M958 176q-21 -95 -98 -125q-192 -78 -469 -78q-287 0 -287 193q0 76 21 172l135 627q11 53 53 53h133q41 0 41 -35q0 -13 -6 -43l-127 -584q-12 -57 -12 -100q0 -92 145 -92q114 0 193 29q29 12 47 30q19 19 25 53l147 689q11 53 55 53h131q41 0 41 -35q0 -11 -6 -41z
M774 1221q-40 -35 -82 -35q-26 0 -76 6q-43 7 -43 37q0 22 23 45l217 237q37 43 82 43q81 0 127 -6q41 -8 41 -37q0 -24 -23 -45z" />
    <glyph glyph-name="ucircumflex" unicode="&#xfb;" horiz-adv-x="1173" 
d="M958 176q-21 -95 -98 -125q-192 -78 -469 -78q-287 0 -287 193q0 76 21 172l135 627q11 53 53 53h133q41 0 41 -35q0 -13 -6 -43l-127 -584q-12 -57 -12 -100q0 -92 145 -92q114 0 193 29q29 12 47 30q19 19 25 53l147 689q11 53 55 53h131q41 0 41 -35q0 -11 -6 -41z
M524 1178q-47 0 -80 4q-32 4 -32 32q0 24 26 50l217 239q45 49 90 49h95q40 0 67 -49l125 -246q10 -17 10 -38q0 -30 -38 -37q-33 -4 -72 -4q-44 0 -68 39l-98 165l-166 -165q-39 -39 -76 -39z" />
    <glyph glyph-name="udieresis" unicode="&#xfc;" horiz-adv-x="1173" 
d="M958 176q-21 -95 -98 -125q-192 -78 -469 -78q-287 0 -287 193q0 76 21 172l135 627q11 53 53 53h133q41 0 41 -35q0 -13 -6 -43l-127 -584q-12 -57 -12 -100q0 -92 145 -92q114 0 193 29q29 12 47 30q19 19 25 53l147 689q11 53 55 53h131q41 0 41 -35q0 -11 -6 -41z
M676 1380q0 -88 -39 -125q-33 -32 -94 -32q-103 0 -103 92q0 78 39 117q37 38 96 38q101 0 101 -90zM1061 1380q0 -86 -41 -125q-32 -32 -94 -32q-101 0 -101 92q0 77 39 117q37 38 94 38q103 0 103 -90z" />
    <glyph glyph-name="yacute" unicode="&#xfd;" horiz-adv-x="1173" 
d="M696 35q-130 -62 -307 -62q-287 0 -287 195q0 66 21 168l137 631q10 51 55 51h134q38 0 38 -35q0 -13 -6 -43l-125 -584q-14 -53 -14 -106q0 -86 145 -86q113 0 195 31q31 11 47 28q18 26 25 64l145 678q11 53 59 53h127q41 0 41 -35q0 -20 -4 -35l-188 -889
q-37 -171 -78 -254q-78 -155 -248 -220q-168 -64 -479 -64q-59 0 -59 49q0 50 6 80q10 65 57 65q242 1 352 38q108 36 152 106q34 57 51 137zM778 1221q-40 -35 -82 -35q-26 0 -75 6q-43 7 -43 37q0 23 22 45l217 237q37 43 82 43q80 0 127 -6q41 -8 41 -37q0 -24 -23 -45z
" />
    <glyph glyph-name="thorn" unicode="&#xfe;" horiz-adv-x="1175" 
d="M291 29l-103 -473q-8 -31 -21 -43q-15 -13 -40 -13h-123q-43 0 -43 39q0 5 6 35l404 1896q6 36 19 49t44 13h117q28 0 39 -8q10 -7 10 -31l-1 -5q-1 -4 -3 -15.5t-4 -22.5l-111 -516q108 102 316 102q305 0 305 -295q0 -127 -39 -287q-40 -163 -111 -270
q-73 -112 -179 -153t-275 -41q-154 0 -207 39zM326 207q58 -35 170 -35q99 0 163 25q62 24 101 84q47 70 77 190q29 117 29 211q0 84 -43 123t-143 39q-114 0 -193 -43q-26 -15 -32 -29q-11 -18 -17 -43z" />
    <glyph glyph-name="ydieresis" unicode="&#xff;" horiz-adv-x="1173" 
d="M696 35q-130 -62 -307 -62q-287 0 -287 195q0 66 21 168l137 631q10 51 55 51h134q38 0 38 -35q0 -13 -6 -43l-125 -584q-14 -53 -14 -106q0 -86 145 -86q113 0 195 31q31 11 47 28q18 26 25 64l145 678q11 53 59 53h127q41 0 41 -35q0 -20 -4 -35l-188 -889
q-37 -171 -78 -254q-78 -155 -248 -220q-168 -64 -479 -64q-59 0 -59 49q0 50 6 80q10 65 57 65q242 1 352 38q108 36 152 106q34 57 51 137zM672 1380q0 -88 -39 -125q-33 -32 -94 -32q-103 0 -103 92q0 78 39 117q37 38 96 38q101 0 101 -90zM1057 1380q0 -86 -41 -125
q-32 -32 -94 -32q-101 0 -101 92q0 77 39 117q37 38 94 38q103 0 103 -90z" />
    <glyph glyph-name="Amacron" unicode="&#x100;" horiz-adv-x="1280" 
d="M381 406l-191 -351q-22 -39 -33 -49q-13 -12 -38 -12q-139 0 -168 6q-23 6 -23 33q0 15 25 67l670 1203q49 90 87 120q39 31 119 31h54q75 0 105 -34t40 -113l148 -1196q4 -33 4 -60q0 -34 -33 -49q-26 -8 -152 -8q-28 0 -39 14t-16 49l-43 349h-516zM481 604h406
q-54 488 -64 645q-78 -156 -342 -645zM1126 1602h-526q-43 0 -43 36q0 20 18 93q12 49 64 49h522q45 0 45 -35q0 -20 -18 -98q-12 -45 -62 -45z" />
    <glyph glyph-name="amacron" unicode="&#x101;" horiz-adv-x="1099" 
d="M885 182q-16 -71 -45 -106q-22 -28 -78 -49q-151 -54 -373 -54q-330 0 -330 256q0 238 170 330q102 57 328 57q80 0 191 -10l10 49q12 57 12 97q0 92 -164 92q-119 0 -209 -19q-57 -14 -80 -14q-26 0 -34 35q-17 63 -17 92q0 39 53 57q144 45 334 45q62 0 107 -3
q48 -3 95 -16q51 -14 81 -35t51 -60t21 -95q0 -71 -23 -180zM717 444q-68 9 -162 9q-141 0 -203 -35q-73 -43 -73 -144q0 -127 159 -127q107 0 176 29q22 7 41 37q14 26 25 76zM918 1229h-459q-45 0 -45 39q0 32 18 94q12 47 62 47h456q47 0 47 -37q0 -27 -20 -96
q-11 -47 -59 -47z" />
    <glyph glyph-name="Abreve" unicode="&#x102;" horiz-adv-x="1280" 
d="M381 406l-191 -351q-22 -39 -33 -49q-13 -12 -38 -12q-139 0 -168 6q-23 6 -23 33q0 15 25 67l670 1203q49 90 87 120q39 31 119 31h54q75 0 105 -34t40 -113l148 -1196q4 -33 4 -60q0 -34 -33 -49q-26 -8 -152 -8q-28 0 -39 14t-16 49l-43 349h-516zM481 604h406
q-54 488 -64 645q-78 -156 -342 -645zM1122 1874q47 0 60 -4q28 -7 28 -39q0 -38 -22 -92q-80 -193 -332 -193q-122 0 -204 60q-83 60 -83 168q0 39 6 63q11 30 52 35q16 2 47 2q52 0 53 -39q4 -38 12 -61q29 -64 135 -64q81 0 121 31t64 92q12 26 22 33q13 8 41 8z" />
    <glyph glyph-name="abreve" unicode="&#x103;" horiz-adv-x="1099" 
d="M885 182q-16 -71 -45 -106q-22 -28 -78 -49q-151 -54 -373 -54q-330 0 -330 256q0 238 170 330q102 57 328 57q80 0 191 -10l10 49q12 57 12 97q0 92 -164 92q-119 0 -209 -19q-57 -14 -80 -14q-26 0 -34 35q-17 63 -17 92q0 39 53 57q144 45 334 45q62 0 107 -3
q48 -3 95 -16q51 -14 81 -35t51 -60t21 -95q0 -71 -23 -180zM717 444q-68 9 -162 9q-141 0 -203 -35q-73 -43 -73 -144q0 -127 159 -127q107 0 176 29q22 7 41 37q14 26 25 76zM934 1511q37 0 61 -6q25 -5 25 -39q0 -29 -23 -90q-40 -98 -114 -151q-76 -54 -207 -54
q-130 0 -199 61q-67 60 -67 152q0 46 6 74q12 42 37 47q24 6 55 6q49 0 49 -41q0 -48 4 -61q18 -76 133 -76q78 0 115 34t65 99q16 45 60 45z" />
    <glyph glyph-name="Aogonek" unicode="&#x104;" horiz-adv-x="1280" 
d="M1165 14q-65 -39 -90 -56q-44 -31 -79 -62q-44 -39 -65 -83q-22 -46 -22 -92q0 -40 25 -63t70 -23q31 0 52 1q9 0 17.5 0.5t13 1t5.5 0.5q17 0 27 -8t14 -29q6 -27 6 -60q-2 -24 -13 -34t-39 -17q-41 -10 -137 -10q-225 0 -225 186q0 116 65 195q63 77 181 137
q-25 8 -31 59l-43 349h-516l-191 -351q-22 -39 -33 -49q-13 -12 -38 -12q-139 0 -168 6q-23 6 -23 33q0 15 25 67l670 1203q49 90 87 120q39 31 119 31h54q75 0 105 -34t40 -113l148 -1196q4 -33 4 -60q0 -25 -15 -37zM481 604h406q-54 488 -64 645q-78 -156 -342 -645z" />
    <glyph glyph-name="aogonek" unicode="&#x105;" horiz-adv-x="1099" 
d="M885 182q-17 -70 -45 -104q-20 -26 -70 -47q-229 -147 -229 -299q0 -78 88 -78q28 0 48 1t34 1q36 0 43 -37q8 -35 8 -55q-2 -22 -12 -33q-10 -10 -39 -16q-52 -11 -133 -11q-218 0 -218 179q0 192 197 303q-55 -13 -168 -13q-330 0 -330 256q0 238 170 330
q102 57 328 57q80 0 191 -10l10 49q12 57 12 97q0 92 -164 92q-119 0 -209 -19q-57 -14 -80 -14q-26 0 -34 35q-17 63 -17 92q0 39 53 57q144 45 334 45q62 0 107 -3q48 -3 95 -16q51 -14 81 -35t51 -60t21 -95q0 -71 -23 -180zM717 444q-68 9 -162 9q-141 0 -203 -35
q-73 -43 -73 -144q0 -127 159 -127q107 0 176 29q22 7 41 37q14 26 25 76z" />
    <glyph glyph-name="Cacute" unicode="&#x106;" horiz-adv-x="1183" 
d="M381 506q0 -334 305 -334q95 0 242 25q62 12 84 12q33 0 39 -35q16 -71 16 -106q0 -31 -53 -48q-170 -47 -406 -47q-473 0 -473 496q0 229 80 478q79 246 238 382q168 144 477 144q162 0 284 -25q50 -12 50 -53q0 -53 -31 -121q-11 -25 -39 -25l-8 1q-8 1 -27 4t-39 6
q-73 14 -211 14q-203 0 -315 -115q-100 -101 -157 -293q-56 -187 -56 -360zM942 1581q-44 -29 -92 -29q-71 0 -90 4q-39 4 -39 33q0 26 29 47l262 199q56 41 96 41q88 0 143 -4q54 -6 54 -37q0 -30 -31 -49z" />
    <glyph glyph-name="cacute" unicode="&#x107;" horiz-adv-x="935" 
d="M319 375q0 -213 207 -213q62 0 158 16q10 0 36 6t34 6q31 0 37 -32q16 -74 16 -103q0 -33 -49 -45q-117 -37 -295 -37q-179 0 -279 88t-100 265q0 160 55 324q56 166 166 270q132 120 381 120q147 0 229 -26q33 -10 33 -43q0 -48 -30 -117q-15 -29 -44 -29q-4 0 -31 5
q-6 1 -13.5 2.5t-11 2.5t-5.5 1q-73 12 -149 12q-142 0 -222 -84q-59 -62 -91 -174q-32 -113 -32 -215zM743 1221q-40 -35 -81 -35q-26 0 -76 6q-43 7 -43 37q0 23 22 45l217 237q37 43 82 43q82 0 127 -6q41 -8 41 -37q0 -24 -22 -45z" />
    <glyph glyph-name="Ccircumflex" unicode="&#x108;" horiz-adv-x="1183" 
d="M381 506q0 -334 305 -334q95 0 242 25q62 12 84 12q33 0 39 -35q16 -71 16 -106q0 -31 -53 -48q-170 -47 -406 -47q-473 0 -473 496q0 229 80 478q79 246 238 382q168 144 477 144q162 0 284 -25q50 -12 50 -53q0 -53 -31 -121q-11 -25 -39 -25l-8 1q-8 1 -27 4t-39 6
q-73 14 -211 14q-203 0 -315 -115q-100 -101 -157 -293q-56 -187 -56 -360zM694 1552q-57 0 -92 7q-33 7 -33 32q0 21 27 43l238 207q60 51 104 51h86q50 0 80 -45l162 -209q16 -22 16 -39q0 -27 -41 -38q-28 -7 -80 -7q-43 0 -78 39l-127 129l-172 -131q-51 -39 -90 -39z
" />
    <glyph glyph-name="ccircumflex" unicode="&#x109;" horiz-adv-x="935" 
d="M319 375q0 -213 207 -213q62 0 158 16q10 0 36 6t34 6q31 0 37 -32q16 -74 16 -103q0 -33 -49 -45q-117 -37 -295 -37q-179 0 -279 88t-100 265q0 160 55 324q56 166 166 270q132 120 381 120q147 0 229 -26q33 -10 33 -43q0 -48 -30 -117q-15 -29 -44 -29q-4 0 -31 5
q-6 1 -13.5 2.5t-11 2.5t-5.5 1q-73 12 -149 12q-142 0 -222 -84q-59 -62 -91 -174q-32 -113 -32 -215zM475 1178q-47 0 -80 4t-33 32q0 23 27 50l217 239q45 49 90 49h95q40 0 67 -49l125 -246q10 -17 10 -38q0 -29 -39 -37q-33 -4 -71 -4q-44 0 -68 39l-98 165l-166 -165
q-39 -39 -76 -39z" />
    <glyph glyph-name="Cdotaccent" unicode="&#x10a;" horiz-adv-x="1183" 
d="M381 506q0 -334 305 -334q95 0 242 25q62 12 84 12q33 0 39 -35q16 -71 16 -106q0 -31 -53 -48q-170 -47 -406 -47q-473 0 -473 496q0 229 80 478q79 246 238 382q168 144 477 144q162 0 284 -25q50 -12 50 -53q0 -53 -31 -121q-11 -25 -39 -25l-8 1q-8 1 -27 4t-39 6
q-73 14 -211 14q-203 0 -315 -115q-100 -101 -157 -293q-56 -187 -56 -360zM1014 1724q0 -83 -41 -122q-35 -35 -92 -35q-103 0 -103 92q0 78 41 119q37 39 92 39q103 0 103 -93z" />
    <glyph glyph-name="cdotaccent" unicode="&#x10b;" horiz-adv-x="935" 
d="M319 375q0 -213 207 -213q62 0 158 16q10 0 36 6t34 6q31 0 37 -32q16 -74 16 -103q0 -33 -49 -45q-117 -37 -295 -37q-179 0 -279 88t-100 265q0 160 55 324q56 166 166 270q132 120 381 120q147 0 229 -26q33 -10 33 -43q0 -48 -30 -117q-15 -29 -44 -29q-4 0 -31 5
q-6 1 -13.5 2.5t-11 2.5t-5.5 1q-73 12 -149 12q-142 0 -222 -84q-59 -62 -91 -174q-32 -113 -32 -215zM805 1380q0 -82 -41 -123q-33 -34 -92 -34q-103 0 -103 92q0 71 41 117q32 38 92 38q103 0 103 -90z" />
    <glyph glyph-name="Ccaron" unicode="&#x10c;" horiz-adv-x="1183" 
d="M381 506q0 -334 305 -334q95 0 242 25q62 12 84 12q33 0 39 -35q16 -71 16 -106q0 -31 -53 -48q-170 -47 -406 -47q-473 0 -473 496q0 229 80 478q79 246 238 382q168 144 477 144q162 0 284 -25q50 -12 50 -53q0 -53 -31 -121q-11 -25 -39 -25l-8 1q-8 1 -27 4t-39 6
q-73 14 -211 14q-203 0 -315 -115q-100 -101 -157 -293q-56 -187 -56 -360zM1143 1896q62 0 92 -6q33 -4 33 -32q0 -22 -27 -43l-237 -207q-56 -49 -105 -49h-84q-47 0 -80 43l-164 208q-16 17 -16 39q0 32 43 39q50 6 78 6q39 0 78 -39l125 -129l176 132q50 38 88 38z" />
    <glyph glyph-name="ccaron" unicode="&#x10d;" horiz-adv-x="935" 
d="M319 375q0 -213 207 -213q62 0 158 16q10 0 36 6t34 6q31 0 37 -32q16 -74 16 -103q0 -33 -49 -45q-117 -37 -295 -37q-179 0 -279 88t-100 265q0 160 55 324q56 166 166 270q132 120 381 120q147 0 229 -26q33 -10 33 -43q0 -48 -30 -117q-15 -29 -44 -29q-4 0 -31 5
q-6 1 -13.5 2.5t-11 2.5t-5.5 1q-73 12 -149 12q-142 0 -222 -84q-59 -62 -91 -174q-32 -113 -32 -215zM889 1561q38 0 80 -5q35 -5 35 -32q0 -22 -27 -49l-217 -238q-46 -51 -84 -51h-103q-41 0 -65 51l-123 240q-12 23 -12 43q0 29 37 36q42 5 73 5q42 0 66 -39l98 -162
l168 164q37 37 74 37z" />
    <glyph glyph-name="Dcaron" unicode="&#x10e;" horiz-adv-x="1409" 
d="M469 0h-158q-94 0 -138 35t-44 108q0 46 10 90l211 994q24 116 82 168q57 51 170 51h150q217 0 360 -47q128 -44 197 -156q69 -113 69 -272q0 -151 -24 -284q-24 -132 -80 -263q-54 -126 -158 -227q-103 -100 -246 -146q-152 -51 -401 -51zM391 319q-8 -43 -8 -57
q0 -55 63 -55h115q133 0 254 45q166 66 244 264t78 422q0 193 -129 256q-85 45 -254 45h-97q-65 0 -82 -78zM1114 1896q62 0 92 -6q33 -4 33 -32q0 -22 -27 -43l-237 -207q-56 -49 -105 -49h-84q-46 0 -79 43l-164 208q-17 19 -17 39q0 32 43 39q49 6 78 6q39 0 78 -39
l125 -129l176 132q50 38 88 38z" />
    <glyph glyph-name="dcaron" unicode="&#x10f;" horiz-adv-x="1155" 
d="M936 166q-7 -49 -29 -78q-22 -36 -84 -59q-141 -56 -362 -56q-182 0 -280 86q-97 85 -97 254t55 334q55 166 166 271q129 122 389 122q129 0 195 -28l94 458q15 62 61 62h125q43 0 43 -39q0 -19 -2 -35zM729 272l107 492q4 13 4 33q0 27 -21 34q-51 23 -143 23
q-131 0 -209 -70q-71 -65 -111 -183q-41 -121 -41 -249q0 -192 185 -192q105 0 168 24q31 12 41 33q15 30 20 55zM1448 1532h65q56 0 56 -57q0 -40 -17 -97q-41 -132 -168 -262q-30 -35 -65 -35q-27 0 -49 15q-27 16 -27 43q0 19 23 53q79 108 102 262q15 78 80 78z" />
    <glyph glyph-name="Dcroat" unicode="&#x110;" horiz-adv-x="1409" 
d="M469 0h-158q-94 0 -138 35t-44 108q0 46 10 90l90 424h-137q-41 0 -41 37q0 23 15 101q11 45 53 45h149l82 387q24 116 82 168q57 51 170 51h150q217 0 360 -47q128 -44 197 -156q69 -113 69 -272q0 -151 -24 -284q-24 -132 -80 -263q-54 -126 -158 -227
q-103 -100 -246 -146q-152 -51 -401 -51zM391 319q-8 -43 -8 -57q0 -55 63 -55h115q133 0 254 45q166 66 244 264t78 422q0 193 -129 256q-85 45 -254 45h-97q-65 0 -82 -78l-71 -321h260q43 0 43 -37q0 -10 -19 -107q-5 -24 -15 -31q-13 -8 -36 -8h-272z" />
    <glyph glyph-name="dcroat" unicode="&#x111;" horiz-adv-x="1155" 
d="M936 166q-7 -49 -29 -78q-22 -36 -84 -59q-141 -56 -362 -56q-182 0 -280 86q-97 85 -97 254t55 334q55 166 166 271q129 122 389 122q129 0 195 -28l35 172h-195q-39 0 -39 35q0 24 15 84q15 45 55 45h196l27 122q15 62 61 62h125q43 0 43 -39q0 -19 -2 -35l-24 -110h80
q39 0 39 -37q0 -22 -15 -88q-10 -39 -55 -39h-84zM729 272l107 492q4 13 4 33q0 27 -21 34q-51 23 -143 23q-131 0 -209 -70q-71 -65 -111 -183q-41 -121 -41 -249q0 -192 185 -192q105 0 168 24q31 12 41 33q15 30 20 55z" />
    <glyph glyph-name="Emacron" unicode="&#x112;" horiz-adv-x="1122" 
d="M940 0h-629q-94 0 -138 35t-44 108q0 46 10 90l213 996q24 114 82 166q57 51 170 51h567q52 0 52 -39q0 -31 -25 -129q-10 -39 -61 -39h-480q-65 0 -82 -78l-69 -309h495q46 0 46 -35q0 -23 -27 -131q-10 -39 -55 -39h-502l-72 -323q-8 -35 -8 -62q0 -55 63 -55h529
q49 0 49 -35q0 -38 -25 -133q-7 -39 -59 -39zM1104 1602h-526q-43 0 -43 36q0 20 18 93q12 49 63 49h523q45 0 45 -35q0 -16 -19 -98q-12 -45 -61 -45z" />
    <glyph glyph-name="emacron" unicode="&#x113;" horiz-adv-x="1058" 
d="M322 442q-9 -52 -9 -96q0 -102 57 -143q58 -41 173 -41q114 0 221 26q60 13 63 13q22 0 33 -29q21 -66 21 -96q0 -33 -45 -51q-133 -52 -355 -52q-397 0 -397 355q0 160 53 321q52 158 162 262q135 129 381 129q182 0 258 -70t76 -204q0 -128 -31 -246q-12 -48 -33 -65
q-20 -13 -51 -13h-577zM356 612h430q17 54 17 129q0 65 -35 95q-34 30 -123 30q-123 0 -196 -69q-55 -55 -93 -185zM924 1229h-459q-45 0 -45 39q0 32 18 94q12 47 62 47h456q48 0 48 -37q0 -24 -21 -96q-11 -47 -59 -47z" />
    <glyph glyph-name="Ebreve" unicode="&#x114;" horiz-adv-x="1122" 
d="M940 0h-629q-94 0 -138 35t-44 108q0 46 10 90l213 996q24 114 82 166q57 51 170 51h567q52 0 52 -39q0 -31 -25 -129q-10 -39 -61 -39h-480q-65 0 -82 -78l-69 -309h495q46 0 46 -35q0 -23 -27 -131q-10 -39 -55 -39h-502l-72 -323q-8 -35 -8 -62q0 -55 63 -55h529
q49 0 49 -35q0 -38 -25 -133q-7 -39 -59 -39zM1079 1874q47 0 60 -4q28 -7 28 -39q0 -38 -22 -92q-80 -193 -332 -193q-121 0 -204 60t-83 168q0 39 6 63q11 30 52 35q16 2 47 2q51 0 53 -39q4 -38 12 -61q29 -64 135 -64q81 0 121 31t64 92q12 26 22 33q13 8 41 8z" />
    <glyph glyph-name="ebreve" unicode="&#x115;" horiz-adv-x="1058" 
d="M322 442q-9 -52 -9 -96q0 -102 57 -143q58 -41 173 -41q114 0 221 26q60 13 63 13q22 0 33 -29q21 -66 21 -96q0 -33 -45 -51q-133 -52 -355 -52q-397 0 -397 355q0 160 53 321q52 158 162 262q135 129 381 129q182 0 258 -70t76 -204q0 -128 -31 -246q-12 -48 -33 -65
q-20 -13 -51 -13h-577zM356 612h430q17 54 17 129q0 65 -35 95q-34 30 -123 30q-123 0 -196 -69q-55 -55 -93 -185zM934 1511q37 0 61 -6q25 -5 25 -39q0 -29 -23 -90q-40 -98 -114 -151q-76 -54 -207 -54q-130 0 -199 61q-67 60 -67 152q0 46 6 74q12 42 37 47q24 6 55 6
q49 0 49 -41q0 -48 4 -61q18 -76 133 -76q78 0 115 34q39 35 66 99q17 45 59 45z" />
    <glyph glyph-name="Edotaccent" unicode="&#x116;" horiz-adv-x="1122" 
d="M940 0h-629q-94 0 -138 35t-44 108q0 46 10 90l213 996q24 114 82 166q57 51 170 51h567q52 0 52 -39q0 -31 -25 -129q-10 -39 -61 -39h-480q-65 0 -82 -78l-69 -309h495q46 0 46 -35q0 -23 -27 -131q-10 -39 -55 -39h-502l-72 -323q-8 -35 -8 -62q0 -55 63 -55h529
q49 0 49 -35q0 -38 -25 -133q-7 -39 -59 -39zM952 1724q0 -83 -41 -122q-35 -35 -92 -35q-102 0 -102 92q0 78 41 119q38 39 92 39q102 0 102 -93z" />
    <glyph glyph-name="edotaccent" unicode="&#x117;" horiz-adv-x="1058" 
d="M322 442q-9 -52 -9 -96q0 -102 57 -143q58 -41 173 -41q114 0 221 26q60 13 63 13q22 0 33 -29q21 -66 21 -96q0 -33 -45 -51q-133 -52 -355 -52q-397 0 -397 355q0 160 53 321q52 158 162 262q135 129 381 129q182 0 258 -70t76 -204q0 -128 -31 -246q-12 -48 -33 -65
q-20 -13 -51 -13h-577zM356 612h430q17 54 17 129q0 65 -35 95q-34 30 -123 30q-123 0 -196 -69q-55 -55 -93 -185zM817 1380q0 -82 -41 -123q-33 -34 -92 -34q-102 0 -102 92q0 71 41 117q32 38 92 38q102 0 102 -90z" />
    <glyph glyph-name="Eogonek" unicode="&#x118;" horiz-adv-x="1122" 
d="M940 0h-20q-104 -62 -168 -128t-64 -151q0 -40 25 -63t69 -23q32 0 53 1q9 0 17.5 0.5t12.5 1t5 0.5q18 0 28 -8q9 -7 13 -29q7 -31 7 -60q-2 -24 -13 -34t-39 -17q-41 -10 -137 -10q-225 0 -225 186q0 120 65 197t187 137h-445q-94 0 -138 35t-44 108q0 46 10 90
l213 996q24 114 82 166q57 51 170 51h567q52 0 52 -39q0 -31 -25 -129q-10 -39 -61 -39h-480q-65 0 -82 -78l-69 -309h495q46 0 46 -35q0 -23 -27 -131q-10 -39 -55 -39h-502l-72 -323q-8 -35 -8 -62q0 -55 63 -55h529q49 0 49 -35q0 -38 -25 -133q-7 -39 -59 -39z" />
    <glyph glyph-name="eogonek" unicode="&#x119;" horiz-adv-x="1058" 
d="M322 442q-9 -52 -9 -96q0 -102 57 -143q58 -41 173 -41q114 0 221 26q60 13 63 13q22 0 33 -29q21 -66 21 -96q0 -33 -45 -51q-44 -18 -82 -25q-62 -38 -107 -73q-42 -33 -79 -86q-38 -55 -38 -109q0 -78 88 -78q29 0 49 1t33 1q36 0 43 -37q9 -40 9 -55q-1 -21 -13 -33
q-10 -10 -39 -16q-52 -11 -133 -11q-217 0 -217 177q0 181 197 294q-30 -2 -66 -2q-397 0 -397 355q0 160 53 321q52 158 162 262q135 129 381 129q182 0 258 -70t76 -204q0 -128 -31 -246q-12 -48 -33 -65q-20 -13 -51 -13h-577zM356 612h430q17 54 17 129q0 65 -35 95
q-34 30 -123 30q-123 0 -196 -69q-55 -55 -93 -185z" />
    <glyph glyph-name="Ecaron" unicode="&#x11a;" horiz-adv-x="1122" 
d="M940 0h-629q-94 0 -138 35t-44 108q0 46 10 90l213 996q24 114 82 166q57 51 170 51h567q52 0 52 -39q0 -31 -25 -129q-10 -39 -61 -39h-480q-65 0 -82 -78l-69 -309h495q46 0 46 -35q0 -23 -27 -131q-10 -39 -55 -39h-502l-72 -323q-8 -35 -8 -62q0 -55 63 -55h529
q49 0 49 -35q0 -38 -25 -133q-7 -39 -59 -39zM1092 1896q62 0 92 -6q33 -4 33 -32q0 -22 -27 -43l-238 -207q-56 -49 -104 -49h-84q-47 0 -80 43l-164 208q-16 17 -16 39q0 32 43 39q49 6 78 6q38 0 77 -39l125 -129l177 132q50 38 88 38z" />
    <glyph glyph-name="ecaron" unicode="&#x11b;" horiz-adv-x="1058" 
d="M322 442q-9 -52 -9 -96q0 -102 57 -143q58 -41 173 -41q114 0 221 26q60 13 63 13q22 0 33 -29q21 -66 21 -96q0 -33 -45 -51q-133 -52 -355 -52q-397 0 -397 355q0 160 53 321q52 158 162 262q135 129 381 129q182 0 258 -70t76 -204q0 -128 -31 -246q-12 -48 -33 -65
q-20 -13 -51 -13h-577zM356 612h430q17 54 17 129q0 65 -35 95q-34 30 -123 30q-123 0 -196 -69q-55 -55 -93 -185zM922 1561q37 0 79 -5q35 -5 35 -32q0 -23 -26 -49l-217 -238q-47 -51 -84 -51h-103q-41 0 -65 51l-123 240q-12 23 -12 43q0 29 36 36q42 5 74 5
q42 0 66 -39l98 -162l168 164q37 37 74 37z" />
    <glyph glyph-name="Gcircumflex" unicode="&#x11c;" horiz-adv-x="1343" 
d="M1153 147q-15 -56 -31 -73q-18 -20 -61 -37q-160 -64 -440 -64q-233 0 -360 119q-126 118 -126 354q0 244 78 493q78 248 236 384q97 82 210 115q119 35 291 35q190 0 310 -37q45 -12 45 -50q0 -45 -35 -120q-10 -27 -41 -27q-29 0 -66 8q-114 27 -252 27
q-215 0 -333 -129q-98 -104 -147 -287q-50 -186 -50 -352q0 -334 309 -334q130 0 225 27q45 12 56 59l69 313h-266q-39 0 -39 31q0 29 27 137q10 39 49 39h422q45 0 45 -37q0 -11 -6 -41zM696 1552q-57 0 -92 7q-33 7 -33 32q0 21 27 43l238 207q60 51 104 51h86
q50 0 80 -45l162 -209q16 -22 16 -39q0 -27 -41 -38q-28 -7 -80 -7q-43 0 -78 39l-127 129l-172 -131q-51 -39 -90 -39z" />
    <glyph glyph-name="gcircumflex" unicode="&#x11d;" horiz-adv-x="1144" 
d="M672 20q-80 -45 -238 -45q-350 0 -350 353q0 155 54 320q54 164 159 263q139 129 397 129q216 0 346 -47q52 -18 52 -57q0 -3 -9 -62l-165 -792q-33 -166 -87 -277q-74 -153 -238 -219q-162 -65 -460 -65q-63 0 -63 47q0 58 4 94q5 28 18 37q15 11 49 12q224 6 317 36
t142 89q40 51 64 146zM731 270l107 498q4 21 4 29q0 27 -27 37q-54 20 -145 20q-148 0 -224 -84q-57 -66 -94 -182q-37 -115 -37 -230q0 -194 185 -194q107 0 174 29q32 16 41 34q9 14 16 43zM524 1178q-47 0 -80 4q-32 4 -32 32q0 24 26 50l217 239q45 49 90 49h95
q40 0 67 -49l125 -246q10 -17 10 -38q0 -30 -38 -37q-33 -4 -72 -4q-44 0 -68 39l-98 165l-166 -165q-39 -39 -76 -39z" />
    <glyph glyph-name="Gbreve" unicode="&#x11e;" horiz-adv-x="1343" 
d="M1153 147q-15 -56 -31 -73q-18 -20 -61 -37q-160 -64 -440 -64q-233 0 -360 119q-126 118 -126 354q0 244 78 493q78 248 236 384q97 82 210 115q119 35 291 35q190 0 310 -37q45 -12 45 -50q0 -45 -35 -120q-10 -27 -41 -27q-29 0 -66 8q-114 27 -252 27
q-215 0 -333 -129q-98 -104 -147 -287q-50 -186 -50 -352q0 -334 309 -334q130 0 225 27q45 12 56 59l69 313h-266q-39 0 -39 31q0 29 27 137q10 39 49 39h422q45 0 45 -37q0 -11 -6 -41zM1176 1874q46 0 59 -4q29 -8 29 -39q0 -35 -23 -92q-80 -193 -332 -193
q-121 0 -203 60q-83 60 -83 168q0 39 6 63q11 31 51 35q16 2 47 2q51 0 53 -39q4 -34 13 -61q29 -64 135 -64q81 0 121 31q39 30 63 92q11 26 23 33q13 8 41 8z" />
    <glyph glyph-name="gbreve" unicode="&#x11f;" horiz-adv-x="1144" 
d="M672 20q-80 -45 -238 -45q-350 0 -350 353q0 155 54 320q54 164 159 263q139 129 397 129q216 0 346 -47q52 -18 52 -57q0 -3 -9 -62l-165 -792q-33 -166 -87 -277q-74 -153 -238 -219q-162 -65 -460 -65q-63 0 -63 47q0 58 4 94q5 28 18 37q15 11 49 12q224 6 317 36
t142 89q40 51 64 146zM731 270l107 498q4 21 4 29q0 27 -27 37q-54 20 -145 20q-148 0 -224 -84q-57 -66 -94 -182q-37 -115 -37 -230q0 -194 185 -194q107 0 174 29q32 16 41 34q9 14 16 43zM975 1511q37 0 61 -6q25 -5 25 -39q0 -29 -23 -90q-40 -98 -114 -151
q-76 -54 -207 -54q-130 0 -199 61q-67 60 -67 152q0 46 6 74q12 42 37 47q24 6 55 6q49 0 49 -41q0 -48 4 -61q18 -76 133 -76q78 0 115 34t65 99q17 45 60 45z" />
    <glyph glyph-name="Gdotaccent" unicode="&#x120;" horiz-adv-x="1343" 
d="M1153 147q-15 -56 -31 -73q-18 -20 -61 -37q-160 -64 -440 -64q-233 0 -360 119q-126 118 -126 354q0 244 78 493q78 248 236 384q97 82 210 115q119 35 291 35q190 0 310 -37q45 -12 45 -50q0 -45 -35 -120q-10 -27 -41 -27q-29 0 -66 8q-114 27 -252 27
q-215 0 -333 -129q-98 -104 -147 -287q-50 -186 -50 -352q0 -334 309 -334q130 0 225 27q45 12 56 59l69 313h-266q-39 0 -39 31q0 29 27 137q10 39 49 39h422q45 0 45 -37q0 -11 -6 -41zM1049 1724q0 -83 -41 -122q-35 -35 -93 -35q-102 0 -102 92q0 78 41 119q38 39 92 39
q103 0 103 -93z" />
    <glyph glyph-name="gdotaccent" unicode="&#x121;" horiz-adv-x="1144" 
d="M672 20q-80 -45 -238 -45q-350 0 -350 353q0 155 54 320q54 164 159 263q139 129 397 129q216 0 346 -47q52 -18 52 -57q0 -3 -9 -62l-165 -792q-33 -166 -87 -277q-74 -153 -238 -219q-162 -65 -460 -65q-63 0 -63 47q0 58 4 94q5 28 18 37q15 11 49 12q224 6 317 36
t142 89q40 51 64 146zM731 270l107 498q4 21 4 29q0 27 -27 37q-54 20 -145 20q-148 0 -224 -84q-57 -66 -94 -182q-37 -115 -37 -230q0 -194 185 -194q107 0 174 29q32 16 41 34q9 14 16 43zM858 1380q0 -82 -41 -123q-33 -34 -92 -34q-102 0 -102 92q0 71 41 117
q32 38 92 38q102 0 102 -90z" />
    <glyph glyph-name="Gcommaaccent" unicode="&#x122;" horiz-adv-x="1343" 
d="M1153 147q-15 -56 -31 -73q-18 -20 -61 -37q-160 -64 -440 -64q-233 0 -360 119q-126 118 -126 354q0 244 78 493q78 248 236 384q97 82 210 115q119 35 291 35q190 0 310 -37q45 -12 45 -50q0 -45 -35 -120q-10 -27 -41 -27q-29 0 -66 8q-114 27 -252 27
q-215 0 -333 -129q-98 -104 -147 -287q-50 -186 -50 -352q0 -334 309 -334q130 0 225 27q45 12 56 59l69 313h-266q-39 0 -39 31q0 29 27 137q10 39 49 39h422q45 0 45 -37q0 -11 -6 -41zM614 -113h66q55 0 55 -55q0 -42 -16 -96q-45 -136 -168 -264q-33 -37 -64 -37
q-25 0 -51 20q-26 16 -26 41q0 24 22 53q80 97 103 261q15 77 79 77z" />
    <glyph glyph-name="gcommaaccent" unicode="&#x123;" horiz-adv-x="1144" 
d="M672 20q-80 -45 -238 -45q-350 0 -350 353q0 154 54 321q53 164 159 264q139 129 397 129q216 0 346 -47q52 -18 52 -57q0 -2 -9 -61l-165 -795q-33 -166 -87 -277q-74 -153 -238 -219q-162 -65 -460 -65q-63 0 -63 49q0 76 4 92q12 49 67 49q222 6 316 36t143 89
q36 45 64 148zM731 270l107 500q4 19 4 29q0 25 -27 35q-47 20 -145 20q-151 0 -224 -82q-57 -66 -94 -183t-37 -231q0 -194 185 -194q107 0 174 29q32 16 41 34q9 14 16 43zM741 1182h-67q-56 0 -56 57q0 37 19 96q45 144 166 262q35 35 65 35q26 0 52 -16t26 -41
q0 -15 -24 -53q-82 -118 -103 -262q-11 -78 -78 -78z" />
    <glyph glyph-name="Hcircumflex" unicode="&#x124;" horiz-adv-x="1437" 
d="M334 49q-12 -53 -60 -53h-137q-41 0 -41 37q0 3 6 41l285 1321q10 55 59 55h136q43 0 43 -37q0 -6 -9 -51l-110 -510h592l116 543q10 55 60 55h135q45 0 45 -37q0 -7 -10 -51l-281 -1313q-12 -53 -59 -53h-137q-41 0 -41 37q0 3 6 41l125 571h-594zM698 1552q-57 0 -92 7
q-33 7 -33 32q0 21 27 43l238 207q60 51 104 51h86q50 0 80 -45l162 -209q16 -22 16 -39q0 -27 -41 -38q-28 -7 -80 -7q-43 0 -78 39l-126 129l-173 -131q-51 -39 -90 -39z" />
    <glyph glyph-name="hcircumflex" unicode="&#x125;" horiz-adv-x="1179" 
d="M287 49q-11 -53 -54 -53h-133q-43 0 -43 35q0 15 6 39l297 1403q12 59 64 59h121q45 0 45 -39q0 -13 -2 -29l-111 -506q116 82 336 82q272 0 272 -176q0 -75 -20 -162l-137 -653q-11 -53 -58 -53h-131q-41 0 -41 35q0 19 7 45l126 583q13 67 13 103q0 86 -142 86
q-113 0 -196 -37q-34 -12 -49 -27q-19 -19 -29 -69zM305 1593q-62 0 -92 6q-33 7 -33 33q0 20 27 43l237 207q60 51 105 51h86q50 0 80 -45l162 -209q16 -22 16 -39q0 -27 -41 -38q-28 -7 -80 -7q-44 0 -78 39l-127 129l-172 -131q-51 -39 -90 -39z" />
    <glyph glyph-name="Hbar" unicode="&#x126;" horiz-adv-x="1437" 
d="M334 49q-12 -53 -60 -53h-137q-41 0 -41 37q0 3 6 41l201 930h-104q-39 0 -39 34q0 32 18 105q10 43 53 43h111l45 209q10 55 59 55h136q43 0 43 -37q0 -6 -9 -51l-38 -176h591l45 209q10 55 60 55h135q45 0 45 -37q0 -7 -10 -51l-39 -176h98q41 0 41 -33q0 -27 -20 -111
q-7 -38 -58 -38h-100l-203 -955q-12 -53 -59 -53h-137q-41 0 -41 37q0 3 6 41l125 571h-594zM506 852h592l32 152h-591z" />
    <glyph glyph-name="hbar" unicode="&#x127;" horiz-adv-x="1179" 
d="M287 49q-11 -53 -54 -53h-133q-43 0 -43 35q0 15 6 39l236 1114h-78q-43 0 -43 35q0 13 17 84q15 45 55 45h84l26 125q12 59 64 59h121q45 0 45 -39q0 -13 -2 -29l-27 -116h195q41 0 41 -37q0 -12 -19 -88q-8 -39 -55 -39h-197l-49 -226q116 82 336 82q272 0 272 -176
q0 -75 -20 -162l-137 -653q-11 -53 -58 -53h-131q-41 0 -41 35q0 19 7 45l126 583q13 67 13 103q0 86 -142 86q-113 0 -196 -37q-34 -12 -49 -27q-19 -19 -29 -69z" />
    <glyph glyph-name="Itilde" unicode="&#x128;" horiz-adv-x="610" 
d="M334 49q-12 -53 -60 -53h-137q-41 0 -41 37q0 3 6 41l285 1321q10 55 59 55h136q43 0 43 -37q0 -6 -9 -51zM264 1559q-42 0 -65 6q-25 11 -25 34q0 20 16 58q76 184 209 184q44 0 148 -55q69 -39 115 -39q52 0 86 61q22 43 65 43q38 0 59 -6q27 -7 27 -33q0 -24 -25 -79
q-73 -166 -198 -166q-61 0 -162 53q-80 41 -111 41q-46 0 -79 -57q-6 -11 -13 -21q-6 -8 -11 -13q-8 -8 -15 -9q-10 -2 -21 -2z" />
    <glyph glyph-name="itilde" unicode="&#x129;" horiz-adv-x="532" 
d="M168 1204q-34 0 -59 4q-31 5 -31 37q0 18 16 60q78 182 203 182q46 0 137 -53q68 -41 109 -41q49 0 82 61q22 43 53 43q49 0 67 -6q25 -5 25 -31q0 -32 -22 -80q-76 -168 -195 -168q-59 0 -152 54q-66 39 -98 39q-51 0 -80 -54q-12 -23 -16 -28q-7 -9 -14 -13
q-11 -6 -25 -6zM291 49q-12 -53 -58 -53h-131q-41 0 -41 37q0 6 1 11q0 2 1.5 7.5t2.5 8.5q2 12 2 14l192 891q11 53 55 53h134q38 0 38 -37l-1 -5q-1 -4 -3 -15.5t-4 -22.5z" />
    <glyph glyph-name="Imacron" unicode="&#x12a;" horiz-adv-x="610" 
d="M334 49q-12 -53 -60 -53h-137q-41 0 -41 37q0 3 6 41l285 1321q10 55 59 55h136q43 0 43 -37q0 -6 -9 -51zM788 1602h-526q-43 0 -43 36q0 15 19 93q12 49 63 49h522q45 0 45 -35q0 -20 -18 -98q-12 -45 -62 -45z" />
    <glyph glyph-name="imacron" unicode="&#x12b;" horiz-adv-x="532" 
d="M639 1229h-459q-45 0 -45 39q0 29 19 94q12 47 61 47h457q47 0 47 -37q0 -24 -21 -96q-11 -47 -59 -47zM291 49q-12 -53 -58 -53h-131q-41 0 -41 37q0 6 1 11q0 2 1.5 7.5t2.5 8.5q2 12 2 14l192 891q11 53 55 53h134q38 0 38 -37l-1 -5q-1 -4 -3 -15.5t-4 -22.5z" />
    <glyph glyph-name="Ibreve" unicode="&#x12c;" horiz-adv-x="610" 
d="M334 49q-12 -53 -60 -53h-137q-41 0 -41 37q0 3 6 41l285 1321q10 55 59 55h136q43 0 43 -37q0 -6 -9 -51zM791 1874q46 0 59 -4q29 -8 29 -39q0 -35 -23 -92q-80 -193 -332 -193q-120 0 -203 60t-83 168q0 39 6 63q11 31 51 35q16 2 47 2q52 0 53 -39q4 -34 13 -61
q29 -64 135 -64q81 0 121 31q39 30 63 92q11 26 23 33q13 8 41 8z" />
    <glyph glyph-name="ibreve" unicode="&#x12d;" horiz-adv-x="532" 
d="M657 1511q38 0 62 -6q24 -5 24 -39q0 -31 -22 -90q-40 -97 -115 -151q-76 -54 -207 -54q-129 0 -198 61q-68 60 -68 152q0 46 6 74q12 42 37 47q24 6 55 6q50 0 50 -41q0 -48 4 -61q18 -76 133 -76q77 0 114 34q39 35 66 99q16 45 59 45zM291 49q-12 -53 -58 -53h-131
q-41 0 -41 37q0 6 1 11q0 2 1.5 7.5t2.5 8.5q2 12 2 14l192 891q11 53 55 53h134q38 0 38 -37l-1 -5q-1 -4 -3 -15.5t-4 -22.5z" />
    <glyph glyph-name="Iogonek" unicode="&#x12e;" horiz-adv-x="610" 
d="M334 49q-12 -45 -45 -51q-102 -63 -164 -128t-62 -149q0 -40 25 -63t70 -23q31 0 52 1q9 0 17.5 0.5t13 1t5.5 0.5q17 0 27 -8t14 -29q6 -27 6 -60q-2 -25 -12 -34q-11 -10 -39 -17q-41 -10 -138 -10q-225 0 -225 186q0 116 65 195q63 77 181 137q-29 5 -29 35q0 3 6 41
l285 1321q10 55 59 55h136q43 0 43 -37q0 -6 -9 -51z" />
    <glyph glyph-name="iogonek" unicode="&#x12f;" horiz-adv-x="532" 
d="M291 49q-12 -47 -47 -53q-51 -33 -104 -72q-36 -27 -77 -84q-36 -50 -36 -108q0 -78 88 -78q28 0 48 1t34 1q36 0 43 -37q8 -35 8 -55q-2 -22 -12 -33q-10 -10 -39 -16q-52 -11 -134 -11q-217 0 -217 177q0 113 63 186q64 74 177 131q-25 6 -25 35q0 17 9 51l190 881
q11 53 55 53h134q38 0 38 -37q0 -7 -1 -13q-2 -14 -4 -20q-3 -10 -3 -14zM567 1382q0 -90 -45 -129q-38 -34 -98 -34q-111 0 -111 96q0 85 43 125q39 39 103 39q108 0 108 -97z" />
    <glyph glyph-name="Idotaccent" unicode="&#x130;" horiz-adv-x="610" 
d="M334 49q-12 -53 -60 -53h-137q-41 0 -41 37q0 3 6 41l285 1321q10 55 59 55h136q43 0 43 -37q0 -6 -9 -51zM672 1724q0 -83 -41 -122q-35 -35 -92 -35q-103 0 -103 92q0 78 41 119q37 39 92 39q103 0 103 -93z" />
    <glyph glyph-name="dotlessi" unicode="&#x131;" horiz-adv-x="532" 
d="M291 49q-12 -53 -58 -53h-131q-41 0 -41 37q0 6 1 11q0 2 1.5 7.5t2.5 8.5q2 12 2 14l192 891q11 53 55 53h134q38 0 38 -37l-1 -5q-1 -4 -3 -15.5t-4 -22.5z" />
    <glyph glyph-name="IJ" unicode="&#x132;" horiz-adv-x="1234" 
d="M334 49q-12 -53 -60 -53h-137q-41 0 -41 37q0 3 6 41l285 1321q10 55 59 55h136q43 0 43 -37q0 -6 -9 -51zM1237 1362l-260 -1219q-43 -199 -158 -305q-60 -56 -174 -96q-115 -41 -190 -41q-48 0 -54 43q-8 53 -8 88q0 51 58 62q121 22 184 63q75 46 104 178l269 1260
q10 55 59 55h135q43 0 43 -37q0 -11 -8 -51z" />
    <glyph glyph-name="ij" unicode="&#x133;" horiz-adv-x="1064" 
d="M291 49q-12 -53 -58 -53h-131q-41 0 -41 37q0 17 9 51l190 881q11 53 55 53h134q38 0 38 -37q0 -7 -1 -13q-2 -14 -4 -20q-3 -10 -3 -14zM567 1382q0 -90 -45 -129q-38 -34 -98 -34q-111 0 -111 96q0 85 43 125q39 39 103 39q108 0 108 -97zM799 -57q-40 -203 -142 -299
q-57 -51 -163 -87q-107 -36 -197 -36q-29 0 -39 10q-9 9 -14 35q-6 40 -6 78q0 54 57 61q129 22 188 64q59 40 88 170l222 1026q11 53 55 53h133q39 0 39 -37q0 -8 -8 -43zM1100 1382q0 -90 -45 -129q-38 -34 -99 -34q-110 0 -110 96q0 85 43 125q39 39 102 39
q109 0 109 -97z" />
    <glyph glyph-name="Jcircumflex" unicode="&#x134;" horiz-adv-x="624" 
d="M629 1362l-260 -1219q-43 -199 -158 -305q-60 -56 -174 -96q-115 -41 -191 -41q-47 0 -53 43q-8 53 -8 88q0 52 57 62q122 23 185 63q75 46 104 178l268 1260q10 55 60 55h135q43 0 43 -37q0 -11 -8 -51zM299 1552q-57 0 -92 7q-33 7 -33 32q0 21 27 43l237 207
q60 51 105 51h86q50 0 80 -45l161 -209q17 -23 17 -39q0 -27 -41 -38q-28 -7 -80 -7q-44 0 -78 39l-127 129l-172 -131q-51 -39 -90 -39z" />
    <glyph glyph-name="jcircumflex" unicode="&#x135;" horiz-adv-x="532" 
d="M266 -57q-44 -212 -141 -299q-62 -54 -162 -88q-103 -35 -205 -35q-48 0 -53 47q0 31 8 84q6 49 60 57q116 16 178 60q59 40 88 170l221 1026q11 53 55 53h134q38 0 38 -37l-1 -5q-1 -4 -3 -15.5t-4 -22.5zM188 1178q-46 0 -79 4t-33 32q0 24 26 50l217 239q45 49 91 49
h94q40 0 67 -49l125 -246q11 -19 11 -38q0 -29 -39 -37q-33 -4 -72 -4q-44 0 -68 39l-98 165l-166 -165q-39 -39 -76 -39z" />
    <glyph glyph-name="Kcommaaccent" unicode="&#x136;" horiz-adv-x="1275" 
d="M334 49q-12 -53 -60 -53h-137q-41 0 -41 37q0 3 6 41l285 1321q10 55 59 55h136q43 0 43 -37q0 -6 -9 -51l-110 -510h117q67 0 100 39l418 516q35 45 78 45q107 0 141 -6q35 -5 35 -41q0 -15 -33 -55l-504 -613q55 -103 295 -637q18 -45 18 -59q0 -16 -13 -28
q-13 -11 -34 -13q-45 -4 -149 -4q-38 0 -55 41l-254 569q-17 39 -74 39h-129zM571 -113h66q55 0 55 -55q0 -42 -16 -96q-45 -136 -168 -264q-33 -37 -64 -37q-25 0 -51 20q-26 16 -26 41q0 24 22 53q80 97 103 261q15 77 79 77z" />
    <glyph glyph-name="kcommaaccent" unicode="&#x137;" horiz-adv-x="1091" 
d="M287 49q-11 -53 -54 -53h-133q-43 0 -43 35q0 6 1 11q2 10 3 16q2 12 2 14l302 1409q12 51 59 51h127q41 0 41 -37q0 -10 -4 -31l-170 -800h100q63 0 98 41l250 274q33 39 74 39q130 0 156 -8q20 -6 20 -29q0 -17 -33 -55q-255 -285 -344 -371q18 -30 224 -463
q14 -31 14 -53q0 -25 -31 -37q-19 -8 -151 -8q-40 0 -58 39l-182 399q-18 37 -74 37h-102zM459 -113h65q56 0 56 -55q0 -39 -17 -96q-45 -136 -168 -264q-33 -37 -63 -37q-25 0 -51 20q-27 17 -27 41t22 53q80 97 103 261q15 77 80 77z" />
    <glyph glyph-name="kgreenlandic" unicode="&#x138;" horiz-adv-x="1097" 
d="M287 49q-11 -53 -54 -53h-133q-43 0 -43 35q0 6 1 11q2 10 3 16q2 12 2 14l193 897q10 49 57 49h129q39 0 39 -37q0 -15 -2 -35l-67 -303h98q61 0 100 41l264 295q33 39 76 39q120 0 146 -8q20 -6 20 -29q0 -15 -33 -55q-245 -285 -346 -387l230 -447q12 -27 12 -53
q0 -25 -29 -37q-24 -8 -155 -8q-38 0 -56 39l-190 379q-18 37 -74 37h-102z" />
    <glyph glyph-name="Lacute" unicode="&#x139;" horiz-adv-x="1116" 
d="M905 0h-594q-94 0 -138 35t-44 108q0 46 10 90l248 1158q10 59 62 59h133q43 0 43 -37q0 -11 -9 -51l-225 -1038q-6 -27 -6 -62q0 -55 64 -55h493q45 0 45 -33q0 -28 -24 -135q-7 -39 -58 -39zM573 1581q-44 -29 -92 -29q-71 0 -90 4q-39 4 -39 33q0 26 29 47l262 199
q56 41 96 41q89 0 144 -4q53 -6 53 -37q0 -30 -31 -49z" />
    <glyph glyph-name="lacute" unicode="&#x13a;" horiz-adv-x="583" 
d="M582 1458l-236 -1106q-14 -62 -14 -102q0 -41 24 -59q23 -17 80 -25q37 -6 37 -45q0 -42 -16 -90q-15 -41 -68 -41q-291 0 -291 205q0 50 19 139l241 1136q15 62 60 62h125q45 0 45 -39q0 -6 -1 -9q-1 -2 -3 -14q-2 -10 -2 -12zM528 1622q-44 -29 -92 -29q-71 0 -90 4
q-39 5 -39 33q0 26 29 47l262 199q56 41 96 41q89 0 144 -4q53 -6 53 -37q0 -30 -31 -49z" />
    <glyph glyph-name="Lcommaaccent" unicode="&#x13b;" horiz-adv-x="1116" 
d="M905 0h-594q-94 0 -138 35t-44 108q0 46 10 90l248 1158q10 59 62 59h133q43 0 43 -37q0 -11 -9 -51l-225 -1038q-6 -27 -6 -62q0 -55 64 -55h493q45 0 45 -33q0 -28 -24 -135q-7 -39 -58 -39zM508 -113h65q56 0 56 -55q0 -39 -17 -96q-45 -136 -168 -264
q-33 -37 -63 -37q-25 0 -51 20q-27 17 -27 41q0 22 23 53q79 96 102 261q15 77 80 77z" />
    <glyph glyph-name="lcommaaccent" unicode="&#x13c;" horiz-adv-x="583" 
d="M582 1458l-236 -1106q-14 -62 -14 -102q0 -41 24 -59q23 -17 80 -25q37 -6 37 -45q0 -42 -16 -90q-15 -41 -68 -41q-291 0 -291 205q0 50 19 139l241 1136q15 62 60 62h125q45 0 45 -39q0 -6 -1 -9q-1 -2 -3 -14q-2 -10 -2 -12zM215 -113h66q55 0 55 -55q0 -39 -17 -96
q-46 -138 -167 -264q-33 -37 -64 -37q-25 0 -51 20q-27 17 -27 41q0 22 23 53q79 96 102 261q15 77 80 77z" />
    <glyph glyph-name="Lcaron" unicode="&#x13d;" horiz-adv-x="1116" 
d="M905 0h-594q-94 0 -138 35t-44 108q0 46 10 90l248 1158q10 59 62 59h133q43 0 43 -37q0 -11 -9 -51l-225 -1038q-6 -27 -6 -62q0 -55 64 -55h493q45 0 45 -33q0 -28 -24 -135q-7 -39 -58 -39zM915 1450h66q55 0 55 -57q0 -43 -16 -97q-41 -132 -168 -262
q-30 -35 -66 -35q-26 0 -49 15q-26 16 -26 43q0 21 22 53q81 109 103 262q15 78 79 78z" />
    <glyph glyph-name="lcaron" unicode="&#x13e;" horiz-adv-x="583" 
d="M582 1458l-236 -1106q-14 -62 -14 -102q0 -41 24 -59q23 -17 80 -25q37 -6 37 -45q0 -42 -16 -90q-15 -41 -68 -41q-291 0 -291 205q0 50 19 139l241 1136q15 62 60 62h125q45 0 45 -39q0 -6 -1 -9q-1 -2 -3 -14q-2 -10 -2 -12zM827 1532h66q55 0 55 -57q0 -43 -16 -97
q-41 -132 -168 -262q-30 -35 -66 -35q-26 0 -49 15q-26 16 -26 43q0 21 22 53q81 109 103 262q15 78 79 78z" />
    <glyph glyph-name="Ldot" unicode="&#x13f;" horiz-adv-x="1116" 
d="M905 0h-594q-94 0 -138 35t-44 108q0 46 10 90l248 1158q10 59 62 59h133q43 0 43 -37q0 -11 -9 -51l-225 -1038q-6 -27 -6 -62q0 -55 64 -55h493q45 0 45 -33q0 -28 -24 -135q-7 -39 -58 -39zM1040 762q0 -92 -51 -144q-37 -38 -104 -38q-119 0 -119 108q0 84 45 135
q40 43 111 43q118 0 118 -104z" />
    <glyph glyph-name="ldot" unicode="&#x140;" horiz-adv-x="780" 
d="M588 1458l-238 -1106q-12 -57 -12 -102q0 -42 23 -59t79 -25q39 -6 39 -47q0 -39 -20 -88q-17 -41 -68 -41q-287 0 -287 205q0 76 15 139l243 1136q15 62 60 62h123q45 0 45 -39q0 -19 -2 -35zM834 758q0 -91 -46 -137q-40 -37 -102 -37q-117 0 -117 106q0 78 41 125
q39 45 109 45q115 0 115 -102z" />
    <glyph glyph-name="Lslash" unicode="&#x141;" horiz-adv-x="1116" 
d="M905 0h-594q-94 0 -138 35t-44 108q0 46 10 90l56 261l-78 -43q-18 -9 -37 -9q-18 0 -35 31q-39 78 -39 94q0 22 25 39l213 119l143 666q10 59 62 59h133q43 0 43 -37q0 -11 -9 -51l-106 -488l225 125q22 11 37 11t33 -29q43 -76 43 -96q0 -25 -27 -37l-360 -205
l-70 -319q-6 -27 -6 -62q0 -55 64 -55h493q45 0 45 -33q0 -28 -24 -135q-7 -39 -58 -39z" />
    <glyph glyph-name="lslash" unicode="&#x142;" horiz-adv-x="583" 
d="M582 1458l-119 -555l63 33q22 12 37 12q19 0 37 -33q31 -65 31 -84t-29 -34l-182 -97l-74 -348q-14 -62 -14 -102q0 -41 24 -59q23 -17 80 -25q37 -6 37 -45q0 -42 -16 -90q-15 -41 -68 -41q-291 0 -291 205q0 50 19 139l49 233l-60 -30q-23 -13 -36 -13q-14 0 -31 29
q-35 68 -35 88q0 21 31 37l174 92l149 700q15 62 60 62h125q45 0 45 -39q0 -6 -1 -9q-1 -2 -3 -14q-2 -10 -2 -12z" />
    <glyph glyph-name="Nacute" unicode="&#x143;" horiz-adv-x="1476" 
d="M328 51q-10 -55 -58 -55h-129q-45 0 -45 43q0 13 6 37l263 1210q18 88 61 128t127 40h65q39 0 60 -7q22 -7 36 -26q12 -16 19 -35q9 -25 17 -51q209 -733 282 -1044q32 173 234 1093q12 66 63 66h121q41 0 41 -39q0 -5 -6 -49l-264 -1237q-30 -139 -158 -139h-55
q-70 0 -99 27q-28 26 -51 108q-262 918 -291 1059q-61 -310 -239 -1129zM1020 1581q-44 -29 -92 -29q-71 0 -90 4q-39 4 -39 33q0 26 28 47l263 199q56 41 96 41q88 0 143 -4q53 -6 53 -37t-30 -49z" />
    <glyph glyph-name="nacute" unicode="&#x144;" horiz-adv-x="1173" 
d="M291 49q-12 -53 -55 -53h-134q-41 0 -41 35q0 13 7 41l161 759q21 92 99 125q198 86 475 86q121 0 202 -42q80 -41 80 -142q0 -90 -20 -176l-135 -633q-11 -53 -56 -53h-133q-41 0 -41 35q0 8 7 43l127 585q14 63 14 101q0 90 -141 90q-111 0 -201 -37q-14 -8 -45 -25
q-15 -15 -25 -57zM766 1221q-40 -35 -82 -35q-26 0 -76 6q-43 7 -43 37q0 22 23 45l217 237q37 43 82 43q81 0 127 -6q41 -8 41 -37q0 -24 -23 -45z" />
    <glyph glyph-name="Ncommaaccent" unicode="&#x145;" horiz-adv-x="1476" 
d="M328 51q-10 -55 -58 -55h-129q-45 0 -45 43q0 13 6 37l263 1210q18 88 61 128t127 40h65q39 0 60 -7q22 -7 36 -26q12 -16 19 -35q9 -25 17 -51q209 -733 282 -1044q32 173 234 1093q12 66 63 66h121q41 0 41 -39q0 -5 -6 -49l-264 -1237q-30 -139 -158 -139h-55
q-70 0 -99 27q-28 26 -51 108q-262 918 -291 1059q-61 -310 -239 -1129zM614 -113h66q55 0 55 -55q0 -42 -16 -96q-45 -136 -168 -264q-33 -37 -64 -37q-25 0 -51 20q-26 16 -26 41q0 24 22 53q80 97 103 261q15 77 79 77z" />
    <glyph glyph-name="ncommaaccent" unicode="&#x146;" horiz-adv-x="1173" 
d="M291 49q-12 -53 -55 -53h-134q-41 0 -41 35q0 13 7 41l161 759q21 92 99 125q198 86 475 86q121 0 202 -42q80 -41 80 -142q0 -90 -20 -176l-135 -633q-11 -53 -56 -53h-133q-41 0 -41 35q0 8 7 43l127 585q14 63 14 101q0 90 -141 90q-111 0 -201 -37q-14 -8 -45 -25
q-15 -15 -25 -57zM455 -113h65q55 0 55 -55q0 -42 -16 -96q-45 -136 -168 -264q-33 -37 -63 -37q-26 0 -52 20q-26 16 -26 41q0 24 22 53q80 97 103 261q15 77 80 77z" />
    <glyph glyph-name="Ncaron" unicode="&#x147;" horiz-adv-x="1476" 
d="M328 51q-10 -55 -58 -55h-129q-45 0 -45 43q0 13 6 37l263 1210q18 88 61 128t127 40h65q39 0 60 -7q22 -7 36 -26q12 -16 19 -35q9 -25 17 -51q209 -733 282 -1044q32 173 234 1093q12 66 63 66h121q41 0 41 -39q0 -5 -6 -49l-264 -1237q-30 -139 -158 -139h-55
q-70 0 -99 27q-28 26 -51 108q-262 918 -291 1059q-61 -310 -239 -1129zM1229 1896q62 0 92 -6q33 -4 33 -32q0 -22 -27 -43l-237 -207q-56 -49 -105 -49h-84q-47 0 -80 43l-164 208q-16 17 -16 39q0 32 43 39q50 6 78 6q39 0 78 -39l125 -129l176 132q50 38 88 38z" />
    <glyph glyph-name="ncaron" unicode="&#x148;" horiz-adv-x="1173" 
d="M291 49q-12 -53 -55 -53h-134q-41 0 -41 35q0 13 7 41l161 759q21 92 99 125q198 86 475 86q121 0 202 -42q80 -41 80 -142q0 -90 -20 -176l-135 -633q-11 -53 -56 -53h-133q-41 0 -41 35q0 8 7 43l127 585q14 63 14 101q0 90 -141 90q-111 0 -201 -37q-14 -8 -45 -25
q-15 -15 -25 -57zM938 1561q38 0 80 -5q35 -5 35 -32q0 -22 -27 -49l-217 -238q-47 -51 -84 -51h-102q-42 0 -66 51l-123 240q-12 23 -12 43q0 29 37 36q42 5 73 5q42 0 66 -39l98 -162l168 164q37 37 74 37z" />
    <glyph glyph-name="napostrophe" unicode="&#x149;" horiz-adv-x="1173" 
d="M291 49q-12 -53 -55 -53h-134q-41 0 -41 35q0 13 7 41l161 759q21 92 99 125q198 86 475 86q121 0 202 -42q80 -41 80 -142q0 -90 -20 -176l-135 -633q-11 -53 -56 -53h-133q-41 0 -41 35q0 8 7 43l127 585q14 63 14 101q0 90 -141 90q-111 0 -201 -37q-14 -8 -45 -25
q-15 -15 -25 -57zM446 1622h66q55 0 55 -55q0 -43 -16 -97q-45 -136 -168 -264q-33 -37 -64 -37q-24 0 -51 21q-26 16 -26 41q0 24 22 53q81 97 103 260q15 78 79 78z" />
    <glyph glyph-name="Eng" unicode="&#x14a;" horiz-adv-x="1476" 
d="M328 51q-12 -55 -58 -55h-129q-45 0 -45 43q0 13 6 37l263 1210q18 89 59 129q41 39 125 39h67q63 0 87 -26q26 -27 49 -97q263 -698 313 -872q16 99 201 925q15 66 63 66h121q41 0 41 -39q0 -5 -6 -49l-295 -1372q-46 -215 -156 -307q-62 -55 -172 -96
q-107 -40 -192 -40q-46 0 -52 41q-6 28 -6 90q0 52 60 62q113 23 178 61q77 49 106 179l11 51q-359 1016 -400 1149q-60 -311 -239 -1129z" />
    <glyph glyph-name="eng" unicode="&#x14b;" horiz-adv-x="1173" 
d="M291 49q-12 -53 -55 -53h-134q-41 0 -41 35q0 13 7 41l161 759q21 92 99 125q198 86 475 86q121 0 202 -42q80 -41 80 -142q0 -90 -20 -176l-158 -739q-44 -212 -141 -299q-60 -51 -162 -87t-201 -36q-50 0 -55 47q-2 32 -2 78q0 56 60 63q122 18 186 60q64 44 88 170
l154 720q14 67 14 101q0 90 -141 90q-111 0 -201 -37q-19 -5 -45 -25q-15 -15 -25 -57z" />
    <glyph glyph-name="Omacron" unicode="&#x14c;" horiz-adv-x="1419" 
d="M1389 1047q0 -209 -69 -481q-69 -270 -194 -412q-91 -98 -201 -139q-114 -42 -276 -42q-249 0 -382 98q-132 97 -132 353q0 217 70 476q68 253 203 398q168 177 458 177q91 0 171 -10q79 -10 143 -35q69 -27 112 -73t70 -124t27 -186zM1143 1008q0 156 -66 211
q-65 55 -227 55q-178 0 -275 -115q-91 -106 -143 -322q-53 -220 -53 -382q0 -163 66 -223t225 -60q103 0 171 28t120 105q80 114 131 337q51 225 51 366zM1196 1602h-526q-43 0 -43 36q0 20 18 93q12 49 64 49h522q45 0 45 -35q0 -16 -19 -98q-12 -45 -61 -45z" />
    <glyph glyph-name="omacron" unicode="&#x14d;" horiz-adv-x="1122" 
d="M1057 719q0 -133 -43 -306q-44 -177 -125 -282q-122 -158 -395 -158q-91 0 -163 14q-69 13 -128 49q-59 35 -89 105q-30 69 -30 174q0 152 46 318q47 169 142 270q129 137 371 137q102 0 163 -10q64 -10 127 -42q63 -31 93 -98q31 -68 31 -171zM825 686q0 96 -48 130
q-47 34 -152 34q-130 0 -193 -84q-54 -70 -84 -206q-31 -143 -31 -224q0 -100 45 -137q44 -37 148 -37q150 0 213 96q46 68 74 209q28 139 28 219zM934 1229h-459q-45 0 -45 39q0 29 19 94q12 47 61 47h457q47 0 47 -37q0 -24 -21 -96q-11 -47 -59 -47z" />
    <glyph glyph-name="Obreve" unicode="&#x14e;" horiz-adv-x="1419" 
d="M1389 1047q0 -209 -69 -481q-69 -270 -194 -412q-91 -98 -201 -139q-114 -42 -276 -42q-249 0 -382 98q-132 97 -132 353q0 217 70 476q68 253 203 398q168 177 458 177q91 0 171 -10q79 -10 143 -35q69 -27 112 -73t70 -124t27 -186zM1143 1008q0 156 -66 211
q-65 55 -227 55q-178 0 -275 -115q-91 -106 -143 -322q-53 -220 -53 -382q0 -163 66 -223t225 -60q103 0 171 28t120 105q80 114 131 337q51 225 51 366zM1206 1874q47 0 60 -4q28 -7 28 -39q0 -38 -22 -92q-80 -193 -332 -193q-122 0 -204 60q-83 60 -83 168q0 39 6 63
q11 30 52 35q16 2 47 2q52 0 53 -39q4 -38 12 -61q29 -64 135 -64q81 0 121 31t64 92q12 26 22 33q13 8 41 8z" />
    <glyph glyph-name="obreve" unicode="&#x14f;" horiz-adv-x="1122" 
d="M1057 719q0 -133 -43 -306q-44 -177 -125 -282q-122 -158 -395 -158q-91 0 -163 14q-69 13 -128 49q-59 35 -89 105q-30 69 -30 174q0 152 46 318q47 169 142 270q129 137 371 137q102 0 163 -10q64 -10 127 -42q63 -31 93 -98q31 -68 31 -171zM825 686q0 96 -48 130
q-47 34 -152 34q-130 0 -193 -84q-54 -70 -84 -206q-31 -143 -31 -224q0 -100 45 -137q44 -37 148 -37q150 0 213 96q46 68 74 209q28 139 28 219zM944 1511q38 0 62 -6q24 -5 24 -39q0 -31 -22 -90q-40 -97 -115 -151q-76 -54 -207 -54q-130 0 -199 61q-67 60 -67 152
q0 46 6 74q12 42 37 47q24 6 55 6q49 0 49 -41q0 -48 4 -61q18 -76 134 -76q77 0 114 34q39 35 66 99q17 45 59 45z" />
    <glyph glyph-name="Ohungarumlaut" unicode="&#x150;" horiz-adv-x="1419" 
d="M1389 1047q0 -209 -69 -481q-69 -270 -194 -412q-91 -98 -201 -139q-114 -42 -276 -42q-249 0 -382 98q-132 97 -132 353q0 217 70 476q68 253 203 398q168 177 458 177q91 0 171 -10q79 -10 143 -35q69 -27 112 -73t70 -124t27 -186zM1143 1008q0 156 -66 211
q-65 55 -227 55q-178 0 -275 -115q-91 -106 -143 -322q-53 -220 -53 -382q0 -163 66 -223t225 -60q103 0 171 28t120 105q80 114 131 337q51 225 51 366zM780 1581q-40 -29 -88 -29q-64 0 -80 4q-41 8 -41 33q0 23 31 51l240 199q44 37 94 37q76 0 117 -6q47 -5 47 -33
q0 -31 -33 -53zM1202 1581q-41 -29 -90 -29q-62 0 -82 4q-41 8 -41 33q0 24 33 51l240 199q44 37 94 37q76 0 114 -6q50 -6 50 -33q0 -31 -33 -53z" />
    <glyph glyph-name="ohungarumlaut" unicode="&#x151;" horiz-adv-x="1122" 
d="M1057 719q0 -133 -43 -306q-44 -177 -125 -282q-122 -158 -395 -158q-91 0 -163 14q-69 13 -128 49q-59 35 -89 105q-30 69 -30 174q0 152 46 318q47 169 142 270q129 137 371 137q102 0 163 -10q64 -10 127 -42q63 -31 93 -98q31 -68 31 -171zM825 686q0 96 -48 130
q-47 34 -152 34q-130 0 -193 -84q-54 -70 -84 -206q-31 -143 -31 -224q0 -100 45 -137q44 -37 148 -37q150 0 213 96q46 68 74 209q28 139 28 219zM612 1221q-40 -35 -80 -35q-39 0 -63 6q-45 8 -45 39q0 19 22 45l207 235q37 43 84 43q65 0 107 -8q39 -6 39 -35t-21 -47z
M963 1221q-40 -35 -80 -35t-64 6q-41 8 -41 39q0 21 19 45l209 235q37 43 81 43q66 0 109 -8q41 -8 41 -35q0 -22 -25 -47z" />
    <glyph glyph-name="OE" unicode="&#x152;" horiz-adv-x="1964" 
d="M1784 0h-617q-118 0 -139 84q-4 16 -4 63q-114 -174 -383 -174q-244 0 -375 98t-131 353q0 222 69 476t202 394q162 176 460 176q324 0 367 -190q1 2 2.5 6t2.5 6t3 9.5t4 11.5l6 18q24 66 65 90q42 25 128 25h573q47 0 47 -35q0 -32 -24 -133q-8 -39 -60 -39h-481
q-65 0 -82 -78l-67 -309h495q43 0 43 -35q0 -24 -26 -131q-8 -39 -56 -39h-499l-74 -325q-8 -43 -8 -64q0 -51 63 -51h535q45 0 45 -35q0 -25 -27 -133q-7 -39 -57 -39zM1118 1001q0 154 -60 211q-61 58 -210 58q-181 0 -273 -115q-90 -108 -143 -324q-53 -217 -53 -376
q0 -163 64 -223q65 -60 221 -60q89 0 154 28q62 27 118 105q77 110 130 331q52 218 52 365z" />
    <glyph glyph-name="oe" unicode="&#x153;" horiz-adv-x="1763" 
d="M846 135q-102 -162 -361 -162q-197 0 -299 72t-102 270q0 154 46 320q47 169 142 270q129 137 367 137q143 0 222 -33q83 -35 120 -128q133 161 377 161q184 0 259 -71q77 -72 77 -205q0 -130 -31 -246q-16 -55 -37 -65q-18 -13 -47 -13h-578q-8 -56 -8 -96
q0 -102 58 -143t174 -41q114 0 217 26q60 13 63 13q26 0 37 -29q21 -83 21 -94q0 -35 -50 -53q-132 -52 -350 -52q-254 0 -317 162zM815 688q0 96 -46 130t-146 34q-128 0 -191 -86q-54 -70 -84 -206q-31 -143 -31 -224q0 -100 43 -137t148 -37q142 0 205 96q41 64 72 210
q30 142 30 220zM1038 612h428q19 63 19 129q0 65 -36 95t-124 30q-129 0 -197 -69q-60 -61 -90 -185z" />
    <glyph glyph-name="Racute" unicode="&#x154;" horiz-adv-x="1277" 
d="M336 55q-12 -59 -57 -59h-134q-45 0 -45 43q0 14 11 67l241 1125q27 116 81 165q55 50 171 50h144q252 0 370 -53q148 -68 148 -269q0 -182 -78 -314t-248 -185l184 -527q11 -39 11 -55q0 -32 -35 -43q-24 -6 -148 -6q-42 0 -57 45l-182 551q-52 -2 -125 -2h-137z
M489 778h134q169 0 249 33q150 57 150 268q0 105 -76 142q-58 26 -209 26h-78q-68 0 -84 -76zM903 1581q-44 -29 -92 -29q-71 0 -90 4q-39 4 -39 33q0 26 29 47l262 199q56 41 96 41q88 0 143 -4q54 -6 54 -37q0 -30 -31 -49z" />
    <glyph glyph-name="racute" unicode="&#x155;" horiz-adv-x="768" 
d="M291 49q-12 -53 -55 -53h-136q-39 0 -39 35q0 8 7 43l159 743q18 86 80 131q52 38 161 65q110 27 224 27q92 0 121 -10q27 -8 27 -45q0 -63 -23 -115q-12 -30 -51 -30q-3 0 -9 0.5t-18 1t-22 0.5q-52 2 -53 2q-115 0 -168 -29q-29 -12 -41 -33q-11 -17 -21 -59zM641 1221
q-40 -35 -82 -35q-27 0 -76 6q-43 7 -43 37q0 22 23 45l217 237q37 43 82 43q82 0 127 -6q41 -8 41 -37q0 -24 -23 -45z" />
    <glyph glyph-name="Rcommaaccent" unicode="&#x156;" horiz-adv-x="1277" 
d="M336 55q-12 -59 -57 -59h-134q-45 0 -45 43q0 14 11 67l241 1125q27 116 81 165q55 50 171 50h144q252 0 370 -53q148 -68 148 -269q0 -182 -78 -314t-248 -185l184 -527q11 -39 11 -55q0 -32 -35 -43q-24 -6 -148 -6q-42 0 -57 45l-182 551q-52 -2 -125 -2h-137z
M489 778h134q169 0 249 33q150 57 150 268q0 105 -76 142q-58 26 -209 26h-78q-68 0 -84 -76zM567 -113h66q55 0 55 -55q0 -42 -16 -96q-45 -136 -168 -264q-33 -37 -64 -37q-25 0 -51 20q-27 17 -27 41q0 22 23 53q79 96 102 261q15 77 80 77z" />
    <glyph glyph-name="rcommaaccent" unicode="&#x157;" horiz-adv-x="768" 
d="M291 49q-12 -53 -55 -53h-136q-39 0 -39 35q0 8 7 43l159 743q18 86 80 131q52 38 161 65q110 27 224 27q92 0 121 -10q27 -8 27 -45q0 -63 -23 -115q-12 -30 -51 -30q-3 0 -9 0.5t-18 1t-22 0.5q-52 2 -53 2q-115 0 -168 -29q-29 -12 -41 -33q-11 -17 -21 -59zM135 -113
h66q55 0 55 -55q0 -42 -16 -96q-45 -136 -168 -264q-33 -37 -64 -37q-25 0 -51 20q-27 17 -27 41q0 22 23 53q79 96 102 261q15 77 80 77z" />
    <glyph glyph-name="Rcaron" unicode="&#x158;" horiz-adv-x="1277" 
d="M336 55q-12 -59 -57 -59h-134q-45 0 -45 43q0 14 11 67l241 1125q27 116 81 165q55 50 171 50h144q252 0 370 -53q148 -68 148 -269q0 -182 -78 -314t-248 -185l184 -527q11 -39 11 -55q0 -32 -35 -43q-24 -6 -148 -6q-42 0 -57 45l-182 551q-52 -2 -125 -2h-137z
M489 778h134q169 0 249 33q150 57 150 268q0 105 -76 142q-58 26 -209 26h-78q-68 0 -84 -76zM1077 1896q62 0 92 -6q33 -4 33 -32q0 -23 -26 -43l-238 -207q-56 -49 -104 -49h-84q-47 0 -80 43l-164 208q-17 19 -17 39q0 32 43 39q50 6 78 6q39 0 78 -39l125 -129l176 132
q50 38 88 38z" />
    <glyph glyph-name="rcaron" unicode="&#x159;" horiz-adv-x="768" 
d="M291 49q-12 -53 -55 -53h-136q-39 0 -39 35q0 8 7 43l159 743q18 86 80 131q52 38 161 65q110 27 224 27q92 0 121 -10q27 -8 27 -45q0 -63 -23 -115q-12 -30 -51 -30q-3 0 -9 0.5t-18 1t-22 0.5q-52 2 -53 2q-115 0 -168 -29q-29 -12 -41 -33q-11 -17 -21 -59zM795 1561
q37 0 79 -5q35 -5 35 -32q0 -23 -26 -49l-217 -238q-46 -51 -84 -51h-103q-41 0 -65 51l-123 240q-12 23 -12 43q0 29 36 36q42 5 74 5q42 0 66 -39l98 -162l168 164q37 37 74 37z" />
    <glyph glyph-name="Sacute" unicode="&#x15a;" horiz-adv-x="1157" 
d="M633 594l-156 61q-254 96 -254 336q0 482 574 482q196 0 329 -43q39 -12 39 -56q0 -23 -26 -104q-11 -39 -52 -39q-39 0 -75 10q-137 33 -273 33q-266 0 -266 -221q0 -68 34 -114t128 -83l149 -59q149 -60 215 -133q66 -74 66 -193q0 -258 -147 -378t-439 -120
q-246 0 -397 62q-39 17 -39 49q0 35 31 111q16 45 59 45q13 0 72 -19q149 -47 303 -47q145 0 224 49t79 176q0 64 -35 108q-34 43 -143 87zM791 1581q-44 -29 -93 -29q-71 0 -90 4q-39 4 -39 33q0 26 29 47l262 199q56 41 96 41q89 0 144 -4q53 -6 53 -37q0 -30 -31 -49z
" />
    <glyph glyph-name="sacute" unicode="&#x15b;" horiz-adv-x="890" 
d="M590 575q207 -74 207 -241q0 -169 -101 -264q-106 -97 -342 -97q-219 0 -334 50q-28 12 -28 38q0 37 33 115q15 33 49 33q24 0 53 -12q113 -39 254 -39q119 0 158 45q32 38 32 90q0 36 -23 56q-27 23 -99 46l-121 39q-207 69 -207 244q0 185 125 280q101 82 329 82
q158 0 252 -28q37 -7 37 -41q0 -33 -24 -115q-11 -29 -45 -29q-12 0 -47 7q-123 24 -207 24q-105 0 -150 -33q-43 -34 -43 -104q0 -62 121 -105zM606 1221q-40 -35 -82 -35q-26 0 -75 6q-43 7 -43 37q0 23 22 45l217 237q37 43 82 43q81 0 127 -6q41 -8 41 -37
q0 -24 -23 -45z" />
    <glyph glyph-name="Scircumflex" unicode="&#x15c;" horiz-adv-x="1157" 
d="M633 594l-156 61q-254 96 -254 336q0 482 574 482q196 0 329 -43q39 -12 39 -56q0 -23 -26 -104q-11 -39 -52 -39q-39 0 -75 10q-137 33 -273 33q-266 0 -266 -221q0 -68 34 -114t128 -83l149 -59q149 -60 215 -133q66 -74 66 -193q0 -258 -147 -378t-439 -120
q-246 0 -397 62q-39 17 -39 49q0 35 31 111q16 45 59 45q13 0 72 -19q149 -47 303 -47q145 0 224 49t79 176q0 64 -35 108q-34 43 -143 87zM541 1552q-57 0 -92 7q-33 7 -33 32q0 21 26 43l238 207q60 51 104 51h86q50 0 80 -45l162 -209q16 -22 16 -39q0 -27 -41 -38
q-28 -7 -79 -7q-44 0 -78 39l-127 129l-172 -131q-51 -39 -90 -39z" />
    <glyph glyph-name="scircumflex" unicode="&#x15d;" horiz-adv-x="890" 
d="M590 575q207 -74 207 -241q0 -169 -101 -264q-106 -97 -342 -97q-219 0 -334 50q-28 12 -28 38q0 37 33 115q15 33 49 33q24 0 53 -12q113 -39 254 -39q119 0 158 45q32 38 32 90q0 36 -23 56q-27 23 -99 46l-121 39q-207 69 -207 244q0 185 125 280q101 82 329 82
q158 0 252 -28q37 -7 37 -41q0 -33 -24 -115q-11 -29 -45 -29q-12 0 -47 7q-123 24 -207 24q-105 0 -150 -33q-43 -34 -43 -104q0 -62 121 -105zM362 1178q-46 0 -79 4t-33 32q0 24 26 50l218 239q45 49 90 49h94q40 0 67 -49l125 -246q11 -19 11 -38q0 -29 -39 -37
q-33 -4 -72 -4q-44 0 -68 39l-98 165l-166 -165q-39 -39 -76 -39z" />
    <glyph glyph-name="Scedilla" unicode="&#x15e;" horiz-adv-x="1157" 
d="M532 -111q166 -10 166 -165q0 -144 -82 -202q-83 -59 -233 -59q-49 0 -96 11q-39 8 -39 43q0 25 10 61q11 41 51 41q18 0 47 -4q24 -2 58 -2q50 0 73 18t23 66q0 53 -68 53h-36q-41 0 -41 37q0 17 16 68l39 118q-206 6 -338 62q-39 17 -39 49q0 35 31 111q16 45 59 45
q13 0 72 -19q149 -47 303 -47q145 0 224 49t79 176q0 64 -35 108q-34 43 -143 87l-156 61q-254 96 -254 336q0 482 574 482q196 0 329 -43q39 -12 39 -56q0 -23 -26 -104q-11 -39 -52 -39q-39 0 -75 10q-137 33 -273 33q-266 0 -266 -221q0 -68 34 -114t128 -83l149 -59
q149 -60 215 -133q66 -74 66 -193q0 -239 -128 -359q-128 -121 -380 -137z" />
    <glyph glyph-name="scedilla" unicode="&#x15f;" horiz-adv-x="890" 
d="M397 -106q164 -8 164 -158q0 -137 -80 -194q-78 -56 -229 -56q-67 0 -96 10q-35 12 -37 41q0 23 12 60q10 38 51 38q18 0 43 -4q24 -2 58 -2q49 0 70 18q22 19 22 62q0 51 -64 51h-37q-41 0 -41 37q0 15 17 66l39 112q-175 7 -269 48q-28 12 -28 38q0 37 33 115
q15 33 49 33q24 0 53 -12q113 -39 254 -39q119 0 158 45q32 38 32 90q0 36 -23 56q-27 23 -99 46l-121 39q-207 69 -207 244q0 185 125 280q101 82 329 82q158 0 252 -28q37 -7 37 -41q0 -33 -24 -115q-11 -29 -45 -29q-12 0 -47 7q-123 24 -207 24q-105 0 -150 -33
q-43 -34 -43 -104q0 -62 121 -105l121 -41q207 -74 207 -241q0 -169 -101 -264q-91 -83 -272 -95z" />
    <glyph glyph-name="Scaron" unicode="&#x160;" horiz-adv-x="1157" 
d="M633 594l-156 61q-254 96 -254 336q0 482 574 482q196 0 329 -43q39 -12 39 -56q0 -23 -26 -104q-11 -39 -52 -39q-39 0 -75 10q-137 33 -273 33q-266 0 -266 -221q0 -68 34 -114t128 -83l149 -59q149 -60 215 -133q66 -74 66 -193q0 -258 -147 -378t-439 -120
q-246 0 -397 62q-39 17 -39 49q0 35 31 111q16 45 59 45q13 0 72 -19q149 -47 303 -47q145 0 224 49t79 176q0 64 -35 108q-34 43 -143 87zM1047 1896q62 0 92 -6q32 -4 32 -32q0 -23 -26 -43l-238 -207q-56 -49 -104 -49h-84q-47 0 -80 43l-164 208q-16 17 -16 39
q0 32 43 39q50 6 78 6q38 0 77 -39l125 -129l176 132q50 38 89 38z" />
    <glyph glyph-name="scaron" unicode="&#x161;" horiz-adv-x="890" 
d="M590 575q207 -74 207 -241q0 -169 -101 -264q-106 -97 -342 -97q-219 0 -334 50q-28 12 -28 38q0 37 33 115q15 33 49 33q24 0 53 -12q113 -39 254 -39q119 0 158 45q32 38 32 90q0 36 -23 56q-27 23 -99 46l-121 39q-207 69 -207 244q0 185 125 280q101 82 329 82
q158 0 252 -28q37 -7 37 -41q0 -33 -24 -115q-11 -29 -45 -29q-12 0 -47 7q-123 24 -207 24q-105 0 -150 -33q-43 -34 -43 -104q0 -62 121 -105zM815 1561q38 0 80 -5q35 -5 35 -32q0 -22 -27 -49l-217 -238q-46 -51 -84 -51h-102q-42 0 -66 51l-123 240q-12 23 -12 43
q0 29 37 36q42 5 74 5q41 0 65 -39l98 -162l168 164q37 37 74 37z" />
    <glyph glyph-name="uni0162" unicode="&#x162;" horiz-adv-x="1198" 
d="M506 -111q166 -10 166 -165q0 -144 -82 -202q-83 -59 -234 -59q-49 0 -96 11q-39 8 -39 43q0 25 10 61q11 41 52 41q18 0 47 -4q24 -2 57 -2q51 0 74 18q22 18 22 66q0 53 -67 53h-37q-41 0 -41 37q0 17 16 68l47 141h-4q-41 0 -41 39q0 14 4 35l254 1169h-364
q-43 0 -43 31q0 23 22 129q11 47 58 47h960q47 0 47 -31q0 -34 -24 -139q-7 -37 -58 -37h-362l-256 -1188q-7 -55 -55 -55h-2z" />
    <glyph glyph-name="uni0163" unicode="&#x163;" horiz-adv-x="712" 
d="M391 -106q164 -8 164 -158q0 -137 -80 -194q-78 -56 -229 -56q-67 0 -96 10q-35 12 -37 41q0 25 12 64q12 34 51 34q18 0 43 -4q24 -2 57 -2q50 0 71 18q22 19 22 62q0 51 -64 51h-37q-41 0 -41 37q0 15 17 66l53 153q-139 55 -139 203q0 76 28 213l86 391h-104
q-39 0 -39 33q0 32 18 111q15 47 62 47h106l56 227q15 55 59 55h117q39 0 39 -34q0 -27 -8 -62l-41 -186h172q51 0 51 -39q0 -41 -21 -109q-10 -43 -61 -43h-178l-92 -420q-13 -57 -13 -106q0 -62 41 -92q30 -22 139 -33q43 -6 43 -47q0 -32 -16 -96q-15 -45 -63 -45
q-61 0 -117 6z" />
    <glyph glyph-name="Tcaron" unicode="&#x164;" horiz-adv-x="1198" 
d="M594 51q-7 -55 -55 -55h-142q-41 0 -41 39q0 14 4 35l254 1169h-364q-43 0 -43 31q0 23 22 129q11 47 58 47h960q47 0 47 -31q0 -34 -24 -139q-7 -37 -58 -37h-362zM1038 1896q62 0 92 -6q33 -4 33 -32q0 -23 -26 -43l-238 -207q-56 -49 -104 -49h-84q-47 0 -80 43
l-164 208q-16 17 -16 39q0 32 43 39q50 6 77 6q39 0 78 -39l125 -129l176 132q50 38 88 38z" />
    <glyph glyph-name="tcaron" unicode="&#x165;" horiz-adv-x="712" 
d="M500 823l-92 -420q-13 -57 -13 -106q0 -62 41 -92q30 -22 139 -33q43 -6 43 -47q0 -32 -16 -96q-15 -45 -63 -45q-178 1 -280 51q-101 49 -101 184q0 76 28 213l86 391h-104q-39 0 -39 33q0 32 18 111q15 47 62 47h106l56 227q15 55 59 55h117q39 0 39 -34q0 -27 -8 -62
l-41 -186h172q51 0 51 -39q0 -41 -21 -109q-10 -43 -61 -43h-178zM858 1536h66q55 0 55 -57q0 -43 -16 -97q-41 -132 -168 -262q-30 -35 -66 -35q-27 0 -49 15q-27 16 -27 43q0 19 23 53q79 108 102 262q15 78 80 78z" />
    <glyph glyph-name="Tbar" unicode="&#x166;" horiz-adv-x="1198" 
d="M606 51q-7 -55 -55 -55h-141q-41 0 -41 39q0 14 4 35l135 624h-236q-39 0 -39 35q0 15 19 102q8 46 55 46h240l80 362h-365q-43 0 -43 31q0 19 23 129q11 47 57 47h961q47 0 47 -31q0 -30 -25 -139q-7 -37 -57 -37h-363l-80 -362h260q39 0 39 -33q0 -20 -20 -111
q-7 -39 -55 -39h-263z" />
    <glyph glyph-name="tbar" unicode="&#x167;" horiz-adv-x="712" 
d="M500 823l-33 -149h160q39 0 39 -37q0 -23 -17 -88q-11 -39 -55 -39h-164l-22 -107q-13 -57 -13 -106q0 -62 41 -92q30 -22 139 -33q43 -6 43 -47q0 -32 -16 -96q-15 -45 -63 -45q-178 1 -280 51q-101 49 -101 184q0 76 28 213l17 78h-76q-41 0 -41 35q0 41 14 82
q15 47 56 47h84l32 149h-104q-39 0 -39 33q0 32 18 111q15 47 62 47h106l56 227q15 55 59 55h117q39 0 39 -34q0 -27 -8 -62l-41 -186h172q51 0 51 -39q0 -41 -21 -109q-10 -43 -61 -43h-178z" />
    <glyph glyph-name="Utilde" unicode="&#x168;" horiz-adv-x="1396" 
d="M1415 1382l-172 -802q-39 -178 -66 -267q-26 -86 -77 -149q-79 -101 -199 -146q-121 -45 -313 -45q-82 0 -153 15q-76 16 -137 48q-66 35 -105 100q-39 66 -39 159q0 113 36 280l175 824q12 51 59 51h139q39 0 39 -37q0 -21 -6 -43l-180 -850q-21 -95 -21 -160
q0 -188 234 -188q194 0 274 92q59 65 98 244l191 891q12 51 55 51h135q37 0 37 -33q0 -16 -4 -35zM682 1559q-44 0 -66 6q-24 11 -24 34q0 20 16 58q76 184 209 184q44 0 148 -55q69 -39 114 -39q52 0 86 61q22 43 66 43q38 0 59 -6q27 -7 27 -33q0 -24 -25 -79
q-73 -166 -198 -166q-61 0 -162 53q-80 41 -111 41q-47 0 -80 -57q-7 -15 -12 -21q-6 -8 -11 -13q-7 -7 -16 -9q-10 -2 -20 -2z" />
    <glyph glyph-name="utilde" unicode="&#x169;" horiz-adv-x="1173" 
d="M958 176q-21 -95 -98 -125q-192 -78 -469 -78q-287 0 -287 193q0 76 21 172l135 627q11 53 53 53h133q41 0 41 -35q0 -13 -6 -43l-127 -584q-12 -57 -12 -100q0 -92 145 -92q114 0 193 29q29 12 47 30q19 19 25 53l147 689q11 53 55 53h131q41 0 41 -35q0 -11 -6 -41z
M502 1204q-35 0 -60 4q-30 4 -30 37q0 18 16 60q78 182 203 182q46 0 137 -53q68 -41 109 -41q48 0 81 61q22 43 54 43q49 0 67 -6q25 -5 25 -31q0 -29 -23 -80q-77 -168 -194 -168q-59 0 -152 54q-66 39 -98 39q-51 0 -80 -54q-12 -23 -16 -28q-6 -8 -15 -13q-10 -6 -24 -6
z" />
    <glyph glyph-name="Umacron" unicode="&#x16a;" horiz-adv-x="1396" 
d="M1415 1382l-172 -802q-39 -178 -66 -267q-26 -86 -77 -149q-79 -101 -199 -146q-121 -45 -313 -45q-82 0 -153 15q-76 16 -137 48q-66 35 -105 100q-39 66 -39 159q0 113 36 280l175 824q12 51 59 51h139q39 0 39 -37q0 -21 -6 -43l-180 -850q-21 -95 -21 -160
q0 -188 234 -188q194 0 274 92q59 65 98 244l191 891q12 51 55 51h135q37 0 37 -33q0 -16 -4 -35zM1163 1602h-526q-43 0 -43 36q0 20 18 93q12 49 64 49h522q45 0 45 -35q0 -20 -18 -98q-12 -45 -62 -45z" />
    <glyph glyph-name="umacron" unicode="&#x16b;" horiz-adv-x="1173" 
d="M958 176q-21 -95 -98 -125q-192 -78 -469 -78q-287 0 -287 193q0 76 21 172l135 627q11 53 53 53h133q41 0 41 -35q0 -13 -6 -43l-127 -584q-12 -57 -12 -100q0 -92 145 -92q114 0 193 29q29 12 47 30q19 19 25 53l147 689q11 53 55 53h131q41 0 41 -35q0 -11 -6 -41z
M940 1229h-459q-45 0 -45 39q0 29 19 94q12 47 61 47h457q47 0 47 -37q0 -24 -21 -96q-11 -47 -59 -47z" />
    <glyph glyph-name="Ubreve" unicode="&#x16c;" horiz-adv-x="1396" 
d="M1415 1382l-172 -802q-39 -178 -66 -267q-26 -86 -77 -149q-79 -101 -199 -146q-121 -45 -313 -45q-82 0 -153 15q-76 16 -137 48q-66 35 -105 100q-39 66 -39 159q0 113 36 280l175 824q12 51 59 51h139q39 0 39 -37q0 -21 -6 -43l-180 -850q-21 -95 -21 -160
q0 -188 234 -188q194 0 274 92q59 65 98 244l191 891q12 51 55 51h135q37 0 37 -33q0 -16 -4 -35zM1165 1874q47 0 60 -4q28 -7 28 -39q0 -38 -22 -92q-80 -193 -332 -193q-121 0 -204 60t-83 168q0 39 6 63q11 30 52 35q16 2 47 2q51 0 53 -39q4 -38 12 -61q29 -64 136 -64
q80 0 120 31t64 92q12 26 22 33q13 8 41 8z" />
    <glyph glyph-name="ubreve" unicode="&#x16d;" horiz-adv-x="1173" 
d="M958 176q-21 -95 -98 -125q-192 -78 -469 -78q-287 0 -287 193q0 76 21 172l135 627q11 53 53 53h133q41 0 41 -35q0 -13 -6 -43l-127 -584q-12 -57 -12 -100q0 -92 145 -92q114 0 193 29q29 12 47 30q19 19 25 53l147 689q11 53 55 53h131q41 0 41 -35q0 -11 -6 -41z
M971 1511q37 0 61 -6q25 -5 25 -39q0 -29 -23 -90q-40 -98 -114 -151q-76 -54 -207 -54q-130 0 -199 61q-68 60 -68 152q0 41 7 74q12 42 36 47q24 6 56 6q49 0 49 -41q0 -48 4 -61q18 -76 133 -76q78 0 115 34t65 99q17 45 60 45z" />
    <glyph glyph-name="Uring" unicode="&#x16e;" horiz-adv-x="1396" 
d="M1415 1382l-172 -802q-39 -178 -66 -267q-26 -86 -77 -149q-79 -101 -199 -146q-121 -45 -313 -45q-82 0 -153 15q-76 16 -137 48q-66 35 -105 100q-39 66 -39 159q0 113 36 280l175 824q12 51 59 51h139q39 0 39 -37q0 -21 -6 -43l-180 -850q-21 -95 -21 -160
q0 -188 234 -188q194 0 274 92q59 65 98 244l191 891q12 51 55 51h135q37 0 37 -33q0 -16 -4 -35zM1106 1720q0 -99 -54 -156t-153 -57q-79 0 -126 45q-46 45 -46 127q0 99 54 157t151 58q82 0 128 -46t46 -128zM1024 1716q0 101 -100 101q-50 0 -85 -35q-34 -34 -34 -92
q0 -107 102 -107q53 0 85 35t32 98z" />
    <glyph glyph-name="uring" unicode="&#x16f;" horiz-adv-x="1173" 
d="M958 176q-21 -95 -98 -125q-192 -78 -469 -78q-287 0 -287 193q0 76 21 172l135 627q11 53 53 53h133q41 0 41 -35q0 -13 -6 -43l-127 -584q-12 -57 -12 -100q0 -92 145 -92q114 0 193 29q29 12 47 30q19 19 25 53l147 689q11 53 55 53h131q41 0 41 -35q0 -11 -6 -41z
M924 1397q0 -103 -60 -163t-159 -60q-85 0 -134 48t-49 134q0 94 61 157q60 62 158 62q83 0 133 -47t50 -131zM838 1395q0 104 -107 104q-55 0 -91 -37q-36 -38 -36 -98q0 -115 109 -115q59 0 92 38q33 37 33 108z" />
    <glyph glyph-name="Uhungarumlaut" unicode="&#x170;" horiz-adv-x="1396" 
d="M1415 1382l-172 -802q-39 -178 -66 -267q-26 -86 -77 -149q-79 -101 -199 -146q-121 -45 -313 -45q-82 0 -153 15q-76 16 -137 48q-66 35 -105 100q-39 66 -39 159q0 113 36 280l175 824q12 51 59 51h139q39 0 39 -37q0 -21 -6 -43l-180 -850q-21 -95 -21 -160
q0 -188 234 -188q194 0 274 92q59 65 98 244l191 891q12 51 55 51h135q37 0 37 -33q0 -16 -4 -35zM774 1581q-40 -29 -88 -29q-64 0 -80 4q-41 8 -41 33q0 23 31 51l240 199q46 37 94 37q76 0 117 -6q47 -5 47 -33q0 -31 -33 -53zM1196 1581q-41 -29 -90 -29q-62 0 -82 4
q-41 8 -41 33q0 24 33 51l239 199q46 37 95 37q76 0 114 -6q49 -6 49 -33q0 -31 -32 -53z" />
    <glyph glyph-name="uhungarumlaut" unicode="&#x171;" horiz-adv-x="1173" 
d="M958 176q-21 -95 -98 -125q-192 -78 -469 -78q-287 0 -287 193q0 76 21 172l135 627q11 53 53 53h133q41 0 41 -35q0 -13 -6 -43l-127 -584q-12 -57 -12 -100q0 -92 145 -92q114 0 193 29q29 12 47 30q19 19 25 53l147 689q11 53 55 53h131q41 0 41 -35q0 -11 -6 -41z
M621 1221q-40 -35 -80 -35t-64 6q-45 8 -45 39q0 17 23 45l207 235q37 43 83 43q65 0 107 -8q39 -6 39 -35t-21 -47zM971 1221q-40 -35 -80 -35t-64 6q-41 8 -41 39q0 21 19 45l209 235q37 43 82 43q65 0 108 -8q41 -8 41 -35q0 -23 -24 -47z" />
    <glyph glyph-name="Uogonek" unicode="&#x172;" horiz-adv-x="1396" 
d="M1415 1382l-172 -802q-39 -178 -66 -267q-26 -86 -77 -149q-123 -157 -377 -184q-90 -60 -144 -120q-55 -61 -55 -139q0 -40 25 -63t69 -23q32 0 53 1q9 0 17.5 0.5t13 1t5.5 0.5q17 0 27 -8t14 -29q6 -27 6 -60q-2 -24 -13 -34t-39 -17q-41 -10 -137 -10
q-225 0 -225 186q0 188 205 309q-79 5 -143 21q-63 16 -122 51q-58 34 -93 98q-33 60 -33 150q0 113 36 280l175 824q12 51 59 51h139q39 0 39 -37q0 -21 -6 -43l-180 -850q-21 -95 -21 -160q0 -188 234 -188q194 0 274 92q59 65 98 244l191 891q12 51 55 51h135
q37 0 37 -33q0 -16 -4 -35z" />
    <glyph glyph-name="uogonek" unicode="&#x173;" horiz-adv-x="1173" 
d="M958 176q-13 -54 -32 -79q-22 -28 -60 -44q-1 -1 -8 -5t-18.5 -10.5t-24.5 -14.5q-46 -29 -59 -38q-6 -4 -25 -17t-30 -20q-37 -25 -55 -46q-1 -1 -16 -19t-25 -29q-24 -26 -33 -58q-9 -30 -9 -60q0 -82 88 -82q28 0 48 1t34 1q36 0 43 -37q8 -35 8 -55q-2 -22 -12 -33
q-10 -10 -39 -16q-52 -11 -133 -11q-217 0 -217 181q0 105 56 173q58 70 157 132q-87 -17 -205 -17q-287 0 -287 193q0 76 21 172l135 627q11 53 53 53h133q41 0 41 -35q0 -13 -6 -43l-127 -584q-12 -57 -12 -100q0 -92 145 -92q114 0 193 29q29 12 47 30q19 19 25 53
l147 689q11 53 55 53h131q41 0 41 -35q0 -11 -6 -41z" />
    <glyph glyph-name="Wcircumflex" unicode="&#x174;" horiz-adv-x="1908" 
d="M1094 1141q-35 -82 -490 -1024q-30 -68 -69 -95q-40 -28 -107 -28h-61q-121 0 -121 112q-4 597 -4 1229q0 44 6 68q6 36 45 41q53 8 153 8q48 0 48 -55q-15 -933 -23 -1151q101 243 498 1048q30 61 58 86t83 25h59q62 0 83 -24q22 -25 26 -85q41 -696 45 -1052
q53 158 467 1147q24 61 70 61q106 0 149 -8q27 -4 27 -33t-23 -80l-524 -1212q-27 -64 -65 -94q-39 -31 -107 -31h-53q-75 0 -102 29q-28 29 -32 96q-31 630 -36 1022zM930 1552q-57 0 -92 7q-33 7 -33 32q0 21 26 43l238 207q60 51 105 51h86q49 0 79 -45l162 -209
q17 -23 17 -39q0 -27 -41 -38q-28 -7 -80 -7q-43 0 -78 39l-127 129l-172 -131q-51 -39 -90 -39z" />
    <glyph glyph-name="wcircumflex" unicode="&#x175;" horiz-adv-x="1531" 
d="M831 731q-60 -127 -319 -635q-29 -60 -68 -82q-36 -20 -100 -20h-39q-109 0 -115 106l-36 801q-2 32 -2 57q0 48 43 54q88 8 147 8q45 0 45 -53q8 -289 14 -742q90 204 316 637q36 65 63 88q30 25 80 25h29q51 0 74 -23q22 -22 28 -82q43 -443 51 -643q64 160 318 736
q24 57 70 57q89 0 143 -10q24 -2 24 -37q0 -17 -24 -70l-377 -807q-24 -55 -61 -79q-36 -23 -99 -23h-39q-113 0 -120 102q-42 508 -46 635zM702 1178q-46 0 -79 4t-33 32q0 24 26 50l218 239q45 49 90 49h94q40 0 67 -49l125 -246q11 -19 11 -38q0 -29 -39 -37
q-33 -4 -72 -4q-44 0 -68 39l-98 165l-166 -165q-39 -39 -76 -39z" />
    <glyph glyph-name="Ycircumflex" unicode="&#x176;" horiz-adv-x="1181" 
d="M629 57q-6 -61 -60 -61h-137q-41 0 -41 41q0 11 8 51l109 522l-291 733q-16 44 -16 62q0 29 26 39q24 8 172 8q41 0 62 -51q155 -406 203 -555q105 148 428 549q45 57 90 57q133 0 168 -8q18 -6 18 -31q0 -24 -35 -65l-590 -732zM559 1552q-57 0 -92 7q-33 7 -33 32
q0 21 27 43l237 207q60 51 105 51h86q50 0 80 -45l161 -209q17 -23 17 -39q0 -27 -41 -38q-28 -7 -80 -7q-44 0 -78 39l-127 129l-172 -131q-51 -39 -90 -39z" />
    <glyph glyph-name="ycircumflex" unicode="&#x177;" horiz-adv-x="1173" 
d="M696 35q-130 -62 -307 -62q-287 0 -287 195q0 66 21 168l137 631q10 51 55 51h134q38 0 38 -35q0 -13 -6 -43l-125 -584q-14 -53 -14 -106q0 -86 145 -86q113 0 195 31q31 11 47 28q18 26 25 64l145 678q11 53 59 53h127q41 0 41 -35q0 -20 -4 -35l-188 -889
q-37 -171 -78 -254q-78 -155 -248 -220q-168 -64 -479 -64q-59 0 -59 49q0 50 6 80q10 65 57 65q242 1 352 38q108 36 152 106q34 57 51 137zM516 1178q-47 0 -80 4t-33 32q0 23 27 50l217 239q45 49 90 49h94q41 0 68 -49l125 -246q10 -17 10 -38q0 -29 -39 -37
q-33 -4 -71 -4q-44 0 -68 39l-98 165l-166 -165q-39 -39 -76 -39z" />
    <glyph glyph-name="Ydieresis" unicode="&#x178;" horiz-adv-x="1181" 
d="M629 57q-6 -61 -60 -61h-137q-41 0 -41 41q0 11 8 51l109 522l-291 733q-16 44 -16 62q0 29 26 39q24 8 172 8q41 0 62 -51q155 -406 203 -555q105 148 428 549q45 57 90 57q133 0 168 -8q18 -6 18 -31q0 -24 -35 -65l-590 -732zM731 1724q0 -83 -39 -122
q-40 -35 -94 -35q-102 0 -102 92q0 79 39 119q39 39 96 39q100 0 100 -93zM1133 1724q0 -81 -41 -122q-40 -35 -97 -35q-98 0 -98 92q0 80 39 119q38 39 94 39q103 0 103 -93z" />
    <glyph glyph-name="Zacute" unicode="&#x179;" horiz-adv-x="1218" 
d="M1038 0h-964q-105 0 -105 90q0 96 72 170l948 979h-700q-47 0 -47 39q0 21 20 111q15 57 66 57h848q114 0 114 -100q0 -106 -88 -195l-919 -944h784q53 0 53 -41q0 -35 -22 -123q-10 -43 -60 -43zM844 1581q-44 -29 -92 -29q-71 0 -90 4q-39 4 -39 33q0 26 28 47l262 199
q56 41 97 41q88 0 143 -4q53 -6 53 -37t-30 -49z" />
    <glyph glyph-name="zacute" unicode="&#x17a;" horiz-adv-x="985" 
d="M803 0h-729q-101 0 -101 88q0 90 84 166l633 565h-504q-39 0 -39 33q0 23 23 113q15 49 59 49h643q109 0 109 -92q0 -89 -94 -177l-615 -550h572q41 0 41 -41q0 -14 -23 -115q-7 -39 -59 -39zM668 1221q-40 -35 -82 -35q-27 0 -76 6q-43 7 -43 37q0 23 22 45l218 237
q37 43 81 43q80 0 127 -6q41 -8 41 -37q0 -24 -22 -45z" />
    <glyph glyph-name="Zdotaccent" unicode="&#x17b;" horiz-adv-x="1218" 
d="M1038 0h-964q-105 0 -105 90q0 96 72 170l948 979h-700q-47 0 -47 39q0 21 20 111q15 57 66 57h848q114 0 114 -100q0 -106 -88 -195l-919 -944h784q53 0 53 -41q0 -35 -22 -123q-10 -43 -60 -43zM915 1724q0 -83 -41 -122q-35 -35 -92 -35q-102 0 -102 92q0 78 41 119
q38 39 92 39q102 0 102 -93z" />
    <glyph glyph-name="zdotaccent" unicode="&#x17c;" horiz-adv-x="985" 
d="M803 0h-729q-101 0 -101 88q0 90 84 166l633 565h-504q-39 0 -39 33q0 23 23 113q15 49 59 49h643q109 0 109 -92q0 -89 -94 -177l-615 -550h572q41 0 41 -41q0 -14 -23 -115q-7 -39 -59 -39zM733 1380q0 -82 -41 -123q-33 -34 -92 -34q-102 0 -102 92q0 71 41 117
q32 38 92 38q102 0 102 -90z" />
    <glyph glyph-name="Zcaron" unicode="&#x17d;" horiz-adv-x="1218" 
d="M1038 0h-964q-105 0 -105 90q0 96 72 170l948 979h-700q-47 0 -47 39q0 21 20 111q15 57 66 57h848q114 0 114 -100q0 -106 -88 -195l-919 -944h784q53 0 53 -41q0 -35 -22 -123q-10 -43 -60 -43zM1044 1896q63 0 93 -6q32 -4 32 -32q0 -23 -26 -43l-238 -207
q-56 -49 -104 -49h-84q-47 0 -80 43l-164 208q-16 17 -16 39q0 32 43 39q50 6 78 6q38 0 77 -39l125 -129l176 132q50 38 88 38z" />
    <glyph glyph-name="zcaron" unicode="&#x17e;" horiz-adv-x="985" 
d="M803 0h-729q-101 0 -101 88q0 90 84 166l633 565h-504q-39 0 -39 33q0 23 23 113q15 49 59 49h643q109 0 109 -92q0 -89 -94 -177l-615 -550h572q41 0 41 -41q0 -14 -23 -115q-7 -39 -59 -39zM838 1561q38 0 80 -5q34 -4 34 -32q0 -23 -26 -49l-217 -238q-47 -51 -84 -51
h-103q-38 0 -65 51l-123 240q-12 23 -12 43q0 29 36 36q42 5 74 5q42 0 66 -39l98 -162l168 164q37 37 74 37z" />
    <glyph glyph-name="longs" unicode="&#x17f;" horiz-adv-x="557" 
d="M291 53q-7 -57 -60 -57h-129q-41 0 -41 37q0 7 7 35l225 1058q49 223 151 301q144 111 387 111q70 0 70 -51q0 -47 -10 -90q-11 -47 -57 -47q-104 -1 -162 -23q-58 -21 -94 -63q-40 -46 -62 -152z" />
    <glyph glyph-name="florin" unicode="&#x192;" horiz-adv-x="1021" 
d="M692 743l-129 -614q-45 -225 -137 -297q-100 -80 -291 -80q-94 0 -133 15q-25 8 -25 47q0 28 23 106q12 35 49 35q3 0 38 -3q34 -3 58 -3q90 0 129 45q38 41 62 164l125 585h-168q-39 0 -39 31q0 27 14 80q8 39 51 39h170l33 151q44 203 140 287q95 80 292 80
q109 0 144 -14q26 -10 26 -49q0 -35 -20 -105q-8 -35 -49 -35q-11 0 -44 4q-42 5 -63 5q-98 0 -139 -50q-41 -51 -64 -157l-24 -117h227q39 0 39 -35q0 -36 -12 -80q-8 -35 -53 -35h-230z" />
    <glyph glyph-name="Aringacute" unicode="&#x1fa;" horiz-adv-x="1280" 
d="M1038 1567q0 -95 -57 -146q35 -28 47 -114l148 -1196q4 -33 4 -60q0 -34 -33 -49q-26 -8 -156 -8q-27 0 -37 13q-9 12 -14 50l-43 349h-516l-191 -349q-22 -39 -33 -50q-13 -13 -38 -13q-136 0 -168 8q-23 6 -23 29q0 17 25 69l670 1203q56 101 104 124q-33 43 -33 105
q0 85 50 137q50 51 137 51q74 0 115 -40q42 -40 42 -113zM481 604h406q-54 494 -64 645zM958 1784q-40 -23 -73 -23q-43 0 -72 4q-33 5 -33 31q0 22 23 39l207 160q38 28 80 28q52 0 120 -6q37 -1 37 -30q0 -28 -24 -43zM961 1567q0 84 -89 84q-43 0 -73 -30
q-31 -31 -31 -79q0 -44 25 -69t67 -25q45 0 73 31t28 88z" />
    <glyph glyph-name="aringacute" unicode="&#x1fb;" horiz-adv-x="1099" 
d="M885 182q-16 -71 -45 -106q-22 -28 -78 -49q-151 -54 -373 -54q-330 0 -330 256q0 233 170 328q100 55 328 55q77 0 191 -8l10 49q12 57 12 101q0 92 -164 92q-103 0 -211 -21q-20 -4 -26 -5q-26 -4 -32 -5q-18 -2 -22 -2q-26 0 -34 35q-13 67 -13 90q0 42 56 59
q144 45 329 45q81 0 133 -7q61 -8 110 -26q54 -19 83 -64q29 -44 29 -111q0 -70 -23 -177zM717 451q-61 8 -162 8q-141 0 -203 -35q-73 -43 -73 -150q0 -127 159 -127q107 0 176 29q22 7 41 37q14 26 25 76zM897 1391q0 -100 -57 -160t-158 -60q-86 0 -133 47t-47 132
q0 99 59 158q61 61 158 61q85 0 131 -46q47 -47 47 -132zM811 1391q0 102 -102 102q-53 0 -89 -36t-36 -97q0 -54 28 -82q29 -29 78 -29q121 0 121 142zM784 1659q-33 -33 -71 -33q-39 0 -82 6q-37 7 -37 35q0 18 20 41l226 244q38 41 75 41q76 0 125 -11q35 -6 35 -32
q0 -21 -22 -43z" />
    <glyph glyph-name="AEacute" unicode="&#x1fc;" horiz-adv-x="1941" 
d="M227 49q-39 -53 -100 -53q-107 0 -158 4q-37 1 -37 35q0 24 33 61l1012 1209q64 78 118 111q49 30 136 30h764q47 0 47 -37q0 -20 -25 -131q-8 -39 -59 -39h-526l-86 -387h477q41 0 41 -35q0 -18 -23 -131q-7 -39 -57 -39h-479l-72 -325q-8 -40 -8 -60q0 -55 59 -55h516
q45 0 45 -37q0 -18 -24 -131q-12 -39 -60 -39h-618q-174 0 -174 137q0 52 12 103l41 180h-479zM694 621h367l137 614zM1581 1581q-44 -29 -92 -29q-71 0 -90 4q-39 4 -39 33q0 26 29 47l262 199q56 41 96 41q88 0 143 -4q54 -6 54 -37q0 -30 -31 -49z" />
    <glyph glyph-name="aeacute" unicode="&#x1fd;" horiz-adv-x="1677" 
d="M770 98q-160 -125 -387 -125q-161 0 -243 70q-81 69 -81 190q0 234 166 324q108 57 348 57q24 0 177 -6l12 60q8 42 8 86q0 90 -170 90q-104 0 -213 -23q-59 -10 -68 -10q-26 0 -38 39q-17 62 -17 88q0 42 60 59q154 43 340 43q132 0 203 -30q70 -30 85 -107
q122 137 346 137q177 0 254 -70q78 -70 78 -204q0 -123 -33 -252q-11 -45 -30 -59q-20 -13 -47 -13h-582q-8 -46 -8 -104q0 -176 223 -176q123 0 229 28q49 11 60 11q29 0 39 -37q18 -74 18 -86q0 -35 -43 -53q-127 -52 -344 -52q-247 0 -342 125zM717 446q-92 5 -168 5
q-157 0 -213 -39q-57 -39 -57 -144q0 -121 163 -121q66 0 151 22q81 21 122 56q-10 33 -10 74q0 67 12 147zM973 612h428q18 55 18 127q0 67 -36 97t-126 30q-224 0 -284 -254zM1059 1221q-40 -35 -82 -35q-27 0 -76 6q-43 7 -43 37q0 22 23 45l217 237q37 43 82 43
q82 0 127 -6q41 -8 41 -37q0 -24 -23 -45z" />
    <glyph glyph-name="Oslashacute" unicode="&#x1fe;" horiz-adv-x="1419" 
d="M197 -27q-18 -18 -31 -18q-17 0 -68 45q-14 11 -14 25q0 16 14 30l90 109q-53 101 -53 260q0 217 70 476q68 253 203 398q168 177 458 177q244 0 363 -70l86 102q15 17 28 17q14 0 25 -8q57 -44 57 -58q0 -13 -12 -28l-92 -111q68 -101 68 -272q0 -209 -69 -481
q-69 -270 -194 -412q-91 -98 -201 -139q-114 -42 -276 -42q-255 0 -375 93zM670 172q103 0 171 28t120 105q80 114 131 337q51 225 51 366q0 34 -8 90l-707 -848q62 -78 242 -78zM379 455q0 -38 2 -62l692 828q-64 53 -223 53q-178 0 -275 -115q-91 -106 -143 -322
q-53 -220 -53 -382zM967 1581q-44 -29 -93 -29q-71 0 -90 4q-39 4 -39 33q0 26 29 47l262 199q56 41 97 41q88 0 143 -4q53 -6 53 -37q0 -30 -31 -49z" />
    <glyph glyph-name="oslashacute" unicode="&#x1ff;" horiz-adv-x="1122" 
d="M150 -57q-17 -17 -29 -17q-16 0 -62 41q-12 12 -12 23q0 12 14 26l74 86q-51 80 -51 213q0 154 46 320q47 169 142 270q129 137 371 137q174 0 262 -38l80 92q11 14 29 14q10 0 26 -12q45 -39 45 -49q0 -15 -12 -27l-76 -88q60 -80 60 -213q0 -129 -44 -307
q-43 -175 -124 -283q-122 -158 -395 -158q-179 0 -275 52zM510 160q150 0 217 100q44 68 74 209t30 217q0 24 -4 49l-465 -542q44 -33 148 -33zM309 334v-27l451 524q-48 23 -131 23q-137 0 -203 -88q-56 -69 -86 -208q-31 -143 -31 -224zM731 1221q-40 -35 -82 -35
q-27 0 -76 6q-43 7 -43 37q0 22 23 45l217 237q37 43 82 43q82 0 127 -6q41 -8 41 -37q0 -24 -23 -45z" />
    <glyph glyph-name="uni0218" unicode="&#x218;" horiz-adv-x="1157" 
d="M633 594l-156 61q-254 96 -254 336q0 482 574 482q196 0 329 -43q39 -12 39 -56q0 -23 -26 -104q-11 -39 -52 -39q-39 0 -75 10q-137 33 -273 33q-266 0 -266 -221q0 -68 34 -114t128 -83l149 -59q149 -60 215 -133q66 -74 66 -193q0 -258 -147 -378t-439 -120
q-246 0 -397 62q-39 17 -39 49q0 35 31 111q16 45 59 45q13 0 72 -19q149 -47 303 -47q145 0 224 49t79 176q0 64 -35 108q-34 43 -143 87zM479 -113h66q55 0 55 -55q0 -42 -16 -96q-45 -136 -168 -264q-33 -37 -64 -37q-25 0 -51 20q-27 17 -27 41q0 22 23 53
q79 96 102 261q15 77 80 77z" />
    <glyph glyph-name="uni0219" unicode="&#x219;" horiz-adv-x="890" 
d="M590 575q207 -74 207 -241q0 -169 -101 -264q-106 -97 -342 -97q-219 0 -334 50q-28 12 -28 38q0 37 33 115q15 33 49 33q24 0 53 -12q113 -39 254 -39q119 0 158 45q32 38 32 90q0 36 -23 56q-27 23 -99 46l-121 39q-207 69 -207 244q0 185 125 280q101 82 329 82
q158 0 252 -28q37 -7 37 -41q0 -33 -24 -115q-11 -29 -45 -29q-12 0 -47 7q-123 24 -207 24q-105 0 -150 -33q-43 -34 -43 -104q0 -62 121 -105zM324 -113h65q55 0 55 -55q0 -42 -16 -96q-45 -136 -168 -264q-33 -37 -63 -37q-26 0 -52 20q-26 16 -26 41q0 24 22 53
q80 97 103 261q15 77 80 77z" />
    <glyph glyph-name="uni021A" unicode="&#x21a;" horiz-adv-x="1198" 
d="M594 51q-7 -55 -55 -55h-142q-41 0 -41 39q0 14 4 35l254 1169h-364q-43 0 -43 31q0 23 22 129q11 47 58 47h960q47 0 47 -31q0 -34 -24 -139q-7 -37 -58 -37h-362zM424 -113h65q56 0 56 -55q0 -39 -17 -96q-45 -136 -168 -264q-33 -37 -63 -37q-25 0 -51 20
q-27 17 -27 41q0 22 23 53q79 96 102 261q15 77 80 77z" />
    <glyph glyph-name="uni021B" unicode="&#x21b;" horiz-adv-x="712" 
d="M500 823l-92 -420q-13 -57 -13 -106q0 -62 41 -92q30 -22 139 -33q43 -6 43 -47q0 -32 -16 -96q-15 -45 -63 -45q-178 1 -280 51q-101 49 -101 184q0 76 28 213l86 391h-104q-39 0 -39 33q0 32 18 111q15 47 62 47h106l56 227q15 55 59 55h117q39 0 39 -34q0 -27 -8 -62
l-41 -186h172q51 0 51 -39q0 -41 -21 -109q-10 -43 -61 -43h-178zM309 -113h66q55 0 55 -55q0 -42 -16 -96q-45 -136 -168 -264q-33 -37 -64 -37q-25 0 -51 20q-27 17 -27 41q0 22 23 53q79 96 102 261q15 77 80 77z" />
    <glyph glyph-name="circumflex" unicode="&#x2c6;" horiz-adv-x="403" 
d="M0 1178q-47 0 -80 4t-33 32q0 23 27 50l217 239q45 49 90 49h94q41 0 68 -49l125 -246q10 -17 10 -38q0 -29 -39 -37q-33 -4 -71 -4q-44 0 -68 39l-98 165l-166 -165q-39 -39 -76 -39z" />
    <glyph glyph-name="caron" unicode="&#x2c7;" horiz-adv-x="403" 
d="M403 1561q38 0 80 -5q35 -5 35 -32q0 -23 -26 -49l-218 -238q-46 -51 -84 -51h-102q-38 0 -65 51l-123 240q-13 24 -13 43q0 29 37 36q42 5 74 5q41 0 65 -39l99 -162l168 164q37 37 73 37z" />
    <glyph glyph-name="breve" unicode="&#x2d8;" horiz-adv-x="403" 
d="M424 1511q37 0 61 -6q25 -5 25 -39q0 -29 -23 -90q-40 -98 -114 -151q-76 -54 -207 -54q-130 0 -199 61q-67 60 -67 152q0 46 6 74q12 42 37 47q24 6 55 6q49 0 49 -41q0 -48 4 -61q18 -76 133 -76q78 0 115 34q39 35 66 99q17 45 59 45z" />
    <glyph glyph-name="dotaccent" unicode="&#x2d9;" horiz-adv-x="403" 
d="M319 1380q0 -83 -40 -123q-33 -34 -93 -34q-102 0 -102 92q0 71 41 117q32 38 92 38q102 0 102 -90z" />
    <glyph glyph-name="ring" unicode="&#x2da;" horiz-adv-x="403" 
d="M401 1397q0 -104 -59 -163q-60 -60 -160 -60q-84 0 -133 48t-49 134q0 96 60 157q60 62 159 62q83 0 133 -47q49 -46 49 -131zM315 1395q0 104 -106 104q-55 0 -91 -37q-36 -38 -36 -98q0 -115 108 -115q60 0 93 38q32 36 32 108z" />
    <glyph glyph-name="ogonek" unicode="&#x2db;" horiz-adv-x="403" 
d="M418 14q-61 -36 -86 -55q-42 -31 -75 -60q-46 -39 -66 -80q-21 -42 -21 -87q0 -78 88 -78q28 0 48 1t34 1q36 0 43 -37q8 -35 8 -55q-1 -22 -12 -33q-10 -10 -39 -16q-52 -11 -133 -11q-217 0 -217 177q0 120 70 196q69 75 204 137h154z" />
    <glyph glyph-name="tilde" unicode="&#x2dc;" horiz-adv-x="403" 
d="M-55 1204q-35 0 -60 4q-30 4 -30 37q0 18 16 60q78 182 203 182q46 0 137 -53q68 -41 108 -41q49 0 82 61q22 43 54 43q49 0 67 -6q25 -5 25 -31q0 -29 -23 -80q-77 -168 -194 -168q-59 0 -152 54q-66 39 -98 39q-51 0 -80 -54q-12 -23 -16 -28q-6 -8 -15 -13
q-11 -6 -24 -6z" />
    <glyph glyph-name="hungarumlaut" unicode="&#x2dd;" horiz-adv-x="403" 
d="M-16 1221q-40 -35 -80 -35t-64 6q-45 8 -45 39q0 17 23 45l207 235q37 43 84 43q64 0 106 -8q39 -6 39 -35t-21 -47zM334 1221q-40 -35 -80 -35t-64 6q-40 7 -40 39q0 23 18 45l209 235q37 43 82 43q65 0 108 -8q41 -8 41 -35q0 -23 -24 -47z" />
    <glyph glyph-name="uni0394" unicode="&#x394;" horiz-adv-x="1378" 
d="M1284 92q6 -24 6 -47q0 -45 -53 -45h-1227q-39 0 -39 31q0 14 19 49l794 1259q28 45 70 45h135q39 0 47 -45zM889 1188q-79 -134 -637 -1018h825q-171 908 -188 1018z" />
    <glyph glyph-name="uni03A9" unicode="&#x3a9;" horiz-adv-x="1501" 
d="M610 47q-8 -47 -59 -47h-420q-43 0 -43 29q0 20 14 94q6 29 17 37t35 8h325q-282 121 -282 436q0 156 51 324q51 166 153 284q181 199 527 199q258 0 375 -111q116 -110 116 -325q0 -348 -157 -565q-113 -156 -322 -242h336q43 0 43 -33q0 -21 -14 -92q-6 -27 -16 -35
t-36 -8h-444q-47 0 -47 37q0 38 22 141q11 51 50 68q185 80 270 229q110 193 110 457q0 160 -75 235q-76 76 -242 76q-236 0 -350 -147q-72 -90 -111 -234t-39 -266q0 -256 207 -350q31 -17 31 -53q0 -12 -25 -146z" />
    <glyph glyph-name="uni03BC" unicode="&#x3bc;" horiz-adv-x="1241" 
d="M244 -367q-12 -51 -58 -51h-127q-45 0 -45 35q0 5 9 45l276 1303q11 53 53 53h137q37 0 37 -37q0 -23 -6 -47l-123 -567q-14 -63 -14 -105q0 -94 158 -94q118 0 188 29q31 13 45 26q17 15 27 53l147 689q11 53 56 53h133q41 0 41 -37q0 -10 -4 -26q-5 -20 -5 -19
l-165 -768q-18 -93 -97 -127q-169 -68 -377 -68q-146 0 -200 54z" />
    <glyph glyph-name="pi" unicode="&#x3c0;" horiz-adv-x="1265" 
d="M358 51q-5 -31 -16 -41t-43 -10h-121q-47 0 -47 35q0 14 8 49l158 733h-76q-43 0 -43 33q0 25 21 115q10 49 65 49h969q51 0 51 -37q0 -31 -20 -111q-12 -49 -62 -49h-80l-94 -440q-30 -143 -37 -230q-4 -51 -4 -94q0 -53 -61 -53h-119q-32 0 -39 14q-8 16 -8 49
q0 90 47 316l92 438h-375z" />
    <glyph glyph-name="Wgrave" unicode="&#x1e80;" horiz-adv-x="1908" 
d="M1094 1141q-35 -82 -490 -1024q-30 -68 -69 -95q-40 -28 -107 -28h-61q-121 0 -121 112q-4 597 -4 1229q0 44 6 68q6 36 45 41q53 8 153 8q48 0 48 -55q-15 -933 -23 -1151q101 243 498 1048q30 61 58 86t83 25h59q62 0 83 -24q22 -25 26 -85q41 -696 45 -1052
q53 158 467 1147q24 61 70 61q106 0 149 -8q27 -4 27 -33t-23 -80l-524 -1212q-27 -64 -65 -94q-39 -31 -107 -31h-53q-75 0 -102 29q-28 29 -32 96q-31 630 -36 1022zM1087 1581l-274 207q-29 23 -29 45q0 37 47 39q39 4 150 4q44 0 90 -43l209 -199q25 -23 25 -45
q0 -27 -31 -33q-28 -6 -96 -6q-44 0 -91 31z" />
    <glyph glyph-name="wgrave" unicode="&#x1e81;" horiz-adv-x="1531" 
d="M831 731q-60 -127 -319 -635q-29 -60 -68 -82q-36 -20 -100 -20h-39q-109 0 -115 106l-36 801q-2 32 -2 57q0 48 43 54q88 8 147 8q45 0 45 -53q8 -289 14 -742q90 204 316 637q36 65 63 88q30 25 80 25h29q51 0 74 -23q22 -22 28 -82q43 -443 51 -643q64 160 318 736
q24 57 70 57q89 0 143 -10q24 -2 24 -37q0 -17 -24 -70l-377 -807q-24 -55 -61 -79q-36 -23 -99 -23h-39q-113 0 -120 102q-42 508 -46 635zM809 1221l-215 243q-23 23 -23 47q0 35 45 39q51 4 127 4q43 0 76 -49l170 -237q19 -25 19 -45q0 -27 -39 -33q-24 -2 -80 -2
q-50 0 -80 33z" />
    <glyph glyph-name="Wacute" unicode="&#x1e82;" horiz-adv-x="1908" 
d="M1094 1141q-35 -82 -490 -1024q-30 -68 -69 -95q-40 -28 -107 -28h-61q-121 0 -121 112q-4 597 -4 1229q0 44 6 68q6 36 45 41q53 8 153 8q48 0 48 -55q-15 -933 -23 -1151q101 243 498 1048q30 61 58 86t83 25h59q62 0 83 -24q22 -25 26 -85q41 -696 45 -1052
q53 158 467 1147q24 61 70 61q106 0 149 -8q27 -4 27 -33t-23 -80l-524 -1212q-27 -64 -65 -94q-39 -31 -107 -31h-53q-75 0 -102 29q-28 29 -32 96q-31 630 -36 1022zM1202 1581q-44 -29 -92 -29q-71 0 -90 4q-39 4 -39 33q0 26 29 47l262 199q56 41 96 41q88 0 143 -4
q54 -6 54 -37q0 -30 -31 -49z" />
    <glyph glyph-name="wacute" unicode="&#x1e83;" horiz-adv-x="1531" 
d="M831 731q-60 -127 -319 -635q-29 -60 -68 -82q-36 -20 -100 -20h-39q-109 0 -115 106l-36 801q-2 32 -2 57q0 48 43 54q88 8 147 8q45 0 45 -53q8 -289 14 -742q90 204 316 637q36 65 63 88q30 25 80 25h29q51 0 74 -23q22 -22 28 -82q43 -443 51 -643q64 160 318 736
q24 57 70 57q89 0 143 -10q24 -2 24 -37q0 -17 -24 -70l-377 -807q-24 -55 -61 -79q-36 -23 -99 -23h-39q-113 0 -120 102q-42 508 -46 635zM965 1221q-40 -35 -82 -35q-27 0 -76 6q-43 7 -43 37q0 23 22 45l218 237q37 43 81 43q82 0 127 -6q41 -8 41 -37q0 -24 -22 -45z
" />
    <glyph glyph-name="Wdieresis" unicode="&#x1e84;" horiz-adv-x="1908" 
d="M1094 1141q-35 -82 -490 -1024q-30 -68 -69 -95q-40 -28 -107 -28h-61q-121 0 -121 112q-4 597 -4 1229q0 44 6 68q6 36 45 41q53 8 153 8q48 0 48 -55q-15 -933 -23 -1151q101 243 498 1048q30 61 58 86t83 25h59q62 0 83 -24q22 -25 26 -85q41 -696 45 -1052
q53 158 467 1147q24 61 70 61q106 0 149 -8q27 -4 27 -33t-23 -80l-524 -1212q-27 -64 -65 -94q-39 -31 -107 -31h-53q-75 0 -102 29q-28 29 -32 96q-31 630 -36 1022zM1094 1724q0 -83 -39 -122q-40 -35 -94 -35q-103 0 -103 92q0 79 39 119q39 39 96 39q101 0 101 -93z
M1495 1724q0 -81 -41 -122q-40 -35 -96 -35q-98 0 -98 92q0 81 38 119q38 39 95 39q102 0 102 -93z" />
    <glyph glyph-name="wdieresis" unicode="&#x1e85;" horiz-adv-x="1531" 
d="M831 731q-60 -127 -319 -635q-29 -60 -68 -82q-36 -20 -100 -20h-39q-109 0 -115 106l-36 801q-2 32 -2 57q0 48 43 54q88 8 147 8q45 0 45 -53q8 -289 14 -742q90 204 316 637q36 65 63 88q30 25 80 25h29q51 0 74 -23q22 -22 28 -82q43 -443 51 -643q64 160 318 736
q24 57 70 57q89 0 143 -10q24 -2 24 -37q0 -17 -24 -70l-377 -807q-24 -55 -61 -79q-36 -23 -99 -23h-39q-113 0 -120 102q-42 508 -46 635zM864 1380q0 -88 -39 -125q-33 -32 -94 -32q-102 0 -102 92q0 78 39 117q37 38 96 38q100 0 100 -90zM1249 1380q0 -86 -41 -125
q-32 -32 -94 -32q-100 0 -100 92q0 77 39 117q37 38 94 38q102 0 102 -90z" />
    <glyph glyph-name="Ygrave" unicode="&#x1ef2;" horiz-adv-x="1181" 
d="M629 57q-6 -61 -60 -61h-137q-41 0 -41 41q0 11 8 51l109 522l-291 733q-16 44 -16 62q0 29 26 39q24 8 172 8q41 0 62 -51q155 -406 203 -555q105 148 428 549q45 57 90 57q133 0 168 -8q18 -6 18 -31q0 -24 -35 -65l-590 -732zM690 1581l-274 207q-29 23 -29 45
q0 37 47 39q39 4 150 4q44 0 90 -43l209 -199q24 -22 24 -45q0 -27 -30 -33q-29 -6 -97 -6q-44 0 -90 31z" />
    <glyph glyph-name="ygrave" unicode="&#x1ef3;" horiz-adv-x="1173" 
d="M696 35q-130 -62 -307 -62q-287 0 -287 195q0 66 21 168l137 631q10 51 55 51h134q38 0 38 -35q0 -13 -6 -43l-125 -584q-14 -53 -14 -106q0 -86 145 -86q113 0 195 31q31 11 47 28q18 26 25 64l145 678q11 53 59 53h127q41 0 41 -35q0 -20 -4 -35l-188 -889
q-37 -171 -78 -254q-78 -155 -248 -220q-168 -64 -479 -64q-59 0 -59 49q0 50 6 80q10 65 57 65q242 1 352 38q108 36 152 106q34 57 51 137zM616 1221l-215 243q-22 22 -22 47q0 35 45 39q51 4 127 4q43 0 76 -49l170 -237q18 -24 18 -45q0 -27 -39 -33q-24 -2 -80 -2
q-50 0 -80 33z" />
    <glyph glyph-name="endash" unicode="&#x2013;" horiz-adv-x="1157" 
d="M1022 455h-885q-41 0 -41 34q0 21 23 111q11 45 57 45h881q45 0 45 -35q0 -14 -27 -114q-11 -41 -53 -41z" />
    <glyph glyph-name="emdash" unicode="&#x2014;" horiz-adv-x="1738" 
d="M1604 455h-1467q-41 0 -41 34q0 17 23 111q11 45 57 45h1466q41 0 41 -35q0 -27 -22 -114q-11 -41 -57 -41z" />
    <glyph glyph-name="quoteleft" unicode="&#x2018;" horiz-adv-x="411" 
d="M324 946h-76q-66 0 -66 58q0 104 84 252q85 150 195 241q43 37 65 37q28 0 62 -25q28 -27 28 -55q0 -23 -30 -53q-148 -151 -185 -377q-6 -42 -22 -59q-17 -19 -55 -19z" />
    <glyph glyph-name="quoteright" unicode="&#x2019;" horiz-adv-x="411" 
d="M422 1534h80q37 0 50 -14t13 -43q0 -104 -87 -257q-88 -154 -191 -237q-46 -37 -66 -37q-30 0 -59 29q-31 25 -31 51q0 19 31 55q148 155 186 377q6 40 23 59q16 17 51 17z" />
    <glyph glyph-name="quotesinglbase" unicode="&#x201a;" horiz-adv-x="430" 
d="M158 223h78q37 0 50 -14t13 -43q0 -104 -87 -256t-192 -240q-38 -35 -67 -35q-28 0 -59 25q-27 24 -27 55q0 20 29 54q148 151 186 376q6 43 22 60q16 18 54 18z" />
    <glyph glyph-name="quotedblleft" unicode="&#x201c;" horiz-adv-x="800" 
d="M702 946h-77q-66 0 -66 58q0 106 88 258q88 151 191 235q46 37 67 37q26 0 60 -25q28 -27 28 -53q0 -23 -28 -55q-149 -152 -187 -377q-6 -42 -22 -59q-17 -19 -54 -19zM324 946h-76q-66 0 -66 58q0 104 84 252q85 150 195 241q43 37 65 37q28 0 62 -25q28 -27 28 -53
q0 -25 -30 -55q-148 -151 -185 -377q-6 -42 -22 -59q-17 -19 -55 -19z" />
    <glyph glyph-name="quotedblright" unicode="&#x201d;" horiz-adv-x="800" 
d="M424 1534h80q63 0 63 -57q0 -104 -87 -257q-88 -154 -191 -237q-46 -37 -66 -37q-29 0 -59 27q-31 28 -31 53q0 19 31 55q149 157 184 377q6 40 24 58t52 18zM803 1534h78q63 0 63 -57q0 -104 -87 -257q-88 -154 -191 -237q-46 -37 -66 -37q-29 0 -59 27q-31 28 -31 53
q0 19 31 55q151 158 184 377q6 41 24 59q17 17 54 17z" />
    <glyph glyph-name="quotedblbase" unicode="&#x201e;" horiz-adv-x="802" 
d="M158 223h78q37 0 50 -14t13 -43q0 -104 -87 -256t-192 -240q-38 -35 -67 -35t-59 27q-27 21 -27 53q0 20 29 54q148 151 186 376q6 43 22 60q16 18 54 18zM535 223h77q38 0 51 -14t13 -43q0 -102 -87 -254q-88 -152 -192 -242q-41 -35 -65 -35q-26 0 -60 25
q-28 27 -28 55q0 22 28 54q149 152 187 376q6 43 22 60q17 18 54 18z" />
    <glyph glyph-name="dagger" unicode="&#x2020;" horiz-adv-x="972" 
d="M471 -129q-6 -47 -49 -47h-121q-39 0 -39 29q0 4 6 34l207 973h-274q-33 0 -33 27q0 17 25 129q7 39 45 39h280l78 364q11 47 49 47h123q37 0 37 -30q0 -13 -6 -37l-74 -344h272q35 0 35 -33q0 -26 -26 -133q-8 -29 -48 -29h-276z" />
    <glyph glyph-name="daggerdbl" unicode="&#x2021;" horiz-adv-x="972" 
d="M469 -129q-11 -47 -49 -47h-123q-39 0 -39 29q0 4 6 34l72 344h-266q-33 0 -33 27q0 19 24 131q7 39 45 39h273l92 432h-274q-33 0 -33 27q0 7 24 129q8 39 48 39h276l78 364q11 47 53 47h121q35 0 35 -30q0 -13 -6 -37l-74 -344h274q35 0 35 -25q0 -10 -29 -141
q-6 -29 -45 -29h-276l-90 -432h278q35 0 35 -27q0 -10 -29 -141q-6 -29 -45 -29h-282z" />
    <glyph glyph-name="bullet" unicode="&#x2022;" horiz-adv-x="743" 
d="M664 631q0 -191 -101 -283q-73 -72 -215 -72q-107 0 -173 52q-64 51 -64 161q0 163 94 263q79 82 219 82q240 0 240 -203z" />
    <glyph glyph-name="ellipsis" unicode="&#x2026;" horiz-adv-x="2002" 
d="M455 176q0 -103 -56 -156q-43 -43 -118 -43q-134 0 -134 121q0 83 52 146q46 49 125 49q131 0 131 -117zM1079 176q0 -106 -53 -156q-43 -43 -121 -43q-131 0 -131 121q0 89 51 146q43 49 123 49q131 0 131 -117zM1706 176q0 -104 -55 -156q-43 -43 -119 -43
q-133 0 -133 121q0 89 51 146q43 49 125 49q131 0 131 -117z" />
    <glyph glyph-name="perthousand" unicode="&#x2030;" horiz-adv-x="2537" 
d="M844 1169q0 -118 -40 -285q-40 -169 -110 -255q-86 -107 -260 -107q-143 0 -211 53q-67 52 -67 193q0 119 35 263q36 149 102 239q90 125 276 125q143 0 209 -45t66 -181zM676 1147q0 64 -26 88q-27 25 -95 25q-90 0 -135 -74q-42 -69 -70 -195q-28 -127 -28 -207
q0 -70 28 -98q29 -29 94 -29q93 0 134 68q36 61 67 208q31 149 31 214zM528 -31q-24 -35 -53 -35q-9 0 -51 3q-21 1 -21 18q0 16 21 43l917 1413q27 45 62 45q32 0 51 -4q21 -2 21 -20q0 -15 -23 -50zM1720 629q0 -119 -40 -286q-41 -171 -107 -255q-85 -106 -262 -106
q-140 0 -210 53q-69 53 -69 192q0 115 36 264q36 150 101 238q95 125 277 125q143 0 209 -45q65 -44 65 -180zM1552 606q0 64 -25 88q-27 25 -95 25q-91 0 -136 -74q-41 -67 -69 -194q-29 -131 -29 -207q0 -70 29 -99q28 -28 94 -28q93 0 133 67q38 64 68 208t30 214z
M2482 629q0 -119 -40 -286q-41 -170 -109 -255q-85 -106 -262 -106q-139 0 -207 53t-68 192q0 113 35 265q34 149 100 237q90 125 277 125q143 0 209 -45q65 -44 65 -180zM2316 606q0 64 -25 88q-27 25 -98 25q-90 0 -135 -74q-38 -65 -67 -193q-29 -130 -29 -208
q0 -69 28 -99q27 -28 93 -28q93 0 133 67q40 65 70 208q30 144 30 214z" />
    <glyph glyph-name="guilsinglleft" unicode="&#x2039;" horiz-adv-x="636" 
d="M301 537l176 -324q15 -24 15 -43q0 -27 -35 -33q-44 -4 -107 -4q-36 0 -65 45l-191 322q-14 22 -14 49q0 24 31 55l311 303q47 47 92 47q84 0 109 -4q32 -6 32 -28t-28 -50z" />
    <glyph glyph-name="guilsinglright" unicode="&#x203a;" horiz-adv-x="636" 
d="M358 551l-176 323q-14 22 -14 44q0 26 37 32q20 4 106 4q37 0 64 -43l190 -323q15 -24 15 -49t-31 -56l-311 -303q-47 -47 -93 -47q-83 0 -108 4q-31 6 -31 31q0 18 29 47z" />
    <glyph glyph-name="fraction" unicode="&#x2044;" horiz-adv-x="172" 
d="M-281 -31q-24 -35 -53 -35q-13 0 -49 3q-20 1 -20 18q0 16 18 43l917 1413q30 45 62 45q34 0 53 -4q19 -2 19 -20q0 -17 -23 -48z" />
    <glyph glyph-name="zero.superior" unicode="&#x2070;" 
d="M915 1489q0 -123 -39 -286q-40 -169 -110 -255q-90 -106 -262 -106q-141 0 -209 53t-68 192q0 117 36 266q36 147 102 236q90 125 276 125q142 0 208 -45t66 -180zM748 1466q0 64 -26 88q-27 25 -97 25q-88 0 -133 -74q-42 -69 -70 -193q-29 -130 -29 -208q0 -68 28 -98
q27 -29 93 -29q95 0 135 67q38 64 68 208q31 149 31 214z" />
    <glyph glyph-name="four.superior" unicode="&#x2074;" 
d="M721 891q-7 -33 -41 -33h-88q-27 0 -27 25q0 15 4 30l33 142h-307q-78 0 -78 63q0 54 43 109l342 444q29 35 57 35q70 0 99 -4q22 0 22 -21q0 -12 -14 -32l-356 -455h221l35 152q10 36 39 36h90q26 0 26 -24q0 -15 -6 -33l-29 -131h80q31 0 31 -25q0 -15 -18 -88
q-6 -26 -37 -26h-86z" />
    <glyph glyph-name="five.superior" unicode="&#x2075;" 
d="M469 1380q55 11 125 11q242 0 242 -185q0 -177 -88 -269q-88 -93 -308 -93q-158 0 -215 18q-26 7 -26 35q0 22 22 76q10 26 35 26q6 0 25 -4l30 -6q78 -12 135 -12q113 0 165 43q53 44 53 139q0 98 -146 98q-51 0 -95 -4t-54 -4q-60 0 -60 56q0 27 17 86l71 270
q12 43 43 43h410q29 0 29 -21q0 -17 -15 -90q-6 -28 -43 -28h-307z" />
    <glyph glyph-name="six.superior" unicode="&#x2076;" 
d="M436 1329q67 70 207 70q221 0 221 -187q0 -190 -94 -284q-84 -84 -268 -84q-264 0 -264 248q0 124 46 275q46 153 126 237q113 116 311 116q102 0 162 -18q22 -6 22 -31q0 -29 -22 -80q-6 -18 -27 -18q-6 0 -55 6q-60 6 -96 6q-124 0 -183 -65q-53 -58 -86 -191z
M395 1085q0 -108 125 -108q109 0 148 57q37 52 37 137q0 99 -119 99q-92 0 -148 -47q-17 -17 -24 -37q-19 -49 -19 -101z" />
    <glyph glyph-name="seven.superior" unicode="&#x2077;" 
d="M705 1565h-390q-32 0 -32 22q0 24 14 86q6 31 39 31h489q82 0 82 -64q0 -43 -41 -116l-379 -629q-23 -39 -55 -39q-30 0 -92 6q-35 2 -35 31q0 15 17 43z" />
    <glyph glyph-name="eight.superior" unicode="&#x2078;" 
d="M713 1303q135 -29 135 -158q0 -153 -90 -227q-91 -74 -277 -74q-143 0 -214 53q-70 52 -70 145q0 111 57 180t162 87q-111 30 -111 147q0 264 336 264q264 0 264 -178q0 -198 -192 -239zM680 1133q0 98 -135 98q-185 0 -185 -158q0 -102 140 -102q180 0 180 162z
M743 1507q0 82 -116 82q-162 0 -162 -139q0 -88 117 -88q76 0 119 38q42 38 42 107z" />
    <glyph glyph-name="nine.superior" unicode="&#x2079;" 
d="M702 1237q-67 -70 -206 -70q-109 0 -167 52q-57 51 -57 143q0 176 99 272q86 86 264 86q262 0 262 -247q0 -127 -42 -282t-120 -237q-111 -112 -315 -112q-122 0 -174 18q-21 5 -21 29q0 35 19 78q12 26 28 26q7 0 50 -8q70 -8 106 -8q129 0 190 67q51 57 84 193z
M739 1479q0 55 -26 81q-27 27 -97 27q-102 0 -145 -57q-39 -56 -39 -135q0 -99 117 -99q96 0 149 50q20 20 25 36q16 44 16 97z" />
    <glyph glyph-name="parenleft.superior" unicode="&#x207d;" horiz-adv-x="446" 
d="M711 1743q-152 -96 -248 -284q-96 -187 -96 -410q0 -194 112 -324q8 -11 8 -18q0 -13 -16 -29q-17 -12 -31 -12q-15 0 -37 14q-67 46 -121 147q-55 102 -55 242q0 224 106 425t310 302q27 14 49 14q19 0 29 -14t10 -27q0 -15 -20 -26z" />
    <glyph glyph-name="parenright.superior" unicode="&#x207e;" horiz-adv-x="446" 
d="M53 733q148 93 248 284q98 187 98 413q0 188 -114 323q-9 13 -9 19q0 9 17 26q17 14 29 14q16 0 38 -16q70 -47 124 -146q55 -101 55 -241q0 -225 -111 -432q-111 -208 -311 -297q-31 -14 -49 -14q-19 0 -25 14q-10 16 -10 27q0 15 20 26z" />
    <glyph glyph-name="n.superior" unicode="&#x207f;" horiz-adv-x="753" 
d="M274 573q-10 -34 -36 -34h-101q-26 0 -26 22q0 12 4 27l100 461q12 54 64 77q130 52 309 52q180 0 180 -115q0 -53 -14 -109l-80 -381q-6 -34 -39 -34h-100q-27 0 -27 22q0 16 4 27l80 352q0 3 3 15q2 8 4 22q1 7 1 18q0 47 -82 47q-66 0 -110 -16q-7 -1 -29 -14
q-9 -6 -14 -33z" />
    <glyph glyph-name="zero.inferior" unicode="&#x2080;" 
d="M690 371q0 -119 -40 -286q-41 -170 -109 -255q-90 -106 -262 -106q-141 0 -209 53t-68 192q0 117 36 265q36 150 101 237q90 125 277 125q142 0 208 -45t66 -180zM522 348q0 64 -25 88q-27 25 -98 25q-88 0 -133 -74q-41 -66 -69 -193q-29 -130 -29 -208q0 -69 28 -99
q27 -28 93 -28q95 0 135 67q38 64 68 208t30 214z" />
    <glyph glyph-name="one.inferior" unicode="&#x2081;" 
d="M455 -258h-371q-29 0 -29 22q0 19 17 89q6 30 41 30h106l123 541l-117 -39q-18 -6 -30 -6q-14 0 -21 16q-22 65 -22 80q0 22 26 29l172 63q52 19 90 19h11q73 0 73 -60q0 -20 -12 -73l-127 -570h100q31 0 31 -22q0 -26 -16 -90q-11 -29 -45 -29z" />
    <glyph glyph-name="two.inferior" unicode="&#x2082;" 
d="M530 -258h-520q-39 0 -52 15q-13 14 -13 46q0 58 49 95q297 207 350 247q129 99 129 203q0 117 -147 117q-60 0 -117 -12l-51 -11q-19 0 -25 21q-14 52 -14 72q0 25 39 36q102 31 229 31q262 0 262 -209q0 -157 -137 -276q-121 -102 -334 -236h377q29 0 29 -26
q0 -27 -15 -84q-6 -29 -39 -29z" />
    <glyph glyph-name="three.inferior" unicode="&#x2083;" 
d="M432 186q150 -15 150 -159q0 -150 -86 -224q-93 -77 -297 -77q-130 0 -199 24q-27 10 -27 33q0 29 21 78q6 20 31 20q10 0 45 -8q66 -12 143 -12q125 0 164 45q35 38 35 112q0 47 -36 68q-37 22 -134 23q-45 0 -45 47q0 90 69 90q106 0 152 35q43 34 43 100q0 84 -133 84
q-79 0 -125 -12q-9 -2 -20.5 -4.5t-17 -3.5t-7.5 -1q-17 0 -23 21q-14 46 -14 72q0 24 41 36q116 29 225 29q133 0 185 -46q53 -47 53 -132q0 -101 -45 -158t-148 -80z" />
    <glyph glyph-name="four.inferior" unicode="&#x2084;" 
d="M494 -227q-7 -33 -39 -33h-90q-27 0 -27 24q0 18 4 33l31 140h-305q-78 0 -78 63q0 56 41 109l346 444q24 35 55 35q67 0 100 -4q21 0 21 -21q0 -13 -14 -33l-357 -454h221l35 151q10 37 37 37h92q27 0 27 -22q0 -16 -6 -43l-29 -123h80q33 0 33 -25q0 -5 -21 -88
q-6 -26 -37 -26h-84z" />
    <glyph glyph-name="five.inferior" unicode="&#x2085;" 
d="M242 262q50 10 125 10q243 0 243 -184q0 -175 -89 -269q-89 -93 -308 -93q-130 0 -211 20q-27 8 -27 35q0 15 19 74q10 26 35 26q14 0 53 -10q62 -12 139 -12q110 0 163 44q52 43 52 138q0 98 -143 98q-53 0 -98 -4t-54 -4q-59 0 -59 55q0 27 16 82l74 275q10 43 43 43
h408q30 0 30 -21q0 -11 -18 -90q-6 -29 -41 -29h-305z" />
    <glyph glyph-name="six.inferior" unicode="&#x2086;" 
d="M227 211q67 70 207 70q221 0 221 -187q0 -190 -94 -284q-84 -84 -268 -84q-264 0 -264 247q0 125 46 276q46 152 126 236q114 117 311 117q102 0 162 -18q22 -6 22 -31q0 -29 -22 -80q-6 -18 -27 -18q-5 0 -55 6q-57 6 -96 6q-123 0 -183 -66q-53 -58 -86 -190zM186 -33
q0 -108 125 -108q109 0 148 57q37 52 37 137q0 99 -119 99q-91 0 -148 -48q-17 -17 -24 -36q-19 -48 -19 -101z" />
    <glyph glyph-name="seven.inferior" unicode="&#x2087;" 
d="M477 446h-389q-35 0 -35 23q0 6 17 86q6 31 39 31h491q80 0 80 -64q0 -43 -41 -116l-379 -629q-22 -39 -53 -39q-45 0 -94 6q-35 6 -35 31q0 17 16 43z" />
    <glyph glyph-name="eight.inferior" unicode="&#x2088;" 
d="M504 184q135 -28 135 -157q0 -155 -90 -228q-89 -73 -277 -73q-143 0 -214 53q-70 52 -70 145q0 110 57 179t162 87q-111 30 -111 148q0 264 336 264q264 0 264 -178q0 -199 -192 -240zM471 14q0 99 -135 99q-184 0 -184 -158q0 -102 139 -102q180 0 180 161zM535 389
q0 82 -117 82q-162 0 -162 -139q0 -88 117 -88q77 0 120 38q42 38 42 107z" />
    <glyph glyph-name="nine.inferior" unicode="&#x2089;" 
d="M477 119q-67 -70 -207 -70q-110 0 -167 51q-56 50 -56 144q0 177 98 272q86 86 265 86q262 0 262 -248q0 -126 -42 -281t-120 -237q-111 -112 -315 -112q-123 0 -175 18q-20 4 -20 29q0 36 18 77q12 27 29 27q6 0 49 -8q70 -8 107 -8q129 0 190 67q51 57 84 193zM514 360
q0 54 -27 81q-28 28 -96 28q-101 0 -145 -57q-39 -56 -39 -136q0 -98 117 -98q97 0 149 49q19 19 25 37q16 44 16 96z" />
    <glyph glyph-name="parenleft.inferior" unicode="&#x208d;" horiz-adv-x="446" 
d="M485 625q-150 -95 -247 -284t-97 -411q0 -192 113 -323q8 -11 8 -19q0 -12 -16 -28q-18 -13 -31 -13t-37 15q-68 47 -122 147q-54 101 -54 242q0 224 106 425t310 302q27 14 49 14q19 0 29 -14q10 -16 10 -27q0 -14 -21 -26z" />
    <glyph glyph-name="parenright.inferior" unicode="&#x208e;" horiz-adv-x="446" 
d="M-172 -385q148 93 248 284q98 187 98 412q0 188 -115 324q-8 11 -8 18q0 10 17 27q17 14 28 14q17 0 39 -16q69 -47 124 -147q54 -99 54 -240q0 -227 -110 -432q-111 -207 -312 -297q-33 -15 -49 -15q-18 0 -24 15q-11 17 -11 26q0 15 21 27z" />
    <glyph glyph-name="Euro" unicode="&#x20ac;" horiz-adv-x="1306" 
d="M1014 496h-416v-50q0 -268 264 -268q134 0 221 17q66 12 72 12q29 0 35 -29q18 -66 18 -108q0 -41 -51 -56q-145 -39 -354 -39q-208 0 -322 114t-114 343q0 34 2 64h-131q-39 0 -39 30q0 19 10 56q7 36 49 36h123q9 55 31 156h-121q-39 0 -39 27q0 8 10 57q8 39 49 39
h140q73 197 176 315q168 197 499 197q146 0 232 -20q45 -11 45 -48q0 -30 -29 -122q-12 -27 -39 -27q-14 0 -73 10q-72 8 -160 8q-197 0 -299 -125q-62 -73 -111 -188h395q37 0 37 -29q0 -7 -10 -61q-8 -33 -47 -33h-418q-26 -79 -37 -156h422q37 0 37 -28q0 -24 -10 -60
q-7 -34 -47 -34z" />
    <glyph glyph-name="afii61289" unicode="&#x2113;" horiz-adv-x="964" 
d="M422 444q-6 -37 -6 -100q0 -184 184 -184q84 0 182 43q32 16 49 16q31 0 43 -29q27 -57 27 -81q0 -35 -47 -58q-150 -78 -324 -78q-133 0 -220 72q-88 72 -95 205q-2 22 -2 67q-1 0 -14 -7t-25 -14t-29 -16.5t-20 -11.5q-23 -10 -41 -10q-17 0 -27 10q-8 8 -24 43
q-15 29 -15 51q0 30 45 52q73 39 150 84q22 186 35 241q62 289 129 414q73 132 166 194t239 62q127 0 192 -70q64 -68 64 -174q0 -131 -57 -233t-170 -209q-113 -108 -389 -279zM438 645q163 110 271 215q141 136 141 268q0 107 -105 107q-95 0 -161 -94q-68 -105 -117 -330
q-13 -57 -29 -166z" />
    <glyph glyph-name="trademark" unicode="&#x2122;" horiz-adv-x="1640" 
d="M504 782q-10 -39 -37 -39h-72q-30 0 -30 27q0 5 6 35l110 516h-174q-28 0 -28 25q0 15 12 67q7 33 39 33h479q33 0 33 -27q0 -22 -13 -71q-6 -27 -41 -27h-170zM973 778q-6 -35 -37 -35h-68q-30 0 -30 25q0 10 4 29l119 555q21 96 102 96h55q31 0 42 -14q13 -16 20 -47
q47 -215 65 -322q52 97 195 315q45 68 104 68h49q64 0 64 -57l-1 -7q-1 -6 -3 -21.5t-4 -31.5l-117 -551q-6 -37 -39 -37h-74q-26 0 -26 23q0 8 6 45q106 463 117 506q-48 -89 -230 -383q-22 -39 -63 -39h-23q-39 0 -47 41q-64 334 -70 381q-28 -159 -110 -539z" />
    <glyph glyph-name="Omega" unicode="&#x2126;" horiz-adv-x="1515" 
d="M618 55q-4 -33 -20 -44q-15 -11 -49 -11h-418q-51 0 -51 33q0 31 18 119q6 30 23 41q16 10 45 10h303q-142 61 -209 159q-70 102 -70 261q0 154 53 319q54 167 156 277q180 192 531 192q268 0 388 -108t120 -324q0 -335 -158 -549q-111 -145 -315 -227h321q51 0 51 -37
q0 -30 -18 -115q-6 -32 -17 -41q-11 -10 -42 -10h-441q-57 0 -57 43q0 35 29 174q12 58 59 82q159 72 235 205q101 184 101 422q0 148 -70 215q-68 65 -221 65q-215 0 -320 -131q-66 -84 -103 -220q-36 -133 -36 -249q0 -223 176 -309q37 -18 37 -64q0 -11 -31 -178z" />
    <glyph glyph-name="estimated" unicode="&#x212e;" horiz-adv-x="1730" 
d="M1702 688h-1262q-12 0 -12 -8v-399q0 -21 21 -45q195 -218 477 -218q301 0 499 242h117q-113 -133 -272 -208q-163 -77 -346 -77q-323 0 -552 215t-229 519q0 302 229 517q227 214 552 214q324 0 551 -214t227 -517v-21zM1419 741v400q0 27 -22 49q-201 207 -471 207
q-133 0 -259 -59q-127 -60 -216 -156q-23 -23 -23 -49v-392q0 -10 12 -10h967q12 0 12 10z" />
    <glyph glyph-name="onethird" unicode="&#x2153;" horiz-adv-x="1765" 
d="M1456 444q148 -15 148 -159q0 -157 -82 -224q-93 -77 -299 -77q-130 0 -199 24q-27 10 -27 33t21 78q6 20 31 20q10 0 45 -8q68 -12 145 -12q117 0 162 45q35 38 35 112q0 47 -35 68q-35 22 -135 23q-45 0 -45 47q0 90 69 90q108 0 154 35q39 33 39 100q0 84 -131 84
q-72 0 -127 -12q-45 -9 -47 -9q-13 0 -19 21q-14 62 -14 70q0 28 41 36q127 31 225 31q133 0 185 -46q53 -47 53 -132q0 -101 -45 -158t-148 -80zM600 541h-373q-28 0 -28 22q0 23 16 88q6 31 43 31h107l120 541l-114 -39q-18 -6 -33 -6q-12 0 -19 16q-24 72 -24 80
q0 18 27 29l174 63q50 18 90 18h10q72 0 72 -59q0 -25 -11 -74l-127 -569h101q31 0 31 -23q0 -12 -19 -90q-7 -28 -43 -28zM487 -31q-24 -35 -53 -35q-13 0 -49 3q-20 1 -20 18q0 16 18 43l917 1413q30 45 62 45q34 0 53 -4q19 -2 19 -20q0 -17 -23 -48z" />
    <glyph glyph-name="twothirds" unicode="&#x2154;" horiz-adv-x="1765" 
d="M573 -31q-24 -35 -53 -35q-13 0 -49 3q-20 1 -20 18q0 16 18 43l917 1413q30 45 62 45q34 0 53 -4q19 -2 19 -20q0 -17 -23 -48zM702 541h-518q-38 0 -52 15q-13 14 -13 46q0 61 51 94q280 195 350 248q127 100 127 203q0 117 -145 117q-57 0 -117 -13q-49 -10 -55 -10
q-18 0 -23 21q-10 49 -10 71t41 37q102 31 223 31q260 0 260 -209q0 -160 -135 -274q-114 -97 -334 -238h377q29 0 29 -27q0 -17 -15 -84q-6 -28 -41 -28zM1518 444q147 -15 147 -159q0 -157 -82 -224q-93 -77 -299 -77q-130 0 -199 24q-26 10 -26 33q0 25 20 78q6 20 31 20
q10 0 45 -8q68 -12 145 -12q117 0 162 45q35 38 35 112q0 47 -35 68q-35 22 -135 23q-45 0 -45 47q0 90 70 90q107 0 153 35q39 33 39 100q0 84 -131 84q-71 0 -127 -12q-45 -9 -47 -9q-12 0 -18 21q-15 66 -15 70q0 28 41 36q127 31 226 31q133 0 185 -46t52 -132
q0 -101 -45 -158q-45 -58 -147 -80z" />
    <glyph glyph-name="oneeighth" unicode="&#x215b;" horiz-adv-x="1765" 
d="M1481 442q135 -28 135 -157q0 -155 -90 -228q-89 -73 -277 -73q-143 0 -214 53q-70 52 -70 145q0 110 57 179q58 70 162 88q-111 30 -111 147q0 264 336 264q264 0 264 -178q0 -200 -192 -240zM584 541h-373q-29 0 -29 22q0 18 17 88q6 31 43 31h106l121 541l-115 -39
q-18 -6 -32 -6q-12 0 -19 16q-24 72 -24 80q0 19 26 29l174 63q49 18 90 18h11q71 0 71 -59q0 -30 -10 -74l-127 -569h100q31 0 31 -23q0 -17 -18 -90q-7 -28 -43 -28zM461 -31q-24 -35 -53 -35q-14 0 -50 3q-20 1 -20 18q0 16 18 43l918 1413q30 45 61 45q35 0 54 -4
q18 -2 18 -20q0 -17 -23 -48zM1448 272q0 99 -135 99q-185 0 -185 -158q0 -102 140 -102q180 0 180 161zM1511 647q0 82 -116 82q-162 0 -162 -139q0 -88 117 -88q76 0 119 38q42 38 42 107z" />
    <glyph glyph-name="threeeighths" unicode="&#x215c;" horiz-adv-x="1765" 
d="M508 -31q-24 -35 -53 -35q-13 0 -49 3q-21 1 -21 18q0 16 18 43l918 1413q30 45 61 45q35 0 54 -4q18 -2 18 -20q0 -19 -22 -48zM592 985q149 -15 149 -160q0 -154 -84 -223q-91 -78 -299 -78q-126 0 -198 25q-27 11 -27 33t21 77q6 21 32 21q8 0 43 -8q73 -13 146 -13
q116 0 162 46q36 37 36 112q0 48 -36 68q-37 20 -138 22q-43 0 -43 47q0 90 70 90q108 0 154 35q38 32 38 101q0 43 -29 63q-30 21 -102 21q-70 0 -125 -13q-43 -8 -47 -8q-16 0 -22 21q-12 51 -12 71q0 25 41 37q116 29 225 29q135 0 187 -46t52 -132q0 -195 -194 -238z
M1516 442q135 -28 135 -157q0 -155 -90 -228q-89 -73 -277 -73q-143 0 -214 53t-71 145q0 109 58 179t162 88q-111 30 -111 147q0 264 336 264q264 0 264 -178q0 -200 -192 -240zM1483 272q0 99 -135 99q-185 0 -185 -158q0 -102 140 -102q180 0 180 161zM1546 647
q0 82 -116 82q-162 0 -162 -139q0 -88 116 -88q77 0 120 38q42 38 42 107z" />
    <glyph glyph-name="fiveeighths" unicode="&#x215d;" horiz-adv-x="1765" 
d="M524 -31q-24 -35 -53 -35q-13 0 -49 3q-21 1 -21 18q0 15 19 43l917 1413q30 45 62 45q34 0 53 -4q18 -2 18 -20q0 -19 -22 -48zM416 1061q50 10 127 10q241 0 241 -184q0 -176 -89 -270q-89 -93 -308 -93q-141 0 -211 19q-27 7 -27 35q0 12 19 75q10 27 35 27q3 0 22 -4
l31 -6q89 -13 139 -13q112 0 164 44q51 43 51 139q0 98 -143 98q-53 0 -97 -4t-55 -4q-57 0 -57 55q0 36 14 82l72 274q10 43 43 43h410q30 0 30 -20t-16 -90q-6 -29 -43 -29h-305zM1526 442q135 -28 135 -157q0 -155 -90 -228q-89 -73 -277 -73q-143 0 -214 53
q-70 52 -70 145q0 110 57 179q58 70 162 88q-111 30 -111 147q0 264 336 264q264 0 264 -178q0 -200 -192 -240zM1493 272q0 99 -135 99q-185 0 -185 -158q0 -102 140 -102q180 0 180 161zM1556 647q0 82 -116 82q-162 0 -162 -139q0 -88 117 -88q76 0 119 38q42 38 42 107z
" />
    <glyph glyph-name="seveneighths" unicode="&#x215e;" horiz-adv-x="1765" 
d="M416 -31q-24 -35 -54 -35q-13 0 -49 3q-20 1 -20 18q0 16 18 43l918 1413q30 45 61 45q34 0 53 -4q19 -2 19 -20q0 -17 -23 -48zM668 1245h-389q-35 0 -35 27q0 29 14 82q8 30 37 30h493q80 0 80 -63q0 -50 -41 -117l-378 -629q-22 -38 -56 -38q-33 0 -88 6q-37 6 -37 30
q0 13 19 48zM1434 442q135 -28 135 -157q0 -155 -90 -228q-89 -73 -277 -73q-143 0 -214 53q-70 52 -70 145q0 110 57 179q58 70 162 88q-111 30 -111 147q0 264 336 264q264 0 264 -178q0 -200 -192 -240zM1401 272q0 99 -135 99q-185 0 -185 -158q0 -102 140 -102
q180 0 180 161zM1464 647q0 82 -116 82q-162 0 -162 -139q0 -88 117 -88q76 0 119 38q42 38 42 107z" />
    <glyph glyph-name="arrowleft" unicode="&#x2190;" horiz-adv-x="1572" 
d="M1421 797q80 0 80 -66v-82q0 -69 -69 -69q-874 0 -1018 4l420 -391q34 -30 34 -64q0 -23 -16 -43l-49 -57q-21 -21 -47 -25q-19 0 -47 23l-615 610q-22 21 -22 51t22 51l623 619q21 22 43 22q24 0 45 -22l47 -53q22 -22 22 -45q0 -32 -24 -54l-436 -413q140 4 1007 4z
" />
    <glyph glyph-name="arrowup" unicode="&#x2191;" horiz-adv-x="1572" 
d="M678 72q0 851 4 991q-126 -141 -422 -414q-22 -22 -49 -22t-43 16l-45 49q-25 25 -25 49t23 47l620 619q23 23 50 23q28 0 49 -23l612 -612q23 -23 23 -47q0 -27 -25 -52l-47 -49q-18 -18 -41 -18q-33 0 -66 33l-397 401q2 -212 2 -991q0 -72 -63 -72h-97q-63 0 -63 72z
" />
    <glyph glyph-name="arrowright" unicode="&#x2192;" horiz-adv-x="1572" 
d="M152 795q864 0 1005 -4l-438 415q-25 23 -25 51q0 27 21 48l49 51q22 24 49 24q17 0 43 -22l623 -619q22 -21 22 -51t-22 -51l-617 -610q-21 -21 -47 -21q-22 0 -45 23l-51 57q-19 19 -19 43q0 35 33 64q405 375 426 393q-145 -4 -1020 -4q-31 0 -49 18t-18 51v78
q0 66 80 66z" />
    <glyph glyph-name="arrowdown" unicode="&#x2193;" horiz-adv-x="1572" 
d="M678 1300q0 82 63 82h97q63 0 63 -71q0 -782 -2 -994l397 404q33 33 66 33q22 0 39 -17l49 -51q25 -25 25 -49q0 -26 -23 -49l-610 -613q-24 -24 -51 -24q-26 0 -50 24l-620 619q-23 23 -23 47t25 49l49 49q17 17 43 17t49 -23q234 -220 418 -414q-4 141 -4 981z" />
    <glyph glyph-name="uni2196" unicode="&#x2196;" horiz-adv-x="1572" 
d="M389 158q-33 -33 -57 -33q-26 0 -51 25q-59 62 -66 73q-12 18 -12 35q0 24 24 47l729 699q-300 -11 -594 -11q-41 0 -63 19q-16 16 -16 47v80q0 29 16 49q16 16 51 16h867q31 0 51 -20q18 -16 18 -62v-864q0 -35 -16 -51q-17 -19 -49 -19h-76q-35 0 -47 17q-19 22 -19 57
q0 433 6 586q-185 -196 -696 -690z" />
    <glyph glyph-name="uni2197" unicode="&#x2197;" horiz-adv-x="1572" 
d="M238 1065q-33 29 -33 57t28 56q72 73 99 73q26 0 47 -20q601 -586 713 -709q0 14 -3 83q-5 116 -6 198q-2 172 -2 291q0 42 21 65q19 19 41 19h82q23 0 47 -19q16 -16 16 -53v-860q0 -33 -20 -53q-18 -21 -60 -21h-870q-33 0 -49 16q-15 15 -15 52v69q0 34 15 49
q22 19 61 19q387 0 606 -8z" />
    </font>
</defs>
</svg>
