<?xml version="1.0" standalone="no"?>
<!DOCTYPE svg PUBLIC "-//W3C//DTD SVG 1.1//EN" "http://www.w3.org/Graphics/SVG/1.1/DTD/svg11.dtd" >
<svg xmlns="http://www.w3.org/2000/svg" xmlns:xlink="http://www.w3.org/1999/xlink" version="1.1">
<metadata>
Created by FontForge 20170731 at Sun Apr 18 19:44:23 2021
 By Aleksey,,,
Copyright (c) 2015 by Dieter Hofrichter. All rights reserved.
</metadata>
<defs>
<font id="Carnas-ExtraLight" horiz-adv-x="776" >
  <font-face 
    font-family="Carnas-ExtraLight"
    font-weight="400"
    font-stretch="normal"
    units-per-em="2048"
    panose-1="2 0 5 3 0 0 0 2 0 4"
    ascent="1563"
    descent="-485"
    x-height="1016"
    cap-height="1454"
    bbox="-311 -553 2394 2007"
    underline-thickness="102"
    underline-position="-204"
    unicode-range="U+0020-FB04"
  />
<missing-glyph horiz-adv-x="1026" 
d="M0 0v1448h1026v-1448h-1026zM514 817l348 526h-698zM573 725l353 -526v1052zM164 102h698l-348 529zM102 1251v-1052l351 526z" />
    <glyph glyph-name="f_f" unicode="ff" horiz-adv-x="1277" 
d="M352 33q0 -39 -33 -39h-47q-34 0 -34 41v876h-138q-32 0 -32 31v41q0 33 32 33h138v106q0 198 73 281q102 110 344 115q39 0 41 -27q2 -22 2 -47q0 -32 -34 -33q-117 -6 -184 -28q-63 -21 -93 -74q-35 -56 -35 -187v-106h525v145q0 202 75 283q100 111 340 115
q42 0 43 -27q2 -22 2 -47q0 -32 -34 -33q-122 -7 -185 -29q-62 -21 -92 -73q-35 -56 -35 -189v-145h250q33 0 33 -31v-45q0 -29 -35 -29h-248v-878q0 -39 -33 -39h-47q-34 0 -34 41v876h-525v-878z" />
    <glyph glyph-name="fi" unicode="fi" horiz-adv-x="1124" 
d="M352 33q0 -39 -33 -39h-47q-34 0 -34 41v876h-138q-32 0 -32 31v41q0 33 32 33h138v145q0 200 73 283q100 110 338 115q39 0 41 -27q4 -29 4 -47q0 -31 -35 -33q-112 -6 -179 -28q-63 -21 -93 -74q-35 -56 -35 -189v-145h551q39 0 39 -41v-942q0 -39 -37 -39h-43
q-37 0 -37 39v878h-473v-878zM965 1360q0 -90 -82 -90q-84 0 -84 88t84 88q39 0 61 -19q21 -18 21 -67z" />
    <glyph glyph-name="fl" unicode="fl" horiz-adv-x="1150" 
d="M352 33q0 -39 -33 -39h-47q-34 0 -34 41v876h-138q-32 0 -32 31v41q0 33 32 33h138v112q0 208 102 299q60 55 148 81q95 28 276 28q67 0 133 -8q39 -6 39 -47v-1225q0 -85 27 -119q33 -38 110 -45q31 -2 31 -31q0 -33 -6 -49q-8 -18 -37 -18q-157 0 -213 96
q-29 52 -29 154v1181q-55 5 -108 5q-126 0 -195 -22q-63 -20 -102 -65q-62 -70 -62 -213v-114h250q33 0 33 -31v-45q0 -29 -35 -29h-248v-878z" />
    <glyph glyph-name="f_f_i" unicode="ffi" horiz-adv-x="1763" 
d="M352 33q0 -39 -33 -39h-47q-34 0 -34 41v876h-138q-32 0 -32 31v41q0 33 32 33h138v106q0 198 73 281q102 110 344 115q39 0 41 -27q2 -22 2 -47q0 -32 -34 -33q-117 -6 -184 -28q-63 -21 -93 -74q-35 -56 -35 -187v-106h525v145q0 202 75 283q100 110 336 115
q37 0 43 -27q2 -22 2 -47q0 -31 -35 -33q-119 -7 -181 -29t-91 -73q-35 -56 -35 -189v-145h551q39 0 39 -41v-942q0 -39 -35 -39h-45q-35 0 -35 39v878h-475v-878q0 -39 -33 -39h-47q-34 0 -34 41v876h-525v-878zM1604 1360q0 -90 -82 -90q-84 0 -84 88t84 88q39 0 61 -19
q21 -18 21 -67z" />
    <glyph glyph-name="f_f_l" unicode="ffl" horiz-adv-x="1789" 
d="M352 33q0 -39 -33 -39h-47q-34 0 -34 41v876h-138q-32 0 -32 31v41q0 33 32 33h138v106q0 198 73 281q102 110 342 115q41 0 43 -27q2 -22 2 -47q0 -32 -34 -33q-122 -7 -185 -29q-62 -21 -92 -73q-35 -56 -35 -187v-106h525v112q0 208 102 299q60 55 148 81
q95 28 276 28q70 0 131 -8q41 -6 41 -47v-1225q0 -84 29 -119q28 -37 108 -45q31 -2 31 -31q0 -33 -6 -49q-6 -18 -37 -18q-158 0 -213 96q-27 46 -27 154v1181q-55 5 -110 5q-219 0 -297 -87q-62 -67 -62 -213v-114h250q33 0 33 -31v-45q0 -29 -35 -29h-248v-878
q0 -39 -33 -39h-47q-34 0 -34 41v876h-525v-878z" />
    <glyph glyph-name="T_h" unicode="Th" horiz-adv-x="2279" 
d="M641 35q0 -41 -37 -41h-51q-35 0 -35 41v1298h-428q-39 0 -39 35v43q0 35 39 35h1208v55q0 39 31 39h53q31 0 31 -39v-547q112 86 389 86q134 0 193 -29q62 -30 86 -93q18 -51 18 -201v-684q0 -39 -35 -39h-45q-37 0 -37 39v667q0 115 -14 150q-16 42 -58 63t-138 21
q-199 0 -312 -55q-26 -17 -37 -35q-10 -20 -10 -62v-749q0 -39 -35 -39h-45q-35 0 -35 39v1300h-657v-1298z" />
    <glyph glyph-name="Tcaron_h" unicode="&#x164;h" horiz-adv-x="2273" 
d="M641 35q0 -41 -37 -41h-51q-35 0 -35 41v1298h-428q-39 0 -39 35v43q0 35 39 35h1208v55q0 39 31 39h53q31 0 31 -39v-547q112 86 389 86q134 0 193 -29q62 -30 86 -93q18 -51 18 -201v-684q0 -39 -35 -39h-45q-37 0 -37 39v667q0 115 -14 150q-16 42 -58 63t-138 21
q-199 0 -312 -55q-26 -17 -37 -35q-10 -20 -10 -62v-749q0 -39 -35 -39h-45q-35 0 -35 39v1300h-657v-1298zM821 1864q25 0 43 -6q21 -6 21 -23q0 -14 -19 -33l-213 -203q-32 -32 -59 -32h-41q-29 0 -55 26l-219 213q-13 8 -13 25q0 21 21 27t47 6q24 0 57 -27l187 -154
l182 152q35 29 61 29z" />
    <glyph glyph-name="f_b" unicode="fb" horiz-adv-x="1773" 
d="M352 33q0 -39 -33 -39h-47q-34 0 -34 41v876h-138q-32 0 -32 31v41q0 33 32 33h138v112q0 208 102 299q60 55 148 81q95 28 276 28q67 0 133 -8q39 -6 39 -47v-535q112 94 367 94q185 0 270 -122q86 -124 86 -400q0 -320 -111 -432q-111 -113 -366 -113q-165 0 -279 41
q-46 16 -67 49q-17 25 -17 95v1267q-55 5 -108 5q-126 0 -195 -22q-63 -20 -102 -65q-62 -70 -62 -213v-114h250q33 0 33 -31v-45q0 -29 -35 -29h-248v-878zM936 182q0 -38 12 -53q12 -18 47 -29q92 -22 191 -22q216 0 285 92q69 91 69 334q0 230 -53 330q-52 98 -223 98
q-199 0 -289 -60q-27 -19 -33 -30q-6 -16 -6 -45v-615z" />
    <glyph glyph-name="f_f_b" unicode="ffb" horiz-adv-x="2412" 
d="M352 33q0 -39 -33 -39h-47q-34 0 -34 41v876h-138q-32 0 -32 31v41q0 33 32 33h138v106q0 198 73 281q102 110 342 115q39 0 41 -27q4 -25 4 -47q0 -32 -34 -33q-122 -7 -185 -29q-62 -21 -92 -73q-35 -56 -35 -187v-106h525v112q0 208 102 299q60 55 148 81
q95 28 276 28q70 0 131 -8q41 -6 41 -47v-535q113 94 367 94q185 0 270 -122q86 -124 86 -400q0 -320 -111 -432q-111 -113 -366 -113q-168 0 -277 41q-48 16 -69 49q-15 27 -15 95v1267q-58 5 -110 5q-219 0 -297 -87q-62 -67 -62 -213v-114h250q33 0 33 -31v-45
q0 -29 -35 -29h-248v-878q0 -39 -33 -39h-47q-34 0 -34 41v876h-525v-878zM1575 182q0 -38 12 -53q12 -18 47 -29q92 -22 191 -22q217 0 286 92q70 93 70 334q0 230 -53 330q-52 98 -223 98q-203 0 -291 -60q-27 -19 -33 -30q-6 -16 -6 -45v-615z" />
    <glyph glyph-name="f_f_h" unicode="ffh" horiz-adv-x="2441" 
d="M352 33q0 -39 -33 -39h-47q-34 0 -34 41v876h-138q-32 0 -32 31v41q0 33 32 33h138v106q0 198 73 281q102 110 344 115q39 0 41 -27q2 -22 2 -47q0 -32 -34 -33q-122 -7 -185 -29q-62 -21 -92 -73q-35 -56 -35 -187v-106h525v112q0 208 102 299q60 55 148 81
q95 28 276 28q70 0 131 -8q41 -6 41 -47v-527q57 45 170 66q107 20 217 20q136 0 195 -29q62 -30 86 -93q18 -51 18 -201v-684q0 -39 -35 -39h-45q-37 0 -37 39v667q0 107 -14 150q-16 45 -58 64q-43 20 -141 20q-196 0 -309 -55q-23 -12 -35 -35q-12 -24 -12 -62v-749
q0 -39 -35 -39h-45q-35 0 -35 39v1392q-55 5 -110 5q-219 0 -297 -87q-62 -67 -62 -213v-114h250q33 0 33 -31v-45q0 -29 -35 -29h-248v-878q0 -39 -33 -39h-47q-34 0 -34 41v876h-525v-878z" />
    <glyph glyph-name="f_f_j" unicode="ffj" horiz-adv-x="1761" 
d="M352 33q0 -39 -33 -39h-47q-34 0 -34 41v876h-138q-32 0 -32 31v41q0 33 32 33h138v106q0 198 73 281q102 110 344 115q39 0 41 -27q2 -22 2 -47q0 -32 -34 -33q-122 -7 -185 -29q-62 -21 -92 -73q-35 -56 -35 -187v-106h525v145q0 202 75 283q100 110 336 115
q42 0 43 -27q2 -22 2 -47q0 -31 -35 -33q-117 -7 -180 -29q-62 -21 -92 -73q-35 -56 -35 -189v-145h551q39 0 39 -41v-1092q0 -183 -78 -256q-47 -47 -130 -76q-85 -30 -146 -30q-27 0 -33 22q-6 38 -6 43q0 31 41 37q114 21 176 68q61 51 61 190v1030h-475v-878
q0 -39 -33 -39h-47q-34 0 -34 41v876h-525v-878zM1604 1360q0 -90 -82 -90q-84 0 -84 88t84 88q39 0 61 -19q21 -18 21 -67z" />
    <glyph glyph-name="f_f_k" unicode="ffk" horiz-adv-x="2306" 
d="M352 33q0 -39 -33 -39h-47q-34 0 -34 41v876h-138q-32 0 -32 31v41q0 33 32 33h138v106q0 198 73 281q102 110 342 115q35 0 41 -27q4 -21 4 -47q0 -32 -34 -33q-122 -7 -185 -29q-62 -21 -92 -73q-35 -56 -35 -187v-106h525v112q0 208 102 299q60 55 148 81
q95 28 276 28q70 0 131 -8q41 -6 41 -47v-865h143q63 0 92 35l285 342q23 29 55 29q42 0 48 -2q28 0 28 -23q0 -20 -20 -43l-330 -383l391 -501q25 -31 25 -47q0 -25 -33 -27h-23q-7 0 -13.5 -0.5t-10 -1t-4.5 -0.5q-29 0 -54 31l-352 452q-27 37 -78 37h-149v-481
q0 -39 -35 -39h-45q-35 0 -35 39v1390q-45 7 -110 7q-219 0 -297 -87q-62 -67 -62 -213v-114h250q33 0 33 -31v-45q0 -29 -35 -29h-248v-878q0 -39 -33 -39h-47q-34 0 -34 41v876h-525v-878z" />
    <glyph glyph-name="f_h" unicode="fh" horiz-adv-x="1802" 
d="M352 33q0 -39 -33 -39h-47q-34 0 -34 41v876h-138q-32 0 -32 31v41q0 33 32 33h138v112q0 208 102 299q60 55 148 81q95 28 276 28q70 0 131 -8q41 -6 41 -47v-527q57 45 170 66q107 20 217 20q136 0 195 -29q62 -30 86 -93q18 -51 18 -201v-684q0 -39 -37 -39h-43
q-37 0 -37 39v667q0 107 -14 150q-16 45 -59 64q-45 20 -140 20q-199 0 -309 -55q-26 -17 -37 -35q-10 -20 -10 -62v-749q0 -39 -37 -39h-43q-37 0 -37 39v1392q-50 5 -108 5q-126 0 -195 -22q-63 -20 -102 -65q-62 -70 -62 -213v-114h250q33 0 33 -31v-45q0 -29 -35 -29
h-248v-878z" />
    <glyph glyph-name="f_j" unicode="fj" horiz-adv-x="1122" 
d="M352 33q0 -39 -33 -39h-47q-34 0 -34 41v876h-138q-32 0 -32 31v41q0 33 32 33h138v145q0 200 73 283q100 110 338 115q41 0 43 -27q2 -22 2 -47q0 -31 -35 -33q-119 -7 -181 -29t-91 -73q-35 -56 -35 -189v-145h551q39 0 39 -41v-1092q0 -183 -78 -256q-48 -46 -131 -76
q-84 -30 -145 -30q-27 0 -33 22q-6 37 -6 43q0 31 41 37q114 22 176 68q59 49 59 190v1030h-473v-878zM965 1360q0 -90 -82 -90q-84 0 -84 88t84 88q39 0 61 -19q21 -18 21 -67z" />
    <glyph glyph-name="f_k" unicode="fk" horiz-adv-x="1667" 
d="M352 33q0 -39 -33 -39h-47q-34 0 -34 41v876h-138q-32 0 -32 31v41q0 33 32 33h138v112q0 208 102 299q60 55 148 81q95 28 276 28q70 0 131 -8q41 -6 41 -49v-863h143q63 0 90 35l287 342q23 29 55 29q26 0 48 -2q28 -1 28 -23q0 -20 -20 -43l-330 -383l389 -501
q25 -31 25 -47q0 -22 -31 -27q-16 -2 -51 -2q-28 0 -53 31l-353 452q-28 37 -78 37h-149v-481q0 -39 -37 -39h-43q-37 0 -37 39v1392q-55 5 -108 5q-222 0 -297 -87q-62 -70 -62 -213v-114h250q33 0 33 -31v-45q0 -29 -35 -29h-248v-878z" />
    <glyph glyph-name="uni0162_h" unicode="&#x162;h" horiz-adv-x="2273" 
d="M600 -131q119 -2 160 -49t41 -131q0 -193 -240 -193q-63 0 -106 10q-27 6 -27 31q0 7 6 37q6 25 33 25q4 0 9 -1q8 -2 19 -3q4 -1 9 -2t6 -1q24 -4 55 -4q123 0 123 95q0 52 -26 72q-28 22 -95 22h-32q-37 0 -37 30q0 24 10 68l24 123q-14 6 -14 37v1298h-428
q-39 0 -39 35v43q0 35 39 35h1208v55q0 39 31 39h53q31 0 31 -39v-547q112 86 389 86q134 0 193 -29q62 -30 86 -93q18 -51 18 -201v-684q0 -39 -35 -39h-45q-37 0 -37 39v667q0 115 -14 150q-16 42 -58 63t-138 21q-199 0 -312 -55q-26 -17 -37 -35q-10 -20 -10 -62v-749
q0 -39 -35 -39h-45q-35 0 -35 39v1300h-657v-1298q0 -33 -20 -39z" />
    <glyph glyph-name="uni021A_h" unicode="&#x21a;h" horiz-adv-x="2273" 
d="M641 35q0 -41 -37 -41h-51q-35 0 -35 41v1298h-428q-39 0 -39 35v43q0 35 39 35h1208v55q0 39 31 39h53q31 0 31 -39v-547q112 86 389 86q134 0 193 -29q62 -30 86 -93q18 -51 18 -201v-684q0 -39 -35 -39h-45q-37 0 -37 39v667q0 115 -14 150q-16 42 -58 63t-138 21
q-199 0 -312 -55q-26 -17 -37 -35q-10 -20 -10 -62v-749q0 -39 -35 -39h-45q-35 0 -35 39v1300h-657v-1298zM569 -139h35q41 0 41 -45q0 -215 -133 -348q-21 -21 -37 -21q-17 0 -33 12q-16 15 -16 29q0 15 10 29q83 101 88 295q0 49 45 49z" />
    <glyph glyph-name=".notdef" horiz-adv-x="1026" 
d="M0 0v1448h1026v-1448h-1026zM514 817l348 526h-698zM573 725l353 -526v1052zM164 102h698l-348 529zM102 1251v-1052l351 526z" />
    <glyph glyph-name=".null" horiz-adv-x="0" 
 />
    <glyph glyph-name="nonmarkingreturn" horiz-adv-x="681" 
 />
    <glyph glyph-name="space" unicode=" " horiz-adv-x="460" 
 />
    <glyph glyph-name="exclam" unicode="!" horiz-adv-x="577" 
d="M418 78q0 -96 -94 -96q-95 0 -95 96q0 98 95 98q94 0 94 -98zM385 469q0 -39 -35 -39h-35q-36 0 -36 41q-15 851 -15 930q0 45 43 45h53q39 0 39 -43q0 -137 -14 -934z" />
    <glyph glyph-name="quotedbl" unicode="&#x22;" horiz-adv-x="696" 
d="M240 981q-2 -41 -33 -41h-27q-36 0 -37 43q-12 282 -12 436q0 47 45 47h37q41 0 41 -45q0 -174 -14 -440zM553 981q-2 -41 -35 -41h-26q-36 0 -37 43q-13 305 -13 436q0 47 45 47h37q41 0 41 -45q0 -155 -12 -440z" />
    <glyph glyph-name="numbersign" unicode="#" horiz-adv-x="1222" 
d="M334 4q-6 -37 -37 -37q-33 0 -41 8t-8 25q0 16 4 37l61 420h-190q-33 0 -33 30v52q0 32 35 32h205l37 263h-201q-33 0 -33 28v53q0 31 35 31h215l63 424q8 45 41 45q52 0 52 -29q0 -19 -4 -40l-62 -400h338l63 424q6 45 37 45q33 0 43 -6q11 -6 11 -23q0 -19 -4 -40
l-60 -400h195q34 0 34 -33v-51q0 -28 -32 -28h-213l-39 -263h207q34 0 34 -32v-54q0 -28 -32 -28h-228l-65 -453q-6 -37 -39 -37q-49 0 -49 33q0 16 4 37l61 420h-338zM457 834l-39 -263h338l39 263h-338z" />
    <glyph glyph-name="dollar" unicode="$" horiz-adv-x="1114" 
d="M623 -176q0 -39 -33 -39h-37q-33 0 -33 39v164q-216 5 -354 67q-31 15 -31 35q0 25 10 51q12 29 37 29q9 0 45 -14q142 -62 305 -62q85 0 153 19q62 17 98 44q35 26 54 65q18 37 23 71q4 27 4 72q0 49 -7 77q-8 32 -33 66q-26 36 -82 62q-65 31 -146 51l-182 45
q-127 33 -195 125q-67 91 -67 217q0 344 368 372v174q0 37 35 37h37q31 0 31 -37v-170q169 -5 280 -41q31 -12 31 -36q0 -17 -12 -52q-6 -22 -29 -22q-10 0 -45 8q-144 39 -258 39q-185 0 -251 -68q-67 -69 -67 -194q0 -105 46 -164q45 -58 200 -96l162 -41
q167 -52 238 -126q69 -72 69 -216q0 -346 -364 -383v-168z" />
    <glyph glyph-name="percent" unicode="%" horiz-adv-x="1724" 
d="M694 971q0 -259 -69 -353t-240 -94q-162 0 -231 92q-70 93 -70 345q0 257 79 348q80 92 234 92q110 0 171 -32t94 -126q32 -92 32 -272zM596 971q0 205 -44 275q-44 69 -159 69q-111 0 -161 -74t-50 -278q0 -213 47 -283t156 -70q117 0 164 70t47 291zM561 -33
q-17 -33 -45 -33q-29 0 -37 5q-8 6 -8 18q0 18 14 45l678 1409q23 45 49 45q21 0 35 -2q17 -2 17 -18t-21 -56zM1642 430q0 -258 -69 -352t-240 -94q-162 0 -231 92q-70 93 -70 344q0 257 79 348q80 92 235 92q110 0 171 -32q60 -32 93 -126q32 -92 32 -272zM1544 430
q0 206 -44 276q-43 68 -159 68q-110 0 -160 -74q-51 -76 -51 -278q0 -212 48 -283q46 -69 155 -69q117 0 164 69q47 70 47 291z" />
    <glyph glyph-name="ampersand" unicode="&#x26;" horiz-adv-x="1468" 
d="M1120 152q-150 -179 -467 -179q-260 0 -383 108t-123 300q0 154 80 249t260 161q-165 165 -165 327q0 156 90 249t286 93q140 0 228 -24q51 -12 51 -39q0 -28 -14 -60q-7 -20 -27 -20l-72 14q-84 19 -172 19q-146 0 -199 -62t-53 -164q0 -70 38 -137q34 -60 124 -153
l500 -498q51 102 51 276q0 36 -3 77t-3 42q0 31 20 37q21 6 60 6q17 0 25 -8q7 -7 12 -29q6 -37 6 -102q0 -243 -84 -387q99 -97 178 -166q31 -29 31 -45q0 -21 -21 -29q-22 -14 -61 -14q-25 0 -64 31q-85 79 -129 127zM1040 233q-315 300 -485 478q-148 -50 -214 -123
q-67 -75 -67 -203q0 -143 95 -223t290 -80q267 0 381 151z" />
    <glyph glyph-name="quotesingle" unicode="'" horiz-adv-x="385" 
d="M240 981q-2 -41 -33 -41h-27q-36 0 -37 43q-12 282 -12 436q0 47 45 47h37q41 0 41 -45q0 -174 -14 -440z" />
    <glyph glyph-name="parenleft" unicode="(" horiz-adv-x="632" 
d="M244 641q0 -141 13 -251q13 -114 45 -201q29 -81 59 -147q26 -59 80 -120q53 -60 81 -87q43 -41 88 -79q13 -13 13 -24q0 -4 -19 -33q-10 -14 -29 -14q-15 0 -38 16q-412 263 -412 938q0 641 407 913q29 17 41 17q14 0 31 -23q14 -17 14 -28q0 -14 -12 -21
q-168 -123 -265 -319q-97 -195 -97 -537z" />
    <glyph glyph-name="parenright" unicode=")" horiz-adv-x="632" 
d="M389 610q0 168 -23 294q-24 129 -56 216q-31 81 -89 163q-54 75 -95 118q-33 35 -106 96q-12 12 -12 23q0 8 19 32q11 17 26 17q16 0 41 -17q412 -263 412 -938q0 -640 -408 -913q-28 -16 -41 -16q-14 0 -30 22q-15 18 -15 29q0 12 13 20q166 122 266 320q98 195 98 534z
" />
    <glyph glyph-name="asterisk" unicode="*" horiz-adv-x="833" 
d="M412 967q-49 -77 -158 -228q-12 -16 -27 -16q-13 0 -47 25q-16 15 -16 30q0 10 12 27q83 111 170 217q-28 7 -260 74q-31 12 -31 32q0 16 13 48q12 24 32 24q9 0 33 -6q208 -74 242 -88q-10 210 -10 268q0 24 9 36q8 11 44 11q31 0 40 -10q9 -11 9 -37q0 -134 -6 -270
q125 50 244 90q24 6 36 6q20 0 27 -22q10 -29 10 -45q0 -23 -28 -33q-148 -45 -269 -80l174 -217q11 -16 11 -27q0 -12 -19 -28q-34 -23 -45 -23q-17 0 -29 16q-46 59 -161 226z" />
    <glyph glyph-name="plus" unicode="+" horiz-adv-x="1435" 
d="M768 104q0 -32 -31 -32h-41q-30 0 -30 32v447h-451q-31 0 -31 35v37q0 34 31 34h449v443q0 35 32 35h41q31 0 31 -35v-443h451q32 0 32 -34v-37q0 -35 -32 -35h-451v-447z" />
    <glyph glyph-name="comma" unicode="," horiz-adv-x="430" 
d="M236 197h45q41 0 41 -45q0 -123 -49 -250t-136 -211q-25 -25 -41 -25q-15 0 -37 17q-20 17 -20 32q0 16 14 33q127 141 135 393q0 56 48 56z" />
    <glyph glyph-name="hyphen" unicode="-" horiz-adv-x="610" 
d="M504 489h-395q-35 0 -35 31v51q0 33 35 33h393q35 0 35 -33v-51q0 -31 -33 -31z" />
    <glyph glyph-name="period" unicode="." horiz-adv-x="430" 
d="M309 78q0 -96 -94 -96t-94 96q0 52 26 75t68 23q45 0 69 -20q25 -21 25 -78z" />
    <glyph glyph-name="slash" unicode="/" horiz-adv-x="768" 
d="M135 -168q-12 -37 -43 -37q-32 0 -49 6q-14 4 -14 23q0 11 8 35l588 1632q17 47 45 47q33 0 51 -6q16 -6 16 -19q0 -20 -12 -53z" />
    <glyph glyph-name="zero" unicode="0" horiz-adv-x="1132" 
d="M1040 707q0 -224 -26 -363q-27 -143 -88 -225t-148 -114t-217 -32q-167 0 -265 59q-99 59 -151 216q-53 159 -53 440q0 218 35 367q34 146 104 222q68 74 152 103t197 29q174 0 267 -51t143 -205q50 -155 50 -446zM918 705q0 243 -36 372t-107 176t-202 47
q-121 0 -197 -47q-74 -46 -118 -184q-43 -135 -43 -379q0 -160 14 -261q15 -111 41 -175q28 -69 72 -106t96 -52q48 -14 125 -14q100 0 160 22t108 90t67 190q20 128 20 321z" />
    <glyph glyph-name="one" unicode="1" horiz-adv-x="1132" 
d="M866 0h-530q-33 0 -33 35v41q0 35 33 35h221v1140l-225 -90q-28 -12 -41 -12q-17 0 -23 16q-20 44 -20 58q0 20 22 30l262 111q47 20 80 20h9q57 0 57 -63v-1210h188q35 0 35 -33v-45q0 -33 -35 -33z" />
    <glyph glyph-name="two" unicode="2" horiz-adv-x="1132" 
d="M940 0h-774q-59 0 -80 17q-23 18 -23 67q0 56 46 96q391 319 561 484q168 164 168 333q0 144 -71 224q-70 79 -253 79q-124 0 -248 -45q-54 -20 -67 -20q-21 0 -27 20q-14 41 -14 48q0 27 47 45q165 61 325 61q239 0 334 -104q97 -106 97 -291q0 -217 -187 -404
q-170 -170 -588 -501q162 2 754 2q39 0 39 -33v-43q0 -35 -39 -35z" />
    <glyph glyph-name="three" unicode="3" horiz-adv-x="1132" 
d="M657 731q131 -6 214 -95t83 -245q0 -215 -119 -316q-120 -102 -362 -102q-193 0 -301 35q-49 16 -49 43q0 22 16 58q7 18 29 18q10 0 65 -16q93 -29 240 -29q97 0 159 17q67 18 104 45q39 28 60 70q20 40 28 81q7 36 7 90q0 144 -85 213q-87 71 -306 72q-30 0 -41 11
q-12 12 -12 44q0 55 57 55q200 1 278 69q77 66 77 185q0 146 -69 206t-245 60q-106 0 -223 -36q-22 -9 -24 -10l-24 -8q-9 -3 -17 -3q-19 0 -25 17q-16 36 -16 51q0 16 9 25q10 10 38 20q141 53 301 53q238 0 327 -88q91 -89 91 -283q0 -121 -74 -203q-74 -81 -191 -104z
" />
    <glyph glyph-name="four" unicode="4" horiz-adv-x="1132" 
d="M748 377h-596q-62 0 -62 63q0 34 31 99l416 817q22 49 51 49q41 0 65 -6q17 -6 17 -23q0 -19 -17 -53l-436 -836h531v375q0 41 36 41h47q35 0 35 -39v-377h203q39 0 39 -34v-43q0 -33 -39 -33h-203v-342q0 -41 -37 -41h-45q-36 0 -36 41v342z" />
    <glyph glyph-name="five" unicode="5" horiz-adv-x="1132" 
d="M311 821q141 19 254 19q232 0 330 -96q96 -94 96 -324q0 -447 -491 -447q-191 0 -310 35q-47 15 -47 43q0 12 15 55q6 21 30 21q2 0 80 -21q85 -24 242 -24q188 0 273 84t85 252q0 182 -81 248q-80 65 -248 65q-71 0 -161 -10t-102 -10q-71 0 -71 75q0 61 2 119l22 428
q1 51 43 51h609q37 0 37 -34v-43q0 -33 -39 -33h-545z" />
    <glyph glyph-name="six" unicode="6" horiz-adv-x="1132" 
d="M244 719q39 58 144 102q102 43 241 43q208 0 307 -103q98 -102 98 -331q0 -218 -112 -337q-112 -120 -344 -120q-214 0 -335 142q-120 141 -120 481q0 171 11 273q13 121 45 222q35 110 94 174q59 63 165 104q104 40 250 40q154 0 238 -29q18 -6 18 -28t-12 -60
q-4 -18 -23 -18q-10 0 -26 4t-23 4q-92 18 -166 18q-84 0 -145 -13q-63 -13 -109 -35q-45 -21 -78 -63q-32 -41 -52 -82q-18 -37 -32 -110t-20 -127q-8 -78 -14 -151zM246 537q0 -79 8 -146q45 -307 334 -307q168 0 247 87q78 85 78 265q0 320 -297 320q-264 0 -352 -133
q-18 -27 -18 -86z" />
    <glyph glyph-name="seven" unicode="7" horiz-adv-x="1132" 
d="M874 1278q-100 0 -252 -1t-479 -1q-39 0 -39 33v41q0 34 39 34h777q84 0 84 -65q0 -32 -27 -98l-471 -1184q-21 -51 -51 -51q-36 0 -60 8t-24 29q0 19 18 59z" />
    <glyph glyph-name="eight" unicode="8" horiz-adv-x="1132" 
d="M750 729q130 -23 201 -111q71 -89 71 -241q0 -404 -455 -404q-233 0 -346 96q-110 94 -110 304q0 282 270 354q-225 63 -225 328q0 354 422 354q216 0 310 -82q95 -83 95 -270q0 -261 -233 -328zM901 379q0 291 -334 291q-336 0 -336 -289q0 -173 88 -236q89 -63 246 -63
q159 0 248 68q88 67 88 229zM864 1047q0 128 -66 191q-65 62 -231 62q-165 0 -227 -65q-64 -67 -64 -197q0 -136 84 -199t207 -63q113 0 206 64q91 63 91 207z" />
    <glyph glyph-name="nine" unicode="9" horiz-adv-x="1132" 
d="M889 649q-102 -123 -379 -123q-208 0 -307 102t-99 326q0 215 117 335t348 120q218 0 329 -135q112 -136 112 -483q0 -158 -11 -274t-44 -222q-35 -112 -93 -176q-60 -66 -163 -106q-102 -40 -250 -40q-166 0 -261 31q-18 7 -18 33q0 27 12 57q11 19 23 19q2 0 7.5 -1
t17.5 -2.5t24 -3.5q111 -24 195 -24q85 0 148 16q66 17 109 39t75 68q29 42 49 83q18 38 30 108q15 90 18 118q6 64 11 135zM889 836q0 104 -12 176q-21 130 -91 209q-68 77 -227 77q-336 0 -336 -350q0 -151 69 -232t230 -81q127 0 223 36q97 36 121 77q23 38 23 88z" />
    <glyph glyph-name="colon" unicode=":" horiz-adv-x="471" 
d="M350 78q0 -96 -94 -96t-94 96q0 52 26 75t68 23q45 0 69 -20q25 -21 25 -78zM350 920q0 -99 -94 -99t-94 97q0 51 26 74q27 24 68 24q94 0 94 -96z" />
    <glyph glyph-name="semicolon" unicode=";" horiz-adv-x="471" 
d="M352 920q0 -99 -96 -99q-94 0 -94 97q0 98 96 98q94 0 94 -96zM254 197h47q39 0 39 -45q0 -126 -48 -250q-48 -125 -134 -211q-30 -25 -43 -25q-12 0 -37 17q-21 18 -21 32q0 11 17 33q126 145 133 393q5 56 47 56z" />
    <glyph glyph-name="less" unicode="&#x3c;" horiz-adv-x="1435" 
d="M348 602l793 -362q28 -15 28 -43q0 -33 -6 -54q-6 -24 -28 -24q-9 0 -33 12l-842 397q-29 17 -29 54v36q0 35 29 52l850 409q22 8 29 8q16 0 22 -20q6 -21 6 -51q0 -28 -28 -43z" />
    <glyph glyph-name="equal" unicode="=" horiz-adv-x="1435" 
d="M1251 387q0 -35 -32 -35h-1004q-31 0 -31 35v33q0 35 31 35h1004q32 0 32 -35v-33zM1251 776q0 -35 -32 -35h-1004q-31 0 -31 35v37q0 33 31 33h1004q32 0 32 -33v-37z" />
    <glyph glyph-name="greater" unicode="&#x3e;" horiz-adv-x="1435" 
d="M1087 604l-792 365q-29 11 -29 43q0 28 6 51q6 24 29 24q19 0 33 -10l842 -399q28 -12 28 -51v-39q0 -33 -28 -49l-850 -412q-18 -8 -29 -8q-19 0 -23 20q-6 21 -6 54q0 28 29 43z" />
    <glyph glyph-name="question" unicode="?" horiz-adv-x="817" 
d="M358 430h-32q-30 0 -35 31q-2 66 -2 110q0 104 32 162q33 59 130 121q100 62 138 130q38 67 38 167q0 211 -240 211q-125 0 -235 -31q-18 -6 -33 -6q-21 0 -27 21q-10 23 -10 49q0 20 22 30q129 48 293 48q355 0 355 -310q0 -128 -41 -201q-41 -74 -162 -157
q-93 -67 -119 -106q-27 -41 -33 -126q-4 -41 -4 -112q0 -31 -35 -31zM428 78q0 -96 -94 -96t-94 96q0 52 26 75t68 23q94 0 94 -98z" />
    <glyph glyph-name="at" unicode="@" horiz-adv-x="1646" 
d="M995 225q-99 -108 -272 -108q-264 0 -264 256q0 142 56 281q57 141 153 225q107 94 297 94q117 0 211 -39q41 -17 41 -55q0 -30 -11 -72l-98 -463q-10 -41 -10 -80q0 -51 47 -51q41 0 94 31q101 66 159 205q58 138 58 290q0 510 -530 510q-317 0 -514 -224
q-199 -226 -199 -564q0 -296 158 -459q157 -162 469 -162q242 0 440 72q44 16 55 16q17 0 27 -28q6 -16 6 -27q0 -21 -47 -39q-213 -84 -487 -84q-341 0 -529 181t-188 530q0 380 224 623q225 245 589 245q300 0 460 -144t160 -440q0 -249 -126 -435q-125 -185 -310 -185
q-60 0 -88 22q-30 23 -31 78zM1010 365l92 419q2 14 4 27.5t3 18.5l1 6q0 24 -27 32q-54 17 -133 17q-138 0 -223 -74q-74 -63 -119 -182q-45 -118 -45 -234q0 -97 44 -143q43 -45 147 -45q118 0 202 69q18 12 33 33q14 21 21 56z" />
    <glyph glyph-name="A" unicode="A" horiz-adv-x="1198" 
d="M305 475l-153 -432q-6 -22 -18 -38q-8 -11 -28 -11q-52 0 -69 6q-19 6 -19 25q0 9 15 53l465 1292q17 49 39 66q23 18 63 18h23q35 0 54 -18t36 -68l454 -1290q15 -44 15 -53q0 -19 -19 -25q-17 -6 -69 -6q-20 0 -28 11q-9 12 -19 38l-154 432h-588zM340 588h518
l-256 751q-73 -217 -262 -751z" />
    <glyph glyph-name="B" unicode="B" horiz-adv-x="1294" 
d="M606 0h-209q-98 0 -139 41t-41 139v1080q0 94 37 140t135 46h217q102 0 209 -12q158 -15 232 -101q73 -85 73 -246q0 -137 -51 -216q-50 -78 -164 -113q262 -61 262 -338q0 -293 -211 -377q-107 -43 -350 -43zM340 698v-501q0 -86 80 -86h201q211 0 276 32
q145 63 145 283q0 176 -147 242q-63 30 -233 30h-322zM340 807h319q162 0 213 24q54 28 90 93q33 60 33 147q0 116 -40 166q-42 52 -113 80q-50 20 -221 20h-213q-68 0 -68 -80v-450z" />
    <glyph glyph-name="C" unicode="C" horiz-adv-x="1218" 
d="M256 731q0 -123 7 -201q8 -86 34 -174q27 -90 73 -145t128 -91t196 -36q163 0 340 47q55 16 68 16q23 0 33 -28q8 -26 8 -43q0 -26 -47 -41q-186 -62 -410 -62q-283 0 -420 164t-137 563q0 415 130 593q132 180 470 180q195 0 336 -31q49 -12 49 -41q0 -28 -14 -60
q-6 -18 -31 -18q-8 0 -65 12q-111 27 -287 27q-122 0 -210 -35q-86 -34 -135 -88q-48 -52 -75 -142q-26 -86 -34 -169q-7 -74 -7 -197z" />
    <glyph glyph-name="D" unicode="D" horiz-adv-x="1431" 
d="M555 0h-164q-96 0 -135 41t-39 135v1088q0 98 39 140t139 42h172q237 0 367 -39q369 -107 369 -668q0 -263 -85 -437q-85 -175 -292 -253q-129 -49 -371 -49zM340 199q0 -86 80 -86h160q216 0 321 49q273 123 273 579q0 425 -250 543q-105 51 -349 51h-163q-72 0 -72 -80
v-1056z" />
    <glyph glyph-name="E" unicode="E" horiz-adv-x="1136" 
d="M1018 0h-615q-99 0 -143 38q-43 37 -43 146v1076q0 103 40 144q41 42 144 42h588q37 0 37 -35v-43q0 -35 -37 -35h-579q-70 0 -70 -78v-446h586q39 0 39 -35v-43q0 -33 -39 -33h-586v-499q0 -86 80 -86h598q39 0 39 -35v-43q0 -35 -39 -35z" />
    <glyph glyph-name="F" unicode="F" horiz-adv-x="1081" 
d="M340 37q0 -43 -37 -43h-51q-35 0 -35 41v1225q0 100 39 143t139 43h592q37 0 37 -35v-43q0 -35 -37 -35h-575q-72 0 -72 -84v-487h559q39 0 39 -35v-43q0 -35 -39 -35h-559v-612z" />
    <glyph glyph-name="G" unicode="G" horiz-adv-x="1353" 
d="M1212 158q0 -44 -16 -70q-11 -20 -51 -41q-153 -74 -451 -74q-289 0 -427 163q-138 164 -138 564q0 411 137 592t488 181q199 0 340 -31q47 -11 47 -41q0 -24 -11 -60q-6 -18 -28 -18q-21 0 -70 10q-136 29 -315 29q-119 0 -205 -36q-88 -37 -134 -92q-49 -59 -77 -143
q-30 -91 -37 -169q-8 -88 -8 -191q0 -111 6 -191q6 -73 31 -172q24 -92 71 -150q45 -55 129 -95q83 -39 201 -39q203 0 344 39q31 11 42 25q12 15 12 51v444h-347q-34 0 -34 33v47q0 33 34 33h424q43 0 43 -47v-551z" />
    <glyph glyph-name="H" unicode="H" horiz-adv-x="1443" 
d="M340 35q0 -41 -37 -41h-49q-37 0 -37 41v1378q0 41 39 41h49q35 0 35 -41v-604h764v604q0 41 39 41h49q35 0 35 -41v-1378q0 -41 -37 -41h-49q-37 0 -37 41v663h-764v-663z" />
    <glyph glyph-name="I" unicode="I" horiz-adv-x="557" 
d="M340 35q0 -41 -37 -41h-49q-37 0 -37 41v1378q0 41 39 41h49q35 0 35 -41v-1378z" />
    <glyph glyph-name="J" unicode="J" horiz-adv-x="618" 
d="M401 90q0 -192 -90 -270q-51 -44 -144 -81q-94 -38 -138 -38q-29 0 -37 23q-8 26 -8 49q0 31 41 39q126 28 180 69q74 53 74 207v1325q0 41 38 41h50q34 0 34 -41v-1323z" />
    <glyph glyph-name="K" unicode="K" horiz-adv-x="1230" 
d="M340 35q0 -41 -37 -41h-49q-37 0 -37 41v1378q0 41 39 41h49q35 0 35 -41v-606h180q63 0 90 35l428 579q23 31 56 31q39 0 61 -2q23 -2 23 -25q0 -17 -21 -45l-477 -624l512 -684q25 -34 25 -47q0 -21 -21 -25q-20 -4 -72 -4q-28 0 -53 31l-473 637q-27 34 -78 34h-180
v-663z" />
    <glyph glyph-name="L" unicode="L" horiz-adv-x="1107" 
d="M1016 0h-617q-101 0 -141 40q-41 41 -41 136v1237q0 41 39 41h49q35 0 35 -41v-1216q0 -84 80 -84h596q39 0 39 -35v-43q0 -35 -39 -35z" />
    <glyph glyph-name="M" unicode="M" horiz-adv-x="1681" 
d="M338 35q0 -41 -37 -41h-49q-35 0 -35 41v1306q0 113 90 113h29q45 0 64 -20t46 -82q316 -698 398 -895q68 169 391 893q17 38 28 55q14 21 32 34q21 15 53 15h28q54 0 71 -23t17 -88v-1308q0 -41 -37 -41h-47q-34 0 -34 41q0 1045 6 1304q-58 -137 -430 -962
q-29 -62 -70 -62h-21q-42 0 -71 62q-400 895 -428 962q6 -273 6 -1304z" />
    <glyph glyph-name="N" unicode="N" horiz-adv-x="1456" 
d="M338 35q0 -41 -39 -41h-45q-37 0 -37 41v1323q0 51 20 74q19 22 62 22h31q35 0 53 -15t43 -57q532 -930 696 -1245q-4 136 -4 1272q0 43 41 43h45q35 0 35 -41v-1341q0 -80 -72 -80h-32q-36 0 -54 15q-19 16 -43 56q-563 985 -704 1252q4 -349 4 -1278z" />
    <glyph glyph-name="O" unicode="O" horiz-adv-x="1413" 
d="M1284 733q0 -221 -35 -372q-35 -149 -110 -233q-77 -86 -181 -120q-107 -35 -260 -35q-152 0 -253 34q-103 35 -175 119t-107 233q-34 146 -34 372t43 374q44 150 126 228q84 80 181 109q102 31 236 31q120 0 207 -17q86 -17 157 -62q75 -47 116 -128q42 -82 66 -213
q23 -125 23 -320zM1155 731q0 208 -23 327q-24 123 -81 191q-57 67 -136 90q-80 23 -206 23q-115 0 -195 -26q-77 -25 -139 -93q-61 -67 -90 -192q-29 -127 -29 -318q0 -200 28 -335q26 -128 88 -197q61 -68 136 -92q80 -25 194 -25q119 0 192 22q72 22 139 90q64 66 93 197
q29 133 29 338z" />
    <glyph glyph-name="P" unicode="P" horiz-adv-x="1263" 
d="M340 35q0 -41 -39 -41h-47q-37 0 -37 41v1231q0 93 37 136q38 44 135 44h182q239 0 353 -45q209 -84 209 -365q0 -305 -271 -383q-99 -28 -280 -28h-242v-590zM340 733h254q185 0 268 37q144 62 144 260q0 208 -144 270q-78 35 -284 35h-164q-40 0 -57 -17t-17 -65v-520z
" />
    <glyph glyph-name="Q" unicode="Q" horiz-adv-x="1413" 
d="M1284 733q0 -522 -217 -672l305 -200q19 -16 19 -29q0 -14 -33 -65q-11 -17 -27 -17q-10 0 -26 8l-367 244q-101 -29 -240 -29q-152 0 -253 34q-103 35 -175 119t-107 233q-34 146 -34 372t43 374q44 150 126 228q84 80 181 109q102 31 236 31q120 0 207 -17
q86 -17 157 -62q75 -47 116 -128q42 -82 66 -213q23 -125 23 -320zM1155 731q0 208 -23 327q-24 123 -81 191q-57 67 -136 90q-80 23 -206 23q-115 0 -195 -26q-77 -25 -139 -93q-61 -67 -90 -192q-29 -127 -29 -318q0 -200 28 -335q26 -128 88 -197q61 -68 136 -92
q80 -25 194 -25q119 0 192 22q72 22 139 90q64 66 93 197q29 133 29 338z" />
    <glyph glyph-name="R" unicode="R" horiz-adv-x="1265" 
d="M340 35q0 -41 -39 -41h-47q-37 0 -37 41v1229q0 94 38 138t136 44h162q248 0 354 -41q113 -45 160 -131t47 -221q0 -303 -270 -381l-23 -6l340 -594q19 -40 19 -47q0 -20 -19 -25q-18 -6 -69 -6q-29 0 -52 41l-342 612q-73 -4 -133 -4h-225v-608zM340 752h233
q175 0 271 39q143 60 143 256q0 117 -36 172q-36 56 -103 84q-71 32 -283 32h-143q-46 0 -64 -19q-18 -20 -18 -63v-501z" />
    <glyph glyph-name="S" unicode="S" horiz-adv-x="1144" 
d="M702 750q185 -56 257 -134q73 -79 73 -231q0 -198 -114 -305q-115 -107 -379 -107q-227 0 -396 66q-37 15 -37 39q0 20 15 53q11 31 37 31q6 0 51 -17q155 -59 330 -59q119 0 199 27q79 27 113 74q33 46 44 89q10 39 10 97q0 45 -8 77q-6 25 -36 66q-26 37 -90 70
q-62 33 -161 61l-202 60q-137 41 -209 135t-72 225q0 201 116 303q117 103 371 103q180 0 324 -39q35 -12 35 -39q0 -19 -12 -56q-7 -22 -33 -22q-9 0 -49 8q-138 35 -277 35q-201 0 -276 -73q-74 -72 -74 -208q0 -99 53 -161t219 -113z" />
    <glyph glyph-name="T" unicode="T" horiz-adv-x="1159" 
d="M641 35q0 -41 -37 -41h-51q-35 0 -35 41v1298h-428q-39 0 -39 35v43q0 35 39 35h979q39 0 39 -35v-43q0 -35 -39 -35h-428v-1298z" />
    <glyph glyph-name="U" unicode="U" horiz-adv-x="1413" 
d="M1210 1415v-837q0 -174 -10 -257q-11 -89 -47 -153q-108 -197 -453 -197q-172 0 -284 48t-168 167q-45 94 -45 387v842q0 39 39 39h51q33 0 33 -39v-895q0 -220 47 -299q83 -137 334 -137q264 0 333 129q50 91 50 299v903q0 39 36 39h52q32 0 32 -39z" />
    <glyph glyph-name="V" unicode="V" horiz-adv-x="1179" 
d="M588 117l450 1286q15 49 47 49q44 0 68 -8q18 -6 18 -25q0 -12 -14 -53l-469 -1298q-27 -74 -86 -74h-31q-64 0 -92 76l-456 1294q-15 39 -15 55q0 19 19 25q24 8 71 8q20 0 27 -10t18 -39q370 -1054 445 -1286z" />
    <glyph glyph-name="W" unicode="W" horiz-adv-x="1906" 
d="M952 1260q-88 -317 -358 -1203q-18 -63 -86 -63h-31q-61 0 -78 63l-327 1311q-9 36 -9 51q0 23 21 29q15 4 68 4q28 0 38 -37q280 -1132 314 -1290q60 224 362 1202q21 68 78 68h29q55 0 76 -68q292 -970 352 -1204q88 384 313 1282q12 47 43 47q43 0 64 -4q22 -4 22 -29
q0 -12 -10 -55l-336 -1305q-16 -65 -82 -65h-31q-63 0 -81 65z" />
    <glyph glyph-name="X" unicode="X" horiz-adv-x="1290" 
d="M195 35q-27 -39 -64 -39q-52 0 -63 4q-15 6 -15 23q0 16 27 55l479 670l-436 612q-31 46 -31 61q0 21 21 25q13 4 69 4q26 0 49 -33l414 -588l414 586q27 37 57 37q51 0 64 -4q12 -6 12 -21q0 -20 -21 -53l-446 -629l471 -665q29 -40 29 -55q0 -19 -17 -25q-19 -4 -67 -4
q-33 0 -68 47q-350 491 -436 623z" />
    <glyph glyph-name="Y" unicode="Y" horiz-adv-x="1118" 
d="M621 37q0 -43 -37 -43h-49q-37 0 -37 43v600l-463 727q-27 40 -27 59q0 21 25 27q16 4 63 4q30 0 54 -39q288 -451 413 -663q58 103 406 653q28 49 61 49q41 0 60 -4q20 -1 20 -23q0 -18 -23 -53l-466 -735v-602z" />
    <glyph glyph-name="Z" unicode="Z" horiz-adv-x="1214" 
d="M1110 0h-981q-80 0 -80 76q0 38 29 78l893 1179h-809q-43 0 -43 37v37q0 39 43 39h866q88 0 88 -74q0 -44 -33 -88l-890 -1171h919q41 0 41 -35v-43q0 -35 -43 -35z" />
    <glyph glyph-name="bracketleft" unicode="[" horiz-adv-x="563" 
d="M274 -203h218q26 0 26 -24v-31q0 -10 -8 -20q-8 -9 -18 -9h-299q-27 0 -27 31v1767q0 29 27 29h299q26 0 26 -22v-35q0 -25 -26 -25h-218v-1661z" />
    <glyph glyph-name="backslash" unicode="\" horiz-adv-x="768" 
d="M629 -168l-588 1628q-12 33 -12 49q0 17 14 23q18 6 53 6q26 0 43 -47l590 -1632q8 -24 8 -35q0 -17 -16 -23q-15 -6 -47 -6q-29 0 -45 37z" />
    <glyph glyph-name="bracketright" unicode="]" horiz-adv-x="563" 
d="M289 1458h-217q-27 0 -27 23v30q0 10 8 20q7 9 19 9h301q24 0 24 -31v-1767q0 -29 -24 -29h-301q-27 0 -27 25v33q0 24 27 24h217v1663z" />
    <glyph glyph-name="asciicircum" unicode="^" horiz-adv-x="1443" 
d="M721 1274q-92 -216 -311 -672q-12 -27 -37 -27q-33 0 -54 7q-24 6 -24 24q0 17 10 31l338 709q17 36 57 36h41q45 0 62 -39l340 -710q8 -22 8 -29q0 -16 -16 -22q-25 -7 -62 -7q-23 0 -35 27q-248 513 -317 672z" />
    <glyph glyph-name="underscore" unicode="_" horiz-adv-x="1009" 
d="M0 -158h1010v-94h-1010v94z" />
    <glyph glyph-name="grave" unicode="`" horiz-adv-x="403" 
d="M276 1208l-245 267q-19 19 -19 30q0 23 25 29q21 6 63 6q36 0 60 -29l215 -266q14 -14 14 -31q0 -16 -18 -22q-17 -6 -45 -6q-29 0 -50 22z" />
    <glyph glyph-name="a" unicode="a" horiz-adv-x="1069" 
d="M889 172q0 -53 -17 -84q-12 -29 -49 -47q-125 -68 -366 -68q-199 0 -274 87q-74 86 -74 237q0 169 118 238q102 57 312 57q155 0 235 -12v114q0 114 -16 152q-16 43 -65 68q-48 24 -165 24q-129 0 -239 -29q-51 -16 -66 -16q-20 0 -24 20q-11 31 -11 52q0 19 29 30
q148 49 334 49q208 0 276 -71q39 -39 50 -96q12 -60 12 -166v-539zM774 483q-86 11 -225 11q-192 0 -266 -50q-60 -37 -60 -145q0 -110 52 -166q53 -57 200 -57q157 0 244 35q30 12 45 36q10 20 10 68v268z" />
    <glyph glyph-name="b" unicode="b" horiz-adv-x="1134" 
d="M180 158v1337q0 37 37 37h45q35 0 35 -37v-549q113 94 367 94q185 0 270 -122q86 -124 86 -400q0 -320 -111 -432q-111 -113 -366 -113q-165 0 -279 41q-46 16 -67 49q-17 25 -17 95zM297 182q0 -38 12 -53q12 -18 47 -29q92 -22 191 -22q217 0 286 92q68 90 68 334
q0 230 -53 330q-52 98 -223 98q-201 0 -289 -60q-27 -19 -33 -30q-6 -15 -6 -45v-615z" />
    <glyph glyph-name="c" unicode="c" horiz-adv-x="937" 
d="M233 514q0 -102 12 -174t42 -135q30 -64 93 -95q64 -32 159 -32q121 0 237 28q44 13 49 13q17 0 25 -19q10 -29 10 -45q0 -28 -31 -39q-126 -43 -297 -43q-207 0 -312 119q-105 118 -105 402q0 287 106 418q107 132 354 132q133 0 232 -24q35 -8 35 -33q0 -14 -13 -55
q-8 -23 -26 -23q-5 0 -15 2q-1 0 -5 1t-7.5 2t-7.5 1q-5 1 -12 3t-8 2q-96 18 -183 18t-150 -24q-66 -25 -98 -60q-35 -38 -54 -96q-19 -60 -24 -114q-6 -72 -6 -130z" />
    <glyph glyph-name="d" unicode="d" horiz-adv-x="1134" 
d="M954 168q0 -54 -10 -74q-17 -35 -61 -57q-133 -64 -355 -64q-216 0 -315 118q-98 117 -98 396q0 316 112 437q111 120 367 120q165 0 244 -36v487q0 37 36 37h46q34 0 34 -37v-1327zM838 223v611q0 59 -37 75q-70 29 -209 29q-212 0 -285 -98q-74 -100 -74 -342
q0 -218 65 -321q64 -101 230 -101q172 0 258 39q31 15 41 37q11 22 11 71z" />
    <glyph glyph-name="e" unicode="e" horiz-adv-x="1048" 
d="M231 479q1 -232 86 -317q84 -84 265 -84q134 0 239 33q41 12 56 12q18 0 24 -17q14 -27 14 -49q0 -24 -32 -34q-135 -50 -312 -50q-249 0 -354 125q-104 123 -104 408q0 284 113 410q114 128 341 128q126 0 201 -33q77 -34 115 -107q35 -68 48 -150q11 -72 11 -203
q0 -48 -14 -62q-10 -10 -41 -10h-656zM233 578h590q2 22 2 55q0 153 -54 230t-214 77q-179 0 -249 -93t-75 -269z" />
    <glyph glyph-name="f" unicode="f" horiz-adv-x="641" 
d="M352 33q0 -39 -33 -39h-47q-34 0 -34 41v876h-138q-32 0 -32 31v41q0 33 32 33h138v127q0 199 73 282q101 109 342 113q41 0 43 -27q4 -29 4 -47q0 -31 -34 -32q-119 -6 -185 -28q-63 -21 -94 -75q-35 -56 -35 -188v-125h250q33 0 33 -31v-45q0 -29 -35 -29h-248v-878z
" />
    <glyph glyph-name="g" unicode="g" horiz-adv-x="1130" 
d="M827 37q-95 -62 -309 -62q-211 0 -307 117t-96 395q0 314 109 435q108 120 360 120q185 0 307 -36q57 -16 57 -78v-905q0 -156 -33 -252q-79 -250 -608 -250q-39 0 -45 26q-2 20 -2 43q0 37 33 37q244 6 355 47q109 40 147 121q32 65 32 193v49zM834 205v645q0 49 -37 61
q-77 25 -219 25q-208 0 -276 -98q-69 -99 -69 -338q0 -222 63 -321t228 -99q172 0 258 39q38 15 45 39q7 14 7 47z" />
    <glyph glyph-name="h" unicode="h" horiz-adv-x="1163" 
d="M297 33q0 -39 -37 -39h-43q-37 0 -37 39v1466q0 41 33 41h53q31 0 31 -39v-547q112 86 387 86q134 0 193 -29q62 -30 86 -93q20 -47 20 -201v-684q0 -39 -37 -39h-45q-35 0 -35 39v667q0 108 -16 150q-15 43 -57 63q-44 21 -140 21q-196 0 -309 -55q-26 -17 -37 -35
q-10 -20 -10 -62v-749z" />
    <glyph glyph-name="i" unicode="i" horiz-adv-x="477" 
d="M297 33q0 -39 -37 -39h-43q-37 0 -37 39v950q0 39 37 39h45q35 0 35 -39v-950zM319 1360q0 -90 -81 -90q-84 0 -84 88t84 88q81 0 81 -86z" />
    <glyph glyph-name="j" unicode="j" horiz-adv-x="477" 
d="M295 983v-1100q0 -183 -78 -256q-48 -46 -131 -76q-84 -30 -145 -30q-27 0 -33 22q-6 18 -6 43q0 29 41 37q114 22 176 68q61 51 61 190v1102q0 39 35 39h45q35 0 35 -39zM319 1360q0 -90 -81 -90q-84 0 -84 88t84 88q39 0 61 -19q20 -17 20 -67z" />
    <glyph glyph-name="k" unicode="k" horiz-adv-x="1028" 
d="M297 33q0 -39 -37 -39h-43q-37 0 -37 39v1442q0 38 37 38h45q35 0 35 -38v-859h143q63 0 90 35l287 342q23 29 53 29q48 0 50 -2q28 0 28 -23q0 -20 -20 -43l-330 -383l391 -501q23 -29 23 -45q0 -24 -31 -29q-10 0 -25 -1t-26 -1q-28 0 -53 31l-353 452q-28 37 -78 37
h-149v-481z" />
    <glyph glyph-name="l" unicode="l" horiz-adv-x="512" 
d="M297 256q0 -85 27 -119q33 -38 110 -45q31 -2 31 -31q0 -33 -6 -49q-6 -18 -37 -18q-158 0 -213 96q-29 50 -29 154v1249q0 39 39 39h45q33 0 33 -39v-1237z" />
    <glyph glyph-name="m" unicode="m" horiz-adv-x="1789" 
d="M297 33q0 -39 -37 -39h-43q-37 0 -37 39v805q0 85 62 114q175 88 424 88q190 0 252 -104q111 104 405 104q128 0 185 -29q59 -30 83 -93q19 -54 19 -201v-684q0 -39 -37 -39h-43q-37 0 -37 39v667q0 107 -14 150q-16 44 -54 64t-131 20q-163 0 -293 -62q-24 -11 -38 -30
q-11 -17 -11 -56q0 -16 1 -38t1 -43v-672q0 -39 -34 -39h-46q-36 0 -36 39v676q0 103 -15 141q-17 45 -53 64q-38 20 -131 20q-179 0 -291 -53q-28 -15 -39 -33q-12 -21 -12 -66v-749z" />
    <glyph glyph-name="n" unicode="n" horiz-adv-x="1163" 
d="M297 33q0 -39 -37 -39h-43q-37 0 -37 39v805q0 82 64 116q174 86 440 86q134 0 193 -29q62 -30 86 -93q20 -47 20 -201v-684q0 -39 -37 -39h-45q-35 0 -35 39v667q0 108 -16 150q-15 43 -57 63q-44 21 -140 21q-183 0 -307 -53q-26 -16 -37 -33q-12 -21 -12 -62v-753z
" />
    <glyph glyph-name="o" unicode="o" horiz-adv-x="1105" 
d="M991 518q0 -317 -100 -430q-101 -115 -344 -115q-237 0 -335 112q-97 110 -97 427q0 163 31 269t95 164t138 78q76 21 182 21q102 0 160 -11q64 -12 119 -42q56 -30 86 -89t48 -152q17 -89 17 -232zM872 508q0 187 -32 276q-33 93 -97 123q-65 31 -186 31
q-168 0 -246 -86t-78 -336q0 -183 35 -280q35 -96 99 -127q65 -31 182 -31q90 0 141 13q53 14 98 57q45 44 65 132q19 85 19 228z" />
    <glyph glyph-name="p" unicode="p" horiz-adv-x="1134" 
d="M297 -442q0 -37 -37 -37h-45q-35 0 -35 37v1265q0 62 10 88q16 32 62 54q153 75 385 75q206 0 294 -115q89 -116 89 -395q0 -223 -54 -346t-154 -167t-271 -44q-157 0 -244 43v-458zM297 188q0 -59 37 -75q80 -33 205 -33q216 0 290 92t74 346q0 224 -57 319t-228 95
q-152 0 -270 -47q-32 -12 -43 -35q-8 -18 -8 -70v-592z" />
    <glyph glyph-name="q" unicode="q" horiz-adv-x="1134" 
d="M952 -442q0 -37 -34 -37h-46q-34 0 -34 37v510q-115 -95 -367 -95q-185 0 -270 124q-86 125 -86 401q0 167 28 273q28 107 94 168t149 83q84 22 212 22q160 0 270 -38q48 -20 70 -50q14 -25 14 -96v-1302zM838 217v617q0 38 -13 57q-12 16 -47 27q-92 22 -184 22
q-218 0 -290 -94q-73 -96 -73 -334q0 -229 54 -331q53 -99 223 -99q198 0 291 59q25 20 32 33q7 14 7 43z" />
    <glyph glyph-name="r" unicode="r" horiz-adv-x="729" 
d="M297 33q0 -39 -37 -39h-43q-37 0 -37 39v792q0 72 43 115q38 35 147 68q106 32 212 32q55 0 82 -6q22 -4 22 -24q0 -38 -6 -60q-6 -24 -29 -24q-1 0 -5 0.5t-12.5 1t-16.5 0.5q-40 2 -42 2q-146 0 -231 -49q-26 -12 -37 -35q-10 -17 -10 -62v-751z" />
    <glyph glyph-name="s" unicode="s" horiz-adv-x="872" 
d="M483 440l-164 49q-221 66 -221 263q0 290 365 290q159 0 256 -26q35 -11 35 -37q0 -7 -13 -51q-6 -21 -24 -21q-17 0 -35 6q-105 27 -221 27q-145 0 -195 -47q-49 -46 -49 -131q0 -59 38 -102q35 -39 153 -78l143 -45q127 -40 186 -99q58 -58 58 -170q0 -295 -377 -295
q-192 0 -307 47q-27 12 -27 35q0 14 12 47q11 25 33 25q8 0 37 -10q108 -39 254 -39q158 0 209 52t51 134q0 61 -37 98q-38 38 -160 78z" />
    <glyph glyph-name="t" unicode="t" horiz-adv-x="661" 
d="M346 367q0 -139 33 -191q23 -42 79 -62t160 -26q33 -2 33 -33q0 -25 -2 -47q-6 -26 -39 -26q-120 1 -194 23q-71 21 -121 77q-66 76 -66 293v536h-137q-33 0 -33 33v39q0 33 35 33h137q0 31 7 239q0 43 30 43h47q31 0 31 -41v-241h244q37 0 37 -31v-39q0 -35 -39 -35
h-242v-544z" />
    <glyph glyph-name="u" unicode="u" horiz-adv-x="1163" 
d="M180 326v659q0 37 37 37h45q35 0 35 -37v-647q0 -126 20 -170q34 -88 224 -88q181 0 276 37q27 10 37 28q12 21 12 70v770q0 37 37 37h43q37 0 37 -37v-823q0 -93 -61 -121q-142 -68 -410 -68q-254 0 -305 133q-27 63 -27 220z" />
    <glyph glyph-name="v" unicode="v" horiz-adv-x="931" 
d="M467 115q48 143 324 866q16 43 45 43q28 0 57 -4q25 -6 25 -27q0 -17 -13 -49l-350 -891q-22 -59 -76 -59h-30q-37 0 -51 14q-16 16 -27 47l-342 887q-13 32 -13 47q0 25 27 31q25 4 63 4q24 0 39 -41q256 -682 322 -868z" />
    <glyph glyph-name="w" unicode="w" horiz-adv-x="1484" 
d="M741 838q-23 -94 -245 -781q-11 -35 -31 -50q-17 -13 -49 -13h-29q-60 0 -78 61l-262 889q-10 29 -10 47q0 27 24 29q29 4 64 4q27 0 39 -47q197 -660 246 -864q104 352 245 784q16 42 32 57q19 17 48 17h19q29 0 48 -14q17 -13 32 -56q223 -650 260 -788q83 322 233 858
q7 27 16 42q7 11 27 11q29 0 62 -4q20 -6 20 -25q0 -9 -12 -59l-250 -873q-21 -69 -76 -69h-33q-56 0 -77 63q-238 703 -263 781z" />
    <glyph glyph-name="x" unicode="x" horiz-adv-x="1003" 
d="M498 444l-310 -413q-24 -35 -53 -35q-43 0 -59 2q-19 5 -19 25q0 16 25 47l340 452l-316 424q-24 30 -24 47q0 19 16 23q25 4 74 4q22 0 55 -43q247 -332 277 -377q118 166 282 383q27 37 56 37q46 0 65 -4q15 -4 15 -21q0 -13 -25 -49l-317 -422l344 -456q22 -28 22 -43
q0 -17 -18 -25q-11 -4 -64 -4q-33 0 -57 33z" />
    <glyph glyph-name="y" unicode="y" horiz-adv-x="1163" 
d="M180 305v680q0 37 37 37h45q35 0 35 -37v-663q0 -111 18 -156q33 -84 209 -84q188 0 291 53q32 19 39 33q12 21 12 63v754q0 37 37 37h43q37 0 37 -37v-965q0 -144 -33 -249q-82 -250 -596 -250q-44 0 -45 26q-4 29 -4 45q0 35 35 35q173 5 276 28q107 24 148 57
q43 34 67 87q31 74 31 191v63q-130 -80 -366 -80q-242 0 -291 129q-25 70 -25 203z" />
    <glyph glyph-name="z" unicode="z" horiz-adv-x="966" 
d="M860 0h-713q-84 0 -84 76q0 46 43 96l650 737h-621q-35 0 -35 31v41q0 35 39 35h652q94 0 94 -76q0 -46 -39 -92l-653 -742h667q35 0 35 -32v-45q0 -29 -35 -29z" />
    <glyph glyph-name="braceleft" unicode="{" horiz-adv-x="622" 
d="M188 629q84 -23 129 -85q45 -63 45 -206v-330q0 -121 31 -168q40 -55 185 -55q20 0 20 -29v-30q0 -25 -27 -25q-118 0 -181 18q-62 18 -97 70q-45 66 -45 221v320q0 131 -42 185q-43 55 -136 71q-23 2 -23 26v25q0 29 23 31q97 17 137 74q41 59 41 180v307q0 153 45 219
q68 104 276 104q29 0 29 -30v-21q0 -31 -27 -31q-146 -7 -184 -71q-25 -48 -25 -158v-313q0 -146 -41 -205t-133 -94z" />
    <glyph glyph-name="bar" unicode="|" horiz-adv-x="438" 
d="M272 -266q0 -39 -36 -39h-35q-35 0 -35 39v1777q0 39 37 39h37q32 0 32 -39v-1777z" />
    <glyph glyph-name="braceright" unicode="}" horiz-adv-x="622" 
d="M430 625q-84 23 -129 85q-45 63 -45 205v330q0 121 -31 168q-39 55 -184 55q-18 0 -18 29v31q0 24 24 24q119 0 182 -18q64 -18 99 -70q45 -66 45 -221v-319q0 -131 41 -186q40 -53 137 -70q22 -1 22 -27v-25q0 -26 -22 -30q-97 -17 -137 -75q-41 -59 -41 -179v-307
q0 -152 -47 -220q-68 -104 -277 -104q-26 0 -26 31v20q0 31 24 31q149 7 184 72q25 48 25 157v314q0 144 42 204q42 61 132 95z" />
    <glyph glyph-name="asciitilde" unicode="~" horiz-adv-x="1435" 
d="M276 510q-15 -18 -26 -18q-21 0 -41 20q-16 12 -16 29q0 14 10 28q79 99 147 138q66 38 148 38q85 0 247 -96q123 -71 201 -71q111 0 207 137q16 22 31 22q18 0 39 -18q18 -12 18 -31q0 -15 -14 -37q-68 -94 -130 -136q-65 -44 -153 -44q-98 0 -242 84q-146 82 -215 82
q-61 0 -106 -27q-46 -27 -105 -100z" />
    <glyph glyph-name="exclamdown" unicode="&#xa1;" horiz-adv-x="575" 
d="M158 944q0 96 96 96q94 0 94 -96q0 -98 -96 -98q-94 0 -94 98zM190 555q0 37 35 37h35q37 0 37 -41q14 -794 14 -930q0 -45 -41 -45h-55q-39 0 -39 45q0 135 14 934z" />
    <glyph glyph-name="cent" unicode="&#xa2;" horiz-adv-x="1021" 
d="M643 -176q0 -39 -33 -39h-37q-32 0 -32 39v166q-191 8 -285 126t-94 390q0 257 88 381t291 145v160q0 39 34 39h37q31 0 31 -39v-156q126 -2 215 -22q35 -8 35 -35q0 -30 -10 -53q-8 -19 -25 -19q-18 0 -47 6q-93 19 -190 19q-107 0 -180 -31q-70 -30 -102 -91
q-31 -58 -43 -125q-11 -59 -11 -159q0 -99 10 -165q11 -69 39 -135q28 -65 90 -100q61 -34 154 -34q122 0 241 27q53 14 60 14q17 0 24 -20q10 -26 10 -45q0 -26 -30 -37q-93 -33 -240 -41v-166z" />
    <glyph glyph-name="sterling" unicode="&#xa3;" horiz-adv-x="1214" 
d="M1108 0h-879q-32 0 -32 29v51q0 31 34 31h123v477h-147q-39 0 -39 30v41q0 33 39 33h147v297q0 189 66 277q56 77 142 110q85 33 226 33q170 0 295 -33q35 -8 35 -35q0 -21 -12 -59q-7 -20 -33 -20q-9 0 -49 8q-133 28 -244 28q-99 0 -156 -18t-96 -63q-53 -62 -53 -228
v-297h395q39 0 39 -33v-41q0 -30 -39 -30h-395v-477h631q35 0 35 -33v-49q0 -29 -33 -29z" />
    <glyph glyph-name="currency" unicode="&#xa4;" horiz-adv-x="1105" 
d="M952 256q-12 -12 -24 -12q-10 0 -27 12l-108 104q-104 -79 -242 -79q-139 0 -246 79l-100 -104q-14 -14 -27 -14q-18 0 -28 12l-17 18q-14 14 -14 27t14 27l107 108q-82 107 -82 246q0 135 82 242l-107 108q-14 14 -14 25q0 12 16 28l17 17q14 14 24 14q11 0 25 -14
l106 -107q105 84 244 84q146 0 240 -82l108 105q17 14 25 14q12 0 26 -14l17 -17q12 -12 12 -26q0 -13 -12 -25l-107 -108q82 -98 82 -244q0 -143 -82 -244l111 -110q10 -10 10 -25q0 -13 -12 -29zM844 680q0 130 -83 215q-83 84 -210 84q-125 0 -210 -84t-85 -213
q0 -132 84 -218q84 -85 211 -85q128 0 210 85q83 86 83 216z" />
    <glyph glyph-name="yen" unicode="&#xa5;" horiz-adv-x="1208" 
d="M981 705h-254l-63 -97v-88h317q37 0 37 -33v-18q0 -33 -37 -33h-317v-399q0 -43 -37 -43h-47q-37 0 -37 43v399h-310q-36 0 -36 33v18q0 33 36 33h310v88l-66 97h-244q-36 0 -36 32v19q0 32 36 32h189l-336 506q-25 41 -25 60q0 18 19 26q7 4 67 4q29 0 52 -38
q321 -481 407 -629q34 62 404 620q30 47 61 47q36 0 57 -4q21 -2 21 -22q0 -23 -21 -53l-344 -517h197q37 0 37 -32v-19q0 -32 -37 -32z" />
    <glyph glyph-name="brokenbar" unicode="&#xa6;" horiz-adv-x="468" 
d="M272 881q0 -39 -36 -39h-35q-35 0 -35 39v551q0 38 37 38h37q32 0 32 -38v-551zM272 2q0 -39 -36 -39h-35q-35 0 -35 39v551q0 39 37 39h37q32 0 32 -39v-551z" />
    <glyph glyph-name="section" unicode="&#xa7;" horiz-adv-x="997" 
d="M713 223q64 -41 94 -95q31 -56 31 -151q0 -129 -84 -219t-287 -90q-204 0 -340 58q-21 8 -21 26q0 21 25 68q4 12 23 12q2 0 10 -2q4 -1 14 -5q8 -3 15 -5q117 -43 280 -43q244 0 244 194q0 92 -49 142q-49 51 -203 114l-117 49q-154 63 -204 138q-50 74 -50 180
q0 219 221 276q-112 66 -112 246q0 51 13 96q15 52 47 98q36 52 106 81q72 30 172 30q152 0 260 -35q20 -6 20 -26q0 -37 -18 -70q-6 -8 -19 -8q-10 0 -45 8q-98 23 -213 23q-207 0 -207 -193q0 -89 43 -136q44 -48 177 -105l129 -56q145 -61 195 -128t50 -183
q0 -115 -55 -188q-56 -74 -145 -101zM799 502q0 77 -35 121t-133 90q-34 18 -102 44q-66 25 -87 36q-28 12 -51 12q-19 0 -41 -6q-61 -15 -101 -64t-40 -135q0 -76 33 -116q32 -39 118 -83q25 -13 122 -54q29 -12 68 -27.5t50 -20.5q22 -8 39 -8q20 0 39 8q53 21 87 76
t34 127z" />
    <glyph glyph-name="dieresis" unicode="&#xa8;" horiz-adv-x="403" 
d="M100 1358q0 -86 -80 -86q-79 0 -79 84q0 88 79 88q80 0 80 -86zM461 1358q0 -86 -80 -86t-80 84q0 88 80 88t80 -86z" />
    <glyph glyph-name="copyright" unicode="&#xa9;" horiz-adv-x="1699" 
d="M1575 707q0 -319 -201 -527q-201 -209 -526 -209t-526 209q-201 208 -201 527q0 317 201 527t524 210q333 0 531 -208t198 -529zM1499 707q0 289 -179 479q-178 188 -474 188q-290 0 -469 -189q-178 -188 -178 -478q0 -289 178 -477q179 -189 471 -189q295 0 473 188
t178 478zM580 713q0 -186 53 -278q52 -91 213 -91q119 0 203 27q29 8 45 8q20 0 26 -25q8 -22 8 -37q0 -20 -26 -30q-100 -41 -264 -41q-186 0 -278 101q-93 102 -93 345q0 245 95 360q94 113 315 113q131 0 198 -14q31 -5 31 -31q0 -24 -10 -53q-6 -14 -23 -14q-5 0 -19 3
t-22 3q-88 8 -160 8q-95 0 -158 -27t-90 -82q-29 -60 -36 -108q-8 -56 -8 -137z" />
    <glyph glyph-name="ordfeminine" unicode="&#xaa;" horiz-adv-x="694" 
d="M582 655q0 -40 -13 -63q-11 -18 -37 -29q-99 -39 -235 -39q-225 0 -225 199q0 103 75 147q62 35 197 35q90 0 143 -6v62q0 60 -10 83q-21 52 -135 52q-76 0 -147 -17q-39 -10 -45 -10q-15 0 -21 16q-4 21 -4 41q0 19 20 25q87 29 211 29q139 0 185 -45q41 -41 41 -162
v-318zM487 829q-52 7 -131 7q-109 0 -155 -29q-35 -23 -35 -82q0 -58 31 -91q30 -32 114 -32q87 0 144 21q19 7 24 22q8 22 8 45v139z" />
    <glyph glyph-name="guillemotleft" unicode="&#xab;" horiz-adv-x="966" 
d="M207 541l270 -336q21 -27 21 -43t-17 -21q-23 -6 -57 -6q-26 0 -55 35l-258 319q-27 30 -27 52q0 17 18 41l263 323q2 2 5.5 6.5t4.5 6.5q8 10 9 11l8 8q6 6 9 7q1 0 5 1.5t6 2.5q8 2 12 2q37 0 61 -6q15 -6 15 -20t-25 -45zM588 541l268 -336q21 -27 21 -43
q0 -19 -17 -21q-18 -6 -55 -6q-26 0 -55 35l-261 319q-26 29 -26 52q0 20 18 41l262 323q7 7 11 12q2 2 5 6.5t4 5.5l8 8q6 6 9 7q1 0 5 1.5t6 2.5q8 2 12 2q37 0 61 -6q17 -6 17 -20t-25 -45z" />
    <glyph glyph-name="logicalnot" unicode="&#xac;" horiz-adv-x="1435" 
d="M1231 104q0 -32 -31 -32h-37q-33 0 -33 32v447h-931q-33 0 -33 35v37q0 34 33 34h1001q31 0 31 -34v-519z" />
    <glyph glyph-name="uni00AD" unicode="&#xad;" horiz-adv-x="606" 
d="M500 489h-394q-32 0 -32 31v51q0 33 35 33h389q34 0 34 -33v-53q0 -29 -32 -29z" />
    <glyph glyph-name="registered" unicode="&#xae;" horiz-adv-x="1699" 
d="M1575 707q0 -319 -201 -527q-201 -209 -526 -209t-526 209q-201 208 -201 527q0 317 201 527t524 210q333 0 531 -208t198 -529zM1499 707q0 289 -179 479q-178 188 -474 188q-290 0 -469 -189q-178 -188 -178 -478q0 -289 178 -477q179 -189 471 -189q295 0 473 188
t178 478zM682 297q0 -31 -31 -31h-45q-31 0 -31 31v735q0 139 134 139h86q171 0 239 -28q125 -51 125 -230q0 -187 -168 -243l197 -338q14 -27 14 -41q0 -17 -22 -23q-25 -4 -54 -4q-25 0 -43 33l-200 354q-32 -2 -80 -2h-121v-352zM682 741h131q115 0 156 19q86 35 86 149
q0 124 -82 152q-39 16 -166 16h-70q-55 0 -55 -59v-277z" />
    <glyph glyph-name="macron" unicode="&#xaf;" horiz-adv-x="403" 
d="M438 1257h-473q-35 0 -35 31v49q0 35 37 35h469q37 0 37 -35v-49q0 -31 -35 -31z" />
    <glyph glyph-name="degree" unicode="&#xb0;" horiz-adv-x="688" 
d="M627 1178q0 -133 -78 -208t-207 -75q-125 0 -202 74t-77 207q0 132 79 207q80 75 210 75q129 0 202 -73t73 -207zM543 1176q0 102 -51 156t-144 54q-91 0 -143 -55q-53 -56 -53 -160q0 -99 54 -151q55 -53 144 -53q91 0 142 55q51 56 51 154z" />
    <glyph glyph-name="plusminus" unicode="&#xb1;" horiz-adv-x="1435" 
d="M768 291q0 -33 -31 -33h-41q-30 0 -30 33v436h-451q-31 0 -31 33v37q0 32 31 32h449v431q0 34 32 34h41q31 0 31 -34v-431h451q32 0 32 -32v-37q0 -33 -32 -33h-451v-436zM1251 35q0 -35 -32 -35h-1004q-31 0 -31 35v35q0 34 31 34h1004q32 0 32 -34v-35z" />
    <glyph glyph-name="twosuperior" unicode="&#xb2;" 
d="M631 860h-502q-55 0 -55 53q0 36 39 66q193 147 325 278q107 102 107 203q0 82 -43 128t-152 46q-71 0 -149 -24q-12 -3 -24.5 -6t-17.5 -4l-5 -1q-12 0 -19 13q-10 26 -10 45q0 15 31 26q99 37 213 37q155 0 214 -65q60 -66 60 -180q0 -140 -113 -248
q-132 -132 -333 -281q102 2 434 2q26 0 26 -22v-41q0 -25 -26 -25z" />
    <glyph glyph-name="threesuperior" unicode="&#xb3;" 
d="M442 1307q189 -17 189 -207q0 -131 -74 -194q-72 -62 -233 -62q-129 0 -195 20q-35 12 -35 31q0 9 15 47q6 12 20 12q3 0 43 -8q64 -16 150 -16q130 0 170 46t40 122q0 81 -47 119q-45 36 -182 38q-45 0 -45 43q0 27 10 36q12 11 37 12q116 2 159 39q44 38 44 106
q0 84 -39 114q-38 29 -145 29q-65 0 -131 -18q-41 -14 -48 -14q-14 0 -20 16q-10 29 -10 39q0 21 28 31q87 32 201 32q148 0 206 -53q56 -52 56 -170q0 -73 -45 -123q-44 -49 -119 -67z" />
    <glyph glyph-name="acute" unicode="&#xb4;" horiz-adv-x="403" 
d="M125 1208q-21 -22 -49 -22q-27 0 -45 6q-19 6 -19 22t15 31l213 264q28 31 61 31q39 0 64 -4q24 -6 24 -27q0 -16 -18 -34z" />
    <glyph glyph-name="mu" unicode="&#xb5;" horiz-adv-x="1222" 
d="M330 -381q0 -37 -37 -37h-45q-37 0 -37 37v1366q0 37 37 37h45q35 0 35 -37v-649q0 -126 20 -170q35 -86 223 -86q182 0 277 37q27 10 37 28q12 21 12 70v770q0 37 37 37h43q37 0 37 -37v-825q0 -92 -62 -119q-142 -68 -399 -68q-173 0 -223 72v-426z" />
    <glyph glyph-name="paragraph" unicode="&#xb6;" horiz-adv-x="1140" 
d="M637 -225q0 -37 -33 -37h-22q-33 0 -33 37v719q-236 0 -345 122q-110 124 -110 332q0 114 25 203q24 86 84 155q59 68 169 104q109 36 269 36h262q51 0 51 -45v-1626q0 -37 -34 -37h-23q-35 0 -35 37v1581h-225v-1581z" />
    <glyph glyph-name="periodcentered" unicode="&#xb7;" horiz-adv-x="430" 
d="M309 551q0 -98 -94 -98t-94 96q0 52 26 75t68 23q94 0 94 -96z" />
    <glyph glyph-name="cedilla" unicode="&#xb8;" horiz-adv-x="403" 
d="M190 -127q117 -2 155 -47q38 -46 38 -127q0 -184 -231 -184q-62 0 -99 8q-26 6 -26 28t6 37q6 23 28 23q7 0 45 -6q32 -2 50 -2q118 0 118 90q0 50 -24 71t-90 21h-33q-33 0 -33 31q0 9 8 57l27 147h84z" />
    <glyph glyph-name="onesuperior" unicode="&#xb9;" 
d="M573 860h-348q-24 0 -24 23v41q0 24 24 24h137v654l-133 -52q-24 -6 -28 -6q-13 0 -17 12q-16 33 -16 50q0 12 16 18l162 66q31 14 60 14h10q45 0 45 -51v-705h110q27 0 27 -24v-43q0 -21 -25 -21z" />
    <glyph glyph-name="ordmasculine" unicode="&#xba;" horiz-adv-x="720" 
d="M643 856q0 -192 -65 -261q-66 -71 -222 -71q-152 0 -216 69q-64 68 -64 259q0 190 74 259t215 69q155 0 217 -63q61 -62 61 -261zM547 852q0 150 -39 197t-146 47q-96 0 -142 -49t-46 -191q0 -153 40 -200q40 -48 144 -48q103 0 146 46t43 198z" />
    <glyph glyph-name="guillemotright" unicode="&#xbb;" horiz-adv-x="966" 
d="M758 543l-269 336q-20 26 -20 43q0 16 16 22q23 6 56 6q25 0 55 -37l258 -317q27 -30 27 -51q0 -18 -17 -41l-262 -326q-37 -43 -59 -43q-45 0 -62 6q-16 4 -16 19q0 12 24 47zM379 543l-270 336q-21 29 -21 43q0 16 16 22q27 6 58 6q25 0 55 -37l258 -317q27 -30 27 -51
q0 -19 -19 -41l-262 -326l-8 -10l-8 -10l-7 -7q-7 -7 -9 -8q-1 0 -3 -1.5t-4 -2.5q-1 -1 -4 -2t-4 -1q-3 -1 -10 -1q-46 0 -62 6q-16 4 -16 19q0 11 25 47z" />
    <glyph glyph-name="onequarter" unicode="&#xbc;" horiz-adv-x="1724" 
d="M1421 25q0 -29 -26 -29h-43q-25 0 -25 29v194h-362q-54 0 -54 43q0 27 25 72l252 481q12 31 37 31q18 0 31 -1t22 -1q12 -4 12 -19q0 -13 -10 -30l-258 -488h305v209q0 27 25 27h43q26 0 26 -27v-209h117q27 0 27 -24v-41q0 -23 -27 -23h-117v-194zM526 -33
q-16 -33 -45 -33t-37 5q-10 6 -10 18q0 11 17 45l677 1409q22 45 50 45q24 0 34 -2q17 -2 17 -18t-21 -56zM573 541h-348q-24 0 -24 22v41q0 25 24 25h137v653l-133 -51q-24 -6 -28 -6q-13 0 -17 12q-16 33 -16 49q0 13 16 19l162 65q31 14 60 14h10q45 0 45 -51v-704h110
q27 0 27 -25v-43q0 -20 -25 -20z" />
    <glyph glyph-name="onehalf" unicode="&#xbd;" horiz-adv-x="1724" 
d="M1530 0h-502q-55 0 -55 53q0 36 39 66q193 147 325 278q107 102 107 203q0 82 -43 128t-152 46q-71 0 -149 -24l-47 -11q-13 0 -19 13q-10 23 -10 45q0 15 31 26q99 37 213 37q155 0 214 -65q60 -66 60 -181q0 -139 -112 -247q-130 -130 -334 -281q102 2 434 2
q26 0 26 -22v-41q0 -25 -26 -25zM500 -33q-16 -33 -45 -33t-37 5q-10 6 -10 18q0 13 16 45l678 1409q22 45 49 45q25 0 35 -2q16 -1 16 -18t-20 -56zM553 541h-348q-25 0 -25 22v41q0 25 25 25h137v653l-133 -51q-24 -6 -29 -6q-12 0 -16 12q-17 36 -17 49t17 19l162 65
q31 14 59 14h10q45 0 45 -51v-704h111q27 0 27 -25v-43q0 -20 -25 -20z" />
    <glyph glyph-name="threequarters" unicode="&#xbe;" horiz-adv-x="1724" 
d="M610 -33q-16 -33 -45 -33t-37 5q-10 6 -10 18q0 11 17 45l677 1409q22 45 50 45q24 0 34 -2q17 -2 17 -18t-21 -56zM520 987q189 -17 189 -207q0 -130 -74 -193q-73 -63 -234 -63q-125 0 -194 21q-35 12 -35 30q0 13 14 48q6 12 21 12q3 0 43 -8q68 -17 149 -17
q130 0 170 46q41 47 41 122q0 81 -47 119q-46 37 -182 39q-45 0 -45 43q0 27 10 36q11 10 37 11q114 2 159 40q44 38 44 105q0 84 -39 114t-146 30q-61 0 -131 -19q-41 -14 -47 -14q-14 0 -20 16q-10 29 -10 39q0 21 28 31q90 33 201 33q148 0 206 -53q56 -52 56 -170
q0 -74 -45 -123q-45 -50 -119 -68zM1493 25q0 -29 -27 -29h-43q-24 0 -24 29v194h-363q-53 0 -53 43q0 27 25 72l252 481q12 31 36 31q19 0 32 -1t22 -1q12 -4 12 -19q0 -13 -10 -30l-258 -488h305v209q0 27 24 27h43q27 0 27 -27v-209h117q26 0 26 -24v-41q0 -23 -26 -23
h-117v-194z" />
    <glyph glyph-name="questiondown" unicode="&#xbf;" horiz-adv-x="817" 
d="M459 592h33q29 0 34 -31q2 -66 2 -108q0 -108 -31 -164q-33 -59 -130 -121q-101 -63 -139 -130t-38 -165q0 -213 240 -213q126 0 236 31q18 6 32 6q21 0 27 -21q10 -23 10 -49q0 -20 -22 -30q-118 -48 -293 -48q-354 0 -354 310q0 129 40 202q41 74 162 158
q94 66 121 106q26 40 31 124q0 27 1 52q1 36 3 58q4 33 35 33zM387 944q0 96 96 96q95 0 95 -96q0 -51 -27 -75q-26 -23 -68 -23q-96 0 -96 98z" />
    <glyph glyph-name="Agrave" unicode="&#xc0;" horiz-adv-x="1198" 
d="M305 475l-153 -432q-6 -22 -18 -38q-8 -11 -28 -11q-52 0 -69 6q-19 6 -19 25q0 9 15 53l465 1292q17 49 39 66q23 18 63 18h23q35 0 54 -18t36 -68l454 -1290q15 -44 15 -53q0 -19 -19 -25q-17 -6 -69 -6q-20 0 -28 11q-9 12 -19 38l-154 432h-588zM340 588h518
l-256 751q-73 -217 -262 -751zM627 1583l-305 215q-23 17 -23 35q0 21 25 27q43 8 77 8q26 0 66 -29l274 -217q21 -15 21 -35q0 -14 -19 -20q-26 -8 -51 -8q-32 0 -65 24z" />
    <glyph glyph-name="Aacute" unicode="&#xc1;" horiz-adv-x="1198" 
d="M305 475l-153 -432q-6 -22 -18 -38q-8 -11 -28 -11q-52 0 -69 6q-19 6 -19 25q0 9 15 53l465 1292q17 49 39 66q23 18 63 18h23q35 0 54 -18t36 -68l454 -1290q15 -44 15 -53q0 -19 -19 -25q-17 -6 -69 -6q-20 0 -28 11q-9 12 -19 38l-154 432h-588zM340 588h518
l-256 751q-73 -217 -262 -751zM569 1565q-34 -25 -65 -25q-25 0 -51 8q-19 6 -19 21q0 20 21 35l274 217q37 28 66 28t77 -8q25 -6 25 -26t-22 -35z" />
    <glyph glyph-name="Acircumflex" unicode="&#xc2;" horiz-adv-x="1198" 
d="M305 475l-153 -432q-6 -22 -18 -38q-8 -11 -28 -11q-52 0 -69 6q-19 6 -19 25q0 9 15 53l465 1292q17 49 39 66q23 18 63 18h23q35 0 54 -18t36 -68l454 -1290q15 -44 15 -53q0 -19 -19 -25q-17 -6 -69 -6q-20 0 -28 11q-9 12 -19 38l-154 432h-588zM340 588h518
l-256 751q-73 -217 -262 -751zM358 1559q-25 0 -43 6t-18 22q0 21 16 33l213 205q34 30 60 30h41q29 0 55 -26l223 -215q10 -7 10 -25t-20 -24q-22 -6 -49 -6q-24 0 -58 28l-186 152l-182 -152q-29 -28 -62 -28z" />
    <glyph glyph-name="Atilde" unicode="&#xc3;" horiz-adv-x="1198" 
d="M305 475l-153 -432q-6 -22 -18 -38q-8 -11 -28 -11q-52 0 -69 6q-19 6 -19 25q0 9 15 53l465 1292q17 49 39 66q23 18 63 18h23q35 0 54 -18t36 -68l454 -1290q15 -44 15 -53q0 -19 -19 -25q-17 -6 -69 -6q-20 0 -28 11q-9 12 -19 38l-154 432h-588zM340 588h518
l-256 751q-73 -217 -262 -751zM334 1583q-26 0 -43 6q-17 8 -17 27q0 10 15 47q61 147 170 147q54 0 164 -61q86 -45 131 -45q58 0 88 82q15 37 41 37q21 0 43 -8q16 -6 16 -23q0 -14 -10 -43q-53 -164 -174 -164q-57 0 -164 55q-103 54 -139 54q-26 0 -43 -17
q-16 -16 -37 -61q-12 -33 -41 -33z" />
    <glyph glyph-name="Adieresis" unicode="&#xc4;" horiz-adv-x="1198" 
d="M305 475l-153 -432q-6 -22 -18 -38q-8 -11 -28 -11q-52 0 -69 6q-19 6 -19 25q0 9 15 53l465 1292q17 49 39 66q23 18 63 18h23q35 0 54 -18t36 -68l454 -1290q15 -44 15 -53q0 -19 -19 -25q-17 -6 -69 -6q-20 0 -28 11q-9 12 -19 38l-154 432h-588zM340 588h518
l-256 751q-73 -217 -262 -751zM492 1675q0 -88 -80 -88t-80 86q0 88 80 88t80 -86zM872 1675q0 -88 -79 -88q-80 0 -80 86q0 88 80 88q79 0 79 -86z" />
    <glyph glyph-name="Aring" unicode="&#xc5;" horiz-adv-x="1198" 
d="M305 475l-153 -432q-6 -22 -18 -38q-8 -11 -28 -11q-52 0 -69 6q-19 6 -19 25q0 9 15 53l465 1292q17 49 39 66q23 18 63 18h23q35 0 54 -18t36 -68l454 -1290q15 -44 15 -53q0 -19 -19 -25q-17 -6 -69 -6q-20 0 -28 11q-9 12 -19 38l-154 432h-588zM340 588h518
l-256 751q-73 -217 -262 -751zM784 1690q0 -90 -51 -136q-52 -47 -135 -47q-81 0 -130 47q-48 46 -48 136q0 88 50 138t134 50t132 -50t48 -138zM717 1694q0 121 -117 121q-54 0 -84 -32q-31 -33 -31 -91q0 -56 32 -90q31 -33 85 -33t84 33q31 34 31 92z" />
    <glyph glyph-name="AE" unicode="&#xc6;" horiz-adv-x="1929" 
d="M465 496l-307 -457q-28 -43 -62 -43q-31 0 -61 2q-27 4 -27 27q0 8 25 49l839 1255q45 68 80 92q36 25 92 25h736q39 0 39 -35v-43q0 -35 -39 -35h-647v-524h585q37 0 37 -35v-43q0 -33 -37 -33h-585v-499q0 -86 77 -86h600q39 0 39 -35v-43q0 -35 -39 -35h-616
q-97 0 -141 38q-43 37 -43 144v314h-545zM532 606h478v719z" />
    <glyph glyph-name="Ccedilla" unicode="&#xc7;" horiz-adv-x="1218" 
d="M692 -131q119 -2 160 -49t41 -131q0 -193 -240 -193q-63 0 -106 10q-27 6 -27 31q0 7 6 37q6 25 33 25l43 -7q24 -4 55 -4q123 0 123 95q0 52 -26 72q-28 22 -95 22h-32q-37 0 -37 30q0 24 10 68l19 100q-247 18 -369 184q-121 164 -121 541q0 415 130 593
q132 180 470 180q195 0 336 -31q49 -12 49 -41q0 -28 -14 -60q-6 -18 -31 -18q-8 0 -65 12q-111 27 -287 27q-122 0 -210 -35q-86 -34 -135 -88q-48 -52 -75 -142q-26 -86 -34 -169q-7 -74 -7 -197t7 -201q8 -86 34 -174q27 -90 73 -145t128 -91t196 -36q163 0 340 47
q55 16 68 16q23 0 33 -28q8 -26 8 -43q0 -26 -47 -41q-176 -58 -387 -62z" />
    <glyph glyph-name="Egrave" unicode="&#xc8;" horiz-adv-x="1136" 
d="M1018 0h-615q-99 0 -143 38q-43 37 -43 146v1076q0 103 40 144q41 42 144 42h588q37 0 37 -35v-43q0 -35 -37 -35h-579q-70 0 -70 -78v-446h586q39 0 39 -35v-43q0 -33 -39 -33h-586v-499q0 -86 80 -86h598q39 0 39 -35v-43q0 -35 -39 -35zM643 1583l-305 215
q-23 17 -23 35q0 21 25 27q43 8 78 8q25 0 65 -29l275 -217q20 -14 20 -35q0 -14 -18 -20q-26 -8 -51 -8q-33 0 -66 24z" />
    <glyph glyph-name="Eacute" unicode="&#xc9;" horiz-adv-x="1136" 
d="M1018 0h-615q-99 0 -143 38q-43 37 -43 146v1076q0 103 40 144q41 42 144 42h588q37 0 37 -35v-43q0 -35 -37 -35h-579q-70 0 -70 -78v-446h586q39 0 39 -35v-43q0 -33 -39 -33h-586v-499q0 -86 80 -86h598q39 0 39 -35v-43q0 -35 -39 -35zM659 1565q-34 -25 -65 -25
q-25 0 -51 8q-19 6 -19 21q0 20 21 35l274 217q37 28 66 28q30 0 78 -8q24 -6 24 -26t-22 -35z" />
    <glyph glyph-name="Ecircumflex" unicode="&#xca;" horiz-adv-x="1136" 
d="M1018 0h-615q-99 0 -143 38q-43 37 -43 146v1076q0 103 40 144q41 42 144 42h588q37 0 37 -35v-43q0 -35 -37 -35h-579q-70 0 -70 -78v-446h586q39 0 39 -35v-43q0 -33 -39 -33h-586v-499q0 -86 80 -86h598q39 0 39 -35v-43q0 -35 -39 -35zM389 1559q-25 0 -43 6t-18 22
q0 21 16 33l213 205q35 30 59 30h41q30 0 56 -26l223 -215q10 -7 10 -25t-20 -24q-21 -6 -49 -6q-21 0 -58 28l-186 152l-182 -152q-29 -28 -62 -28z" />
    <glyph glyph-name="Edieresis" unicode="&#xcb;" horiz-adv-x="1136" 
d="M1018 0h-615q-99 0 -143 38q-43 37 -43 146v1076q0 103 40 144q41 42 144 42h588q37 0 37 -35v-43q0 -35 -37 -35h-579q-70 0 -70 -78v-446h586q39 0 39 -35v-43q0 -33 -39 -33h-586v-499q0 -86 80 -86h598q39 0 39 -35v-43q0 -35 -39 -35zM522 1675q0 -88 -80 -88
t-80 86q0 88 80 88t80 -86zM903 1675q0 -88 -80 -88t-80 86q0 88 80 88t80 -86z" />
    <glyph glyph-name="Igrave" unicode="&#xcc;" horiz-adv-x="557" 
d="M340 35q0 -41 -37 -41h-49q-37 0 -37 41v1378q0 41 39 41h49q35 0 35 -41v-1378zM293 1583l-305 215q-23 17 -23 35q0 21 25 27q43 8 78 8q25 0 65 -29l275 -217q20 -14 20 -35q0 -14 -18 -20q-26 -8 -52 -8q-30 0 -65 24z" />
    <glyph glyph-name="Iacute" unicode="&#xcd;" horiz-adv-x="557" 
d="M340 35q0 -41 -37 -41h-49q-37 0 -37 41v1378q0 41 39 41h49q35 0 35 -41v-1378zM262 1583q-33 -24 -65 -24q-26 0 -52 8q-18 6 -18 20q0 21 20 35l275 217q38 29 65 29q30 0 78 -8q25 -6 25 -27q0 -20 -23 -35z" />
    <glyph glyph-name="Icircumflex" unicode="&#xce;" horiz-adv-x="557" 
d="M340 35q0 -41 -37 -41h-49q-37 0 -37 41v1378q0 41 39 41h49q35 0 35 -41v-1378zM31 1559q-25 0 -43 6q-19 6 -19 22q0 21 17 33l213 205q34 30 59 30h41q29 0 55 -26l224 -215q10 -7 10 -25t-21 -24q-22 -6 -49 -6q-23 0 -57 28l-187 152l-182 -152q-29 -28 -61 -28z
" />
    <glyph glyph-name="Idieresis" unicode="&#xcf;" horiz-adv-x="557" 
d="M340 35q0 -41 -37 -41h-49q-37 0 -37 41v1378q0 41 39 41h49q35 0 35 -41v-1378zM168 1675q0 -88 -80 -88t-80 86q0 88 80 88t80 -86zM549 1675q0 -88 -80 -88t-80 86q0 88 80 88t80 -86z" />
    <glyph glyph-name="Eth" unicode="&#xd0;" horiz-adv-x="1431" 
d="M555 0h-164q-96 0 -135 41t-39 135v524h-133q-33 0 -33 29v45q0 33 35 33h131v457q0 98 39 140t139 42h172q237 0 367 -39q369 -107 369 -668q0 -263 -85 -437q-85 -175 -292 -253q-129 -49 -371 -49zM340 199q0 -86 80 -86h160q216 0 321 49q273 123 273 579
q0 425 -250 543q-105 51 -349 51h-163q-72 0 -72 -80v-448h405q35 0 35 -33v-45q0 -29 -32 -29h-408v-501z" />
    <glyph glyph-name="Ntilde" unicode="&#xd1;" horiz-adv-x="1456" 
d="M338 35q0 -41 -39 -41h-45q-37 0 -37 41v1323q0 51 20 74q19 22 62 22h31q35 0 53 -15t43 -57q532 -930 696 -1245q-4 136 -4 1272q0 43 41 43h45q35 0 35 -41v-1341q0 -80 -72 -80h-32q-36 0 -54 15q-19 16 -43 56q-563 985 -704 1252q4 -349 4 -1278zM461 1583
q-27 0 -43 6q-17 8 -17 27q0 10 15 47q62 147 170 147q54 0 164 -61q86 -45 131 -45q58 0 88 82q15 37 41 37q21 0 43 -8q16 -6 16 -23q0 -14 -10 -43q-53 -164 -174 -164q-57 0 -164 55q-103 54 -139 54q-26 0 -43 -17q-16 -16 -37 -61q-12 -33 -41 -33z" />
    <glyph glyph-name="Ograve" unicode="&#xd2;" horiz-adv-x="1413" 
d="M1284 733q0 -221 -35 -372q-35 -149 -110 -233q-77 -86 -181 -120q-107 -35 -260 -35q-152 0 -253 34q-103 35 -175 119t-107 233q-34 146 -34 372t43 374q44 150 126 228q84 80 181 109q102 31 236 31q120 0 207 -17q86 -17 157 -62q75 -47 116 -128q42 -82 66 -213
q23 -125 23 -320zM1155 731q0 208 -23 327q-24 123 -81 191q-57 67 -136 90q-80 23 -206 23q-115 0 -195 -26q-77 -25 -139 -93q-61 -67 -90 -192q-29 -127 -29 -318q0 -200 28 -335q26 -128 88 -197q61 -68 136 -92q80 -25 194 -25q119 0 192 22q72 22 139 90q64 66 93 197
q29 133 29 338zM748 1583l-306 215q-22 16 -22 35q0 21 24 27q43 8 78 8q26 0 66 -29l274 -217q21 -15 21 -35q0 -14 -19 -20q-26 -8 -51 -8q-32 0 -65 24z" />
    <glyph glyph-name="Oacute" unicode="&#xd3;" horiz-adv-x="1413" 
d="M1284 733q0 -221 -35 -372q-35 -149 -110 -233q-77 -86 -181 -120q-107 -35 -260 -35q-152 0 -253 34q-103 35 -175 119t-107 233q-34 146 -34 372t43 374q44 150 126 228q84 80 181 109q102 31 236 31q120 0 207 -17q86 -17 157 -62q75 -47 116 -128q42 -82 66 -213
q23 -125 23 -320zM1155 731q0 208 -23 327q-24 123 -81 191q-57 67 -136 90q-80 23 -206 23q-115 0 -195 -26q-77 -25 -139 -93q-61 -67 -90 -192q-29 -127 -29 -318q0 -200 28 -335q26 -128 88 -197q61 -68 136 -92q80 -25 194 -25q119 0 192 22q72 22 139 90q64 66 93 197
q29 133 29 338zM686 1583q-35 -24 -65 -24q-26 0 -52 8q-18 6 -18 20q0 21 20 35l275 217q38 29 65 29q30 0 78 -8q25 -6 25 -27q0 -20 -23 -35z" />
    <glyph glyph-name="Ocircumflex" unicode="&#xd4;" horiz-adv-x="1413" 
d="M1284 733q0 -221 -35 -372q-35 -149 -110 -233q-77 -86 -181 -120q-107 -35 -260 -35q-152 0 -253 34q-103 35 -175 119t-107 233q-34 146 -34 372t43 374q44 150 126 228q84 80 181 109q102 31 236 31q120 0 207 -17q86 -17 157 -62q75 -47 116 -128q42 -82 66 -213
q23 -125 23 -320zM1155 731q0 208 -23 327q-24 123 -81 191q-57 67 -136 90q-80 23 -206 23q-115 0 -195 -26q-77 -25 -139 -93q-61 -67 -90 -192q-29 -127 -29 -318q0 -200 28 -335q26 -128 88 -197q61 -68 136 -92q80 -25 194 -25q119 0 192 22q72 22 139 90q64 66 93 197
q29 133 29 338zM467 1559q-25 0 -43 6t-18 22q0 21 16 33l213 205q35 30 59 30h41q30 0 56 -26l223 -215q10 -7 10 -25t-20 -24q-21 -6 -50 -6q-20 0 -57 28l-186 152l-183 -152q-29 -28 -61 -28z" />
    <glyph glyph-name="Otilde" unicode="&#xd5;" horiz-adv-x="1413" 
d="M1284 733q0 -221 -35 -372q-35 -149 -110 -233q-77 -86 -181 -120q-107 -35 -260 -35q-152 0 -253 34q-103 35 -175 119t-107 233q-34 146 -34 372t43 374q44 150 126 228q84 80 181 109q102 31 236 31q120 0 207 -17q86 -17 157 -62q75 -47 116 -128q42 -82 66 -213
q23 -125 23 -320zM1155 731q0 208 -23 327q-24 123 -81 191q-57 67 -136 90q-80 23 -206 23q-115 0 -195 -26q-77 -25 -139 -93q-61 -67 -90 -192q-29 -127 -29 -318q0 -200 28 -335q26 -128 88 -197q61 -68 136 -92q80 -25 194 -25q119 0 192 22q72 22 139 90q64 66 93 197
q29 133 29 338zM446 1583q-26 0 -43 6q-16 7 -16 27q0 12 14 47q61 147 170 147q54 0 164 -61q86 -45 131 -45q58 0 88 82q15 37 41 37q21 0 43 -8q17 -6 17 -23q0 -12 -11 -43q-53 -164 -174 -164q-56 0 -163 55q-103 54 -140 54q-26 0 -43 -17q-16 -16 -37 -61
q-12 -33 -41 -33z" />
    <glyph glyph-name="Odieresis" unicode="&#xd6;" horiz-adv-x="1413" 
d="M1284 733q0 -221 -35 -372q-35 -149 -110 -233q-77 -86 -181 -120q-107 -35 -260 -35q-152 0 -253 34q-103 35 -175 119t-107 233q-34 146 -34 372t43 374q44 150 126 228q84 80 181 109q102 31 236 31q120 0 207 -17q86 -17 157 -62q75 -47 116 -128q42 -82 66 -213
q23 -125 23 -320zM1155 731q0 208 -23 327q-24 123 -81 191q-57 67 -136 90q-80 23 -206 23q-115 0 -195 -26q-77 -25 -139 -93q-61 -67 -90 -192q-29 -127 -29 -318q0 -200 28 -335q26 -128 88 -197q61 -68 136 -92q80 -25 194 -25q119 0 192 22q72 22 139 90q64 66 93 197
q29 133 29 338zM612 1675q0 -88 -80 -88q-79 0 -79 86q0 88 79 88q80 0 80 -86zM993 1675q0 -88 -80 -88q-79 0 -79 86q0 88 79 88q80 0 80 -86z" />
    <glyph glyph-name="multiply" unicode="&#xd7;" horiz-adv-x="1435" 
d="M1126 272q13 -13 13 -22q0 -5 -13 -23l-28 -30q-10 -15 -23 -15q-9 0 -22 13l-338 331l-334 -333q-13 -13 -25 -13q-15 0 -22 10l-29 31q-10 10 -10 23q0 14 10 24l340 338l-342 338q-12 12 -12 25q0 12 12 24l29 29q10 10 22 10q13 0 23 -10l340 -340l342 340
q10 10 24 10q11 0 21 -10l29 -31q10 -10 10 -22q0 -14 -13 -27l-342 -336z" />
    <glyph glyph-name="Oslash" unicode="&#xd8;" horiz-adv-x="1413" 
d="M209 -33q-11 -18 -27 -18q-20 0 -53 26q-14 11 -14 23q0 10 12 27l113 153q-105 174 -105 553q0 226 43 374q44 150 126 228q84 79 182 109q102 31 237 31q269 0 387 -97l86 117q12 18 29 18q4 0 22 -8q41 -27 41 -43q0 -8 -8 -24l-100 -138q110 -165 110 -565
q0 -221 -35 -372q-35 -149 -110 -233q-77 -86 -180 -120q-107 -35 -260 -35q-277 0 -402 123zM1163 731q0 321 -65 455l-721 -987q95 -115 332 -115q117 0 192 22q74 22 139 90q64 67 94 197q29 126 29 338zM262 733q0 -290 60 -440l714 981q-89 88 -321 88q-115 0 -195 -26
q-77 -25 -139 -93q-61 -67 -90 -192q-29 -127 -29 -318z" />
    <glyph glyph-name="Ugrave" unicode="&#xd9;" horiz-adv-x="1413" 
d="M1210 1415v-837q0 -174 -10 -257q-11 -89 -47 -153q-108 -197 -453 -197q-172 0 -284 48t-168 167q-45 94 -45 387v842q0 39 39 39h51q33 0 33 -39v-895q0 -220 47 -299q83 -137 334 -137q264 0 333 129q50 91 50 299v903q0 39 36 39h52q32 0 32 -39zM727 1583l-305 215
q-23 17 -23 35q0 21 25 27q43 8 78 8q25 0 65 -29l275 -217q20 -14 20 -35q0 -14 -18 -20q-26 -8 -51 -8q-32 0 -66 24z" />
    <glyph glyph-name="Uacute" unicode="&#xda;" horiz-adv-x="1413" 
d="M1210 1415v-837q0 -174 -10 -257q-11 -89 -47 -153q-108 -197 -453 -197q-172 0 -284 48t-168 167q-45 94 -45 387v842q0 39 39 39h51q33 0 33 -39v-895q0 -220 47 -299q83 -137 334 -137q264 0 333 129q50 91 50 299v903q0 39 36 39h52q32 0 32 -39zM680 1583
q-33 -24 -66 -24q-25 0 -51 8q-18 6 -18 20q0 21 20 35l275 217q38 29 65 29q30 0 78 -8q25 -6 25 -27q0 -20 -23 -35z" />
    <glyph glyph-name="Ucircumflex" unicode="&#xdb;" horiz-adv-x="1413" 
d="M1210 1415v-837q0 -174 -10 -257q-11 -89 -47 -153q-108 -197 -453 -197q-172 0 -284 48t-168 167q-45 94 -45 387v842q0 39 39 39h51q33 0 33 -39v-895q0 -220 47 -299q83 -137 334 -137q264 0 333 129q50 91 50 299v903q0 39 36 39h52q32 0 32 -39zM463 1559
q-25 0 -43 6q-19 6 -19 22q0 21 17 33l213 205q35 30 59 30h41q29 0 55 -26l224 -215q10 -7 10 -25t-21 -24t-49 -6q-20 0 -57 28l-186 152l-183 -152q-29 -28 -61 -28z" />
    <glyph glyph-name="Udieresis" unicode="&#xdc;" horiz-adv-x="1413" 
d="M1210 1415v-837q0 -174 -10 -257q-11 -89 -47 -153q-108 -197 -453 -197q-172 0 -284 48t-168 167q-45 94 -45 387v842q0 39 39 39h51q33 0 33 -39v-895q0 -220 47 -299q83 -137 334 -137q264 0 333 129q50 91 50 299v903q0 39 36 39h52q32 0 32 -39zM604 1675
q0 -88 -80 -88t-80 86q0 88 80 88t80 -86zM985 1675q0 -88 -80 -88t-80 86q0 88 80 88t80 -86z" />
    <glyph glyph-name="Yacute" unicode="&#xdd;" horiz-adv-x="1118" 
d="M621 37q0 -43 -37 -43h-49q-37 0 -37 43v600l-463 727q-27 40 -27 59q0 21 25 27q16 4 63 4q30 0 54 -39q288 -451 413 -663q58 103 406 653q28 49 61 49q41 0 60 -4q20 -1 20 -23q0 -18 -23 -53l-466 -735v-602zM559 1583q-35 -24 -65 -24q-26 0 -52 8q-18 6 -18 20
q0 21 20 35l275 217q38 29 65 29q30 0 78 -8q25 -6 25 -27q0 -20 -23 -35z" />
    <glyph glyph-name="Thorn" unicode="&#xde;" horiz-adv-x="1263" 
d="M340 332v-297q0 -41 -37 -41h-49q-37 0 -37 41v1378q0 41 39 41h49q35 0 35 -41v-260h231q247 0 353 -45q209 -84 209 -363q0 -307 -271 -385q-99 -28 -280 -28h-242zM340 440h254q185 0 268 37q146 60 146 262q0 205 -146 271q-76 32 -284 32h-238v-602z" />
    <glyph glyph-name="germandbls" unicode="&#xdf;" horiz-adv-x="1112" 
d="M311 33q0 -39 -37 -39h-45q-34 0 -34 39v987q0 234 36 315q44 95 143 149t236 54q184 0 273 -85q90 -85 90 -275q0 -158 -62 -244q-61 -86 -186 -123q173 -22 246 -109q71 -84 71 -266q0 -227 -100 -323q-132 -126 -424 -127q-39 0 -43 24q-2 24 -2 47q0 35 35 35
q277 7 360 113q56 73 56 229q0 160 -83 231q-82 70 -298 76q-30 1 -44 14q-14 12 -14 42q0 49 60 53q131 6 219 81t88 243q0 258 -250 258q-87 0 -160 -35q-71 -34 -100 -97q-31 -74 -31 -272v-995z" />
    <glyph glyph-name="agrave" unicode="&#xe0;" horiz-adv-x="1069" 
d="M889 172q0 -53 -17 -84q-12 -29 -49 -47q-125 -68 -366 -68q-199 0 -274 87q-74 86 -74 237q0 169 118 238q102 57 312 57q155 0 235 -12v114q0 114 -16 152q-16 43 -65 68q-48 24 -165 24q-129 0 -239 -29q-51 -16 -66 -16q-20 0 -24 20q-11 31 -11 52q0 19 29 30
q148 49 334 49q208 0 276 -71q39 -39 50 -96q12 -60 12 -166v-539zM774 483q-86 11 -225 11q-192 0 -266 -50q-60 -37 -60 -145q0 -110 52 -166q53 -57 200 -57q157 0 244 35q30 12 45 36q10 20 10 68v268zM530 1208l-245 267q-19 19 -19 30q0 23 25 29q21 6 63 6
q36 0 60 -29l215 -266q14 -14 14 -31q0 -16 -18 -22q-15 -6 -45 -6q-29 0 -50 22z" />
    <glyph glyph-name="aacute" unicode="&#xe1;" horiz-adv-x="1069" 
d="M889 172q0 -53 -17 -84q-12 -29 -49 -47q-125 -68 -366 -68q-199 0 -274 87q-74 86 -74 237q0 169 118 238q102 57 312 57q155 0 235 -12v114q0 114 -16 152q-16 43 -65 68q-48 24 -165 24q-129 0 -239 -29q-51 -16 -66 -16q-20 0 -24 20q-11 31 -11 52q0 19 29 30
q148 49 334 49q208 0 276 -71q39 -39 50 -96q12 -60 12 -166v-539zM774 483q-86 11 -225 11q-192 0 -266 -50q-60 -37 -60 -145q0 -110 52 -166q53 -57 200 -57q157 0 244 35q30 12 45 36q10 20 10 68v268zM537 1208q-21 -22 -50 -22q-27 0 -45 6t-18 22q0 17 14 31l213 264
q25 31 62 31q38 0 63 -4q25 -6 25 -27q0 -15 -19 -34z" />
    <glyph glyph-name="acircumflex" unicode="&#xe2;" horiz-adv-x="1069" 
d="M889 172q0 -53 -17 -84q-12 -29 -49 -47q-125 -68 -366 -68q-199 0 -274 87q-74 86 -74 237q0 169 118 238q102 57 312 57q155 0 235 -12v114q0 114 -16 152q-16 43 -65 68q-48 24 -165 24q-129 0 -239 -29q-51 -16 -66 -16q-20 0 -24 20q-11 31 -11 52q0 19 29 30
q148 49 334 49q208 0 276 -71q39 -39 50 -96q12 -60 12 -166v-539zM774 483q-86 11 -225 11q-192 0 -266 -50q-60 -37 -60 -145q0 -110 52 -166q53 -57 200 -57q157 0 244 35q30 12 45 36q10 20 10 68v268zM305 1169q-23 0 -41 7q-20 6 -20 20q0 10 14 31l199 278
q25 31 55 31h39q31 0 49 -27l197 -278q16 -20 16 -33q0 -16 -18 -22q-19 -7 -43 -7q-28 0 -50 27l-176 225l-172 -221q-28 -31 -49 -31z" />
    <glyph glyph-name="atilde" unicode="&#xe3;" horiz-adv-x="1069" 
d="M889 172q0 -53 -17 -84q-12 -29 -49 -47q-125 -68 -366 -68q-199 0 -274 87q-74 86 -74 237q0 169 118 238q102 57 312 57q155 0 235 -12v114q0 114 -16 152q-16 43 -65 68q-48 24 -165 24q-129 0 -239 -29q-51 -16 -66 -16q-20 0 -24 20q-11 31 -11 52q0 19 29 30
q148 49 334 49q208 0 276 -71q39 -39 50 -96q12 -60 12 -166v-539zM774 483q-86 11 -225 11q-192 0 -266 -50q-60 -37 -60 -145q0 -110 52 -166q53 -57 200 -57q157 0 244 35q30 12 45 36q10 20 10 68v268zM264 1237q-26 0 -37 4q-20 6 -20 23q0 13 12 43q63 151 162 151
q51 0 158 -61q85 -47 127 -47q30 0 47 16q19 17 35 66q14 36 38 36q20 0 39 -4q19 -6 19 -24q0 -19 -10 -45q-28 -87 -68 -124q-39 -36 -96 -36q-56 0 -160 55q-106 53 -129 53q-24 0 -42 -15t-36 -60q-12 -31 -39 -31z" />
    <glyph glyph-name="adieresis" unicode="&#xe4;" horiz-adv-x="1069" 
d="M889 172q0 -53 -17 -84q-12 -29 -49 -47q-125 -68 -366 -68q-199 0 -274 87q-74 86 -74 237q0 169 118 238q102 57 312 57q155 0 235 -12v114q0 114 -16 152q-16 43 -65 68q-48 24 -165 24q-129 0 -239 -29q-51 -16 -66 -16q-20 0 -24 20q-11 31 -11 52q0 19 29 30
q148 49 334 49q208 0 276 -71q39 -39 50 -96q12 -60 12 -166v-539zM774 483q-86 11 -225 11q-192 0 -266 -50q-60 -37 -60 -145q0 -110 52 -166q53 -57 200 -57q157 0 244 35q30 12 45 36q10 20 10 68v268zM446 1358q0 -86 -79 -86q-80 0 -80 84q0 88 80 88q79 0 79 -86z
M807 1358q0 -86 -80 -86t-80 84q0 88 80 88t80 -86z" />
    <glyph glyph-name="aring" unicode="&#xe5;" horiz-adv-x="1069" 
d="M889 172q0 -53 -17 -84q-12 -29 -49 -47q-125 -68 -366 -68q-199 0 -274 87q-74 86 -74 237q0 169 118 238q102 57 312 57q155 0 235 -12v114q0 114 -16 152q-16 43 -65 68q-48 24 -165 24q-129 0 -239 -29q-51 -16 -66 -16q-20 0 -24 20q-11 31 -11 52q0 19 29 30
q148 49 334 49q208 0 276 -71q39 -39 50 -96q12 -60 12 -166v-539zM774 483q-86 11 -225 11q-192 0 -266 -50q-60 -37 -60 -145q0 -110 52 -166q53 -57 200 -57q157 0 244 35q30 12 45 36q10 20 10 68v268zM723 1372q0 -91 -53 -141q-52 -49 -144 -49q-87 0 -137 49
q-51 49 -51 141t53 145q52 52 141 52q92 0 141 -51q50 -52 50 -146zM653 1376q0 62 -33 95q-34 34 -92 34q-55 0 -89 -34q-33 -33 -33 -97q0 -63 33 -96q35 -35 91 -35q58 0 91 35q32 33 32 98z" />
    <glyph glyph-name="ae" unicode="&#xe6;" horiz-adv-x="1705" 
d="M870 113q-145 -140 -405 -140q-199 0 -278 87q-78 85 -78 241t120 227q102 58 326 58q149 0 219 -2v104q0 114 -16 156q-16 44 -67 69q-52 25 -167 25q-110 0 -235 -29q-10 -1 -25 -6q-10 -3 -24 -7q-11 -3 -19 -3q-17 0 -24 22q-7 35 -7 50q0 21 31 32q155 47 324 47
q150 0 225 -37t92 -145q91 182 357 182q124 0 201 -32q79 -33 117 -104q38 -72 50 -152q12 -82 12 -211q0 -34 -14 -45q-11 -11 -41 -11h-655q1 -234 83 -323q81 -88 259 -88q135 0 260 35q33 10 43 10q19 0 27 -19q12 -38 12 -47q0 -23 -31 -34q-132 -50 -311 -50
q-260 0 -361 140zM774 489q-113 0 -219 -2q-216 -5 -276 -53q-56 -45 -56 -133q0 -109 57 -167t205 -58q93 0 194 31q97 30 144 86q-49 107 -49 296zM891 588h592q2 22 2 45q0 155 -57 234t-218 79q-174 0 -244 -91t-75 -267z" />
    <glyph glyph-name="ccedilla" unicode="&#xe7;" horiz-adv-x="937" 
d="M522 -127q117 -2 155 -47q38 -46 38 -127q0 -184 -232 -184q-61 0 -98 8q-27 6 -27 28q0 19 7 37q6 23 28 23q7 0 45 -6q32 -2 49 -2q119 0 119 90q0 50 -24 71t-90 21h-33q-33 0 -33 31q0 9 8 57l19 104q-167 18 -253 140q-85 121 -85 377q0 287 106 418
q107 132 354 132q133 0 232 -24q35 -8 35 -33q0 -14 -13 -55q-8 -23 -26 -23q-5 0 -15 2q-1 0 -5 1t-7.5 2t-7.5 1q-5 1 -12 3t-8 2q-96 18 -183 18t-150 -24q-66 -25 -98 -60q-35 -38 -54 -96q-19 -60 -24 -114q-6 -72 -6 -130q0 -102 12 -174t42 -135q30 -64 93 -95
q64 -32 159 -32q121 0 237 28q44 13 49 13q17 0 25 -19q10 -29 10 -45q0 -28 -31 -39q-129 -43 -292 -43z" />
    <glyph glyph-name="egrave" unicode="&#xe8;" horiz-adv-x="1048" 
d="M231 479q1 -232 86 -317q84 -84 265 -84q134 0 239 33q41 12 56 12q18 0 24 -17q14 -27 14 -49q0 -24 -32 -34q-135 -50 -312 -50q-249 0 -354 125q-104 123 -104 408q0 284 113 410q114 128 341 128q126 0 201 -33q77 -34 115 -107q35 -68 48 -150q11 -72 11 -203
q0 -48 -14 -62q-10 -10 -41 -10h-656zM233 578h590q2 22 2 55q0 153 -54 230t-214 77q-179 0 -249 -93t-75 -269zM561 1208l-246 267q-18 18 -18 30q0 23 25 29q22 6 63 6q35 0 59 -29l215 -266q15 -15 15 -31t-19 -22q-17 -6 -45 -6t-49 22z" />
    <glyph glyph-name="eacute" unicode="&#xe9;" horiz-adv-x="1048" 
d="M231 479q1 -232 86 -317q84 -84 265 -84q134 0 239 33q41 12 56 12q18 0 24 -17q14 -27 14 -49q0 -24 -32 -34q-135 -50 -312 -50q-249 0 -354 125q-104 123 -104 408q0 284 113 410q114 128 341 128q126 0 201 -33q77 -34 115 -107q35 -68 48 -150q11 -72 11 -203
q0 -48 -14 -62q-10 -10 -41 -10h-656zM233 578h590q2 22 2 55q0 153 -54 230t-214 77q-179 0 -249 -93t-75 -269zM530 1208q-21 -22 -49 -22q-27 0 -45 6t-18 22q0 17 14 31l213 264q28 31 62 31q38 0 63 -4q25 -6 25 -27q0 -15 -19 -34z" />
    <glyph glyph-name="ecircumflex" unicode="&#xea;" horiz-adv-x="1048" 
d="M231 479q1 -232 86 -317q84 -84 265 -84q134 0 239 33q41 12 56 12q18 0 24 -17q14 -27 14 -49q0 -24 -32 -34q-135 -50 -312 -50q-249 0 -354 125q-104 123 -104 408q0 284 113 410q114 128 341 128q126 0 201 -33q77 -34 115 -107q35 -68 48 -150q11 -72 11 -203
q0 -48 -14 -62q-10 -10 -41 -10h-656zM233 578h590q2 22 2 55q0 153 -54 230t-214 77q-179 0 -249 -93t-75 -269zM328 1169q-22 0 -41 7q-21 6 -21 20q0 8 15 31l198 278q25 31 56 31h38q32 0 50 -27l196 -278q17 -22 17 -33q0 -16 -19 -22q-18 -7 -43 -7q-26 0 -49 27
l-176 225l-172 -221q-28 -31 -49 -31z" />
    <glyph glyph-name="edieresis" unicode="&#xeb;" horiz-adv-x="1048" 
d="M231 479q1 -232 86 -317q84 -84 265 -84q134 0 239 33q41 12 56 12q18 0 24 -17q14 -27 14 -49q0 -24 -32 -34q-135 -50 -312 -50q-249 0 -354 125q-104 123 -104 408q0 284 113 410q114 128 341 128q126 0 201 -33q77 -34 115 -107q35 -68 48 -150q11 -72 11 -203
q0 -48 -14 -62q-10 -10 -41 -10h-656zM233 578h590q2 22 2 55q0 153 -54 230t-214 77q-179 0 -249 -93t-75 -269zM446 1358q0 -86 -79 -86q-80 0 -80 84q0 88 80 88q79 0 79 -86zM807 1358q0 -86 -80 -86t-80 84q0 88 80 88t80 -86z" />
    <glyph glyph-name="igrave" unicode="&#xec;" horiz-adv-x="477" 
d="M248 1208l-246 267q-18 18 -18 30q0 23 24 29q21 6 64 6q35 0 59 -29l215 -266q14 -14 14 -31q0 -16 -18 -22q-16 -6 -45 -6q-28 0 -49 22zM297 33q0 -39 -35 -39h-45q-35 0 -35 39v950q0 39 35 39h45q35 0 35 -39v-950z" />
    <glyph glyph-name="iacute" unicode="&#xed;" horiz-adv-x="477" 
d="M240 1208q-21 -22 -50 -22q-27 0 -45 6t-18 22q0 17 14 31l213 264q28 31 62 31q38 0 63 -4q25 -6 25 -27q0 -15 -19 -34zM297 33q0 -39 -35 -39h-45q-35 0 -35 39v950q0 39 35 39h45q35 0 35 -39v-950z" />
    <glyph glyph-name="icircumflex" unicode="&#xee;" horiz-adv-x="477" 
d="M297 33q0 -39 -35 -39h-45q-35 0 -35 39v950q0 39 35 39h45q35 0 35 -39v-950zM16 1169q-24 0 -41 7q-20 6 -20 20q0 10 14 31l199 278q25 31 55 31h39q31 0 49 -27l197 -278q16 -20 16 -33q0 -16 -18 -22q-18 -7 -43 -7q-27 0 -49 27l-176 225l-172 -221
q-28 -31 -50 -31z" />
    <glyph glyph-name="idieresis" unicode="&#xef;" horiz-adv-x="477" 
d="M137 1358q0 -86 -80 -86t-80 84q0 88 80 88t80 -86zM498 1358q0 -86 -80 -86t-80 84q0 88 80 88t80 -86zM297 33q0 -39 -35 -39h-45q-35 0 -35 39v950q0 39 35 39h45q35 0 35 -39v-950z" />
    <glyph glyph-name="eth" unicode="&#xf0;" horiz-adv-x="1103" 
d="M963 1442l-148 -99q110 -128 143 -326t33 -499q0 -213 -50 -336q-49 -121 -142 -165t-248 -44q-157 0 -247 41q-89 41 -139 160q-50 120 -50 338q0 163 31 269q31 107 97 162q67 56 139 76q75 21 179 21q87 0 175 -27q89 -27 124 -95q-33 239 -141 362l-182 -119
q-21 -14 -33 -14q-14 0 -33 31q-14 15 -14 28q0 14 18 25l172 112q-111 78 -301 93q-31 5 -31 24q0 21 7 49q4 21 30 21q28 0 58 -2q212 -21 338 -119l157 104q18 13 29 13q8 0 20 -15q25 -31 25 -45q0 -12 -16 -24zM872 508q0 186 -33 275q-35 93 -96 123t-182 30
q-174 0 -251 -86t-77 -334q0 -187 36 -283q35 -94 100 -125q63 -30 184 -30q87 0 138 13q53 14 97 56q46 44 65 132q19 86 19 229z" />
    <glyph glyph-name="ntilde" unicode="&#xf1;" horiz-adv-x="1163" 
d="M297 33q0 -39 -37 -39h-43q-37 0 -37 39v805q0 82 64 116q174 86 440 86q134 0 193 -29q62 -30 86 -93q20 -47 20 -201v-684q0 -39 -37 -39h-45q-35 0 -35 39v667q0 108 -16 150q-15 43 -57 63q-44 21 -140 21q-183 0 -307 -53q-26 -16 -37 -33q-12 -21 -12 -62v-753z
M326 1237q-26 0 -37 4q-21 6 -21 23q0 10 13 43q63 151 161 151q51 0 158 -61q85 -47 127 -47q30 0 47 16q19 17 35 66q14 36 39 36q20 0 39 -4q18 -6 18 -24q0 -19 -10 -45q-28 -87 -68 -124q-39 -36 -96 -36q-56 0 -160 55q-106 53 -129 53q-24 0 -42 -15q-16 -14 -35 -60
q-12 -31 -39 -31z" />
    <glyph glyph-name="ograve" unicode="&#xf2;" horiz-adv-x="1105" 
d="M991 518q0 -317 -100 -430q-101 -115 -344 -115q-237 0 -335 112q-97 110 -97 427q0 163 31 269t95 164t138 78q76 21 182 21q102 0 160 -11q64 -12 119 -42q56 -30 86 -89t48 -152q17 -89 17 -232zM872 508q0 187 -32 276q-33 93 -97 123q-65 31 -186 31
q-168 0 -246 -86t-78 -336q0 -183 35 -280q35 -96 99 -127q65 -31 182 -31q90 0 141 13q53 14 98 57q45 44 65 132q19 85 19 228zM559 1208l-246 267q-18 18 -18 30q0 23 24 29q21 6 64 6q35 0 59 -29l215 -266q15 -15 15 -31t-19 -22q-15 -6 -45 -6q-28 0 -49 22z" />
    <glyph glyph-name="oacute" unicode="&#xf3;" horiz-adv-x="1105" 
d="M991 518q0 -317 -100 -430q-101 -115 -344 -115q-237 0 -335 112q-97 110 -97 427q0 163 31 269t95 164t138 78q76 21 182 21q102 0 160 -11q64 -12 119 -42q56 -30 86 -89t48 -152q17 -89 17 -232zM872 508q0 187 -32 276q-33 93 -97 123q-65 31 -186 31
q-168 0 -246 -86t-78 -336q0 -183 35 -280q35 -96 99 -127q65 -31 182 -31q90 0 141 13q53 14 98 57q45 44 65 132q19 85 19 228zM543 1208q-21 -22 -49 -22q-27 0 -45 6q-19 6 -19 22q0 17 14 31l213 264q28 31 62 31q38 0 63 -4q25 -6 25 -27q0 -15 -19 -34z" />
    <glyph glyph-name="ocircumflex" unicode="&#xf4;" horiz-adv-x="1105" 
d="M991 518q0 -317 -100 -430q-101 -115 -344 -115q-237 0 -335 112q-97 110 -97 427q0 163 31 269t95 164t138 78q76 21 182 21q102 0 160 -11q64 -12 119 -42q56 -30 86 -89t48 -152q17 -89 17 -232zM872 508q0 187 -32 276q-33 93 -97 123q-65 31 -186 31
q-168 0 -246 -86t-78 -336q0 -183 35 -280q35 -96 99 -127q65 -31 182 -31q90 0 141 13q53 14 98 57q45 44 65 132q19 85 19 228zM344 1169q-22 0 -41 7q-20 6 -20 20q0 10 14 31l199 278q25 31 55 31h39q31 0 49 -27l197 -278q16 -20 16 -33q0 -16 -18 -22q-18 -7 -43 -7
q-27 0 -50 27l-176 225l-172 -221q-28 -31 -49 -31z" />
    <glyph glyph-name="otilde" unicode="&#xf5;" horiz-adv-x="1105" 
d="M991 518q0 -317 -100 -430q-101 -115 -344 -115q-237 0 -335 112q-97 110 -97 427q0 163 31 269t95 164t138 78q76 21 182 21q102 0 160 -11q64 -12 119 -42q56 -30 86 -89t48 -152q17 -89 17 -232zM872 508q0 187 -32 276q-33 93 -97 123q-65 31 -186 31
q-168 0 -246 -86t-78 -336q0 -183 35 -280q35 -96 99 -127q65 -31 182 -31q90 0 141 13q53 14 98 57q45 44 65 132q19 85 19 228zM297 1237q-26 0 -37 4q-20 6 -20 23q0 13 12 43q63 151 162 151q50 0 157 -61q85 -47 127 -47q30 0 47 16q19 17 35 66q14 36 39 36
q20 0 39 -4q19 -6 19 -24q0 -17 -11 -45q-28 -88 -67 -124t-97 -36q-55 0 -159 55q-106 53 -129 53q-24 0 -42 -15t-36 -60q-12 -31 -39 -31z" />
    <glyph glyph-name="odieresis" unicode="&#xf6;" horiz-adv-x="1105" 
d="M991 518q0 -317 -100 -430q-101 -115 -344 -115q-237 0 -335 112q-97 110 -97 427q0 163 31 269t95 164t138 78q76 21 182 21q102 0 160 -11q64 -12 119 -42q56 -30 86 -89t48 -152q17 -89 17 -232zM872 508q0 187 -32 276q-33 93 -97 123q-65 31 -186 31
q-168 0 -246 -86t-78 -336q0 -183 35 -280q35 -96 99 -127q65 -31 182 -31q90 0 141 13q53 14 98 57q45 44 65 132q19 85 19 228zM461 1358q0 -86 -80 -86t-80 84q0 88 80 88t80 -86zM821 1358q0 -86 -80 -86q-79 0 -79 84q0 88 79 88q80 0 80 -86z" />
    <glyph glyph-name="divide" unicode="&#xf7;" horiz-adv-x="1435" 
d="M717 846q-32 0 -52 20q-22 22 -22 64q0 84 76 84q72 0 72 -84q0 -42 -21 -63t-53 -21zM1221 551h-1006q-31 0 -31 35v37q0 34 31 34h1006q28 0 28 -34v-37q0 -35 -28 -35zM717 184q-74 0 -74 84q0 82 76 82q72 0 72 -82q0 -41 -21 -62q-22 -22 -53 -22z" />
    <glyph glyph-name="oslash" unicode="&#xf8;" horiz-adv-x="1105" 
d="M207 -57q-12 -17 -25 -17q-18 0 -49 25q-14 11 -14 22t12 27l76 104q-90 124 -90 408q0 164 34 270q35 110 99 164q67 56 142 77q76 21 183 21q185 0 279 -51l78 107q10 16 29 16q11 0 22 -8q35 -23 35 -37q0 -8 -8 -24l-84 -115q92 -118 92 -414q0 -313 -107 -429
t-348 -116q-191 0 -287 66zM901 508q0 230 -49 321l-510 -700q68 -51 223 -51q93 0 145 13q56 14 102 56q48 43 69 132q20 84 20 229zM233 516q0 -205 48 -309l505 692q-68 41 -215 41q-178 0 -258 -86t-80 -338z" />
    <glyph glyph-name="ugrave" unicode="&#xf9;" horiz-adv-x="1163" 
d="M180 326v659q0 37 37 37h45q35 0 35 -37v-647q0 -126 20 -170q34 -88 224 -88q181 0 276 37q27 10 37 28q12 21 12 70v770q0 37 37 37h43q37 0 37 -37v-823q0 -93 -61 -121q-142 -68 -410 -68q-254 0 -305 133q-27 63 -27 220zM584 1212l-246 267q-19 19 -19 30
q0 23 25 29q21 6 64 6q35 0 59 -28l215 -267q14 -14 14 -30q0 -17 -18 -23q-16 -6 -45 -6q-28 0 -49 22z" />
    <glyph glyph-name="uacute" unicode="&#xfa;" horiz-adv-x="1163" 
d="M180 326v659q0 37 37 37h45q35 0 35 -37v-647q0 -126 20 -170q34 -88 224 -88q181 0 276 37q27 10 37 28q12 21 12 70v770q0 37 37 37h43q37 0 37 -37v-823q0 -93 -61 -121q-142 -68 -410 -68q-254 0 -305 133q-27 63 -27 220zM575 1208q-21 -22 -49 -22q-27 0 -45 6
t-18 22q0 17 14 31l213 264q28 31 62 31q38 0 63 -4q25 -6 25 -27q0 -15 -19 -34z" />
    <glyph glyph-name="ucircumflex" unicode="&#xfb;" horiz-adv-x="1163" 
d="M180 326v659q0 37 37 37h45q35 0 35 -37v-647q0 -126 20 -170q34 -88 224 -88q181 0 276 37q27 10 37 28q12 21 12 70v770q0 37 37 37h43q37 0 37 -37v-823q0 -93 -61 -121q-142 -68 -410 -68q-254 0 -305 133q-27 63 -27 220zM360 1169q-22 0 -41 7q-20 6 -20 20
q0 10 14 31l199 278q25 31 55 31h39q31 0 49 -27l197 -278q16 -20 16 -33q0 -16 -18 -22q-18 -7 -43 -7q-27 0 -49 27l-176 225l-172 -221q-28 -31 -50 -31z" />
    <glyph glyph-name="udieresis" unicode="&#xfc;" horiz-adv-x="1163" 
d="M180 326v659q0 37 37 37h45q35 0 35 -37v-647q0 -126 20 -170q34 -88 224 -88q181 0 276 37q27 10 37 28q12 21 12 70v770q0 37 37 37h43q37 0 37 -37v-823q0 -93 -61 -121q-142 -68 -410 -68q-254 0 -305 133q-27 63 -27 220zM481 1358q0 -86 -80 -86q-79 0 -79 84
q0 88 79 88q80 0 80 -86zM842 1358q0 -86 -80 -86t-80 84q0 88 80 88t80 -86z" />
    <glyph glyph-name="yacute" unicode="&#xfd;" horiz-adv-x="1163" 
d="M180 305v680q0 37 37 37h45q35 0 35 -37v-663q0 -111 18 -156q33 -84 209 -84q188 0 291 53q32 19 39 33q12 21 12 63v754q0 37 37 37h43q37 0 37 -37v-965q0 -144 -33 -249q-82 -250 -596 -250q-44 0 -45 26q-4 29 -4 45q0 35 35 35q173 5 276 28q107 24 148 57
q43 34 67 87q31 74 31 191v63q-130 -80 -366 -80q-242 0 -291 129q-25 70 -25 203zM580 1208q-21 -22 -50 -22q-27 0 -45 6t-18 22q0 17 14 31l213 264q28 31 62 31q38 0 63 -4q25 -6 25 -27q0 -15 -19 -34z" />
    <glyph glyph-name="thorn" unicode="&#xfe;" horiz-adv-x="1134" 
d="M297 -463q0 -37 -35 -37h-47q-33 0 -33 37v1958q0 37 33 37h49q33 0 33 -37v-549q101 94 344 94q209 0 293 -117q86 -119 86 -403q0 -314 -108 -429q-108 -116 -367 -116q-153 0 -248 43v-481zM297 188q0 -58 39 -75q80 -33 203 -33q216 0 290 92t74 344q0 226 -57 321
t-225 95q-167 0 -273 -47q-36 -16 -43 -35q-8 -18 -8 -70v-592z" />
    <glyph glyph-name="ydieresis" unicode="&#xff;" horiz-adv-x="1163" 
d="M180 305v680q0 37 37 37h45q35 0 35 -37v-663q0 -111 18 -156q33 -84 209 -84q188 0 291 53q32 19 39 33q12 21 12 63v754q0 37 37 37h43q37 0 37 -37v-965q0 -144 -33 -249q-82 -250 -596 -250q-44 0 -45 26q-4 29 -4 45q0 35 35 35q173 5 276 28q107 24 148 57
q43 34 67 87q31 74 31 191v63q-130 -80 -366 -80q-242 0 -291 129q-25 70 -25 203zM492 1358q0 -86 -80 -86t-80 84q0 88 80 88t80 -86zM852 1358q0 -86 -80 -86t-80 84q0 88 80 88t80 -86z" />
    <glyph glyph-name="Amacron" unicode="&#x100;" horiz-adv-x="1198" 
d="M305 475l-153 -432q-6 -22 -18 -38q-8 -11 -28 -11q-52 0 -69 6q-19 6 -19 25q0 9 15 53l465 1292q17 49 39 66q23 18 63 18h23q35 0 54 -18t36 -68l454 -1290q15 -44 15 -53q0 -19 -19 -25q-17 -6 -69 -6q-20 0 -28 11q-9 12 -19 38l-154 432h-588zM340 588h518
l-256 751q-73 -217 -262 -751zM854 1632h-512q-35 0 -35 31v49q0 33 37 33h508q37 0 37 -33v-51q0 -29 -35 -29z" />
    <glyph glyph-name="amacron" unicode="&#x101;" horiz-adv-x="1069" 
d="M889 172q0 -53 -17 -84q-12 -29 -49 -47q-125 -68 -366 -68q-199 0 -274 87q-74 86 -74 237q0 169 118 238q102 57 312 57q155 0 235 -12v114q0 114 -16 152q-16 43 -65 68q-48 24 -165 24q-129 0 -239 -29q-51 -16 -66 -16q-20 0 -24 20q-11 31 -11 52q0 19 29 30
q148 49 334 49q208 0 276 -71q39 -39 50 -96q12 -60 12 -166v-539zM774 483q-86 11 -225 11q-192 0 -266 -50q-60 -37 -60 -145q0 -110 52 -166q53 -57 200 -57q157 0 244 35q30 12 45 36q10 20 10 68v268zM768 1257h-473q-35 0 -35 31v49q0 35 37 35h469q37 0 37 -35v-49
q0 -31 -35 -31z" />
    <glyph glyph-name="Abreve" unicode="&#x102;" horiz-adv-x="1198" 
d="M305 475l-153 -432q-6 -22 -18 -38q-8 -11 -28 -11q-52 0 -69 6q-19 6 -19 25q0 9 15 53l465 1292q17 49 39 66q23 18 63 18h23q35 0 54 -18t36 -68l454 -1290q15 -44 15 -53q0 -19 -19 -25q-17 -6 -69 -6q-20 0 -28 11q-9 12 -19 38l-154 432h-588zM340 588h518
l-256 751q-73 -217 -262 -751zM596 1559q-137 0 -199 52q-64 54 -82 146q-6 30 -6 47q0 31 23 39q22 8 49 8q21 0 27 -28q12 -80 53 -119t135 -39q101 0 144 40q45 42 57 118q6 28 32 28q30 0 45 -6q17 -6 17 -26q0 -24 -10 -68q-47 -192 -285 -192z" />
    <glyph glyph-name="abreve" unicode="&#x103;" horiz-adv-x="1069" 
d="M889 172q0 -53 -17 -84q-12 -29 -49 -47q-125 -68 -366 -68q-199 0 -274 87q-74 86 -74 237q0 169 118 238q102 57 312 57q155 0 235 -12v114q0 114 -16 152q-16 43 -65 68q-48 24 -165 24q-129 0 -239 -29q-51 -16 -66 -16q-20 0 -24 20q-11 31 -11 52q0 19 29 30
q148 49 334 49q208 0 276 -71q39 -39 50 -96q12 -60 12 -166v-539zM774 483q-86 11 -225 11q-192 0 -266 -50q-60 -37 -60 -145q0 -110 52 -166q53 -57 200 -57q157 0 244 35q30 12 45 36q10 20 10 68v268zM754 1475q16 0 39 -5q16 -4 16 -28q0 -25 -8 -68
q-45 -201 -275 -201q-123 0 -184 53q-60 52 -82 150q-6 21 -6 58q0 25 20 32q25 9 41 9q27 0 29 -27q12 -81 53 -125q40 -43 131 -43q95 0 137 42q41 41 56 124q6 29 33 29z" />
    <glyph glyph-name="Aogonek" unicode="&#x104;" horiz-adv-x="1198" 
d="M305 475l-153 -432q-6 -22 -18 -38q-8 -11 -27 -11q-54 0 -70 6q-19 6 -19 25q0 9 15 53l465 1292q17 49 39 66q23 18 63 18h23q35 0 54 -18t36 -68l452 -1286q15 -43 15 -53q0 -19 -17 -31q-106 -70 -153 -127q-43 -52 -43 -135q0 -117 123 -117q30 0 61 4t41 4
q19 0 25 -22q6 -18 6 -37q0 -26 -27 -33q-46 -14 -125 -14q-107 0 -163 52t-56 151q0 103 51 163q49 58 160 121q-3 4 -16 35l-154 432h-588zM340 588h518l-256 751q-73 -217 -262 -751z" />
    <glyph glyph-name="aogonek" unicode="&#x105;" horiz-adv-x="1069" 
d="M889 172q0 -53 -17 -84q-12 -27 -51 -51q-207 -127 -207 -287q0 -110 119 -110q14 0 58 2q9 0 18 0.5t13.5 1t6.5 0.5q17 0 23 -19q6 -24 6 -39q0 -26 -27 -30q-57 -13 -118 -13q-101 0 -154 50t-53 145q0 157 145 248q-86 -13 -194 -13q-199 0 -274 87q-74 86 -74 237
q0 169 118 238q102 57 312 57q155 0 235 -12v114q0 114 -16 152q-16 43 -65 68q-48 24 -165 24q-129 0 -239 -29q-51 -16 -66 -16q-20 0 -24 20q-11 31 -11 52q0 19 29 30q148 49 334 49q208 0 276 -71q39 -39 50 -96q12 -60 12 -166v-539zM774 483q-86 11 -225 11
q-192 0 -266 -50q-60 -37 -60 -145q0 -110 52 -166q53 -57 200 -57q157 0 244 35q30 12 45 36q10 20 10 68v268z" />
    <glyph glyph-name="Cacute" unicode="&#x106;" horiz-adv-x="1218" 
d="M256 731q0 -123 7 -201q8 -86 34 -174q27 -90 73 -145t128 -91t196 -36q163 0 340 47q55 16 68 16q23 0 33 -28q8 -26 8 -43q0 -26 -47 -41q-186 -62 -410 -62q-283 0 -420 164t-137 563q0 415 130 593q132 180 470 180q195 0 336 -31q49 -12 49 -41q0 -28 -14 -60
q-6 -18 -31 -18q-8 0 -65 12q-111 27 -287 27q-122 0 -210 -35q-86 -34 -135 -88q-48 -52 -75 -142q-26 -86 -34 -169q-7 -74 -7 -197zM721 1583q-33 -24 -66 -24q-25 0 -51 8q-18 6 -18 20q0 21 20 35l275 217q38 29 65 29q30 0 78 -8q25 -6 25 -27q0 -20 -23 -35z" />
    <glyph glyph-name="cacute" unicode="&#x107;" horiz-adv-x="937" 
d="M233 514q0 -102 12 -174t42 -135q30 -64 93 -95q64 -32 159 -32q121 0 237 28q44 13 49 13q17 0 25 -19q10 -29 10 -45q0 -28 -31 -39q-126 -43 -297 -43q-207 0 -312 119q-105 118 -105 402q0 287 106 418q107 132 354 132q133 0 232 -24q35 -8 35 -33q0 -14 -13 -55
q-8 -23 -26 -23q-5 0 -15 2q-1 0 -5 1t-7.5 2t-7.5 1q-5 1 -12 3t-8 2q-96 18 -183 18t-150 -24q-66 -25 -98 -60q-35 -38 -54 -96q-19 -60 -24 -114q-6 -72 -6 -130zM569 1208q-21 -22 -49 -22q-27 0 -45 6t-18 22q0 17 14 31l213 264q25 31 61 31q39 0 64 -4q25 -6 25 -27
q0 -15 -19 -34z" />
    <glyph glyph-name="Ccircumflex" unicode="&#x108;" horiz-adv-x="1218" 
d="M256 731q0 -123 7 -201q8 -86 34 -174q27 -90 73 -145t128 -91t196 -36q163 0 340 47q55 16 68 16q23 0 33 -28q8 -26 8 -43q0 -26 -47 -41q-186 -62 -410 -62q-283 0 -420 164t-137 563q0 415 130 593q132 180 470 180q195 0 336 -31q49 -12 49 -41q0 -28 -14 -60
q-6 -18 -31 -18q-8 0 -65 12q-111 27 -287 27q-122 0 -210 -35q-86 -34 -135 -88q-48 -52 -75 -142q-26 -86 -34 -169q-7 -74 -7 -197zM475 1559q-25 0 -43 6t-18 22q0 21 16 33l213 205q34 30 59 30h41q30 0 56 -26l223 -215q10 -7 10 -25t-20 -24q-21 -6 -49 -6
q-21 0 -58 28l-186 152l-182 -152q-29 -28 -62 -28z" />
    <glyph glyph-name="ccircumflex" unicode="&#x109;" horiz-adv-x="937" 
d="M233 514q0 -102 12 -174t42 -135q30 -64 93 -95q64 -32 159 -32q121 0 237 28q44 13 49 13q17 0 25 -19q10 -29 10 -45q0 -28 -31 -39q-126 -43 -297 -43q-207 0 -312 119q-105 118 -105 402q0 287 106 418q107 132 354 132q133 0 232 -24q35 -8 35 -33q0 -14 -13 -55
q-8 -23 -26 -23q-5 0 -15 2q-1 0 -5 1t-7.5 2t-7.5 1q-5 1 -12 3t-8 2q-96 18 -183 18t-150 -24q-66 -25 -98 -60q-35 -38 -54 -96q-19 -60 -24 -114q-6 -72 -6 -130zM324 1169q-22 0 -41 7q-21 6 -21 20q0 10 14 31l199 278q25 31 55 31h39q31 0 49 -27l197 -278
q16 -20 16 -33q0 -16 -18 -22q-17 -7 -43 -7t-49 27l-176 225l-172 -221q-28 -31 -49 -31z" />
    <glyph glyph-name="Cdotaccent" unicode="&#x10a;" horiz-adv-x="1218" 
d="M256 731q0 -123 7 -201q8 -86 34 -174q27 -90 73 -145t128 -91t196 -36q163 0 340 47q55 16 68 16q23 0 33 -28q8 -26 8 -43q0 -26 -47 -41q-186 -62 -410 -62q-283 0 -420 164t-137 563q0 415 130 593q132 180 470 180q195 0 336 -31q49 -12 49 -41q0 -28 -14 -60
q-6 -18 -31 -18q-8 0 -65 12q-111 27 -287 27q-122 0 -210 -35q-86 -34 -135 -88q-48 -52 -75 -142q-26 -86 -34 -169q-7 -74 -7 -197zM801 1675q0 -88 -80 -88t-80 86q0 88 80 88t80 -86z" />
    <glyph glyph-name="cdotaccent" unicode="&#x10b;" horiz-adv-x="937" 
d="M233 514q0 -102 12 -174t42 -135q30 -64 93 -95q64 -32 159 -32q121 0 237 28q44 13 49 13q17 0 25 -19q10 -29 10 -45q0 -28 -31 -39q-126 -43 -297 -43q-207 0 -312 119q-105 118 -105 402q0 287 106 418q107 132 354 132q133 0 232 -24q35 -8 35 -33q0 -14 -13 -55
q-8 -23 -26 -23q-5 0 -15 2q-1 0 -5 1t-7.5 2t-7.5 1q-5 1 -12 3t-8 2q-96 18 -183 18t-150 -24q-66 -25 -98 -60q-35 -38 -54 -96q-19 -60 -24 -114q-6 -72 -6 -130zM637 1358q0 -86 -80 -86t-80 84q0 88 80 88t80 -86z" />
    <glyph glyph-name="Ccaron" unicode="&#x10c;" horiz-adv-x="1218" 
d="M256 731q0 -123 7 -201q8 -86 34 -174q27 -90 73 -145t128 -91t196 -36q163 0 340 47q55 16 68 16q23 0 33 -28q8 -26 8 -43q0 -26 -47 -41q-186 -62 -410 -62q-283 0 -420 164t-137 563q0 415 130 593q132 180 470 180q195 0 336 -31q49 -12 49 -41q0 -28 -14 -60
q-6 -18 -31 -18q-8 0 -65 12q-111 27 -287 27q-122 0 -210 -35q-86 -34 -135 -88q-48 -52 -75 -142q-26 -86 -34 -169q-7 -74 -7 -197zM958 1864q25 0 43 -6q21 -6 21 -23q0 -15 -18 -33l-213 -203q-32 -32 -60 -32h-41q-29 0 -55 26l-219 213q-13 8 -13 25q0 21 21 27t47 6
q24 0 57 -27l187 -154l182 152q35 29 61 29z" />
    <glyph glyph-name="ccaron" unicode="&#x10d;" horiz-adv-x="937" 
d="M233 514q0 -102 12 -174t42 -135q30 -64 93 -95q64 -32 159 -32q121 0 237 28q44 13 49 13q17 0 25 -19q10 -29 10 -45q0 -28 -31 -39q-126 -43 -297 -43q-207 0 -312 119q-105 118 -105 402q0 287 106 418q107 132 354 132q133 0 232 -24q35 -8 35 -33q0 -14 -13 -55
q-8 -23 -26 -23q-5 0 -15 2q-1 0 -5 1t-7.5 2t-7.5 1q-5 1 -12 3t-8 2q-96 18 -183 18t-150 -24q-66 -25 -98 -60q-35 -38 -54 -96q-19 -60 -24 -114q-6 -72 -6 -130zM778 1544q25 0 43 -6q19 -6 19 -20q0 -13 -15 -31l-198 -279q-24 -30 -56 -30h-39q-32 0 -49 26l-196 279
q-17 22 -17 33q0 16 19 22q18 6 43 6q27 0 49 -26l176 -226l172 221q23 31 49 31z" />
    <glyph glyph-name="Dcaron" unicode="&#x10e;" horiz-adv-x="1431" 
d="M555 0h-164q-96 0 -135 41t-39 135v1088q0 98 39 140t139 42h172q237 0 367 -39q369 -107 369 -668q0 -263 -85 -437q-85 -175 -292 -253q-129 -49 -371 -49zM340 199q0 -86 80 -86h160q216 0 321 49q273 123 273 579q0 425 -250 543q-105 51 -349 51h-163q-72 0 -72 -80
v-1056zM909 1864q25 0 43 -6q21 -6 21 -23q0 -14 -19 -33l-213 -203q-32 -32 -59 -32h-41q-29 0 -55 26l-219 213q-13 8 -13 25q0 21 21 27q23 6 47 6t57 -27l187 -154l182 152q35 29 61 29z" />
    <glyph glyph-name="dcaron" unicode="&#x10f;" horiz-adv-x="1134" 
d="M954 168q0 -54 -10 -74q-17 -35 -61 -57q-133 -64 -355 -64q-216 0 -315 118q-98 117 -98 396q0 316 112 437q111 120 367 120q165 0 244 -36v487q0 37 36 37h46q34 0 34 -37v-1327zM838 223v611q0 59 -37 75q-70 29 -209 29q-212 0 -285 -98q-74 -100 -74 -342
q0 -218 65 -321q64 -101 230 -101q172 0 258 39q31 15 41 37q11 22 11 71zM1194 1532h35q41 0 41 -45q0 -218 -133 -348q-21 -21 -37 -21q-15 0 -33 15t-18 26q0 13 12 29q83 101 88 295q0 49 45 49z" />
    <glyph glyph-name="Dcroat" unicode="&#x110;" horiz-adv-x="1431" 
d="M555 0h-164q-96 0 -135 41t-39 135v524h-133q-33 0 -33 29v45q0 33 35 33h131v457q0 98 39 140t139 42h172q237 0 367 -39q369 -107 369 -668q0 -263 -85 -437q-85 -175 -292 -253q-129 -49 -371 -49zM340 199q0 -86 80 -86h160q216 0 321 49q273 123 273 579
q0 425 -250 543q-105 51 -349 51h-163q-72 0 -72 -80v-448h405q35 0 35 -33v-45q0 -29 -32 -29h-408v-501z" />
    <glyph glyph-name="dcroat" unicode="&#x111;" horiz-adv-x="1134" 
d="M954 168q0 -54 -10 -74q-17 -35 -61 -57q-133 -64 -355 -64q-216 0 -315 118q-98 117 -98 396q0 316 112 437q111 120 367 120q165 0 244 -36v198h-228q-32 0 -32 29v33q0 35 34 35h226v192q0 37 36 37h46q34 0 34 -37v-192h140q34 0 34 -35v-33q0 -29 -32 -29h-142
v-1038zM838 223v611q0 59 -37 75q-70 29 -209 29q-212 0 -285 -98q-74 -100 -74 -342q0 -218 65 -321q64 -101 230 -101q172 0 258 39q31 15 41 37q11 22 11 71z" />
    <glyph glyph-name="Emacron" unicode="&#x112;" horiz-adv-x="1136" 
d="M1018 0h-615q-99 0 -143 38q-43 37 -43 146v1076q0 103 40 144q41 42 144 42h588q37 0 37 -35v-43q0 -35 -37 -35h-579q-70 0 -70 -78v-446h586q39 0 39 -35v-43q0 -33 -39 -33h-586v-499q0 -86 80 -86h598q39 0 39 -35v-43q0 -35 -39 -35zM901 1632h-512q-35 0 -35 31
v49q0 33 37 33h508q37 0 37 -33v-51q0 -29 -35 -29z" />
    <glyph glyph-name="emacron" unicode="&#x113;" horiz-adv-x="1048" 
d="M231 479q1 -232 86 -317q84 -84 265 -84q134 0 239 33q41 12 56 12q18 0 24 -17q14 -27 14 -49q0 -24 -32 -34q-135 -50 -312 -50q-249 0 -354 125q-104 123 -104 408q0 284 113 410q114 128 341 128q126 0 201 -33q77 -34 115 -107q35 -68 48 -150q11 -72 11 -203
q0 -48 -14 -62q-10 -10 -41 -10h-656zM233 578h590q2 22 2 55q0 153 -54 230t-214 77q-179 0 -249 -93t-75 -269zM799 1257h-473q-35 0 -35 31v49q0 35 37 35h469q37 0 37 -35v-49q0 -31 -35 -31z" />
    <glyph glyph-name="Ebreve" unicode="&#x114;" horiz-adv-x="1136" 
d="M1018 0h-615q-99 0 -143 38q-43 37 -43 146v1076q0 103 40 144q41 42 144 42h588q37 0 37 -35v-43q0 -35 -37 -35h-579q-70 0 -70 -78v-446h586q39 0 39 -35v-43q0 -33 -39 -33h-586v-499q0 -86 80 -86h598q39 0 39 -35v-43q0 -35 -39 -35zM625 1559q-137 0 -199 52
q-64 54 -82 146q-6 30 -6 47q0 32 22 39q22 8 50 8q20 0 26 -28q12 -80 53 -119q40 -39 136 -39q101 0 144 40q44 41 56 118q6 28 33 28q30 0 45 -6q17 -6 17 -26q0 -19 -11 -68q-47 -192 -284 -192z" />
    <glyph glyph-name="ebreve" unicode="&#x115;" horiz-adv-x="1048" 
d="M231 479q1 -232 86 -317q84 -84 265 -84q134 0 239 33q41 12 56 12q18 0 24 -17q14 -27 14 -49q0 -24 -32 -34q-135 -50 -312 -50q-249 0 -354 125q-104 123 -104 408q0 284 113 410q114 128 341 128q126 0 201 -33q77 -34 115 -107q35 -68 48 -150q11 -72 11 -203
q0 -48 -14 -62q-10 -10 -41 -10h-656zM233 578h590q2 22 2 55q0 153 -54 230t-214 77q-179 0 -249 -93t-75 -269zM774 1475q16 0 39 -5q16 -4 16 -28q0 -25 -8 -68q-45 -200 -274 -200q-126 0 -185 52q-59 51 -81 150q-7 24 -7 58q0 25 21 32q25 9 41 9q28 0 29 -27
q12 -81 53 -125q40 -43 131 -43q94 0 136 42q41 41 56 124q6 29 33 29z" />
    <glyph glyph-name="Edotaccent" unicode="&#x116;" horiz-adv-x="1136" 
d="M1018 0h-615q-99 0 -143 38q-43 37 -43 146v1076q0 103 40 144q41 42 144 42h588q37 0 37 -35v-43q0 -35 -37 -35h-579q-70 0 -70 -78v-446h586q39 0 39 -35v-43q0 -33 -39 -33h-586v-499q0 -86 80 -86h598q39 0 39 -35v-43q0 -35 -39 -35zM725 1675q0 -88 -80 -88
t-80 86q0 88 80 88t80 -86z" />
    <glyph glyph-name="edotaccent" unicode="&#x117;" horiz-adv-x="1048" 
d="M231 479q1 -232 86 -317q84 -84 265 -84q134 0 239 33q41 12 56 12q18 0 24 -17q14 -27 14 -49q0 -24 -32 -34q-135 -50 -312 -50q-249 0 -354 125q-104 123 -104 408q0 284 113 410q114 128 341 128q126 0 201 -33q77 -34 115 -107q35 -68 48 -150q11 -72 11 -203
q0 -48 -14 -62q-10 -10 -41 -10h-656zM233 578h590q2 22 2 55q0 153 -54 230t-214 77q-179 0 -249 -93t-75 -269zM635 1358q0 -86 -80 -86t-80 84q0 88 80 88t80 -86z" />
    <glyph glyph-name="Eogonek" unicode="&#x118;" horiz-adv-x="1136" 
d="M1018 0h-41q-117 -80 -157 -130q-42 -52 -42 -134q0 -117 123 -117q31 0 62 4t41 4q18 0 24 -22q6 -18 6 -37q0 -26 -26 -33q-46 -14 -125 -14q-107 0 -163 52t-56 151q0 102 48 160q50 61 146 116h-455q-99 0 -143 38q-43 37 -43 146v1076q0 103 40 144q41 42 144 42
h588q37 0 37 -35v-43q0 -35 -37 -35h-579q-70 0 -70 -78v-446h586q39 0 39 -35v-43q0 -33 -39 -33h-586v-499q0 -86 80 -86h598q39 0 39 -35v-43q0 -35 -39 -35z" />
    <glyph glyph-name="eogonek" unicode="&#x119;" horiz-adv-x="1048" 
d="M231 479q1 -232 86 -317q84 -84 265 -84q134 0 239 33q41 12 56 12q18 0 24 -17q14 -27 14 -49q0 -24 -32 -34q-49 -17 -121 -33q-95 -63 -135 -116q-37 -49 -37 -124q0 -110 119 -110q13 0 57 2q9 0 18.5 0.5t14 1t6.5 0.5q16 0 22 -19q7 -28 7 -39q0 -26 -27 -30
q-57 -13 -119 -13q-100 0 -153 50q-54 51 -54 145q0 83 35 138q33 52 105 99q-22 -2 -50 -2q-249 0 -354 125q-104 123 -104 408q0 284 113 410q114 128 341 128q126 0 201 -33q77 -34 115 -107q35 -68 48 -150q11 -72 11 -203q0 -48 -14 -62q-10 -10 -41 -10h-656zM233 578
h590q2 22 2 55q0 153 -54 230t-214 77q-179 0 -249 -93t-75 -269z" />
    <glyph glyph-name="Ecaron" unicode="&#x11a;" horiz-adv-x="1136" 
d="M1018 0h-615q-99 0 -143 38q-43 37 -43 146v1076q0 103 40 144q41 42 144 42h588q37 0 37 -35v-43q0 -35 -37 -35h-579q-70 0 -70 -78v-446h586q39 0 39 -35v-43q0 -33 -39 -33h-586v-499q0 -86 80 -86h598q39 0 39 -35v-43q0 -35 -39 -35zM874 1864q26 0 44 -6
q20 -6 20 -23q0 -15 -18 -33l-213 -203q-32 -32 -60 -32h-41q-29 0 -55 26l-219 213q-13 8 -13 25q0 21 21 27q23 6 47 6t57 -27l187 -154l182 152q35 29 61 29z" />
    <glyph glyph-name="ecaron" unicode="&#x11b;" horiz-adv-x="1048" 
d="M231 479q1 -232 86 -317q84 -84 265 -84q134 0 239 33q41 12 56 12q18 0 24 -17q14 -27 14 -49q0 -24 -32 -34q-135 -50 -312 -50q-249 0 -354 125q-104 123 -104 408q0 284 113 410q114 128 341 128q126 0 201 -33q77 -34 115 -107q35 -68 48 -150q11 -72 11 -203
q0 -48 -14 -62q-10 -10 -41 -10h-656zM233 578h590q2 22 2 55q0 153 -54 230t-214 77q-179 0 -249 -93t-75 -269zM782 1544q25 0 43 -6q19 -6 19 -20q0 -13 -15 -31l-198 -279q-24 -30 -56 -30h-38q-33 0 -50 26l-196 279q-17 22 -17 33q0 16 19 22q18 6 43 6q27 0 49 -26
l176 -226l172 221q23 31 49 31z" />
    <glyph glyph-name="Gcircumflex" unicode="&#x11c;" horiz-adv-x="1353" 
d="M1212 158q0 -44 -16 -70q-11 -20 -51 -41q-153 -74 -451 -74q-289 0 -427 163q-138 164 -138 564q0 411 137 592t488 181q199 0 340 -31q47 -11 47 -41q0 -24 -11 -60q-6 -18 -28 -18q-21 0 -70 10q-136 29 -315 29q-119 0 -205 -36q-88 -37 -134 -92q-49 -59 -77 -143
q-30 -91 -37 -169q-8 -88 -8 -191q0 -111 6 -191q6 -73 31 -172q24 -92 71 -150q45 -55 129 -95q83 -39 201 -39q203 0 344 39q31 11 42 25q12 15 12 51v444h-347q-34 0 -34 33v47q0 33 34 33h424q43 0 43 -47v-551zM489 1559q-25 0 -43 6t-18 22q0 21 16 33l213 205
q35 30 60 30h41q29 0 55 -26l223 -215q11 -8 11 -25q0 -18 -21 -24q-23 -6 -49 -6q-20 0 -57 28l-187 152l-182 -152q-29 -28 -62 -28z" />
    <glyph glyph-name="gcircumflex" unicode="&#x11d;" horiz-adv-x="1130" 
d="M827 37q-95 -62 -309 -62q-211 0 -307 117t-96 395q0 314 109 435q108 120 360 120q185 0 307 -36q57 -16 57 -78v-905q0 -156 -33 -252q-79 -250 -608 -250q-39 0 -45 26q-2 20 -2 43q0 37 33 37q244 6 355 47q109 40 147 121q32 65 32 193v49zM834 205v645q0 49 -37 61
q-77 25 -219 25q-208 0 -276 -98q-69 -99 -69 -338q0 -222 63 -321t228 -99q172 0 258 39q38 15 45 39q7 14 7 47zM371 1169q-23 0 -41 7q-21 6 -21 20q0 8 15 31l198 278q25 31 56 31h38q32 0 50 -27l196 -278q17 -22 17 -33q0 -16 -19 -22q-19 -7 -43 -7q-27 0 -49 27
l-176 225l-172 -221q-28 -31 -49 -31z" />
    <glyph glyph-name="Gbreve" unicode="&#x11e;" horiz-adv-x="1353" 
d="M1212 158q0 -44 -16 -70q-11 -20 -51 -41q-153 -74 -451 -74q-289 0 -427 163q-138 164 -138 564q0 411 137 592t488 181q199 0 340 -31q47 -11 47 -41q0 -24 -11 -60q-6 -18 -28 -18q-21 0 -70 10q-136 29 -315 29q-119 0 -205 -36q-88 -37 -134 -92q-49 -59 -77 -143
q-30 -91 -37 -169q-8 -88 -8 -191q0 -111 6 -191q6 -73 31 -172q24 -92 71 -150q45 -55 129 -95q83 -39 201 -39q203 0 344 39q31 11 42 25q12 15 12 51v444h-347q-34 0 -34 33v47q0 33 34 33h424q43 0 43 -47v-551zM729 1559q-137 0 -199 52q-63 53 -81 146q-7 35 -7 47
q0 31 23 39q22 8 49 8q21 0 27 -28q12 -80 53 -119q40 -39 135 -39q101 0 144 40q45 42 57 118q6 28 33 28q29 0 45 -6t16 -26q0 -24 -10 -68q-46 -192 -285 -192z" />
    <glyph glyph-name="gbreve" unicode="&#x11f;" horiz-adv-x="1130" 
d="M827 37q-95 -62 -309 -62q-211 0 -307 117t-96 395q0 314 109 435q108 120 360 120q185 0 307 -36q57 -16 57 -78v-905q0 -156 -33 -252q-79 -250 -608 -250q-39 0 -45 26q-2 20 -2 43q0 37 33 37q244 6 355 47q109 40 147 121q32 65 32 193v49zM834 205v645q0 49 -37 61
q-77 25 -219 25q-208 0 -276 -98q-69 -99 -69 -338q0 -222 63 -321t228 -99q172 0 258 39q38 15 45 39q7 14 7 47zM799 1475q16 0 39 -5q16 -4 16 -28q0 -25 -8 -68q-45 -200 -275 -200q-125 0 -184 52q-60 52 -82 150q-6 21 -6 58q0 25 20 32q25 9 41 9q28 0 29 -27
q12 -81 53 -125q40 -43 131 -43q95 0 137 42q41 41 56 124q6 29 33 29z" />
    <glyph glyph-name="Gdotaccent" unicode="&#x120;" horiz-adv-x="1353" 
d="M1212 158q0 -44 -16 -70q-11 -20 -51 -41q-153 -74 -451 -74q-289 0 -427 163q-138 164 -138 564q0 411 137 592t488 181q199 0 340 -31q47 -11 47 -41q0 -24 -11 -60q-6 -18 -28 -18q-21 0 -70 10q-136 29 -315 29q-119 0 -205 -36q-88 -37 -134 -92q-49 -59 -77 -143
q-30 -91 -37 -169q-8 -88 -8 -191q0 -111 6 -191q6 -73 31 -172q24 -92 71 -150q45 -55 129 -95q83 -39 201 -39q203 0 344 39q31 11 42 25q12 15 12 51v444h-347q-34 0 -34 33v47q0 33 34 33h424q43 0 43 -47v-551zM829 1675q0 -88 -79 -88q-80 0 -80 86q0 88 80 88
q79 0 79 -86z" />
    <glyph glyph-name="gdotaccent" unicode="&#x121;" horiz-adv-x="1130" 
d="M827 37q-95 -62 -309 -62q-211 0 -307 117t-96 395q0 314 109 435q108 120 360 120q185 0 307 -36q57 -16 57 -78v-905q0 -156 -33 -252q-79 -250 -608 -250q-39 0 -45 26q-2 20 -2 43q0 37 33 37q244 6 355 47q109 40 147 121q32 65 32 193v49zM834 205v645q0 49 -37 61
q-77 25 -219 25q-208 0 -276 -98q-69 -99 -69 -338q0 -222 63 -321t228 -99q172 0 258 39q38 15 45 39q7 14 7 47zM666 1358q0 -86 -80 -86t-80 84q0 88 80 88t80 -86z" />
    <glyph glyph-name="Gcommaaccent" unicode="&#x122;" horiz-adv-x="1353" 
d="M1212 158q0 -44 -16 -70q-11 -20 -51 -41q-153 -74 -451 -74q-289 0 -427 163q-138 164 -138 564q0 411 137 592t488 181q199 0 340 -31q47 -11 47 -41q0 -24 -11 -60q-6 -18 -28 -18q-21 0 -70 10q-136 29 -315 29q-119 0 -205 -36q-88 -37 -134 -92q-49 -59 -77 -143
q-30 -91 -37 -169q-8 -88 -8 -191q0 -111 6 -191q6 -73 31 -172q24 -92 71 -150q45 -55 129 -95q83 -39 201 -39q203 0 344 39q31 11 42 25q12 15 12 51v444h-347q-34 0 -34 33v47q0 33 34 33h424q43 0 43 -47v-551zM733 -139h35q41 0 41 -45q0 -215 -133 -348
q-21 -21 -37 -21q-17 0 -33 12q-16 15 -16 29q0 15 10 29q83 101 88 295q0 49 45 49z" />
    <glyph glyph-name="gcommaaccent" unicode="&#x123;" horiz-adv-x="1130" 
d="M827 37q-95 -62 -309 -62q-211 0 -307 117t-96 395q0 314 109 435q108 120 360 120q185 0 307 -36q57 -16 57 -78v-905q0 -156 -33 -252q-79 -250 -608 -250q-42 0 -43 26q-4 13 -4 43q0 35 35 35q249 6 356 48q106 42 144 122q32 65 32 193v49zM834 205v645q0 49 -37 61
q-77 25 -219 25q-208 0 -276 -98q-69 -99 -69 -338q0 -222 63 -321t228 -99q172 0 258 39q38 15 45 39q7 14 7 47zM592 1186h-43q-39 0 -39 41q0 215 129 350q18 22 39 22q16 0 33 -14q18 -12 18 -29q0 -14 -12 -30q-82 -116 -82 -287q0 -53 -43 -53z" />
    <glyph glyph-name="Hcircumflex" unicode="&#x124;" horiz-adv-x="1443" 
d="M340 35q0 -41 -37 -41h-49q-37 0 -37 41v1378q0 41 39 41h49q35 0 35 -41v-604h764v604q0 41 39 41h49q35 0 35 -41v-1378q0 -41 -37 -41h-49q-37 0 -37 41v663h-764v-663zM477 1559q-25 0 -43 6t-18 22q0 21 16 33l213 205q35 30 60 30h40q30 0 56 -26l223 -215
q10 -7 10 -25t-20 -24q-22 -6 -49 -6q-24 0 -58 28l-186 152l-182 -152q-29 -28 -62 -28z" />
    <glyph glyph-name="hcircumflex" unicode="&#x125;" horiz-adv-x="1163" 
d="M297 33q0 -39 -37 -39h-43q-37 0 -37 39v1466q0 41 33 41h53q31 0 31 -39v-547q112 86 387 86q134 0 193 -29q62 -30 86 -93q20 -47 20 -201v-684q0 -39 -37 -39h-45q-35 0 -35 39v667q0 108 -16 150q-15 43 -57 63q-44 21 -140 21q-196 0 -309 -55q-26 -17 -37 -35
q-10 -20 -10 -62v-749zM41 1583q-25 0 -43 6t-18 23q0 21 16 33l213 204q36 31 59 31h41q29 0 56 -27l223 -215q10 -7 10 -24q0 -19 -20 -25q-21 -6 -50 -6q-19 0 -57 29l-186 151l-183 -151q-31 -29 -61 -29z" />
    <glyph glyph-name="Hbar" unicode="&#x126;" horiz-adv-x="1443" 
d="M340 35q0 -41 -37 -41h-49q-37 0 -37 41v973h-131q-35 0 -35 30v43q0 33 35 33h131v299q0 41 39 41h49q35 0 35 -41v-299h764v299q0 41 39 41h49q35 0 35 -41v-299h127q35 0 35 -33v-45q0 -28 -33 -28h-129v-973q0 -41 -37 -41h-49q-37 0 -37 41v663h-764v-663zM340 809
h764v199h-764v-199z" />
    <glyph glyph-name="hbar" unicode="&#x127;" horiz-adv-x="1163" 
d="M297 33q0 -39 -37 -39h-43q-37 0 -37 39v1173h-110q-33 0 -33 29v33q0 35 35 35h108v196q0 41 33 41h53q31 0 31 -39v-198h256q35 0 35 -35v-33q0 -29 -33 -29h-258v-252q112 86 387 86q134 0 193 -29q62 -30 86 -93q20 -47 20 -201v-684q0 -39 -37 -39h-45q-35 0 -35 39
v667q0 108 -16 150q-15 43 -57 63q-44 21 -140 21q-196 0 -309 -55q-26 -17 -37 -35q-10 -20 -10 -62v-749z" />
    <glyph glyph-name="Itilde" unicode="&#x128;" horiz-adv-x="557" 
d="M340 35q0 -41 -37 -41h-49q-37 0 -37 41v1378q0 41 39 41h49q35 0 35 -41v-1378zM2 1583q-27 0 -43 6q-16 7 -16 27q0 12 14 47q62 147 170 147q54 0 164 -61q85 -45 131 -45q58 0 88 82q15 37 41 37q21 0 43 -8q16 -6 16 -23q0 -14 -10 -43q-53 -164 -174 -164
q-57 0 -164 55q-103 54 -139 54q-26 0 -43 -17q-16 -16 -37 -61q-12 -33 -41 -33z" />
    <glyph glyph-name="itilde" unicode="&#x129;" horiz-adv-x="477" 
d="M-23 1237q-25 0 -36 4q-21 6 -21 23q0 13 12 43q63 151 162 151q51 0 158 -61q85 -47 127 -47q30 0 47 16q19 17 35 66q14 36 39 36q20 0 39 -4q18 -6 18 -24q0 -19 -10 -45q-28 -87 -68 -124q-39 -36 -96 -36q-56 0 -160 55q-106 53 -129 53q-24 0 -42 -15t-36 -60
q-12 -31 -39 -31zM297 33q0 -39 -35 -39h-45q-35 0 -35 39v950q0 39 35 39h45q35 0 35 -39v-950z" />
    <glyph glyph-name="Imacron" unicode="&#x12a;" horiz-adv-x="557" 
d="M340 35q0 -41 -37 -41h-49q-37 0 -37 41v1378q0 41 39 41h49q35 0 35 -41v-1378zM532 1632h-512q-34 0 -34 31v49q0 33 37 33h507q37 0 37 -33v-51q0 -29 -35 -29z" />
    <glyph glyph-name="imacron" unicode="&#x12b;" horiz-adv-x="477" 
d="M479 1257h-473q-35 0 -35 31v49q0 35 37 35h469q37 0 37 -35v-49q0 -31 -35 -31zM297 33q0 -39 -35 -39h-45q-35 0 -35 39v950q0 39 35 39h45q35 0 35 -39v-950z" />
    <glyph glyph-name="Ibreve" unicode="&#x12c;" horiz-adv-x="557" 
d="M340 35q0 -41 -37 -41h-49q-37 0 -37 41v1378q0 41 39 41h49q35 0 35 -41v-1378zM274 1559q-136 0 -198 52q-64 54 -82 146q-6 30 -6 47q0 32 22 39q22 8 49 8q21 0 27 -28q12 -80 53 -119t135 -39q102 0 145 40q44 41 56 118q6 28 33 28q28 0 45 -6q16 -6 16 -26
q0 -24 -10 -68q-47 -192 -285 -192z" />
    <glyph glyph-name="ibreve" unicode="&#x12d;" horiz-adv-x="477" 
d="M475 1475q16 0 39 -5q16 -4 16 -28q0 -25 -8 -68q-45 -200 -274 -200q-126 0 -185 52q-59 51 -81 150q-7 24 -7 58q0 25 21 32q25 9 41 9q27 0 29 -27q12 -81 53 -125q40 -43 131 -43q94 0 136 42q41 41 56 124q6 29 33 29zM297 33q0 -39 -35 -39h-45q-35 0 -35 39v950
q0 39 35 39h45q35 0 35 -39v-950z" />
    <glyph glyph-name="Iogonek" unicode="&#x12e;" horiz-adv-x="557" 
d="M340 35q0 -27 -16 -37q-115 -80 -158 -132t-43 -130q0 -117 123 -117q30 0 61 4t41 4q19 0 25 -22q6 -18 6 -37q0 -26 -27 -33q-46 -14 -125 -14q-106 0 -162 52q-57 53 -57 151q0 104 51 164q52 61 162 122q-4 7 -4 31v1372q0 41 39 41h49q35 0 35 -41v-1378z" />
    <glyph glyph-name="iogonek" unicode="&#x12f;" horiz-adv-x="477" 
d="M297 33q0 -25 -18 -37q-101 -69 -143 -121q-40 -50 -40 -125q0 -110 119 -110q11 0 57 2q10 0 19.5 0.5t14 1t5.5 0.5q17 0 23 -19q6 -24 6 -39q0 -26 -27 -30q-55 -13 -118 -13q-101 0 -154 50t-53 145q0 100 48 156q45 52 150 114q-6 8 -6 25v950q0 39 37 39h45
q35 0 35 -39v-950zM319 1360q0 -90 -81 -90q-84 0 -84 88t84 88q81 0 81 -86z" />
    <glyph glyph-name="Idotaccent" unicode="&#x130;" horiz-adv-x="557" 
d="M340 35q0 -41 -37 -41h-49q-37 0 -37 41v1378q0 41 39 41h49q35 0 35 -41v-1378zM356 1675q0 -88 -80 -88q-79 0 -79 86q0 88 79 88q80 0 80 -86z" />
    <glyph glyph-name="dotlessi" unicode="&#x131;" horiz-adv-x="477" 
d="M297 33q0 -39 -35 -39h-45q-35 0 -35 39v950q0 39 35 39h45q35 0 35 -39v-950z" />
    <glyph glyph-name="IJ" unicode="&#x132;" horiz-adv-x="1173" 
d="M340 35q0 -41 -37 -41h-49q-37 0 -37 41v1378q0 41 39 41h49q35 0 35 -41v-1378zM956 90q0 -192 -90 -270q-51 -44 -144 -81q-94 -38 -138 -38q-29 0 -37 23q-8 26 -8 49q0 31 41 39q126 28 180 69q74 53 74 207v1325q0 41 38 41h50q34 0 34 -41v-1323z" />
    <glyph glyph-name="ij" unicode="&#x133;" horiz-adv-x="1011" 
d="M297 33q0 -39 -37 -39h-43q-37 0 -37 39v950q0 39 37 39h45q35 0 35 -39v-950zM319 1360q0 -90 -81 -90q-84 0 -84 88t84 88q81 0 81 -86zM797 983v-1100q0 -183 -78 -256q-48 -46 -131 -76q-84 -30 -146 -30q-26 0 -32 22q-7 21 -7 43q0 29 41 37q115 23 177 68
q61 51 61 190v1102q0 39 35 39h45q35 0 35 -39zM821 1360q0 -90 -82 -90q-84 0 -84 88t84 88q40 0 62 -19q20 -17 20 -67z" />
    <glyph glyph-name="Jcircumflex" unicode="&#x134;" horiz-adv-x="618" 
d="M401 90q0 -192 -90 -270q-51 -44 -144 -81q-94 -38 -138 -38q-29 0 -37 23q-8 26 -8 49q0 31 41 39q126 28 180 69q74 53 74 207v1325q0 41 38 41h50q34 0 34 -41v-1323zM94 1559q-25 0 -43 6t-18 22q0 21 16 33l213 205q34 30 60 30h40q30 0 56 -26l223 -215
q10 -7 10 -25t-20 -24q-21 -6 -49 -6q-21 0 -58 28l-186 152l-182 -152q-29 -28 -62 -28z" />
    <glyph glyph-name="jcircumflex" unicode="&#x135;" horiz-adv-x="477" 
d="M311 995v-1173q0 -184 -69 -252q-82 -82 -277 -82q-49 0 -49 33q0 25 2 45q1 26 41 28q132 0 184 46t52 180v1175q0 39 34 39h45q37 0 37 -39zM31 1169q-23 0 -41 7q-21 6 -21 20q0 8 15 31l198 278q25 31 56 31h38q32 0 50 -27l196 -278q17 -22 17 -33q0 -16 -19 -22
q-19 -7 -43 -7q-26 0 -49 27l-176 225l-172 -221q-28 -31 -49 -31z" />
    <glyph glyph-name="Kcommaaccent" unicode="&#x136;" horiz-adv-x="1230" 
d="M340 35q0 -41 -37 -41h-49q-37 0 -37 41v1378q0 41 39 41h49q35 0 35 -41v-606h180q63 0 90 35l428 579q23 31 56 31q39 0 61 -2q23 -2 23 -25q0 -17 -21 -45l-477 -624l512 -684q25 -34 25 -47q0 -21 -21 -25q-20 -4 -72 -4q-28 0 -53 31l-473 637q-27 34 -78 34h-180
v-663zM641 -139h35q41 0 41 -45q0 -215 -133 -348q-21 -21 -37 -21q-18 0 -33 12q-16 15 -16 29q0 15 10 29q83 101 88 295q0 49 45 49z" />
    <glyph glyph-name="kcommaaccent" unicode="&#x137;" horiz-adv-x="1028" 
d="M297 33q0 -39 -37 -39h-43q-37 0 -37 39v1442q0 38 37 38h45q35 0 35 -38v-859h143q63 0 90 35l287 342q23 29 53 29q48 0 50 -2q28 0 28 -23q0 -20 -20 -43l-330 -383l391 -501q23 -29 23 -45q0 -24 -31 -29q-10 0 -25 -1t-26 -1q-28 0 -53 31l-353 452q-28 37 -78 37
h-149v-481zM547 -139h35q41 0 41 -45q0 -214 -134 -348q-21 -21 -36 -21q-18 0 -33 12q-17 15 -17 29q0 13 11 29q83 101 88 295q0 49 45 49z" />
    <glyph glyph-name="kgreenlandic" unicode="&#x138;" horiz-adv-x="1028" 
d="M297 33q0 -39 -37 -39h-43q-37 0 -37 39v950q0 39 37 39h45q35 0 35 -39v-387h143q63 0 90 35l287 362q23 29 53 29q44 0 50 -2q28 0 28 -23q0 -20 -20 -43l-332 -401l393 -483q25 -31 25 -47q0 -25 -33 -27q-28 -2 -51 -2q-28 0 -53 31l-353 432q-28 37 -78 37h-149
v-461z" />
    <glyph glyph-name="Lacute" unicode="&#x139;" horiz-adv-x="1107" 
d="M1016 0h-617q-101 0 -141 40q-41 41 -41 136v1237q0 41 39 41h49q35 0 35 -41v-1216q0 -84 80 -84h596q39 0 39 -35v-43q0 -35 -39 -35zM301 1583q-35 -24 -65 -24q-26 0 -52 8q-18 6 -18 20q0 21 20 35l275 217q38 29 65 29q30 0 78 -8q25 -6 25 -27q0 -20 -23 -35z" />
    <glyph glyph-name="lacute" unicode="&#x13a;" horiz-adv-x="512" 
d="M297 256q0 -85 27 -119q33 -38 110 -45q31 -2 31 -31q0 -33 -6 -49q-6 -18 -37 -18q-158 0 -213 96q-29 50 -29 154v1249q0 39 39 39h45q33 0 33 -39v-1237zM254 1624q-34 -25 -66 -25q-22 0 -51 9q-18 6 -18 20q0 21 20 35l275 217q38 29 65 29q30 0 78 -8q25 -6 25 -27
q0 -20 -23 -35z" />
    <glyph glyph-name="Lcommaaccent" unicode="&#x13b;" horiz-adv-x="1107" 
d="M1016 0h-617q-101 0 -141 40q-41 41 -41 136v1237q0 41 39 41h49q35 0 35 -41v-1216q0 -84 80 -84h596q39 0 39 -35v-43q0 -35 -39 -35zM604 -139h35q41 0 41 -45q0 -215 -133 -348q-21 -21 -37 -21q-18 0 -33 12q-16 15 -16 29q0 15 10 29q83 101 88 295q0 49 45 49z
" />
    <glyph glyph-name="lcommaaccent" unicode="&#x13c;" horiz-adv-x="512" 
d="M297 256q0 -85 27 -119q33 -38 110 -45q31 -2 31 -31q0 -33 -6 -49q-6 -18 -37 -18q-158 0 -213 96q-29 50 -29 154v1249q0 39 39 39h45q33 0 33 -39v-1237zM289 -139h35q41 0 41 -45q0 -214 -134 -348q-21 -21 -36 -21q-18 0 -33 12q-17 15 -17 29q0 13 11 29
q83 101 88 295q0 49 45 49z" />
    <glyph glyph-name="Lcaron" unicode="&#x13d;" horiz-adv-x="1107" 
d="M1016 0h-617q-101 0 -141 40q-41 41 -41 136v1237q0 41 39 41h49q35 0 35 -41v-1216q0 -84 80 -84h596q39 0 39 -35v-43q0 -35 -39 -35zM662 1475h34q41 0 41 -45q0 -219 -133 -349q-20 -20 -37 -20q-15 0 -32 14q-19 16 -19 27q0 12 12 28q83 101 88 295q0 50 46 50z
" />
    <glyph glyph-name="lcaron" unicode="&#x13e;" horiz-adv-x="512" 
d="M297 256q0 -85 27 -119q33 -38 110 -45q31 -2 31 -31q0 -33 -6 -49q-6 -18 -37 -18q-158 0 -213 96q-29 50 -29 154v1249q0 39 39 39h45q33 0 33 -39v-1237zM563 1532h35q41 0 41 -45q0 -218 -133 -348q-21 -21 -37 -21q-15 0 -33 15t-18 26q0 13 12 29q83 101 88 295
q0 49 45 49z" />
    <glyph glyph-name="Ldot" unicode="&#x13f;" horiz-adv-x="1107" 
d="M1016 0h-617q-101 0 -141 40q-41 41 -41 136v1237q0 41 39 41h49q35 0 35 -41v-1216q0 -84 80 -84h596q39 0 39 -35v-43q0 -35 -39 -35zM901 700q0 -96 -94 -96t-94 96q0 52 26 75q27 24 68 24q94 0 94 -99z" />
    <glyph glyph-name="ldot" unicode="&#x140;" horiz-adv-x="694" 
d="M674 702q0 -94 -92 -94q-93 0 -93 94q0 93 93 93q42 0 67 -19t25 -74zM297 256q0 -85 27 -119q33 -38 110 -45q31 -2 31 -31q0 -33 -6 -49q-6 -18 -37 -18q-158 0 -213 96q-29 50 -29 154v1249q0 39 39 39h45q33 0 33 -39v-1237z" />
    <glyph glyph-name="Lslash" unicode="&#x141;" horiz-adv-x="1107" 
d="M1016 0h-617q-101 0 -141 40q-41 41 -41 136v352l-131 -90q-11 -8 -23 -8t-28 25q-23 34 -23 43q0 15 17 26l188 131v758q0 41 39 41h49q35 0 35 -41v-670l317 224q11 8 25 8t31 -25q24 -30 24 -43q0 -14 -16 -26l-381 -267v-417q0 -84 80 -84h596q39 0 39 -35v-43
q0 -35 -39 -35z" />
    <glyph glyph-name="lslash" unicode="&#x142;" horiz-adv-x="512" 
d="M297 256q0 -85 27 -119q33 -38 110 -45q31 -2 31 -31q0 -33 -6 -49q-6 -18 -37 -18q-158 0 -213 96q-29 50 -29 154v368l-102 -69q-13 -11 -25 -11q-14 1 -30 25q-19 32 -19 41q0 15 16 25l160 108v762q0 39 39 39h45q33 0 33 -39v-682l129 88q11 8 23 8t32 -26
q21 -27 21 -39t-19 -25l-186 -127v-434z" />
    <glyph glyph-name="Nacute" unicode="&#x143;" horiz-adv-x="1456" 
d="M338 35q0 -41 -39 -41h-45q-37 0 -37 41v1323q0 51 20 74q19 22 62 22h31q35 0 53 -15t43 -57q532 -930 696 -1245q-4 136 -4 1272q0 43 41 43h45q35 0 35 -41v-1341q0 -80 -72 -80h-32q-36 0 -54 15q-19 16 -43 56q-563 985 -704 1252q4 -349 4 -1278zM750 1583
q-33 -24 -66 -24q-25 0 -51 8q-19 6 -19 20q0 20 21 35l274 217q38 29 66 29q30 0 78 -8q24 -6 24 -27q0 -20 -22 -35z" />
    <glyph glyph-name="nacute" unicode="&#x144;" horiz-adv-x="1163" 
d="M297 33q0 -39 -37 -39h-43q-37 0 -37 39v805q0 82 64 116q174 86 440 86q134 0 193 -29q62 -30 86 -93q20 -47 20 -201v-684q0 -39 -37 -39h-45q-35 0 -35 39v667q0 108 -16 150q-15 43 -57 63q-44 21 -140 21q-183 0 -307 -53q-26 -16 -37 -33q-12 -21 -12 -62v-753z
M580 1208q-21 -22 -50 -22q-27 0 -45 6t-18 22q0 17 14 31l213 264q28 31 62 31q38 0 63 -4q25 -6 25 -27q0 -15 -19 -34z" />
    <glyph glyph-name="Ncommaaccent" unicode="&#x145;" horiz-adv-x="1456" 
d="M338 35q0 -41 -39 -41h-45q-37 0 -37 41v1323q0 51 20 74q19 22 62 22h31q35 0 53 -15t43 -57q532 -930 696 -1245q-4 136 -4 1272q0 43 41 43h45q35 0 35 -41v-1341q0 -80 -72 -80h-32q-36 0 -54 15q-19 16 -43 56q-563 985 -704 1252q4 -349 4 -1278zM727 -139h35
q41 0 41 -45q0 -215 -133 -348q-21 -21 -37 -21q-18 0 -33 12q-16 15 -16 29q0 15 10 29q83 101 88 295q0 49 45 49z" />
    <glyph glyph-name="ncommaaccent" unicode="&#x146;" horiz-adv-x="1163" 
d="M297 33q0 -39 -37 -39h-43q-37 0 -37 39v805q0 82 64 116q174 86 440 86q134 0 193 -29q62 -30 86 -93q20 -47 20 -201v-684q0 -39 -37 -39h-45q-35 0 -35 39v667q0 108 -16 150q-15 43 -57 63q-44 21 -140 21q-183 0 -307 -53q-26 -16 -37 -33q-12 -21 -12 -62v-753z
M590 -139h35q41 0 41 -45q0 -214 -134 -348q-21 -21 -36 -21q-16 0 -33 12q-17 15 -17 29q0 13 11 29q83 101 88 295q0 49 45 49z" />
    <glyph glyph-name="Ncaron" unicode="&#x147;" horiz-adv-x="1456" 
d="M338 35q0 -41 -39 -41h-45q-37 0 -37 41v1323q0 51 20 74q19 22 62 22h31q35 0 53 -15t43 -57q532 -930 696 -1245q-4 136 -4 1272q0 43 41 43h45q35 0 35 -41v-1341q0 -80 -72 -80h-32q-36 0 -54 15q-19 16 -43 56q-563 985 -704 1252q4 -349 4 -1278zM981 1864
q25 0 43 -6q20 -6 20 -23q0 -15 -18 -33l-213 -203q-32 -32 -59 -32h-41q-30 0 -56 26l-219 213q-12 8 -12 25q0 21 20 27q23 6 48 6q24 0 57 -27l186 -154l183 152q35 29 61 29z" />
    <glyph glyph-name="ncaron" unicode="&#x148;" horiz-adv-x="1163" 
d="M297 33q0 -39 -37 -39h-43q-37 0 -37 39v805q0 82 64 116q174 86 440 86q134 0 193 -29q62 -30 86 -93q20 -47 20 -201v-684q0 -39 -37 -39h-45q-35 0 -35 39v667q0 108 -16 150q-15 43 -57 63q-44 21 -140 21q-183 0 -307 -53q-26 -16 -37 -33q-12 -21 -12 -62v-753z
M793 1544q25 0 43 -6t18 -20t-14 -31l-199 -279q-24 -30 -55 -30h-39q-32 0 -49 26l-197 279q-16 20 -16 33q0 16 18 22t43 6q27 0 49 -26l176 -226l172 221q23 31 50 31z" />
    <glyph glyph-name="napostrophe" unicode="&#x149;" horiz-adv-x="1163" 
d="M297 33q0 -39 -37 -39h-43q-37 0 -37 39v805q0 82 64 116q174 86 440 86q134 0 193 -29q62 -30 86 -93q20 -47 20 -201v-684q0 -39 -37 -39h-45q-35 0 -35 39v667q0 108 -16 150q-15 43 -57 63q-44 21 -140 21q-183 0 -307 -53q-26 -16 -37 -33q-12 -21 -12 -62v-753z
M252 1589h35q41 0 41 -45q0 -215 -133 -348q-20 -20 -37 -20q-18 0 -33 12q-16 15 -16 29t10 28q83 101 88 295q0 49 45 49z" />
    <glyph glyph-name="Eng" unicode="&#x14a;" horiz-adv-x="1456" 
d="M338 35q0 -41 -39 -41h-45q-37 0 -37 41v1323q0 51 20 74q19 22 62 22h31q35 0 53 -15t43 -57q581 -995 696 -1214q-4 309 -4 1241q0 43 41 43h45q35 0 35 -41v-1472q0 -202 -98 -279q-49 -42 -140 -82q-84 -37 -135 -37q-27 0 -35 23q-10 26 -10 49q0 30 43 37
q112 28 172 69q80 62 80 203v21q-626 1080 -782 1370q4 -349 4 -1278z" />
    <glyph glyph-name="eng" unicode="&#x14b;" horiz-adv-x="1163" 
d="M297 33q0 -39 -37 -39h-43q-37 0 -37 39v805q0 82 64 116q174 86 440 86q134 0 193 -29q62 -30 86 -93q20 -47 20 -201v-832q0 -178 -80 -258q-48 -46 -131 -76q-84 -30 -145 -30q-27 0 -33 22q-6 21 -6 43q0 31 39 37q120 22 178 68q61 51 61 190v819q0 108 -16 150
q-15 43 -57 63q-44 21 -140 21q-183 0 -307 -53q-26 -16 -37 -33q-12 -21 -12 -62v-753z" />
    <glyph glyph-name="Omacron" unicode="&#x14c;" horiz-adv-x="1413" 
d="M1284 733q0 -221 -35 -372q-35 -149 -110 -233q-77 -86 -181 -120q-107 -35 -260 -35q-152 0 -253 34q-103 35 -175 119t-107 233q-34 146 -34 372t43 374q44 150 126 228q84 80 181 109q102 31 236 31q120 0 207 -17q86 -17 157 -62q75 -47 116 -128q42 -82 66 -213
q23 -125 23 -320zM1155 731q0 208 -23 327q-24 123 -81 191q-57 67 -136 90q-80 23 -206 23q-115 0 -195 -26q-77 -25 -139 -93q-61 -67 -90 -192q-29 -127 -29 -318q0 -200 28 -335q26 -128 88 -197q61 -68 136 -92q80 -25 194 -25q119 0 192 22q72 22 139 90q64 66 93 197
q29 133 29 338zM977 1632h-512q-35 0 -35 31v49q0 33 37 33h508q37 0 37 -33v-51q0 -29 -35 -29z" />
    <glyph glyph-name="omacron" unicode="&#x14d;" horiz-adv-x="1105" 
d="M991 518q0 -317 -100 -430q-101 -115 -344 -115q-237 0 -335 112q-97 110 -97 427q0 163 31 269t95 164t138 78q76 21 182 21q102 0 160 -11q64 -12 119 -42q56 -30 86 -89t48 -152q17 -89 17 -232zM872 508q0 187 -32 276q-33 93 -97 123q-65 31 -186 31
q-168 0 -246 -86t-78 -336q0 -183 35 -280q35 -96 99 -127q65 -31 182 -31q90 0 141 13q53 14 98 57q45 44 65 132q19 85 19 228zM805 1257h-473q-35 0 -35 31v49q0 35 37 35h469q37 0 37 -35v-49q0 -31 -35 -31z" />
    <glyph glyph-name="Obreve" unicode="&#x14e;" horiz-adv-x="1413" 
d="M1284 733q0 -221 -35 -372q-35 -149 -110 -233q-77 -86 -181 -120q-107 -35 -260 -35q-152 0 -253 34q-103 35 -175 119t-107 233q-34 146 -34 372t43 374q44 150 126 228q84 80 181 109q102 31 236 31q120 0 207 -17q86 -17 157 -62q75 -47 116 -128q42 -82 66 -213
q23 -125 23 -320zM1155 731q0 208 -23 327q-24 123 -81 191q-57 67 -136 90q-80 23 -206 23q-115 0 -195 -26q-77 -25 -139 -93q-61 -67 -90 -192q-29 -127 -29 -318q0 -200 28 -335q26 -128 88 -197q61 -68 136 -92q80 -25 194 -25q119 0 192 22q72 22 139 90q64 66 93 197
q29 133 29 338zM715 1559q-137 0 -199 52q-64 54 -82 146q-6 30 -6 47q0 31 23 39q22 8 49 8q20 0 26 -28q12 -78 54 -119q40 -39 135 -39q101 0 144 40q44 41 56 118q6 28 33 28q30 0 45 -6q17 -6 17 -26q0 -19 -11 -68q-47 -192 -284 -192z" />
    <glyph glyph-name="obreve" unicode="&#x14f;" horiz-adv-x="1105" 
d="M991 518q0 -317 -100 -430q-101 -115 -344 -115q-237 0 -335 112q-97 110 -97 427q0 163 31 269t95 164t138 78q76 21 182 21q102 0 160 -11q64 -12 119 -42q56 -30 86 -89t48 -152q17 -89 17 -232zM872 508q0 187 -32 276q-33 93 -97 123q-65 31 -186 31
q-168 0 -246 -86t-78 -336q0 -183 35 -280q35 -96 99 -127q65 -31 182 -31q90 0 141 13q53 14 98 57q45 44 65 132q19 85 19 228zM788 1475q16 0 39 -5q17 -5 17 -28q0 -25 -8 -68q-45 -200 -275 -200q-125 0 -184 52q-60 52 -82 150q-6 21 -6 58q0 25 20 32q25 9 41 9
q28 0 29 -27q12 -81 53 -125q40 -43 131 -43q94 0 136 42t57 124q6 29 32 29z" />
    <glyph glyph-name="Ohungarumlaut" unicode="&#x150;" horiz-adv-x="1413" 
d="M1284 733q0 -221 -35 -372q-35 -149 -110 -233q-77 -86 -181 -120q-107 -35 -260 -35q-152 0 -253 34q-103 35 -175 119t-107 233q-34 146 -34 372t43 374q44 150 126 228q84 80 181 109q102 31 236 31q120 0 207 -17q86 -17 157 -62q75 -47 116 -128q42 -82 66 -213
q23 -125 23 -320zM1155 731q0 208 -23 327q-24 123 -81 191q-57 67 -136 90q-80 23 -206 23q-115 0 -195 -26q-77 -25 -139 -93q-61 -67 -90 -192q-29 -127 -29 -318q0 -200 28 -335q26 -128 88 -197q61 -68 136 -92q80 -25 194 -25q119 0 192 22q72 22 139 90q64 66 93 197
q29 133 29 338zM580 1583q-34 -24 -64 -24q-23 0 -49 8q-18 6 -18 22q0 17 22 35l268 215q35 29 68 29q25 0 65 -8q23 -6 23 -25q0 -20 -21 -37zM926 1583q-30 -24 -64 -24q-21 0 -47 8q-18 6 -18 22q0 21 20 35l268 213q39 31 68 31q25 0 68 -8q22 -6 22 -25t-22 -37z" />
    <glyph glyph-name="ohungarumlaut" unicode="&#x151;" horiz-adv-x="1105" 
d="M991 518q0 -317 -100 -430q-101 -115 -344 -115q-237 0 -335 112q-97 110 -97 427q0 163 31 269t95 164t138 78q76 21 182 21q102 0 160 -11q64 -12 119 -42q56 -30 86 -89t48 -152q17 -89 17 -232zM872 508q0 187 -32 276q-33 93 -97 123q-65 31 -186 31
q-168 0 -246 -86t-78 -336q0 -183 35 -280q35 -96 99 -127q65 -31 182 -31q90 0 141 13q53 14 98 57q45 44 65 132q19 85 19 228zM434 1208q-22 -22 -49 -22q-25 0 -37 6q-16 6 -16 22q0 14 18 37l193 258q25 31 57 31q31 0 55 -6q25 -6 25 -25q0 -14 -16 -34zM727 1208
q-22 -22 -47 -22q-27 0 -39 6q-16 6 -16 22q0 13 16 33l195 262q25 31 57 31q33 0 55 -6q25 -6 25 -25q0 -12 -17 -34z" />
    <glyph glyph-name="OE" unicode="&#x152;" horiz-adv-x="2052" 
d="M1933 0h-612q-91 0 -132 38q-40 37 -42 155q-60 -123 -162 -171q-104 -49 -291 -49q-153 0 -252 34q-102 35 -174 119q-73 85 -106 232t-33 373q0 224 42 374q42 149 125 228q84 80 181 109q102 31 234 31q175 0 281 -45q102 -43 157 -164q5 103 41 142q37 40 129 40h586
q39 0 39 -35v-43q0 -35 -39 -35h-580q-70 0 -70 -78v-446h586q39 0 39 -35v-43q0 -33 -39 -33h-586v-491q0 -94 80 -94h598q39 0 39 -35v-43q0 -35 -39 -35zM1135 731q0 203 -23 330q-22 124 -80 191t-131 88q-77 22 -196 22q-115 0 -195 -26q-78 -26 -138 -93
q-61 -69 -88 -192q-28 -129 -28 -318q0 -205 27 -335q27 -131 86 -197q61 -69 134 -92q78 -25 193 -25q66 0 104 3t90 15q51 12 83 37q28 23 65 72t54 116q18 70 30 170q13 111 13 234z" />
    <glyph glyph-name="oe" unicode="&#x153;" horiz-adv-x="1808" 
d="M934 188q-43 -115 -136 -165q-94 -50 -251 -50q-237 0 -335 112q-97 110 -97 427q0 163 31 269t95 164t138 78q76 21 182 21q163 0 253 -44q89 -44 128 -171q101 215 385 215q126 0 201 -33q77 -34 115 -107q35 -68 48 -150q11 -72 11 -203q0 -48 -14 -62
q-10 -10 -41 -10h-656q1 -235 86 -318t266 -83q129 0 242 35q33 10 51 10q19 0 25 -17q12 -24 12 -49q0 -23 -33 -34q-132 -50 -309 -50q-302 0 -397 215zM872 508q0 187 -32 276q-33 93 -97 123q-65 31 -186 31q-168 0 -246 -86t-78 -336q0 -183 35 -280q35 -96 99 -127
q65 -31 182 -31q90 0 141 13q53 14 98 57q45 44 65 132q19 85 19 228zM993 578h590q2 24 2 53q0 156 -55 232q-56 77 -213 77q-176 0 -248 -92q-71 -91 -76 -270z" />
    <glyph glyph-name="Racute" unicode="&#x154;" horiz-adv-x="1265" 
d="M340 35q0 -41 -39 -41h-47q-37 0 -37 41v1229q0 94 38 138t136 44h162q248 0 354 -41q113 -45 160 -131t47 -221q0 -303 -270 -381l-23 -6l340 -594q19 -40 19 -47q0 -20 -19 -25q-18 -6 -69 -6q-29 0 -52 41l-342 612q-73 -4 -133 -4h-225v-608zM340 752h233
q175 0 271 39q143 60 143 256q0 117 -36 172q-36 56 -103 84q-71 32 -283 32h-143q-46 0 -64 -19q-18 -20 -18 -63v-501zM633 1583q-35 -24 -66 -24q-25 0 -51 8q-18 6 -18 20q0 21 20 35l275 217q38 29 65 29q30 0 78 -8q25 -6 25 -27q0 -20 -23 -35z" />
    <glyph glyph-name="racute" unicode="&#x155;" horiz-adv-x="729" 
d="M297 33q0 -39 -37 -39h-43q-37 0 -37 39v792q0 72 43 115q38 35 147 68q106 32 212 32q55 0 82 -6q22 -4 22 -24q0 -38 -6 -60q-6 -24 -29 -24q-1 0 -5 0.5t-12.5 1t-16.5 0.5q-40 2 -42 2q-146 0 -231 -49q-26 -12 -37 -35q-10 -17 -10 -62v-751zM440 1208
q-21 -22 -49 -22q-27 0 -45 6t-18 22q0 17 14 31l213 264q28 31 61 31q39 0 64 -4q25 -6 25 -27q0 -15 -19 -34z" />
    <glyph glyph-name="Rcommaaccent" unicode="&#x156;" horiz-adv-x="1265" 
d="M340 35q0 -41 -39 -41h-47q-37 0 -37 41v1229q0 94 38 138t136 44h162q248 0 354 -41q113 -45 160 -131t47 -221q0 -303 -270 -381l-23 -6l340 -594q19 -40 19 -47q0 -20 -19 -25q-18 -6 -69 -6q-29 0 -52 41l-342 612q-73 -4 -133 -4h-225v-608zM340 752h233
q175 0 271 39q143 60 143 256q0 117 -36 172q-36 56 -103 84q-71 32 -283 32h-143q-46 0 -64 -19q-18 -20 -18 -63v-501zM637 -139h35q41 0 41 -45q0 -215 -133 -348q-21 -21 -37 -21q-18 0 -33 12q-16 15 -16 29q0 15 10 29q83 101 88 295q0 49 45 49z" />
    <glyph glyph-name="rcommaaccent" unicode="&#x157;" horiz-adv-x="729" 
d="M297 33q0 -39 -37 -39h-43q-37 0 -37 39v792q0 72 43 115q38 35 147 68q106 32 212 32q55 0 82 -6q22 -4 22 -24q0 -38 -6 -60q-6 -24 -29 -24q-1 0 -5 0.5t-12.5 1t-16.5 0.5q-40 2 -42 2q-146 0 -231 -49q-26 -12 -37 -35q-10 -17 -10 -62v-751zM231 -139h35
q41 0 41 -45q0 -215 -133 -348q-21 -21 -37 -21q-18 0 -33 12q-16 15 -16 29q0 15 10 29q83 101 88 295q0 49 45 49z" />
    <glyph glyph-name="Rcaron" unicode="&#x158;" horiz-adv-x="1265" 
d="M340 35q0 -41 -39 -41h-47q-37 0 -37 41v1229q0 94 38 138t136 44h162q248 0 354 -41q113 -45 160 -131t47 -221q0 -303 -270 -381l-23 -6l340 -594q19 -40 19 -47q0 -20 -19 -25q-18 -6 -69 -6q-29 0 -52 41l-342 612q-73 -4 -133 -4h-225v-608zM340 752h233
q175 0 271 39q143 60 143 256q0 117 -36 172q-36 56 -103 84q-71 32 -283 32h-143q-46 0 -64 -19q-18 -20 -18 -63v-501zM854 1864q25 0 43 -6q21 -6 21 -23q0 -14 -19 -33l-213 -203q-32 -32 -59 -32h-41q-30 0 -56 26l-219 213q-12 8 -12 25q0 21 20 27q21 6 48 6
q24 0 57 -27l186 -154l183 152q35 29 61 29z" />
    <glyph glyph-name="rcaron" unicode="&#x159;" horiz-adv-x="729" 
d="M297 33q0 -39 -37 -39h-43q-37 0 -37 39v792q0 72 43 115q38 35 147 68q106 32 212 32q55 0 82 -6q22 -4 22 -24q0 -38 -6 -60q-6 -24 -29 -24q-1 0 -5 0.5t-12.5 1t-16.5 0.5q-40 2 -42 2q-146 0 -231 -49q-26 -12 -37 -35q-10 -17 -10 -62v-751zM655 1544q25 0 43 -6
q19 -6 19 -20q0 -13 -15 -31l-198 -279q-24 -30 -55 -30h-39q-33 0 -50 26l-196 279q-17 22 -17 33q0 16 19 22q18 6 43 6q27 0 49 -26l176 -226l172 221q23 31 49 31z" />
    <glyph glyph-name="Sacute" unicode="&#x15a;" horiz-adv-x="1144" 
d="M702 750q185 -56 257 -134q73 -79 73 -231q0 -198 -114 -305q-115 -107 -379 -107q-227 0 -396 66q-37 15 -37 39q0 20 15 53q11 31 37 31q6 0 51 -17q155 -59 330 -59q119 0 199 27q79 27 113 74q33 46 44 89q10 39 10 97q0 45 -8 77q-6 25 -36 66q-26 37 -90 70
q-62 33 -161 61l-202 60q-137 41 -209 135t-72 225q0 201 116 303q117 103 371 103q180 0 324 -39q35 -12 35 -39q0 -19 -12 -56q-7 -22 -33 -22q-9 0 -49 8q-138 35 -277 35q-201 0 -276 -73q-74 -72 -74 -208q0 -99 53 -161t219 -113zM580 1583q-34 -24 -66 -24
q-25 0 -51 8q-19 6 -19 20q0 20 21 35l274 217q38 29 66 29q30 0 78 -8q24 -6 24 -27q0 -20 -22 -35z" />
    <glyph glyph-name="sacute" unicode="&#x15b;" horiz-adv-x="872" 
d="M483 440l-164 49q-221 66 -221 263q0 290 365 290q159 0 256 -26q35 -11 35 -37q0 -7 -13 -51q-6 -21 -24 -21q-17 0 -35 6q-105 27 -221 27q-145 0 -195 -47q-49 -46 -49 -131q0 -59 38 -102q35 -39 153 -78l143 -45q127 -40 186 -99q58 -58 58 -170q0 -295 -377 -295
q-192 0 -307 47q-27 12 -27 35q0 14 12 47q11 25 33 25q8 0 37 -10q108 -39 254 -39q158 0 209 52t51 134q0 61 -37 98q-38 38 -160 78zM465 1208q-21 -22 -49 -22q-27 0 -45 6q-19 6 -19 22t15 31l213 264q28 31 61 31q39 0 64 -4q24 -6 24 -27q0 -16 -18 -34z" />
    <glyph glyph-name="Scircumflex" unicode="&#x15c;" horiz-adv-x="1144" 
d="M702 750q185 -56 257 -134q73 -79 73 -231q0 -198 -114 -305q-115 -107 -379 -107q-227 0 -396 66q-37 15 -37 39q0 20 15 53q11 31 37 31q6 0 51 -17q155 -59 330 -59q119 0 199 27q79 27 113 74q33 46 44 89q10 39 10 97q0 45 -8 77q-6 25 -36 66q-26 37 -90 70
q-62 33 -161 61l-202 60q-137 41 -209 135t-72 225q0 201 116 303q117 103 371 103q180 0 324 -39q35 -12 35 -39q0 -19 -12 -56q-7 -22 -33 -22q-9 0 -49 8q-138 35 -277 35q-201 0 -276 -73q-74 -72 -74 -208q0 -99 53 -161t219 -113zM334 1559q-25 0 -43 6q-19 6 -19 22
q0 21 17 33l213 205q34 30 59 30h41q29 0 55 -26l224 -215q10 -7 10 -25t-21 -24q-22 -6 -49 -6q-23 0 -57 28l-186 152l-183 -152q-29 -28 -61 -28z" />
    <glyph glyph-name="scircumflex" unicode="&#x15d;" horiz-adv-x="872" 
d="M483 440l-164 49q-221 66 -221 263q0 290 365 290q159 0 256 -26q35 -11 35 -37q0 -7 -13 -51q-6 -21 -24 -21q-17 0 -35 6q-105 27 -221 27q-145 0 -195 -47q-49 -46 -49 -131q0 -59 38 -102q35 -39 153 -78l143 -45q127 -40 186 -99q58 -58 58 -170q0 -295 -377 -295
q-192 0 -307 47q-27 12 -27 35q0 14 12 47q11 25 33 25q8 0 37 -10q108 -39 254 -39q158 0 209 52t51 134q0 61 -37 98q-38 38 -160 78zM227 1169q-23 0 -41 7q-20 6 -20 20q0 10 14 31l199 278q25 31 55 31h39q31 0 49 -27l197 -278q16 -20 16 -33q0 -16 -18 -22
q-19 -7 -43 -7q-26 0 -49 27l-176 225l-173 -221q-28 -31 -49 -31z" />
    <glyph glyph-name="Scedilla" unicode="&#x15e;" horiz-adv-x="1144" 
d="M571 -131q119 -2 160 -49t41 -131q0 -193 -240 -193q-63 0 -106 10q-27 6 -27 31q0 2 7 37q6 25 32 25q4 0 9 -1l7 -2q7 -1 12 -2q3 0 5.5 -0.5t4 -1t3 -0.5h2.5q24 -4 56 -4q122 0 122 95q0 52 -26 72q-28 22 -94 22h-33q-37 0 -37 30q0 24 10 68l19 98q-205 6 -355 66
q-37 15 -37 39q0 20 15 53q11 31 37 31q6 0 51 -17q155 -59 330 -59q119 0 199 27q79 27 113 74q33 46 44 89q10 39 10 97q0 45 -8 77q-6 25 -36 66q-26 37 -90 70q-62 33 -161 61l-202 60q-137 41 -209 135t-72 225q0 201 116 303q117 103 371 103q180 0 324 -39
q35 -12 35 -39q0 -19 -12 -56q-7 -22 -33 -22q-9 0 -49 8q-138 35 -277 35q-201 0 -276 -73q-74 -72 -74 -208q0 -99 53 -161t219 -113l178 -55q185 -56 257 -134q73 -79 73 -231q0 -190 -104 -294q-106 -106 -340 -116z" />
    <glyph glyph-name="scedilla" unicode="&#x15f;" horiz-adv-x="872" 
d="M426 -127q117 -2 155 -47q37 -44 37 -127q0 -184 -231 -184q-61 0 -98 8q-27 6 -27 28t6 37q6 23 29 23q7 0 45 -6q32 -2 49 -2q119 0 119 90q0 49 -25 71q-24 21 -90 21h-33q-32 0 -32 31q0 9 8 57l18 102q-156 10 -245 45q-27 12 -27 35q0 14 12 47q11 25 33 25
q8 0 37 -10q108 -39 254 -39q158 0 209 52t51 134q0 61 -37 98q-38 38 -160 78l-164 49q-221 66 -221 263q0 290 365 290q159 0 256 -26q35 -11 35 -37q0 -7 -13 -51q-6 -21 -24 -21q-17 0 -35 6q-105 27 -221 27q-145 0 -195 -47q-49 -46 -49 -131q0 -59 38 -102
q35 -39 153 -78l143 -45q127 -40 186 -99q58 -58 58 -170q0 -283 -355 -295z" />
    <glyph glyph-name="Scaron" unicode="&#x160;" horiz-adv-x="1144" 
d="M702 750q185 -56 257 -134q73 -79 73 -231q0 -198 -114 -305q-115 -107 -379 -107q-227 0 -396 66q-37 15 -37 39q0 20 15 53q11 31 37 31q6 0 51 -17q155 -59 330 -59q119 0 199 27q79 27 113 74q33 46 44 89q10 39 10 97q0 45 -8 77q-6 25 -36 66q-26 37 -90 70
q-62 33 -161 61l-202 60q-137 41 -209 135t-72 225q0 201 116 303q117 103 371 103q180 0 324 -39q35 -12 35 -39q0 -19 -12 -56q-7 -22 -33 -22q-9 0 -49 8q-138 35 -277 35q-201 0 -276 -73q-74 -72 -74 -208q0 -99 53 -161t219 -113zM819 1864q25 0 43 -6q21 -6 21 -23
q0 -14 -19 -33l-213 -203q-32 -32 -59 -32h-41q-29 0 -55 26l-220 213q-12 8 -12 25q0 21 21 27t47 6q24 0 57 -27l186 -154l183 152q35 29 61 29z" />
    <glyph glyph-name="scaron" unicode="&#x161;" horiz-adv-x="872" 
d="M483 440l-164 49q-221 66 -221 263q0 290 365 290q159 0 256 -26q35 -11 35 -37q0 -7 -13 -51q-6 -21 -24 -21q-17 0 -35 6q-105 27 -221 27q-145 0 -195 -47q-49 -46 -49 -131q0 -59 38 -102q35 -39 153 -78l143 -45q127 -40 186 -99q58 -58 58 -170q0 -295 -377 -295
q-192 0 -307 47q-27 12 -27 35q0 14 12 47q11 25 33 25q8 0 37 -10q108 -39 254 -39q158 0 209 52t51 134q0 61 -37 98q-38 38 -160 78zM680 1544q25 0 43 -6t18 -20t-14 -31l-199 -279q-24 -30 -55 -30h-39q-32 0 -49 26l-197 279q-16 20 -16 33q0 16 18 22t43 6
q28 0 50 -26l176 -226l172 221q23 31 49 31z" />
    <glyph glyph-name="uni0162" unicode="&#x162;" horiz-adv-x="1159" 
d="M586 -131q118 -1 159 -49q41 -47 41 -131q0 -193 -239 -193q-64 0 -107 10q-26 6 -26 31q0 7 6 37q6 25 33 25q4 0 9 -1q1 0 7 -1.5t11 -2.5q3 0 5.5 -0.5t4.5 -1t3.5 -0.5h2.5q24 -4 55 -4q123 0 123 95q0 51 -27 72q-28 22 -94 22h-33q-37 0 -37 30q0 19 11 68l24 125
q-12 8 -12 35v1298h-428q-39 0 -39 35v43q0 35 39 35h979q39 0 39 -35v-43q0 -35 -39 -35h-428v-1298q0 -33 -23 -39z" />
    <glyph glyph-name="uni0163" unicode="&#x163;" horiz-adv-x="661" 
d="M406 -127q116 -1 154 -47t38 -127q0 -184 -231 -184q-62 0 -99 8q-26 6 -26 28t6 37q6 23 28 23q8 0 46 -6q32 -2 49 -2q118 0 118 90q0 50 -24 71t-90 21h-33q-33 0 -33 31q0 9 8 57l29 162q-25 16 -51 47q-66 76 -66 293v536h-137q-33 0 -33 33v39q0 33 35 33h137
q0 31 7 239q0 43 30 43h47q31 0 31 -41v-241h244q37 0 37 -31v-39q0 -35 -39 -35h-242v-544q0 -139 33 -191q23 -42 79 -62t160 -26q33 -2 33 -33q0 -25 -2 -47q-6 -26 -39 -26q-131 5 -184 18z" />
    <glyph glyph-name="Tcaron" unicode="&#x164;" horiz-adv-x="1159" 
d="M629 35q0 -41 -37 -41h-51q-35 0 -35 41v1298h-428q-39 0 -39 35v43q0 35 39 35h979q39 0 39 -35v-43q0 -35 -39 -35h-428v-1298zM811 1864q25 0 43 -6q20 -6 20 -23q0 -15 -18 -33l-213 -203q-32 -32 -59 -32h-41q-30 0 -56 26l-219 213q-12 8 -12 25q0 21 20 27
q21 6 48 6q24 0 57 -27l186 -154l183 152q35 29 61 29z" />
    <glyph glyph-name="tcaron" unicode="&#x165;" horiz-adv-x="661" 
d="M346 367q0 -139 33 -191q23 -42 79 -62t160 -26q33 -2 33 -33q0 -25 -2 -47q-6 -26 -39 -26q-120 1 -194 23q-71 21 -121 77q-66 76 -66 293v536h-137q-33 0 -33 33v39q0 33 35 33h137q0 31 7 239q0 43 30 43h47q31 0 31 -41v-241h244q37 0 37 -31v-39q0 -35 -39 -35
h-242v-544zM594 1538h35q41 0 41 -45q0 -218 -133 -348q-21 -21 -37 -21q-15 0 -33 15q-18 17 -18 26q0 13 12 29q83 101 88 295q0 49 45 49z" />
    <glyph glyph-name="Tbar" unicode="&#x166;" horiz-adv-x="1159" 
d="M641 35q0 -41 -37 -41h-51q-35 0 -35 41v729h-276q-33 0 -33 29v45q0 32 35 32h274v463h-428q-39 0 -39 35v43q0 35 39 35h979q39 0 39 -35v-43q0 -35 -39 -35h-428v-463h281q34 0 34 -32v-45q0 -29 -32 -29h-283v-729z" />
    <glyph glyph-name="tbar" unicode="&#x167;" horiz-adv-x="661" 
d="M346 367q0 -139 33 -191q23 -42 79 -62t160 -26q33 -2 33 -33q0 -25 -2 -47q-6 -26 -39 -26q-120 1 -194 23q-71 21 -121 77q-66 76 -66 293v219h-127q-32 0 -32 29v34q0 33 34 33h125v221h-137q-33 0 -33 33v39q0 33 35 33h137q0 31 7 239q0 43 30 43h47q31 0 31 -41
v-241h244q37 0 37 -31v-39q0 -35 -39 -35h-242v-221h184q35 0 35 -33v-34q0 -29 -33 -29h-186v-227z" />
    <glyph glyph-name="Utilde" unicode="&#x168;" horiz-adv-x="1413" 
d="M1210 1415v-837q0 -174 -10 -257q-11 -89 -47 -153q-108 -197 -453 -197q-172 0 -284 48t-168 167q-45 94 -45 387v842q0 39 39 39h51q33 0 33 -39v-895q0 -220 47 -299q83 -137 334 -137q264 0 333 129q50 91 50 299v903q0 39 36 39h52q32 0 32 -39zM444 1583
q-26 0 -43 6q-16 7 -16 27q0 12 14 47q61 147 170 147q54 0 164 -61q85 -45 131 -45q58 0 88 82q15 37 41 37q21 0 43 -8q17 -6 17 -23q0 -12 -11 -43q-53 -164 -174 -164q-56 0 -163 55q-103 54 -140 54q-26 0 -43 -17q-16 -16 -37 -61q-12 -33 -41 -33z" />
    <glyph glyph-name="utilde" unicode="&#x169;" horiz-adv-x="1163" 
d="M180 326v659q0 37 37 37h45q35 0 35 -37v-647q0 -126 20 -170q34 -88 224 -88q181 0 276 37q27 10 37 28q12 21 12 70v770q0 37 37 37h43q37 0 37 -37v-823q0 -93 -61 -121q-142 -68 -410 -68q-254 0 -305 133q-27 63 -27 220zM330 1237q-26 0 -37 4q-21 6 -21 23
q0 10 13 43q63 151 161 151q51 0 158 -61q85 -47 127 -47q30 0 47 16q19 17 35 66q14 36 39 36q20 0 39 -4q18 -6 18 -24q0 -19 -10 -45q-28 -87 -68 -124q-39 -36 -96 -36q-56 0 -160 55q-106 53 -129 53q-24 0 -42 -15q-16 -14 -35 -60q-12 -31 -39 -31z" />
    <glyph glyph-name="Umacron" unicode="&#x16a;" horiz-adv-x="1413" 
d="M1210 1415v-837q0 -174 -10 -257q-11 -89 -47 -153q-108 -197 -453 -197q-172 0 -284 48t-168 167q-45 94 -45 387v842q0 39 39 39h51q33 0 33 -39v-895q0 -220 47 -299q83 -137 334 -137q264 0 333 129q50 91 50 299v903q0 39 36 39h52q32 0 32 -39zM971 1632h-512
q-35 0 -35 31v49q0 33 37 33h508q37 0 37 -33v-51q0 -29 -35 -29z" />
    <glyph glyph-name="umacron" unicode="&#x16b;" horiz-adv-x="1163" 
d="M180 326v659q0 37 37 37h45q35 0 35 -37v-647q0 -126 20 -170q34 -88 224 -88q181 0 276 37q27 10 37 28q12 21 12 70v770q0 37 37 37h43q37 0 37 -37v-823q0 -93 -61 -121q-142 -68 -410 -68q-254 0 -305 133q-27 63 -27 220zM825 1257h-473q-35 0 -35 31v49q0 35 37 35
h469q37 0 37 -35v-49q0 -31 -35 -31z" />
    <glyph glyph-name="Ubreve" unicode="&#x16c;" horiz-adv-x="1413" 
d="M1210 1415v-837q0 -174 -10 -257q-11 -89 -47 -153q-108 -197 -453 -197q-172 0 -284 48t-168 167q-45 94 -45 387v842q0 39 39 39h51q33 0 33 -39v-895q0 -220 47 -299q83 -137 334 -137q264 0 333 129q50 91 50 299v903q0 39 36 39h52q32 0 32 -39zM700 1559
q-136 0 -198 52q-64 54 -82 146q-6 30 -6 47q0 32 22 39q22 8 49 8q21 0 27 -28q12 -80 53 -119t135 -39q102 0 145 40q44 41 56 118q6 28 33 28q28 0 45 -6q16 -6 16 -26q0 -24 -10 -68q-47 -192 -285 -192z" />
    <glyph glyph-name="ubreve" unicode="&#x16d;" horiz-adv-x="1163" 
d="M180 326v659q0 37 37 37h45q35 0 35 -37v-647q0 -126 20 -170q34 -88 224 -88q181 0 276 37q27 10 37 28q12 21 12 70v770q0 37 37 37h43q37 0 37 -37v-823q0 -93 -61 -121q-142 -68 -410 -68q-254 0 -305 133q-27 63 -27 220zM807 1475q16 0 39 -5q16 -4 16 -28
q0 -25 -8 -68q-45 -200 -274 -200q-126 0 -185 52q-60 52 -82 150q-6 21 -6 58q0 25 21 32q25 9 41 9q27 0 28 -27q12 -79 54 -125q40 -43 131 -43q94 0 136 42q41 41 56 124q6 29 33 29z" />
    <glyph glyph-name="Uring" unicode="&#x16e;" horiz-adv-x="1413" 
d="M1210 1415v-837q0 -174 -10 -257q-11 -89 -47 -153q-108 -197 -453 -197q-172 0 -284 48t-168 167q-45 94 -45 387v842q0 39 39 39h51q33 0 33 -39v-895q0 -220 47 -299q83 -137 334 -137q264 0 333 129q50 91 50 299v903q0 39 36 39h52q32 0 32 -39zM889 1690
q0 -90 -51 -136q-52 -47 -136 -47q-81 0 -130 47q-48 46 -48 136q0 88 50 138t135 50q84 0 132 -50t48 -138zM821 1694q0 121 -116 121q-54 0 -84 -32q-31 -33 -31 -91q0 -56 32 -90q32 -33 85 -33q54 0 84 33t30 92z" />
    <glyph glyph-name="uring" unicode="&#x16f;" horiz-adv-x="1163" 
d="M180 326v659q0 37 37 37h45q35 0 35 -37v-647q0 -126 20 -170q34 -88 224 -88q181 0 276 37q27 10 37 28q12 21 12 70v770q0 37 37 37h43q37 0 37 -37v-823q0 -93 -61 -121q-142 -68 -410 -68q-254 0 -305 133q-27 63 -27 220zM776 1372q0 -91 -53 -141q-52 -49 -143 -49
q-88 0 -138 49q-51 49 -51 141t53 145q52 52 142 52t140 -51q50 -52 50 -146zM707 1376q0 61 -34 95t-91 34q-55 0 -89 -34t-34 -97q0 -62 34 -96q35 -35 91 -35q57 0 90 35q33 34 33 98z" />
    <glyph glyph-name="Uhungarumlaut" unicode="&#x170;" horiz-adv-x="1413" 
d="M1210 1415v-837q0 -174 -10 -257q-11 -89 -47 -153q-108 -197 -453 -197q-172 0 -284 48t-168 167q-45 94 -45 387v842q0 39 39 39h51q33 0 33 -39v-895q0 -220 47 -299q83 -137 334 -137q264 0 333 129q50 91 50 299v903q0 39 36 39h52q32 0 32 -39zM555 1583
q-33 -24 -63 -24q-24 0 -50 8q-18 6 -18 22q0 17 22 35l269 215q38 29 67 29q26 0 66 -8q22 -6 22 -25q0 -21 -20 -37zM901 1583q-30 -24 -63 -24q-21 0 -47 8q-19 6 -19 22q0 20 21 35l268 213q39 31 67 31q25 0 68 -8q23 -6 23 -25t-23 -37z" />
    <glyph glyph-name="uhungarumlaut" unicode="&#x171;" horiz-adv-x="1163" 
d="M180 326v659q0 37 37 37h45q35 0 35 -37v-647q0 -126 20 -170q34 -88 224 -88q181 0 276 37q27 10 37 28q12 21 12 70v770q0 37 37 37h43q37 0 37 -37v-823q0 -93 -61 -121q-142 -68 -410 -68q-254 0 -305 133q-27 63 -27 220zM455 1208q-22 -22 -49 -22q-25 0 -37 6
q-17 6 -17 22q0 13 19 37l192 258q25 31 58 31q31 0 55 -6t24 -25q0 -14 -16 -34zM748 1208q-22 -22 -48 -22t-38 6q-17 6 -17 22q0 11 17 33l194 262q25 31 57 31q33 0 56 -6q24 -6 24 -25q0 -14 -16 -34z" />
    <glyph glyph-name="Uogonek" unicode="&#x172;" horiz-adv-x="1413" 
d="M1210 1415v-837q0 -174 -10 -257q-11 -89 -47 -153q-92 -169 -360 -193q-93 -64 -127 -113q-35 -50 -35 -126q0 -117 123 -117q30 0 61 4t41 4q19 0 25 -22q6 -18 6 -37q0 -26 -27 -33q-46 -14 -125 -14q-107 0 -163 52t-56 151q0 90 37 145t111 102q-157 5 -260 54
q-104 50 -156 161q-45 94 -45 387v842q0 39 39 39h51q33 0 33 -39v-895q0 -220 47 -299q83 -137 334 -137q264 0 333 129q50 91 50 299v903q0 39 36 39h52q32 0 32 -39z" />
    <glyph glyph-name="uogonek" unicode="&#x173;" horiz-adv-x="1163" 
d="M180 326v659q0 37 37 37h45q35 0 35 -37v-647q0 -126 20 -170q34 -88 224 -88q181 0 276 37q27 10 37 28q12 21 12 70v770q0 37 37 37h43q37 0 37 -37v-819q0 -67 -31 -103q-22 -22 -59 -34q-55 -34 -83 -56q-40 -31 -68 -57q-40 -37 -58 -78q-18 -40 -18 -88
q0 -110 118 -110q12 0 58 2q10 0 19.5 0.5t14 1t5.5 0.5q16 0 22 -19q6 -24 6 -39q0 -26 -26 -30q-57 -13 -119 -13q-101 0 -154 50t-53 145q0 90 43 146q44 58 129 104q-89 -15 -217 -15q-254 0 -305 133q-27 63 -27 220z" />
    <glyph glyph-name="Wcircumflex" unicode="&#x174;" horiz-adv-x="1906" 
d="M952 1260q-88 -317 -358 -1203q-18 -63 -86 -63h-31q-61 0 -78 63l-327 1311q-9 36 -9 51q0 23 21 29q15 4 68 4q28 0 38 -37q280 -1132 314 -1290q60 224 362 1202q21 68 78 68h29q55 0 76 -68q292 -970 352 -1204q88 384 313 1282q12 47 43 47q43 0 64 -4q22 -4 22 -29
q0 -12 -10 -55l-336 -1305q-16 -65 -82 -65h-31q-63 0 -81 65zM705 1559q-25 0 -43 6q-19 6 -19 22q0 21 16 33l213 205q35 30 60 30h41q29 0 55 -26l223 -215q11 -8 11 -25q0 -18 -21 -24t-49 -6q-20 0 -57 28l-187 152l-182 -152q-29 -28 -61 -28z" />
    <glyph glyph-name="wcircumflex" unicode="&#x175;" horiz-adv-x="1484" 
d="M741 838q-23 -94 -245 -781q-11 -35 -31 -50q-17 -13 -49 -13h-29q-60 0 -78 61l-262 889q-10 29 -10 47q0 27 24 29q29 4 64 4q27 0 39 -47q197 -660 246 -864q104 352 245 784q16 42 32 57q19 17 48 17h19q29 0 48 -14q17 -13 32 -56q223 -650 260 -788q83 322 233 858
q7 27 16 42q7 11 27 11q29 0 62 -4q20 -6 20 -25q0 -9 -12 -59l-250 -873q-21 -69 -76 -69h-33q-56 0 -77 63q-238 703 -263 781zM520 1169q-22 0 -41 7q-20 6 -20 20q0 10 14 31l199 278q25 31 55 31h39q31 0 49 -27l197 -278q16 -20 16 -33q0 -16 -18 -22q-18 -7 -43 -7
q-27 0 -49 27l-177 225l-172 -221q-28 -31 -49 -31z" />
    <glyph glyph-name="Ycircumflex" unicode="&#x176;" horiz-adv-x="1118" 
d="M621 37q0 -43 -37 -43h-49q-37 0 -37 43v600l-463 727q-27 40 -27 59q0 21 25 27q16 4 63 4q30 0 54 -39q288 -451 413 -663q58 103 406 653q28 49 61 49q41 0 60 -4q20 -1 20 -23q0 -18 -23 -53l-466 -735v-602zM315 1559q-25 0 -43 6t-18 22q0 21 16 33l213 205
q35 30 60 30h41q29 0 55 -26l223 -215q10 -7 10 -25t-20 -24q-21 -6 -49 -6q-24 0 -58 28l-186 152l-182 -152q-29 -28 -62 -28z" />
    <glyph glyph-name="ycircumflex" unicode="&#x177;" horiz-adv-x="1163" 
d="M180 305v680q0 37 37 37h45q35 0 35 -37v-663q0 -111 18 -156q33 -84 209 -84q188 0 291 53q32 19 39 33q12 21 12 63v754q0 37 37 37h43q37 0 37 -37v-965q0 -144 -33 -249q-82 -250 -596 -250q-44 0 -45 26q-4 29 -4 45q0 35 35 35q173 5 276 28q107 24 148 57
q43 34 67 87q31 74 31 191v63q-130 -80 -366 -80q-242 0 -291 129q-25 70 -25 203zM371 1169q-23 0 -41 7q-21 6 -21 20q0 8 15 31l198 278q25 31 56 31h38q32 0 50 -27l196 -278q17 -22 17 -33q0 -16 -19 -22q-19 -7 -43 -7q-27 0 -49 27l-176 225l-172 -221
q-28 -31 -49 -31z" />
    <glyph glyph-name="Ydieresis" unicode="&#x178;" horiz-adv-x="1118" 
d="M621 37q0 -43 -37 -43h-49q-37 0 -37 43v600l-463 727q-27 40 -27 59q0 21 25 27q16 4 63 4q30 0 54 -39q288 -451 413 -663q58 103 406 653q28 49 61 49q41 0 60 -4q20 -1 20 -23q0 -18 -23 -53l-466 -735v-602zM455 1675q0 -88 -80 -88t-80 86q0 88 80 88t80 -86z
M836 1675q0 -88 -80 -88t-80 86q0 88 80 88t80 -86z" />
    <glyph glyph-name="Zacute" unicode="&#x179;" horiz-adv-x="1214" 
d="M1110 0h-981q-80 0 -80 76q0 38 29 78l893 1179h-809q-43 0 -43 37v37q0 39 43 39h866q88 0 88 -74q0 -44 -33 -88l-890 -1171h919q41 0 41 -35v-43q0 -35 -43 -35zM639 1583q-35 -24 -66 -24q-25 0 -51 8q-18 6 -18 20q0 21 20 35l275 217q38 29 65 29q30 0 78 -8
q25 -6 25 -27q0 -20 -23 -35z" />
    <glyph glyph-name="zacute" unicode="&#x17a;" horiz-adv-x="966" 
d="M860 0h-713q-84 0 -84 76q0 46 43 96l650 737h-621q-35 0 -35 31v41q0 35 39 35h652q94 0 94 -76q0 -46 -39 -92l-653 -742h667q35 0 35 -32v-45q0 -29 -35 -29zM516 1208q-21 -22 -49 -22q-27 0 -45 6q-19 6 -19 22t15 31l213 264q25 31 61 31q39 0 64 -4q24 -6 24 -27
q0 -16 -18 -34z" />
    <glyph glyph-name="Zdotaccent" unicode="&#x17b;" horiz-adv-x="1214" 
d="M1110 0h-981q-80 0 -80 76q0 38 29 78l893 1179h-809q-43 0 -43 37v37q0 39 43 39h866q88 0 88 -74q0 -44 -33 -88l-890 -1171h919q41 0 41 -35v-43q0 -35 -43 -35zM727 1675q0 -88 -80 -88t-80 86q0 88 80 88t80 -86z" />
    <glyph glyph-name="zdotaccent" unicode="&#x17c;" horiz-adv-x="966" 
d="M860 0h-713q-84 0 -84 76q0 46 43 96l650 737h-621q-35 0 -35 31v41q0 35 39 35h652q94 0 94 -76q0 -46 -39 -92l-653 -742h667q35 0 35 -32v-45q0 -29 -35 -29zM596 1358q0 -86 -80 -86t-80 84q0 88 80 88t80 -86z" />
    <glyph glyph-name="Zcaron" unicode="&#x17d;" horiz-adv-x="1214" 
d="M1110 0h-981q-80 0 -80 76q0 38 29 78l893 1179h-809q-43 0 -43 37v37q0 39 43 39h866q88 0 88 -74q0 -44 -33 -88l-890 -1171h919q41 0 41 -35v-43q0 -35 -43 -35zM866 1864q25 0 43 -6q21 -6 21 -23q0 -14 -19 -33l-213 -203q-32 -32 -59 -32h-41q-29 0 -55 26
l-219 213q-13 8 -13 25q0 21 21 27q22 6 47 6q24 0 57 -27l187 -154l182 152q35 29 61 29z" />
    <glyph glyph-name="zcaron" unicode="&#x17e;" horiz-adv-x="966" 
d="M860 0h-713q-84 0 -84 76q0 46 43 96l650 737h-621q-35 0 -35 31v41q0 35 39 35h652q94 0 94 -76q0 -46 -39 -92l-653 -742h667q35 0 35 -32v-45q0 -29 -35 -29zM711 1544q25 0 43 -6t18 -20t-14 -31l-199 -279q-24 -30 -55 -30h-39q-32 0 -49 26l-197 279q-16 20 -16 33
q0 16 18 22t43 6q27 0 49 -26l176 -226l173 221q23 31 49 31z" />
    <glyph glyph-name="longs" unicode="&#x17f;" horiz-adv-x="528" 
d="M311 33q0 -39 -35 -39h-47q-34 0 -34 41v1108q0 201 75 282q99 109 340 113q40 0 41 -27q2 -22 2 -47q0 -30 -35 -32q-114 -6 -181 -28q-62 -21 -93 -75q-33 -53 -33 -188v-1108z" />
    <glyph glyph-name="florin" unicode="&#x192;" horiz-adv-x="933" 
d="M776 803h-241l-58 -678q-10 -123 -32 -188q-21 -64 -66 -107q-78 -78 -234 -78q-77 0 -114 10q-21 4 -21 29q0 28 8 57q6 21 31 21q5 0 36 -4t62 -4q120 0 152 59q44 84 55 207l58 676h-176q-35 0 -35 33v30q0 33 35 33h184l14 152q16 197 103 284q72 74 229 74
q92 0 135 -12q23 -6 23 -29q0 -10 -9 -55q-6 -23 -30 -23h-5q-5 1 -16 2.5t-23 2.5q-47 5 -73 5q-119 0 -162 -65q-40 -61 -51 -201l-12 -135h233q37 0 37 -33v-30q0 -33 -37 -33z" />
    <glyph glyph-name="Aringacute" unicode="&#x1fa;" horiz-adv-x="1198" 
d="M762 1550q0 -95 -70 -139q15 -23 21 -43l454 -1290q15 -44 15 -53q0 -19 -19 -25q-17 -6 -69 -6q-20 0 -28 11q-9 12 -19 38l-154 432h-588l-153 -432q-6 -22 -18 -38q-8 -11 -28 -11q-52 0 -69 6q-19 6 -19 25q0 9 15 53l465 1292q7 22 16 37q-72 44 -72 143
q0 78 44 122t116 44q74 0 117 -43t43 -123zM340 588h518l-256 751q-73 -217 -262 -751zM612 1776q-22 -21 -47 -21q-27 0 -43 2q-16 6 -16 19q0 12 12 24l201 185q26 22 57 22q47 0 68 -4q24 -6 24 -21q0 -17 -18 -32zM696 1554q0 101 -96 101q-94 0 -94 -103q0 -48 26 -75
q27 -29 70 -29t69 29q25 28 25 77z" />
    <glyph glyph-name="aringacute" unicode="&#x1fb;" horiz-adv-x="1069" 
d="M889 180q0 -59 -17 -90q-21 -34 -51 -51q-121 -66 -364 -66q-199 0 -274 87q-74 86 -74 237q0 169 118 238q102 57 312 57q155 0 235 -12v114q0 114 -16 152q-16 43 -65 68q-48 24 -165 24q-129 0 -239 -29q-51 -16 -66 -16q-20 0 -24 20q-11 31 -11 52q0 19 29 30
q148 49 334 49q208 0 276 -71q39 -39 50 -96q12 -60 12 -166v-531zM774 483q-86 11 -225 11q-192 0 -266 -50q-60 -37 -60 -145q0 -110 52 -166q53 -57 200 -57q154 0 244 35q35 15 45 38t10 72v262zM735 1372q0 -92 -54 -141q-53 -49 -142 -49q-88 0 -138 49
q-51 49 -51 141t53 145q52 52 142 52q88 0 139 -52q51 -53 51 -145zM666 1376q0 64 -34 97q-33 32 -91 32q-57 0 -91 -34t-34 -97q0 -61 35 -96t92 -35t90 35q33 34 33 98zM559 1659q-21 -23 -47 -23q-24 0 -39 6q-18 6 -18 23q0 15 14 29l213 264q23 29 57 29q33 0 60 -5
q20 -4 20 -26q0 -19 -16 -31z" />
    <glyph glyph-name="AEacute" unicode="&#x1fc;" horiz-adv-x="1929" 
d="M465 496l-307 -457q-28 -43 -62 -43q-31 0 -61 2q-27 4 -27 27q0 8 25 49l839 1255q45 68 80 92q36 25 92 25h736q39 0 39 -35v-43q0 -35 -39 -35h-647v-524h585q37 0 37 -35v-43q0 -33 -37 -33h-585v-499q0 -86 77 -86h600q39 0 39 -35v-43q0 -35 -39 -35h-616
q-97 0 -141 38q-43 37 -43 144v314h-545zM532 606h478v719zM1323 1583q-33 -24 -66 -24q-25 0 -51 8q-18 6 -18 20q0 21 20 35l275 217q38 29 65 29q30 0 78 -8q25 -6 25 -27q0 -20 -23 -35z" />
    <glyph glyph-name="aeacute" unicode="&#x1fd;" horiz-adv-x="1705" 
d="M870 113q-145 -140 -405 -140q-199 0 -278 87q-78 85 -78 241t120 227q102 58 326 58q149 0 219 -2v104q0 114 -16 156q-16 44 -67 69q-52 25 -167 25q-110 0 -235 -29q-10 -1 -25 -6q-10 -3 -24 -7q-11 -3 -19 -3q-17 0 -24 22q-7 35 -7 50q0 21 31 32q155 47 324 47
q150 0 225 -37t92 -145q91 182 357 182q124 0 201 -32q79 -33 117 -104q38 -72 50 -152q12 -82 12 -211q0 -34 -14 -45q-11 -11 -41 -11h-655q1 -234 83 -323q81 -88 259 -88q135 0 260 35q33 10 43 10q19 0 27 -19q12 -38 12 -47q0 -23 -31 -34q-132 -50 -311 -50
q-260 0 -361 140zM774 489q-113 0 -219 -2q-216 -5 -276 -53q-56 -45 -56 -133q0 -109 57 -167t205 -58q93 0 194 31q97 30 144 86q-49 107 -49 296zM891 588h592q2 22 2 45q0 155 -57 234t-218 79q-174 0 -244 -91t-75 -267zM909 1208q-21 -22 -49 -22q-27 0 -45 6t-18 22
q0 17 14 31l213 264q25 31 61 31q39 0 64 -4q25 -6 25 -27q0 -15 -19 -34z" />
    <glyph glyph-name="Oslashacute" unicode="&#x1fe;" horiz-adv-x="1413" 
d="M209 -33q-11 -18 -27 -18q-20 0 -53 26q-14 11 -14 23q0 10 12 27l113 153q-105 174 -105 553q0 226 43 374q44 150 126 228q84 79 182 109q102 31 237 31q269 0 387 -97l86 117q12 18 29 18q4 0 22 -8q41 -27 41 -43q0 -8 -8 -24l-100 -138q110 -165 110 -565
q0 -221 -35 -372q-35 -149 -110 -233q-77 -86 -180 -120q-107 -35 -260 -35q-277 0 -402 123zM1163 731q0 321 -65 455l-721 -987q95 -115 332 -115q117 0 192 22q74 22 139 90q64 67 94 197q29 126 29 338zM262 733q0 -290 60 -440l714 981q-89 88 -321 88q-115 0 -195 -26
q-77 -25 -139 -93q-61 -67 -90 -192q-29 -127 -29 -318zM750 1583q-33 -24 -66 -24q-25 0 -51 8q-19 6 -19 20q0 20 21 35l274 217q38 29 66 29q30 0 78 -8q24 -6 24 -27q0 -20 -22 -35z" />
    <glyph glyph-name="oslashacute" unicode="&#x1ff;" horiz-adv-x="1105" 
d="M207 -57q-12 -17 -25 -17q-18 0 -49 25q-14 11 -14 22t12 27l76 104q-90 124 -90 408q0 164 34 270q35 110 99 164q67 56 142 77q76 21 183 21q185 0 279 -51l78 107q10 16 29 16q11 0 22 -8q35 -23 35 -37q0 -8 -8 -24l-84 -115q92 -118 92 -414q0 -313 -107 -429
t-348 -116q-191 0 -287 66zM901 508q0 230 -49 321l-510 -700q68 -51 223 -51q93 0 145 13q56 14 102 56q48 43 69 132q20 84 20 229zM233 516q0 -205 48 -309l505 692q-68 41 -215 41q-178 0 -258 -86t-80 -338zM575 1208q-21 -22 -49 -22q-27 0 -45 6t-18 22q0 17 14 31
l213 264q28 31 62 31q38 0 63 -4q25 -6 25 -27q0 -15 -19 -34z" />
    <glyph glyph-name="uni0218" unicode="&#x218;" horiz-adv-x="1144" 
d="M702 750q185 -56 257 -134q73 -79 73 -231q0 -198 -114 -305q-115 -107 -379 -107q-227 0 -396 66q-37 15 -37 39q0 20 15 53q11 31 37 31q6 0 51 -17q155 -59 330 -59q119 0 199 27q79 27 113 74q33 46 44 89q10 39 10 97q0 45 -8 77q-6 25 -36 66q-26 37 -90 70
q-62 33 -161 61l-202 60q-137 41 -209 135t-72 225q0 201 116 303q117 103 371 103q180 0 324 -39q35 -12 35 -39q0 -19 -12 -56q-7 -22 -33 -22q-9 0 -49 8q-138 35 -277 35q-201 0 -276 -73q-74 -72 -74 -208q0 -99 53 -161t219 -113zM561 -139h35q41 0 41 -45
q0 -215 -133 -348q-21 -21 -37 -21q-17 0 -33 12q-16 15 -16 29q0 15 10 29q83 101 88 295q0 49 45 49z" />
    <glyph glyph-name="uni0219" unicode="&#x219;" horiz-adv-x="872" 
d="M483 440l-164 49q-221 66 -221 263q0 290 365 290q159 0 256 -26q35 -11 35 -37q0 -7 -13 -51q-6 -21 -24 -21q-17 0 -35 6q-105 27 -221 27q-145 0 -195 -47q-49 -46 -49 -131q0 -59 38 -102q35 -39 153 -78l143 -45q127 -40 186 -99q58 -58 58 -170q0 -295 -377 -295
q-192 0 -307 47q-27 12 -27 35q0 14 12 47q11 25 33 25q8 0 37 -10q108 -39 254 -39q158 0 209 52t51 134q0 61 -37 98q-38 38 -160 78zM434 -139h35q41 0 41 -45q0 -215 -133 -348q-21 -21 -37 -21t-33 12q-16 15 -16 29q0 15 10 29q83 101 88 295q0 49 45 49z" />
    <glyph glyph-name="uni021A" unicode="&#x21a;" horiz-adv-x="1159" 
d="M629 35q0 -41 -37 -41h-51q-35 0 -35 41v1298h-428q-39 0 -39 35v43q0 35 39 35h979q39 0 39 -35v-43q0 -35 -39 -35h-428v-1298zM559 -139h35q41 0 41 -45q0 -215 -133 -348q-21 -21 -37 -21q-18 0 -33 12q-16 15 -16 29q0 15 10 29q83 101 88 295q0 49 45 49z" />
    <glyph glyph-name="uni021B" unicode="&#x21b;" horiz-adv-x="661" 
d="M346 367q0 -139 33 -191q23 -42 79 -62t160 -26q33 -2 33 -33q0 -25 -2 -47q-6 -26 -39 -26q-120 1 -194 23q-71 21 -121 77q-66 76 -66 293v536h-137q-33 0 -33 33v39q0 33 35 33h137q0 31 7 239q0 43 30 43h47q31 0 31 -41v-241h244q37 0 37 -31v-39q0 -35 -39 -35
h-242v-544zM373 -139h35q41 0 41 -45q0 -214 -134 -348q-21 -21 -36 -21q-17 0 -33 12q-17 15 -17 29q0 13 11 29q83 101 88 295q0 49 45 49z" />
    <glyph glyph-name="circumflex" unicode="&#x2c6;" horiz-adv-x="403" 
d="M-20 1169q-22 0 -41 7q-21 6 -21 20q0 10 14 31l199 278q25 31 55 31h39q31 0 49 -27l197 -278q16 -20 16 -33q0 -16 -18 -22q-17 -7 -43 -7t-49 27l-176 225l-172 -221q-28 -31 -49 -31z" />
    <glyph glyph-name="caron" unicode="&#x2c7;" horiz-adv-x="403" 
d="M426 1544q25 0 43 -6t18 -20t-14 -31l-199 -279q-24 -30 -55 -30h-39q-32 0 -49 26l-197 279q-16 20 -16 33q0 16 19 22q18 6 43 6q27 0 49 -26l176 -226l172 221q23 31 49 31z" />
    <glyph glyph-name="breve" unicode="&#x2d8;" horiz-adv-x="403" 
d="M428 1475q16 0 39 -5q16 -4 16 -28q0 -25 -8 -68q-45 -200 -274 -200q-126 0 -185 52q-60 52 -82 150q-6 21 -6 58q0 25 21 32q25 9 41 9q26 0 28 -27q12 -79 54 -125q40 -43 131 -43q94 0 136 42q41 41 56 124q6 29 33 29z" />
    <glyph glyph-name="dotaccent" unicode="&#x2d9;" horiz-adv-x="403" 
d="M283 1358q0 -86 -80 -86t-80 84q0 88 80 88t80 -86z" />
    <glyph glyph-name="ring" unicode="&#x2da;" horiz-adv-x="403" 
d="M393 1372q0 -91 -53 -141q-52 -49 -143 -49q-88 0 -138 49q-51 49 -51 141t53 145q52 52 142 52q91 0 140 -51q50 -52 50 -146zM324 1376q0 61 -34 95t-91 34q-55 0 -89 -34t-34 -97q0 -62 34 -96q35 -35 91 -35q57 0 90 35q33 34 33 98z" />
    <glyph glyph-name="ogonek" unicode="&#x2db;" horiz-adv-x="403" 
d="M356 12q-118 -80 -162 -132q-44 -53 -44 -130q0 -110 118 -110q12 0 58 2q10 0 19.5 0.5t14 1t5.5 0.5q16 0 22 -19q6 -24 6 -39q0 -26 -26 -30q-55 -13 -119 -13q-101 0 -154 50t-53 145q0 102 49 158q48 55 156 116h110z" />
    <glyph glyph-name="tilde" unicode="&#x2dc;" horiz-adv-x="403" 
d="M-59 1237q-26 0 -37 4q-21 6 -21 23q0 10 13 43q63 151 161 151q51 0 158 -61q85 -47 127 -47q30 0 47 16q19 17 35 66q14 36 39 36q20 0 39 -4q18 -6 18 -24q0 -19 -10 -45q-28 -87 -68 -124q-39 -36 -96 -36q-56 0 -160 55q-106 53 -129 53q-24 0 -42 -15
q-17 -14 -35 -60q-12 -31 -39 -31z" />
    <glyph glyph-name="hungarumlaut" unicode="&#x2dd;" horiz-adv-x="403" 
d="M-16 1208q-22 -22 -50 -22q-24 0 -36 6q-17 6 -17 22q0 13 19 37l192 258q25 31 58 31q31 0 55 -6t24 -25q0 -14 -16 -34zM276 1208q-22 -22 -47 -22q-27 0 -39 6q-16 6 -16 22q0 13 16 33l195 262q25 31 57 31q35 0 56 -6q24 -6 24 -25q0 -14 -16 -34z" />
    <glyph glyph-name="uni0394" unicode="&#x394;" horiz-adv-x="1312" 
d="M1282 61q8 -18 8 -32q0 -29 -33 -29h-1204q-30 0 -30 29q0 8 8 26l547 1299q10 32 47 32h73q31 0 43 -32zM655 1260q-48 -138 -473 -1149h946q-416 998 -473 1149z" />
    <glyph glyph-name="uni03A9" unicode="&#x3a9;" horiz-adv-x="1478" 
d="M657 33q0 -33 -36 -33h-439q-35 0 -35 33v41q0 37 33 37h363q-205 83 -292 230q-89 149 -89 407q0 336 142 499q143 164 450 164q302 0 430 -160q127 -158 127 -489q0 -253 -85 -404t-286 -247h354q35 0 35 -37v-41q0 -33 -33 -33h-440q-37 0 -37 33v82q0 35 29 47
q170 78 252 213q82 134 82 377q0 287 -98 417q-97 129 -336 129q-242 0 -350 -132q-107 -131 -107 -418q0 -234 84 -375q85 -142 254 -211q28 -10 28 -47v-82z" />
    <glyph glyph-name="uni03BC" unicode="&#x3bc;" horiz-adv-x="1222" 
d="M330 -381q0 -37 -37 -37h-45q-37 0 -37 37v1366q0 37 37 37h45q35 0 35 -37v-649q0 -126 20 -170q35 -86 223 -86q182 0 277 37q27 10 37 28q12 21 12 70v770q0 37 37 37h43q37 0 37 -37v-825q0 -92 -62 -119q-142 -68 -399 -68q-173 0 -223 72v-426z" />
    <glyph glyph-name="pi" unicode="&#x3c0;" horiz-adv-x="1204" 
d="M383 33q0 -39 -37 -39h-39q-41 0 -41 41v874h-102q-35 0 -35 35v37q0 35 35 35h938q35 0 35 -35v-37q0 -35 -33 -35h-109v-532q0 -177 29 -293q10 -33 10 -55q0 -25 -22 -31q-25 -4 -56 -4q-17 0 -25 8q-6 6 -13 31q-37 120 -37 340v536h-498v-876z" />
    <glyph glyph-name="Wgrave" unicode="&#x1e80;" horiz-adv-x="1906" 
d="M952 1260q-88 -317 -358 -1203q-18 -63 -86 -63h-31q-61 0 -78 63l-327 1311q-9 36 -9 51q0 23 21 29q15 4 68 4q28 0 38 -37q280 -1132 314 -1290q60 224 362 1202q21 68 78 68h29q55 0 76 -68q292 -970 352 -1204q88 384 313 1282q12 47 43 47q43 0 64 -4q22 -4 22 -29
q0 -12 -10 -55l-336 -1305q-16 -65 -82 -65h-31q-63 0 -81 65zM932 1583l-305 215q-23 17 -23 35q0 21 25 27q43 8 78 8q25 0 65 -29l275 -217q20 -14 20 -35q0 -14 -18 -20q-26 -8 -52 -8q-31 0 -65 24z" />
    <glyph glyph-name="wgrave" unicode="&#x1e81;" horiz-adv-x="1484" 
d="M741 838q-23 -94 -245 -781q-11 -35 -31 -50q-17 -13 -49 -13h-29q-60 0 -78 61l-262 889q-10 29 -10 47q0 27 24 29q29 4 64 4q27 0 39 -47q197 -660 246 -864q104 352 245 784q16 42 32 57q19 17 48 17h19q29 0 48 -14q17 -13 32 -56q223 -650 260 -788q83 322 233 858
q7 27 16 42q7 11 27 11q29 0 62 -4q20 -6 20 -25q0 -9 -12 -59l-250 -873q-21 -69 -76 -69h-33q-56 0 -77 63q-238 703 -263 781zM731 1208l-246 267q-18 18 -18 30q0 23 25 29q21 6 63 6q35 0 59 -29l215 -266q15 -15 15 -31t-19 -22q-15 -6 -45 -6q-28 0 -49 22z" />
    <glyph glyph-name="Wacute" unicode="&#x1e82;" horiz-adv-x="1906" 
d="M952 1260q-88 -317 -358 -1203q-18 -63 -86 -63h-31q-61 0 -78 63l-327 1311q-9 36 -9 51q0 23 21 29q15 4 68 4q28 0 38 -37q280 -1132 314 -1290q60 224 362 1202q21 68 78 68h29q55 0 76 -68q292 -970 352 -1204q88 384 313 1282q12 47 43 47q43 0 64 -4q22 -4 22 -29
q0 -12 -10 -55l-336 -1305q-16 -65 -82 -65h-31q-63 0 -81 65zM973 1583q-35 -24 -66 -24q-25 0 -51 8q-18 6 -18 20q0 21 20 35l275 217q38 29 65 29q30 0 78 -8q24 -6 24 -27q0 -20 -22 -35z" />
    <glyph glyph-name="wacute" unicode="&#x1e83;" horiz-adv-x="1484" 
d="M741 838q-23 -94 -245 -781q-11 -35 -31 -50q-17 -13 -49 -13h-29q-60 0 -78 61l-262 889q-10 29 -10 47q0 27 24 29q29 4 64 4q27 0 39 -47q197 -660 246 -864q104 352 245 784q16 42 32 57q19 17 48 17h19q29 0 48 -14q17 -13 32 -56q223 -650 260 -788q83 322 233 858
q7 27 16 42q7 11 27 11q29 0 62 -4q20 -6 20 -25q0 -9 -12 -59l-250 -873q-21 -69 -76 -69h-33q-56 0 -77 63q-238 703 -263 781zM745 1208q-21 -22 -49 -22q-27 0 -45 6t-18 22q0 17 14 31l213 264q25 31 62 31q38 0 63 -4q25 -6 25 -27q0 -15 -19 -34z" />
    <glyph glyph-name="Wdieresis" unicode="&#x1e84;" horiz-adv-x="1906" 
d="M952 1260q-88 -317 -358 -1203q-18 -63 -86 -63h-31q-61 0 -78 63l-327 1311q-9 36 -9 51q0 23 21 29q15 4 68 4q28 0 38 -37q280 -1132 314 -1290q60 224 362 1202q21 68 78 68h29q55 0 76 -68q292 -970 352 -1204q88 384 313 1282q12 47 43 47q43 0 64 -4q22 -4 22 -29
q0 -12 -10 -55l-336 -1305q-16 -65 -82 -65h-31q-63 0 -81 65zM840 1675q0 -88 -80 -88t-80 86q0 88 80 88t80 -86zM1221 1675q0 -88 -80 -88t-80 86q0 88 80 88t80 -86z" />
    <glyph glyph-name="wdieresis" unicode="&#x1e85;" horiz-adv-x="1484" 
d="M741 838q-23 -94 -245 -781q-11 -35 -31 -50q-17 -13 -49 -13h-29q-60 0 -78 61l-262 889q-10 29 -10 47q0 27 24 29q29 4 64 4q27 0 39 -47q197 -660 246 -864q104 352 245 784q16 42 32 57q19 17 48 17h19q29 0 48 -14q17 -13 32 -56q223 -650 260 -788q83 322 233 858
q7 27 16 42q7 11 27 11q29 0 62 -4q20 -6 20 -25q0 -9 -12 -59l-250 -873q-21 -69 -76 -69h-33q-56 0 -77 63q-238 703 -263 781zM641 1358q0 -86 -80 -86t-80 84q0 88 80 88t80 -86zM1001 1358q0 -86 -79 -86q-80 0 -80 84q0 88 80 88q79 0 79 -86z" />
    <glyph glyph-name="Ygrave" unicode="&#x1ef2;" horiz-adv-x="1118" 
d="M621 37q0 -43 -37 -43h-49q-37 0 -37 43v600l-463 727q-27 40 -27 59q0 21 25 27q16 4 63 4q30 0 54 -39q288 -451 413 -663q58 103 406 653q28 49 61 49q41 0 60 -4q20 -1 20 -23q0 -18 -23 -53l-466 -735v-602zM553 1583l-305 215q-23 17 -23 35q0 21 25 27q43 8 78 8
q25 0 65 -29l275 -217q20 -14 20 -35q0 -14 -18 -20q-26 -8 -52 -8q-32 0 -65 24z" />
    <glyph glyph-name="ygrave" unicode="&#x1ef3;" horiz-adv-x="1163" 
d="M180 305v680q0 37 37 37h45q35 0 35 -37v-663q0 -111 18 -156q33 -84 209 -84q188 0 291 53q32 19 39 33q12 21 12 63v754q0 37 37 37h43q37 0 37 -37v-965q0 -144 -33 -249q-82 -250 -596 -250q-44 0 -45 26q-4 29 -4 45q0 35 35 35q173 5 276 28q107 24 148 57
q43 34 67 87q31 74 31 191v63q-130 -80 -366 -80q-242 0 -291 129q-25 70 -25 203zM592 1208l-246 267q-18 18 -18 30q0 23 24 29q21 6 64 6q35 0 59 -29l215 -266q15 -15 15 -31t-19 -22q-15 -6 -45 -6q-28 0 -49 22z" />
    <glyph glyph-name="endash" unicode="&#x2013;" horiz-adv-x="1107" 
d="M1004 494h-898q-32 0 -32 28v47q0 33 35 33h892q35 0 35 -33v-49q0 -26 -32 -26z" />
    <glyph glyph-name="emdash" unicode="&#x2014;" horiz-adv-x="1705" 
d="M1602 494h-1496q-32 0 -32 28v47q0 33 35 33h1490q35 0 35 -33v-49q0 -26 -32 -26z" />
    <glyph glyph-name="quoteleft" unicode="&#x2018;" horiz-adv-x="362" 
d="M158 1032h-45q-43 0 -43 43q0 113 40 233q41 124 121 201q30 25 41 25q15 0 35 -16q21 -18 21 -31q0 -15 -15 -33q-104 -122 -110 -367q0 -55 -45 -55z" />
    <glyph glyph-name="quoteright" unicode="&#x2019;" horiz-adv-x="362" 
d="M209 1532h43q43 0 43 -41q0 -113 -39 -234t-121 -200q-30 -25 -43 -25q-18 0 -35 17q-20 14 -20 30q0 14 14 31q105 125 113 369q0 53 45 53z" />
    <glyph glyph-name="quotesinglbase" unicode="&#x201a;" horiz-adv-x="364" 
d="M209 176h43q43 0 43 -43q0 -260 -160 -434q-21 -23 -43 -23q-17 0 -35 15q-20 17 -20 33q0 13 14 30q106 124 113 369q0 53 45 53z" />
    <glyph glyph-name="quotedblleft" unicode="&#x201c;" horiz-adv-x="673" 
d="M158 1032h-45q-43 0 -43 43q0 114 40 234q41 123 121 200q30 25 41 25q15 0 35 -16q21 -18 21 -31q0 -15 -15 -33q-104 -122 -110 -367q0 -55 -45 -55zM465 1032h-43q-43 0 -43 43q0 113 39 234t121 200q30 25 41 25q16 0 36 -16q19 -17 19 -31q0 -19 -14 -33
q-100 -123 -111 -367q0 -55 -45 -55z" />
    <glyph glyph-name="quotedblright" unicode="&#x201d;" horiz-adv-x="673" 
d="M516 1532h45q41 0 41 -41q0 -113 -39 -234t-121 -200q-25 -25 -41 -25q-19 0 -36 17q-19 17 -19 30q0 14 14 31q100 123 111 369q0 53 45 53zM209 1532h43q43 0 43 -41q0 -114 -40 -234t-120 -200q-30 -25 -43 -25q-18 0 -35 17q-20 14 -20 30q0 14 14 31
q105 125 113 369q0 53 45 53z" />
    <glyph glyph-name="quotedblbase" unicode="&#x201e;" horiz-adv-x="673" 
d="M209 176h43q43 0 43 -43q0 -112 -39 -232t-121 -202q-23 -23 -43 -23q-17 0 -35 15q-20 17 -20 33q0 13 14 30q106 124 113 369q0 53 45 53zM516 176h43q43 0 43 -43q0 -111 -38 -231q-38 -119 -122 -203q-28 -23 -43 -23q-16 0 -34 15q-19 17 -19 33q0 13 14 30
q104 126 111 369q0 53 45 53z" />
    <glyph glyph-name="dagger" unicode="&#x2020;" horiz-adv-x="952" 
d="M532 -139q0 -37 -32 -37h-47q-35 0 -35 37v1054h-316q-30 0 -30 27v51q0 31 32 31h314v406q0 36 37 36h47q30 0 30 -36v-406h314q33 0 33 -31v-51q0 -27 -31 -27h-316v-1054z" />
    <glyph glyph-name="daggerdbl" unicode="&#x2021;" horiz-adv-x="952" 
d="M532 -139q0 -37 -32 -37h-47q-35 0 -35 37v422h-316q-30 0 -30 26v49q0 31 32 31h314v526h-316q-30 0 -30 27v51q0 31 32 31h314v406q0 36 37 36h47q30 0 30 -36v-406h314q33 0 33 -31v-51q0 -27 -31 -27h-316v-526h314q33 0 33 -31v-49q0 -26 -31 -26h-316v-422z" />
    <glyph glyph-name="bullet" unicode="&#x2022;" horiz-adv-x="686" 
d="M578 545q0 -246 -234 -246q-235 0 -235 244q0 243 235 243q115 0 174 -55q60 -55 60 -186z" />
    <glyph glyph-name="ellipsis" unicode="&#x2026;" horiz-adv-x="1878" 
d="M449 78q0 -96 -97 -96q-94 0 -94 96q0 98 96 98q95 0 95 -98zM1034 78q0 -96 -94 -96t-94 96q0 98 94 98t94 -98zM1622 78q0 -96 -96 -96q-94 0 -94 96q0 98 96 98q94 0 94 -98z" />
    <glyph glyph-name="perthousand" unicode="&#x2030;" horiz-adv-x="2473" 
d="M694 971q0 -259 -69 -353t-240 -94q-162 0 -231 92q-70 93 -70 345q0 257 79 348q80 92 234 92q110 0 171 -32t94 -126q32 -92 32 -272zM596 971q0 205 -44 275q-44 69 -159 69q-111 0 -161 -74t-50 -278q0 -213 47 -283t156 -70q117 0 164 70t47 291zM561 -33
q-17 -33 -45 -33q-29 0 -37 5q-8 6 -8 18q0 18 14 45l678 1409q23 45 49 45q21 0 35 -2q17 -2 17 -18t-21 -56zM1642 430q0 -258 -69 -352t-240 -94q-162 0 -231 92q-70 93 -70 344q0 257 79 348q80 92 235 92q110 0 171 -32q60 -32 93 -126q32 -92 32 -272zM1544 430
q0 206 -44 276q-43 68 -159 68q-110 0 -160 -74q-51 -76 -51 -278q0 -212 48 -283q46 -69 155 -69q117 0 164 69q47 70 47 291zM2394 430q0 -256 -70 -352q-69 -94 -239 -94q-163 0 -232 92q-69 91 -69 344q0 257 79 348q80 92 234 92q110 0 171 -32q60 -32 93 -126t33 -272
zM2296 430q0 206 -44 276q-43 68 -159 68q-111 0 -161 -74t-50 -278q0 -213 47 -283q47 -69 156 -69q117 0 164 69q47 70 47 291z" />
    <glyph glyph-name="guilsinglleft" unicode="&#x2039;" horiz-adv-x="587" 
d="M207 541l270 -336q21 -27 21 -43t-17 -21q-23 -6 -57 -6q-26 0 -55 35l-258 319q-27 30 -27 52q0 17 18 41l263 323q2 2 5.5 6.5t4.5 6.5q8 10 9 11l8 8q6 6 9 7q1 0 5 1.5t6 2.5q8 2 12 2q37 0 61 -6q15 -6 15 -20t-25 -45z" />
    <glyph glyph-name="guilsinglright" unicode="&#x203a;" horiz-adv-x="587" 
d="M379 543l-270 336q-21 27 -21 43t16 22q24 6 58 6q25 0 55 -37l258 -317q27 -30 27 -51q0 -19 -19 -41l-262 -326l-8 -10l-8 -10l-7 -7q-7 -7 -9 -8q-1 0 -3 -1.5t-4 -2.5q-1 -1 -4 -2t-4 -1q-3 -1 -10 -1q-46 0 -62 6q-16 4 -16 19q0 16 25 47z" />
    <glyph glyph-name="fraction" unicode="&#x2044;" horiz-adv-x="172" 
d="M-219 -33q-17 -33 -45 -33q-29 0 -37 5q-10 6 -10 18q0 13 16 45l678 1409q23 45 49 45q25 0 35 -2q16 -1 16 -18t-20 -56z" />
    <glyph glyph-name="zero.superior" unicode="&#x2070;" 
d="M694 1290q0 -258 -69 -352t-240 -94q-162 0 -231 92q-70 93 -70 344q0 257 79 348q80 92 234 92q112 0 171 -31q61 -32 94 -126q32 -92 32 -273zM596 1290q0 206 -44 276q-43 68 -159 68q-112 0 -161 -73q-50 -74 -50 -279q0 -213 47 -283q46 -69 156 -69q117 0 164 69
q47 70 47 291z" />
    <glyph glyph-name="four.superior" unicode="&#x2074;" 
d="M575 885q0 -29 -26 -29h-43q-25 0 -25 29v194h-381q-28 0 -28 23v35q0 21 10 41l260 497q16 31 37 31q19 0 32 -1t21 -1q12 -4 12 -18t-10 -31l-258 -488h305v209q0 27 25 27h43q26 0 26 -27v-209h117q27 0 27 -24v-41q0 -23 -27 -23h-117v-194z" />
    <glyph glyph-name="five.superior" unicode="&#x2075;" 
d="M223 1366q66 12 154 12q149 0 209 -56q61 -57 61 -202q0 -276 -315 -276q-131 0 -201 20q-31 11 -31 27q0 11 13 47q4 16 22 16q4 0 53 -10q62 -14 146 -14q213 0 213 188q0 103 -47 138q-46 34 -152 34q-37 0 -94 -6t-68 -6q-49 0 -49 51q0 13 2 57l15 285q0 33 30 33
h389q27 0 27 -23v-43q0 -22 -27 -22h-337z" />
    <glyph glyph-name="six.superior" unicode="&#x2076;" 
d="M188 1309q26 34 90 58q63 24 144 24q134 0 196 -63q62 -64 62 -206q0 -280 -295 -280q-143 0 -218 89t-75 300q0 248 73 370q71 119 288 119q97 0 153 -18q17 -6 17 -21q0 -18 -11 -49q-4 -12 -16 -12q-20 0 -35 4q-54 10 -102 10q-85 0 -138 -18q-51 -17 -79 -66
q-27 -46 -36 -96q-12 -64 -18 -145zM190 1182q0 -29 7 -80q18 -172 194 -172q193 0 193 196q0 179 -176 179q-151 0 -203 -70q-15 -24 -15 -53z" />
    <glyph glyph-name="seven.superior" unicode="&#x2077;" 
d="M545 1618h-443q-26 0 -26 22v41q0 23 26 23h492q61 0 61 -45q0 -25 -18 -70l-289 -700q-15 -35 -37 -35q-32 0 -53 6q-16 4 -16 21q0 19 10 39z" />
    <glyph glyph-name="eight.superior" unicode="&#x2078;" 
d="M498 1305q172 -24 172 -213q0 -248 -295 -248q-154 0 -225 58q-72 58 -72 185q0 175 172 218q-141 37 -141 196q0 219 272 219q140 0 204 -50q62 -49 62 -167q0 -155 -149 -198zM569 1096q0 161 -194 161q-199 0 -199 -161q0 -96 52 -132t147 -36q194 0 194 168z
M549 1491q0 71 -39 107t-135 36q-95 0 -133 -37q-39 -37 -39 -108q0 -148 172 -148q68 0 121 35t53 115z" />
    <glyph glyph-name="nine.superior" unicode="&#x2079;" 
d="M563 1249q-65 -71 -229 -71q-132 0 -194 61t-62 201q0 280 299 280q143 0 214 -86t71 -301q0 -120 -14 -204t-50 -150q-38 -69 -111 -102t-186 -33q-110 0 -170 18q-14 4 -14 23q0 10 10 49q4 14 16 14q11 0 35 -6q86 -12 123 -12q70 0 115 16q47 17 73 40t43 71
q18 50 22 86q5 40 9 106zM561 1376q0 50 -6 94q-12 78 -52 121t-132 43q-201 0 -201 -196q0 -88 41 -132t137 -44q73 0 126 19q55 20 73 42q14 14 14 53z" />
    <glyph glyph-name="parenleft.superior" unicode="&#x207d;" horiz-adv-x="419" 
d="M178 1251q0 -119 18 -208q18 -90 55 -153t66 -97q22 -25 82 -82q9 -9 9 -17q0 -7 -9 -16q-11 -12 -20 -12q-12 0 -33 12q-266 164 -266 571q0 219 76 355q77 137 186 202q26 13 33 13q6 0 22 -11q11 -11 11 -18q0 -9 -9 -16q-106 -82 -163 -201q-58 -121 -58 -322z" />
    <glyph glyph-name="parenright.superior" unicode="&#x207e;" horiz-adv-x="419" 
d="M242 1235q0 119 -18 208q-18 90 -55 153q-36 62 -67 98q-22 25 -82 82q-8 8 -8 16t8 16q11 13 21 13t33 -13q266 -164 266 -571q0 -218 -76 -354q-78 -139 -186 -203q-24 -12 -33 -12q-11 0 -25 10q-8 8 -8 18q0 11 8 17q108 84 164 200q58 121 58 322z" />
    <glyph glyph-name="n.superior" unicode="&#x207f;" horiz-adv-x="753" 
d="M213 563q0 -26 -27 -26h-45q-24 0 -24 26v488q0 55 39 73q117 54 290 54q153 0 181 -76q12 -34 12 -123v-416q0 -26 -25 -26h-45q-24 0 -24 26v400q0 58 -10 84q-18 47 -115 47q-117 0 -176 -31q-20 -7 -25 -16q-6 -11 -6 -37v-447z" />
    <glyph glyph-name="zero.inferior" unicode="&#x2080;" 
d="M694 172q0 -257 -69 -352q-69 -94 -240 -94q-162 0 -231 92q-70 93 -70 344q0 257 79 348q80 92 234 92q110 0 171 -32t94 -126q32 -92 32 -272zM596 172q0 205 -44 275q-44 69 -159 69q-111 0 -161 -74t-50 -278q0 -213 47 -283q47 -69 156 -69q117 0 164 69
q47 70 47 291z" />
    <glyph glyph-name="one.inferior" unicode="&#x2081;" 
d="M573 -258h-348q-24 0 -24 22v41q0 25 24 25h137v653l-133 -51q-24 -6 -28 -6q-13 0 -17 12q-16 33 -16 49q0 13 16 19l162 65q33 15 60 15h10q45 0 45 -51v-705h110q27 0 27 -25v-43q0 -20 -25 -20z" />
    <glyph glyph-name="two.inferior" unicode="&#x2082;" 
d="M631 -256h-502q-55 0 -55 53q0 36 39 66q193 147 325 278q107 102 107 203q0 82 -43 128t-152 46q-71 0 -149 -24l-47 -11q-12 0 -19 13q-10 26 -10 45q0 15 31 26q99 37 213 37q155 0 214 -65q60 -66 60 -181q0 -139 -113 -247q-132 -132 -333 -281q102 2 434 2
q26 0 26 -22v-41q0 -25 -26 -25z" />
    <glyph glyph-name="three.inferior" unicode="&#x2083;" 
d="M442 188q189 -16 189 -206q0 -131 -74 -194q-72 -62 -233 -62q-129 0 -195 20q-35 12 -35 31q0 13 15 47q6 12 20 12q3 0 43 -8q64 -16 150 -16q130 0 170 46t40 122q0 80 -47 118q-46 37 -182 39q-45 0 -45 43q0 27 10 36q11 10 37 11q114 2 159 40q44 38 44 106
q0 83 -39 113t-145 30q-65 0 -131 -18q-43 -15 -48 -15q-14 0 -20 17q-10 29 -10 39q0 20 28 30q90 33 201 33q148 0 206 -53q56 -52 56 -170q0 -73 -45 -123t-119 -68z" />
    <glyph glyph-name="four.inferior" unicode="&#x2084;" 
d="M575 -233q0 -29 -26 -29h-43q-25 0 -25 29v194h-362q-53 0 -53 43q0 28 24 72l252 481q12 31 37 31q19 0 32 -1t21 -1q12 -4 12 -19q0 -13 -10 -30l-258 -488h305v209q0 27 25 27h43q26 0 26 -27v-209h117q27 0 27 -24v-41q0 -23 -27 -23h-117v-194z" />
    <glyph glyph-name="five.inferior" unicode="&#x2085;" 
d="M223 248q63 12 154 12q149 0 209 -56q61 -57 61 -202q0 -276 -315 -276q-131 0 -201 20q-31 11 -31 27q0 11 13 47q4 16 22 16q4 0 53 -10q62 -14 146 -14q213 0 213 188q0 103 -47 138q-46 34 -152 34q-37 0 -94 -6t-68 -6q-49 0 -49 51q0 13 2 57l15 285q0 33 30 33
h389q27 0 27 -23v-43q0 -22 -27 -22h-337z" />
    <glyph glyph-name="six.inferior" unicode="&#x2086;" 
d="M188 190q28 35 90 59q60 23 144 23q135 0 196 -62q62 -64 62 -206q0 -280 -295 -280q-143 0 -218 89t-75 300q0 247 73 369q72 120 288 120q97 0 153 -18q17 -6 17 -21q0 -18 -11 -49q-4 -12 -16 -12q-20 0 -35 4q-54 10 -102 10q-85 0 -138 -18q-51 -17 -79 -66
q-27 -46 -36 -96q-12 -64 -18 -146zM190 63q0 -28 7 -79q18 -172 194 -172q193 0 193 196q0 178 -176 178q-152 0 -203 -69q-15 -24 -15 -54z" />
    <glyph glyph-name="seven.inferior" unicode="&#x2087;" 
d="M545 500h-443q-26 0 -26 22v41q0 23 26 23h492q61 0 61 -45q0 -25 -18 -70l-289 -700q-15 -35 -37 -35q-35 0 -53 6q-16 4 -16 20q0 19 10 39z" />
    <glyph glyph-name="eight.inferior" unicode="&#x2088;" 
d="M498 186q172 -24 172 -213q0 -247 -295 -247q-154 0 -225 58q-72 58 -72 185q0 174 172 217q-141 38 -141 197q0 219 272 219q140 0 204 -50q62 -49 62 -167q0 -156 -149 -199zM569 -23q0 162 -194 162q-199 0 -199 -162q0 -96 52 -132q51 -35 147 -35q194 0 194 167z
M549 373q0 71 -39 107t-135 36q-95 0 -133 -37q-39 -37 -39 -108q0 -148 172 -148q68 0 121 35t53 115z" />
    <glyph glyph-name="nine.inferior" unicode="&#x2089;" 
d="M563 131q-66 -72 -229 -72q-130 0 -194 62q-62 61 -62 201q0 280 299 280q143 0 214 -86t71 -301q0 -120 -14 -204t-50 -150q-38 -70 -111 -103q-71 -32 -186 -32q-110 0 -170 18q-14 4 -14 23q0 10 10 49q4 14 16 14q11 0 35 -6q86 -12 123 -12q70 0 115 16q47 17 73 40
t43 71q18 50 22 86q5 40 9 106zM561 258q0 50 -6 94q-12 78 -52 121t-132 43q-201 0 -201 -197q0 -88 41 -132t137 -44q71 0 126 20t73 42q14 14 14 53z" />
    <glyph glyph-name="parenleft.inferior" unicode="&#x208d;" horiz-adv-x="419" 
d="M178 133q0 -120 18 -208q18 -90 55 -153q38 -66 66 -98q22 -25 82 -82q9 -9 9 -16t-9 -16q-11 -13 -20 -13q-10 0 -33 13q-266 164 -266 571q0 218 76 354q78 139 186 203q24 12 33 12q8 0 22 -10q11 -11 11 -18q0 -10 -9 -17q-106 -82 -163 -200q-58 -121 -58 -322z" />
    <glyph glyph-name="parenright.inferior" unicode="&#x208e;" horiz-adv-x="419" 
d="M242 117q0 119 -18 208q-18 90 -55 153q-35 59 -67 97q-22 25 -82 82q-8 8 -8 17q0 8 8 16q10 12 21 12q12 0 33 -12q266 -164 266 -571q0 -219 -76 -355q-77 -137 -186 -202q-26 -13 -33 -13q-9 0 -25 11q-8 8 -8 18t8 16q107 83 164 201q58 121 58 322z" />
    <glyph glyph-name="Euro" unicode="&#x20ac;" horiz-adv-x="1251" 
d="M909 791h-475v-91v-94h475q35 0 35 -33v-18q0 -35 -35 -35h-471q16 -204 99 -320t282 -116q161 0 271 31q46 14 61 14q18 0 29 -23q12 -33 12 -47q0 -27 -41 -39q-147 -45 -330 -45q-235 0 -357 123q-123 125 -147 422h-145q-37 0 -37 35v18q0 33 37 33h141v66
q0 67 2 119h-143q-37 0 -37 32v19q0 32 37 32h150q24 280 150 408q126 127 402 127q153 0 250 -20q41 -6 41 -37q0 -18 -12 -58q-6 -16 -29 -16q-5 0 -69 10q-63 10 -215 10q-211 0 -298 -111q-87 -112 -104 -313h471q35 0 35 -32v-19q0 -32 -35 -32z" />
    <glyph glyph-name="afii61289" unicode="&#x2113;" horiz-adv-x="890" 
d="M315 444q5 -178 69 -270q65 -92 181 -92q127 0 228 74q22 14 32 14q19 0 31 -18q18 -27 18 -43q0 -19 -14 -29q-131 -107 -315 -107q-142 0 -231 103t-107 286q-87 -59 -94 -63q-3 0 -8 -3q-5 -4 -11 -5q-8 -2 -12 -2q-12 0 -35 30q-12 24 -12 31q0 19 18 31
q80 49 140 94q-13 187 -13 266q0 295 43 424q41 130 117 187t195 57q245 0 245 -272q0 -180 -131 -365q-54 -76 -123 -142q-71 -68 -211 -186zM301 565q192 167 266 275q103 145 103 290q0 175 -146 175q-121 0 -176 -121q-53 -120 -53 -412q0 -68 6 -207z" />
    <glyph glyph-name="trademark" unicode="&#x2122;" horiz-adv-x="1601" 
d="M406 770q0 -27 -23 -27h-43q-21 0 -21 27v598h-202q-27 0 -27 25v28q0 25 27 25h487q31 0 31 -23v-30q0 -25 -31 -25h-198v-598zM858 770q0 -27 -20 -27h-45q-21 0 -21 31v612q0 64 55 64h27q39 -1 57 -41q157 -342 185 -412q46 120 178 408q18 45 63 45h23q53 0 53 -64
v-614q0 -29 -24 -29h-41q-21 0 -21 29q0 436 2 592q-14 -40 -188 -436q-12 -29 -41 -29h-17q-29 0 -41 31q-151 334 -188 434q4 -104 4 -594z" />
    <glyph glyph-name="Omega" unicode="&#x2126;" horiz-adv-x="1478" 
d="M657 33q0 -33 -36 -33h-439q-35 0 -35 33v41q0 37 33 37h363q-205 83 -292 230q-89 149 -89 407q0 336 142 499q143 164 450 164q302 0 430 -160q127 -158 127 -489q0 -253 -85 -404t-286 -247h354q35 0 35 -37v-41q0 -33 -33 -33h-440q-37 0 -37 33v82q0 35 29 47
q169 79 252 214q82 133 82 376q0 287 -98 417q-97 129 -336 129q-242 0 -350 -132q-107 -131 -107 -418q0 -232 83 -374q82 -140 255 -212q28 -10 28 -47v-82z" />
    <glyph glyph-name="estimated" unicode="&#x212e;" horiz-adv-x="1730" 
d="M1645 688h-1262q-12 0 -12 -8v-399q0 -22 20 -45q195 -218 477 -218q302 0 500 242h117q-112 -132 -273 -208q-163 -77 -346 -77q-323 0 -552 215q-228 214 -228 519q0 302 228 517q227 214 552 214q324 0 551 -214q228 -215 228 -517v-21zM1362 741v400q0 26 -23 49
q-201 207 -471 207q-269 0 -475 -215q-22 -22 -22 -49v-392q0 -10 12 -10h967q12 0 12 10z" />
    <glyph glyph-name="onethird" unicode="&#x2153;" horiz-adv-x="1724" 
d="M1399 446q188 -16 188 -206q0 -131 -74 -194q-72 -62 -233 -62q-129 0 -195 20q-34 12 -34 31q0 12 14 47q6 12 20 12q3 0 43 -8q64 -16 150 -16q130 0 170 46q41 47 41 122q0 80 -47 118q-46 37 -182 39q-46 0 -46 43q0 27 11 36q11 10 37 11q113 1 158 40q44 38 44 106
q0 83 -39 113t-145 30q-65 0 -131 -18q-43 -15 -47 -15q-15 0 -21 17q-10 29 -10 39q0 19 29 30q90 33 200 33q148 0 206 -53q57 -53 57 -170q0 -73 -45 -123t-119 -68zM532 -33q-16 -33 -45 -33q-28 0 -36 5q-11 6 -11 18q0 11 17 45l678 1409q23 45 49 45q25 0 35 -2
q16 -1 16 -18q0 -16 -21 -56zM584 541h-348q-25 0 -25 22v41q0 25 25 25h137v653l-133 -51q-24 -6 -29 -6q-15 0 -16 12q-17 36 -17 49t17 19l161 65q31 14 60 14h10q45 0 45 -51v-704h111q26 0 26 -25v-43q0 -20 -24 -20z" />
    <glyph glyph-name="twothirds" unicode="&#x2154;" horiz-adv-x="1724" 
d="M610 -33q-16 -33 -45 -33t-37 5q-10 6 -10 18q0 11 17 45l677 1409q22 45 50 45q24 0 34 -2q17 -2 17 -18t-21 -56zM672 541h-502q-55 0 -55 53q0 35 39 65q188 144 325 279q107 102 107 203q0 82 -43 128t-152 46q-68 0 -149 -25l-47 -10q-13 0 -19 12q-10 23 -10 45
q0 16 31 27q99 37 213 37q154 0 214 -66t60 -180q0 -140 -113 -248q-129 -129 -333 -280q102 2 434 2q26 0 26 -23v-41q0 -24 -26 -24zM1448 446q188 -16 188 -206q0 -131 -73 -194q-72 -62 -234 -62q-128 0 -194 20q-35 12 -35 31q0 12 14 47q6 12 21 12q3 0 43 -8
q64 -16 149 -16q130 0 170 46q41 47 41 122q0 80 -47 118q-46 37 -182 39q-45 0 -45 43q0 27 10 36q11 10 37 11q113 1 158 40q44 38 44 106q0 84 -38 113q-39 30 -146 30q-65 0 -131 -18q-44 -15 -47 -15q-15 0 -21 17q-10 29 -10 39q0 19 29 30q90 33 201 33
q147 0 205 -53q57 -53 57 -170q0 -73 -45 -123t-119 -68z" />
    <glyph glyph-name="oneeighth" unicode="&#x215b;" horiz-adv-x="1724" 
d="M1442 444q172 -24 172 -213q0 -247 -295 -247q-154 0 -225 58q-72 58 -72 185q0 174 172 217q-141 37 -141 197q0 219 272 219q140 0 204 -50q62 -49 62 -167q0 -156 -149 -199zM510 -33q-16 -33 -45 -33t-37 5q-10 6 -10 18q0 13 16 45l678 1409q22 45 49 45q25 0 35 -2
q16 -1 16 -18t-20 -56zM561 541h-348q-25 0 -25 22v41q0 25 25 25h137v653l-133 -51q-24 -6 -29 -6q-12 0 -16 12q-16 33 -16 49q0 13 16 19l162 65q31 14 59 14h10q46 0 46 -51v-704h110q27 0 27 -25v-43q0 -20 -25 -20zM1513 236q0 161 -194 161q-199 0 -199 -161
q0 -97 52 -133q51 -35 147 -35q194 0 194 168zM1493 631q0 71 -39 107t-135 36q-95 0 -133 -37q-39 -37 -39 -108q0 -148 172 -148q68 0 121 35t53 115z" />
    <glyph glyph-name="threeeighths" unicode="&#x215c;" horiz-adv-x="1724" 
d="M535 -33q-17 -33 -46 -33q-28 0 -36 5q-11 6 -11 18q0 11 17 45l678 1409q23 45 49 45q25 0 35 -2q16 -1 16 -18t-20 -56zM459 987q188 -16 188 -207q0 -130 -74 -193q-73 -63 -233 -63q-126 0 -195 21q-34 12 -34 30q0 13 14 48q6 12 20 12q3 0 43 -8q68 -17 150 -17
q130 0 170 46q41 47 41 122q0 81 -47 119q-46 37 -183 39q-45 0 -45 43q0 27 11 36q11 10 37 11q113 1 158 40q44 38 44 105q0 84 -39 114t-145 30q-61 0 -131 -19q-41 -14 -47 -14q-15 0 -21 16q-10 29 -10 39q0 20 29 31q90 33 200 33q148 0 206 -53q57 -52 57 -170
q0 -74 -45 -123q-45 -50 -119 -68zM1430 444q172 -24 172 -213q0 -247 -295 -247q-155 0 -226 58t-71 185q0 174 172 217q-142 38 -142 197q0 219 273 219q140 0 204 -50q62 -49 62 -167q0 -156 -149 -199zM1501 236q0 161 -194 161q-199 0 -199 -161q0 -97 52 -133
q51 -35 147 -35q194 0 194 168zM1481 631q0 71 -39 107t-135 36q-95 0 -133 -37q-39 -37 -39 -108q0 -148 172 -148q67 0 120 35q54 35 54 115z" />
    <glyph glyph-name="fiveeighths" unicode="&#x215d;" horiz-adv-x="1724" 
d="M547 -33q-17 -33 -45 -33q-29 0 -37 5q-10 6 -10 18q0 13 16 45l678 1409q23 45 49 45q25 0 35 -2q16 -1 16 -18t-20 -56zM240 1047q63 12 153 12q147 0 209 -57t62 -201q0 -277 -316 -277q-128 0 -201 21q-30 11 -30 26q0 14 12 47q5 17 23 17q4 0 53 -10
q66 -15 145 -15q213 0 213 189q0 103 -47 138q-46 34 -151 34q-38 0 -95 -6q-66 -7 -67 -7q-49 0 -49 52q0 13 2 57l14 285q0 32 31 32h389q26 0 26 -22v-43q0 -23 -26 -23h-338zM1434 444q172 -24 172 -213q0 -247 -295 -247q-155 0 -226 58t-71 185q0 174 172 217
q-142 38 -142 197q0 219 273 219q140 0 204 -50q62 -49 62 -167q0 -156 -149 -199zM1505 236q0 161 -194 161q-199 0 -199 -161q0 -97 52 -133q51 -35 147 -35q194 0 194 168zM1485 631q0 71 -39 107t-135 36q-95 0 -133 -37q-39 -37 -39 -108q0 -148 172 -148q68 0 121 35
t53 115z" />
    <glyph glyph-name="seveneighths" unicode="&#x215e;" horiz-adv-x="1724" 
d="M451 -33q-17 -33 -45 -33q-29 0 -37 5q-11 6 -11 18q0 11 17 45l678 1409q23 45 49 45q25 0 35 -2q16 -1 16 -18t-20 -56zM590 1298h-443q-26 0 -26 23v41q0 22 26 22h492q61 0 61 -45q0 -24 -18 -69l-289 -701q-15 -34 -37 -34q-36 0 -53 6q-16 7 -16 20q0 19 10 39z
M1358 444q172 -24 172 -213q0 -247 -295 -247q-154 0 -225 58q-72 58 -72 185q0 174 172 217q-141 37 -141 197q0 219 272 219q140 0 204 -50q62 -49 62 -167q0 -156 -149 -199zM1430 236q0 161 -195 161q-199 0 -199 -161q0 -97 53 -133q51 -35 146 -35q195 0 195 168z
M1409 631q0 71 -39 107t-135 36q-95 0 -133 -37q-39 -37 -39 -108q0 -148 172 -148q68 0 121 35t53 115z" />
    <glyph glyph-name="arrowleft" unicode="&#x2190;" horiz-adv-x="1572" 
d="M1452 748q49 0 49 -39v-37q0 -41 -39 -41q-960 0 -1200 2l547 -516q20 -20 20 -37q0 -11 -10 -27l-31 -33q-14 -14 -26 -14q-10 0 -27 14l-645 639q-14 11 -14 29q0 20 14 31l649 649q12 12 25 12q12 0 24 -12l31 -31q15 -15 15 -26q0 -14 -15 -29l-557 -539
q193 5 1190 5z" />
    <glyph glyph-name="arrowup" unicode="&#x2191;" horiz-adv-x="1572" 
d="M725 45q0 1023 4 1176q-49 -57 -541 -539q-12 -12 -24 -12q-15 0 -25 10l-28 27q-13 13 -13 28q0 14 13 27l641 639q20 20 39 20q18 0 36 -18l633 -635q15 -15 15 -27q0 -15 -15 -30l-24 -27q-12 -12 -29 -12t-37 20q-376 373 -518 529q2 -240 2 -1182q0 -39 -37 -39h-55
q-37 0 -37 45z" />
    <glyph glyph-name="arrowright" unicode="&#x2192;" horiz-adv-x="1572" 
d="M119 748q991 0 1186 -5l-555 537q-13 11 -13 29q0 13 13 26l30 33q12 12 29 12q10 0 22 -12l652 -649q12 -12 12 -31q0 -17 -12 -29l-647 -639q-10 -10 -27 -10q-14 0 -27 13l-28 28q-11 11 -11 25q0 18 21 39l541 518q-244 -2 -1196 -2q-37 0 -37 41v37q0 39 47 39z" />
    <glyph glyph-name="arrowdown" unicode="&#x2193;" horiz-adv-x="1572" 
d="M725 1333q0 49 37 49h55q37 0 37 -39q0 -945 -2 -1185l520 532q21 21 37 21t25 -9l26 -30q15 -15 15 -29t-15 -29l-633 -637q-18 -18 -36 -18q-17 0 -33 16l-645 643q-15 12 -15 27q0 14 15 29l32 28q16 11 25 11q12 0 25 -13q423 -413 534 -540q-4 160 -4 1173z" />
    <glyph glyph-name="uni2196" unicode="&#x2196;" horiz-adv-x="1572" 
d="M1327 248q19 -16 19 -35q0 -20 -23 -43q-30 -33 -47 -33q-14 0 -31 17q-766 757 -833 829q0 -3 0.5 -13.5t1 -32t0.5 -44.5q3 -179 4 -249q2 -226 2 -398q0 -24 -12 -39q-10 -10 -25 -10h-45q-19 0 -29 10t-10 35v899q0 21 12 33q10 10 35 10h914q20 0 28 -8
q10 -10 10 -29v-41q0 -23 -10 -33q-8 -8 -31 -8q-605 0 -772 6z" />
    <glyph glyph-name="uni2197" unicode="&#x2197;" horiz-adv-x="1572" 
d="M334 156q-19 -19 -33 -19q-20 0 -37 19q-37 38 -37 51q0 18 13 31l852 833q-4 0 -16 -0.5t-34.5 -1t-44.5 -0.5q-177 -3 -253 -4q-230 -2 -408 -2q-24 0 -35 8q-12 12 -12 31v43q0 15 10 29q10 10 31 10h907q15 0 29 -10q10 -7 10 -37v-908q0 -24 -8 -32q-11 -11 -27 -11
h-47q-16 0 -25 9q-12 7 -12 34q0 521 8 756q-141 -151 -831 -829z" />
    <glyph glyph-name="uni2198" unicode="&#x2198;" horiz-adv-x="1572" 
d="M248 1122q-21 21 -21 37t19 35q35 35 55 35q9 0 25 -12q673 -657 837 -830q0 3 -0.5 14t-1 33t-0.5 44q-1 80 -3 246q-1 111 -1 396q0 25 8 41q11 13 33 13h43q16 0 27 -11q10 -10 10 -37v-890q0 -27 -12 -39q-15 -15 -41 -15h-908q-20 0 -28 11q-8 8 -8 28v37q0 23 8 31
q10 10 30 10q301 0 423 -1q46 0 105.5 -0.5t95.5 -1t58 -0.5q51 -1 95 -1z" />
    <glyph glyph-name="uni2199" unicode="&#x2199;" horiz-adv-x="1572" 
d="M1235 1212q19 19 39 19q21 0 51 -33q23 -23 23 -37q0 -18 -17 -35l-846 -827q245 8 756 8q33 0 41 -8t8 -31v-43q0 -15 -8 -28q-11 -11 -33 -11h-897q-28 0 -41 13q-12 12 -12 39v901q0 22 10 32q11 11 31 11h41q21 0 29 -11q8 -16 8 -38q0 -509 -8 -744q231 244 825 823
z" />
    <glyph glyph-name="partialdiff" unicode="&#x2202;" horiz-adv-x="1116" 
d="M858 776q-12 288 -75 410q-63 121 -242 121q-143 0 -224 -29h-1q-2 -1 -4 -1.5t-4 -0.5q-3 -1 -7 -2.5t-6 -1.5l-8 -2q-25 0 -33 24q-10 23 -10 45q0 21 24 31q95 39 295 39q248 0 332 -181q84 -182 84 -632q0 -327 -107 -475t-337 -148q-402 0 -402 441q0 454 422 454
q197 0 303 -92zM862 643q-86 125 -307 125q-151 0 -231 -81q-80 -82 -80 -273q0 -338 295 -338q118 0 191 50t106 177q26 95 26 340z" />
    <glyph glyph-name="Delta" unicode="&#x2206;" horiz-adv-x="1312" 
d="M1276 76q8 -24 8 -41q0 -35 -37 -35h-1181q-37 0 -37 33q0 12 10 41l539 1280q10 32 47 32h73q31 0 43 -32zM655 1260q-48 -138 -473 -1149h946q-434 1049 -473 1149z" />
    <glyph glyph-name="product" unicode="&#x220f;" horiz-adv-x="1443" 
d="M352 -231q0 -41 -39 -41h-45q-39 0 -39 41v1574q0 41 45 41h900q40 0 40 -43v-1572q0 -41 -38 -41h-46q-38 0 -38 41v1505h-740v-1505z" />
    <glyph glyph-name="summation" unicode="&#x2211;" horiz-adv-x="1206" 
d="M1094 -266h-934q-78 0 -78 73q0 44 37 93l518 690l-485 643q-23 31 -23 67q0 84 78 84h840q40 0 40 -38v-37q0 -35 -43 -35h-782l486 -631q18 -24 18 -49q0 -24 -21 -53l-530 -697h879q43 0 43 -37v-38q0 -35 -43 -35z" />
    <glyph glyph-name="minus" unicode="&#x2212;" horiz-adv-x="1435" 
d="M1251 586q0 -35 -32 -35h-1004q-31 0 -31 35v37q0 34 31 34h1004q32 0 32 -34v-37z" />
    <glyph glyph-name="uni2215" unicode="&#x2215;" horiz-adv-x="172" 
d="M-219 -33q-17 -33 -45 -33q-29 0 -37 5q-10 6 -10 18q0 13 16 45l678 1409q23 45 49 45q25 0 35 -2q16 -1 16 -18t-20 -56z" />
    <glyph glyph-name="uni2219" unicode="&#x2219;" horiz-adv-x="423" 
d="M301 551q0 -90 -90 -90q-88 0 -88 90q0 48 25 69q26 21 65 21q88 0 88 -90z" />
    <glyph glyph-name="radical" unicode="&#x221a;" horiz-adv-x="1306" 
d="M700 -338q-8 -33 -36 -33h-48q-21 0 -38 29l-281 567l-113 -53q-11 -4 -18 -4q-16 0 -23 18q-18 33 -18 47q0 17 18 27l174 86q12 6 29 6q14 0 29 -24l264 -541l491 1610q8 30 37 30q33 0 52 -4q20 -4 20 -22q0 -4 -8 -39z" />
    <glyph glyph-name="infinity" unicode="&#x221e;" horiz-adv-x="1495" 
d="M748 672q94 112 177 165q82 52 181 52q123 0 198 -81q74 -80 74 -208q0 -134 -80 -220q-79 -85 -211 -85q-97 0 -169 48q-70 47 -170 171q-101 -120 -179 -169q-77 -48 -174 -48q-124 0 -202 79q-78 80 -78 210q0 134 81 220q81 85 212 85q94 0 167 -48q75 -49 173 -171z
M686 590q-92 112 -147 156q-57 45 -136 45q-81 0 -137 -56q-55 -55 -55 -141q0 -87 53 -143t135 -56q81 0 146 49q61 46 141 146zM809 596q73 -86 101 -114q34 -34 82 -61q50 -28 100 -28q84 0 136 54q52 53 52 143q0 89 -49 142q-49 54 -131 54q-144 0 -291 -190z" />
    <glyph glyph-name="integral" unicode="&#x222b;" horiz-adv-x="655" 
d="M301 -92q0 104 -4 188l-41 951q-4 88 -4 159q0 121 56 183q57 63 163 63q46 0 94 -8q27 -6 27 -29t-6 -47q-6 -25 -29 -25l-4 1q-4 0 -12.5 1t-17.5 2q-31 3 -56 3q-111 0 -111 -152q0 -10 6 -151l41 -949q7 -179 7 -186q0 -126 -56 -184t-172 -58q-55 0 -88 6
q-26 4 -26 31q0 14 4 43q5 29 30 29q2 0 29 -3t51 -3q59 0 88 28q31 29 31 107z" />
    <glyph glyph-name="approxequal" unicode="&#x2248;" horiz-adv-x="1435" 
d="M276 307q-12 -16 -26 -16q-20 0 -41 18q-16 16 -16 29q0 19 10 29q82 100 148 139t147 39q85 0 247 -96q121 -72 201 -72q59 0 107 31t100 104q19 25 31 25q9 0 39 -21q18 -12 18 -31q0 -12 -14 -34q-66 -95 -129 -138q-62 -43 -154 -43q-102 0 -242 82q-146 84 -215 84
q-57 0 -102 -27q-44 -27 -109 -102zM276 709q-16 -19 -26 -19q-20 0 -41 21q-16 12 -16 28q0 15 10 29q78 97 147 137q67 39 148 39q85 0 247 -96q125 -72 201 -72q111 0 207 137q17 23 31 23q18 0 39 -18q18 -12 18 -31q0 -15 -14 -37q-68 -94 -130 -136q-65 -44 -153 -44
q-98 0 -242 84q-146 82 -215 82q-61 0 -106 -27q-46 -27 -105 -100z" />
    <glyph glyph-name="notequal" unicode="&#x2260;" horiz-adv-x="1435" 
d="M489 37q-12 -23 -32 -23q-28 0 -41 4q-13 5 -13 19q0 9 9 29l145 286h-342q-31 0 -31 35v35q0 35 31 35h389l139 284h-528q-31 0 -31 35v37q0 33 31 33h578l149 293q12 26 35 26q24 0 39 -4q14 -1 14 -18q0 -13 -6 -29l-137 -268h332q32 0 32 -33v-37q0 -35 -32 -35h-381
l-142 -284h523q32 0 32 -35v-35q0 -35 -32 -35h-570z" />
    <glyph glyph-name="lessequal" unicode="&#x2264;" horiz-adv-x="1435" 
d="M1169 35q0 -35 -32 -35h-867q-30 0 -30 35v35q0 34 30 34h867q32 0 32 -34v-35zM358 784l783 -352q30 -15 30 -43q0 -26 -4 -51q-8 -25 -30 -25q-17 0 -33 11l-836 385q-28 12 -28 53v37q0 35 28 51l844 399q12 6 27 6q18 0 24 -22q6 -18 6 -51q0 -28 -30 -43z" />
    <glyph glyph-name="greaterequal" unicode="&#x2265;" horiz-adv-x="1435" 
d="M1194 35q0 -35 -31 -35h-866q-31 0 -31 35v35q0 34 31 34h866q31 0 31 -34v-35zM1077 786l-782 351q-31 15 -31 41q0 42 4 55q7 22 31 22q13 0 33 -10l835 -385q29 -12 29 -53v-37q0 -34 -29 -51l-843 -400q-12 -6 -27 -6q-19 0 -25 21q-6 18 -6 53q0 27 31 43z" />
    <glyph glyph-name="lozenge" unicode="&#x25ca;" horiz-adv-x="1443" 
d="M649 1372q15 27 45 27h66q25 0 41 -25l311 -643q4 -15 4 -29t-8 -32l-309 -645q-13 -25 -37 -25h-74q-24 0 -37 25l-319 647q-6 12 -6 30q0 15 6 27zM438 700l291 -585l277 587l-281 584z" />
    <glyph glyph-name="commaaccent" unicode="&#xf6c3;" horiz-adv-x="378" 
d="M223 -139h35q41 0 41 -45q0 -215 -133 -348q-21 -21 -37 -21q-18 0 -33 12q-16 15 -16 29q0 15 10 29q83 101 88 295q0 49 45 49z" />
    <glyph glyph-name="Dotlessi" horiz-adv-x="557" 
d="M340 35q0 -41 -37 -41h-49q-37 0 -37 41v1378q0 41 39 41h49q35 0 35 -41v-1378z" />
    <glyph glyph-name="Euro.denominator" horiz-adv-x="831" 
d="M600 1339h-289v-51v-55h289q25 0 25 -21v-16q0 -25 -25 -25h-285q10 -113 61 -177q49 -62 167 -62q99 0 166 18l20 4l15 3l4 1q14 0 20 -16q8 -26 8 -43q0 -18 -26 -25q-90 -28 -213 -28q-147 0 -227 74q-78 72 -93 251h-92q-23 0 -23 25v14q0 23 23 23h88v37v69h-88
q-23 0 -23 21v16q0 23 23 23h94q17 169 96 246q78 75 254 75q105 0 164 -14q25 -6 25 -25t-8 -49q-6 -12 -21 -12q-6 0 -11 1t-17 3t-15 2q-39 6 -131 6q-125 0 -177 -59q-52 -60 -63 -174h285q25 0 25 -23v-16q0 -21 -25 -21z" />
    <glyph glyph-name="Euro.inferior" horiz-adv-x="831" 
d="M600 221h-289v-51v-55h289q25 0 25 -21v-16q0 -25 -25 -25h-285q10 -113 61 -177q49 -62 167 -62q99 0 166 18l20 4l15 3l4 1q14 0 20 -16q8 -26 8 -43q0 -18 -26 -25q-90 -28 -213 -28q-148 0 -227 73q-78 72 -93 252h-92q-23 0 -23 25v14q0 23 23 23h88v37v69h-88
q-23 0 -23 21v16q0 23 23 23h94q16 168 96 245q79 76 254 76q105 0 164 -14q25 -6 25 -25t-8 -49q-6 -12 -21 -12q-6 0 -11 1t-17 3t-15 2q-39 6 -131 6q-125 0 -177 -59q-52 -60 -63 -174h285q25 0 25 -23v-16q0 -21 -25 -21z" />
    <glyph glyph-name="Euro.numerator" horiz-adv-x="831" 
d="M598 1020h-287v-51v-56h287q27 0 27 -20v-16q0 -25 -27 -25h-283q10 -113 61 -177q50 -63 167 -63q95 0 166 19l20 4l15 3l4 1q14 0 20 -14q8 -30 8 -45q0 -18 -26 -25q-93 -29 -213 -29q-147 0 -227 74q-78 72 -93 252h-90q-25 0 -25 25v14q0 22 25 22h86v37v70h-86
q-25 0 -25 20v17q0 22 25 22h92q17 169 96 246q79 76 254 76q101 0 164 -15q25 -6 25 -24q0 -19 -8 -49q-6 -13 -21 -13q-1 0 -11 2q-5 1 -17 3t-15 2q-39 6 -131 6q-125 0 -177 -60t-63 -174h283q27 0 27 -22v-17q0 -20 -27 -20z" />
    <glyph glyph-name="Euro.oldstyle" horiz-adv-x="1206" 
d="M909 702h-458v-84v-88h458q35 0 35 -32v-19q0 -33 -35 -33h-454q15 -174 86 -272t241 -98q136 0 246 22q2 0 29 7l10 2.5t9 2.5t5 1q17 0 25 -23q8 -26 8 -45q0 -22 -35 -33q-133 -37 -297 -37q-208 0 -318 108t-132 365h-131q-37 0 -37 33v19q0 32 37 32h125v64
q0 62 2 108h-127q-37 0 -37 33v19q0 32 37 32h133q24 245 138 353t359 108q124 0 228 -14q33 -6 33 -33t-11 -55q-6 -19 -26 -19q-10 0 -35 4l-43 7q-63 6 -178 6q-176 0 -251 -93q-74 -92 -91 -264h452q35 0 35 -32v-19q0 -33 -35 -33z" />
    <glyph glyph-name="Euro.superior" horiz-adv-x="831" 
d="M600 1339h-289v-51v-55h289q25 0 25 -21v-16q0 -25 -25 -25h-285q10 -113 61 -177q49 -62 167 -62q99 0 166 18l20 4l15 3l4 1q14 0 20 -16q8 -26 8 -43q0 -18 -26 -25q-90 -28 -213 -28q-147 0 -227 74q-78 72 -93 251h-92q-23 0 -23 25v14q0 23 23 23h88v37v69h-88
q-23 0 -23 21v16q0 23 23 23h94q17 169 96 246q78 75 254 75q105 0 164 -14q25 -6 25 -25t-8 -49q-6 -12 -21 -12q-6 0 -11 1t-17 3t-15 2q-39 6 -131 6q-125 0 -177 -59q-52 -60 -63 -174h285q25 0 25 -23v-16q0 -21 -25 -21z" />
    <glyph glyph-name="Kgreenlandic" horiz-adv-x="1386" 
d="M1233 1004q-41 0 -41 36q0 123 46 249q47 129 126 202q20 20 37 20t35 -12q18 -15 18 -29q0 -18 -14 -32q-48 -49 -86 -150q-37 -98 -37 -231q0 -53 -43 -53h-41zM340 35q0 -41 -37 -41h-49q-37 0 -37 41v1378q0 41 39 41h49q35 0 35 -41v-606h180q63 0 90 35l428 579
q23 31 56 31q39 0 61 -2q23 -2 23 -25q0 -17 -21 -45l-477 -624l512 -684q25 -34 25 -47q0 -21 -21 -25q-20 -4 -72 -4q-28 0 -53 31l-473 637q-27 34 -78 34h-180v-663z" />
    <glyph glyph-name="S_S" horiz-adv-x="2285" 
d="M702 750q185 -56 257 -134q73 -79 73 -231q0 -198 -114 -305q-115 -107 -379 -107q-227 0 -396 66q-37 15 -37 39q0 20 15 53q11 31 37 31q6 0 51 -17q155 -59 330 -59q119 0 199 27q79 27 113 74q33 46 44 89q10 39 10 97q0 45 -8 77q-6 25 -36 66q-26 37 -90 70
q-62 33 -161 61l-202 60q-137 41 -209 135t-72 225q0 201 116 303q117 103 371 103q180 0 324 -39q35 -12 35 -39q0 -19 -12 -56q-7 -22 -33 -22q-9 0 -49 8q-138 35 -277 35q-201 0 -276 -73q-74 -72 -74 -208q0 -99 53 -161t219 -113zM1841 750q185 -56 257 -134
q73 -79 73 -231q0 -198 -115 -305t-379 -107q-225 0 -395 66q-37 15 -37 39q0 20 15 53q11 31 36 31q7 0 52 -17q155 -59 329 -59q121 0 200 27t113 74q33 46 44 89q10 39 10 97q0 45 -8 77q-6 25 -36 66q-26 37 -90 70q-62 33 -161 61l-203 60q-137 41 -209 135
q-71 93 -71 225q0 201 115 303q117 103 372 103q180 0 324 -39q34 -12 34 -39q0 -19 -12 -56q-7 -22 -33 -22q-9 0 -49 8q-138 35 -276 35q-202 0 -277 -73q-73 -72 -73 -208q0 -99 53 -161t219 -113z" />
    <glyph glyph-name="a.superior" horiz-adv-x="694" 
d="M582 655q0 -40 -13 -63q-11 -18 -37 -29q-84 -39 -235 -39q-225 0 -225 199q0 107 75 147q62 37 197 37q90 0 143 -6v60q0 60 -10 83q-21 52 -135 52q-74 0 -145 -17q-39 -10 -47 -10q-14 0 -21 18q-6 30 -6 39q0 19 20 25q87 29 213 29q139 0 185 -45q41 -41 41 -162
v-318zM487 827q-52 7 -131 7q-111 0 -155 -29q-35 -18 -35 -80q0 -58 31 -91q30 -32 114 -32q87 0 144 21q20 6 26 20q6 17 6 47v137z" />
    <glyph glyph-name="acute.cap" horiz-adv-x="403" 
d="M104 1583q-33 -24 -65 -24q-25 0 -51 8q-19 6 -19 20q0 20 21 35l274 217q38 29 66 29q30 0 78 -8q24 -6 24 -27q0 -20 -22 -35z" />
    <glyph glyph-name="b.superior" horiz-adv-x="739" 
d="M117 637v811q0 27 26 27h45q25 0 25 -27v-326q68 56 223 56q118 0 170 -75q53 -76 53 -243q0 -197 -70 -266q-72 -70 -233 -70q-105 0 -186 25q-31 11 -43 33q-10 16 -10 55zM213 668q0 -26 6 -33q11 -11 29 -17q44 -10 110 -10q126 0 167 51q40 50 40 191q0 130 -30 187
t-132 57q-109 0 -167 -35q-20 -17 -21 -19q-2 -8 -2 -24v-348z" />
    <glyph glyph-name="braceleft.cap" horiz-adv-x="622" 
d="M188 700q84 -23 129 -85q45 -63 45 -205v-279q0 -121 31 -168q40 -55 180 -55q25 0 25 -29v-31q0 -24 -27 -24q-118 0 -181 18q-62 18 -97 70q-45 66 -45 221v268q0 132 -42 186t-136 70q-23 2 -23 27v25q0 28 23 30q97 17 137 75q41 59 41 179v256q0 153 45 219
q69 105 276 105q29 0 29 -31v-20q0 -31 -27 -31q-146 -7 -184 -72q-25 -48 -25 -157v-263q0 -145 -41 -204q-42 -60 -133 -95z" />
    <glyph glyph-name="braceright.cap" horiz-adv-x="622" 
d="M430 696q-84 23 -129 85q-45 63 -45 206v279q0 122 -31 168q-37 51 -178 55q-24 0 -24 29v30q0 25 24 25q116 0 182 -19q65 -19 99 -69q45 -66 45 -221v-269q0 -130 41 -185q41 -54 137 -71q22 -1 22 -26v-25q0 -27 -22 -31q-97 -17 -137 -74q-41 -59 -41 -180v-256
q0 -151 -47 -219q-68 -104 -277 -104q-26 0 -26 31v20q0 31 24 31q149 7 184 71q25 48 25 158v262q0 145 42 205q42 59 132 94z" />
    <glyph glyph-name="bracketleft.cap" horiz-adv-x="563" 
d="M274 -84h218q26 0 26 -22v-31q0 -10 -8 -20q-8 -9 -18 -9h-299q-27 0 -27 31v1665q0 29 27 29h299q26 0 26 -25v-33q0 -22 -26 -22h-218v-1563z" />
    <glyph glyph-name="bracketright.cap" horiz-adv-x="563" 
d="M287 1477h-217q-27 0 -27 22v31q0 9 8 19t19 10h301q24 0 24 -31v-1665q0 -29 -24 -29h-301q-27 0 -27 23v34q0 25 27 25h217v1561z" />
    <glyph glyph-name="breve.cap" horiz-adv-x="403" 
d="M199 1559q-137 0 -199 52q-64 54 -82 146q-6 30 -6 47q0 32 22 39q22 8 50 8q20 0 26 -28q12 -80 53 -119t136 -39q101 0 144 40q44 41 56 118q6 28 33 28q30 0 45 -6q17 -6 17 -26q0 -19 -11 -68q-47 -192 -284 -192z" />
    <glyph glyph-name="bullet.cap" horiz-adv-x="686" 
d="M578 647q0 -246 -234 -246q-235 0 -235 244t235 244q115 0 174 -55q60 -56 60 -187z" />
    </font>
</defs>
</svg>
