<?xml version="1.0" standalone="no"?>
<!DOCTYPE svg PUBLIC "-//W3C//DTD SVG 1.1//EN" "http://www.w3.org/Graphics/SVG/1.1/DTD/svg11.dtd" >
<svg xmlns="http://www.w3.org/2000/svg" xmlns:xlink="http://www.w3.org/1999/xlink" version="1.1">
<metadata>
Created by FontForge 20170731 at Sun Apr 18 19:44:21 2021
 By Aleksey,,,
Copyright (c) 2015 by Dieter Hofrichter. All rights reserved.
</metadata>
<defs>
<font id="Carnas-ExtraLightIt" horiz-adv-x="776" >
  <font-face 
    font-family="Carnas-ExtraLightIt"
    font-weight="400"
    font-style="italic"
    font-stretch="normal"
    units-per-em="2048"
    panose-1="2 0 5 3 0 0 0 9 0 3"
    ascent="1561"
    descent="-487"
    x-height="1006"
    cap-height="1454"
    bbox="-381 -543 2419 2007"
    underline-thickness="102"
    underline-position="-204"
    unicode-range="U+0020-FB04"
  />
<missing-glyph horiz-adv-x="1026" 
d="M0 0v1448h1026v-1448h-1026zM514 817l348 526h-698zM573 725l353 -526v1052zM164 102h698l-348 529zM102 1251v-1052l351 526z" />
    <glyph glyph-name="f_f" unicode="ff" horiz-adv-x="1234" 
d="M264 33q-8 -39 -45 -39h-43q-29 0 -29 29q0 10 5 28l180 852h-131q-29 0 -29 23q0 10 10 49q8 31 41 31h131l21 88q51 223 135 292q130 109 356 109q43 0 43 -31q0 -19 -2 -43q-6 -30 -37 -30q-223 -7 -303 -101q-40 -46 -78 -205l-18 -79h479l29 137q46 214 133 287
q129 108 356 108q45 0 45 -31q0 -27 -4 -43q-5 -30 -34 -30q-225 -6 -304 -103q-46 -52 -79 -198l-27 -127h242q28 0 28 -25q0 -13 -12 -53q-8 -25 -39 -25h-242l-184 -870q-8 -39 -43 -39h-45q-29 0 -29 29q0 13 4 28l183 852h-479z" />
    <glyph glyph-name="fi" unicode="fi" horiz-adv-x="1126" 
d="M264 33q-8 -39 -45 -39h-43q-29 0 -29 29q0 10 5 28l180 852h-131q-29 0 -29 23q0 10 10 49q8 31 41 31h131l31 137q46 214 133 287q129 108 352 108q45 0 45 -31q0 -27 -4 -43q-5 -30 -34 -30q-118 -5 -188 -27t-114 -74q-47 -61 -77 -200l-27 -127h549q31 0 31 -29
q0 -7 -7 -35l-192 -909q-6 -39 -43 -39h-45q-29 0 -29 29q0 13 4 28l183 852h-473zM1149 1382q0 -60 -33 -90q-21 -20 -63 -20q-72 0 -72 61q0 59 31 90q28 23 65 23q72 0 72 -64z" />
    <glyph glyph-name="fl" unicode="fl" horiz-adv-x="1150" 
d="M264 33q-8 -39 -45 -39h-43q-29 0 -29 29q0 10 5 28l180 852h-131q-29 0 -29 23q0 10 10 49q8 31 41 31h131l27 129q40 201 147 290q128 111 406 111q107 0 170 -12q45 -8 45 -47q0 -16 -8 -56l-248 -1165q-10 -44 -10 -80q0 -76 110 -86q27 -2 27 -31q0 -25 -12 -49
q-7 -16 -39 -16q-85 0 -145 36t-60 115q0 38 14 109l248 1171q-47 7 -121 7q-243 0 -321 -99q-61 -78 -88 -209l-27 -118h242q28 0 28 -25q0 -20 -10 -53q-8 -25 -41 -25h-239z" />
    <glyph glyph-name="f_f_i" unicode="ffi" horiz-adv-x="1720" 
d="M264 33q-8 -39 -45 -39h-43q-29 0 -29 29q0 10 5 28l180 852h-131q-29 0 -29 23q0 10 10 49q8 31 41 31h131l21 88q51 223 135 292q130 109 356 109q43 0 43 -31q0 -19 -2 -43q-6 -30 -37 -30q-223 -7 -303 -101q-40 -46 -78 -205l-18 -79h479l29 137q46 214 133 287
q129 108 352 108q45 0 45 -31q0 -19 -2 -43q-6 -30 -37 -30q-115 -5 -185 -27t-114 -74q-46 -52 -79 -200l-27 -127h549q33 0 33 -29q0 -3 -7 -31l-194 -913q-6 -39 -43 -39h-43q-31 0 -31 29q0 13 4 28l185 852h-476l-184 -870q-8 -39 -43 -39h-45q-29 0 -29 29q0 13 4 28
l183 852h-479zM1743 1382q0 -60 -33 -90q-20 -20 -61 -20q-74 0 -74 61q0 57 33 90q28 23 63 23q72 0 72 -64z" />
    <glyph glyph-name="f_f_l" unicode="ffl" horiz-adv-x="1746" 
d="M264 33q-8 -39 -45 -39h-43q-29 0 -29 29q0 10 5 28l180 852h-131q-29 0 -29 23q0 10 10 49q8 31 41 31h131l21 88q51 223 135 292q130 109 356 109q43 0 43 -31q0 -19 -2 -43q-6 -30 -37 -30q-223 -7 -303 -101q-40 -46 -78 -205l-18 -79h479l27 129q40 201 147 290
q128 111 406 111q107 0 170 -12q45 -8 45 -47q0 -16 -8 -56l-248 -1165q-10 -44 -10 -80q0 -76 110 -86q27 -2 27 -31q0 -24 -10 -47q-8 -18 -41 -18q-84 0 -144 36q-59 35 -59 115q0 43 12 109l248 1171q-47 7 -121 7q-241 0 -319 -99q-63 -77 -90 -209l-27 -118h244
q28 0 28 -25q0 -13 -12 -53q-11 -25 -39 -25h-244l-184 -870q-8 -39 -43 -39h-45q-29 0 -29 29q0 13 4 28l183 852h-479z" />
    <glyph glyph-name="T_h" unicode="Th" horiz-adv-x="2246" 
d="M535 35q-11 -41 -41 -41h-54q-30 0 -30 26q0 14 4 29l276 1286h-416q-30 0 -30 25q0 13 8 55q5 31 45 31h1180l12 51q6 35 37 35h49q29 0 29 -27q0 -4 -2 -20l-117 -547q118 100 377 100q109 0 183 -40q75 -40 75 -132q0 -64 -21 -166l-139 -665q-8 -41 -43 -41h-45
q-31 0 -31 26q0 3 6 41l135 623q15 60 15 135q0 64 -45 88q-47 25 -137 25q-184 0 -295 -60q-36 -23 -41 -30q-18 -23 -29 -70l-156 -739q-6 -39 -43 -39h-45q-30 0 -30 26q0 5 6 35l272 1280h-641z" />
    <glyph glyph-name="Tcaron_h" unicode="&#x164;h" horiz-adv-x="2273" 
d="M535 35q-11 -41 -41 -41h-54q-30 0 -30 26q0 14 4 29l276 1286h-416q-30 0 -30 25q0 13 8 55q5 31 45 31h1180l12 51q6 35 37 35h49q29 0 29 -27q0 -4 -2 -20l-117 -547q118 100 377 100q109 0 183 -40q75 -40 75 -132q0 -64 -21 -166l-139 -665q-8 -41 -43 -41h-45
q-31 0 -31 26q0 3 6 41l135 623q15 60 15 135q0 64 -45 88q-47 25 -137 25q-184 0 -295 -60q-36 -23 -41 -30q-18 -23 -29 -70l-156 -739q-6 -39 -43 -39h-45q-30 0 -30 26q0 5 6 35l272 1280h-641zM1059 1864q30 0 51 -4q18 -4 18 -23q0 -15 -18 -31l-252 -207
q-39 -32 -67 -32h-41q-28 0 -50 26l-182 215q-10 14 -10 25q0 19 24 25q19 4 43 4q26 0 54 -25l157 -151l209 149q38 29 64 29z" />
    <glyph glyph-name="f_b" unicode="fb" horiz-adv-x="1753" 
d="M264 33q-8 -39 -45 -39h-43q-29 0 -29 29q0 10 5 28l180 852h-131q-29 0 -29 23q0 10 10 49q8 31 41 31h131l27 129q40 201 147 290q128 111 406 111q105 0 168 -12q47 -8 47 -47q0 -16 -8 -56l-103 -483q122 98 353 98q282 0 282 -299q0 -139 -41 -311
q-40 -168 -119 -276q-73 -99 -177 -138t-263 -39q-149 0 -256 39q-63 24 -63 90q0 33 8 76l264 1247q-47 7 -121 7q-243 0 -321 -99q-61 -78 -88 -209l-27 -118h242q28 0 28 -25q0 -20 -10 -53q-8 -25 -41 -25h-239zM881 190q-4 -21 -4 -45q0 -37 43 -49q84 -22 167 -22
q236 0 332 133q62 85 98 235q35 147 35 275q0 104 -50 159q-50 54 -175 54q-88 0 -178 -27q-91 -27 -123 -67q-13 -17 -20 -60z" />
    <glyph glyph-name="f_f_b" unicode="ffb" horiz-adv-x="2349" 
d="M264 33q-8 -39 -45 -39h-43q-29 0 -29 29q0 10 5 28l180 852h-131q-29 0 -29 23q0 10 10 49q8 31 41 31h131l19 88q51 219 137 292q130 109 356 109q43 0 43 -31q0 -27 -4 -43q-5 -30 -37 -30q-221 -7 -301 -101q-40 -46 -78 -205l-18 -79h479l27 129q40 201 147 290
q128 111 406 111q105 0 168 -12q47 -8 47 -47q0 -16 -8 -56l-101 -483q122 98 351 98q282 0 282 -299q0 -145 -40 -312q-40 -168 -120 -275q-73 -99 -177 -138t-263 -39q-149 0 -256 39q-63 24 -63 90q0 33 8 76l264 1247q-47 7 -121 7q-241 0 -321 -99q-59 -72 -88 -209
l-27 -118h244q28 0 28 -25q0 -13 -12 -53q-11 -25 -39 -25h-244l-184 -870q-8 -39 -43 -39h-45q-29 0 -29 29q0 13 4 28l183 852h-479zM1477 190q-4 -21 -4 -45q0 -37 43 -49q88 -22 167 -22q236 0 332 133q62 85 98 235q35 147 35 275q0 104 -50 159q-50 54 -175 54
q-90 0 -180 -27q-91 -27 -119 -67q-13 -16 -20 -50z" />
    <glyph glyph-name="f_f_h" unicode="ffh" horiz-adv-x="2396" 
d="M264 33q-8 -39 -45 -39h-43q-29 0 -29 29q0 10 5 28l180 852h-131q-29 0 -29 23q0 10 10 49q8 31 41 31h131l21 88q51 223 135 292q130 109 356 109q43 0 43 -31q0 -13 -2 -43q-5 -30 -37 -30q-223 -7 -303 -101q-40 -46 -78 -205l-18 -79h479l27 129q40 201 147 290
q128 111 406 111q105 0 168 -12q47 -8 47 -47q0 -16 -8 -56l-101 -483q118 100 375 100q107 0 184 -39q76 -39 76 -131q0 -84 -20 -168l-142 -667q-6 -39 -43 -39h-43q-32 0 -32 26q0 7 1 11t3 14t2 12l135 627q16 67 16 135q0 64 -47 88q-48 25 -137 25q-188 0 -295 -60
q-35 -24 -41 -30q-15 -16 -26 -70l-156 -739q-6 -39 -43 -39h-45q-31 0 -31 26q0 5 6 35l289 1370q-47 7 -121 7q-241 0 -319 -99q-63 -77 -90 -209l-27 -118h244q28 0 28 -25q0 -13 -12 -53q-11 -25 -39 -25h-244l-184 -870q-8 -39 -43 -39h-45q-29 0 -29 29q0 13 4 28
l183 852h-479z" />
    <glyph glyph-name="f_f_j" unicode="ffj" horiz-adv-x="1759" 
d="M264 33q-8 -39 -45 -39h-43q-29 0 -29 29q0 10 5 28l180 852h-131q-29 0 -29 23q0 10 10 49q8 31 41 31h131l21 88q51 223 135 292q130 109 356 109q43 0 43 -31q0 -19 -2 -43q-6 -30 -37 -30q-223 -7 -303 -101q-40 -46 -78 -205l-18 -79h479l29 137q46 214 133 287
q129 108 352 108q45 0 45 -31q0 -24 -4 -43q-5 -30 -35 -30q-117 -4 -186 -27t-113 -74q-46 -52 -79 -200l-27 -127h547q35 0 35 -29q0 -3 -7 -31l-227 -1065q-39 -183 -131 -260q-52 -43 -146 -72q-91 -28 -145 -28q-29 0 -33 24q-4 21 -4 43q0 29 45 35q129 21 197 70
q72 46 102 188l220 1022h-476l-184 -870q-8 -39 -43 -39h-45q-29 0 -29 29q0 13 4 28l183 852h-479zM1743 1382q0 -60 -33 -90q-20 -20 -61 -20q-74 0 -74 61q0 57 33 90q28 23 63 23q72 0 72 -64z" />
    <glyph glyph-name="f_f_k" unicode="ffk" horiz-adv-x="2246" 
d="M264 33q-8 -39 -45 -39h-43q-29 0 -29 29q0 10 5 28l180 852h-131q-29 0 -29 23q0 10 10 49q8 31 41 31h131l21 88q51 223 135 292q130 109 356 109q43 0 43 -31q0 -19 -2 -43q-6 -30 -37 -30q-223 -7 -303 -101q-40 -46 -78 -205l-18 -79h479l27 129q40 201 147 290
q128 111 406 111q105 0 168 -12q47 -8 47 -47q0 -16 -8 -56l-170 -805h139q61 0 96 35l326 332q29 29 59 29q55 0 68 -4q16 -4 16 -19q0 -17 -30 -47q-240 -247 -392 -385q57 -96 271 -487q16 -28 16 -43q0 -21 -22 -27q-15 -6 -62 -6q-28 0 -47 31l-240 452q-21 37 -69 37
h-150l-102 -481q-6 -39 -41 -39h-45q-33 0 -33 26q0 5 6 35l291 1370q-47 7 -121 7q-241 0 -319 -99q-63 -77 -90 -209l-27 -118h244q28 0 28 -25q0 -13 -12 -53q-11 -25 -39 -25h-244l-184 -870q-8 -39 -43 -39h-45q-29 0 -29 29q0 13 4 28l183 852h-479z" />
    <glyph glyph-name="f_h" unicode="fh" horiz-adv-x="1800" 
d="M264 33q-8 -39 -45 -39h-43q-29 0 -29 29q0 10 5 28l180 852h-131q-29 0 -29 23q0 10 10 49q8 31 41 31h131l27 129q40 201 147 290q128 111 406 111q105 0 168 -12q47 -8 47 -47q0 -16 -8 -56l-103 -483q121 100 377 100q107 0 184 -39q76 -39 76 -131q0 -71 -20 -168
l-142 -667q-6 -39 -43 -39h-45q-30 0 -30 26q0 7 1 11t3 14t2 12l135 627q16 67 16 135q0 64 -47 88q-48 25 -139 25q-184 0 -291 -60q-28 -12 -43 -30q-17 -17 -28 -70l-156 -739q-6 -39 -43 -39h-43q-33 0 -33 26q0 5 6 35l291 1370q-47 7 -121 7q-243 0 -321 -99
q-61 -78 -88 -209l-27 -118h242q28 0 28 -25q0 -20 -10 -53q-8 -25 -41 -25h-239z" />
    <glyph glyph-name="f_j" unicode="fj" horiz-adv-x="1165" 
d="M264 33q-8 -39 -45 -39h-43q-29 0 -29 29q0 10 5 28l180 852h-131q-29 0 -29 23q0 10 10 49q8 31 41 31h131l31 137q46 214 133 287q129 108 352 108q45 0 45 -31q0 -27 -4 -43q-5 -30 -34 -30q-118 -5 -188 -27t-114 -74q-47 -61 -77 -200l-27 -127h549q31 0 31 -29
q0 -16 -7 -35l-225 -1059q-39 -183 -131 -260q-51 -42 -146 -73q-90 -29 -145 -29q-27 0 -32 24q-5 27 -5 43q0 29 46 35q128 21 196 70q70 47 100 190l220 1020h-473zM1149 1382q0 -60 -33 -90q-21 -20 -63 -20q-72 0 -72 61q0 59 31 90q28 23 65 23q72 0 72 -64z" />
    <glyph glyph-name="f_k" unicode="fk" horiz-adv-x="1648" 
d="M264 33q-8 -39 -45 -39h-43q-29 0 -29 29q0 10 5 28l180 852h-131q-29 0 -29 23q0 10 10 49q8 31 41 31h131l27 129q40 201 147 290q128 111 406 111q105 0 168 -12q47 -8 47 -47q0 -16 -8 -56l-170 -805h139q65 0 98 35l324 332q29 29 59 29q53 0 68 -4q14 -1 14 -19
q0 -15 -28 -47q-232 -236 -392 -385q85 -144 271 -487q14 -25 14 -43q0 -23 -20 -27q-24 -6 -62 -6q-28 0 -47 31l-240 452q-21 37 -69 37h-150l-102 -481q-6 -39 -43 -39h-43q-33 0 -33 26q0 5 6 35l291 1370q-47 7 -121 7q-243 0 -321 -99q-61 -78 -88 -209l-27 -118h242
q28 0 28 -25q0 -20 -10 -53q-8 -25 -41 -25h-239z" />
    <glyph glyph-name="uni0162_h" unicode="&#x162;h" horiz-adv-x="2273" 
d="M465 -131q176 -2 176 -152q0 -118 -70 -170q-69 -51 -202 -51q-56 0 -88 8q-27 6 -27 27q0 18 6 39q8 27 29 27q12 0 35 -5q21 -4 65 -4q65 0 101 25q34 24 34 86q0 78 -104 78h-29q-33 0 -33 30q0 15 15 58l47 133q-10 6 -10 22q0 14 4 29l276 1286h-416q-30 0 -30 25
q0 13 8 55q5 31 45 31h1180l12 51q6 35 37 35h49q29 0 29 -27q0 -4 -2 -20l-117 -547q118 100 377 100q109 0 183 -40q75 -40 75 -132q0 -64 -21 -166l-139 -665q-8 -41 -43 -41h-45q-31 0 -31 26q0 3 6 41l135 623q15 60 15 135q0 64 -45 88q-47 25 -137 25
q-184 0 -295 -60q-36 -23 -41 -30q-18 -23 -29 -70l-156 -739q-6 -39 -43 -39h-45q-30 0 -30 26q0 5 6 35l272 1280h-641l-278 -1300q-10 -34 -29 -39z" />
    <glyph glyph-name="uni021A_h" unicode="&#x21a;h" horiz-adv-x="2273" 
d="M535 35q-11 -41 -41 -41h-54q-30 0 -30 26q0 14 4 29l276 1286h-416q-30 0 -30 25q0 13 8 55q5 31 45 31h1180l12 51q6 35 37 35h49q29 0 29 -27q0 -4 -2 -20l-117 -547q118 100 377 100q109 0 183 -40q75 -40 75 -132q0 -64 -21 -166l-139 -665q-8 -41 -43 -41h-45
q-31 0 -31 26q0 3 6 41l135 623q15 60 15 135q0 64 -45 88q-47 25 -137 25q-184 0 -295 -60q-36 -23 -41 -30q-18 -23 -29 -70l-156 -739q-6 -39 -43 -39h-45q-30 0 -30 26q0 5 6 35l272 1280h-641zM426 -139h39q39 0 39 -37q0 -34 -21 -96q-56 -165 -164 -248
q-31 -23 -38 -23q-15 0 -33 15q-17 11 -17 26q0 11 19 35q104 116 127 274q6 54 49 54z" />
    <glyph glyph-name=".notdef" horiz-adv-x="1026" 
d="M0 0v1448h1026v-1448h-1026zM514 817l348 526h-698zM573 725l353 -526v1052zM164 102h698l-348 529zM102 1251v-1052l351 526z" />
    <glyph glyph-name=".null" horiz-adv-x="0" 
 />
    <glyph glyph-name="nonmarkingreturn" horiz-adv-x="681" 
 />
    <glyph glyph-name="space" unicode=" " horiz-adv-x="460" 
 />
    <glyph glyph-name="exclam" unicode="!" horiz-adv-x="575" 
d="M397 469q-7 -39 -39 -39h-41q-30 0 -30 29q0 12 4 37q169 854 184 907q12 43 47 43h51q35 0 35 -35q0 -23 -211 -942zM362 106q0 -68 -38 -100q-24 -24 -68 -24q-82 0 -82 71q0 62 35 97q26 26 74 26q79 0 79 -70z" />
    <glyph glyph-name="quotedbl" unicode="&#x22;" horiz-adv-x="688" 
d="M360 977q-10 -37 -41 -37h-28q-29 0 -29 29q0 6 4 35l78 417q8 45 47 45h45q33 0 33 -28q0 -12 -8 -47q-15 -75 -101 -414zM672 977q-10 -37 -41 -37h-29q-29 0 -29 29l1 4q0 4 1.5 13t2.5 18l77 417q7 45 50 45h43q30 0 30 -28q0 -21 -6 -45z" />
    <glyph glyph-name="numbersign" unicode="#" horiz-adv-x="1222" 
d="M326 4q-7 -37 -41 -37q-45 0 -45 25q0 10 8 45l106 420h-188q-33 0 -33 26q0 30 6 54q10 34 39 34h207l66 263h-203q-33 0 -33 24q0 7 1 13t3 22t2 20q6 33 39 33h219l109 422q6 26 15 37q9 10 32 10q26 0 36 -5q9 -4 9 -19t-10 -48l-103 -397h338l109 422q12 47 47 47
q29 0 37 -5t8 -19q0 -15 -8 -50l-103 -395h191q33 0 33 -26q0 -18 -7 -58q-6 -28 -34 -28h-211l-68 -263h205q33 0 33 -26q0 -16 -7 -60q-6 -28 -34 -28h-226l-116 -453q-7 -37 -43 -37q-45 0 -45 25q0 10 8 45l106 420h-340zM539 834l-68 -263h340l66 263h-338z" />
    <glyph glyph-name="dollar" unicode="$" horiz-adv-x="1114" 
d="M559 -10l-35 -168q-7 -37 -39 -37h-34q-29 0 -29 22q0 6 4 27l33 154q-192 6 -320 67q-30 15 -30 35q0 14 20 57q13 25 37 25q7 0 45 -16q142 -58 297 -58q172 0 267 59t95 212q0 75 -39 127t-169 112l-168 74q-211 96 -211 307q0 383 469 395l34 170q10 37 41 37h35
q29 0 29 -20q0 -14 -4 -33l-35 -156q113 -10 203 -41q30 -11 30 -36q0 -28 -14 -56q-7 -20 -31 -20q-20 0 -53 10q-123 37 -250 37q-166 0 -249 -62q-82 -61 -82 -204q0 -77 40 -133q41 -57 156 -109l133 -59q142 -62 202 -130q58 -65 58 -182q0 -383 -436 -407z" />
    <glyph glyph-name="percent" unicode="%" horiz-adv-x="1724" 
d="M809 1171q0 -114 -37 -278q-37 -166 -100 -254q-80 -117 -252 -117q-133 0 -197 53q-63 53 -63 187q0 112 35 260q35 147 96 238q88 133 264 133q136 0 195 -46t59 -176zM709 1157q0 82 -34 116t-130 34q-114 0 -176 -97q-50 -78 -80 -210q-31 -138 -31 -226
q0 -91 37 -128q38 -38 131 -38q116 0 172 84q48 75 79 226q32 154 32 239zM492 -33q-23 -33 -50 -33q-13 0 -34 3q-15 5 -15 16q0 16 21 43l919 1415q29 45 56 45q17 0 36 -4q17 -5 17 -16q0 -13 -23 -47zM1669 631q0 -115 -37 -279q-37 -166 -100 -254q-79 -116 -252 -116
q-132 0 -196 53q-62 52 -62 186q0 116 34 261q35 149 95 237q88 133 264 133q136 0 195 -46t59 -175zM1569 616q0 82 -34 116t-130 34q-116 0 -176 -96q-49 -77 -78 -209q-31 -140 -31 -228q0 -92 37 -129q36 -36 131 -36q118 0 170 84q48 76 79 225q32 154 32 239z" />
    <glyph glyph-name="ampersand" unicode="&#x26;" horiz-adv-x="1466" 
d="M1094 152q-92 -92 -203 -135q-114 -44 -285 -44q-223 0 -335 101q-111 100 -111 256q0 179 102 287t313 180q-112 146 -112 297q0 178 121 278q122 101 319 101q127 0 219 -23q49 -12 49 -37t-14 -61q-8 -19 -31 -19q-8 0 -75 15q-71 16 -174 16q-135 0 -214 -66
t-79 -198q0 -113 110 -262q143 -191 414 -508q74 109 104 282q5 22 15 125q5 34 28 35q22 2 56 2q32 0 32 -37q0 -48 -10 -102q-44 -244 -153 -393q42 -52 143 -162q23 -25 23 -45q0 -21 -23 -29q-29 -12 -57 -12q-31 0 -62 31q-7 7 -52 57q-33 37 -58 70zM1032 231
q-158 178 -397 488q-166 -52 -256 -136q-92 -86 -92 -233q0 -124 86 -196t256 -72q270 0 403 149z" />
    <glyph glyph-name="quotesingle" unicode="'" horiz-adv-x="378" 
d="M360 977q-10 -37 -41 -37h-28q-29 0 -29 29q0 6 4 35l78 417q8 45 47 45h45q33 0 33 -28q0 -12 -8 -47q-15 -75 -101 -414z" />
    <glyph glyph-name="parenleft" unicode="(" horiz-adv-x="630" 
d="M795 1462q-275 -147 -426 -453q-152 -307 -152 -696q0 -204 58 -333q59 -131 153 -236q6 -10 6 -20q0 -11 -16 -27q-12 -12 -25 -12q-18 0 -41 16q-102 78 -178 233t-76 383q0 182 37 355q38 177 111 340q74 164 198 297t287 207q38 16 45 16q15 0 25 -16q12 -16 12 -29
q0 -15 -18 -25z" />
    <glyph glyph-name="parenright" unicode=")" horiz-adv-x="628" 
d="M-96 -246q278 151 427 454q150 304 150 695q0 203 -54 328t-153 237q-10 10 -10 23q0 14 17 31q10 10 24 10q19 0 39 -16q99 -76 178 -233q78 -156 78 -382q0 -390 -161 -721q-160 -330 -472 -481q-31 -14 -45 -14t-26 16q-11 17 -11 29q0 13 19 24z" />
    <glyph glyph-name="asterisk" unicode="*" horiz-adv-x="829" 
d="M537 967q-125 -130 -193 -193q-14 -14 -27 -14q-20 0 -47 28q-12 12 -12 29q0 15 16 31q155 141 207 184q-28 14 -112 51q-75 33 -133 64q-25 16 -25 37q0 16 18 45q11 20 33 20q19 0 37 -12q200 -111 223 -125q6 90 33 264q5 24 10 32q6 9 27 9q22 0 41 -4q26 -4 26 -31
q0 -15 -4 -34q-12 -70 -51 -250q58 10 110 21q81 18 122 24q4 0 23 3q20 3 28 3q22 0 28 -29q7 -35 7 -49q-5 -25 -35 -31q-35 -5 -275 -30q39 -66 133 -240q9 -18 9 -27q0 -18 -23 -30q-31 -17 -47 -17q-17 0 -29 23z" />
    <glyph glyph-name="plus" unicode="+" horiz-adv-x="1435" 
d="M715 100q-6 -28 -35 -28h-37q-31 0 -31 28q0 6 4 25l95 426h-447q-28 0 -28 29q0 25 4 45q6 32 36 32h451l94 443q6 35 35 35h41q29 0 29 -29q0 -12 -4 -31l-91 -418h447q29 0 29 -28q0 -10 -7 -45q-4 -33 -36 -33h-453z" />
    <glyph glyph-name="comma" unicode="," horiz-adv-x="430" 
d="M141 197h47q41 0 41 -43q0 -98 -77 -239q-78 -143 -183 -216q-27 -21 -41 -21q-17 0 -34 17t-17 33q0 15 19 32q67 56 121 159q55 104 77 228q6 50 47 50z" />
    <glyph glyph-name="hyphen" unicode="-" horiz-adv-x="669" 
d="M545 494h-395q-27 0 -27 22q0 14 10 55q8 31 41 31h389q31 0 31 -22q0 -5 -12 -62q-8 -24 -37 -24z" />
    <glyph glyph-name="period" unicode="." horiz-adv-x="430" 
d="M238 106q0 -67 -39 -100q-24 -24 -68 -24q-82 0 -82 71q0 62 35 97q26 26 74 26q80 0 80 -70z" />
    <glyph glyph-name="slash" unicode="/" horiz-adv-x="702" 
d="M31 -168q-16 -37 -47 -37q-29 0 -45 2q-19 2 -19 21q0 14 14 41l830 1632q23 47 49 47t47 -4q17 -5 17 -21q0 -15 -21 -55z" />
    <glyph glyph-name="zero" unicode="0" horiz-adv-x="1132" 
d="M1133 1049q0 -181 -59 -459q-59 -279 -152 -422q-73 -108 -167 -151q-96 -44 -233 -44q-205 0 -305 86q-98 85 -98 301q0 194 56 434q57 246 151 396q140 219 413 219q210 0 301 -76q93 -78 93 -284zM1008 1030q0 145 -59 209t-226 64q-194 0 -299 -173
q-78 -130 -129 -362q-51 -234 -51 -395q0 -160 63 -226q62 -65 228 -65q99 0 168 33q71 34 122 116q77 123 130 385t53 414z" />
    <glyph glyph-name="one" unicode="1" horiz-adv-x="1132" 
d="M776 0h-526q-27 0 -27 23q0 11 8 57q8 31 41 31h193l244 1140l-234 -86q-26 -10 -39 -10q-17 0 -24 14q-17 45 -17 52q0 19 35 34l281 109q50 20 75 20h11q47 0 47 -43q0 -19 -8 -59l-250 -1171h209q28 0 28 -23q0 -18 -8 -61q-7 -27 -39 -27z" />
    <glyph glyph-name="two" unicode="2" horiz-adv-x="1132" 
d="M885 0h-801q-30 0 -48 15t-18 36q0 72 37 99q45 30 168 119q53 38 120 86t82 59q81 59 161 122q115 91 170 140q95 83 142 173q46 88 46 216q0 235 -289 235q-100 0 -227 -38q-62 -21 -72 -21q-18 0 -26 19q-13 41 -13 49q0 26 58 47q157 53 315 53q201 0 292 -88
t91 -238q0 -143 -49 -247q-49 -103 -162 -209q-70 -64 -162 -137q-94 -75 -163 -124q-47 -34 -199 -140q-36 -25 -74 -51.5t-61 -42.5t-33 -23q162 2 733 2q35 0 35 -25q0 -18 -10 -57q-6 -29 -43 -29z" />
    <glyph glyph-name="three" unicode="3" horiz-adv-x="1132" 
d="M717 725q241 -22 241 -258q0 -223 -108 -346q-134 -148 -444 -148q-186 0 -293 43q-41 17 -41 39q0 25 20 62q10 16 31 16q3 0 63 -18q118 -33 234 -33q235 0 336 113q80 95 80 264q0 106 -79 158q-81 54 -280 55q-41 0 -41 39q0 67 58 67q232 6 327 88q94 78 94 238
q0 196 -258 196q-148 0 -239 -36q-62 -21 -70 -21q-15 0 -26 23q-13 36 -13 45q0 24 58 47q144 51 319 51q192 0 275 -77q81 -75 81 -220q0 -321 -325 -387z" />
    <glyph glyph-name="four" unicode="4" horiz-adv-x="1132" 
d="M807 33q-6 -39 -43 -39h-41q-33 0 -33 31q0 6 6 36l68 318h-574q-71 0 -71 57q0 43 49 105l600 821q34 49 63 49q32 0 62 -6q14 -1 14 -19t-24 -55l-625 -844h530l78 375q11 41 41 41h49q31 0 31 -29l-6 -30l-76 -357h201q33 0 33 -24q0 -11 -11 -53q-8 -31 -43 -31h-202
z" />
    <glyph glyph-name="five" unicode="5" horiz-adv-x="1132" 
d="M375 836q87 22 246 22q193 0 290 -71t97 -232q0 -582 -590 -582q-206 0 -318 41q-34 15 -34 37t16 58q10 22 35 22q6 0 15 -3q15 -5 25 -9q17 -7 25 -8q122 -31 254 -31q233 0 338 116t105 336q0 125 -73 174q-72 48 -220 48q-103 0 -193 -15q-84 -14 -96 -14
q-43 0 -43 45q0 28 16 92l115 471q12 51 55 51h584q33 0 33 -22q0 -17 -8 -59q-6 -27 -45 -27h-525z" />
    <glyph glyph-name="six" unicode="6" horiz-adv-x="1132" 
d="M303 725q124 139 395 139q357 0 357 -311q0 -282 -135 -438q-124 -142 -394 -142q-387 0 -387 381q0 211 77 483q76 267 208 404q162 168 453 168q151 0 229 -23q18 -6 18 -26q0 -28 -16 -64q-8 -18 -25 -18l-49 8q-84 14 -164 14q-243 0 -366 -139q-72 -82 -114 -175
q-44 -98 -87 -261zM256 356q0 -123 58 -197q58 -75 216 -75q223 0 312 115q90 123 90 325q0 101 -61 167q-60 65 -193 65q-131 0 -233 -36q-101 -36 -140 -99q-24 -42 -31 -78q-18 -89 -18 -187z" />
    <glyph glyph-name="seven" unicode="7" horiz-adv-x="1132" 
d="M983 1278q-97 0 -247 -1t-476 -1q-35 0 -35 22q0 9 11 56q6 30 45 30h755q84 0 84 -55q0 -47 -30 -98l-693 -1188q-28 -49 -57 -49q-18 0 -61 8q-23 6 -23 27q0 15 23 55z" />
    <glyph glyph-name="eight" unicode="8" horiz-adv-x="1132" 
d="M823 721q104 -16 160 -87q55 -70 55 -181q0 -244 -140 -362t-388 -118q-197 0 -301 85q-105 85 -105 233q0 379 353 448q-81 24 -128 87q-46 62 -46 145q0 219 129 328q130 110 362 110q356 0 356 -270q0 -336 -307 -418zM913 442q0 115 -77 171q-78 57 -209 57
q-400 0 -400 -353q0 -122 83 -179q81 -56 216 -56q184 0 286 90q101 89 101 270zM1010 1112q0 188 -260 188q-344 0 -344 -319q0 -104 68 -154q69 -51 177 -51q161 0 260 90t99 246z" />
    <glyph glyph-name="nine" unicode="9" horiz-adv-x="1132" 
d="M948 668q-131 -146 -385 -146q-181 0 -273 85q-93 85 -93 237q0 264 135 422q124 143 391 143q389 0 389 -381q0 -210 -77 -482q-76 -269 -208 -405q-162 -168 -452 -168q-155 0 -236 25q-16 6 -16 25q0 29 16 61q7 20 25 20l53 -8q69 -14 162 -14q242 0 369 139
q69 77 112 177q42 99 88 270zM995 1026q0 124 -59 198t-217 74q-223 0 -307 -112q-95 -125 -95 -324q0 -101 62 -168q61 -65 192 -65q129 0 232 41q102 41 143 104q24 42 31 76q18 88 18 176z" />
    <glyph glyph-name="colon" unicode=":" horiz-adv-x="471" 
d="M276 106q0 -68 -38 -100q-24 -24 -68 -24q-82 0 -82 71q0 62 35 97q26 26 72 26q81 0 81 -70zM453 940q0 -69 -39 -102q-23 -23 -68 -23q-82 0 -82 72q0 61 35 96q29 27 74 27q80 0 80 -70z" />
    <glyph glyph-name="semicolon" unicode=";" horiz-adv-x="471" 
d="M453 940q0 -69 -39 -102q-23 -23 -68 -23q-82 0 -82 72q0 61 35 96q29 27 74 27q80 0 80 -70zM182 197h47q41 0 41 -43q0 -98 -77 -239q-78 -143 -183 -216q-27 -21 -41 -21q-18 0 -35 17q-16 16 -16 33q0 15 19 32q157 135 198 387q6 50 47 50z" />
    <glyph glyph-name="less" unicode="&#x3c;" horiz-adv-x="1435" 
d="M1141 141q-6 -26 -25 -26q-4 0 -22 8l-766 407q-19 11 -19 33q0 17 8 60q6 30 29 41l948 419q19 7 27 7q18 0 18 -23q0 -19 -10 -66q-6 -25 -29 -36l-870 -375l700 -359q19 -11 19 -34q0 -13 -8 -56z" />
    <glyph glyph-name="equal" unicode="=" horiz-adv-x="1435" 
d="M1262 383q-5 -31 -35 -31h-1002q-28 0 -28 27q0 17 6 47q6 29 35 29h1001q29 0 29 -29q0 -8 -6 -43zM1346 772q-6 -31 -35 -31h-1002q-28 0 -28 31l1 4q1 5 3 16.5t4 22.5q6 31 35 31h999q31 0 31 -29z" />
    <glyph glyph-name="greater" unicode="&#x3e;" horiz-adv-x="1435" 
d="M410 1069q6 25 20 25q9 0 23 -7l766 -409q20 -10 20 -33q0 -11 -8 -61q-6 -31 -29 -39l-948 -418q-22 -8 -25 -8q-20 0 -20 24q0 23 10 64q6 28 29 39l868 375l-696 356q-21 11 -21 35q0 15 11 57z" />
    <glyph glyph-name="question" unicode="?" horiz-adv-x="817" 
d="M377 430h-43q-27 0 -27 33q0 34 17 119q22 105 64 158q43 55 155 118q116 65 175 138q58 71 58 190q0 78 -51 127q-50 49 -158 49q-123 0 -235 -31q-18 -6 -33 -6q-19 0 -25 21q-10 33 -10 47q0 21 29 32q150 48 299 48q160 0 237 -74q76 -73 76 -182q0 -147 -65 -239
q-66 -93 -211 -181q-106 -63 -142 -102q-35 -38 -53 -120q-1 -5 -2.5 -13t-4 -20.5l-4.5 -22.5q-8 -42 -13 -58q-6 -31 -33 -31zM403 106q0 -71 -36 -100q-24 -24 -68 -24q-82 0 -82 71q0 64 35 97q26 26 72 26q79 0 79 -70z" />
    <glyph glyph-name="at" unicode="@" horiz-adv-x="1646" 
d="M1010 225q-100 -108 -277 -108q-254 0 -254 233q0 138 62 288q62 151 172 241q112 94 301 94q123 0 207 -39q39 -16 39 -55q0 -36 -11 -72l-121 -463q-16 -54 -16 -86q2 -45 47 -45q41 0 94 31q116 78 180 226q64 149 64 306q0 473 -510 473q-335 0 -543 -247t-208 -592
q0 -273 149 -421q151 -149 449 -149q243 0 444 72q48 16 57 16q13 0 23 -24q8 -22 8 -29q0 -20 -51 -41q-219 -84 -490 -84q-327 0 -506 169q-180 169 -180 489q0 237 101 447q100 207 299 341q197 133 456 133q291 0 443 -139q153 -140 153 -412q0 -138 -49 -282
q-49 -145 -161 -258q-111 -113 -259 -113q-60 0 -86 22t-26 78zM1030 365l115 419q0 2 5 25t5 27q0 21 -29 32q-46 17 -129 17q-143 0 -229 -74q-80 -66 -132 -196q-52 -129 -52 -238q0 -89 43 -129q44 -41 139 -41q118 0 209 69q13 10 31 31q18 24 24 58z" />
    <glyph glyph-name="A" unicode="A" horiz-adv-x="1179" 
d="M317 479l-245 -436q-27 -49 -54 -49q-60 0 -75 4q-15 6 -15 20q0 13 25 60l737 1292q28 49 51 67q21 17 62 17h22q69 0 80 -86l178 -1290q4 -21 4 -45q0 -29 -20 -33q-17 -6 -66 -6q-18 0 -24 10q-5 9 -10 39l-64 436h-586zM375 588h518q-63 458 -96 751
q-144 -268 -422 -751z" />
    <glyph glyph-name="B" unicode="B" horiz-adv-x="1267" 
d="M506 0h-193q-157 0 -157 121q0 42 10 86l225 1053q22 103 67 145q44 41 150 41h168q54 0 207 -12q129 -15 192 -86q64 -71 64 -181q0 -340 -278 -413q196 -46 196 -252q0 -159 -67 -281q-67 -123 -211 -178q-116 -43 -373 -43zM393 700l-102 -483q-6 -44 -6 -47
q0 -61 63 -61h189q213 0 294 34q97 41 147 136t50 210q0 129 -96 179q-65 32 -227 32h-312zM418 807h307q160 0 217 24q170 77 170 297q0 146 -117 189q-66 22 -219 22h-176q-39 0 -57 -18t-29 -64z" />
    <glyph glyph-name="C" unicode="C" horiz-adv-x="1191" 
d="M285 453q0 -371 360 -371q162 0 305 35q60 16 76 16q23 0 29 -22q8 -40 8 -50q0 -20 -51 -36q-173 -52 -394 -52q-462 0 -462 469q0 237 78 492q80 260 229 393q167 146 467 146q167 0 289 -25q43 -10 43 -39q0 -22 -17 -61q-8 -17 -26 -17q-17 0 -74 12q-107 21 -250 21
q-221 0 -358 -131q-121 -113 -186 -343q-66 -232 -66 -437z" />
    <glyph glyph-name="D" unicode="D" horiz-adv-x="1402" 
d="M461 0h-148q-157 0 -157 121q0 42 10 86l225 1053q21 104 65 145t148 41h135q211 0 346 -45q126 -45 196 -161q69 -116 69 -279q0 -143 -26 -279q-26 -134 -81 -261q-56 -128 -160 -225q-106 -98 -245 -147q-140 -49 -377 -49zM291 221q-6 -44 -6 -49q0 -61 63 -61h141
q196 0 334 53q204 79 301 298q97 220 97 486q0 248 -162 330q-107 57 -332 57h-127q-69 0 -86 -80z" />
    <glyph glyph-name="E" unicode="E" horiz-adv-x="1107" 
d="M924 0h-611q-157 0 -157 121q0 42 10 86l225 1053q21 104 66 145q46 41 151 41h557q37 0 37 -27q0 -8 -10 -57q-6 -27 -45 -27h-547q-69 0 -86 -80l-96 -446h571q31 0 31 -25q0 -18 -10 -57q-4 -27 -43 -27h-574l-102 -479q-6 -37 -6 -49q0 -61 63 -61h598q33 0 33 -27
q0 -16 -10 -57q-6 -27 -45 -27z" />
    <glyph glyph-name="F" unicode="F" horiz-adv-x="1052" 
d="M252 33q-6 -39 -43 -39h-51q-31 0 -31 26q0 13 6 37l258 1203q22 104 68 145t149 41h529q34 0 34 -25q0 -26 -10 -59q-7 -27 -45 -27h-516q-69 0 -86 -80l-98 -452h536q35 0 35 -27q0 -14 -10 -57q-5 -25 -43 -25h-541z" />
    <glyph glyph-name="G" unicode="G" horiz-adv-x="1325" 
d="M1128 150q-11 -49 -26 -70q-16 -19 -64 -41q-153 -66 -409 -66q-225 0 -349 111t-124 340q0 226 67 472q67 245 199 386q95 103 214 146q124 45 316 45q172 0 303 -33q39 -10 39 -39q0 -23 -14 -55q-8 -21 -31 -21q-6 0 -63 12q-121 27 -295 27q-244 0 -389 -166
q-103 -120 -160 -338q-57 -219 -57 -411q0 -165 85 -266t279 -101q179 0 299 37q29 7 45 23q15 15 23 51l96 452h-342q-33 0 -33 21q0 1 13 63q8 27 41 27h419q37 0 37 -31q0 -15 -6 -39z" />
    <glyph glyph-name="H" unicode="H" horiz-adv-x="1419" 
d="M252 33q-6 -39 -43 -39h-51q-31 0 -31 26q0 7 1 11t3 14t2 12l291 1356q6 41 43 41h51q31 0 31 -27q0 -1 -6 -38l-125 -580h737l129 604q6 41 43 41h49q33 0 33 -27q0 -1 -6 -38l-291 -1356q-6 -39 -43 -39h-51q-31 0 -31 26q0 7 1 11t3 14t2 12l137 641h-737z" />
    <glyph glyph-name="I" unicode="I" horiz-adv-x="561" 
d="M252 33q-6 -39 -43 -39h-51q-31 0 -31 26q0 7 1 11t3 14t2 12l291 1356q6 41 43 41h51q31 0 31 -27q0 -1 -6 -38z" />
    <glyph glyph-name="J" unicode="J" horiz-adv-x="569" 
d="M551 1389l-277 -1299q-40 -190 -151 -274q-55 -42 -158 -79q-101 -36 -143 -36q-23 0 -29 23q-8 30 -8 45q0 30 47 41q131 30 197 73q93 57 123 205l280 1325q11 41 45 41h49q33 0 33 -27q0 -12 -8 -38z" />
    <glyph glyph-name="K" unicode="K" horiz-adv-x="1204" 
d="M252 33q-6 -39 -43 -39h-51q-31 0 -31 26q0 7 1 11t3 14t2 12l291 1356q6 41 43 41h51q31 0 31 -27q0 -1 -6 -38l-125 -582h155q64 0 97 35l504 579q29 31 61 31q50 0 70 -2q20 -4 20 -25q0 -6 -31 -45q-477 -543 -565 -637q72 -124 358 -671q15 -28 15 -45
q0 -22 -23 -27q-24 -4 -65 -4q-30 0 -47 31l-328 635q-20 36 -74 36h-172z" />
    <glyph glyph-name="L" unicode="L" horiz-adv-x="1077" 
d="M901 0h-588q-157 0 -157 121q0 42 10 86l258 1206q8 41 45 41h49q31 0 31 -27q0 -1 -6 -38l-252 -1168q-6 -37 -6 -49q0 -61 63 -61h574q32 0 32 -27q0 -16 -10 -57q-6 -27 -43 -27z" />
    <glyph glyph-name="M" unicode="M" horiz-adv-x="1652" 
d="M250 35q-8 -41 -41 -41h-49q-33 0 -33 26q0 10 4 29l279 1292q12 59 36 86t74 27h27q45 0 58 -19q13 -18 28 -83q153 -683 194 -895q88 148 572 893q21 35 36 55q14 19 38 34t55 15h33q77 0 77 -61q0 -15 -10 -68l-276 -1290q-11 -41 -45 -41h-45q-31 0 -31 26q0 2 6 39
q209 975 281 1280l-627 -962q-44 -62 -84 -62h-14q-45 0 -60 62q-171 743 -211 962q-93 -468 -272 -1304z" />
    <glyph glyph-name="N" unicode="N" horiz-adv-x="1437" 
d="M250 35q-8 -41 -43 -41h-47q-33 0 -33 29q0 5 4 26l281 1309q21 96 100 96h33q35 0 48 -14t28 -58q310 -893 415 -1245q26 127 271 1274q7 43 45 43h43q32 0 32 -27q0 -8 -6 -38l-280 -1317q-18 -82 -84 -82h-29q-37 0 -52 15t-30 56q-404 1187 -426 1260z" />
    <glyph glyph-name="O" unicode="O" horiz-adv-x="1392" 
d="M1341 1057q0 -216 -67 -488t-189 -417q-85 -99 -189 -138q-109 -41 -261 -41q-235 0 -357 95t-122 340q0 224 73 494t209 415q147 156 422 156q116 0 201 -16q81 -15 147 -58q69 -44 101 -128q32 -83 32 -214zM1214 1040q0 192 -80 257q-82 67 -286 67q-218 0 -330 -127
q-108 -121 -171 -369q-62 -244 -62 -446q0 -193 84 -265q85 -73 284 -73q120 0 201 32t143 115q98 126 158 379q59 248 59 430z" />
    <glyph glyph-name="P" unicode="P" horiz-adv-x="1239" 
d="M252 33q-6 -39 -43 -39h-51q-31 0 -31 29q0 15 4 26l260 1219q21 91 65 135q43 43 144 43h160q229 0 336 -49q73 -34 111 -109q38 -74 38 -162q0 -180 -87 -303t-261 -168q-103 -28 -291 -28h-227zM401 733h236q183 0 272 37q100 39 153 131q52 91 52 211q0 133 -92 186
q-68 39 -274 39h-144q-41 0 -61 -19t-31 -67z" />
    <glyph glyph-name="Q" unicode="Q" horiz-adv-x="1392" 
d="M1341 1057q0 -216 -67 -488t-189 -417q-41 -48 -73 -72l338 -219q20 -14 20 -29q0 -13 -35 -63q-13 -19 -24 -19q-12 0 -37 17l-381 245q-108 -39 -258 -39q-235 0 -357 95t-122 340q0 224 73 494t209 415q147 156 422 156q116 0 201 -16q81 -15 147 -58q69 -44 101 -128
q32 -83 32 -214zM1214 1040q0 192 -80 257q-82 67 -286 67q-218 0 -330 -127q-108 -121 -171 -369q-62 -244 -62 -446q0 -193 84 -265q85 -73 284 -73q120 0 201 32t143 115q98 126 158 379q59 248 59 430z" />
    <glyph glyph-name="R" unicode="R" horiz-adv-x="1241" 
d="M252 35q-6 -41 -43 -41h-49q-33 0 -33 29q0 7 4 26l262 1217q21 98 65 139t144 41h133q255 0 348 -43q142 -62 142 -254q0 -177 -81 -305q-80 -126 -253 -170l-33 -8l209 -598q10 -33 10 -41q0 -21 -24 -29q-13 -4 -64 -4q-30 0 -45 41l-207 616q-67 -6 -145 -6h-209z
M406 752h196q210 0 311 43q181 72 181 338q0 127 -90 172q-64 32 -283 32h-113q-47 0 -66 -19t-30 -67z" />
    <glyph glyph-name="S" unicode="S" horiz-adv-x="1122" 
d="M737 739q271 -99 271 -327q0 -439 -529 -439q-218 0 -377 72q-32 15 -32 35q0 22 20 61q12 25 39 25q17 0 49 -16q139 -64 314 -64q185 0 286 68t101 233q0 51 -12 86q-12 36 -64 83q-50 46 -156 91l-168 72q-225 96 -225 328q0 426 516 426q158 0 307 -46q29 -8 29 -34
q0 -28 -14 -60q-10 -22 -33 -22q-22 0 -51 10q-135 41 -269 41q-356 0 -356 -299q0 -88 44 -150q43 -60 167 -112z" />
    <glyph glyph-name="T" unicode="T" horiz-adv-x="1134" 
d="M535 35q-11 -41 -41 -41h-54q-30 0 -30 26q0 14 4 29l276 1286h-416q-30 0 -30 25q0 13 8 55q5 31 45 31h948q35 0 35 -21q0 -16 -8 -59q-8 -31 -45 -31h-414z" />
    <glyph glyph-name="U" unicode="U" horiz-adv-x="1386" 
d="M1374 1401l-178 -821q-33 -152 -40 -180q-14 -59 -40 -127q-28 -72 -59 -115q-73 -98 -185 -142q-110 -43 -290 -43q-108 0 -194 25q-82 24 -144 98t-62 193q0 103 39 286l178 838q7 39 47 39h48q30 0 30 -31q0 -4 -1 -8q-2 -8 -3 -13q-2 -10 -2 -11l-184 -865
q-27 -121 -27 -202q0 -238 295 -238q249 0 348 127q68 91 113 301l192 901q7 39 41 39h54q28 0 28 -25q0 -7 -4 -26z" />
    <glyph glyph-name="V" unicode="V" horiz-adv-x="1150" 
d="M502 117l706 1286q28 49 58 49q47 0 71 -6q15 -4 15 -25q0 -3 -25 -55l-729 -1298q-41 -74 -100 -74h-31q-67 0 -78 78l-164 1294q-4 25 -4 45q0 27 25 35q21 6 67 6q19 0 25 -10q5 -9 10 -39q134 -1075 154 -1286z" />
    <glyph glyph-name="W" unicode="W" horiz-adv-x="1873" 
d="M1094 1262q-109 -231 -615 -1205q-29 -63 -96 -63h-33q-65 0 -65 63q-24 911 -29 1311q0 37 2 53q6 26 27 27q25 4 63 4q33 0 33 -39q18 -979 18 -1286q95 203 615 1200q35 68 86 68h30q62 0 68 -68q86 -1016 96 -1202l566 1280q23 47 49 47q46 0 67 -4q19 -2 19 -25
q0 -13 -23 -59l-592 -1305q-30 -65 -92 -65h-31q-67 0 -71 65q-79 978 -92 1203z" />
    <glyph glyph-name="X" unicode="X" horiz-adv-x="1261" 
d="M117 35q-37 -39 -72 -39q-53 0 -63 6q-15 8 -15 25t37 57l610 672l-305 604q-18 38 -18 55q0 25 26 31q25 4 54 4t47 -33l289 -588l518 586q34 37 65 37q45 0 66 -6q12 -6 12 -23q0 -16 -29 -51l-569 -641l334 -651q20 -36 20 -51q0 -20 -16 -27q-18 -6 -64 -6
q-33 0 -57 47q-302 599 -311 616z" />
    <glyph glyph-name="Y" unicode="Y" horiz-adv-x="1087" 
d="M514 37q-7 -43 -45 -43h-49q-31 0 -31 26q0 8 4 24t4 19l121 574l-295 727q-18 40 -18 55q0 19 20 29q12 6 70 6q26 0 41 -39q202 -494 260 -665q128 173 530 655q40 49 74 49q43 0 62 -4q18 -2 18 -20q0 -19 -31 -58l-608 -733z" />
    <glyph glyph-name="Z" unicode="Z" horiz-adv-x="1181" 
d="M1022 0h-975q-74 0 -74 57q0 50 37 88l1090 1190h-795q-37 0 -37 27q0 18 6 47q7 37 52 37h862q69 0 69 -57q0 -48 -34 -86l-1096 -1192h909q39 0 39 -27q0 -24 -10 -55q-6 -29 -43 -29z" />
    <glyph glyph-name="bracketleft" unicode="[" horiz-adv-x="563" 
d="M344 -287h-297q-20 0 -20 23q0 16 4 31l362 1708q7 28 33 28h301q21 0 21 -18q0 -5 -9 -41q-1 -21 -30 -21h-217l-345 -1626h218q20 0 20 -18q0 -19 -6 -43q-8 -23 -35 -23z" />
    <glyph glyph-name="backslash" unicode="\" horiz-adv-x="911" 
d="M784 -141q7 -28 7 -35q0 -19 -21 -25q-7 -4 -43 -4q-31 0 -39 33l-432 1630q-10 43 -10 51q0 21 24 27q16 2 41 2q18 0 25 -10q8 -12 14 -37z" />
    <glyph glyph-name="bracketright" unicode="]" horiz-adv-x="563" 
d="M295 1503h297q20 0 20 -20q0 -7 -6 -37l-360 -1704q-8 -29 -33 -29h-301q-21 0 -21 19q0 9 9 43q6 20 28 20h219l345 1626h-218q-20 0 -20 19q0 14 6 43q6 20 35 20z" />
    <glyph glyph-name="asciicircum" unicode="^" horiz-adv-x="1443" 
d="M1206 633q6 -18 6 -29q0 -29 -30 -29h-47q-29 0 -35 31l-166 658l-465 -664q-16 -25 -39 -25h-55q-27 0 -27 25q0 12 8 23l516 733q17 26 48 26h61q35 0 41 -30z" />
    <glyph glyph-name="underscore" unicode="_" horiz-adv-x="1009" 
d="M-88 -158h1008l-23 -94h-1008z" />
    <glyph glyph-name="grave" unicode="`" horiz-adv-x="403" 
d="M254 1210l-227 265q-17 17 -17 34q0 22 31 27q24 2 68 2q28 0 51 -29l200 -272q13 -23 13 -29q0 -16 -21 -18q-16 -2 -51 -2q-26 0 -47 22z" />
    <glyph glyph-name="a" unicode="a" horiz-adv-x="1067" 
d="M829 186q-16 -69 -36 -100q-23 -30 -66 -51q-135 -62 -346 -62q-159 0 -230 72q-71 73 -71 178q0 236 176 322q97 47 315 47q113 0 224 -14l18 81q18 82 18 146q0 123 -204 123q-127 0 -230 -25q-55 -16 -67 -16q-15 0 -21 20q-10 26 -10 45q0 25 39 37q141 45 299 45
q69 0 114 -7q46 -7 98 -26q50 -18 77 -59q26 -39 26 -102q0 -60 -24 -183zM778 485q-82 11 -215 11q-191 0 -268 -43q-100 -60 -100 -207q0 -172 213 -172q138 0 233 37q32 11 53 39q17 23 27 73z" />
    <glyph glyph-name="b" unicode="b" horiz-adv-x="1114" 
d="M121 178l280 1317q6 37 39 37h47q31 0 31 -27q0 -8 -2 -22l-117 -545q122 98 353 98q280 0 280 -299q0 -145 -40 -312q-40 -168 -120 -275q-72 -99 -175 -138t-263 -39q-154 0 -256 39q-65 22 -65 90q0 33 8 76zM240 190q-4 -19 -4 -45q0 -37 45 -49q84 -22 165 -22
q236 0 332 133q62 85 98 235q35 147 35 275q0 106 -49 159q-50 54 -168 54q-90 0 -182 -27q-93 -27 -125 -67q-12 -16 -18 -50z" />
    <glyph glyph-name="c" unicode="c" horiz-adv-x="923" 
d="M219 336q0 -260 252 -260q91 0 213 28q4 1 14 4t15 4q20 5 24 5q19 0 25 -21q8 -30 8 -49q0 -23 -39 -35q-123 -39 -287 -39q-162 0 -255 87t-93 255q0 153 50 314q49 159 149 266q127 139 375 139q136 0 221 -24q29 -11 29 -35q0 -12 -15 -55q-6 -19 -28 -19
q-12 0 -56 10q-78 19 -178 19q-170 0 -278 -117q-74 -80 -110 -212t-36 -265z" />
    <glyph glyph-name="d" unicode="d" horiz-adv-x="1124" 
d="M879 164q-10 -48 -29 -78q-18 -32 -74 -55q-130 -58 -325 -58q-168 0 -262 89q-93 88 -93 251q0 164 58 333q57 166 172 269q134 119 379 119q152 0 235 -37l104 498q6 37 39 37h50q28 0 28 -27q0 -6 -2 -22zM774 219l129 604q4 15 4 37q0 27 -24 39q-77 33 -201 33
q-177 0 -272 -82q-94 -82 -143 -219q-50 -141 -50 -301q0 -256 256 -256q134 0 227 37q38 17 50 39q9 12 24 69z" />
    <glyph glyph-name="e" unicode="e" horiz-adv-x="1017" 
d="M227 477q-10 -76 -10 -147q0 -137 71 -196q70 -58 212 -58q100 0 237 35q37 12 54 12q16 0 22 -17q12 -33 12 -47q0 -21 -41 -36q-142 -50 -313 -50q-186 0 -281 89q-94 88 -94 255q0 371 199 578q133 139 371 139q164 0 232 -68q69 -69 69 -196q0 -96 -25 -223
q-11 -48 -29 -60q-10 -10 -43 -10h-643zM248 573h581q25 86 25 189q0 86 -48 129q-47 43 -165 43q-171 0 -272 -111q-77 -83 -121 -250z" />
    <glyph glyph-name="f" unicode="f" horiz-adv-x="641" 
d="M264 33q-8 -39 -45 -39h-43q-29 0 -29 29q0 10 5 28l180 852h-131q-29 0 -29 23q0 10 10 49q8 31 41 31h131l31 139q45 212 133 285q130 108 356 108q44 0 44 -31q0 -7 -3 -43q-5 -30 -36 -30q-225 -8 -304 -103q-49 -59 -77 -198l-27 -127h240q28 0 28 -25
q0 -20 -10 -53q-8 -25 -41 -25h-239z" />
    <glyph glyph-name="g" unicode="g" horiz-adv-x="1112" 
d="M731 37q-112 -62 -297 -62q-160 0 -249 92t-89 261q0 145 54 309q53 160 153 260q137 137 399 137q175 0 293 -41q45 -15 45 -49l-8 -53l-180 -862q-35 -161 -90 -265q-130 -243 -633 -243q-43 0 -43 28q0 29 4 48q10 28 41 28q238 1 352 43q112 41 164 123q51 78 74 197
zM772 205l133 637q4 19 4 26q0 26 -30 37q-80 27 -203 27q-197 0 -299 -113q-73 -79 -116 -209q-44 -132 -44 -270q0 -266 252 -266q128 0 231 41q38 17 56 41q10 20 16 49z" />
    <glyph glyph-name="h" unicode="h" horiz-adv-x="1159" 
d="M209 33q-11 -39 -43 -39h-45q-31 0 -31 26q0 5 6 35l305 1440q6 37 39 37h47q31 0 31 -27q0 -4 -2 -20l-117 -547q117 98 377 98q108 0 183 -39t75 -131q0 -84 -20 -168l-142 -665q-6 -39 -43 -39h-43q-30 0 -30 26q0 16 4 37l135 625q16 71 16 137q0 113 -182 113
q-189 0 -295 -62q-34 -19 -41 -28q-20 -20 -31 -72z" />
    <glyph glyph-name="i" unicode="i" horiz-adv-x="481" 
d="M207 33q-6 -39 -43 -39h-43q-31 0 -31 29q0 13 4 28l199 924q7 37 43 37h43q31 0 31 -27q0 -3 -7 -31zM504 1382q0 -60 -33 -90q-20 -20 -61 -20q-74 0 -74 61t31 90q23 23 65 23q72 0 72 -64z" />
    <glyph glyph-name="j" unicode="j" horiz-adv-x="479" 
d="M174 -117q-38 -185 -131 -262q-52 -43 -146 -72q-91 -28 -145 -28q-32 0 -33 24q-4 21 -4 43q0 29 45 35q129 21 197 70q72 46 102 188l234 1094q7 37 43 37h43q31 0 31 -27q0 -3 -7 -31zM504 1382q0 -60 -33 -90q-20 -20 -61 -20q-74 0 -74 61q0 56 31 90q29 23 65 23
q72 0 72 -64z" />
    <glyph glyph-name="k" unicode="k" horiz-adv-x="1011" 
d="M209 33q-11 -39 -43 -39h-45q-31 0 -31 26q0 5 6 35l309 1442q6 35 39 35h50q26 0 26 -27q0 -4 -2 -20l-186 -869h139q63 0 96 35l324 332q29 29 59 29q53 0 66 -4q16 -1 16 -21q0 -15 -28 -47l-390 -385l265 -485q18 -33 18 -45q0 -18 -20 -25q-17 -6 -62 -6
q-28 0 -45 31l-242 452q-21 37 -69 37h-148z" />
    <glyph glyph-name="l" unicode="l" horiz-adv-x="512" 
d="M512 1483l-260 -1227q-10 -49 -10 -80q0 -76 110 -86q27 -2 27 -29q0 -29 -10 -49q-7 -18 -41 -18q-84 0 -144 36q-59 35 -59 115q0 43 12 109l262 1241q6 37 39 37h47q31 0 31 -27l-2 -10q0 -3 -1 -5t-1 -7z" />
    <glyph glyph-name="m" unicode="m" horiz-adv-x="1755" 
d="M209 33q-6 -39 -43 -39h-43q-33 0 -33 26q0 11 6 35l166 774q21 90 86 119q175 86 408 86q182 0 231 -100q140 100 397 100q112 0 185 -40t73 -132q0 -74 -20 -170l-139 -659q-6 -39 -43 -39h-43q-33 0 -33 26q0 7 6 37l135 623q19 89 19 133q0 117 -183 117
q-139 0 -266 -58q-33 -16 -47 -32q-16 -20 -22 -60q-4 -32 -19 -96l-139 -651q-6 -39 -41 -39h-45q-31 0 -31 26q0 7 6 37l135 623q17 76 17 129q0 66 -44 93q-45 28 -132 28q-142 0 -275 -58q-35 -17 -45 -30q-15 -19 -26 -64z" />
    <glyph glyph-name="n" unicode="n" horiz-adv-x="1146" 
d="M209 33q-6 -39 -43 -39h-43q-33 0 -33 26q0 11 6 35l166 774q21 90 86 119q175 86 426 86q108 0 184 -40t76 -132q0 -78 -26 -192l-136 -637q-6 -39 -41 -39h-45q-30 0 -30 26q0 7 6 37l135 623q16 76 16 133q0 117 -186 117q-156 0 -289 -58q-32 -17 -45 -30
q-15 -16 -26 -64z" />
    <glyph glyph-name="o" unicode="o" horiz-adv-x="1089" 
d="M1010 731q0 -125 -40 -303q-41 -182 -112 -287q-114 -168 -385 -168q-181 0 -279 69t-98 257q0 142 46 319q47 181 134 281q118 135 359 135q89 0 148 -9q58 -9 115 -39t84 -93q28 -65 28 -162zM891 713q0 131 -68 175t-205 44q-174 0 -258 -105q-68 -83 -105 -247
q-38 -169 -38 -273q0 -133 63 -182q62 -49 203 -49q211 0 291 137q51 88 84 248q33 159 33 252z" />
    <glyph glyph-name="p" unicode="p" horiz-adv-x="1116" 
d="M109 -438q-11 -41 -46 -41h-40q-33 0 -33 24q0 7 6 37l262 1233q15 65 31 86q21 33 76 57q168 76 383 76q153 0 219 -75q65 -74 65 -232q0 -126 -35 -284q-35 -157 -106 -267q-75 -116 -180 -159q-108 -44 -273 -44q-154 0 -233 43zM240 186q-4 -13 -4 -39q0 -29 26 -43
q68 -30 191 -30q133 0 214 39t134 131q50 86 80 226q30 142 30 235q0 114 -45 168q-46 55 -168 55q-127 0 -247 -49q-50 -21 -62 -43q-13 -18 -24 -68z" />
    <glyph glyph-name="q" unicode="q" horiz-adv-x="1124" 
d="M739 57q-123 -84 -303 -84q-161 0 -251 93q-89 92 -89 247q0 181 70 362q68 177 207 273q128 86 346 86q151 0 248 -41q65 -28 65 -73q0 -28 -10 -72l-270 -1284q-10 -43 -41 -43h-45q-33 0 -33 24q0 13 6 41zM772 217l127 596q6 38 6 49q0 26 -24 37q-77 33 -189 33
q-166 0 -256 -66q-106 -73 -163 -219q-56 -143 -56 -319q0 -116 62 -186q61 -68 180 -68q145 0 258 63q29 17 41 35q7 14 14 45z" />
    <glyph glyph-name="r" unicode="r" horiz-adv-x="712" 
d="M209 33q-6 -39 -43 -39h-45q-31 0 -31 26q0 7 6 37l164 762q18 79 66 119q50 39 144 69q91 29 192 29q68 0 102 -6q18 -6 18 -29q0 -29 -10 -55q-6 -22 -33 -22q-15 0 -34 1t-41 1q-154 0 -228 -45q-31 -19 -47 -39q-14 -22 -22 -66z" />
    <glyph glyph-name="s" unicode="s" horiz-adv-x="843" 
d="M541 522q190 -69 190 -223q0 -139 -92 -231q-95 -95 -326 -95q-172 0 -288 54q-23 11 -23 26q0 23 21 60q12 22 32 22q13 0 37 -12q96 -45 238 -45q174 0 231 61q51 57 51 137q0 53 -32 86q-34 35 -138 74l-129 47q-86 34 -131 92q-47 61 -47 134q0 161 109 247
q100 76 305 76q127 0 227 -28q31 -8 31 -31q0 -17 -12 -58q-7 -20 -31 -20q-18 0 -33 6q-124 29 -207 29q-149 0 -207 -47q-63 -49 -63 -156q0 -96 160 -158z" />
    <glyph glyph-name="t" unicode="t" horiz-adv-x="651" 
d="M438 903l-116 -536q-15 -66 -15 -125q0 -83 55 -117q45 -28 164 -39q35 -5 35 -31q0 -21 -8 -47q-10 -26 -47 -26q-143 1 -232 50q-88 48 -88 177q0 62 25 184l111 510h-119q-27 0 -27 21q0 18 8 53q6 29 43 29h115q5 33 59 241q11 41 39 41h43q27 0 27 -24q0 -15 -6 -39
l-45 -219h209q32 0 32 -25q0 -17 -8 -47q-6 -31 -45 -31h-209z" />
    <glyph glyph-name="u" unicode="u" horiz-adv-x="1146" 
d="M901 170q-21 -90 -86 -119q-169 -78 -414 -78q-121 0 -195 46q-75 47 -75 141q0 57 23 166l139 649q6 39 41 39h45q31 0 31 -27q0 -2 -7 -37l-135 -622q-16 -67 -16 -125q0 -127 194 -127q156 0 279 51q29 15 45 33q20 25 27 63l159 752q6 39 43 39h45q31 0 31 -27
q0 -5 -6 -35z" />
    <glyph glyph-name="v" unicode="v" horiz-adv-x="929" 
d="M379 115q101 184 502 856q24 43 53 43q36 0 63 -6q21 -2 21 -23q0 -15 -23 -53l-538 -879q-37 -59 -82 -59h-29q-34 0 -48 15q-13 14 -19 48l-156 875q-4 25 -4 41q0 29 26 35q24 6 58 6q31 0 37 -43q119 -710 139 -856z" />
    <glyph glyph-name="w" unicode="w" horiz-adv-x="1458" 
d="M811 834q-54 -114 -403 -777q-34 -63 -93 -63h-28q-58 0 -64 63l-67 873q-2 28 -2 43q0 29 28 35q50 6 60 6q14 0 20 -9q5 -8 10 -38q49 -621 58 -852q70 145 403 772q22 43 42 58q21 16 50 16h19q29 0 45 -14q14 -13 20 -56q63 -511 86 -778q89 203 404 848q16 32 24 41
q11 12 29 12q36 0 64 -6q18 -4 18 -23q0 -9 -25 -61l-424 -861q-35 -69 -90 -69h-30q-62 0 -68 63q-75 655 -86 777z" />
    <glyph glyph-name="x" unicode="x" horiz-adv-x="980" 
d="M500 436l-385 -405q-33 -35 -60 -35q-48 0 -63 4q-17 5 -17 23q0 16 35 51l432 448l-219 414q-16 28 -16 41q0 21 20 27q15 6 58 6q31 0 53 -43q58 -115 121 -234q57 -108 69 -135q66 76 351 375q34 37 61 37q48 0 61 -4q17 -5 17 -21q0 -15 -33 -53l-399 -418l239 -444
q15 -28 15 -43q0 -19 -21 -25q-30 -6 -63 -6q-21 0 -39 33z" />
    <glyph glyph-name="y" unicode="y" horiz-adv-x="1146" 
d="M758 49q-140 -76 -359 -76q-268 0 -268 191q0 64 23 162l139 651q7 37 43 37h43q31 0 31 -23q0 -20 -2 -28l-140 -639q-16 -74 -16 -127q0 -121 194 -121q164 0 283 51q29 15 45 37q14 21 25 69l157 742q6 39 43 39h45q31 0 31 -25q0 -12 -2 -20l-203 -949
q-37 -166 -82 -251q-135 -248 -647 -248q-41 0 -41 30q0 20 4 41q5 35 41 35q245 2 359 45q115 44 170 127q43 66 71 191z" />
    <glyph glyph-name="z" unicode="z" horiz-adv-x="948" 
d="M776 0h-715q-65 0 -65 55q0 47 63 113l725 733h-579q-31 0 -31 21q0 9 10 53q8 31 45 31h637q70 0 70 -54q0 -48 -55 -104l-740 -744h656q28 0 28 -26q0 -13 -10 -49q-8 -29 -39 -29z" />
    <glyph glyph-name="braceleft" unicode="{" horiz-adv-x="622" 
d="M227 610q63 -18 95 -55q32 -36 32 -115q0 -47 -16 -123l-66 -309q-14 -59 -14 -112q0 -47 25 -72q34 -36 149 -41q23 0 23 -23q0 -22 -6 -39q-7 -20 -33 -20q-155 0 -215 45q-60 44 -60 129q0 49 17 137l63 301q17 79 17 117q0 127 -132 148q-22 4 -22 22q0 15 6 33
q6 27 29 29q102 16 153 69q52 54 76 174l62 287q34 168 92 235q79 91 295 91q26 0 26 -25q0 -15 -6 -37q-7 -24 -33 -24q-147 0 -200 -68q-33 -48 -56 -160l-65 -295q-23 -103 -60 -164q-39 -64 -73 -86q-42 -27 -103 -49z" />
    <glyph glyph-name="bar" unicode="|" horiz-adv-x="438" 
d="M123 -266q-6 -39 -41 -39h-39q-27 0 -27 26q0 14 4 33l375 1757q6 39 41 39h37q31 0 31 -22q0 -5 -6 -35z" />
    <glyph glyph-name="braceright" unicode="}" horiz-adv-x="665" 
d="M477 606q-125 38 -125 172q0 42 17 121l63 311q17 88 17 111q0 45 -27 72q-33 36 -150 41q-22 0 -22 22q0 23 6 41q10 21 35 21q155 -4 215 -48q59 -40 59 -129q0 -41 -18 -137l-64 -301q-14 -62 -14 -117q0 -64 31 -100q30 -35 98 -47q23 -5 23 -21q0 -4 -1 -7
q-2 -5 -3 -12q-1 -5 -1 -15q-5 -25 -30 -29q-101 -17 -152 -71q-52 -55 -76 -173l-61 -286q-35 -167 -94 -234q-78 -90 -293 -90q-27 0 -27 23q0 17 6 38q6 23 31 23q148 0 201 70q33 44 57 157l64 297q33 145 86 204q52 58 149 93z" />
    <glyph glyph-name="asciitilde" unicode="~" horiz-adv-x="1435" 
d="M315 508q-16 -16 -30 -16q-16 0 -37 18q-17 15 -17 33q0 15 11 26q85 98 155 138q67 38 148 38q83 0 241 -96q112 -71 199 -71q60 0 108 29q49 30 109 106q18 22 33 22q14 0 29 -12q30 -24 30 -41q0 -11 -10 -27q-135 -184 -301 -184q-104 0 -238 82q-139 84 -208 84
q-101 0 -222 -129z" />
    <glyph glyph-name="exclamdown" unicode="&#xa1;" horiz-adv-x="575" 
d="M184 553q8 39 39 39h41q31 0 31 -29q0 -16 -4 -37q-169 -845 -185 -907q-7 -43 -47 -43h-53q-35 0 -35 35q0 7 213 942zM219 915q0 67 37 101q24 24 70 24q82 0 82 -71q0 -59 -37 -97q-23 -26 -72 -26q-80 0 -80 69z" />
    <glyph glyph-name="cent" unicode="&#xa2;" horiz-adv-x="1021" 
d="M582 -12l-35 -166q-7 -37 -41 -37h-33q-29 0 -29 22l4 29l33 154q-135 12 -213 97t-78 237q0 146 49 308q48 158 142 263q111 124 321 139l33 158q7 37 41 37h35q29 0 29 -21q0 -4 -6 -34l-29 -138q101 -2 174 -24q29 -11 29 -35q0 -23 -17 -57q-6 -19 -26 -19
q-23 0 -56 10q-78 21 -168 21q-176 0 -278 -117q-73 -84 -110 -212q-38 -132 -38 -259q0 -252 254 -252q86 0 207 29q45 12 51 12q15 0 21 -16q10 -36 10 -54q0 -23 -35 -34q-110 -35 -241 -41z" />
    <glyph glyph-name="sterling" unicode="&#xa3;" horiz-adv-x="1214" 
d="M1022 0h-872q-31 0 -31 20q0 18 12 62q6 29 41 29h125l102 477h-149q-31 0 -31 24q0 26 6 50q7 30 47 30h150l63 297q44 199 121 283q68 75 163 106q96 31 239 31q144 0 262 -31q33 -8 33 -32q0 -20 -17 -62q-8 -18 -35 -18q-11 0 -51 8q-126 26 -221 26q-102 0 -162 -18
q-59 -18 -106 -63q-71 -65 -105 -230l-63 -297h385q37 0 37 -24q0 -20 -9 -52q-7 -28 -43 -28h-393l-102 -477h624q31 0 31 -23q0 -38 -10 -65q-6 -23 -41 -23z" />
    <glyph glyph-name="currency" unicode="&#xa4;" horiz-adv-x="1105" 
d="M1016 256q-12 -12 -25 -12q-11 0 -26 12l-109 104q-104 -79 -242 -79q-139 0 -245 79l-101 -104q-14 -14 -26 -14q-15 0 -29 14l-16 16q-15 15 -15 27t15 27l106 108q-82 107 -82 246q0 135 82 242l-106 108q-15 15 -15 25q0 13 17 28l16 17q11 14 25 14q10 0 24 -14
l107 -107q102 84 243 84q145 0 240 -82l107 105q14 14 26 14q13 0 27 -14l16 -17q12 -12 12 -26q0 -13 -12 -25l-108 -108q84 -99 84 -244q0 -144 -84 -244l112 -110q10 -10 10 -25q0 -13 -12 -29zM907 680q0 130 -83 215q-82 84 -210 84q-124 0 -210 -84q-85 -84 -85 -213
q0 -132 84 -218q84 -85 211 -85q128 0 210 85q83 86 83 216z" />
    <glyph glyph-name="yen" unicode="&#xa5;" horiz-adv-x="1208" 
d="M586 33q-8 -39 -41 -39h-51q-31 0 -31 26q0 10 4 29l82 387h-309q-31 0 -31 21q0 14 6 35q7 28 43 28h309l19 88l-43 97h-244q-33 0 -33 20q0 5 6 35q7 28 43 28h189l-230 506q-14 28 -14 52q0 26 27 34q19 4 57 4q29 0 47 -38q225 -508 271 -629q80 102 536 620
q44 47 74 47q38 0 59 -4q21 -2 21 -22q0 -16 -33 -55l-455 -515h195q33 0 33 -22q0 -3 -5 -35q-7 -26 -38 -26h-258l-84 -97l-21 -88h318q32 0 32 -22q0 -17 -6 -35q-4 -27 -39 -27h-321z" />
    <glyph glyph-name="brokenbar" unicode="&#xa6;" horiz-adv-x="438" 
d="M367 881q-6 -39 -41 -39h-39q-27 0 -27 26q0 14 4 33l115 531q6 38 41 38h37q30 0 30 -22q0 -7 -6 -37zM178 2q-6 -39 -41 -39h-39q-26 0 -26 27q0 14 4 33l114 530q8 39 41 39h37q31 0 31 -25q0 -5 -6 -35z" />
    <glyph glyph-name="section" unicode="&#xa7;" horiz-adv-x="989" 
d="M682 225q84 -78 84 -196q0 -64 -20 -124q-19 -58 -63 -115q-42 -55 -131 -89q-87 -33 -208 -33q-188 0 -305 60q-37 21 -37 41q0 17 25 59q11 18 30 18q13 0 37 -12q114 -57 271 -57q135 0 205 63q71 63 71 178q0 65 -46 111q-50 50 -181 127l-72 43q-203 122 -203 276
q0 150 85 222q86 72 198 84q-38 24 -60 75q-22 50 -22 103q0 37 6 77q6 37 31 93q24 53 63 93q38 40 114 70q72 29 173 29q136 0 238 -35q34 -12 34 -36q0 -20 -16 -56q-10 -22 -29 -22q-2 0 -10 2l-15 5l-16 5q-92 29 -211 29q-127 0 -184 -66t-57 -166q0 -123 172 -217
l61 -35q139 -80 189 -142q53 -65 53 -148q0 -257 -254 -314zM813 504q0 63 -27 105t-94 85q-115 75 -162 99q-27 14 -57 14q-27 0 -59 -8q-156 -35 -156 -199q0 -104 121 -180q112 -73 196 -111q20 -10 37 -10q32 0 60 12q141 53 141 193z" />
    <glyph glyph-name="dieresis" unicode="&#xa8;" horiz-adv-x="403" 
d="M104 1382q0 -64 -32 -90q-20 -20 -62 -20q-71 0 -71 61q0 58 28 86q30 25 68 25q69 0 69 -62zM465 1382q0 -60 -33 -90q-20 -20 -61 -20q-72 0 -72 61q0 57 31 86q25 25 63 25q72 0 72 -62z" />
    <glyph glyph-name="copyright" unicode="&#xa9;" horiz-adv-x="1699" 
d="M1616 707q0 -319 -201 -527q-201 -209 -526 -209q-326 0 -527 209q-200 207 -200 527q0 318 200 527q201 210 525 210q333 0 531 -208t198 -529zM1540 707q0 291 -178 479t-475 188q-291 0 -469 -189q-178 -188 -178 -478q0 -289 178 -477q178 -189 471 -189
q295 0 473 188t178 478zM633 580q0 -236 221 -236q93 0 188 25q33 10 48 10q17 0 28 -23q8 -30 8 -41q-1 -19 -30 -30q-113 -39 -262 -39q-150 0 -233 83t-83 249q0 318 162 477q111 110 330 110q96 0 168 -12q30 -6 30 -33q0 -20 -12 -53q-4 -14 -25 -14q-7 0 -12 1
q-7 1 -20 3q-16 2 -19 2q-54 8 -129 8q-147 0 -229 -78q-68 -64 -98 -180q-31 -121 -31 -229z" />
    <glyph glyph-name="ordfeminine" unicode="&#xaa;" horiz-adv-x="694" 
d="M612 655q-8 -41 -24 -63q-16 -21 -45 -33q-87 -35 -224 -35q-192 0 -192 154q0 145 106 196q65 31 203 31q30 0 135 -6q21 96 21 123q0 65 -121 65q-83 0 -143 -12q-39 -10 -45 -10q-11 0 -15 16q-6 18 -6 37q0 18 27 29q91 27 194 27q94 0 151 -24q56 -24 56 -97
q0 -45 -14 -107zM557 829q-68 9 -125 9q-106 0 -158 -25q-57 -30 -57 -117q0 -94 125 -94q72 0 135 19q19 5 33 22q13 16 47 186z" />
    <glyph glyph-name="guillemotleft" unicode="&#xab;" horiz-adv-x="952" 
d="M221 545l189 -344q14 -25 14 -39q0 -17 -21 -23q-21 -4 -51 -4q-26 0 -53 45l-190 324q-13 23 -13 45q0 24 23 47l330 311q45 45 75 45q40 0 51 -4q19 -6 19 -24q0 -19 -27 -43zM598 545l188 -344q15 -27 15 -39q0 -17 -21 -23q-21 -4 -51 -4q-26 0 -53 45l-191 324
q-12 21 -12 45t23 47l329 311q45 45 76 45q40 0 51 -4q19 -6 19 -24q0 -19 -27 -43z" />
    <glyph glyph-name="logicalnot" unicode="&#xac;" horiz-adv-x="1435" 
d="M1190 100q-4 -28 -35 -28h-39q-29 0 -29 26l3 21l94 432h-928q-29 0 -29 29q0 21 6 45q6 32 35 32h1000q30 0 30 -28q0 -12 -4 -31z" />
    <glyph glyph-name="uni00AD" unicode="&#xad;" horiz-adv-x="669" 
d="M545 494h-395q-27 0 -27 22q0 14 10 55q8 31 41 31h389q31 0 31 -22q0 -5 -12 -62q-8 -24 -37 -24z" />
    <glyph glyph-name="registered" unicode="&#xae;" horiz-adv-x="1699" 
d="M1616 707q0 -319 -201 -527q-201 -209 -526 -209q-326 0 -527 209q-200 207 -200 527q0 318 200 527q201 210 525 210q333 0 531 -208t198 -529zM1540 707q0 289 -179 479q-178 188 -474 188q-291 0 -469 -189q-178 -188 -178 -478q0 -289 178 -477q178 -189 471 -189
q295 0 473 188t178 478zM635 297q-6 -31 -35 -31h-43q-29 0 -29 25q0 7 4 28l152 713q17 75 52 107t110 32h86q139 0 209 -32q96 -43 96 -172q0 -236 -219 -299l127 -336q8 -24 8 -33q0 -25 -29 -31q-21 -4 -47 -4q-27 0 -39 35l-127 352q-32 -2 -82 -2h-118zM729 741h131
q83 0 146 19q57 18 90 66q32 47 32 112q0 95 -65 123q-38 16 -137 16h-70q-58 0 -70 -59z" />
    <glyph glyph-name="macron" unicode="&#xaf;" horiz-adv-x="403" 
d="M424 1257h-467q-29 0 -29 25q0 10 11 57q8 31 43 31h462q31 0 31 -24q0 -21 -10 -60q-8 -29 -41 -29z" />
    <glyph glyph-name="degree" unicode="&#xb0;" horiz-adv-x="688" 
d="M778 1206q0 -140 -81 -226q-81 -85 -222 -85q-117 0 -190 68q-72 67 -72 190q0 139 84 222q85 83 223 83q122 0 190 -65t68 -187zM694 1198q0 92 -48 140t-136 48q-95 0 -152 -60t-57 -177q0 -88 50 -135t134 -47q96 0 152 59q57 60 57 172z" />
    <glyph glyph-name="plusminus" unicode="&#xb1;" horiz-adv-x="1435" 
d="M750 289q-8 -33 -35 -33h-39q-29 0 -29 29q0 9 4 28l90 414h-444q-31 0 -31 29q0 13 8 45q8 30 35 30h451l94 433q6 30 33 30h39q30 0 30 -28q0 -10 -4 -29l-88 -406h445q30 0 30 -28q0 -4 -1 -7l-2 -11q-1 -2 -1.5 -6.5t-0.5 -6.5q-2 -10 -3 -14q-6 -31 -35 -31h-452z
M1174 0h-1004q-29 0 -29 29q0 6 1 11q2 10 3 17q2 14 2 17q6 30 35 30h1006q29 0 29 -28q0 -5 -9 -45q-6 -31 -34 -31z" />
    <glyph glyph-name="twosuperior" unicode="&#xb2;" 
d="M731 860h-508q-45 0 -45 45q0 39 37 66q350 255 408 303q125 101 125 223q0 137 -173 137q-70 0 -139 -20q-40 -12 -47 -12q-12 0 -18 14q-11 28 -11 41q0 16 39 31q92 32 207 32q244 0 244 -209q0 -147 -137 -264q-167 -145 -402 -301h434q25 0 25 -18q0 -2 -6 -47
q-6 -21 -33 -21z" />
    <glyph glyph-name="threesuperior" unicode="&#xb3;" 
d="M631 1305q145 -12 145 -160q0 -142 -71 -213q-85 -88 -283 -88q-125 0 -189 26q-26 10 -26 25q0 17 14 49q6 12 23 12q4 0 43 -10q80 -16 145 -16q147 0 199 61q47 56 47 150q0 59 -44 88q-43 28 -163 28q-37 0 -37 33q0 53 51 53q130 0 189 48q53 45 53 133
q0 110 -154 110q-84 0 -147 -18q-30 -12 -43 -12q-12 0 -18 16q-9 29 -9 39q0 19 39 31q107 30 207 30q122 0 174 -47q51 -46 51 -133q0 -98 -48 -155q-47 -56 -148 -80z" />
    <glyph glyph-name="acute" unicode="&#xb4;" horiz-adv-x="403" 
d="M113 1208q-22 -22 -52 -22q-28 0 -43 6q-18 6 -18 22q0 17 16 33l242 262q29 31 64 31q39 0 63 -6q23 -6 23 -25q0 -15 -19 -34z" />
    <glyph glyph-name="mu" unicode="&#xb5;" horiz-adv-x="1222" 
d="M176 -379q-6 -39 -43 -39h-43q-33 0 -33 25q0 1 6 39l283 1329q6 39 41 39h45q31 0 31 -27q0 -9 -6 -39l-131 -614q-17 -71 -17 -131q0 -125 211 -125q155 0 260 49q30 15 45 33q20 25 27 63l160 752q6 39 43 39h45q30 0 30 -27q0 -7 -6 -37l-168 -782q-17 -86 -86 -119
q-161 -76 -370 -76q-173 0 -230 80z" />
    <glyph glyph-name="paragraph" unicode="&#xb6;" horiz-adv-x="1140" 
d="M494 -225q-7 -37 -39 -37h-25q-29 0 -29 22q0 4 5 27l151 707q-193 0 -283 93t-90 244q0 361 254 519q153 96 406 96h270q41 0 41 -33q0 -19 -6 -43l-340 -1595q-7 -37 -39 -37h-27q-26 0 -26 22q0 12 4 27l336 1569h-226z" />
    <glyph glyph-name="periodcentered" unicode="&#xb7;" horiz-adv-x="430" 
d="M324 578q0 -70 -39 -103q-22 -22 -68 -22q-82 0 -82 71q0 62 35 97q26 26 74 26q80 0 80 -69z" />
    <glyph glyph-name="cedilla" unicode="&#xb8;" horiz-adv-x="403" 
d="M219 -127q172 -1 172 -145q0 -213 -266 -213q-61 0 -90 8q-23 6 -23 26q0 16 6 37q8 23 31 23q12 0 45 -4q30 -2 51 -2q67 0 99 22t32 84q0 76 -100 76h-29q-32 0 -32 29q0 19 14 55l53 151h86z" />
    <glyph glyph-name="onesuperior" unicode="&#xb9;" 
d="M649 860h-336q-20 0 -20 19q0 13 8 45q6 24 31 24h125l143 654l-129 -48q-18 -6 -29 -6q-10 0 -16 13q-12 37 -12 43q0 17 22 24l164 62q36 14 59 14h9q41 0 41 -37l-2 -14q0 -3 -2 -11l-3 -12q0 -2 -0.5 -5t-1 -5t-0.5 -3.5v-2.5l-147 -666h115q22 0 22 -16
q0 -14 -8 -51q-6 -21 -33 -21z" />
    <glyph glyph-name="ordmasculine" unicode="&#xba;" horiz-adv-x="708" 
d="M723 985q0 -75 -26 -187q-26 -110 -70 -175q-73 -99 -246 -99q-119 0 -181 43q-63 43 -63 160q0 87 29 195q28 106 86 168q78 84 227 84q121 0 183 -36q61 -36 61 -153zM627 971q0 73 -38 97q-37 24 -120 24q-103 0 -150 -60q-38 -45 -61 -142q-22 -92 -22 -155
q0 -76 35 -102q36 -27 118 -27q123 0 168 76q28 49 49 143q21 95 21 146z" />
    <glyph glyph-name="guillemotright" unicode="&#xbb;" horiz-adv-x="952" 
d="M764 543l-189 342q-12 23 -12 41q0 16 19 22q21 4 51 4q26 0 53 -45l191 -325q12 -22 12 -45q0 -24 -23 -45l-329 -314q-46 -43 -76 -43q-38 0 -51 4q-19 6 -19 23q0 16 27 43zM387 543l-188 342q-13 24 -13 41q0 16 19 22q21 4 51 4q26 0 53 -45l191 -325q12 -21 12 -45
t-23 -45l-329 -314q-46 -43 -76 -43q-38 0 -51 4q-19 6 -19 23q0 16 27 43z" />
    <glyph glyph-name="onequarter" unicode="&#xbc;" horiz-adv-x="1724" 
d="M1364 23q-7 -27 -29 -27h-41q-22 0 -22 20q0 12 4 27l39 178h-342q-53 0 -53 45q0 32 26 70l363 479q25 31 43 31q36 0 55 -4q12 0 12 -15q0 -10 -16 -32l-371 -488h301l47 209q6 27 27 27h47q21 0 21 -21q0 -5 -5 -18l-43 -197h115q25 0 25 -18l-1 -5q-1 -5 -4 -17.5
t-6 -24.5q-4 -21 -30 -21h-117zM463 -33q-24 -33 -49 -33q-14 0 -35 3q-14 1 -14 16q0 16 18 43l922 1415q29 45 55 45q22 0 37 -4q14 -1 14 -16q0 -13 -22 -47zM575 541h-335q-21 0 -21 18q0 13 8 45q6 25 31 25h123l145 653l-131 -47q-15 -6 -26 -6t-17 12q-12 37 -12 43
q0 18 22 25l166 61q41 14 58 14h8q41 0 41 -36q0 -1 -2 -15q0 -3 -1.5 -10.5t-2.5 -11.5q-2 -16 -2 -17l-150 -665h117q22 0 22 -17q0 -20 -10 -51q-4 -20 -31 -20z" />
    <glyph glyph-name="onehalf" unicode="&#xbd;" horiz-adv-x="1724" 
d="M1470 0h-509q-46 0 -46 45q0 38 37 66q350 255 408 303q125 101 125 223q0 137 -172 137q-68 0 -137 -20q-44 -13 -48 -13q-14 0 -20 15q-8 29 -8 41q0 15 39 30q95 33 204 33q246 0 246 -209q0 -147 -137 -264q-167 -143 -403 -301h434q24 0 24 -18t-6 -48
q-6 -20 -31 -20zM436 -33q-24 -33 -49 -33q-14 0 -35 3q-14 1 -14 16q0 16 18 43l922 1415q28 45 55 45q22 0 37 -4q14 -1 14 -16q0 -13 -22 -47zM553 541h-336q-20 0 -20 18q0 13 8 45q6 25 31 25h122l146 653l-131 -47q-17 -6 -27 -6t-16 12q-13 41 -13 43q0 17 23 25
l166 61q41 14 57 14h8q41 0 41 -36q0 -1 -2 -15q0 -3 -1.5 -10.5t-2.5 -11.5q-2 -16 -2 -17l-149 -665h116q23 0 23 -17q0 -20 -10 -51q-4 -20 -31 -20z" />
    <glyph glyph-name="threequarters" unicode="&#xbe;" horiz-adv-x="1724" 
d="M547 -33q-24 -33 -49 -33q-14 0 -35 3q-14 1 -14 16q0 16 18 43l922 1415q29 45 55 45q22 0 37 -4q14 -1 14 -16q0 -13 -22 -47zM629 985q145 -12 145 -160q0 -141 -72 -213q-85 -88 -282 -88q-116 0 -189 27q-26 10 -26 24q0 18 14 50q6 12 23 12q4 0 43 -10
q85 -17 145 -17q148 0 199 62q47 56 47 149q0 59 -44 88t-163 29q-37 0 -37 33q0 53 51 53q127 0 189 47q53 45 53 133q0 111 -156 111q-86 0 -145 -19q-41 -12 -43 -12q-13 0 -19 16q-8 26 -8 37q0 19 39 31q99 33 205 33q124 0 176 -47q51 -46 51 -133q0 -98 -48 -155
t-148 -81zM1436 23q-8 -27 -29 -27h-41q-23 0 -23 20q0 9 5 27l38 178h-342q-53 0 -53 45q0 31 27 70l362 479q25 31 43 31q37 0 56 -4q12 0 12 -15q0 -10 -16 -32l-371 -488h301l47 209q6 27 27 27h47q20 0 20 -21q0 -7 -4 -18l-43 -197h115q24 0 24 -18q0 -4 -10 -47
q-6 -21 -31 -21h-116z" />
    <glyph glyph-name="questiondown" unicode="&#xbf;" horiz-adv-x="817" 
d="M479 592h43q25 0 25 -31q0 -29 -17 -108q-23 -112 -65 -169q-43 -58 -152 -120q-119 -66 -177 -138q-58 -71 -58 -190q0 -78 51 -126q52 -49 158 -50q123 0 235 31q24 6 33 6q19 0 25 -21q10 -36 10 -47q0 -21 -29 -32q-150 -48 -299 -48q-160 0 -237 74q-76 73 -76 182
q0 147 65 239q66 93 211 181q106 63 142 102q35 39 53 119q8 33 24 117q6 29 35 29zM451 915q0 70 36 103q26 22 70 22q82 0 82 -69q0 -62 -37 -99q-26 -26 -72 -26q-79 0 -79 69z" />
    <glyph glyph-name="Agrave" unicode="&#xc0;" horiz-adv-x="1179" 
d="M236 479l-246 -436q-27 -49 -53 -49q-61 0 -76 4q-15 6 -15 20q0 13 25 60l737 1292q28 49 51 67q21 17 62 17h22q69 0 80 -86l178 -1290q5 -27 5 -45q0 -29 -21 -33q-17 -6 -65 -6q-19 0 -25 10q-5 9 -10 39l-64 436h-585zM293 588h518q-63 458 -96 751
q-144 -268 -422 -751zM737 1581l-282 221q-23 18 -23 35q0 23 33 27q36 4 78 4q27 0 61 -29l248 -221q18 -16 18 -31q0 -20 -22 -24q-19 -4 -49 -4q-34 0 -62 22z" />
    <glyph glyph-name="Aacute" unicode="&#xc1;" horiz-adv-x="1179" 
d="M317 479l-245 -436q-27 -49 -54 -49q-60 0 -75 4q-15 6 -15 20q0 13 25 60l737 1292q28 49 51 67q21 17 62 17h22q69 0 80 -86l178 -1290q4 -21 4 -45q0 -29 -20 -33q-17 -6 -66 -6q-18 0 -24 10q-5 9 -10 39l-64 436h-586zM375 588h518q-63 458 -96 751
q-144 -268 -422 -751zM793 1563q-29 -21 -64 -21t-51 2q-25 2 -25 25q0 15 21 30l303 222q34 28 67 28q51 0 80 -4q33 -5 33 -26q0 -20 -22 -35z" />
    <glyph glyph-name="Acircumflex" unicode="&#xc2;" horiz-adv-x="1179" 
d="M317 479l-245 -436q-27 -49 -54 -49q-60 0 -75 4q-15 6 -15 20q0 13 25 60l737 1292q28 49 51 67q21 17 62 17h22q69 0 80 -86l178 -1290q4 -21 4 -45q0 -29 -20 -33q-17 -6 -66 -6q-18 0 -24 10q-5 9 -10 39l-64 436h-586zM375 588h518q-63 458 -96 751
q-144 -268 -422 -751zM580 1559q-33 0 -52 4q-18 6 -18 20q0 18 18 33l252 209q39 30 68 30h39q31 0 51 -26l180 -213q10 -10 10 -25q0 -19 -22 -26q-19 -4 -43 -4q-27 0 -53 26l-160 150l-209 -148q-43 -30 -61 -30z" />
    <glyph glyph-name="Atilde" unicode="&#xc3;" horiz-adv-x="1179" 
d="M236 479l-246 -436q-27 -49 -53 -49q-61 0 -76 4q-15 6 -15 20q0 13 25 60l737 1292q28 49 51 67q21 17 62 17h22q69 0 80 -86l178 -1290q5 -27 5 -45q0 -29 -21 -33q-17 -6 -65 -6q-19 0 -25 10q-5 9 -10 39l-64 436h-585zM293 588h518q-63 458 -96 751
q-144 -268 -422 -751zM481 1587q-22 0 -37 4q-16 6 -16 23q0 10 14 45q40 81 81 115t102 34q39 0 151 -61q86 -47 129 -47q53 0 96 82q18 37 41 37q26 0 41 -4q17 -6 17 -19q0 -14 -15 -51q-62 -160 -182 -160q-62 0 -160 55q-99 54 -131 54q-51 0 -88 -76q-19 -31 -43 -31z
" />
    <glyph glyph-name="Adieresis" unicode="&#xc4;" horiz-adv-x="1179" 
d="M317 479l-245 -436q-27 -49 -54 -49q-60 0 -75 4q-15 6 -15 20q0 13 25 60l737 1292q28 49 51 67q21 17 62 17h22q69 0 80 -86l178 -1290q4 -21 4 -45q0 -29 -20 -33q-17 -6 -66 -6q-18 0 -24 10q-5 9 -10 39l-64 436h-586zM375 588h518q-63 458 -96 751
q-144 -268 -422 -751zM731 1698q0 -59 -31 -88q-28 -23 -61 -23q-72 0 -72 64q0 59 29 86q24 24 66 24q69 0 69 -63zM1110 1698q0 -59 -31 -88q-23 -23 -61 -23q-72 0 -72 64q0 59 29 86q24 24 65 24q70 0 70 -63z" />
    <glyph glyph-name="Aring" unicode="&#xc5;" horiz-adv-x="1179" 
d="M317 479l-245 -436q-27 -49 -54 -49q-60 0 -75 4q-15 6 -15 20q0 13 25 60l737 1292q28 49 51 67q21 17 62 17h22q69 0 80 -86l178 -1290q4 -21 4 -45q0 -29 -20 -33q-17 -6 -66 -6q-18 0 -24 10q-5 9 -10 39l-64 436h-586zM375 588h518q-63 458 -96 751
q-144 -268 -422 -751zM1028 1712q0 -94 -55 -149q-56 -56 -150 -56q-77 0 -123 44q-45 43 -45 124q0 89 56 147q55 56 147 56q77 0 124 -44q46 -43 46 -122zM956 1710q0 50 -28 77q-30 28 -78 28q-52 0 -90 -36q-37 -36 -37 -98q0 -53 30 -83q29 -29 78 -29q57 0 91 36
q34 35 34 105z" />
    <glyph glyph-name="AE" unicode="&#xc6;" horiz-adv-x="1886" 
d="M92 39q-34 -43 -72 -43q-35 0 -65 2q-23 5 -23 25q0 15 31 51l1094 1255q61 70 100 93q41 24 105 24h686q32 0 32 -27q0 -16 -10 -57q-6 -27 -45 -27h-594l-114 -526h550q33 0 33 -25q0 -4 -10 -57q-4 -27 -45 -27h-551l-102 -477l-7 -51q0 -61 62 -61h577q33 0 33 -27
q0 -14 -8 -57q-7 -27 -45 -27h-594q-154 0 -154 121q0 37 11 86l61 289h-534zM582 606h469l155 721z" />
    <glyph glyph-name="Ccedilla" unicode="&#xc7;" horiz-adv-x="1191" 
d="M602 -131q176 -2 176 -152q0 -119 -69 -170t-203 -51q-56 0 -88 8q-27 6 -27 27q0 18 6 39q7 27 29 27q12 0 35 -5q21 -4 65 -4q66 0 102 25q34 24 34 86q0 78 -105 78h-29q-32 0 -32 30q0 17 14 58l39 112q-393 33 -393 465q0 237 78 492q80 260 229 393
q167 146 467 146q167 0 289 -25q43 -10 43 -39q0 -22 -17 -61q-8 -17 -26 -17q-17 0 -74 12q-107 21 -250 21q-221 0 -358 -131q-121 -113 -186 -343q-66 -232 -66 -437q0 -371 360 -371q162 0 305 35q60 16 76 16q23 0 29 -22q8 -40 8 -50q0 -20 -51 -36q-166 -48 -377 -52
z" />
    <glyph glyph-name="Egrave" unicode="&#xc8;" horiz-adv-x="1107" 
d="M924 0h-611q-157 0 -157 121q0 42 10 86l225 1053q21 104 66 145q46 41 151 41h557q37 0 37 -27q0 -8 -10 -57q-6 -27 -45 -27h-547q-69 0 -86 -80l-96 -446h571q31 0 31 -25q0 -18 -10 -57q-4 -27 -43 -27h-574l-102 -479q-6 -37 -6 -49q0 -61 63 -61h598q33 0 33 -27
q0 -16 -10 -57q-6 -27 -45 -27zM807 1581l-283 221q-22 18 -22 35q0 23 33 27q36 4 77 4q28 0 62 -29l248 -221q18 -16 18 -31q0 -20 -22 -24q-19 -4 -50 -4q-33 0 -61 22z" />
    <glyph glyph-name="Eacute" unicode="&#xc9;" horiz-adv-x="1107" 
d="M924 0h-611q-157 0 -157 121q0 42 10 86l225 1053q21 104 66 145q46 41 151 41h557q37 0 37 -27q0 -8 -10 -57q-6 -27 -45 -27h-547q-69 0 -86 -80l-96 -446h571q31 0 31 -25q0 -18 -10 -57q-4 -27 -43 -27h-574l-102 -479q-6 -37 -6 -49q0 -61 63 -61h598q33 0 33 -27
q0 -16 -10 -57q-6 -27 -45 -27zM846 1563q-28 -21 -64 -21q-35 0 -51 2q-24 2 -24 25q0 16 20 30l303 222q34 28 68 28q51 0 80 -4q32 -4 32 -26q0 -20 -22 -35z" />
    <glyph glyph-name="Ecircumflex" unicode="&#xca;" horiz-adv-x="1107" 
d="M924 0h-611q-157 0 -157 121q0 42 10 86l225 1053q21 104 66 145q46 41 151 41h557q37 0 37 -27q0 -8 -10 -57q-6 -27 -45 -27h-547q-69 0 -86 -80l-96 -446h571q31 0 31 -25q0 -18 -10 -57q-4 -27 -43 -27h-574l-102 -479q-6 -37 -6 -49q0 -61 63 -61h598q33 0 33 -27
q0 -16 -10 -57q-6 -27 -45 -27zM594 1559q-32 0 -51 4q-19 6 -19 20q0 17 19 33l252 209q39 30 67 30h39q31 0 51 -26l181 -213q10 -10 10 -25q0 -18 -23 -26q-19 -4 -43 -4q-27 0 -53 26l-160 150l-209 -148q-44 -30 -61 -30z" />
    <glyph glyph-name="Edieresis" unicode="&#xcb;" horiz-adv-x="1107" 
d="M924 0h-611q-157 0 -157 121q0 42 10 86l225 1053q21 104 66 145q46 41 151 41h557q37 0 37 -27q0 -8 -10 -57q-6 -27 -45 -27h-547q-69 0 -86 -80l-96 -446h571q31 0 31 -25q0 -18 -10 -57q-4 -27 -43 -27h-574l-102 -479q-6 -37 -6 -49q0 -61 63 -61h598q33 0 33 -27
q0 -16 -10 -57q-6 -27 -45 -27zM733 1698q0 -59 -31 -88q-28 -23 -61 -23q-72 0 -72 64q0 59 29 86q24 24 66 24q69 0 69 -63zM1112 1698q0 -59 -31 -88q-23 -23 -61 -23q-72 0 -72 64q0 59 29 86q24 24 65 24q70 0 70 -63z" />
    <glyph glyph-name="Igrave" unicode="&#xcc;" horiz-adv-x="561" 
d="M252 33q-6 -39 -43 -39h-51q-31 0 -31 26q0 7 1 11t3 14t2 12l291 1356q6 41 43 41h51q31 0 31 -27q0 -1 -6 -38zM522 1581l-282 221q-23 18 -23 35q0 23 33 27q36 4 78 4q27 0 61 -29l248 -221q18 -16 18 -31q0 -20 -22 -24q-19 -4 -49 -4q-34 0 -62 22z" />
    <glyph glyph-name="Iacute" unicode="&#xcd;" horiz-adv-x="561" 
d="M252 33q-6 -39 -43 -39h-51q-31 0 -31 26q0 7 1 11t3 14t2 12l291 1356q6 41 43 41h51q31 0 31 -27q0 -1 -6 -38zM483 1581q-27 -20 -63 -20q-35 0 -51 2q-25 2 -25 24q0 16 21 31l303 221q35 29 67 29q51 0 80 -4q33 -4 33 -27q0 -20 -23 -35z" />
    <glyph glyph-name="Icircumflex" unicode="&#xce;" horiz-adv-x="561" 
d="M252 33q-6 -39 -43 -39h-51q-31 0 -31 26q0 7 1 11t3 14t2 12l291 1356q6 41 43 41h51q31 0 31 -27q0 -1 -6 -38zM264 1559q-32 0 -51 4q-18 6 -18 20q0 18 18 33l252 209q39 30 67 30h39q32 0 52 -26l180 -213q10 -10 10 -25q0 -19 -22 -26q-19 -4 -43 -4q-28 0 -54 26
l-159 150l-209 -148q-44 -30 -62 -30z" />
    <glyph glyph-name="Idieresis" unicode="&#xcf;" horiz-adv-x="561" 
d="M252 33q-6 -39 -43 -39h-51q-31 0 -31 26q0 7 1 11t3 14t2 12l291 1356q6 41 43 41h51q31 0 31 -27q0 -1 -6 -38zM406 1698q0 -59 -31 -88q-28 -23 -62 -23q-71 0 -71 64q0 59 28 86q24 24 66 24q70 0 70 -63zM784 1698q0 -60 -30 -88q-23 -23 -62 -23q-71 0 -71 64
q0 59 28 86q24 24 66 24q69 0 69 -63z" />
    <glyph glyph-name="Eth" unicode="&#xd0;" horiz-adv-x="1402" 
d="M461 0h-148q-157 0 -157 121q0 42 10 86l104 493h-184q-33 0 -33 27q0 26 4 47q1 33 35 33h201l98 453q21 104 65 145t148 41h135q211 0 346 -45q126 -45 196 -161q69 -116 69 -279q0 -143 -26 -279q-26 -134 -81 -261q-56 -128 -160 -225q-106 -98 -245 -147
q-140 -49 -377 -49zM291 221q-6 -44 -6 -49q0 -61 63 -61h141q196 0 334 53q204 79 301 298q97 220 97 486q0 248 -162 330q-107 57 -332 57h-127q-69 0 -86 -80l-98 -448h338q32 0 32 -31q0 -26 -4 -47q-2 -29 -34 -29h-355z" />
    <glyph glyph-name="Ntilde" unicode="&#xd1;" horiz-adv-x="1437" 
d="M250 35q-8 -41 -43 -41h-47q-33 0 -33 29q0 5 4 26l281 1309q21 96 100 96h33q35 0 48 -14t28 -58q310 -893 415 -1245q26 127 271 1274q7 43 45 43h43q32 0 32 -27q0 -8 -6 -38l-280 -1317q-18 -82 -84 -82h-29q-37 0 -52 15t-30 56q-404 1187 -426 1260zM692 1587
q-22 0 -37 4q-16 6 -16 23q0 10 14 45q40 81 81 115t102 34q39 0 151 -61q86 -47 129 -47q53 0 96 82q18 37 41 37q26 0 41 -4q17 -6 17 -19q0 -14 -15 -51q-62 -160 -182 -160q-62 0 -160 55q-99 54 -131 54q-49 0 -88 -76q-19 -31 -43 -31z" />
    <glyph glyph-name="Ograve" unicode="&#xd2;" horiz-adv-x="1392" 
d="M1341 1057q0 -216 -67 -488t-189 -417q-85 -99 -189 -138q-109 -41 -261 -41q-235 0 -357 95t-122 340q0 224 73 494t209 415q147 156 422 156q116 0 201 -16q81 -15 147 -58q69 -44 101 -128q32 -83 32 -214zM1214 1040q0 192 -80 257q-82 67 -286 67q-218 0 -330 -127
q-108 -121 -171 -369q-62 -244 -62 -446q0 -193 84 -265q85 -73 284 -73q120 0 201 32t143 115q98 126 158 379q59 248 59 430zM901 1581l-283 221q-22 18 -22 35q0 23 33 27q36 4 78 4q27 0 61 -29l248 -221q18 -16 18 -31q0 -20 -22 -24q-19 -4 -49 -4q-34 0 -62 22z" />
    <glyph glyph-name="Oacute" unicode="&#xd3;" horiz-adv-x="1392" 
d="M1341 1057q0 -216 -67 -488t-189 -417q-85 -99 -189 -138q-109 -41 -261 -41q-235 0 -357 95t-122 340q0 224 73 494t209 415q147 156 422 156q116 0 201 -16q81 -15 147 -58q69 -44 101 -128q32 -83 32 -214zM1214 1040q0 192 -80 257q-82 67 -286 67q-218 0 -330 -127
q-108 -121 -171 -369q-62 -244 -62 -446q0 -193 84 -265q85 -73 284 -73q120 0 201 32t143 115q98 126 158 379q59 248 59 430zM893 1581q-27 -20 -64 -20q-35 0 -51 2q-24 1 -24 24q0 17 20 31l303 221q38 29 68 29q51 0 80 -4q32 -4 32 -27q0 -20 -22 -35z" />
    <glyph glyph-name="Ocircumflex" unicode="&#xd4;" horiz-adv-x="1392" 
d="M1341 1057q0 -216 -67 -488t-189 -417q-85 -99 -189 -138q-109 -41 -261 -41q-235 0 -357 95t-122 340q0 224 73 494t209 415q147 156 422 156q116 0 201 -16q81 -15 147 -58q69 -44 101 -128q32 -83 32 -214zM1214 1040q0 192 -80 257q-82 67 -286 67q-218 0 -330 -127
q-108 -121 -171 -369q-62 -244 -62 -446q0 -193 84 -265q85 -73 284 -73q120 0 201 32t143 115q98 126 158 379q59 248 59 430zM698 1559q-32 0 -51 4q-18 6 -18 20q0 18 18 33l252 209q39 30 68 30h39q31 0 51 -26l180 -213q10 -10 10 -25q0 -19 -22 -26q-19 -4 -43 -4
q-28 0 -54 26l-159 150l-209 -148q-44 -30 -62 -30z" />
    <glyph glyph-name="Otilde" unicode="&#xd5;" horiz-adv-x="1392" 
d="M1260 1057q0 -211 -68 -488q-67 -274 -188 -417q-85 -98 -190 -138q-109 -41 -261 -41q-235 0 -357 95t-122 340q0 224 73 494t209 415q147 156 422 156q116 0 201 -16q81 -15 147 -58q69 -44 101 -128q33 -85 33 -214zM1133 1040q0 191 -81 257q-82 67 -286 67
q-218 0 -330 -127q-108 -121 -171 -369q-62 -244 -62 -446q0 -193 84 -265q85 -73 284 -73q120 0 201 32t143 115q98 126 158 379q60 252 60 430zM571 1587q-21 0 -36 4q-17 6 -17 23q0 10 14 45q40 81 81 115t102 34q39 0 151 -61q86 -47 129 -47q54 0 97 82q18 37 41 37
q26 0 41 -4q16 -6 16 -19q0 -16 -14 -51q-62 -160 -183 -160q-61 0 -159 55q-99 54 -132 54q-51 0 -88 -76q-19 -31 -43 -31z" />
    <glyph glyph-name="Odieresis" unicode="&#xd6;" horiz-adv-x="1392" 
d="M1341 1057q0 -216 -67 -488t-189 -417q-85 -99 -189 -138q-109 -41 -261 -41q-235 0 -357 95t-122 340q0 224 73 494t209 415q147 156 422 156q116 0 201 -16q81 -15 147 -58q69 -44 101 -128q32 -83 32 -214zM1214 1040q0 192 -80 257q-82 67 -286 67q-218 0 -330 -127
q-108 -121 -171 -369q-62 -244 -62 -446q0 -193 84 -265q85 -73 284 -73q120 0 201 32t143 115q98 126 158 379q59 248 59 430zM842 1698q0 -59 -31 -88q-28 -23 -61 -23q-72 0 -72 64q0 59 29 86q24 24 65 24q70 0 70 -63zM1221 1698q0 -59 -31 -88q-23 -23 -62 -23
q-71 0 -71 64q0 59 28 86q24 24 66 24q70 0 70 -63z" />
    <glyph glyph-name="multiply" unicode="&#xd7;" horiz-adv-x="1435" 
d="M1161 274q10 -7 10 -24q0 -13 -12 -25l-31 -30q-13 -11 -26 -11q-12 0 -23 11l-305 331l-366 -333q-16 -11 -23 -11q-12 0 -25 13l-22 24q-12 15 -12 25t16 26l367 338l-308 336q-10 10 -10 23q0 11 17 28l28 25q10 10 25 10q12 0 22 -10l305 -336l375 336q12 12 23 12
q14 0 24 -12l25 -27q10 -16 10 -20q0 -15 -12 -27l-383 -340z" />
    <glyph glyph-name="Oslash" unicode="&#xd8;" horiz-adv-x="1392" 
d="M172 -12q-12 -17 -31 -17q-17 0 -45 27q-14 11 -14 25q0 7 12 24l105 125q-43 89 -43 236q0 224 73 494t209 415q147 156 422 156q255 0 359 -82l84 100q15 16 26 16q12 0 23 -8q39 -34 39 -41q0 -13 -11 -26l-96 -115q57 -96 57 -260q0 -216 -67 -488t-189 -417
q-85 -99 -189 -138q-109 -41 -261 -41q-270 0 -379 115zM653 84q120 0 201 32t143 115q98 126 158 379q59 248 59 430q0 100 -22 166l-852 -1018q73 -104 313 -104zM285 422q0 -73 12 -133l840 1003q-78 72 -289 72q-218 0 -330 -127q-108 -121 -171 -369q-62 -244 -62 -446
z" />
    <glyph glyph-name="Ugrave" unicode="&#xd9;" horiz-adv-x="1386" 
d="M1374 1401l-178 -821q-33 -152 -40 -180q-14 -59 -40 -127q-28 -72 -59 -115q-73 -98 -185 -142q-110 -43 -290 -43q-108 0 -194 25q-82 24 -144 98t-62 193q0 103 39 286l178 838q7 39 47 39h48q30 0 30 -31q0 -4 -1 -8q-2 -8 -3 -13q-2 -10 -2 -11l-184 -865
q-27 -121 -27 -202q0 -238 295 -238q249 0 348 127q68 91 113 301l192 901q7 39 41 39h54q28 0 28 -25q0 -7 -4 -26zM860 1581l-282 221q-23 18 -23 35q0 23 33 27q36 4 78 4q27 0 61 -29l248 -221q18 -16 18 -31q0 -20 -22 -24q-19 -4 -49 -4q-34 0 -62 22z" />
    <glyph glyph-name="Uacute" unicode="&#xda;" horiz-adv-x="1386" 
d="M1374 1401l-178 -821q-33 -152 -40 -180q-14 -59 -40 -127q-28 -72 -59 -115q-73 -98 -185 -142q-110 -43 -290 -43q-108 0 -194 25q-82 24 -144 98t-62 193q0 103 39 286l178 838q7 39 47 39h48q30 0 30 -31q0 -4 -1 -8q-2 -8 -3 -13q-2 -10 -2 -11l-184 -865
q-27 -121 -27 -202q0 -238 295 -238q249 0 348 127q68 91 113 301l192 901q7 39 41 39h54q28 0 28 -25q0 -7 -4 -26zM905 1581q-27 -20 -63 -20q-35 0 -51 2q-25 2 -25 24q0 17 20 31l304 221q38 29 67 29q51 0 80 -4q33 -4 33 -27q0 -20 -23 -35z" />
    <glyph glyph-name="Ucircumflex" unicode="&#xdb;" horiz-adv-x="1386" 
d="M1374 1401l-178 -821q-33 -152 -40 -180q-14 -59 -40 -127q-28 -72 -59 -115q-73 -98 -185 -142q-110 -43 -290 -43q-108 0 -194 25q-82 24 -144 98t-62 193q0 103 39 286l178 838q7 39 47 39h48q30 0 30 -31q0 -4 -1 -8q-2 -8 -3 -13q-2 -10 -2 -11l-184 -865
q-27 -121 -27 -202q0 -238 295 -238q249 0 348 127q68 91 113 301l192 901q7 39 41 39h54q28 0 28 -25q0 -7 -4 -26zM657 1559q-32 0 -51 4q-18 6 -18 20q0 18 18 33l252 209q39 30 68 30h39q31 0 51 -26l180 -213q10 -10 10 -25q0 -19 -22 -26q-19 -4 -43 -4q-28 0 -54 26
l-159 150l-209 -148q-44 -30 -62 -30z" />
    <glyph glyph-name="Udieresis" unicode="&#xdc;" horiz-adv-x="1386" 
d="M1374 1401l-178 -821q-33 -152 -40 -180q-14 -59 -40 -127q-28 -72 -59 -115q-73 -98 -185 -142q-110 -43 -290 -43q-108 0 -194 25q-82 24 -144 98t-62 193q0 103 39 286l178 838q7 39 47 39h48q30 0 30 -31q0 -4 -1 -8q-2 -8 -3 -13q-2 -10 -2 -11l-184 -865
q-27 -121 -27 -202q0 -238 295 -238q249 0 348 127q68 91 113 301l192 901q7 39 41 39h54q28 0 28 -25q0 -7 -4 -26zM819 1698q0 -59 -31 -88q-28 -23 -61 -23q-72 0 -72 64q0 59 29 86q24 24 66 24q69 0 69 -63zM1198 1698q0 -59 -31 -88q-23 -23 -61 -23q-72 0 -72 64
q0 59 29 86q24 24 65 24q70 0 70 -63z" />
    <glyph glyph-name="Yacute" unicode="&#xdd;" horiz-adv-x="1087" 
d="M514 37q-7 -43 -45 -43h-49q-31 0 -31 26q0 8 4 24t4 19l121 574l-295 727q-18 40 -18 55q0 19 20 29q12 6 70 6q26 0 41 -39q202 -494 260 -665q128 173 530 655q40 49 74 49q43 0 62 -4q18 -2 18 -20q0 -19 -31 -58l-608 -733zM754 1581q-27 -20 -64 -20q-35 0 -51 2
q-25 2 -25 24q0 16 21 31l303 221q38 29 68 29q50 0 79 -4q33 -4 33 -27q0 -20 -22 -35z" />
    <glyph glyph-name="Thorn" unicode="&#xde;" horiz-adv-x="1249" 
d="M309 317l-61 -284q-10 -39 -43 -39h-51q-29 0 -29 26q0 14 4 33l291 1358q8 41 45 41h49q31 0 31 -25l-8 -41l-54 -247h209q225 0 340 -52q148 -72 148 -251q0 -402 -342 -492q-96 -27 -301 -27h-228zM330 424h237q190 0 285 37q99 38 149 134q50 95 50 214
q0 133 -99 184q-70 35 -276 35h-217z" />
    <glyph glyph-name="germandbls" unicode="&#xdf;" horiz-adv-x="1101" 
d="M209 33q-5 -39 -43 -39h-43q-33 0 -33 26q0 8 4 27l203 973q52 245 104 330q118 188 387 188q146 0 226 -74t80 -200q0 -222 -123 -346q-80 -84 -189 -113q236 -33 236 -273q0 -293 -166 -423q-158 -123 -438 -123q-43 0 -43 28q0 23 2 43q6 33 43 33q263 6 377 115
q104 101 104 315q0 106 -73 165t-257 65q-45 4 -45 32q0 66 56 68q220 11 311 123q82 104 82 278q0 91 -52 139q-53 48 -151 48q-176 0 -260 -125q-45 -69 -90 -283z" />
    <glyph glyph-name="agrave" unicode="&#xe0;" horiz-adv-x="1067" 
d="M829 186q-16 -69 -36 -100q-23 -30 -66 -51q-135 -62 -346 -62q-159 0 -230 72q-71 73 -71 178q0 236 176 322q97 47 315 47q113 0 224 -14l18 81q18 82 18 146q0 123 -204 123q-127 0 -230 -25q-55 -16 -67 -16q-15 0 -21 20q-10 26 -10 45q0 25 39 37q141 45 299 45
q69 0 114 -7q46 -7 98 -26q50 -18 77 -59q26 -39 26 -102q0 -60 -24 -183zM778 485q-82 11 -215 11q-191 0 -268 -43q-100 -60 -100 -207q0 -172 213 -172q138 0 233 37q32 11 53 39q17 23 27 73zM635 1210l-227 265q-17 17 -17 34q0 22 31 27q24 2 67 2q29 0 52 -29
l200 -272q13 -23 13 -29q0 -16 -21 -18q-16 -2 -51 -2q-26 0 -47 22z" />
    <glyph glyph-name="aacute" unicode="&#xe1;" horiz-adv-x="1067" 
d="M829 186q-16 -69 -36 -100q-23 -30 -66 -51q-135 -62 -346 -62q-159 0 -230 72q-71 73 -71 178q0 236 176 322q97 47 315 47q113 0 224 -14l18 81q18 82 18 146q0 123 -204 123q-127 0 -230 -25q-55 -16 -67 -16q-15 0 -21 20q-10 26 -10 45q0 25 39 37q141 45 299 45
q69 0 114 -7q46 -7 98 -26q50 -18 77 -59q26 -39 26 -102q0 -60 -24 -183zM778 485q-82 11 -215 11q-191 0 -268 -43q-100 -60 -100 -207q0 -172 213 -172q138 0 233 37q32 11 53 39q17 23 27 73zM684 1208q-22 -22 -51 -22q-27 0 -43 6q-19 6 -19 22t17 33l241 262
q29 31 64 31q39 0 63 -6q23 -6 23 -25q0 -16 -18 -34z" />
    <glyph glyph-name="acircumflex" unicode="&#xe2;" horiz-adv-x="1067" 
d="M829 186q-16 -69 -36 -100q-23 -30 -66 -51q-135 -62 -346 -62q-159 0 -230 72q-71 73 -71 178q0 236 176 322q97 47 315 47q113 0 224 -14l18 81q18 82 18 146q0 123 -204 123q-127 0 -230 -25q-55 -16 -67 -16q-15 0 -21 20q-10 26 -10 45q0 25 39 37q141 45 299 45
q69 0 114 -7q46 -7 98 -26q50 -18 77 -59q26 -39 26 -102q0 -60 -24 -183zM778 485q-82 11 -215 11q-191 0 -268 -43q-100 -60 -100 -207q0 -172 213 -172q138 0 233 37q32 11 53 39q17 23 27 73zM451 1169q-30 0 -45 4q-19 6 -19 23q0 14 21 35l247 274q28 31 60 31h45
q28 0 43 -29l139 -282q8 -18 8 -31q0 -19 -20 -20q-23 -5 -39 -5q-28 0 -45 29l-127 223l-217 -221q-31 -31 -51 -31z" />
    <glyph glyph-name="atilde" unicode="&#xe3;" horiz-adv-x="1067" 
d="M829 186q-16 -69 -36 -100q-23 -30 -66 -51q-135 -62 -346 -62q-159 0 -230 72q-71 73 -71 178q0 236 176 322q97 47 315 47q113 0 224 -14l18 81q18 82 18 146q0 123 -204 123q-127 0 -230 -25q-55 -16 -67 -16q-15 0 -21 20q-10 26 -10 45q0 25 39 37q141 45 299 45
q69 0 114 -7q46 -7 98 -26q50 -18 77 -59q26 -39 26 -102q0 -60 -24 -183zM778 485q-82 11 -215 11q-191 0 -268 -43q-100 -60 -100 -207q0 -172 213 -172q138 0 233 37q32 11 53 39q17 23 27 73zM416 1237q-22 0 -37 4q-17 2 -17 21q0 17 17 45q76 151 178 151
q41 0 141 -61q79 -47 117 -47q59 0 96 82q18 38 39 38q33 0 45 -6q13 -6 13 -18q0 -23 -15 -53q-39 -89 -81 -123q-43 -35 -99 -35q-53 0 -147 55q-91 53 -119 53q-51 0 -88 -75q-19 -31 -43 -31z" />
    <glyph glyph-name="adieresis" unicode="&#xe4;" horiz-adv-x="1067" 
d="M829 186q-16 -69 -36 -100q-23 -30 -66 -51q-135 -62 -346 -62q-159 0 -230 72q-71 73 -71 178q0 236 176 322q97 47 315 47q113 0 224 -14l18 81q18 82 18 146q0 123 -204 123q-127 0 -230 -25q-55 -16 -67 -16q-15 0 -21 20q-10 26 -10 45q0 25 39 37q141 45 299 45
q69 0 114 -7q46 -7 98 -26q50 -18 77 -59q26 -39 26 -102q0 -60 -24 -183zM778 485q-82 11 -215 11q-191 0 -268 -43q-100 -60 -100 -207q0 -172 213 -172q138 0 233 37q32 11 53 39q17 23 27 73zM594 1382q0 -63 -33 -90q-20 -20 -61 -20q-72 0 -72 61q0 57 29 86
q28 25 67 25q70 0 70 -62zM954 1382q0 -61 -32 -90q-20 -20 -62 -20q-72 0 -72 61q0 57 31 86q25 25 64 25q71 0 71 -62z" />
    <glyph glyph-name="aring" unicode="&#xe5;" horiz-adv-x="1067" 
d="M829 186q-16 -69 -36 -100q-23 -30 -66 -51q-135 -62 -346 -62q-159 0 -230 72q-71 73 -71 178q0 236 176 322q97 47 315 47q113 0 224 -14l18 81q18 82 18 146q0 123 -204 123q-127 0 -230 -25q-55 -16 -67 -16q-15 0 -21 20q-10 26 -10 45q0 25 39 37q141 45 299 45
q69 0 114 -7q46 -7 98 -26q50 -18 77 -59q26 -39 26 -102q0 -60 -24 -183zM778 485q-82 11 -215 11q-191 0 -268 -43q-100 -60 -100 -207q0 -172 213 -172q138 0 233 37q32 11 53 39q17 23 27 73zM879 1397q0 -100 -58 -158q-57 -57 -155 -57q-81 0 -128 47q-46 46 -46 129
q0 94 58 152q59 59 152 59q82 0 129 -45q48 -46 48 -127zM807 1395q0 53 -30 82q-29 28 -83 28q-56 0 -96 -38q-39 -37 -39 -103q0 -56 31 -89q30 -32 84 -32q58 0 96 38q37 37 37 114z" />
    <glyph glyph-name="ae" unicode="&#xe6;" horiz-adv-x="1693" 
d="M811 113q-173 -140 -426 -140q-157 0 -231 72t-74 184q0 108 37 179t129 118q106 56 332 56q128 0 219 -4l22 102q10 50 10 131q0 119 -208 119q-80 0 -224 -31q-57 -14 -65 -14q-18 0 -25 18q-10 23 -10 49t39 37q174 45 321 45q137 0 207 -38q71 -38 72 -138
q135 176 389 176q305 0 305 -264q0 -114 -28 -229q-6 -31 -23 -47q-13 -11 -41 -11h-647q-12 -73 -12 -159q0 -248 278 -248q127 0 244 37q33 10 51 10q19 0 25 -19q10 -29 10 -43q0 -26 -39 -38q-141 -50 -299 -50q-246 0 -338 140zM778 483q-62 2 -223 2q-202 0 -279 -53
q-81 -56 -81 -190q0 -75 52 -121q53 -47 169 -47q93 0 196 31t166 88q-16 51 -16 106q0 98 16 184zM911 582h582q25 83 25 174q0 87 -49 133q-48 45 -169 45q-307 0 -389 -352z" />
    <glyph glyph-name="ccedilla" unicode="&#xe7;" horiz-adv-x="923" 
d="M403 -127q172 -1 172 -145q0 -213 -266 -213q-61 0 -90 8q-22 6 -22 26q0 16 6 37q8 23 30 23q13 0 46 -4q30 -2 51 -2q66 0 98 22q33 23 33 84q0 76 -101 76h-28q-33 0 -33 29q0 19 14 55l39 113q-256 46 -256 333q0 153 50 314q49 159 149 266q127 139 375 139
q136 0 221 -24q29 -11 29 -35q0 -12 -15 -55q-6 -19 -28 -19q-12 0 -56 10q-78 19 -178 19q-170 0 -278 -117q-74 -80 -110 -212t-36 -265q0 -260 252 -260q91 0 213 28q4 1 14 4t15 4q20 5 24 5q19 0 25 -21q8 -30 8 -49q0 -23 -39 -35q-123 -39 -287 -39h-8z" />
    <glyph glyph-name="egrave" unicode="&#xe8;" horiz-adv-x="1030" 
d="M227 477q-10 -76 -10 -147q0 -137 71 -196q70 -58 212 -58q100 0 237 35q37 12 54 12q16 0 22 -17q12 -33 12 -47q0 -21 -41 -36q-142 -50 -313 -50q-186 0 -281 89q-94 88 -94 255q0 371 199 578q133 139 371 139q164 0 232 -68q69 -69 69 -196q0 -96 -25 -223
q-11 -48 -29 -60q-10 -10 -43 -10h-643zM248 573h581q25 86 25 189q0 86 -48 129q-47 43 -165 43q-171 0 -272 -111q-77 -83 -121 -250zM651 1210l-227 265q-16 16 -16 34q0 23 30 27q24 2 68 2q28 0 51 -29l201 -272q12 -21 12 -29q0 -17 -20 -18q-16 -2 -52 -2
q-26 0 -47 22z" />
    <glyph glyph-name="eacute" unicode="&#xe9;" horiz-adv-x="1030" 
d="M227 477q-10 -76 -10 -147q0 -137 71 -196q70 -58 212 -58q100 0 237 35q37 12 54 12q16 0 22 -17q12 -33 12 -47q0 -21 -41 -36q-142 -50 -313 -50q-186 0 -281 89q-94 88 -94 255q0 371 199 578q133 139 371 139q164 0 232 -68q69 -69 69 -196q0 -96 -25 -223
q-11 -48 -29 -60q-10 -10 -43 -10h-643zM248 573h581q25 86 25 189q0 86 -48 129q-47 43 -165 43q-171 0 -272 -111q-77 -83 -121 -250zM659 1208q-22 -22 -51 -22q-26 0 -43 6q-18 6 -18 22q0 17 16 33l242 262q29 31 63 31q40 0 64 -6q22 -6 22 -25q0 -16 -18 -34z" />
    <glyph glyph-name="ecircumflex" unicode="&#xea;" horiz-adv-x="1030" 
d="M227 477q-10 -76 -10 -147q0 -137 71 -196q70 -58 212 -58q100 0 237 35q37 12 54 12q16 0 22 -17q12 -33 12 -47q0 -21 -41 -36q-142 -50 -313 -50q-186 0 -281 89q-94 88 -94 255q0 371 199 578q133 139 371 139q164 0 232 -68q69 -69 69 -196q0 -96 -25 -223
q-11 -48 -29 -60q-10 -10 -43 -10h-643zM248 573h581q25 86 25 189q0 86 -48 129q-47 43 -165 43q-171 0 -272 -111q-77 -83 -121 -250zM473 1169q-30 0 -45 4q-18 6 -18 23q0 15 20 35l248 274q28 31 59 31h45q28 0 43 -29l140 -282q8 -18 8 -31q0 -18 -21 -20
q-23 -5 -39 -5q-28 0 -45 29l-127 223l-217 -221q-31 -31 -51 -31z" />
    <glyph glyph-name="edieresis" unicode="&#xeb;" horiz-adv-x="1030" 
d="M227 477q-10 -76 -10 -147q0 -137 71 -196q70 -58 212 -58q100 0 237 35q37 12 54 12q16 0 22 -17q12 -33 12 -47q0 -21 -41 -36q-142 -50 -313 -50q-186 0 -281 89q-94 88 -94 255q0 371 199 578q133 139 371 139q164 0 232 -68q69 -69 69 -196q0 -96 -25 -223
q-11 -48 -29 -60q-10 -10 -43 -10h-643zM248 573h581q25 86 25 189q0 86 -48 129q-47 43 -165 43q-171 0 -272 -111q-77 -83 -121 -250zM621 1382q0 -63 -33 -90q-20 -20 -62 -20q-71 0 -71 61q0 58 28 86q30 25 68 25q70 0 70 -62zM981 1382q0 -60 -33 -90q-20 -20 -61 -20
q-72 0 -72 61q0 57 31 86q25 25 63 25q72 0 72 -62z" />
    <glyph glyph-name="igrave" unicode="&#xec;" horiz-adv-x="481" 
d="M362 1210l-227 265q-16 16 -16 34q0 22 31 27q24 2 67 2q28 0 51 -29l201 -272q12 -21 12 -29q0 -17 -20 -18q-16 -2 -51 -2q-27 0 -48 22zM207 33q-6 -39 -43 -39h-43q-31 0 -31 29q0 13 4 28l199 924q7 37 43 37h43q31 0 31 -27q0 -3 -7 -31z" />
    <glyph glyph-name="iacute" unicode="&#xed;" horiz-adv-x="481" 
d="M360 1208q-22 -22 -51 -22q-27 0 -43 6q-18 6 -18 22q0 17 16 33l242 262q29 31 63 31q40 0 64 -6q22 -6 22 -25q0 -16 -18 -34zM207 33q-6 -39 -43 -39h-43q-31 0 -31 29q0 13 4 28l199 924q7 37 43 37h43q31 0 31 -27q0 -3 -7 -31z" />
    <glyph glyph-name="icircumflex" unicode="&#xee;" horiz-adv-x="481" 
d="M207 33q-6 -39 -43 -39h-43q-31 0 -31 29q0 13 4 28l199 924q7 37 43 37h43q31 0 31 -27q0 -3 -7 -31zM164 1169q-27 0 -45 5q-19 6 -19 22q0 14 21 35l248 274q28 31 59 31h45q28 0 43 -29l139 -282q9 -20 9 -31q0 -18 -21 -20q-23 -5 -39 -5q-28 0 -45 29l-127 223
l-217 -221q-31 -31 -51 -31z" />
    <glyph glyph-name="idieresis" unicode="&#xef;" horiz-adv-x="481" 
d="M313 1382q0 -64 -32 -90q-20 -20 -62 -20q-72 0 -72 61q0 57 29 86q30 25 68 25q69 0 69 -62zM674 1382q0 -60 -33 -90q-20 -20 -61 -20q-72 0 -72 61q0 57 31 86q25 25 63 25q72 0 72 -62zM207 33q-6 -39 -43 -39h-43q-31 0 -31 29q0 13 4 28l199 924q7 37 43 37h43
q31 0 31 -27q0 -3 -7 -31z" />
    <glyph glyph-name="eth" unicode="&#xf0;" horiz-adv-x="1124" 
d="M1112 1436l-162 -97q105 -144 105 -401q0 -209 -41 -437q-40 -223 -131 -364q-107 -164 -387 -164q-186 0 -289 70t-103 256q0 136 48 317q47 178 135 279q119 135 356 135q244 0 301 -108q-5 242 -92 358l-197 -119q-27 -14 -34 -14q-16 0 -27 20q-19 35 -19 39
q0 14 23 29l186 111q-103 75 -292 90q-27 2 -27 26q0 12 8 47q6 21 33 21q33 0 63 -2q208 -21 320 -121l168 100q26 13 33 13q12 0 20 -13q23 -35 23 -45q0 -14 -21 -26zM918 713q0 129 -74 173t-215 44q-169 0 -258 -105q-68 -80 -107 -246q-39 -167 -39 -272
q0 -130 70 -180q68 -49 215 -49q210 0 289 133q50 84 85 249q34 161 34 253z" />
    <glyph glyph-name="ntilde" unicode="&#xf1;" horiz-adv-x="1146" 
d="M209 33q-6 -39 -43 -39h-43q-33 0 -33 26q0 11 6 35l166 774q21 90 86 119q175 86 426 86q108 0 184 -40t76 -132q0 -78 -26 -192l-136 -637q-6 -39 -41 -39h-45q-30 0 -30 26q0 7 6 37l135 623q16 76 16 133q0 117 -186 117q-156 0 -289 -58q-32 -17 -45 -30
q-15 -16 -26 -64zM455 1237q-22 0 -37 4q-17 2 -17 21q0 17 17 45q76 151 178 151q41 0 141 -61q79 -47 117 -47q59 0 96 82q18 38 39 38q33 0 45 -6q13 -6 13 -18q0 -23 -15 -53q-39 -89 -81 -123q-43 -35 -99 -35q-53 0 -147 55q-91 53 -119 53q-50 0 -88 -75
q-19 -31 -43 -31z" />
    <glyph glyph-name="ograve" unicode="&#xf2;" horiz-adv-x="1089" 
d="M1010 731q0 -125 -40 -303q-41 -182 -112 -287q-114 -168 -385 -168q-181 0 -279 69t-98 257q0 142 46 319q47 181 134 281q118 135 359 135q89 0 148 -9q58 -9 115 -39t84 -93q28 -65 28 -162zM891 713q0 131 -68 175t-205 44q-174 0 -258 -105q-68 -83 -105 -247
q-38 -169 -38 -273q0 -133 63 -182q62 -49 203 -49q211 0 291 137q51 88 84 248q33 159 33 252zM641 1210l-227 265q-17 17 -17 34q0 22 31 27q24 2 68 2q28 0 51 -29l201 -272q12 -21 12 -29q0 -16 -21 -18q-16 -2 -51 -2q-26 0 -47 22z" />
    <glyph glyph-name="oacute" unicode="&#xf3;" horiz-adv-x="1089" 
d="M1010 731q0 -125 -40 -303q-41 -182 -112 -287q-114 -168 -385 -168q-181 0 -279 69t-98 257q0 142 46 319q47 181 134 281q118 135 359 135q89 0 148 -9q58 -9 115 -39t84 -93q28 -65 28 -162zM891 713q0 131 -68 175t-205 44q-174 0 -258 -105q-68 -83 -105 -247
q-38 -169 -38 -273q0 -133 63 -182q62 -49 203 -49q211 0 291 137q51 88 84 248q33 159 33 252zM659 1208q-22 -22 -51 -22q-26 0 -43 6q-18 6 -18 22q0 17 16 33l242 262q29 31 63 31q40 0 64 -6q22 -6 22 -25q0 -16 -18 -34z" />
    <glyph glyph-name="ocircumflex" unicode="&#xf4;" horiz-adv-x="1089" 
d="M1010 731q0 -125 -40 -303q-41 -182 -112 -287q-114 -168 -385 -168q-181 0 -279 69t-98 257q0 142 46 319q47 181 134 281q118 135 359 135q89 0 148 -9q58 -9 115 -39t84 -93q28 -65 28 -162zM891 713q0 131 -68 175t-205 44q-174 0 -258 -105q-68 -83 -105 -247
q-38 -169 -38 -273q0 -133 63 -182q62 -49 203 -49q211 0 291 137q51 88 84 248q33 159 33 252zM479 1169q-27 0 -45 5q-18 6 -18 22q0 15 20 35l248 274q28 31 59 31h45q28 0 43 -29l140 -282q8 -18 8 -31q0 -18 -21 -20q-23 -5 -38 -5q-29 0 -46 29l-126 223l-218 -221
q-31 -31 -51 -31z" />
    <glyph glyph-name="otilde" unicode="&#xf5;" horiz-adv-x="1089" 
d="M1010 731q0 -125 -40 -303q-41 -182 -112 -287q-114 -168 -385 -168q-181 0 -279 69t-98 257q0 142 46 319q47 181 134 281q118 135 359 135q89 0 148 -9q58 -9 115 -39t84 -93q28 -65 28 -162zM891 713q0 131 -68 175t-205 44q-174 0 -258 -105q-68 -83 -105 -247
q-38 -169 -38 -273q0 -133 63 -182q62 -49 203 -49q211 0 291 137q51 88 84 248q33 159 33 252zM444 1237q-21 0 -36 4q-17 2 -17 21q0 17 17 45q76 151 178 151q41 0 141 -61q79 -47 117 -47q59 0 96 82q18 38 39 38q33 0 45 -6t12 -18q0 -25 -14 -53q-39 -89 -81 -123
q-43 -35 -99 -35q-54 0 -148 55q-91 53 -119 53q-51 0 -88 -75q-19 -31 -43 -31z" />
    <glyph glyph-name="odieresis" unicode="&#xf6;" horiz-adv-x="1089" 
d="M1010 731q0 -125 -40 -303q-41 -182 -112 -287q-114 -168 -385 -168q-181 0 -279 69t-98 257q0 142 46 319q47 181 134 281q118 135 359 135q89 0 148 -9q58 -9 115 -39t84 -93q28 -65 28 -162zM891 713q0 131 -68 175t-205 44q-174 0 -258 -105q-68 -83 -105 -247
q-38 -169 -38 -273q0 -133 63 -182q62 -49 203 -49q211 0 291 137q51 88 84 248q33 159 33 252zM637 1382q0 -63 -33 -90q-20 -20 -61 -20q-72 0 -72 61q0 57 29 86q30 25 67 25q70 0 70 -62zM997 1382q0 -61 -32 -90q-20 -20 -62 -20q-72 0 -72 61q0 57 31 86q25 25 64 25
q71 0 71 -62z" />
    <glyph glyph-name="divide" unicode="&#xf7;" horiz-adv-x="1435" 
d="M911 950q0 -44 -23 -73q-25 -31 -67 -31q-63 0 -63 67q0 49 23 75q25 28 63 28q28 0 48 -17q19 -16 19 -49zM1262 553h-1000q-29 0 -29 29q0 6 7 45q6 30 34 30h1002q29 0 29 -28q0 -19 -7 -47q-6 -29 -36 -29zM766 289q0 -44 -24 -74q-25 -31 -66 -31q-26 0 -46 17
t-20 49q0 48 25 75q24 25 63 25q68 0 68 -61z" />
    <glyph glyph-name="oslash" unicode="&#xf8;" horiz-adv-x="1089" 
d="M119 -53q-15 -15 -25 -15q-12 0 -41 29q-14 14 -14 25q0 10 12 22l86 101q-41 73 -41 190q0 145 46 322q47 179 134 278q118 135 359 135q180 0 256 -43l82 94q12 15 24 15q9 0 25 -13q31 -25 31 -36q0 -14 -13 -27l-79 -94q49 -71 49 -199q0 -125 -40 -303
q-41 -182 -112 -287q-114 -168 -385 -168q-191 0 -276 66zM483 76q209 0 291 139q50 84 85 248q34 160 34 250q0 73 -21 114l-598 -698q56 -53 209 -53zM215 307q0 -65 10 -96l586 686q-61 37 -193 37q-174 0 -260 -107q-68 -79 -105 -246q-38 -169 -38 -274z" />
    <glyph glyph-name="ugrave" unicode="&#xf9;" horiz-adv-x="1146" 
d="M901 170q-21 -90 -86 -119q-169 -78 -414 -78q-121 0 -195 46q-75 47 -75 141q0 57 23 166l139 649q6 39 41 39h45q31 0 31 -27q0 -2 -7 -37l-135 -622q-16 -67 -16 -125q0 -127 194 -127q156 0 279 51q29 15 45 33q20 25 27 63l159 752q6 39 43 39h45q31 0 31 -27
q0 -5 -6 -35zM690 1214l-227 265q-17 17 -17 34q0 22 31 27q24 2 68 2q28 0 51 -29l201 -272q12 -21 12 -29q0 -16 -21 -18q-16 -2 -51 -2q-26 0 -47 22z" />
    <glyph glyph-name="uacute" unicode="&#xfa;" horiz-adv-x="1146" 
d="M901 170q-21 -90 -86 -119q-169 -78 -414 -78q-121 0 -195 46q-75 47 -75 141q0 57 23 166l139 649q6 39 41 39h45q31 0 31 -27q0 -2 -7 -37l-135 -622q-16 -67 -16 -125q0 -127 194 -127q156 0 279 51q29 15 45 33q20 25 27 63l159 752q6 39 43 39h45q31 0 31 -27
q0 -5 -6 -35zM719 1208q-22 -22 -51 -22q-28 0 -43 6q-19 6 -19 22t17 33l241 262q29 31 64 31q39 0 63 -6q23 -6 23 -25q0 -15 -19 -34z" />
    <glyph glyph-name="ucircumflex" unicode="&#xfb;" horiz-adv-x="1146" 
d="M901 170q-21 -90 -86 -119q-169 -78 -414 -78q-121 0 -195 46q-75 47 -75 141q0 57 23 166l139 649q6 39 41 39h45q31 0 31 -27q0 -2 -7 -37l-135 -622q-16 -67 -16 -125q0 -127 194 -127q156 0 279 51q29 15 45 33q20 25 27 63l159 752q6 39 43 39h45q31 0 31 -27
q0 -5 -6 -35zM496 1169q-27 0 -45 5q-19 6 -19 22q0 14 21 35l247 274q28 31 60 31h45q28 0 43 -29l139 -282q8 -18 8 -31q0 -19 -20 -20q-23 -5 -39 -5q-28 0 -45 29l-127 223l-217 -221q-31 -31 -51 -31z" />
    <glyph glyph-name="udieresis" unicode="&#xfc;" horiz-adv-x="1146" 
d="M901 170q-21 -90 -86 -119q-169 -78 -414 -78q-121 0 -195 46q-75 47 -75 141q0 57 23 166l139 649q6 39 41 39h45q31 0 31 -27q0 -2 -7 -37l-135 -622q-16 -67 -16 -125q0 -127 194 -127q156 0 279 51q29 15 45 33q20 25 27 63l159 752q6 39 43 39h45q31 0 31 -27
q0 -5 -6 -35zM645 1382q0 -63 -33 -90q-20 -20 -61 -20q-72 0 -72 61q0 57 29 86q30 25 67 25q70 0 70 -62zM1006 1382q0 -60 -33 -90q-20 -20 -62 -20q-71 0 -71 61q0 57 30 86q25 25 64 25q72 0 72 -62z" />
    <glyph glyph-name="yacute" unicode="&#xfd;" horiz-adv-x="1146" 
d="M758 49q-140 -76 -359 -76q-268 0 -268 191q0 64 23 162l139 651q7 37 43 37h43q31 0 31 -23q0 -20 -2 -28l-140 -639q-16 -74 -16 -127q0 -121 194 -121q164 0 283 51q29 15 45 37q14 21 25 69l157 742q6 39 43 39h45q31 0 31 -25q0 -12 -2 -20l-203 -949
q-37 -166 -82 -251q-135 -248 -647 -248q-41 0 -41 30q0 20 4 41q5 35 41 35q245 2 359 45q115 44 170 127q43 66 71 191zM731 1208q-22 -22 -51 -22q-28 0 -43 6q-19 6 -19 22t17 33l242 262q29 31 63 31q40 0 64 -6q22 -6 22 -25q0 -16 -18 -34z" />
    <glyph glyph-name="thorn" unicode="&#xfe;" horiz-adv-x="1138" 
d="M219 39l-108 -500q-6 -39 -43 -39h-43q-31 0 -31 29q0 4 1 7t3 11t2 11l412 1937q6 37 45 37h39q32 0 32 -29q0 -13 -4 -28l-116 -543q114 96 337 96q312 0 312 -303q0 -138 -44 -306q-43 -165 -124 -267q-73 -90 -174 -126t-254 -36q-171 0 -242 49zM240 145
q20 -19 92 -36q71 -17 137 -17q229 0 328 117q64 79 101 225q38 149 38 266q0 110 -57 166q-58 56 -189 56q-150 0 -258 -58q-33 -18 -41 -35q-10 -16 -16 -47z" />
    <glyph glyph-name="ydieresis" unicode="&#xff;" horiz-adv-x="1146" 
d="M758 49q-140 -76 -359 -76q-268 0 -268 191q0 64 23 162l139 651q7 37 43 37h43q31 0 31 -23q0 -20 -2 -28l-140 -639q-16 -74 -16 -127q0 -121 194 -121q164 0 283 51q29 15 45 37q14 21 25 69l157 742q6 39 43 39h45q31 0 31 -25q0 -12 -2 -20l-203 -949
q-37 -166 -82 -251q-135 -248 -647 -248q-41 0 -41 30q0 20 4 41q5 35 41 35q245 2 359 45q115 44 170 127q43 66 71 191zM645 1382q0 -63 -33 -90q-20 -20 -61 -20q-72 0 -72 61q0 57 29 86q30 25 67 25q70 0 70 -62zM1006 1382q0 -60 -33 -90q-20 -20 -62 -20
q-71 0 -71 61q0 57 30 86q25 25 64 25q72 0 72 -62z" />
    <glyph glyph-name="Amacron" unicode="&#x100;" horiz-adv-x="1179" 
d="M317 479l-245 -436q-27 -49 -54 -49q-60 0 -75 4q-15 6 -15 20q0 13 25 60l737 1292q28 49 51 67q21 17 62 17h22q69 0 80 -86l178 -1290q4 -21 4 -45q0 -29 -20 -33q-17 -6 -66 -6q-18 0 -24 10q-5 9 -10 39l-64 436h-586zM375 588h518q-63 458 -96 751
q-144 -268 -422 -751zM1071 1632h-508q-28 0 -28 25q0 26 10 55q7 33 43 33h504q30 0 30 -25q0 -26 -10 -59q-11 -29 -41 -29z" />
    <glyph glyph-name="amacron" unicode="&#x101;" horiz-adv-x="1067" 
d="M829 186q-16 -69 -36 -100q-23 -30 -66 -51q-135 -62 -346 -62q-159 0 -230 72q-71 73 -71 178q0 236 176 322q97 47 315 47q113 0 224 -14l18 81q18 82 18 146q0 123 -204 123q-127 0 -230 -25q-55 -16 -67 -16q-15 0 -21 20q-10 26 -10 45q0 25 39 37q141 45 299 45
q69 0 114 -7q46 -7 98 -26q50 -18 77 -59q26 -39 26 -102q0 -60 -24 -183zM778 485q-82 11 -215 11q-191 0 -268 -43q-100 -60 -100 -207q0 -172 213 -172q138 0 233 37q32 11 53 39q17 23 27 73zM915 1257h-466q-29 0 -29 25q0 14 10 57q8 31 43 31h463q31 0 31 -24
q0 -18 -11 -60q-8 -29 -41 -29z" />
    <glyph glyph-name="Abreve" unicode="&#x102;" horiz-adv-x="1179" 
d="M317 479l-245 -436q-27 -49 -54 -49q-60 0 -75 4q-15 6 -15 20q0 13 25 60l737 1292q28 49 51 67q21 17 62 17h22q69 0 80 -86l178 -1290q4 -21 4 -45q0 -29 -20 -33q-17 -6 -66 -6q-18 0 -24 10q-5 9 -10 39l-64 436h-586zM375 588h518q-63 458 -96 751
q-144 -268 -422 -751zM1085 1858q16 0 37 -3q19 -6 19 -24q0 -26 -19 -78q-78 -194 -303 -194q-121 0 -189 56q-69 57 -69 150q0 45 6 66q7 22 29 24q1 0 3 0.5t5.5 1t6.5 0.5q8 1 18 1q26 0 26 -29q0 -18 4 -51q15 -113 170 -113q96 0 146 43q53 45 76 125q8 25 34 25z" />
    <glyph glyph-name="abreve" unicode="&#x103;" horiz-adv-x="1067" 
d="M829 186q-16 -69 -36 -100q-23 -30 -66 -51q-135 -62 -346 -62q-159 0 -230 72q-71 73 -71 178q0 236 176 322q97 47 315 47q113 0 224 -14l18 81q18 82 18 146q0 123 -204 123q-127 0 -230 -25q-55 -16 -67 -16q-15 0 -21 20q-10 26 -10 45q0 25 39 37q141 45 299 45
q69 0 114 -7q46 -7 98 -26q50 -18 77 -59q26 -39 26 -102q0 -60 -24 -183zM778 485q-82 11 -215 11q-191 0 -268 -43q-100 -60 -100 -207q0 -172 213 -172q138 0 233 37q32 11 53 39q17 23 27 73zM930 1475q23 0 37 -2q16 -6 16 -25q0 -26 -18 -76q-78 -198 -293 -198
q-125 0 -184 55q-60 55 -60 145q0 40 8 70q8 24 23 29q10 2 37 2q24 0 24 -23q0 -11 -1 -24t-1 -25q0 -125 162 -125q93 0 140 44q46 43 75 128q11 25 35 25z" />
    <glyph glyph-name="Aogonek" unicode="&#x104;" horiz-adv-x="1179" 
d="M317 479l-245 -436q-27 -49 -54 -49q-60 0 -75 4q-15 6 -15 20q0 13 25 60l737 1292q28 49 51 67q21 17 62 17h22q69 0 80 -86l178 -1290q4 -21 4 -45q0 -29 -20 -33q-227 -139 -227 -279q0 -48 31 -75t85 -27q26 0 56 3t35 3q23 0 24 -20q6 -30 6 -45q0 -21 -26 -27
q-47 -12 -129 -12q-94 0 -146 47q-51 46 -51 127q0 103 66 176q66 74 182 139q-3 11 -8 41l-62 428h-586zM375 588h518q-63 458 -96 751q-144 -268 -422 -751z" />
    <glyph glyph-name="aogonek" unicode="&#x105;" horiz-adv-x="1067" 
d="M829 186q-16 -69 -36 -100q-17 -25 -56 -47q-231 -157 -231 -303q0 -48 30 -72t80 -24q16 0 54 2q8 0 15.5 0.5t11.5 1t5 0.5q22 0 27 -23q6 -24 6 -39q-1 -22 -26 -28q-47 -11 -125 -11q-90 0 -140 45q-49 45 -49 121q0 161 199 283q-95 -19 -213 -19q-159 0 -230 72
q-71 73 -71 178q0 236 176 322q97 47 315 47q113 0 224 -14l18 81q18 82 18 146q0 123 -204 123q-127 0 -230 -25q-55 -16 -67 -16q-15 0 -21 20q-10 26 -10 45q0 25 39 37q141 45 299 45q69 0 114 -7q46 -7 98 -26q50 -18 77 -59q26 -39 26 -102q0 -60 -24 -183zM778 485
q-82 11 -215 11q-191 0 -268 -43q-100 -60 -100 -207q0 -172 213 -172q138 0 233 37q33 12 53 38q16 22 27 74z" />
    <glyph glyph-name="Cacute" unicode="&#x106;" horiz-adv-x="1191" 
d="M285 453q0 -371 360 -371q162 0 305 35q60 16 76 16q23 0 29 -22q8 -40 8 -50q0 -20 -51 -36q-173 -52 -394 -52q-462 0 -462 469q0 237 78 492q80 260 229 393q167 146 467 146q167 0 289 -25q43 -10 43 -39q0 -22 -17 -61q-8 -17 -26 -17q-17 0 -74 12q-107 21 -250 21
q-221 0 -358 -131q-121 -113 -186 -343q-66 -232 -66 -437zM901 1581q-27 -20 -63 -20t-52 2q-24 1 -24 24q0 17 20 31l303 221q38 29 68 29q51 0 80 -4q33 -4 33 -27q0 -20 -23 -35z" />
    <glyph glyph-name="cacute" unicode="&#x107;" horiz-adv-x="923" 
d="M219 336q0 -260 252 -260q91 0 213 28q4 1 14 4t15 4q20 5 24 5q19 0 25 -21q8 -30 8 -49q0 -23 -39 -35q-123 -39 -287 -39q-162 0 -255 87t-93 255q0 153 50 314q49 159 149 266q127 139 375 139q136 0 221 -24q29 -11 29 -35q0 -12 -15 -55q-6 -19 -28 -19
q-12 0 -56 10q-78 19 -178 19q-170 0 -278 -117q-74 -80 -110 -212t-36 -265zM682 1208q-22 -22 -51 -22q-28 0 -43 6q-19 6 -19 22t17 33l241 262q29 31 64 31q39 0 63 -6q23 -6 23 -25q0 -15 -19 -34z" />
    <glyph glyph-name="Ccircumflex" unicode="&#x108;" horiz-adv-x="1191" 
d="M285 453q0 -371 360 -371q162 0 305 35q60 16 76 16q23 0 29 -22q8 -40 8 -50q0 -20 -51 -36q-173 -52 -394 -52q-462 0 -462 469q0 237 78 492q80 260 229 393q167 146 467 146q167 0 289 -25q43 -10 43 -39q0 -22 -17 -61q-8 -17 -26 -17q-17 0 -74 12q-107 21 -250 21
q-221 0 -358 -131q-121 -113 -186 -343q-66 -232 -66 -437zM692 1559q-32 0 -51 4q-18 6 -18 20q0 18 18 33l252 209q39 30 68 30h38q32 0 52 -26l180 -213q10 -10 10 -25q0 -19 -22 -26q-19 -4 -43 -4q-28 0 -54 26l-159 150l-209 -148q-44 -30 -62 -30z" />
    <glyph glyph-name="ccircumflex" unicode="&#x109;" horiz-adv-x="923" 
d="M219 336q0 -260 252 -260q91 0 213 28q4 1 14 4t15 4q20 5 24 5q19 0 25 -21q8 -30 8 -49q0 -23 -39 -35q-123 -39 -287 -39q-162 0 -255 87t-93 255q0 153 50 314q49 159 149 266q127 139 375 139q136 0 221 -24q29 -11 29 -35q0 -12 -15 -55q-6 -19 -28 -19
q-12 0 -56 10q-78 19 -178 19q-170 0 -278 -117q-74 -80 -110 -212t-36 -265zM436 1169q-27 0 -45 5q-18 6 -18 22q0 15 20 35l248 274q28 31 59 31h45q28 0 43 -29l140 -282q8 -18 8 -31q0 -18 -21 -20q-23 -5 -38 -5q-29 0 -46 29l-126 223l-218 -221q-31 -31 -51 -31z
" />
    <glyph glyph-name="Cdotaccent" unicode="&#x10a;" horiz-adv-x="1191" 
d="M285 453q0 -371 360 -371q162 0 305 35q60 16 76 16q23 0 29 -22q8 -40 8 -50q0 -20 -51 -36q-173 -52 -394 -52q-462 0 -462 469q0 237 78 492q80 260 229 393q167 146 467 146q167 0 289 -25q43 -10 43 -39q0 -22 -17 -61q-8 -17 -26 -17q-17 0 -74 12q-107 21 -250 21
q-221 0 -358 -131q-121 -113 -186 -343q-66 -232 -66 -437zM983 1698q0 -61 -33 -88q-23 -23 -61 -23q-72 0 -72 64q0 57 31 86q24 24 65 24q70 0 70 -63z" />
    <glyph glyph-name="cdotaccent" unicode="&#x10b;" horiz-adv-x="923" 
d="M219 336q0 -260 252 -260q91 0 213 28q4 1 14 4t15 4q20 5 24 5q19 0 25 -21q8 -30 8 -49q0 -23 -39 -35q-123 -39 -287 -39q-162 0 -255 87t-93 255q0 153 50 314q49 159 149 266q127 139 375 139q136 0 221 -24q29 -11 29 -35q0 -12 -15 -55q-6 -19 -28 -19
q-12 0 -56 10q-78 19 -178 19q-170 0 -278 -117q-74 -80 -110 -212t-36 -265zM756 1382q0 -63 -33 -90q-20 -20 -61 -20q-72 0 -72 61q0 57 31 86q25 25 65 25q70 0 70 -62z" />
    <glyph glyph-name="Ccaron" unicode="&#x10c;" horiz-adv-x="1191" 
d="M285 453q0 -371 360 -371q162 0 305 35q60 16 76 16q23 0 29 -22q8 -40 8 -50q0 -20 -51 -36q-173 -52 -394 -52q-462 0 -462 469q0 237 78 492q80 260 229 393q167 146 467 146q167 0 289 -25q43 -10 43 -39q0 -22 -17 -61q-8 -17 -26 -17q-17 0 -74 12q-107 21 -250 21
q-221 0 -358 -131q-121 -113 -186 -343q-66 -232 -66 -437zM1159 1864q30 0 51 -4q19 -5 19 -23q0 -14 -19 -31l-252 -207q-39 -32 -67 -32h-41q-27 0 -49 26l-183 215q-10 14 -10 25q0 19 25 25q19 4 43 4q23 0 53 -25l158 -151l209 149q38 29 63 29z" />
    <glyph glyph-name="ccaron" unicode="&#x10d;" horiz-adv-x="923" 
d="M219 336q0 -260 252 -260q91 0 213 28q4 1 14 4t15 4q20 5 24 5q19 0 25 -21q8 -30 8 -49q0 -23 -39 -35q-123 -39 -287 -39q-162 0 -255 87t-93 255q0 153 50 314q49 159 149 266q127 139 375 139q136 0 221 -24q29 -11 29 -35q0 -12 -15 -55q-6 -19 -28 -19
q-12 0 -56 10q-78 19 -178 19q-170 0 -278 -117q-74 -80 -110 -212t-36 -265zM897 1544q30 0 45 -4q19 -5 19 -22q0 -11 -21 -35l-246 -273q-26 -32 -61 -32h-39q-32 0 -47 28l-139 281q-11 22 -11 33q0 16 21 22q14 2 41 2t43 -26l127 -224l217 222q24 28 51 28z" />
    <glyph glyph-name="Dcaron" unicode="&#x10e;" horiz-adv-x="1402" 
d="M461 0h-148q-157 0 -157 121q0 42 10 86l225 1053q21 104 65 145t148 41h135q211 0 346 -45q126 -45 196 -161q69 -116 69 -279q0 -143 -26 -279q-26 -134 -81 -261q-56 -128 -160 -225q-106 -98 -245 -147q-140 -49 -377 -49zM291 221q-6 -44 -6 -49q0 -61 63 -61h141
q196 0 334 53q204 79 301 298q97 220 97 486q0 248 -162 330q-107 57 -332 57h-127q-69 0 -86 -80zM1122 1864q31 0 52 -4q18 -4 18 -23q0 -15 -18 -31l-252 -207q-39 -32 -68 -32h-41q-27 0 -49 26l-182 215q-11 16 -11 25q0 19 25 25q19 4 43 4q23 0 53 -25l158 -151
l209 149q38 29 63 29z" />
    <glyph glyph-name="dcaron" unicode="&#x10f;" horiz-adv-x="1124" 
d="M879 164q-10 -48 -29 -78q-18 -32 -74 -55q-130 -58 -325 -58q-168 0 -262 89q-93 88 -93 251q0 164 58 333q57 166 172 269q134 119 379 119q152 0 235 -37l104 498q6 37 39 37h50q28 0 28 -27q0 -6 -2 -22zM774 219l129 604q4 15 4 37q0 27 -24 39q-77 33 -201 33
q-177 0 -272 -82q-94 -82 -143 -219q-50 -141 -50 -301q0 -256 256 -256q134 0 227 37q38 17 50 39q9 12 24 69zM1397 1530h39q39 0 39 -37q0 -35 -21 -96q-51 -152 -164 -248q-23 -23 -41 -23q-15 0 -30 15q-17 12 -17 26q0 16 19 35q104 112 127 275q6 53 49 53z" />
    <glyph glyph-name="Dcroat" unicode="&#x110;" horiz-adv-x="1402" 
d="M461 0h-148q-157 0 -157 121q0 42 10 86l104 493h-184q-33 0 -33 27q0 12 8 47q6 33 35 33h197l98 453q21 104 65 145t148 41h135q211 0 346 -45q126 -45 196 -161q69 -116 69 -279q0 -143 -26 -279q-26 -134 -81 -261q-56 -128 -160 -225q-106 -98 -245 -147
q-140 -49 -377 -49zM291 221q-6 -44 -6 -49q0 -61 63 -61h141q196 0 334 53q204 79 301 298q97 220 97 486q0 248 -162 330q-107 57 -332 57h-127q-69 0 -86 -80l-98 -448h342q33 0 33 -31q0 -7 -9 -47q-8 -29 -34 -29h-355z" />
    <glyph glyph-name="dcroat" unicode="&#x111;" horiz-adv-x="1124" 
d="M879 164q-10 -48 -29 -78q-18 -32 -74 -55q-130 -58 -325 -58q-168 0 -262 89q-93 88 -93 251q0 164 58 333q57 166 172 269q134 119 379 119q152 0 235 -37l43 211h-244q-26 0 -26 23q0 19 6 43q6 29 39 29h246l40 192q6 37 39 37h50q28 0 28 -27q0 -6 -2 -22l-39 -180
h109q28 0 28 -25q0 -5 -8 -45q-5 -25 -41 -25h-108zM774 219l129 604q4 15 4 37q0 27 -24 39q-77 33 -201 33q-177 0 -272 -82q-94 -82 -143 -219q-50 -141 -50 -301q0 -256 256 -256q134 0 227 37q38 17 50 39q9 12 24 69z" />
    <glyph glyph-name="Emacron" unicode="&#x112;" horiz-adv-x="1107" 
d="M924 0h-611q-157 0 -157 121q0 42 10 86l225 1053q21 104 66 145q46 41 151 41h557q37 0 37 -27q0 -8 -10 -57q-6 -27 -45 -27h-547q-69 0 -86 -80l-96 -446h571q31 0 31 -25q0 -18 -10 -57q-4 -27 -43 -27h-574l-102 -479q-6 -37 -6 -49q0 -61 63 -61h598q33 0 33 -27
q0 -16 -10 -57q-6 -27 -45 -27zM1102 1632h-508q-29 0 -29 25q0 26 10 55q7 33 43 33h504q31 0 31 -25q0 -26 -10 -59q-11 -29 -41 -29z" />
    <glyph glyph-name="emacron" unicode="&#x113;" horiz-adv-x="1030" 
d="M227 477q-10 -76 -10 -147q0 -137 71 -196q70 -58 212 -58q100 0 237 35q37 12 54 12q16 0 22 -17q12 -33 12 -47q0 -21 -41 -36q-142 -50 -313 -50q-186 0 -281 89q-94 88 -94 255q0 371 199 578q133 139 371 139q164 0 232 -68q69 -69 69 -196q0 -96 -25 -223
q-11 -48 -29 -60q-10 -10 -43 -10h-643zM248 573h581q25 86 25 189q0 86 -48 129q-47 43 -165 43q-171 0 -272 -111q-77 -83 -121 -250zM911 1257h-467q-28 0 -28 25q0 14 10 57q8 31 43 31h463q31 0 31 -24q0 -18 -11 -60q-8 -29 -41 -29z" />
    <glyph glyph-name="Ebreve" unicode="&#x114;" horiz-adv-x="1107" 
d="M924 0h-611q-157 0 -157 121q0 42 10 86l225 1053q21 104 66 145q46 41 151 41h557q37 0 37 -27q0 -8 -10 -57q-6 -27 -45 -27h-547q-69 0 -86 -80l-96 -446h571q31 0 31 -25q0 -18 -10 -57q-4 -27 -43 -27h-574l-102 -479q-6 -37 -6 -49q0 -61 63 -61h598q33 0 33 -27
q0 -16 -10 -57q-6 -27 -45 -27zM1090 1858q15 0 36 -3q19 -6 19 -24q0 -26 -19 -78q-78 -194 -303 -194q-121 0 -189 56q-69 57 -69 150q0 45 6 66q7 22 29 24q1 0 3 0.5t5.5 1t6.5 0.5q8 1 18 1q26 0 26 -29q0 -9 5 -51q15 -113 170 -113q95 0 145 43q53 45 76 125
q8 25 35 25z" />
    <glyph glyph-name="ebreve" unicode="&#x115;" horiz-adv-x="1030" 
d="M227 477q-10 -76 -10 -147q0 -137 71 -196q70 -58 212 -58q100 0 237 35q37 12 54 12q16 0 22 -17q12 -33 12 -47q0 -21 -41 -36q-142 -50 -313 -50q-186 0 -281 89q-94 88 -94 255q0 371 199 578q133 139 371 139q164 0 232 -68q69 -69 69 -196q0 -96 -25 -223
q-11 -48 -29 -60q-10 -10 -43 -10h-643zM248 573h581q25 86 25 189q0 86 -48 129q-47 43 -165 43q-171 0 -272 -111q-77 -83 -121 -250zM918 1475q22 0 36 -2q17 -6 17 -25q0 -24 -19 -76q-78 -198 -293 -198q-124 0 -183 55q-60 55 -60 145q0 40 8 70q8 25 22 29q10 2 37 2
q25 0 25 -23q0 -11 -1 -24t-1 -25q0 -125 162 -125q93 0 140 44q46 43 75 128q11 25 35 25z" />
    <glyph glyph-name="Edotaccent" unicode="&#x116;" horiz-adv-x="1107" 
d="M924 0h-611q-157 0 -157 121q0 42 10 86l225 1053q21 104 66 145q46 41 151 41h557q37 0 37 -27q0 -8 -10 -57q-6 -27 -45 -27h-547q-69 0 -86 -80l-96 -446h571q31 0 31 -25q0 -18 -10 -57q-4 -27 -43 -27h-574l-102 -479q-6 -37 -6 -49q0 -61 63 -61h598q33 0 33 -27
q0 -16 -10 -57q-6 -27 -45 -27zM918 1698q0 -61 -33 -88q-23 -23 -62 -23q-71 0 -71 64q0 57 30 86q24 24 66 24q70 0 70 -63z" />
    <glyph glyph-name="edotaccent" unicode="&#x117;" horiz-adv-x="1030" 
d="M227 477q-10 -76 -10 -147q0 -137 71 -196q70 -58 212 -58q100 0 237 35q37 12 54 12q16 0 22 -17q12 -33 12 -47q0 -21 -41 -36q-142 -50 -313 -50q-186 0 -281 89q-94 88 -94 255q0 371 199 578q133 139 371 139q164 0 232 -68q69 -69 69 -196q0 -96 -25 -223
q-11 -48 -29 -60q-10 -10 -43 -10h-643zM248 573h581q25 86 25 189q0 86 -48 129q-47 43 -165 43q-171 0 -272 -111q-77 -83 -121 -250zM766 1382q0 -63 -33 -90q-20 -20 -61 -20q-72 0 -72 61q0 57 31 86q25 25 65 25q70 0 70 -62z" />
    <glyph glyph-name="Eogonek" unicode="&#x118;" horiz-adv-x="1107" 
d="M924 0h-25q-227 -140 -227 -279q0 -48 31 -75t85 -27q26 0 56 3t35 3q23 0 24 -20q6 -30 6 -45q0 -21 -26 -27q-47 -12 -129 -12q-94 0 -146 47q-51 46 -51 127q0 175 223 305h-467q-157 0 -157 121q0 42 10 86l225 1053q21 104 66 145q46 41 151 41h557q37 0 37 -27
q0 -8 -10 -57q-6 -27 -45 -27h-547q-69 0 -86 -80l-96 -446h571q31 0 31 -25q0 -18 -10 -57q-4 -27 -43 -27h-574l-102 -479q-6 -37 -6 -49q0 -61 63 -61h598q33 0 33 -27q0 -16 -10 -57q-6 -27 -45 -27z" />
    <glyph glyph-name="eogonek" unicode="&#x119;" horiz-adv-x="1030" 
d="M227 477q-10 -76 -10 -147q0 -137 71 -196q70 -58 212 -58q100 0 237 35q37 12 54 12q16 0 22 -17q12 -33 12 -47q0 -21 -41 -36q-48 -18 -79 -23q-218 -135 -218 -266q0 -94 111 -94q15 0 53 2q8 0 16 0.5t12 1t5 0.5q22 0 27 -23q6 -24 6 -39q-1 -22 -27 -28
q-47 -11 -125 -11q-89 0 -139 45q-49 45 -49 121q0 151 176 268q-47 -4 -82 -4q-186 0 -281 89q-94 88 -94 255q0 371 199 578q133 139 371 139q164 0 232 -68q69 -69 69 -196q0 -96 -25 -223q-11 -48 -29 -60q-10 -10 -43 -10h-643zM248 573h581q25 86 25 189q0 86 -48 129
q-47 43 -165 43q-171 0 -272 -111q-77 -83 -121 -250z" />
    <glyph glyph-name="Ecaron" unicode="&#x11a;" horiz-adv-x="1107" 
d="M924 0h-611q-157 0 -157 121q0 42 10 86l225 1053q21 104 66 145q46 41 151 41h557q37 0 37 -27q0 -8 -10 -57q-6 -27 -45 -27h-547q-69 0 -86 -80l-96 -446h571q31 0 31 -25q0 -18 -10 -57q-4 -27 -43 -27h-574l-102 -479q-6 -37 -6 -49q0 -61 63 -61h598q33 0 33 -27
q0 -16 -10 -57q-6 -27 -45 -27zM1096 1864q30 0 51 -4q18 -4 18 -23q0 -15 -18 -31l-252 -207q-39 -32 -68 -32h-41q-27 0 -49 26l-182 215q-10 14 -10 25q0 19 24 25q19 4 43 4q26 0 54 -25l157 -151l209 149q38 29 64 29z" />
    <glyph glyph-name="ecaron" unicode="&#x11b;" horiz-adv-x="1030" 
d="M227 477q-10 -76 -10 -147q0 -137 71 -196q70 -58 212 -58q100 0 237 35q37 12 54 12q16 0 22 -17q12 -33 12 -47q0 -21 -41 -36q-142 -50 -313 -50q-186 0 -281 89q-94 88 -94 255q0 371 199 578q133 139 371 139q164 0 232 -68q69 -69 69 -196q0 -96 -25 -223
q-11 -48 -29 -60q-10 -10 -43 -10h-643zM248 573h581q25 86 25 189q0 86 -48 129q-47 43 -165 43q-171 0 -272 -111q-77 -83 -121 -250zM924 1544q30 0 45 -4q18 -4 18 -22q0 -12 -20 -35l-246 -273q-26 -32 -62 -32h-38q-33 0 -48 28l-139 281q-10 20 -10 33q0 16 20 22
q14 2 41 2t43 -26l127 -224l217 222q24 28 52 28z" />
    <glyph glyph-name="Gcircumflex" unicode="&#x11c;" horiz-adv-x="1325" 
d="M1128 150q-11 -49 -26 -70q-16 -19 -64 -41q-153 -66 -409 -66q-225 0 -349 111t-124 340q0 226 67 472q67 245 199 386q95 103 214 146q124 45 316 45q172 0 303 -33q39 -10 39 -39q0 -23 -14 -55q-8 -21 -31 -21q-6 0 -63 12q-121 27 -295 27q-244 0 -389 -166
q-103 -120 -160 -338q-57 -219 -57 -411q0 -165 85 -266t279 -101q179 0 299 37q29 7 45 23q15 15 23 51l96 452h-342q-33 0 -33 21q0 1 13 63q8 27 41 27h419q37 0 37 -31q0 -15 -6 -39zM700 1559q-32 0 -51 4q-18 6 -18 20q0 18 18 33l252 209q39 30 68 30h39q31 0 51 -26
l180 -213q10 -10 10 -25q0 -19 -22 -26q-19 -4 -43 -4q-28 0 -54 26l-159 150l-209 -148q-44 -30 -62 -30z" />
    <glyph glyph-name="gcircumflex" unicode="&#x11d;" horiz-adv-x="1112" 
d="M731 37q-112 -62 -297 -62q-160 0 -249 92t-89 261q0 145 54 309q53 160 153 260q137 137 399 137q175 0 293 -41q45 -15 45 -49l-8 -53l-180 -862q-35 -161 -90 -265q-130 -243 -633 -243q-43 0 -43 28q0 29 4 48q10 28 41 28q238 1 352 43q112 41 164 123q51 78 74 197
zM772 205l133 637q4 19 4 26q0 26 -30 37q-80 27 -203 27q-197 0 -299 -113q-73 -79 -116 -209q-44 -132 -44 -270q0 -266 252 -266q128 0 231 41q38 17 56 41q10 20 16 49zM496 1169q-27 0 -45 5q-19 6 -19 22q0 14 21 35l247 274q28 31 60 31h45q28 0 43 -29l139 -282
q8 -18 8 -31q0 -19 -20 -20q-23 -5 -39 -5q-28 0 -45 29l-127 223l-217 -221q-31 -31 -51 -31z" />
    <glyph glyph-name="Gbreve" unicode="&#x11e;" horiz-adv-x="1325" 
d="M1128 150q-11 -49 -26 -70q-16 -19 -64 -41q-153 -66 -409 -66q-225 0 -349 111t-124 340q0 226 67 472q67 245 199 386q95 103 214 146q124 45 316 45q172 0 303 -33q39 -10 39 -39q0 -23 -14 -55q-8 -21 -31 -21q-6 0 -63 12q-121 27 -295 27q-244 0 -389 -166
q-103 -120 -160 -338q-57 -219 -57 -411q0 -165 85 -266t279 -101q179 0 299 37q29 7 45 23q15 15 23 51l96 452h-342q-33 0 -33 21q0 1 13 63q8 27 41 27h419q37 0 37 -31q0 -15 -6 -39zM1182 1858q16 0 37 -3q18 -6 18 -24q0 -29 -18 -78q-78 -194 -304 -194
q-121 0 -189 56q-69 57 -69 150q0 41 7 66q8 23 28 24l16 2q8 1 17 1q27 0 27 -29q0 -18 4 -51q15 -113 170 -113q95 0 145 43q53 45 76 125q8 25 35 25z" />
    <glyph glyph-name="gbreve" unicode="&#x11f;" horiz-adv-x="1112" 
d="M731 37q-112 -62 -297 -62q-160 0 -249 92t-89 261q0 145 54 309q53 160 153 260q137 137 399 137q175 0 293 -41q45 -15 45 -49l-8 -53l-180 -862q-35 -161 -90 -265q-130 -243 -633 -243q-43 0 -43 28q0 29 4 48q10 28 41 28q238 1 352 43q112 41 164 123q51 78 74 197
zM772 205l133 637q4 19 4 26q0 26 -30 37q-80 27 -203 27q-197 0 -299 -113q-73 -79 -116 -209q-44 -132 -44 -270q0 -266 252 -266q128 0 231 41q38 17 56 41q10 20 16 49zM963 1475q22 0 36 -2q17 -6 17 -25q0 -24 -19 -76q-78 -198 -292 -198q-125 0 -184 55
q-60 55 -60 145q0 40 8 70q8 24 23 29q10 2 36 2q25 0 25 -23q0 -11 -1 -24t-1 -25q0 -125 162 -125q93 0 140 44q46 43 75 128q11 25 35 25z" />
    <glyph glyph-name="Gdotaccent" unicode="&#x120;" horiz-adv-x="1325" 
d="M1128 150q-11 -49 -26 -70q-16 -19 -64 -41q-153 -66 -409 -66q-225 0 -349 111t-124 340q0 226 67 472q67 245 199 386q95 103 214 146q124 45 316 45q172 0 303 -33q39 -10 39 -39q0 -23 -14 -55q-8 -21 -31 -21q-6 0 -63 12q-121 27 -295 27q-244 0 -389 -166
q-103 -120 -160 -338q-57 -219 -57 -411q0 -165 85 -266t279 -101q179 0 299 37q29 7 45 23q15 15 23 51l96 452h-342q-33 0 -33 21q0 1 13 63q8 27 41 27h419q37 0 37 -31q0 -15 -6 -39zM1012 1698q0 -61 -33 -88q-23 -23 -62 -23q-71 0 -71 64q0 57 31 86q24 24 65 24
q70 0 70 -63z" />
    <glyph glyph-name="gdotaccent" unicode="&#x121;" horiz-adv-x="1112" 
d="M731 37q-112 -62 -297 -62q-160 0 -249 92t-89 261q0 145 54 309q53 160 153 260q137 137 399 137q175 0 293 -41q45 -15 45 -49l-8 -53l-180 -862q-35 -161 -90 -265q-130 -243 -633 -243q-43 0 -43 28q0 29 4 48q10 28 41 28q238 1 352 43q112 41 164 123q51 78 74 197
zM772 205l133 637q4 19 4 26q0 26 -30 37q-80 27 -203 27q-197 0 -299 -113q-73 -79 -116 -209q-44 -132 -44 -270q0 -266 252 -266q128 0 231 41q38 17 56 41q10 20 16 49zM811 1382q0 -63 -33 -90q-20 -20 -61 -20q-72 0 -72 61q0 57 31 86q25 25 65 25q70 0 70 -62z" />
    <glyph glyph-name="Gcommaaccent" unicode="&#x122;" horiz-adv-x="1325" 
d="M1128 150q-11 -49 -26 -70q-16 -19 -64 -41q-153 -66 -409 -66q-225 0 -349 111t-124 340q0 226 67 472q67 245 199 386q95 103 214 146q124 45 316 45q172 0 303 -33q39 -10 39 -39q0 -23 -14 -55q-8 -21 -31 -21q-6 0 -63 12q-121 27 -295 27q-244 0 -389 -166
q-103 -120 -160 -338q-57 -219 -57 -411q0 -165 85 -266t279 -101q179 0 299 37q29 7 45 23q15 15 23 51l96 452h-342q-33 0 -33 21q0 1 13 63q8 27 41 27h419q37 0 37 -31q0 -15 -6 -39zM623 -139h38q39 0 39 -37t-20 -96q-56 -165 -164 -248q-31 -23 -39 -23q-15 0 -33 15
q-16 10 -16 26q0 12 18 35q104 116 127 274q6 54 50 54z" />
    <glyph glyph-name="gcommaaccent" unicode="&#x123;" horiz-adv-x="1112" 
d="M731 37q-112 -62 -297 -62q-160 0 -249 92t-89 261q0 145 54 309q53 160 153 260q137 137 399 137q175 0 293 -41q45 -15 45 -49l-8 -53l-180 -862q-38 -168 -88 -267q-127 -241 -635 -241q-43 0 -43 30q0 27 4 46q7 28 41 28q238 1 352 43q112 41 164 123q51 78 74 197z
M772 205l133 639q4 15 4 24q0 28 -30 39q-88 25 -203 25q-197 0 -299 -113q-73 -79 -116 -209q-44 -132 -44 -270q0 -266 252 -266q128 0 231 41q38 17 56 41q10 20 16 49zM721 1184h-39q-39 0 -39 39q0 35 21 96q53 154 163 248q23 20 41 20q12 0 33 -12q16 -12 16 -29
q0 -13 -20 -33q-98 -110 -125 -274q-7 -55 -51 -55z" />
    <glyph glyph-name="Hcircumflex" unicode="&#x124;" horiz-adv-x="1419" 
d="M252 33q-6 -39 -43 -39h-51q-31 0 -31 26q0 7 1 11t3 14t2 12l291 1356q6 41 43 41h51q31 0 31 -27q0 -1 -6 -38l-125 -580h737l129 604q6 41 43 41h49q33 0 33 -27q0 -1 -6 -38l-291 -1356q-6 -39 -43 -39h-51q-31 0 -31 26q0 7 1 11t3 14t2 12l137 641h-737zM686 1559
q-32 0 -51 4q-19 6 -19 20q0 17 19 33l252 209q39 30 67 30h39q31 0 51 -26l181 -213q10 -10 10 -25q0 -18 -23 -26q-19 -4 -43 -4q-27 0 -53 26l-160 150l-208 -148q-44 -30 -62 -30z" />
    <glyph glyph-name="hcircumflex" unicode="&#x125;" horiz-adv-x="1159" 
d="M209 33q-11 -39 -43 -39h-45q-31 0 -31 26q0 5 6 35l305 1440q6 37 39 37h47q31 0 31 -27q0 -4 -2 -20l-117 -547q117 98 377 98q108 0 183 -39t75 -131q0 -84 -20 -168l-142 -665q-6 -39 -43 -39h-43q-30 0 -30 26q0 16 4 37l135 625q16 71 16 137q0 113 -182 113
q-189 0 -295 -62q-34 -19 -41 -28q-20 -20 -31 -72zM281 1583q-33 0 -52 4q-18 6 -18 21q0 17 18 32l252 209q40 31 68 31h39q30 0 51 -27l180 -213q10 -10 10 -24q0 -20 -22 -27q-19 -4 -43 -4q-26 0 -53 27l-160 149l-209 -147q-45 -31 -61 -31z" />
    <glyph glyph-name="Hbar" unicode="&#x126;" horiz-adv-x="1419" 
d="M252 33q-6 -39 -43 -39h-51q-31 0 -31 26q0 7 1 11t3 14t2 12l203 951h-131q-27 0 -27 24q0 16 8 51q8 31 39 31h133l66 299q6 41 43 41h51q31 0 31 -27q0 -1 -6 -38l-60 -275h736l65 299q6 41 43 41h49q33 0 33 -27q0 -1 -6 -38l-60 -275h121q31 0 31 -22q0 -8 -12 -58
q-7 -26 -41 -26h-121l-209 -975q-6 -39 -43 -39h-51q-31 0 -31 26q0 7 1 11t3 14t2 12l137 641h-737zM418 809h737l41 199h-735z" />
    <glyph glyph-name="hbar" unicode="&#x127;" horiz-adv-x="1159" 
d="M209 33q-11 -39 -43 -39h-45q-31 0 -31 26q0 5 6 35l244 1153h-109q-26 0 -26 23q0 19 6 43q6 29 39 29h110l41 192q6 37 39 37h47q31 0 31 -27q0 -4 -2 -20l-39 -182h244q29 0 29 -25l-9 -45q-5 -25 -41 -25h-243l-58 -270q117 98 377 98q108 0 183 -39t75 -131
q0 -84 -20 -168l-142 -665q-6 -39 -43 -39h-43q-30 0 -30 26q0 16 4 37l135 625q16 71 16 137q0 113 -182 113q-189 0 -295 -62q-34 -19 -41 -28q-20 -20 -31 -72z" />
    <glyph glyph-name="Itilde" unicode="&#x128;" horiz-adv-x="561" 
d="M252 33q-6 -39 -43 -39h-51q-31 0 -31 26q0 7 1 11t3 14t2 12l291 1356q6 41 43 41h51q31 0 31 -27q0 -1 -6 -38zM250 1587q-22 0 -37 4q-16 6 -16 23q0 10 14 45q40 81 81 115t101 34q40 0 152 -61q86 -47 129 -47q53 0 96 82q18 37 41 37q26 0 41 -4q16 -6 16 -19
q0 -16 -14 -51q-62 -160 -182 -160q-62 0 -160 55q-99 54 -131 54q-49 0 -88 -76q-19 -31 -43 -31z" />
    <glyph glyph-name="itilde" unicode="&#x129;" horiz-adv-x="481" 
d="M141 1237q-22 0 -37 4q-16 1 -16 21q0 19 16 45q76 151 179 151q41 0 141 -61q79 -47 117 -47q59 0 96 82q18 38 39 38q33 0 45 -6t12 -18q0 -25 -14 -53q-39 -89 -81 -123q-43 -35 -99 -35q-54 0 -148 55q-91 53 -119 53q-51 0 -88 -75q-19 -31 -43 -31zM207 33
q-6 -39 -43 -39h-43q-31 0 -31 29q0 13 4 28l199 924q7 37 43 37h43q31 0 31 -27q0 -3 -7 -31z" />
    <glyph glyph-name="Imacron" unicode="&#x12a;" horiz-adv-x="561" 
d="M252 33q-6 -39 -43 -39h-51q-31 0 -31 26q0 7 1 11t3 14t2 12l291 1356q6 41 43 41h51q31 0 31 -27q0 -1 -6 -38zM764 1632h-508q-29 0 -29 25q0 24 11 55q8 33 43 33h503q31 0 31 -25q0 -26 -10 -59q-11 -29 -41 -29z" />
    <glyph glyph-name="imacron" unicode="&#x12b;" horiz-adv-x="481" 
d="M621 1257h-467q-29 0 -29 25q0 14 10 57q8 31 43 31h463q31 0 31 -24q0 -21 -10 -60q-8 -29 -41 -29zM207 33q-6 -39 -43 -39h-43q-31 0 -31 29q0 13 4 28l199 924q7 37 43 37h43q31 0 31 -27q0 -3 -7 -31z" />
    <glyph glyph-name="Ibreve" unicode="&#x12c;" horiz-adv-x="561" 
d="M252 33q-6 -39 -43 -39h-51q-31 0 -31 26q0 7 1 11t3 14t2 12l291 1356q6 41 43 41h51q31 0 31 -27q0 -1 -6 -38zM776 1858q16 0 37 -3q18 -6 18 -24q0 -29 -18 -78q-78 -194 -303 -194q-121 0 -189 56q-69 57 -69 150q0 45 6 66q7 22 29 24q1 0 3 0.5t5.5 1t6.5 0.5
q8 1 17 1q27 0 27 -29q0 -18 4 -51q15 -113 170 -113q96 0 146 43q51 44 75 125q8 25 35 25z" />
    <glyph glyph-name="ibreve" unicode="&#x12d;" horiz-adv-x="481" 
d="M633 1475q23 0 37 -2q16 -6 16 -25q0 -26 -18 -76q-78 -198 -293 -198q-125 0 -184 55q-60 55 -60 145q0 40 8 70q8 24 23 29q10 2 37 2q24 0 24 -23q0 -11 -1 -24t-1 -25q0 -125 162 -125q93 0 140 44q46 43 75 128q8 25 35 25zM207 33q-6 -39 -43 -39h-43q-31 0 -31 29
q0 13 4 28l199 924q7 37 43 37h43q31 0 31 -27q0 -3 -7 -31z" />
    <glyph glyph-name="Iogonek" unicode="&#x12e;" horiz-adv-x="561" 
d="M252 33q-6 -32 -29 -37q-98 -64 -158 -129q-59 -64 -59 -146q0 -48 32 -75q31 -27 85 -27q25 0 55 3t35 3q24 0 25 -20q6 -30 6 -45q0 -21 -27 -27q-47 -12 -129 -12q-93 0 -145 47t-52 127q0 103 63 175q64 73 175 138q-2 2 -2 12q0 7 1 11t3 14t2 12l291 1356
q6 41 43 41h51q31 0 31 -27q0 -1 -6 -38z" />
    <glyph glyph-name="iogonek" unicode="&#x12f;" horiz-adv-x="481" 
d="M207 33q-7 -32 -29 -37q-47 -32 -102 -76q-36 -29 -72 -82q-35 -52 -35 -104q0 -94 111 -94q15 0 53 2q8 0 16 0.5t12 1t5 0.5q22 0 27 -23q6 -24 6 -39q-1 -22 -27 -28q-49 -11 -125 -11q-90 0 -139 45t-49 121q0 99 60 168q61 70 173 133q-2 6 -2 13q0 13 4 28l199 924
q7 37 43 37h43q31 0 31 -27q0 -3 -7 -31zM504 1382q0 -60 -33 -90q-20 -20 -61 -20q-74 0 -74 61t31 90q23 23 65 23q72 0 72 -64z" />
    <glyph glyph-name="Idotaccent" unicode="&#x130;" horiz-adv-x="561" 
d="M252 33q-6 -39 -43 -39h-51q-31 0 -31 26q0 7 1 11t3 14t2 12l291 1356q6 41 43 41h51q31 0 31 -27q0 -1 -6 -38zM612 1698q0 -62 -32 -88q-23 -23 -62 -23q-72 0 -72 64q0 57 31 86q24 24 66 24q69 0 69 -63z" />
    <glyph glyph-name="dotlessi" unicode="&#x131;" horiz-adv-x="481" 
d="M207 33q-6 -39 -43 -39h-43q-31 0 -31 29q0 13 4 28l199 924q7 37 43 37h43q31 0 31 -27q0 -3 -7 -31z" />
    <glyph glyph-name="IJ" unicode="&#x132;" horiz-adv-x="1130" 
d="M252 33q-6 -39 -43 -39h-51q-31 0 -31 26q0 7 1 11t3 14t2 12l291 1356q6 41 43 41h51q31 0 31 -27q0 -1 -6 -38zM1110 1389l-276 -1299q-40 -189 -152 -274q-55 -42 -158 -79q-101 -36 -143 -36q-23 0 -29 23q-8 30 -8 45q0 30 47 41q131 30 197 73q93 57 123 205
l280 1325q11 41 45 41h49q33 0 33 -27q0 -12 -8 -38z" />
    <glyph glyph-name="ij" unicode="&#x133;" horiz-adv-x="960" 
d="M207 33q-6 -39 -43 -39h-43q-31 0 -31 29q0 13 4 28l199 924q7 37 43 37h43q31 0 31 -27q0 -3 -7 -31zM504 1382q0 -60 -33 -90q-20 -20 -61 -20q-74 0 -74 61t31 90q23 23 65 23q72 0 72 -64zM653 -117q-38 -185 -131 -262q-52 -43 -146 -72q-91 -28 -145 -28
q-31 0 -32 24q-4 21 -4 43q0 29 45 35q128 21 196 70q73 47 103 188l233 1094q7 37 43 37h43q31 0 31 -27q0 -7 -6 -31zM983 1382q0 -60 -33 -90q-20 -20 -61 -20q-74 0 -74 61q0 56 31 90q29 23 65 23q72 0 72 -64z" />
    <glyph glyph-name="Jcircumflex" unicode="&#x134;" horiz-adv-x="569" 
d="M551 1389l-277 -1299q-40 -190 -151 -274q-55 -42 -158 -79q-101 -36 -143 -36q-23 0 -29 23q-8 30 -8 45q0 30 47 41q131 30 197 73q93 57 123 205l280 1325q11 41 45 41h49q33 0 33 -27q0 -12 -8 -38zM258 1559q-32 0 -51 4q-19 6 -19 20q0 17 19 33l252 209
q39 30 67 30h39q31 0 51 -26l181 -213q10 -10 10 -25q0 -18 -23 -26q-19 -4 -43 -4q-27 0 -53 26l-160 150l-209 -148q-43 -30 -61 -30z" />
    <glyph glyph-name="jcircumflex" unicode="&#x135;" horiz-adv-x="479" 
d="M174 -117q-38 -185 -131 -262q-55 -43 -144 -72q-87 -28 -151 -28q-32 0 -33 24q0 22 4 43q5 29 48 35q122 22 190 70q72 46 102 188l234 1094q7 37 43 37h43q31 0 31 -27q0 -3 -7 -31zM150 1169q-28 0 -46 5q-18 6 -18 22q0 15 20 35l248 274q28 31 60 31h45
q28 0 43 -29l139 -282q8 -18 8 -31q0 -19 -20 -20q-23 -5 -39 -5q-28 0 -45 29l-127 223l-217 -221q-31 -31 -51 -31z" />
    <glyph glyph-name="Kcommaaccent" unicode="&#x136;" horiz-adv-x="1198" 
d="M252 33q-6 -39 -43 -39h-51q-31 0 -31 26q0 7 1 11t3 14t2 12l291 1356q6 41 43 41h51q31 0 31 -27q0 -1 -6 -38l-125 -582h155q64 0 97 35l504 579q29 31 61 31q50 0 70 -2q20 -4 20 -25q0 -6 -31 -45q-477 -543 -565 -637q72 -124 358 -671q15 -28 15 -45
q0 -22 -23 -27q-24 -4 -65 -4q-30 0 -47 31l-328 635q-20 36 -74 36h-172zM563 -139h39q39 0 39 -37t-20 -96q-56 -165 -164 -248q-31 -23 -39 -23q-15 0 -33 15q-16 10 -16 26q0 12 18 35q104 116 127 274q6 54 49 54z" />
    <glyph glyph-name="kcommaaccent" unicode="&#x137;" horiz-adv-x="1011" 
d="M209 33q-11 -39 -43 -39h-45q-31 0 -31 26q0 5 6 35l309 1442q6 35 39 35h50q26 0 26 -27q0 -4 -2 -20l-186 -869h139q63 0 96 35l324 332q29 29 59 29q53 0 66 -4q16 -1 16 -21q0 -15 -28 -47l-390 -385l265 -485q18 -33 18 -45q0 -18 -20 -25q-17 -6 -62 -6
q-28 0 -45 31l-242 452q-21 37 -69 37h-148zM442 -139h39q39 0 39 -37t-20 -96q-56 -165 -164 -248q-31 -23 -39 -23q-15 0 -33 15q-16 10 -16 26q0 12 18 35q104 116 127 274q6 54 49 54z" />
    <glyph glyph-name="kgreenlandic" unicode="&#x138;" horiz-adv-x="1024" 
d="M209 33q-11 -39 -43 -39h-45q-31 0 -31 26q0 5 6 35l197 924q6 37 39 37h49q29 0 29 -27q0 -6 -2 -22l-80 -371h127q65 0 98 35l344 352q29 29 59 29q49 0 62 -4q16 -1 16 -19q0 -15 -28 -47q-305 -318 -400 -405q74 -113 279 -467q14 -25 14 -43q0 -20 -20 -27
q-23 -6 -64 -6q-27 0 -43 31l-250 432q-21 37 -69 37h-146z" />
    <glyph glyph-name="Lacute" unicode="&#x139;" horiz-adv-x="1077" 
d="M901 0h-588q-157 0 -157 121q0 42 10 86l258 1206q8 41 45 41h49q31 0 31 -27q0 -1 -6 -38l-252 -1168q-6 -37 -6 -49q0 -61 63 -61h574q32 0 32 -27q0 -16 -10 -57q-6 -27 -43 -27zM504 1581q-27 -20 -64 -20q-35 0 -51 2q-24 1 -24 24q0 17 20 31l303 221q35 29 68 29
q51 0 80 -4q32 -4 32 -27q0 -20 -22 -35z" />
    <glyph glyph-name="lacute" unicode="&#x13a;" horiz-adv-x="512" 
d="M512 1483l-260 -1227q-10 -49 -10 -80q0 -76 110 -86q27 -2 27 -29q0 -29 -10 -49q-7 -18 -41 -18q-84 0 -144 36q-59 35 -59 115q0 43 12 109l262 1241q6 37 39 37h47q31 0 31 -27l-2 -10q0 -3 -1 -5t-1 -7zM442 1622q-27 -20 -63 -20q-35 0 -51 2q-25 2 -25 24
q0 16 21 31l303 221q35 29 67 29q51 0 80 -4q33 -5 33 -27q0 -20 -23 -35z" />
    <glyph glyph-name="Lcommaaccent" unicode="&#x13b;" horiz-adv-x="1077" 
d="M901 0h-588q-157 0 -157 121q0 42 10 86l258 1206q8 41 45 41h49q31 0 31 -27q0 -1 -6 -38l-252 -1168q-6 -37 -6 -49q0 -61 63 -61h574q32 0 32 -27q0 -16 -10 -57q-6 -27 -43 -27zM524 -139h39q39 0 39 -37t-20 -96q-56 -165 -164 -248q-31 -23 -39 -23q-15 0 -33 15
q-16 10 -16 26q0 12 18 35q104 116 127 274q6 54 49 54z" />
    <glyph glyph-name="lcommaaccent" unicode="&#x13c;" horiz-adv-x="512" 
d="M512 1483l-260 -1227q-10 -49 -10 -80q0 -76 110 -86q27 -2 27 -29q0 -29 -10 -49q-7 -18 -41 -18q-84 0 -144 36q-59 35 -59 115q0 43 12 109l262 1241q6 37 39 37h47q31 0 31 -27l-2 -10q0 -3 -1 -5t-1 -7zM203 -139h39q39 0 39 -37q0 -34 -21 -96q-56 -165 -164 -248
q-31 -23 -39 -23q-14 0 -32 15q-17 11 -17 26q0 11 19 35q104 116 127 274q6 54 49 54z" />
    <glyph glyph-name="Lcaron" unicode="&#x13d;" horiz-adv-x="1077" 
d="M901 0h-588q-157 0 -157 121q0 42 10 86l258 1206q8 41 45 41h49q31 0 31 -27q0 -1 -6 -38l-252 -1168q-6 -37 -6 -49q0 -61 63 -61h574q32 0 32 -27q0 -16 -10 -57q-6 -27 -43 -27zM850 1450h39q39 0 39 -37q0 -35 -21 -96q-51 -152 -164 -248q-22 -22 -41 -22
q-16 0 -30 14q-17 12 -17 26q0 16 19 35q104 112 127 275q6 53 49 53z" />
    <glyph glyph-name="lcaron" unicode="&#x13e;" horiz-adv-x="512" 
d="M512 1483l-260 -1227q-10 -49 -10 -80q0 -76 110 -86q27 -2 27 -29q0 -29 -10 -49q-7 -18 -41 -18q-84 0 -144 36q-59 35 -59 115q0 43 12 109l262 1241q6 37 39 37h47q31 0 31 -27l-2 -10q0 -3 -1 -5t-1 -7zM764 1530h39q39 0 39 -37q0 -35 -21 -96q-51 -152 -164 -248
q-23 -23 -41 -23q-15 0 -30 15q-17 12 -17 26q0 16 19 35q104 112 127 275q6 53 49 53z" />
    <glyph glyph-name="Ldot" unicode="&#x13f;" horiz-adv-x="1077" 
d="M901 0h-588q-157 0 -157 121q0 42 10 86l258 1204q8 41 45 41h49q31 0 31 -27q0 -1 -6 -39l-252 -1165q-6 -37 -6 -49q0 -61 63 -61h574q32 0 32 -27q0 -16 -10 -57q-6 -27 -43 -27zM932 729q0 -66 -37 -96q-21 -21 -61 -21q-78 0 -78 66q0 57 35 92q23 23 67 23
q74 0 74 -64z" />
    <glyph glyph-name="ldot" unicode="&#x140;" horiz-adv-x="673" 
d="M520 1483l-260 -1227q-10 -49 -10 -80q0 -76 110 -86q25 -2 25 -31q0 -27 -10 -47q-7 -18 -41 -18q-84 0 -144 36q-59 35 -59 115q0 53 14 109l261 1241q10 37 38 37h50q28 0 28 -27q0 -6 -2 -22zM709 727q0 -59 -33 -92q-24 -21 -62 -21q-75 0 -75 64q0 58 30 88
q25 25 68 25q72 0 72 -64z" />
    <glyph glyph-name="Lslash" unicode="&#x141;" horiz-adv-x="1077" 
d="M901 0h-588q-157 0 -157 121q0 42 10 86l72 340l-142 -80q-11 -6 -24 -6t-29 28q-16 29 -16 43q0 15 18 27l221 125l158 729q8 41 45 41h49q31 0 31 -27q0 -1 -6 -38l-135 -627l307 172q13 8 26 8t29 -24q18 -30 18 -44q0 -16 -18 -26l-393 -221l-86 -406q-6 -37 -6 -49
q0 -61 63 -61h574q32 0 32 -27q0 -16 -10 -57q-6 -27 -43 -27z" />
    <glyph glyph-name="lslash" unicode="&#x142;" horiz-adv-x="512" 
d="M512 1483l-141 -670l118 64q16 8 27 8q10 0 27 -29q14 -25 14 -39q0 -13 -18 -24l-195 -105l-92 -432q-10 -49 -10 -80q0 -76 110 -86q27 -2 27 -29q0 -29 -10 -49q-7 -18 -41 -18q-84 0 -144 36q-59 35 -59 115q0 43 12 109l78 367l-115 -60q-16 -8 -26 -8q-8 0 -25 25
q-16 29 -16 43t22 24l185 98l159 752q6 37 39 37h47q31 0 31 -27l-2 -10q0 -3 -1 -5t-1 -7z" />
    <glyph glyph-name="Nacute" unicode="&#x143;" horiz-adv-x="1437" 
d="M250 35q-8 -41 -43 -41h-47q-33 0 -33 29q0 5 4 26l281 1309q21 96 100 96h33q35 0 48 -14t28 -58q310 -893 415 -1245q26 127 271 1274q7 43 45 43h43q32 0 32 -27q0 -8 -6 -38l-280 -1317q-18 -82 -84 -82h-29q-37 0 -52 15t-30 56q-404 1187 -426 1260zM971 1581
q-27 -20 -64 -20q-35 0 -51 2q-25 2 -25 24q0 16 21 31l303 221q38 29 68 29q51 0 80 -4q32 -4 32 -27q0 -20 -22 -35z" />
    <glyph glyph-name="nacute" unicode="&#x144;" horiz-adv-x="1146" 
d="M209 33q-6 -39 -43 -39h-43q-33 0 -33 26q0 11 6 35l166 774q21 90 86 119q175 86 426 86q108 0 184 -40t76 -132q0 -78 -26 -192l-136 -637q-6 -39 -41 -39h-45q-30 0 -30 26q0 7 6 37l135 623q16 76 16 133q0 117 -186 117q-156 0 -289 -58q-32 -17 -45 -30
q-15 -16 -26 -64zM707 1208q-22 -22 -52 -22q-28 0 -43 6q-18 6 -18 22q0 17 16 33l242 262q29 31 63 31q40 0 64 -6q22 -6 22 -25q0 -16 -18 -34z" />
    <glyph glyph-name="Ncommaaccent" unicode="&#x145;" horiz-adv-x="1437" 
d="M250 35q-8 -41 -43 -41h-47q-33 0 -33 29q0 5 4 26l281 1309q21 96 100 96h33q35 0 48 -14t28 -58q310 -893 415 -1245q26 127 271 1274q7 43 45 43h43q32 0 32 -27q0 -8 -6 -38l-280 -1317q-18 -82 -84 -82h-29q-37 0 -52 15t-30 56q-404 1187 -426 1260zM602 -139h39
q39 0 39 -37q0 -34 -21 -96q-57 -166 -163 -248q-31 -23 -39 -23q-15 0 -33 15q-16 10 -16 26q0 12 18 35q104 116 127 274q6 54 49 54z" />
    <glyph glyph-name="ncommaaccent" unicode="&#x146;" horiz-adv-x="1146" 
d="M209 33q-6 -39 -43 -39h-43q-33 0 -33 26q0 11 6 35l166 774q21 90 86 119q175 86 426 86q108 0 184 -40t76 -132q0 -78 -26 -192l-136 -637q-6 -39 -41 -39h-45q-30 0 -30 26q0 7 6 37l135 623q16 76 16 133q0 117 -186 117q-156 0 -289 -58q-32 -17 -45 -30
q-15 -16 -26 -64zM442 -139h39q39 0 39 -37t-20 -96q-56 -165 -164 -248q-31 -23 -39 -23q-15 0 -33 15q-16 10 -16 26q0 12 18 35q104 116 127 274q6 54 49 54z" />
    <glyph glyph-name="Ncaron" unicode="&#x147;" horiz-adv-x="1437" 
d="M250 35q-8 -41 -43 -41h-47q-33 0 -33 29q0 5 4 26l281 1309q21 96 100 96h33q35 0 48 -14t28 -58q310 -893 415 -1245q26 127 271 1274q7 43 45 43h43q32 0 32 -27q0 -8 -6 -38l-280 -1317q-18 -82 -84 -82h-29q-37 0 -52 15t-30 56q-404 1187 -426 1260zM1219 1864
q30 0 51 -4q18 -4 18 -23q0 -15 -18 -31l-252 -207q-39 -32 -68 -32h-41q-27 0 -49 26l-182 215q-10 14 -10 25q0 19 24 25q19 4 43 4q25 0 53 -25l158 -151l209 149q38 29 64 29z" />
    <glyph glyph-name="ncaron" unicode="&#x148;" horiz-adv-x="1146" 
d="M209 33q-6 -39 -43 -39h-43q-33 0 -33 26q0 11 6 35l166 774q21 90 86 119q175 86 426 86q108 0 184 -40t76 -132q0 -78 -26 -192l-136 -637q-6 -39 -41 -39h-45q-30 0 -30 26q0 7 6 37l135 623q16 76 16 133q0 117 -186 117q-156 0 -289 -58q-32 -17 -45 -30
q-15 -16 -26 -64zM950 1544q30 0 45 -4q19 -5 19 -22q0 -11 -21 -35l-245 -273q-26 -32 -62 -32h-39q-32 0 -47 28l-139 281q-10 20 -10 33q0 16 20 22q14 2 41 2t43 -26l127 -224l217 222q24 28 51 28z" />
    <glyph glyph-name="napostrophe" unicode="&#x149;" horiz-adv-x="1146" 
d="M209 33q-6 -39 -43 -39h-43q-33 0 -33 26q0 11 6 35l166 774q21 90 86 119q175 86 426 86q108 0 184 -40t76 -132q0 -78 -26 -192l-136 -637q-6 -39 -41 -39h-45q-30 0 -30 26q0 7 6 37l135 623q16 76 16 133q0 117 -186 117q-156 0 -289 -58q-32 -17 -45 -30
q-15 -16 -26 -64zM502 1589h39q39 0 39 -37q0 -34 -21 -96q-56 -165 -164 -248q-29 -22 -39 -22q-15 0 -32 14q-17 11 -17 27q0 11 19 35q104 116 127 274q6 53 49 53z" />
    <glyph glyph-name="Eng" unicode="&#x14a;" horiz-adv-x="1437" 
d="M250 35q-11 -41 -43 -41h-47q-33 0 -33 29q0 5 4 26l281 1309q11 53 33 74q23 22 67 22h33q25 0 38 -9q12 -8 20 -21q7 -12 18 -42q364 -946 434 -1165q39 206 252 1192q7 43 45 43h43q32 0 32 -27q0 -9 -6 -39l-309 -1449q-44 -203 -156 -281q-62 -44 -153 -75
q-93 -32 -139 -32q-29 0 -35 25q-4 16 -4 43q0 19 9 27q10 8 38 14q121 27 188 70q92 56 129 206l15 64q-133 364 -261 713.5t-175.5 478.5t-47.5 131z" />
    <glyph glyph-name="eng" unicode="&#x14b;" horiz-adv-x="1146" 
d="M209 33q-6 -39 -43 -39h-43q-33 0 -33 26q0 11 6 35l166 774q21 90 86 119q175 86 426 86q108 0 184 -40t76 -132q0 -84 -20 -170l-172 -809q-37 -184 -133 -262q-55 -43 -144 -72q-87 -28 -149 -28q-27 0 -31 24q-2 16 -2 41q0 31 47 37q121 18 195 70q70 46 100 188
l172 799q16 67 16 133q0 117 -186 117q-156 0 -289 -58q-32 -17 -45 -30q-13 -16 -26 -64z" />
    <glyph glyph-name="Omacron" unicode="&#x14c;" horiz-adv-x="1392" 
d="M1341 1057q0 -216 -67 -488t-189 -417q-85 -99 -189 -138q-109 -41 -261 -41q-235 0 -357 95t-122 340q0 224 73 494t209 415q147 156 422 156q116 0 201 -16q81 -15 147 -58q69 -44 101 -128q32 -83 32 -214zM1214 1040q0 192 -80 257q-82 67 -286 67q-218 0 -330 -127
q-108 -121 -171 -369q-62 -244 -62 -446q0 -193 84 -265q85 -73 284 -73q120 0 201 32t143 115q98 126 158 379q59 248 59 430zM1186 1632h-508q-29 0 -29 25q0 26 10 55q7 33 43 33h504q31 0 31 -25q0 -26 -10 -59q-11 -29 -41 -29z" />
    <glyph glyph-name="omacron" unicode="&#x14d;" horiz-adv-x="1089" 
d="M1010 731q0 -125 -40 -303q-41 -182 -112 -287q-114 -168 -385 -168q-181 0 -279 69t-98 257q0 142 46 319q47 181 134 281q118 135 359 135q89 0 148 -9q58 -9 115 -39t84 -93q28 -65 28 -162zM891 713q0 131 -68 175t-205 44q-174 0 -258 -105q-68 -83 -105 -247
q-38 -169 -38 -273q0 -133 63 -182q62 -49 203 -49q211 0 291 137q51 88 84 248q33 159 33 252zM928 1257h-467q-29 0 -29 25q0 14 10 57q8 31 43 31h463q31 0 31 -24q0 -21 -10 -60q-8 -29 -41 -29z" />
    <glyph glyph-name="Obreve" unicode="&#x14e;" horiz-adv-x="1392" 
d="M1341 1057q0 -216 -67 -488t-189 -417q-85 -99 -189 -138q-109 -41 -261 -41q-235 0 -357 95t-122 340q0 224 73 494t209 415q147 156 422 156q116 0 201 -16q81 -15 147 -58q69 -44 101 -128q32 -83 32 -214zM1214 1040q0 192 -80 257q-82 67 -286 67q-218 0 -330 -127
q-108 -121 -171 -369q-62 -244 -62 -446q0 -193 84 -265q85 -73 284 -73q120 0 201 32t143 115q98 126 158 379q59 248 59 430zM1200 1858q16 0 37 -3q18 -6 18 -24q0 -29 -18 -78q-78 -194 -303 -194q-122 0 -190 56t-68 150q0 45 6 66q7 22 29 24q1 0 3 0.5t5.5 1t6.5 0.5
q8 1 17 1q27 0 27 -29q0 -18 4 -51q15 -113 170 -113q96 0 146 43q51 44 75 125q8 25 35 25z" />
    <glyph glyph-name="obreve" unicode="&#x14f;" horiz-adv-x="1089" 
d="M1010 731q0 -125 -40 -303q-41 -182 -112 -287q-114 -168 -385 -168q-181 0 -279 69t-98 257q0 142 46 319q47 181 134 281q118 135 359 135q89 0 148 -9q58 -9 115 -39t84 -93q28 -65 28 -162zM891 713q0 131 -68 175t-205 44q-174 0 -258 -105q-68 -83 -105 -247
q-38 -169 -38 -273q0 -133 63 -182q62 -49 203 -49q211 0 291 137q51 88 84 248q33 159 33 252zM934 1475q23 0 37 -2q16 -6 16 -25q0 -26 -18 -76q-78 -198 -293 -198q-124 0 -183 55q-61 56 -61 145q0 40 8 70q8 24 23 29q10 2 37 2q24 0 24 -23q0 -11 -1 -24t-1 -25
q0 -125 162 -125q93 0 140 44q46 43 75 128q8 25 35 25z" />
    <glyph glyph-name="Ohungarumlaut" unicode="&#x150;" horiz-adv-x="1392" 
d="M1341 1057q0 -216 -67 -488t-189 -417q-85 -99 -189 -138q-109 -41 -261 -41q-235 0 -357 95t-122 340q0 224 73 494t209 415q147 156 422 156q116 0 201 -16q81 -15 147 -58q69 -44 101 -128q32 -83 32 -214zM1214 1040q0 192 -80 257q-82 67 -286 67q-218 0 -330 -127
q-108 -121 -171 -369q-62 -244 -62 -446q0 -193 84 -265q85 -73 284 -73q120 0 201 32t143 115q98 126 158 379q59 248 59 430zM774 1581q-27 -20 -61 -20q-31 0 -47 2q-25 2 -25 24q0 15 21 33l296 221q33 27 68 27q44 0 66 -6q30 -6 30 -27q0 -17 -20 -33zM1122 1581
q-23 -20 -61 -20q-31 0 -47 2q-23 2 -23 24q0 20 19 33l299 221q39 27 67 27q42 0 66 -6q28 -4 28 -27q0 -18 -18 -33z" />
    <glyph glyph-name="ohungarumlaut" unicode="&#x151;" horiz-adv-x="1089" 
d="M1010 731q0 -125 -40 -303q-41 -182 -112 -287q-114 -168 -385 -168q-181 0 -279 69t-98 257q0 142 46 319q47 181 134 281q118 135 359 135q89 0 148 -9q58 -9 115 -39t84 -93q28 -65 28 -162zM891 713q0 131 -68 175t-205 44q-174 0 -258 -105q-68 -83 -105 -247
q-38 -169 -38 -273q0 -133 63 -182q62 -49 203 -49q211 0 291 137q51 88 84 248q33 159 33 252zM575 1208q-22 -22 -49 -22q-22 0 -37 6q-18 6 -18 25q0 14 16 30l240 262q29 31 61 31q31 0 58 -6q20 -6 20 -25q0 -18 -16 -34zM870 1208q-22 -22 -49 -22q-22 0 -37 6
q-18 6 -18 25q0 10 16 30l242 262q31 31 59 31q31 0 58 -6q20 -6 20 -25q0 -18 -16 -34z" />
    <glyph glyph-name="OE" unicode="&#x152;" horiz-adv-x="1984" 
d="M1802 0h-612q-72 0 -108 25q-33 23 -35 84q0 20 10 79q-66 -112 -166 -163q-102 -52 -258 -52q-235 0 -357 95q-120 93 -120 340q0 224 72 489t208 412q146 155 422 155q185 0 285 -53q98 -52 121 -190l16 59q27 94 67 130q41 36 138 36h559q35 0 35 -25q0 -17 -11 -59
q-6 -27 -45 -27h-546q-69 0 -86 -80l-97 -446h572q32 0 32 -25q0 -14 -10 -57q-8 -27 -45 -27h-571l-103 -479q-8 -30 -8 -51q0 -59 64 -59h598q35 0 35 -27q0 -2 -13 -57q-6 -27 -43 -27zM1186 1028q0 188 -74 257t-266 69q-220 0 -328 -125q-110 -122 -172 -366
q-61 -241 -61 -441q0 -193 82 -265q84 -73 278 -73q211 0 324 147q96 121 157 372q60 248 60 425z" />
    <glyph glyph-name="oe" unicode="&#x153;" horiz-adv-x="1802" 
d="M862 197q-99 -224 -397 -224q-183 0 -276 69t-93 257q0 145 46 322q47 179 134 278q118 135 353 135q153 0 238 -43q86 -44 108 -176q141 219 416 219q305 0 305 -264q0 -109 -27 -223q-11 -48 -29 -60q-12 -12 -41 -12h-636q-13 -62 -13 -145q0 -137 71 -196
q70 -58 212 -58q106 0 229 33q43 14 56 14q19 0 24 -17q12 -38 12 -45q0 -26 -43 -41q-136 -47 -307 -47q-144 0 -233 60q-88 60 -109 164zM877 713q0 132 -64 176q-62 43 -201 43q-168 0 -252 -105q-68 -83 -105 -247q-38 -169 -38 -273q0 -133 59 -182t199 -49
q205 0 285 137q51 85 84 248q33 162 33 252zM981 573h578q24 83 24 189q0 86 -48 129q-47 43 -167 43q-163 0 -268 -111q-89 -95 -119 -250z" />
    <glyph glyph-name="Racute" unicode="&#x154;" horiz-adv-x="1241" 
d="M252 35q-6 -41 -43 -41h-49q-33 0 -33 29q0 7 4 26l262 1217q21 98 65 139t144 41h133q255 0 348 -43q142 -62 142 -254q0 -177 -81 -305q-80 -126 -253 -170l-33 -8l209 -598q10 -33 10 -41q0 -21 -24 -29q-13 -4 -64 -4q-30 0 -45 41l-207 616q-67 -6 -145 -6h-209z
M406 752h196q210 0 311 43q181 72 181 338q0 127 -90 172q-64 32 -283 32h-113q-47 0 -66 -19t-30 -67zM840 1581q-27 -20 -64 -20q-35 0 -51 2q-25 2 -25 24q0 16 21 31l303 221q38 29 68 29q50 0 79 -4q33 -4 33 -27q0 -20 -22 -35z" />
    <glyph glyph-name="racute" unicode="&#x155;" horiz-adv-x="712" 
d="M209 33q-6 -39 -43 -39h-45q-31 0 -31 26q0 7 6 37l164 762q18 79 66 119q50 39 144 69q91 29 192 29q68 0 102 -6q18 -6 18 -29q0 -29 -10 -55q-6 -22 -33 -22q-15 0 -34 1t-41 1q-154 0 -228 -45q-31 -19 -47 -39q-14 -22 -22 -66zM571 1208q-22 -22 -51 -22
q-28 0 -43 6q-18 6 -18 22q0 17 16 33l242 262q29 31 63 31q40 0 64 -6q22 -6 22 -25q0 -16 -18 -34z" />
    <glyph glyph-name="Rcommaaccent" unicode="&#x156;" horiz-adv-x="1241" 
d="M252 35q-6 -41 -43 -41h-49q-33 0 -33 29q0 7 4 26l262 1217q21 98 65 139t144 41h133q255 0 348 -43q142 -62 142 -254q0 -177 -81 -305q-80 -126 -253 -170l-33 -8l209 -598q10 -33 10 -41q0 -21 -24 -29q-13 -4 -64 -4q-30 0 -45 41l-207 616q-67 -6 -145 -6h-209z
M406 752h196q210 0 311 43q181 72 181 338q0 127 -90 172q-64 32 -283 32h-113q-47 0 -66 -19t-30 -67zM559 -139h39q39 0 39 -37q0 -34 -21 -96q-57 -166 -163 -248q-31 -23 -39 -23q-15 0 -33 15q-16 10 -16 26q0 12 18 35q104 116 127 274q6 54 49 54z" />
    <glyph glyph-name="rcommaaccent" unicode="&#x157;" horiz-adv-x="712" 
d="M209 33q-6 -39 -43 -39h-45q-31 0 -31 26q0 7 6 37l164 762q18 79 66 119q50 39 144 69q91 29 192 29q68 0 102 -6q18 -6 18 -29q0 -29 -10 -55q-6 -22 -33 -22q-15 0 -34 1t-41 1q-154 0 -228 -45q-31 -19 -47 -39q-14 -22 -22 -66zM113 -139h39q38 0 38 -37t-20 -96
q-56 -165 -164 -248q-31 -23 -39 -23q-15 0 -33 15q-16 10 -16 26q0 11 19 35q103 115 126 274q6 54 50 54z" />
    <glyph glyph-name="Rcaron" unicode="&#x158;" horiz-adv-x="1241" 
d="M252 35q-6 -41 -43 -41h-49q-33 0 -33 29q0 7 4 26l262 1217q21 98 65 139t144 41h133q255 0 348 -43q142 -62 142 -254q0 -177 -81 -305q-80 -126 -253 -170l-33 -8l209 -598q10 -33 10 -41q0 -21 -24 -29q-13 -4 -64 -4q-30 0 -45 41l-207 616q-67 -6 -145 -6h-209z
M406 752h196q210 0 311 43q181 72 181 338q0 127 -90 172q-64 32 -283 32h-113q-47 0 -66 -19t-30 -67zM1059 1864q30 0 51 -4q18 -4 18 -23q0 -15 -18 -31l-252 -207q-39 -32 -67 -32h-41q-28 0 -50 26l-182 215q-10 14 -10 25q0 19 24 25q19 4 43 4q26 0 54 -25l157 -151
l209 149q38 29 64 29z" />
    <glyph glyph-name="rcaron" unicode="&#x159;" horiz-adv-x="712" 
d="M209 33q-6 -39 -43 -39h-45q-31 0 -31 26q0 7 6 37l164 762q18 79 66 119q50 39 144 69q91 29 192 29q68 0 102 -6q18 -6 18 -29q0 -29 -10 -55q-6 -22 -33 -22q-15 0 -34 1t-41 1q-154 0 -228 -45q-31 -19 -47 -39q-14 -22 -22 -66zM799 1544q30 0 45 -4q18 -4 18 -22
q0 -12 -20 -35l-246 -273q-26 -32 -61 -32h-39q-32 0 -47 28l-140 281q-10 20 -10 33q0 16 20 22q14 2 41 2t43 -26l127 -224l218 222q24 28 51 28z" />
    <glyph glyph-name="Sacute" unicode="&#x15a;" horiz-adv-x="1122" 
d="M737 739q271 -99 271 -327q0 -439 -529 -439q-218 0 -377 72q-32 15 -32 35q0 22 20 61q12 25 39 25q17 0 49 -16q139 -64 314 -64q185 0 286 68t101 233q0 51 -12 86q-12 36 -64 83q-50 46 -156 91l-168 72q-225 96 -225 328q0 426 516 426q158 0 307 -46q29 -8 29 -34
q0 -28 -14 -60q-10 -22 -33 -22q-22 0 -51 10q-135 41 -269 41q-356 0 -356 -299q0 -88 44 -150q43 -60 167 -112zM731 1581q-27 -20 -63 -20t-52 2q-24 1 -24 24q0 17 20 31l303 221q35 29 68 29q51 0 80 -4q33 -4 33 -27q0 -20 -23 -35z" />
    <glyph glyph-name="sacute" unicode="&#x15b;" horiz-adv-x="843" 
d="M541 522q190 -69 190 -223q0 -139 -92 -231q-95 -95 -326 -95q-172 0 -288 54q-23 11 -23 26q0 23 21 60q12 22 32 22q13 0 37 -12q96 -45 238 -45q174 0 231 61q51 57 51 137q0 53 -32 86q-34 35 -138 74l-129 47q-86 34 -131 92q-47 61 -47 134q0 161 109 247
q100 76 305 76q127 0 227 -28q31 -8 31 -31q0 -17 -12 -58q-7 -20 -31 -20q-18 0 -33 6q-124 29 -207 29q-149 0 -207 -47q-63 -49 -63 -156q0 -96 160 -158zM524 1208q-22 -22 -51 -22q-27 0 -43 6q-18 6 -18 22q0 17 16 33l242 262q29 31 63 31q40 0 64 -6q22 -6 22 -25
q0 -16 -18 -34z" />
    <glyph glyph-name="Scircumflex" unicode="&#x15c;" horiz-adv-x="1122" 
d="M737 739q271 -99 271 -327q0 -439 -529 -439q-218 0 -377 72q-32 15 -32 35q0 22 20 61q12 25 39 25q17 0 49 -16q139 -64 314 -64q185 0 286 68t101 233q0 51 -12 86q-12 36 -64 83q-50 46 -156 91l-168 72q-225 96 -225 328q0 426 516 426q158 0 307 -46q29 -8 29 -34
q0 -28 -14 -60q-10 -22 -33 -22q-22 0 -51 10q-135 41 -269 41q-356 0 -356 -299q0 -88 44 -150q43 -60 167 -112zM510 1559q-32 0 -51 4q-19 6 -19 20q0 17 19 33l252 209q39 30 67 30h39q31 0 51 -26l181 -213q10 -10 10 -25q0 -18 -23 -26q-19 -4 -43 -4q-27 0 -53 26
l-160 150l-209 -148q-44 -30 -61 -30z" />
    <glyph glyph-name="scircumflex" unicode="&#x15d;" horiz-adv-x="843" 
d="M541 522q190 -69 190 -223q0 -139 -92 -231q-95 -95 -326 -95q-172 0 -288 54q-23 11 -23 26q0 23 21 60q12 22 32 22q13 0 37 -12q96 -45 238 -45q174 0 231 61q51 57 51 137q0 53 -32 86q-34 35 -138 74l-129 47q-86 34 -131 92q-47 61 -47 134q0 161 109 247
q100 76 305 76q127 0 227 -28q31 -8 31 -31q0 -17 -12 -58q-7 -20 -31 -20q-18 0 -33 6q-124 29 -207 29q-149 0 -207 -47q-63 -49 -63 -156q0 -96 160 -158zM324 1169q-27 0 -45 5q-19 6 -19 22q0 14 21 35l247 274q28 31 60 31h45q28 0 43 -29l139 -282q8 -18 8 -31
q0 -19 -20 -20q-23 -5 -39 -5q-28 0 -45 29l-127 223l-217 -221q-31 -31 -51 -31z" />
    <glyph glyph-name="Scedilla" unicode="&#x15e;" horiz-adv-x="1122" 
d="M498 -131q176 -2 176 -152q0 -118 -70 -170q-69 -51 -203 -51q-56 0 -88 8q-26 6 -26 27q0 18 6 39q7 27 29 27q11 0 34 -5q21 -4 66 -4q65 0 101 25q34 24 34 86q0 78 -104 78h-29q-33 0 -33 30q0 17 14 58l39 108q-195 6 -342 72q-32 15 -32 35q0 22 20 61q12 25 39 25
q17 0 49 -16q139 -64 314 -64q185 0 286 68t101 233q0 51 -12 86q-12 36 -64 83q-50 46 -156 91l-168 72q-225 96 -225 328q0 426 516 426q158 0 307 -46q29 -8 29 -34q0 -28 -14 -60q-10 -22 -33 -22q-22 0 -51 10q-135 41 -269 41q-356 0 -356 -299q0 -88 44 -150
q43 -60 167 -112l143 -62q271 -99 271 -327q0 -419 -478 -437z" />
    <glyph glyph-name="scedilla" unicode="&#x15f;" horiz-adv-x="843" 
d="M348 -127q172 -1 172 -145q0 -213 -266 -213q-61 0 -90 8q-23 6 -23 26q0 16 6 37q8 23 31 23q12 0 45 -4q30 -2 51 -2q67 0 99 22q33 23 33 84q0 76 -101 76h-29q-32 0 -32 29q0 19 14 55l37 104q-163 5 -270 54q-23 11 -23 26q0 23 21 60q12 22 32 22q13 0 37 -12
q96 -45 238 -45q174 0 231 61q51 57 51 137q0 53 -32 86q-34 35 -138 74l-129 47q-86 34 -131 92q-47 61 -47 134q0 161 109 247q100 76 305 76q127 0 227 -28q31 -8 31 -31q0 -17 -12 -58q-7 -20 -31 -20q-18 0 -33 6q-124 29 -207 29q-149 0 -207 -47q-63 -49 -63 -156
q0 -96 160 -158l127 -47q190 -69 190 -223q0 -139 -92 -231q-81 -81 -258 -93z" />
    <glyph glyph-name="Scaron" unicode="&#x160;" horiz-adv-x="1122" 
d="M737 739q271 -99 271 -327q0 -439 -529 -439q-218 0 -377 72q-32 15 -32 35q0 22 20 61q12 25 39 25q17 0 49 -16q139 -64 314 -64q185 0 286 68t101 233q0 51 -12 86q-12 36 -64 83q-50 46 -156 91l-168 72q-225 96 -225 328q0 426 516 426q158 0 307 -46q29 -8 29 -34
q0 -28 -14 -60q-10 -22 -33 -22q-22 0 -51 10q-135 41 -269 41q-356 0 -356 -299q0 -88 44 -150q43 -60 167 -112zM1038 1864q31 0 52 -4q18 -4 18 -23q0 -15 -18 -31l-252 -207q-39 -32 -68 -32h-41q-27 0 -49 26l-182 215q-11 16 -11 25q0 19 25 25q19 4 43 4q25 0 53 -25
l158 -151l209 149q38 29 63 29z" />
    <glyph glyph-name="scaron" unicode="&#x161;" horiz-adv-x="843" 
d="M541 522q190 -69 190 -223q0 -139 -92 -231q-95 -95 -326 -95q-172 0 -288 54q-23 11 -23 26q0 23 21 60q12 22 32 22q13 0 37 -12q96 -45 238 -45q174 0 231 61q51 57 51 137q0 53 -32 86q-34 35 -138 74l-129 47q-86 34 -131 92q-47 61 -47 134q0 161 109 247
q100 76 305 76q127 0 227 -28q31 -8 31 -31q0 -17 -12 -58q-7 -20 -31 -20q-18 0 -33 6q-124 29 -207 29q-149 0 -207 -47q-63 -49 -63 -156q0 -96 160 -158zM803 1544q30 0 45 -4q18 -4 18 -22q0 -12 -20 -35l-246 -273q-26 -32 -61 -32h-39q-32 0 -47 28l-140 281
q-10 20 -10 33q0 16 21 22q14 2 41 2t43 -26l127 -224l217 222q24 28 51 28z" />
    <glyph glyph-name="uni0162" unicode="&#x162;" horiz-adv-x="1134" 
d="M455 -131q176 -2 176 -152q0 -118 -70 -170q-69 -51 -203 -51q-56 0 -88 8q-26 6 -26 27q0 18 6 39q8 27 29 27q11 0 34 -5q21 -4 66 -4q65 0 101 25q34 24 34 86q0 78 -104 78h-29q-33 0 -33 30q0 17 14 58l48 133q-13 5 -13 22q0 14 4 29l277 1286h-416q-31 0 -31 25
q0 8 9 55q5 31 45 31h948q35 0 35 -21q0 -16 -8 -59q-8 -31 -46 -31h-413l-279 -1300q-11 -35 -26 -39z" />
    <glyph glyph-name="uni0163" unicode="&#x163;" horiz-adv-x="651" 
d="M338 -127q172 -1 172 -145q0 -213 -266 -213q-61 0 -90 8q-23 6 -23 26q0 16 6 37q8 23 31 23q12 0 45 -4q30 -2 51 -2q66 0 98 22q33 23 33 84q0 76 -100 76h-29q-33 0 -33 29q0 16 15 55l53 147q-115 56 -115 193q0 62 25 184l111 510h-119q-27 0 -27 21q0 18 8 53
q6 29 43 29h115q5 33 59 241q11 41 39 41h43q27 0 27 -24q0 -15 -6 -39l-45 -219h209q32 0 32 -25q0 -17 -8 -47q-6 -31 -45 -31h-209l-116 -536q-15 -66 -15 -125q0 -83 55 -117q45 -28 164 -39q35 -5 35 -31q0 -21 -8 -47q-10 -26 -47 -26q-88 4 -127 12z" />
    <glyph glyph-name="Tcaron" unicode="&#x164;" horiz-adv-x="1134" 
d="M522 35q-11 -41 -41 -41h-53q-31 0 -31 26q0 14 4 29l277 1286h-416q-31 0 -31 25q0 8 9 55q5 31 45 31h948q35 0 35 -21q0 -16 -8 -59q-8 -31 -46 -31h-413zM1042 1864q31 0 52 -4q18 -4 18 -23q0 -15 -18 -31l-252 -207q-39 -32 -68 -32h-41q-27 0 -49 26l-182 215
q-10 14 -10 25q0 19 24 25q19 4 43 4q25 0 53 -25l158 -151l209 149q38 29 63 29z" />
    <glyph glyph-name="tcaron" unicode="&#x165;" horiz-adv-x="651" 
d="M438 903l-116 -536q-15 -66 -15 -125q0 -83 55 -117q45 -28 164 -39q35 -5 35 -31q0 -21 -8 -47q-10 -26 -47 -26q-143 1 -232 50q-88 48 -88 177q0 62 25 184l111 510h-119q-27 0 -27 21q0 18 8 53q6 29 43 29h115q5 33 59 241q11 41 39 41h43q27 0 27 -24q0 -15 -6 -39
l-45 -219h209q32 0 32 -25q0 -17 -8 -47q-6 -31 -45 -31h-209zM788 1505h39q39 0 39 -37t-20 -96q-51 -152 -164 -248q-22 -22 -41 -22q-17 0 -31 14q-16 12 -16 27q0 17 18 35q104 112 127 274q6 53 49 53z" />
    <glyph glyph-name="Tbar" unicode="&#x166;" horiz-adv-x="1134" 
d="M535 35q-11 -41 -41 -41h-54q-30 0 -30 26q0 14 4 29l153 715h-268q-29 0 -29 24q0 12 9 52q7 30 38 30h273l100 465h-416q-30 0 -30 25q0 13 8 55q5 31 45 31h948q35 0 35 -21q0 -16 -8 -59q-8 -31 -45 -31h-414l-100 -465h295q28 0 28 -22q0 -18 -10 -57
q-8 -27 -41 -27h-295z" />
    <glyph glyph-name="tbar" unicode="&#x167;" horiz-adv-x="651" 
d="M438 903l-47 -213h209q29 0 29 -24q0 -8 -8 -43q-5 -27 -41 -27h-209l-49 -229q-15 -66 -15 -125q0 -83 55 -117q45 -28 164 -39q35 -5 35 -31q0 -21 -8 -47q-10 -26 -47 -26q-143 1 -232 50q-88 48 -88 177q0 62 25 184l43 203h-94q-29 0 -29 22q0 20 6 44q6 28 39 28
h98l48 213h-119q-27 0 -27 21q0 18 8 53q6 29 43 29h115q5 33 59 241q11 41 39 41h43q27 0 27 -24q0 -15 -6 -39l-45 -219h209q32 0 32 -25q0 -17 -8 -47q-6 -31 -45 -31h-209z" />
    <glyph glyph-name="Utilde" unicode="&#x168;" horiz-adv-x="1386" 
d="M1374 1401l-178 -821q-33 -152 -40 -180q-14 -59 -40 -127q-28 -72 -59 -115q-73 -98 -185 -142q-110 -43 -290 -43q-108 0 -194 25q-82 24 -144 98t-62 193q0 103 39 286l178 838q7 39 47 39h48q30 0 30 -31q0 -4 -1 -8q-2 -8 -3 -13q-2 -10 -2 -11l-184 -865
q-27 -121 -27 -202q0 -238 295 -238q249 0 348 127q68 91 113 301l192 901q7 39 41 39h54q28 0 28 -25q0 -7 -4 -26zM672 1587q-22 0 -37 4q-17 6 -17 23q0 8 15 45q40 81 81 115t101 34q40 0 152 -61q86 -47 129 -47q53 0 96 82q18 37 41 37q26 0 41 -4q16 -6 16 -19
q0 -16 -14 -51q-62 -160 -182 -160q-62 0 -160 55q-99 54 -131 54q-49 0 -88 -76q-19 -31 -43 -31z" />
    <glyph glyph-name="utilde" unicode="&#x169;" horiz-adv-x="1146" 
d="M901 170q-21 -90 -86 -119q-169 -78 -414 -78q-121 0 -195 46q-75 47 -75 141q0 57 23 166l139 649q6 39 41 39h45q31 0 31 -27q0 -2 -7 -37l-135 -622q-16 -67 -16 -125q0 -127 194 -127q156 0 279 51q29 15 45 33q20 25 27 63l159 752q6 39 43 39h45q31 0 31 -27
q0 -5 -6 -35zM477 1237q-22 0 -37 4q-16 1 -16 21q0 19 16 45q76 151 178 151q42 0 142 -61q79 -47 117 -47q59 0 96 82q18 38 39 38q33 0 45 -6t12 -18q0 -25 -14 -53q-39 -89 -81 -123q-43 -35 -100 -35q-53 0 -147 55q-91 53 -119 53q-51 0 -88 -75q-19 -31 -43 -31z" />
    <glyph glyph-name="Umacron" unicode="&#x16a;" horiz-adv-x="1386" 
d="M1374 1401l-178 -821q-33 -152 -40 -180q-14 -59 -40 -127q-28 -72 -59 -115q-73 -98 -185 -142q-110 -43 -290 -43q-108 0 -194 25q-82 24 -144 98t-62 193q0 103 39 286l178 838q7 39 47 39h48q30 0 30 -31q0 -4 -1 -8q-2 -8 -3 -13q-2 -10 -2 -11l-184 -865
q-27 -121 -27 -202q0 -238 295 -238q249 0 348 127q68 91 113 301l192 901q7 39 41 39h54q28 0 28 -25q0 -7 -4 -26zM1153 1632h-508q-29 0 -29 25q0 24 11 55q7 33 43 33h504q30 0 30 -25q0 -26 -10 -59q-11 -29 -41 -29z" />
    <glyph glyph-name="umacron" unicode="&#x16b;" horiz-adv-x="1146" 
d="M901 170q-21 -90 -86 -119q-169 -78 -414 -78q-121 0 -195 46q-75 47 -75 141q0 57 23 166l139 649q6 39 41 39h45q31 0 31 -27q0 -2 -7 -37l-135 -622q-16 -67 -16 -125q0 -127 194 -127q156 0 279 51q29 15 45 33q20 25 27 63l159 752q6 39 43 39h45q31 0 31 -27
q0 -5 -6 -35zM942 1257h-467q-29 0 -29 25q0 10 11 57q8 31 43 31h463q30 0 30 -24q0 -21 -10 -60q-8 -29 -41 -29z" />
    <glyph glyph-name="Ubreve" unicode="&#x16c;" horiz-adv-x="1386" 
d="M1374 1401l-178 -821q-33 -152 -40 -180q-14 -59 -40 -127q-28 -72 -59 -115q-73 -98 -185 -142q-110 -43 -290 -43q-108 0 -194 25q-82 24 -144 98t-62 193q0 103 39 286l178 838q7 39 47 39h48q30 0 30 -31q0 -4 -1 -8q-2 -8 -3 -13q-2 -10 -2 -11l-184 -865
q-27 -121 -27 -202q0 -238 295 -238q249 0 348 127q68 91 113 301l192 901q7 39 41 39h54q28 0 28 -25q0 -7 -4 -26zM1167 1858q16 0 37 -3q19 -6 19 -24q0 -26 -19 -78q-78 -194 -303 -194q-121 0 -189 56q-69 57 -69 150q0 45 6 66q7 22 29 24q1 0 3 0.5t5.5 1t6.5 0.5
q8 1 18 1q26 0 26 -29q0 -18 4 -51q15 -113 170 -113q96 0 146 43q53 45 76 125q8 25 34 25z" />
    <glyph glyph-name="ubreve" unicode="&#x16d;" horiz-adv-x="1146" 
d="M901 170q-21 -90 -86 -119q-169 -78 -414 -78q-121 0 -195 46q-75 47 -75 141q0 57 23 166l139 649q6 39 41 39h45q31 0 31 -27q0 -2 -7 -37l-135 -622q-16 -67 -16 -125q0 -127 194 -127q156 0 279 51q29 15 45 33q20 25 27 63l159 752q6 39 43 39h45q31 0 31 -27
q0 -5 -6 -35zM961 1475q22 0 36 -2q17 -6 17 -25q0 -24 -19 -76q-78 -198 -293 -198q-124 0 -183 55q-60 55 -60 145q0 40 8 70q8 25 22 29q10 2 37 2q25 0 25 -23q0 -11 -1 -24t-1 -25q0 -125 162 -125q93 0 140 44q46 43 75 128q8 25 35 25z" />
    <glyph glyph-name="Uring" unicode="&#x16e;" horiz-adv-x="1386" 
d="M1374 1401l-178 -821q-33 -152 -40 -180q-14 -59 -40 -127q-28 -72 -59 -115q-73 -98 -185 -142q-110 -43 -290 -43q-108 0 -194 25q-82 24 -144 98t-62 193q0 103 39 286l178 838q7 39 47 39h48q30 0 30 -31q0 -4 -1 -8q-2 -8 -3 -13q-2 -10 -2 -11l-184 -865
q-27 -121 -27 -202q0 -238 295 -238q249 0 348 127q68 91 113 301l192 901q7 39 41 39h54q28 0 28 -25q0 -7 -4 -26zM1092 1712q0 -93 -56 -149t-149 -56q-77 0 -123 44q-45 43 -45 124q0 91 55 147t148 56q77 0 124 -44q46 -43 46 -122zM1020 1710q0 50 -29 77
q-30 28 -78 28q-53 0 -90 -36t-37 -98q0 -53 30 -83q29 -29 79 -29q55 0 90 36q35 37 35 105z" />
    <glyph glyph-name="uring" unicode="&#x16f;" horiz-adv-x="1146" 
d="M901 170q-21 -90 -86 -119q-169 -78 -414 -78q-121 0 -195 46q-75 47 -75 141q0 57 23 166l139 649q6 39 41 39h45q31 0 31 -27q0 -2 -7 -37l-135 -622q-16 -67 -16 -125q0 -127 194 -127q156 0 279 51q29 15 45 33q20 25 27 63l159 752q6 39 43 39h45q31 0 31 -27
q0 -5 -6 -35zM911 1397q0 -101 -57 -158t-156 -57q-81 0 -128 47q-46 46 -46 129q0 93 59 152t152 59q83 0 129 -45q47 -45 47 -127zM840 1395q0 53 -30 82q-29 28 -83 28q-56 0 -96 -38q-39 -37 -39 -103q0 -56 31 -89q30 -32 84 -32q58 0 96 38q37 37 37 114z" />
    <glyph glyph-name="Uhungarumlaut" unicode="&#x170;" horiz-adv-x="1386" 
d="M1374 1401l-178 -821q-33 -152 -40 -180q-14 -59 -40 -127q-28 -72 -59 -115q-73 -98 -185 -142q-110 -43 -290 -43q-108 0 -194 25q-82 24 -144 98t-62 193q0 103 39 286l178 838q7 39 47 39h48q30 0 30 -31q0 -4 -1 -8q-2 -8 -3 -13q-2 -10 -2 -11l-184 -865
q-27 -121 -27 -202q0 -238 295 -238q249 0 348 127q68 91 113 301l192 901q7 39 41 39h54q28 0 28 -25q0 -7 -4 -26zM750 1581q-27 -20 -62 -20q-31 0 -47 2q-25 2 -25 24q0 15 21 33l297 221q33 27 67 27q45 0 66 -6q31 -6 31 -27q0 -17 -21 -33zM1098 1581
q-23 -20 -62 -20q-31 0 -47 2q-22 1 -22 24q0 21 18 33l299 221q39 27 68 27q41 0 65 -6q29 -5 29 -27q0 -17 -19 -33z" />
    <glyph glyph-name="uhungarumlaut" unicode="&#x171;" horiz-adv-x="1146" 
d="M901 170q-21 -90 -86 -119q-169 -78 -414 -78q-121 0 -195 46q-75 47 -75 141q0 57 23 166l139 649q6 39 41 39h45q31 0 31 -27q0 -2 -7 -37l-135 -622q-16 -67 -16 -125q0 -127 194 -127q156 0 279 51q29 15 45 33q20 25 27 63l159 752q6 39 43 39h45q31 0 31 -27
q0 -5 -6 -35zM575 1208q-22 -22 -49 -22q-22 0 -37 6q-18 6 -18 25q0 14 16 30l240 262q29 31 61 31q31 0 58 -6q20 -6 20 -25q0 -18 -16 -34zM870 1208q-22 -22 -49 -22q-22 0 -37 6q-18 6 -18 25q0 10 16 30l242 262q31 31 59 31q31 0 58 -6q20 -6 20 -25q0 -18 -16 -34z
" />
    <glyph glyph-name="Uogonek" unicode="&#x172;" horiz-adv-x="1386" 
d="M1374 1401l-178 -821q-33 -152 -40 -180q-14 -59 -40 -127q-28 -72 -59 -115q-62 -87 -156 -130q-93 -43 -233 -53q-189 -124 -189 -254q0 -48 32 -75q31 -27 85 -27q25 0 55 3t35 3q24 0 25 -20q6 -30 6 -45q0 -21 -27 -27q-46 -12 -129 -12q-93 0 -145 47
q-51 46 -51 127q0 157 182 278q-365 17 -365 316q0 103 39 286l178 838q7 39 47 39h48q30 0 30 -31q0 -4 -1 -8q-2 -8 -3 -13q-2 -10 -2 -11l-184 -865q-27 -121 -27 -202q0 -238 295 -238q249 0 348 127q68 91 113 301l192 901q7 39 41 39h54q28 0 28 -25q0 -7 -4 -26z" />
    <glyph glyph-name="uogonek" unicode="&#x173;" horiz-adv-x="1146" 
d="M901 170q-18 -88 -90 -121q-87 -59 -121 -86q-48 -39 -93 -101q-46 -64 -46 -128q0 -94 111 -94q15 0 53 2q8 0 16 0.5t12 1t5 0.5q21 0 26 -23q6 -24 6 -39q-1 -22 -26 -28q-47 -11 -125 -11q-91 0 -140 45t-49 121q0 154 197 285q-91 -21 -236 -21q-121 0 -195 46
q-75 47 -75 141q0 57 23 166l139 649q6 39 41 39h45q31 0 31 -27q0 -2 -7 -37l-135 -622q-16 -67 -16 -125q0 -127 194 -127q156 0 279 51q29 15 45 33q20 25 27 63l159 752q6 39 43 39h45q31 0 31 -27q0 -5 -6 -35z" />
    <glyph glyph-name="Wcircumflex" unicode="&#x174;" horiz-adv-x="1873" 
d="M1094 1262q-109 -231 -615 -1205q-29 -63 -96 -63h-33q-65 0 -65 63q-24 911 -29 1311q0 37 2 53q6 26 27 27q25 4 63 4q33 0 33 -39q18 -979 18 -1286q95 203 615 1200q35 68 86 68h30q62 0 68 -68q86 -1016 96 -1202l566 1280q23 47 49 47q46 0 67 -4q19 -2 19 -25
q0 -13 -23 -59l-592 -1305q-30 -65 -92 -65h-31q-67 0 -71 65q-79 978 -92 1203zM893 1559q-32 0 -51 4q-19 6 -19 20q0 17 19 33l252 209q39 30 67 30h39q31 0 51 -26l181 -213q10 -10 10 -25q0 -18 -23 -26q-19 -4 -43 -4q-27 0 -53 26l-160 150l-209 -148
q-43 -30 -61 -30z" />
    <glyph glyph-name="wcircumflex" unicode="&#x175;" horiz-adv-x="1458" 
d="M811 834q-54 -114 -403 -777q-34 -63 -93 -63h-28q-58 0 -64 63l-67 873q-2 28 -2 43q0 29 28 35q50 6 60 6q14 0 20 -9q5 -8 10 -38q49 -621 58 -852q70 145 403 772q22 43 42 58q21 16 50 16h19q29 0 45 -14q14 -13 20 -56q63 -511 86 -778q89 203 404 848q16 32 24 41
q11 12 29 12q36 0 64 -6q18 -4 18 -23q0 -9 -25 -61l-424 -861q-35 -69 -90 -69h-30q-62 0 -68 63q-75 655 -86 777zM643 1169q-27 0 -45 5q-18 6 -18 22q0 15 20 35l248 274q28 31 59 31h45q28 0 43 -29l140 -282q8 -18 8 -31q0 -18 -21 -20q-23 -5 -39 -5q-28 0 -45 29
l-127 223l-217 -221q-31 -31 -51 -31z" />
    <glyph glyph-name="Ycircumflex" unicode="&#x176;" horiz-adv-x="1087" 
d="M514 37q-7 -43 -45 -43h-49q-31 0 -31 26q0 8 4 24t4 19l121 574l-295 727q-18 40 -18 55q0 19 20 29q12 6 70 6q26 0 41 -39q202 -494 260 -665q128 173 530 655q40 49 74 49q43 0 62 -4q18 -2 18 -20q0 -19 -31 -58l-608 -733zM512 1559q-32 0 -51 4q-19 6 -19 20
q0 17 19 33l252 209q39 30 67 30h39q31 0 51 -26l181 -213q10 -10 10 -25q0 -18 -23 -26q-19 -4 -43 -4q-27 0 -53 26l-160 150l-209 -148q-43 -30 -61 -30z" />
    <glyph glyph-name="ycircumflex" unicode="&#x177;" horiz-adv-x="1146" 
d="M758 49q-140 -76 -359 -76q-268 0 -268 191q0 64 23 162l139 651q7 37 43 37h43q31 0 31 -23q0 -20 -2 -28l-140 -639q-16 -74 -16 -127q0 -121 194 -121q164 0 283 51q29 15 45 37q14 21 25 69l157 742q6 39 43 39h45q31 0 31 -25q0 -12 -2 -20l-203 -949
q-37 -166 -82 -251q-135 -248 -647 -248q-41 0 -41 30q0 20 4 41q5 35 41 35q245 2 359 45q115 44 170 127q43 66 71 191zM492 1169q-28 0 -46 5q-18 6 -18 22q0 14 21 35l247 274q28 31 60 31h45q28 0 43 -29l139 -282q8 -18 8 -31q0 -19 -20 -20q-23 -5 -39 -5
q-28 0 -45 29l-127 223l-217 -221q-31 -31 -51 -31z" />
    <glyph glyph-name="Ydieresis" unicode="&#x178;" horiz-adv-x="1087" 
d="M514 37q-7 -43 -45 -43h-49q-31 0 -31 26q0 8 4 24t4 19l121 574l-295 727q-18 40 -18 55q0 19 20 29q12 6 70 6q26 0 41 -39q202 -494 260 -665q128 173 530 655q40 49 74 49q43 0 62 -4q18 -2 18 -20q0 -19 -31 -58l-608 -733zM666 1698q0 -59 -31 -88q-28 -23 -62 -23
q-71 0 -71 64q0 59 28 86q24 24 66 24q70 0 70 -63zM1044 1698q0 -60 -30 -88q-23 -23 -62 -23q-71 0 -71 64q0 59 28 86q24 24 66 24q69 0 69 -63z" />
    <glyph glyph-name="Zacute" unicode="&#x179;" horiz-adv-x="1181" 
d="M1022 0h-975q-74 0 -74 57q0 50 37 88l1090 1190h-795q-37 0 -37 27q0 18 6 47q7 37 52 37h862q69 0 69 -57q0 -48 -34 -86l-1096 -1192h909q39 0 39 -27q0 -24 -10 -55q-6 -29 -43 -29zM803 1581q-27 -20 -64 -20q-35 0 -51 2q-24 1 -24 24q0 17 20 31l303 221
q38 29 68 29q51 0 80 -4q32 -4 32 -27q0 -20 -22 -35z" />
    <glyph glyph-name="zacute" unicode="&#x17a;" horiz-adv-x="948" 
d="M776 0h-715q-65 0 -65 55q0 47 63 113l725 733h-579q-31 0 -31 21q0 9 10 53q8 31 45 31h637q70 0 70 -54q0 -48 -55 -104l-740 -744h656q28 0 28 -26q0 -13 -10 -49q-8 -29 -39 -29zM606 1208q-22 -22 -51 -22q-27 0 -43 6q-18 6 -18 22q0 17 16 33l242 262q29 31 63 31
q40 0 64 -6q22 -6 22 -25q0 -16 -18 -34z" />
    <glyph glyph-name="Zdotaccent" unicode="&#x17b;" horiz-adv-x="1181" 
d="M1022 0h-975q-74 0 -74 57q0 50 37 88l1090 1190h-795q-37 0 -37 27q0 18 6 47q7 37 52 37h862q69 0 69 -57q0 -48 -34 -86l-1096 -1192h909q39 0 39 -27q0 -24 -10 -55q-6 -29 -43 -29zM879 1698q0 -61 -33 -88q-23 -23 -62 -23q-71 0 -71 64q0 57 30 86q24 24 66 24
q70 0 70 -63z" />
    <glyph glyph-name="zdotaccent" unicode="&#x17c;" horiz-adv-x="948" 
d="M776 0h-715q-65 0 -65 55q0 47 63 113l725 733h-579q-31 0 -31 21q0 9 10 53q8 31 45 31h637q70 0 70 -54q0 -48 -55 -104l-740 -744h656q28 0 28 -26q0 -13 -10 -49q-8 -29 -39 -29zM684 1382q0 -63 -33 -90q-20 -20 -61 -20q-72 0 -72 61q0 57 31 86q25 25 65 25
q70 0 70 -62z" />
    <glyph glyph-name="Zcaron" unicode="&#x17d;" horiz-adv-x="1181" 
d="M1022 0h-975q-74 0 -74 57q0 50 37 88l1090 1190h-795q-37 0 -37 27q0 18 6 47q7 37 52 37h862q69 0 69 -57q0 -48 -34 -86l-1096 -1192h909q39 0 39 -27q0 -24 -10 -55q-6 -29 -43 -29zM1038 1864q31 0 52 -4q18 -4 18 -23q0 -15 -18 -31l-252 -207q-39 -32 -68 -32h-41
q-27 0 -49 26l-182 215q-11 16 -11 25q0 19 25 25q19 4 43 4q25 0 53 -25l158 -151l209 149q38 29 63 29z" />
    <glyph glyph-name="zcaron" unicode="&#x17e;" horiz-adv-x="948" 
d="M776 0h-715q-65 0 -65 55q0 47 63 113l725 733h-579q-31 0 -31 21q0 9 10 53q8 31 45 31h637q70 0 70 -54q0 -48 -55 -104l-740 -744h656q28 0 28 -26q0 -13 -10 -49q-8 -29 -39 -29zM840 1544q30 0 45 -4q18 -4 18 -22q0 -12 -20 -35l-246 -273q-26 -32 -62 -32h-38
q-33 0 -48 28l-139 281q-10 20 -10 33q0 16 20 22q14 2 41 2t43 -26l127 -224l217 222q24 28 52 28z" />
    <glyph glyph-name="longs" unicode="&#x17f;" horiz-adv-x="507" 
d="M207 33q-7 -39 -43 -39h-43q-31 0 -31 29q0 13 4 28l234 1092q45 214 135 287q125 108 354 108q43 0 43 -31q0 -19 -2 -43q-6 -30 -37 -30q-222 -6 -301 -103q-48 -55 -78 -198z" />
    <glyph glyph-name="florin" unicode="&#x192;" horiz-adv-x="933" 
d="M598 803l-139 -678q-29 -131 -56 -195q-28 -65 -71 -104q-83 -74 -242 -74q-67 0 -106 12q-17 6 -17 27q0 22 10 55q6 23 33 23q6 0 34 -4t60 -4q110 0 160 63q42 55 72 203l141 676h-178q-31 0 -31 24q0 20 6 41q8 31 48 31h174l32 152q40 193 134 284q83 74 243 74
q88 0 127 -12q21 -6 21 -31q0 -12 -13 -53q-6 -23 -32 -23q-1 0 -6 0.5t-16 2t-22 2.5q-45 5 -71 5q-121 0 -170 -65q-46 -64 -76 -201l-29 -135h240q29 0 29 -27q0 -25 -6 -43q-7 -26 -43 -26h-240z" />
    <glyph glyph-name="Aringacute" unicode="&#x1fa;" horiz-adv-x="1179" 
d="M991 1567q0 -121 -96 -162q9 -21 10 -37l178 -1290q4 -21 4 -45q0 -29 -20 -33q-17 -6 -66 -6q-18 0 -24 10q-5 9 -10 39l-64 436h-586l-245 -436q-27 -49 -54 -49q-60 0 -75 4q-15 6 -15 20q0 18 25 60l737 1292q17 27 31 45q-57 39 -57 121q0 78 49 126t129 48
q68 0 109 -38q40 -37 40 -105zM375 588h518q-63 458 -96 751q-144 -268 -422 -751zM881 1774q-30 -19 -52 -19t-38 2q-21 1 -21 19q0 12 14 26l220 183q29 22 59 22q40 0 65 -4q25 -2 25 -23q0 -18 -16 -30zM922 1567q0 39 -24 60q-25 22 -62 22q-43 0 -74 -28t-31 -77
q0 -43 24 -67q25 -25 64 -25q45 0 74 29t29 86z" />
    <glyph glyph-name="aringacute" unicode="&#x1fb;" horiz-adv-x="1067" 
d="M829 186q-16 -69 -36 -100q-23 -30 -66 -51q-135 -62 -346 -62q-159 0 -230 72q-71 73 -71 178q0 234 176 320q97 47 315 47q122 0 224 -12l18 84q18 78 18 145q0 121 -204 121q-127 0 -230 -25q-55 -16 -65 -16q-19 0 -25 20q-10 27 -10 45q0 27 37 37q141 45 303 45
q69 0 114 -7q46 -7 98 -26q50 -18 77 -59q26 -39 26 -102q0 -62 -24 -181zM778 487q-102 13 -215 13q-190 0 -268 -45q-100 -60 -100 -209q0 -172 213 -172q131 0 233 35q30 11 53 41q17 23 27 73zM895 1395q0 -99 -57 -157t-154 -58q-81 0 -128 47q-46 46 -46 129
q0 94 58 152q59 59 153 59q81 0 127 -45q47 -45 47 -127zM823 1393q0 54 -29 82t-83 28q-58 0 -96 -38q-37 -37 -37 -103q0 -58 30 -88q31 -31 84 -31q59 0 95 37q36 38 36 113zM729 1640q-22 -22 -47 -22q-30 0 -47 6q-14 6 -14 23q0 14 14 28l246 267q27 28 61 28
q40 0 64 -6q18 -6 18 -25q0 -14 -16 -30z" />
    <glyph glyph-name="AEacute" unicode="&#x1fc;" horiz-adv-x="1886" 
d="M92 39q-34 -43 -72 -43q-35 0 -65 2q-23 5 -23 25q0 15 31 51l1094 1255q61 70 100 93q41 24 105 24h686q32 0 32 -27q0 -16 -10 -57q-6 -27 -45 -27h-594l-114 -526h550q33 0 33 -25q0 -4 -10 -57q-4 -27 -45 -27h-551l-102 -477l-7 -51q0 -61 62 -61h577q33 0 33 -27
q0 -14 -8 -57q-7 -27 -45 -27h-594q-154 0 -154 121q0 37 11 86l61 289h-534zM582 606h469l155 721zM1548 1581q-27 -20 -63 -20q-35 0 -51 2q-25 2 -25 24q0 16 21 31l303 221q38 29 67 29q51 0 80 -4q33 -4 33 -27q0 -20 -23 -35z" />
    <glyph glyph-name="aeacute" unicode="&#x1fd;" horiz-adv-x="1693" 
d="M811 113q-173 -140 -426 -140q-157 0 -231 72t-74 184q0 108 37 179t129 118q106 56 332 56q128 0 219 -4l22 102q10 50 10 131q0 119 -208 119q-80 0 -224 -31q-57 -14 -65 -14q-18 0 -25 18q-10 23 -10 49t39 37q174 45 321 45q137 0 207 -38q71 -38 72 -138
q135 176 389 176q305 0 305 -264q0 -114 -28 -229q-6 -31 -23 -47q-13 -11 -41 -11h-647q-12 -73 -12 -159q0 -248 278 -248q127 0 244 37q33 10 51 10q19 0 25 -19q10 -29 10 -43q0 -26 -39 -38q-141 -50 -299 -50q-246 0 -338 140zM778 483q-62 2 -223 2q-202 0 -279 -53
q-81 -56 -81 -190q0 -75 52 -121q53 -47 169 -47q93 0 196 31t166 88q-16 51 -16 106q0 98 16 184zM911 582h582q25 83 25 174q0 87 -49 133q-48 45 -169 45q-307 0 -389 -352zM1004 1208q-22 -22 -52 -22q-26 0 -43 6q-18 6 -18 22q0 17 16 33l242 262q29 31 63 31
q40 0 64 -6q22 -6 22 -25q0 -16 -18 -34z" />
    <glyph glyph-name="Oslashacute" unicode="&#x1fe;" horiz-adv-x="1392" 
d="M172 -12q-12 -17 -31 -17q-17 0 -45 27q-14 11 -14 25q0 7 12 24l105 125q-43 89 -43 236q0 224 73 494t209 415q147 156 422 156q255 0 359 -82l84 100q15 16 26 16q12 0 23 -8q39 -34 39 -41q0 -13 -11 -26l-96 -115q57 -96 57 -260q0 -216 -67 -488t-189 -417
q-85 -99 -189 -138q-109 -41 -261 -41q-270 0 -379 115zM653 84q120 0 201 32t143 115q98 126 158 379q59 248 59 430q0 100 -22 166l-852 -1018q73 -104 313 -104zM285 422q0 -73 12 -133l840 1003q-78 72 -289 72q-218 0 -330 -127q-108 -121 -171 -369q-62 -244 -62 -446
zM918 1581q-27 -20 -64 -20q-35 0 -51 2q-25 2 -25 24q0 16 21 31l303 221q38 29 67 29q51 0 80 -4q33 -4 33 -27q0 -20 -22 -35z" />
    <glyph glyph-name="oslashacute" unicode="&#x1ff;" horiz-adv-x="1089" 
d="M119 -53q-15 -15 -25 -15q-12 0 -41 29q-14 14 -14 25q0 10 12 22l86 101q-41 73 -41 190q0 145 46 322q47 179 134 278q118 135 359 135q180 0 256 -43l82 94q12 15 24 15q9 0 25 -13q31 -25 31 -36q0 -14 -13 -27l-79 -94q49 -71 49 -199q0 -125 -40 -303
q-41 -182 -112 -287q-114 -168 -385 -168q-191 0 -276 66zM483 76q209 0 291 139q50 84 85 248q34 160 34 250q0 73 -21 114l-598 -698q56 -53 209 -53zM215 307q0 -65 10 -96l586 686q-61 37 -193 37q-174 0 -260 -107q-68 -79 -105 -246q-38 -169 -38 -274zM676 1208
q-22 -22 -51 -22q-27 0 -43 6q-19 6 -19 22t17 33l241 262q29 31 64 31q39 0 63 -6q23 -6 23 -25q0 -15 -19 -34z" />
    <glyph glyph-name="uni0218" unicode="&#x218;" horiz-adv-x="1122" 
d="M737 739q271 -99 271 -327q0 -439 -529 -439q-218 0 -377 72q-32 15 -32 35q0 22 20 61q12 25 39 25q17 0 49 -16q139 -64 314 -64q185 0 286 68t101 233q0 51 -12 86q-12 36 -64 83q-50 46 -156 91l-168 72q-225 96 -225 328q0 426 516 426q158 0 307 -46q29 -8 29 -34
q0 -28 -14 -60q-10 -22 -33 -22q-22 0 -51 10q-135 41 -269 41q-356 0 -356 -299q0 -88 44 -150q43 -60 167 -112zM481 -139h39q39 0 39 -37t-20 -96q-56 -165 -164 -248q-31 -23 -39 -23q-15 0 -33 15q-16 10 -16 26q0 12 18 35q104 116 127 274q6 54 49 54z" />
    <glyph glyph-name="uni0219" unicode="&#x219;" horiz-adv-x="843" 
d="M541 522q190 -69 190 -223q0 -139 -92 -231q-95 -95 -326 -95q-172 0 -288 54q-23 11 -23 26q0 23 21 60q12 22 32 22q13 0 37 -12q96 -45 238 -45q174 0 231 61q51 57 51 137q0 53 -32 86q-34 35 -138 74l-129 47q-86 34 -131 92q-47 61 -47 134q0 161 109 247
q100 76 305 76q127 0 227 -28q31 -8 31 -31q0 -17 -12 -58q-7 -20 -31 -20q-18 0 -33 6q-124 29 -207 29q-149 0 -207 -47q-63 -49 -63 -156q0 -96 160 -158zM311 -139h39q39 0 39 -37t-20 -96q-56 -165 -164 -248q-31 -23 -39 -23q-15 0 -33 15q-16 10 -16 26q0 12 18 35
q104 116 127 274q6 54 49 54z" />
    <glyph glyph-name="uni021A" unicode="&#x21a;" horiz-adv-x="1134" 
d="M522 35q-11 -41 -41 -41h-53q-31 0 -31 26q0 14 4 29l277 1286h-416q-31 0 -31 25q0 8 9 55q5 31 45 31h948q35 0 35 -21q0 -16 -8 -59q-8 -31 -46 -31h-413zM414 -139h39q39 0 39 -37q0 -34 -21 -96q-56 -165 -164 -248q-31 -23 -39 -23q-14 0 -32 15q-17 11 -17 26
q0 11 19 35q104 116 127 274q6 54 49 54z" />
    <glyph glyph-name="uni021B" unicode="&#x21b;" horiz-adv-x="651" 
d="M438 903l-116 -536q-15 -66 -15 -125q0 -83 55 -117q45 -28 164 -39q35 -5 35 -31q0 -21 -8 -47q-10 -26 -47 -26q-143 1 -232 50q-88 48 -88 177q0 62 25 184l111 510h-119q-27 0 -27 21q0 18 8 53q6 29 43 29h115q5 33 59 241q11 41 39 41h43q27 0 27 -24q0 -15 -6 -39
l-45 -219h209q32 0 32 -25q0 -17 -8 -47q-6 -31 -45 -31h-209zM309 -139h39q39 0 39 -37t-20 -96q-56 -165 -164 -248q-31 -23 -39 -23q-15 0 -33 15q-16 10 -16 26q0 12 18 35q104 116 127 274q6 54 49 54z" />
    <glyph glyph-name="circumflex" unicode="&#x2c6;" horiz-adv-x="403" 
d="M-16 1169q-27 0 -45 5q-19 6 -19 22q0 14 21 35l247 274q28 31 60 31h45q28 0 43 -29l139 -282q8 -18 8 -31q0 -19 -20 -20q-23 -5 -39 -5q-28 0 -45 29l-127 223l-217 -221q-31 -31 -51 -31z" />
    <glyph glyph-name="caron" unicode="&#x2c7;" horiz-adv-x="403" 
d="M420 1544q30 0 45 -4q18 -4 18 -22q0 -12 -20 -35l-246 -273q-26 -32 -61 -32h-39q-32 0 -47 28l-140 281q-10 20 -10 33q0 16 21 22q14 2 41 2t43 -26l127 -224l217 222q24 28 51 28z" />
    <glyph glyph-name="breve" unicode="&#x2d8;" horiz-adv-x="403" 
d="M426 1475q23 0 37 -2q16 -6 16 -25q0 -26 -18 -76q-78 -198 -293 -198q-124 0 -183 55q-61 56 -61 145q0 40 8 70q8 24 23 29q10 2 37 2q24 0 24 -23q0 -11 -1 -24t-1 -25q0 -125 162 -125q93 0 140 44q46 43 75 128q8 25 35 25z" />
    <glyph glyph-name="dotaccent" unicode="&#x2d9;" horiz-adv-x="403" 
d="M285 1382q0 -63 -33 -90q-20 -20 -62 -20q-71 0 -71 61q0 57 31 86q25 25 65 25q70 0 70 -62z" />
    <glyph glyph-name="ring" unicode="&#x2da;" horiz-adv-x="403" 
d="M395 1397q0 -101 -57 -158t-156 -57q-81 0 -128 47q-46 46 -46 129q0 93 59 152t152 59q83 0 129 -45q47 -45 47 -127zM324 1395q0 53 -30 82q-29 28 -83 28q-56 0 -96 -38q-39 -37 -39 -103q0 -58 30 -89q30 -32 84 -32q59 0 97 38q37 37 37 114z" />
    <glyph glyph-name="ogonek" unicode="&#x2db;" horiz-adv-x="403" 
d="M379 12q-240 -141 -240 -278q0 -94 111 -94q15 0 53 2q8 0 16 0.5t12 1t5 0.5q21 0 26 -23q7 -28 7 -39q-1 -22 -27 -28q-47 -11 -125 -11q-89 0 -139 45q-49 45 -49 121q0 100 62 169q64 72 175 134h113z" />
    <glyph glyph-name="tilde" unicode="&#x2dc;" horiz-adv-x="403" 
d="M-70 1237q-21 0 -36 4q-17 2 -17 21q0 17 17 45q76 151 178 151q41 0 141 -61q79 -47 117 -47q59 0 96 82q18 38 39 38q33 0 45 -6t12 -18q0 -25 -14 -53q-39 -89 -81 -123q-43 -35 -99 -35q-54 0 -148 55q-91 53 -119 53q-50 0 -88 -75q-19 -31 -43 -31z" />
    <glyph glyph-name="hungarumlaut" unicode="&#x2dd;" horiz-adv-x="403" 
d="M-39 1208q-22 -22 -49 -22q-22 0 -37 6q-18 6 -18 25q0 14 16 30l240 262q29 31 61 31q30 0 57 -6q21 -6 21 -25q0 -18 -16 -34zM256 1208q-22 -22 -49 -22q-22 0 -37 6q-18 6 -18 25q0 10 16 30l242 262q31 31 59 31q30 0 57 -6q21 -6 21 -25q0 -17 -17 -34z" />
    <glyph glyph-name="uni0394" unicode="&#x394;" horiz-adv-x="1312" 
d="M1229 74q6 -29 6 -41q0 -33 -41 -33h-1196q-29 0 -29 25q0 12 17 41l817 1288q22 32 53 32h74q31 0 37 -32zM868 1260q-112 -192 -718 -1149h944q-209 1044 -226 1149z" />
    <glyph glyph-name="uni03A9" unicode="&#x3a9;" horiz-adv-x="1478" 
d="M598 33q-8 -33 -41 -33h-426q-31 0 -31 23l1 6q1 6 3.5 20t4.5 29q5 33 38 33h349q-287 128 -287 464q0 158 48 332q47 171 151 295q174 209 518 209q467 0 467 -442q0 -363 -158 -592q-117 -170 -334 -266h359q30 0 30 -25q0 -14 -8 -57q-5 -20 -12 -24q-8 -5 -27 -5
h-450q-33 0 -33 29q0 27 14 86q6 36 35 47q212 78 324 266q129 219 129 512q0 179 -86 270q-86 90 -275 90q-266 0 -399 -172q-77 -101 -121 -260q-43 -156 -43 -286q0 -307 254 -420q20 -7 20 -35q0 -27 -14 -94z" />
    <glyph glyph-name="uni03BC" unicode="&#x3bc;" horiz-adv-x="1222" 
d="M176 -379q-6 -39 -43 -39h-43q-33 0 -33 25q0 1 6 39l283 1329q6 39 41 39h45q31 0 31 -27q0 -9 -6 -39l-131 -614q-17 -71 -17 -131q0 -125 211 -125q155 0 260 49q30 15 45 33q20 25 27 63l160 752q6 39 43 39h45q30 0 30 -27q0 -7 -6 -37l-168 -782q-17 -86 -86 -119
q-161 -76 -370 -76q-173 0 -230 80z" />
    <glyph glyph-name="pi" unicode="&#x3c0;" horiz-adv-x="1204" 
d="M285 35q-6 -35 -37 -35h-58q-28 0 -28 25l6 30l178 844h-104q-27 0 -27 23q0 21 8 51q7 33 41 33h946q29 0 29 -23q0 -5 -12 -55q-8 -29 -37 -29h-109l-110 -522q-32 -144 -37 -264q0 -20 1 -40t1 -40q0 -33 -35 -33h-55q-37 0 -37 61q0 132 39 312l113 526h-494z" />
    <glyph glyph-name="Wgrave" unicode="&#x1e80;" horiz-adv-x="1873" 
d="M1094 1262q-109 -231 -615 -1205q-29 -63 -96 -63h-33q-65 0 -65 63q-24 911 -29 1311q0 37 2 53q6 26 27 27q25 4 63 4q33 0 33 -39q18 -979 18 -1286q95 203 615 1200q35 68 86 68h30q62 0 68 -68q86 -1016 96 -1202l566 1280q23 47 49 47q46 0 67 -4q19 -2 19 -25
q0 -13 -23 -59l-592 -1305q-30 -65 -92 -65h-31q-67 0 -71 65q-79 978 -92 1203zM1141 1581l-283 221q-22 18 -22 35q0 23 32 27q36 4 78 4q28 0 62 -29l247 -221q19 -17 19 -31q0 -19 -23 -24q-19 -4 -49 -4q-33 0 -61 22z" />
    <glyph glyph-name="wgrave" unicode="&#x1e81;" horiz-adv-x="1458" 
d="M811 834q-54 -114 -403 -777q-34 -63 -93 -63h-28q-58 0 -64 63l-67 873q-2 28 -2 43q0 29 28 35q50 6 60 6q14 0 20 -9q5 -8 10 -38q49 -621 58 -852q70 145 403 772q22 43 42 58q21 16 50 16h19q29 0 45 -14q14 -13 20 -56q63 -511 86 -778q89 203 404 848q16 32 24 41
q11 12 29 12q36 0 64 -6q18 -4 18 -23q0 -9 -25 -61l-424 -861q-35 -69 -90 -69h-30q-62 0 -68 63q-75 655 -86 777zM831 1210l-227 265q-16 16 -16 34q0 22 31 27q24 2 67 2q28 0 51 -29l201 -272q12 -21 12 -29q0 -17 -20 -18q-16 -2 -51 -2q-27 0 -48 22z" />
    <glyph glyph-name="Wacute" unicode="&#x1e82;" horiz-adv-x="1873" 
d="M1094 1262q-109 -231 -615 -1205q-29 -63 -96 -63h-33q-65 0 -65 63q-24 911 -29 1311q0 37 2 53q6 26 27 27q25 4 63 4q33 0 33 -39q18 -979 18 -1286q95 203 615 1200q35 68 86 68h30q62 0 68 -68q86 -1016 96 -1202l566 1280q23 47 49 47q46 0 67 -4q19 -2 19 -25
q0 -13 -23 -59l-592 -1305q-30 -65 -92 -65h-31q-67 0 -71 65q-79 978 -92 1203zM1133 1581q-27 -20 -64 -20q-35 0 -51 2q-25 2 -25 24q0 16 21 31l303 221q35 29 67 29q51 0 80 -4q33 -4 33 -27q0 -20 -22 -35z" />
    <glyph glyph-name="wacute" unicode="&#x1e83;" horiz-adv-x="1458" 
d="M811 834q-54 -114 -403 -777q-34 -63 -93 -63h-28q-58 0 -64 63l-67 873q-2 28 -2 43q0 29 28 35q50 6 60 6q14 0 20 -9q5 -8 10 -38q49 -621 58 -852q70 145 403 772q22 43 42 58q21 16 50 16h19q29 0 45 -14q14 -13 20 -56q63 -511 86 -778q89 203 404 848q16 32 24 41
q11 12 29 12q36 0 64 -6q18 -4 18 -23q0 -9 -25 -61l-424 -861q-35 -69 -90 -69h-30q-62 0 -68 63q-75 655 -86 777zM879 1208q-22 -22 -52 -22q-28 0 -43 6q-18 6 -18 22q0 17 16 33l242 262q29 31 63 31q40 0 64 -6q23 -6 23 -25q0 -15 -19 -34z" />
    <glyph glyph-name="Wdieresis" unicode="&#x1e84;" horiz-adv-x="1873" 
d="M1094 1262q-109 -231 -615 -1205q-29 -63 -96 -63h-33q-65 0 -65 63q-24 911 -29 1311q0 37 2 53q6 26 27 27q25 4 63 4q33 0 33 -39q18 -979 18 -1286q95 203 615 1200q35 68 86 68h30q62 0 68 -68q86 -1016 96 -1202l566 1280q23 47 49 47q46 0 67 -4q19 -2 19 -25
q0 -13 -23 -59l-592 -1305q-30 -65 -92 -65h-31q-67 0 -71 65q-79 978 -92 1203zM1047 1698q0 -59 -31 -88q-28 -23 -62 -23q-71 0 -71 64q0 59 28 86q24 24 66 24q70 0 70 -63zM1425 1698q0 -60 -30 -88q-23 -23 -62 -23q-71 0 -71 64q0 59 28 86q24 24 66 24q69 0 69 -63z
" />
    <glyph glyph-name="wdieresis" unicode="&#x1e85;" horiz-adv-x="1458" 
d="M811 834q-54 -114 -403 -777q-34 -63 -93 -63h-28q-58 0 -64 63l-67 873q-2 28 -2 43q0 29 28 35q50 6 60 6q14 0 20 -9q5 -8 10 -38q49 -621 58 -852q70 145 403 772q22 43 42 58q21 16 50 16h19q29 0 45 -14q14 -13 20 -56q63 -511 86 -778q89 203 404 848q16 32 24 41
q11 12 29 12q36 0 64 -6q18 -4 18 -23q0 -9 -25 -61l-424 -861q-35 -69 -90 -69h-30q-62 0 -68 63q-75 655 -86 777zM811 1382q0 -63 -33 -90q-20 -20 -61 -20q-72 0 -72 61q0 57 29 86q28 25 67 25q70 0 70 -62zM1171 1382q0 -61 -32 -90q-20 -20 -62 -20q-71 0 -71 61
q0 57 30 86q25 25 64 25q71 0 71 -62z" />
    <glyph glyph-name="Ygrave" unicode="&#x1ef2;" horiz-adv-x="1087" 
d="M514 37q-7 -43 -45 -43h-49q-31 0 -31 26q0 8 4 24t4 19l121 574l-295 727q-18 40 -18 55q0 19 20 29q12 6 70 6q26 0 41 -39q202 -494 260 -665q128 173 530 655q40 49 74 49q43 0 62 -4q18 -2 18 -20q0 -19 -31 -58l-608 -733zM686 1581l-283 221q-22 18 -22 35
q0 23 33 27q36 4 78 4q27 0 61 -29l248 -221q18 -16 18 -31q0 -20 -22 -24q-19 -4 -49 -4q-34 0 -62 22z" />
    <glyph glyph-name="ygrave" unicode="&#x1ef3;" horiz-adv-x="1146" 
d="M758 49q-140 -76 -359 -76q-268 0 -268 191q0 64 23 162l139 651q7 37 43 37h43q31 0 31 -23q0 -20 -2 -28l-140 -639q-16 -74 -16 -127q0 -121 194 -121q164 0 283 51q29 15 45 37q14 21 25 69l157 742q6 39 43 39h45q31 0 31 -25q0 -12 -2 -20l-203 -949
q-37 -166 -82 -251q-135 -248 -647 -248q-41 0 -41 30q0 20 4 41q5 35 41 35q245 2 359 45q115 44 170 127q43 66 71 191zM649 1210l-227 265q-16 16 -16 34q0 23 30 27q24 2 68 2q28 0 51 -29l201 -272q12 -21 12 -29q0 -17 -20 -18q-16 -2 -52 -2q-26 0 -47 22z" />
    <glyph glyph-name="endash" unicode="&#x2013;" horiz-adv-x="1159" 
d="M1036 494h-886q-27 0 -27 22q0 14 10 55q8 31 41 31h881q30 0 30 -24q0 -14 -12 -58q-7 -26 -37 -26z" />
    <glyph glyph-name="emdash" unicode="&#x2014;" horiz-adv-x="1705" 
d="M1583 494h-1433q-27 0 -27 22q0 14 10 55q8 31 41 31h1428q30 0 30 -24q0 -18 -12 -58q-7 -26 -37 -26z" />
    <glyph glyph-name="quoteleft" unicode="&#x2018;" horiz-adv-x="354" 
d="M299 1038h-49q-37 0 -37 37q0 97 76 230q76 132 180 208q24 21 39 21q21 0 33 -16q18 -18 18 -33q0 -13 -20 -33q-161 -141 -195 -367q-6 -47 -45 -47z" />
    <glyph glyph-name="quoteright" unicode="&#x2019;" horiz-adv-x="354" 
d="M416 1534h49q37 0 37 -37q0 -96 -77 -230q-77 -135 -179 -208q-33 -21 -39 -21q-18 0 -35 19q-16 20 -16 30q0 16 20 33q161 146 195 367q6 47 45 47z" />
    <glyph glyph-name="quotesinglbase" unicode="&#x201a;" horiz-adv-x="364" 
d="M135 176h49q37 0 37 -37q0 -96 -77 -230q-77 -135 -177 -208q-26 -20 -41 -20q-16 0 -32 18q-17 17 -17 31t21 32q164 144 192 367q6 47 45 47z" />
    <glyph glyph-name="quotedblleft" unicode="&#x201c;" horiz-adv-x="673" 
d="M612 1038h-49q-37 0 -37 37q0 96 77 232q76 133 177 206q27 21 41 21q17 0 33 -16t16 -33q0 -15 -18 -33q-166 -145 -195 -367q-6 -47 -45 -47zM299 1038h-49q-37 0 -37 37q0 97 76 230q76 132 180 208q24 21 39 21q21 0 33 -16q18 -18 18 -33q0 -13 -20 -33
q-161 -141 -195 -367q-6 -47 -45 -47z" />
    <glyph glyph-name="quotedblright" unicode="&#x201d;" horiz-adv-x="673" 
d="M416 1534h49q37 0 37 -37q0 -96 -77 -230q-77 -135 -179 -208q-33 -21 -39 -21q-18 0 -35 19q-16 20 -16 30q0 16 20 33q161 146 195 367q6 47 45 47zM727 1534h49q37 0 37 -37q0 -96 -77 -230q-77 -135 -177 -208q-33 -21 -41 -21q-17 0 -33 19q-16 16 -16 30
q0 15 18 33q165 147 195 367q6 47 45 47z" />
    <glyph glyph-name="quotedblbase" unicode="&#x201e;" horiz-adv-x="673" 
d="M135 176h49q37 0 37 -37q0 -96 -77 -230q-77 -135 -177 -208q-26 -20 -41 -20q-16 0 -32 18q-17 17 -17 31t21 32q159 140 192 367q6 47 45 47zM449 176h49q37 0 37 -37q0 -96 -75 -228q-75 -133 -181 -210q-27 -20 -39 -20q-18 0 -33 18q-17 17 -17 31q0 13 19 32
q164 141 194 367q6 47 46 47z" />
    <glyph glyph-name="dagger" unicode="&#x2020;" horiz-adv-x="952" 
d="M420 -139q-7 -37 -39 -37h-47q-31 0 -31 24q0 3 8 43l217 1024h-315q-25 0 -25 21q0 11 11 57q8 29 39 29h313l86 408q7 36 43 36h47q29 0 29 -22q0 -11 -6 -35l-84 -387h311q29 0 29 -18q0 -12 -11 -64q-5 -25 -37 -25h-315z" />
    <glyph glyph-name="daggerdbl" unicode="&#x2021;" horiz-adv-x="952" 
d="M422 -139q-7 -37 -39 -37h-47q-31 0 -31 20q0 13 6 37l84 402h-307q-25 0 -25 20q0 5 9 57q6 29 39 29h307l112 526h-313q-27 0 -27 21q0 15 11 57q8 29 39 29h313l86 408q7 36 45 36h45q29 0 29 -22q0 -11 -6 -35l-84 -387h313q27 0 27 -18q0 -12 -11 -64
q-5 -25 -36 -25h-316l-110 -526h317q29 0 29 -20q0 -10 -11 -62q-4 -24 -39 -24h-319z" />
    <glyph glyph-name="bullet" unicode="&#x2022;" horiz-adv-x="686" 
d="M600 618q0 -181 -94 -260q-67 -55 -178 -55q-90 0 -149 45q-58 45 -58 139q0 158 90 242q68 62 180 62q209 0 209 -173z" />
    <glyph glyph-name="ellipsis" unicode="&#x2026;" horiz-adv-x="1775" 
d="M326 106q0 -67 -39 -100q-24 -24 -68 -24q-82 0 -82 71q0 62 35 97q27 26 74 26q80 0 80 -70zM897 106q0 -67 -39 -100q-24 -24 -67 -24q-82 0 -82 71q0 63 34 97q26 26 74 26q80 0 80 -70zM1468 106q0 -68 -38 -100q-24 -24 -68 -24q-82 0 -82 71q0 62 35 97
q26 26 71 26q82 0 82 -70z" />
    <glyph glyph-name="perthousand" unicode="&#x2030;" horiz-adv-x="2473" 
d="M809 1171q0 -114 -37 -278q-37 -166 -100 -254q-80 -117 -252 -117q-133 0 -197 53q-63 53 -63 187q0 112 35 260q35 147 96 238q88 133 264 133q136 0 195 -46t59 -176zM709 1157q0 82 -34 116t-130 34q-114 0 -176 -97q-48 -79 -79 -211q-32 -137 -32 -225
q0 -91 37 -128q38 -38 131 -38q116 0 172 84q48 75 79 226q32 154 32 239zM492 -33q-24 -33 -50 -33q-13 0 -34 3q-15 5 -15 16q0 16 21 43l919 1415q29 45 56 45q19 0 38 -4q15 -2 15 -16q0 -15 -23 -50zM1669 631q0 -115 -37 -279q-37 -166 -100 -254q-79 -116 -252 -116
q-132 0 -196 53q-62 52 -62 186q0 116 34 261q35 149 95 237q88 133 264 133q136 0 195 -46t59 -175zM1569 616q0 82 -34 116t-130 34q-116 0 -176 -96q-49 -77 -78 -209q-31 -140 -31 -228q0 -92 37 -129q36 -36 131 -36q118 0 170 84q48 76 79 225q32 154 32 239z
M2419 631q0 -115 -37 -279t-101 -254q-79 -116 -251 -116q-133 0 -197 53t-64 186q0 112 35 261q34 145 97 237q91 133 264 133q135 0 194 -46q60 -46 60 -175zM2318 616q0 83 -33 116q-34 34 -133 34q-112 0 -174 -96q-47 -77 -78 -211q-32 -137 -32 -226q0 -91 37 -128
t131 -37q116 0 172 84q48 76 79 225t31 239z" />
    <glyph glyph-name="guilsinglleft" unicode="&#x2039;" horiz-adv-x="579" 
d="M221 545l189 -344q14 -25 14 -39q0 -17 -21 -23q-21 -4 -51 -4q-26 0 -53 45l-190 324q-13 23 -13 45q0 24 23 47l330 311q45 45 75 45q40 0 51 -4q19 -6 19 -24q0 -19 -27 -43z" />
    <glyph glyph-name="guilsinglright" unicode="&#x203a;" horiz-adv-x="579" 
d="M387 543l-188 342q-13 24 -13 41q0 16 19 22q21 4 51 4q26 0 53 -45l191 -325q12 -21 12 -45t-23 -45l-329 -314q-46 -43 -76 -43q-38 0 -51 4q-19 6 -19 23q0 16 27 43z" />
    <glyph glyph-name="fraction" unicode="&#x2044;" horiz-adv-x="172" 
d="M-283 -33q-24 -33 -49 -33q-14 0 -35 3q-14 1 -14 16q0 14 19 43l921 1415q29 45 55 45q22 0 37 -4q15 -2 15 -16q0 -12 -23 -47z" />
    <glyph glyph-name="zero.superior" unicode="&#x2070;" 
d="M891 1491q0 -115 -37 -279q-37 -166 -100 -254q-79 -116 -252 -116q-132 0 -196 53q-62 52 -62 186q0 116 34 261q35 149 95 237q88 133 264 133q135 0 194 -46q60 -46 60 -175zM791 1477q0 81 -34 115t-130 34q-115 0 -176 -96q-48 -72 -79 -208q-30 -134 -30 -228
q0 -90 38 -128t130 -38q120 0 172 84q46 73 77 223q32 154 32 242z" />
    <glyph glyph-name="four.superior" unicode="&#x2074;" 
d="M684 883q-8 -27 -31 -27h-41q-20 0 -20 21q0 11 4 26l39 178h-342q-53 0 -53 45q0 32 26 70l363 479q25 31 41 31q36 0 55 -4q14 0 14 -14q0 -11 -16 -33l-371 -488h301l45 209q6 27 29 27h47q21 0 21 -21q0 -7 -4 -18l-46 -197h117q25 0 25 -18q0 -4 -10 -47
q-5 -21 -31 -21h-117z" />
    <glyph glyph-name="five.superior" unicode="&#x2075;" 
d="M418 1370q61 16 143 16q123 0 185 -43q63 -44 63 -143q0 -356 -379 -356q-125 0 -201 22q-26 7 -26 27q0 15 14 47q6 16 25 16h2q1 -1 3 -1.5t4 -0.5t4 -1t3.5 -1.5t4.5 -1t5 -1.5q3 -1 9 -2.5t8 -2.5q76 -16 155 -16q140 0 202 62q63 63 63 186q0 71 -45 100
q-44 29 -132 29q-43 0 -85 -5q-49 -6 -59 -8q-19 -4 -28 -4q-37 0 -37 35q0 15 11 57l73 289q11 35 37 35h379q23 0 23 -16q0 -13 -8 -50q-1 -20 -33 -20h-324z" />
    <glyph glyph-name="six.superior" unicode="&#x2076;" 
d="M379 1296q74 95 244 95q221 0 221 -189q0 -177 -88 -272q-80 -86 -254 -86q-248 0 -248 237q0 128 47 289q47 160 131 244q105 106 293 106q94 0 143 -14q17 -5 17 -20q0 -16 -13 -52q-5 -12 -16 -12q-2 0 -45 6q-33 6 -96 6q-143 0 -217 -80q-73 -74 -119 -258z
M348 1081q0 -70 34 -110q35 -41 126 -41q134 0 186 65q51 66 51 183q0 131 -149 131q-143 0 -215 -86q-11 -11 -21 -43q-12 -45 -12 -99z" />
    <glyph glyph-name="seven.superior" unicode="&#x2077;" 
d="M764 1618h-438q-25 0 -25 16q0 8 6 49q5 21 31 21h485q58 0 58 -43q0 -29 -25 -70l-426 -702q-21 -33 -39 -33q-27 0 -51 6q-18 6 -18 21q0 16 14 37z" />
    <glyph glyph-name="eight.superior" unicode="&#x2078;" 
d="M696 1300q135 -22 135 -161q0 -295 -342 -295q-128 0 -193 52q-67 53 -67 144q0 230 220 271q-109 30 -109 143q0 134 82 200t233 66q234 0 234 -168q0 -205 -193 -252zM731 1130q0 127 -170 127q-235 0 -235 -198q0 -133 178 -133q227 0 227 204zM791 1530
q0 106 -150 106q-205 0 -205 -180q0 -58 40 -86q41 -29 108 -29q91 0 150 51q57 50 57 138z" />
    <glyph glyph-name="nine.superior" unicode="&#x2079;" 
d="M754 1268q-72 -90 -242 -90q-110 0 -167 51q-56 50 -56 141q0 162 92 262q85 88 250 88q246 0 246 -237q0 -136 -43 -293q-44 -161 -125 -242q-102 -106 -293 -106q-112 0 -160 16q-14 6 -14 21q0 19 12 49q7 16 20 16q11 0 35 -6q49 -10 111 -10q146 0 223 80
q66 72 111 260zM782 1485q0 70 -32 109q-33 40 -125 40q-129 0 -181 -67q-55 -67 -55 -178q0 -58 37 -95t113 -37q69 0 128 24t85 62q13 15 18 43q12 44 12 99z" />
    <glyph glyph-name="parenleft.superior" unicode="&#x207d;" horiz-adv-x="419" 
d="M702 1751q-171 -98 -269 -285q-97 -185 -97 -417q0 -191 129 -338q6 -6 6 -15q0 -8 -10 -18t-25 -10q-10 0 -26 10q-69 47 -118 143q-50 97 -50 238q0 229 105 434t308 297q20 10 35 10q12 0 19 -12q8 -18 8 -21q0 -5 -15 -16z" />
    <glyph glyph-name="parenright.superior" unicode="&#x207e;" horiz-adv-x="419" 
d="M51 717q174 100 270 283q97 185 97 419q0 195 -129 336q-8 8 -8 17q0 10 12 18q11 10 22 10q13 0 29 -12q66 -46 117 -143q51 -96 51 -236q0 -229 -105 -434t-311 -297q-20 -10 -35 -10q-11 0 -18 10q-8 11 -8 20q0 12 16 19z" />
    <glyph glyph-name="n.superior" unicode="&#x207f;" horiz-adv-x="743" 
d="M227 563q-7 -26 -30 -26h-45q-21 0 -21 18q0 12 4 23l103 469q15 58 57 75q119 52 278 52q168 0 168 -107q0 -39 -14 -106l-86 -398q-7 -26 -31 -26h-45q-20 0 -20 18q0 14 4 25l84 370q8 43 8 76q0 64 -106 64q-85 0 -166 -31q-24 -12 -29 -17q-10 -10 -16 -36z" />
    <glyph glyph-name="zero.inferior" unicode="&#x2080;" 
d="M659 373q0 -119 -36 -279q-37 -164 -101 -254q-79 -116 -252 -116q-131 0 -195 53q-63 53 -63 186q0 116 34 261q35 149 95 237q88 133 265 133q135 0 194 -46t59 -175zM559 358q0 82 -34 116t-130 34q-115 0 -176 -96q-48 -72 -79 -208q-29 -129 -29 -229q0 -92 36 -128
q37 -37 132 -37q119 0 172 84q44 71 76 223q32 154 32 241z" />
    <glyph glyph-name="one.inferior" unicode="&#x2081;" 
d="M424 -258h-336q-20 0 -20 18q0 13 8 45q6 25 30 25h125l144 653l-129 -47q-18 -6 -29 -6q-10 0 -16 12q-13 41 -13 43q0 17 23 25l166 61q39 15 57 15h8q41 0 41 -37q0 -1 -0.5 -3t-1 -5t-0.5 -6t-1.5 -11t-2.5 -12q0 -3 -0.5 -5.5t-1 -4.5t-0.5 -3.5v-2.5l-147 -666h114
q23 0 23 -16q0 -15 -8 -52q-6 -20 -33 -20z" />
    <glyph glyph-name="two.inferior" unicode="&#x2082;" 
d="M504 -258h-508q-45 0 -45 45q0 39 37 66q342 249 407 303q125 101 125 223q0 137 -174 137q-68 0 -137 -20q-44 -13 -47 -13q-13 0 -19 15q-10 23 -10 41q0 15 39 30q94 33 205 33q246 0 246 -209q0 -146 -138 -266q-166 -143 -401 -299h434q25 0 25 -18t-6 -48
q-6 -20 -33 -20z" />
    <glyph glyph-name="three.inferior" unicode="&#x2083;" 
d="M406 186q145 -12 145 -159q0 -141 -72 -213q-85 -88 -282 -88q-125 0 -189 26q-26 10 -26 25q0 18 14 49q6 12 22 12q4 0 43 -10q80 -16 146 -16q147 0 199 61q47 56 47 150q0 59 -44 88q-43 28 -163 28q-37 0 -37 33q0 53 51 53q127 0 189 47q53 45 53 134
q0 110 -154 110q-81 0 -147 -18q-31 -13 -43 -13q-13 0 -19 17q-10 29 -10 39q0 16 39 28q102 33 209 33q122 0 174 -47q51 -47 51 -133q0 -98 -48 -155t-148 -81z" />
    <glyph glyph-name="four.inferior" unicode="&#x2084;" 
d="M459 -236q-7 -26 -31 -26h-41q-22 0 -22 20q0 12 4 27l39 178h-342q-52 0 -52 45q0 37 27 70l362 479q25 31 41 31q37 0 56 -4q12 0 12 -15q0 -12 -14 -32l-373 -488h303l45 209q6 27 29 27h45q20 0 20 -19q0 -5 -4 -24l-43 -193h117q25 0 25 -18q0 -1 -1 -3q-1 -3 -2 -4
q-2 -6 -5 -18q-4 -17 -5 -22q-6 -21 -28 -21h-117z" />
    <glyph glyph-name="five.inferior" unicode="&#x2085;" 
d="M193 252q61 16 143 16q123 0 185 -43q63 -44 63 -143q0 -356 -379 -356q-133 0 -199 22q-26 7 -26 27q0 18 10 47q6 16 26 16h2q1 -1 3.5 -1.5t4.5 -0.5t4 -1t3.5 -1.5t4.5 -1t5 -1.5q4 -1 9 -3t7 -2q71 -16 156 -16q264 0 264 247q0 72 -44 101q-43 28 -132 28
q-52 0 -85 -4q-49 -6 -59 -8q-19 -4 -28 -4q-39 0 -39 35q0 7 12 57l74 289q11 35 37 35h379q22 0 22 -17q0 -12 -8 -49q-6 -20 -33 -20h-323z" />
    <glyph glyph-name="six.inferior" unicode="&#x2086;" 
d="M147 178q73 94 244 94q221 0 221 -188q0 -177 -88 -272q-80 -86 -254 -86q-247 0 -247 237q0 128 47 289q47 160 131 244q105 106 293 106q94 0 143 -14q16 -4 16 -21q0 -18 -12 -51q-1 -12 -16 -12q-1 0 -45 6q-33 6 -97 6q-143 0 -217 -80q-73 -74 -119 -258zM117 -37
q0 -70 34 -110q35 -41 125 -41q135 0 187 65q51 67 51 182q0 131 -149 131q-143 0 -215 -86q-11 -11 -21 -43q-12 -45 -12 -98z" />
    <glyph glyph-name="seven.inferior" unicode="&#x2087;" 
d="M539 500h-441q-24 0 -24 16q0 4 1 8l3 19q1 4 2.5 11.5t1.5 10.5q4 21 31 21h485q57 0 57 -43q0 -31 -24 -70l-426 -702q-21 -33 -39 -33q-27 0 -51 6q-19 6 -19 20t15 37z" />
    <glyph glyph-name="eight.inferior" unicode="&#x2088;" 
d="M465 182q135 -22 135 -162q0 -294 -342 -294q-128 0 -193 52q-67 53 -67 144q0 230 219 271q-108 30 -108 143q0 135 81 200q82 66 234 66q233 0 233 -168q0 -206 -192 -252zM500 12q0 127 -170 127q-236 0 -236 -198q0 -134 178 -134q228 0 228 205zM559 412
q0 106 -149 106q-205 0 -205 -180q0 -58 40 -86q41 -29 107 -29q93 0 151 50q56 49 56 139z" />
    <glyph glyph-name="nine.inferior" unicode="&#x2089;" 
d="M522 150q-73 -91 -241 -91q-109 0 -167 52q-57 51 -57 141q0 161 93 262q85 88 249 88q246 0 246 -237q0 -136 -43 -293q-44 -161 -125 -242q-102 -106 -293 -106q-111 0 -159 16q-15 6 -15 20q0 18 13 50q7 16 20 16q11 0 35 -6q49 -10 110 -10q148 0 224 79
q65 71 110 261zM551 367q0 69 -33 109t-125 40q-128 0 -180 -67q-55 -67 -55 -179q0 -56 36 -94q36 -37 113 -37q69 0 128 24t85 62q14 17 19 43q12 44 12 99z" />
    <glyph glyph-name="parenleft.inferior" unicode="&#x208d;" horiz-adv-x="419" 
d="M471 633q-171 -98 -269 -285t-98 -418q0 -191 129 -338q7 -7 7 -14t-11 -18t-24 -11q-10 0 -27 11q-69 47 -118 143q-50 97 -50 238q0 227 106 434q105 205 308 297q20 10 35 10q7 0 18 -12q8 -18 8 -21q0 -6 -14 -16z" />
    <glyph glyph-name="parenright.inferior" unicode="&#x208e;" horiz-adv-x="419" 
d="M-180 -401q173 99 269 283q97 185 97 419q0 195 -129 336q-8 8 -8 16q0 11 12 19q11 10 23 10q14 0 29 -12q63 -44 116 -144q52 -98 52 -235q0 -227 -106 -434q-105 -206 -310 -297q-22 -11 -35 -11q-10 0 -18 11q-9 13 -9 20q0 11 17 19z" />
    <glyph glyph-name="Euro" unicode="&#x20ac;" horiz-adv-x="1251" 
d="M973 520h-479q-5 -43 -5 -112q0 -326 306 -326q163 0 264 24q57 15 65 15q20 0 25 -23q6 -24 6 -47q-1 -24 -49 -39q-144 -37 -330 -37q-407 0 -407 418q0 59 6 127h-137q-33 0 -33 23q0 14 6 35q7 28 43 28h133q12 97 39 185h-137q-33 0 -33 20q0 5 6 35q7 28 43 28h146
q84 252 217 379q166 156 458 156q115 0 211 -16q39 -7 39 -37q0 -26 -12 -60q-4 -14 -33 -14q-7 0 -71 10q-72 8 -175 8q-201 0 -327 -116q-114 -106 -185 -310h465q31 0 31 -22q0 -16 -4 -35q-4 -26 -39 -26h-481q-28 -105 -39 -185h481q31 0 31 -22q0 -16 -4 -37
q-8 -27 -41 -27z" />
    <glyph glyph-name="afii61289" unicode="&#x2113;" horiz-adv-x="890" 
d="M330 444q-11 -66 -11 -141q0 -223 187 -223q120 0 239 74q21 14 37 14q12 0 27 -16q20 -23 20 -43q0 -21 -22 -33q-155 -103 -340 -103q-123 0 -194 80q-70 79 -70 221q0 30 4 91q-71 -45 -107 -64q-16 -10 -32 -10t-31 28q-8 18 -8 31t28 31q97 54 158 94q30 205 43 266
q62 291 133 428q74 133 154 186q83 54 200 54q101 0 156 -57q55 -56 55 -152q0 -126 -56 -226q-57 -102 -163 -214q-70 -76 -154 -140q-81 -62 -253 -176zM344 565q221 156 324 262q178 185 178 355q0 59 -34 93t-91 34q-116 0 -199 -119q-80 -123 -143 -418
q-28 -153 -35 -207z" />
    <glyph glyph-name="trademark" unicode="&#x2122;" horiz-adv-x="1601" 
d="M469 772q-6 -29 -27 -29h-36q-25 0 -25 19q0 11 6 35l121 571h-201q-22 0 -22 18q0 14 6 35q6 25 33 25h485q27 0 27 -16q0 -9 -9 -41q-6 -21 -34 -21h-197zM920 770q-6 -27 -25 -27h-37q-22 0 -22 19q0 5 4 24l125 598q15 64 65 64h33q6 0 14 -2q2 -1 5.5 -2.5t4.5 -1.5
q4 -1 8 -7q1 -2 3 -5l1 -3q1 -1 3 -10q0 -2 1 -5q1 -4 1 -5q80 -326 96 -412q56 96 264 408q29 45 68 45h33q43 0 43 -39l-1 -5q-1 -6 -3.5 -19t-4.5 -27l-124 -586q-6 -29 -29 -29h-39q-21 0 -21 17q0 6 7 41q8 38 17 78t19.5 86.5t15.5 69.5q24 108 33 153q12 60 19 89
q14 58 21 85q-18 -31 -279 -434q-21 -29 -49 -29h-16q-27 0 -35 31q-71 297 -97 432z" />
    <glyph glyph-name="Omega" unicode="&#x2126;" horiz-adv-x="1478" 
d="M598 33q-8 -33 -41 -33h-426q-31 0 -31 23l1 6q1 6 3.5 20t4.5 29q5 33 38 33h349q-287 128 -287 464q0 158 48 332q47 171 151 295q174 209 518 209q467 0 467 -442q0 -363 -158 -592q-117 -170 -334 -266h359q30 0 30 -25q0 -14 -8 -57q-5 -20 -12 -24q-8 -5 -27 -5
h-450q-33 0 -33 29q0 27 14 86q6 36 35 47q212 78 324 266q129 219 129 512q0 179 -86 270q-86 90 -275 90q-266 0 -399 -172q-77 -101 -121 -260q-43 -156 -43 -286q0 -307 254 -420q20 -7 20 -35q0 -27 -14 -94z" />
    <glyph glyph-name="estimated" unicode="&#x212e;" horiz-adv-x="1730" 
d="M1704 688h-1262q-12 0 -12 -8v-399q0 -21 21 -45q195 -218 477 -218q301 0 499 242h117q-113 -133 -272 -208q-163 -77 -346 -77q-323 0 -552 215t-229 519q0 302 229 517q227 214 552 214q324 0 551 -214t227 -517v-21zM1421 741v400q0 27 -22 49q-201 207 -471 207
q-277 0 -475 -215q-23 -18 -23 -49v-392q0 -10 12 -10h967q12 0 12 10z" />
    <glyph glyph-name="onethird" unicode="&#x2153;" horiz-adv-x="1724" 
d="M1423 444q146 -12 146 -159q0 -143 -70 -213q-88 -88 -285 -88q-117 0 -188 26q-27 11 -27 25q0 15 15 49q6 12 22 12q6 0 45 -10q76 -16 146 -16q143 0 198 61q45 52 45 150q0 60 -43 88t-161 28q-37 0 -37 33q0 53 49 53q132 0 190 47q54 45 54 134q0 110 -156 110
q-92 0 -145 -18q-33 -13 -45 -13t-17 17q-10 29 -10 39q0 18 41 30q108 31 205 31q122 0 174 -47q51 -47 51 -133q0 -98 -48 -155t-149 -81zM471 -33q-24 -33 -49 -33q-14 0 -35 3q-14 1 -14 16q0 16 18 43l922 1415q29 45 55 45q22 0 37 -4q14 -1 14 -16q0 -13 -22 -47z
M584 541h-336q-21 0 -21 18q0 9 9 45q6 25 30 25h123l146 653l-132 -47q-17 -6 -26 -6q-11 0 -17 12q-12 37 -12 43q0 17 23 25l166 61q41 14 57 14h8q41 0 41 -36q0 -1 -2 -15q0 -3 -1.5 -10.5t-2.5 -11.5q-2 -16 -2 -17l-150 -665h117q23 0 23 -17q0 -16 -11 -51
q-4 -20 -30 -20z" />
    <glyph glyph-name="twothirds" unicode="&#x2154;" horiz-adv-x="1724" 
d="M549 -33q-24 -33 -49 -33q-14 0 -35 3q-14 1 -14 16q0 16 18 43l922 1415q29 45 55 45q22 0 37 -4q14 -1 14 -16q0 -13 -22 -47zM692 541h-508q-45 0 -45 45q0 38 37 65q350 255 408 303q64 53 94 103q31 51 31 121q0 137 -174 137q-61 0 -138 -21q-41 -12 -47 -12
q-12 0 -18 14q-10 26 -10 41q0 16 40 31q94 33 203 33q246 0 246 -209q0 -147 -135 -264q-164 -140 -404 -301h435q24 0 24 -19q0 -17 -6 -47q-6 -20 -33 -20zM1473 444q145 -12 145 -159q0 -143 -70 -213q-88 -88 -284 -88q-118 0 -189 26q-26 10 -26 25q0 17 14 49
q6 12 22 12q6 0 45 -10q76 -16 146 -16q144 0 199 61q45 52 45 150q0 60 -43 88t-162 28q-37 0 -37 33q0 53 49 53q133 0 191 47q53 44 53 134q0 110 -156 110q-93 0 -145 -18q-32 -13 -45 -13q-12 0 -17 17q-10 29 -10 39q0 18 41 30q109 31 205 31q122 0 174 -47
q51 -47 51 -133q0 -98 -48 -155t-148 -81z" />
    <glyph glyph-name="oneeighth" unicode="&#x215b;" horiz-adv-x="1724" 
d="M1430 440q135 -21 135 -161q0 -295 -342 -295q-129 0 -194 52q-66 52 -66 144q0 230 219 271q-109 30 -109 143q0 134 82 200q83 66 234 66q233 0 233 -168q0 -206 -192 -252zM426 -33q-24 -33 -49 -33q-14 0 -35 3q-14 1 -14 16q0 16 18 43l922 1415q28 45 55 45
q22 0 37 -4q14 -1 14 -16q0 -13 -22 -47zM549 541h-336q-20 0 -20 18q0 13 8 45q6 25 30 25h123l146 653l-131 -47q-17 -6 -27 -6t-16 12q-13 41 -13 43q0 17 23 25l166 61q41 14 57 14h8q41 0 41 -36q0 -1 -2 -15q0 -3 -1.5 -10.5t-2.5 -11.5q-2 -16 -2 -17l-149 -665h116
q23 0 23 -17q0 -20 -10 -51q-4 -20 -31 -20zM1464 270q0 127 -170 127q-235 0 -235 -198q0 -133 178 -133q227 0 227 204zM1524 670q0 106 -150 106q-205 0 -205 -180q0 -58 40 -86q41 -29 108 -29q92 0 150 50q57 49 57 139z" />
    <glyph glyph-name="threeeighths" unicode="&#x215c;" horiz-adv-x="1724" 
d="M473 -33q-24 -33 -49 -33q-14 0 -35 3q-14 1 -14 16q0 16 18 43l922 1415q29 45 55 45q22 0 37 -4q14 -1 14 -16q0 -13 -22 -47zM559 985q146 -12 146 -160q0 -141 -72 -213q-85 -88 -283 -88q-115 0 -188 27q-27 11 -27 24q0 15 15 50q6 12 22 12q4 0 43 -10
q85 -17 145 -17q148 0 199 62q47 56 47 149q0 59 -44 88t-163 29q-37 0 -37 33q0 53 52 53q126 0 188 47q53 45 53 133q0 111 -155 111q-87 0 -146 -19q-40 -12 -43 -12q-12 0 -18 16q-8 26 -8 37q0 19 39 31q99 33 204 33q125 0 177 -47q51 -46 51 -133q0 -98 -48 -155
t-149 -81zM1454 440q135 -21 135 -161q0 -295 -342 -295q-128 0 -193 52q-67 53 -67 144q0 230 219 271q-108 30 -108 143q0 134 82 200t233 66q234 0 234 -168q0 -205 -193 -252zM1489 270q0 127 -170 127q-236 0 -236 -198q0 -133 179 -133q227 0 227 204zM1548 670
q0 106 -149 106q-205 0 -205 -180q0 -58 40 -86q41 -29 107 -29q93 0 151 50q56 49 56 139z" />
    <glyph glyph-name="fiveeighths" unicode="&#x215d;" horiz-adv-x="1724" 
d="M487 -33q-24 -33 -49 -33q-14 0 -35 3q-14 1 -14 16q0 14 19 43l921 1415q29 45 55 45q22 0 37 -4q15 -2 15 -16q0 -12 -23 -47zM358 1051q61 16 144 16q123 0 185 -43q63 -44 63 -143q0 -357 -379 -357q-130 0 -199 23q-27 7 -27 26q0 17 13 48q6 16 24 16l2 -1
q1 0 3 -0.5t4 -0.5t18 -5q4 -1 9 -2.5t7 -2.5q80 -17 156 -17q139 0 202 63q62 62 62 185q0 71 -44 100t-132 29q-51 0 -86 -4q-49 -6 -60 -8q-19 -4 -28 -4q-35 0 -35 35q0 18 10 57l74 289q10 34 37 34h379q22 0 22 -16q0 -12 -8 -49q-2 -21 -33 -21h-323zM1464 440
q135 -21 135 -161q0 -295 -342 -295q-128 0 -193 52q-67 53 -67 144q0 230 220 271q-109 30 -109 143q0 134 82 200t233 66q234 0 234 -168q0 -205 -193 -252zM1499 270q0 127 -170 127q-235 0 -235 -198q0 -133 178 -133q227 0 227 204zM1559 670q0 106 -150 106
q-205 0 -205 -180q0 -58 40 -86q41 -29 108 -29q92 0 150 50q57 49 57 139z" />
    <glyph glyph-name="seveneighths" unicode="&#x215e;" horiz-adv-x="1724" 
d="M389 -33q-24 -33 -49 -33q-14 0 -35 3q-14 1 -14 16q0 16 18 43l922 1415q29 45 55 45q22 0 37 -4q14 -1 14 -16q0 -13 -22 -47zM733 1298h-438q-27 0 -27 19q0 18 8 47q6 20 31 20h486q57 0 57 -43q0 -28 -25 -69l-426 -703q-20 -32 -39 -32q-27 0 -51 6q-18 6 -18 20
q0 16 14 37zM1389 440q135 -22 135 -161q0 -295 -342 -295q-129 0 -194 52q-66 52 -66 144q0 230 219 271q-109 30 -109 143q0 134 82 200t234 66q233 0 233 -168q0 -206 -192 -252zM1423 270q0 127 -170 127q-235 0 -235 -198q0 -133 178 -133q227 0 227 204zM1483 670
q0 106 -150 106q-205 0 -205 -180q0 -58 40 -86q41 -29 108 -29q92 0 150 50q57 49 57 139z" />
    <glyph glyph-name="arrowleft" unicode="&#x2190;" horiz-adv-x="1572" 
d="M1452 748q49 0 49 -39v-37q0 -41 -39 -41q-958 0 -1198 2l543 -514q20 -20 20 -35q0 -14 -12 -29l-24 -28q-15 -17 -33 -17q-9 0 -27 15l-641 634q-14 11 -14 29q0 20 14 31l649 649q12 12 25 12q12 0 24 -12l29 -33q14 -17 14 -26q0 -15 -14 -29l-553 -537q193 5 1188 5
z" />
    <glyph glyph-name="arrowup" unicode="&#x2191;" horiz-adv-x="1572" 
d="M725 45q0 1023 4 1176q-88 -102 -541 -539q-12 -12 -24 -12q-18 0 -25 10l-26 29q-13 18 -13 28q0 14 13 27l649 645q11 14 29 14q16 0 28 -12l641 -643q15 -15 15 -27q0 -15 -15 -30l-24 -27q-12 -12 -27 -12q-19 0 -39 20q-411 411 -518 529q2 -240 2 -1182
q0 -39 -37 -39h-55q-37 0 -37 45z" />
    <glyph glyph-name="arrowright" unicode="&#x2192;" horiz-adv-x="1572" 
d="M119 748q999 0 1194 -5l-559 537q-13 11 -13 29q0 13 13 26l28 33q12 12 27 12q10 0 22 -12l652 -649q12 -12 12 -31q0 -17 -12 -29l-647 -639q-10 -10 -27 -10q-14 0 -27 13l-28 32q-11 16 -11 25q0 18 21 39l549 514q-244 -2 -1204 -2q-37 0 -37 41v37q0 39 47 39z" />
    <glyph glyph-name="arrowdown" unicode="&#x2193;" horiz-adv-x="1572" 
d="M725 1333q0 49 37 49h55q37 0 37 -39q0 -945 -2 -1185l520 532q21 21 37 21t25 -9l26 -30q15 -15 15 -29t-15 -29l-639 -643q-14 -14 -30 -14q-15 0 -29 14l-649 647q-15 12 -15 27q0 14 15 29l30 28q16 11 27 11q12 0 25 -13q390 -374 534 -540q-4 160 -4 1173z" />
    <glyph glyph-name="uni2196" unicode="&#x2196;" horiz-adv-x="1572" 
d="M1327 248q19 -24 19 -35q0 -18 -25 -43q-33 -35 -45 -35t-27 15l-841 837q12 -369 12 -741q0 -24 -12 -39q-10 -10 -25 -10h-45q-19 0 -29 10t-10 35v899q0 17 12 33q14 10 35 10h914q20 0 28 -8q10 -10 10 -29v-41q0 -23 -10 -33q-8 -8 -31 -8q-646 0 -776 10z" />
    <glyph glyph-name="uni2197" unicode="&#x2197;" horiz-adv-x="1572" 
d="M334 156q-19 -19 -33 -19q-22 0 -39 19q-33 35 -33 55q0 18 13 31l850 829q-369 -12 -756 -12q-24 0 -35 8q-12 12 -12 31v47q0 15 10 29q10 10 31 10h907q15 0 29 -10q10 -7 10 -37v-908q0 -24 -8 -32q-11 -11 -27 -11h-43q-15 0 -24 9q-13 8 -13 34q0 521 8 756
q-162 -169 -835 -829z" />
    <glyph glyph-name="uni2198" unicode="&#x2198;" horiz-adv-x="1572" 
d="M248 1122q-19 19 -19 37q0 16 21 37q33 35 51 35q8 0 25 -14q679 -663 843 -836q0 12 -3 92q-4 97 -5 249q-2 226 -2 398q0 29 10 39q11 15 25 15h47q14 0 27 -13q10 -10 10 -35v-897q0 -15 -12 -32q-15 -15 -35 -15h-914q-17 0 -28 11q-8 8 -8 28v41q0 25 8 31
q10 10 30 10q542 0 777 -8z" />
    <glyph glyph-name="uni2199" unicode="&#x2199;" horiz-adv-x="1572" 
d="M1243 1217q18 18 31 18q17 0 51 -37q21 -21 21 -37q0 -20 -15 -35l-848 -827q245 8 756 8q31 0 41 -10t10 -29v-43q0 -15 -8 -28q-11 -11 -33 -11h-905q-25 0 -33 13q-12 8 -12 32v908q0 22 10 32q11 11 31 11h41q18 0 29 -13q8 -11 8 -34q0 -511 -8 -746
q191 200 833 828z" />
    <glyph glyph-name="partialdiff" unicode="&#x2202;" horiz-adv-x="1116" 
d="M936 770q29 212 29 268q0 135 -59 202t-187 67q-137 0 -227 -29q-18 -6 -31 -6q-22 0 -29 22q-8 30 -8 43q0 23 27 31q115 41 280 41q352 0 352 -352q0 -212 -65 -497q-67 -292 -176 -425q-130 -162 -375 -162q-157 0 -249 78q-91 78 -91 234q0 140 49 269t150 212
q118 102 323 102q196 0 287 -98zM915 645q-63 125 -284 125q-150 0 -240 -78q-73 -62 -112 -170q-39 -106 -39 -219q0 -227 245 -227q117 0 194 50q76 49 136 177q62 135 100 342z" />
    <glyph glyph-name="Delta" unicode="&#x2206;" horiz-adv-x="1312" 
d="M1229 74q6 -29 6 -41q0 -33 -41 -33h-1196q-29 0 -29 25q0 12 17 41l817 1288q22 32 53 32h74q31 0 37 -32zM868 1260q-112 -192 -718 -1149h944q-209 1044 -226 1149z" />
    <glyph glyph-name="product" unicode="&#x220f;" horiz-adv-x="1443" 
d="M213 -231q-6 -41 -45 -41h-45q-33 0 -33 28q0 5 6 35l330 1550q10 43 45 43h905q37 0 37 -26q0 -18 -4 -33l-334 -1556q-5 -26 -12 -33q-8 -8 -27 -8h-53q-33 0 -33 26q0 12 4 27l318 1493h-740z" />
    <glyph glyph-name="summation" unicode="&#x2211;" horiz-adv-x="1206" 
d="M1034 -266h-960q-64 0 -64 51q0 39 33 78l672 731l-355 643q-20 36 -20 70q0 35 21 56t63 21h821q37 0 37 -24q0 -14 -8 -57q-8 -29 -49 -29h-752l363 -643q12 -21 12 -45q0 -20 -33 -58l-637 -684h877q35 0 35 -26q0 -15 -9 -56q-7 -28 -47 -28z" />
    <glyph glyph-name="minus" unicode="&#x2212;" horiz-adv-x="1435" 
d="M1264 551h-1000q-28 0 -28 29q0 10 6 47q6 30 34 30h1002q29 0 29 -28q0 -9 -7 -47q-5 -31 -36 -31z" />
    <glyph glyph-name="uni2215" unicode="&#x2215;" horiz-adv-x="172" 
d="M-283 -33q-24 -33 -49 -33q-14 0 -35 3q-14 1 -14 16q0 14 19 43l921 1415q29 45 55 45q22 0 37 -4q15 -2 15 -16q0 -12 -23 -47z" />
    <glyph glyph-name="uni2219" unicode="&#x2219;" horiz-adv-x="430" 
d="M324 578q0 -70 -39 -103q-22 -22 -68 -22q-82 0 -82 71q0 62 35 97q26 26 74 26q80 0 80 -69z" />
    <glyph glyph-name="radical" unicode="&#x221a;" horiz-adv-x="1308" 
d="M604 -344q-10 -27 -39 -27h-45q-28 0 -35 27l-202 567l-113 -43q-7 -4 -20 -4q-18 0 -29 31q-8 26 -8 31q0 20 24 30l176 68q18 6 31 6q18 0 29 -29l184 -522l707 1606q12 28 41 28q11 0 49 -6q22 -6 22 -20q0 -13 -10 -39z" />
    <glyph glyph-name="infinity" unicode="&#x221e;" horiz-adv-x="1495" 
d="M803 672q107 112 195 165q88 52 190 52q114 0 180 -71q66 -70 66 -185q0 -149 -87 -243q-87 -95 -227 -95q-99 0 -166 48q-65 47 -155 171q-113 -117 -199 -168q-83 -49 -180 -49q-114 0 -184 70t-70 186q0 144 88 241t225 97q97 0 167 -49q74 -52 157 -170zM739 594
q-72 103 -133 150t-139 47q-87 0 -146 -64t-59 -154q0 -81 46 -128q47 -48 122 -48q81 0 152 49q72 49 157 148zM860 592q84 -112 138 -154q56 -43 137 -43q87 0 143 64q55 62 55 159q0 77 -43 121q-44 45 -119 45q-138 0 -311 -192z" />
    </font>
</defs>
</svg>
