<?xml version="1.0" standalone="no"?>
<!DOCTYPE svg PUBLIC "-//W3C//DTD SVG 1.1//EN" "http://www.w3.org/Graphics/SVG/1.1/DTD/svg11.dtd" >
<svg xmlns="http://www.w3.org/2000/svg" xmlns:xlink="http://www.w3.org/1999/xlink" version="1.1">
<metadata>
Created by FontForge 20170731 at Sun Apr 18 19:44:17 2021
 By Aleksey,,,
Copyright (c) 2015 by Dieter Hofrichter. All rights reserved.
</metadata>
<defs>
<font id="Carnas-Black" horiz-adv-x="827" >
  <font-face 
    font-family="Carnas-Black"
    font-weight="400"
    font-stretch="normal"
    units-per-em="2048"
    panose-1="2 0 5 3 3 0 0 2 0 4"
    ascent="1561"
    descent="-487"
    x-height="1034"
    cap-height="1446"
    bbox="-336 -596 2699 2044"
    underline-thickness="102"
    underline-position="-204"
    unicode-range="U+0020-FB04"
  />
<missing-glyph horiz-adv-x="1026" 
d="M0 0v1448h1026v-1448h-1026zM514 817l348 526h-698zM573 725l353 -526v1052zM164 102h698l-348 529zM102 1251v-1052l351 526z" />
    <glyph glyph-name="f_f" unicode="ff" horiz-adv-x="1519" 
d="M557 63q0 -26 -17 -44q-18 -19 -46 -19h-261q-57 0 -57 70v667h-80q-76 0 -76 76v148q0 29 18 51t54 22h84v43q0 213 107 303q144 117 456 117q97 0 103 -63q4 -35 4 -162q0 -64 -72 -72q-104 -7 -143 -21q-40 -14 -56 -40q-18 -30 -18 -78v-27h369v72q0 225 106 315
q144 117 457 117q96 0 102 -63q4 -35 4 -162q0 -65 -71 -72q-105 -7 -144 -21q-39 -13 -55 -40q-18 -30 -18 -99v-47h143q72 0 72 -73v-156q0 -68 -74 -68h-141v-674q0 -25 -18 -44t-46 -19h-260q-57 0 -57 70v667h-369v-674z" />
    <glyph glyph-name="fi" unicode="fi" horiz-adv-x="1366" 
d="M557 63q0 -26 -17 -44q-18 -19 -46 -19h-261q-57 0 -57 70v667h-80q-76 0 -76 76v148q0 29 18 51t54 22h84v72q0 225 107 315q135 117 407 117q97 0 103 -63q4 -35 4 -162q0 -61 -72 -72q-116 -15 -150 -61q-18 -27 -18 -99v-47h635q35 0 47 -16t12 -51v-897
q0 -70 -65 -70h-254q-62 0 -62 70v667h-313v-674zM1255 1339q0 -190 -194 -190q-191 0 -191 188q0 193 191 193q95 0 144 -43q50 -44 50 -148z" />
    <glyph glyph-name="fl" unicode="fl" horiz-adv-x="1433" 
d="M557 63q0 -26 -17 -44q-18 -19 -46 -19h-261q-57 0 -57 70v667h-80q-76 0 -76 76v148q0 29 18 51t54 22h84v72q0 214 119 309q80 62 205 92q129 31 379 31q133 0 276 -14q49 -5 69 -22q21 -18 21 -58v-981q0 -91 15 -131q21 -52 116 -68q56 -8 56 -69q0 -83 -9 -142
q-7 -38 -28 -53q-20 -14 -64 -14q-178 0 -267 32q-91 33 -142 109q-58 85 -58 287v811q-80 6 -94 6q-147 0 -184 -49q-29 -35 -29 -105v-43h143q72 0 72 -73v-156q0 -68 -74 -68h-141v-674z" />
    <glyph glyph-name="f_f_i" unicode="ffi" horiz-adv-x="2115" 
d="M557 63q0 -26 -17 -44q-18 -19 -46 -19h-261q-57 0 -57 70v667h-80q-76 0 -76 76v148q0 29 18 51t54 22h84v43q0 213 107 303q144 117 456 117q97 0 103 -63q4 -35 4 -162q0 -64 -72 -72q-104 -7 -143 -21q-40 -14 -56 -40q-18 -30 -18 -78v-27h369v72q0 225 106 315
q135 117 412 117q96 0 102 -63q4 -35 4 -162q0 -65 -71 -72q-74 -8 -104 -21q-29 -13 -50 -40q-18 -27 -18 -99v-47h635q35 0 47 -16t12 -51v-897q0 -70 -66 -70h-254q-61 0 -61 70v667h-313v-674q0 -25 -18 -44t-46 -19h-260q-57 0 -57 70v667h-369v-674zM2005 1339
q0 -190 -195 -190q-190 0 -190 188q0 193 190 193q96 0 145 -43q50 -44 50 -148z" />
    <glyph glyph-name="f_f_l" unicode="ffl" horiz-adv-x="2183" 
d="M557 63q0 -26 -17 -44q-18 -19 -46 -19h-261q-57 0 -57 70v667h-80q-76 0 -76 76v148q0 29 18 51t54 22h84v43q0 213 107 303q144 117 456 117q97 0 103 -63q4 -35 4 -162q0 -64 -72 -72q-104 -7 -143 -21q-40 -14 -56 -40q-18 -30 -18 -78v-27h369v72q0 215 118 309
q80 62 205 92q129 31 379 31q169 0 275 -14q46 -6 69 -23t23 -57v-981q0 -93 14 -131q21 -52 117 -68q55 -7 55 -69q0 -89 -8 -142q-7 -37 -29 -53q-20 -14 -63 -14q-178 0 -267 32q-93 33 -143 109q-57 84 -57 287v811q-73 6 -94 6q-148 0 -185 -49q-28 -34 -28 -105v-43
h143q72 0 72 -73v-156q0 -68 -74 -68h-141v-674q0 -25 -18 -44t-46 -19h-260q-57 0 -57 70v667h-369v-674z" />
    <glyph glyph-name="T_h" unicode="Th" horiz-adv-x="2422" 
d="M854 74q0 -36 -21 -55q-20 -19 -51 -19h-256q-67 0 -67 74v1044h-303q-70 0 -70 58v202q0 38 16 53t54 15h1153v10q0 76 77 76h228q45 0 60 -21q16 -22 16 -65v-447q116 64 307 64q253 0 297 -135q20 -59 20 -201v-657q0 -70 -61 -70h-258q-62 0 -62 70v573q0 43 -6 66
q-16 49 -92 49q-42 0 -82 -8q-31 -7 -49 -27q-14 -17 -14 -66v-587q0 -33 -19 -52q-18 -18 -47 -18h-254q-61 0 -61 70v1048h-455v-1044z" />
    <glyph glyph-name="Tcaron_h" unicode="&#x164;h" horiz-adv-x="2422" 
d="M854 74q0 -36 -21 -55q-20 -19 -51 -19h-256q-67 0 -67 74v1044h-303q-70 0 -70 58v202q0 38 16 53t54 15h1153v10q0 76 77 76h228q45 0 60 -21q16 -22 16 -65v-447q116 64 307 64q253 0 297 -135q20 -59 20 -201v-657q0 -70 -61 -70h-258q-62 0 -62 70v573q0 43 -6 66
q-16 49 -92 49q-42 0 -82 -8q-31 -7 -49 -27q-14 -17 -14 -66v-587q0 -33 -19 -52q-18 -18 -47 -18h-254q-61 0 -61 70v1048h-455v-1044zM883 1925q58 0 108 -8q60 -11 60 -49q0 -21 -25 -51l-190 -199q-63 -68 -127 -68h-127q-61 0 -111 56l-197 215q-22 22 -22 49
q0 40 57 47q53 8 119 8q58 0 109 -51l114 -111l125 117q45 45 107 45z" />
    <glyph glyph-name="f_b" unicode="fb" horiz-adv-x="1968" 
d="M557 63q0 -26 -17 -44q-18 -19 -46 -19h-261q-57 0 -57 70v667h-80q-76 0 -76 76v148q0 29 18 51t54 22h84v72q0 214 119 309q80 62 205 92q129 31 379 31q133 0 276 -14q49 -5 69 -22q21 -18 21 -58v-449q122 68 291 68q187 0 272 -121q86 -122 86 -401q0 -181 -33 -289
q-35 -113 -108 -173q-74 -61 -167 -83q-95 -23 -236 -23q-254 0 -402 50q-59 18 -74 63q-10 33 -10 68v1071q-40 6 -94 6q-147 0 -184 -49q-29 -35 -29 -105v-43h143q72 0 72 -73v-156q0 -68 -74 -68h-141v-674zM1245 348q0 -44 10 -55q12 -13 39 -19q19 -4 58 -4
q100 0 130 49q29 48 29 203q0 145 -20 189q-21 47 -94 47q-87 0 -129 -25q-15 -10 -19 -22q-4 -11 -4 -39v-324z" />
    <glyph glyph-name="f_f_b" unicode="ffb" horiz-adv-x="2717" 
d="M557 63q0 -26 -17 -44q-18 -19 -46 -19h-261q-57 0 -57 70v667h-80q-76 0 -76 76v148q0 29 18 51t54 22h84v43q0 213 107 303q144 117 456 117q97 0 103 -63q4 -35 4 -162q0 -64 -72 -72q-104 -7 -143 -21q-40 -14 -56 -40q-18 -30 -18 -78v-27h369v72q0 215 118 309
q80 62 205 92q129 31 379 31q169 0 275 -14q46 -6 69 -23t23 -57v-449q122 68 291 68q187 0 272 -121q86 -122 86 -401q0 -178 -34 -289q-35 -114 -107 -173q-74 -61 -167 -83q-95 -23 -237 -23q-253 0 -401 50q-59 18 -74 63q-10 33 -10 68v1071q-80 6 -94 6
q-148 0 -185 -49q-28 -34 -28 -105v-43h143q72 0 72 -73v-156q0 -68 -74 -68h-141v-674q0 -25 -18 -44t-46 -19h-260q-57 0 -57 70v667h-369v-674zM1995 348q0 -44 10 -55q12 -13 39 -19q19 -4 57 -4q100 0 130 49t30 203q0 145 -20 189q-21 47 -95 47q-87 0 -129 -25
q-13 -9 -18 -22q-4 -11 -4 -39v-324z" />
    <glyph glyph-name="f_f_h" unicode="ffh" horiz-adv-x="2734" 
d="M557 63q0 -26 -17 -44q-18 -19 -46 -19h-261q-57 0 -57 70v667h-80q-76 0 -76 76v148q0 29 18 51t54 22h84v43q0 213 107 303q144 117 456 117q97 0 103 -63q4 -35 4 -162q0 -64 -72 -72q-104 -7 -143 -21q-40 -14 -56 -40q-18 -30 -18 -78v-27h369v72q0 215 118 309
q80 62 205 92q129 31 379 31q169 0 275 -14q46 -6 69 -23t23 -57v-445q42 25 135 44q97 20 160 20q257 0 307 -131q22 -59 22 -201v-661q0 -70 -61 -70h-258q-62 0 -62 70v573q0 43 -6 66q-16 49 -92 49q-39 0 -82 -8q-28 -4 -49 -27q-14 -14 -14 -66v-587q0 -33 -19 -52
q-18 -18 -47 -18h-254q-61 0 -61 70v1155q-73 6 -94 6q-148 0 -185 -49q-28 -34 -28 -105v-43h143q72 0 72 -73v-156q0 -68 -74 -68h-141v-674q0 -25 -18 -44t-46 -19h-260q-57 0 -57 70v667h-369v-674z" />
    <glyph glyph-name="f_f_j" unicode="ffj" horiz-adv-x="2111" 
d="M557 63q0 -26 -17 -44q-18 -19 -46 -19h-261q-57 0 -57 70v667h-80q-76 0 -76 76v148q0 29 18 51t54 22h84v43q0 213 107 303q144 117 456 117q97 0 103 -63q4 -35 4 -162q0 -64 -72 -72q-104 -7 -143 -21q-40 -14 -56 -40q-18 -30 -18 -78v-27h369v72q0 225 106 315
q135 117 408 117q96 0 102 -63q4 -35 4 -162q0 -66 -63 -72q-126 -17 -158 -59q-18 -27 -18 -101v-47h635q35 0 47 -16t12 -51v-949q0 -244 -82 -344q-51 -65 -166 -109q-114 -44 -274 -44q-50 0 -68 18q-19 19 -25 51q-12 68 -12 144q0 73 64 84q100 15 143 49
q39 33 39 145v725h-313v-674q0 -25 -18 -44t-46 -19h-260q-57 0 -57 70v667h-369v-674zM2005 1339q0 -190 -195 -190q-190 0 -190 188q0 193 190 193q96 0 145 -43q50 -44 50 -148z" />
    <glyph glyph-name="f_f_k" unicode="ffk" horiz-adv-x="2703" 
d="M557 63q0 -26 -17 -44q-18 -19 -46 -19h-261q-57 0 -57 70v667h-80q-76 0 -76 76v148q0 29 18 51t54 22h84v43q0 213 107 303q144 117 456 117q97 0 103 -63q4 -35 4 -162q0 -64 -72 -72q-104 -7 -143 -21q-40 -14 -56 -40q-18 -30 -18 -78v-27h369v72q0 215 118 309
q80 62 205 92q129 31 379 31q169 0 275 -14q46 -6 69 -23t23 -57v-721h55q70 0 94 47l115 219q27 51 84 51q238 0 274 -14q27 -10 27 -43q0 -21 -21 -55q-163 -272 -206 -336l258 -469q24 -45 24 -72q0 -33 -30 -43q-41 -14 -297 -14q-55 0 -82 49l-176 336q-18 37 -84 37
h-35v-346q0 -70 -66 -70h-254q-61 0 -61 70v1155q-73 6 -94 6q-148 0 -185 -49q-28 -34 -28 -105v-43h143q72 0 72 -73v-156q0 -68 -74 -68h-141v-674q0 -25 -18 -44t-46 -19h-260q-57 0 -57 70v667h-369v-674z" />
    <glyph glyph-name="f_h" unicode="fh" horiz-adv-x="1984" 
d="M557 63q0 -26 -17 -44q-18 -19 -46 -19h-261q-57 0 -57 70v667h-80q-76 0 -76 76v148q0 29 18 51t54 22h84v72q0 214 119 309q80 62 205 92q129 31 379 31q168 0 274 -14q47 -6 70 -23q22 -16 22 -57v-445q42 25 135 44q97 20 160 20q257 0 307 -131q23 -61 23 -201v-661
q0 -70 -62 -70h-258q-61 0 -61 70v573q0 43 -6 66q-16 49 -92 49q-39 0 -82 -8q-28 -4 -49 -27q-15 -15 -15 -66v-587q0 -34 -18 -52t-47 -18h-254q-62 0 -62 70v1155q-55 6 -94 6q-147 0 -184 -49q-29 -35 -29 -105v-43h143q72 0 72 -73v-156q0 -68 -74 -68h-141v-674z" />
    <glyph glyph-name="f_j" unicode="fj" horiz-adv-x="1361" 
d="M557 63q0 -26 -17 -44q-18 -19 -46 -19h-261q-57 0 -57 70v667h-80q-76 0 -76 76v148q0 29 18 51t54 22h84v72q0 225 107 315q135 117 407 117q97 0 103 -63q4 -35 4 -162q0 -68 -72 -74q-121 -15 -150 -57q-18 -27 -18 -101v-47h635q35 0 47 -16t12 -51v-949
q0 -244 -82 -344q-52 -65 -165 -109q-114 -44 -275 -44q-49 0 -67 18q-19 19 -25 51q-12 68 -12 144q0 74 63 84q100 15 143 49q39 33 39 145v725h-313v-674zM1255 1339q0 -190 -194 -190q-191 0 -191 188q0 193 191 193q95 0 144 -43q50 -44 50 -148z" />
    <glyph glyph-name="f_k" unicode="fk" horiz-adv-x="1953" 
d="M557 63q0 -26 -17 -44q-18 -19 -46 -19h-261q-57 0 -57 70v667h-80q-76 0 -76 76v148q0 29 18 51t54 22h84v72q0 214 119 309q80 62 205 92q129 31 379 31q168 0 274 -14q92 -11 92 -86v-715h55q71 0 95 47l114 219q27 51 84 51q239 0 275 -14q26 -10 26 -43
q0 -22 -20 -55q-155 -259 -207 -336l258 -469q25 -47 25 -72q0 -32 -31 -43q-41 -14 -297 -14q-55 0 -82 49l-176 336q-18 37 -84 37h-35v-346q0 -70 -65 -70h-254q-62 0 -62 70v1155q-46 6 -96 6q-145 0 -182 -49q-29 -35 -29 -105v-43h143q72 0 72 -73v-156q0 -68 -74 -68
h-141v-674z" />
    <glyph glyph-name="uni0162_h" unicode="&#x162;h" horiz-adv-x="2422" 
d="M725 -94q63 -1 104 -23q42 -22 58 -58q15 -33 20 -69q4 -27 4 -82q0 -235 -331 -235q-64 0 -107 8q-61 12 -61 61q0 46 8 78q11 35 25 45q16 11 47 11q3 0 61 -7q22 -2 43 -2q57 0 57 45q0 50 -53 50h-37q-51 0 -51 45q0 29 12 86l31 141h-29q-67 0 -67 74v1044h-303
q-70 0 -70 58v202q0 38 16 53t54 15h1153v10q0 76 77 76h228q45 0 60 -21q16 -22 16 -65v-447q116 64 307 64q253 0 297 -135q20 -59 20 -201v-657q0 -70 -61 -70h-258q-62 0 -62 70v573q0 43 -6 66q-16 49 -92 49q-42 0 -82 -8q-31 -7 -49 -27q-14 -17 -14 -66v-587
q0 -33 -19 -52q-18 -18 -47 -18h-254q-61 0 -61 70v1048h-455v-1044q0 -36 -21 -55q-20 -19 -51 -19h-41z" />
    <glyph glyph-name="uni021A_h" unicode="&#x21a;h" horiz-adv-x="2422" 
d="M854 74q0 -36 -21 -55q-20 -19 -51 -19h-256q-67 0 -67 74v1044h-303q-70 0 -70 58v202q0 38 16 53t54 15h1153v10q0 76 77 76h228q45 0 60 -21q16 -22 16 -65v-447q116 64 307 64q253 0 297 -135q20 -59 20 -201v-657q0 -70 -61 -70h-258q-62 0 -62 70v573q0 43 -6 66
q-16 49 -92 49q-42 0 -82 -8q-31 -7 -49 -27q-14 -17 -14 -66v-587q0 -33 -19 -52q-18 -18 -47 -18h-254q-61 0 -61 70v1048h-455v-1044zM627 -92h84q82 0 82 -92q0 -217 -125 -363q-40 -49 -82 -49q-34 0 -74 21q-41 21 -41 57q0 20 18 63q39 105 39 273q0 47 23 68
q24 22 76 22z" />
    <glyph glyph-name=".notdef" horiz-adv-x="1026" 
d="M0 0v1448h1026v-1448h-1026zM514 817l348 526h-698zM573 725l353 -526v1052zM164 102h698l-348 529zM102 1251v-1052l351 526z" />
    <glyph glyph-name=".null" horiz-adv-x="0" 
 />
    <glyph glyph-name="nonmarkingreturn" horiz-adv-x="681" 
 />
    <glyph glyph-name="space" unicode=" " horiz-adv-x="444" 
 />
    <glyph glyph-name="exclam" unicode="!" horiz-adv-x="630" 
d="M516 618q-6 -88 -110 -88h-109q-55 0 -84 20q-30 20 -31 75q-37 570 -37 694q0 62 22 95q21 32 81 32h205q51 0 78 -25q26 -24 26 -88q0 -120 -41 -715zM547 180q0 -205 -207 -205q-84 0 -142 47q-57 46 -57 156q0 211 205 211q94 0 147 -46q54 -47 54 -163z" />
    <glyph glyph-name="quotedbl" unicode="&#x22;" horiz-adv-x="849" 
d="M330 913q-4 -48 -24 -66t-64 -18h-31q-45 0 -65 18q-19 18 -25 73q-29 295 -29 432q0 114 103 114h69q51 0 74 -20q24 -21 24 -80q0 -142 -32 -453zM723 913q-4 -48 -24 -66q-19 -18 -64 -18h-31q-44 0 -64 18q-20 19 -26 73q-29 295 -29 432q0 114 103 114h69
q51 0 74 -20q25 -22 25 -80q0 -132 -33 -453z" />
    <glyph glyph-name="numbersign" unicode="#" horiz-adv-x="1216" 
d="M395 27q-11 -62 -69 -62q-76 0 -100 12q-23 11 -23 46q0 7 6 63l37 250h-107q-69 0 -69 65v172q0 62 69 62h152l20 131h-116q-70 0 -70 65v173q0 61 70 61h159l45 293q7 59 68 59q78 0 102 -9q25 -9 25 -38q0 -4 -6 -59l-37 -246h221l45 293q7 59 68 59q81 0 104 -9
t23 -38q0 -4 -6 -59l-37 -246h106q70 0 70 -64v-176q0 -35 -17 -47q-16 -12 -51 -12h-153l-21 -131h117q70 0 70 -64v-176q0 -35 -17 -47t-51 -12h-164l-45 -309q-4 -32 -19 -47t-51 -15q-79 0 -100 11q-22 12 -22 47q0 7 6 63l37 250h-224zM506 766l-21 -131h224l20 131
h-223z" />
    <glyph glyph-name="dollar" unicode="$" horiz-adv-x="1183" 
d="M739 -154q0 -55 -45 -55h-162q-25 0 -37 12t-12 43v144q-210 5 -348 53q-53 21 -53 76q0 47 33 149q21 66 78 66q5 0 81 -17q131 -32 301 -32q88 0 117 22q31 23 31 74q0 61 -23 84q-22 22 -92 37l-149 30q-173 34 -259 134q-85 98 -85 288q0 363 368 418v152q0 59 52 59
h157q47 0 47 -59v-144q178 -7 275 -39q53 -21 53 -75q0 -41 -31 -156q-15 -57 -59 -57q-21 0 -90 10q-138 22 -277 22q-116 0 -116 -100q0 -86 104 -108l172 -39q192 -52 263 -137q69 -83 69 -273q0 -358 -363 -426v-156z" />
    <glyph glyph-name="percent" unicode="%" horiz-adv-x="1826" 
d="M762 969q0 -256 -80 -351q-79 -94 -276 -94q-192 0 -268 93q-77 94 -77 352q0 248 90 341q88 91 265 91q129 0 200 -31q70 -30 108 -126t38 -275zM500 963q0 157 -15 197t-75 40q-54 0 -72 -45q-19 -47 -19 -190q0 -151 19 -199q18 -45 72 -45q53 0 71 44q19 46 19 198z
M645 -29q-21 -37 -55 -37q-41 0 -68 5q-24 6 -24 26q0 17 12 41l678 1405q22 49 61 49q41 0 66 -4q28 -4 28 -29q0 -11 -16 -47zM1765 428q0 -256 -79 -350t-277 -94q-191 0 -267 93q-77 94 -77 351q0 249 89 341q88 91 265 91q130 0 201 -31q69 -30 107 -126t38 -275z
M1503 422q0 160 -14 198q-14 39 -76 39q-54 0 -72 -45t-18 -190q0 -154 18 -199t72 -45t72 44q18 43 18 198z" />
    <glyph glyph-name="ampersand" unicode="&#x26;" horiz-adv-x="1536" 
d="M1063 82q-138 -109 -406 -109q-292 0 -434 109q-141 108 -141 336q0 157 62 241q65 88 212 156q-114 121 -114 291q0 168 99 268q99 101 351 101q130 0 242 -25q74 -17 74 -61q0 -98 -25 -179q-17 -51 -72 -51q-1 0 -25 2q-12 1 -36 5q-18 3 -25 3q-66 7 -120 7
q-55 0 -77 -20t-22 -56q0 -40 29 -81q25 -36 129 -138q42 -42 85 -84q65 -63 123 -120q18 -18 89 -85q8 19 8 74q0 21 -1 41t-1 36q0 74 70 82q96 11 149 11t81 -13q27 -13 34 -49q10 -39 10 -100q0 -102 -28 -200q-27 -95 -68 -142q32 -34 186 -182q37 -37 37 -68
q0 -58 -88 -74q-100 -18 -213 -18q-78 0 -123 39q-17 15 -30 29q-5 6 -9.5 11t-7.5 8.5t-4 4.5zM842 309q-105 96 -297 297q-76 -57 -76 -155q0 -90 56 -133q58 -44 151 -44q114 0 166 35z" />
    <glyph glyph-name="quotesingle" unicode="'" horiz-adv-x="454" 
d="M330 913q-4 -48 -24 -66t-64 -18h-31q-45 0 -65 18q-19 18 -25 73q-29 295 -29 432q0 114 103 114h69q51 0 74 -20q24 -21 24 -80q0 -142 -32 -453z" />
    <glyph glyph-name="parenleft" unicode="(" horiz-adv-x="739" 
d="M430 633q0 -141 15 -252q14 -105 37 -183q21 -72 65 -142q43 -68 77 -108q40 -47 97 -104q18 -18 18 -45q0 -15 -18 -43q-17 -26 -41 -49q-26 -26 -57 -26q-33 0 -91 32q-53 28 -110 75q-55 45 -117 124q-60 76 -109 175q-46 94 -78 238q-32 145 -32 306q0 199 46 364
q47 167 120 275q74 108 141 174q65 64 137 106q62 35 93 35q27 0 55 -24q59 -46 59 -86q0 -30 -22 -52q-72 -71 -113 -124q-45 -59 -87 -147q-43 -90 -64 -219q-21 -127 -21 -300z" />
    <glyph glyph-name="parenright" unicode=")" horiz-adv-x="739" 
d="M309 633q0 141 -15 252q-14 105 -37 183q-21 73 -64 141q-45 72 -77 109q-29 34 -98 103q-18 18 -18 45q0 14 18 43t41 50q26 26 58 26q30 0 90 -33q57 -30 110 -74q55 -45 117 -124q63 -80 110 -175q46 -94 78 -238q31 -140 31 -306q0 -200 -46 -365q-46 -166 -120 -274
q-73 -108 -141 -174q-68 -67 -137 -107q-61 -34 -92 -34q-27 0 -56 24q-59 46 -59 86q0 28 23 51q69 67 112 124q44 58 87 148q44 93 65 219q20 121 20 300z" />
    <glyph glyph-name="asterisk" unicode="*" horiz-adv-x="876" 
d="M438 883l-102 -158q-27 -37 -62 -37q-26 0 -88 43q-37 24 -37 64q0 26 21 53q71 90 123 149q-84 18 -174 45q-64 18 -64 74q0 17 19 76q18 53 78 53q22 0 55 -12q87 -29 145 -55q-16 111 -16 176q0 50 20 70q22 22 82 22q68 0 89 -19q20 -18 20 -67q0 -86 -10 -187
q115 49 161 66q22 8 54 8q45 0 63 -55q19 -59 19 -80q0 -54 -60 -70q-79 -25 -182 -47q77 -88 121 -147q20 -21 20 -51q0 -38 -37 -62q-59 -43 -86 -43q-38 0 -65 37q-71 97 -107 154z" />
    <glyph glyph-name="plus" unicode="+" horiz-adv-x="1435" 
d="M844 145q0 -73 -82 -73h-86q-82 0 -82 73v342h-336q-74 0 -74 82v70q0 82 74 82h334v342q0 74 82 74h88q82 0 82 -74v-342h334q73 0 73 -82v-70q0 -82 -73 -82h-334v-342z" />
    <glyph glyph-name="comma" unicode="," horiz-adv-x="550" 
d="M242 367h112q101 0 101 -93q0 -135 -69 -315t-159 -285q-52 -61 -96 -61q-43 0 -96 29t-53 69q0 34 28 78q101 168 117 469q6 109 115 109z" />
    <glyph glyph-name="hyphen" unicode="-" horiz-adv-x="720" 
d="M588 401h-453q-69 0 -69 66v172q0 61 69 61h451q69 0 69 -63v-176q0 -35 -16 -47q-18 -13 -51 -13z" />
    <glyph glyph-name="period" unicode="." horiz-adv-x="550" 
d="M477 180q0 -205 -207 -205q-84 0 -142 47q-56 46 -56 156q0 211 204 211q94 0 147 -46q54 -47 54 -163z" />
    <glyph glyph-name="slash" unicode="/" horiz-adv-x="886" 
d="M279 -139q-21 -70 -78 -70q-89 0 -138 6q-40 6 -40 39q0 20 12 53l575 1594q21 59 70 59q86 0 139 -6q41 -5 41 -45q0 -16 -14 -57z" />
    <glyph glyph-name="zero" unicode="0" horiz-adv-x="1228" 
d="M1163 700q0 -286 -57 -444q-57 -157 -174 -220t-324 -63q-199 0 -314 62q-114 61 -171 219t-57 444q0 217 38 357q38 142 117 219q75 74 173 105q94 30 231 30q153 0 247 -27q97 -28 164 -102q71 -79 99 -215q28 -137 28 -365zM774 694q0 191 -11 265q-12 83 -43 112
q-33 31 -106 31q-62 0 -96 -31q-32 -29 -49 -118q-16 -84 -16 -257q0 -182 15 -271t47 -119q31 -30 97 -30q65 0 98 28q31 27 48 118q16 87 16 272z" />
    <glyph glyph-name="one" unicode="1" horiz-adv-x="1228" 
d="M1024 0h-682q-70 0 -70 66v180q0 61 70 61h176v721l-160 -59q-28 -11 -53 -11q-30 0 -45 37q-63 183 -63 207q0 31 36 45l213 84q135 53 244 53h25q184 0 184 -186v-891h123q70 0 70 -63v-185q0 -35 -17 -47t-51 -12z" />
    <glyph glyph-name="two" unicode="2" horiz-adv-x="1228" 
d="M1055 0h-852q-68 0 -107 46q-39 47 -39 124q0 125 101 199q240 176 377 297q137 122 137 258q0 103 -46 140q-47 38 -159 38q-81 0 -201 -19q-69 -10 -76 -10q-14 0 -28 10q-16 11 -17 25q-26 129 -26 190q0 49 53 64q158 47 406 47q151 0 253 -32q101 -32 149 -96
q47 -64 64 -133q17 -71 17 -169q0 -217 -131 -348q-147 -142 -385 -312q243 3 510 3q69 0 69 -66v-190q0 -66 -69 -66z" />
    <glyph glyph-name="three" unicode="3" horiz-adv-x="1228" 
d="M799 735q165 -18 230 -97q67 -81 67 -243q0 -97 -23 -169q-23 -71 -81 -131q-60 -61 -174 -91q-119 -31 -290 -31q-200 0 -360 35q-53 12 -53 64q0 67 30 190q12 43 54 43q11 0 80 -10q83 -14 227 -14q120 0 160 30q41 30 41 101q0 79 -47 106t-175 33q-70 5 -101 36
q-32 32 -32 126q0 81 34 114t101 37q94 6 135 32q40 25 40 85q0 67 -38 94t-147 27q-105 0 -182 -12q-68 -9 -76 -9q-13 0 -29 11q-15 10 -16 24q-22 176 -22 193q0 48 53 63q123 37 364 37q154 0 251 -23t144 -77q48 -56 63 -121q15 -66 15 -174q0 -95 -59 -173
q-60 -79 -184 -106z" />
    <glyph glyph-name="four" unicode="4" horiz-adv-x="1228" 
d="M668 274h-459q-70 0 -111 39t-41 121q0 52 10 104q9 48 20 71q3 6 15 32t21 45l326 639q30 64 102 64q227 0 266 -11q27 -8 27 -37q0 -27 -15 -55l-374 -690h213v154q0 35 18 56t51 21h232q65 0 65 -71v-160h64q78 0 78 -66v-194q0 -62 -78 -62h-64v-200q0 -36 -20 -55
t-51 -19h-228q-67 0 -67 74v200z" />
    <glyph glyph-name="five" unicode="5" horiz-adv-x="1228" 
d="M494 854q94 14 178 14q116 0 190 -15q72 -15 133 -59q59 -43 85 -130t26 -226q0 -112 -23 -192q-23 -79 -82 -144q-60 -66 -175 -97q-117 -32 -291 -32q-249 0 -369 35q-53 15 -53 64q0 68 26 178q4 22 24 37q18 14 42 14q37 0 80 -6q83 -14 225 -14q126 0 164 25
q39 26 39 118q0 86 -47 110q-45 23 -150 23q-58 0 -138 -5t-81 -5q-64 0 -101 34q-38 35 -38 101q0 54 2 90l28 537q1 27 23 52q20 23 45 23h705q67 0 67 -61v-197q0 -61 -76 -61h-450z" />
    <glyph glyph-name="six" unicode="6" horiz-adv-x="1228" 
d="M469 827q93 70 262 70q232 0 326 -100t94 -355q0 -247 -123 -358t-395 -111q-307 0 -424 159t-117 542q0 386 150 562q150 175 479 175q191 0 291 -25q53 -15 53 -65q0 -93 -25 -188q-12 -41 -53 -41q-17 0 -102 6q-126 8 -162 8q-135 0 -194 -57q-58 -57 -60 -222z
M477 475q0 -62 15 -119q21 -86 143 -86q87 0 124 32q36 32 36 134q0 100 -39 133t-117 33q-125 0 -152 -57q-10 -20 -10 -70z" />
    <glyph glyph-name="seven" unicode="7" horiz-adv-x="1228" 
d="M696 1067q-202 -2 -546 -2q-76 0 -76 61v197q0 61 67 61h820q90 0 132 -32q44 -33 44 -115q0 -91 -45 -199l-379 -956q-34 -88 -113 -88q-158 0 -246 12q-59 7 -59 64q0 35 20 84z" />
    <glyph glyph-name="eight" unicode="8" horiz-adv-x="1228" 
d="M897 731q144 -24 198 -111t54 -225q0 -218 -124 -320q-125 -102 -419 -102q-281 0 -404 100q-122 99 -122 310q0 282 262 342q-229 55 -229 301q0 203 128 293q127 90 388 90q255 0 376 -89q119 -88 119 -286q0 -251 -227 -303zM762 418q0 75 -35 107t-113 32
q-84 0 -118 -34q-35 -35 -35 -109q0 -77 34 -112q35 -36 117 -36t116 37t34 115zM741 981q0 71 -27 100t-100 29t-102 -31t-29 -100q0 -65 26 -93t101 -28q71 0 102 29q29 28 29 94z" />
    <glyph glyph-name="nine" unicode="9" horiz-adv-x="1228" 
d="M764 561q-95 -69 -262 -69q-232 0 -326 98t-94 350q0 246 130 358q131 113 404 113q306 0 415 -159q110 -160 110 -545q0 -390 -144 -564t-469 -174q-229 0 -325 27q-53 15 -53 63q0 86 24 191q8 41 53 41q19 0 92 -6q90 -11 193 -11q137 0 194 63q57 62 58 224zM756 930
q0 83 -17 119q-28 65 -139 65q-83 0 -123 -35q-39 -35 -39 -133q0 -100 39 -130t117 -30q138 0 154 60q8 29 8 84z" />
    <glyph glyph-name="colon" unicode=":" horiz-adv-x="591" 
d="M518 180q0 -205 -207 -205q-84 0 -142 47q-56 46 -56 156q0 211 204 211q94 0 147 -46q54 -47 54 -163zM518 829q0 -204 -207 -204q-86 0 -142 46t-56 156q0 211 204 211q94 0 147 -46q54 -47 54 -163z" />
    <glyph glyph-name="semicolon" unicode=";" horiz-adv-x="591" 
d="M522 829q0 -204 -213 -204q-192 0 -192 202q0 211 205 211q93 0 146 -46q54 -47 54 -163zM276 367h113q100 0 100 -93q0 -138 -68 -315q-69 -180 -159 -285q-52 -61 -96 -61q-43 0 -96 29q-54 29 -54 69q0 32 29 78q101 168 117 469q6 109 114 109z" />
    <glyph glyph-name="less" unicode="&#x3c;" horiz-adv-x="1435" 
d="M477 606l627 -274q61 -28 61 -94q0 -58 -4 -109q-6 -63 -51 -63q-29 0 -53 12l-772 371q-62 29 -62 96v117q0 68 60 96l766 372q34 17 61 17q24 0 36 -13q10 -11 15 -53q4 -36 4 -100q0 -68 -61 -96z" />
    <glyph glyph-name="equal" unicode="=" horiz-adv-x="1435" 
d="M1251 340q0 -82 -73 -82h-920q-74 0 -74 82v70q0 82 74 82h920q73 0 73 -82v-70zM1251 799q0 -82 -73 -82h-920q-74 0 -74 82v73q0 82 74 82h920q73 0 73 -82v-73z" />
    <glyph glyph-name="greater" unicode="&#x3e;" horiz-adv-x="1435" 
d="M961 606l-627 275q-62 29 -62 94q0 57 4 108q6 64 52 64q29 0 53 -12l772 -371q61 -28 61 -96v-117q0 -68 -59 -96l-766 -373q-32 -16 -61 -16q-24 0 -36 13q-11 13 -16 52q-4 36 -4 100q0 68 62 97z" />
    <glyph glyph-name="question" unicode="?" horiz-adv-x="995" 
d="M530 532h-135q-69 0 -84 43q-8 26 -8 87q0 55 12 88q11 30 60 71q92 78 130 128q36 48 36 100q0 58 -31 91q-30 31 -113 31q-76 0 -135 -8q-70 -8 -78 -8q-66 0 -82 66q-16 64 -16 131q1 73 80 94q118 31 297 31q267 0 372 -81t105 -278q0 -115 -40 -188
q-41 -75 -177 -160q-103 -64 -115 -135q-2 -7 -5 -32q-3 -29 -7 -38q-12 -33 -66 -33zM659 180q0 -205 -206 -205q-85 0 -143 47q-56 46 -56 156q0 211 205 211q93 0 146 -46q54 -47 54 -163z" />
    <glyph glyph-name="at" unicode="@" horiz-adv-x="1660" 
d="M932 227q-41 -56 -109 -83q-67 -27 -129 -27q-274 0 -274 272q0 124 57 265q56 140 152 223q111 96 289 96q129 0 262 -31q55 -12 55 -57q0 -32 -14 -94l-84 -377q-13 -60 -13 -86q0 -43 39 -43q36 0 72 26q82 61 128 179q46 117 46 249q0 449 -485 449q-276 0 -470 -200
t-194 -527q0 -270 154 -418q153 -147 420 -147q233 0 413 59q44 16 68 16q35 0 53 -59q6 -16 6 -39q0 -31 -47 -49q-222 -88 -496 -88q-348 0 -550 187q-203 188 -203 538q0 373 240 621q240 247 610 247q304 0 480 -146q177 -147 177 -438q0 -251 -138 -440
q-137 -188 -337 -188q-168 0 -178 110zM940 418l74 330q6 23 6 40q0 24 -27 29q-45 6 -78 6q-104 0 -161 -67q-55 -63 -87 -155q-32 -93 -32 -179q0 -141 117 -141q84 0 137 41q20 13 31 38q13 21 20 58z" />
    <glyph glyph-name="A" unicode="A" horiz-adv-x="1421" 
d="M492 311l-68 -235q-12 -45 -30 -63q-17 -17 -54 -17q-242 0 -293 12q-37 7 -37 49q0 28 17 74l356 1092q41 132 97 182q57 51 204 51h94q76 0 117 -11q46 -12 74 -46q29 -35 41 -65q9 -23 34 -99l353 -1100q14 -36 14 -76q0 -36 -33 -51q-28 -12 -291 -12q-36 0 -57 18
t-33 62l-69 235h-436zM586 627h258q-114 440 -127 503q-9 -43 -131 -503z" />
    <glyph glyph-name="B" unicode="B" horiz-adv-x="1368" 
d="M625 0h-242q-240 0 -240 240v958q0 121 65 184q66 64 179 64h256q125 0 231 -12q192 -22 283 -106q90 -82 90 -241q0 -131 -51 -211q-50 -78 -162 -116q258 -62 258 -340q0 -286 -207 -369q-129 -51 -460 -51zM537 594v-211q0 -41 16 -57q17 -17 59 -17h119q50 0 94 15
q66 24 66 135q0 97 -76 121q-42 14 -162 14h-116zM537 889h98q113 0 147 12q72 24 72 115q0 59 -24 86t-68 37q-43 8 -78 8h-92q-31 0 -43 -17q-12 -16 -12 -55v-186z" />
    <glyph glyph-name="C" unicode="C" horiz-adv-x="1204" 
d="M479 729q0 -137 20 -228q20 -90 60 -136q41 -47 91 -65q47 -17 128 -17q116 0 223 26q44 10 68 10q29 0 41 -28q43 -113 43 -193q0 -43 -49 -61q-178 -64 -445 -64q-140 0 -243 35q-102 34 -180 117q-78 82 -118 225q-40 142 -40 350q0 415 145 594q146 181 498 181
q232 0 350 -31q53 -15 53 -64q0 -92 -41 -206q-12 -33 -49 -33l-71 10q-106 12 -179 12q-80 0 -131 -15q-49 -14 -94 -61q-43 -44 -61 -132q-19 -92 -19 -226z" />
    <glyph glyph-name="D" unicode="D" horiz-adv-x="1445" 
d="M580 0h-197q-240 0 -240 240v958q0 121 65 184q66 64 179 64h225q270 0 400 -39q184 -52 270 -218t86 -452q0 -291 -78 -451q-78 -161 -280 -237q-134 -49 -430 -49zM537 401q0 -41 15 -57t58 -16h92q80 0 136 28q73 40 99 122q26 83 26 257q0 173 -27 250t-102 109
q-55 26 -150 26h-86q-61 0 -61 -71v-648z" />
    <glyph glyph-name="E" unicode="E" horiz-adv-x="1171" 
d="M1059 0h-672q-244 0 -244 240v958q0 121 65 184q66 64 179 64h633q36 0 53 -15t17 -53v-202q0 -58 -70 -58h-422q-61 0 -61 -71v-138h440q37 0 53 -15q17 -15 17 -52v-203q0 -57 -70 -57h-440v-181q0 -41 16 -57t59 -16h447q35 0 53 -16q16 -15 16 -52v-203
q0 -57 -69 -57z" />
    <glyph glyph-name="F" unicode="F" horiz-adv-x="1114" 
d="M537 74q0 -36 -21 -55q-20 -19 -51 -19h-254q-68 0 -68 74v1124q0 121 65 184q66 64 179 64h612q37 0 54 -15q16 -15 16 -53v-202q0 -58 -70 -58h-401q-61 0 -61 -71v-191h378q37 0 54 -15q16 -15 16 -53v-202q0 -58 -70 -58h-378v-454z" />
    <glyph glyph-name="G" unicode="G" horiz-adv-x="1388" 
d="M1280 150q0 -53 -23 -76q-20 -20 -49 -31q-193 -70 -524 -70q-312 0 -459 161q-147 160 -147 566q0 410 155 592q156 183 512 183q248 0 400 -41q53 -15 53 -64q0 -96 -39 -203q-15 -34 -49 -34q-9 0 -70 8q-125 22 -235 22q-83 0 -135 -15q-55 -16 -101 -59
q-47 -44 -68 -134q-22 -93 -22 -226q0 -184 37 -283q38 -101 96 -132q59 -31 164 -31q104 0 152 16q28 7 28 43v137h-170q-45 0 -45 49v226q0 53 47 53h437q55 0 55 -55v-602z" />
    <glyph glyph-name="H" unicode="H" horiz-adv-x="1495" 
d="M537 74q0 -36 -21 -55q-20 -19 -51 -19h-254q-68 0 -68 74v1298q0 74 70 74h258q66 0 66 -72v-465h421v463q0 74 70 74h258q66 0 66 -72v-1300q0 -36 -21 -55q-20 -19 -51 -19h-254q-68 0 -68 74v508h-421v-508z" />
    <glyph glyph-name="I" unicode="I" horiz-adv-x="679" 
d="M537 74q0 -36 -21 -55q-20 -19 -51 -19h-254q-68 0 -68 74v1298q0 74 70 74h258q66 0 66 -72v-1300z" />
    <glyph glyph-name="J" unicode="J" horiz-adv-x="733" 
d="M594 209q0 -241 -86 -344q-55 -66 -172 -115q-116 -49 -277 -49q-49 0 -67 18q-19 19 -25 52q-12 68 -12 143q0 74 63 84q101 15 144 49q39 33 39 146v1179q0 74 69 74h258q66 0 66 -72v-1165z" />
    <glyph glyph-name="K" unicode="K" horiz-adv-x="1415" 
d="M537 74q0 -36 -21 -55q-20 -19 -51 -19h-254q-68 0 -68 74v1298q0 74 70 74h258q66 0 66 -72v-467h90q72 0 96 47l215 437q28 59 92 59q160 0 250 -8q29 -1 43 -15q12 -12 12 -38q0 -27 -20 -66q-186 -352 -307 -559q15 -28 46 -86q19 -36 117 -215q31 -57 93 -168.5
t90 -161.5q28 -49 28 -78q0 -49 -55 -53q-85 -6 -295 -6q-55 0 -82 53l-254 496q-18 37 -84 37h-75v-508z" />
    <glyph glyph-name="L" unicode="L" horiz-adv-x="1191" 
d="M1038 0h-655q-240 0 -240 229v1143q0 74 70 74h258q66 0 66 -72v-979q0 -67 71 -67h430q36 0 54 -16q16 -15 16 -52v-203q0 -57 -70 -57z" />
    <glyph glyph-name="M" unicode="M" horiz-adv-x="1804" 
d="M530 72q0 -72 -67 -72h-258q-62 0 -62 76v1114q0 51 10 96q9 43 34 83q26 43 84 65q57 22 149 22h80q46 0 80 -6q36 -6 59 -12q25 -6 46 -30t33 -36q11 -11 26 -55q4 -11 9 -25t8 -23l5 -15q1 -4 5 -16.5t9.5 -29t10.5 -34.5q48 -164 120 -426q45 200 107 423
q22 80 37 117q18 44 50 86q36 47 88 64q54 18 138 18h92q83 0 132 -18q51 -18 72 -61q22 -45 28 -81q6 -39 6 -108v-1104q0 -84 -74 -84h-256q-63 0 -63 80q0 819 6 987q-90 -356 -182 -692q-22 -85 -59 -120q-35 -34 -107 -34h-39q-67 0 -102 34q-36 34 -58 110
q-126 446 -203 700q6 -162 6 -993z" />
    <glyph glyph-name="N" unicode="N" horiz-adv-x="1556" 
d="M524 74q0 -36 -20 -55t-51 -19h-242q-68 0 -68 74v1126q0 129 62 193q61 63 203 63h108q112 0 159 -43q49 -45 83 -137q229 -609 289 -799q-9 250 -9 875q0 42 21 68t57 26h227q70 0 70 -88v-1163q0 -213 -223 -213h-84q-121 0 -182 44t-105 164l-301 818q6 -162 6 -934z
" />
    <glyph glyph-name="O" unicode="O" horiz-adv-x="1460" 
d="M1382 733q0 -223 -39 -372t-123 -233q-86 -86 -204 -120q-120 -35 -295 -35q-173 0 -285 34q-115 35 -198 119q-85 87 -122 233q-38 150 -38 372q0 182 34 312q35 134 89 214q56 83 142 132t181 67q100 19 215 19t199 -12q87 -12 160 -41q77 -30 126 -82q50 -53 87 -134
q36 -78 54 -198q17 -110 17 -275zM977 727q0 183 -26 279q-25 94 -75 126q-49 31 -147 31q-86 0 -137 -33q-52 -34 -82 -130q-31 -101 -31 -271q0 -185 30 -284t80 -131q49 -31 138 -31q88 0 136 29q51 31 82 130q32 102 32 285z" />
    <glyph glyph-name="P" unicode="P" horiz-adv-x="1327" 
d="M535 74q0 -35 -22 -55q-20 -19 -50 -19h-252q-68 0 -68 74v1100q0 145 62 209q61 63 203 63h182q332 0 461 -55q206 -84 206 -392q0 -158 -57 -266q-57 -109 -219 -158q-133 -40 -377 -40h-69v-461zM535 829h83q101 0 154 17q84 28 84 131q0 118 -78 145q-45 15 -157 15
h-33q-53 0 -53 -62v-246z" />
    <glyph glyph-name="Q" unicode="Q" horiz-adv-x="1460" 
d="M1382 733q0 -439 -163 -608l200 -131q29 -17 29 -43q0 -30 -135 -221q-18 -27 -43 -27q-20 0 -47 18l-389 256q-61 -4 -113 -4q-173 0 -285 34q-115 35 -198 119q-85 87 -122 233q-38 150 -38 372q0 182 34 312q35 134 89 214q56 83 142 132t181 67q100 19 215 19
t199 -12q87 -12 160 -41q77 -30 126 -82q50 -53 87 -134q36 -78 54 -198q17 -110 17 -275zM977 727q0 183 -26 279q-25 94 -75 126q-49 31 -147 31q-86 0 -137 -33q-52 -34 -82 -130q-31 -101 -31 -271q0 -185 30 -284t80 -131q49 -31 138 -31q88 0 136 29q51 31 82 130
q32 102 32 285z" />
    <glyph glyph-name="R" unicode="R" horiz-adv-x="1345" 
d="M535 74q0 -35 -22 -55q-20 -19 -50 -19h-252q-68 0 -68 74v1108q0 134 62 199t205 65h149q330 0 459 -55q211 -85 211 -400q0 -288 -197 -395l250 -463q27 -52 27 -82q0 -38 -37 -45q-49 -10 -299 -10q-55 0 -82 49l-219 473h-137v-444zM535 813h45q112 0 161 16
q86 29 86 140q0 131 -77 155q-44 13 -119 13h-39q-57 0 -57 -62v-262z" />
    <glyph glyph-name="S" unicode="S" horiz-adv-x="1228" 
d="M788 881q214 -56 286 -143q73 -88 73 -292q0 -229 -131 -351t-447 -122q-262 0 -450 58q-60 18 -60 82q0 38 31 153q21 70 84 70q25 0 90 -19q135 -34 316 -34q161 0 161 114q0 66 -24 95q-23 28 -101 43l-161 32q-191 39 -278 140t-87 305q0 463 553 463q260 0 399 -48
q58 -21 58 -79q0 -62 -25 -160q-15 -62 -65 -62q-44 0 -86 11q-158 24 -306 24q-126 0 -126 -114q0 -101 114 -125z" />
    <glyph glyph-name="T" unicode="T" horiz-adv-x="1316" 
d="M854 74q0 -36 -21 -55q-20 -19 -51 -19h-256q-67 0 -67 74v1044h-303q-70 0 -70 58v202q0 38 16 53t54 15h1003q37 0 53 -15q17 -15 17 -53v-202q0 -58 -70 -58h-305v-1044z" />
    <glyph glyph-name="U" unicode="U" horiz-adv-x="1445" 
d="M1317 1378v-800q0 -301 -66 -406q-127 -201 -549 -201q-428 0 -524 211q-49 107 -49 391v803q0 28 18 49t50 21h266q59 0 59 -68v-872q0 -126 39 -172q40 -51 164 -51q132 0 176 47q43 46 43 174v872q0 27 19 49q18 21 49 21h245q60 0 60 -68z" />
    <glyph glyph-name="V" unicode="V" horiz-adv-x="1417" 
d="M709 399q8 31 295 973q24 80 92 80q209 0 276 -16q37 -7 37 -50q0 -29 -16 -73l-377 -1143q-17 -54 -37 -89q-19 -33 -74 -61t-145 -28h-109q-125 0 -178 48q-55 50 -84 144l-366 1125q-15 39 -15 75q0 37 33 52q38 16 299 16q36 0 57 -18t33 -62q251 -854 279 -973z" />
    <glyph glyph-name="W" unicode="W" horiz-adv-x="1986" 
d="M999 1010q-23 -164 -151 -820q-21 -110 -75 -154q-55 -44 -167 -44h-104q-101 0 -157 43q-57 43 -79 149l-227 1114q-10 44 -10 84q0 56 63 60q156 10 279 10q63 0 75 -74q136 -820 158 -1009q34 242 166 886q18 90 58 127t130 37h86q104 0 144 -31q41 -32 59 -128
q139 -732 162 -893q30 264 147 1005q12 80 78 80q215 0 281 -12q18 -2 31 -19q12 -17 12 -32q0 -33 -10 -86l-217 -1113q-17 -97 -69 -149q-49 -49 -169 -49h-86q-124 0 -180 44q-55 43 -78 157q-131 684 -150 817z" />
    <glyph glyph-name="X" unicode="X" horiz-adv-x="1400" 
d="M453 57q-39 -61 -105 -61q-252 0 -291 10q-41 11 -41 49q0 19 29 66l401 631l-368 567q-29 44 -29 67q0 41 39 52q48 14 326 14q37 0 57 -13q21 -14 43 -50l201 -345l205 338q46 70 104 70q237 0 297 -12q37 -7 37 -45q0 -24 -29 -74l-373 -582l406 -622q22 -34 22 -66
q0 -39 -38 -45q-59 -10 -322 -10q-66 0 -104 65l-236 388z" />
    <glyph glyph-name="Y" unicode="Y" horiz-adv-x="1343" 
d="M870 74q0 -36 -21 -55q-20 -19 -50 -19h-254q-68 0 -68 74v506l-440 741q-29 50 -29 72q0 35 33 47q23 10 336 10q62 0 100 -68q127 -243 209 -413l217 413q38 68 98 68q281 0 308 -14q26 -12 26 -41q0 -31 -26 -74l-439 -731v-516z" />
    <glyph glyph-name="Z" unicode="Z" horiz-adv-x="1316" 
d="M1190 0h-985q-88 0 -128 40t-40 134q0 110 84 209l629 735h-586q-70 0 -70 76v172q0 80 74 80h815q117 0 175 -43q59 -44 59 -156q0 -129 -99 -248q-351 -426 -577 -671h651q31 0 52 -19q20 -18 20 -49v-194q0 -29 -19 -48q-18 -18 -55 -18z" />
    <glyph glyph-name="bracketleft" unicode="[" horiz-adv-x="706" 
d="M453 -150h174q49 0 49 -45v-57q0 -45 -49 -45h-410q-57 0 -57 72v1706q0 30 15 51q14 20 44 20h408q49 0 49 -43v-59q0 -19 -14 -32t-37 -13h-172v-1555z" />
    <glyph glyph-name="backslash" unicode="\" horiz-adv-x="886" 
d="M604 -139l-567 1573q-14 41 -14 57q0 41 40 45q51 6 140 6q48 0 69 -59l576 -1594q12 -33 12 -53q0 -33 -41 -39q-50 -6 -137 -6q-57 0 -78 70z" />
    <glyph glyph-name="bracketright" unicode="]" horiz-adv-x="706" 
d="M254 1405h-174q-49 0 -49 45v57q0 45 49 45h409q58 0 58 -71v-1706q0 -29 -16 -51q-15 -21 -44 -21h-407q-49 0 -49 43v59q0 19 14 32t37 13h172v1555z" />
    <glyph glyph-name="asciicircum" unicode="^" horiz-adv-x="1488" 
d="M741 1114q-6 -12 -223 -485q-29 -60 -94 -60q-30 0 -113 9q-63 8 -63 55q0 15 10 41l322 649q30 59 96 59h139q67 0 96 -59l322 -649q10 -26 10 -41q0 -48 -59 -55q-67 -9 -123 -9q-65 0 -94 62z" />
    <glyph glyph-name="underscore" unicode="_" horiz-adv-x="1009" 
d="M0 -158h1010v-94h-1010v94z" />
    <glyph glyph-name="grave" unicode="`" horiz-adv-x="403" 
d="M190 1231l-219 223q-34 34 -34 66q0 39 65 45q78 6 172 6q68 0 107 -55l161 -220q23 -29 23 -57q0 -41 -53 -47q-50 -6 -111 -6t-111 45z" />
    <glyph glyph-name="a" unicode="a" horiz-adv-x="1138" 
d="M1038 184q0 -83 -28 -112q-28 -30 -86 -47q-67 -21 -206 -36q-147 -16 -239 -16q-236 0 -325 92q-88 91 -88 248q0 178 112 260q97 70 336 70q68 0 148 -6v14q0 35 -9 62q-17 39 -135 39q-86 0 -182 -13q-73 -12 -105 -12q-44 0 -59 53q-20 74 -20 162q0 58 55 76
q134 45 360 45q303 0 391 -88q80 -80 80 -285v-506zM662 406q-33 4 -95 4q-92 0 -116 -21q-27 -21 -27 -65q0 -80 100 -80q78 0 113 18q18 8 20 29q5 23 5 71v44z" />
    <glyph glyph-name="b" unicode="b" horiz-adv-x="1218" 
d="M115 154v1298q0 80 65 80h250q38 0 52 -19t14 -61v-457q122 68 290 68q188 0 273 -121q86 -122 86 -401q0 -178 -34 -289q-35 -114 -107 -173q-74 -61 -167 -83q-95 -23 -237 -23q-253 0 -401 50q-59 18 -74 63q-10 33 -10 68zM496 348q0 -44 10 -55q12 -13 39 -19
q19 -4 57 -4q100 0 130 49q30 50 30 203q0 142 -21 189t-94 47q-87 0 -129 -25q-13 -9 -18 -22q-4 -11 -4 -39v-324z" />
    <glyph glyph-name="c" unicode="c" horiz-adv-x="960" 
d="M459 514q0 -149 40 -195q41 -47 128 -47q67 0 139 9q61 8 70 8q38 0 49 -41q26 -118 26 -170q0 -45 -37 -60q-105 -45 -299 -45q-257 0 -379 117t-122 412q0 294 122 428q121 133 414 133q150 0 248 -31q39 -15 39 -55q0 -87 -25 -193q-10 -43 -51 -43q-3 0 -71 9
q-67 8 -121 8q-95 0 -132 -51q-38 -52 -38 -193z" />
    <glyph glyph-name="d" unicode="d" horiz-adv-x="1224" 
d="M1110 176q0 -45 -10 -74q-15 -43 -80 -67q-59 -25 -201 -44q-137 -18 -252 -18q-269 0 -381 108t-112 417q0 169 31 278q31 110 100 174t161 88q97 25 230 25q93 0 133 -19v410q0 78 82 78h231q36 0 52 -15t16 -63v-1278zM729 348v342q0 48 -22 58q-17 10 -70 10
q-109 0 -144 -53q-34 -52 -34 -218q0 -125 30 -171t109 -46q67 0 107 19q14 6 20 22q4 11 4 37z" />
    <glyph glyph-name="e" unicode="e" horiz-adv-x="1099" 
d="M453 406q1 -82 49 -108q47 -26 141 -26q131 0 221 19q4 0 19 3q23 4 27 5q18 2 24 2q43 0 59 -43q29 -79 29 -166q0 -43 -35 -61q-107 -58 -391 -58q-291 0 -411 128q-119 126 -119 411q0 294 125 422q126 129 395 129q97 0 163 -14q72 -15 118 -37q48 -22 81 -66t51 -84
q19 -42 29 -108q10 -67 12 -122q2 -72 2 -140q0 -56 -28 -74q-18 -12 -51 -12h-510zM459 651h229q2 6 2 29q0 67 -24 97t-91 30q-60 0 -87 -36q-28 -37 -29 -120z" />
    <glyph glyph-name="f" unicode="f" horiz-adv-x="770" 
d="M557 63q0 -26 -17 -44q-18 -19 -46 -19h-261q-57 0 -57 70v667h-80q-76 0 -76 76v148q0 29 18 51t54 22h84v72q0 225 107 315q144 117 456 117q97 0 103 -63q4 -35 4 -162q0 -65 -72 -72q-104 -7 -143 -21q-40 -14 -56 -40q-18 -30 -18 -99v-47h143q72 0 72 -73v-156
q0 -68 -74 -68h-141v-674z" />
    <glyph glyph-name="g" unicode="g" horiz-adv-x="1216" 
d="M713 0q-45 -27 -146 -27q-130 0 -217 23q-86 23 -151 79q-66 57 -96 161q-29 102 -29 262q0 325 120 445t388 120q299 0 450 -53q70 -23 70 -119v-744q0 -203 -19 -290q-39 -178 -227 -257t-561 -79q-82 0 -92 71q-13 89 -13 142q0 80 80 86q206 17 296 34q82 15 112 42
q35 33 35 94v10zM721 358v332q0 47 -23 58q-17 10 -69 10q-110 0 -140 -48t-30 -214q0 -129 26 -171q27 -44 105 -44q68 0 106 18q15 6 21 23q4 11 4 36z" />
    <glyph glyph-name="h" unicode="h" horiz-adv-x="1234" 
d="M496 70q0 -33 -19 -52q-18 -18 -47 -18h-254q-61 0 -61 70v1376q0 86 78 86h227q42 0 59 -22t17 -66v-445q42 25 135 44q97 20 160 20q257 0 307 -131q22 -59 22 -201v-661q0 -70 -61 -70h-258q-62 0 -62 70v573q0 43 -6 66q-16 49 -92 49q-39 0 -82 -8q-28 -4 -49 -27
q-14 -14 -14 -66v-587z" />
    <glyph glyph-name="i" unicode="i" horiz-adv-x="610" 
d="M496 70q0 -70 -66 -70h-254q-61 0 -61 70v895q0 69 63 69h258q35 0 47 -16q13 -18 13 -51v-897zM500 1339q0 -190 -195 -190q-190 0 -190 188q0 193 190 193q96 0 145 -43q50 -44 50 -148z" />
    <glyph glyph-name="j" unicode="j" horiz-adv-x="614" 
d="M500 967v-949q0 -244 -82 -344q-51 -65 -166 -109q-114 -44 -275 -44q-49 0 -67 18q-19 19 -25 51q-12 68 -12 144q0 73 64 84q100 15 143 49q39 33 39 145v953q0 69 63 69h258q35 0 47 -16q13 -18 13 -51zM504 1339q0 -190 -195 -190q-190 0 -190 188q0 193 190 193
q96 0 145 -43q50 -44 50 -148z" />
    <glyph glyph-name="k" unicode="k" horiz-adv-x="1204" 
d="M496 70q0 -70 -66 -70h-254q-61 0 -61 70v1392q0 70 63 70h258q35 0 47 -16q13 -18 13 -52v-741h55q70 0 94 47l115 219q27 51 84 51q238 0 274 -14q27 -10 27 -43q0 -21 -21 -55q-163 -272 -206 -336l258 -469q24 -45 24 -72q0 -32 -31 -43q-41 -14 -297 -14
q-54 0 -81 49l-177 336q-18 37 -84 37h-34v-346z" />
    <glyph glyph-name="l" unicode="l" horiz-adv-x="684" 
d="M496 463q0 -93 14 -131q21 -52 117 -68q55 -7 55 -69q0 -89 -8 -142q-7 -37 -29 -53q-20 -14 -63 -14q-179 0 -268 32q-91 33 -142 109q-57 84 -57 287v1048q0 70 63 70h258q35 0 47 -16q13 -18 13 -52v-1001z" />
    <glyph glyph-name="m" unicode="m" horiz-adv-x="1826" 
d="M496 70q0 -33 -19 -52q-18 -18 -47 -18h-254q-61 0 -61 70v784q0 93 75 121q239 88 555 88q199 0 256 -84q119 84 385 84q254 0 304 -131q22 -59 22 -201v-661q0 -70 -61 -70h-258q-62 0 -62 70v573q0 47 -6 70q-15 45 -92 45q-33 0 -68 -8q-26 -7 -49 -25
q-14 -11 -14 -35q0 -12 1 -24t1 -23v-573q0 -70 -62 -70h-258q-61 0 -61 70v573q0 47 -6 70q-15 45 -88 45q-29 0 -72 -8q-42 -10 -53 -29q-8 -13 -8 -68v-583z" />
    <glyph glyph-name="n" unicode="n" horiz-adv-x="1234" 
d="M496 70q0 -33 -19 -52q-18 -18 -47 -18h-254q-61 0 -61 70v776q0 103 82 133q89 35 267 60q172 24 320 24q264 0 314 -131q22 -59 22 -201v-661q0 -70 -61 -70h-258q-62 0 -62 70v573q0 47 -6 70q-12 45 -92 45q-46 0 -90 -10q-28 -7 -41 -19q-14 -11 -14 -45v-614z" />
    <glyph glyph-name="o" unicode="o" horiz-adv-x="1189" 
d="M1116 526q0 -316 -124 -434q-125 -119 -404 -119q-270 0 -392 117t-122 430q0 161 38 273t112 168t165 79q92 23 213 23q134 0 225 -20q92 -20 158 -75q71 -58 100 -164q31 -112 31 -278zM733 516q0 151 -23 196q-24 46 -112 46q-80 0 -110 -49q-29 -48 -29 -189
q0 -148 27 -198t108 -50q82 0 111 49q28 47 28 195z" />
    <glyph glyph-name="p" unicode="p" horiz-adv-x="1224" 
d="M496 -403q0 -78 -82 -78h-232q-34 0 -51 15q-16 15 -16 63v1263q0 45 10 74q15 43 80 67q62 27 201 45q129 17 251 17q269 0 381 -108q113 -108 113 -416q0 -166 -32 -279q-31 -111 -99 -174q-69 -64 -161 -88q-97 -25 -230 -25q-87 0 -133 19v-395zM496 346
q0 -47 22 -57q17 -10 70 -10q109 0 144 53q34 52 34 217q0 123 -31 171q-30 46 -108 46q-69 0 -107 -18q-14 -7 -20 -23q-4 -11 -4 -37v-342z" />
    <glyph glyph-name="q" unicode="q" horiz-adv-x="1218" 
d="M1104 -401q0 -80 -66 -80h-241q-42 0 -58 17t-16 58v447q-122 -68 -291 -68q-187 0 -272 121q-86 122 -86 402q0 177 34 288q35 114 107 173q74 61 167 83q95 23 236 23q256 0 402 -49q59 -18 74 -64q10 -33 10 -67v-1284zM723 365v323q0 44 -10 55q-12 13 -39 19
q-19 4 -58 4q-100 0 -130 -49q-29 -48 -29 -203q0 -144 20 -188q21 -47 94 -47q89 0 129 24q14 10 19 23q4 11 4 39z" />
    <glyph glyph-name="r" unicode="r" horiz-adv-x="854" 
d="M496 70q0 -33 -19 -52q-18 -18 -47 -18h-254q-61 0 -61 70v761q0 59 16 88q17 31 59 54q63 35 191 62q134 28 244 28q134 0 176 -16q45 -17 45 -70q0 -118 -17 -189q-10 -40 -65 -40q-2 0 -72 2t-74 2q-56 0 -92 -13q-17 -6 -24 -20q-6 -11 -6 -49v-600z" />
    <glyph glyph-name="s" unicode="s" horiz-adv-x="974" 
d="M504 362l-139 31q-154 35 -224 103q-69 68 -69 225t107 248q109 92 341 92q221 0 330 -41q45 -16 45 -66q0 -60 -35 -180q-10 -43 -53 -43q-15 0 -68 8q-113 25 -235 25q-62 0 -62 -39q0 -18 13 -29q11 -10 59 -22l135 -35q167 -43 224 -109t57 -217q0 -340 -453 -340
q-258 0 -385 54q-45 18 -45 65q0 60 35 176q16 51 63 51q25 0 78 -14q116 -31 275 -31q67 0 67 39q0 21 -12 31q-12 11 -49 18z" />
    <glyph glyph-name="t" unicode="t" horiz-adv-x="806" 
d="M557 453q0 -112 39 -142q22 -19 143 -30q58 -6 58 -68q0 -102 -6 -158q-6 -69 -82 -69q-206 0 -307 25q-104 25 -156 93q-46 58 -58 134q-12 77 -12 221v278h-88q-31 0 -49 18q-19 19 -19 48v162q0 29 19 50q18 19 53 19h92q1 48 11 199q6 76 69 76h232q61 0 61 -80v-195
h135q80 0 80 -67v-164q0 -31 -20 -48q-21 -18 -54 -18h-141v-284z" />
    <glyph glyph-name="u" unicode="u" horiz-adv-x="1234" 
d="M115 358v607q0 69 61 69h258q62 0 62 -69v-553q0 -65 10 -88q18 -45 92 -45q58 0 86 6q35 11 41 16q14 11 14 45v619q0 32 19 51q18 18 47 18h254q61 0 61 -69v-793q0 -107 -82 -137q-163 -62 -491 -62q-201 0 -288 37q-89 38 -116 107q-28 71 -28 241z" />
    <glyph glyph-name="v" unicode="v" horiz-adv-x="1171" 
d="M592 381q17 67 172 592q18 67 82 67q177 0 256 -10q53 -8 53 -55q0 -24 -12 -62l-273 -739q-37 -98 -88 -140t-155 -42h-88q-109 0 -156 39t-84 139l-266 739q-15 37 -15 64q0 18 14 37q14 18 38 20q79 10 278 10q64 0 80 -65z" />
    <glyph glyph-name="w" unicode="w" horiz-adv-x="1667" 
d="M840 645q-16 -102 -109 -502q-21 -88 -76 -119q-56 -32 -166 -32h-53q-90 0 -142 34q-54 35 -71 115l-164 752q-10 44 -10 80q0 51 49 57q69 10 279 10q59 0 69 -59q58 -349 97 -645q22 159 94 510q16 83 57 121q40 37 125 37h49q84 0 124 -34q41 -35 59 -112
q71 -300 112 -522q21 243 78 641q11 63 70 63q186 0 260 -10q51 -8 51 -57q0 -19 -10 -62l-164 -768q-18 -81 -73 -116t-156 -35h-52q-193 0 -223 149q-89 419 -104 504z" />
    <glyph glyph-name="x" unicode="x" horiz-adv-x="1171" 
d="M575 276q-5 -9 -16 -27.5t-16 -27.5q-23 -39 -47 -80q-11 -19 -30 -50.5t-22 -35.5q-37 -61 -96 -61q-200 0 -295 12q-39 6 -39 45q0 31 23 62l299 417l-270 385q-27 37 -27 68q0 37 35 43q102 16 309 16q61 0 102 -63q67 -104 113 -191q7 11 52 94q41 75 52 93
q39 67 109 67q238 0 291 -14q31 -8 31 -41q0 -30 -23 -65l-274 -390l297 -419q24 -34 24 -62q0 -31 -31 -43q-31 -14 -325 -14q-55 0 -94 61q-34 54 -82 138q-40 71 -50 83z" />
    <glyph glyph-name="y" unicode="y" horiz-adv-x="1234" 
d="M115 307v658q0 69 61 69h258q62 0 62 -69v-570q0 -47 6 -69q12 -45 92 -45q47 0 90 10q29 8 41 18q14 11 14 45v611q0 32 19 51q18 18 47 18h254q61 0 61 -69v-852q0 -200 -16 -271q-40 -180 -250 -252q-206 -71 -557 -71q-43 0 -60 14q-18 15 -22 51q-8 67 -8 154
q0 83 67 84q247 12 343 35q94 23 106 69q8 30 8 76v18q-99 -45 -280 -45q-264 0 -314 131q-22 59 -22 201z" />
    <glyph glyph-name="z" unicode="z" horiz-adv-x="1054" 
d="M963 0h-768q-79 0 -120 35q-40 34 -40 139q0 121 80 193l422 360h-398q-32 0 -49 16q-18 17 -18 45v175q0 28 20 49q21 22 51 22h688q79 0 123 -38q43 -37 43 -138q0 -134 -104 -225q-236 -207 -397 -326h479q25 0 40 -21t15 -46v-185q0 -20 -19 -38q-18 -17 -48 -17z
" />
    <glyph glyph-name="braceleft" unicode="{" horiz-adv-x="794" 
d="M303 627q223 -34 223 -293v-271q0 -108 37 -157q28 -35 125 -47q31 -5 43 -21q12 -17 12 -53v-29q0 -63 -63 -63q-278 0 -358 86q-76 82 -76 227v281q0 130 -34 183q-35 55 -106 62q-65 7 -65 70v43q0 64 57 76q76 16 112 75q36 58 36 175v229q0 175 71 252
q101 109 349 109q39 0 58 -17q17 -16 17 -53v-25q0 -63 -61 -69q-88 -6 -127 -60q-27 -39 -27 -141v-260q0 -135 -54 -210t-169 -99z" />
    <glyph glyph-name="bar" unicode="|" horiz-adv-x="612" 
d="M453 -227q0 -70 -66 -70h-166q-61 0 -61 70v1710q0 69 63 69h170q35 0 47 -16q13 -18 13 -51v-1712z" />
    <glyph glyph-name="braceright" unicode="}" horiz-adv-x="794" 
d="M471 627q-223 34 -223 293v270q0 109 -37 158q-28 35 -125 47q-32 5 -43 20q-12 16 -12 53v29q0 64 63 64q279 0 359 -86q75 -81 75 -228v-280q0 -131 34 -184q35 -55 106 -62q65 -7 65 -70v-43q0 -64 -57 -76q-77 -17 -112 -74q-36 -58 -36 -175v-230q0 -175 -71 -252
q-101 -108 -348 -108q-42 0 -59 16t-17 53v25q0 64 61 70q89 6 127 59q27 39 27 141v260q0 135 54 210q55 76 169 100z" />
    <glyph glyph-name="asciitilde" unicode="~" horiz-adv-x="1435" 
d="M375 483q-43 -43 -76 -43q-42 0 -88 43q-41 35 -41 72q0 33 25 63q153 177 311 177q96 0 229 -72q101 -55 180 -55q83 0 144 61q49 49 78 49q33 0 86 -45q43 -37 43 -71q0 -28 -25 -62q-144 -180 -328 -180q-116 0 -231 65q-105 60 -170 60q-77 0 -137 -62z" />
    <glyph glyph-name="exclamdown" unicode="&#xa1;" horiz-adv-x="630" 
d="M115 422q6 88 110 88h109q55 0 84 -20q30 -20 31 -74q36 -554 36 -695q0 -63 -21 -95t-81 -32h-205q-52 0 -79 25q-25 24 -25 88q0 120 41 715zM84 860q0 205 207 205q86 0 142 -46t56 -157q0 -211 -204 -211q-94 0 -147 46q-54 47 -54 163z" />
    <glyph glyph-name="cent" unicode="&#xa2;" horiz-adv-x="1064" 
d="M762 -154q0 -55 -45 -55h-156q-26 0 -38 12q-11 11 -11 43v150q-200 18 -294 133q-93 114 -93 371q0 250 87 376q87 125 300 154v152q0 59 51 59h152q47 0 47 -59v-148q88 -6 149 -28q39 -10 39 -58q0 -88 -26 -186q-10 -43 -50 -43q-24 0 -67 6q-63 10 -121 10
q-95 0 -133 -44q-37 -43 -37 -181q0 -142 39 -182q39 -41 129 -41q69 0 147 18q36 10 56 10q35 0 47 -39q37 -110 37 -174q0 -39 -37 -57q-68 -35 -172 -45v-154z" />
    <glyph glyph-name="sterling" unicode="&#xa3;" horiz-adv-x="1316" 
d="M1114 0h-872q-70 0 -70 66v192q0 61 70 61h88v226h-115q-70 0 -70 65v152q0 61 70 61h115v92q0 191 69 304q119 192 439 192q186 0 299 -27q53 -12 53 -65q0 -99 -23 -189q-12 -40 -53 -40q-7 0 -37 2q-15 1 -45 5q-23 3 -31 3q-109 8 -145 8q-86 0 -121 -51
q-24 -37 -24 -162v-72h286q70 0 70 -63v-156q0 -35 -16 -47q-17 -12 -52 -12h-288v-226h401q70 0 70 -63v-197q0 -35 -17 -47t-51 -12z" />
    <glyph glyph-name="currency" unicode="&#xa4;" horiz-adv-x="1134" 
d="M1001 219q-27 -29 -55 -29q-26 0 -53 27l-94 96q-88 -57 -230 -57q-134 0 -229 55l-92 -94q-27 -27 -55 -27q-27 0 -54 27l-20 23q-27 27 -27 53q0 25 27 55l96 98q-68 103 -68 234q0 130 66 231l-94 97q-27 30 -27 55q0 28 29 57l18 17q29 26 54 26q29 0 55 -26l94 -97
q95 68 227 68q139 0 228 -66l96 95q26 26 53 26q29 0 55 -26l17 -17q24 -27 24 -55t-24 -55l-92 -97q63 -99 63 -233t-63 -234l94 -98q24 -29 24 -55q0 -29 -24 -53zM793 680q0 115 -63 178q-64 64 -161 64t-162 -65t-65 -173q0 -113 64 -180q63 -66 163 -66q98 0 161 65
t63 177z" />
    <glyph glyph-name="yen" unicode="&#xa5;" horiz-adv-x="1437" 
d="M1161 635h-205l-43 -68v-49h248q51 0 51 -49v-70q0 -51 -51 -51h-248v-274q0 -36 -20 -55t-51 -19h-246q-68 0 -68 74v274h-258q-51 0 -51 51v68q0 51 51 51h258v39l-49 78h-209q-51 0 -51 51v68q0 51 51 51h103l-281 450q-20 33 -20 68q0 36 37 51q30 12 299 12
q60 0 100 -69q159 -270 223 -402q93 185 221 402q40 69 103 69q257 0 293 -16q30 -15 30 -47q0 -31 -24 -68l-289 -450h96q51 0 51 -49v-70q0 -51 -51 -51z" />
    <glyph glyph-name="brokenbar" unicode="&#xa6;" horiz-adv-x="612" 
d="M453 911q0 -69 -66 -69h-166q-61 0 -61 69v490q0 69 63 69h170q35 0 47 -16q13 -18 13 -51v-492zM453 33q0 -70 -66 -70h-166q-61 0 -61 70v489q0 70 63 70h170q35 0 47 -17q13 -18 13 -51v-491z" />
    <glyph glyph-name="section" unicode="&#xa7;" horiz-adv-x="1146" 
d="M866 299q121 -73 121 -252q0 -186 -115 -283q-114 -96 -387 -96q-219 0 -350 41q-53 18 -53 66q0 92 35 188q15 35 53 35q6 0 70 -10q152 -27 237 -27q79 0 109 15t30 49q0 30 -15 48q-14 17 -64 38l-175 73q-160 68 -224 135t-64 197q0 124 55 201t147 98
q-108 69 -108 248q0 358 442 358q219 0 316 -28q53 -15 53 -64q0 -80 -31 -190q-11 -35 -53 -35q-30 0 -74 10q-71 14 -203 14q-102 0 -102 -61q0 -27 21 -46t90 -48l151 -62q180 -73 232 -142q53 -71 53 -204q0 -103 -55 -176t-142 -90zM735 524q0 40 -49 68
q-83 44 -176 84q-26 10 -45 10q-15 0 -27 -6q-16 -7 -32 -36q-15 -27 -15 -52q0 -46 66 -80q50 -24 170 -78q19 -8 45 -8q11 0 24 8q39 30 39 90z" />
    <glyph glyph-name="dieresis" unicode="&#xa8;" horiz-adv-x="403" 
d="M147 1339q0 -157 -149 -157q-148 0 -148 155q0 158 148 158q149 0 149 -156zM553 1339q0 -157 -150 -157q-147 0 -147 155q0 158 147 158q150 0 150 -156z" />
    <glyph glyph-name="copyright" unicode="&#xa9;" horiz-adv-x="1699" 
d="M1575 707q0 -319 -201 -527q-201 -209 -526 -209t-526 209q-201 208 -201 527q0 317 201 527t524 210q333 0 531 -208t198 -529zM1481 707q0 281 -173 465t-462 184q-283 0 -456 -185t-173 -464q0 -282 172 -464q173 -184 459 -184q287 0 460 184t173 464zM733 723
q0 -152 41 -199t135 -47q86 0 152 15q29 6 45 6q20 0 31 -25q26 -74 26 -125q0 -31 -32 -43q-98 -37 -297 -37q-187 0 -280 99t-93 340q0 248 96 356t324 108q142 0 223 -20q37 -7 37 -45q0 -72 -27 -135q-8 -21 -35 -21q-6 0 -24 3t-25 3q-83 9 -108 9q-102 0 -145 -45
q-44 -46 -44 -197z" />
    <glyph glyph-name="ordfeminine" unicode="&#xaa;" horiz-adv-x="737" 
d="M672 653q0 -50 -19 -69q-22 -22 -57 -29q-112 -31 -285 -31q-151 0 -208 57q-56 56 -56 152q0 111 72 160q55 43 211 43q44 0 88 -2v8q0 18 -4 25q-10 20 -80 20q-66 0 -111 -6q-50 -6 -69 -6q-28 0 -39 33q-15 57 -15 106q0 37 37 49q86 27 230 27q203 0 254 -53
q51 -55 51 -174v-310zM418 782q-20 4 -51 4q-47 0 -64 -12q-14 -7 -14 -35q0 -41 53 -41q44 0 61 11q12 7 13 18q2 16 2 43v12z" />
    <glyph glyph-name="guillemotleft" unicode="&#xab;" horiz-adv-x="1193" 
d="M385 545l229 -316q21 -24 21 -51q0 -33 -39 -39q-78 -8 -168 -8q-45 0 -82 43l-246 303q-28 37 -28 66q0 31 24 61l244 305q42 54 90 54q80 0 166 -9q39 -4 39 -34q0 -24 -25 -60zM862 545l230 -316q20 -23 20 -51q0 -33 -39 -39q-78 -8 -168 -8q-45 0 -82 43l-245 303
q-29 38 -29 66q0 31 24 61l244 305q42 54 90 54q80 0 166 -9q39 -4 39 -34q0 -24 -25 -60z" />
    <glyph glyph-name="logicalnot" unicode="&#xac;" horiz-adv-x="1435" 
d="M1231 143q0 -71 -82 -71h-82q-82 0 -82 71v344h-747q-72 0 -72 82v70q0 82 72 82h911q82 0 82 -82v-496z" />
    <glyph glyph-name="uni00AD" unicode="&#xad;" horiz-adv-x="720" 
d="M588 401h-453q-69 0 -69 66v172q0 61 69 61h451q69 0 69 -63v-176q0 -35 -16 -47q-18 -13 -51 -13z" />
    <glyph glyph-name="registered" unicode="&#xae;" horiz-adv-x="1699" 
d="M1575 707q0 -319 -201 -527q-201 -209 -526 -209t-526 209q-201 208 -201 527q0 317 201 527t524 210q333 0 531 -208t198 -529zM1481 707q0 281 -173 465t-462 184q-283 0 -456 -185t-173 -464q0 -282 172 -464q173 -184 459 -184q287 0 460 184t173 464zM776 336
q0 -22 -15 -37q-14 -14 -36 -14h-147q-50 0 -50 57v655q0 89 37 130q37 42 123 42h98q210 0 293 -34q131 -51 131 -238q0 -176 -123 -242l154 -276q19 -35 19 -53q0 -35 -43 -39q-77 -6 -156 -6q-48 0 -66 38l-135 289h-59h-25v-272zM776 797h58q46 0 75 10q47 17 47 76
q0 69 -47 84q-32 8 -73 8h-19q-41 0 -41 -45v-133z" />
    <glyph glyph-name="macron" unicode="&#xaf;" horiz-adv-x="403" 
d="M459 1206h-506q-70 0 -70 66v110q0 62 70 62h504q69 0 69 -64v-114q0 -35 -16 -47q-18 -13 -51 -13z" />
    <glyph glyph-name="degree" unicode="&#xb0;" horiz-adv-x="688" 
d="M627 1178q0 -133 -78 -208t-207 -75q-125 0 -202 74t-77 207q0 132 79 207q80 75 210 75q129 0 202 -73t73 -207zM510 1176q0 178 -164 178q-78 0 -122 -47t-44 -136q0 -81 45 -128q45 -46 123 -46q75 0 119 47q43 46 43 132z" />
    <glyph glyph-name="plusminus" unicode="&#xb1;" horiz-adv-x="1435" 
d="M844 418q0 -74 -82 -74h-86q-82 0 -82 74v323h-336q-74 0 -74 82v72q0 82 74 82h334v319q0 74 82 74h88q82 0 82 -74v-319h334q73 0 73 -82v-72q0 -82 -73 -82h-334v-323zM1251 82q0 -82 -73 -82h-920q-74 0 -74 82v72q0 82 74 82h920q73 0 73 -82v-72z" />
    <glyph glyph-name="twosuperior" unicode="&#xb2;" 
d="M709 860h-531q-64 0 -86 27q-22 26 -22 78t16 75q20 29 53 50q101 69 228 180q88 78 88 147q0 59 -31 81t-96 22q-38 0 -117 -9q-49 -6 -51 -6q-26 0 -31 23q-16 83 -16 125q0 32 32 39q99 28 265 28q186 0 245 -68q60 -69 60 -198q0 -125 -92 -217q-79 -79 -226 -170
q102 2 312 2q45 0 45 -41v-125q0 -43 -45 -43z" />
    <glyph glyph-name="threesuperior" unicode="&#xb3;" 
d="M512 1309q109 -11 154 -57t45 -150q0 -126 -74 -192q-73 -66 -289 -66q-152 0 -231 20q-35 11 -35 41q0 47 22 125q8 27 37 27q5 0 60 -6q61 -7 133 -7q67 0 92 17t25 55q0 42 -24 54q-23 11 -93 16q-51 1 -69 26q-17 23 -17 80q0 45 18 69t70 32q52 6 67 17q17 12 17 44
q0 35 -22 51q-21 15 -85 15q-40 0 -112 -7q-33 -4 -49 -4q-24 0 -29 23q-14 69 -14 127q0 32 32 39q76 22 234 22q190 0 246 -53q55 -52 55 -184q0 -144 -164 -174z" />
    <glyph glyph-name="acute" unicode="&#xb4;" horiz-adv-x="403" 
d="M211 1231q-43 -45 -111 -45q-60 0 -110 6q-53 6 -53 47q0 29 22 57l162 220q40 55 106 55q95 0 172 -6q66 -6 66 -45q0 -31 -35 -66z" />
    <glyph glyph-name="mu" unicode="&#xb5;" horiz-adv-x="1265" 
d="M510 -348q0 -33 -18 -51q-19 -19 -48 -19h-254q-61 0 -61 70v1313q0 69 61 69h259q61 0 61 -69v-553q0 -65 10 -88q18 -45 92 -45q59 0 86 6q35 11 41 16q15 12 15 45v619q0 33 18 51t47 18h254q62 0 62 -69v-797q0 -103 -82 -133q-154 -58 -391 -58q-95 0 -152 15v-340z
" />
    <glyph glyph-name="paragraph" unicode="&#xb6;" horiz-adv-x="1208" 
d="M684 -217q0 -45 -37 -45h-51q-39 0 -39 47v678q-255 0 -360 123t-105 338q0 116 27 205q28 90 91 164q65 75 184 114q120 39 294 39h279q69 0 69 -66v-1595q0 -47 -39 -47h-49q-39 0 -39 47v1534h-225v-1536z" />
    <glyph glyph-name="periodcentered" unicode="&#xb7;" horiz-adv-x="550" 
d="M477 547q0 -205 -207 -205q-86 0 -142 46t-56 157q0 211 204 211q94 0 147 -46q54 -47 54 -163z" />
    <glyph glyph-name="cedilla" unicode="&#xb8;" horiz-adv-x="403" 
d="M264 -88q60 -1 101 -22q39 -20 54 -55q14 -35 19 -65q4 -27 4 -79q0 -226 -317 -226q-55 0 -102 9q-60 12 -60 57q0 44 8 76q7 33 23 42q15 9 45 9t59 -4q22 -2 41 -2q56 0 56 43q0 47 -52 47h-34q-50 0 -50 43q0 20 13 82l34 153h177z" />
    <glyph glyph-name="onesuperior" unicode="&#xb9;" 
d="M672 856h-420q-23 0 -36 13t-13 32v121q0 43 49 43h94v401l-98 -32q-19 -7 -33 -7q-25 0 -31 25q-41 123 -41 135q0 18 23 29l166 63q52 21 135 21h20q60 0 87 -24q28 -25 28 -81v-530h68q22 0 36 -12q13 -12 13 -33v-121q0 -43 -47 -43z" />
    <glyph glyph-name="ordmasculine" unicode="&#xba;" horiz-adv-x="772" 
d="M719 862q0 -193 -80 -265q-81 -73 -258 -73q-171 0 -251 72q-79 72 -79 262t87 261q88 71 251 71q177 0 253 -66q77 -66 77 -262zM461 856q0 84 -12 110q-12 25 -62 25q-45 0 -60 -27q-16 -29 -16 -106q0 -85 15 -112t59 -27q47 0 61 26q15 27 15 111z" />
    <glyph glyph-name="guillemotright" unicode="&#xbb;" horiz-adv-x="1193" 
d="M809 549l-229 315q-21 24 -21 51q0 33 39 39q88 9 168 9q45 0 82 -43l246 -304q28 -37 28 -65q0 -32 -24 -62l-244 -305q-41 -53 -90 -53q-89 0 -166 8q-39 5 -39 35q0 23 25 59zM332 549l-230 315q-20 23 -20 51q0 33 39 39q88 9 168 9q45 0 82 -43l245 -304
q29 -38 29 -65q0 -32 -24 -62l-244 -305q-41 -53 -90 -53q-89 0 -166 8q-39 5 -39 35q0 24 24 59z" />
    <glyph glyph-name="onequarter" unicode="&#xbc;" horiz-adv-x="1826" 
d="M1599 47q0 -23 -13 -35q-14 -12 -34 -12h-153q-45 0 -45 47v115h-260q-66 0 -95 22q-30 22 -30 80q0 63 41 142l204 401q23 41 70 41q154 0 178 -6q19 -8 19 -25t-8 -35l-226 -411h107v80q0 49 47 49h155q43 0 43 -45v-84h31q53 0 53 -43v-127q0 -39 -53 -39h-31v-115z
M621 541h-420q-23 0 -36 13t-13 32v121q0 43 49 43h94v401l-98 -33q-17 -6 -33 -6q-25 0 -31 25q-41 123 -41 135q0 17 23 28l166 64q50 20 135 20h20q61 0 87 -23q28 -25 28 -81v-530h67q21 0 36 -13q14 -12 14 -32v-121q0 -43 -47 -43zM621 -29q-21 -37 -56 -37
q-40 0 -67 5q-25 6 -25 26q0 17 12 41l678 1405q22 49 62 49t65 -4q29 -5 29 -29q0 -11 -16 -47z" />
    <glyph glyph-name="onehalf" unicode="&#xbd;" horiz-adv-x="1826" 
d="M1714 0h-530q-64 0 -86 27q-23 28 -23 77q0 51 17 76q19 27 53 49q90 62 227 181q88 78 88 147q0 60 -30 81t-97 21q-46 0 -116 -8q-50 -6 -52 -6q-25 0 -30 23q-17 88 -17 125q0 31 33 38q102 29 264 29q187 0 246 -68t59 -198q0 -125 -92 -217q-81 -81 -225 -170
q102 2 311 2q45 0 45 -41v-125q0 -43 -45 -43zM623 541h-420q-23 0 -36 13t-13 32v121q0 43 49 43h94v401l-98 -33q-15 -6 -33 -6q-25 0 -31 25q-41 123 -41 135q0 17 23 28l166 64q50 20 135 20h20q61 0 87 -23q28 -25 28 -81v-530h68q20 0 35 -13q14 -12 14 -32v-121
q0 -43 -47 -43zM616 -29q-21 -37 -55 -37q-40 0 -67 5q-25 6 -25 26q0 17 12 41l678 1405q22 49 62 49t65 -4q29 -5 29 -29q0 -8 -17 -47z" />
    <glyph glyph-name="threequarters" unicode="&#xbe;" horiz-adv-x="1826" 
d="M688 -29q-21 -37 -55 -37q-41 0 -68 5q-24 6 -24 26q0 17 12 41l678 1405q22 49 61 49q41 0 66 -4q28 -4 28 -29q0 -11 -16 -47zM575 989q110 -11 154 -56q45 -46 45 -151q0 -125 -74 -191q-75 -67 -288 -67q-150 0 -232 21q-35 11 -35 41q0 44 23 125q7 26 37 26
q3 0 59 -6q53 -6 133 -6q69 0 92 16q25 17 25 56q0 42 -24 54q-21 10 -93 15q-49 1 -68 27q-18 24 -18 80q0 43 19 68q18 25 69 32q52 6 68 18t16 44q0 36 -21 51q-20 14 -85 14q-51 0 -113 -6q-33 -4 -49 -4q-25 0 -29 22q-14 69 -14 127q0 31 33 39q80 23 233 23
q190 0 246 -53q55 -52 55 -185q0 -144 -164 -174zM1653 47q0 -23 -14 -35q-13 -12 -33 -12h-154q-45 0 -45 47v115h-260q-65 0 -94 22q-31 23 -31 80q0 63 41 142l205 401q23 41 69 41q155 0 179 -6q18 -7 18 -25q0 -17 -8 -35l-226 -411h107v80q0 49 47 49h156q43 0 43 -45
v-84h30q54 0 54 -43v-127q0 -39 -54 -39h-30v-115z" />
    <glyph glyph-name="questiondown" unicode="&#xbf;" horiz-adv-x="995" 
d="M465 508h135q69 0 84 -43q8 -26 8 -86q0 -55 -12 -88q-12 -32 -59 -72q-95 -80 -131 -128q-35 -47 -35 -99q0 -60 30 -91q30 -32 113 -32q76 0 135 8q70 8 78 8q66 0 82 -65q16 -64 16 -131q-2 -74 -80 -95q-114 -30 -297 -30q-266 0 -371 81q-106 82 -106 277
q0 116 40 189q41 73 177 159q103 64 115 136q2 7 5 31q3 29 7 38q12 33 66 33zM336 860q0 205 207 205q86 0 142 -46t56 -157q0 -211 -204 -211q-94 0 -147 46q-54 47 -54 163z" />
    <glyph glyph-name="Agrave" unicode="&#xc0;" horiz-adv-x="1421" 
d="M492 311l-68 -235q-12 -45 -30 -63q-17 -17 -54 -17q-242 0 -293 12q-37 7 -37 49q0 28 17 74l356 1092q41 132 97 182q57 51 204 51h94q76 0 117 -11q46 -12 74 -46q29 -35 41 -65q9 -23 34 -99l353 -1100q14 -36 14 -76q0 -36 -33 -51q-28 -12 -291 -12q-36 0 -57 18
t-33 62l-69 235h-436zM586 627h258q-114 440 -127 503q-9 -43 -131 -503zM651 1579l-293 188q-39 24 -39 62q0 41 68 47q102 8 197 8q61 0 118 -51l205 -180q33 -30 33 -60q0 -35 -49 -41q-55 -6 -119 -6q-66 0 -121 33z" />
    <glyph glyph-name="Aacute" unicode="&#xc1;" horiz-adv-x="1421" 
d="M492 311l-68 -235q-12 -45 -30 -63q-17 -17 -54 -17q-242 0 -293 12q-37 7 -37 49q0 28 17 74l356 1092q41 132 97 182q57 51 204 51h94q76 0 117 -11q46 -12 74 -46q29 -35 41 -65q9 -23 34 -99l353 -1100q14 -36 14 -76q0 -36 -33 -51q-28 -12 -291 -12q-36 0 -57 18
t-33 62l-69 235h-436zM586 627h258q-114 440 -127 503q-9 -43 -131 -503zM791 1561q-55 -33 -121 -33q-63 0 -119 6q-49 6 -49 41q0 29 33 59l204 181q57 51 119 51q85 0 197 -8q67 -6 67 -48q0 -36 -43 -63z" />
    <glyph glyph-name="Acircumflex" unicode="&#xc2;" horiz-adv-x="1421" 
d="M492 311l-68 -235q-12 -45 -30 -63q-17 -17 -54 -17q-242 0 -293 12q-37 7 -37 49q0 28 17 74l356 1092q41 132 97 182q57 51 204 51h94q76 0 117 -11q46 -12 74 -46q29 -35 41 -65q9 -23 34 -99l353 -1100q14 -36 14 -76q0 -36 -33 -51q-28 -12 -291 -12q-36 0 -57 18
t-33 62l-69 235h-436zM586 627h258q-114 440 -127 503q-9 -43 -131 -503zM483 1546q-58 0 -108 8q-60 10 -60 50q0 21 25 51l190 198q63 68 127 68h127q62 0 111 -55l197 -215q22 -22 22 -49q0 -40 -57 -48q-53 -8 -119 -8q-58 0 -109 51l-114 111l-125 -117
q-45 -45 -107 -45z" />
    <glyph glyph-name="Atilde" unicode="&#xc3;" horiz-adv-x="1421" 
d="M492 311l-68 -235q-12 -45 -30 -63q-17 -17 -54 -17q-242 0 -293 12q-37 7 -37 49q0 28 17 74l356 1092q41 132 97 182q57 51 204 51h94q76 0 117 -11q46 -12 74 -46q29 -35 41 -65q9 -23 34 -99l353 -1100q14 -36 14 -76q0 -36 -33 -51q-28 -12 -291 -12q-36 0 -57 18
t-33 62l-69 235h-436zM586 627h258q-114 440 -127 503q-9 -43 -131 -503zM467 1534q-39 0 -76 6q-49 10 -49 57q0 25 12 58q68 213 219 213q65 0 156 -47q67 -35 107 -35q53 0 77 45q27 47 74 47q29 0 62 -4q57 -6 57 -49q0 -32 -19 -86q-30 -86 -84 -137q-55 -52 -124 -52
q-67 0 -177 54q-56 28 -92 28q-44 0 -67 -41q-17 -32 -34 -45q-15 -12 -42 -12z" />
    <glyph glyph-name="Adieresis" unicode="&#xc4;" horiz-adv-x="1421" 
d="M492 311l-68 -235q-12 -45 -30 -63q-17 -17 -54 -17q-242 0 -293 12q-37 7 -37 49q0 28 17 74l356 1092q41 132 97 182q57 51 204 51h94q76 0 117 -11q46 -12 74 -46q29 -35 41 -65q9 -23 34 -99l353 -1100q14 -36 14 -76q0 -36 -33 -51q-28 -12 -291 -12q-36 0 -57 18
t-33 62l-69 235h-436zM586 627h258q-114 440 -127 503q-9 -43 -131 -503zM651 1708q0 -158 -149 -158q-148 0 -148 156q0 158 148 158q149 0 149 -156zM1077 1708q0 -158 -149 -158q-148 0 -148 156q0 158 148 158q149 0 149 -156z" />
    <glyph glyph-name="Aring" unicode="&#xc5;" horiz-adv-x="1421" 
d="M492 311l-68 -235q-12 -45 -30 -63q-17 -17 -54 -17q-242 0 -293 12q-37 7 -37 49q0 28 17 74l356 1092q41 132 97 182q57 51 204 51h94q76 0 117 -11q46 -12 74 -46q29 -35 41 -65q9 -23 34 -99l353 -1100q14 -36 14 -76q0 -36 -33 -51q-28 -12 -291 -12q-36 0 -57 18
t-33 62l-69 235h-436zM586 627h258q-114 440 -127 503q-9 -43 -131 -503zM911 1706q0 -94 -54 -145q-55 -52 -146 -52q-88 0 -140 52q-51 51 -51 145q0 96 53 149q54 54 144 54q91 0 143 -54q51 -53 51 -149zM815 1710q0 113 -102 113q-45 0 -74 -30q-29 -31 -29 -85
q0 -52 28 -83q27 -30 77 -30q100 0 100 115z" />
    <glyph glyph-name="AE" unicode="&#xc6;" horiz-adv-x="2066" 
d="M614 326l-143 -260q-23 -41 -48 -56q-24 -14 -71 -14q-165 0 -276 6q-62 2 -62 51q0 26 27 72l670 1151q56 96 116 133q61 37 174 37h914q37 0 53 -15q17 -15 17 -53v-202q0 -58 -70 -58h-483v-209h440q36 0 53 -15t17 -52v-203q0 -57 -70 -57h-440v-183q0 -37 16 -54
t57 -17h449q35 0 53 -16q16 -15 16 -52v-203q0 -57 -69 -57h-682q-234 0 -234 229v97h-424zM791 641h247v471q-68 -139 -247 -471z" />
    <glyph glyph-name="Ccedilla" unicode="&#xc7;" horiz-adv-x="1204" 
d="M717 -94q63 -1 104 -23q42 -22 58 -58q15 -33 20 -69q4 -27 4 -82q0 -235 -332 -235q-63 0 -106 8q-62 12 -62 61q0 42 9 78q11 35 25 45q16 11 46 11q4 0 62 -7q22 -2 43 -2q57 0 57 45q0 50 -53 50h-37q-51 0 -51 45q0 29 12 86l27 121q-229 27 -347 194t-118 526
q0 415 145 594q146 181 498 181q232 0 350 -31q53 -15 53 -64q0 -92 -41 -206q-12 -33 -49 -33l-71 10q-106 12 -179 12q-80 0 -131 -15q-49 -14 -94 -61q-43 -44 -61 -132q-19 -92 -19 -226q0 -137 20 -228q20 -90 60 -136q41 -47 91 -65q47 -17 128 -17q116 0 223 26
q44 10 68 10q29 0 41 -28q43 -113 43 -193q0 -43 -49 -61q-154 -56 -375 -62z" />
    <glyph glyph-name="Egrave" unicode="&#xc8;" horiz-adv-x="1171" 
d="M1059 0h-672q-244 0 -244 240v958q0 121 65 184q66 64 179 64h633q36 0 53 -15t17 -53v-202q0 -58 -70 -58h-422q-61 0 -61 -71v-138h440q37 0 53 -15q17 -15 17 -52v-203q0 -57 -70 -57h-440v-181q0 -41 16 -57t59 -16h447q35 0 53 -16q16 -15 16 -52v-203
q0 -57 -69 -57zM571 1579l-292 188q-39 24 -39 62q0 41 67 47q102 8 197 8q62 0 119 -51l204 -180q33 -30 33 -60q0 -35 -49 -41q-56 -6 -119 -6q-66 0 -121 33z" />
    <glyph glyph-name="Eacute" unicode="&#xc9;" horiz-adv-x="1171" 
d="M1059 0h-672q-244 0 -244 240v958q0 121 65 184q66 64 179 64h633q36 0 53 -15t17 -53v-202q0 -58 -70 -58h-422q-61 0 -61 -71v-138h440q37 0 53 -15q17 -15 17 -52v-203q0 -57 -70 -57h-440v-181q0 -41 16 -57t59 -16h447q35 0 53 -16q16 -15 16 -52v-203
q0 -57 -69 -57zM764 1561q-55 -33 -121 -33q-63 0 -119 6q-49 6 -49 41q0 29 33 59l205 181q57 51 118 51q85 0 197 -8q68 -6 68 -48q0 -36 -43 -63z" />
    <glyph glyph-name="Ecircumflex" unicode="&#xca;" horiz-adv-x="1171" 
d="M1059 0h-672q-244 0 -244 240v958q0 121 65 184q66 64 179 64h633q36 0 53 -15t17 -53v-202q0 -58 -70 -58h-422q-61 0 -61 -71v-138h440q37 0 53 -15q17 -15 17 -52v-203q0 -57 -70 -57h-440v-181q0 -41 16 -57t59 -16h447q35 0 53 -16q16 -15 16 -52v-203
q0 -57 -69 -57zM414 1546q-59 0 -109 8q-59 10 -59 50q0 22 24 51l191 198q63 68 127 68h127q61 0 110 -55l197 -215q22 -22 22 -49q0 -40 -57 -48q-53 -8 -119 -8q-57 0 -108 51l-115 111l-125 -117q-45 -45 -106 -45z" />
    <glyph glyph-name="Edieresis" unicode="&#xcb;" horiz-adv-x="1171" 
d="M1059 0h-672q-244 0 -244 240v958q0 121 65 184q66 64 179 64h633q36 0 53 -15t17 -53v-202q0 -58 -70 -58h-422q-61 0 -61 -71v-138h440q37 0 53 -15q17 -15 17 -52v-203q0 -57 -70 -57h-440v-181q0 -41 16 -57t59 -16h447q35 0 53 -16q16 -15 16 -52v-203
q0 -57 -69 -57zM586 1708q0 -158 -150 -158q-147 0 -147 156q0 158 147 158q150 0 150 -156zM1012 1708q0 -158 -150 -158q-147 0 -147 156q0 158 147 158q150 0 150 -156z" />
    <glyph glyph-name="Igrave" unicode="&#xcc;" horiz-adv-x="679" 
d="M537 74q0 -36 -21 -55q-20 -19 -51 -19h-254q-68 0 -68 74v1298q0 74 70 74h258q66 0 66 -72v-1300zM291 1579l-293 188q-39 24 -39 62q0 41 68 47q102 8 196 8q62 0 119 -51l205 -180q33 -30 33 -60q0 -35 -50 -41q-56 -6 -118 -6q-66 0 -121 33z" />
    <glyph glyph-name="Iacute" unicode="&#xcd;" horiz-adv-x="679" 
d="M537 74q0 -36 -21 -55q-20 -19 -51 -19h-254q-68 0 -68 74v1298q0 74 70 74h258q66 0 66 -72v-1300zM424 1579q-56 -33 -121 -33q-63 0 -119 6q-49 6 -49 41q0 30 33 60l205 180q57 51 119 51q84 0 196 -8q68 -6 68 -47q0 -37 -43 -64z" />
    <glyph glyph-name="Icircumflex" unicode="&#xce;" horiz-adv-x="679" 
d="M537 74q0 -36 -21 -55q-20 -19 -51 -19h-254q-68 0 -68 74v1298q0 74 70 74h258q66 0 66 -72v-1300zM109 1546q-59 0 -109 8q-59 10 -59 50q0 22 24 51l191 198q63 68 127 68h127q61 0 110 -55l197 -215q22 -22 22 -49q0 -40 -57 -48q-53 -8 -119 -8q-57 0 -108 51
l-115 111l-125 -117q-45 -45 -106 -45z" />
    <glyph glyph-name="Idieresis" unicode="&#xcf;" horiz-adv-x="679" 
d="M537 74q0 -36 -21 -55q-20 -19 -51 -19h-254q-68 0 -68 74v1298q0 74 70 74h258q66 0 66 -72v-1300zM274 1708q0 -158 -149 -158q-148 0 -148 156q0 158 148 158q149 0 149 -156zM700 1708q0 -158 -149 -158q-148 0 -148 156q0 158 148 158q149 0 149 -156z" />
    <glyph glyph-name="Eth" unicode="&#xd0;" horiz-adv-x="1445" 
d="M580 0h-197q-240 0 -240 240v362h-59q-70 0 -70 66v153q0 62 70 62h59v315q0 121 65 184q66 64 179 64h225q270 0 400 -39q184 -52 270 -218t86 -452q0 -291 -78 -451q-78 -161 -280 -237q-134 -49 -430 -49zM537 401q0 -41 15 -57t58 -16h92q80 0 136 28q73 40 99 122
q26 83 26 257q0 173 -27 250t-102 109q-55 26 -150 26h-86q-61 0 -61 -71v-166h165q70 0 70 -64v-157q0 -36 -16 -48t-51 -12h-168v-201z" />
    <glyph glyph-name="Ntilde" unicode="&#xd1;" horiz-adv-x="1556" 
d="M524 74q0 -36 -20 -55t-51 -19h-242q-68 0 -68 74v1126q0 129 62 193q61 63 203 63h108q112 0 159 -43q49 -45 83 -137q229 -609 289 -799q-9 250 -9 875q0 42 21 68t57 26h227q70 0 70 -88v-1163q0 -213 -223 -213h-84q-121 0 -182 44t-105 164l-301 818q6 -162 6 -934z
M537 1534q-39 0 -76 6q-49 10 -49 57q0 25 12 58q68 213 219 213q65 0 156 -47q67 -35 106 -35q54 0 78 45q27 47 74 47q28 0 61 -4q58 -6 58 -49q0 -32 -19 -86q-30 -85 -85 -137t-124 -52q-66 0 -176 54q-56 28 -92 28q-45 0 -68 -41q-18 -33 -33 -45t-42 -12z" />
    <glyph glyph-name="Ograve" unicode="&#xd2;" horiz-adv-x="1460" 
d="M1382 733q0 -223 -39 -372t-123 -233q-86 -86 -204 -120q-120 -35 -295 -35q-173 0 -285 34q-115 35 -198 119q-85 87 -122 233q-38 150 -38 372q0 182 34 312q35 134 89 214q56 83 142 132t181 67q100 19 215 19t199 -12q87 -12 160 -41q77 -30 126 -82q50 -53 87 -134
q36 -78 54 -198q17 -110 17 -275zM977 727q0 183 -26 279q-25 94 -75 126q-49 31 -147 31q-86 0 -137 -33q-52 -34 -82 -130q-31 -101 -31 -271q0 -185 30 -284t80 -131q49 -31 138 -31q88 0 136 29q51 31 82 130q32 102 32 285zM657 1579l-292 188q-39 24 -39 62
q0 41 67 47q102 8 197 8q62 0 119 -51l204 -180q33 -30 33 -60q0 -35 -49 -41q-56 -6 -119 -6q-66 0 -121 33z" />
    <glyph glyph-name="Oacute" unicode="&#xd3;" horiz-adv-x="1460" 
d="M1382 733q0 -223 -39 -372t-123 -233q-86 -86 -204 -120q-120 -35 -295 -35q-173 0 -285 34q-115 35 -198 119q-85 87 -122 233q-38 150 -38 372q0 182 34 312q35 134 89 214q56 83 142 132t181 67q100 19 215 19t199 -12q87 -12 160 -41q77 -30 126 -82q50 -53 87 -134
q36 -78 54 -198q17 -110 17 -275zM977 727q0 183 -26 279q-25 94 -75 126q-49 31 -147 31q-86 0 -137 -33q-52 -34 -82 -130q-31 -101 -31 -271q0 -185 30 -284t80 -131q49 -31 138 -31q88 0 136 29q51 31 82 130q32 102 32 285zM803 1579q-55 -33 -121 -33q-64 0 -119 6
q-49 6 -49 41q0 30 33 60l205 180q57 51 118 51q85 0 197 -8q68 -6 68 -47q0 -37 -43 -64z" />
    <glyph glyph-name="Ocircumflex" unicode="&#xd4;" horiz-adv-x="1460" 
d="M1382 733q0 -223 -39 -372t-123 -233q-86 -86 -204 -120q-120 -35 -295 -35q-173 0 -285 34q-115 35 -198 119q-85 87 -122 233q-38 150 -38 372q0 182 34 312q35 134 89 214q56 83 142 132t181 67q100 19 215 19t199 -12q87 -12 160 -41q77 -30 126 -82q50 -53 87 -134
q36 -78 54 -198q17 -110 17 -275zM977 727q0 183 -26 279q-25 94 -75 126q-49 31 -147 31q-86 0 -137 -33q-52 -34 -82 -130q-31 -101 -31 -271q0 -185 30 -284t80 -131q49 -31 138 -31q88 0 136 29q51 31 82 130q32 102 32 285zM498 1546q-59 0 -109 8q-59 10 -59 50
q0 22 24 51l191 198q63 68 127 68h127q61 0 110 -55l197 -215q22 -22 22 -49q0 -40 -57 -48q-53 -8 -119 -8q-57 0 -108 51l-115 111l-125 -117q-45 -45 -106 -45z" />
    <glyph glyph-name="Otilde" unicode="&#xd5;" horiz-adv-x="1460" 
d="M1382 733q0 -223 -39 -372t-123 -233q-86 -86 -204 -120q-120 -35 -295 -35q-173 0 -285 34q-115 35 -198 119q-85 87 -122 233q-38 150 -38 372q0 182 34 312q35 134 89 214q56 83 142 132t181 67q100 19 215 19t199 -12q87 -12 160 -41q77 -30 126 -82q50 -53 87 -134
q36 -78 54 -198q17 -110 17 -275zM977 727q0 183 -26 279q-25 94 -75 126q-49 31 -147 31q-86 0 -137 -33q-52 -34 -82 -130q-31 -101 -31 -271q0 -185 30 -284t80 -131q49 -31 138 -31q88 0 136 29q51 31 82 130q32 102 32 285zM477 1534q-39 0 -76 6q-49 10 -49 57
q0 22 13 58q67 213 219 213q64 0 155 -47q67 -35 107 -35q54 0 78 45q27 47 73 47q29 0 62 -4q57 -6 57 -49q0 -35 -18 -86q-30 -85 -85 -137t-124 -52q-66 0 -176 54q-56 28 -92 28q-45 0 -68 -41q-17 -32 -34 -45q-15 -12 -42 -12z" />
    <glyph glyph-name="Odieresis" unicode="&#xd6;" horiz-adv-x="1460" 
d="M1382 733q0 -223 -39 -372t-123 -233q-86 -86 -204 -120q-120 -35 -295 -35q-173 0 -285 34q-115 35 -198 119q-85 87 -122 233q-38 150 -38 372q0 182 34 312q35 134 89 214q56 83 142 132t181 67q100 19 215 19t199 -12q87 -12 160 -41q77 -30 126 -82q50 -53 87 -134
q36 -78 54 -198q17 -110 17 -275zM977 727q0 183 -26 279q-25 94 -75 126q-49 31 -147 31q-86 0 -137 -33q-52 -34 -82 -130q-31 -101 -31 -271q0 -185 30 -284t80 -131q49 -31 138 -31q88 0 136 29q51 31 82 130q32 102 32 285zM680 1708q0 -158 -150 -158q-147 0 -147 156
q0 158 147 158q150 0 150 -156zM1106 1708q0 -158 -150 -158q-147 0 -147 156q0 158 147 158q150 0 150 -156z" />
    <glyph glyph-name="multiply" unicode="&#xd7;" horiz-adv-x="1435" 
d="M1143 356q26 -26 26 -57q0 -33 -26 -59l-56 -56q-30 -30 -59 -30t-57 28l-256 250l-250 -254q-28 -28 -57 -28q-30 0 -58 28l-55 55q-29 29 -29 58q0 28 29 57l252 258l-260 258q-29 29 -29 58q0 28 29 57l61 61q27 27 55 27q31 0 60 -29l254 -260l262 260q27 27 57 27
q31 0 60 -29l53 -55q27 -28 27 -59t-27 -58l-260 -258z" />
    <glyph glyph-name="Oslash" unicode="&#xd8;" horiz-adv-x="1460" 
d="M236 -51q-18 -23 -33 -23q-18 0 -92 54q-15 12 -15 24q0 14 17 37l86 119q-129 176 -129 571q0 186 33 312q34 131 90 214t142 132t181 67q100 19 215 19q249 0 379 -62l82 113q12 18 31 18q14 0 28 -10q74 -47 74 -68q0 -15 -12 -30l-82 -113q143 -165 143 -590
q0 -223 -39 -372q-39 -148 -124 -233q-86 -86 -203 -120q-120 -35 -295 -35q-261 0 -400 84zM969 727q0 124 -13 217l-421 -582q52 -79 184 -79q88 0 136 29q51 31 82 130q32 102 32 285zM471 729q0 -110 8 -182l412 565q-51 51 -170 51q-86 0 -137 -33q-52 -34 -82 -130
q-31 -101 -31 -271z" />
    <glyph glyph-name="Ugrave" unicode="&#xd9;" horiz-adv-x="1445" 
d="M1317 1378v-800q0 -301 -66 -406q-127 -201 -549 -201q-428 0 -524 211q-49 107 -49 391v803q0 28 18 49t50 21h266q59 0 59 -68v-872q0 -126 39 -172q40 -51 164 -51q132 0 176 47q43 46 43 174v872q0 27 19 49q18 21 49 21h245q60 0 60 -68zM676 1579l-293 188
q-39 24 -39 62q0 41 68 47q102 8 196 8q62 0 119 -51l205 -180q33 -30 33 -60q0 -35 -50 -41q-55 -6 -118 -6q-65 0 -121 33z" />
    <glyph glyph-name="Uacute" unicode="&#xda;" horiz-adv-x="1445" 
d="M1317 1378v-800q0 -301 -66 -406q-127 -201 -549 -201q-428 0 -524 211q-49 107 -49 391v803q0 28 18 49t50 21h266q59 0 59 -68v-872q0 -126 39 -172q40 -51 164 -51q132 0 176 47q43 46 43 174v872q0 27 19 49q18 21 49 21h245q60 0 60 -68zM805 1579q-55 -33 -121 -33
q-63 0 -119 6q-49 6 -49 41q0 30 33 60l205 180q57 51 118 51q85 0 197 -8q68 -6 68 -47q0 -37 -43 -64z" />
    <glyph glyph-name="Ucircumflex" unicode="&#xdb;" horiz-adv-x="1445" 
d="M1317 1378v-800q0 -301 -66 -406q-127 -201 -549 -201q-428 0 -524 211q-49 107 -49 391v803q0 28 18 49t50 21h266q59 0 59 -68v-872q0 -126 39 -172q40 -51 164 -51q132 0 176 47q43 46 43 174v872q0 27 19 49q18 21 49 21h245q60 0 60 -68zM512 1546q-59 0 -109 8
q-59 10 -59 50q0 21 25 51l190 198q63 68 127 68h127q62 0 111 -55l196 -215q23 -23 23 -49q0 -40 -58 -48q-53 -8 -118 -8q-58 0 -109 51l-115 111l-125 -117q-45 -45 -106 -45z" />
    <glyph glyph-name="Udieresis" unicode="&#xdc;" horiz-adv-x="1445" 
d="M1317 1378v-800q0 -301 -66 -406q-127 -201 -549 -201q-428 0 -524 211q-49 107 -49 391v803q0 28 18 49t50 21h266q59 0 59 -68v-872q0 -126 39 -172q40 -51 164 -51q132 0 176 47q43 46 43 174v872q0 27 19 49q18 21 49 21h245q60 0 60 -68zM676 1708q0 -158 -150 -158
q-147 0 -147 156q0 158 147 158q150 0 150 -156zM1102 1708q0 -158 -150 -158q-147 0 -147 156q0 158 147 158q150 0 150 -156z" />
    <glyph glyph-name="Yacute" unicode="&#xdd;" horiz-adv-x="1343" 
d="M870 74q0 -36 -21 -55q-20 -19 -50 -19h-254q-68 0 -68 74v506l-440 741q-29 50 -29 72q0 35 33 47q23 10 336 10q62 0 100 -68q127 -243 209 -413l217 413q38 68 98 68q281 0 308 -14q26 -12 26 -41q0 -31 -26 -74l-439 -731v-516zM770 1561q-55 -33 -121 -33
q-63 0 -119 6q-49 6 -49 41q0 29 33 59l205 181q57 51 119 51q84 0 196 -8q68 -6 68 -48q0 -36 -43 -63z" />
    <glyph glyph-name="Thorn" unicode="&#xde;" horiz-adv-x="1327" 
d="M535 289v-215q0 -35 -22 -55q-20 -19 -50 -19h-252q-68 0 -68 74v1298q0 74 70 74h256q66 0 66 -72v-174h55q334 0 463 -55q204 -83 204 -391q0 -162 -56 -268q-56 -107 -218 -156q-137 -41 -379 -41h-69zM535 584h83q107 0 156 16q84 28 84 131q0 119 -78 146
q-42 14 -159 14h-86v-307z" />
    <glyph glyph-name="germandbls" unicode="&#xdf;" horiz-adv-x="1255" 
d="M500 63q0 -24 -17 -44q-16 -19 -45 -19h-262q-28 0 -43 19q-14 18 -14 47v901q0 244 37 327q107 244 524 244q238 0 341 -92q101 -91 101 -258q0 -157 -53 -239q-52 -80 -180 -113q164 -21 236 -113q73 -93 73 -272q0 -151 -38 -236q-37 -83 -111 -139q-57 -42 -164 -67
q-106 -25 -207 -25q-96 0 -103 63q-8 54 -8 143q0 66 51 74q132 18 156 39q45 37 45 162q0 72 -35 107q-34 34 -127 42q-98 7 -98 158q0 87 20 125q19 37 60 49q58 17 81 50t23 104q0 77 -25 106q-26 31 -95 31q-80 0 -107 -61q-16 -33 -16 -154v-959z" />
    <glyph glyph-name="agrave" unicode="&#xe0;" horiz-adv-x="1138" 
d="M1038 184q0 -83 -28 -112q-28 -30 -86 -47q-67 -21 -206 -36q-147 -16 -239 -16q-236 0 -325 92q-88 91 -88 248q0 178 112 260q97 70 336 70q68 0 148 -6v14q0 35 -9 62q-17 39 -135 39q-86 0 -182 -13q-73 -12 -105 -12q-44 0 -59 53q-20 74 -20 162q0 58 55 76
q134 45 360 45q303 0 391 -88q80 -80 80 -285v-506zM662 406q-33 4 -95 4q-92 0 -116 -21q-27 -21 -27 -65q0 -80 100 -80q78 0 113 18q18 8 20 29q5 23 5 71v44zM479 1231l-219 223q-35 35 -35 66q0 39 66 45q78 6 172 6q66 0 106 -55l162 -220q23 -29 23 -57
q0 -41 -54 -47q-50 -6 -110 -6q-62 0 -111 45z" />
    <glyph glyph-name="aacute" unicode="&#xe1;" horiz-adv-x="1138" 
d="M1038 184q0 -83 -28 -112q-28 -30 -86 -47q-67 -21 -206 -36q-147 -16 -239 -16q-236 0 -325 92q-88 91 -88 248q0 178 112 260q97 70 336 70q68 0 148 -6v14q0 35 -9 62q-17 39 -135 39q-86 0 -182 -13q-73 -12 -105 -12q-44 0 -59 53q-20 74 -20 162q0 58 55 76
q134 45 360 45q303 0 391 -88q80 -80 80 -285v-506zM662 406q-33 4 -95 4q-92 0 -116 -21q-27 -21 -27 -65q0 -80 100 -80q78 0 113 18q18 8 20 29q5 23 5 71v44zM707 1231q-43 -45 -111 -45q-62 0 -111 6q-53 6 -53 47q0 28 23 57l161 220q39 55 107 55q95 0 172 -6
q66 -6 66 -45q0 -31 -35 -66z" />
    <glyph glyph-name="acircumflex" unicode="&#xe2;" horiz-adv-x="1138" 
d="M1038 184q0 -83 -28 -112q-28 -30 -86 -47q-67 -21 -206 -36q-147 -16 -239 -16q-236 0 -325 92q-88 91 -88 248q0 178 112 260q97 70 336 70q68 0 148 -6v14q0 35 -9 62q-17 39 -135 39q-86 0 -182 -13q-73 -12 -105 -12q-44 0 -59 53q-20 74 -20 162q0 58 55 76
q134 45 360 45q303 0 391 -88q80 -80 80 -285v-506zM662 406q-33 4 -95 4q-92 0 -116 -21q-27 -21 -27 -65q0 -80 100 -80q78 0 113 18q18 8 20 29q5 23 5 71v44zM389 1186q-51 0 -94 6q-64 8 -64 49q0 22 23 51l160 215q45 62 110 62h117q41 0 60 -10q21 -11 44 -43
l166 -224q21 -27 21 -51q0 -43 -62 -49q-55 -6 -98 -6q-55 0 -94 47l-96 113l-99 -115q-39 -45 -94 -45z" />
    <glyph glyph-name="atilde" unicode="&#xe3;" horiz-adv-x="1138" 
d="M1038 184q0 -83 -28 -112q-28 -30 -86 -47q-67 -21 -206 -36q-147 -16 -239 -16q-236 0 -325 92q-88 91 -88 248q0 178 112 260q97 70 336 70q68 0 148 -6v14q0 35 -9 62q-17 39 -135 39q-86 0 -182 -13q-73 -12 -105 -12q-44 0 -59 53q-20 74 -20 162q0 58 55 76
q134 45 360 45q303 0 391 -88q80 -80 80 -285v-506zM662 406q-33 4 -95 4q-92 0 -116 -21q-27 -21 -27 -65q0 -80 100 -80q78 0 113 18q18 8 20 29q5 23 5 71v44zM322 1178q-48 0 -68 4q-53 11 -53 55q0 18 14 59q46 111 93 162q48 53 116 53q44 0 149 -49q67 -32 103 -32
q42 0 65 45q23 47 76 47q24 0 64 -4q28 -4 41 -14q12 -9 12 -36q0 -28 -27 -100q-61 -174 -190 -174q-60 0 -168 53q-63 29 -82 29q-42 0 -64 -39q-34 -59 -81 -59z" />
    <glyph glyph-name="adieresis" unicode="&#xe4;" horiz-adv-x="1138" 
d="M1038 184q0 -83 -28 -112q-28 -30 -86 -47q-67 -21 -206 -36q-147 -16 -239 -16q-236 0 -325 92q-88 91 -88 248q0 178 112 260q97 70 336 70q68 0 148 -6v14q0 35 -9 62q-17 39 -135 39q-86 0 -182 -13q-73 -12 -105 -12q-44 0 -59 53q-20 74 -20 162q0 58 55 76
q134 45 360 45q303 0 391 -88q80 -80 80 -285v-506zM662 406q-33 4 -95 4q-92 0 -116 -21q-27 -21 -27 -65q0 -80 100 -80q78 0 113 18q18 8 20 29q5 23 5 71v44zM539 1337q0 -157 -150 -157q-147 0 -147 155q0 158 147 158q150 0 150 -156zM944 1337q0 -157 -149 -157
q-148 0 -148 155q0 158 148 158q149 0 149 -156z" />
    <glyph glyph-name="aring" unicode="&#xe5;" horiz-adv-x="1138" 
d="M1038 184q0 -83 -28 -112q-28 -30 -86 -47q-67 -21 -206 -36q-147 -16 -239 -16q-236 0 -325 92q-88 91 -88 248q0 178 112 260q97 70 336 70q68 0 148 -6v14q0 35 -9 62q-17 39 -135 39q-86 0 -182 -13q-73 -12 -105 -12q-44 0 -59 53q-20 74 -20 162q0 58 55 76
q134 45 360 45q303 0 391 -88q80 -80 80 -285v-506zM662 406q-33 4 -95 4q-92 0 -116 -21q-27 -21 -27 -65q0 -80 100 -80q78 0 113 18q18 8 20 29q5 23 5 71v44zM795 1372q0 -97 -59 -150t-154 -53q-92 0 -148 53q-55 52 -55 150t57 154q56 55 152 55t151 -55
q56 -56 56 -154zM694 1376q0 119 -110 119q-50 0 -80 -32q-31 -33 -31 -89q0 -58 30 -88q31 -31 83 -31q108 0 108 121z" />
    <glyph glyph-name="ae" unicode="&#xe6;" horiz-adv-x="1673" 
d="M801 80q-124 -107 -355 -107q-380 0 -380 351q0 188 112 260q107 67 336 67q99 0 148 -4v17q0 22 -9 49q-17 39 -135 39q-119 0 -213 -17q-48 -8 -76 -8q-44 0 -59 57q-18 69 -18 164q0 56 63 72q144 43 350 43q250 0 322 -88q40 39 121 63q83 25 147 25q124 0 211 -29
q86 -28 135 -72q49 -43 75 -125q26 -81 33 -156q7 -70 7 -194q0 -51 -29 -69q-18 -12 -51 -12h-512q1 -76 47 -105t129 -29q139 0 244 21q53 8 61 8q51 0 66 -61q22 -84 22 -148q0 -43 -34 -61q-114 -58 -390 -58q-263 0 -368 107zM662 405q-42 5 -95 5q-83 0 -118 -23
q-25 -19 -25 -59q0 -84 100 -84q120 0 158 24q-14 37 -20 137zM1030 651h246q2 10 2 33q0 64 -26 99q-25 34 -91 34q-131 0 -131 -166z" />
    <glyph glyph-name="ccedilla" unicode="&#xe7;" horiz-adv-x="960" 
d="M571 -88q60 -1 101 -22q39 -20 54 -55q14 -35 19 -65q5 -33 5 -79q0 -226 -318 -226q-55 0 -102 9q-60 12 -60 57q0 40 9 76q8 33 22 42q15 9 45 9q31 0 60 -4q22 -2 40 -2q56 0 56 43q0 47 -51 47h-35q-49 0 -49 43q0 25 12 82l27 121q-168 30 -250 151t-82 363
q0 294 122 428q121 133 414 133q150 0 248 -31q39 -15 39 -55q0 -87 -25 -193q-10 -43 -51 -43q-3 0 -71 9q-67 8 -121 8q-95 0 -132 -51q-38 -52 -38 -193q0 -149 40 -195q41 -47 128 -47q67 0 139 9q61 8 70 8q38 0 49 -41q26 -118 26 -170q0 -45 -37 -60
q-108 -45 -292 -45z" />
    <glyph glyph-name="egrave" unicode="&#xe8;" horiz-adv-x="1099" 
d="M453 406q1 -82 49 -108q47 -26 141 -26q131 0 221 19q4 0 19 3q23 4 27 5q18 2 24 2q43 0 59 -43q29 -79 29 -166q0 -43 -35 -61q-107 -58 -391 -58q-291 0 -411 128q-119 126 -119 411q0 294 125 422q126 129 395 129q97 0 163 -14q72 -15 118 -37q48 -22 81 -66t51 -84
q19 -42 29 -108q10 -67 12 -122q2 -72 2 -140q0 -56 -28 -74q-18 -12 -51 -12h-510zM459 651h229q2 6 2 29q0 67 -24 97t-91 30q-60 0 -87 -36q-28 -37 -29 -120zM475 1231l-219 223q-35 35 -35 66q0 39 66 45q78 6 172 6q66 0 106 -55l162 -220q23 -29 23 -57
q0 -41 -54 -47q-50 -6 -110 -6q-62 0 -111 45z" />
    <glyph glyph-name="eacute" unicode="&#xe9;" horiz-adv-x="1099" 
d="M453 406q1 -82 49 -108q47 -26 141 -26q131 0 221 19q4 0 19 3q23 4 27 5q18 2 24 2q43 0 59 -43q29 -79 29 -166q0 -43 -35 -61q-107 -58 -391 -58q-291 0 -411 128q-119 126 -119 411q0 294 125 422q126 129 395 129q97 0 163 -14q72 -15 118 -37q48 -22 81 -66t51 -84
q19 -42 29 -108q10 -67 12 -122q2 -72 2 -140q0 -56 -28 -74q-18 -12 -51 -12h-510zM459 651h229q2 6 2 29q0 67 -24 97t-91 30q-60 0 -87 -36q-28 -37 -29 -120zM684 1231q-44 -45 -111 -45q-61 0 -110 6q-53 6 -53 47q0 29 22 57l162 220q40 55 106 55q94 0 172 -6
q66 -6 66 -45q0 -31 -35 -66z" />
    <glyph glyph-name="ecircumflex" unicode="&#xea;" horiz-adv-x="1099" 
d="M453 406q1 -82 49 -108q47 -26 141 -26q131 0 221 19q4 0 19 3q23 4 27 5q18 2 24 2q43 0 59 -43q29 -79 29 -166q0 -43 -35 -61q-107 -58 -391 -58q-291 0 -411 128q-119 126 -119 411q0 294 125 422q126 129 395 129q97 0 163 -14q72 -15 118 -37q48 -22 81 -66t51 -84
q19 -42 29 -108q10 -67 12 -122q2 -72 2 -140q0 -56 -28 -74q-18 -12 -51 -12h-510zM459 651h229q2 6 2 29q0 67 -24 97t-91 30q-60 0 -87 -36q-28 -37 -29 -120zM389 1186q-51 0 -94 6q-64 8 -64 49q0 22 23 51l160 215q45 62 110 62h117q41 0 60 -10q21 -11 44 -43
l166 -224q21 -27 21 -51q0 -43 -62 -49q-55 -6 -98 -6q-55 0 -94 47l-96 113l-99 -115q-39 -45 -94 -45z" />
    <glyph glyph-name="edieresis" unicode="&#xeb;" horiz-adv-x="1099" 
d="M453 406q1 -82 49 -108q47 -26 141 -26q131 0 221 19q4 0 19 3q23 4 27 5q18 2 24 2q43 0 59 -43q29 -79 29 -166q0 -43 -35 -61q-107 -58 -391 -58q-291 0 -411 128q-119 126 -119 411q0 294 125 422q126 129 395 129q97 0 163 -14q72 -15 118 -37q48 -22 81 -66t51 -84
q19 -42 29 -108q10 -67 12 -122q2 -72 2 -140q0 -56 -28 -74q-18 -12 -51 -12h-510zM459 651h229q2 6 2 29q0 67 -24 97t-91 30q-60 0 -87 -36q-28 -37 -29 -120zM526 1339q0 -157 -149 -157q-148 0 -148 155q0 158 148 158q149 0 149 -156zM932 1339q0 -157 -150 -157
q-147 0 -147 155q0 158 147 158q150 0 150 -156z" />
    <glyph glyph-name="igrave" unicode="&#xec;" horiz-adv-x="610" 
d="M209 1231l-219 223q-35 35 -35 66q0 39 65 45q76 6 173 6q67 0 106 -55l162 -220q22 -28 22 -57q0 -41 -53 -47q-50 -6 -111 -6t-110 45zM500 70q0 -70 -66 -70h-254q-61 0 -61 70v895q0 69 63 69h258q35 0 47 -16q13 -18 13 -51v-897z" />
    <glyph glyph-name="iacute" unicode="&#xed;" horiz-adv-x="610" 
d="M500 70q0 -70 -66 -70h-254q-61 0 -61 70v895q0 69 63 69h258q35 0 47 -16q13 -18 13 -51v-897zM440 1231q-44 -45 -110 -45q-62 0 -111 6q-53 6 -53 47q0 29 22 57l162 220q39 55 107 55q95 0 172 -6q65 -6 65 -45q0 -31 -35 -66z" />
    <glyph glyph-name="icircumflex" unicode="&#xee;" horiz-adv-x="610" 
d="M500 70q0 -70 -66 -70h-254q-61 0 -61 70v895q0 69 63 69h258q35 0 47 -16q13 -18 13 -51v-897zM119 1186q-51 0 -94 6q-64 8 -64 49q0 22 23 51l159 215q45 62 111 62h117q41 0 60 -10q21 -11 44 -43l166 -224q21 -27 21 -51q0 -43 -62 -49q-56 -6 -98 -6q-55 0 -94 47
l-97 113l-98 -115q-39 -45 -94 -45z" />
    <glyph glyph-name="idieresis" unicode="&#xef;" horiz-adv-x="610" 
d="M258 1339q0 -157 -149 -157q-148 0 -148 155q0 158 148 158q149 0 149 -156zM664 1339q0 -157 -150 -157q-147 0 -147 155q0 158 147 158q150 0 150 -156zM500 70q0 -70 -66 -70h-254q-61 0 -61 70v895q0 69 63 69h258q35 0 47 -16q13 -18 13 -51v-897z" />
    <glyph glyph-name="eth" unicode="&#xf0;" horiz-adv-x="1171" 
d="M1018 1362l-60 -39q91 -113 125 -300q35 -190 35 -491q0 -315 -125 -437t-403 -122q-270 0 -393 117t-123 430q0 150 36 252q37 104 105 156q69 53 151 74q85 22 189 22q47 0 104 -18q58 -18 76 -52q-21 107 -71 174l-70 -45q-32 -22 -55 -22q-26 0 -43 26q-4 5 -14 19
t-11 15q-2 2 -5 7t-5 7q-7 9 -8 12q0 1 -7 10q-5 6 -6 10q-1 1 -2.5 5t-1.5 5q-2 6 -2 8q0 5 -1 8t-1 9q0 27 37 51l6 4q-54 16 -127 23q-24 2 -38 16q-15 15 -15 37q0 23 20 140q10 59 70 59q24 0 64 -4q199 -12 331 -70l113 74q32 22 55 22q26 0 43 -26q4 -5 14 -19
t11 -15q2 -2 5.5 -6.5t4.5 -6.5q6 -8 8 -13q1 -4 6 -10q7 -9 7 -10q1 -1 2 -4t2 -5q2 -6 2 -8q0 -6 1 -9t1 -9q0 -27 -37 -51zM733 510q0 132 -24 175q-24 44 -109 44q-75 0 -108 -50q-33 -49 -33 -165q0 -148 27 -195t110 -47t110 45t27 193z" />
    <glyph glyph-name="ntilde" unicode="&#xf1;" horiz-adv-x="1234" 
d="M496 70q0 -33 -19 -52q-18 -18 -47 -18h-254q-61 0 -61 70v776q0 103 82 133q89 35 267 60q172 24 320 24q264 0 314 -131q22 -59 22 -201v-661q0 -70 -61 -70h-258q-62 0 -62 70v573q0 47 -6 70q-12 45 -92 45q-46 0 -90 -10q-28 -7 -41 -19q-14 -11 -14 -45v-614z
M387 1178q-48 0 -68 4q-53 11 -53 55q0 15 15 59q46 111 93 162q48 53 115 53q45 0 150 -49q67 -32 102 -32q43 0 66 45q23 47 76 47q23 0 63 -4q28 -4 41 -14q12 -9 12 -36q0 -31 -26 -100q-62 -174 -191 -174q-60 0 -168 53q-63 29 -82 29q-40 0 -63 -39q-34 -59 -82 -59z
" />
    <glyph glyph-name="ograve" unicode="&#xf2;" horiz-adv-x="1189" 
d="M1116 526q0 -316 -124 -434q-125 -119 -404 -119q-270 0 -392 117t-122 430q0 161 38 273t112 168t165 79q92 23 213 23q134 0 225 -20q92 -20 158 -75q71 -58 100 -164q31 -112 31 -278zM733 516q0 151 -23 196q-24 46 -112 46q-80 0 -110 -49q-29 -48 -29 -189
q0 -148 27 -198t108 -50q82 0 111 49q28 47 28 195zM506 1231l-219 223q-35 35 -35 66q0 39 65 45q76 6 172 6q68 0 107 -55l162 -220q22 -28 22 -57q0 -41 -53 -47q-49 -6 -111 -6q-60 0 -110 45z" />
    <glyph glyph-name="oacute" unicode="&#xf3;" horiz-adv-x="1189" 
d="M1116 526q0 -316 -124 -434q-125 -119 -404 -119q-270 0 -392 117t-122 430q0 161 38 273t112 168t165 79q92 23 213 23q134 0 225 -20q92 -20 158 -75q71 -58 100 -164q31 -112 31 -278zM733 516q0 151 -23 196q-24 46 -112 46q-80 0 -110 -49q-29 -48 -29 -189
q0 -148 27 -198t108 -50q82 0 111 49q28 47 28 195zM717 1231q-43 -45 -111 -45q-60 0 -110 6q-54 6 -54 47q0 28 23 57l162 220q40 55 106 55q94 0 172 -6q66 -6 66 -45q0 -31 -35 -66z" />
    <glyph glyph-name="ocircumflex" unicode="&#xf4;" horiz-adv-x="1189" 
d="M1116 526q0 -316 -124 -434q-125 -119 -404 -119q-270 0 -392 117t-122 430q0 161 38 273t112 168t165 79q92 23 213 23q134 0 225 -20q92 -20 158 -75q71 -58 100 -164q31 -112 31 -278zM733 516q0 151 -23 196q-24 46 -112 46q-80 0 -110 -49q-29 -48 -29 -189
q0 -148 27 -198t108 -50q82 0 111 49q28 47 28 195zM410 1186q-52 0 -95 6q-63 8 -63 49q0 23 22 51l160 215q45 62 111 62h117q41 0 60 -10q21 -11 44 -43l166 -224q20 -26 20 -51q0 -43 -61 -49q-55 -6 -98 -6q-56 0 -95 47l-96 113l-98 -115q-39 -45 -94 -45z" />
    <glyph glyph-name="otilde" unicode="&#xf5;" horiz-adv-x="1189" 
d="M1116 526q0 -316 -124 -434q-125 -119 -404 -119q-270 0 -392 117t-122 430q0 161 38 273t112 168t165 79q92 23 213 23q134 0 225 -20q92 -20 158 -75q71 -58 100 -164q31 -112 31 -278zM733 516q0 151 -23 196q-24 46 -112 46q-80 0 -110 -49q-29 -48 -29 -189
q0 -148 27 -198t108 -50q82 0 111 49q28 47 28 195zM354 1178q-47 0 -67 4q-54 11 -54 55q0 15 15 59q46 111 93 162q48 53 116 53q44 0 149 -49q67 -32 103 -32q43 0 65 45q23 47 76 47q23 0 63 -4q28 -4 41 -14t13 -36q0 -28 -27 -100q-62 -174 -190 -174q-60 0 -168 53
q-63 29 -82 29q-42 0 -64 -39q-34 -59 -82 -59z" />
    <glyph glyph-name="odieresis" unicode="&#xf6;" horiz-adv-x="1189" 
d="M1116 526q0 -316 -124 -434q-125 -119 -404 -119q-270 0 -392 117t-122 430q0 161 38 273t112 168t165 79q92 23 213 23q134 0 225 -20q92 -20 158 -75q71 -58 100 -164q31 -112 31 -278zM733 516q0 151 -23 196q-24 46 -112 46q-80 0 -110 -49q-29 -48 -29 -189
q0 -148 27 -198t108 -50q82 0 111 49q28 47 28 195zM547 1339q0 -157 -150 -157q-147 0 -147 155q0 158 147 158q150 0 150 -156zM952 1339q0 -157 -149 -157q-148 0 -148 155q0 158 148 158q149 0 149 -156z" />
    <glyph glyph-name="divide" unicode="&#xf7;" horiz-adv-x="1435" 
d="M719 831q-148 0 -148 152q0 150 154 150q145 0 145 -150q0 -152 -151 -152zM1182 487h-926q-72 0 -72 82v74q0 82 72 82h926q69 0 69 -82v-74q0 -82 -69 -82zM719 70q-148 0 -148 151q0 77 42 114q43 38 112 38q145 0 145 -152q0 -151 -151 -151z" />
    <glyph glyph-name="oslash" unicode="&#xf8;" horiz-adv-x="1189" 
d="M227 -72q-20 -20 -28 -20q-17 0 -78 45q-12 12 -12 22q0 16 14 33l59 84q-121 124 -121 428q0 162 39 273t114 168q74 56 165 79q92 23 213 23q174 0 274 -35l80 111q12 16 27 16q12 0 26 -10q60 -37 60 -58q0 -12 -10 -26l-70 -96q129 -113 129 -439q0 -315 -125 -434
t-405 -119q-180 0 -285 45zM741 516q0 56 -4 115l-252 -346q31 -23 99 -23q92 0 125 50q32 48 32 204zM432 520q0 -52 2 -84l234 320q-30 12 -80 12q-88 0 -122 -52t-34 -196z" />
    <glyph glyph-name="ugrave" unicode="&#xf9;" horiz-adv-x="1234" 
d="M115 358v607q0 69 61 69h258q62 0 62 -69v-553q0 -65 10 -88q18 -45 92 -45q58 0 86 6q35 11 41 16q14 11 14 45v619q0 32 19 51q18 18 47 18h254q61 0 61 -69v-793q0 -107 -82 -137q-163 -62 -491 -62q-201 0 -288 37q-89 38 -116 107q-28 71 -28 241zM526 1235
l-219 223q-35 35 -35 66q0 39 66 45q78 6 172 6q67 0 106 -55l162 -220q23 -29 23 -57q0 -41 -53 -47q-50 -6 -111 -6t-111 45z" />
    <glyph glyph-name="uacute" unicode="&#xfa;" horiz-adv-x="1234" 
d="M115 358v607q0 69 61 69h258q62 0 62 -69v-553q0 -65 10 -88q18 -45 92 -45q58 0 86 6q35 11 41 16q14 11 14 45v619q0 32 19 51q18 18 47 18h254q61 0 61 -69v-793q0 -107 -82 -137q-163 -62 -491 -62q-201 0 -288 37q-89 38 -116 107q-28 71 -28 241zM735 1231
q-43 -45 -110 -45q-61 0 -111 6q-53 6 -53 47q0 29 22 57l162 220q39 55 107 55q94 0 172 -6q65 -6 65 -45q0 -31 -35 -66z" />
    <glyph glyph-name="ucircumflex" unicode="&#xfb;" horiz-adv-x="1234" 
d="M115 358v607q0 69 61 69h258q62 0 62 -69v-553q0 -65 10 -88q18 -45 92 -45q58 0 86 6q35 11 41 16q14 11 14 45v619q0 32 19 51q18 18 47 18h254q61 0 61 -69v-793q0 -107 -82 -137q-163 -62 -491 -62q-201 0 -288 37q-89 38 -116 107q-28 71 -28 241zM422 1186
q-50 0 -94 6q-64 8 -64 49q0 22 23 51l159 215q45 62 111 62h117q41 0 60 -10q21 -11 44 -43l166 -224q21 -27 21 -51q0 -43 -62 -49q-55 -6 -98 -6q-55 0 -94 47l-97 113l-98 -115q-39 -45 -94 -45z" />
    <glyph glyph-name="udieresis" unicode="&#xfc;" horiz-adv-x="1234" 
d="M115 358v607q0 69 61 69h258q62 0 62 -69v-553q0 -65 10 -88q18 -45 92 -45q58 0 86 6q35 11 41 16q14 11 14 45v619q0 32 19 51q18 18 47 18h254q61 0 61 -69v-793q0 -107 -82 -137q-163 -62 -491 -62q-201 0 -288 37q-89 38 -116 107q-28 71 -28 241zM565 1339
q0 -157 -149 -157q-148 0 -148 155q0 158 148 158q149 0 149 -156zM971 1339q0 -157 -150 -157q-147 0 -147 155q0 158 147 158q150 0 150 -156z" />
    <glyph glyph-name="yacute" unicode="&#xfd;" horiz-adv-x="1234" 
d="M115 307v658q0 69 61 69h258q62 0 62 -69v-570q0 -47 6 -69q12 -45 92 -45q47 0 90 10q29 8 41 18q14 11 14 45v611q0 32 19 51q18 18 47 18h254q61 0 61 -69v-852q0 -200 -16 -271q-40 -180 -250 -252q-206 -71 -557 -71q-43 0 -60 14q-18 15 -22 51q-8 67 -8 154
q0 83 67 84q247 12 343 35q94 23 106 69q8 30 8 76v18q-99 -45 -280 -45q-264 0 -314 131q-22 59 -22 201zM729 1231q-43 -45 -111 -45q-60 0 -110 6q-53 6 -53 47q0 29 22 57l162 220q40 55 106 55q97 0 173 -6q65 -6 65 -45q0 -31 -35 -66z" />
    <glyph glyph-name="thorn" unicode="&#xfe;" horiz-adv-x="1224" 
d="M500 -422q0 -78 -82 -78h-232q-33 0 -51 16q-16 15 -16 62v1872q0 50 15 66t65 16h219q52 0 67 -15t15 -63v-489q88 94 282 94q190 0 281 -115q90 -114 90 -422q0 -168 -30 -274t-97 -163q-66 -56 -156 -77q-84 -20 -225 -20q-109 0 -145 26v-436zM502 346q0 -47 22 -57
q17 -10 70 -10q109 0 144 53q34 52 34 217q0 123 -31 171q-30 46 -108 46q-69 0 -107 -18q-14 -7 -20 -23q-4 -11 -4 -37v-342z" />
    <glyph glyph-name="ydieresis" unicode="&#xff;" horiz-adv-x="1234" 
d="M115 307v658q0 69 61 69h258q62 0 62 -69v-570q0 -47 6 -69q12 -45 92 -45q47 0 90 10q29 8 41 18q14 11 14 45v611q0 32 19 51q18 18 47 18h254q61 0 61 -69v-852q0 -200 -16 -271q-40 -180 -250 -252q-206 -71 -557 -71q-43 0 -60 14q-18 15 -22 51q-8 67 -8 154
q0 83 67 84q247 12 343 35q94 23 106 69q8 30 8 76v18q-99 -45 -280 -45q-264 0 -314 131q-22 59 -22 201zM571 1339q0 -157 -149 -157q-148 0 -148 155q0 158 148 158q149 0 149 -156zM977 1339q0 -157 -150 -157q-147 0 -147 155q0 158 147 158q150 0 150 -156z" />
    <glyph glyph-name="Amacron" unicode="&#x100;" horiz-adv-x="1421" 
d="M492 311l-68 -235q-12 -45 -30 -63q-17 -17 -54 -17q-242 0 -293 12q-37 7 -37 49q0 28 17 74l356 1092q41 132 97 182q57 51 204 51h94q76 0 117 -11q46 -12 74 -46q29 -35 41 -65q9 -23 34 -99l353 -1100q14 -36 14 -76q0 -36 -33 -51q-28 -12 -291 -12q-36 0 -57 18
t-33 62l-69 235h-436zM586 627h258q-114 440 -127 503q-9 -43 -131 -503zM985 1575h-534q-70 0 -70 65v111q0 61 70 61h532q70 0 70 -63v-115q0 -35 -17 -47q-16 -12 -51 -12z" />
    <glyph glyph-name="amacron" unicode="&#x101;" horiz-adv-x="1138" 
d="M1038 184q0 -83 -28 -112q-28 -30 -86 -47q-67 -21 -206 -36q-147 -16 -239 -16q-236 0 -325 92q-88 91 -88 248q0 178 112 260q97 70 336 70q68 0 148 -6v14q0 35 -9 62q-17 39 -135 39q-86 0 -182 -13q-73 -12 -105 -12q-44 0 -59 53q-20 74 -20 162q0 58 55 76
q134 45 360 45q303 0 391 -88q80 -80 80 -285v-506zM662 406q-33 4 -95 4q-92 0 -116 -21q-27 -21 -27 -65q0 -80 100 -80q78 0 113 18q18 8 20 29q5 23 5 71v44zM840 1206h-506q-70 0 -70 66v110q0 62 70 62h504q69 0 69 -64v-114q0 -35 -16 -47q-18 -13 -51 -13z" />
    <glyph glyph-name="Abreve" unicode="&#x102;" horiz-adv-x="1421" 
d="M492 311l-68 -235q-12 -45 -30 -63q-17 -17 -54 -17q-242 0 -293 12q-37 7 -37 49q0 28 17 74l356 1092q41 132 97 182q57 51 204 51h94q76 0 117 -11q46 -12 74 -46q29 -35 41 -65q9 -23 34 -99l353 -1100q14 -36 14 -76q0 -36 -33 -51q-28 -12 -291 -12q-36 0 -57 18
t-33 62l-69 235h-436zM586 627h258q-114 440 -127 503q-9 -43 -131 -503zM707 1538q-276 0 -326 193q-12 49 -12 88q0 59 63 69q20 4 78 4q56 0 68 -55q22 -88 137 -88q69 0 98 21q28 21 45 65q12 32 28 45q15 12 48 12q56 0 76 -4q51 -8 51 -61q0 -54 -14 -90
q-37 -100 -110 -150q-71 -49 -230 -49z" />
    <glyph glyph-name="abreve" unicode="&#x103;" horiz-adv-x="1138" 
d="M1038 184q0 -83 -28 -112q-28 -30 -86 -47q-67 -21 -206 -36q-147 -16 -239 -16q-236 0 -325 92q-88 91 -88 248q0 178 112 260q97 70 336 70q68 0 148 -6v14q0 35 -9 62q-17 39 -135 39q-86 0 -182 -13q-73 -12 -105 -12q-44 0 -59 53q-20 74 -20 162q0 58 55 76
q134 45 360 45q303 0 391 -88q80 -80 80 -285v-506zM662 406q-33 4 -95 4q-92 0 -116 -21q-27 -21 -27 -65q0 -80 100 -80q78 0 113 18q18 8 20 29q5 23 5 71v44zM799 1544q40 0 73 -6q50 -8 50 -59q0 -57 -15 -101q-34 -103 -105 -156t-220 -53q-261 0 -314 203
q-10 39 -10 94q0 62 61 72q30 6 74 6q31 0 44 -12q15 -13 22 -47q23 -107 131 -107q65 0 92 27t45 76q12 36 27 50q14 13 45 13z" />
    <glyph glyph-name="Aogonek" unicode="&#x104;" horiz-adv-x="1421" 
d="M492 311l-68 -235q-12 -45 -30 -63q-17 -17 -54 -17q-242 0 -293 12q-37 7 -37 49q0 28 17 74l356 1092q41 132 97 182q57 51 204 51h94q76 0 117 -11q46 -12 74 -46q29 -35 41 -65q9 -23 34 -99l353 -1100q14 -36 14 -76q0 -36 -33 -51q-14 -6 -112 -10q-70 -55 -83 -66
q-26 -22 -56 -52q-35 -35 -47 -67q-11 -29 -11 -73q0 -90 80 -90q6 0 54 2q10 0 19.5 0.5t14.5 1t6 0.5q25 0 36 -11t17 -44q9 -49 9 -78q0 -45 -64 -62q-53 -12 -141 -12q-147 0 -210 60t-63 182q0 119 60 189q61 72 166 122q-38 11 -56 76l-69 235h-436zM586 627h258
q-114 440 -127 503q-9 -43 -131 -503z" />
    <glyph glyph-name="aogonek" unicode="&#x105;" horiz-adv-x="1138" 
d="M1038 184q0 -83 -28 -112q-19 -19 -43 -31q-92 -64 -121 -89q-42 -36 -77 -88q-36 -54 -36 -114q0 -84 78 -84q29 0 51 1t37 1q47 0 57 -51q7 -35 7 -76q0 -47 -68 -59q-49 -10 -131 -10q-144 0 -205 58t-61 173q0 181 172 281q-118 -11 -191 -11q-236 0 -325 92
q-88 91 -88 248q0 178 112 260q97 70 336 70q68 0 148 -6v14q0 35 -9 62q-17 39 -135 39q-86 0 -182 -13q-73 -12 -105 -12q-44 0 -59 53q-20 74 -20 162q0 58 55 76q134 45 360 45q311 0 391 -86q80 -85 80 -283v-510zM662 406q-33 4 -95 4q-92 0 -116 -21q-27 -21 -27 -65
q0 -80 100 -80q78 0 113 18q18 8 20 29q5 23 5 71v44z" />
    <glyph glyph-name="Cacute" unicode="&#x106;" horiz-adv-x="1204" 
d="M479 729q0 -137 20 -228q20 -90 60 -136q41 -47 91 -65q47 -17 128 -17q116 0 223 26q44 10 68 10q29 0 41 -28q43 -113 43 -193q0 -43 -49 -61q-178 -64 -445 -64q-140 0 -243 35q-102 34 -180 117q-78 82 -118 225q-40 142 -40 350q0 415 145 594q146 181 498 181
q232 0 350 -31q53 -15 53 -64q0 -92 -41 -206q-12 -33 -49 -33l-71 10q-106 12 -179 12q-80 0 -131 -15q-49 -14 -94 -61q-43 -44 -61 -132q-19 -92 -19 -226zM799 1579q-56 -33 -121 -33q-64 0 -119 6q-49 6 -49 41q0 30 33 60l205 180q57 51 118 51q85 0 197 -8
q67 -6 67 -47q0 -37 -43 -64z" />
    <glyph glyph-name="cacute" unicode="&#x107;" horiz-adv-x="960" 
d="M459 514q0 -149 40 -195q41 -47 128 -47q67 0 139 9q61 8 70 8q38 0 49 -41q26 -118 26 -170q0 -45 -37 -60q-105 -45 -299 -45q-257 0 -379 117t-122 412q0 294 122 428q121 133 414 133q150 0 248 -31q39 -15 39 -55q0 -87 -25 -193q-10 -43 -51 -43q-3 0 -71 9
q-67 8 -121 8q-95 0 -132 -51q-38 -52 -38 -193zM666 1231q-44 -45 -111 -45q-61 0 -111 6q-53 6 -53 47q0 28 23 57l161 220q39 55 107 55q96 0 172 -6q66 -6 66 -45q0 -31 -35 -66z" />
    <glyph glyph-name="Ccircumflex" unicode="&#x108;" horiz-adv-x="1204" 
d="M479 729q0 -137 20 -228q20 -90 60 -136q41 -47 91 -65q47 -17 128 -17q116 0 223 26q44 10 68 10q29 0 41 -28q43 -113 43 -193q0 -43 -49 -61q-178 -64 -445 -64q-140 0 -243 35q-102 34 -180 117q-78 82 -118 225q-40 142 -40 350q0 415 145 594q146 181 498 181
q232 0 350 -31q53 -15 53 -64q0 -92 -41 -206q-12 -33 -49 -33l-71 10q-106 12 -179 12q-80 0 -131 -15q-49 -14 -94 -61q-43 -44 -61 -132q-19 -92 -19 -226zM492 1546q-59 0 -109 8q-59 10 -59 50q0 22 24 51l191 198q63 68 127 68h127q61 0 110 -55l197 -215
q22 -22 22 -49q0 -40 -57 -48q-53 -8 -119 -8q-57 0 -108 51l-115 111l-125 -117q-45 -45 -106 -45z" />
    <glyph glyph-name="ccircumflex" unicode="&#x109;" horiz-adv-x="960" 
d="M459 514q0 -149 40 -195q41 -47 128 -47q67 0 139 9q61 8 70 8q38 0 49 -41q26 -118 26 -170q0 -45 -37 -60q-105 -45 -299 -45q-257 0 -379 117t-122 412q0 294 122 428q121 133 414 133q150 0 248 -31q39 -15 39 -55q0 -87 -25 -193q-10 -43 -51 -43q-3 0 -71 9
q-67 8 -121 8q-95 0 -132 -51q-38 -52 -38 -193zM383 1186q-51 0 -94 6q-64 8 -64 49q0 22 23 51l160 215q45 62 110 62h117q41 0 60 -10q21 -11 44 -43l166 -224q21 -27 21 -51q0 -43 -62 -49q-55 -6 -98 -6q-55 0 -94 47l-97 113l-98 -115q-39 -45 -94 -45z" />
    <glyph glyph-name="Cdotaccent" unicode="&#x10a;" horiz-adv-x="1204" 
d="M479 729q0 -137 20 -228q20 -90 60 -136q41 -47 91 -65q47 -17 128 -17q116 0 223 26q44 10 68 10q29 0 41 -28q43 -113 43 -193q0 -43 -49 -61q-178 -64 -445 -64q-140 0 -243 35q-102 34 -180 117q-78 82 -118 225q-40 142 -40 350q0 415 145 594q146 181 498 181
q232 0 350 -31q53 -15 53 -64q0 -92 -41 -206q-12 -33 -49 -33l-71 10q-106 12 -179 12q-80 0 -131 -15q-49 -14 -94 -61q-43 -44 -61 -132q-19 -92 -19 -226zM872 1708q0 -158 -149 -158q-148 0 -148 156q0 158 148 158q149 0 149 -156z" />
    <glyph glyph-name="cdotaccent" unicode="&#x10b;" horiz-adv-x="960" 
d="M459 514q0 -149 40 -195q41 -47 128 -47q67 0 139 9q61 8 70 8q38 0 49 -41q26 -118 26 -170q0 -45 -37 -60q-105 -45 -299 -45q-257 0 -379 117t-122 412q0 294 122 428q121 133 414 133q150 0 248 -31q39 -15 39 -55q0 -87 -25 -193q-10 -43 -51 -43q-3 0 -71 9
q-67 8 -121 8q-95 0 -132 -51q-38 -52 -38 -193zM713 1339q0 -157 -150 -157q-147 0 -147 155q0 158 147 158q150 0 150 -156z" />
    <glyph glyph-name="Ccaron" unicode="&#x10c;" horiz-adv-x="1204" 
d="M479 729q0 -137 20 -228q20 -90 60 -136q41 -47 91 -65q47 -17 128 -17q116 0 223 26q44 10 68 10q29 0 41 -28q43 -113 43 -193q0 -43 -49 -61q-178 -64 -445 -64q-140 0 -243 35q-102 34 -180 117q-78 82 -118 225q-40 142 -40 350q0 415 145 594q146 181 498 181
q232 0 350 -31q53 -15 53 -64q0 -92 -41 -206q-12 -33 -49 -33l-71 10q-106 12 -179 12q-80 0 -131 -15q-49 -14 -94 -61q-43 -44 -61 -132q-19 -92 -19 -226zM948 1925q59 0 109 -8q59 -10 59 -49q0 -22 -24 -51l-191 -199q-63 -68 -127 -68h-127q-60 0 -110 56l-197 215
q-23 23 -23 49q0 39 58 47q53 8 119 8q57 0 108 -51l115 -111l125 117q45 45 106 45z" />
    <glyph glyph-name="ccaron" unicode="&#x10d;" horiz-adv-x="960" 
d="M459 514q0 -149 40 -195q41 -47 128 -47q67 0 139 9q61 8 70 8q38 0 49 -41q26 -118 26 -170q0 -45 -37 -60q-105 -45 -299 -45q-257 0 -379 117t-122 412q0 294 122 428q121 133 414 133q150 0 248 -31q39 -15 39 -55q0 -87 -25 -193q-10 -43 -51 -43q-3 0 -71 9
q-67 8 -121 8q-95 0 -132 -51q-38 -52 -38 -193zM754 1577q50 0 94 -6q63 -7 63 -49q0 -24 -22 -52l-160 -215q-45 -61 -111 -61h-116q-43 0 -61 11q-20 13 -44 42l-166 223q-20 26 -20 52q0 43 61 49q56 6 99 6q55 0 94 -47l96 -113l98 115q39 45 95 45z" />
    <glyph glyph-name="Dcaron" unicode="&#x10e;" horiz-adv-x="1445" 
d="M580 0h-197q-240 0 -240 240v958q0 121 65 184q66 64 179 64h225q270 0 400 -39q184 -52 270 -218t86 -452q0 -291 -78 -451q-78 -161 -280 -237q-134 -49 -430 -49zM537 401q0 -41 15 -57t58 -16h92q80 0 136 28q73 40 99 122q26 83 26 257q0 173 -27 250t-102 109
q-55 26 -150 26h-86q-61 0 -61 -71v-648zM952 1925q59 0 109 -8q59 -10 59 -49q0 -22 -24 -51l-191 -199q-63 -68 -127 -68h-127q-60 0 -110 56l-197 215q-22 22 -22 49q0 40 57 47q53 8 119 8q57 0 108 -51l115 -111l125 117q45 45 106 45z" />
    <glyph glyph-name="dcaron" unicode="&#x10f;" horiz-adv-x="1224" 
d="M1110 176q0 -45 -10 -74q-15 -43 -80 -67q-59 -25 -201 -44q-137 -18 -252 -18q-269 0 -381 108t-112 417q0 169 31 278q31 110 100 174t161 88q97 25 230 25q93 0 133 -19v410q0 78 82 78h231q36 0 52 -15t16 -63v-1278zM729 348v342q0 48 -22 58q-17 10 -70 10
q-109 0 -144 -53q-34 -52 -34 -218q0 -125 30 -171t109 -46q67 0 107 19q14 6 20 22q4 11 4 37zM1358 1532h84q82 0 82 -92q0 -217 -125 -363q-40 -49 -82 -49q-33 0 -74 21t-41 57q0 17 19 63q39 105 39 273q0 47 22 68q24 22 76 22z" />
    <glyph glyph-name="Dcroat" unicode="&#x110;" horiz-adv-x="1445" 
d="M580 0h-197q-240 0 -240 240v362h-59q-70 0 -70 66v153q0 62 70 62h59v315q0 121 65 184q66 64 179 64h225q270 0 400 -39q184 -52 270 -218t86 -452q0 -291 -78 -451q-78 -161 -280 -237q-134 -49 -430 -49zM537 401q0 -41 15 -57t58 -16h92q80 0 136 28q73 40 99 122
q26 83 26 257q0 173 -27 250t-102 109q-55 26 -150 26h-86q-61 0 -61 -71v-166h165q70 0 70 -64v-157q0 -36 -16 -48t-51 -12h-168v-201z" />
    <glyph glyph-name="dcroat" unicode="&#x111;" horiz-adv-x="1224" 
d="M1110 176q0 -45 -10 -74q-15 -43 -80 -67q-59 -25 -201 -44q-137 -18 -252 -18q-269 0 -381 108t-112 417q0 169 31 278q31 110 100 174t161 88q97 25 230 25q93 0 133 -19v111h-156q-69 0 -69 66v118q0 68 71 68h154v47q0 78 82 78h231q36 0 52 -15t16 -63v-47h25
q69 0 69 -66v-127q0 -35 -16 -47t-51 -12h-27v-979zM729 348v342q0 48 -22 58q-17 10 -70 10q-109 0 -144 -53q-34 -52 -34 -218q0 -125 30 -171t109 -46q67 0 107 19q14 6 20 22q4 11 4 37z" />
    <glyph glyph-name="Emacron" unicode="&#x112;" horiz-adv-x="1171" 
d="M1059 0h-672q-244 0 -244 240v958q0 121 65 184q66 64 179 64h633q36 0 53 -15t17 -53v-202q0 -58 -70 -58h-422q-61 0 -61 -71v-138h440q37 0 53 -15q17 -15 17 -52v-203q0 -57 -70 -57h-440v-181q0 -41 16 -57t59 -16h447q35 0 53 -16q16 -15 16 -52v-203
q0 -57 -69 -57zM905 1575h-534q-70 0 -70 65v111q0 61 70 61h532q70 0 70 -63v-115q0 -35 -17 -47q-16 -12 -51 -12z" />
    <glyph glyph-name="emacron" unicode="&#x113;" horiz-adv-x="1099" 
d="M453 406q1 -82 49 -108q47 -26 141 -26q131 0 221 19q4 0 19 3q23 4 27 5q18 2 24 2q43 0 59 -43q29 -79 29 -166q0 -43 -35 -61q-107 -58 -391 -58q-291 0 -411 128q-119 126 -119 411q0 294 125 422q126 129 395 129q97 0 163 -14q72 -15 118 -37q48 -22 81 -66t51 -84
q19 -42 29 -108q10 -67 12 -122q2 -72 2 -140q0 -56 -28 -74q-18 -12 -51 -12h-510zM459 651h229q2 6 2 29q0 67 -24 97t-91 30q-60 0 -87 -36q-28 -37 -29 -120zM831 1206h-505q-70 0 -70 66v110q0 62 70 62h503q70 0 70 -64v-114q0 -35 -16 -47q-18 -13 -52 -13z" />
    <glyph glyph-name="Ebreve" unicode="&#x114;" horiz-adv-x="1171" 
d="M1059 0h-672q-244 0 -244 240v958q0 121 65 184q66 64 179 64h633q36 0 53 -15t17 -53v-202q0 -58 -70 -58h-422q-61 0 -61 -71v-138h440q37 0 53 -15q17 -15 17 -52v-203q0 -57 -70 -57h-440v-181q0 -41 16 -57t59 -16h447q35 0 53 -16q16 -15 16 -52v-203
q0 -57 -69 -57zM651 1538q-278 0 -325 193q-13 54 -13 88q0 58 64 69q20 4 78 4q55 0 67 -55q22 -88 137 -88q71 0 99 21t45 65q12 33 27 45t49 12q55 0 75 -4q52 -8 52 -61q0 -51 -15 -90q-38 -101 -109 -150t-231 -49z" />
    <glyph glyph-name="ebreve" unicode="&#x115;" horiz-adv-x="1099" 
d="M453 406q1 -82 49 -108q47 -26 141 -26q131 0 221 19q4 0 19 3q23 4 27 5q18 2 24 2q43 0 59 -43q29 -79 29 -166q0 -43 -35 -61q-107 -58 -391 -58q-291 0 -411 128q-119 126 -119 411q0 294 125 422q126 129 395 129q97 0 163 -14q72 -15 118 -37q48 -22 81 -66t51 -84
q19 -42 29 -108q10 -67 12 -122q2 -72 2 -140q0 -56 -28 -74q-18 -12 -51 -12h-510zM459 651h229q2 6 2 29q0 67 -24 97t-91 30q-60 0 -87 -36q-28 -37 -29 -120zM797 1544q40 0 73 -6q50 -8 50 -59q0 -57 -15 -101q-34 -103 -105 -156t-220 -53q-261 0 -314 203
q-10 39 -10 94q0 62 61 72q30 6 74 6q31 0 44 -12q15 -13 22 -47q23 -107 131 -107q44 0 75 17q27 15 39 35t23 51q12 36 27 50q14 13 45 13z" />
    <glyph glyph-name="Edotaccent" unicode="&#x116;" horiz-adv-x="1171" 
d="M1059 0h-672q-244 0 -244 240v958q0 121 65 184q66 64 179 64h633q36 0 53 -15t17 -53v-202q0 -58 -70 -58h-422q-61 0 -61 -71v-138h440q37 0 53 -15q17 -15 17 -52v-203q0 -57 -70 -57h-440v-181q0 -41 16 -57t59 -16h447q35 0 53 -16q16 -15 16 -52v-203
q0 -57 -69 -57zM799 1708q0 -158 -150 -158q-147 0 -147 156q0 158 147 158q150 0 150 -156z" />
    <glyph glyph-name="edotaccent" unicode="&#x117;" horiz-adv-x="1099" 
d="M453 406q1 -82 49 -108q47 -26 141 -26q131 0 221 19q4 0 19 3q23 4 27 5q18 2 24 2q43 0 59 -43q29 -79 29 -166q0 -43 -35 -61q-107 -58 -391 -58q-291 0 -411 128q-119 126 -119 411q0 294 125 422q126 129 395 129q97 0 163 -14q72 -15 118 -37q48 -22 81 -66t51 -84
q19 -42 29 -108q10 -67 12 -122q2 -72 2 -140q0 -56 -28 -74q-18 -12 -51 -12h-510zM459 651h229q2 6 2 29q0 67 -24 97t-91 30q-60 0 -87 -36q-28 -37 -29 -120zM735 1339q0 -157 -149 -157q-148 0 -148 155q0 158 148 158q149 0 149 -156z" />
    <glyph glyph-name="Eogonek" unicode="&#x118;" horiz-adv-x="1171" 
d="M1059 0h-29q-45 -35 -109 -86q-31 -25 -61 -73q-31 -50 -31 -101q0 -90 80 -90q7 0 55 2q10 0 19.5 0.5t14.5 1t6 0.5q24 0 35 -11q12 -12 18 -44q8 -43 8 -78q0 -45 -64 -62q-53 -12 -141 -12q-147 0 -210 60q-62 59 -62 182q0 121 60 190q61 70 167 121h-428
q-244 0 -244 240v958q0 121 65 184q66 64 179 64h633q36 0 53 -15t17 -53v-202q0 -58 -70 -58h-422q-61 0 -61 -71v-138h440q37 0 53 -15q17 -15 17 -52v-203q0 -57 -70 -57h-440v-181q0 -41 16 -57t59 -16h447q35 0 53 -16q16 -15 16 -52v-203q0 -57 -69 -57z" />
    <glyph glyph-name="eogonek" unicode="&#x119;" horiz-adv-x="1099" 
d="M453 406q1 -82 49 -108q47 -26 141 -26q131 0 221 19q4 0 19 3q23 4 27 5q18 2 24 2q43 0 59 -43q29 -79 29 -166q0 -43 -35 -61q-47 -26 -137 -41q-69 -51 -99 -78q-31 -28 -57 -70t-26 -92q0 -84 77 -84q30 0 52 1t37 1q46 0 57 -51q6 -30 6 -76q0 -47 -68 -59
q-49 -10 -131 -10q-143 0 -204 58q-62 59 -62 173q0 175 168 270h-4q-291 0 -411 128q-119 126 -119 411q0 294 125 422q126 129 395 129q97 0 163 -14q72 -15 118 -37q48 -22 81 -66t51 -84q19 -42 29 -108q10 -67 12 -122q2 -72 2 -140q0 -56 -28 -74q-18 -12 -51 -12
h-510zM459 651h229q2 6 2 29q0 67 -24 97t-91 30q-60 0 -87 -36q-28 -37 -29 -120z" />
    <glyph glyph-name="Ecaron" unicode="&#x11a;" horiz-adv-x="1171" 
d="M1059 0h-672q-244 0 -244 240v958q0 121 65 184q66 64 179 64h633q36 0 53 -15t17 -53v-202q0 -58 -70 -58h-422q-61 0 -61 -71v-138h440q37 0 53 -15q17 -15 17 -52v-203q0 -57 -70 -57h-440v-181q0 -41 16 -57t59 -16h447q35 0 53 -16q16 -15 16 -52v-203
q0 -57 -69 -57zM877 1925q58 0 108 -8q59 -10 59 -49q0 -22 -24 -51l-191 -199q-63 -68 -127 -68h-127q-60 0 -110 56l-197 215q-22 22 -22 49q0 40 57 47q53 8 119 8q57 0 108 -51l115 -111l125 117q45 45 107 45z" />
    <glyph glyph-name="ecaron" unicode="&#x11b;" horiz-adv-x="1099" 
d="M453 406q1 -82 49 -108q47 -26 141 -26q131 0 221 19q4 0 19 3q23 4 27 5q18 2 24 2q43 0 59 -43q29 -79 29 -166q0 -43 -35 -61q-107 -58 -391 -58q-291 0 -411 128q-119 126 -119 411q0 294 125 422q126 129 395 129q97 0 163 -14q72 -15 118 -37q48 -22 81 -66t51 -84
q19 -42 29 -108q10 -67 12 -122q2 -72 2 -140q0 -56 -28 -74q-18 -12 -51 -12h-510zM459 651h229q2 6 2 29q0 67 -24 97t-91 30q-60 0 -87 -36q-28 -37 -29 -120zM764 1577q50 0 94 -6q64 -8 64 -49q0 -23 -23 -52l-160 -215q-45 -61 -110 -61h-117q-42 0 -60 11
q-20 13 -44 42l-166 223q-21 27 -21 52q0 43 62 49q55 6 98 6q55 0 94 -47l96 -113l99 115q39 45 94 45z" />
    <glyph glyph-name="Gcircumflex" unicode="&#x11c;" horiz-adv-x="1388" 
d="M1280 150q0 -53 -23 -76q-20 -20 -49 -31q-193 -70 -524 -70q-312 0 -459 161q-147 160 -147 566q0 410 155 592q156 183 512 183q248 0 400 -41q53 -15 53 -64q0 -96 -39 -203q-15 -34 -49 -34q-9 0 -70 8q-125 22 -235 22q-83 0 -135 -15q-55 -16 -101 -59
q-47 -44 -68 -134q-22 -93 -22 -226q0 -184 37 -283q38 -101 96 -132q59 -31 164 -31q104 0 152 16q28 7 28 43v137h-170q-45 0 -45 49v226q0 53 47 53h437q55 0 55 -55v-602zM498 1546q-59 0 -109 8q-59 10 -59 50q0 22 24 51l191 198q63 68 127 68h127q61 0 110 -55
l197 -215q22 -22 22 -49q0 -40 -57 -48q-53 -8 -119 -8q-57 0 -108 51l-115 111l-125 -117q-45 -45 -106 -45z" />
    <glyph glyph-name="gcircumflex" unicode="&#x11d;" horiz-adv-x="1216" 
d="M713 0q-45 -27 -146 -27q-130 0 -217 23q-86 23 -151 79q-66 57 -96 161q-29 102 -29 262q0 325 120 445t388 120q299 0 450 -53q70 -23 70 -119v-744q0 -203 -19 -290q-39 -178 -227 -257t-561 -79q-82 0 -92 71q-13 89 -13 142q0 80 80 86q206 17 296 34q82 15 112 42
q35 33 35 94v10zM721 358v332q0 47 -23 58q-17 10 -69 10q-110 0 -140 -48t-30 -214q0 -129 26 -171q27 -44 105 -44q68 0 106 18q15 6 21 23q4 11 4 36zM451 1186q-51 0 -95 6q-63 8 -63 49q0 23 22 51l160 215q45 62 111 62h116q42 0 61 -10q21 -11 44 -43l166 -224
q20 -26 20 -51q0 -43 -61 -49q-56 -6 -98 -6q-56 0 -95 47l-96 113l-98 -115q-39 -45 -94 -45z" />
    <glyph glyph-name="Gbreve" unicode="&#x11e;" horiz-adv-x="1388" 
d="M1280 150q0 -53 -23 -76q-20 -20 -49 -31q-193 -70 -524 -70q-312 0 -459 161q-147 160 -147 566q0 410 155 592q156 183 512 183q248 0 400 -41q53 -15 53 -64q0 -96 -39 -203q-15 -34 -49 -34q-9 0 -70 8q-125 22 -235 22q-83 0 -135 -15q-55 -16 -101 -59
q-47 -44 -68 -134q-22 -93 -22 -226q0 -184 37 -283q38 -101 96 -132q59 -31 164 -31q104 0 152 16q28 7 28 43v137h-170q-45 0 -45 49v226q0 53 47 53h437q55 0 55 -55v-602zM723 1538q-276 0 -326 193q-12 49 -12 88q0 58 64 69q20 4 77 4q56 0 68 -55q22 -88 137 -88
q69 0 98 21q28 21 45 65q12 32 28 45q15 12 48 12q56 0 76 -4q51 -8 51 -61q0 -54 -14 -90q-37 -100 -110 -150q-71 -49 -230 -49z" />
    <glyph glyph-name="gbreve" unicode="&#x11f;" horiz-adv-x="1216" 
d="M713 0q-45 -27 -146 -27q-130 0 -217 23q-86 23 -151 79q-66 57 -96 161q-29 102 -29 262q0 325 120 445t388 120q299 0 450 -53q70 -23 70 -119v-744q0 -203 -19 -290q-39 -178 -227 -257t-561 -79q-82 0 -92 71q-13 89 -13 142q0 80 80 86q206 17 296 34q82 15 112 42
q35 33 35 94v10zM721 358v332q0 47 -23 58q-17 10 -69 10q-110 0 -140 -48t-30 -214q0 -129 26 -171q27 -44 105 -44q68 0 106 18q15 6 21 23q4 11 4 36zM821 1544q39 0 74 -6q49 -7 49 -59q0 -60 -14 -101q-34 -102 -106 -156q-71 -53 -220 -53q-260 0 -313 203
q-10 39 -10 94q0 62 61 72q30 6 74 6q30 0 44 -12q13 -12 21 -47q23 -107 131 -107q44 0 75 17q29 16 40 35q12 20 23 51q12 37 26 50t45 13z" />
    <glyph glyph-name="Gdotaccent" unicode="&#x120;" horiz-adv-x="1388" 
d="M1280 150q0 -53 -23 -76q-20 -20 -49 -31q-193 -70 -524 -70q-312 0 -459 161q-147 160 -147 566q0 410 155 592q156 183 512 183q248 0 400 -41q53 -15 53 -64q0 -96 -39 -203q-15 -34 -49 -34q-9 0 -70 8q-125 22 -235 22q-83 0 -135 -15q-55 -16 -101 -59
q-47 -44 -68 -134q-22 -93 -22 -226q0 -184 37 -283q38 -101 96 -132q59 -31 164 -31q104 0 152 16q28 7 28 43v137h-170q-45 0 -45 49v226q0 53 47 53h437q55 0 55 -55v-602zM883 1708q0 -158 -150 -158q-147 0 -147 156q0 158 147 158q150 0 150 -156z" />
    <glyph glyph-name="gdotaccent" unicode="&#x121;" horiz-adv-x="1216" 
d="M713 0q-45 -27 -146 -27q-130 0 -217 23q-86 23 -151 79q-66 57 -96 161q-29 102 -29 262q0 325 120 445t388 120q299 0 450 -53q70 -23 70 -119v-744q0 -203 -19 -290q-39 -178 -227 -257t-561 -79q-82 0 -92 71q-13 89 -13 142q0 80 80 86q206 17 296 34q82 15 112 42
q35 33 35 94v10zM721 358v332q0 47 -23 58q-17 10 -69 10q-110 0 -140 -48t-30 -214q0 -129 26 -171q27 -44 105 -44q68 0 106 18q15 6 21 23q4 11 4 36zM780 1339q0 -157 -149 -157q-148 0 -148 155q0 158 148 158q149 0 149 -156z" />
    <glyph glyph-name="Gcommaaccent" unicode="&#x122;" horiz-adv-x="1388" 
d="M1280 150q0 -53 -23 -76q-20 -20 -49 -31q-193 -70 -524 -70q-312 0 -459 161q-147 160 -147 566q0 410 155 592q156 183 512 183q248 0 400 -41q53 -15 53 -64q0 -96 -39 -203q-15 -34 -49 -34q-9 0 -70 8q-125 22 -235 22q-83 0 -135 -15q-55 -16 -101 -59
q-47 -44 -68 -134q-22 -93 -22 -226q0 -184 37 -283q38 -101 96 -132q59 -31 164 -31q104 0 152 16q28 7 28 43v137h-170q-45 0 -45 49v226q0 53 47 53h437q55 0 55 -55v-602zM684 -92h84q82 0 82 -92q0 -217 -125 -363q-40 -49 -82 -49q-33 0 -74 21t-41 57q0 17 19 63
q39 105 39 273q0 47 22 68q24 22 76 22z" />
    <glyph glyph-name="gcommaaccent" unicode="&#x123;" horiz-adv-x="1216" 
d="M655 1178h-94q-42 0 -60 19t-18 65q0 232 125 372q40 49 82 49q32 0 72 -22q41 -23 41 -53q0 -22 -19 -68q-36 -95 -36 -264q0 -98 -93 -98zM713 0q-45 -27 -146 -27q-130 0 -217 23q-86 23 -151 79q-66 57 -96 161q-29 102 -29 262q0 325 120 445t388 120q299 0 450 -53
q70 -23 70 -119v-744q0 -203 -19 -290q-39 -178 -227 -257t-561 -79q-82 0 -92 71q-13 89 -13 142q0 80 80 86q206 17 296 34q82 15 112 42q35 33 35 94v10zM721 358v332q0 47 -23 58q-17 10 -69 10q-110 0 -140 -48t-30 -214q0 -129 26 -171q27 -44 105 -44q68 0 106 18
q15 6 21 23q4 11 4 36z" />
    <glyph glyph-name="Hcircumflex" unicode="&#x124;" horiz-adv-x="1495" 
d="M537 74q0 -36 -21 -55q-20 -19 -51 -19h-254q-68 0 -68 74v1298q0 74 70 74h258q66 0 66 -72v-465h421v463q0 74 70 74h258q66 0 66 -72v-1300q0 -36 -21 -55q-20 -19 -51 -19h-254q-68 0 -68 74v508h-421v-508zM518 1546q-58 0 -108 8q-60 10 -60 50q0 21 25 51l190 198
q63 68 127 68h127q62 0 111 -55l196 -215q23 -23 23 -49q0 -40 -57 -48q-53 -8 -119 -8q-58 0 -109 51l-114 111l-125 -117q-45 -45 -107 -45z" />
    <glyph glyph-name="hcircumflex" unicode="&#x125;" horiz-adv-x="1234" 
d="M496 70q0 -33 -19 -52q-18 -18 -47 -18h-254q-61 0 -61 70v1376q0 86 78 86h227q42 0 59 -22t17 -66v-445q42 25 135 44q97 20 160 20q257 0 307 -131q22 -59 22 -201v-661q0 -70 -61 -70h-258q-62 0 -62 70v573q0 43 -6 66q-16 49 -92 49q-39 0 -82 -8q-28 -4 -49 -27
q-14 -14 -14 -66v-587zM123 1608q-59 0 -109 8q-59 10 -59 49q0 21 25 51l190 199q63 67 127 67h127q62 0 111 -55l196 -215q23 -23 23 -49q0 -39 -58 -47q-53 -8 -118 -8q-58 0 -109 51l-115 110l-125 -116q-45 -45 -106 -45z" />
    <glyph glyph-name="Hbar" unicode="&#x126;" horiz-adv-x="1495" 
d="M537 74q0 -36 -21 -55q-20 -19 -51 -19h-254q-68 0 -68 74v921h-49q-69 0 -69 66v151q0 62 69 62h49v98q0 74 70 74h258q66 0 66 -72v-100h421v98q0 74 70 74h258q66 0 66 -72v-100h26q70 0 70 -64v-155q0 -35 -16 -47q-18 -13 -52 -13h-28v-921q0 -36 -21 -55
q-20 -19 -51 -19h-254q-68 0 -68 74v508h-421v-508zM537 909h421v86h-421v-86z" />
    <glyph glyph-name="hbar" unicode="&#x127;" horiz-adv-x="1234" 
d="M496 70q0 -33 -19 -52q-18 -18 -47 -18h-254q-61 0 -61 70v1085h-27q-70 0 -70 66v118q0 68 72 68h25v39q0 86 78 86h227q42 0 59 -22t17 -66v-37h153q70 0 70 -66v-127q0 -35 -17 -47q-16 -12 -51 -12h-155v-156q42 25 135 44q97 20 160 20q257 0 307 -131
q22 -59 22 -201v-661q0 -70 -61 -70h-258q-62 0 -62 70v573q0 43 -6 66q-16 49 -92 49q-39 0 -82 -8q-28 -4 -49 -27q-14 -14 -14 -66v-587z" />
    <glyph glyph-name="Itilde" unicode="&#x128;" horiz-adv-x="679" 
d="M537 74q0 -36 -21 -55q-20 -19 -51 -19h-254q-68 0 -68 74v1298q0 74 70 74h258q66 0 66 -72v-1300zM84 1534q-38 0 -76 6q-49 10 -49 57q0 25 12 58q67 213 219 213q65 0 156 -47q67 -35 107 -35q53 0 77 45q27 47 74 47q29 0 62 -4q57 -6 57 -49q0 -35 -18 -86
q-30 -85 -85 -137t-124 -52q-67 0 -177 54q-56 28 -92 28q-44 0 -67 -41q-17 -32 -34 -45q-15 -12 -42 -12z" />
    <glyph glyph-name="itilde" unicode="&#x129;" horiz-adv-x="610" 
d="M59 1178q-47 0 -67 4q-53 11 -53 55q0 18 14 59q46 111 93 162q48 53 116 53q44 0 149 -49q67 -32 103 -32q42 0 65 45q23 47 76 47q23 0 63 -4q28 -4 41 -14t13 -36q0 -28 -27 -100q-61 -174 -190 -174q-60 0 -168 53q-63 29 -82 29q-42 0 -64 -39q-34 -59 -82 -59z
M500 70q0 -70 -66 -70h-254q-61 0 -61 70v895q0 69 63 69h258q35 0 47 -16q13 -18 13 -51v-897z" />
    <glyph glyph-name="Imacron" unicode="&#x12a;" horiz-adv-x="679" 
d="M537 74q0 -36 -21 -55q-20 -19 -51 -19h-254q-68 0 -68 74v1298q0 74 70 74h258q66 0 66 -72v-1300zM608 1575h-534q-70 0 -70 65v111q0 61 70 61h532q70 0 70 -63v-115q0 -35 -17 -47t-51 -12z" />
    <glyph glyph-name="imacron" unicode="&#x12b;" horiz-adv-x="610" 
d="M500 70q0 -70 -66 -70h-254q-61 0 -61 70v895q0 69 63 69h258q35 0 47 -16q13 -18 13 -51v-897zM563 1206h-506q-69 0 -69 66v110q0 62 69 62h504q70 0 70 -64v-114q0 -35 -17 -47q-18 -13 -51 -13z" />
    <glyph glyph-name="Ibreve" unicode="&#x12c;" horiz-adv-x="679" 
d="M537 74q0 -36 -21 -55q-20 -19 -51 -19h-254q-68 0 -68 74v1298q0 74 70 74h258q66 0 66 -72v-1300zM334 1538q-276 0 -326 193q-12 49 -12 88q0 59 63 69q20 4 78 4q56 0 68 -55q22 -88 137 -88q70 0 98 21t45 65q12 32 28 45q15 12 48 12q56 0 76 -4q51 -8 51 -61
q0 -54 -14 -90q-37 -100 -110 -150q-71 -49 -230 -49z" />
    <glyph glyph-name="ibreve" unicode="&#x12d;" horiz-adv-x="610" 
d="M500 70q0 -70 -66 -70h-254q-61 0 -61 70v895q0 69 63 69h258q35 0 47 -16q13 -18 13 -51v-897zM518 1544q40 0 74 -6q49 -7 49 -59q0 -60 -14 -101q-34 -102 -106 -156q-71 -53 -220 -53q-260 0 -313 203q-11 42 -11 94q0 61 62 72q30 6 74 6q31 0 44 -12t21 -47
q23 -107 131 -107q44 0 75 17q29 16 40 35q9 16 22 51q12 36 27 50q14 13 45 13z" />
    <glyph glyph-name="Iogonek" unicode="&#x12e;" horiz-adv-x="679" 
d="M541 74q0 -36 -21 -55q-20 -19 -51 -19h-29q-45 -35 -109 -86q-31 -25 -61 -73t-30 -101q0 -90 79 -90q7 0 55 2q10 0 19.5 0.5t14.5 1t6 0.5q25 0 36 -11t17 -44q8 -43 8 -78q0 -45 -63 -62q-52 -12 -142 -12q-147 0 -210 60q-62 59 -62 182q0 121 60 190q61 70 167 121
h-10q-68 0 -68 74v1298q0 74 70 74h258q66 0 66 -72v-1300z" />
    <glyph glyph-name="iogonek" unicode="&#x12f;" horiz-adv-x="610" 
d="M496 70q0 -70 -66 -70h-14q-78 -60 -108 -84q-26 -21 -59 -70q-30 -45 -30 -96q0 -84 78 -84q29 0 51 1t37 1q47 0 57 -51q7 -35 7 -76q0 -47 -68 -59q-49 -10 -131 -10q-144 0 -205 58t-61 173q0 116 58 181q59 66 161 116h-27q-61 0 -61 70v895q0 69 63 69h258
q35 0 47 -16q13 -18 13 -51v-897zM500 1339q0 -190 -195 -190q-190 0 -190 188q0 193 190 193q96 0 145 -43q50 -44 50 -148z" />
    <glyph glyph-name="Idotaccent" unicode="&#x130;" horiz-adv-x="679" 
d="M537 74q0 -36 -21 -55q-20 -19 -51 -19h-254q-68 0 -68 74v1298q0 74 70 74h258q66 0 66 -72v-1300zM492 1708q0 -158 -150 -158q-147 0 -147 156q0 158 147 158q150 0 150 -156z" />
    <glyph glyph-name="dotlessi" unicode="&#x131;" horiz-adv-x="610" 
d="M500 70q0 -70 -66 -70h-254q-61 0 -61 70v895q0 69 63 69h258q35 0 47 -16q13 -18 13 -51v-897z" />
    <glyph glyph-name="IJ" unicode="&#x132;" horiz-adv-x="1413" 
d="M537 74q0 -36 -21 -55q-20 -19 -51 -19h-254q-68 0 -68 74v1298q0 74 70 74h258q66 0 66 -72v-1300zM1274 209q0 -241 -86 -344q-55 -66 -172 -115q-116 -49 -277 -49q-49 0 -67 18q-19 19 -25 52q-12 68 -12 143q0 74 63 84q101 15 144 49q39 33 39 146v1179q0 74 69 74
h258q66 0 66 -72v-1165z" />
    <glyph glyph-name="ij" unicode="&#x133;" horiz-adv-x="1236" 
d="M496 70q0 -70 -66 -70h-254q-61 0 -61 70v895q0 69 63 69h258q35 0 47 -16q13 -18 13 -51v-897zM500 1339q0 -190 -195 -190q-190 0 -190 188q0 193 190 193q96 0 145 -43q50 -44 50 -148zM1118 967v-949q0 -244 -82 -344q-51 -65 -166 -109q-114 -44 -274 -44
q-50 0 -68 18t-24 51q-12 68 -12 144q0 74 63 84q100 15 143 49q39 33 39 145v953q0 69 64 69h258q35 0 47 -16t12 -51zM1122 1339q0 -190 -194 -190q-191 0 -191 188q0 193 191 193q95 0 144 -43q50 -44 50 -148z" />
    <glyph glyph-name="Jcircumflex" unicode="&#x134;" horiz-adv-x="733" 
d="M594 209q0 -241 -86 -344q-55 -66 -172 -115q-116 -49 -277 -49q-49 0 -67 18q-19 19 -25 52q-12 68 -12 143q0 74 63 84q101 15 144 49q39 33 39 146v1179q0 74 69 74h258q66 0 66 -72v-1165zM162 1546q-59 0 -109 8q-59 10 -59 50q0 22 24 51l191 198q63 68 127 68h127
q61 0 110 -55l197 -215q23 -23 23 -49q0 -40 -58 -48q-53 -8 -119 -8q-57 0 -108 51l-115 111l-125 -117q-45 -45 -106 -45z" />
    <glyph glyph-name="jcircumflex" unicode="&#x135;" horiz-adv-x="614" 
d="M500 967v-1018q0 -244 -74 -330q-57 -66 -154 -96q-99 -31 -301 -31q-92 0 -92 76q0 120 4 153q6 68 72 74q105 7 127 23q37 24 37 121v1026q0 69 63 69h258q35 0 47 -16q13 -18 13 -51zM119 1188h-96q-66 0 -66 49q0 22 23 51l157 213q51 68 99 68h149q49 0 100 -68
l156 -213q21 -27 21 -51q0 -49 -64 -49h-100q-56 0 -95 47l-94 111l-96 -113q-39 -45 -94 -45z" />
    <glyph glyph-name="Kcommaaccent" unicode="&#x136;" horiz-adv-x="1372" 
d="M537 74q0 -36 -21 -55q-20 -19 -51 -19h-254q-68 0 -68 74v1298q0 74 70 74h258q66 0 66 -72v-467h90q72 0 96 47l215 437q28 59 92 59q160 0 250 -8q29 -1 43 -15q12 -12 12 -38q0 -27 -20 -66q-186 -352 -307 -559q15 -28 46 -86q19 -36 117 -215q31 -57 93 -168.5
t90 -161.5q28 -49 28 -78q0 -49 -55 -53q-85 -6 -295 -6q-55 0 -82 53l-254 496q-18 37 -84 37h-75v-508zM705 -92h83q82 0 82 -92q0 -217 -125 -363q-40 -49 -81 -49q-34 0 -74 21q-41 21 -41 57q0 20 18 63q39 105 39 273q0 47 23 68q24 22 76 22z" />
    <glyph glyph-name="kcommaaccent" unicode="&#x137;" horiz-adv-x="1204" 
d="M496 70q0 -70 -66 -70h-254q-61 0 -61 70v1392q0 70 63 70h258q35 0 47 -16q13 -18 13 -52v-741h55q70 0 94 47l115 219q27 51 84 51q238 0 274 -14q27 -10 27 -43q0 -21 -21 -55q-163 -272 -206 -336l258 -469q24 -45 24 -72q0 -32 -31 -43q-41 -14 -297 -14
q-54 0 -81 49l-177 336q-18 37 -84 37h-34v-346zM606 -92h84q82 0 82 -92q0 -217 -125 -363q-40 -49 -82 -49q-33 0 -73 21q-41 21 -41 57q0 20 18 63q39 105 39 273q0 47 22 68q24 22 76 22z" />
    <glyph glyph-name="kgreenlandic" unicode="&#x138;" horiz-adv-x="1216" 
d="M496 70q0 -70 -66 -70h-254q-61 0 -61 70v895q0 69 63 69h258q35 0 47 -16q13 -18 13 -51v-265h55q71 0 94 48l115 239q27 51 84 51q238 0 274 -14q27 -10 27 -43q0 -21 -21 -55q-163 -272 -206 -336l258 -469q24 -45 24 -72q0 -32 -31 -43q-41 -14 -297 -14
q-54 0 -81 49l-177 315q-21 37 -84 37h-34v-325z" />
    <glyph glyph-name="Lacute" unicode="&#x139;" horiz-adv-x="1191" 
d="M1038 0h-655q-240 0 -240 229v1143q0 74 70 74h258q66 0 66 -72v-979q0 -67 71 -67h430q36 0 54 -16q16 -15 16 -52v-203q0 -57 -70 -57zM442 1579q-56 -33 -120 -33t-119 6q-49 6 -49 41q0 31 32 60l205 180q57 51 119 51q85 0 197 -8q67 -6 67 -47q0 -37 -43 -64z" />
    <glyph glyph-name="lacute" unicode="&#x13a;" horiz-adv-x="684" 
d="M496 463q0 -93 14 -131q21 -52 117 -68q55 -7 55 -69q0 -89 -8 -142q-7 -37 -29 -53q-20 -14 -63 -14q-179 0 -268 32q-91 33 -142 109q-57 84 -57 287v1048q0 70 63 70h258q35 0 47 -16q13 -18 13 -52v-1001zM401 1620q-55 -33 -120 -33q-63 0 -119 6q-49 6 -49 41
q0 31 32 60l205 180q57 51 119 51q85 0 197 -8q67 -6 67 -47q0 -37 -43 -64z" />
    <glyph glyph-name="Lcommaaccent" unicode="&#x13b;" horiz-adv-x="1191" 
d="M1038 0h-655q-240 0 -240 229v1143q0 74 70 74h258q66 0 66 -72v-979q0 -67 71 -67h430q36 0 54 -16q16 -15 16 -52v-203q0 -57 -70 -57zM602 -92h84q82 0 82 -92q0 -217 -125 -363q-40 -49 -82 -49q-33 0 -74 21t-41 57q0 17 19 63q39 105 39 273q0 47 22 68
q24 22 76 22z" />
    <glyph glyph-name="lcommaaccent" unicode="&#x13c;" horiz-adv-x="684" 
d="M496 463q0 -93 14 -131q21 -52 117 -68q55 -7 55 -69q0 -89 -8 -142q-7 -37 -29 -53q-20 -14 -63 -14q-179 0 -268 32q-91 33 -142 109q-57 84 -57 287v1048q0 70 63 70h258q35 0 47 -16q13 -18 13 -52v-1001zM328 -92h84q82 0 82 -92q0 -217 -125 -363q-40 -49 -82 -49
q-33 0 -74 21t-41 57q0 20 18 63q39 105 39 273q0 47 23 68q24 22 76 22z" />
    <glyph glyph-name="Lcaron" unicode="&#x13d;" horiz-adv-x="1191" 
d="M1038 0h-655q-240 0 -240 229v1143q0 74 70 74h258q66 0 66 -72v-979q0 -67 71 -67h430q36 0 54 -16q16 -15 16 -52v-203q0 -57 -70 -57zM836 1487h84q81 0 81 -92q0 -218 -124 -363q-40 -49 -82 -49q-33 0 -74 21t-41 57q0 19 18 63q39 105 39 273q0 47 23 68
q24 22 76 22z" />
    <glyph glyph-name="lcaron" unicode="&#x13e;" horiz-adv-x="684" 
d="M496 463q0 -93 14 -131q21 -52 117 -68q55 -7 55 -69q0 -89 -8 -142q-7 -37 -29 -53q-20 -14 -63 -14q-179 0 -268 32q-91 33 -142 109q-57 84 -57 287v1048q0 70 63 70h258q35 0 47 -16q13 -18 13 -52v-1001zM764 1532h84q82 0 82 -92q0 -217 -125 -363q-40 -49 -82 -49
q-33 0 -74 21t-41 57q0 17 19 63q39 105 39 273q0 47 22 68q24 22 76 22z" />
    <glyph glyph-name="Ldot" unicode="&#x13f;" horiz-adv-x="1191" 
d="M1038 0h-655q-240 0 -240 229v1143q0 74 70 74h258q66 0 66 -72v-979q0 -67 71 -67h430q36 0 54 -16q16 -15 16 -52v-203q0 -57 -70 -57zM1118 748q0 -205 -207 -205q-86 0 -142 46t-56 156q0 211 205 211q93 0 146 -46q54 -46 54 -162z" />
    <glyph glyph-name="ldot" unicode="&#x140;" horiz-adv-x="925" 
d="M963 748q0 -197 -195 -197q-184 0 -184 194q0 203 190 203q88 0 138 -44q51 -45 51 -156zM496 463q0 -93 14 -131q21 -52 117 -68q55 -7 55 -69q0 -89 -8 -142q-7 -37 -29 -53q-20 -14 -63 -14q-179 0 -268 32q-91 33 -142 109q-57 84 -57 287v1048q0 70 63 70h258
q35 0 47 -16q13 -18 13 -52v-1001z" />
    <glyph glyph-name="Lslash" unicode="&#x141;" horiz-adv-x="1191" 
d="M1038 0h-655q-240 0 -240 229v152q-11 -4 -30 -4q-22 1 -47 31q-93 143 -93 163q0 31 33 54l137 92v655q0 74 70 74h258q66 0 66 -72v-393l149 100q25 17 49 17q24 -2 43 -31q101 -142 101 -164q0 -31 -33 -53l-309 -209v-246q0 -67 71 -67h430q36 0 54 -16
q16 -15 16 -52v-203q0 -57 -70 -57z" />
    <glyph glyph-name="lslash" unicode="&#x142;" horiz-adv-x="684" 
d="M496 463q0 -93 14 -131q21 -52 117 -68q55 -7 55 -69q0 -89 -8 -142q-7 -37 -29 -53q-20 -14 -63 -14q-179 0 -268 32q-91 33 -142 109q-57 84 -57 287v86q-22 -11 -41 -11q-25 0 -43 29q-74 115 -74 146q0 26 39 53l119 71v674q0 70 63 70h258q35 0 47 -16
q13 -18 13 -52v-440q26 16 51 16q26 0 41 -28q76 -122 76 -150q0 -22 -39 -49l-129 -80v-270z" />
    <glyph glyph-name="Nacute" unicode="&#x143;" horiz-adv-x="1556" 
d="M524 74q0 -36 -20 -55t-51 -19h-242q-68 0 -68 74v1126q0 129 62 193q61 63 203 63h108q112 0 159 -43q49 -45 83 -137q229 -609 289 -799q-9 250 -9 875q0 42 21 68t57 26h227q70 0 70 -88v-1163q0 -213 -223 -213h-84q-121 0 -182 44t-105 164l-301 818q6 -162 6 -934z
M899 1579q-56 -33 -121 -33q-64 0 -119 6q-49 6 -49 41q0 30 33 60l205 180q57 51 119 51q84 0 196 -8q68 -6 68 -47q0 -37 -43 -64z" />
    <glyph glyph-name="nacute" unicode="&#x144;" horiz-adv-x="1234" 
d="M496 70q0 -33 -19 -52q-18 -18 -47 -18h-254q-61 0 -61 70v776q0 103 82 133q89 35 267 60q172 24 320 24q264 0 314 -131q22 -59 22 -201v-661q0 -70 -61 -70h-258q-62 0 -62 70v573q0 47 -6 70q-12 45 -92 45q-46 0 -90 -10q-28 -7 -41 -19q-14 -11 -14 -45v-614z
M725 1231q-43 -45 -111 -45q-60 0 -110 6q-53 6 -53 47q0 29 22 57l162 220q40 55 106 55q94 0 172 -6q66 -6 66 -45q0 -31 -35 -66z" />
    <glyph glyph-name="Ncommaaccent" unicode="&#x145;" horiz-adv-x="1556" 
d="M524 74q0 -36 -20 -55t-51 -19h-242q-68 0 -68 74v1126q0 129 62 193q61 63 203 63h108q112 0 159 -43q49 -45 83 -137q229 -609 289 -799q-9 250 -9 875q0 42 21 68t57 26h227q70 0 70 -88v-1163q0 -213 -223 -213h-84q-121 0 -182 44t-105 164l-301 818q6 -162 6 -934z
M717 -92h84q82 0 82 -92q0 -217 -125 -363q-40 -49 -82 -49q-34 0 -74 21q-41 21 -41 57q0 17 19 63q38 102 38 273q0 47 23 68q24 22 76 22z" />
    <glyph glyph-name="ncommaaccent" unicode="&#x146;" horiz-adv-x="1234" 
d="M496 70q0 -33 -19 -52q-18 -18 -47 -18h-254q-61 0 -61 70v776q0 103 82 133q89 35 267 60q172 24 320 24q264 0 314 -131q22 -59 22 -201v-661q0 -70 -61 -70h-258q-62 0 -62 70v573q0 47 -6 70q-12 45 -92 45q-46 0 -90 -10q-28 -7 -41 -19q-14 -11 -14 -45v-614z
M578 -92h84q81 0 81 -92q0 -217 -125 -363q-40 -49 -81 -49q-34 0 -74 21q-41 21 -41 57q0 20 18 63q39 105 39 273q0 47 23 68q24 22 76 22z" />
    <glyph glyph-name="Ncaron" unicode="&#x147;" horiz-adv-x="1556" 
d="M524 74q0 -36 -20 -55t-51 -19h-242q-68 0 -68 74v1126q0 129 62 193q61 63 203 63h108q112 0 159 -43q49 -45 83 -137q229 -609 289 -799q-9 250 -9 875q0 42 21 68t57 26h227q70 0 70 -88v-1163q0 -213 -223 -213h-84q-121 0 -182 44t-105 164l-301 818q6 -162 6 -934z
M1030 1925q59 0 109 -8q59 -10 59 -49q0 -22 -24 -51l-191 -199q-63 -68 -127 -68h-127q-61 0 -111 56l-196 215q-23 23 -23 49q0 39 58 47q53 8 118 8q58 0 109 -51l115 -111l125 117q45 45 106 45z" />
    <glyph glyph-name="ncaron" unicode="&#x148;" horiz-adv-x="1234" 
d="M496 70q0 -33 -19 -52q-18 -18 -47 -18h-254q-61 0 -61 70v776q0 103 82 133q89 35 267 60q172 24 320 24q264 0 314 -131q22 -59 22 -201v-661q0 -70 -61 -70h-258q-62 0 -62 70v573q0 47 -6 70q-12 45 -92 45q-46 0 -90 -10q-28 -7 -41 -19q-14 -11 -14 -45v-614z
M811 1577q51 0 94 -6q64 -8 64 -49q0 -23 -23 -52l-160 -215q-45 -61 -110 -61h-117q-42 0 -60 11q-20 13 -44 42l-166 223q-21 27 -21 52q0 43 62 49q55 6 98 6q55 0 94 -47l96 -113l99 115q39 45 94 45z" />
    <glyph glyph-name="napostrophe" unicode="&#x149;" horiz-adv-x="1234" 
d="M496 70q0 -33 -19 -52q-18 -18 -47 -18h-254q-61 0 -61 70v776q0 103 82 133q89 35 267 60q172 24 320 24q264 0 314 -131q22 -59 22 -201v-661q0 -70 -61 -70h-258q-62 0 -62 70v573q0 47 -6 70q-12 45 -92 45q-46 0 -90 -10q-28 -7 -41 -19q-14 -11 -14 -45v-614z
M193 1653h83q82 0 82 -92q0 -217 -125 -363q-40 -49 -81 -49q-35 0 -74 20q-41 21 -41 58q0 19 18 63q39 105 39 273q0 47 23 68q24 22 76 22z" />
    <glyph glyph-name="Eng" unicode="&#x14a;" horiz-adv-x="1556" 
d="M524 74q0 -36 -20 -55t-51 -19h-242q-68 0 -68 74v1126q0 129 62 193q61 63 203 63h108q103 0 153 -44q48 -43 99 -136q212 -398 279 -549q-2 134 -4.5 291.5t-3.5 230.5t-1 103q0 42 21 68t57 26h227q70 0 70 -88v-1301q0 -241 -86 -344q-54 -64 -172 -114t-276 -50
q-32 0 -54 11q-20 10 -27 23q-8 13 -12 36q-14 64 -14 145q0 73 64 84q103 16 145 48q39 33 39 102v14l-502 989q6 -163 6 -927z" />
    <glyph glyph-name="eng" unicode="&#x14b;" horiz-adv-x="1234" 
d="M496 70q0 -33 -19 -52q-18 -18 -47 -18h-254q-61 0 -61 70v776q0 103 82 133q89 35 267 60q172 24 320 24q264 0 314 -131q22 -59 22 -201v-713q0 -235 -90 -346q-51 -61 -169 -106t-259 -45q-33 0 -53 10t-28 24q-6 11 -11 35q-18 84 -18 144q0 74 63 84q105 17 145 49
q39 33 39 145v631q0 47 -6 70q-12 45 -92 45q-46 0 -90 -10q-28 -7 -41 -19q-14 -11 -14 -45v-614z" />
    <glyph glyph-name="Omacron" unicode="&#x14c;" horiz-adv-x="1460" 
d="M1382 733q0 -223 -39 -372t-123 -233q-86 -86 -204 -120q-120 -35 -295 -35q-173 0 -285 34q-115 35 -198 119q-85 87 -122 233q-38 150 -38 372q0 182 34 312q35 134 89 214q56 83 142 132t181 67q100 19 215 19t199 -12q87 -12 160 -41q77 -30 126 -82q50 -53 87 -134
q36 -78 54 -198q17 -110 17 -275zM977 727q0 183 -26 279q-25 94 -75 126q-49 31 -147 31q-86 0 -137 -33q-52 -34 -82 -130q-31 -101 -31 -271q0 -185 30 -284t80 -131q49 -31 138 -31q88 0 136 29q51 31 82 130q32 102 32 285zM1008 1575h-535q-70 0 -70 65v111
q0 61 70 61h533q69 0 69 -63v-115q0 -35 -16 -47q-17 -12 -51 -12z" />
    <glyph glyph-name="omacron" unicode="&#x14d;" horiz-adv-x="1189" 
d="M1116 526q0 -316 -124 -434q-125 -119 -404 -119q-270 0 -392 117t-122 430q0 161 38 273t112 168t165 79q92 23 213 23q134 0 225 -20q92 -20 158 -75q71 -58 100 -164q31 -112 31 -278zM733 516q0 151 -23 196q-24 46 -112 46q-80 0 -110 -49q-29 -48 -29 -189
q0 -148 27 -198t108 -50q82 0 111 49q28 47 28 195zM854 1206h-506q-69 0 -69 66v110q0 62 69 62h504q70 0 70 -64v-114q0 -35 -17 -47q-18 -13 -51 -13z" />
    <glyph glyph-name="Obreve" unicode="&#x14e;" horiz-adv-x="1460" 
d="M1382 733q0 -223 -39 -372t-123 -233q-86 -86 -204 -120q-120 -35 -295 -35q-173 0 -285 34q-115 35 -198 119q-85 87 -122 233q-38 150 -38 372q0 182 34 312q35 134 89 214q56 83 142 132t181 67q100 19 215 19t199 -12q87 -12 160 -41q77 -30 126 -82q50 -53 87 -134
q36 -78 54 -198q17 -110 17 -275zM977 727q0 183 -26 279q-25 94 -75 126q-49 31 -147 31q-86 0 -137 -33q-52 -34 -82 -130q-31 -101 -31 -271q0 -185 30 -284t80 -131q49 -31 138 -31q88 0 136 29q51 31 82 130q32 102 32 285zM727 1538q-276 0 -326 193q-12 49 -12 88
q0 58 64 69q20 4 77 4q56 0 68 -55q22 -88 137 -88q71 0 99 21t45 65q12 33 27 45t48 12q56 0 76 -4q51 -8 51 -61q0 -54 -14 -90q-37 -100 -110 -150q-71 -49 -230 -49z" />
    <glyph glyph-name="obreve" unicode="&#x14f;" horiz-adv-x="1189" 
d="M1116 526q0 -316 -124 -434q-125 -119 -404 -119q-270 0 -392 117t-122 430q0 161 38 273t112 168t165 79q92 23 213 23q134 0 225 -20q92 -20 158 -75q71 -58 100 -164q31 -112 31 -278zM733 516q0 151 -23 196q-24 46 -112 46q-80 0 -110 -49q-29 -48 -29 -189
q0 -148 27 -198t108 -50q82 0 111 49q28 47 28 195zM807 1544q41 0 74 -6q49 -7 49 -59q0 -57 -15 -101q-34 -103 -105 -156t-220 -53q-261 0 -314 203q-10 39 -10 94q0 61 62 72q30 6 73 6q31 0 44 -12q15 -13 22 -47q23 -107 131 -107q65 0 92 27t45 76q12 36 27 50
q14 13 45 13z" />
    <glyph glyph-name="Ohungarumlaut" unicode="&#x150;" horiz-adv-x="1460" 
d="M1382 733q0 -223 -39 -372t-123 -233q-86 -86 -204 -120q-120 -35 -295 -35q-173 0 -285 34q-115 35 -198 119q-85 87 -122 233q-38 150 -38 372q0 182 34 312q35 134 89 214q56 83 142 132t181 67q100 19 215 19t199 -12q87 -12 160 -41q77 -30 126 -82q50 -53 87 -134
q36 -78 54 -198q17 -110 17 -275zM977 727q0 183 -26 279q-25 94 -75 126q-49 31 -147 31q-86 0 -137 -33q-52 -34 -82 -130q-31 -101 -31 -271q0 -185 30 -284t80 -131q49 -31 138 -31q88 0 136 29q51 31 82 130q32 102 32 285zM606 1579q-51 -33 -112 -33q-54 0 -115 6
q-47 6 -47 43q0 32 37 66l180 172q55 51 119 51q100 0 166 -6q59 -6 59 -43q0 -33 -39 -66zM1087 1579q-51 -33 -112 -33q-53 0 -115 6q-47 6 -47 43q0 32 37 66l180 172q56 51 119 51q100 0 166 -6q59 -6 59 -43q0 -33 -39 -66z" />
    <glyph glyph-name="ohungarumlaut" unicode="&#x151;" horiz-adv-x="1189" 
d="M1116 526q0 -316 -124 -434q-125 -119 -404 -119q-270 0 -392 117t-122 430q0 161 38 273t112 168t165 79q92 23 213 23q134 0 225 -20q92 -20 158 -75q71 -58 100 -164q31 -112 31 -278zM733 516q0 151 -23 196q-24 46 -112 46q-80 0 -110 -49q-29 -48 -29 -189
q0 -148 27 -198t108 -50q82 0 111 49q28 47 28 195zM528 1231q-50 -45 -104 -45q-62 0 -86 6q-53 12 -53 47q0 25 22 57l142 220q39 55 104 55q57 0 123 -6q69 -6 69 -47q0 -30 -28 -64zM918 1231q-50 -45 -105 -45q-62 0 -86 6q-53 12 -53 47q0 25 22 57l142 220
q39 55 104 55q57 0 123 -6q70 -6 70 -47q0 -29 -29 -64z" />
    <glyph glyph-name="OE" unicode="&#x152;" horiz-adv-x="1961" 
d="M1849 0h-655q-113 0 -164 68q-92 -95 -321 -95q-172 0 -283 34q-114 35 -195 119t-117 232q-36 147 -36 373q0 222 47 374q46 148 139 229q92 80 202 110q113 31 263 31q226 0 315 -101q40 72 156 72h610q38 0 54 -15t16 -53v-202q0 -58 -70 -58h-421q-62 0 -62 -71v-138
h440q37 0 54 -15q16 -15 16 -52v-203q0 -57 -70 -57h-440v-181q0 -41 16 -57t60 -16h446q36 0 54 -16q16 -15 16 -52v-203q0 -57 -70 -57zM936 727q0 277 -40 356q-41 80 -177 80q-125 0 -182 -90q-58 -92 -58 -344q0 -181 28 -284q27 -99 74 -131q46 -31 128 -31
q86 0 131 30q44 29 70 128t26 286z" />
    <glyph glyph-name="oe" unicode="&#x153;" horiz-adv-x="1753" 
d="M911 63q-113 -90 -323 -90q-270 0 -392 117t-122 430q0 161 38 273t112 168t165 79q92 23 213 23q227 0 334 -88q106 88 303 88q97 0 163 -14q73 -16 119 -37q48 -22 81 -66t51 -84q17 -39 28 -108q12 -75 13 -122q2 -72 2 -140q0 -56 -29 -74q-18 -12 -51 -12h-510
q1 -82 49 -108q47 -26 141 -26q108 0 220 19q4 0 17 3q18 4 27 5q18 2 23 2q48 0 64 -43q28 -77 28 -166q0 -43 -35 -61q-113 -58 -391 -58q-231 0 -338 90zM733 516q0 151 -23 196q-24 46 -112 46q-80 0 -110 -49q-29 -48 -29 -189q0 -148 27 -198t108 -50q82 0 111 49
q28 47 28 195zM1112 651h229q3 21 3 29q0 71 -26 99t-89 28q-60 0 -87 -36q-29 -38 -30 -120z" />
    <glyph glyph-name="Racute" unicode="&#x154;" horiz-adv-x="1345" 
d="M535 74q0 -35 -22 -55q-20 -19 -50 -19h-252q-68 0 -68 74v1108q0 134 62 199t205 65h149q330 0 459 -55q211 -85 211 -400q0 -288 -197 -395l250 -463q27 -52 27 -82q0 -38 -37 -45q-49 -10 -299 -10q-55 0 -82 49l-219 473h-99h-38v-444zM782 1579q-56 -33 -120 -33
t-119 6q-49 6 -49 41q0 31 32 60l205 180q57 51 119 51q85 0 197 -8q67 -6 67 -47q0 -37 -43 -64zM535 813h45q112 0 161 16q86 29 86 140q0 131 -77 155q-44 13 -119 13h-39q-57 0 -57 -62v-262z" />
    <glyph glyph-name="racute" unicode="&#x155;" horiz-adv-x="854" 
d="M496 70q0 -33 -19 -52q-18 -18 -47 -18h-254q-61 0 -61 70v761q0 59 16 88q17 31 59 54q63 35 191 62q134 28 244 28q134 0 176 -16q45 -17 45 -70q0 -118 -17 -189q-10 -40 -65 -40q-2 0 -72 2t-74 2q-56 0 -92 -13q-17 -6 -24 -20q-6 -11 -6 -49v-600zM584 1231
q-44 -45 -111 -45q-61 0 -111 6q-53 6 -53 47q0 28 23 57l162 220q39 55 106 55q96 0 172 -6q66 -6 66 -45q0 -31 -35 -66z" />
    <glyph glyph-name="Rcommaaccent" unicode="&#x156;" horiz-adv-x="1345" 
d="M535 74q0 -35 -22 -55q-20 -19 -50 -19h-252q-68 0 -68 74v1108q0 134 62 199t205 65h149q330 0 459 -55q211 -85 211 -400q0 -288 -197 -395l250 -463q27 -52 27 -82q0 -38 -37 -45q-49 -10 -299 -10q-55 0 -82 49l-219 473h-99h-38v-444zM645 -92h84q82 0 82 -92
q0 -217 -125 -363q-40 -49 -82 -49q-34 0 -74 21q-41 21 -41 57q0 17 19 63q39 105 39 273q0 47 22 68q24 22 76 22zM535 813h45q112 0 161 16q86 29 86 140q0 131 -77 155q-44 13 -119 13h-39q-57 0 -57 -62v-262z" />
    <glyph glyph-name="rcommaaccent" unicode="&#x157;" horiz-adv-x="854" 
d="M496 70q0 -33 -19 -52q-18 -18 -47 -18h-254q-61 0 -61 70v761q0 59 16 88q17 31 59 54q63 35 191 62q134 28 244 28q134 0 176 -16q45 -17 45 -70q0 -118 -17 -189q-10 -40 -65 -40q-2 0 -72 2t-74 2q-56 0 -92 -13q-17 -6 -24 -20q-6 -11 -6 -49v-600zM289 -92h84
q82 0 82 -92q0 -217 -125 -363q-40 -49 -82 -49q-34 0 -74 21q-41 21 -41 57q0 17 19 63q38 102 38 273q0 47 23 68q24 22 76 22z" />
    <glyph glyph-name="Rcaron" unicode="&#x158;" horiz-adv-x="1345" 
d="M535 74q0 -35 -22 -55q-20 -19 -50 -19h-252q-68 0 -68 74v1108q0 134 62 199t205 65h149q330 0 459 -55q211 -85 211 -400q0 -288 -197 -395l250 -463q27 -52 27 -82q0 -38 -37 -45q-49 -10 -299 -10q-55 0 -82 49l-219 473h-99h-38v-444zM893 1925q58 0 108 -8
q60 -11 60 -49q0 -21 -25 -51l-190 -199q-63 -68 -127 -68h-127q-61 0 -111 56l-196 215q-23 23 -23 49q0 40 57 47q53 8 119 8q58 0 109 -51l115 -111l124 117q45 45 107 45zM535 813h45q112 0 161 16q86 29 86 140q0 131 -77 155q-44 13 -119 13h-39q-57 0 -57 -62v-262z
" />
    <glyph glyph-name="rcaron" unicode="&#x159;" horiz-adv-x="854" 
d="M496 70q0 -33 -19 -52q-18 -18 -47 -18h-254q-61 0 -61 70v761q0 59 16 88q17 31 59 54q63 35 191 62q134 28 244 28q134 0 176 -16q45 -17 45 -70q0 -118 -17 -189q-10 -40 -65 -40q-2 0 -72 2t-74 2q-56 0 -92 -13q-17 -6 -24 -20q-6 -11 -6 -49v-600zM664 1577
q50 0 94 -6q63 -7 63 -49q0 -24 -22 -52l-160 -215q-45 -61 -111 -61h-116q-43 0 -61 11q-20 13 -44 42l-166 223q-20 26 -20 52q0 43 61 49q56 6 99 6q55 0 94 -47l96 -113l98 115q39 45 95 45z" />
    <glyph glyph-name="Sacute" unicode="&#x15a;" horiz-adv-x="1228" 
d="M788 881q214 -56 286 -143q73 -88 73 -292q0 -229 -131 -351t-447 -122q-262 0 -450 58q-60 18 -60 82q0 38 31 153q21 70 84 70q25 0 90 -19q135 -34 316 -34q161 0 161 114q0 66 -24 95q-23 28 -101 43l-161 32q-191 39 -278 140t-87 305q0 463 553 463q260 0 399 -48
q58 -21 58 -79q0 -62 -25 -160q-15 -62 -65 -62q-44 0 -86 11q-158 24 -306 24q-126 0 -126 -114q0 -101 114 -125zM737 1579q-55 -33 -121 -33q-62 0 -118 6q-49 6 -49 41q0 31 32 60l205 180q57 51 119 51q84 0 196 -8q68 -6 68 -47q0 -37 -43 -64z" />
    <glyph glyph-name="sacute" unicode="&#x15b;" horiz-adv-x="974" 
d="M504 362l-139 31q-154 35 -224 103q-69 68 -69 225t107 248q109 92 341 92q221 0 330 -41q45 -16 45 -66q0 -60 -35 -180q-10 -43 -53 -43q-15 0 -68 8q-113 25 -235 25q-62 0 -62 -39q0 -18 13 -29q11 -10 59 -22l135 -35q167 -43 224 -109t57 -217q0 -340 -453 -340
q-258 0 -385 54q-45 18 -45 65q0 60 35 176q16 51 63 51q25 0 78 -14q116 -31 275 -31q67 0 67 39q0 21 -12 31q-12 11 -49 18zM627 1231q-43 -45 -111 -45q-60 0 -110 6q-54 6 -54 47q0 28 23 57l162 220q40 55 106 55q94 0 172 -6q66 -6 66 -45q0 -31 -35 -66z" />
    <glyph glyph-name="Scircumflex" unicode="&#x15c;" horiz-adv-x="1228" 
d="M788 881q214 -56 286 -143q73 -88 73 -292q0 -229 -131 -351t-447 -122q-262 0 -450 58q-60 18 -60 82q0 38 31 153q21 70 84 70q25 0 90 -19q135 -34 316 -34q161 0 161 114q0 66 -24 95q-23 28 -101 43l-161 32q-191 39 -278 140t-87 305q0 463 553 463q260 0 399 -48
q58 -21 58 -79q0 -62 -25 -160q-15 -62 -65 -62q-44 0 -86 11q-158 24 -306 24q-126 0 -126 -114q0 -101 114 -125zM389 1546q-58 0 -108 8q-60 10 -60 50q0 21 25 51l190 198q63 68 127 68h127q62 0 111 -55l196 -215q23 -23 23 -49q0 -40 -57 -48q-53 -8 -119 -8
q-58 0 -109 51l-114 111l-125 -117q-45 -45 -107 -45z" />
    <glyph glyph-name="scircumflex" unicode="&#x15d;" horiz-adv-x="974" 
d="M504 362l-139 31q-154 35 -224 103q-69 68 -69 225t107 248q109 92 341 92q221 0 330 -41q45 -16 45 -66q0 -60 -35 -180q-10 -43 -53 -43q-15 0 -68 8q-113 25 -235 25q-62 0 -62 -39q0 -18 13 -29q11 -10 59 -22l135 -35q167 -43 224 -109t57 -217q0 -340 -453 -340
q-258 0 -385 54q-45 18 -45 65q0 60 35 176q16 51 63 51q25 0 78 -14q116 -31 275 -31q67 0 67 39q0 21 -12 31q-12 11 -49 18zM326 1186q-52 0 -95 6q-63 8 -63 49q0 23 22 51l160 215q45 62 111 62h117q41 0 60 -10q21 -11 44 -43l166 -224q20 -26 20 -51q0 -43 -61 -49
q-55 -6 -98 -6q-56 0 -95 47l-96 113l-98 -115q-39 -45 -94 -45z" />
    <glyph glyph-name="Scedilla" unicode="&#x15e;" horiz-adv-x="1228" 
d="M629 -94q63 -1 104 -23q42 -22 58 -58q15 -33 20 -69q4 -27 4 -82q0 -235 -332 -235q-63 0 -106 8q-62 12 -62 61q0 42 9 78q11 35 25 45q16 11 46 11q4 0 62 -7q22 -2 43 -2q57 0 57 45q0 50 -53 50h-37q-51 0 -51 45q0 29 12 86l27 118q-200 11 -336 54q-60 18 -60 82
q0 38 31 153q21 70 84 70q25 0 90 -19q135 -34 316 -34q161 0 161 114q0 66 -24 95q-23 28 -101 43l-161 32q-191 39 -278 140t-87 305q0 463 553 463q260 0 399 -48q58 -21 58 -79q0 -62 -25 -160q-15 -62 -65 -62q-44 0 -86 11q-158 24 -306 24q-126 0 -126 -114
q0 -101 114 -125l182 -41q214 -56 286 -143q73 -88 73 -292q0 -215 -116 -337t-390 -134z" />
    <glyph glyph-name="scedilla" unicode="&#x15f;" horiz-adv-x="974" 
d="M524 -88q60 -1 101 -22q39 -20 54 -55q14 -35 19 -65q4 -27 4 -79q0 -226 -317 -226q-55 0 -102 9q-60 12 -60 57q0 44 8 76q7 33 23 42q15 9 45 9t59 -4q22 -2 41 -2q56 0 56 43q0 47 -52 47h-34q-50 0 -50 43q0 20 13 82l24 110q-171 10 -264 50q-45 18 -45 65
q0 60 35 176q16 51 63 51q25 0 78 -14q116 -31 275 -31q67 0 67 39q0 21 -12 31q-12 11 -49 18l-139 31q-154 35 -224 103q-69 68 -69 225t107 248q109 92 341 92q221 0 330 -41q45 -16 45 -66q0 -60 -35 -180q-10 -43 -53 -43q-15 0 -68 8q-113 25 -235 25q-62 0 -62 -39
q0 -18 13 -29q11 -10 59 -22l135 -35q167 -43 224 -109t57 -217q0 -317 -395 -338z" />
    <glyph glyph-name="Scaron" unicode="&#x160;" horiz-adv-x="1228" 
d="M788 881q214 -56 286 -143q73 -88 73 -292q0 -229 -131 -351t-447 -122q-262 0 -450 58q-60 18 -60 82q0 38 31 153q21 70 84 70q25 0 90 -19q135 -34 316 -34q161 0 161 114q0 66 -24 95q-23 28 -101 43l-161 32q-191 39 -278 140t-87 305q0 463 553 463q260 0 399 -48
q58 -21 58 -79q0 -62 -25 -160q-15 -62 -65 -62q-44 0 -86 11q-158 24 -306 24q-126 0 -126 -114q0 -101 114 -125zM858 1925q59 0 109 -8q59 -10 59 -49q0 -21 -25 -51l-190 -199q-63 -68 -127 -68h-127q-61 0 -111 56l-196 215q-23 23 -23 49q0 39 58 47q53 8 118 8
q58 0 109 -51l115 -111l125 117q45 45 106 45z" />
    <glyph glyph-name="scaron" unicode="&#x161;" horiz-adv-x="974" 
d="M504 362l-139 31q-154 35 -224 103q-69 68 -69 225t107 248q109 92 341 92q221 0 330 -41q45 -16 45 -66q0 -60 -35 -180q-10 -43 -53 -43q-15 0 -68 8q-113 25 -235 25q-62 0 -62 -39q0 -18 13 -29q11 -10 59 -22l135 -35q167 -43 224 -109t57 -217q0 -340 -453 -340
q-258 0 -385 54q-45 18 -45 65q0 60 35 176q16 51 63 51q25 0 78 -14q116 -31 275 -31q67 0 67 39q0 21 -12 31q-12 11 -49 18zM690 1577q50 0 94 -6q64 -8 64 -49q0 -23 -23 -52l-159 -215q-45 -61 -111 -61h-117q-42 0 -60 11q-20 13 -44 42l-166 223q-21 27 -21 52
q0 43 62 49q55 6 98 6q55 0 94 -47l97 -113l98 115q39 45 94 45z" />
    <glyph glyph-name="uni0162" unicode="&#x162;" horiz-adv-x="1316" 
d="M713 -94q63 -1 104 -23q41 -21 57 -58t21 -69q4 -27 4 -82q0 -235 -332 -235q-63 0 -106 8q-62 12 -62 61q0 42 9 78q11 35 25 45q16 11 46 11q4 0 62 -7q22 -2 43 -2q57 0 57 45q0 50 -53 50h-37q-51 0 -51 45q0 29 12 86l31 141h-29q-68 0 -68 74v1044h-303
q-69 0 -69 58v202q0 38 16 53t53 15h1004q36 0 53 -15t17 -53v-202q0 -58 -70 -58h-305v-1044q0 -36 -21 -55q-20 -19 -51 -19h-41z" />
    <glyph glyph-name="uni0163" unicode="&#x163;" horiz-adv-x="806" 
d="M520 -88q60 -1 101 -22q39 -20 54 -55q14 -35 19 -65q4 -27 4 -79q0 -226 -317 -226q-55 0 -102 9q-60 12 -60 57q0 44 8 76q7 33 23 42q15 9 45 9t59 -4q22 -2 41 -2q56 0 56 43q0 47 -52 47h-34q-50 0 -50 43q0 20 13 82l32 156q-72 27 -114 81q-46 58 -58 134
q-12 77 -12 221v278h-88q-31 0 -49 18q-19 19 -19 48v162q0 29 19 50q18 19 53 19h92q1 48 11 199q6 76 69 76h232q61 0 61 -80v-195h135q80 0 80 -67v-164q0 -31 -20 -48q-21 -18 -54 -18h-141v-284q0 -112 39 -142q22 -19 143 -30q58 -6 58 -68q0 -102 -6 -158
q-6 -69 -82 -69q-99 0 -177 6z" />
    <glyph glyph-name="Tcaron" unicode="&#x164;" horiz-adv-x="1316" 
d="M842 74q0 -36 -21 -55q-20 -19 -51 -19h-256q-68 0 -68 74v1044h-303q-69 0 -69 58v202q0 38 16 53t53 15h1004q36 0 53 -15t17 -53v-202q0 -58 -70 -58h-305v-1044zM874 1925q59 0 109 -8q59 -10 59 -49q0 -22 -24 -51l-191 -199q-63 -68 -127 -68h-127q-60 0 -110 56
l-197 215q-22 22 -22 49q0 40 57 47q53 8 119 8q57 0 108 -51l115 -111l125 117q45 45 106 45z" />
    <glyph glyph-name="tcaron" unicode="&#x165;" horiz-adv-x="806" 
d="M557 453q0 -112 39 -142q22 -19 143 -30q58 -6 58 -68q0 -102 -6 -158q-6 -69 -82 -69q-206 0 -307 25q-104 25 -156 93q-46 58 -58 134q-12 77 -12 221v278h-88q-31 0 -49 18q-19 19 -19 48v162q0 29 19 50q18 19 53 19h92q1 48 11 199q6 76 69 76h232q61 0 61 -80v-195
h135q80 0 80 -67v-164q0 -31 -20 -48q-21 -18 -54 -18h-141v-284zM764 1612h84q82 0 82 -92q0 -217 -125 -363q-40 -49 -82 -49q-35 0 -74 20q-41 21 -41 58q0 17 19 63q39 105 39 273q0 47 22 68q24 22 76 22z" />
    <glyph glyph-name="Tbar" unicode="&#x166;" horiz-adv-x="1316" 
d="M854 74q0 -36 -21 -55q-20 -19 -51 -19h-256q-67 0 -67 74v528h-209q-70 0 -70 66v151q0 62 70 62h209v237h-303q-70 0 -70 58v202q0 38 16 53t54 15h1003q37 0 53 -15q17 -15 17 -53v-202q0 -58 -70 -58h-305v-237h213q70 0 70 -64v-155q0 -36 -17 -48q-16 -12 -51 -12
h-215v-528z" />
    <glyph glyph-name="tbar" unicode="&#x167;" horiz-adv-x="806" 
d="M610 403h-53q6 -68 39 -92q22 -19 143 -30q58 -6 58 -68q0 -102 -6 -158q-6 -69 -82 -69q-206 0 -307 25q-104 25 -156 93q-42 52 -55 118t-15 181h-94q-70 0 -70 66v119q0 67 72 67h92v82h-88q-31 0 -49 18q-19 19 -19 48v162q0 29 19 50q18 19 53 19h92q1 48 11 199
q6 76 69 76h232q61 0 61 -80v-195h135q80 0 80 -67v-164q0 -31 -20 -48q-21 -18 -54 -18h-141v-82h51q70 0 70 -65v-127q0 -35 -16 -47q-18 -13 -52 -13z" />
    <glyph glyph-name="Utilde" unicode="&#x168;" horiz-adv-x="1445" 
d="M1317 1378v-800q0 -301 -66 -406q-127 -201 -549 -201q-428 0 -524 211q-49 107 -49 391v803q0 28 18 49t50 21h266q59 0 59 -68v-872q0 -126 39 -172q40 -51 164 -51q132 0 176 47q43 46 43 174v872q0 27 19 49q18 21 49 21h245q60 0 60 -68zM479 1534q-39 0 -76 6
q-49 10 -49 57q0 22 13 58q67 213 219 213q64 0 155 -47q67 -35 107 -35q54 0 78 45q27 47 73 47q29 0 62 -4q57 -6 57 -49q0 -35 -18 -86q-30 -85 -85 -137t-124 -52q-66 0 -176 54q-56 28 -92 28q-45 0 -68 -41q-17 -32 -34 -45q-15 -12 -42 -12z" />
    <glyph glyph-name="utilde" unicode="&#x169;" horiz-adv-x="1234" 
d="M115 358v607q0 69 61 69h258q62 0 62 -69v-553q0 -65 10 -88q18 -45 92 -45q58 0 86 6q35 11 41 16q14 11 14 45v619q0 32 19 51q18 18 47 18h254q61 0 61 -69v-793q0 -107 -82 -137q-163 -62 -491 -62q-201 0 -288 37q-89 38 -116 107q-28 71 -28 241zM375 1178
q-48 0 -68 4q-53 11 -53 55q0 18 14 59q46 111 93 162q48 53 116 53q45 0 150 -49q67 -32 102 -32q43 0 66 45q23 47 75 47q24 0 64 -4q28 -4 41 -14q12 -9 12 -36q0 -31 -26 -100q-61 -174 -191 -174q-60 0 -168 53q-63 29 -82 29q-40 0 -63 -39q-34 -59 -82 -59z" />
    <glyph glyph-name="Umacron" unicode="&#x16a;" horiz-adv-x="1445" 
d="M1317 1378v-800q0 -301 -66 -406q-127 -201 -549 -201q-428 0 -524 211q-49 107 -49 391v803q0 28 18 49t50 21h266q59 0 59 -68v-872q0 -126 39 -172q40 -51 164 -51q132 0 176 47q43 46 43 174v872q0 27 19 49q18 21 49 21h245q60 0 60 -68zM999 1575h-534
q-70 0 -70 65v111q0 61 70 61h532q70 0 70 -63v-115q0 -35 -16 -47q-17 -12 -52 -12z" />
    <glyph glyph-name="umacron" unicode="&#x16b;" horiz-adv-x="1234" 
d="M115 358v607q0 69 61 69h258q62 0 62 -69v-553q0 -65 10 -88q18 -45 92 -45q58 0 86 6q35 11 41 16q14 11 14 45v619q0 32 19 51q18 18 47 18h254q61 0 61 -69v-793q0 -107 -82 -137q-163 -62 -491 -62q-201 0 -288 37q-89 38 -116 107q-28 71 -28 241zM872 1206h-505
q-70 0 -70 66v110q0 62 70 62h503q70 0 70 -64v-114q0 -35 -16 -47q-18 -13 -52 -13z" />
    <glyph glyph-name="Ubreve" unicode="&#x16c;" horiz-adv-x="1445" 
d="M1317 1378v-800q0 -301 -66 -406q-127 -201 -549 -201q-428 0 -524 211q-49 107 -49 391v803q0 28 18 49t50 21h266q59 0 59 -68v-872q0 -126 39 -172q40 -51 164 -51q132 0 176 47q43 46 43 174v872q0 27 19 49q18 21 49 21h245q60 0 60 -68zM723 1538q-276 0 -326 193
q-12 49 -12 88q0 58 64 69q20 4 77 4q56 0 68 -55q22 -88 137 -88q69 0 98 21q28 21 45 65q12 32 28 45q15 12 48 12q56 0 76 -4q51 -8 51 -61q0 -54 -14 -90q-37 -100 -110 -150q-71 -49 -230 -49z" />
    <glyph glyph-name="ubreve" unicode="&#x16d;" horiz-adv-x="1234" 
d="M115 358v607q0 69 61 69h258q62 0 62 -69v-553q0 -65 10 -88q18 -45 92 -45q58 0 86 6q35 11 41 16q14 11 14 45v619q0 32 19 51q18 18 47 18h254q61 0 61 -69v-793q0 -107 -82 -137q-163 -62 -491 -62q-201 0 -288 37q-89 38 -116 107q-28 71 -28 241zM825 1544
q41 0 74 -6q49 -7 49 -59q0 -60 -14 -101q-34 -102 -106 -156q-71 -53 -220 -53q-260 0 -313 203q-10 39 -10 94q0 62 61 72q30 6 74 6q30 0 44 -12q13 -12 21 -47q23 -107 131 -107q44 0 75 17q29 16 40 35q12 20 23 51q12 37 26 50t45 13z" />
    <glyph glyph-name="Uring" unicode="&#x16e;" horiz-adv-x="1445" 
d="M1317 1378v-800q0 -301 -66 -406q-127 -201 -549 -201q-428 0 -524 211q-49 107 -49 391v803q0 28 18 49t50 21h266q59 0 59 -68v-872q0 -126 39 -172q40 -51 164 -51q132 0 176 47q43 46 43 174v872q0 27 19 49q18 21 49 21h245q60 0 60 -68zM930 1706q0 -94 -54 -145
q-55 -52 -147 -52q-87 0 -139 52q-51 51 -51 145q0 96 53 149q54 54 143 54q92 0 144 -54q51 -53 51 -149zM834 1710q0 113 -103 113q-45 0 -74 -30q-28 -29 -28 -85q0 -53 27 -83t77 -30q101 0 101 115z" />
    <glyph glyph-name="uring" unicode="&#x16f;" horiz-adv-x="1234" 
d="M115 358v607q0 69 61 69h258q62 0 62 -69v-553q0 -65 10 -88q18 -45 92 -45q58 0 86 6q35 11 41 16q14 11 14 45v619q0 32 19 51q18 18 47 18h254q61 0 61 -69v-793q0 -107 -82 -137q-163 -62 -491 -62q-201 0 -288 37q-89 38 -116 107q-28 71 -28 241zM825 1372
q0 -98 -58 -150q-59 -53 -155 -53q-91 0 -147 53q-55 52 -55 150t57 154q56 55 151 55q97 0 152 -55t55 -154zM725 1376q0 119 -111 119q-49 0 -79 -32q-31 -33 -31 -89q0 -58 30 -88q31 -31 82 -31q109 0 109 121z" />
    <glyph glyph-name="Uhungarumlaut" unicode="&#x170;" horiz-adv-x="1445" 
d="M1317 1378v-800q0 -301 -66 -406q-127 -201 -549 -201q-428 0 -524 211q-49 107 -49 391v803q0 28 18 49t50 21h266q59 0 59 -68v-872q0 -126 39 -172q40 -51 164 -51q132 0 176 47q43 46 43 174v872q0 27 19 49q18 21 49 21h245q60 0 60 -68zM586 1579q-51 -33 -113 -33
q-53 0 -115 6q-47 6 -47 43q0 32 37 66l180 172q55 51 119 51q100 0 166 -6q59 -6 59 -43q0 -34 -38 -66zM1067 1579q-51 -33 -113 -33q-52 0 -114 6q-47 6 -47 43q0 33 36 66l181 172q56 51 118 51q100 0 166 -6q60 -6 60 -43q0 -33 -39 -66z" />
    <glyph glyph-name="uhungarumlaut" unicode="&#x171;" horiz-adv-x="1234" 
d="M115 358v607q0 69 61 69h258q62 0 62 -69v-553q0 -65 10 -88q18 -45 92 -45q58 0 86 6q35 11 41 16q14 11 14 45v619q0 32 19 51q18 18 47 18h254q61 0 61 -69v-793q0 -107 -82 -137q-163 -62 -491 -62q-201 0 -288 37q-89 38 -116 107q-28 71 -28 241zM549 1231
q-49 -45 -105 -45q-62 0 -86 6q-53 12 -53 47q0 23 23 57l141 220q40 55 104 55q57 0 123 -6q70 -6 70 -47q0 -29 -29 -64zM938 1231q-50 -45 -104 -45q-62 0 -86 6q-54 12 -54 47q0 23 23 57l141 220q40 55 105 55q56 0 122 -6q70 -6 70 -47q0 -29 -29 -64z" />
    <glyph glyph-name="Uogonek" unicode="&#x172;" horiz-adv-x="1445" 
d="M1317 1378v-800q0 -301 -66 -406q-101 -162 -407 -192q-67 -53 -93 -76q-31 -28 -55 -71t-24 -93q0 -90 80 -90q6 0 54 2q10 0 19.5 0.5t14.5 1t6 0.5q25 0 36 -11t17 -44q8 -43 8 -78q0 -45 -63 -62q-52 -12 -142 -12q-146 0 -209 60t-63 182q0 187 176 286
q-344 18 -428 207q-49 107 -49 391v803q0 28 18 49t50 21h266q59 0 59 -68v-872q0 -126 39 -172q40 -51 164 -51q132 0 176 47q43 46 43 174v872q0 27 19 49q18 21 49 21h245q60 0 60 -68z" />
    <glyph glyph-name="uogonek" unicode="&#x173;" horiz-adv-x="1234" 
d="M115 358v607q0 69 61 69h258q62 0 62 -69v-553q0 -65 10 -88q18 -45 92 -45q58 0 86 6q35 11 41 16q14 11 14 45v619q0 32 19 51q18 18 47 18h254q61 0 61 -69v-793q0 -107 -82 -137q-29 -11 -65 -21q-11 -8 -36 -27q-32 -24 -35 -27q-3 -2 -13 -9.5l-18 -13.5
q-19 -15 -29 -25l-24 -24q-15 -15 -21 -24l-17 -25q-10 -14 -13 -27q-3 -11 -6 -29q-3 -17 -3 -33q0 -84 78 -84q29 0 51 1t37 1q46 0 57 -51q6 -30 6 -76q0 -47 -67 -59q-49 -10 -132 -10q-143 0 -204 58q-62 59 -62 173q0 178 176 274q-95 -4 -151 -4q-201 0 -288 37
q-89 38 -116 107q-28 71 -28 241z" />
    <glyph glyph-name="Wcircumflex" unicode="&#x174;" horiz-adv-x="1986" 
d="M999 1010q-23 -164 -151 -820q-21 -110 -75 -154q-55 -44 -167 -44h-104q-101 0 -157 43q-57 43 -79 149l-227 1114q-10 44 -10 84q0 56 63 60q156 10 279 10q63 0 75 -74q136 -820 158 -1009q34 242 166 886q18 90 58 127t130 37h86q104 0 144 -31q41 -32 59 -128
q139 -732 162 -893q30 264 147 1005q12 80 78 80q215 0 281 -12q18 -2 31 -19q12 -17 12 -32q0 -33 -10 -86l-217 -1113q-17 -97 -69 -149q-49 -49 -169 -49h-86q-124 0 -180 44q-55 43 -78 157q-131 684 -150 817zM778 1546q-58 0 -108 8q-60 10 -60 50q0 21 25 51l190 198
q63 68 127 68h127q62 0 111 -55l197 -215q22 -22 22 -49q0 -40 -57 -48q-53 -8 -119 -8q-58 0 -109 51l-114 111l-125 -117q-45 -45 -107 -45z" />
    <glyph glyph-name="wcircumflex" unicode="&#x175;" horiz-adv-x="1667" 
d="M840 645q-16 -102 -109 -502q-21 -88 -76 -119q-56 -32 -166 -32h-53q-90 0 -142 34q-54 35 -71 115l-164 752q-10 44 -10 80q0 51 49 57q69 10 279 10q59 0 69 -59q58 -349 97 -645q22 159 94 510q16 83 57 121q40 37 125 37h49q84 0 124 -34q41 -35 59 -112
q71 -300 112 -522q21 243 78 641q11 63 70 63q186 0 260 -10q51 -8 51 -57q0 -19 -10 -62l-164 -768q-18 -81 -73 -116t-156 -35h-52q-193 0 -223 149q-89 419 -104 504zM651 1186q-51 0 -94 6q-63 8 -63 49q0 23 22 51l160 215q45 62 110 62h117q42 0 61 -10q21 -11 44 -43
l166 -224q20 -26 20 -51q0 -43 -61 -49q-55 -6 -99 -6q-55 0 -94 47l-96 113l-99 -115q-39 -45 -94 -45z" />
    <glyph glyph-name="Ycircumflex" unicode="&#x176;" horiz-adv-x="1343" 
d="M870 74q0 -36 -21 -55q-20 -19 -50 -19h-254q-68 0 -68 74v506l-440 741q-29 50 -29 72q0 35 33 47q23 10 336 10q62 0 100 -68q127 -243 209 -413l217 413q38 68 98 68q281 0 308 -14q26 -12 26 -41q0 -31 -26 -74l-439 -731v-516zM461 1546q-59 0 -109 8q-59 10 -59 50
q0 22 24 51l191 198q63 68 127 68h127q61 0 110 -55l197 -215q23 -23 23 -49q0 -40 -58 -48q-53 -8 -119 -8q-57 0 -108 51l-115 111l-125 -117q-45 -45 -106 -45z" />
    <glyph glyph-name="ycircumflex" unicode="&#x177;" horiz-adv-x="1234" 
d="M115 307v658q0 69 61 69h258q62 0 62 -69v-570q0 -47 6 -69q12 -45 92 -45q47 0 90 10q29 8 41 18q14 11 14 45v611q0 32 19 51q18 18 47 18h254q61 0 61 -69v-852q0 -200 -16 -271q-40 -180 -250 -252q-206 -71 -557 -71q-43 0 -60 14q-18 15 -22 51q-8 67 -8 154
q0 83 67 84q247 12 343 35q94 23 106 69q8 30 8 76v18q-99 -45 -280 -45q-264 0 -314 131q-22 59 -22 201zM436 1186q-50 0 -94 6q-63 8 -63 49q0 23 22 51l160 215q45 62 110 62h117q42 0 61 -10q21 -11 44 -43l165 -224q21 -27 21 -51q0 -43 -61 -49q-56 -6 -99 -6
q-55 0 -94 47l-96 113l-99 -115q-39 -45 -94 -45z" />
    <glyph glyph-name="Ydieresis" unicode="&#x178;" horiz-adv-x="1343" 
d="M870 74q0 -36 -21 -55q-20 -19 -50 -19h-254q-68 0 -68 74v506l-440 741q-29 50 -29 72q0 35 33 47q23 10 336 10q62 0 100 -68q127 -243 209 -413l217 413q38 68 98 68q281 0 308 -14q26 -12 26 -41q0 -31 -26 -74l-439 -731v-516zM621 1708q0 -158 -150 -158
q-147 0 -147 156q0 158 147 158q150 0 150 -156zM1047 1708q0 -158 -150 -158q-147 0 -147 156q0 158 147 158q150 0 150 -156z" />
    <glyph glyph-name="Zacute" unicode="&#x179;" horiz-adv-x="1316" 
d="M1190 0h-985q-88 0 -128 40t-40 134q0 110 84 209l629 735h-586q-70 0 -70 76v172q0 80 74 80h815q117 0 175 -43q59 -44 59 -156q0 -129 -99 -248q-351 -426 -577 -671h651q31 0 52 -19q20 -18 20 -49v-194q0 -29 -19 -48q-18 -18 -55 -18zM772 1579q-55 -33 -121 -33
q-63 0 -119 6q-49 6 -49 41q0 30 33 60l205 180q57 51 119 51q84 0 196 -8q68 -6 68 -47q0 -37 -43 -64z" />
    <glyph glyph-name="zacute" unicode="&#x17a;" horiz-adv-x="1054" 
d="M963 0h-768q-79 0 -120 35q-40 34 -40 139q0 121 80 193l422 360h-398q-32 0 -49 16q-18 17 -18 45v175q0 28 20 49q21 22 51 22h688q79 0 123 -38q43 -37 43 -138q0 -134 -104 -225q-236 -207 -397 -326h479q25 0 40 -21t15 -46v-185q0 -20 -19 -38q-18 -17 -48 -17z
M643 1231q-43 -45 -111 -45q-60 0 -110 6q-53 6 -53 47q0 29 22 57l162 220q40 55 106 55q95 0 172 -6q66 -6 66 -45q0 -31 -35 -66z" />
    <glyph glyph-name="Zdotaccent" unicode="&#x17b;" horiz-adv-x="1316" 
d="M1190 0h-985q-88 0 -128 40t-40 134q0 110 84 209l629 735h-586q-70 0 -70 76v172q0 80 74 80h815q117 0 175 -43q59 -44 59 -156q0 -129 -99 -248q-351 -426 -577 -671h651q31 0 52 -19q20 -18 20 -49v-194q0 -29 -19 -48q-18 -18 -55 -18zM813 1708q0 -158 -149 -158
q-148 0 -148 156q0 158 148 158q149 0 149 -156z" />
    <glyph glyph-name="zdotaccent" unicode="&#x17c;" horiz-adv-x="1054" 
d="M963 0h-768q-79 0 -120 35q-40 34 -40 139q0 121 80 193l422 360h-398q-32 0 -49 16q-18 17 -18 45v175q0 28 20 49q21 22 51 22h688q79 0 123 -38q43 -37 43 -138q0 -134 -104 -225q-236 -207 -397 -326h479q25 0 40 -21t15 -46v-185q0 -20 -19 -38q-18 -17 -48 -17z
M686 1339q0 -157 -149 -157q-148 0 -148 155q0 158 148 158q149 0 149 -156z" />
    <glyph glyph-name="Zcaron" unicode="&#x17d;" horiz-adv-x="1316" 
d="M1190 0h-985q-88 0 -128 40t-40 134q0 110 84 209l629 735h-586q-70 0 -70 76v172q0 80 74 80h815q117 0 175 -43q59 -44 59 -156q0 -129 -99 -248q-351 -426 -577 -671h651q31 0 52 -19q20 -18 20 -49v-194q0 -29 -19 -48q-18 -18 -55 -18zM887 1925q58 0 108 -8
q60 -11 60 -49q0 -21 -25 -51l-190 -199q-63 -68 -127 -68h-127q-61 0 -111 56l-196 215q-23 23 -23 49q0 40 57 47q53 8 119 8q58 0 109 -51l114 -111l125 117q45 45 107 45z" />
    <glyph glyph-name="zcaron" unicode="&#x17e;" horiz-adv-x="1054" 
d="M963 0h-768q-79 0 -120 35q-40 34 -40 139q0 121 80 193l422 360h-398q-32 0 -49 16q-18 17 -18 45v175q0 28 20 49q21 22 51 22h688q79 0 123 -38q43 -37 43 -138q0 -134 -104 -225q-236 -207 -397 -326h479q25 0 40 -21t15 -46v-185q0 -20 -19 -38q-18 -17 -48 -17z
M721 1577q51 0 94 -6q64 -8 64 -49q0 -23 -23 -52l-160 -215q-45 -61 -110 -61h-117q-42 0 -60 11q-20 13 -44 42l-166 223q-21 27 -21 52q0 43 62 49q56 6 98 6q55 0 94 -47l96 -113l99 115q39 45 94 45z" />
    <glyph glyph-name="longs" unicode="&#x17f;" horiz-adv-x="626" 
d="M500 63q0 -25 -18 -44t-46 -19h-260q-57 0 -57 70v1036q0 225 106 315q144 117 437 117q96 0 102 -63q4 -35 4 -162q0 -65 -72 -72q-148 -12 -178 -61q-18 -30 -18 -99v-1018z" />
    <glyph glyph-name="florin" unicode="&#x192;" horiz-adv-x="1142" 
d="M963 674h-220l-47 -539q-21 -220 -118 -295q-59 -45 -133 -66q-75 -22 -220 -22q-119 0 -170 21q-43 18 -43 71q0 64 19 170q10 49 65 49q8 0 44 -3t53 -3q66 0 90 27q28 29 34 113l43 477h-155q-51 0 -51 45v117q0 49 51 49h176l14 153q21 218 117 291q62 47 132 67
q72 21 220 21q121 0 170 -20q43 -18 43 -72q0 -69 -18 -170q-10 -49 -66 -49q-8 0 -44 3t-52 3q-66 0 -90 -27q-29 -31 -35 -106l-8 -94h199q59 0 59 -49v-117q0 -45 -59 -45z" />
    <glyph glyph-name="Aringacute" unicode="&#x1fa;" horiz-adv-x="1421" 
d="M915 1548q0 -62 -26 -104q64 -18 94 -63q27 -42 61 -146l353 -1100q14 -36 14 -76q0 -36 -33 -51q-28 -12 -291 -12q-36 0 -57 18t-33 62l-69 235h-436l-68 -235q-12 -45 -30 -63q-17 -17 -54 -17q-242 0 -293 12q-37 7 -37 49q0 28 17 74l356 1092q33 105 71 156t121 67
q-22 44 -22 102q0 91 49 140t133 49q87 0 133 -49q47 -50 47 -140zM817 1802q-43 -26 -104 -26q-46 0 -97 4q-51 5 -51 35t31 55l174 137q44 37 102 37q156 0 189 -6q41 -8 41 -37q0 -32 -35 -53zM586 627h258q-114 440 -127 503q-9 -43 -131 -503zM827 1552q0 105 -96 105
q-39 0 -67 -28q-27 -27 -27 -79q0 -71 47 -94h94q49 22 49 96z" />
    <glyph glyph-name="aringacute" unicode="&#x1fb;" horiz-adv-x="1138" 
d="M1038 184q0 -83 -28 -112q-28 -30 -86 -47q-67 -21 -206 -36q-147 -16 -239 -16q-236 0 -325 92q-88 91 -88 248q0 178 112 260q97 70 336 70q68 0 148 -6v14q0 35 -9 62q-17 39 -135 39q-86 0 -182 -13q-73 -12 -105 -12q-44 0 -59 53q-20 74 -20 162q0 58 55 76
q134 45 360 45q311 0 391 -86q80 -85 80 -283v-510zM662 406q-33 4 -95 4q-92 0 -116 -21q-27 -21 -27 -65q0 -80 100 -80q78 0 113 18q18 8 20 29q5 23 5 71v44zM799 1372q0 -97 -59 -150t-154 -53q-92 0 -148 53q-55 52 -55 150t57 154q56 55 152 55t151 -55
q56 -56 56 -154zM698 1376q0 119 -110 119q-50 0 -80 -32q-31 -33 -31 -89q0 -58 30 -88q31 -31 83 -31q108 0 108 121zM713 1683q-52 -47 -103 -47q-60 0 -104 4q-66 4 -66 48q0 26 23 55l143 201q40 57 107 57q133 0 174 -6q53 -8 53 -47q0 -33 -27 -60z" />
    <glyph glyph-name="AEacute" unicode="&#x1fc;" horiz-adv-x="2066" 
d="M614 326l-143 -260q-23 -41 -48 -56q-24 -14 -71 -14q-165 0 -276 6q-62 2 -62 51q0 26 27 72l670 1151q56 96 116 133q61 37 174 37h914q37 0 53 -15q17 -15 17 -53v-202q0 -58 -70 -58h-483v-209h440q36 0 53 -15t17 -52v-203q0 -57 -70 -57h-440v-183q0 -37 16 -54
t57 -17h449q35 0 53 -16q16 -15 16 -52v-203q0 -57 -69 -57h-682q-234 0 -234 229v97h-424zM791 641h247v471q-68 -139 -247 -471zM1399 1579q-55 -33 -121 -33q-64 0 -119 6q-49 6 -49 41q0 30 33 60l205 180q57 51 118 51q85 0 197 -8q68 -6 68 -47q0 -37 -43 -64z" />
    <glyph glyph-name="aeacute" unicode="&#x1fd;" horiz-adv-x="1673" 
d="M801 80q-124 -107 -355 -107q-380 0 -380 351q0 188 112 260q107 67 336 67q99 0 148 -4v17q0 22 -9 49q-17 39 -135 39q-119 0 -213 -17q-48 -8 -76 -8q-44 0 -59 57q-18 69 -18 164q0 56 63 72q144 43 350 43q250 0 322 -88q40 39 121 63q83 25 147 25q124 0 211 -29
q86 -28 135 -72q49 -43 75 -125q26 -81 33 -156q7 -70 7 -194q0 -51 -29 -69q-18 -12 -51 -12h-512q1 -76 47 -105t129 -29q139 0 244 21q53 8 61 8q51 0 66 -61q22 -84 22 -148q0 -43 -34 -61q-114 -58 -390 -58q-263 0 -368 107zM662 405q-42 5 -95 5q-83 0 -118 -23
q-25 -19 -25 -59q0 -84 100 -84q120 0 158 24q-14 37 -20 137zM1030 651h246q2 10 2 33q0 64 -26 99q-25 34 -91 34q-131 0 -131 -166zM979 1231q-43 -45 -111 -45q-60 0 -110 6q-53 6 -53 47q0 29 22 57l162 220q40 55 106 55q94 0 172 -6q66 -6 66 -45q0 -31 -35 -66z" />
    <glyph glyph-name="Oslashacute" unicode="&#x1fe;" horiz-adv-x="1460" 
d="M236 -51q-18 -23 -33 -23q-18 0 -92 54q-15 12 -15 24q0 14 17 37l86 119q-129 176 -129 571q0 186 33 312q34 131 90 214t142 132t181 67q100 19 215 19q249 0 379 -62l82 113q12 18 31 18q14 0 28 -10q74 -47 74 -68q0 -15 -12 -30l-82 -113q143 -165 143 -590
q0 -223 -39 -372q-39 -148 -124 -233q-86 -86 -203 -120q-120 -35 -295 -35q-261 0 -400 84zM969 727q0 124 -13 217l-421 -582q52 -79 184 -79q88 0 136 29q51 31 82 130q32 102 32 285zM471 729q0 -110 8 -182l412 565q-51 51 -170 51q-86 0 -137 -33q-52 -34 -82 -130
q-31 -101 -31 -271zM809 1579q-55 -33 -121 -33q-64 0 -119 6q-49 6 -49 41q0 30 33 60l205 180q57 51 119 51q84 0 196 -8q68 -6 68 -47q0 -37 -43 -64z" />
    <glyph glyph-name="oslashacute" unicode="&#x1ff;" horiz-adv-x="1189" 
d="M227 -72q-20 -20 -28 -20q-17 0 -78 45q-12 12 -12 22q0 16 14 33l59 84q-121 124 -121 428q0 162 39 273t114 168q74 56 165 79q92 23 213 23q174 0 274 -35l80 111q12 16 27 16q12 0 26 -10q60 -37 60 -58q0 -12 -10 -26l-70 -96q129 -113 129 -439q0 -315 -125 -434
t-405 -119q-180 0 -285 45zM657 1231q-43 -45 -110 -45q-61 0 -111 6q-53 6 -53 47q0 28 23 57l161 220q39 55 107 55q96 0 172 -6q65 -6 65 -45q0 -32 -34 -66zM741 516q0 56 -4 115l-252 -346q31 -23 99 -23q92 0 125 50q32 48 32 204zM432 520q0 -52 2 -84l234 320
q-30 12 -80 12q-88 0 -122 -52t-34 -196z" />
    <glyph glyph-name="uni0218" unicode="&#x218;" horiz-adv-x="1228" 
d="M788 881q214 -56 286 -143q73 -88 73 -292q0 -229 -131 -351t-447 -122q-262 0 -450 58q-60 18 -60 82q0 38 31 153q21 70 84 70q25 0 90 -19q135 -34 316 -34q161 0 161 114q0 66 -24 95q-23 28 -101 43l-161 32q-191 39 -278 140t-87 305q0 463 553 463q260 0 399 -48
q58 -21 58 -79q0 -62 -25 -160q-15 -62 -65 -62q-44 0 -86 11q-158 24 -306 24q-126 0 -126 -114q0 -101 114 -125zM565 -92h84q82 0 82 -92q0 -217 -125 -363q-40 -49 -82 -49q-32 0 -73 21t-41 57q0 20 18 63q39 105 39 273q0 47 22 68q24 22 76 22z" />
    <glyph glyph-name="uni0219" unicode="&#x219;" horiz-adv-x="974" 
d="M504 362l-139 31q-154 35 -224 103q-69 68 -69 225t107 248q109 92 341 92q221 0 330 -41q45 -16 45 -66q0 -60 -35 -180q-10 -43 -53 -43q-15 0 -68 8q-113 25 -235 25q-62 0 -62 -39q0 -18 13 -29q11 -10 59 -22l135 -35q167 -43 224 -109t57 -217q0 -340 -453 -340
q-258 0 -385 54q-45 18 -45 65q0 60 35 176q16 51 63 51q25 0 78 -14q116 -31 275 -31q67 0 67 39q0 21 -12 31q-12 11 -49 18zM473 -92h84q82 0 82 -92q0 -217 -125 -363q-40 -49 -82 -49q-34 0 -74 21q-41 21 -41 57q0 17 19 63q39 105 39 273q0 47 22 68q24 22 76 22z
" />
    <glyph glyph-name="uni021A" unicode="&#x21a;" horiz-adv-x="1316" 
d="M842 74q0 -36 -21 -55q-20 -19 -51 -19h-256q-68 0 -68 74v1044h-303q-69 0 -69 58v202q0 38 16 53t53 15h1004q36 0 53 -15t17 -53v-202q0 -58 -70 -58h-305v-1044zM623 -92h84q81 0 81 -92q0 -218 -124 -363q-40 -49 -82 -49q-34 0 -74 21q-41 21 -41 57q0 20 18 63
q39 105 39 273q0 47 23 68q24 22 76 22z" />
    <glyph glyph-name="uni021B" unicode="&#x21b;" horiz-adv-x="806" 
d="M557 453q0 -112 39 -142q22 -19 143 -30q58 -6 58 -68q0 -102 -6 -158q-6 -69 -82 -69q-206 0 -307 25q-104 25 -156 93q-46 58 -58 134q-12 77 -12 221v278h-88q-31 0 -49 18q-19 19 -19 48v162q0 29 19 50q18 19 53 19h92q1 48 11 199q6 76 69 76h232q61 0 61 -80v-195
h135q80 0 80 -67v-164q0 -31 -20 -48q-21 -18 -54 -18h-141v-284zM418 -92h84q82 0 82 -92q0 -217 -125 -363q-40 -49 -82 -49q-33 0 -74 21t-41 57q0 17 19 63q38 102 38 273q0 47 23 68q24 22 76 22z" />
    <glyph glyph-name="circumflex" unicode="&#x2c6;" horiz-adv-x="403" 
d="M10 1186q-50 0 -94 6q-63 8 -63 49q0 23 22 51l160 215q45 62 110 62h117q42 0 61 -10q21 -11 44 -43l165 -224q21 -27 21 -51q0 -43 -61 -49q-56 -6 -99 -6q-55 0 -94 47l-96 113l-99 -115q-39 -45 -94 -45z" />
    <glyph glyph-name="caron" unicode="&#x2c7;" horiz-adv-x="403" 
d="M395 1577q51 0 94 -6q64 -8 64 -49q0 -23 -23 -52l-159 -215q-45 -61 -111 -61h-117q-42 0 -60 11q-20 13 -44 42l-166 223q-20 26 -20 52q0 43 61 49q56 6 98 6q55 0 94 -47l97 -113l98 115q39 45 94 45z" />
    <glyph glyph-name="breve" unicode="&#x2d8;" horiz-adv-x="403" 
d="M412 1544q38 0 73 -6q50 -8 50 -59q0 -57 -15 -101q-34 -103 -105 -156t-220 -53q-261 0 -314 203q-10 39 -10 94q0 62 61 72q30 6 74 6q30 0 44 -12q15 -13 22 -47q23 -107 131 -107q44 0 75 17q27 15 39 35t23 51q12 36 27 50q14 13 45 13z" />
    <glyph glyph-name="dotaccent" unicode="&#x2d9;" horiz-adv-x="403" 
d="M350 1339q0 -157 -149 -157q-148 0 -148 155q0 158 148 158q149 0 149 -156z" />
    <glyph glyph-name="ring" unicode="&#x2da;" horiz-adv-x="403" 
d="M410 1372q0 -97 -59 -150t-154 -53q-92 0 -148 53q-55 52 -55 150t57 154q56 55 152 55t151 -55q56 -56 56 -154zM309 1376q0 119 -110 119q-50 0 -80 -32q-31 -33 -31 -89q0 -58 30 -88q31 -31 83 -31q108 0 108 121z" />
    <glyph glyph-name="ogonek" unicode="&#x2db;" horiz-adv-x="403" 
d="M430 20q-7 -5 -47 -34q-13 -10 -28 -21.5t-16 -12.5q-12 -9 -36 -30q-29 -25 -34 -32q-3 -4 -25 -30q-18 -22 -22 -34q-9 -29 -10 -35q-5 -23 -5 -41q0 -84 78 -84q29 0 51 1t37 1q47 0 57 -51q6 -30 6 -76q0 -47 -67 -59q-49 -10 -131 -10q-144 0 -205 58
q-62 59 -62 173q0 126 70 196q68 68 197 121h192z" />
    <glyph glyph-name="tilde" unicode="&#x2dc;" horiz-adv-x="403" 
d="M-39 1178q-48 0 -68 4q-53 11 -53 55q0 15 15 59q46 111 93 162q48 53 115 53q45 0 150 -49q67 -32 102 -32q43 0 66 45q23 47 76 47q23 0 63 -4q28 -4 41 -14q12 -9 12 -36q0 -31 -26 -100q-61 -174 -191 -174q-60 0 -168 53q-63 29 -82 29q-40 0 -63 -39
q-34 -59 -82 -59z" />
    <glyph glyph-name="hungarumlaut" unicode="&#x2dd;" horiz-adv-x="403" 
d="M20 1231q-49 -45 -104 -45q-62 0 -86 6q-53 12 -53 47q0 25 22 57l142 220q39 55 104 55q57 0 123 -6q70 -6 70 -47q0 -29 -29 -64zM410 1231q-50 -45 -105 -45q-62 0 -86 6q-53 12 -53 47q0 25 22 57l142 220q39 55 104 55q60 0 123 -6q70 -6 70 -47q0 -29 -29 -64z" />
    <glyph glyph-name="uni0394" unicode="&#x394;" horiz-adv-x="1566" 
d="M1511 113q9 -27 9 -45q0 -68 -82 -68h-1309q-82 0 -82 66q0 21 8 45l480 1194q18 45 38 61t64 16h313q45 0 63 -17q20 -19 36 -60zM793 997q-35 -107 -250 -673h473q-45 126 -61 172q-42 122 -47 137q-5 14 -16.5 47t-17.5 52q-21 63 -27 80q-17 47 -19 55q-12 40 -14 48
q-1 5 -4.5 18t-5.5 20z" />
    <glyph glyph-name="uni03A9" unicode="&#x3a9;" horiz-adv-x="1564" 
d="M727 82q0 -46 -25 -65q-23 -17 -77 -17h-418q-50 0 -67 14t-17 56v163q0 49 18 67q17 17 64 17h264q-169 62 -254 168q-86 107 -86 326q0 303 159 453q158 149 500 149q359 0 501 -145q143 -146 143 -451q0 -205 -89 -323t-253 -177h262q52 0 69 -17q19 -19 19 -67v-151
q0 -52 -15 -67t-63 -15h-420q-55 0 -78 17q-24 18 -24 65v258q0 87 75 127q109 61 109 297q0 111 -14 174q-15 69 -48 100q-34 32 -73 43q-41 11 -103 11q-131 0 -188 -72t-57 -264q0 -228 110 -293q76 -43 76 -125v-256z" />
    <glyph glyph-name="uni03BC" unicode="&#x3bc;" horiz-adv-x="1265" 
d="M510 -348q0 -33 -18 -51q-19 -19 -48 -19h-254q-61 0 -61 70v1313q0 69 61 69h259q61 0 61 -69v-553q0 -65 10 -88q18 -45 92 -45q59 0 86 6q35 11 41 16q15 12 15 45v619q0 33 18 51t47 18h254q62 0 62 -69v-797q0 -103 -82 -133q-154 -58 -391 -58q-95 0 -152 15v-340z
" />
    <glyph glyph-name="pi" unicode="&#x3c0;" horiz-adv-x="1351" 
d="M575 84q0 -50 -17 -67t-64 -17h-209q-48 0 -65 20t-17 64v645h-31q-49 0 -67 15q-17 14 -17 61v147q0 43 20 63q19 19 68 19h1002q96 0 96 -84v-143q0 -78 -84 -78h-31v-338q0 -127 4 -174q0 -13 6 -62q7 -58 7 -73q0 -40 -15 -58t-57 -22q-78 -8 -211 -8q-75 0 -86 80
q-14 106 -14 313v342h-218v-645z" />
    <glyph glyph-name="Wgrave" unicode="&#x1e80;" horiz-adv-x="1986" 
d="M999 1010q-23 -164 -151 -820q-21 -110 -75 -154q-55 -44 -167 -44h-104q-101 0 -157 43q-57 43 -79 149l-227 1114q-10 44 -10 84q0 56 63 60q156 10 279 10q63 0 75 -74q136 -820 158 -1009q34 242 166 886q18 90 58 127t130 37h86q104 0 144 -31q41 -32 59 -128
q139 -732 162 -893q30 264 147 1005q12 80 78 80q215 0 281 -12q18 -2 31 -19q12 -17 12 -32q0 -33 -10 -86l-217 -1113q-17 -97 -69 -149q-49 -49 -169 -49h-86q-124 0 -180 44q-55 43 -78 157q-131 684 -150 817zM905 1579l-293 188q-39 24 -39 62q0 41 68 47q102 8 197 8
q61 0 118 -51l205 -180q33 -30 33 -60q0 -35 -49 -41q-56 -6 -119 -6q-66 0 -121 33z" />
    <glyph glyph-name="wgrave" unicode="&#x1e81;" horiz-adv-x="1667" 
d="M840 645q-16 -102 -109 -502q-21 -88 -76 -119q-56 -32 -166 -32h-53q-90 0 -142 34q-54 35 -71 115l-164 752q-10 44 -10 80q0 51 49 57q69 10 279 10q59 0 69 -59q58 -349 97 -645q22 159 94 510q16 83 57 121q40 37 125 37h49q84 0 124 -34q41 -35 59 -112
q71 -300 112 -522q21 243 78 641q11 63 70 63q186 0 260 -10q51 -8 51 -57q0 -19 -10 -62l-164 -768q-18 -81 -73 -116t-156 -35h-52q-193 0 -223 149q-89 419 -104 504zM719 1231l-219 223q-35 35 -35 66q0 39 65 45q78 6 172 6q68 0 107 -55l162 -220q22 -28 22 -57
q0 -41 -53 -47q-50 -6 -111 -6t-110 45z" />
    <glyph glyph-name="Wacute" unicode="&#x1e82;" horiz-adv-x="1986" 
d="M999 1010q-23 -164 -151 -820q-21 -110 -75 -154q-55 -44 -167 -44h-104q-101 0 -157 43q-57 43 -79 149l-227 1114q-10 44 -10 84q0 56 63 60q156 10 279 10q63 0 75 -74q136 -820 158 -1009q34 242 166 886q18 90 58 127t130 37h86q104 0 144 -31q41 -32 59 -128
q139 -732 162 -893q30 264 147 1005q12 80 78 80q215 0 281 -12q18 -2 31 -19q12 -17 12 -32q0 -33 -10 -86l-217 -1113q-17 -97 -69 -149q-49 -49 -169 -49h-86q-124 0 -180 44q-55 43 -78 157q-131 684 -150 817zM1112 1579q-56 -33 -121 -33q-63 0 -119 6q-49 6 -49 41
q0 30 33 60l205 180q57 51 119 51q84 0 196 -8q68 -6 68 -47q0 -37 -43 -64z" />
    <glyph glyph-name="wacute" unicode="&#x1e83;" horiz-adv-x="1667" 
d="M840 645q-16 -102 -109 -502q-21 -88 -76 -119q-56 -32 -166 -32h-53q-90 0 -142 34q-54 35 -71 115l-164 752q-10 44 -10 80q0 51 49 57q69 10 279 10q59 0 69 -59q58 -349 97 -645q22 159 94 510q16 83 57 121q40 37 125 37h49q84 0 124 -34q41 -35 59 -112
q71 -300 112 -522q21 243 78 641q11 63 70 63q186 0 260 -10q51 -8 51 -57q0 -19 -10 -62l-164 -768q-18 -81 -73 -116t-156 -35h-52q-193 0 -223 149q-89 419 -104 504zM963 1231q-43 -45 -111 -45q-62 0 -111 6q-53 6 -53 47q0 28 23 57l161 220q40 55 107 55q94 0 172 -6
q66 -6 66 -45q0 -31 -35 -66z" />
    <glyph glyph-name="Wdieresis" unicode="&#x1e84;" horiz-adv-x="1986" 
d="M999 1010q-23 -164 -151 -820q-21 -110 -75 -154q-55 -44 -167 -44h-104q-101 0 -157 43q-57 43 -79 149l-227 1114q-10 44 -10 84q0 56 63 60q156 10 279 10q63 0 75 -74q136 -820 158 -1009q34 242 166 886q18 90 58 127t130 37h86q104 0 144 -31q41 -32 59 -128
q139 -732 162 -893q30 264 147 1005q12 80 78 80q215 0 281 -12q18 -2 31 -19q12 -17 12 -32q0 -33 -10 -86l-217 -1113q-17 -97 -69 -149q-49 -49 -169 -49h-86q-124 0 -180 44q-55 43 -78 157q-131 684 -150 817zM938 1708q0 -158 -150 -158q-147 0 -147 156
q0 158 147 158q150 0 150 -156zM1364 1708q0 -158 -150 -158q-147 0 -147 156q0 158 147 158q150 0 150 -156z" />
    <glyph glyph-name="wdieresis" unicode="&#x1e85;" horiz-adv-x="1667" 
d="M840 645q-16 -102 -109 -502q-21 -88 -76 -119q-56 -32 -166 -32h-53q-90 0 -142 34q-54 35 -71 115l-164 752q-10 44 -10 80q0 51 49 57q69 10 279 10q59 0 69 -59q58 -349 97 -645q22 159 94 510q16 83 57 121q40 37 125 37h49q84 0 124 -34q41 -35 59 -112
q71 -300 112 -522q21 243 78 641q11 63 70 63q186 0 260 -10q51 -8 51 -57q0 -19 -10 -62l-164 -768q-18 -81 -73 -116t-156 -35h-52q-193 0 -223 149q-89 419 -104 504zM788 1339q0 -157 -149 -157q-147 0 -147 155q0 158 147 158q149 0 149 -156zM1194 1339
q0 -157 -150 -157q-147 0 -147 155q0 158 147 158q150 0 150 -156z" />
    <glyph glyph-name="Ygrave" unicode="&#x1ef2;" horiz-adv-x="1343" 
d="M870 74q0 -36 -21 -55q-20 -19 -50 -19h-254q-68 0 -68 74v506l-440 741q-29 50 -29 72q0 35 33 47q23 10 336 10q62 0 100 -68q127 -243 209 -413l217 413q38 68 98 68q281 0 308 -14q26 -12 26 -41q0 -31 -26 -74l-439 -731v-516zM565 1579l-293 188q-39 24 -39 62
q0 41 68 47q102 8 197 8q61 0 118 -51l205 -180q33 -30 33 -60q0 -35 -49 -41q-55 -6 -119 -6q-66 0 -121 33z" />
    <glyph glyph-name="ygrave" unicode="&#x1ef3;" horiz-adv-x="1234" 
d="M115 307v658q0 69 61 69h258q62 0 62 -69v-570q0 -47 6 -69q12 -45 92 -45q47 0 90 10q29 8 41 18q14 11 14 45v611q0 32 19 51q18 18 47 18h254q61 0 61 -69v-852q0 -200 -16 -271q-40 -180 -250 -252q-206 -71 -557 -71q-43 0 -60 14q-18 15 -22 51q-8 67 -8 154
q0 83 67 84q247 12 343 35q94 23 106 69q8 30 8 76v18q-99 -45 -280 -45q-264 0 -314 131q-22 59 -22 201zM522 1231l-219 223q-35 35 -35 66q0 39 66 45q77 6 172 6q67 0 106 -55l162 -220q23 -29 23 -57q0 -41 -54 -47q-50 -6 -110 -6q-61 0 -111 45z" />
    <glyph glyph-name="endash" unicode="&#x2013;" horiz-adv-x="1150" 
d="M1018 406h-883q-69 0 -69 65v164q0 61 69 61h881q69 0 69 -63v-168q0 -35 -16 -47q-17 -12 -51 -12z" />
    <glyph glyph-name="emdash" unicode="&#x2014;" horiz-adv-x="1783" 
d="M1651 406h-1516q-69 0 -69 65v164q0 61 69 61h1514q69 0 69 -63v-168q0 -35 -16 -47t-51 -12z" />
    <glyph glyph-name="quoteleft" unicode="&#x2018;" horiz-adv-x="487" 
d="M260 864h-121q-90 0 -90 92q0 130 54 286t137 245q50 53 90 53q44 0 88 -24q47 -24 47 -64q0 -27 -23 -68q-82 -158 -82 -417q0 -103 -100 -103z" />
    <glyph glyph-name="quoteright" unicode="&#x2019;" horiz-adv-x="487" 
d="M225 1536h121q90 0 90 -92q0 -130 -54 -286q-55 -158 -136 -245q-50 -53 -90 -53q-43 0 -88 25q-48 25 -48 63q0 27 23 68q82 158 82 418q0 102 100 102z" />
    <glyph glyph-name="quotesinglbase" unicode="&#x201a;" horiz-adv-x="489" 
d="M225 262h121q90 0 90 -92q0 -130 -54 -286t-136 -244q-51 -54 -90 -54q-43 0 -88 25q-48 25 -48 63q0 27 23 68q82 158 82 418q0 102 100 102z" />
    <glyph glyph-name="quotedblleft" unicode="&#x201c;" horiz-adv-x="917" 
d="M260 864h-121q-90 0 -90 94q0 129 54 285q53 154 137 244q50 53 90 53q44 0 88 -24q47 -24 47 -64q0 -27 -23 -68q-82 -158 -82 -417q0 -103 -100 -103zM690 864h-121q-90 0 -90 94q0 126 55 285q54 156 136 244q50 53 90 53q44 0 88 -24q47 -24 47 -64q0 -27 -23 -68
q-81 -156 -81 -417q0 -103 -101 -103z" />
    <glyph glyph-name="quotedblright" unicode="&#x201d;" horiz-adv-x="917" 
d="M655 1536h121q90 0 90 -92q0 -130 -54 -286q-55 -158 -136 -245q-50 -53 -90 -53q-43 0 -88 25q-47 24 -47 63q0 28 22 68q82 158 82 418q0 102 100 102zM225 1536h121q90 0 90 -92q0 -130 -54 -286q-55 -158 -136 -245q-50 -53 -90 -53q-43 0 -88 25q-48 25 -48 63
q0 27 23 68q82 158 82 418q0 102 100 102z" />
    <glyph glyph-name="quotedblbase" unicode="&#x201e;" horiz-adv-x="919" 
d="M655 262h121q90 0 90 -92q0 -130 -54 -286t-136 -244q-51 -54 -90 -54q-43 0 -88 25q-47 24 -47 63q0 28 22 68q82 158 82 418q0 102 100 102zM225 262h121q90 0 90 -92q0 -130 -54 -286t-136 -244q-51 -54 -90 -54q-43 0 -88 25q-48 25 -48 63q0 27 23 68q82 158 82 418
q0 102 100 102z" />
    <glyph glyph-name="dagger" unicode="&#x2020;" horiz-adv-x="999" 
d="M668 -117q0 -59 -54 -59h-229q-53 0 -53 59v908h-221q-52 0 -52 49v209q0 49 47 49h226v309q0 59 55 59h229q52 0 52 -59v-309h223q28 0 39 -11q10 -10 10 -34v-217q0 -45 -47 -45h-225v-908z" />
    <glyph glyph-name="daggerdbl" unicode="&#x2021;" horiz-adv-x="999" 
d="M668 -117q0 -59 -54 -59h-229q-53 0 -53 59v285h-221q-52 0 -52 49v209q0 49 47 49h226v316h-221q-52 0 -52 49v209q0 49 47 49h226v309q0 59 55 59h229q52 0 52 -59v-309h223q28 0 39 -11q10 -10 10 -34v-217q0 -45 -47 -45h-225v-316h223q29 0 39 -10t10 -35v-217
q0 -45 -47 -45h-225v-285z" />
    <glyph glyph-name="bullet" unicode="&#x2022;" horiz-adv-x="821" 
d="M725 526q0 -323 -315 -323q-314 0 -314 319q0 324 314 324q152 0 234 -74q81 -74 81 -246z" />
    <glyph glyph-name="ellipsis" unicode="&#x2026;" horiz-adv-x="2209" 
d="M633 180q0 -205 -207 -205q-84 0 -142 47q-57 47 -57 156q0 211 205 211q94 0 147 -46q54 -47 54 -163zM1307 180q0 -205 -207 -205q-85 0 -143 47q-56 46 -56 156q0 211 205 211q93 0 146 -46q55 -47 55 -163zM1982 180q0 -205 -206 -205q-85 0 -143 47q-56 46 -56 156
q0 211 205 211q93 0 146 -46q54 -46 54 -163z" />
    <glyph glyph-name="perthousand" unicode="&#x2030;" horiz-adv-x="2627" 
d="M762 969q0 -256 -80 -351q-79 -94 -276 -94q-192 0 -268 93q-77 94 -77 352q0 248 90 341q88 91 265 91q129 0 200 -31q70 -30 108 -126t38 -275zM500 963q0 157 -15 197t-75 40q-54 0 -72 -45q-19 -47 -19 -190q0 -151 19 -199q18 -45 72 -45q53 0 71 44q19 46 19 198z
M645 -29q-21 -37 -55 -37q-41 0 -68 5q-24 6 -24 26q0 17 12 41l678 1405q22 49 61 49q41 0 66 -4q28 -4 28 -29q0 -11 -16 -47zM1765 428q0 -256 -79 -350t-277 -94q-191 0 -267 93q-77 94 -77 351q0 249 89 341q88 91 265 91q130 0 201 -31q69 -30 107 -126t38 -275z
M1503 422q0 160 -14 198q-14 39 -76 39q-54 0 -72 -45t-18 -190q0 -154 18 -199t72 -45t72 44q18 43 18 198zM2566 428q0 -255 -80 -350q-79 -94 -276 -94q-190 0 -267 93q-77 94 -77 351q0 249 89 341q88 91 265 91q130 0 201 -31q69 -30 107 -126t38 -275zM2304 422
q0 160 -14 198q-14 39 -76 39q-54 0 -72 -45t-18 -190q0 -154 18 -199t72 -45t72 44t18 198z" />
    <glyph glyph-name="guilsinglleft" unicode="&#x2039;" horiz-adv-x="716" 
d="M385 545l229 -316q21 -24 21 -51q0 -33 -39 -39q-78 -8 -168 -8q-45 0 -82 43l-246 303q-28 37 -28 66q0 31 24 61l244 305q42 54 90 54q80 0 166 -9q39 -4 39 -34q0 -24 -25 -60z" />
    <glyph glyph-name="guilsinglright" unicode="&#x203a;" horiz-adv-x="716" 
d="M332 549l-230 315q-20 23 -20 51q0 33 39 39q88 9 168 9q45 0 82 -43l245 -304q29 -38 29 -65q0 -32 -24 -62l-244 -305q-41 -53 -90 -53q-89 0 -166 8q-39 5 -39 35q0 24 24 59z" />
    <glyph glyph-name="fraction" unicode="&#x2044;" horiz-adv-x="172" 
d="M-188 -29q-21 -37 -56 -37q-40 0 -67 5q-25 6 -25 26q0 17 12 41l678 1405q22 49 62 49t65 -4q29 -5 29 -29q0 -11 -16 -47z" />
    <glyph glyph-name="zero.superior" unicode="&#x2070;" 
d="M762 1288q0 -255 -80 -350q-79 -94 -276 -94q-192 0 -268 93q-77 94 -77 351q0 248 90 341q88 91 265 91q131 0 200 -30q70 -30 108 -126t38 -276zM500 1282q0 158 -15 198t-75 40q-54 0 -72 -45q-19 -47 -19 -191q0 -152 19 -199q18 -45 72 -45q53 0 71 44q19 46 19 198
z" />
    <glyph glyph-name="four.superior" unicode="&#x2074;" 
d="M686 907q0 -23 -13 -35t-34 -12h-154q-45 0 -45 47v115h-260q-65 0 -94 22q-31 23 -31 80q0 63 41 142l205 401q23 41 70 41q154 0 178 -6q18 -8 18 -25t-8 -35l-225 -411h106v80q0 49 47 49h156q43 0 43 -45v-84h31q53 0 53 -43v-127q0 -39 -53 -39h-31v-115z" />
    <glyph glyph-name="five.superior" unicode="&#x2075;" 
d="M342 1386q6 0 24.5 1.5t28.5 1.5q46 2 56 2q148 0 212 -50q62 -49 62 -213q0 -140 -80 -212q-79 -72 -285 -72q-158 0 -237 20q-35 11 -35 41q0 31 21 117q6 35 38 35q9 0 64 -6q59 -7 131 -7q70 0 94 13q23 12 23 61q0 47 -27 59q-25 11 -88 11q-26 0 -51 -1t-55 -1
q-119 0 -119 102q0 41 4 96l14 273q1 19 15 34q12 13 28 13h451q43 0 43 -39v-129q0 -39 -49 -39h-279z" />
    <glyph glyph-name="six.superior" unicode="&#x2076;" 
d="M338 1370q60 39 160 39q147 0 205 -61q59 -62 59 -218q0 -152 -78 -219q-77 -67 -252 -67q-201 0 -274 98q-74 100 -74 334q0 235 94 339q95 105 295 105q127 0 197 -16q37 -7 37 -43q0 -64 -17 -123q-8 -27 -35 -27q-5 0 -84 7q-33 4 -88 4q-77 0 -111 -30t-34 -122z
M344 1143q0 -39 8 -68q10 -39 80 -39q47 0 69 19q21 18 21 71q0 42 -14 62q-14 19 -31 24q-18 5 -45 5q-67 0 -82 -33q-6 -12 -6 -41z" />
    <glyph glyph-name="seven.superior" unicode="&#x2077;" 
d="M446 1497h-337q-48 0 -48 39v129q0 39 48 39h495q137 0 137 -98q0 -61 -30 -133l-232 -562q-24 -57 -76 -57q-93 0 -165 8q-41 6 -41 41q0 25 12 53z" />
    <glyph glyph-name="eight.superior" unicode="&#x2078;" 
d="M592 1307q162 -27 162 -205q0 -135 -75 -197q-74 -61 -271 -61q-190 0 -263 60t-73 192q0 172 168 207q-148 35 -148 182q0 127 79 181q80 54 251 54q169 0 243 -55t74 -176q0 -149 -147 -182zM500 1118q0 74 -88 74q-50 0 -70 -17t-20 -61q0 -80 90 -80q88 0 88 84z
M487 1454q0 41 -16 56q-18 16 -59 16q-78 0 -78 -72q0 -35 15 -50t61 -15q42 0 60 15q17 14 17 50z" />
    <glyph glyph-name="nine.superior" unicode="&#x2079;" 
d="M492 1198q-61 -41 -158 -41q-147 0 -206 61q-58 59 -58 214q0 151 82 220q81 68 258 68q198 0 266 -98q69 -99 69 -336t-95 -341q-94 -103 -306 -103q-146 0 -197 16q-36 10 -36 39q0 51 18 125q6 29 39 29q4 0 72 -9q40 -4 104 -4q80 0 114 34t34 126zM487 1427
q0 46 -12 70q-17 31 -76 31q-49 0 -70 -18q-22 -19 -22 -72q0 -41 15 -62q14 -20 29 -23t46 -3q77 0 84 32q6 18 6 45z" />
    <glyph glyph-name="parenleft.superior" unicode="&#x207d;" horiz-adv-x="483" 
d="M283 1245q0 -206 42 -311q41 -103 134 -193q10 -10 10 -24q0 -19 -20 -35t-37 -16q-27 0 -60 20q-110 55 -196 191t-86 368q0 161 52 286q53 127 108 182q53 53 120 93q41 21 62 21q19 0 34 -15q25 -25 25 -36q0 -17 -10 -27q-87 -79 -133 -191q-45 -111 -45 -313z" />
    <glyph glyph-name="parenright.superior" unicode="&#x207e;" horiz-adv-x="483" 
d="M201 1247q0 207 -42 312q-41 102 -134 192q-11 11 -11 25q0 18 21 34q22 17 37 17q24 0 59 -21q112 -56 197 -190q86 -136 86 -369q0 -158 -53 -285q-54 -129 -108 -183q-53 -53 -120 -93q-39 -20 -61 -20q-21 0 -35 14q-25 25 -25 37q0 15 11 26q87 78 133 192
q45 111 45 312z" />
    <glyph glyph-name="n.superior" unicode="&#x207f;" horiz-adv-x="798" 
d="M334 586q0 -45 -45 -45h-172q-41 0 -41 45v471q0 64 53 82q137 51 379 51q170 0 199 -80q16 -36 16 -123v-401q0 -45 -41 -45h-176q-39 0 -39 45v344q0 24 -4 37q-7 24 -51 24q-29 0 -43 -2q-20 -5 -27 -12q-8 -6 -8 -25v-366z" />
    <glyph glyph-name="zero.inferior" unicode="&#x2080;" 
d="M762 170q0 -255 -80 -350q-79 -94 -276 -94q-192 0 -268 93q-77 94 -77 351q0 248 90 341q88 91 265 91q129 0 200 -31q70 -30 108 -126t38 -275zM500 164q0 156 -15 197q-15 40 -75 40q-54 0 -72 -45q-19 -48 -19 -190q0 -152 19 -199q18 -45 72 -45q53 0 71 44
q19 46 19 198z" />
    <glyph glyph-name="one.inferior" unicode="&#x2081;" 
d="M672 -256h-420q-23 0 -36 13t-13 32v121q0 43 49 43h94v401l-98 -32q-18 -7 -33 -7q-25 0 -31 25q-41 123 -41 135q0 18 23 29l166 63q52 21 135 21h20q60 0 87 -24q28 -25 28 -81v-530h68q22 0 36 -12q13 -12 13 -33v-121q0 -43 -47 -43z" />
    <glyph glyph-name="two.inferior" unicode="&#x2082;" 
d="M709 -258h-531q-64 0 -86 27q-22 26 -22 77q0 53 16 76q19 27 53 49q95 65 228 181q88 78 88 147q0 59 -31 81q-30 21 -96 21q-47 0 -117 -8q-49 -6 -51 -6q-26 0 -31 23q-16 83 -16 125q0 31 32 38q102 29 265 29q186 0 245 -68q60 -69 60 -198q0 -125 -92 -217
q-79 -79 -226 -170q102 2 312 2q45 0 45 -41v-125q0 -43 -45 -43z" />
    <glyph glyph-name="three.inferior" unicode="&#x2083;" 
d="M512 190q110 -11 154 -56q45 -46 45 -150q0 -126 -74 -192q-73 -66 -289 -66q-152 0 -231 20q-35 11 -35 41q0 47 22 125q8 27 37 27q1 0 8 -1t21.5 -2.5t30.5 -3.5q53 -6 133 -6q67 0 92 17t25 55q0 42 -24 54q-23 11 -93 16q-51 1 -69 26q-17 23 -17 80q0 45 18 69
q17 23 70 31q50 6 67 18t17 44q0 35 -22 51q-20 14 -85 14q-51 0 -112 -6q-33 -4 -49 -4q-24 0 -29 23q-14 69 -14 127q0 32 32 39q78 22 234 22q190 0 246 -53q55 -52 55 -184q0 -145 -164 -175z" />
    <glyph glyph-name="four.inferior" unicode="&#x2084;" 
d="M686 -211q0 -23 -13 -35t-34 -12h-154q-45 0 -45 47v115h-260q-65 0 -94 22q-31 23 -31 80q0 62 41 141l205 402q23 41 70 41q154 0 178 -6q18 -8 18 -25t-8 -35l-225 -411h106v80q0 49 47 49h156q43 0 43 -45v-84h31q53 0 53 -43v-127q0 -39 -53 -39h-31v-115z" />
    <glyph glyph-name="five.inferior" unicode="&#x2085;" 
d="M342 268q7 0 53 2t56 2q150 0 212 -49t62 -213q0 -140 -80 -212q-79 -72 -285 -72q-158 0 -237 20q-35 11 -35 41q0 31 21 117q6 35 38 35q2 0 9.5 -1t24 -2.5t30.5 -3.5q51 -6 131 -6q70 0 94 13q23 12 23 61q0 46 -27 58t-88 12q-26 0 -51 -1t-55 -1q-119 0 -119 102
q0 41 4 96l14 273q1 18 15 33q12 14 28 14h451q43 0 43 -39v-129q0 -39 -49 -39h-279z" />
    <glyph glyph-name="six.inferior" unicode="&#x2086;" 
d="M338 252q60 39 160 39q146 0 205 -62t59 -217q0 -152 -78 -219q-77 -67 -252 -67q-201 0 -274 98q-74 100 -74 334q0 235 94 339q95 105 295 105q127 0 197 -16q37 -7 37 -43q0 -64 -17 -123q-8 -27 -35 -27q-17 0 -84 6q-33 4 -88 4q-78 0 -111 -29q-34 -30 -34 -122z
M344 25q0 -39 8 -68q10 -39 80 -39q47 0 69 19q21 18 21 71q0 42 -14 62q-14 19 -31 24q-15 4 -45 4q-67 0 -82 -32q-6 -12 -6 -41z" />
    <glyph glyph-name="seven.inferior" unicode="&#x2087;" 
d="M446 379h-337q-48 0 -48 39v129q0 39 48 39h495q137 0 137 -99q0 -61 -30 -133l-232 -561q-24 -57 -76 -57q-99 0 -165 8q-41 6 -41 41q0 25 12 53z" />
    <glyph glyph-name="eight.inferior" unicode="&#x2088;" 
d="M592 188q162 -27 162 -204q0 -136 -75 -197q-74 -61 -271 -61q-190 0 -263 60t-73 191q0 173 168 207q-148 35 -148 183q0 127 79 181t251 54q169 0 243 -55t74 -176q0 -150 -147 -183zM500 0q0 74 -88 74q-49 0 -70 -18q-20 -17 -20 -60q0 -80 90 -80q88 0 88 84z
M487 336q0 41 -16 56q-18 16 -59 16q-78 0 -78 -72q0 -35 15 -50q16 -16 61 -16q41 0 60 16q17 14 17 50z" />
    <glyph glyph-name="nine.inferior" unicode="&#x2089;" 
d="M492 80q-61 -41 -158 -41q-148 0 -206 60q-58 59 -58 214q0 152 82 221q81 68 258 68q198 0 266 -98q69 -99 69 -336t-95 -341q-94 -103 -306 -103q-146 0 -197 16q-36 10 -36 39q0 51 18 125q6 28 39 28q11 0 72 -8q40 -4 104 -4q80 0 114 34t34 126zM487 309
q0 46 -12 70q-17 31 -76 31q-49 0 -70 -18q-22 -19 -22 -73q0 -40 15 -61t29 -24q15 -3 46 -3q77 0 84 33q6 18 6 45z" />
    <glyph glyph-name="parenleft.inferior" unicode="&#x208d;" horiz-adv-x="483" 
d="M283 127q0 -206 42 -311q41 -103 134 -193q10 -10 10 -24q0 -19 -20 -35q-22 -17 -37 -17q-26 0 -60 21q-111 55 -196 190q-86 136 -86 369q0 161 52 286q53 127 108 182q53 53 120 93q40 21 62 21q19 0 34 -15q25 -25 25 -37q0 -16 -10 -26q-87 -78 -133 -192
q-45 -111 -45 -312z" />
    <glyph glyph-name="parenright.inferior" unicode="&#x208e;" horiz-adv-x="483" 
d="M201 129q0 206 -42 311q-41 103 -134 193q-11 11 -11 24q0 19 21 35q22 17 37 17q24 0 59 -21q112 -56 197 -190q86 -136 86 -369q0 -159 -53 -286t-108 -182q-53 -53 -120 -93q-41 -21 -61 -21t-35 15q-25 25 -25 37q0 15 11 26q87 78 133 192q45 111 45 312z" />
    <glyph glyph-name="Euro" unicode="&#x20ac;" horiz-adv-x="1380" 
d="M1030 754h-340v-58v-59h340q51 0 51 -49v-70q0 -51 -51 -51h-321q22 -106 77 -140t160 -34q99 0 215 31q39 10 62 10q25 0 37 -29q47 -130 47 -209q0 -41 -43 -57q-159 -66 -416 -66q-231 0 -363 112q-130 110 -163 382h-127q-52 0 -52 51v68q0 51 52 51h116v31
q0 48 2 86h-118q-52 0 -52 51v67q0 52 52 52h131q38 254 172 369q136 116 403 116q210 0 324 -33q49 -15 49 -61q0 -93 -39 -205q-15 -33 -41 -33q-5 0 -68 10q-84 13 -163 13q-110 0 -168 -35q-57 -35 -84 -141h319q51 0 51 -50v-69q0 -51 -51 -51z" />
    <glyph glyph-name="afii61289" unicode="&#x2113;" horiz-adv-x="1069" 
d="M545 442q6 -108 61 -144q56 -36 156 -36q62 0 110 14q47 13 62 13q61 0 78 -53q30 -96 30 -132q0 -53 -59 -77q-154 -54 -281 -54q-171 0 -290 64q-117 63 -168 223q-31 -22 -47 -29q-28 -16 -56 -16q-25 0 -42 16q-16 14 -50 72q-33 60 -33 82q0 43 54 72q68 39 114 69
q-14 94 -14 215q0 259 45 394q90 276 424 276q188 0 275 -91q87 -92 87 -243q0 -199 -157 -381q-92 -102 -299 -254zM500 743q95 75 157 156q62 77 62 156q0 86 -94 86q-72 0 -101 -62q-28 -56 -28 -219q0 -29 4 -117z" />
    <glyph glyph-name="trademark" unicode="&#x2122;" horiz-adv-x="1693" 
d="M465 791q0 -23 -13 -35q-15 -13 -34 -13h-117q-18 0 -32 14q-13 13 -13 34v475h-135q-43 0 -43 39v98q0 43 43 43h479q43 0 43 -43v-98q0 -39 -43 -39h-135v-475zM963 788q0 -45 -41 -45h-121q-43 0 -43 48v516q0 139 131 139h74q88 0 118 -88q51 -148 70 -221
q29 105 63 211q30 98 132 98h63q119 0 119 -137v-514q0 -52 -47 -52h-119q-43 0 -43 50q0 345 6 464q-42 -167 -88 -317q-6 -22 -27 -37q-20 -14 -47 -14h-33q-57 0 -75 55q-55 168 -97 313q5 -173 5 -469z" />
    <glyph glyph-name="Omega" unicode="&#x2126;" horiz-adv-x="1564" 
d="M727 82q0 -46 -25 -65q-23 -17 -77 -17h-418q-50 0 -67 14t-17 56v163q0 49 18 67q17 17 64 17h264q-169 62 -254 168q-86 107 -86 326q0 303 159 453q158 149 500 149q359 0 501 -145q143 -146 143 -451q0 -205 -89 -323t-253 -177h262q52 0 69 -17q19 -19 19 -67v-151
q0 -52 -15 -67t-63 -15h-420q-55 0 -78 17q-24 18 -24 65v258q0 87 75 127q109 61 109 297q0 111 -14 174q-15 69 -48 100q-34 32 -73 43q-41 11 -103 11q-131 0 -188 -72t-57 -264q0 -228 110 -293q76 -43 76 -125v-256z" />
    <glyph glyph-name="estimated" unicode="&#x212e;" horiz-adv-x="1730" 
d="M1645 688h-1262q-12 0 -12 -8v-399q0 -22 20 -45q195 -218 477 -218q302 0 500 242h117q-112 -132 -273 -208q-163 -77 -346 -77q-323 0 -552 215q-228 214 -228 519q0 302 228 517q227 214 552 214q324 0 551 -214q228 -215 228 -517v-21zM1362 741v400q0 26 -23 49
q-201 207 -471 207q-277 0 -475 -215q-22 -18 -22 -49v-392q0 -10 12 -10h967q12 0 12 10z" />
    <glyph glyph-name="onethird" unicode="&#x2153;" horiz-adv-x="1826" 
d="M1530 449q108 -11 153 -57q46 -48 46 -150q0 -126 -74 -192q-73 -66 -289 -66q-152 0 -231 20q-35 11 -35 41q0 47 22 125q8 27 37 27q1 0 8 -1t21.5 -2.5t30.5 -3.5q52 -6 133 -6q67 0 92 17q24 17 24 55q0 42 -23 54q-23 11 -93 16q-51 1 -69 26q-17 23 -17 80
q0 45 18 69q17 23 70 31q50 6 67 18t17 44q0 35 -22 51q-20 14 -85 14q-51 0 -112 -6q-33 -4 -50 -4q-23 0 -28 23q-15 73 -15 127q0 31 33 39q76 22 234 22q189 0 245 -53t56 -184q0 -144 -164 -174zM635 541h-420q-23 0 -36 13t-13 32v121q0 43 49 43h94v401l-98 -33
q-17 -6 -33 -6q-25 0 -31 25q-40 120 -40 135q0 18 22 28l166 64q50 20 135 20h21q61 0 87 -23q27 -24 27 -81v-530h68q21 0 36 -13q13 -12 13 -32v-121q0 -43 -47 -43zM629 -29q-21 -37 -56 -37q-40 0 -67 5q-25 6 -25 26q0 15 13 41l677 1405q22 49 62 49t65 -4
q29 -5 29 -29q0 -11 -16 -47z" />
    <glyph glyph-name="twothirds" unicode="&#x2154;" horiz-adv-x="1826" 
d="M684 -29q-21 -37 -55 -37q-41 0 -68 5q-24 6 -24 26q0 17 12 41l678 1405q22 49 61 49q41 0 66 -4q28 -4 28 -29q0 -11 -16 -47zM727 541h-530q-64 0 -86 26q-23 28 -23 78q0 53 16 76q18 26 54 49q96 66 227 180q88 78 88 148q0 59 -31 81q-30 21 -96 21q-47 0 -117 -8
q-49 -6 -51 -6q-27 0 -31 22q-16 83 -16 125q0 31 33 39q102 29 264 29q186 0 246 -69q59 -68 59 -197q0 -125 -92 -217q-81 -81 -225 -170q102 2 311 2q45 0 45 -41v-125q0 -43 -45 -43zM1550 449q109 -11 154 -57t45 -150q0 -126 -74 -192q-73 -66 -289 -66
q-152 0 -231 20q-35 11 -35 41q0 44 23 125q7 27 37 27q1 0 7.5 -1t21 -2.5t30.5 -3.5q53 -6 133 -6q67 0 92 17t25 55q0 42 -24 54q-23 11 -93 16q-50 1 -68 26q-18 24 -18 80q0 44 19 69q18 23 69 31q52 6 68 18t16 44q0 36 -21 51q-20 14 -85 14q-52 0 -113 -6
q-33 -4 -49 -4q-24 0 -29 23q-14 69 -14 127q0 31 33 39q76 22 233 22q190 0 246 -53q55 -52 55 -184q0 -144 -164 -174z" />
    <glyph glyph-name="oneeighth" unicode="&#x215b;" horiz-adv-x="1826" 
d="M1585 446q162 -27 162 -204q0 -136 -75 -197q-74 -61 -271 -61q-189 0 -262 60q-74 60 -74 192q0 171 168 206q-148 35 -148 183q0 127 79 181q80 54 251 54q169 0 243 -55q75 -56 75 -176q0 -150 -148 -183zM596 541h-420q-23 0 -36 13t-13 32v121q0 43 49 43h94v401
l-98 -33q-15 -6 -33 -6q-24 0 -30 25q-41 123 -41 135q0 18 22 28l166 64q50 20 135 20h21q61 0 87 -23q27 -24 27 -81v-530h68q21 0 36 -13q13 -12 13 -32v-121q0 -43 -47 -43zM594 -29q-21 -37 -55 -37q-41 0 -68 5q-25 6 -25 26q0 15 13 41l678 1405q22 49 61 49
q41 0 66 -4q28 -4 28 -29q0 -11 -16 -47zM1493 258q0 74 -88 74q-49 0 -70 -18q-20 -17 -20 -60q0 -80 90 -80q88 0 88 84zM1481 594q0 41 -17 56q-18 16 -59 16q-78 0 -78 -72q0 -35 15 -50q16 -16 61 -16q41 0 60 16q18 15 18 50z" />
    <glyph glyph-name="threeeighths" unicode="&#x215c;" horiz-adv-x="1826" 
d="M629 -29q-21 -37 -56 -37q-40 0 -67 5q-25 6 -25 26q0 15 13 41l677 1405q22 49 62 49t65 -4q29 -5 29 -29q0 -11 -16 -47zM528 989q110 -11 154 -56q45 -46 45 -151q0 -125 -74 -191q-75 -67 -288 -67q-149 0 -232 21q-35 11 -35 41q0 44 23 125q7 26 37 26q4 0 59 -6
q52 -6 133 -6q69 0 92 16q25 17 25 56q0 42 -24 54q-21 10 -93 15q-49 1 -68 27q-18 24 -18 80q0 43 19 68q18 25 69 32q52 6 68 18t16 44q0 36 -21 51q-20 14 -85 14q-52 0 -113 -6q-33 -4 -49 -4q-25 0 -29 22q-14 69 -14 127q0 31 33 39q81 23 233 23q190 0 246 -53
q55 -52 55 -185q0 -144 -164 -174zM1579 446q162 -27 162 -204q0 -135 -74 -197q-73 -61 -272 -61q-189 0 -262 60q-74 60 -74 192q0 171 168 206q-148 35 -148 183q0 127 79 181q80 54 251 54q169 0 243 -55t74 -176q0 -150 -147 -183zM1487 258q0 74 -88 74q-49 0 -70 -18
q-20 -17 -20 -60q0 -80 90 -80q88 0 88 84zM1475 594q0 41 -17 56q-18 16 -59 16q-78 0 -78 -72q0 -35 15 -50q16 -16 61 -16q41 0 60 16q18 15 18 50z" />
    <glyph glyph-name="fiveeighths" unicode="&#x215d;" horiz-adv-x="1826" 
d="M635 -29q-21 -37 -55 -37q-41 0 -68 5q-25 6 -25 26q0 15 13 41l678 1405q22 49 61 49q41 0 66 -4q28 -4 28 -29q0 -11 -16 -47zM358 1067q8 0 54 2t55 2q150 0 212 -49t62 -213q0 -140 -79 -212q-81 -73 -285 -73q-155 0 -238 21q-35 11 -35 41t21 116q6 35 39 35
q8 0 63 -6q51 -6 131 -6q72 0 95 12q22 12 22 62q0 46 -26 58q-25 11 -89 11q-26 0 -51 -1t-55 -1q-119 0 -119 103q0 41 4 96l15 272q1 20 14 34q12 13 29 13h450q43 0 43 -38v-129q0 -39 -49 -39h-279zM1587 446q162 -27 162 -204q0 -136 -75 -197q-74 -61 -271 -61
q-189 0 -262 60q-74 60 -74 192q0 171 168 206q-148 35 -148 183q0 127 79 181q80 54 251 54q169 0 243 -55q75 -56 75 -176q0 -150 -148 -183zM1495 258q0 74 -88 74q-49 0 -70 -18q-20 -17 -20 -60q0 -80 90 -80q88 0 88 84zM1483 594q0 41 -17 56q-18 16 -59 16
q-78 0 -78 -72q0 -34 16 -50t60 -16q41 0 60 16q18 15 18 50z" />
    <glyph glyph-name="seveneighths" unicode="&#x215e;" horiz-adv-x="1826" 
d="M537 -29q-21 -37 -56 -37q-40 0 -67 5q-25 6 -25 26q0 17 12 41l678 1405q22 49 62 49t65 -4q29 -5 29 -29q0 -11 -16 -47zM465 1178h-338q-47 0 -47 39v129q0 38 47 38h496q137 0 137 -98q0 -59 -31 -133l-231 -561q-24 -57 -76 -57q-60 0 -166 8q-41 2 -41 41
q0 24 12 53zM1509 446q162 -27 162 -204q0 -135 -74 -197q-73 -61 -272 -61q-189 0 -262 60q-74 60 -74 192q0 171 168 206q-147 34 -147 183q0 127 79 181t250 54q169 0 243 -55q75 -56 75 -176q0 -150 -148 -183zM1417 258q0 74 -88 74q-48 0 -69 -18t-21 -60
q0 -80 90 -80q88 0 88 84zM1405 594q0 41 -16 56q-18 16 -60 16q-78 0 -78 -72q0 -34 16 -50t60 -16q42 0 61 16q17 14 17 50z" />
    <glyph glyph-name="arrowleft" unicode="&#x2190;" horiz-adv-x="1572" 
d="M1378 860q58 0 90 -26q33 -27 33 -76v-140q0 -47 -31 -75q-30 -27 -79 -27q-641 0 -762 4q6 -5 245 -233q52 -47 52 -101q0 -35 -27 -65l-78 -82q-32 -33 -73 -37q-37 0 -72 35l-578 571q-35 35 -35 80t35 78l586 582q34 34 72 34q37 0 73 -36l72 -76q35 -35 35 -70
q0 -38 -39 -82q-217 -220 -266 -262q121 4 747 4z" />
    <glyph glyph-name="arrowup" unicode="&#x2191;" horiz-adv-x="1572" 
d="M610 123q0 626 4 747q-82 -95 -254 -262q-40 -37 -81 -37t-70 29l-76 72q-37 37 -37 73q0 37 35 72l582 586q33 35 78 35q44 0 79 -35l572 -578q35 -35 35 -71q-5 -42 -37 -74l-82 -78q-27 -24 -64 -24q-57 0 -102 49l-225 245q4 -121 4 -761q0 -50 -27 -80
q-28 -31 -76 -31h-155q-49 0 -76 33t-27 90z" />
    <glyph glyph-name="arrowright" unicode="&#x2192;" horiz-adv-x="1572" 
d="M195 860q626 0 747 -4q-49 42 -266 262q-39 44 -39 80q0 41 31 72l75 76q36 36 74 36t72 -34l586 -582q34 -33 34 -78q0 -46 -34 -80l-578 -571q-35 -35 -72 -35q-40 4 -73 37l-82 82q-29 34 -29 63q0 53 53 103q123 119 250 233q-121 -4 -762 -4q-50 0 -80 27t-30 75
v140q0 50 32 76t91 26z" />
    <glyph glyph-name="arrowdown" unicode="&#x2193;" horiz-adv-x="1572" 
d="M610 1260q0 57 27 90q26 32 76 32h155q49 0 76 -30t27 -80q0 -641 -4 -762l225 246q45 49 102 49q36 0 64 -25l82 -78q32 -32 37 -73q0 -37 -35 -72l-572 -577q-35 -35 -79 -35q-45 0 -78 35l-582 585q-35 35 -35 72t37 74l76 71q29 29 70 29t81 -37q172 -167 254 -262
q-4 121 -4 748z" />
    <glyph glyph-name="uni2196" unicode="&#x2196;" horiz-adv-x="1572" 
d="M1354 397q45 -45 45 -88q0 -38 -31 -69q-90 -96 -120 -117q-36 -25 -60 -25q-43 0 -80 37q-358 360 -524 547q12 -153 12 -354q0 -63 -31 -97q-26 -26 -67 -26h-127q-49 0 -78 26q-25 30 -25 76v813q0 47 33 80q29 31 92 31h813q46 0 76 -27q25 -30 25 -78v-104
q0 -49 -25 -74q-28 -28 -86 -28q-181 0 -373 8z" />
    <glyph glyph-name="uni2197" unicode="&#x2197;" horiz-adv-x="1572" 
d="M467 145q-45 -45 -88 -45q-39 0 -70 31q-93 87 -116 120q-25 36 -25 60q0 43 37 80l547 529q-166 -13 -355 -13q-62 0 -96 31q-27 27 -27 68v122q0 48 27 78q28 25 76 25h813q47 0 80 -33q30 -27 30 -92v-813q0 -47 -26 -76q-27 -24 -78 -24h-115q-49 0 -73 24
q-29 29 -29 86q0 171 8 363z" />
    <glyph glyph-name="uni2198" unicode="&#x2198;" horiz-adv-x="1572" 
d="M217 991q-45 45 -45 88q0 39 31 70q90 96 120 117q34 24 60 24q43 0 80 -37q366 -367 524 -546q-12 153 -12 354q0 62 31 96q27 27 67 27h127q48 0 78 -27q25 -28 25 -76v-813q0 -47 -33 -80q-28 -30 -92 -30h-813q-47 0 -76 26q-25 30 -25 78v105q0 48 25 73
q29 29 86 29q181 0 373 -8z" />
    <glyph glyph-name="uni2199" unicode="&#x2199;" horiz-adv-x="1572" 
d="M1102 1241q45 45 88 45q39 0 70 -31q95 -89 116 -119q25 -36 25 -61q0 -43 -37 -80q-438 -435 -547 -530q123 10 354 10q66 0 97 -29q26 -26 26 -67v-121q0 -49 -26 -78q-27 -24 -76 -24h-813q-48 0 -80 32q-31 29 -31 93v813q0 45 27 75q30 25 78 25h119q48 0 73 -25
q29 -29 29 -86q0 -180 -8 -372z" />
    <glyph glyph-name="partialdiff" unicode="&#x2202;" horiz-adv-x="1177" 
d="M733 844q-1 110 -18 178q-16 67 -51 97t-66 38q-32 8 -84 8q-74 0 -168 -24q-26 -8 -49 -8q-62 0 -74 49q-18 78 -18 98q0 63 61 84q161 47 305 47q103 0 173 -15t138 -63q66 -46 105 -131q39 -84 63 -225q23 -135 23 -342q0 -117 -12 -208q-12 -90 -48 -179
q-36 -88 -93 -147q-56 -58 -153 -93q-96 -35 -224 -35q-218 0 -335 103q-116 102 -116 348q0 247 116 357t343 110q132 0 182 -47zM748 590q-60 61 -164 61q-99 0 -143 -41t-44 -164q0 -136 36 -182q36 -47 130 -47q82 0 117 32q34 31 51 124q17 102 17 217z" />
    <glyph glyph-name="Delta" unicode="&#x2206;" horiz-adv-x="1566" 
d="M1511 113q9 -27 9 -45q0 -68 -82 -68h-1309q-82 0 -82 66q0 21 8 45l480 1194q18 45 38 61t64 16h313q45 0 63 -17q20 -19 36 -60zM793 997q-35 -107 -250 -673h473q-45 126 -61 172q-42 122 -47 137q-5 14 -16.5 47t-17.5 52q-21 63 -27 80q-17 47 -19 55q-12 40 -14 48
q-1 5 -4.5 18t-5.5 20z" />
    <glyph glyph-name="product" unicode="&#x220f;" horiz-adv-x="1492" 
d="M543 -182q0 -51 -20 -71q-19 -19 -70 -19h-203q-52 0 -72 19t-20 69v1474q0 94 96 94h987q94 0 94 -98v-1466q0 -51 -18 -72q-17 -20 -68 -20h-215q-49 0 -69 19q-21 19 -21 69v1243h-401v-1241z" />
    <glyph glyph-name="summation" unicode="&#x2211;" horiz-adv-x="1269" 
d="M1096 -272h-852q-183 0 -183 192q0 92 25 147q23 51 98 138l324 379l-369 430q-63 76 -63 166q0 204 184 204h834q55 0 77 -19q23 -20 23 -71v-159q0 -48 -23 -60t-86 -12h-522l336 -375q45 -52 45 -104q0 -54 -61 -121l-389 -410h608q56 0 79 -17t23 -65v-174
q0 -47 -23 -58q-22 -11 -85 -11z" />
    <glyph glyph-name="minus" unicode="&#x2212;" horiz-adv-x="1435" 
d="M1251 565q0 -82 -71 -82h-924q-72 0 -72 82v80q0 82 72 82h924q71 0 71 -82v-80z" />
    <glyph glyph-name="uni2215" unicode="&#x2215;" horiz-adv-x="172" 
d="M-188 -29q-21 -37 -56 -37q-40 0 -67 5q-25 6 -25 26q0 17 12 41l678 1405q22 49 62 49t65 -4q29 -5 29 -29q0 -11 -16 -47z" />
    <glyph glyph-name="uni2219" unicode="&#x2219;" horiz-adv-x="550" 
d="M477 547q0 -205 -207 -205q-86 0 -142 46t-56 157q0 211 204 211q94 0 147 -46q54 -47 54 -163z" />
    <glyph glyph-name="radical" unicode="&#x221a;" horiz-adv-x="1296" 
d="M782 -301q-12 -40 -28 -54q-18 -16 -54 -16h-147q-33 0 -51 13q-17 12 -35 47l-227 422l-64 -29q-32 -16 -57 -16q-32 0 -53 43q-35 78 -35 102q0 39 57 61l242 105q33 12 59 12t53 -53l185 -359l389 1385q21 70 88 70q48 0 102 -7q64 -8 64 -57q0 -14 -8 -49z" />
    <glyph glyph-name="infinity" unicode="&#x221e;" horiz-adv-x="1497" 
d="M748 776q78 87 159 131q79 43 185 43q134 0 223 -95q88 -94 88 -245q0 -156 -87 -252t-239 -96q-94 0 -170 45q-72 42 -157 135q-82 -90 -159 -135t-181 -45q-141 0 -229 86q-87 86 -87 248t90 258t236 96q95 0 172 -44q75 -42 156 -130zM606 610q-57 68 -95 96
q-39 29 -89 29q-49 0 -82 -36t-33 -97q0 -52 32 -89q31 -36 79 -36q52 0 94 31q43 32 94 102zM891 608q105 -129 184 -129q50 0 81 34q32 35 32 89q0 131 -111 131q-84 0 -186 -125z" />
    <glyph glyph-name="integral" unicode="&#x222b;" horiz-adv-x="718" 
d="M254 23q0 70 -4 143l-35 797q-4 84 -4 165q0 324 338 324q53 0 104 -4q46 -5 62 -18q18 -15 18 -50q0 -44 -12 -106q-7 -36 -24 -46q-15 -9 -50 -9q-12 0 -30 1t-46 1q-84 0 -84 -125q0 -75 2 -127l35 -803q4 -99 4 -174q0 -172 -94 -248t-270 -76q-45 0 -80 8
q-57 12 -57 60q0 55 10 104q12 66 72 66q12 0 28 -1t33 -1q42 0 63 24t21 95z" />
    <glyph glyph-name="approxequal" unicode="&#x2248;" horiz-adv-x="1435" 
d="M375 254q-43 -43 -76 -43q-42 0 -88 43q-41 35 -41 72q0 33 25 63q152 176 311 176q97 0 229 -71q103 -56 180 -56q82 0 144 62q49 49 78 49q33 0 86 -45q43 -34 43 -72q0 -27 -25 -61q-145 -181 -328 -181q-114 0 -231 66q-103 59 -170 59q-77 0 -137 -61zM375 766
q-43 -43 -76 -43q-42 0 -88 43q-41 35 -41 72q0 33 25 63q152 176 311 176q97 0 229 -71q103 -56 180 -56q82 0 144 62q49 49 78 49q33 0 86 -45q43 -37 43 -72q0 -27 -25 -61q-145 -181 -328 -181q-114 0 -231 66q-103 59 -170 59q-77 0 -137 -61z" />
    <glyph glyph-name="notequal" unicode="&#x2260;" horiz-adv-x="1435" 
d="M561 74q-17 -34 -33 -48q-17 -14 -49 -14q-44 0 -71 4q-48 6 -48 43q0 23 15 52l74 147h-193q-72 0 -72 82v72q0 82 72 82h307l109 223h-416q-72 0 -72 82v73q0 82 72 82h535l75 154q16 31 34 49q14 14 48 14q40 0 78 -6q39 -6 39 -43q0 -24 -14 -51l-58 -117h187
q71 0 71 -82v-73q0 -82 -71 -82h-303l-109 -223h412q71 0 71 -82v-72q0 -82 -71 -82h-529z" />
    </font>
</defs>
</svg>
