<?xml version="1.0" standalone="no"?>
<!DOCTYPE svg PUBLIC "-//W3C//DTD SVG 1.1//EN" "http://www.w3.org/Graphics/SVG/1.1/DTD/svg11.dtd" >
<svg xmlns="http://www.w3.org/2000/svg" xmlns:xlink="http://www.w3.org/1999/xlink" version="1.1">
<metadata>
Created by FontForge 20170731 at Sun Apr 18 19:44:24 2021
 By Aleksey,,,
Copyright (c) 2015 by Dieter Hofrichter. All rights reserved.
</metadata>
<defs>
<font id="Carnas-LightIt" horiz-adv-x="782" >
  <font-face 
    font-family="Carnas-LightIt"
    font-weight="400"
    font-style="italic"
    font-stretch="normal"
    units-per-em="2048"
    panose-1="2 0 5 3 0 0 0 9 0 3"
    ascent="1561"
    descent="-487"
    x-height="1010"
    cap-height="1450"
    bbox="-387 -551 2435 2011"
    underline-thickness="102"
    underline-position="-204"
    unicode-range="U+0020-FB04"
  />
<missing-glyph horiz-adv-x="1026" 
d="M0 0v1448h1026v-1448h-1026zM514 817l348 526h-698zM573 725l353 -526v1052zM164 102h698l-348 529zM102 1251v-1052l351 526z" />
    <glyph glyph-name="f_f" unicode="ff" horiz-adv-x="1261" 
d="M285 39q-6 -43 -47 -43h-68q-33 0 -33 29q0 15 4 30l176 828h-122q-33 0 -33 24q0 25 10 64t47 39h127l17 80q46 217 141 294q134 111 364 111q52 0 52 -37q0 -28 -5 -55q-2 -33 -41 -35q-119 -6 -185 -27q-68 -22 -107 -69q-44 -50 -74 -191l-16 -71h462l27 129
q46 210 139 288q134 111 367 111q51 0 51 -37q0 -35 -4 -55q-6 -35 -43 -35q-210 -1 -293 -98q-47 -61 -74 -187l-24 -116h229q31 0 31 -31q0 -29 -12 -68q-12 -28 -48 -28h-227l-180 -844q-10 -43 -47 -43h-68q-33 0 -33 29q0 12 5 30l176 828h-461z" />
    <glyph glyph-name="fi" unicode="fi" horiz-adv-x="1150" 
d="M285 39q-6 -43 -47 -43h-68q-33 0 -33 29q0 15 4 30l176 828h-122q-33 0 -33 24q0 25 10 64t47 39h127l27 127q43 211 139 290q134 111 358 111q52 0 52 -35q0 -27 -2 -57q-6 -34 -43 -35q-113 -7 -181 -29q-66 -21 -106 -67q-44 -49 -72 -189l-26 -116h559q32 0 32 -33
q0 -13 -6 -43l-192 -897q-11 -41 -45 -41h-68q-33 0 -33 29q0 13 4 32l179 826h-457zM1180 1382q0 -64 -39 -102q-28 -23 -72 -23q-82 0 -82 72q0 68 33 98q28 27 76 27q84 0 84 -72z" />
    <glyph glyph-name="fl" unicode="fl" horiz-adv-x="1183" 
d="M285 39q-6 -43 -47 -43h-68q-33 0 -33 29q0 15 4 30l176 828h-122q-33 0 -33 24q0 25 10 64t47 39h125l27 120q44 203 149 293q130 113 422 113q108 0 188 -12q52 -8 52 -51q0 -20 -8 -60l-242 -1130q-10 -53 -10 -86q0 -74 108 -86q29 -2 29 -35t-12 -62
q-12 -22 -50 -22q-93 0 -159 39t-66 129q0 54 14 116l238 1123q-40 6 -119 6q-229 0 -305 -90q-58 -67 -86 -195l-25 -110h232q31 0 31 -31q0 -26 -13 -68q-7 -28 -45 -28h-229z" />
    <glyph glyph-name="f_f_i" unicode="ffi" horiz-adv-x="1759" 
d="M285 39q-6 -43 -47 -43h-68q-33 0 -33 29q0 15 4 30l176 828h-122q-33 0 -33 24q0 25 10 64t47 39h127l16 80q46 216 142 294q134 111 364 111q52 0 52 -37q0 -28 -5 -55q-2 -33 -41 -35q-120 -6 -186 -27q-67 -21 -106 -69q-44 -50 -74 -191l-16 -71h462l27 129
q46 210 139 288q134 111 357 111q53 0 53 -35q0 -37 -4 -57q-2 -30 -41 -35q-112 -7 -180 -29q-67 -21 -107 -67q-47 -61 -74 -189l-24 -116h557q35 0 35 -33q0 -16 -4 -35l-195 -905q-6 -41 -45 -41h-70q-30 0 -30 29q0 13 4 32l176 826h-455l-180 -844q-10 -43 -47 -43
h-68q-33 0 -33 29q0 12 5 30l176 828h-461zM1786 1382q0 -68 -37 -102q-25 -23 -72 -23q-84 0 -84 72q0 65 35 98q28 27 76 27q82 0 82 -72z" />
    <glyph glyph-name="f_f_l" unicode="ffl" horiz-adv-x="1794" 
d="M285 39q-6 -43 -47 -43h-68q-33 0 -33 29q0 15 4 30l176 828h-122q-33 0 -33 24q0 25 10 64t47 39h127l16 80q46 216 142 294q134 111 364 111q52 0 52 -37q0 -28 -5 -55q-2 -33 -41 -35q-218 -7 -292 -96q-44 -50 -74 -191l-16 -71h462l25 120q39 199 151 293
q130 113 422 113q115 0 191 -12q49 -7 49 -51q0 -20 -8 -60l-242 -1130q-12 -50 -12 -86q0 -41 28 -61q26 -19 80 -25q29 -2 29 -35q0 -32 -10 -58q-7 -26 -47 -26q-94 0 -162 39t-68 129q0 50 15 116l239 1123q-40 6 -121 6q-231 0 -305 -90q-60 -72 -84 -195l-24 -110h229
q33 0 33 -31q0 -25 -14 -68q-7 -28 -45 -28h-230l-180 -844q-10 -43 -47 -43h-68q-33 0 -33 29q0 12 5 30l176 828h-461z" />
    <glyph glyph-name="T_h" unicode="Th" horiz-adv-x="2256" 
d="M553 39q-6 -43 -45 -43h-76q-35 0 -35 29q0 11 4 30l271 1254h-402q-32 0 -32 24q0 23 12 78q5 35 49 35h1174l10 47q11 39 43 39h69q33 0 33 -29q0 -8 -2 -24l-115 -535q121 96 365 96q111 0 187 -40q77 -41 77 -134q0 -70 -20 -164l-142 -665q-6 -41 -47 -41h-67
q-35 0 -35 27q0 4 3 17q3 14 3 19l135 619q12 66 12 127q0 59 -42 82q-41 22 -128 22q-160 0 -268 -53q-30 -16 -43 -29q-17 -17 -28 -69l-152 -721q-11 -41 -47 -41h-68q-35 0 -35 27q0 1 7 36l266 1250h-619z" />
    <glyph glyph-name="Tcaron_h" unicode="&#x164;h" horiz-adv-x="2291" 
d="M553 39q-6 -43 -45 -43h-76q-35 0 -35 29q0 11 4 30l271 1254h-402q-32 0 -32 24q0 23 12 78q5 35 49 35h1174l10 47q11 39 43 39h69q33 0 33 -29q0 -8 -2 -24l-115 -535q121 96 365 96q111 0 187 -40q77 -41 77 -134q0 -70 -20 -164l-142 -665q-6 -41 -47 -41h-67
q-35 0 -35 27q0 4 3 17q3 14 3 19l135 619q12 66 12 127q0 59 -42 82q-41 22 -128 22q-160 0 -268 -53q-30 -16 -43 -29q-17 -17 -28 -69l-152 -721q-11 -41 -47 -41h-68q-35 0 -35 27q0 1 7 36l266 1250h-619zM1059 1876q42 0 63 -6q23 -5 23 -25q0 -17 -21 -35l-247 -208
q-40 -37 -78 -37h-56q-33 0 -61 32l-174 211q-12 15 -12 31q0 22 28 29q18 6 56 6q30 0 61 -31l147 -143l199 143q45 33 72 33z" />
    <glyph glyph-name="f_b" unicode="fb" horiz-adv-x="1775" 
d="M285 39q-6 -43 -47 -43h-68q-33 0 -33 29q0 15 4 30l176 828h-122q-33 0 -33 24q0 25 10 64t47 39h125l27 120q44 203 149 293q130 113 422 113q108 0 188 -12q52 -11 52 -51q0 -20 -8 -60l-99 -469q113 94 342 94q281 0 281 -299q0 -146 -40 -313q-40 -170 -120 -276
q-78 -102 -179 -139q-105 -38 -265 -38q-165 0 -273 41q-63 24 -63 90q0 34 8 76l258 1219q-40 6 -119 6q-229 0 -305 -90q-58 -67 -86 -195l-25 -110h232q31 0 31 -31q0 -26 -13 -68q-7 -28 -45 -28h-229zM918 211q-5 -27 -5 -45q0 -36 45 -47q69 -21 154 -21
q219 0 309 125q58 84 92 228q35 148 35 260q0 96 -47 146t-164 50q-82 0 -166 -24q-83 -24 -112 -62q-15 -18 -21 -49z" />
    <glyph glyph-name="f_f_b" unicode="ffb" horiz-adv-x="2385" 
d="M285 39q-6 -43 -47 -43h-68q-33 0 -33 29q0 15 4 30l176 828h-122q-33 0 -33 24q0 25 10 64t47 39h127l16 80q46 216 142 294q134 111 364 111q52 0 52 -37q0 -11 -7 -55q-6 -34 -43 -35q-214 -8 -288 -96q-44 -50 -74 -191l-16 -71h462l25 120q39 199 151 293
q130 113 422 113q121 0 187 -12q53 -8 53 -51q0 -20 -8 -60l-101 -469q118 94 342 94q283 0 283 -299q0 -139 -41 -312q-40 -168 -121 -277q-75 -102 -178 -139q-106 -38 -266 -38q-162 0 -270 41q-66 24 -66 90q0 32 10 76l258 1219q-40 6 -121 6q-231 0 -307 -90
q-58 -75 -82 -195l-24 -110h229q33 0 33 -31q0 -25 -14 -68q-7 -28 -45 -28h-230l-180 -844q-10 -43 -47 -43h-68q-33 0 -33 29q0 12 5 30l176 828h-461zM1528 211q-4 -25 -4 -45q0 -37 43 -47q73 -21 155 -21q222 0 308 125q58 84 92 228q35 148 35 260q0 97 -47 147
q-46 49 -162 49q-89 0 -168 -23q-82 -24 -111 -63q-13 -16 -20 -49z" />
    <glyph glyph-name="f_f_h" unicode="ffh" horiz-adv-x="2428" 
d="M285 39q-6 -43 -47 -43h-68q-33 0 -33 29q0 15 4 30l176 828h-122q-33 0 -33 24q0 25 10 64t47 39h127l17 80q46 217 141 294q134 111 364 111q52 0 52 -37q0 -23 -5 -55q-2 -33 -41 -35q-218 -7 -292 -96q-44 -50 -74 -191l-16 -71h462l25 120q39 199 151 293
q130 113 422 113q121 0 187 -12q53 -8 53 -51q0 -20 -8 -60l-101 -469q121 96 365 96q110 0 187 -39t77 -133q0 -72 -20 -166l-142 -665q-6 -41 -45 -41h-69q-33 0 -33 27q0 6 6 36l133 619q12 66 12 127q0 60 -43 82t-129 22q-166 0 -266 -53q-27 -11 -43 -29
q-17 -22 -28 -69l-152 -721q-11 -41 -47 -41h-68q-35 0 -35 27q0 1 7 36l284 1340q-40 6 -121 6q-231 0 -305 -90q-60 -72 -84 -195l-24 -110h229q33 0 33 -31q0 -25 -14 -68q-7 -28 -45 -28h-230l-180 -844q-10 -43 -47 -43h-68q-33 0 -33 29q0 12 5 30l176 828h-461z" />
    <glyph glyph-name="f_f_j" unicode="ffj" horiz-adv-x="1796" 
d="M285 39q-6 -43 -47 -43h-68q-33 0 -33 29q0 15 4 30l176 828h-122q-33 0 -33 24q0 25 10 64t47 39h127l17 80q46 217 141 294q134 111 364 111q52 0 52 -37q0 -28 -5 -55q-5 -35 -40 -35q-120 -6 -186 -27q-68 -22 -107 -69q-44 -50 -74 -191l-16 -71h462l27 129
q46 210 139 288q134 111 357 111q53 0 53 -35q0 -36 -4 -57q-6 -35 -43 -35q-113 -7 -179 -29q-67 -22 -106 -67q-47 -61 -74 -189l-24 -116h555q37 0 37 -33q0 -16 -4 -35l-224 -1042q-39 -189 -133 -271q-55 -45 -152 -76q-99 -32 -161 -32q-31 0 -37 30q-4 19 -4 54
t47 43q136 24 197 65q69 47 98 189l209 981h-455l-180 -844q-10 -43 -47 -43h-68q-33 0 -33 29q0 12 5 30l176 828h-461zM1786 1382q0 -65 -37 -102q-29 -23 -72 -23q-84 0 -84 72q0 65 35 98q28 27 76 27q82 0 82 -72z" />
    <glyph glyph-name="f_f_k" unicode="ffk" horiz-adv-x="2293" 
d="M285 39q-6 -43 -47 -43h-68q-33 0 -33 29q0 15 4 30l176 828h-122q-33 0 -33 24q0 25 10 64t47 39h127l16 80q46 216 142 294q134 111 364 111q52 0 52 -37q0 -28 -5 -55q-2 -33 -41 -35q-119 -6 -185 -27q-68 -22 -107 -69q-44 -50 -74 -191l-16 -71h462l25 120
q39 199 151 293q130 113 422 113q121 0 187 -12q53 -8 53 -51q0 -20 -8 -60l-166 -784h125q64 0 98 37l303 315q30 33 64 33q78 0 94 -4t16 -23t-30 -49q-240 -254 -377 -383q63 -106 256 -479q14 -25 14 -45q0 -24 -22 -31q-21 -6 -86 -6q-33 0 -50 35l-225 436
q-21 37 -69 37h-138l-100 -465q-6 -41 -45 -41h-68q-35 0 -35 27q0 1 7 36l284 1340q-40 6 -121 6q-231 0 -305 -90q-60 -72 -84 -195l-24 -110h229q33 0 33 -31q0 -25 -14 -68q-7 -28 -45 -28h-230l-180 -844q-10 -43 -47 -43h-68q-33 0 -33 29q0 12 5 30l176 828h-461z
" />
    <glyph glyph-name="f_h" unicode="fh" horiz-adv-x="1820" 
d="M285 39q-6 -43 -47 -43h-68q-33 0 -33 29q0 15 4 30l176 828h-122q-33 0 -33 24q0 25 10 64t47 39h125l27 120q44 203 149 293q130 113 422 113q108 0 188 -12q52 -8 52 -51q0 -20 -8 -60l-99 -469q121 96 365 96q110 0 186 -39t76 -133q0 -67 -21 -166l-139 -665
q-11 -41 -47 -41h-68q-34 0 -34 27q0 6 6 36l133 619q14 71 14 127q0 60 -43 82t-129 22q-160 0 -266 -51q-30 -16 -45 -31q-19 -19 -29 -69l-151 -721q-11 -41 -45 -41h-70q-33 0 -33 27q0 6 6 36l283 1340q-40 6 -119 6q-229 0 -305 -90q-58 -67 -86 -195l-25 -110h232
q31 0 31 -31q0 -26 -13 -68q-7 -28 -45 -28h-229z" />
    <glyph glyph-name="f_j" unicode="fj" horiz-adv-x="1189" 
d="M285 39q-6 -43 -47 -43h-68q-33 0 -33 29q0 15 4 30l176 828h-122q-33 0 -33 24q0 25 10 64t47 39h127l27 129q45 210 139 288q134 111 358 111q52 0 52 -35q0 -27 -2 -57q-6 -34 -43 -35q-116 -7 -182 -29q-65 -21 -105 -67q-44 -49 -72 -189l-26 -116h559q32 0 32 -33
q0 -21 -6 -45l-221 -1032q-39 -189 -133 -271q-54 -44 -153 -76t-160 -32q-31 0 -37 30q-4 19 -4 54t47 43q135 24 196 65q70 47 99 185l211 985h-457zM1180 1382q0 -64 -39 -102q-28 -23 -72 -23q-82 0 -82 72q0 68 33 98q28 27 76 27q84 0 84 -72z" />
    <glyph glyph-name="f_k" unicode="fk" horiz-adv-x="1685" 
d="M285 39q-6 -43 -47 -43h-68q-33 0 -33 29q0 15 4 30l176 828h-122q-33 0 -33 24q0 25 10 64t47 39h125l27 120q44 203 149 293q130 113 422 113q123 0 186 -12q54 -8 54 -51q0 -20 -8 -60l-164 -784h127q59 0 96 37l305 317q30 33 61 33q63 0 93 -6q18 -2 18 -23
q0 -18 -31 -49q-265 -276 -379 -383q74 -122 256 -479q17 -29 17 -45q0 -23 -25 -31q-21 -6 -86 -6q-31 0 -49 35l-223 436q-18 37 -72 37h-135l-100 -465q-11 -41 -45 -41h-70q-35 0 -35 27q0 6 6 36l285 1340q-40 6 -119 6q-229 0 -305 -90q-58 -67 -86 -195l-25 -110h232
q31 0 31 -31q0 -26 -13 -68q-7 -28 -45 -28h-229z" />
    <glyph glyph-name="uni0162_h" unicode="&#x162;h" horiz-adv-x="2291" 
d="M479 -125q172 -4 172 -156q0 -127 -73 -181q-74 -54 -213 -54q-62 0 -95 10q-26 7 -26 33q0 17 6 47q5 31 39 31q16 0 37 -4t63 -4q123 0 123 100q0 70 -92 70h-33q-35 0 -35 34q0 17 15 60l47 137q-17 6 -17 27q0 11 4 30l271 1254h-402q-32 0 -32 24q0 23 12 78
q5 35 49 35h1174l10 47q11 39 43 39h69q33 0 33 -29q0 -8 -2 -24l-115 -535q121 96 365 96q111 0 187 -40q77 -41 77 -134q0 -70 -20 -164l-142 -665q-6 -41 -47 -41h-67q-35 0 -35 27q0 4 3 17q3 14 3 19l135 619q12 66 12 127q0 59 -42 82q-41 22 -128 22q-160 0 -268 -53
q-30 -16 -43 -29q-17 -17 -28 -69l-152 -721q-11 -41 -47 -41h-68q-35 0 -35 27q0 1 7 36l266 1250h-619l-272 -1270q-6 -37 -37 -43z" />
    <glyph glyph-name="uni021A_h" unicode="&#x21a;h" horiz-adv-x="2291" 
d="M553 39q-6 -43 -45 -43h-76q-35 0 -35 29q0 11 4 30l271 1254h-402q-32 0 -32 24q0 23 12 78q5 35 49 35h1174l10 47q11 39 43 39h69q33 0 33 -29q0 -8 -2 -24l-115 -535q121 96 365 96q111 0 187 -40q77 -41 77 -134q0 -70 -20 -164l-142 -665q-6 -41 -47 -41h-67
q-35 0 -35 27q0 4 3 17q3 14 3 19l135 619q12 66 12 127q0 59 -42 82q-41 22 -128 22q-160 0 -268 -53q-30 -16 -43 -29q-17 -17 -28 -69l-152 -721q-11 -41 -47 -41h-68q-35 0 -35 27q0 1 7 36l266 1250h-619zM424 -129h49q45 0 45 -43q0 -30 -20 -96q-51 -150 -164 -256
q-30 -27 -49 -27q-16 0 -39 16q-21 15 -21 33t23 41q95 105 117 271q10 61 59 61z" />
    <glyph glyph-name=".notdef" horiz-adv-x="1026" 
d="M0 0v1448h1026v-1448h-1026zM514 817l348 526h-698zM573 725l353 -526v1052zM164 102h698l-348 529zM102 1251v-1052l351 526z" />
    <glyph glyph-name=".null" horiz-adv-x="0" 
 />
    <glyph glyph-name="nonmarkingreturn" horiz-adv-x="681" 
 />
    <glyph glyph-name="space" unicode=" " horiz-adv-x="458" 
 />
    <glyph glyph-name="exclam" unicode="!" horiz-adv-x="581" 
d="M414 487q-7 -43 -49 -43h-50q-39 0 -39 33q0 2 1 7t2.5 15.5t3.5 20.5q156 789 174 873q11 53 57 53h70q41 0 41 -41q0 -16 -211 -918zM387 129q0 -79 -43 -119q-32 -28 -86 -28q-98 0 -98 86q0 65 41 112q33 35 88 35q98 0 98 -86z" />
    <glyph glyph-name="quotedbl" unicode="&#x22;" horiz-adv-x="706" 
d="M367 965q-11 -45 -52 -45h-30q-35 0 -35 34q0 24 4 43q31 176 76 410q12 59 59 59h49q41 0 41 -34q0 -28 -6 -50q0 -8 -11 -48q-13 -47 -36 -142q-17 -68 -59 -227zM692 965q-10 -45 -49 -45h-33q-37 0 -37 34q0 8 7 43q27 156 46 259q25 136 27 151q12 59 62 59h47
q43 0 43 -34q0 -20 -8 -50q-17 -86 -105 -417z" />
    <glyph glyph-name="numbersign" unicode="#" horiz-adv-x="1220" 
d="M332 8q-12 -43 -45 -43q-56 0 -56 31q0 5 9 45l102 401h-178q-37 0 -37 31l1 7q1 8 3 25t4 36q6 39 43 39h199l63 245h-192q-37 0 -37 29q0 17 8 70q6 37 43 37h213l105 407q12 49 51 49q51 0 51 -28q0 -8 -10 -52l-97 -376h326l105 407q12 49 49 49q53 0 53 -28
q0 -11 -10 -54l-97 -374h183q37 0 37 -31l-9 -72q-4 -33 -41 -33h-204l-64 -245h195q37 0 37 -31q0 -13 -7 -74q-2 -33 -38 -33h-222l-110 -436q-8 -41 -45 -41q-56 0 -56 31q0 8 15 61l98 385h-328zM541 825l-64 -245h328l61 245h-325z" />
    <glyph glyph-name="dollar" unicode="$" horiz-adv-x="1122" 
d="M569 -8l-34 -166q-6 -39 -43 -39h-48q-32 0 -32 25q0 5 4 26l33 152q-187 5 -316 61q-33 17 -33 41q0 13 23 70q12 31 41 31q8 0 53 -17q132 -55 293 -55q164 0 252 54t88 198q0 70 -37 119q-38 50 -160 102l-161 72q-220 92 -220 309q0 391 469 407l37 168q8 41 41 41
h49q31 0 31 -22q0 -7 -6 -37l-31 -150q117 -10 207 -39q33 -11 33 -40q0 -23 -19 -72q-11 -25 -36 -25q-21 0 -60 11q-130 36 -252 36q-153 0 -231 -57t-78 -188q0 -71 40 -123q42 -55 146 -103l136 -59q141 -66 200 -131q60 -66 60 -180q0 -391 -439 -420z" />
    <glyph glyph-name="percent" unicode="%" horiz-adv-x="1734" 
d="M817 1169q0 -116 -37 -280q-38 -168 -102 -254q-83 -113 -254 -113q-135 0 -200 53q-64 52 -64 189q0 114 35 263q34 146 98 237q90 129 266 129q139 0 198 -46q60 -47 60 -178zM698 1153q0 79 -30 110t-121 31q-109 0 -164 -90q-47 -75 -76 -205q-31 -138 -31 -223
q0 -84 35 -119q34 -34 121 -34q111 0 160 79q43 69 75 220q31 148 31 231zM502 -31q-24 -35 -49 -35q-11 0 -41 3q-17 5 -17 18q0 12 23 47l917 1409q30 45 58 45q26 0 41 -4q16 -1 16 -18q0 -14 -23 -48zM1683 629q0 -116 -37 -280q-37 -163 -102 -255q-82 -112 -256 -112
q-134 0 -199 53t-65 188q0 113 35 262q35 147 98 238q90 129 266 129q138 0 199 -46t61 -177zM1565 612q0 78 -32 110t-122 32q-108 0 -164 -90q-47 -75 -76 -205q-30 -133 -30 -223q0 -84 35 -119t120 -35q111 0 162 80q44 69 75 219q32 152 32 231z" />
    <glyph glyph-name="ampersand" unicode="&#x26;" horiz-adv-x="1474" 
d="M1081 141q-174 -168 -477 -168q-227 0 -341 102q-113 101 -113 261q0 181 100 285q98 103 309 180q-110 134 -110 291q0 183 119 281q121 100 325 100q148 0 229 -23q47 -15 47 -41q0 -29 -18 -76q-7 -20 -37 -20q-17 0 -74 14q-56 14 -172 14q-126 0 -198 -60t-72 -183
q0 -110 111 -254q181 -240 395 -482q64 93 94 252q10 57 16 121q5 41 35 43q22 2 64 2q43 0 43 -41q0 -27 -13 -100q-41 -239 -151 -385q63 -78 143 -164q23 -23 23 -49q0 -23 -29 -35q-36 -14 -76 -14q-32 0 -67 35q-91 97 -105 114zM1008 242q-84 93 -381 463
q-154 -50 -236 -128q-84 -79 -84 -215q0 -119 81 -188q82 -70 243 -70q248 0 377 138z" />
    <glyph glyph-name="quotesingle" unicode="'" horiz-adv-x="389" 
d="M367 965q-11 -45 -52 -45h-30q-37 0 -37 32q0 15 6 45q31 176 76 410q12 59 59 59h49q41 0 41 -34q0 -6 -6 -50q0 -5 -106 -417z" />
    <glyph glyph-name="parenleft" unicode="(" horiz-adv-x="638" 
d="M805 1460q-264 -146 -417 -453q-152 -305 -152 -694q0 -332 202 -561q8 -11 8 -24t-16 -29t-31 -16q-18 0 -47 22q-103 81 -180 237q-76 153 -76 382q0 378 162 715t475 481q41 18 51 18q19 0 29 -16q12 -24 12 -31q0 -17 -20 -31z" />
    <glyph glyph-name="parenright" unicode=")" horiz-adv-x="638" 
d="M-100 -240q262 144 416 454q153 308 153 693q0 331 -203 561q-8 11 -8 25q0 13 16 29t31 16q18 0 47 -22q103 -81 180 -237q76 -153 76 -382q0 -379 -162 -716q-161 -336 -475 -480q-41 -18 -51 -18q-19 0 -29 16q-12 24 -12 31q0 15 21 30z" />
    <glyph glyph-name="asterisk" unicode="*" horiz-adv-x="835" 
d="M535 950l-14.5 -14.5l-21 -21l-21.5 -21.5q-48 -50 -66 -68q-3 -3 -60 -57q-16 -16 -33 -16q-25 0 -53 34q-14 15 -14 35q0 18 18 33q84 82 195 174q-193 88 -232 109q-30 17 -30 41q0 18 20 51q14 26 41 26q16 0 43 -14l207 -115q10 122 29 246q8 47 49 47q22 0 43 -4
q31 -6 31 -39q0 -16 -4 -37q-15 -69 -28 -128q-15 -68 -22 -101q8 2 217 43q29 4 56 4t35 -33q6 -38 6 -55q-2 -31 -41 -37q-64 -10 -260 -31l129 -225q6 -15 6 -31q0 -20 -25 -36q-31 -17 -55 -17q-22 0 -33 25q-62 123 -112 233z" />
    <glyph glyph-name="plus" unicode="+" horiz-adv-x="1435" 
d="M723 106q-10 -34 -41 -34h-43q-35 0 -35 32q0 8 4 27l90 412h-434q-33 0 -33 35q0 18 7 51q6 37 41 37h438l92 430q11 39 41 39h45q33 0 33 -33q0 -14 -4 -33l-86 -403h432q35 0 35 -35q0 -4 -9 -51q-6 -37 -43 -37h-438z" />
    <glyph glyph-name="comma" unicode="," horiz-adv-x="450" 
d="M152 227h59q51 0 51 -51q0 -99 -83 -250q-82 -150 -187 -229q-35 -29 -55 -29t-43 23q-23 21 -23 39q0 19 25 41q65 61 119 164q55 105 77 233q10 59 60 59z" />
    <glyph glyph-name="hyphen" unicode="-" horiz-adv-x="679" 
d="M547 481h-402q-30 0 -30 27q0 19 14 72q7 34 45 34h397q33 0 33 -26q0 -23 -14 -76q-8 -31 -43 -31z" />
    <glyph glyph-name="period" unicode="." horiz-adv-x="450" 
d="M272 129q0 -82 -43 -119q-32 -28 -86 -28q-98 0 -98 86q0 71 41 112q33 35 88 35q98 0 98 -86z" />
    <glyph glyph-name="slash" unicode="/" horiz-adv-x="722" 
d="M59 -164q-18 -43 -51 -43q-30 0 -55 4q-23 2 -23 25q0 12 15 41l800 1628q24 49 52 49q38 0 59 -6q18 -4 18 -25q0 -15 -18 -53z" />
    <glyph glyph-name="zero" unicode="0" horiz-adv-x="1144" 
d="M1145 1047q0 -185 -60 -462q-61 -281 -157 -421q-128 -191 -402 -191q-210 0 -311 86q-100 85 -100 303q0 191 56 434q56 245 153 396q78 121 180 169t239 48q214 0 308 -76t94 -286zM989 1024q0 136 -54 194t-210 58q-184 0 -281 -160q-76 -124 -126 -354
q-50 -232 -50 -383q0 -150 60 -210t213 -60q96 0 158 29q64 30 114 110q74 119 125 374t51 402z" />
    <glyph glyph-name="one" unicode="1" horiz-adv-x="1144" 
d="M793 0h-549q-31 0 -31 27q0 5 12 73q8 35 47 35h191l233 1088l-223 -80q-26 -10 -43 -10q-20 0 -27 16q-18 49 -18 68q0 23 35 38l278 107q59 22 93 22h12q26 0 44 -15q17 -14 17 -40q0 -21 -8 -61l-244 -1133h203q33 0 33 -24q0 -29 -12 -80q-8 -31 -43 -31z" />
    <glyph glyph-name="two" unicode="2" horiz-adv-x="1144" 
d="M899 0h-807q-36 0 -53 17q-19 19 -19 42q0 84 41 113q5 4 205 146q170 121 274 199q98 73 195 159q96 84 142 168q47 86 47 207q0 223 -277 223q-114 0 -219 -33q-59 -20 -74 -20q-20 0 -26 22q-17 48 -17 64q0 28 60 49q154 53 325 53q389 0 389 -330q0 -144 -49 -248
q-48 -101 -162 -208q-64 -58 -112 -97q-60 -48 -139 -106q-69 -51 -130 -94q-58 -42 -149 -104q-34 -23 -76.5 -52.5t-52.5 -36.5q162 2 707 2q36 0 36 -26q0 -24 -14 -76q-6 -33 -45 -33z" />
    <glyph glyph-name="three" unicode="3" horiz-adv-x="1144" 
d="M731 727q242 -24 242 -260q0 -228 -113 -350q-135 -144 -452 -144q-185 0 -299 41q-41 17 -41 43q0 28 26 76q10 21 33 21q8 0 17 -3q2 -1 6.5 -2.5l9 -3t8.5 -2.5q15 -5 25 -6q105 -28 233 -28q234 0 319 102q74 86 74 248q0 98 -76 147q-77 50 -262 51q-49 0 -49 48
q0 84 68 86q228 12 311 79q86 72 86 222q0 182 -248 182q-134 0 -229 -31q-51 -18 -72 -18q-20 0 -26 24q-15 41 -15 60q0 28 58 49q144 51 327 51q196 0 279 -77q82 -76 82 -218q0 -327 -322 -387z" />
    <glyph glyph-name="four" unicode="4" horiz-adv-x="1144" 
d="M823 37q-6 -41 -47 -41h-61q-37 0 -37 33q0 9 6 39l66 297h-557q-82 0 -82 69q0 47 53 121l592 803q39 51 67 51q45 0 82 -6q21 -1 21 -23q0 -16 -25 -55l-612 -825h489l74 348q11 47 45 47h70q32 0 32 -33q0 -14 -4 -35l-71 -327h184q37 0 37 -29q0 -15 -12 -72
q-7 -34 -50 -34h-188z" />
    <glyph glyph-name="five" unicode="5" horiz-adv-x="1144" 
d="M399 840q98 22 236 22q196 0 290 -70q95 -71 95 -235q0 -281 -139 -432q-140 -152 -457 -152q-214 0 -322 39q-36 14 -36 43q0 27 20 70q10 27 37 27q4 0 33 -9q30 -9 34 -10q111 -27 250 -27q222 0 321 105t99 311q0 116 -69 163q-68 46 -209 46q-96 0 -185 -12t-96 -12
q-51 0 -51 53q0 25 16 96l117 473q12 55 57 55h598q37 0 37 -26q0 -15 -12 -76q-7 -33 -51 -33h-514z" />
    <glyph glyph-name="six" unicode="6" horiz-adv-x="1144" 
d="M332 737q122 131 379 131q356 0 356 -311q0 -285 -137 -442q-128 -142 -402 -142q-393 0 -393 387q0 212 75 477q75 264 206 400q166 172 461 172q164 0 239 -25q21 -6 21 -30q0 -32 -21 -78q-10 -21 -31 -21q-1 0 -7 1t-19 3.5t-27 4.5q-80 12 -164 12q-231 0 -352 -133
q-111 -122 -184 -406zM281 360q0 -116 55 -184q56 -70 201 -70q211 0 294 111q84 112 84 305q0 96 -57 156q-56 59 -182 59q-122 0 -211 -32q-92 -33 -133 -89q-20 -30 -31 -73q-20 -74 -20 -183z" />
    <glyph glyph-name="seven" unicode="7" horiz-adv-x="1144" 
d="M956 1251q-101 0 -247 -1t-453 -1q-39 0 -39 27q0 22 14 74q7 34 50 34h759q95 0 95 -63q0 -57 -37 -119l-674 -1157q-28 -51 -64 -51q-18 0 -79 8q-31 6 -31 31q0 21 22 61z" />
    <glyph glyph-name="eight" unicode="8" horiz-adv-x="1144" 
d="M836 723q102 -18 159 -88q56 -70 56 -178q0 -246 -141 -365q-142 -119 -400 -119q-200 0 -306 86t-106 236q0 189 90 300q91 112 258 142q-84 24 -128 88t-44 148q0 219 129 327q130 109 369 109q371 0 371 -274q0 -336 -307 -412zM895 444q0 106 -73 159q-71 52 -195 52
q-377 0 -377 -329q0 -115 77 -168q79 -54 203 -54q176 0 270 85q95 86 95 255zM991 1100q0 178 -241 178q-326 0 -326 -299q0 -97 64 -143q67 -48 169 -48q151 0 243 83q91 82 91 229z" />
    <glyph glyph-name="nine" unicode="9" horiz-adv-x="1144" 
d="M928 655q-128 -137 -371 -137q-181 0 -273 85q-94 86 -94 237q0 269 142 428q123 141 395 141q395 0 395 -385q0 -216 -74 -478q-75 -265 -206 -401q-162 -172 -461 -172q-163 0 -244 25q-20 7 -20 31q0 22 20 75q8 25 31 25q7 0 34 -5l27 -5q68 -13 156 -13
q234 0 356 134q66 73 105 163q43 100 82 252zM977 1022q0 116 -55 184q-56 70 -203 70q-211 0 -293 -111q-86 -119 -86 -299q0 -96 58 -157q59 -62 184 -62q118 0 212 36t132 93q19 25 30 74q21 78 21 172z" />
    <glyph glyph-name="colon" unicode=":" horiz-adv-x="491" 
d="M309 129q0 -79 -43 -119q-34 -28 -86 -28q-98 0 -98 86q0 65 41 112q33 35 88 35q98 0 98 -86zM475 930q0 -81 -43 -121q-34 -29 -86 -29q-98 0 -98 88q0 65 41 111q33 35 90 35q96 0 96 -84z" />
    <glyph glyph-name="semicolon" unicode=";" horiz-adv-x="491" 
d="M475 930q0 -81 -43 -121q-34 -29 -86 -29q-98 0 -98 88q0 65 41 111q33 35 90 35q96 0 96 -84zM193 227h59q51 0 51 -51q0 -97 -83 -248q-81 -148 -187 -231q-35 -29 -56 -29q-20 0 -43 23q-22 21 -22 39q0 19 25 41q64 59 120 166q55 104 76 231q10 59 60 59z" />
    <glyph glyph-name="less" unicode="&#x3c;" horiz-adv-x="1435" 
d="M1139 137q-6 -31 -27 -31q-10 0 -27 11l-757 401q-25 16 -25 41q0 23 10 70q6 35 35 47l934 416q15 6 29 6q24 0 24 -27q0 -23 -12 -76q-6 -32 -35 -43l-846 -364l684 -346q23 -12 23 -41q0 -23 -10 -64z" />
    <glyph glyph-name="equal" unicode="=" horiz-adv-x="1435" 
d="M1257 377q-6 -37 -43 -37h-987q-37 0 -37 33q0 2 1 7.5t3.5 18.5t4.5 25q8 35 41 35h989q35 0 35 -33q0 -2 -7 -49zM1343 776q-6 -37 -40 -37h-992q-35 0 -35 33q0 9 11 51q6 35 41 35h989q35 0 35 -33q0 -8 -9 -49z" />
    <glyph glyph-name="greater" unicode="&#x3e;" horiz-adv-x="1435" 
d="M406 1073q6 29 24 29q13 0 25 -6l762 -406q24 -12 24 -39q0 -20 -12 -71q-8 -35 -33 -48l-936 -411q-22 -8 -27 -8q-24 0 -24 26q0 25 10 74q6 33 35 45l846 363l-682 348q-25 13 -25 41q0 9 13 63z" />
    <glyph glyph-name="question" unicode="?" horiz-adv-x="837" 
d="M395 444h-53q-31 0 -31 33q0 11 15 103q18 100 59 157q41 56 145 117q122 72 178 140t56 180q0 74 -49 117q-51 45 -152 46q-123 0 -221 -26q-30 -6 -39 -6q-23 0 -29 24q-12 37 -12 57q0 30 35 41q143 46 301 46q168 0 249 -73q79 -72 79 -188q0 -145 -66 -238
q-67 -94 -213 -179q-99 -59 -135 -98q-35 -39 -53 -113q-8 -27 -14 -56q-3 -13 -6.5 -31.5t-4.5 -23.5q-8 -29 -39 -29zM438 129q0 -82 -43 -119q-32 -28 -86 -28q-98 0 -98 86q0 71 41 112q33 35 90 35q96 0 96 -86z" />
    <glyph glyph-name="at" unicode="@" horiz-adv-x="1648" 
d="M1006 225q-99 -108 -273 -108q-256 0 -256 237q0 139 62 287q62 149 172 238q112 94 299 94q124 0 213 -37q41 -17 41 -57q0 -32 -13 -76l-116 -449q-17 -62 -17 -86q2 -45 47 -45q43 0 90 29q112 74 175 221t63 301q0 467 -504 467q-328 0 -537 -242
q-208 -241 -208 -587q0 -271 150 -418q151 -148 444 -148q239 0 440 72q48 16 57 16q15 0 27 -28q8 -22 8 -33q0 -18 -51 -39q-225 -86 -490 -86q-326 0 -510 170q-182 169 -182 494q0 175 61 343q60 166 168 293q109 128 272 204q166 77 359 77q292 0 446 -139t154 -416
q0 -102 -30 -213t-87 -210q-57 -100 -150 -164q-92 -64 -206 -64q-118 0 -118 102zM1024 371l111 409q10 29 10 49q0 25 -27 33q-53 15 -123 15q-139 0 -223 -72q-77 -65 -127 -191q-49 -123 -49 -231q0 -87 41 -128q40 -40 131 -40q112 0 201 68q13 9 30 30q18 26 25 58z
" />
    <glyph glyph-name="A" unicode="A" horiz-adv-x="1208" 
d="M334 459l-230 -412q-18 -33 -27 -42q-11 -11 -30 -11q-75 0 -102 6q-17 5 -17 23q0 19 25 61l719 1268q33 60 60 81t79 21h31q46 0 66 -23q23 -26 30 -79l170 -1264q4 -25 4 -49q0 -32 -22 -39q-21 -6 -91 -6q-22 0 -29 10q-8 11 -12 43l-57 412h-567zM406 592h485
q-53 402 -86 723z" />
    <glyph glyph-name="B" unicode="B" horiz-adv-x="1277" 
d="M508 0h-197q-84 0 -123 30q-38 29 -38 97q0 46 10 90l219 1034q24 107 72 152q46 43 155 43h172q102 0 213 -14q129 -15 194 -86q66 -72 66 -183q0 -336 -278 -409q198 -47 198 -256q0 -158 -68 -278q-70 -123 -212 -175q-123 -45 -383 -45zM414 688l-99 -448
q-6 -43 -6 -47q0 -60 66 -60h178q196 0 274 33q93 40 139 126t46 195q0 121 -92 168q-63 33 -220 33h-286zM442 817h281q150 0 209 25q160 72 160 276q0 137 -109 176q-60 21 -205 21h-164q-35 0 -54 -19q-18 -18 -28 -61z" />
    <glyph glyph-name="C" unicode="C" horiz-adv-x="1189" 
d="M309 467q0 -358 346 -358q164 0 293 30q72 15 76 15q25 0 31 -29q10 -39 10 -62q0 -25 -49 -40q-171 -50 -400 -50q-466 0 -466 478q0 234 78 487q79 257 233 391q163 144 469 144q165 0 287 -25q45 -10 45 -43q0 -31 -21 -78q-7 -18 -29 -18q-18 0 -79 12
q-83 16 -234 16q-215 0 -346 -125q-115 -112 -179 -331q-65 -222 -65 -414z" />
    <glyph glyph-name="D" unicode="D" horiz-adv-x="1404" 
d="M463 0h-152q-84 0 -123 30q-38 29 -38 97q0 44 10 88l219 1034q24 108 72 153q47 44 153 44h139q211 0 349 -47q126 -43 196 -158q70 -116 70 -276q0 -145 -26 -281q-26 -134 -81 -261q-56 -128 -158 -226q-104 -100 -245 -146q-152 -51 -385 -51zM319 250q-8 -35 -8 -53
q0 -60 64 -60h133q185 0 315 53q193 77 284 288q91 210 91 466q0 232 -154 311q-103 54 -309 54h-121q-67 0 -84 -80z" />
    <glyph glyph-name="E" unicode="E" horiz-adv-x="1112" 
d="M928 0h-617q-84 0 -123 30q-38 29 -38 97q0 44 10 88l219 1036q24 107 73 151t156 44h559q41 0 41 -31q0 -13 -14 -76q-8 -30 -49 -30h-531q-67 0 -84 -80l-88 -408h551q35 0 35 -28q0 -14 -16 -78q-6 -29 -47 -29h-551l-95 -436q0 -1 -2 -17q-1 -5 -2.5 -12t-1.5 -9
q-2 -12 -2 -15q0 -60 64 -60h579q37 0 37 -26q0 -24 -14 -80q-8 -31 -49 -31z" />
    <glyph glyph-name="F" unicode="F" horiz-adv-x="1060" 
d="M274 37q-11 -41 -49 -41h-73q-33 0 -33 29l6 36l254 1190q24 107 73 151t156 44h531q39 0 39 -31q0 -13 -15 -76q-7 -30 -49 -30h-500q-67 0 -84 -80l-90 -420h518q35 0 35 -29q0 -19 -14 -78q-6 -28 -47 -28h-522z" />
    <glyph glyph-name="G" unicode="G" horiz-adv-x="1331" 
d="M1135 147q-11 -45 -27 -69q-15 -19 -64 -41q-152 -64 -417 -64q-228 0 -353 113q-124 112 -124 344q0 231 70 477q70 247 208 385q96 98 214 139q120 42 308 42q179 0 305 -35q41 -11 41 -41q0 -29 -18 -74q-11 -23 -35 -23q-12 0 -65 11q-114 26 -281 26
q-239 0 -375 -153q-98 -111 -156 -325q-57 -210 -57 -394q0 -356 350 -356q166 0 279 32q30 8 44 23q15 17 22 47l90 414h-324q-35 0 -35 22q0 6 19 84q8 31 43 31h420q38 0 38 -33q0 -15 -6 -39z" />
    <glyph glyph-name="H" unicode="H" horiz-adv-x="1425" 
d="M274 37q-11 -41 -49 -41h-73q-33 0 -33 29l6 36l289 1346q10 43 47 43h74q34 0 34 -29l-6 -43l-121 -557h697l125 586q10 43 49 43h73q35 0 35 -29q0 -13 -8 -43l-287 -1341q-11 -41 -49 -41h-73q-33 0 -33 29l6 36l133 623h-696z" />
    <glyph glyph-name="I" unicode="I" horiz-adv-x="573" 
d="M274 37q-11 -41 -49 -41h-73q-33 0 -33 29l6 36l289 1346q10 43 47 43h74q34 0 34 -29l-6 -43z" />
    <glyph glyph-name="J" unicode="J" horiz-adv-x="583" 
d="M571 1378l-270 -1274q-39 -190 -154 -282q-57 -46 -162 -84q-104 -37 -157 -37q-29 0 -35 29q-6 21 -6 57q0 35 49 45q121 29 191 72q88 57 118 194l279 1309q10 43 47 43h74q35 0 35 -29q0 -9 -9 -43z" />
    <glyph glyph-name="K" unicode="K" horiz-adv-x="1224" 
d="M274 37q-11 -41 -49 -41h-73q-33 0 -33 29l6 36l289 1346q10 43 47 43h74q34 0 34 -29l-6 -43l-121 -557h144q68 0 98 35l481 559q30 35 66 35q69 0 88 -4q27 -4 27 -29q0 -9 -33 -47q-437 -510 -547 -629q75 -136 340 -661q16 -36 16 -51q0 -11 -9 -19q-10 -9 -21 -10
q-29 -4 -91 -4q-30 0 -47 35l-309 616q-16 37 -72 37h-159z" />
    <glyph glyph-name="L" unicode="L" horiz-adv-x="1087" 
d="M901 0h-590q-84 0 -123 30q-38 29 -38 97q0 44 10 88l254 1190q10 45 49 45h72q34 0 34 -29l-6 -43l-244 -1128q-6 -21 -6 -53q0 -60 64 -60h551q37 0 37 -26q0 -25 -15 -80q-8 -31 -49 -31z" />
    <glyph glyph-name="M" unicode="M" horiz-adv-x="1665" 
d="M272 39q-7 -43 -47 -43h-71q-35 0 -35 29q0 2 6 32l272 1266q15 68 43 99q29 32 90 32h35q57 0 74 -23q18 -24 33 -102q120 -574 170 -829q89 154 520 827q32 50 45 67q17 21 47 41q29 19 68 19h41q92 0 92 -72q0 -34 -10 -77l-271 -1264q-8 -45 -51 -45h-70
q-32 0 -32 29q0 13 4 32l274 1248l-594 -928q-29 -44 -46 -58q-19 -16 -50 -16h-16q-28 0 -43 16q-16 17 -23 56q-148 699 -190 930q-47 -256 -265 -1266z" />
    <glyph glyph-name="N" unicode="N" horiz-adv-x="1447" 
d="M270 39q-10 -43 -47 -43h-69q-35 0 -35 31q0 9 6 30l274 1280q12 62 41 89q30 28 84 28h41q31 0 48 -11q18 -12 24 -25q6 -14 18 -48q302 -916 381 -1190q43 232 260 1221q10 49 50 49h63q35 0 35 -29q0 -22 -4 -43l-277 -1292q-21 -96 -104 -96h-37q-46 0 -65 18
q-18 16 -35 70q-358 1096 -390 1204q-59 -301 -262 -1243z" />
    <glyph glyph-name="O" unicode="O" horiz-adv-x="1400" 
d="M1354 1053q0 -210 -68 -485q-68 -274 -190 -414q-85 -97 -193 -139t-264 -42q-239 0 -365 96q-124 94 -124 343q0 223 72 490q72 266 208 411q152 162 432 162q118 0 203 -17q86 -17 152 -59q68 -43 103 -129q34 -84 34 -217zM1196 1030q0 181 -77 244t-269 63
q-211 0 -315 -120q-105 -117 -165 -357q-61 -244 -61 -428t80 -253q78 -68 268 -68q121 0 195 29q75 29 135 112q93 125 151 368q58 242 58 410z" />
    <glyph glyph-name="P" unicode="P" horiz-adv-x="1249" 
d="M274 37q-5 -24 -14 -32q-10 -9 -33 -9h-75q-33 0 -33 31q0 12 6 30l256 1198q21 101 68 146q46 45 151 45h162q234 0 346 -53q74 -33 112 -107q37 -73 37 -164q0 -179 -86 -306q-85 -126 -262 -171q-104 -29 -303 -29h-207zM426 745h217q167 0 258 33q97 38 146 123
t49 197q0 127 -90 178q-67 37 -258 37h-130q-40 0 -59 -19q-19 -18 -29 -65z" />
    <glyph glyph-name="Q" unicode="Q" horiz-adv-x="1400" 
d="M1354 1053q0 -210 -68 -485q-68 -274 -190 -414q-27 -31 -72 -70l317 -207q21 -15 21 -31q0 -14 -43 -79q-15 -21 -29 -21q-15 0 -30 12l-383 246q-109 -31 -238 -31q-239 0 -365 96q-124 94 -124 343q0 223 72 490q72 266 208 411q152 162 432 162q118 0 203 -17
q86 -17 152 -59q68 -43 103 -129q34 -84 34 -217zM1196 1030q0 181 -77 244t-269 63q-211 0 -315 -120q-105 -117 -165 -357q-61 -244 -61 -428t80 -253q78 -68 268 -68q121 0 195 29q75 29 135 112q93 125 151 368q58 242 58 410z" />
    <glyph glyph-name="R" unicode="R" horiz-adv-x="1251" 
d="M274 41q-6 -45 -45 -45h-73q-37 0 -37 31q0 3 3 15t3 15l256 1200q21 102 69 145q49 44 154 44h135q248 0 353 -45q145 -63 145 -258q0 -402 -356 -490l202 -577q9 -34 9 -45q0 -27 -27 -31q-23 -6 -86 -6q-32 0 -47 41l-201 598q-80 -4 -139 -4h-191zM428 760h180
q194 0 293 39q174 67 174 319q0 119 -88 164q-68 31 -262 31h-102q-43 0 -63 -20t-30 -64z" />
    <glyph glyph-name="S" unicode="S" horiz-adv-x="1130" 
d="M643 633l-166 67q-231 96 -231 332q0 441 532 441q182 0 312 -44q32 -10 32 -40q0 -25 -18 -74q-10 -27 -37 -27q-26 0 -59 10q-144 39 -269 39q-331 0 -331 -278q0 -81 41 -137t157 -105l144 -61q274 -99 274 -328q0 -455 -545 -455q-226 0 -383 68q-33 15 -33 41
q0 23 23 74q12 30 43 30q21 0 57 -16q134 -57 310 -57t270 61t94 217q0 77 -40 130q-42 55 -177 112z" />
    <glyph glyph-name="T" unicode="T" horiz-adv-x="1150" 
d="M553 39q-6 -43 -45 -43h-76q-35 0 -35 29q0 11 4 30l271 1254h-402q-32 0 -32 24q0 17 12 78q8 35 49 35h950q39 0 39 -25q0 -29 -14 -82q-8 -30 -49 -30h-400z" />
    <glyph glyph-name="U" unicode="U" horiz-adv-x="1388" 
d="M1384 1395l-176 -815q-28 -134 -42 -189q-14 -57 -39 -122q-26 -66 -58 -109q-77 -101 -189 -144q-113 -43 -296 -43q-172 0 -291 73q-117 72 -117 245q0 112 37 284l178 834q8 41 49 41h74q31 0 31 -31q0 -2 -8 -45l-181 -850q-24 -117 -24 -190q0 -223 278 -223
q232 0 328 114q66 82 109 287l190 897q11 41 47 41h76q29 0 29 -25q0 -7 -5 -30z" />
    <glyph glyph-name="V" unicode="V" horiz-adv-x="1177" 
d="M522 152q104 205 680 1247q29 53 66 53q66 0 92 -8q16 -4 16 -27q0 -14 -24 -59l-715 -1278q-24 -44 -50 -66q-24 -20 -69 -20h-43q-49 0 -69 23t-25 71l-156 1251q-4 36 -4 64q0 37 25 43q22 6 94 6q21 0 28 -11q6 -10 11 -42q117 -987 143 -1247z" />
    <glyph glyph-name="W" unicode="W" horiz-adv-x="1882" 
d="M1094 1225q-105 -217 -580 -1151q-39 -80 -119 -80h-41q-82 0 -82 76q-3 55 -20 1288q0 46 4 59q6 27 31 29q56 6 88 6q37 0 37 -43q8 -1093 8 -1245q140 303 581 1153q22 43 43 61q22 19 58 19h39q39 0 58 -19q17 -17 22 -59q76 -916 82 -1157q110 275 536 1239
q24 51 57 51q67 0 89 -6q20 -4 20 -25q0 -23 -20 -67l-574 -1278q-37 -82 -115 -82h-36q-83 0 -89 82q-61 774 -77 1149z" />
    <glyph glyph-name="X" unicode="X" horiz-adv-x="1273" 
d="M147 39q-39 -43 -75 -43q-74 0 -92 8q-17 6 -17 25t37 59l600 670l-297 598q-20 39 -20 55q0 27 28 33q33 6 80 6q35 0 51 -37l275 -561q109 134 489 559q39 41 72 41q64 0 90 -8q16 -6 16 -25q0 -17 -32 -53l-557 -637l325 -645q19 -40 19 -51q0 -21 -19 -29
q-26 -8 -88 -8q-24 0 -35 10q-10 9 -26 41l-293 592z" />
    <glyph glyph-name="Y" unicode="Y" horiz-adv-x="1114" 
d="M545 43q-8 -47 -47 -47h-74q-33 0 -33 29q0 1 6 45l119 559l-295 729q-16 44 -16 57q0 25 20 31q17 6 99 6q29 0 47 -41q173 -431 243 -635q108 156 504 627q40 49 76 49q81 0 92 -4q19 -6 19 -23q0 -20 -33 -59l-604 -733z" />
    <glyph glyph-name="Z" unicode="Z" horiz-adv-x="1191" 
d="M1026 0h-969q-86 0 -86 68q0 64 45 110l1055 1131h-770q-41 0 -41 30q0 21 10 64t56 43h854q88 0 88 -72q0 -64 -51 -117q-834 -905 -1047 -1120h874q43 0 43 -31q0 -18 -12 -73q-11 -33 -49 -33z" />
    <glyph glyph-name="bracketleft" unicode="[" horiz-adv-x="579" 
d="M356 -287h-309q-22 0 -22 25q0 9 6 39l360 1700q7 32 35 32h315q23 0 23 -20q0 -10 -8 -47q-6 -23 -35 -23h-211l-342 -1616h211q22 0 22 -20q0 -4 -8 -47q-5 -23 -37 -23z" />
    <glyph glyph-name="backslash" unicode="\" horiz-adv-x="913" 
d="M791 -139q8 -30 8 -37q0 -21 -23 -27q-10 -2 -53 -2q-31 0 -41 37l-432 1624q-10 33 -10 49q0 30 28 31q20 2 51 2q26 0 41 -51z" />
    <glyph glyph-name="bracketright" unicode="]" horiz-adv-x="579" 
d="M297 1509h307q29 0 29 -22q0 -12 -10 -51l-359 -1690q-8 -33 -35 -33h-315q-23 0 -23 19l1 6q1 5 3.5 16.5t4.5 24.5q6 22 34 22h211l344 1618h-213q-22 0 -22 19q0 9 8 49q4 22 35 22z" />
    <glyph glyph-name="asciicircum" unicode="^" horiz-adv-x="1449" 
d="M1214 637q5 -23 5 -29q0 -33 -35 -33h-51q-30 0 -41 35l-164 635l-447 -643q-21 -27 -47 -27h-61q-33 0 -33 27q0 16 8 27l510 725q22 28 53 28h72q35 0 45 -34z" />
    <glyph glyph-name="underscore" unicode="_" horiz-adv-x="1009" 
d="M-88 -158h1008l-23 -94h-1008z" />
    <glyph glyph-name="grave" unicode="`" horiz-adv-x="403" 
d="M227 1214l-221 256q-18 22 -18 39q0 26 35 31q36 4 88 4q33 0 57 -35l190 -262q15 -17 15 -35q0 -16 -27 -22q-16 -2 -59 -2q-37 0 -60 26z" />
    <glyph glyph-name="a" unicode="a" horiz-adv-x="1077" 
d="M844 184q-15 -69 -39 -102q-17 -26 -70 -49q-131 -60 -352 -60q-166 0 -238 72q-71 71 -71 180q0 235 174 324q102 51 319 51q62 0 215 -12l17 71q16 76 16 132q0 114 -194 114q-123 0 -224 -24q-61 -15 -69 -15q-19 0 -27 23q-10 49 -10 59q0 31 41 43q135 45 309 45
q100 0 158 -11q63 -12 115 -58q53 -47 53 -131q0 -70 -23 -179zM762 471q-94 12 -201 12q-179 0 -252 -43q-92 -53 -92 -186q0 -160 199 -160q126 0 219 35q29 11 47 39q19 28 29 74z" />
    <glyph glyph-name="b" unicode="b" horiz-adv-x="1122" 
d="M113 180l276 1309q10 43 45 43h70q33 0 33 -29q0 -12 -2 -26l-113 -535q113 94 342 94q280 0 280 -299q0 -148 -39 -311q-41 -170 -120 -276q-78 -102 -179 -139q-105 -38 -266 -38q-164 0 -272 41q-64 24 -64 90q0 29 9 76zM264 211q-4 -19 -4 -45q0 -35 45 -47
q69 -21 154 -21q219 0 309 125q55 82 91 229t36 257q0 95 -47 147q-46 51 -158 51q-82 0 -167 -25q-87 -26 -117 -63q-15 -15 -21 -49z" />
    <glyph glyph-name="c" unicode="c" horiz-adv-x="927" 
d="M246 348q0 -248 239 -248q97 0 203 25q2 0 29 7q20 5 24 5q21 0 27 -24q14 -36 14 -64q0 -22 -43 -37q-125 -39 -288 -39q-167 0 -263 87t-96 257q0 156 51 318q50 159 154 266q133 135 377 135q144 0 223 -26q31 -11 31 -35q0 -29 -21 -74q-7 -20 -33 -20q-12 0 -55 10
q-60 16 -170 16q-159 0 -264 -108q-70 -74 -104 -200q-35 -128 -35 -251z" />
    <glyph glyph-name="d" unicode="d" horiz-adv-x="1132" 
d="M895 166q-11 -55 -27 -78q-23 -36 -80 -59q-132 -56 -335 -56q-172 0 -267 89q-94 88 -94 251q0 164 58 333q57 168 169 269q130 121 383 121q140 0 224 -35l102 488q10 43 43 43h72q33 0 33 -29q0 -10 -2 -26zM762 233l121 566q6 22 6 43q0 26 -25 37q-68 30 -184 30
q-164 0 -254 -78q-87 -78 -134 -209q-48 -134 -48 -286q0 -238 235 -238q127 0 213 33q33 15 45 37q18 25 25 65z" />
    <glyph glyph-name="e" unicode="e" horiz-adv-x="1026" 
d="M254 467q-12 -77 -12 -133q0 -125 67 -179q69 -55 203 -55q108 0 231 33l21 5q18 4 21 5q12 2 16 2q19 0 26 -24q13 -41 13 -55q0 -28 -41 -43q-135 -50 -326 -50t-286 90t-95 256t49 320q49 155 154 260q137 137 375 137q168 0 238 -69q71 -69 71 -199q0 -108 -27 -229
q-13 -49 -28 -60q-15 -12 -47 -12h-623zM279 588h538q23 67 23 168q0 76 -44 117q-43 40 -155 40q-158 0 -252 -98q-70 -72 -110 -227z" />
    <glyph glyph-name="f" unicode="f" horiz-adv-x="655" 
d="M285 39q-6 -43 -47 -43h-68q-33 0 -33 29q0 15 4 30l176 828h-122q-33 0 -33 24q0 25 10 64t47 39h127l27 129q45 210 139 288q134 111 365 111q53 0 53 -37q0 -35 -4 -55q-6 -35 -43 -35q-216 -7 -293 -98q-43 -49 -72 -187l-26 -116h229q31 0 31 -31q0 -26 -13 -68
q-7 -28 -45 -28h-229z" />
    <glyph glyph-name="g" unicode="g" horiz-adv-x="1120" 
d="M715 33q-101 -58 -281 -58q-163 0 -253 90q-89 89 -89 263q0 152 54 312t155 261q137 135 399 135q191 0 308 -43q47 -18 47 -53l-8 -53l-179 -844q-32 -159 -86 -268q-69 -135 -231 -195q-159 -59 -422 -59q-47 0 -47 33q0 36 4 61q6 35 47 35q235 0 342 39
q109 40 160 114q41 58 70 183zM760 223l127 598q4 19 4 27q0 29 -31 37q-66 24 -186 24q-183 0 -277 -104q-66 -75 -110 -202q-43 -125 -43 -257q0 -246 233 -246q133 0 217 37q34 15 49 39q11 19 17 47z" />
    <glyph glyph-name="h" unicode="h" horiz-adv-x="1165" 
d="M229 37q-11 -41 -45 -41h-69q-35 0 -35 27q0 6 6 36l303 1430q10 43 47 43h68q33 0 33 -29q0 -8 -2 -24l-115 -537q122 96 366 96q110 0 187 -39q76 -39 76 -133q0 -67 -21 -166l-141 -663q-6 -41 -45 -41h-68q-35 0 -35 27q0 17 4 36l136 617q14 71 14 127
q0 104 -172 104q-163 0 -266 -53q-34 -16 -45 -29q-19 -24 -29 -71z" />
    <glyph glyph-name="i" unicode="i" horiz-adv-x="495" 
d="M229 37q-6 -41 -45 -41h-69q-31 0 -31 29q0 13 4 32l195 914q10 43 47 43h69q31 0 31 -31q0 -9 -6 -33zM522 1382q0 -65 -37 -102q-29 -23 -71 -23q-84 0 -84 72q0 65 35 98q27 27 75 27q82 0 82 -72z" />
    <glyph glyph-name="j" unicode="j" horiz-adv-x="493" 
d="M199 -100q-38 -188 -133 -271q-54 -44 -153 -76t-161 -32q-31 0 -37 30q-4 19 -4 54t47 43q136 24 197 65q69 47 98 185l230 1073q10 43 47 43h69q31 0 31 -31q0 -9 -6 -33zM522 1382q0 -65 -37 -102q-29 -23 -71 -23q-84 0 -84 72q0 65 35 98q27 27 75 27q82 0 82 -72z
" />
    <glyph glyph-name="k" unicode="k" horiz-adv-x="1034" 
d="M229 37q-11 -41 -45 -41h-69q-35 0 -35 27q0 6 6 36l307 1434q11 39 45 39h70q33 0 33 -29q0 -8 -2 -24l-183 -850h125q65 0 99 37l303 315q30 33 63 33q72 0 92 -4q19 -2 19 -23q0 -18 -31 -49q-203 -217 -379 -383q108 -192 256 -479q17 -29 17 -45q0 -23 -25 -31
q-23 -6 -86 -6q-31 0 -49 35l-223 436q-18 37 -72 37h-135z" />
    <glyph glyph-name="l" unicode="l" horiz-adv-x="530" 
d="M532 1477l-253 -1194q-13 -57 -13 -86q0 -41 28 -61q26 -19 81 -25q28 -1 28 -33q0 -34 -10 -60q-7 -26 -47 -26q-94 0 -162 39q-67 39 -67 129q0 54 14 116l256 1213q10 43 45 43h70q33 0 33 -29q0 -2 -3 -26z" />
    <glyph glyph-name="m" unicode="m" horiz-adv-x="1759" 
d="M231 37q-6 -41 -45 -41h-69q-33 0 -33 27q0 12 6 36l164 772q17 87 88 121q192 86 422 86q174 0 229 -96q145 96 398 96q110 0 187 -41t77 -135q0 -72 -21 -174l-139 -651q-6 -41 -45 -41h-70q-32 0 -32 27q0 8 6 38l133 613q16 83 16 125q0 108 -170 108
q-125 0 -243 -51q-34 -17 -48 -31t-20 -51q0 -1 -3 -12.5t-8 -34t-10 -47.5l-135 -643q-11 -41 -47 -41h-69q-31 0 -31 27q0 8 6 38l131 613q16 86 16 121q0 62 -39 87q-40 25 -122 25q-139 0 -252 -51q-34 -16 -45 -29q-15 -15 -27 -63z" />
    <glyph glyph-name="n" unicode="n" horiz-adv-x="1153" 
d="M231 37q-11 -41 -45 -41h-69q-33 0 -33 27q0 12 6 36l162 772q16 83 90 121q187 86 440 86q113 0 190 -41t77 -135q0 -84 -21 -174l-139 -651q-11 -41 -45 -41h-70q-33 0 -33 27q0 3 7 38l131 613q18 74 18 125q0 108 -176 108q-147 0 -264 -51q-31 -16 -45 -29
q-15 -15 -25 -63z" />
    <glyph glyph-name="o" unicode="o" horiz-adv-x="1099" 
d="M1022 727q0 -128 -40 -304q-41 -182 -116 -286q-114 -164 -387 -164q-188 0 -288 70q-99 69 -99 260q0 144 47 321q46 173 137 275q123 137 361 137q96 0 153 -10q61 -11 117 -40q58 -30 86 -94q29 -66 29 -165zM874 705q0 121 -62 162q-63 42 -191 42q-163 0 -242 -100
q-64 -78 -98 -235q-35 -161 -35 -259q0 -123 57 -169q56 -46 186 -46q195 0 271 127q49 78 82 236q32 151 32 242z" />
    <glyph glyph-name="p" unicode="p" horiz-adv-x="1128" 
d="M129 -436q-10 -43 -51 -43h-62q-36 0 -36 28l6 37l264 1233q10 56 29 84q23 32 77 58q160 75 398 75q159 0 225 -73q65 -72 65 -236q0 -130 -34 -287q-34 -158 -109 -268q-77 -112 -182 -155q-108 -44 -273 -44q-144 0 -221 41zM264 207q-4 -13 -4 -39q0 -28 27 -43
q60 -27 176 -27q127 0 202 36q73 35 123 122q47 84 77 219q30 137 30 223q0 107 -44 157t-159 50q-119 0 -227 -45q-45 -21 -59 -41q-13 -19 -23 -63z" />
    <glyph glyph-name="q" unicode="q" horiz-adv-x="1132" 
d="M723 55q-113 -82 -293 -82q-160 0 -249 94t-89 246q0 175 67 353q66 176 197 272q129 98 363 98q158 0 262 -43q68 -29 68 -75q0 -25 -11 -72l-272 -1280q-10 -45 -45 -45h-68q-35 0 -35 28q0 8 7 41zM762 236l119 559q6 38 6 49q0 24 -25 35q-62 30 -172 30
q-160 0 -244 -63q-96 -74 -149 -212q-53 -139 -53 -300q0 -109 57 -172q58 -64 168 -64q136 0 238 58q27 17 38 34t17 46z" />
    <glyph glyph-name="r" unicode="r" horiz-adv-x="727" 
d="M231 37q-11 -41 -45 -41h-71q-31 0 -31 27q0 8 6 38l160 758q16 77 69 123q46 40 149 67q104 27 210 27q76 0 100 -6q19 -6 19 -33q0 -39 -13 -71q-11 -25 -39 -25q-16 0 -37 1t-44 1q-143 0 -211 -41q-33 -17 -45 -37q-16 -22 -23 -63z" />
    <glyph glyph-name="s" unicode="s" horiz-adv-x="856" 
d="M553 535q195 -69 195 -226q0 -148 -93 -239q-100 -97 -331 -97q-186 0 -299 52q-25 11 -25 30q0 30 23 76q16 25 38 25q15 0 41 -13q93 -43 242 -43q159 0 211 58q45 51 45 123q0 47 -30 78q-31 33 -126 67l-127 47q-186 69 -186 227q0 164 115 256q102 78 311 78
q129 0 234 -28q30 -8 30 -33q0 -23 -16 -74q-10 -22 -35 -22q-5 0 -35 6q-108 26 -207 26q-139 0 -192 -41q-57 -44 -57 -141q0 -93 149 -145z" />
    <glyph glyph-name="t" unicode="t" horiz-adv-x="667" 
d="M455 881l-109 -504q-14 -69 -14 -119q0 -78 51 -111q37 -25 156 -36q36 -4 36 -35q0 -36 -10 -62q-11 -30 -49 -30q-153 1 -245 50q-91 48 -91 177q0 83 25 192l104 478h-114q-31 0 -31 24q0 29 10 68q10 37 47 37h117v2q1 1 1.5 4t0.5 5l6 28q2 6 5 21t5 23q1 5 7 27
t9 38q9 40 21 87q15 47 45 47h64q26 0 26 -30q0 -24 -4 -43l-45 -209h199q37 0 37 -31q0 -28 -10 -64q-7 -34 -50 -34h-200z" />
    <glyph glyph-name="u" unicode="u" horiz-adv-x="1153" 
d="M918 172q-21 -91 -91 -121q-169 -78 -428 -78q-122 0 -198 46t-76 143q0 64 22 168l136 641q10 43 45 43h69q33 0 33 -27q0 -11 -6 -41l-131 -610q-17 -71 -17 -119q0 -115 183 -115q144 0 254 43q27 12 45 33q18 18 26 60l156 733q10 43 47 43h68q35 0 35 -27
q0 -4 -7 -39z" />
    <glyph glyph-name="v" unicode="v" horiz-adv-x="956" 
d="M399 147q99 192 475 822q29 47 60 47q44 0 82 -6q24 -2 24 -29q0 -15 -22 -55l-524 -858q-22 -35 -47 -57q-20 -17 -58 -17h-35q-41 0 -59 18q-19 19 -25 60l-147 856q-4 25 -4 41q0 35 31 41q38 6 77 6q35 0 43 -47q111 -689 129 -822z" />
    <glyph glyph-name="w" unicode="w" horiz-adv-x="1478" 
d="M815 801q-26 -61 -379 -731q-24 -46 -49 -61q-24 -15 -63 -15h-31q-74 0 -80 76l-57 850q-2 30 -2 49q0 35 32 41q73 6 82 6q34 0 35 -49q33 -505 45 -817q110 222 381 731q22 45 46 66q21 18 59 18h22q33 0 52 -17q18 -16 24 -63q66 -571 78 -735q115 262 376 813
q24 53 60 53q48 0 86 -6q18 -2 18 -27q0 -13 -24 -65l-410 -846q-38 -78 -110 -78h-33q-72 0 -82 76q-70 625 -76 731z" />
    <glyph glyph-name="x" unicode="x" horiz-adv-x="1001" 
d="M504 418l-363 -385q-34 -37 -63 -37q-67 0 -88 6q-21 4 -21 23q0 20 35 55l424 444l-211 408q-16 28 -16 43q0 25 22 31q40 8 88 8q18 0 29 -9q9 -8 22 -38l177 -349q118 139 327 355q39 41 68 41q53 0 88 -8q16 -4 16 -23t-32 -55l-392 -412l234 -438q14 -22 14 -47
q0 -20 -22 -27q-26 -8 -90 -8q-27 0 -45 35z" />
    <glyph glyph-name="y" unicode="y" horiz-adv-x="1153" 
d="M741 45q-135 -72 -344 -72q-272 0 -272 191q0 67 20 164l138 645q11 41 47 41h69q31 0 31 -25q0 -23 -2 -33l-135 -624q-17 -71 -17 -121q0 -109 181 -109q159 0 260 43q29 16 45 35q16 24 24 68l154 723q10 43 49 43h66q35 0 35 -27q0 -6 -5 -24l-196 -932
q-34 -160 -82 -252q-75 -138 -237 -198q-164 -60 -431 -60q-47 0 -47 37q0 27 2 49q8 47 45 47q245 0 360 41q113 40 165 121q42 61 65 176z" />
    <glyph glyph-name="z" unicode="z" horiz-adv-x="958" 
d="M782 0h-714q-78 0 -78 68q0 56 69 125l701 686h-561q-31 0 -31 22q0 23 12 70q12 39 49 39h635q84 0 84 -70q0 -58 -65 -123l-705 -688h631q31 0 31 -31q0 -12 -13 -67q-8 -31 -45 -31z" />
    <glyph glyph-name="braceleft" unicode="{" horiz-adv-x="641" 
d="M240 612q131 -35 131 -174q0 -34 -17 -119l-61 -303q-17 -88 -17 -112q0 -40 25 -70q29 -34 145 -41q25 -2 25 -26q0 -25 -6 -43q-11 -25 -39 -25q-167 4 -227 51q-60 44 -60 129q0 53 19 135l63 297q15 69 15 119q0 121 -127 143q-25 2 -25 25q0 21 4 37q6 31 35 37
q101 17 150 70q51 56 75 173l60 279q34 172 96 238q84 92 303 92q31 0 31 -27q0 -15 -7 -41q-6 -29 -36 -29q-142 0 -193 -67q-30 -39 -57 -156l-64 -293q-30 -142 -87 -204q-59 -63 -154 -95z" />
    <glyph glyph-name="bar" unicode="|" horiz-adv-x="456" 
d="M143 -262q-7 -43 -45 -43h-53q-31 0 -31 29q0 6 6 36l373 1747q10 43 45 43h54q32 0 32 -26q0 -5 -6 -35z" />
    <glyph glyph-name="braceright" unicode="}" horiz-adv-x="679" 
d="M481 610q-131 35 -131 172q0 42 17 121l63 303q16 70 16 111t-24 69q-35 39 -148 44q-22 0 -22 24q0 26 6 43q10 27 39 27q167 -4 227 -51q58 -46 58 -132q0 -36 -19 -133l-61 -299q-17 -79 -17 -116q0 -124 127 -146q27 -6 27 -22q0 -21 -6 -39q-6 -29 -35 -35
q-98 -16 -148 -71t-77 -175l-60 -276q-34 -172 -96 -238q-84 -92 -301 -92q-33 0 -33 27q0 17 6 41q7 26 39 26q146 5 193 68q28 38 55 157l66 291q30 145 86 206q57 62 153 95z" />
    <glyph glyph-name="asciitilde" unicode="~" horiz-adv-x="1435" 
d="M324 506q-18 -21 -33 -21q-20 0 -45 23q-21 21 -21 39q0 13 15 28q154 177 303 177q84 0 241 -95q117 -69 195 -69q58 0 105 28q49 29 106 101q18 22 35 22q14 0 35 -14q32 -22 32 -45q0 -15 -10 -31q-135 -184 -305 -184q-105 0 -236 80q-136 82 -204 82
q-95 0 -213 -121z" />
    <glyph glyph-name="exclamdown" unicode="&#xa1;" horiz-adv-x="581" 
d="M174 537q10 43 49 43h49q39 0 39 -33q0 -5 -6 -43q-162 -828 -174 -873q-15 -53 -57 -53h-68q-41 0 -41 41q0 20 209 918zM203 895q0 79 43 119q32 28 86 28q98 0 98 -86q0 -70 -41 -114q-33 -33 -90 -33q-96 0 -96 86z" />
    <glyph glyph-name="cent" unicode="&#xa2;" horiz-adv-x="1028" 
d="M590 -12l-33 -162q-6 -39 -43 -39h-47q-31 0 -31 25l4 28l35 150q-140 17 -216 100q-77 85 -77 236q0 147 49 306q50 161 144 263q118 125 321 137l33 156q7 43 41 43h47q31 0 31 -25q0 -18 -4 -37l-31 -133q104 -6 172 -26q29 -11 29 -35q0 -19 -21 -76q-10 -20 -30 -20
q-25 0 -58 10q-64 16 -162 16q-170 0 -264 -106q-70 -78 -104 -200q-35 -126 -35 -247q0 -233 238 -233q98 0 200 24q44 13 53 13q17 0 23 -19q14 -43 14 -67t-39 -39q-97 -32 -239 -43z" />
    <glyph glyph-name="sterling" unicode="&#xa3;" horiz-adv-x="1224" 
d="M1024 0h-872q-33 0 -33 23q0 29 12 79q11 33 47 33h123l96 449h-145q-35 0 -35 24q0 25 10 64q7 37 49 37h148l59 272q45 208 121 287q74 80 168 110q98 31 242 31q152 0 262 -29q33 -10 33 -37q0 -30 -19 -79q-8 -21 -37 -21q-5 0 -30 5t-29 5q-121 23 -209 23
q-172 0 -254 -76q-66 -61 -100 -223l-56 -268h371q39 0 39 -29q0 -14 -12 -64q-7 -32 -45 -32h-379l-96 -449h598q32 0 32 -24q0 -31 -14 -84q-5 -27 -45 -27z" />
    <glyph glyph-name="currency" unicode="&#xa4;" horiz-adv-x="1107" 
d="M1018 252q-11 -14 -29 -14q-13 0 -28 14l-107 102q-100 -75 -242 -75q-139 0 -243 75l-99 -102q-16 -16 -30 -16q-15 0 -31 16l-16 16q-17 17 -17 29q0 16 17 33l104 106q-80 107 -80 244q0 129 80 242l-104 104q-17 17 -17 31q0 15 17 30l16 15q16 16 31 16q12 0 26 -14
l105 -105q106 82 241 82q145 0 240 -80l106 103q20 16 29 16q14 0 29 -16l16 -17q17 -17 17 -28q0 -8 -17 -31l-104 -104q80 -103 80 -244t-80 -244l108 -106q15 -12 15 -29q0 -16 -17 -33zM899 680q0 126 -81 209q-81 82 -206 82q-121 0 -203 -82q-83 -83 -83 -207
q0 -131 82 -213t204 -82q125 0 206 82q81 83 81 211z" />
    <glyph glyph-name="yen" unicode="&#xa5;" horiz-adv-x="1232" 
d="M612 37q-11 -41 -45 -41h-75q-33 0 -33 29q0 9 4 30l78 369h-301q-33 0 -33 25q0 5 6 38q7 33 45 33h305l17 82l-41 92h-242q-31 0 -31 25q0 19 6 41q8 31 45 31h179l-224 499q-14 31 -14 51q0 29 29 37q18 6 84 6q33 0 49 -43q193 -433 256 -604q65 82 512 596
q44 51 76 51q71 0 90 -4q20 -6 20 -26q0 -17 -35 -58l-446 -505h184q35 0 35 -25q0 -1 -8 -41q-8 -31 -41 -31h-252l-80 -90l-18 -84h307q35 0 35 -26q0 -14 -6 -41q-6 -29 -41 -29h-314z" />
    <glyph glyph-name="brokenbar" unicode="&#xa6;" horiz-adv-x="456" 
d="M387 885q-6 -43 -45 -43h-53q-31 0 -31 28q0 5 6 35l113 522q10 43 45 43h53q33 0 33 -26q0 -7 -6 -37zM199 6q-6 -43 -45 -43h-54q-30 0 -30 29q0 5 6 35l112 522q10 43 45 43h54q32 0 32 -27q0 -7 -6 -37z" />
    <glyph glyph-name="section" unicode="&#xa7;" horiz-adv-x="1005" 
d="M698 231q86 -74 86 -194q0 -156 -102 -261q-103 -106 -332 -106q-195 0 -307 56q-39 21 -39 45q0 28 25 73q11 21 34 21q15 0 43 -12q116 -54 267 -54q125 0 191 58q65 57 65 163q0 61 -43 104q-48 48 -166 114l-80 47q-209 119 -209 282q0 145 84 220t199 87
q-36 23 -61 76q-23 49 -23 103q0 57 15 111t54 117t124 100q87 38 206 38q145 0 250 -32q37 -12 37 -41q0 -21 -23 -72q-11 -25 -32 -25l-5 1q-5 2 -17 5.5t-24 6.5q-90 28 -210 28q-123 0 -175 -60q-53 -61 -53 -151q0 -55 36 -100q36 -46 130 -102l70 -41
q137 -83 188 -146t51 -145q0 -254 -254 -314zM807 506q0 56 -25 95q-24 38 -88 79q-82 55 -162 98q-28 15 -53 15t-57 -9q-148 -35 -148 -186q0 -92 115 -166q88 -60 193 -108q22 -11 36 -11q30 0 56 13q133 52 133 180z" />
    <glyph glyph-name="dieresis" unicode="&#xa8;" horiz-adv-x="403" 
d="M111 1380q0 -67 -33 -100q-30 -25 -74 -25q-82 0 -82 72q0 66 33 96q29 29 78 29q78 0 78 -72zM479 1380q0 -67 -35 -100q-25 -25 -71 -25q-80 0 -80 72q0 67 31 96q29 29 75 29q80 0 80 -72z" />
    <glyph glyph-name="copyright" unicode="&#xa9;" horiz-adv-x="1699" 
d="M1618 707q0 -319 -201 -527q-201 -209 -526 -209t-526 209q-201 208 -201 527q0 317 201 527t524 210q333 0 531 -208t198 -529zM1538 707q0 289 -177 476t-472 187q-291 0 -469 -188t-178 -475t177 -475q177 -187 472 -187q293 0 470 186t177 476zM649 586
q0 -226 213 -226q96 0 182 23q33 10 48 10q20 0 28 -24q10 -29 10 -50q0 -25 -32 -32q-120 -37 -264 -37q-153 0 -235 82q-83 83 -83 250q0 317 164 475q111 110 330 110q94 0 168 -16q32 -6 32 -33q0 -25 -14 -61q-6 -17 -27 -17q-7 0 -12 1q-7 1 -20 3q-4 0 -10.5 1.5
t-8.5 1.5q-53 8 -125 8q-143 0 -221 -78q-63 -63 -93 -174t-30 -217z" />
    <glyph glyph-name="ordfeminine" unicode="&#xaa;" horiz-adv-x="698" 
d="M621 653q-11 -45 -27 -63q-10 -14 -45 -31q-90 -35 -227 -35q-199 0 -199 154q0 146 104 201q61 30 207 30q22 0 127 -6q19 84 19 111q0 61 -113 61q-82 0 -139 -12q-40 -8 -45 -8q-17 0 -21 20q-6 24 -6 41q0 25 31 31q91 27 198 27q99 0 156 -24t57 -99q0 -45 -14 -107
zM545 823q-61 8 -115 8q-104 0 -147 -22q-54 -29 -54 -109q0 -86 117 -86q86 0 125 15q24 8 31 22q14 22 43 172z" />
    <glyph glyph-name="guillemotleft" unicode="&#xab;" horiz-adv-x="980" 
d="M246 541l184 -336q12 -22 12 -41q0 -21 -24 -27q-25 -4 -70 -4q-26 0 -55 45l-191 326q-14 22 -14 45q0 24 25 49l323 309q45 45 82 45q54 0 70 -4q24 -6 24 -24t-28 -45zM641 541l184 -336q13 -24 13 -41q0 -21 -25 -27q-25 -4 -70 -4q-27 0 -55 45l-190 326
q-15 24 -15 45q0 24 25 49l323 309q45 45 82 45q54 0 70 -4q23 -6 23 -24t-27 -45z" />
    <glyph glyph-name="logicalnot" unicode="&#xac;" horiz-adv-x="1435" 
d="M1188 106q-4 -34 -41 -34h-43q-35 0 -35 30q0 4 4 23l90 418h-905q-37 0 -37 35q0 8 8 51q10 37 41 37h987q39 0 39 -33q0 -5 -6 -35z" />
    <glyph glyph-name="uni00AD" unicode="&#xad;" horiz-adv-x="679" 
d="M547 481h-402q-30 0 -30 27q0 19 14 72q7 34 45 34h397q33 0 33 -26q0 -23 -14 -76q-8 -31 -43 -31z" />
    <glyph glyph-name="registered" unicode="&#xae;" horiz-adv-x="1699" 
d="M1616 707q0 -319 -201 -527q-201 -209 -526 -209q-326 0 -527 209q-200 207 -200 527q0 318 200 527q201 210 525 210q333 0 531 -208t198 -529zM1538 707q0 289 -178 476t-473 187q-291 0 -468 -187t-177 -476q0 -287 177 -475q177 -187 470 -187q295 0 472 186t177 476
zM645 301q-6 -31 -37 -31h-53q-31 0 -31 25q0 10 4 31l150 704q17 77 53 109t113 32h86q149 0 217 -34q96 -47 96 -172q0 -231 -215 -299l125 -328q8 -24 8 -35q0 -25 -33 -31q-24 -6 -57 -6q-29 0 -41 35l-121 344h-80h-108zM741 748h123q80 0 140 18q54 17 83 62
q31 48 31 106q0 86 -63 115q-33 16 -129 16h-62q-55 0 -67 -59z" />
    <glyph glyph-name="macron" unicode="&#xaf;" horiz-adv-x="403" 
d="M420 1249h-463q-35 0 -35 29q0 25 12 70q12 36 50 36h460q37 0 37 -28q0 -25 -14 -74q-10 -33 -47 -33z" />
    <glyph glyph-name="degree" unicode="&#xb0;" horiz-adv-x="688" 
d="M776 1204q0 -141 -81 -225t-222 -84q-118 0 -189 68t-71 190q0 139 83 222t222 83q122 0 190 -65t68 -189zM690 1196q0 186 -180 186q-95 0 -151 -59t-56 -172q0 -87 49 -133q50 -47 133 -47q92 0 149 58q56 57 56 167z" />
    <glyph glyph-name="plusminus" unicode="&#xb1;" horiz-adv-x="1435" 
d="M756 305q-4 -37 -41 -37h-43q-35 0 -35 31q0 12 4 31l88 401h-430q-35 0 -35 31q0 16 8 51q6 37 41 37h439l90 420q6 37 39 37h45q35 0 35 -35q0 -8 -5 -31l-86 -391h433q34 0 34 -33q0 -14 -8 -51q-6 -35 -41 -35h-440zM1165 0h-993q-33 0 -33 33q0 20 6 53q6 35 41 35
h996q32 0 32 -35q0 -7 -8 -49q-6 -37 -41 -37z" />
    <glyph glyph-name="twosuperior" unicode="&#xb2;" 
d="M737 860h-512q-49 0 -49 49q0 47 39 76q265 182 393 287q63 52 92 99q31 50 31 118q0 131 -164 131q-59 0 -133 -18q-2 0 -8 -2t-10 -3t-10.5 -2.5t-7.5 -1.5q-10 -2 -11 -2q-16 0 -22 17q-9 40 -9 47q0 20 39 35q99 30 211 30q250 0 250 -209q0 -86 -32 -150
q-31 -62 -105 -124q-138 -115 -377 -276h412q24 0 24 -19q0 -17 -8 -57q-6 -25 -33 -25z" />
    <glyph glyph-name="threesuperior" unicode="&#xb3;" 
d="M639 1305q147 -17 147 -160q0 -145 -75 -217q-85 -84 -289 -84q-119 0 -191 24q-26 10 -26 29t16 57q6 15 27 15q8 0 43 -8q68 -17 145 -17q138 0 187 55q45 51 45 140q0 57 -41 83q-40 25 -156 27q-39 0 -39 37q0 64 55 64q128 0 179 45q51 39 51 123q0 102 -150 102
q-90 0 -139 -16q-36 -11 -45 -11q-12 0 -18 17q-9 36 -9 47q0 21 39 33q91 30 209 30q127 0 179 -46q53 -47 53 -132q0 -190 -197 -237z" />
    <glyph glyph-name="acute" unicode="&#xb4;" horiz-adv-x="403" 
d="M129 1212q-26 -26 -61 -26q-16 0 -54 6q-26 7 -26 27t16 36l236 256q30 33 69 33q54 0 84 -6q29 -6 29 -29q0 -19 -21 -36z" />
    <glyph glyph-name="mu" unicode="&#xb5;" horiz-adv-x="1228" 
d="M195 -375q-10 -43 -48 -43h-65q-37 0 -37 29q0 6 4 19t4 20l281 1321q5 17 7 23q3 8 12 14t26 6h70q32 0 32 -29q0 -11 -6 -41l-131 -602q-14 -71 -14 -123q0 -117 196 -117q141 0 240 45q27 11 45 31q20 19 27 60l157 733q10 43 45 43h70q33 0 33 -29q0 -1 -6 -39
l-168 -778q-18 -91 -88 -121q-165 -74 -373 -74q-168 0 -223 72z" />
    <glyph glyph-name="paragraph" unicode="&#xb6;" horiz-adv-x="1146" 
d="M498 -225q-7 -37 -39 -37h-27q-29 0 -29 24q0 7 5 25l147 702q-192 0 -283 94q-90 93 -90 244q0 359 254 521q156 98 414 98h264q49 0 49 -35q0 -15 -6 -45l-338 -1591q-7 -37 -41 -37h-28q-29 0 -29 24q0 14 4 25l334 1565h-225z" />
    <glyph glyph-name="periodcentered" unicode="&#xb7;" horiz-adv-x="450" 
d="M354 584q0 -81 -43 -121q-31 -31 -86 -31q-98 0 -98 88q0 72 41 113q33 35 90 35q96 0 96 -84z" />
    <glyph glyph-name="cedilla" unicode="&#xb8;" horiz-adv-x="403" 
d="M233 -121q168 -1 168 -147q0 -123 -71 -175q-73 -53 -209 -53q-60 0 -92 9q-26 8 -27 30q0 12 8 47q8 29 37 29q16 0 37 -4q30 -2 61 -2q60 0 89 20q30 21 30 76q0 68 -88 68h-33q-34 0 -34 33q0 16 14 57l55 153h101z" />
    <glyph glyph-name="onesuperior" unicode="&#xb9;" 
d="M659 860h-348q-22 0 -22 21q0 20 10 57q6 25 35 25h119l137 622l-125 -45q-18 -6 -29 -6q-12 0 -16 12q-17 48 -17 56q0 16 23 24l168 64q36 14 68 14h8q51 0 51 -43q0 -16 -10 -59l-144 -639h113q27 0 27 -19q0 -1 -1.5 -7.5t-5 -21.5t-6.5 -30q-8 -25 -35 -25z" />
    <glyph glyph-name="ordmasculine" unicode="&#xba;" horiz-adv-x="712" 
d="M731 983q0 -82 -25 -188q-26 -109 -75 -172q-77 -99 -248 -99q-120 0 -184 44t-64 163q0 87 29 194q28 105 86 167q79 82 231 82q125 0 188 -36q62 -35 62 -155zM614 967q0 65 -34 89q-33 23 -109 23q-93 0 -139 -55q-41 -47 -61 -136q-21 -92 -21 -149q0 -70 34 -94
q35 -24 109 -24q111 0 156 69q29 46 47 135q18 90 18 142z" />
    <glyph glyph-name="guillemotright" unicode="&#xbb;" horiz-adv-x="980" 
d="M770 545l-184 336q-15 24 -15 41q0 20 25 26q29 4 70 4q28 0 57 -45l190 -323q15 -24 15 -45q0 -25 -27 -52l-323 -307q-47 -47 -80 -47q-56 0 -72 4q-23 6 -23 27t27 45zM375 545l-185 336q-14 22 -14 41q0 20 27 26q25 4 67 4q30 0 58 -45l190 -323q14 -22 14 -45
q0 -26 -26 -52l-324 -307q-47 -47 -80 -47q-55 0 -71 4q-23 6 -23 27q0 19 27 43z" />
    <glyph glyph-name="onequarter" unicode="&#xbc;" horiz-adv-x="1734" 
d="M1378 27q-6 -29 -30 -29h-56q-24 0 -24 20q0 12 4 27l37 168h-332q-59 0 -59 51q0 42 30 80l359 469q23 33 45 33q48 0 67 -4q15 0 15 -17q0 -11 -15 -32l-366 -478h278l43 193q6 29 31 29h59q23 0 23 -21q0 -11 -4 -22l-41 -179h106q27 0 27 -20q0 -16 -14 -59
q-6 -23 -31 -23h-109zM467 -31q-24 -35 -51 -35q-13 0 -37 3q-17 2 -17 18t19 41l919 1415q30 45 58 45q22 0 41 -4q16 -1 16 -18q0 -19 -22 -48zM584 541h-348q-23 0 -23 20t10 57q6 25 35 25h119l137 623l-125 -45q-21 -7 -29 -7q-10 0 -18 13q-14 46 -14 55q0 18 22 25
l168 63q36 14 68 14h8q49 0 49 -43q0 -19 -8 -59l-143 -639h112q27 0 27 -18q0 -1 -1.5 -7.5t-5 -22.5t-6.5 -30q-8 -24 -34 -24z" />
    <glyph glyph-name="onehalf" unicode="&#xbd;" horiz-adv-x="1734" 
d="M1479 0h-512q-50 0 -50 49q0 47 39 76q271 186 394 287q63 52 92 99q31 50 31 118q0 131 -164 131q-55 0 -133 -19q-1 0 -8 -1.5t-11 -2.5t-9.5 -2.5t-7.5 -1.5q-10 -2 -12 -2q-16 0 -22 17q-8 35 -8 47q0 19 39 34q102 31 211 31q249 0 249 -209q0 -88 -31 -150
q-30 -61 -106 -124q-143 -120 -377 -277h412q25 0 25 -18q0 -12 -9 -57q-6 -25 -32 -25zM440 -31q-24 -35 -51 -35q-13 0 -37 3q-16 1 -16 18t18 41l920 1415q30 45 57 45q22 0 41 -4q17 -2 17 -18q0 -17 -23 -48zM565 541h-348q-22 0 -22 20t10 57q6 25 35 25h118l138 623
l-125 -45q-21 -7 -29 -7q-10 0 -18 13q-15 49 -15 55q0 17 23 25l168 63q36 14 67 14h8q50 0 50 -43q0 -14 -9 -59l-143 -639h113q26 0 26 -18q0 -5 -12 -60q-8 -24 -35 -24z" />
    <glyph glyph-name="threequarters" unicode="&#xbe;" horiz-adv-x="1734" 
d="M551 -31q-24 -35 -51 -35q-13 0 -37 3q-17 2 -17 18t19 41l919 1415q30 45 58 45q22 0 41 -4q16 -1 16 -18q0 -19 -22 -48zM631 985q147 -17 147 -160q0 -145 -73 -217q-85 -84 -289 -84q-119 0 -191 25q-26 10 -26 29t16 57q6 14 25 14q8 0 43 -8q67 -16 145 -16
q139 0 188 55q46 54 46 139q0 57 -42 83q-44 27 -155 28q-39 0 -39 37q0 63 55 63q127 0 178 45q52 40 52 123q0 102 -150 102q-90 0 -139 -16q-33 -10 -45 -10q-13 0 -19 16q-12 34 -12 47q0 21 39 33q110 31 213 31q127 0 179 -46t52 -132q0 -193 -198 -238zM1450 27
q-6 -29 -31 -29h-55q-25 0 -25 20q0 12 4 27l37 168h-331q-60 0 -60 51q0 41 31 80l358 469q22 33 45 33q49 0 68 -4q14 0 14 -17q0 -12 -14 -32l-367 -478h279l43 193q6 29 31 29h59q23 0 23 -21q0 -9 -5 -22l-41 -179h107q27 0 27 -20q0 -13 -15 -59q-6 -23 -30 -23h-109z
" />
    <glyph glyph-name="questiondown" unicode="&#xbf;" horiz-adv-x="837" 
d="M477 582h53q33 0 33 -35q0 -9 -3 -28q-6 -37 -7 -44q-2 -9 -4 -20t-2 -13q-21 -99 -62 -154q-41 -54 -143 -116q-119 -72 -175 -140t-56 -179q0 -74 49 -119q50 -46 151 -47q107 0 221 26q35 8 39 8q22 0 29 -26q12 -44 12 -58q0 -28 -34 -38q-141 -45 -304 -45
q-169 0 -247 72t-78 186q0 149 65 239q66 91 213 180q96 55 133 97q36 40 56 114q6 20 12 56t12 53q6 31 37 31zM436 895q0 76 43 119q35 30 84 30q101 0 101 -88q0 -71 -41 -112q-33 -35 -91 -35q-96 0 -96 86z" />
    <glyph glyph-name="Agrave" unicode="&#xc0;" horiz-adv-x="1208" 
d="M262 459l-229 -412q-17 -31 -28 -42t-30 -11q-73 0 -102 6q-16 4 -16 23q0 20 24 61l719 1268q33 60 60 81t79 21h31q47 0 67 -23q22 -25 29 -79l170 -1264q4 -25 4 -49q0 -32 -22 -39q-21 -6 -90 -6q-23 0 -30 10q-6 9 -11 43l-58 412h-567zM334 592h485
q-53 402 -86 723zM737 1581l-280 217q-25 19 -25 39q0 29 39 31q36 2 102 2q33 0 70 -33l234 -213q20 -17 20 -37t-27 -26q-25 -7 -63 -7q-35 0 -70 27z" />
    <glyph glyph-name="Aacute" unicode="&#xc1;" horiz-adv-x="1208" 
d="M334 459l-230 -412q-18 -33 -27 -42q-11 -11 -30 -11q-75 0 -102 6q-17 5 -17 23q0 19 25 61l719 1268q33 60 60 81t79 21h31q46 0 66 -23q23 -26 30 -79l170 -1264q4 -25 4 -49q0 -32 -22 -39q-21 -6 -91 -6q-22 0 -29 10q-8 11 -12 43l-57 412h-567zM406 592h485
q-53 402 -86 723zM819 1563q-39 -25 -74 -25q-50 0 -65 4q-29 6 -29 27q0 22 23 37l291 215q46 30 77 30q65 0 101 -4q39 -5 39 -28q0 -22 -25 -41z" />
    <glyph glyph-name="Acircumflex" unicode="&#xc2;" horiz-adv-x="1208" 
d="M334 459l-230 -412q-18 -33 -27 -42q-11 -11 -30 -11q-75 0 -102 6q-17 5 -17 23q0 19 25 61l719 1268q33 60 60 81t79 21h31q46 0 66 -23q23 -26 30 -79l170 -1264q4 -25 4 -49q0 -32 -22 -39q-21 -6 -91 -6q-22 0 -29 10q-8 11 -12 43l-57 412h-567zM406 592h485
q-53 402 -86 723zM592 1556q-38 0 -66 7q-22 1 -22 24q0 17 22 35l246 209q44 37 80 37h55q36 0 60 -33l176 -211q10 -10 10 -31q0 -20 -29 -28q-21 -6 -53 -6q-33 0 -63 30l-148 144l-196 -144q-41 -33 -72 -33z" />
    <glyph glyph-name="Atilde" unicode="&#xc3;" horiz-adv-x="1208" 
d="M262 459l-229 -412q-17 -31 -28 -42t-30 -11q-73 0 -102 6q-16 4 -16 23q0 20 24 61l719 1268q33 60 60 81t79 21h31q47 0 67 -23q22 -25 29 -79l170 -1264q4 -25 4 -49q0 -32 -22 -39q-21 -6 -90 -6q-23 0 -30 10q-6 9 -11 43l-58 412h-567zM334 592h485
q-53 402 -86 723zM502 1577q-27 0 -49 8q-19 6 -19 25q0 13 17 47q77 162 190 162q48 0 152 -58q84 -45 122 -45q54 0 93 74q24 41 51 41q29 0 47 -6q20 -6 20 -23q0 -20 -18 -61q-68 -162 -188 -162q-58 0 -162 55q-89 47 -123 47q-49 0 -86 -67q-18 -37 -47 -37z" />
    <glyph glyph-name="Adieresis" unicode="&#xc4;" horiz-adv-x="1208" 
d="M334 459l-230 -412q-18 -33 -27 -42q-11 -11 -30 -11q-75 0 -102 6q-17 5 -17 23q0 19 25 61l719 1268q33 60 60 81t79 21h31q46 0 66 -23q23 -26 30 -79l170 -1264q4 -25 4 -49q0 -32 -22 -39q-21 -6 -91 -6q-22 0 -29 10q-8 11 -12 43l-57 412h-567zM406 592h485
q-53 402 -86 723zM748 1708q0 -72 -33 -102q-25 -25 -74 -25q-82 0 -82 72q0 65 33 98q29 29 76 29q80 0 80 -72zM1135 1708q0 -67 -35 -102q-28 -25 -74 -25q-80 0 -80 72q0 64 31 98q29 29 76 29q82 0 82 -72z" />
    <glyph glyph-name="Aring" unicode="&#xc5;" horiz-adv-x="1208" 
d="M334 459l-230 -412q-18 -33 -27 -42q-11 -11 -30 -11q-75 0 -102 6q-17 5 -17 23q0 19 25 61l719 1268q33 60 60 81t79 21h31q46 0 66 -23q23 -26 30 -79l170 -1264q4 -25 4 -49q0 -32 -22 -39q-21 -6 -91 -6q-22 0 -29 10q-8 11 -12 43l-57 412h-567zM406 592h485
q-53 402 -86 723zM1036 1716q0 -95 -54 -152t-151 -57q-79 0 -124 45t-45 125q0 94 55 150q55 57 147 57q80 0 126 -45t46 -123zM963 1712q0 103 -107 103q-50 0 -87 -35q-36 -34 -36 -94q0 -52 29 -83q28 -30 78 -30q54 0 89 36q34 35 34 103z" />
    <glyph glyph-name="AE" unicode="&#xc6;" horiz-adv-x="1900" 
d="M129 41q-37 -45 -78 -45q-65 0 -92 4q-27 2 -27 27q0 16 33 53l1069 1243q60 70 106 97q44 26 113 26h707q37 0 37 -29q0 -9 -15 -78q-6 -30 -47 -30h-575l-109 -488h531q35 0 35 -28q0 -13 -13 -78q-8 -29 -49 -29h-530l-95 -434q-8 -35 -8 -55q0 -60 64 -60h559
q37 0 37 -28q0 -18 -15 -78q-6 -31 -49 -31h-598q-159 0 -159 125q0 43 10 92l55 258h-520zM612 610h441l151 690z" />
    <glyph glyph-name="Ccedilla" unicode="&#xc7;" horiz-adv-x="1189" 
d="M614 -125q172 -4 172 -156q0 -127 -73 -181t-213 -54q-61 0 -94 10q-27 8 -27 33q0 17 6 47q5 31 39 31q16 0 37 -4t63 -4q123 0 123 100q0 70 -92 70h-33q-35 0 -35 34q0 17 15 60l39 116q-391 37 -391 474q0 234 78 487q79 257 233 391q163 144 469 144q165 0 287 -25
q45 -10 45 -43q0 -31 -21 -78q-7 -18 -29 -18q-18 0 -79 12q-83 16 -234 16q-215 0 -346 -125q-115 -112 -179 -331q-65 -222 -65 -414q0 -358 346 -358q164 0 293 30q72 15 76 15q25 0 31 -29q10 -39 10 -62q0 -25 -49 -40q-170 -46 -371 -50z" />
    <glyph glyph-name="Egrave" unicode="&#xc8;" horiz-adv-x="1112" 
d="M928 0h-617q-84 0 -123 30q-38 29 -38 97q0 44 10 88l219 1036q24 107 73 151t156 44h559q41 0 41 -31q0 -13 -14 -76q-8 -30 -49 -30h-531q-67 0 -84 -80l-88 -408h551q35 0 35 -28q0 -14 -16 -78q-6 -29 -47 -29h-551l-95 -436q0 -1 -2 -17q-1 -5 -2.5 -12t-1.5 -9
q-2 -12 -2 -15q0 -60 64 -60h579q37 0 37 -26q0 -24 -14 -80q-8 -31 -49 -31zM793 1581l-281 217q-25 19 -25 39q0 29 39 31q36 2 103 2q31 0 69 -33l234 -213q20 -17 20 -37t-26 -26q-26 -7 -64 -7q-34 0 -69 27z" />
    <glyph glyph-name="Eacute" unicode="&#xc9;" horiz-adv-x="1112" 
d="M928 0h-617q-84 0 -123 30q-38 29 -38 97q0 44 10 88l219 1036q24 107 73 151t156 44h559q41 0 41 -31q0 -13 -14 -76q-8 -30 -49 -30h-531q-67 0 -84 -80l-88 -408h551q35 0 35 -28q0 -14 -16 -78q-6 -29 -47 -29h-551l-95 -436q0 -1 -2 -17q-1 -5 -2.5 -12t-1.5 -9
q-2 -12 -2 -15q0 -60 64 -60h579q37 0 37 -26q0 -24 -14 -80q-8 -31 -49 -31zM860 1563q-39 -25 -74 -25q-50 0 -65 4q-29 6 -29 27q0 22 23 37l291 215q45 30 77 30q65 0 101 -4q39 -5 39 -28q0 -22 -25 -41z" />
    <glyph glyph-name="Ecircumflex" unicode="&#xca;" horiz-adv-x="1112" 
d="M928 0h-617q-84 0 -123 30q-38 29 -38 97q0 44 10 88l219 1036q24 107 73 151t156 44h559q41 0 41 -31q0 -13 -14 -76q-8 -30 -49 -30h-531q-67 0 -84 -80l-88 -408h551q35 0 35 -28q0 -14 -16 -78q-6 -29 -47 -29h-551l-95 -436q0 -1 -2 -17q-1 -5 -2.5 -12t-1.5 -9
q-2 -12 -2 -15q0 -60 64 -60h579q37 0 37 -26q0 -24 -14 -80q-8 -31 -49 -31zM596 1556q-38 0 -66 7q-22 1 -22 24q0 17 22 35l246 209q44 37 80 37h55q36 0 60 -33l176 -211q10 -10 10 -31q0 -20 -29 -28q-21 -6 -53 -6q-33 0 -63 30l-148 144l-196 -144q-40 -33 -72 -33z
" />
    <glyph glyph-name="Edieresis" unicode="&#xcb;" horiz-adv-x="1112" 
d="M928 0h-617q-84 0 -123 30q-38 29 -38 97q0 44 10 88l219 1036q24 107 73 151t156 44h559q41 0 41 -31q0 -13 -14 -76q-8 -30 -49 -30h-531q-67 0 -84 -80l-88 -408h551q35 0 35 -28q0 -14 -16 -78q-6 -29 -47 -29h-551l-95 -436q0 -1 -2 -17q-1 -5 -2.5 -12t-1.5 -9
q-2 -12 -2 -15q0 -60 64 -60h579q37 0 37 -26q0 -24 -14 -80q-8 -31 -49 -31zM743 1708q0 -73 -32 -102q-25 -25 -74 -25q-82 0 -82 72q0 65 33 98q29 29 76 29q79 0 79 -72zM1130 1708q0 -68 -34 -102q-28 -25 -74 -25q-80 0 -80 72q0 64 31 98q29 29 76 29q81 0 81 -72z
" />
    <glyph glyph-name="Igrave" unicode="&#xcc;" horiz-adv-x="573" 
d="M274 37q-11 -41 -49 -41h-73q-33 0 -33 29l6 36l289 1346q10 43 47 43h74q34 0 34 -29l-6 -43zM512 1581l-281 217q-24 18 -24 39q0 29 39 31q36 2 102 2q32 0 70 -33l233 -213q21 -18 21 -37q0 -20 -27 -26q-26 -7 -63 -7q-36 0 -70 27z" />
    <glyph glyph-name="Iacute" unicode="&#xcd;" horiz-adv-x="573" 
d="M274 37q-11 -41 -49 -41h-73q-33 0 -33 29l6 36l289 1346q10 43 47 43h74q34 0 34 -29l-6 -43zM506 1581q-39 -25 -74 -25q-47 0 -65 5q-29 6 -29 26q0 22 22 37l291 215q47 31 78 31q64 0 100 -4q39 -4 39 -29q0 -23 -24 -41z" />
    <glyph glyph-name="Icircumflex" unicode="&#xce;" horiz-adv-x="573" 
d="M274 37q-11 -41 -49 -41h-73q-33 0 -33 29l6 36l289 1346q10 43 47 43h74q34 0 34 -29l-6 -43zM272 1556q-37 0 -65 7q-23 2 -23 24q0 17 23 35l246 209q44 37 79 37h56q35 0 59 -33l176 -211q11 -11 11 -31t-29 -28q-22 -6 -53 -6q-34 0 -64 30l-147 144l-197 -144
q-40 -33 -72 -33z" />
    <glyph glyph-name="Idieresis" unicode="&#xcf;" horiz-adv-x="573" 
d="M274 37q-11 -41 -49 -41h-73q-33 0 -33 29l6 36l289 1346q10 43 47 43h74q34 0 34 -29l-6 -43zM420 1708q0 -72 -33 -102q-25 -25 -74 -25q-82 0 -82 72q0 65 33 98q29 29 76 29q80 0 80 -72zM807 1708q0 -67 -35 -102q-28 -25 -74 -25q-80 0 -80 72q0 64 31 98
q29 29 76 29q82 0 82 -72z" />
    <glyph glyph-name="Eth" unicode="&#xd0;" horiz-adv-x="1404" 
d="M463 0h-152q-84 0 -123 30q-38 29 -38 97q0 44 10 88l100 473h-172q-35 0 -35 31q0 23 6 61q6 35 41 35h187l92 434q24 108 72 153q47 44 153 44h139q211 0 349 -47q126 -43 196 -158q70 -116 70 -276q0 -145 -26 -281q-26 -134 -81 -261q-56 -128 -158 -226
q-104 -100 -245 -146q-152 -51 -385 -51zM319 250q-8 -35 -8 -53q0 -60 64 -60h133q185 0 315 53q193 77 284 288q91 210 91 466q0 232 -154 311q-103 54 -309 54h-121q-67 0 -84 -80l-90 -414h316q37 0 37 -31q0 -2 -9 -65q-2 -31 -39 -31h-331z" />
    <glyph glyph-name="Ntilde" unicode="&#xd1;" horiz-adv-x="1447" 
d="M270 39q-10 -43 -47 -43h-69q-35 0 -35 31q0 9 6 30l274 1280q12 62 41 89q30 28 84 28h41q31 0 48 -11q18 -12 24 -25q6 -14 18 -48q302 -916 381 -1190q43 232 260 1221q10 49 50 49h63q35 0 35 -29q0 -22 -4 -43l-277 -1292q-21 -96 -104 -96h-37q-46 0 -65 18
q-18 16 -35 70q-358 1096 -390 1204q-59 -301 -262 -1243zM702 1577q-27 0 -49 8q-18 6 -18 25q0 15 16 47q77 162 191 162q47 0 151 -58q84 -45 123 -45q53 0 92 74q24 41 52 41q29 0 47 -6q20 -6 20 -23q0 -20 -18 -61q-67 -162 -189 -162q-58 0 -162 55q-89 47 -122 47
q-49 0 -86 -67q-18 -37 -48 -37z" />
    <glyph glyph-name="Ograve" unicode="&#xd2;" horiz-adv-x="1400" 
d="M1354 1053q0 -210 -68 -485q-68 -274 -190 -414q-85 -97 -193 -139t-264 -42q-239 0 -365 96q-124 94 -124 343q0 223 72 490q72 266 208 411q152 162 432 162q118 0 203 -17q86 -17 152 -59q68 -43 103 -129q34 -84 34 -217zM1196 1030q0 181 -77 244t-269 63
q-211 0 -315 -120q-105 -117 -165 -357q-61 -244 -61 -428t80 -253q78 -68 268 -68q121 0 195 29q75 29 135 112q93 125 151 368q58 242 58 410zM885 1581l-281 217q-24 18 -24 39q0 30 38 31q36 2 103 2q33 0 70 -33l233 -213q20 -17 20 -37t-26 -26q-26 -7 -64 -7
q-34 0 -69 27z" />
    <glyph glyph-name="Oacute" unicode="&#xd3;" horiz-adv-x="1400" 
d="M1354 1053q0 -210 -68 -485q-68 -274 -190 -414q-85 -97 -193 -139t-264 -42q-239 0 -365 96q-124 94 -124 343q0 223 72 490q72 266 208 411q152 162 432 162q118 0 203 -17q86 -17 152 -59q68 -43 103 -129q34 -84 34 -217zM1196 1030q0 181 -77 244t-269 63
q-211 0 -315 -120q-105 -117 -165 -357q-61 -244 -61 -428t80 -253q78 -68 268 -68q121 0 195 29q75 29 135 112q93 125 151 368q58 242 58 410zM909 1581q-39 -25 -73 -25q-48 0 -66 5q-29 6 -29 26q0 22 23 37l291 215q47 31 78 31q64 0 100 -4q39 -4 39 -29
q0 -22 -25 -41z" />
    <glyph glyph-name="Ocircumflex" unicode="&#xd4;" horiz-adv-x="1400" 
d="M1354 1053q0 -210 -68 -485q-68 -274 -190 -414q-85 -97 -193 -139t-264 -42q-239 0 -365 96q-124 94 -124 343q0 223 72 490q72 266 208 411q152 162 432 162q118 0 203 -17q86 -17 152 -59q68 -43 103 -129q34 -84 34 -217zM1196 1030q0 181 -77 244t-269 63
q-211 0 -315 -120q-105 -117 -165 -357q-61 -244 -61 -428t80 -253q78 -68 268 -68q121 0 195 29q75 29 135 112q93 125 151 368q58 242 58 410zM698 1556q-37 0 -65 7q-23 2 -23 24q0 17 23 35l246 209q44 37 79 37h56q35 0 59 -33l176 -211q11 -11 11 -31t-29 -28
q-23 -6 -53 -6q-34 0 -64 30l-147 144l-197 -144q-40 -33 -72 -33z" />
    <glyph glyph-name="Otilde" unicode="&#xd5;" horiz-adv-x="1400" 
d="M1282 1053q0 -210 -68 -485q-68 -274 -190 -414q-85 -97 -193 -139t-264 -42q-238 0 -364 96q-125 95 -125 343q0 219 73 490q72 267 207 411q152 162 433 162q117 0 202 -17q86 -17 152 -59q68 -43 103 -129q34 -84 34 -217zM1124 1030q0 181 -76 244t-270 63
q-211 0 -315 -120q-105 -117 -165 -357t-60 -428q0 -184 79 -253q78 -68 269 -68q120 0 194 29q75 29 135 112q93 125 151 368q58 242 58 410zM586 1577q-27 0 -49 8q-19 6 -19 25q0 13 17 47q77 162 190 162q48 0 152 -58q84 -45 122 -45q54 0 93 74q24 41 51 41
q29 0 47 -6q20 -6 20 -23q0 -20 -18 -61q-68 -162 -188 -162q-58 0 -162 55q-89 47 -123 47q-49 0 -86 -67q-18 -37 -47 -37z" />
    <glyph glyph-name="Odieresis" unicode="&#xd6;" horiz-adv-x="1400" 
d="M1354 1053q0 -210 -68 -485q-68 -274 -190 -414q-85 -97 -193 -139t-264 -42q-239 0 -365 96q-124 94 -124 343q0 223 72 490q72 266 208 411q152 162 432 162q118 0 203 -17q86 -17 152 -59q68 -43 103 -129q34 -84 34 -217zM1196 1030q0 181 -77 244t-269 63
q-211 0 -315 -120q-105 -117 -165 -357q-61 -244 -61 -428t80 -253q78 -68 268 -68q121 0 195 29q75 29 135 112q93 125 151 368q58 242 58 410zM848 1708q0 -72 -33 -102q-25 -25 -74 -25q-82 0 -82 72q0 65 33 98q29 29 76 29q80 0 80 -72zM1235 1708q0 -67 -35 -102
q-30 -25 -74 -25q-79 0 -79 72q0 65 30 98q29 29 76 29q82 0 82 -72z" />
    <glyph glyph-name="multiply" unicode="&#xd7;" horiz-adv-x="1435" 
d="M1159 287q12 -17 12 -31q0 -13 -14 -27l-35 -36q-13 -13 -30 -13q-16 0 -27 13l-295 321l-358 -326q-12 -12 -29 -12q-13 0 -25 17l-26 28q-13 16 -13 29q0 16 17 33l358 325l-299 324q-12 12 -12 29q0 15 18 30l33 33q10 10 29 10q15 0 26 -12l297 -326l363 326
q14 14 29 14q16 0 26 -14l27 -33q12 -12 12 -26q0 -18 -14 -29l-371 -328z" />
    <glyph glyph-name="Oslash" unicode="&#xd8;" horiz-adv-x="1400" 
d="M180 -18q-15 -15 -28 -15q-18 0 -56 37q-14 11 -14 23q0 14 14 28l99 117q-45 90 -45 240q0 223 72 490q72 266 208 411q152 162 432 162q249 0 357 -78l86 102q15 17 28 17q10 0 23 -9q45 -38 45 -49q0 -16 -10 -26l-97 -115q60 -102 60 -264q0 -210 -68 -485
q-68 -274 -190 -414q-85 -97 -193 -139t-264 -42q-262 0 -377 107zM657 111q121 0 195 29q75 29 135 112q93 125 151 368q58 242 58 410q0 86 -18 148l-813 -975q74 -92 292 -92zM309 432q0 -67 8 -113l799 957q-76 61 -266 61q-211 0 -315 -120q-105 -117 -165 -357
q-61 -244 -61 -428z" />
    <glyph glyph-name="Ugrave" unicode="&#xd9;" horiz-adv-x="1388" 
d="M1384 1395l-176 -815q-28 -134 -42 -189q-14 -57 -39 -122q-26 -66 -58 -109q-77 -101 -189 -144q-113 -43 -296 -43q-172 0 -291 73q-117 72 -117 245q0 112 37 284l178 834q8 41 49 41h74q31 0 31 -31q0 -2 -8 -45l-181 -850q-24 -117 -24 -190q0 -223 278 -223
q232 0 328 114q66 82 109 287l190 897q11 41 47 41h76q29 0 29 -25q0 -7 -5 -30zM848 1581l-281 217q-24 18 -24 39q0 29 39 31q36 2 102 2q32 0 70 -33l233 -213q21 -18 21 -37q0 -20 -27 -26q-25 -7 -63 -7q-36 0 -70 27z" />
    <glyph glyph-name="Uacute" unicode="&#xda;" horiz-adv-x="1388" 
d="M1384 1395l-176 -815q-28 -134 -42 -189q-14 -57 -39 -122q-26 -66 -58 -109q-77 -101 -189 -144q-113 -43 -296 -43q-172 0 -291 73q-117 72 -117 245q0 112 37 284l178 834q8 41 49 41h74q31 0 31 -31q0 -2 -8 -45l-181 -850q-24 -117 -24 -190q0 -223 278 -223
q232 0 328 114q66 82 109 287l190 897q11 41 47 41h76q29 0 29 -25q0 -7 -5 -30zM920 1581q-39 -25 -74 -25q-48 0 -66 5q-28 6 -28 26q0 22 22 37l291 215q47 31 78 31q64 0 100 -4q39 -4 39 -29q0 -22 -25 -41z" />
    <glyph glyph-name="Ucircumflex" unicode="&#xdb;" horiz-adv-x="1388" 
d="M1384 1395l-176 -815q-28 -134 -42 -189q-14 -57 -39 -122q-26 -66 -58 -109q-77 -101 -189 -144q-113 -43 -296 -43q-172 0 -291 73q-117 72 -117 245q0 112 37 284l178 834q8 41 49 41h74q31 0 31 -31q0 -2 -8 -45l-181 -850q-24 -117 -24 -190q0 -223 278 -223
q232 0 328 114q66 82 109 287l190 897q11 41 47 41h76q29 0 29 -25q0 -7 -5 -30zM664 1556q-38 0 -66 7q-23 2 -23 24q0 17 23 35l246 209q44 37 80 37h55q35 0 59 -33l176 -211q11 -11 11 -31t-29 -28q-21 -6 -53 -6q-34 0 -64 30l-147 144l-197 -144q-41 -33 -71 -33z" />
    <glyph glyph-name="Udieresis" unicode="&#xdc;" horiz-adv-x="1388" 
d="M1384 1395l-176 -815q-28 -134 -42 -189q-14 -57 -39 -122q-26 -66 -58 -109q-77 -101 -189 -144q-113 -43 -296 -43q-172 0 -291 73q-117 72 -117 245q0 112 37 284l178 834q8 41 49 41h74q31 0 31 -31q0 -2 -8 -45l-181 -850q-24 -117 -24 -190q0 -223 278 -223
q232 0 328 114q66 82 109 287l190 897q11 41 47 41h76q29 0 29 -25q0 -7 -5 -30zM831 1708q0 -73 -32 -102q-25 -25 -74 -25q-82 0 -82 72q0 65 33 98q29 29 76 29q79 0 79 -72zM1219 1708q0 -67 -35 -102q-30 -25 -74 -25q-80 0 -80 72q0 64 31 98q29 29 76 29q82 0 82 -72
z" />
    <glyph glyph-name="Yacute" unicode="&#xdd;" horiz-adv-x="1114" 
d="M545 43q-8 -47 -47 -47h-74q-33 0 -33 29q0 1 6 45l119 559l-295 729q-16 44 -16 57q0 25 20 31q17 6 99 6q29 0 47 -41q173 -431 243 -635q108 156 504 627q40 49 76 49q81 0 92 -4q19 -6 19 -23q0 -20 -33 -59l-604 -733zM780 1579q-39 -25 -73 -25q-48 0 -66 5
q-29 6 -29 26q0 22 23 37l291 215q46 31 78 31q64 0 100 -4q39 -5 39 -29q0 -22 -25 -41z" />
    <glyph glyph-name="Thorn" unicode="&#xde;" horiz-adv-x="1259" 
d="M328 311l-60 -274q-11 -41 -45 -41h-76q-32 0 -32 29q0 13 4 32l289 1350q10 43 49 43h71q35 0 35 -27q0 -11 -6 -45l-53 -235h188q240 0 352 -53q148 -68 148 -252q0 -406 -344 -498q-104 -29 -311 -29h-209zM354 440h219q179 0 269 35q94 37 141 126t47 202
q0 127 -92 174q-68 31 -262 31h-199z" />
    <glyph glyph-name="germandbls" unicode="&#xdf;" horiz-adv-x="1118" 
d="M231 37q-8 -41 -47 -41h-65q-35 0 -35 29q0 7 4 28l201 961q52 244 102 327q122 197 404 197q151 0 233 -75t82 -199q0 -212 -115 -338q-79 -88 -192 -117q233 -33 233 -274q0 -296 -172 -431q-149 -118 -432 -118q-49 0 -49 30q0 34 2 56q6 40 45 41q255 7 354 106
q103 101 103 305q0 205 -305 213q-52 0 -52 41q0 84 64 86q204 10 287 113q77 98 77 268q0 82 -50 127q-49 45 -140 45q-161 0 -244 -119q-44 -63 -84 -264z" />
    <glyph glyph-name="agrave" unicode="&#xe0;" horiz-adv-x="1077" 
d="M844 184q-15 -69 -39 -102q-17 -26 -70 -49q-131 -60 -352 -60q-166 0 -238 72q-71 71 -71 180q0 235 174 324q102 51 319 51q62 0 215 -12l17 71q16 76 16 132q0 114 -194 114q-123 0 -224 -24q-61 -15 -69 -15q-19 0 -27 23q-10 49 -10 59q0 31 41 43q135 45 309 45
q100 0 158 -11q63 -12 115 -58q53 -47 53 -131q0 -70 -23 -179zM762 471q-94 12 -201 12q-179 0 -252 -43q-92 -53 -92 -186q0 -160 199 -160q126 0 219 35q29 11 47 39q19 28 29 74zM621 1214l-222 256q-18 22 -18 39q0 26 35 31q36 4 88 4q33 0 57 -35l191 -262
q14 -15 14 -35q0 -16 -27 -22q-16 -2 -59 -2q-36 0 -59 26z" />
    <glyph glyph-name="aacute" unicode="&#xe1;" horiz-adv-x="1077" 
d="M844 184q-15 -69 -39 -102q-17 -26 -70 -49q-131 -60 -352 -60q-166 0 -238 72q-71 71 -71 180q0 235 174 324q102 51 319 51q62 0 215 -12l17 71q16 76 16 132q0 114 -194 114q-123 0 -224 -24q-61 -15 -69 -15q-19 0 -27 23q-10 49 -10 59q0 31 41 43q135 45 309 45
q100 0 158 -11q63 -12 115 -58q53 -47 53 -131q0 -70 -23 -179zM762 471q-94 12 -201 12q-179 0 -252 -43q-92 -53 -92 -186q0 -160 199 -160q126 0 219 35q29 11 47 39q19 28 29 74zM707 1212q-26 -26 -62 -26q-15 0 -53 6q-27 8 -27 27t17 36l235 256q30 33 70 33
q54 0 84 -6q28 -6 28 -29q0 -20 -20 -36z" />
    <glyph glyph-name="acircumflex" unicode="&#xe2;" horiz-adv-x="1077" 
d="M844 184q-15 -69 -39 -102q-17 -26 -70 -49q-131 -60 -352 -60q-166 0 -238 72q-71 71 -71 180q0 235 174 324q102 51 319 51q62 0 215 -12l17 71q16 76 16 132q0 114 -194 114q-123 0 -224 -24q-61 -15 -69 -15q-19 0 -27 23q-10 49 -10 59q0 31 41 43q135 45 309 45
q100 0 158 -11q63 -12 115 -58q53 -47 53 -131q0 -70 -23 -179zM762 471q-94 12 -201 12q-179 0 -252 -43q-92 -53 -92 -186q0 -160 199 -160q126 0 219 35q29 11 47 39q19 28 29 74zM461 1174q-37 0 -58 4q-22 4 -22 24q0 19 22 41l236 260q33 39 72 39h59q34 0 51 -35
l135 -272q11 -17 11 -33q0 -20 -27 -26q-20 -2 -51 -2q-33 0 -51 30l-119 205l-199 -203q-32 -32 -59 -32z" />
    <glyph glyph-name="atilde" unicode="&#xe3;" horiz-adv-x="1077" 
d="M844 184q-15 -69 -39 -102q-17 -26 -70 -49q-131 -60 -352 -60q-166 0 -238 72q-71 71 -71 180q0 235 174 324q102 51 319 51q62 0 215 -12l17 71q16 76 16 132q0 114 -194 114q-123 0 -224 -24q-61 -15 -69 -15q-19 0 -27 23q-10 49 -10 59q0 31 41 43q135 45 309 45
q100 0 158 -11q63 -12 115 -58q53 -47 53 -131q0 -70 -23 -179zM762 471q-94 12 -201 12q-179 0 -252 -43q-92 -53 -92 -186q0 -160 199 -160q126 0 219 35q29 11 47 39q19 28 29 74zM424 1225q-24 0 -43 4q-21 5 -21 26t15 50q79 161 188 161q41 0 137 -57q73 -45 115 -45
q53 0 92 76q21 39 43 39q35 0 54 -4q16 -6 16 -25q0 -23 -16 -59q-74 -164 -185 -164q-57 0 -151 55q-79 47 -111 47q-52 0 -86 -67q-21 -37 -47 -37z" />
    <glyph glyph-name="adieresis" unicode="&#xe4;" horiz-adv-x="1077" 
d="M844 184q-15 -69 -39 -102q-17 -26 -70 -49q-131 -60 -352 -60q-166 0 -238 72q-71 71 -71 180q0 235 174 324q102 51 319 51q62 0 215 -12l17 71q16 76 16 132q0 114 -194 114q-123 0 -224 -24q-61 -15 -69 -15q-19 0 -27 23q-10 49 -10 59q0 31 41 43q135 45 309 45
q100 0 158 -11q63 -12 115 -58q53 -47 53 -131q0 -70 -23 -179zM762 471q-94 12 -201 12q-179 0 -252 -43q-92 -53 -92 -186q0 -160 199 -160q126 0 219 35q29 11 47 39q19 28 29 74zM616 1380q0 -68 -32 -100q-28 -25 -74 -25q-82 0 -82 72q0 66 33 96q29 29 78 29
q77 0 77 -72zM985 1380q0 -67 -35 -100q-25 -25 -71 -25q-80 0 -80 72q0 67 30 96q29 29 76 29q80 0 80 -72z" />
    <glyph glyph-name="aring" unicode="&#xe5;" horiz-adv-x="1077" 
d="M844 184q-15 -69 -39 -102q-17 -26 -70 -49q-131 -60 -352 -60q-166 0 -238 72q-71 71 -71 180q0 235 174 324q102 51 319 51q62 0 215 -12l17 71q16 76 16 132q0 114 -194 114q-123 0 -224 -24q-61 -15 -69 -15q-19 0 -27 23q-10 49 -10 59q0 31 41 43q135 45 309 45
q100 0 158 -11q63 -12 115 -58q53 -47 53 -131q0 -70 -23 -179zM762 471q-94 12 -201 12q-179 0 -252 -43q-92 -53 -92 -186q0 -160 199 -160q126 0 219 35q29 11 47 39q19 28 29 74zM883 1397q0 -99 -58 -160q-56 -59 -157 -59q-82 0 -129 47t-47 131q0 96 58 155
q58 60 155 60q85 0 131 -46q47 -47 47 -128zM807 1395q0 108 -113 108q-55 0 -93 -38t-38 -101q0 -119 113 -119q59 0 95 38t36 112z" />
    <glyph glyph-name="ae" unicode="&#xe6;" horiz-adv-x="1689" 
d="M801 109q-171 -136 -416 -136q-158 0 -235 71q-76 70 -76 185q0 225 166 310q98 48 340 53q113 0 204 -4l19 88q10 49 10 119q0 110 -199 110q-90 0 -219 -26q-61 -15 -65 -15q-21 0 -29 23q-12 43 -12 61q0 33 43 45q156 43 327 43q136 0 205 -36q70 -37 76 -130
q130 166 379 166q311 0 311 -268q0 -109 -28 -236q-11 -42 -27 -49q-15 -12 -43 -12h-629q-10 -54 -10 -143q0 -228 262 -228q119 0 240 33q41 12 55 12q21 0 27 -24q14 -36 14 -55q0 -26 -41 -43q-132 -50 -311 -50q-243 0 -338 136zM762 473q-43 0 -93 1t-116 1
q-195 -1 -262 -49q-74 -56 -74 -178q0 -154 207 -154q85 0 184 30q101 30 152 79q-15 57 -15 96q0 87 17 174zM930 590h538q23 71 23 162q0 80 -45 121q-44 40 -158 40q-285 0 -358 -323z" />
    <glyph glyph-name="ccedilla" unicode="&#xe7;" horiz-adv-x="927" 
d="M418 -121q168 -1 168 -147q0 -123 -72 -175q-73 -53 -209 -53q-60 0 -92 9q-26 8 -27 30q0 7 9 47q8 29 36 29q16 0 37 -4q30 -2 62 -2q60 0 89 20q30 21 30 76q0 68 -89 68h-32q-35 0 -35 33q0 16 14 57l41 117q-120 24 -188 108q-68 85 -68 225q0 156 51 318
q50 159 154 266q133 135 377 135q144 0 223 -26q31 -11 31 -35q0 -29 -21 -74q-7 -20 -33 -20q-12 0 -55 10q-60 16 -170 16q-159 0 -264 -108q-70 -74 -104 -200q-35 -128 -35 -251q0 -248 239 -248q97 0 203 25q2 0 29 7q20 5 24 5q21 0 27 -24q14 -36 14 -64
q0 -22 -43 -37q-125 -39 -288 -39h-5z" />
    <glyph glyph-name="egrave" unicode="&#xe8;" horiz-adv-x="1038" 
d="M254 467q-12 -77 -12 -133q0 -125 67 -179q69 -55 203 -55q108 0 231 33l21 5q18 4 21 5q12 2 16 2q19 0 26 -24q13 -41 13 -55q0 -28 -41 -43q-135 -50 -326 -50t-286 90t-95 256t49 320q49 155 154 260q137 137 375 137q168 0 238 -69q71 -69 71 -199q0 -108 -27 -229
q-13 -49 -28 -60q-15 -12 -47 -12h-623zM279 588h538q23 67 23 168q0 76 -44 117q-43 40 -155 40q-158 0 -252 -98q-70 -72 -110 -227zM637 1214l-221 256q-19 24 -19 39q0 26 35 31q36 4 88 4q34 0 58 -35l190 -262q14 -15 14 -35q0 -16 -26 -22q-16 -2 -60 -2
q-36 0 -59 26z" />
    <glyph glyph-name="eacute" unicode="&#xe9;" horiz-adv-x="1038" 
d="M254 467q-12 -77 -12 -133q0 -125 67 -179q69 -55 203 -55q108 0 231 33l21 5q18 4 21 5q12 2 16 2q19 0 26 -24q13 -41 13 -55q0 -28 -41 -43q-135 -50 -326 -50t-286 90t-95 256t49 320q49 155 154 260q137 137 375 137q168 0 238 -69q71 -69 71 -199q0 -108 -27 -229
q-13 -49 -28 -60q-15 -12 -47 -12h-623zM279 588h538q23 67 23 168q0 76 -44 117q-43 40 -155 40q-158 0 -252 -98q-70 -72 -110 -227zM684 1212q-26 -26 -61 -26q-17 0 -54 6q-26 7 -26 27t16 36l236 256q30 33 69 33q54 0 84 -6q29 -6 29 -29q0 -19 -21 -36z" />
    <glyph glyph-name="ecircumflex" unicode="&#xea;" horiz-adv-x="1038" 
d="M254 467q-12 -77 -12 -133q0 -125 67 -179q69 -55 203 -55q108 0 231 33l21 5q18 4 21 5q12 2 16 2q19 0 26 -24q13 -41 13 -55q0 -28 -41 -43q-135 -50 -326 -50t-286 90t-95 256t49 320q49 155 154 260q137 137 375 137q168 0 238 -69q71 -69 71 -199q0 -108 -27 -229
q-13 -49 -28 -60q-15 -12 -47 -12h-623zM279 588h538q23 67 23 168q0 76 -44 117q-43 40 -155 40q-158 0 -252 -98q-70 -72 -110 -227zM483 1174q-36 0 -57 4q-23 5 -23 24q0 18 23 41l236 260q33 39 71 39h60q34 0 51 -35l135 -272q10 -16 10 -33q0 -20 -26 -26
q-20 -2 -52 -2q-33 0 -51 30l-119 205l-198 -203q-32 -32 -60 -32z" />
    <glyph glyph-name="edieresis" unicode="&#xeb;" horiz-adv-x="1038" 
d="M254 467q-12 -77 -12 -133q0 -125 67 -179q69 -55 203 -55q108 0 231 33l21 5q18 4 21 5q12 2 16 2q19 0 26 -24q13 -41 13 -55q0 -28 -41 -43q-135 -50 -326 -50t-286 90t-95 256t49 320q49 155 154 260q137 137 375 137q168 0 238 -69q71 -69 71 -199q0 -108 -27 -229
q-13 -49 -28 -60q-15 -12 -47 -12h-623zM279 588h538q23 67 23 168q0 76 -44 117q-43 40 -155 40q-158 0 -252 -98q-70 -72 -110 -227zM629 1380q0 -67 -33 -100q-28 -25 -74 -25q-82 0 -82 72q0 66 33 96q29 29 78 29q78 0 78 -72zM997 1380q0 -67 -34 -100
q-25 -25 -72 -25q-80 0 -80 72q0 67 31 96q29 29 76 29q79 0 79 -72z" />
    <glyph glyph-name="igrave" unicode="&#xec;" horiz-adv-x="495" 
d="M346 1214l-221 256q-19 24 -19 39q0 26 35 31q36 4 88 4q34 0 58 -35l190 -262q15 -17 15 -35q0 -16 -27 -22q-16 -2 -59 -2q-37 0 -60 26zM229 37q-6 -41 -45 -41h-69q-31 0 -31 29q0 13 4 32l195 914q10 43 47 43h69q31 0 31 -31q0 -9 -6 -33z" />
    <glyph glyph-name="iacute" unicode="&#xed;" horiz-adv-x="495" 
d="M383 1212q-26 -26 -61 -26q-16 0 -54 6q-26 7 -26 27t16 36l236 256q30 33 69 33q54 0 84 -6q29 -6 29 -29q0 -19 -21 -36zM229 37q-6 -41 -45 -41h-69q-31 0 -31 29q0 13 4 32l195 914q10 43 47 43h69q31 0 31 -31q0 -9 -6 -33z" />
    <glyph glyph-name="icircumflex" unicode="&#xee;" horiz-adv-x="495" 
d="M229 37q-6 -41 -45 -41h-69q-31 0 -31 29q0 13 4 32l195 914q10 43 47 43h69q31 0 31 -31q0 -9 -6 -33zM174 1174q-36 0 -57 4q-23 5 -23 24q0 18 23 41l235 260q33 39 72 39h59q35 0 52 -35l135 -272q10 -16 10 -33q0 -20 -27 -26q-20 -2 -51 -2q-33 0 -51 30l-119 205
l-199 -203q-32 -32 -59 -32z" />
    <glyph glyph-name="idieresis" unicode="&#xef;" horiz-adv-x="495" 
d="M324 1380q0 -67 -33 -100q-30 -25 -74 -25q-82 0 -82 72q0 66 33 96q29 29 78 29q78 0 78 -72zM692 1380q0 -67 -35 -100q-25 -25 -71 -25q-80 0 -80 72q0 67 31 96q29 29 75 29q80 0 80 -72zM229 37q-6 -41 -45 -41h-69q-31 0 -31 29q0 13 4 32l195 914q10 43 47 43h69
q31 0 31 -31q0 -9 -6 -33z" />
    <glyph glyph-name="eth" unicode="&#xf0;" horiz-adv-x="1130" 
d="M1110 1421l-147 -88q102 -145 102 -399q0 -212 -41 -438q-41 -225 -135 -361q-109 -160 -391 -160q-89 0 -157 14q-69 14 -125 47q-60 35 -89 101q-31 70 -31 166q0 144 46 315q46 172 137 273q119 135 362 135q230 0 285 -100q-5 222 -88 334l-185 -111q-26 -16 -39 -16
q-14 0 -26 22q-23 34 -23 49t25 31l168 100q-106 68 -271 80q-32 1 -32 31q0 29 12 59q6 25 37 25q35 0 65 -2q200 -21 318 -117l162 96q19 13 34 13t23 -15q27 -37 27 -53t-23 -31zM897 702q0 120 -69 161q-68 40 -201 40q-163 0 -242 -96q-63 -78 -99 -235
q-36 -156 -36 -257q0 -123 64 -168t200 -45q194 0 266 121q48 80 83 239q34 154 34 240z" />
    <glyph glyph-name="ntilde" unicode="&#xf1;" horiz-adv-x="1153" 
d="M231 37q-11 -41 -45 -41h-69q-33 0 -33 27q0 12 6 36l162 772q16 83 90 121q187 86 440 86q113 0 190 -41t77 -135q0 -84 -21 -174l-139 -651q-11 -41 -45 -41h-70q-33 0 -33 27q0 3 7 38l131 613q18 74 18 125q0 108 -176 108q-147 0 -264 -51q-31 -16 -45 -29
q-15 -15 -25 -63zM461 1225q-24 0 -43 4q-21 5 -21 26t15 50q79 161 188 161q41 0 137 -57q73 -45 115 -45q53 0 92 76q21 39 43 39q34 0 53 -4q17 -6 17 -25q0 -20 -17 -59q-74 -164 -184 -164q-57 0 -151 55q-79 47 -111 47q-52 0 -86 -67q-21 -37 -47 -37z" />
    <glyph glyph-name="ograve" unicode="&#xf2;" horiz-adv-x="1099" 
d="M1022 727q0 -128 -40 -304q-41 -182 -116 -286q-114 -164 -387 -164q-188 0 -288 70q-99 69 -99 260q0 144 47 321q46 173 137 275q123 137 361 137q96 0 153 -10q61 -11 117 -40q58 -30 86 -94q29 -66 29 -165zM874 705q0 121 -62 162q-63 42 -191 42q-163 0 -242 -100
q-64 -78 -98 -235q-35 -161 -35 -259q0 -123 57 -169q56 -46 186 -46q195 0 271 127q49 78 82 236q32 151 32 242zM625 1214l-222 256q-18 22 -18 39q0 26 35 31q36 4 88 4q33 0 57 -35l191 -262q14 -15 14 -35q0 -16 -27 -22q-16 -2 -59 -2q-36 0 -59 26z" />
    <glyph glyph-name="oacute" unicode="&#xf3;" horiz-adv-x="1099" 
d="M1022 727q0 -128 -40 -304q-41 -182 -116 -286q-114 -164 -387 -164q-188 0 -288 70q-99 69 -99 260q0 144 47 321q46 173 137 275q123 137 361 137q96 0 153 -10q61 -11 117 -40q58 -30 86 -94q29 -66 29 -165zM874 705q0 121 -62 162q-63 42 -191 42q-163 0 -242 -100
q-64 -78 -98 -235q-35 -161 -35 -259q0 -123 57 -169q56 -46 186 -46q195 0 271 127q49 78 82 236q32 151 32 242zM680 1212q-26 -26 -62 -26q-16 0 -53 6q-26 7 -26 27t16 36l236 256q30 33 69 33q54 0 84 -6q29 -6 29 -29q0 -19 -21 -36z" />
    <glyph glyph-name="ocircumflex" unicode="&#xf4;" horiz-adv-x="1099" 
d="M1022 727q0 -128 -40 -304q-41 -182 -116 -286q-114 -164 -387 -164q-188 0 -288 70q-99 69 -99 260q0 144 47 321q46 173 137 275q123 137 361 137q96 0 153 -10q61 -11 117 -40q58 -30 86 -94q29 -66 29 -165zM874 705q0 121 -62 162q-63 42 -191 42q-163 0 -242 -100
q-64 -78 -98 -235q-35 -161 -35 -259q0 -123 57 -169q56 -46 186 -46q195 0 271 127q49 78 82 236q32 151 32 242zM489 1174q-36 0 -57 4q-22 4 -22 24q0 19 22 41l236 260q33 39 71 39h60q34 0 51 -35l135 -272q10 -16 10 -33q0 -20 -26 -26q-20 -2 -51 -2q-34 0 -52 30
l-118 205l-199 -203q-32 -32 -60 -32z" />
    <glyph glyph-name="otilde" unicode="&#xf5;" horiz-adv-x="1099" 
d="M1022 727q0 -128 -40 -304q-41 -182 -116 -286q-114 -164 -387 -164q-188 0 -288 70q-99 69 -99 260q0 144 47 321q46 173 137 275q123 137 361 137q96 0 153 -10q61 -11 117 -40q58 -30 86 -94q29 -66 29 -165zM874 705q0 121 -62 162q-63 42 -191 42q-163 0 -242 -100
q-64 -78 -98 -235q-35 -161 -35 -259q0 -123 57 -169q56 -46 186 -46q195 0 271 127q49 78 82 236q32 151 32 242zM451 1225q-24 0 -43 4q-21 5 -21 26q0 23 14 50q79 161 189 161q41 0 137 -57q73 -45 115 -45q53 0 92 76q21 39 43 39q34 0 53 -4q17 -6 17 -25
q0 -20 -17 -59q-74 -164 -184 -164q-58 0 -152 55q-79 47 -110 47q-52 0 -86 -67q-21 -37 -47 -37z" />
    <glyph glyph-name="odieresis" unicode="&#xf6;" horiz-adv-x="1099" 
d="M1022 727q0 -128 -40 -304q-41 -182 -116 -286q-114 -164 -387 -164q-188 0 -288 70q-99 69 -99 260q0 144 47 321q46 173 137 275q123 137 361 137q96 0 153 -10q61 -11 117 -40q58 -30 86 -94q29 -66 29 -165zM874 705q0 121 -62 162q-63 42 -191 42q-163 0 -242 -100
q-64 -78 -98 -235q-35 -161 -35 -259q0 -123 57 -169q56 -46 186 -46q195 0 271 127q49 78 82 236q32 151 32 242zM645 1380q0 -67 -33 -100q-28 -25 -73 -25q-82 0 -82 72q0 67 32 96q29 29 78 29q78 0 78 -72zM1014 1380q0 -67 -35 -100q-25 -25 -72 -25q-80 0 -80 72
q0 67 31 96q29 29 76 29q80 0 80 -72z" />
    <glyph glyph-name="divide" unicode="&#xf7;" horiz-adv-x="1435" 
d="M920 961q0 -48 -26 -83q-25 -34 -75 -34q-74 0 -74 74q0 51 26 82q25 30 71 30q31 0 54 -17q24 -18 24 -52zM1253 545h-989q-33 0 -33 35q0 5 7 49q7 37 41 37h989q35 0 35 -33q0 -20 -7 -53q-11 -35 -43 -35zM774 285q0 -48 -26 -81q-27 -34 -74 -34q-74 0 -74 72
q0 53 27 83q26 29 69 29q78 0 78 -69z" />
    <glyph glyph-name="oslash" unicode="&#xf8;" horiz-adv-x="1099" 
d="M129 -53q-15 -15 -25 -15q-16 0 -49 33q-12 12 -12 23q0 14 12 26l80 95q-43 76 -43 194q0 144 47 321q46 174 137 277q123 137 361 137q175 0 258 -43l82 95q11 14 27 14q13 0 24 -10q35 -29 35 -43q0 -11 -10 -25l-82 -96q51 -69 51 -201q0 -125 -41 -306
q-40 -178 -115 -286q-114 -164 -387 -164q-185 0 -274 62zM489 98q195 0 273 129q49 78 82 236q33 156 33 242q0 53 -17 98l-561 -658q56 -47 190 -47zM242 315q0 -41 6 -75l549 639q-51 32 -176 32q-165 0 -244 -100q-63 -78 -99 -236t-36 -260z" />
    <glyph glyph-name="ugrave" unicode="&#xf9;" horiz-adv-x="1153" 
d="M918 172q-21 -91 -91 -121q-169 -78 -428 -78q-122 0 -198 46t-76 143q0 64 22 168l136 641q10 43 45 43h69q33 0 33 -27q0 -11 -6 -41l-131 -610q-17 -71 -17 -119q0 -115 183 -115q144 0 254 43q27 12 45 33q18 18 26 60l156 733q10 43 47 43h68q35 0 35 -27
q0 -4 -7 -39zM674 1219l-221 256q-19 22 -19 38q0 26 35 31q36 4 88 4q33 0 57 -35l191 -262q14 -15 14 -34q0 -17 -26 -23q-16 -2 -60 -2q-35 0 -59 27z" />
    <glyph glyph-name="uacute" unicode="&#xfa;" horiz-adv-x="1153" 
d="M918 172q-21 -91 -91 -121q-169 -78 -428 -78q-122 0 -198 46t-76 143q0 64 22 168l136 641q10 43 45 43h69q33 0 33 -27q0 -11 -6 -41l-131 -610q-17 -71 -17 -119q0 -115 183 -115q144 0 254 43q27 12 45 33q18 18 26 60l156 733q10 43 47 43h68q35 0 35 -27
q0 -4 -7 -39zM737 1212q-26 -26 -61 -26q-16 0 -53 6q-27 8 -27 27q0 20 16 36l236 256q30 33 70 33q53 0 83 -6q29 -6 29 -29q0 -20 -20 -36z" />
    <glyph glyph-name="ucircumflex" unicode="&#xfb;" horiz-adv-x="1153" 
d="M918 172q-21 -91 -91 -121q-169 -78 -428 -78q-122 0 -198 46t-76 143q0 64 22 168l136 641q10 43 45 43h69q33 0 33 -27q0 -11 -6 -41l-131 -610q-17 -71 -17 -119q0 -115 183 -115q144 0 254 43q27 12 45 33q18 18 26 60l156 733q10 43 47 43h68q35 0 35 -27
q0 -4 -7 -39zM506 1174q-36 0 -57 4q-23 5 -23 24q0 18 23 41l235 260q33 39 72 39h59q34 0 51 -35l135 -272q11 -17 11 -33q0 -20 -27 -26q-20 -2 -51 -2q-33 0 -51 30l-119 205l-199 -203q-32 -32 -59 -32z" />
    <glyph glyph-name="udieresis" unicode="&#xfc;" horiz-adv-x="1153" 
d="M918 172q-21 -91 -91 -121q-169 -78 -428 -78q-122 0 -198 46t-76 143q0 64 22 168l136 641q10 43 45 43h69q33 0 33 -27q0 -11 -6 -41l-131 -610q-17 -71 -17 -119q0 -115 183 -115q144 0 254 43q27 12 45 33q18 18 26 60l156 733q10 43 47 43h68q35 0 35 -27
q0 -4 -7 -39zM653 1380q0 -68 -32 -100q-28 -25 -74 -25q-82 0 -82 72q0 66 33 96q29 29 77 29q78 0 78 -72zM1022 1380q0 -67 -35 -100q-25 -25 -72 -25q-79 0 -79 72q0 67 30 96q29 29 76 29q80 0 80 -72z" />
    <glyph glyph-name="yacute" unicode="&#xfd;" horiz-adv-x="1153" 
d="M741 45q-135 -72 -344 -72q-272 0 -272 191q0 67 20 164l138 645q11 41 47 41h69q31 0 31 -25q0 -23 -2 -33l-135 -624q-17 -71 -17 -121q0 -109 181 -109q159 0 260 43q29 16 45 35q16 24 24 68l154 723q10 43 49 43h66q35 0 35 -27q0 -6 -5 -24l-196 -932
q-34 -160 -82 -252q-75 -138 -237 -198q-164 -60 -431 -60q-47 0 -47 37q0 27 2 49q8 47 45 47q245 0 360 41q113 40 165 121q42 61 65 176zM748 1212q-26 -26 -62 -26q-16 0 -53 6q-27 8 -27 27t17 36l235 256q30 33 70 33q54 0 84 -6q28 -6 28 -29q0 -20 -20 -36z" />
    <glyph glyph-name="thorn" unicode="&#xfe;" horiz-adv-x="1148" 
d="M240 37l-109 -494q-7 -43 -49 -43h-64q-32 0 -32 31q0 12 4 31l411 1927q7 43 50 43h59q39 0 39 -31q0 -9 -6 -33l-115 -534q116 98 332 98q309 0 309 -303q0 -135 -42 -300q-42 -163 -120 -269q-73 -95 -176 -133q-101 -37 -260 -37q-164 0 -231 47zM264 162
q24 -18 89 -33q60 -14 122 -14q219 0 311 114q61 75 95 214t34 253q0 103 -53 154q-52 51 -174 51q-141 0 -242 -55q-25 -11 -36 -33q-10 -15 -17 -45z" />
    <glyph glyph-name="ydieresis" unicode="&#xff;" horiz-adv-x="1153" 
d="M741 45q-135 -72 -344 -72q-272 0 -272 191q0 67 20 164l138 645q11 41 47 41h69q31 0 31 -25q0 -23 -2 -33l-135 -624q-17 -71 -17 -121q0 -109 181 -109q159 0 260 43q29 16 45 35q16 24 24 68l154 723q10 43 49 43h66q35 0 35 -27q0 -6 -5 -24l-196 -932
q-34 -160 -82 -252q-75 -138 -237 -198q-164 -60 -431 -60q-47 0 -47 37q0 27 2 49q8 47 45 47q245 0 360 41q113 40 165 121q42 61 65 176zM653 1380q0 -68 -32 -100q-28 -25 -74 -25q-82 0 -82 72q0 66 33 96q29 29 77 29q78 0 78 -72zM1022 1380q0 -67 -35 -100
q-25 -25 -72 -25q-79 0 -79 72q0 67 30 96q29 29 76 29q80 0 80 -72z" />
    <glyph glyph-name="Amacron" unicode="&#x100;" horiz-adv-x="1208" 
d="M334 459l-230 -412q-18 -33 -27 -42q-11 -11 -30 -11q-75 0 -102 6q-17 5 -17 23q0 19 25 61l719 1268q33 60 60 81t79 21h31q46 0 66 -23q23 -26 30 -79l170 -1264q4 -25 4 -49q0 -32 -22 -39q-21 -6 -91 -6q-22 0 -29 10q-8 11 -12 43l-57 412h-567zM406 592h485
q-53 402 -86 723zM1087 1622h-516q-32 0 -32 29q0 18 14 67q12 39 47 39h512q35 0 35 -28q0 -19 -14 -72q-8 -35 -46 -35z" />
    <glyph glyph-name="amacron" unicode="&#x101;" horiz-adv-x="1077" 
d="M844 184q-15 -69 -39 -102q-17 -26 -70 -49q-131 -60 -352 -60q-166 0 -238 72q-71 71 -71 180q0 235 174 324q102 51 319 51q62 0 215 -12l17 71q16 76 16 132q0 114 -194 114q-123 0 -224 -24q-61 -15 -69 -15q-19 0 -27 23q-10 49 -10 59q0 31 41 43q135 45 309 45
q100 0 158 -11q63 -12 115 -58q53 -47 53 -131q0 -70 -23 -179zM762 471q-94 12 -201 12q-179 0 -252 -43q-92 -53 -92 -186q0 -160 199 -160q126 0 219 35q29 11 47 39q19 28 29 74zM915 1249h-462q-35 0 -35 29q0 25 12 70q12 36 49 36h461q37 0 37 -28q0 -25 -14 -74
q-11 -33 -48 -33z" />
    <glyph glyph-name="Abreve" unicode="&#x102;" horiz-adv-x="1208" 
d="M334 459l-230 -412q-18 -33 -27 -42q-11 -11 -30 -11q-75 0 -102 6q-17 5 -17 23q0 19 25 61l719 1268q33 60 60 81t79 21h31q46 0 66 -23q23 -26 30 -79l170 -1264q4 -25 4 -49q0 -32 -22 -39q-21 -6 -91 -6q-22 0 -29 10q-8 11 -12 43l-57 412h-567zM406 592h485
q-53 402 -86 723zM1096 1864q34 0 45 -4q20 -6 20 -29q0 -37 -18 -82q-83 -195 -314 -195q-119 0 -194 58q-74 57 -74 155q0 43 6 64q8 25 37 31q10 2 37 2q37 0 37 -29q0 -31 6 -61q12 -50 48 -72q37 -23 110 -23q158 0 209 154q11 31 45 31z" />
    <glyph glyph-name="abreve" unicode="&#x103;" horiz-adv-x="1077" 
d="M844 184q-15 -69 -39 -102q-17 -26 -70 -49q-131 -60 -352 -60q-166 0 -238 72q-71 71 -71 180q0 235 174 324q102 51 319 51q62 0 215 -12l17 71q16 76 16 132q0 114 -194 114q-123 0 -224 -24q-61 -15 -69 -15q-19 0 -27 23q-10 49 -10 59q0 31 41 43q135 45 309 45
q100 0 158 -11q63 -12 115 -58q53 -47 53 -131q0 -70 -23 -179zM762 471q-94 12 -201 12q-179 0 -252 -43q-92 -53 -92 -186q0 -160 199 -160q126 0 219 35q29 11 47 39q19 28 29 74zM928 1487q26 0 45 -4q22 -6 22 -29q0 -30 -18 -80q-40 -96 -112 -149q-73 -54 -193 -54
q-124 0 -188 59q-62 58 -62 148q0 48 6 70q7 32 27 37q16 2 43 2q34 0 34 -29q0 -34 3 -67q7 -49 42 -72t107 -23q90 0 133 40t70 120q11 31 41 31z" />
    <glyph glyph-name="Aogonek" unicode="&#x104;" horiz-adv-x="1208" 
d="M334 459l-230 -412q-18 -33 -27 -42q-11 -11 -30 -11q-75 0 -102 6q-17 5 -17 23q0 19 25 61l719 1268q33 60 60 81t79 21h31q46 0 66 -23q23 -26 30 -79l170 -1264q6 -43 6 -49q0 -29 -24 -39q-228 -141 -228 -279q0 -96 109 -96q15 0 55 2q8 0 16.5 0.5t13 1t5.5 0.5
q30 0 31 -26q4 -33 4 -47q-2 -29 -35 -37q-50 -13 -131 -13q-99 0 -153 49q-52 48 -52 132q0 106 65 180t183 137q-9 6 -15 43l-57 412h-567zM406 592h485q-53 402 -86 723z" />
    <glyph glyph-name="aogonek" unicode="&#x105;" horiz-adv-x="1077" 
d="M844 184q-15 -69 -39 -102q-17 -23 -49 -39q-238 -164 -238 -311q0 -88 103 -88q13 0 51 2q8 0 16 0.5t12.5 1t6.5 0.5q26 0 32 -27q4 -16 4 -45q-2 -28 -34 -35q-37 -10 -127 -10q-197 0 -197 170q0 90 47 151q45 58 148 138q-93 -17 -197 -17q-166 0 -238 72
q-71 71 -71 180q0 235 174 324q102 51 319 51q62 0 215 -12l17 71q16 76 16 132q0 114 -194 114q-123 0 -224 -24q-61 -15 -69 -15q-19 0 -27 23q-10 49 -10 59q0 31 41 43q135 45 309 45q100 0 158 -11q63 -12 115 -58q53 -47 53 -131q0 -70 -23 -179zM762 471
q-94 12 -201 12q-179 0 -252 -43q-92 -53 -92 -186q0 -160 199 -160q126 0 219 35q29 11 47 39q19 28 29 74z" />
    <glyph glyph-name="Cacute" unicode="&#x106;" horiz-adv-x="1189" 
d="M309 467q0 -358 346 -358q164 0 293 30q72 15 76 15q25 0 31 -29q10 -39 10 -62q0 -25 -49 -40q-171 -50 -400 -50q-466 0 -466 478q0 234 78 487q79 257 233 391q163 144 469 144q165 0 287 -25q45 -10 45 -43q0 -31 -21 -78q-7 -18 -29 -18q-18 0 -79 12
q-83 16 -234 16q-215 0 -346 -125q-115 -112 -179 -331q-65 -222 -65 -414zM915 1581q-39 -25 -73 -25q-48 0 -66 5q-28 6 -28 26q0 22 22 37l291 215q47 31 78 31q64 0 100 -4q39 -4 39 -29q0 -22 -25 -41z" />
    <glyph glyph-name="cacute" unicode="&#x107;" horiz-adv-x="927" 
d="M246 348q0 -248 239 -248q97 0 203 25q2 0 29 7q20 5 24 5q21 0 27 -24q14 -36 14 -64q0 -22 -43 -37q-125 -39 -288 -39q-167 0 -263 87t-96 257q0 156 51 318q50 159 154 266q133 135 377 135q144 0 223 -26q31 -11 31 -35q0 -29 -21 -74q-7 -20 -33 -20q-12 0 -55 10
q-60 16 -170 16q-159 0 -264 -108q-70 -74 -104 -200q-35 -128 -35 -251zM702 1212q-26 -26 -61 -26q-15 0 -53 6q-27 8 -27 27t17 36l235 256q30 33 70 33q54 0 84 -6q28 -6 28 -29q0 -20 -20 -36z" />
    <glyph glyph-name="Ccircumflex" unicode="&#x108;" horiz-adv-x="1189" 
d="M309 467q0 -358 346 -358q164 0 293 30q72 15 76 15q25 0 31 -29q10 -39 10 -62q0 -25 -49 -40q-171 -50 -400 -50q-466 0 -466 478q0 234 78 487q79 257 233 391q163 144 469 144q165 0 287 -25q45 -10 45 -43q0 -31 -21 -78q-7 -18 -29 -18q-18 0 -79 12
q-83 16 -234 16q-215 0 -346 -125q-115 -112 -179 -331q-65 -222 -65 -414zM692 1556q-37 0 -65 7q-23 2 -23 24q0 17 23 35l245 209q44 37 80 37h56q35 0 59 -33l176 -211q10 -10 10 -31t-28 -28q-21 -6 -54 -6t-63 30l-147 144l-197 -144q-40 -33 -72 -33z" />
    <glyph glyph-name="ccircumflex" unicode="&#x109;" horiz-adv-x="927" 
d="M246 348q0 -248 239 -248q97 0 203 25q2 0 29 7q20 5 24 5q21 0 27 -24q14 -36 14 -64q0 -22 -43 -37q-125 -39 -288 -39q-167 0 -263 87t-96 257q0 156 51 318q50 159 154 266q133 135 377 135q144 0 223 -26q31 -11 31 -35q0 -29 -21 -74q-7 -20 -33 -20q-12 0 -55 10
q-60 16 -170 16q-159 0 -264 -108q-70 -74 -104 -200q-35 -128 -35 -251zM449 1174q-37 0 -58 4q-22 4 -22 24q0 19 22 41l236 260q33 39 71 39h60q34 0 51 -35l135 -272q10 -16 10 -33q0 -20 -26 -26q-20 -2 -51 -2q-34 0 -52 30l-118 205l-199 -203q-32 -32 -59 -32z" />
    <glyph glyph-name="Cdotaccent" unicode="&#x10a;" horiz-adv-x="1189" 
d="M309 467q0 -358 346 -358q164 0 293 30q72 15 76 15q25 0 31 -29q10 -39 10 -62q0 -25 -49 -40q-171 -50 -400 -50q-466 0 -466 478q0 234 78 487q79 257 233 391q163 144 469 144q165 0 287 -25q45 -10 45 -43q0 -31 -21 -78q-7 -18 -29 -18q-18 0 -79 12
q-83 16 -234 16q-215 0 -346 -125q-115 -112 -179 -331q-65 -222 -65 -414zM993 1708q0 -67 -35 -102q-30 -25 -73 -25q-82 0 -82 72q0 65 33 98q29 29 75 29q82 0 82 -72z" />
    <glyph glyph-name="cdotaccent" unicode="&#x10b;" horiz-adv-x="927" 
d="M246 348q0 -248 239 -248q97 0 203 25q2 0 29 7q20 5 24 5q21 0 27 -24q14 -36 14 -64q0 -22 -43 -37q-125 -39 -288 -39q-167 0 -263 87t-96 257q0 156 51 318q50 159 154 266q133 135 377 135q144 0 223 -26q31 -11 31 -35q0 -29 -21 -74q-7 -20 -33 -20q-12 0 -55 10
q-60 16 -170 16q-159 0 -264 -108q-70 -74 -104 -200q-35 -128 -35 -251zM772 1380q0 -65 -35 -100q-30 -25 -73 -25q-82 0 -82 72q0 64 32 96q29 29 76 29q82 0 82 -72z" />
    <glyph glyph-name="Ccaron" unicode="&#x10c;" horiz-adv-x="1189" 
d="M309 467q0 -358 346 -358q164 0 293 30q72 15 76 15q25 0 31 -29q10 -39 10 -62q0 -25 -49 -40q-171 -50 -400 -50q-466 0 -466 478q0 234 78 487q79 257 233 391q163 144 469 144q165 0 287 -25q45 -10 45 -43q0 -31 -21 -78q-7 -18 -29 -18q-18 0 -79 12
q-83 16 -234 16q-215 0 -346 -125q-115 -112 -179 -331q-65 -222 -65 -414zM1155 1876q41 0 64 -6q22 -4 22 -25q0 -18 -20 -35l-248 -208q-40 -37 -78 -37h-55q-34 0 -62 32l-174 211q-12 15 -12 31q0 21 29 29q18 6 55 6q30 0 61 -31l148 -143l198 143q45 33 72 33z" />
    <glyph glyph-name="ccaron" unicode="&#x10d;" horiz-adv-x="927" 
d="M246 348q0 -248 239 -248q97 0 203 25q2 0 29 7q20 5 24 5q21 0 27 -24q14 -36 14 -64q0 -22 -43 -37q-125 -39 -288 -39q-167 0 -263 87t-96 257q0 156 51 318q50 159 154 266q133 135 377 135q144 0 223 -26q31 -11 31 -35q0 -29 -21 -74q-7 -20 -33 -20q-12 0 -55 10
q-60 16 -170 16q-159 0 -264 -108q-70 -74 -104 -200q-35 -128 -35 -251zM893 1550q36 0 57 -4q25 -5 25 -26q0 -16 -25 -41l-235 -260q-33 -37 -68 -37h-63q-35 0 -52 35l-135 270q-8 22 -8 33q0 20 25 26q25 4 53 4t49 -30l119 -203l201 201q28 32 57 32z" />
    <glyph glyph-name="Dcaron" unicode="&#x10e;" horiz-adv-x="1404" 
d="M463 0h-152q-84 0 -123 30q-38 29 -38 97q0 44 10 88l219 1034q24 108 72 153q47 44 153 44h139q211 0 349 -47q126 -43 196 -158q70 -116 70 -276q0 -145 -26 -281q-26 -134 -81 -261q-56 -128 -158 -226q-104 -100 -245 -146q-152 -51 -385 -51zM319 250q-8 -35 -8 -53
q0 -60 64 -60h133q185 0 315 53q193 77 284 288q91 210 91 466q0 232 -154 311q-103 54 -309 54h-121q-67 0 -84 -80zM1120 1876q43 0 64 -6q22 -4 22 -25q0 -18 -20 -35l-248 -208q-40 -37 -78 -37h-55q-34 0 -62 32l-174 211q-12 15 -12 31q0 21 29 29q18 6 55 6
q30 0 61 -31l148 -143l199 143q45 33 71 33z" />
    <glyph glyph-name="dcaron" unicode="&#x10f;" horiz-adv-x="1132" 
d="M895 166q-11 -55 -27 -78q-23 -36 -80 -59q-132 -56 -335 -56q-172 0 -267 89q-94 88 -94 251q0 164 58 333q57 168 169 269q130 121 383 121q140 0 224 -35l102 488q10 43 43 43h72q33 0 33 -29q0 -10 -2 -26zM762 233l121 566q6 22 6 43q0 26 -25 37q-68 30 -184 30
q-164 0 -254 -78q-87 -78 -134 -209q-48 -134 -48 -286q0 -238 235 -238q127 0 213 33q33 15 45 37q18 25 25 65zM1409 1532h51q43 0 43 -43q0 -39 -20 -98q-45 -146 -164 -254q-30 -25 -49 -25q-18 0 -39 14q-21 12 -21 33q0 16 23 39q95 112 117 270q11 64 59 64z" />
    <glyph glyph-name="Dcroat" unicode="&#x110;" horiz-adv-x="1404" 
d="M463 0h-152q-84 0 -123 30q-38 29 -38 97q0 44 10 88l100 473h-172q-35 0 -35 31q0 37 6 61q2 35 41 35h187l92 434q24 108 72 153q47 44 153 44h139q211 0 349 -47q126 -43 196 -158q70 -116 70 -276q0 -145 -26 -281q-26 -134 -81 -261q-56 -128 -158 -226
q-104 -100 -245 -146q-152 -51 -385 -51zM319 250q-8 -35 -8 -53q0 -60 64 -60h133q185 0 315 53q193 77 284 288q91 210 91 466q0 232 -154 311q-103 54 -309 54h-121q-67 0 -84 -80l-90 -414h316q37 0 37 -31q0 -2 -9 -65q-2 -31 -39 -31h-331z" />
    <glyph glyph-name="dcroat" unicode="&#x111;" horiz-adv-x="1132" 
d="M895 166q-11 -55 -27 -78q-23 -36 -80 -59q-132 -56 -335 -56q-172 0 -267 89q-94 88 -94 251q0 164 58 333q57 168 169 269q130 121 383 121q140 0 224 -35l41 201h-230q-30 0 -30 27q0 21 8 53q11 33 45 33h231l37 174q10 43 43 43h72q33 0 33 -29q0 -10 -2 -26
l-35 -162h100q31 0 31 -29l-1 -6q-1 -6 -3 -20t-4 -29q-8 -29 -45 -29h-103zM762 233l121 566q6 22 6 43q0 26 -25 37q-68 30 -184 30q-164 0 -254 -78q-87 -78 -134 -209q-48 -134 -48 -286q0 -238 235 -238q127 0 213 33q33 15 45 37q18 25 25 65z" />
    <glyph glyph-name="Emacron" unicode="&#x112;" horiz-adv-x="1112" 
d="M928 0h-617q-84 0 -123 30q-38 29 -38 97q0 44 10 88l219 1036q24 107 73 151t156 44h559q41 0 41 -31q0 -13 -14 -76q-8 -30 -49 -30h-531q-67 0 -84 -80l-88 -408h551q35 0 35 -28q0 -14 -16 -78q-6 -29 -47 -29h-551l-95 -436q0 -1 -2 -17q-1 -5 -2.5 -12t-1.5 -9
q-2 -12 -2 -15q0 -60 64 -60h579q37 0 37 -26q0 -24 -14 -80q-8 -31 -49 -31zM1104 1622h-516q-33 0 -33 29q0 18 14 67q12 39 47 39h512q35 0 35 -28q0 -19 -14 -72q-8 -35 -45 -35z" />
    <glyph glyph-name="emacron" unicode="&#x113;" horiz-adv-x="1038" 
d="M254 467q-12 -77 -12 -133q0 -125 67 -179q69 -55 203 -55q108 0 231 33l21 5q18 4 21 5q12 2 16 2q19 0 26 -24q13 -41 13 -55q0 -28 -41 -43q-135 -50 -326 -50t-286 90t-95 256t49 320q49 155 154 260q137 137 375 137q168 0 238 -69q71 -69 71 -199q0 -108 -27 -229
q-13 -49 -28 -60q-15 -12 -47 -12h-623zM279 588h538q23 67 23 168q0 76 -44 117q-43 40 -155 40q-158 0 -252 -98q-70 -72 -110 -227zM913 1249h-462q-35 0 -35 29q0 25 12 70q12 36 49 36h461q37 0 37 -28q0 -25 -14 -74q-11 -33 -48 -33z" />
    <glyph glyph-name="Ebreve" unicode="&#x114;" horiz-adv-x="1112" 
d="M928 0h-617q-84 0 -123 30q-38 29 -38 97q0 44 10 88l219 1036q24 107 73 151t156 44h559q41 0 41 -31q0 -13 -14 -76q-8 -30 -49 -30h-531q-67 0 -84 -80l-88 -408h551q35 0 35 -28q0 -14 -16 -78q-6 -29 -47 -29h-551l-95 -436q0 -1 -2 -17q-1 -5 -2.5 -12t-1.5 -9
q-2 -12 -2 -15q0 -60 64 -60h579q37 0 37 -26q0 -24 -14 -80q-8 -31 -49 -31zM1087 1864q35 0 46 -4q20 -6 20 -29q0 -37 -18 -82q-83 -195 -314 -195q-119 0 -194 58q-74 57 -74 155q0 43 6 64q8 25 37 31q10 2 37 2q37 0 37 -29q0 -31 6 -61q12 -50 48 -72q37 -23 110 -23
q157 0 208 154q11 31 45 31z" />
    <glyph glyph-name="ebreve" unicode="&#x115;" horiz-adv-x="1038" 
d="M254 467q-12 -77 -12 -133q0 -125 67 -179q69 -55 203 -55q108 0 231 33l21 5q18 4 21 5q12 2 16 2q19 0 26 -24q13 -41 13 -55q0 -28 -41 -43q-135 -50 -326 -50t-286 90t-95 256t49 320q49 155 154 260q137 137 375 137q168 0 238 -69q71 -69 71 -199q0 -108 -27 -229
q-13 -49 -28 -60q-15 -12 -47 -12h-623zM279 588h538q23 67 23 168q0 76 -44 117q-43 40 -155 40q-158 0 -252 -98q-70 -72 -110 -227zM918 1487q26 0 45 -4q22 -6 22 -29q0 -30 -18 -80q-40 -96 -112 -149q-73 -54 -193 -54q-124 0 -188 59q-62 58 -62 148q0 48 6 70
q7 32 26 37q16 2 43 2q35 0 35 -29q0 -45 2 -67q8 -49 42 -72q35 -23 108 -23q90 0 133 40t70 120q11 31 41 31z" />
    <glyph glyph-name="Edotaccent" unicode="&#x116;" horiz-adv-x="1112" 
d="M928 0h-617q-84 0 -123 30q-38 29 -38 97q0 44 10 88l219 1036q24 107 73 151t156 44h559q41 0 41 -31q0 -13 -14 -76q-8 -30 -49 -30h-531q-67 0 -84 -80l-88 -408h551q35 0 35 -28q0 -14 -16 -78q-6 -29 -47 -29h-551l-95 -436q0 -1 -2 -17q-1 -5 -2.5 -12t-1.5 -9
q-2 -12 -2 -15q0 -60 64 -60h579q37 0 37 -26q0 -24 -14 -80q-8 -31 -49 -31zM930 1708q0 -67 -35 -102q-28 -25 -74 -25q-82 0 -82 72q0 65 33 98q29 29 76 29q82 0 82 -72z" />
    <glyph glyph-name="edotaccent" unicode="&#x117;" horiz-adv-x="1038" 
d="M254 467q-12 -77 -12 -133q0 -125 67 -179q69 -55 203 -55q108 0 231 33l21 5q18 4 21 5q12 2 16 2q19 0 26 -24q13 -41 13 -55q0 -28 -41 -43q-135 -50 -326 -50t-286 90t-95 256t49 320q49 155 154 260q137 137 375 137q168 0 238 -69q71 -69 71 -199q0 -108 -27 -229
q-13 -49 -28 -60q-15 -12 -47 -12h-623zM279 588h538q23 67 23 168q0 76 -44 117q-43 40 -155 40q-158 0 -252 -98q-70 -72 -110 -227zM782 1380q0 -66 -34 -100q-30 -25 -74 -25q-82 0 -82 72q0 63 33 96q29 29 75 29q82 0 82 -72z" />
    <glyph glyph-name="Eogonek" unicode="&#x118;" horiz-adv-x="1112" 
d="M928 0h-21q-229 -139 -229 -279q0 -96 108 -96q16 0 56 2q8 0 16.5 0.5t13 1t5.5 0.5q29 0 30 -26q4 -33 4 -47q-2 -30 -34 -37q-50 -13 -132 -13q-98 0 -152 49q-52 48 -52 132q0 106 61 177q64 74 172 136h-463q-84 0 -123 30q-38 29 -38 97q0 44 10 88l219 1036
q24 107 73 151t156 44h559q41 0 41 -31q0 -13 -14 -76q-8 -30 -49 -30h-531q-67 0 -84 -80l-88 -408h551q35 0 35 -28q0 -14 -16 -78q-6 -29 -47 -29h-551l-95 -436q0 -1 -2 -17q-1 -5 -2.5 -12t-1.5 -9q-2 -12 -2 -15q0 -60 64 -60h579q37 0 37 -26q0 -24 -14 -80
q-8 -31 -49 -31z" />
    <glyph glyph-name="eogonek" unicode="&#x119;" horiz-adv-x="1038" 
d="M254 467q-12 -77 -12 -133q0 -125 67 -179q69 -55 203 -55q108 0 231 33l21 5q18 4 21 5q12 2 16 2q19 0 26 -24q13 -41 13 -55q0 -28 -41 -43q-47 -19 -78 -23q-219 -135 -219 -268q0 -88 102 -88q13 0 51 2q8 0 16 0.5t12.5 1t6.5 0.5q27 0 33 -27q4 -16 4 -45
q-2 -27 -35 -35q-37 -10 -127 -10q-196 0 -196 170q0 162 182 274q-21 0 -38 -1t-40 -1q-191 0 -286 90t-95 256t49 320q49 155 154 260q137 137 375 137q168 0 238 -69q71 -69 71 -199q0 -108 -27 -229q-13 -49 -28 -60q-15 -12 -47 -12h-623zM279 588h538q23 67 23 168
q0 76 -44 117q-43 40 -155 40q-158 0 -252 -98q-70 -72 -110 -227z" />
    <glyph glyph-name="Ecaron" unicode="&#x11a;" horiz-adv-x="1112" 
d="M928 0h-617q-84 0 -123 30q-38 29 -38 97q0 44 10 88l219 1036q24 107 73 151t156 44h559q41 0 41 -31q0 -13 -14 -76q-8 -30 -49 -30h-531q-67 0 -84 -80l-88 -408h551q35 0 35 -28q0 -14 -16 -78q-6 -29 -47 -29h-551l-95 -436q0 -1 -2 -17q-1 -5 -2.5 -12t-1.5 -9
q-2 -12 -2 -15q0 -60 64 -60h579q37 0 37 -26q0 -24 -14 -80q-8 -31 -49 -31zM1096 1876q42 0 63 -6q23 -5 23 -25q0 -17 -21 -35l-248 -208q-40 -37 -77 -37h-56q-33 0 -61 32l-174 211q-13 16 -13 31q0 21 29 29q18 6 55 6q31 0 62 -31l147 -143l199 143q45 33 72 33z" />
    <glyph glyph-name="ecaron" unicode="&#x11b;" horiz-adv-x="1038" 
d="M254 467q-12 -77 -12 -133q0 -125 67 -179q69 -55 203 -55q108 0 231 33l21 5q18 4 21 5q12 2 16 2q19 0 26 -24q13 -41 13 -55q0 -28 -41 -43q-135 -50 -326 -50t-286 90t-95 256t49 320q49 155 154 260q137 137 375 137q168 0 238 -69q71 -69 71 -199q0 -108 -27 -229
q-13 -49 -28 -60q-15 -12 -47 -12h-623zM279 588h538q23 67 23 168q0 76 -44 117q-43 40 -155 40q-158 0 -252 -98q-70 -72 -110 -227zM922 1550q36 0 57 -4q25 -5 25 -26q0 -16 -25 -41l-236 -260q-33 -37 -67 -37h-64q-34 0 -51 35l-135 270q-8 22 -8 33q0 20 24 26
q25 4 54 4q28 0 49 -30l119 -203l200 201q28 32 58 32z" />
    <glyph glyph-name="Gcircumflex" unicode="&#x11c;" horiz-adv-x="1331" 
d="M1135 147q-11 -45 -27 -69q-15 -19 -64 -41q-152 -64 -417 -64q-228 0 -353 113q-124 112 -124 344q0 231 70 477q70 247 208 385q96 98 214 139q120 42 308 42q179 0 305 -35q41 -11 41 -41q0 -29 -18 -74q-11 -23 -35 -23q-12 0 -65 11q-114 26 -281 26
q-239 0 -375 -153q-98 -111 -156 -325q-57 -210 -57 -394q0 -356 350 -356q166 0 279 32q30 8 44 23q15 17 22 47l90 414h-324q-35 0 -35 22q0 6 19 84q8 31 43 31h420q38 0 38 -33q0 -15 -6 -39zM698 1556q-37 0 -65 7q-23 2 -23 24q0 17 23 35l246 209q44 37 79 37h56
q35 0 59 -33l176 -211q11 -11 11 -31t-29 -28q-23 -6 -53 -6q-34 0 -64 30l-147 144l-197 -144q-40 -33 -72 -33z" />
    <glyph glyph-name="gcircumflex" unicode="&#x11d;" horiz-adv-x="1120" 
d="M715 33q-101 -58 -281 -58q-163 0 -253 90q-89 89 -89 263q0 152 54 312t155 261q137 135 399 135q191 0 308 -43q47 -18 47 -53l-8 -53l-179 -844q-32 -159 -86 -268q-69 -135 -231 -195q-159 -59 -422 -59q-47 0 -47 33q0 36 4 61q6 35 47 35q235 0 342 39
q109 40 160 114q41 58 70 183zM760 223l127 598q4 19 4 27q0 29 -31 37q-66 24 -186 24q-183 0 -277 -104q-66 -75 -110 -202q-43 -125 -43 -257q0 -246 233 -246q133 0 217 37q34 15 49 39q11 19 17 47zM506 1174q-36 0 -57 4q-23 5 -23 24q0 18 23 41l235 260q33 39 72 39
h59q34 0 51 -35l135 -272q11 -17 11 -33q0 -20 -27 -26q-20 -2 -51 -2q-33 0 -51 30l-119 205l-199 -203q-32 -32 -59 -32z" />
    <glyph glyph-name="Gbreve" unicode="&#x11e;" horiz-adv-x="1331" 
d="M1135 147q-11 -45 -27 -69q-15 -19 -64 -41q-152 -64 -417 -64q-228 0 -353 113q-124 112 -124 344q0 231 70 477q70 247 208 385q96 98 214 139q120 42 308 42q179 0 305 -35q41 -11 41 -41q0 -29 -18 -74q-11 -23 -35 -23q-12 0 -65 11q-114 26 -281 26
q-239 0 -375 -153q-98 -111 -156 -325q-57 -210 -57 -394q0 -356 350 -356q166 0 279 32q30 8 44 23q15 17 22 47l90 414h-324q-35 0 -35 22q0 6 19 84q8 31 43 31h420q38 0 38 -33q0 -15 -6 -39zM1180 1864q34 0 45 -4q20 -6 20 -29q0 -37 -18 -82q-83 -195 -314 -195
q-119 0 -194 58q-74 57 -74 155q0 43 6 64q8 25 37 31q10 2 37 2q37 0 37 -29q0 -31 6 -61q12 -50 48 -72q37 -23 110 -23q158 0 209 154q11 31 45 31z" />
    <glyph glyph-name="gbreve" unicode="&#x11f;" horiz-adv-x="1120" 
d="M715 33q-101 -58 -281 -58q-163 0 -253 90q-89 89 -89 263q0 152 54 312t155 261q137 135 399 135q191 0 308 -43q47 -18 47 -53l-8 -53l-179 -844q-32 -159 -86 -268q-69 -135 -231 -195q-159 -59 -422 -59q-47 0 -47 33q0 36 4 61q6 35 47 35q235 0 342 39
q109 40 160 114q41 58 70 183zM760 223l127 598q4 19 4 27q0 29 -31 37q-66 24 -186 24q-183 0 -277 -104q-66 -75 -110 -202q-43 -125 -43 -257q0 -246 233 -246q133 0 217 37q34 15 49 39q11 19 17 47zM963 1487q26 0 45 -4q22 -6 22 -29q0 -30 -18 -80q-40 -96 -112 -149
q-73 -54 -193 -54q-124 0 -188 59q-62 58 -62 148q0 48 6 70q7 32 26 37q16 2 43 2q35 0 35 -29q0 -45 2 -67q7 -49 42 -72t108 -23q90 0 133 40t70 120q11 31 41 31z" />
    <glyph glyph-name="Gdotaccent" unicode="&#x120;" horiz-adv-x="1331" 
d="M1135 147q-11 -45 -27 -69q-15 -19 -64 -41q-152 -64 -417 -64q-228 0 -353 113q-124 112 -124 344q0 231 70 477q70 247 208 385q96 98 214 139q120 42 308 42q179 0 305 -35q41 -11 41 -41q0 -29 -18 -74q-11 -23 -35 -23q-12 0 -65 11q-114 26 -281 26
q-239 0 -375 -153q-98 -111 -156 -325q-57 -210 -57 -394q0 -356 350 -356q166 0 279 32q30 8 44 23q15 17 22 47l90 414h-324q-35 0 -35 22q0 6 19 84q8 31 43 31h420q38 0 38 -33q0 -15 -6 -39zM1024 1708q0 -67 -35 -102q-28 -25 -74 -25q-81 0 -81 72q0 66 32 98
q29 29 76 29q82 0 82 -72z" />
    <glyph glyph-name="gdotaccent" unicode="&#x121;" horiz-adv-x="1120" 
d="M715 33q-101 -58 -281 -58q-163 0 -253 90q-89 89 -89 263q0 152 54 312t155 261q137 135 399 135q191 0 308 -43q47 -18 47 -53l-8 -53l-179 -844q-32 -159 -86 -268q-69 -135 -231 -195q-159 -59 -422 -59q-47 0 -47 33q0 36 4 61q6 35 47 35q235 0 342 39
q109 40 160 114q41 58 70 183zM760 223l127 598q4 19 4 27q0 29 -31 37q-66 24 -186 24q-183 0 -277 -104q-66 -75 -110 -202q-43 -125 -43 -257q0 -246 233 -246q133 0 217 37q34 15 49 39q11 19 17 47zM827 1380q0 -66 -34 -100q-28 -25 -74 -25q-82 0 -82 72q0 63 33 96
q29 29 75 29q82 0 82 -72z" />
    <glyph glyph-name="Gcommaaccent" unicode="&#x122;" horiz-adv-x="1331" 
d="M1135 147q-11 -45 -27 -69q-15 -19 -64 -41q-152 -64 -417 -64q-228 0 -353 113q-124 112 -124 344q0 231 70 477q70 247 208 385q96 98 214 139q120 42 308 42q179 0 305 -35q41 -11 41 -41q0 -29 -18 -74q-11 -23 -35 -23q-12 0 -65 11q-114 26 -281 26
q-239 0 -375 -153q-98 -111 -156 -325q-57 -210 -57 -394q0 -356 350 -356q166 0 279 32q30 8 44 23q15 17 22 47l90 414h-324q-35 0 -35 22q0 6 19 84q8 31 43 31h420q38 0 38 -33q0 -15 -6 -39zM618 -129h50q45 0 45 -43q0 -27 -21 -96q-51 -150 -164 -256
q-30 -27 -49 -27q-16 0 -39 16q-20 14 -20 33t22 41q95 105 117 271q10 61 59 61z" />
    <glyph glyph-name="gcommaaccent" unicode="&#x123;" horiz-adv-x="1120" 
d="M715 33q-101 -58 -281 -58q-163 0 -253 90q-89 89 -89 263q0 152 54 312t155 261q137 137 399 137q191 0 308 -43q47 -18 47 -53q0 -2 -8 -55l-179 -844q-32 -159 -86 -268q-69 -135 -231 -195q-159 -59 -422 -59q-47 0 -47 37q0 46 4 57q8 35 47 35q234 1 343 41
q108 39 159 112q41 58 70 183zM760 223l127 600q4 15 4 25q0 28 -31 39q-74 24 -186 24q-183 0 -277 -104q-66 -75 -110 -203q-43 -126 -43 -258q0 -246 233 -246q133 0 217 37q34 15 49 39q11 19 17 47zM727 1184h-47q-45 0 -45 45q0 37 20 96q46 146 164 252q25 25 49 25
q17 0 37 -13q21 -12 21 -33q0 -16 -21 -40q-96 -107 -119 -271q-6 -61 -59 -61z" />
    <glyph glyph-name="Hcircumflex" unicode="&#x124;" horiz-adv-x="1425" 
d="M274 37q-11 -41 -49 -41h-73q-33 0 -33 29l6 36l289 1346q10 43 47 43h74q34 0 34 -29l-6 -43l-121 -557h697l125 586q10 43 49 43h73q35 0 35 -29q0 -13 -8 -43l-287 -1341q-11 -41 -49 -41h-73q-33 0 -33 29l6 36l133 623h-696zM690 1556q-37 0 -65 7q-23 2 -23 24
q0 17 23 35l245 209q44 37 80 37h56q35 0 59 -33l176 -211q10 -10 10 -31t-28 -28q-23 -6 -54 -6q-33 0 -63 30l-148 144l-196 -144q-41 -33 -72 -33z" />
    <glyph glyph-name="hcircumflex" unicode="&#x125;" horiz-adv-x="1165" 
d="M229 37q-11 -41 -45 -41h-69q-35 0 -35 27q0 6 6 36l303 1430q10 43 47 43h68q33 0 33 -29q0 -8 -2 -24l-115 -537q122 96 366 96q110 0 187 -39q76 -39 76 -133q0 -67 -21 -166l-141 -663q-6 -41 -45 -41h-68q-35 0 -35 27q0 17 4 36l136 617q14 71 14 127
q0 104 -172 104q-163 0 -266 -53q-34 -16 -45 -29q-19 -24 -29 -71zM287 1585q-42 0 -66 6q-22 1 -22 25q0 17 22 35l246 209q43 36 80 36h55q37 0 60 -32l176 -211q10 -10 10 -31t-29 -29q-22 -6 -53 -6q-33 0 -64 31l-147 143l-197 -143q-40 -33 -71 -33z" />
    <glyph glyph-name="Hbar" unicode="&#x126;" horiz-adv-x="1425" 
d="M274 37q-11 -41 -49 -41h-73q-33 0 -33 29l6 36l203 947h-125q-31 0 -31 26q0 21 12 66q8 35 43 35h127l60 272q10 43 47 43h74q34 0 34 -29l-6 -43l-53 -243h694l60 272q10 43 49 43h73q35 0 35 -29q0 -13 -8 -43l-53 -243h115q32 0 32 -27q0 -20 -12 -70
q-6 -30 -47 -30h-115l-207 -971q-11 -41 -49 -41h-73q-33 0 -33 29l6 36l133 623h-696zM442 821h697l39 187h-697z" />
    <glyph glyph-name="hbar" unicode="&#x127;" horiz-adv-x="1165" 
d="M229 37q-11 -41 -45 -41h-69q-35 0 -35 27q0 6 6 36l242 1143h-99q-32 0 -32 27q0 17 10 53q6 33 43 33h102l37 174q10 43 47 43h68q33 0 33 -29q0 -8 -2 -24l-35 -164h229q33 0 33 -29q0 -12 -10 -55q-6 -29 -45 -29h-232l-55 -260q122 96 366 96q110 0 187 -39
q76 -39 76 -133q0 -67 -21 -166l-141 -663q-6 -41 -45 -41h-68q-35 0 -35 27q0 17 4 36l136 617q14 71 14 127q0 104 -172 104q-163 0 -266 -53q-34 -16 -45 -29q-19 -24 -29 -71z" />
    <glyph glyph-name="Itilde" unicode="&#x128;" horiz-adv-x="573" 
d="M274 37q-11 -41 -49 -41h-73q-33 0 -33 29l6 36l289 1346q10 43 47 43h74q34 0 34 -29l-6 -43zM256 1577q-27 0 -49 8q-19 6 -19 25q0 13 17 47q76 162 190 162q48 0 152 -58q84 -45 123 -45q53 0 92 74q24 41 51 41q29 0 47 -6q21 -6 21 -23q0 -18 -19 -61
q-68 -162 -188 -162q-58 0 -162 55q-89 47 -123 47q-49 0 -86 -67q-18 -37 -47 -37z" />
    <glyph glyph-name="itilde" unicode="&#x129;" horiz-adv-x="495" 
d="M150 1225q-25 0 -44 4q-20 4 -20 26q0 23 14 50q79 161 189 161q41 0 137 -57q74 -45 115 -45q53 0 92 76q21 39 43 39q34 0 53 -4q16 -6 16 -25q0 -23 -16 -59q-74 -164 -184 -164q-58 0 -152 55q-79 47 -110 47q-52 0 -86 -67q-21 -37 -47 -37zM229 37q-6 -41 -45 -41
h-69q-31 0 -31 29q0 13 4 32l195 914q10 43 47 43h69q31 0 31 -31q0 -9 -6 -33z" />
    <glyph glyph-name="Imacron" unicode="&#x12a;" horiz-adv-x="573" 
d="M274 37q-11 -41 -49 -41h-73q-33 0 -33 29l6 36l289 1346q10 43 47 43h74q34 0 34 -29l-6 -43zM772 1622h-516q-33 0 -33 29q0 15 15 67q12 39 47 39h512q34 0 34 -28q0 -19 -14 -72q-8 -35 -45 -35z" />
    <glyph glyph-name="imacron" unicode="&#x12b;" horiz-adv-x="495" 
d="M625 1249h-463q-35 0 -35 29q0 25 12 70q12 36 49 36h461q37 0 37 -28q0 -25 -14 -74q-10 -33 -47 -33zM229 37q-6 -41 -45 -41h-69q-31 0 -31 29q0 13 4 32l195 914q10 43 47 43h69q31 0 31 -31q0 -9 -6 -33z" />
    <glyph glyph-name="Ibreve" unicode="&#x12c;" horiz-adv-x="573" 
d="M274 37q-11 -41 -49 -41h-73q-33 0 -33 29l6 36l289 1346q10 43 47 43h74q34 0 34 -29l-6 -43zM780 1864q34 0 45 -4q21 -6 21 -29q0 -35 -19 -82q-83 -195 -313 -195q-120 0 -195 58q-73 57 -73 155q0 43 6 64q8 25 37 31q10 2 37 2q36 0 36 -29q0 -26 7 -61
q12 -50 48 -72q37 -23 109 -23q158 0 209 154q11 31 45 31z" />
    <glyph glyph-name="ibreve" unicode="&#x12d;" horiz-adv-x="495" 
d="M635 1487q26 0 45 -4q22 -6 22 -29q0 -30 -18 -80q-40 -96 -112 -149q-73 -54 -193 -54q-124 0 -188 59q-62 58 -62 148q0 48 6 70q7 32 27 37q16 2 43 2q35 0 35 -29q0 -45 2 -67q8 -49 42 -72q35 -23 107 -23q90 0 133 40t70 120q11 31 41 31zM229 37q-6 -41 -45 -41
h-69q-31 0 -31 29q0 13 4 32l195 914q10 43 47 43h69q31 0 31 -31q0 -9 -6 -33z" />
    <glyph glyph-name="Iogonek" unicode="&#x12e;" horiz-adv-x="573" 
d="M274 37q-6 -30 -24 -37q-227 -140 -227 -279q0 -96 108 -96q15 0 55 2q8 0 16.5 0.5t13 1t5.5 0.5q30 0 31 -26q4 -33 4 -47q-2 -29 -35 -37q-50 -13 -131 -13q-98 0 -152 49q-53 48 -53 132q0 186 240 315q-6 7 -6 23l6 36l289 1346q10 43 47 43h74q34 0 34 -29l-6 -43z
" />
    <glyph glyph-name="iogonek" unicode="&#x12f;" horiz-adv-x="495" 
d="M229 37q-6 -31 -24 -37q-215 -135 -215 -268q0 -88 102 -88q13 0 51 2q8 0 16 0.5t12.5 1t6.5 0.5q27 0 33 -27q4 -16 4 -45q-2 -27 -35 -35q-37 -10 -127 -10q-196 0 -196 170q0 101 61 172q60 71 172 131q-6 12 -6 25q0 9 4 28l195 914q10 43 47 43h69q31 0 31 -31
q0 -9 -6 -33zM522 1382q0 -65 -37 -102q-29 -23 -71 -23q-84 0 -84 72q0 65 35 98q27 27 75 27q82 0 82 -72z" />
    <glyph glyph-name="Idotaccent" unicode="&#x130;" horiz-adv-x="573" 
d="M274 37q-11 -41 -49 -41h-73q-33 0 -33 29l6 36l289 1346q10 43 47 43h74q34 0 34 -29l-6 -43zM631 1708q0 -67 -35 -102q-28 -25 -74 -25q-82 0 -82 72q0 65 33 98q29 29 76 29q82 0 82 -72z" />
    <glyph glyph-name="dotlessi" unicode="&#x131;" horiz-adv-x="495" 
d="M229 37q-6 -41 -45 -41h-69q-31 0 -31 29q0 13 4 32l195 914q10 43 47 43h69q31 0 31 -31q0 -9 -6 -33z" />
    <glyph glyph-name="IJ" unicode="&#x132;" horiz-adv-x="1159" 
d="M274 37q-11 -41 -49 -41h-73q-33 0 -33 29l6 36l289 1346q10 43 47 43h74q34 0 34 -29l-6 -43zM1145 1378l-271 -1274q-39 -190 -153 -282q-56 -46 -163 -84q-104 -37 -157 -37q-28 0 -34 29q-7 25 -7 57q0 34 50 45q120 29 190 72q89 57 119 194l278 1309q10 43 47 43
h74q35 0 35 -29q0 -13 -8 -43z" />
    <glyph glyph-name="ij" unicode="&#x133;" horiz-adv-x="989" 
d="M229 37q-6 -41 -45 -41h-69q-31 0 -31 29q0 13 4 32l195 914q10 43 47 43h69q31 0 31 -31q0 -9 -6 -33zM522 1382q0 -65 -37 -102q-29 -23 -71 -23q-84 0 -84 72q0 65 35 98q27 27 75 27q82 0 82 -72zM692 -100q-38 -188 -133 -271q-55 -45 -152 -76q-99 -32 -161 -32
q-31 0 -37 30q-4 19 -4 54t47 43q136 24 197 65q69 47 98 185l229 1073q10 43 47 43h70q31 0 31 -31q0 -9 -6 -33zM1016 1382q0 -65 -37 -102q-29 -23 -72 -23q-84 0 -84 72q0 65 35 98q27 27 76 27q82 0 82 -72z" />
    <glyph glyph-name="Jcircumflex" unicode="&#x134;" horiz-adv-x="583" 
d="M571 1378l-270 -1274q-39 -190 -154 -282q-57 -46 -162 -84q-104 -37 -157 -37q-29 0 -35 29q-6 21 -6 57q0 35 49 45q121 29 191 72q88 57 118 194l279 1309q10 43 47 43h74q35 0 35 -29q0 -9 -9 -43zM268 1556q-37 0 -65 7q-23 2 -23 24q0 17 23 35l246 209
q44 37 79 37h56q35 0 59 -33l176 -211q10 -10 10 -31t-28 -28q-23 -6 -53 -6q-34 0 -64 30l-147 144l-197 -144q-41 -33 -72 -33z" />
    <glyph glyph-name="jcircumflex" unicode="&#x135;" horiz-adv-x="493" 
d="M199 -100q-39 -191 -133 -273q-58 -47 -150 -76q-95 -30 -166 -30q-32 0 -37 30q0 27 4 56q6 33 52 41q118 18 186 65q69 47 98 185l230 1073q10 43 47 43h69q31 0 31 -31q0 -9 -6 -33zM162 1174q-37 0 -58 4q-22 4 -22 24q0 19 22 41l236 260q33 39 72 39h59
q34 0 51 -35l135 -272q11 -17 11 -33q0 -20 -27 -26q-20 -2 -51 -2q-33 0 -51 30l-119 205l-199 -203q-32 -32 -59 -32z" />
    <glyph glyph-name="Kcommaaccent" unicode="&#x136;" horiz-adv-x="1218" 
d="M274 37q-11 -41 -49 -41h-73q-33 0 -33 29l6 36l289 1346q10 43 47 43h74q34 0 34 -29l-6 -43l-121 -557h144q68 0 98 35l481 559q30 35 66 35q69 0 88 -4q27 -4 27 -29q0 -9 -33 -47q-437 -510 -547 -629q75 -136 340 -661q16 -36 16 -51q0 -11 -9 -19q-10 -9 -21 -10
q-29 -4 -91 -4q-30 0 -47 35l-309 616q-16 37 -72 37h-159zM563 -129h49q45 0 45 -43q0 -30 -20 -96q-51 -150 -164 -256q-30 -27 -49 -27q-16 0 -39 16q-20 14 -20 33t22 41q95 105 117 271q10 61 59 61z" />
    <glyph glyph-name="kcommaaccent" unicode="&#x137;" horiz-adv-x="1034" 
d="M229 37q-11 -41 -45 -41h-69q-35 0 -35 27q0 6 6 36l307 1434q11 39 45 39h70q33 0 33 -29q0 -8 -2 -24l-183 -850h125q65 0 99 37l303 315q30 33 63 33q72 0 92 -4q19 -2 19 -23q0 -18 -31 -49q-203 -217 -379 -383q108 -192 256 -479q17 -29 17 -45q0 -23 -25 -31
q-23 -6 -86 -6q-31 0 -49 35l-223 436q-18 37 -72 37h-135zM444 -129h50q45 0 45 -43q0 -27 -21 -96q-51 -150 -164 -256q-30 -27 -49 -27q-16 0 -39 16q-20 14 -20 33t22 41q95 105 117 271q10 61 59 61z" />
    <glyph glyph-name="kgreenlandic" unicode="&#x138;" horiz-adv-x="1044" 
d="M229 37q-11 -41 -45 -41h-69q-35 0 -35 27q0 6 6 36l197 918q11 39 43 39h71q31 0 31 -29q0 -6 -2 -26l-76 -353h119q66 0 100 37l322 338q30 33 63 33q69 0 84 -4q19 -5 19 -23q0 -13 -31 -49q-275 -298 -387 -403l268 -461q15 -27 15 -45q0 -23 -23 -31q-23 -6 -90 -6
q-29 0 -47 35l-232 415q-22 37 -71 37h-135z" />
    <glyph glyph-name="Lacute" unicode="&#x139;" horiz-adv-x="1087" 
d="M901 0h-590q-84 0 -123 30q-38 29 -38 97q0 44 10 88l254 1190q10 45 49 45h72q34 0 34 -29l-6 -43l-244 -1128q-6 -21 -6 -53q0 -60 64 -60h551q37 0 37 -26q0 -25 -15 -80q-8 -31 -49 -31zM526 1581q-39 -25 -73 -25q-48 0 -66 5q-29 6 -29 26q0 22 23 37l291 215
q46 31 78 31q64 0 100 -4q39 -4 39 -29q0 -22 -25 -41z" />
    <glyph glyph-name="lacute" unicode="&#x13a;" horiz-adv-x="530" 
d="M532 1477l-253 -1194q-13 -57 -13 -86q0 -41 28 -61q26 -19 81 -25q28 -1 28 -33q0 -34 -10 -60q-7 -26 -47 -26q-94 0 -162 39q-67 39 -67 129q0 54 14 116l256 1213q10 43 45 43h70q33 0 33 -29q0 -2 -3 -26zM469 1622q-39 -25 -74 -25q-47 0 -65 5q-29 6 -29 26
q0 22 23 37l290 215q46 31 78 31q65 0 101 -4q38 -4 38 -29q0 -23 -24 -41z" />
    <glyph glyph-name="Lcommaaccent" unicode="&#x13b;" horiz-adv-x="1087" 
d="M901 0h-590q-84 0 -123 30q-38 29 -38 97q0 44 10 88l254 1190q10 45 49 45h72q34 0 34 -29l-6 -43l-244 -1128q-6 -21 -6 -53q0 -60 64 -60h551q37 0 37 -26q0 -25 -15 -80q-8 -31 -49 -31zM518 -129h49q45 0 45 -43q0 -30 -20 -96q-51 -150 -164 -256q-30 -27 -49 -27
q-16 0 -39 16q-21 15 -21 33t23 41q95 105 117 271q10 61 59 61z" />
    <glyph glyph-name="lcommaaccent" unicode="&#x13c;" horiz-adv-x="530" 
d="M532 1477l-253 -1194q-13 -57 -13 -86q0 -41 28 -61q26 -19 81 -25q28 -1 28 -33q0 -34 -10 -60q-7 -26 -47 -26q-94 0 -162 39q-67 39 -67 129q0 54 14 116l256 1213q10 43 45 43h70q33 0 33 -29q0 -2 -3 -26zM205 -129h49q45 0 45 -43q0 -30 -20 -96
q-51 -150 -164 -256q-30 -27 -49 -27q-16 0 -39 16q-21 15 -21 33t23 41q93 104 116 271q10 61 60 61z" />
    <glyph glyph-name="Lcaron" unicode="&#x13d;" horiz-adv-x="1087" 
d="M901 0h-590q-84 0 -123 30q-38 29 -38 97q0 44 10 88l254 1190q10 45 49 45h72q34 0 34 -29l-6 -43l-244 -1128q-6 -21 -6 -53q0 -60 64 -60h551q37 0 37 -26q0 -25 -15 -80q-8 -31 -49 -31zM866 1452h52q43 0 43 -43q0 -37 -21 -98q-45 -146 -164 -254q-30 -25 -49 -25
q-18 0 -39 15q-20 11 -20 32q0 17 22 39q94 112 117 271q11 63 59 63z" />
    <glyph glyph-name="lcaron" unicode="&#x13e;" horiz-adv-x="530" 
d="M532 1477l-253 -1194q-13 -57 -13 -86q0 -41 28 -61q26 -19 81 -25q28 -1 28 -33q0 -34 -10 -60q-7 -26 -47 -26q-94 0 -162 39q-67 39 -67 129q0 54 14 116l256 1213q10 43 45 43h70q33 0 33 -29q0 -2 -3 -26zM780 1532h51q44 0 44 -43q0 -37 -21 -98
q-45 -146 -164 -254q-30 -25 -49 -25t-39 14q-20 11 -20 33q0 17 22 39q94 112 117 270q11 64 59 64z" />
    <glyph glyph-name="Ldot" unicode="&#x13f;" horiz-adv-x="1087" 
d="M901 0h-590q-84 0 -123 30q-38 29 -38 97q0 44 10 88l254 1190q10 45 49 45h72q34 0 34 -29l-6 -43l-244 -1128q-6 -44 -6 -53q0 -60 64 -60h551q37 0 37 -26q0 -11 -15 -80q-8 -31 -49 -31zM963 737q0 -73 -41 -108q-27 -27 -74 -27q-90 0 -90 78q0 65 39 104
q29 29 77 29q89 0 89 -76z" />
    <glyph glyph-name="ldot" unicode="&#x140;" horiz-adv-x="704" 
d="M539 1477l-254 -1194q-11 -60 -11 -86q0 -74 109 -86q29 -2 29 -35q0 -34 -15 -58q-12 -26 -47 -26q-94 0 -160 39q-65 38 -65 129q0 44 12 116l256 1213q10 43 45 43h70q33 0 33 -29q0 -10 -2 -26zM743 735q0 -71 -36 -104q-31 -25 -74 -25q-86 0 -86 76q0 60 35 98
q31 31 77 31q84 0 84 -76z" />
    <glyph glyph-name="Lslash" unicode="&#x141;" horiz-adv-x="1087" 
d="M901 0h-590q-84 0 -123 30q-38 29 -38 97q0 44 10 88l67 317l-125 -69q-12 -6 -28 -6q-13 0 -29 28q-25 42 -25 58t21 28l221 123l152 711q10 45 49 45h72q34 0 34 -29l-6 -43l-127 -585l285 159q14 9 29 9q11 0 28 -25q25 -47 25 -59q0 -16 -19 -29l-383 -217l-82 -381
q-6 -21 -6 -53q0 -60 64 -60h551q37 0 37 -26q0 -25 -15 -80q-8 -31 -49 -31z" />
    <glyph glyph-name="lslash" unicode="&#x142;" horiz-adv-x="530" 
d="M532 1477l-137 -639l105 55q16 10 28 10q14 0 31 -31q19 -41 19 -51q0 -16 -23 -28l-190 -101l-86 -409q-13 -57 -13 -86q0 -41 28 -61q26 -19 81 -25q28 -1 28 -33q0 -34 -10 -60q-7 -26 -47 -26q-94 0 -162 39q-67 39 -67 129q0 54 14 116l70 330l-97 -51
q-20 -10 -30 -10q-13 0 -27 26q-20 39 -20 56q0 16 22 28l182 97l156 737q10 43 45 43h70q33 0 33 -29q0 -2 -3 -26z" />
    <glyph glyph-name="Nacute" unicode="&#x143;" horiz-adv-x="1447" 
d="M270 39q-10 -43 -47 -43h-69q-35 0 -35 31q0 9 6 30l274 1280q12 62 41 89q30 28 84 28h41q31 0 48 -11q18 -12 24 -25q6 -14 18 -48q302 -916 381 -1190q43 232 260 1221q10 49 50 49h63q35 0 35 -29q0 -22 -4 -43l-277 -1292q-21 -96 -104 -96h-37q-46 0 -65 18
q-18 16 -35 70q-358 1096 -390 1204q-59 -301 -262 -1243zM987 1581q-39 -25 -74 -25q-47 0 -65 5q-29 6 -29 26q0 22 23 37l291 215q48 31 77 31q65 0 101 -4q39 -4 39 -29q0 -22 -25 -41z" />
    <glyph glyph-name="nacute" unicode="&#x144;" horiz-adv-x="1153" 
d="M231 37q-11 -41 -45 -41h-69q-33 0 -33 27q0 12 6 36l162 772q16 83 90 121q187 86 440 86q113 0 190 -41t77 -135q0 -84 -21 -174l-139 -651q-11 -41 -45 -41h-70q-33 0 -33 27q0 3 7 38l131 613q18 74 18 125q0 108 -176 108q-147 0 -264 -51q-31 -16 -45 -29
q-15 -15 -25 -63zM727 1212q-26 -26 -61 -26q-16 0 -54 6q-26 7 -26 27t16 36l236 256q30 33 69 33q54 0 84 -6q29 -6 29 -29q0 -19 -21 -36z" />
    <glyph glyph-name="Ncommaaccent" unicode="&#x145;" horiz-adv-x="1447" 
d="M270 39q-10 -43 -47 -43h-69q-35 0 -35 31q0 9 6 30l274 1280q12 62 41 89q30 28 84 28h41q31 0 48 -11q18 -12 24 -25q6 -14 18 -48q302 -916 381 -1190q43 232 260 1221q10 49 50 49h63q35 0 35 -29q0 -22 -4 -43l-277 -1292q-21 -96 -104 -96h-37q-46 0 -65 18
q-18 16 -35 70q-358 1096 -390 1204q-59 -301 -262 -1243zM604 -129h49q45 0 45 -43q0 -30 -20 -96q-51 -150 -164 -256q-30 -27 -49 -27q-16 0 -39 16q-20 14 -20 33t22 41q95 105 117 271q10 61 59 61z" />
    <glyph glyph-name="ncommaaccent" unicode="&#x146;" horiz-adv-x="1153" 
d="M231 37q-11 -41 -45 -41h-69q-33 0 -33 27q0 12 6 36l162 772q16 83 90 121q187 86 440 86q113 0 190 -41t77 -135q0 -84 -21 -174l-139 -651q-11 -41 -45 -41h-70q-33 0 -33 27q0 3 7 38l131 613q18 74 18 125q0 108 -176 108q-147 0 -264 -51q-31 -16 -45 -29
q-15 -15 -25 -63zM444 -129h50q45 0 45 -43q0 -27 -21 -96q-51 -150 -164 -256q-30 -27 -49 -27q-16 0 -39 16q-20 14 -20 33t22 41q95 105 117 271q10 61 59 61z" />
    <glyph glyph-name="Ncaron" unicode="&#x147;" horiz-adv-x="1447" 
d="M270 39q-10 -43 -47 -43h-69q-35 0 -35 31q0 9 6 30l274 1280q12 62 41 89q30 28 84 28h41q31 0 48 -11q18 -12 24 -25q6 -14 18 -48q302 -916 381 -1190q43 232 260 1221q10 49 50 49h63q35 0 35 -29q0 -22 -4 -43l-277 -1292q-21 -96 -104 -96h-37q-46 0 -65 18
q-18 16 -35 70q-358 1096 -390 1204q-59 -301 -262 -1243zM1221 1876q41 0 63 -6q23 -5 23 -25q0 -17 -21 -35l-248 -208q-40 -37 -77 -37h-56q-33 0 -61 32l-174 211q-13 16 -13 31q0 21 29 29q18 6 55 6q31 0 62 -31l147 -143l199 143q45 33 72 33z" />
    <glyph glyph-name="ncaron" unicode="&#x148;" horiz-adv-x="1153" 
d="M231 37q-11 -41 -45 -41h-69q-33 0 -33 27q0 12 6 36l162 772q16 83 90 121q187 86 440 86q113 0 190 -41t77 -135q0 -84 -21 -174l-139 -651q-11 -41 -45 -41h-70q-33 0 -33 27q0 3 7 38l131 613q18 74 18 125q0 108 -176 108q-147 0 -264 -51q-31 -16 -45 -29
q-15 -15 -25 -63zM946 1550q37 0 58 -4q24 -5 24 -26q0 -17 -24 -41l-236 -260q-33 -37 -68 -37h-63q-34 0 -51 35l-135 270q-9 25 -9 33q0 20 25 26q25 4 53 4t49 -30l119 -203l201 201q28 32 57 32z" />
    <glyph glyph-name="napostrophe" unicode="&#x149;" horiz-adv-x="1153" 
d="M231 37q-11 -41 -45 -41h-69q-33 0 -33 27q0 12 6 36l162 772q16 83 90 121q187 86 440 86q113 0 190 -41t77 -135q0 -84 -21 -174l-139 -651q-11 -41 -45 -41h-70q-33 0 -33 27q0 3 7 38l131 613q18 74 18 125q0 108 -176 108q-147 0 -264 -51q-31 -16 -45 -29
q-15 -15 -25 -63zM485 1602h50q45 0 45 -43q0 -28 -21 -97q-51 -150 -164 -256q-29 -26 -49 -26q-16 0 -39 16q-20 14 -20 33t22 41q95 105 117 270q11 62 59 62z" />
    <glyph glyph-name="Eng" unicode="&#x14a;" horiz-adv-x="1447" 
d="M270 39q-10 -43 -47 -43h-69q-35 0 -35 31q0 9 6 30l274 1280q12 61 40 89t83 28h41q31 0 47 -11q20 -13 26 -26q2 -4 5 -11t7.5 -18t8.5 -20q340 -889 400 -1083q15 79 239 1116q6 49 50 49h63q35 0 35 -29q0 -22 -4 -43l-307 -1427q-44 -208 -156 -287
q-65 -48 -160 -82q-97 -35 -155 -35q-29 0 -35 29q-6 24 -6 57q0 37 51 48q124 27 186 67q91 61 121 201l14 59q-434 1193 -461 1274q-55 -291 -262 -1243z" />
    <glyph glyph-name="eng" unicode="&#x14b;" horiz-adv-x="1153" 
d="M231 37q-11 -41 -45 -41h-69q-33 0 -33 27q0 12 6 36l162 772q16 83 90 121q187 86 440 86q113 0 190 -41t77 -135q0 -84 -21 -174l-170 -788q-44 -197 -133 -273q-57 -48 -146 -77q-88 -29 -165 -29q-32 0 -37 30q-4 25 -4 52q0 37 51 45q129 21 190 65q70 47 99 185
l166 776q18 74 18 125q0 108 -176 108q-147 0 -264 -51q-31 -16 -45 -29q-15 -15 -25 -63z" />
    <glyph glyph-name="Omacron" unicode="&#x14c;" horiz-adv-x="1400" 
d="M1354 1053q0 -210 -68 -485q-68 -274 -190 -414q-85 -97 -193 -139t-264 -42q-239 0 -365 96q-124 94 -124 343q0 223 72 490q72 266 208 411q152 162 432 162q118 0 203 -17q86 -17 152 -59q68 -43 103 -129q34 -84 34 -217zM1196 1030q0 181 -77 244t-269 63
q-211 0 -315 -120q-105 -117 -165 -357q-61 -244 -61 -428t80 -253q78 -68 268 -68q121 0 195 29q75 29 135 112q93 125 151 368q58 242 58 410zM1190 1622h-516q-33 0 -33 29q0 18 14 67q12 39 47 39h512q35 0 35 -28q0 -19 -14 -72q-8 -35 -45 -35z" />
    <glyph glyph-name="omacron" unicode="&#x14d;" horiz-adv-x="1099" 
d="M1022 727q0 -128 -40 -304q-41 -182 -116 -286q-114 -164 -387 -164q-188 0 -288 70q-99 69 -99 260q0 144 47 321q46 173 137 275q123 137 361 137q96 0 153 -10q61 -11 117 -40q58 -30 86 -94q29 -66 29 -165zM874 705q0 121 -62 162q-63 42 -191 42q-163 0 -242 -100
q-64 -78 -98 -235q-35 -161 -35 -259q0 -123 57 -169q56 -46 186 -46q195 0 271 127q49 78 82 236q32 151 32 242zM928 1249h-463q-35 0 -35 29q0 25 12 70q12 36 50 36h460q37 0 37 -28q0 -25 -14 -74q-11 -33 -47 -33z" />
    <glyph glyph-name="Obreve" unicode="&#x14e;" horiz-adv-x="1400" 
d="M1354 1053q0 -210 -68 -485q-68 -274 -190 -414q-85 -97 -193 -139t-264 -42q-239 0 -365 96q-124 94 -124 343q0 223 72 490q72 266 208 411q152 162 432 162q118 0 203 -17q86 -17 152 -59q68 -43 103 -129q34 -84 34 -217zM1196 1030q0 181 -77 244t-269 63
q-211 0 -315 -120q-105 -117 -165 -357q-61 -244 -61 -428t80 -253q78 -68 268 -68q121 0 195 29q75 29 135 112q93 125 151 368q58 242 58 410zM1202 1864q34 0 45 -4q21 -6 21 -29q0 -35 -19 -82q-83 -195 -313 -195q-120 0 -195 58q-73 57 -73 155q0 43 6 64q8 25 37 31
q10 2 37 2q36 0 36 -29q0 -26 7 -61q12 -50 48 -72q37 -23 109 -23q158 0 209 154q11 31 45 31z" />
    <glyph glyph-name="obreve" unicode="&#x14f;" horiz-adv-x="1099" 
d="M1022 727q0 -128 -40 -304q-41 -182 -116 -286q-114 -164 -387 -164q-188 0 -288 70q-99 69 -99 260q0 144 47 321q46 173 137 275q123 137 361 137q96 0 153 -10q61 -11 117 -40q58 -30 86 -94q29 -66 29 -165zM874 705q0 121 -62 162q-63 42 -191 42q-163 0 -242 -100
q-64 -78 -98 -235q-35 -161 -35 -259q0 -123 57 -169q56 -46 186 -46q195 0 271 127q49 78 82 236q32 151 32 242zM934 1487q26 0 45 -4q22 -6 22 -29q0 -30 -18 -80q-40 -96 -112 -149q-73 -54 -193 -54q-124 0 -188 59q-62 58 -62 148q0 48 6 70q7 32 27 37q16 2 43 2
q35 0 35 -29q0 -45 2 -67q7 -49 42 -72t107 -23q90 0 133 40t70 120q11 31 41 31z" />
    <glyph glyph-name="Ohungarumlaut" unicode="&#x150;" horiz-adv-x="1400" 
d="M1354 1053q0 -210 -68 -485q-68 -274 -190 -414q-85 -97 -193 -139t-264 -42q-239 0 -365 96q-124 94 -124 343q0 223 72 490q72 266 208 411q152 162 432 162q118 0 203 -17q86 -17 152 -59q68 -43 103 -129q34 -84 34 -217zM1196 1030q0 181 -77 244t-269 63
q-211 0 -315 -120q-105 -117 -165 -357q-61 -244 -61 -428t80 -253q78 -68 268 -68q121 0 195 29q75 29 135 112q93 125 151 368q58 242 58 410zM776 1581q-34 -25 -71 -25q-41 0 -58 5q-31 6 -31 26q0 17 25 39l279 213q39 31 75 31q49 0 82 -4q37 -4 37 -29q0 -23 -24 -41
zM1149 1581q-34 -25 -72 -25q-40 0 -57 5q-31 6 -31 26q0 17 25 39l278 213q39 31 76 31q49 0 82 -4q37 -4 37 -31q0 -22 -25 -39z" />
    <glyph glyph-name="ohungarumlaut" unicode="&#x151;" horiz-adv-x="1099" 
d="M1022 727q0 -128 -40 -304q-41 -182 -116 -286q-114 -164 -387 -164q-188 0 -288 70q-99 69 -99 260q0 144 47 321q46 173 137 275q123 137 361 137q96 0 153 -10q61 -11 117 -40q58 -30 86 -94q29 -66 29 -165zM874 705q0 121 -62 162q-63 42 -191 42q-163 0 -242 -100
q-64 -78 -98 -235q-35 -161 -35 -259q0 -123 57 -169q56 -46 186 -46q195 0 271 127q49 78 82 236q32 151 32 242zM588 1212q-27 -26 -60 -26q-25 0 -47 6q-26 7 -26 29q0 16 18 34l229 256q30 33 68 33q41 0 74 -6q26 -6 26 -29q0 -21 -18 -39zM901 1212q-27 -26 -61 -26
q-25 0 -43 6q-27 8 -27 29q0 18 16 34l230 256q30 33 67 33q39 0 76 -6q27 -4 27 -29q0 -18 -21 -39z" />
    <glyph glyph-name="OE" unicode="&#x152;" horiz-adv-x="1978" 
d="M1796 0h-608q-146 0 -146 104q0 23 7 74q-62 -105 -162 -155t-252 -50q-236 0 -362 96q-123 93 -123 343q0 227 71 486q72 263 207 407q152 161 432 161q181 0 277 -51t118 -178l15 61q18 81 62 115q44 33 143 33h563q37 0 37 -29q0 -16 -13 -78q-8 -30 -51 -30h-528
q-67 0 -84 -80l-90 -408h551q36 0 36 -28q0 -7 -16 -78q-6 -29 -47 -29h-553l-92 -426q-8 -40 -8 -65q0 -58 63 -58h580q37 0 37 -26q0 -8 -15 -80q-8 -31 -49 -31zM1167 1020q0 180 -70 246q-69 65 -249 65q-210 0 -316 -123q-102 -118 -162 -354q-61 -239 -61 -422
q0 -184 78 -253q77 -68 264 -68q103 0 175 30q73 30 135 111q92 123 149 361q57 240 57 407z" />
    <glyph glyph-name="oe" unicode="&#x153;" horiz-adv-x="1789" 
d="M858 180q-102 -207 -387 -207q-186 0 -283 70q-96 69 -96 260q0 144 47 321q46 174 137 277q123 137 355 137q150 0 235 -41q84 -41 111 -163q138 204 405 204q312 0 312 -270q0 -122 -27 -229q-12 -46 -31 -62q-16 -10 -43 -10h-620q-12 -55 -12 -133q0 -125 67 -179
q69 -55 203 -55q104 0 225 31q7 1 30 8q21 6 27 6q23 0 29 -20q14 -36 14 -59q0 -30 -45 -46q-141 -47 -319 -47q-284 0 -334 207zM860 707q0 121 -59 161q-61 41 -187 41q-153 0 -235 -98q-64 -78 -98 -234q-35 -161 -35 -262q0 -125 54 -170t185 -45q187 0 263 127
q48 77 80 236q32 158 32 244zM995 588h539q22 72 22 168q0 76 -44 117q-43 40 -154 40q-158 0 -252 -98q-72 -78 -111 -227z" />
    <glyph glyph-name="Racute" unicode="&#x154;" horiz-adv-x="1251" 
d="M274 41q-6 -45 -45 -45h-73q-37 0 -37 31q0 3 3 15t3 15l256 1200q21 102 69 145q49 44 154 44h135q248 0 353 -45q145 -63 145 -258q0 -183 -82 -310q-84 -129 -256 -174l-18 -6l202 -577q9 -34 9 -45q0 -27 -27 -31q-23 -6 -86 -6q-32 0 -47 41l-201 598
q-80 -4 -139 -4h-191zM428 760h180q194 0 293 39q174 67 174 319q0 119 -88 164q-68 31 -262 31h-102q-43 0 -63 -20t-30 -64zM860 1581q-39 -25 -74 -25q-47 0 -65 5q-29 6 -29 26q0 22 23 37l291 215q46 31 77 31q65 0 101 -4q39 -4 39 -29q0 -22 -25 -41z" />
    <glyph glyph-name="racute" unicode="&#x155;" horiz-adv-x="727" 
d="M231 37q-11 -41 -45 -41h-71q-31 0 -31 27q0 8 6 38l160 758q16 77 69 123q46 40 149 67q104 27 210 27q76 0 100 -6q19 -6 19 -33q0 -39 -13 -71q-11 -25 -39 -25q-16 0 -37 1t-44 1q-143 0 -211 -41q-33 -17 -45 -37q-16 -22 -23 -63zM594 1212q-26 -26 -62 -26
q-16 0 -53 6q-26 7 -26 27t16 36l236 256q30 33 69 33q54 0 84 -6q29 -6 29 -29q0 -19 -21 -36z" />
    <glyph glyph-name="Rcommaaccent" unicode="&#x156;" horiz-adv-x="1251" 
d="M274 41q-6 -45 -45 -45h-73q-37 0 -37 31q0 3 3 15t3 15l256 1200q21 102 69 145q49 44 154 44h135q248 0 353 -45q145 -63 145 -258q0 -183 -82 -310q-84 -129 -256 -174l-18 -6l202 -577q9 -34 9 -45q0 -27 -27 -31q-23 -6 -86 -6q-32 0 -47 41l-201 598
q-80 -4 -139 -4h-191zM428 760h180q194 0 293 39q174 67 174 319q0 119 -88 164q-68 31 -262 31h-102q-43 0 -63 -20t-30 -64zM559 -129h49q45 0 45 -43q0 -30 -20 -96q-51 -150 -164 -256q-30 -27 -49 -27q-16 0 -39 16q-21 15 -21 33t23 41q95 105 117 271q10 61 59 61z
" />
    <glyph glyph-name="rcommaaccent" unicode="&#x157;" horiz-adv-x="727" 
d="M231 37q-11 -41 -45 -41h-71q-31 0 -31 27q0 8 6 38l160 758q16 77 69 123q46 40 149 67q104 27 210 27q76 0 100 -6q19 -6 19 -33q0 -39 -13 -71q-11 -25 -39 -25q-16 0 -37 1t-44 1q-143 0 -211 -41q-33 -17 -45 -37q-16 -22 -23 -63zM117 -129h49q45 0 45 -43
q0 -27 -21 -96q-51 -151 -163 -256q-30 -27 -50 -27q-15 0 -38 16q-21 15 -21 33t23 41q93 104 116 271q10 61 60 61z" />
    <glyph glyph-name="Rcaron" unicode="&#x158;" horiz-adv-x="1251" 
d="M274 41q-6 -45 -45 -45h-73q-37 0 -37 31q0 3 3 15t3 15l256 1200q21 102 69 145q49 44 154 44h135q248 0 353 -45q145 -63 145 -258q0 -183 -82 -310q-84 -129 -256 -174l-18 -6l202 -577q9 -34 9 -45q0 -27 -27 -31q-23 -6 -86 -6q-32 0 -47 41l-201 598
q-80 -4 -139 -4h-191zM428 760h180q194 0 293 39q174 67 174 319q0 119 -88 164q-68 31 -262 31h-102q-43 0 -63 -20t-30 -64zM1063 1876q42 0 63 -6q23 -5 23 -25q0 -17 -21 -35l-247 -208q-40 -37 -78 -37h-55q-34 0 -62 32l-174 211q-12 15 -12 31q0 22 28 29q18 6 56 6
q30 0 61 -31l148 -143l198 143q45 33 72 33z" />
    <glyph glyph-name="rcaron" unicode="&#x159;" horiz-adv-x="727" 
d="M231 37q-11 -41 -45 -41h-71q-31 0 -31 27q0 8 6 38l160 758q16 77 69 123q46 40 149 67q104 27 210 27q76 0 100 -6q19 -6 19 -33q0 -39 -13 -71q-11 -25 -39 -25q-16 0 -37 1t-44 1q-143 0 -211 -41q-33 -17 -45 -37q-16 -22 -23 -63zM797 1550q36 0 57 -4
q25 -5 25 -26q0 -16 -25 -41l-236 -260q-33 -37 -67 -37h-64q-33 0 -51 35l-135 270q-8 22 -8 33q0 20 24 26q25 4 54 4q28 0 49 -30l119 -203l200 201q28 32 58 32z" />
    <glyph glyph-name="Sacute" unicode="&#x15a;" horiz-adv-x="1130" 
d="M643 633l-166 67q-231 96 -231 332q0 441 532 441q182 0 312 -44q32 -10 32 -40q0 -25 -18 -74q-10 -27 -37 -27q-26 0 -59 10q-144 39 -269 39q-331 0 -331 -278q0 -81 41 -137t157 -105l144 -61q274 -99 274 -328q0 -455 -545 -455q-226 0 -383 68q-33 15 -33 41
q0 23 23 74q12 30 43 30q21 0 57 -16q134 -57 310 -57t270 61t94 217q0 77 -40 130q-42 55 -177 112zM750 1581q-39 -25 -74 -25q-48 0 -66 5q-28 6 -28 26q0 22 22 37l291 215q46 31 78 31q64 0 100 -4q39 -4 39 -29q0 -22 -25 -41z" />
    <glyph glyph-name="sacute" unicode="&#x15b;" horiz-adv-x="856" 
d="M553 535q195 -69 195 -226q0 -148 -93 -239q-100 -97 -331 -97q-186 0 -299 52q-25 11 -25 30q0 30 23 76q16 25 38 25q15 0 41 -13q93 -43 242 -43q159 0 211 58q45 51 45 123q0 47 -30 78q-31 33 -126 67l-127 47q-186 69 -186 227q0 164 115 256q102 78 311 78
q129 0 234 -28q30 -8 30 -33q0 -23 -16 -74q-10 -22 -35 -22q-5 0 -35 6q-108 26 -207 26q-139 0 -192 -41q-57 -44 -57 -141q0 -93 149 -145zM551 1212q-26 -26 -62 -26q-15 0 -53 6q-26 7 -26 27t16 36l236 256q30 33 69 33q54 0 84 -6q29 -6 29 -29q0 -19 -21 -36z" />
    <glyph glyph-name="Scircumflex" unicode="&#x15c;" horiz-adv-x="1130" 
d="M643 633l-166 67q-231 96 -231 332q0 441 532 441q182 0 312 -44q32 -10 32 -40q0 -25 -18 -74q-10 -27 -37 -27q-26 0 -59 10q-144 39 -269 39q-331 0 -331 -278q0 -81 41 -137t157 -105l144 -61q274 -99 274 -328q0 -455 -545 -455q-226 0 -383 68q-33 15 -33 41
q0 23 23 74q12 30 43 30q21 0 57 -16q134 -57 310 -57t270 61t94 217q0 77 -40 130q-42 55 -177 112zM518 1556q-37 0 -65 7q-23 2 -23 24q0 17 23 35l245 209q44 37 80 37h56q35 0 59 -33l176 -211q10 -10 10 -31t-28 -28q-23 -6 -54 -6q-33 0 -63 30l-148 144l-196 -144
q-41 -33 -72 -33z" />
    <glyph glyph-name="scircumflex" unicode="&#x15d;" horiz-adv-x="856" 
d="M553 535q195 -69 195 -226q0 -148 -93 -239q-100 -97 -331 -97q-186 0 -299 52q-25 11 -25 30q0 30 23 76q16 25 38 25q15 0 41 -13q93 -43 242 -43q159 0 211 58q45 51 45 123q0 47 -30 78q-31 33 -126 67l-127 47q-186 69 -186 227q0 164 115 256q102 78 311 78
q129 0 234 -28q30 -8 30 -33q0 -23 -16 -74q-10 -22 -35 -22q-5 0 -35 6q-108 26 -207 26q-139 0 -192 -41q-57 -44 -57 -141q0 -93 149 -145zM336 1174q-36 0 -57 4q-23 5 -23 24q0 18 23 41l235 260q33 39 72 39h59q34 0 51 -35l135 -272q11 -17 11 -33q0 -20 -27 -26
q-20 -2 -51 -2q-33 0 -51 30l-119 205l-199 -203q-32 -32 -59 -32z" />
    <glyph glyph-name="Scedilla" unicode="&#x15e;" horiz-adv-x="1130" 
d="M510 -125q172 -4 172 -156q0 -127 -74 -181t-213 -54q-61 0 -94 10q-27 8 -27 33q0 12 7 47q6 31 38 31q16 0 37 -4t64 -4q123 0 123 100q0 70 -92 70h-33q-35 0 -35 34q0 19 14 60l39 112q-195 6 -340 68q-33 15 -33 41q0 23 23 74q12 30 43 30q21 0 57 -16
q134 -57 310 -57t270 61t94 217q0 77 -40 130q-42 55 -177 112l-166 67q-231 96 -231 332q0 441 532 441q184 0 312 -43q32 -10 32 -41q0 -25 -18 -74q-10 -27 -37 -27q-26 0 -59 10q-144 39 -269 39q-331 0 -331 -278q0 -81 41 -137t157 -105l144 -61q274 -99 274 -328
q0 -430 -483 -453z" />
    <glyph glyph-name="scedilla" unicode="&#x15f;" horiz-adv-x="856" 
d="M365 -121q167 -1 167 -147q0 -123 -71 -175q-73 -53 -209 -53q-60 0 -92 9q-26 8 -27 30q0 12 8 47q8 29 37 29q16 0 37 -4q30 -2 61 -2q61 0 90 20t29 76q0 68 -88 68h-33q-34 0 -34 33q0 16 14 57l37 106q-165 6 -266 52q-25 11 -25 30q0 30 23 76q16 25 38 25
q15 0 41 -13q93 -43 242 -43q159 0 211 58q45 51 45 123q0 47 -30 78q-31 33 -126 67l-127 47q-186 69 -186 227q0 164 115 256q102 78 311 78q129 0 234 -28q30 -8 30 -33q0 -23 -16 -74q-10 -22 -35 -22q-5 0 -35 6q-108 26 -207 26q-139 0 -192 -41q-57 -44 -57 -141
q0 -93 149 -145l125 -47q195 -69 195 -226q0 -148 -93 -239q-86 -83 -260 -95z" />
    <glyph glyph-name="Scaron" unicode="&#x160;" horiz-adv-x="1130" 
d="M643 633l-166 67q-231 96 -231 332q0 441 532 441q182 0 312 -44q32 -10 32 -40q0 -25 -18 -74q-10 -27 -37 -27q-26 0 -59 10q-144 39 -269 39q-331 0 -331 -278q0 -81 41 -137t157 -105l144 -61q274 -99 274 -328q0 -455 -545 -455q-226 0 -383 68q-33 15 -33 41
q0 23 23 74q12 30 43 30q21 0 57 -16q134 -57 310 -57t270 61t94 217q0 77 -40 130q-42 55 -177 112zM1040 1876q42 0 64 -6q22 -4 22 -25q0 -18 -20 -35l-248 -208q-40 -37 -78 -37h-55q-33 0 -61 32l-175 211q-12 15 -12 31q0 21 29 29q18 6 55 6q31 0 62 -31l147 -143
l199 143q45 33 71 33z" />
    <glyph glyph-name="scaron" unicode="&#x161;" horiz-adv-x="856" 
d="M553 535q195 -69 195 -226q0 -148 -93 -239q-100 -97 -331 -97q-186 0 -299 52q-25 11 -25 30q0 30 23 76q16 25 38 25q15 0 41 -13q93 -43 242 -43q159 0 211 58q45 51 45 123q0 47 -30 78q-31 33 -126 67l-127 47q-186 69 -186 227q0 164 115 256q102 78 311 78
q129 0 234 -28q30 -8 30 -33q0 -23 -16 -74q-10 -22 -35 -22q-5 0 -35 6q-108 26 -207 26q-139 0 -192 -41q-57 -44 -57 -141q0 -93 149 -145zM805 1550q36 0 57 -4q25 -5 25 -26q0 -16 -25 -41l-235 -260q-33 -37 -68 -37h-63q-34 0 -52 35l-135 270q-8 22 -8 33
q0 20 25 26q25 4 53 4t49 -30l119 -203l201 201q28 32 57 32z" />
    <glyph glyph-name="uni0162" unicode="&#x162;" horiz-adv-x="1150" 
d="M471 -125q172 -4 172 -156q0 -127 -74 -181q-73 -54 -213 -54q-61 0 -94 10q-26 7 -26 33q0 17 6 47q5 31 39 31q15 0 36 -4t64 -4q123 0 123 100q0 70 -92 70h-33q-35 0 -35 34q0 19 14 60l48 137q-21 2 -21 27q0 11 4 30l270 1254h-401q-33 0 -33 24q0 11 13 78
q8 35 49 35h950q39 0 39 -25q0 -29 -14 -82q-8 -30 -50 -30h-399l-272 -1270q-6 -40 -33 -41z" />
    <glyph glyph-name="uni0163" unicode="&#x163;" horiz-adv-x="667" 
d="M358 -121q168 -1 168 -147q0 -123 -71 -175q-73 -53 -209 -53q-60 0 -92 9q-26 8 -27 30q0 12 8 47q8 29 37 29q16 0 37 -4q30 -2 61 -2q60 0 89 20q30 21 30 76q0 68 -88 68h-33q-35 0 -35 33q0 14 15 57l55 149q-123 51 -123 195q0 83 25 192l104 478h-114
q-31 0 -31 24q0 29 10 68q10 37 47 37h117v2q1 1 1.5 4t0.5 5l6 28q2 6 5 21t5 23q1 5 7 27t9 38q9 40 21 87q15 47 45 47h64q26 0 26 -30q0 -24 -4 -43l-45 -209h199q37 0 37 -31q0 -28 -10 -64q-7 -34 -50 -34h-200l-109 -504q-14 -69 -14 -119q0 -78 51 -111
q37 -25 156 -36q36 -4 36 -35q0 -36 -10 -62q-11 -30 -49 -30q-58 0 -121 10z" />
    <glyph glyph-name="Tcaron" unicode="&#x164;" horiz-adv-x="1150" 
d="M541 39q-6 -43 -45 -43h-76q-35 0 -35 29q0 11 4 30l270 1254h-401q-33 0 -33 24q0 11 13 78q8 35 49 35h950q39 0 39 -25q0 -29 -14 -82q-8 -30 -50 -30h-399zM1042 1876q43 0 64 -6q22 -4 22 -25q0 -18 -20 -35l-248 -208q-40 -37 -78 -37h-55q-33 0 -61 32l-174 211
q-13 16 -13 31q0 21 29 29q18 6 55 6q31 0 62 -31l147 -143l199 143q45 33 71 33z" />
    <glyph glyph-name="tcaron" unicode="&#x165;" horiz-adv-x="667" 
d="M455 881l-109 -504q-14 -69 -14 -119q0 -78 51 -111q37 -25 156 -36q36 -4 36 -35q0 -36 -10 -62q-11 -30 -49 -30q-153 1 -245 50q-91 48 -91 177q0 83 25 192l104 478h-114q-31 0 -31 24q0 29 10 68q10 37 47 37h117v2q1 1 1.5 4t0.5 5l6 28q2 6 5 21t5 23q1 5 7 27
t9 38q9 40 21 87q15 47 45 47h64q26 0 26 -30q0 -24 -4 -43l-45 -209h199q37 0 37 -31q0 -28 -10 -64q-7 -34 -50 -34h-200zM805 1516h51q43 0 43 -43q0 -40 -20 -99q-45 -146 -164 -254q-29 -24 -49 -24q-19 0 -39 14q-21 12 -21 33q0 16 23 39q93 111 116 270q11 64 60 64
z" />
    <glyph glyph-name="Tbar" unicode="&#x166;" horiz-adv-x="1150" 
d="M553 39q-6 -43 -45 -43h-76q-35 0 -35 29q0 11 4 30l148 688h-258q-31 0 -31 29q0 10 12 66q7 34 43 34h263l94 437h-402q-32 0 -32 24q0 17 12 78q8 35 49 35h950q39 0 39 -25q0 -29 -14 -82q-8 -30 -49 -30h-400l-94 -437h281q32 0 32 -26q0 -24 -14 -72
q-6 -31 -43 -31h-282z" />
    <glyph glyph-name="tbar" unicode="&#x167;" horiz-adv-x="667" 
d="M455 881l-43 -195h194q33 0 33 -29q0 -16 -10 -55q-8 -31 -45 -31h-197l-41 -194q-14 -69 -14 -119q0 -78 51 -111q37 -25 156 -36q36 -4 36 -35q0 -36 -10 -62q-11 -30 -49 -30q-153 1 -245 50q-91 48 -91 177q0 83 25 192l37 168h-92q-31 0 -31 27q0 23 8 55
q7 33 43 33h96l43 195h-114q-31 0 -31 24q0 29 10 68q10 37 47 37h117v2q1 1 1.5 4t0.5 5l6 28q2 6 5 21t5 23q1 5 7 27t9 38q9 40 21 87q15 47 45 47h64q26 0 26 -30q0 -24 -4 -43l-45 -209h199q37 0 37 -31q0 -28 -10 -64q-7 -34 -50 -34h-200z" />
    <glyph glyph-name="Utilde" unicode="&#x168;" horiz-adv-x="1388" 
d="M1384 1395l-176 -815q-28 -134 -42 -189q-14 -57 -39 -122q-26 -66 -58 -109q-77 -101 -189 -144q-113 -43 -296 -43q-172 0 -291 73q-117 72 -117 245q0 112 37 284l178 834q8 41 49 41h74q31 0 31 -31q0 -2 -8 -45l-181 -850q-24 -117 -24 -190q0 -223 278 -223
q232 0 328 114q66 82 109 287l190 897q11 41 47 41h76q29 0 29 -25q0 -7 -5 -30zM676 1577q-27 0 -49 8q-19 6 -19 25q0 13 17 47q77 162 190 162q48 0 152 -58q84 -45 123 -45q53 0 92 74q24 41 51 41q29 0 47 -6q20 -6 20 -23q0 -20 -18 -61q-68 -162 -188 -162
q-58 0 -162 55q-89 47 -123 47q-49 0 -86 -67q-18 -37 -47 -37z" />
    <glyph glyph-name="utilde" unicode="&#x169;" horiz-adv-x="1153" 
d="M918 172q-21 -91 -91 -121q-169 -78 -428 -78q-122 0 -198 46t-76 143q0 64 22 168l136 641q10 43 45 43h69q33 0 33 -27q0 -11 -6 -41l-131 -610q-17 -71 -17 -119q0 -115 183 -115q144 0 254 43q27 12 45 33q18 18 26 60l156 733q10 43 47 43h68q35 0 35 -27
q0 -4 -7 -39zM483 1225q-24 0 -43 4q-20 4 -20 26q0 23 14 50q79 161 189 161q41 0 137 -57q73 -45 115 -45q53 0 92 76q21 39 43 39q34 0 53 -4q16 -6 16 -25q0 -23 -16 -59q-74 -164 -184 -164q-58 0 -152 55q-79 47 -111 47q-52 0 -86 -67q-21 -37 -47 -37z" />
    <glyph glyph-name="Umacron" unicode="&#x16a;" horiz-adv-x="1388" 
d="M1384 1395l-176 -815q-28 -134 -42 -189q-14 -57 -39 -122q-26 -66 -58 -109q-77 -101 -189 -144q-113 -43 -296 -43q-172 0 -291 73q-117 72 -117 245q0 112 37 284l178 834q8 41 49 41h74q31 0 31 -31q0 -2 -8 -45l-181 -850q-24 -117 -24 -190q0 -223 278 -223
q232 0 328 114q66 82 109 287l190 897q11 41 47 41h76q29 0 29 -25q0 -7 -5 -30zM1157 1622h-516q-33 0 -33 29q0 15 15 67q12 39 47 39h512q35 0 35 -28q0 -15 -15 -72q-8 -35 -45 -35z" />
    <glyph glyph-name="umacron" unicode="&#x16b;" horiz-adv-x="1153" 
d="M918 172q-21 -91 -91 -121q-169 -78 -428 -78q-122 0 -198 46t-76 143q0 64 22 168l136 641q10 43 45 43h69q33 0 33 -27q0 -11 -6 -41l-131 -610q-17 -71 -17 -119q0 -115 183 -115q144 0 254 43q27 12 45 33q18 18 26 60l156 733q10 43 47 43h68q35 0 35 -27
q0 -4 -7 -39zM940 1249h-463q-35 0 -35 29q0 21 13 70q12 36 49 36h461q36 0 36 -28q0 -25 -14 -74q-11 -33 -47 -33z" />
    <glyph glyph-name="Ubreve" unicode="&#x16c;" horiz-adv-x="1388" 
d="M1384 1395l-176 -815q-28 -134 -42 -189q-14 -57 -39 -122q-26 -66 -58 -109q-77 -101 -189 -144q-113 -43 -296 -43q-172 0 -291 73q-117 72 -117 245q0 112 37 284l178 834q8 41 49 41h74q31 0 31 -31q0 -2 -8 -45l-181 -850q-24 -117 -24 -190q0 -223 278 -223
q232 0 328 114q66 82 109 287l190 897q11 41 47 41h76q29 0 29 -25q0 -7 -5 -30zM1167 1864q34 0 45 -4q21 -6 21 -29q0 -35 -19 -82q-82 -195 -313 -195q-119 0 -194 58q-74 57 -74 155q0 43 6 64q8 25 37 31q10 2 37 2q37 0 37 -29q0 -31 6 -61q12 -50 48 -72
q37 -23 109 -23q158 0 209 154q11 31 45 31z" />
    <glyph glyph-name="ubreve" unicode="&#x16d;" horiz-adv-x="1153" 
d="M918 172q-21 -91 -91 -121q-169 -78 -428 -78q-122 0 -198 46t-76 143q0 64 22 168l136 641q10 43 45 43h69q33 0 33 -27q0 -11 -6 -41l-131 -610q-17 -71 -17 -119q0 -115 183 -115q144 0 254 43q27 12 45 33q18 18 26 60l156 733q10 43 47 43h68q35 0 35 -27
q0 -4 -7 -39zM961 1487q26 0 45 -4q22 -6 22 -29q0 -30 -18 -80q-40 -96 -112 -149q-73 -54 -193 -54q-124 0 -188 59q-62 58 -62 148q0 48 6 70q7 32 26 37q16 2 43 2q35 0 35 -29q0 -45 2 -67q7 -49 42 -72t108 -23q90 0 133 40t70 120q11 31 41 31z" />
    <glyph glyph-name="Uring" unicode="&#x16e;" horiz-adv-x="1388" 
d="M1384 1395l-176 -815q-28 -134 -42 -189q-14 -57 -39 -122q-26 -66 -58 -109q-77 -101 -189 -144q-113 -43 -296 -43q-172 0 -291 73q-117 72 -117 245q0 112 37 284l178 834q8 41 49 41h74q31 0 31 -31q0 -2 -8 -45l-181 -850q-24 -117 -24 -190q0 -223 278 -223
q232 0 328 114q66 82 109 287l190 897q11 41 47 41h76q29 0 29 -25q0 -7 -5 -30zM1096 1716q0 -94 -55 -152q-54 -57 -150 -57q-80 0 -125 45t-45 125q0 94 55 150q56 57 148 57q80 0 126 -45t46 -123zM1022 1712q0 103 -107 103q-50 0 -87 -35q-35 -34 -35 -95
q0 -53 28 -82q29 -30 78 -30q55 0 89 36q34 35 34 103z" />
    <glyph glyph-name="uring" unicode="&#x16f;" horiz-adv-x="1153" 
d="M918 172q-21 -91 -91 -121q-169 -78 -428 -78q-122 0 -198 46t-76 143q0 64 22 168l136 641q10 43 45 43h69q33 0 33 -27q0 -11 -6 -41l-131 -610q-17 -71 -17 -119q0 -115 183 -115q144 0 254 43q27 12 45 33q18 18 26 60l156 733q10 43 47 43h68q35 0 35 -27
q0 -4 -7 -39zM915 1397q0 -100 -57 -160q-56 -59 -158 -59q-82 0 -129 47t-47 131q0 94 59 155q59 60 154 60q85 0 131 -46q47 -47 47 -128zM840 1395q0 108 -113 108q-55 0 -93 -38t-38 -101q0 -119 113 -119q59 0 95 38t36 112z" />
    <glyph glyph-name="Uhungarumlaut" unicode="&#x170;" horiz-adv-x="1388" 
d="M1384 1395l-176 -815q-28 -134 -42 -189q-14 -57 -39 -122q-26 -66 -58 -109q-77 -101 -189 -144q-113 -43 -296 -43q-172 0 -291 73q-117 72 -117 245q0 112 37 284l178 834q8 41 49 41h74q31 0 31 -31q0 -2 -8 -45l-181 -850q-24 -117 -24 -190q0 -223 278 -223
q232 0 328 114q66 82 109 287l190 897q11 41 47 41h76q29 0 29 -25q0 -7 -5 -30zM758 1581q-34 -25 -72 -25q-40 0 -57 5q-31 6 -31 26q0 17 25 39l278 213q39 31 76 31q49 0 82 -4q37 -4 37 -29q0 -22 -25 -41zM1130 1581q-34 -25 -71 -25q-41 0 -58 5q-30 6 -30 26
q0 18 24 39l279 213q39 31 76 31q49 0 82 -4q36 -4 36 -31q0 -23 -24 -39z" />
    <glyph glyph-name="uhungarumlaut" unicode="&#x171;" horiz-adv-x="1153" 
d="M918 172q-21 -91 -91 -121q-169 -78 -428 -78q-122 0 -198 46t-76 143q0 64 22 168l136 641q10 43 45 43h69q33 0 33 -27q0 -11 -6 -41l-131 -610q-17 -71 -17 -119q0 -115 183 -115q144 0 254 43q27 12 45 33q18 18 26 60l156 733q10 43 47 43h68q35 0 35 -27
q0 -4 -7 -39zM590 1212q-27 -26 -60 -26q-24 0 -47 6q-26 7 -26 29q0 16 18 34l230 256q30 33 67 33q40 0 74 -6q26 -6 26 -29q0 -21 -18 -39zM903 1212q-27 -26 -61 -26q-25 0 -43 6q-27 8 -27 29q0 18 16 34l230 256q30 33 67 33q39 0 76 -6q27 -4 27 -29q0 -18 -21 -39z
" />
    <glyph glyph-name="Uogonek" unicode="&#x172;" horiz-adv-x="1388" 
d="M1384 1395l-176 -815q-28 -134 -42 -189q-14 -57 -39 -122q-26 -66 -58 -109q-123 -162 -383 -183q-192 -129 -192 -256q0 -96 108 -96q15 0 55 2q8 0 16.5 0.5t13 1t5.5 0.5q30 0 31 -26q4 -33 4 -47q-2 -29 -35 -37q-50 -13 -131 -13q-98 0 -152 49q-53 48 -53 132
q0 169 191 286q-160 6 -266 80q-105 73 -105 238q0 112 37 284l178 834q8 41 49 41h74q31 0 31 -31q0 -2 -8 -45l-181 -850q-24 -117 -24 -190q0 -223 278 -223q232 0 328 114q66 82 109 287l190 897q11 41 47 41h76q29 0 29 -25q0 -7 -5 -30z" />
    <glyph glyph-name="uogonek" unicode="&#x173;" horiz-adv-x="1153" 
d="M918 172q-24 -98 -95 -123q-81 -51 -128 -87q-52 -39 -101 -103q-51 -66 -51 -127q0 -88 102 -88q13 0 51 2q8 0 16 0.5t12.5 1t6.5 0.5q27 0 33 -27q4 -16 4 -45q-2 -27 -35 -35q-37 -10 -127 -10q-196 0 -196 170q0 179 221 293q-96 -21 -232 -21q-122 0 -198 46
t-76 143q0 64 22 168l136 641q10 43 45 43h69q33 0 33 -27q0 -11 -6 -41l-131 -610q-17 -71 -17 -119q0 -115 183 -115q144 0 254 43q27 12 45 33q18 18 26 60l156 733q10 43 47 43h68q35 0 35 -27q0 -4 -7 -39z" />
    <glyph glyph-name="Wcircumflex" unicode="&#x174;" horiz-adv-x="1882" 
d="M1094 1225q-105 -217 -580 -1151q-39 -80 -119 -80h-41q-82 0 -82 76q-3 55 -20 1288q0 46 4 59q6 27 31 29q56 6 88 6q37 0 37 -43q8 -1093 8 -1245q140 303 581 1153q22 43 43 61q22 19 58 19h39q39 0 58 -19q17 -17 22 -59q76 -916 82 -1157q110 275 536 1239
q24 51 57 51q67 0 89 -6q20 -4 20 -25q0 -23 -20 -67l-574 -1278q-37 -82 -115 -82h-36q-83 0 -89 82q-61 774 -77 1149zM903 1556q-37 0 -65 7q-23 2 -23 24q0 17 23 35l245 209q44 37 80 37h56q35 0 59 -33l176 -211q10 -10 10 -31t-28 -28q-22 -6 -54 -6q-33 0 -63 30
l-148 144l-196 -144q-40 -33 -72 -33z" />
    <glyph glyph-name="wcircumflex" unicode="&#x175;" horiz-adv-x="1478" 
d="M815 801q-26 -61 -379 -731q-24 -46 -49 -61q-24 -15 -63 -15h-31q-74 0 -80 76l-57 850q-2 30 -2 49q0 35 32 41q73 6 82 6q34 0 35 -49q33 -505 45 -817q110 222 381 731q22 45 46 66q21 18 59 18h22q33 0 52 -17q18 -16 24 -63q66 -571 78 -735q115 262 376 813
q24 53 60 53q48 0 86 -6q18 -2 18 -27q0 -13 -24 -65l-410 -846q-38 -78 -110 -78h-33q-72 0 -82 76q-70 625 -76 731zM662 1174q-37 0 -58 4q-22 4 -22 24q0 19 22 41l236 260q33 39 71 39h60q34 0 51 -35l135 -272q10 -16 10 -33q0 -20 -26 -26q-20 -2 -51 -2
q-34 0 -52 30l-118 205l-199 -203q-32 -32 -59 -32z" />
    <glyph glyph-name="Ycircumflex" unicode="&#x176;" horiz-adv-x="1114" 
d="M545 43q-8 -47 -47 -47h-74q-33 0 -33 29q0 1 6 45l119 559l-295 729q-16 44 -16 57q0 25 20 31q17 6 99 6q29 0 47 -41q173 -431 243 -635q108 156 504 627q40 49 76 49q81 0 92 -4q19 -6 19 -23q0 -20 -33 -59l-604 -733zM524 1556q-37 0 -65 7q-23 2 -23 24
q0 17 23 35l246 209q44 37 79 37h56q35 0 59 -33l176 -211q10 -10 10 -31t-28 -28q-21 -6 -53 -6q-34 0 -64 30l-147 144l-197 -144q-40 -33 -72 -33z" />
    <glyph glyph-name="ycircumflex" unicode="&#x177;" horiz-adv-x="1153" 
d="M741 45q-135 -72 -344 -72q-272 0 -272 191q0 67 20 164l138 645q11 41 47 41h69q31 0 31 -25q0 -23 -2 -33l-135 -624q-17 -71 -17 -121q0 -109 181 -109q159 0 260 43q29 16 45 35q16 24 24 68l154 723q10 43 49 43h66q35 0 35 -27q0 -6 -5 -24l-196 -932
q-34 -160 -82 -252q-75 -138 -237 -198q-164 -60 -431 -60q-47 0 -47 37q0 27 2 49q8 47 45 47q245 0 360 41q113 40 165 121q42 61 65 176zM500 1174q-37 0 -58 4q-22 4 -22 24q0 19 22 41l236 260q33 39 72 39h59q34 0 51 -35l135 -272q11 -17 11 -33q0 -20 -27 -26
q-20 -2 -51 -2q-33 0 -51 30l-119 205l-199 -203q-32 -32 -59 -32z" />
    <glyph glyph-name="Ydieresis" unicode="&#x178;" horiz-adv-x="1114" 
d="M545 43q-8 -47 -47 -47h-74q-33 0 -33 29q0 1 6 45l119 559l-295 729q-16 44 -16 57q0 25 20 31q17 6 99 6q29 0 47 -41q173 -431 243 -635q108 156 504 627q40 49 76 49q81 0 92 -4q19 -6 19 -23q0 -20 -33 -59l-604 -733zM684 1708q0 -72 -33 -102q-25 -25 -73 -25
q-82 0 -82 72q0 66 32 98q29 29 76 29q80 0 80 -72zM1071 1708q0 -67 -35 -102q-30 -25 -73 -25q-80 0 -80 72q0 65 30 98q29 29 76 29q82 0 82 -72z" />
    <glyph glyph-name="Zacute" unicode="&#x179;" horiz-adv-x="1191" 
d="M1026 0h-969q-86 0 -86 68q0 64 45 110l1055 1131h-770q-41 0 -41 30q0 21 10 64t56 43h854q88 0 88 -72q0 -64 -51 -117q-834 -905 -1047 -1120h874q43 0 43 -31q0 -18 -12 -73q-11 -33 -49 -33zM817 1581q-39 -25 -74 -25q-47 0 -65 5q-29 6 -29 26q0 22 23 37l291 215
q47 31 77 31q65 0 101 -4q39 -4 39 -29q0 -22 -25 -41z" />
    <glyph glyph-name="zacute" unicode="&#x17a;" horiz-adv-x="958" 
d="M782 0h-714q-78 0 -78 68q0 56 69 125l701 686h-561q-31 0 -31 22q0 23 12 70q12 39 49 39h635q84 0 84 -70q0 -58 -65 -123l-705 -688h631q31 0 31 -31q0 -12 -13 -67q-8 -31 -45 -31zM627 1212q-26 -26 -62 -26q-15 0 -53 6q-27 8 -27 27t17 36l235 256q30 33 70 33
q54 0 84 -6q29 -6 29 -29q0 -19 -21 -36z" />
    <glyph glyph-name="Zdotaccent" unicode="&#x17b;" horiz-adv-x="1191" 
d="M1026 0h-969q-86 0 -86 68q0 64 45 110l1055 1131h-770q-41 0 -41 30q0 21 10 64t56 43h854q88 0 88 -72q0 -64 -51 -117q-834 -905 -1047 -1120h874q43 0 43 -31q0 -18 -12 -73q-11 -33 -49 -33zM891 1708q0 -67 -35 -102q-30 -25 -74 -25q-82 0 -82 72q0 65 33 98
q29 29 76 29q82 0 82 -72z" />
    <glyph glyph-name="zdotaccent" unicode="&#x17c;" horiz-adv-x="958" 
d="M782 0h-714q-78 0 -78 68q0 56 69 125l701 686h-561q-31 0 -31 22q0 23 12 70q12 39 49 39h635q84 0 84 -70q0 -58 -65 -123l-705 -688h631q31 0 31 -31q0 -12 -13 -67q-8 -31 -45 -31zM700 1380q0 -66 -34 -100q-28 -25 -74 -25q-82 0 -82 72q0 63 33 96q29 29 75 29
q82 0 82 -72z" />
    <glyph glyph-name="Zcaron" unicode="&#x17d;" horiz-adv-x="1191" 
d="M1026 0h-969q-86 0 -86 68q0 64 45 110l1055 1131h-770q-41 0 -41 30q0 21 10 64t56 43h854q88 0 88 -72q0 -64 -51 -117q-834 -905 -1047 -1120h874q43 0 43 -31q0 -18 -12 -73q-11 -33 -49 -33zM1040 1876q42 0 64 -6q22 -4 22 -25q0 -18 -20 -35l-248 -208
q-40 -37 -78 -37h-55q-33 0 -61 32l-175 211q-12 15 -12 31q0 21 29 29q18 6 55 6q31 0 62 -31l147 -143l199 143q45 33 71 33z" />
    <glyph glyph-name="zcaron" unicode="&#x17e;" horiz-adv-x="958" 
d="M782 0h-714q-78 0 -78 68q0 56 69 125l701 686h-561q-31 0 -31 22q0 23 12 70q12 39 49 39h635q84 0 84 -70q0 -58 -65 -123l-705 -688h631q31 0 31 -31q0 -12 -13 -67q-8 -31 -45 -31zM838 1550q36 0 57 -4q25 -5 25 -26q0 -16 -25 -41l-236 -260q-33 -37 -67 -37h-64
q-33 0 -51 35l-135 270q-8 22 -8 33q0 20 24 26q25 4 54 4q28 0 49 -30l119 -203l200 201q28 32 58 32z" />
    <glyph glyph-name="longs" unicode="&#x17f;" horiz-adv-x="520" 
d="M229 39q-7 -43 -47 -43h-67q-31 0 -31 29q0 15 4 30l231 1084q43 211 138 288q133 111 364 111q51 0 51 -37q0 -31 -6 -55q-6 -35 -41 -35q-207 -1 -290 -98q-45 -55 -72 -187z" />
    <glyph glyph-name="florin" unicode="&#x192;" horiz-adv-x="958" 
d="M625 786l-138 -661q-28 -128 -55 -191q-28 -64 -76 -106q-85 -76 -254 -76q-66 0 -112 12q-21 6 -21 33q0 13 15 70q11 27 36 27h4q4 -1 12.5 -2t18.5 -2q33 -3 62 -3q108 0 149 58q42 53 70 190l137 651h-176q-33 0 -33 27q0 3 8 51q8 33 47 33h175l32 152
q43 199 136 284q84 78 256 78q95 0 133 -14q20 -7 20 -35q0 -24 -12 -70q-6 -24 -39 -24q-1 0 -6 0.5t-16 2t-21 2.5q-43 5 -70 5q-114 0 -159 -61q-47 -61 -74 -189l-29 -131h238q32 0 32 -29q0 -13 -8 -53q-8 -29 -47 -29h-235z" />
    <glyph glyph-name="Aringacute" unicode="&#x1fa;" horiz-adv-x="1208" 
d="M1004 1567q0 -111 -82 -156q9 -21 16 -59l170 -1264q4 -25 4 -49q0 -31 -25 -39q-21 -6 -88 -6q-22 0 -29 10q-8 11 -12 43l-57 412h-567l-230 -412q-18 -33 -27 -42q-11 -11 -30 -11q-75 0 -102 6q-17 5 -17 23q0 19 25 61l719 1268q27 50 47 67q-47 38 -47 115
q0 80 49 129t131 49q71 0 112 -38q40 -37 40 -107zM405 592h486q-63 458 -86 723zM905 1776q-32 -19 -59 -19q-28 0 -49 4q-25 2 -25 21q0 15 16 30l218 175q28 24 63 24q55 0 84 -4q29 -2 29 -27q0 -19 -21 -34zM932 1567q0 82 -86 82q-43 0 -74 -29t-31 -78q0 -92 90 -92
q43 0 72 31t29 86z" />
    <glyph glyph-name="aringacute" unicode="&#x1fb;" horiz-adv-x="1077" 
d="M844 184q-15 -69 -39 -102q-17 -26 -70 -49q-131 -60 -352 -60q-166 0 -238 72q-71 71 -71 180q0 237 174 322q98 49 319 49q94 0 215 -10l17 73q16 80 16 134q0 112 -194 112q-123 0 -226 -22q-54 -17 -69 -17q-20 0 -25 25q-8 40 -8 57q0 28 41 45q144 45 307 45
q100 0 158 -11q63 -12 115 -58q53 -47 53 -131q0 -68 -23 -181zM762 477q-74 10 -201 10q-178 0 -252 -41q-92 -53 -92 -192q0 -160 199 -160q126 0 219 35q24 8 47 35q18 24 29 78zM897 1393q0 -101 -57 -159t-158 -58q-81 0 -128 47q-46 46 -46 129q0 96 58 155
q58 60 153 60q85 0 131 -46q47 -47 47 -128zM819 1391q0 108 -108 108q-57 0 -94 -37t-37 -100q0 -57 29 -86q31 -31 81 -31q60 0 94 37q35 38 35 109zM748 1645q-25 -25 -54 -25q-37 0 -59 8q-23 6 -23 25q0 11 17 33l241 260q27 30 64 30q55 0 84 -8q24 -8 24 -24
q0 -17 -20 -37z" />
    <glyph glyph-name="AEacute" unicode="&#x1fc;" horiz-adv-x="1900" 
d="M129 41q-37 -45 -78 -45q-65 0 -92 4q-27 2 -27 27q0 16 33 53l1069 1243q60 70 106 97q44 26 113 26h707q37 0 37 -29q0 -9 -15 -78q-6 -30 -47 -30h-575l-109 -488h531q35 0 35 -28q0 -13 -13 -78q-8 -29 -49 -29h-530l-95 -434q-8 -35 -8 -55q0 -60 64 -60h559
q37 0 37 -28q0 -18 -15 -78q-6 -31 -49 -31h-598q-159 0 -159 125q0 43 10 92l55 258h-520zM612 610h441l151 690zM1561 1581q-39 -25 -74 -25q-48 0 -66 5q-28 6 -28 26q0 22 22 37l291 215q46 31 78 31q64 0 100 -4q39 -4 39 -29q0 -22 -25 -41z" />
    <glyph glyph-name="aeacute" unicode="&#x1fd;" horiz-adv-x="1689" 
d="M801 109q-171 -136 -416 -136q-158 0 -235 71q-76 70 -76 185q0 225 166 310q98 48 340 53q113 0 204 -4l19 88q10 49 10 119q0 110 -199 110q-90 0 -219 -26q-61 -15 -65 -15q-21 0 -29 23q-12 43 -12 61q0 33 43 45q156 43 327 43q136 0 205 -36q70 -37 76 -130
q130 166 379 166q311 0 311 -268q0 -109 -28 -236q-11 -42 -27 -49q-15 -12 -43 -12h-629q-10 -54 -10 -143q0 -228 262 -228q119 0 240 33q41 12 55 12q21 0 27 -24q14 -36 14 -55q0 -26 -41 -43q-132 -50 -311 -50q-243 0 -338 136zM762 473q-43 0 -93 1t-116 1
q-195 -1 -262 -49q-74 -56 -74 -178q0 -154 207 -154q85 0 184 30q101 30 152 79q-15 57 -15 96q0 87 17 174zM930 590h538q23 71 23 162q0 80 -45 121q-44 40 -158 40q-285 0 -358 -323zM1022 1212q-26 -26 -61 -26q-17 0 -54 6q-26 7 -26 27t16 36l236 256q30 33 69 33
q54 0 84 -6q29 -6 29 -29q0 -19 -21 -36z" />
    <glyph glyph-name="Oslashacute" unicode="&#x1fe;" horiz-adv-x="1400" 
d="M180 -18q-15 -15 -28 -15q-18 0 -56 37q-14 11 -14 23q0 14 14 28l99 117q-45 90 -45 240q0 223 72 490q72 266 208 411q152 162 432 162q249 0 357 -78l86 102q15 17 28 17q10 0 23 -9q45 -38 45 -49q0 -16 -10 -26l-97 -115q60 -102 60 -264q0 -210 -68 -485
q-68 -274 -190 -414q-85 -97 -193 -139t-264 -42q-262 0 -377 107zM657 111q121 0 195 29q75 29 135 112q93 125 151 368q58 242 58 410q0 86 -18 148l-813 -975q74 -92 292 -92zM309 432q0 -67 8 -113l799 957q-76 61 -266 61q-211 0 -315 -120q-105 -117 -165 -357
q-61 -244 -61 -428zM934 1581q-39 -25 -74 -25q-47 0 -65 5q-29 6 -29 26q0 22 22 37l291 215q47 31 78 31q64 0 100 -4q39 -4 39 -29q0 -23 -24 -41z" />
    <glyph glyph-name="oslashacute" unicode="&#x1ff;" horiz-adv-x="1099" 
d="M129 -53q-15 -15 -25 -15q-16 0 -49 33q-12 12 -12 23q0 14 12 26l80 95q-43 76 -43 194q0 144 47 321q46 174 137 277q123 137 361 137q175 0 258 -43l82 95q11 14 27 14q13 0 24 -10q35 -29 35 -43q0 -11 -10 -25l-82 -96q51 -69 51 -201q0 -125 -41 -306
q-40 -178 -115 -286q-114 -164 -387 -164q-185 0 -274 62zM489 98q195 0 273 129q49 78 82 236q33 156 33 242q0 53 -17 98l-561 -658q56 -47 190 -47zM242 315q0 -41 6 -75l549 639q-51 32 -176 32q-165 0 -244 -100q-63 -78 -99 -236t-36 -260zM694 1212q-26 -26 -61 -26
q-15 0 -53 6q-27 8 -27 27q0 20 16 36l236 256q30 33 70 33q53 0 83 -6q29 -6 29 -29q0 -20 -20 -36z" />
    <glyph glyph-name="uni0218" unicode="&#x218;" horiz-adv-x="1130" 
d="M643 633l-166 67q-231 96 -231 332q0 441 532 441q182 0 312 -44q32 -10 32 -40q0 -25 -18 -74q-10 -27 -37 -27q-26 0 -59 10q-144 39 -269 39q-331 0 -331 -278q0 -81 41 -137t157 -105l144 -61q274 -99 274 -328q0 -455 -545 -455q-226 0 -383 68q-33 15 -33 41
q0 23 23 74q12 30 43 30q21 0 57 -16q134 -57 310 -57t270 61t94 217q0 77 -40 130q-42 55 -177 112zM479 -129h49q45 0 45 -43q0 -30 -20 -96q-51 -150 -164 -256q-30 -27 -49 -27q-16 0 -39 16q-20 14 -20 33t22 41q95 105 117 271q10 61 59 61z" />
    <glyph glyph-name="uni0219" unicode="&#x219;" horiz-adv-x="856" 
d="M553 535q195 -69 195 -226q0 -148 -93 -239q-100 -97 -331 -97q-186 0 -299 52q-25 11 -25 30q0 30 23 76q16 25 38 25q15 0 41 -13q93 -43 242 -43q159 0 211 58q45 51 45 123q0 47 -30 78q-31 33 -126 67l-127 47q-186 69 -186 227q0 164 115 256q102 78 311 78
q129 0 234 -28q30 -8 30 -33q0 -23 -16 -74q-10 -22 -35 -22q-5 0 -35 6q-108 26 -207 26q-139 0 -192 -41q-57 -44 -57 -141q0 -93 149 -145zM313 -129h49q46 0 46 -43q0 -27 -21 -96q-51 -150 -164 -256q-30 -27 -49 -27q-16 0 -39 16q-20 14 -20 33t22 41q95 105 117 271
q10 61 59 61z" />
    <glyph glyph-name="uni021A" unicode="&#x21a;" horiz-adv-x="1150" 
d="M541 39q-6 -43 -45 -43h-76q-35 0 -35 29q0 11 4 30l270 1254h-401q-33 0 -33 24q0 11 13 78q8 35 49 35h950q39 0 39 -25q0 -29 -14 -82q-8 -30 -50 -30h-399zM414 -129h49q45 0 45 -43q0 -27 -21 -96q-51 -151 -163 -256q-30 -27 -50 -27q-15 0 -38 16q-21 15 -21 33
t23 41q93 104 116 271q10 61 60 61z" />
    <glyph glyph-name="uni021B" unicode="&#x21b;" horiz-adv-x="667" 
d="M455 881l-109 -504q-14 -69 -14 -119q0 -78 51 -111q37 -25 156 -36q36 -4 36 -35q0 -36 -10 -62q-11 -30 -49 -30q-153 1 -245 50q-91 48 -91 177q0 83 25 192l104 478h-114q-31 0 -31 24q0 29 10 68q10 37 47 37h117v2q1 1 1.5 4t0.5 5l6 28q2 6 5 21t5 23q1 5 7 27
t9 38q9 40 21 87q15 47 45 47h64q26 0 26 -30q0 -24 -4 -43l-45 -209h199q37 0 37 -31q0 -28 -10 -64q-7 -34 -50 -34h-200zM307 -129h49q45 0 45 -43q0 -30 -20 -96q-51 -150 -164 -256q-30 -27 -49 -27q-16 0 -39 16q-20 14 -20 33t22 41q95 105 117 271q10 61 59 61z" />
    <glyph glyph-name="circumflex" unicode="&#x2c6;" horiz-adv-x="403" 
d="M-10 1174q-37 0 -58 4q-22 4 -22 24q0 19 22 41l236 260q33 39 72 39h59q34 0 51 -35l135 -272q11 -17 11 -33q0 -20 -27 -26q-20 -2 -51 -2q-33 0 -51 30l-119 205l-199 -203q-32 -32 -59 -32z" />
    <glyph glyph-name="caron" unicode="&#x2c7;" horiz-adv-x="403" 
d="M414 1550q36 0 57 -4q25 -5 25 -26q0 -16 -25 -41l-235 -260q-33 -37 -68 -37h-64q-34 0 -51 35l-135 270q-8 22 -8 33q0 20 24 26q25 4 54 4q28 0 49 -30l119 -203l200 201q28 32 58 32z" />
    <glyph glyph-name="breve" unicode="&#x2d8;" horiz-adv-x="403" 
d="M422 1487q26 0 45 -4q22 -6 22 -29q0 -30 -18 -80q-40 -96 -112 -149q-73 -54 -193 -54q-124 0 -188 59q-62 58 -62 148q0 48 6 70q7 32 27 37q16 2 43 2q35 0 35 -29q0 -45 2 -67q7 -49 42 -72t107 -23q90 0 133 40t70 120q11 31 41 31z" />
    <glyph glyph-name="dotaccent" unicode="&#x2d9;" horiz-adv-x="403" 
d="M297 1380q0 -65 -35 -100q-30 -25 -74 -25q-82 0 -82 72q0 63 33 96q29 29 76 29q82 0 82 -72z" />
    <glyph glyph-name="ring" unicode="&#x2da;" horiz-adv-x="403" 
d="M397 1397q0 -100 -57 -160q-56 -59 -158 -59q-82 0 -129 47t-47 131q0 94 59 155q59 60 154 60q85 0 131 -46q47 -47 47 -128zM322 1395q0 108 -113 108q-55 0 -93 -38t-38 -101q0 -119 112 -119q60 0 96 38t36 112z" />
    <glyph glyph-name="ogonek" unicode="&#x2db;" horiz-adv-x="403" 
d="M391 12q-241 -144 -241 -280q0 -88 102 -88q13 0 51 2q8 0 16 0.5t12.5 1t6.5 0.5q27 0 33 -27q4 -16 4 -45q-2 -27 -35 -35q-37 -10 -127 -10q-197 0 -197 170q0 105 66 177q67 73 184 134h125z" />
    <glyph glyph-name="tilde" unicode="&#x2dc;" horiz-adv-x="403" 
d="M-66 1225q-24 0 -43 4q-20 4 -20 26q0 23 14 50q79 161 189 161q41 0 137 -57q73 -45 115 -45q53 0 92 76q21 39 43 39q34 0 53 -4q16 -6 16 -25q0 -23 -16 -59q-74 -164 -184 -164q-58 0 -152 55q-79 47 -110 47q-52 0 -86 -67q-21 -37 -48 -37z" />
    <glyph glyph-name="hungarumlaut" unicode="&#x2dd;" horiz-adv-x="403" 
d="M-31 1212q-27 -26 -59 -26q-24 0 -47 6q-27 8 -27 29q0 15 19 34l229 256q30 33 68 33q40 0 73 -6q27 -6 27 -29q0 -20 -19 -39zM283 1212q-27 -26 -62 -26q-25 0 -43 6q-26 7 -26 29q0 18 16 34l229 256q30 33 68 33q39 0 76 -6q26 -4 26 -29q0 -19 -20 -39z" />
    <glyph glyph-name="uni0394" unicode="&#x394;" horiz-adv-x="1343" 
d="M1253 82q7 -28 7 -43q0 -39 -46 -39h-1210q-35 0 -35 27q0 17 19 45l807 1276q22 36 59 36h102q35 0 41 -36zM879 1227q-134 -225 -684 -1090h892q-188 956 -208 1090z" />
    <glyph glyph-name="uni03A9" unicode="&#x3a9;" horiz-adv-x="1488" 
d="M604 39q-8 -39 -49 -39h-424q-37 0 -37 25q0 11 12 73q5 24 14 32q8 7 30 7h337q-284 124 -284 451q0 153 50 327q49 170 153 291q178 205 520 205q479 0 479 -440q0 -354 -158 -580q-118 -165 -329 -254h348q37 0 37 -28q0 -21 -11 -74q-4 -21 -13 -28q-8 -7 -32 -7
h-448q-37 0 -37 33q0 29 16 110q11 46 43 58q203 86 299 248q121 211 121 487q0 173 -82 255q-83 83 -260 83q-253 0 -377 -160q-75 -97 -116 -250t-41 -276q0 -285 233 -387q25 -13 25 -43q0 -13 -19 -119z" />
    <glyph glyph-name="uni03BC" unicode="&#x3bc;" horiz-adv-x="1228" 
d="M195 -375q-10 -43 -48 -43h-65q-37 0 -37 29q0 6 4 19t4 20l281 1321q5 17 7 23q3 8 12 14t26 6h70q32 0 32 -29q0 -11 -6 -41l-131 -602q-14 -71 -14 -123q0 -117 196 -117q141 0 240 45q27 11 45 31q20 19 27 60l157 733q10 43 45 43h70q33 0 33 -29q0 -1 -6 -39
l-168 -778q-18 -91 -88 -121q-165 -74 -373 -74q-168 0 -223 72z" />
    <glyph glyph-name="pi" unicode="&#x3c0;" horiz-adv-x="1220" 
d="M305 39q-7 -39 -43 -39h-76q-32 0 -32 27q0 6 1 11q2 10 3 16q2 12 2 14l174 809h-98q-31 0 -31 26q0 11 12 68q11 39 47 39h953q34 0 34 -27q0 -16 -14 -72q-7 -34 -43 -34h-100l-109 -498q-35 -162 -39 -252q0 -22 1 -42t1 -46q0 -39 -43 -39h-71q-19 0 -27 8t-10 21
q-2 16 -2 34q0 119 43 312l106 502h-461z" />
    <glyph glyph-name="Wgrave" unicode="&#x1e80;" horiz-adv-x="1882" 
d="M1094 1225q-105 -217 -580 -1151q-39 -80 -119 -80h-41q-82 0 -82 76q-3 55 -20 1288q0 46 4 59q6 27 31 29q56 6 88 6q37 0 37 -43q8 -1093 8 -1245q140 303 581 1153q22 43 43 61q22 19 58 19h39q39 0 58 -19q17 -17 22 -59q76 -916 82 -1157q110 275 536 1239
q24 51 57 51q67 0 89 -6q20 -4 20 -25q0 -23 -20 -67l-574 -1278q-37 -82 -115 -82h-36q-83 0 -89 82q-61 774 -77 1149zM1124 1581l-280 217q-25 19 -25 39q0 29 39 31q36 2 103 2q31 0 69 -33l234 -213q20 -17 20 -37t-27 -26q-25 -7 -63 -7q-36 0 -70 27z" />
    <glyph glyph-name="wgrave" unicode="&#x1e81;" horiz-adv-x="1478" 
d="M815 801q-26 -61 -379 -731q-24 -46 -49 -61q-24 -15 -63 -15h-31q-74 0 -80 76l-57 850q-2 30 -2 49q0 35 32 41q73 6 82 6q34 0 35 -49q33 -505 45 -817q110 222 381 731q22 45 46 66q21 18 59 18h22q33 0 52 -17q18 -16 24 -63q66 -571 78 -735q115 262 376 813
q24 53 60 53q48 0 86 -6q18 -2 18 -27q0 -13 -24 -65l-410 -846q-38 -78 -110 -78h-33q-72 0 -82 76q-70 625 -76 731zM821 1214l-221 256q-18 22 -18 39q0 27 34 31q36 4 89 4q33 0 57 -35l190 -262q15 -17 15 -35q0 -16 -27 -22q-16 -2 -59 -2q-37 0 -60 26z" />
    <glyph glyph-name="Wacute" unicode="&#x1e82;" horiz-adv-x="1882" 
d="M1094 1225q-105 -217 -580 -1151q-39 -80 -119 -80h-41q-82 0 -82 76q-3 55 -20 1288q0 46 4 59q6 27 31 29q56 6 88 6q37 0 37 -43q8 -1093 8 -1245q140 303 581 1153q22 43 43 61q22 19 58 19h39q39 0 58 -19q17 -17 22 -59q76 -916 82 -1157q110 275 536 1239
q24 51 57 51q67 0 89 -6q20 -4 20 -25q0 -23 -20 -67l-574 -1278q-37 -82 -115 -82h-36q-83 0 -89 82q-61 774 -77 1149zM1155 1581q-39 -25 -74 -25q-47 0 -65 5q-29 6 -29 26q0 22 23 37l290 215q48 31 78 31q65 0 101 -4q39 -4 39 -29q0 -22 -25 -41z" />
    <glyph glyph-name="wacute" unicode="&#x1e83;" horiz-adv-x="1478" 
d="M815 801q-26 -61 -379 -731q-24 -46 -49 -61q-24 -15 -63 -15h-31q-74 0 -80 76l-57 850q-2 30 -2 49q0 35 32 41q73 6 82 6q34 0 35 -49q33 -505 45 -817q110 222 381 731q22 45 46 66q21 18 59 18h22q33 0 52 -17q18 -16 24 -63q66 -571 78 -735q115 262 376 813
q24 53 60 53q48 0 86 -6q18 -2 18 -27q0 -13 -24 -65l-410 -846q-38 -78 -110 -78h-33q-72 0 -82 76q-70 625 -76 731zM905 1212q-26 -26 -61 -26q-16 0 -53 6q-27 8 -27 27q0 20 16 36l236 256q30 33 69 33q54 0 84 -6q29 -6 29 -29q0 -20 -20 -36z" />
    <glyph glyph-name="Wdieresis" unicode="&#x1e84;" horiz-adv-x="1882" 
d="M1094 1225q-105 -217 -580 -1151q-39 -80 -119 -80h-41q-82 0 -82 76q-3 55 -20 1288q0 46 4 59q6 27 31 29q56 6 88 6q37 0 37 -43q8 -1093 8 -1245q140 303 581 1153q22 43 43 61q22 19 58 19h39q39 0 58 -19q17 -17 22 -59q76 -916 82 -1157q110 275 536 1239
q24 51 57 51q67 0 89 -6q20 -4 20 -25q0 -23 -20 -67l-574 -1278q-37 -82 -115 -82h-36q-83 0 -89 82q-61 774 -77 1149zM1061 1708q0 -72 -33 -102q-25 -25 -74 -25q-82 0 -82 72q0 65 33 98q29 29 76 29q80 0 80 -72zM1448 1708q0 -67 -35 -102q-30 -25 -74 -25
q-79 0 -79 72q0 65 30 98q29 29 76 29q82 0 82 -72z" />
    <glyph glyph-name="wdieresis" unicode="&#x1e85;" horiz-adv-x="1478" 
d="M815 801q-26 -61 -379 -731q-24 -46 -49 -61q-24 -15 -63 -15h-31q-74 0 -80 76l-57 850q-2 30 -2 49q0 35 32 41q73 6 82 6q34 0 35 -49q33 -505 45 -817q110 222 381 731q22 45 46 66q21 18 59 18h22q33 0 52 -17q18 -16 24 -63q66 -571 78 -735q115 262 376 813
q24 53 60 53q48 0 86 -6q18 -2 18 -27q0 -13 -24 -65l-410 -846q-38 -78 -110 -78h-33q-72 0 -82 76q-70 625 -76 731zM825 1380q0 -68 -32 -100q-28 -25 -74 -25q-82 0 -82 72q0 66 33 96q29 29 78 29q77 0 77 -72zM1194 1380q0 -67 -35 -100q-25 -25 -72 -25q-79 0 -79 72
q0 67 30 96q29 29 76 29q80 0 80 -72z" />
    <glyph glyph-name="Ygrave" unicode="&#x1ef2;" horiz-adv-x="1114" 
d="M545 43q-8 -47 -47 -47h-74q-33 0 -33 29q0 1 6 45l119 559l-295 729q-16 44 -16 57q0 25 20 31q17 6 99 6q29 0 47 -41q173 -431 243 -635q108 156 504 627q40 49 76 49q81 0 92 -4q19 -6 19 -23q0 -20 -33 -59l-604 -733zM686 1581l-280 217q-25 19 -25 39q0 29 39 31
q36 2 102 2q32 0 70 -33l233 -213q21 -18 21 -37q0 -20 -27 -26q-26 -7 -63 -7q-36 0 -70 27z" />
    <glyph glyph-name="ygrave" unicode="&#x1ef3;" horiz-adv-x="1153" 
d="M741 45q-135 -72 -344 -72q-272 0 -272 191q0 67 20 164l138 645q11 41 47 41h69q31 0 31 -25q0 -23 -2 -33l-135 -624q-17 -71 -17 -121q0 -109 181 -109q159 0 260 43q29 16 45 35q16 24 24 68l154 723q10 43 49 43h66q35 0 35 -27q0 -6 -5 -24l-196 -932
q-34 -160 -82 -252q-75 -138 -237 -198q-164 -60 -431 -60q-47 0 -47 37q0 27 2 49q8 47 45 47q245 0 360 41q113 40 165 121q42 61 65 176zM637 1214l-221 256q-19 24 -19 39q0 26 35 31q36 4 88 4q34 0 58 -35l190 -262q14 -15 14 -35q0 -16 -26 -22q-16 -2 -60 -2
q-36 0 -59 26z" />
    <glyph glyph-name="endash" unicode="&#x2013;" horiz-adv-x="1159" 
d="M1032 481h-887q-30 0 -30 27q0 19 14 72q10 34 45 34h883q33 0 33 -26q0 -17 -15 -74q-11 -33 -43 -33z" />
    <glyph glyph-name="emdash" unicode="&#x2014;" horiz-adv-x="1716" 
d="M1589 481h-1444q-30 0 -30 27q0 19 14 72q10 34 45 34h1440q33 0 33 -26q0 -18 -15 -74q-10 -33 -43 -33z" />
    <glyph glyph-name="quoteleft" unicode="&#x2018;" horiz-adv-x="370" 
d="M307 1008h-57q-47 0 -47 43q0 99 79 235q81 139 185 221q30 27 47 27q22 0 43 -21q21 -18 21 -38q0 -16 -25 -39q-159 -147 -188 -371q-6 -57 -58 -57z" />
    <glyph glyph-name="quoteright" unicode="&#x2019;" horiz-adv-x="370" 
d="M418 1534h59q47 0 47 -43q0 -99 -81 -240q-80 -140 -183 -217q-33 -26 -47 -26q-23 0 -43 20t-20 39t22 41q160 153 190 371q10 55 56 55z" />
    <glyph glyph-name="quotesinglbase" unicode="&#x201a;" horiz-adv-x="387" 
d="M143 193h60q45 0 45 -43q0 -99 -81 -240q-82 -142 -183 -221q-29 -23 -47 -23q-24 0 -43 19q-21 21 -21 41q0 15 23 38q157 145 192 371q5 31 16 44q12 14 39 14z" />
    <glyph glyph-name="quotedblleft" unicode="&#x201c;" horiz-adv-x="716" 
d="M643 1008h-59q-47 0 -47 43q0 100 76 236q75 134 186 220q35 27 49 27q22 0 43 -21q20 -17 20 -38q0 -17 -22 -39q-162 -150 -191 -371q-6 -57 -55 -57zM307 1008h-57q-47 0 -47 43q0 99 79 235q81 139 185 221q30 27 47 27q22 0 43 -21q21 -18 21 -38q0 -16 -25 -39
q-155 -143 -188 -371q-11 -57 -58 -57z" />
    <glyph glyph-name="quotedblright" unicode="&#x201d;" horiz-adv-x="716" 
d="M418 1534h59q47 0 47 -43q0 -97 -80 -239q-79 -140 -184 -218q-33 -26 -47 -26q-23 0 -43 20t-20 39t22 41q160 153 190 371q10 55 56 55zM752 1534h59q47 0 47 -43q0 -100 -80 -239q-80 -140 -184 -218q-33 -26 -47 -26q-23 0 -43 20q-21 21 -21 39t23 41
q160 153 190 371q10 55 56 55z" />
    <glyph glyph-name="quotedblbase" unicode="&#x201e;" horiz-adv-x="716" 
d="M143 193h60q45 0 45 -43q0 -99 -81 -240q-82 -142 -183 -221q-29 -23 -47 -23q-22 0 -43 21q-21 18 -21 39q0 15 23 38q157 145 192 371q5 31 16 44q12 14 39 14zM477 193h60q45 0 45 -43q0 -99 -81 -240q-81 -140 -184 -221q-29 -23 -47 -23q-17 0 -41 19q-22 22 -22 41
q0 16 22 38q159 146 193 371q11 58 55 58z" />
    <glyph glyph-name="dagger" unicode="&#x2020;" horiz-adv-x="958" 
d="M434 -135q-8 -41 -43 -41h-67q-33 0 -33 24q0 5 6 35l217 1018h-305q-27 0 -27 21q0 16 15 77q7 33 41 33h305l84 393q8 41 45 41h65q31 0 31 -24q0 -11 -6 -35l-80 -375h301q31 0 31 -20q0 -4 -17 -86q-5 -25 -39 -25h-305z" />
    <glyph glyph-name="daggerdbl" unicode="&#x2021;" horiz-adv-x="958" 
d="M434 -135q-8 -41 -41 -41h-69q-31 0 -31 24q0 5 6 35l82 385h-299q-27 0 -27 23q0 12 15 78q7 32 41 32h299l106 500h-305q-27 0 -27 21q0 9 13 77q7 33 43 33h303l84 391q7 43 45 43h65q31 0 31 -24q0 -11 -6 -35l-80 -375h303q29 0 29 -20q0 -17 -15 -86
q-5 -25 -41 -25h-305l-104 -500h307q31 0 31 -22q0 -15 -17 -86q-5 -25 -39 -25h-311z" />
    <glyph glyph-name="bullet" unicode="&#x2022;" horiz-adv-x="702" 
d="M616 623q0 -181 -96 -267q-71 -61 -186 -61q-95 0 -156 47q-59 46 -59 145q0 159 90 248q68 68 192 68q215 0 215 -180z" />
    <glyph glyph-name="ellipsis" unicode="&#x2026;" horiz-adv-x="1851" 
d="M369 129q0 -82 -43 -119q-32 -28 -86 -28q-99 0 -99 86q0 71 41 112q33 35 88 35q99 0 99 -86zM958 129q0 -82 -43 -119q-32 -28 -86 -28q-98 0 -98 86q0 65 41 112q33 35 88 35q98 0 98 -86zM1546 129q0 -82 -43 -119q-32 -28 -86 -28q-98 0 -98 86q0 66 41 112
q33 35 90 35q96 0 96 -86z" />
    <glyph glyph-name="perthousand" unicode="&#x2030;" horiz-adv-x="2492" 
d="M817 1169q0 -116 -37 -280q-38 -168 -102 -254q-83 -113 -254 -113q-135 0 -200 53q-64 52 -64 189q0 114 35 263q34 146 98 237q90 129 266 129q139 0 198 -46q60 -47 60 -178zM698 1153q0 79 -30 110t-121 31q-109 0 -164 -90q-47 -75 -76 -205q-31 -138 -31 -223
q0 -84 35 -119q34 -34 121 -34q111 0 160 79q43 69 75 220q31 148 31 231zM502 -31q-24 -35 -49 -35q-11 0 -41 3q-17 5 -17 18q0 10 21 43l919 1413q30 45 58 45q26 0 41 -4q16 -1 16 -18q0 -13 -23 -48zM1683 629q0 -116 -37 -280q-37 -163 -102 -255q-82 -112 -256 -112
q-134 0 -199 53t-65 188q0 113 35 262q35 147 98 238q90 129 266 129q138 0 199 -46t61 -177zM1565 612q0 78 -32 110t-122 32q-108 0 -164 -90q-47 -75 -76 -205q-30 -133 -30 -223q0 -84 35 -119t120 -35q111 0 162 80q44 69 75 219q32 152 32 231zM2435 629
q0 -111 -38 -280q-37 -165 -101 -255q-84 -112 -256 -112q-135 0 -199 53q-63 53 -63 188q0 118 34 263t97 237q90 129 268 129q136 0 197 -46t61 -177zM2316 612q0 78 -30 110t-121 32q-107 0 -164 -90q-47 -75 -76 -205q-31 -138 -31 -224q0 -84 34 -118q35 -35 120 -35
q112 0 162 80q44 69 75 219q31 148 31 231z" />
    <glyph glyph-name="guilsinglleft" unicode="&#x2039;" horiz-adv-x="595" 
d="M246 541l184 -336q12 -22 12 -41q0 -21 -24 -27q-25 -4 -70 -4q-26 0 -55 45l-191 326q-14 22 -14 45q0 24 25 49l323 309q45 45 82 45q54 0 70 -4q24 -6 24 -24t-28 -45z" />
    <glyph glyph-name="guilsinglright" unicode="&#x203a;" horiz-adv-x="595" 
d="M375 545l-185 336q-14 22 -14 41q0 20 27 26q25 4 67 4q30 0 58 -45l190 -323q14 -22 14 -45q0 -26 -26 -52l-324 -307q-47 -47 -80 -47q-55 0 -71 4q-23 6 -23 27q0 19 27 43z" />
    <glyph glyph-name="fraction" unicode="&#x2044;" horiz-adv-x="172" 
d="M-283 -31q-24 -35 -51 -35q-13 0 -37 3q-16 1 -16 18t18 41l920 1415q30 45 57 45q22 0 41 -4q17 -2 17 -18q0 -17 -23 -48z" />
    <glyph glyph-name="zero.superior" unicode="&#x2070;" 
d="M899 1489q0 -111 -38 -280q-37 -165 -101 -255q-84 -112 -256 -112q-135 0 -199 53q-63 53 -63 188q0 119 34 264q34 143 97 236q90 129 266 129q138 0 199 -46t61 -177zM780 1473q0 77 -30 109t-123 32q-109 0 -164 -90q-47 -75 -76 -205q-31 -138 -31 -223
q0 -84 35 -119t121 -35q112 0 162 80q44 69 75 219q31 148 31 232z" />
    <glyph glyph-name="four.superior" unicode="&#x2074;" 
d="M694 887q-11 -29 -32 -29h-56q-22 0 -22 21q0 11 4 26l37 168h-332q-60 0 -60 51q0 38 31 80l357 469q27 33 47 33q46 0 67 -4q15 0 15 -16q0 -12 -15 -33l-366 -477h278l43 192q6 29 31 29h59q23 0 23 -21q0 -11 -4 -22l-41 -178h104q27 0 27 -21q0 -8 -12 -59
q-6 -23 -31 -23h-109z" />
    <glyph glyph-name="five.superior" unicode="&#x2075;" 
d="M432 1374q57 12 139 12q246 0 246 -184q0 -173 -88 -265q-89 -93 -295 -93q-135 0 -205 20q-26 7 -26 29q0 20 14 55q6 21 29 21l47 -11q76 -16 149 -16q133 0 192 56q60 57 60 173q0 69 -42 94q-41 25 -126 25q-56 0 -112 -8l-56 -6q-43 0 -43 43q0 6 15 63l71 285
q7 37 39 37h387q25 0 25 -16q0 -9 -10 -62q-1 -22 -35 -22h-320z" />
    <glyph glyph-name="six.superior" unicode="&#x2076;" 
d="M399 1311q72 84 232 84q221 0 221 -191q0 -182 -90 -276q-78 -84 -258 -84q-252 0 -252 239q0 126 47 285q47 158 129 242q107 110 297 110q104 0 152 -16q16 -4 16 -23q0 -16 -14 -59q-6 -14 -21 -14q-4 0 -47 6q-51 6 -96 6q-135 0 -209 -74q-67 -73 -107 -235z
M362 1081q0 -139 152 -139q124 0 174 66q49 61 49 168q0 120 -141 120q-131 0 -197 -69q-14 -16 -22 -43q-15 -52 -15 -103z" />
    <glyph glyph-name="seven.superior" unicode="&#x2077;" 
d="M748 1604h-426q-27 0 -27 18q0 4 10 57q5 25 33 25h487q64 0 64 -49q0 -32 -29 -82l-414 -682q-23 -35 -43 -35q-25 0 -63 6q-23 5 -23 23q0 17 15 39z" />
    <glyph glyph-name="eight.superior" unicode="&#x2078;" 
d="M702 1303q136 -29 136 -162q0 -297 -349 -297q-133 0 -200 52q-68 53 -68 144q0 230 221 269q-108 30 -108 147q0 264 319 264q242 0 242 -172q0 -201 -193 -245zM719 1133q0 116 -160 116q-221 0 -221 -186q0 -123 168 -123q213 0 213 193zM780 1524q0 98 -141 98
q-195 0 -195 -168q0 -106 140 -106q91 0 143 46q53 47 53 130z" />
    <glyph glyph-name="nine.superior" unicode="&#x2079;" 
d="M741 1260q-69 -86 -231 -86q-111 0 -167 52t-56 142q0 171 94 266q80 86 252 86q252 0 252 -239q0 -133 -43 -290q-43 -158 -123 -241q-108 -108 -301 -108q-116 0 -162 18q-16 6 -16 21q0 21 14 57q7 20 20 20l41 -8q66 -8 109 -8q144 0 213 76q60 67 104 242zM772 1483
q0 63 -32 101t-117 38q-117 0 -170 -66q-52 -67 -52 -165q0 -121 142 -121q133 0 196 76q15 15 21 38q12 57 12 99z" />
    <glyph glyph-name="parenleft.superior" unicode="&#x207d;" horiz-adv-x="425" 
d="M709 1749q-167 -99 -265 -284q-98 -184 -98 -416q0 -192 125 -334q8 -8 8 -17q0 -10 -14 -20q-10 -10 -25 -10q-14 0 -30 12q-68 47 -119 144q-51 98 -51 237q0 228 106 433q107 207 309 298q29 12 39 12t21 -12q10 -14 10 -23q0 -13 -16 -20z" />
    <glyph glyph-name="parenright.superior" unicode="&#x207e;" horiz-adv-x="425" 
d="M53 721q166 99 263 284q98 187 98 416q0 197 -125 334q-6 7 -6 17t12 22q14 10 24 10t31 -12q68 -47 120 -145t52 -238q0 -229 -107 -433q-109 -207 -311 -298q-23 -10 -38 -10q-14 0 -21 12q-8 13 -8 22q0 12 16 19z" />
    <glyph glyph-name="n.superior" unicode="&#x207f;" horiz-adv-x="745" 
d="M240 567q-6 -28 -31 -28h-62q-22 0 -22 18q0 14 4 25l102 467q12 54 60 73q113 52 287 52q170 0 170 -109q0 -47 -15 -107l-82 -391q-6 -28 -35 -28h-59q-22 0 -22 18q0 16 4 27l82 364q10 44 10 70q0 59 -101 59q-82 0 -145 -24q-25 -11 -35 -21q-8 -8 -14 -35z" />
    <glyph glyph-name="zero.inferior" unicode="&#x2080;" 
d="M668 371q0 -111 -38 -280q-37 -163 -102 -255q-84 -112 -256 -112q-134 0 -198 53t-64 188q0 114 35 263q35 147 96 237q90 129 267 129q137 0 198 -46q62 -47 62 -177zM549 354q0 77 -31 110q-30 32 -123 32q-108 0 -164 -91q-46 -73 -75 -204q-31 -138 -31 -224
q0 -83 35 -118t121 -35q111 0 161 80q44 69 75 219q32 152 32 231z" />
    <glyph glyph-name="one.inferior" unicode="&#x2081;" 
d="M434 -258h-348q-23 0 -23 20q0 17 11 58q6 24 35 24h118l138 623l-125 -45q-18 -6 -29 -6t-16 12q-17 48 -17 55q0 17 23 25l168 63q39 15 67 15h8q52 0 52 -43q0 -13 -11 -60l-143 -639h113q26 0 26 -18q0 -4 -12 -59q-8 -25 -35 -25z" />
    <glyph glyph-name="two.inferior" unicode="&#x2082;" 
d="M512 -258h-512q-49 0 -49 49q0 47 39 76q265 182 393 287q63 52 92 99q31 50 31 118q0 131 -164 131q-55 0 -133 -19q-1 0 -8 -1.5t-11 -2.5t-9.5 -2.5t-7.5 -1.5q-10 -2 -11 -2q-17 0 -23 16q-8 35 -8 48q0 19 39 34q102 31 211 31q250 0 250 -209q0 -86 -32 -150
q-31 -62 -105 -124q-143 -120 -377 -277h411q25 0 25 -18q0 -17 -8 -57q-6 -25 -33 -25z" />
    <glyph glyph-name="three.inferior" unicode="&#x2083;" 
d="M414 186q145 -16 145 -159q0 -144 -76 -217q-84 -84 -286 -84q-124 0 -193 24q-27 10 -27 29q0 18 17 57q6 14 26 14q11 0 46 -8q60 -16 143 -16q142 0 188 55q43 49 43 139q0 57 -41 83q-42 27 -153 28q-41 0 -41 37q0 63 57 63q122 0 178 45q52 44 52 123
q0 103 -150 103q-82 0 -139 -17q-33 -10 -45 -10q-13 0 -19 17q-12 28 -12 47q0 20 39 32q109 31 213 31q128 0 178 -46q51 -46 51 -132q0 -193 -194 -238z" />
    <glyph glyph-name="four.inferior" unicode="&#x2084;" 
d="M467 -231q-6 -29 -31 -29h-55q-25 0 -25 20q0 14 4 29l39 166h-331q-60 0 -60 51q0 40 29 80l358 469q27 33 45 33q45 0 70 -4q14 0 14 -17q0 -10 -16 -32l-367 -478h281l43 193q6 29 29 29h59q22 0 22 -19q0 -13 -6 -31l-39 -172h107q27 0 27 -20q0 -5 -13 -60
q-6 -22 -33 -22h-106z" />
    <glyph glyph-name="five.inferior" unicode="&#x2085;" 
d="M205 256q57 12 139 12q248 0 248 -184q0 -171 -89 -265q-89 -93 -294 -93q-124 0 -205 20q-27 8 -27 29q0 12 15 55q6 20 26 20q9 0 48 -10q71 -16 151 -16q132 0 191 56t59 173q0 67 -41 93t-125 26q-57 0 -113 -8l-55 -6q-43 0 -43 43q0 13 12 63l74 285q7 37 39 37
h387q25 0 25 -17q0 -1 -11 -61q-6 -23 -34 -23h-320z" />
    <glyph glyph-name="six.inferior" unicode="&#x2086;" 
d="M168 193q71 83 231 83q222 0 222 -190q0 -180 -91 -276q-78 -84 -258 -84q-252 0 -252 239q0 122 48 285q47 158 129 242q106 110 297 110q103 0 151 -16q17 -5 17 -23q0 -13 -15 -59q-7 -15 -20 -15q-1 0 -6.5 1t-17 2.5t-23.5 3.5q-51 6 -97 6q-135 0 -209 -74
q-65 -71 -106 -235zM131 -37q0 -139 152 -139q125 0 174 65q49 61 49 168q0 121 -141 121q-131 0 -197 -69q-15 -18 -23 -43q-14 -49 -14 -103z" />
    <glyph glyph-name="seven.inferior" unicode="&#x2087;" 
d="M522 485h-426q-28 0 -28 19q0 4 10 57q5 25 35 25h487q62 0 62 -49q0 -37 -27 -82l-416 -682q-18 -35 -41 -35q-28 0 -65 6q-23 6 -23 23q0 12 16 38z" />
    <glyph glyph-name="eight.inferior" unicode="&#x2088;" 
d="M471 184q135 -28 135 -161q0 -297 -348 -297q-134 0 -201 52t-67 144q0 229 221 268q-109 30 -109 148q0 264 320 264q242 0 242 -172q0 -202 -193 -246zM487 14q0 117 -159 117q-222 0 -222 -186q0 -123 168 -123q213 0 213 192zM549 406q0 98 -141 98q-195 0 -195 -168
q0 -107 139 -107q92 0 144 46q53 47 53 131z" />
    <glyph glyph-name="nine.inferior" unicode="&#x2089;" 
d="M510 141q-69 -86 -231 -86q-109 0 -167 53q-57 53 -57 142q0 169 95 266q80 86 251 86q252 0 252 -240q0 -132 -43 -289q-43 -158 -123 -241q-108 -108 -301 -108q-116 0 -161 18q-17 6 -17 20q0 19 15 58q7 20 20 20l41 -8q66 -8 109 -8q144 0 213 76q60 68 104 241z
M541 365q0 63 -32 101t-118 38q-117 0 -170 -66q-51 -66 -51 -166q0 -120 141 -120q135 0 197 75q14 14 20 39q13 62 13 99z" />
    <glyph glyph-name="parenleft.inferior" unicode="&#x208d;" horiz-adv-x="425" 
d="M477 631q-165 -98 -264 -284q-98 -184 -98 -417q0 -191 125 -333q8 -8 8 -17q0 -10 -15 -20q-11 -11 -24 -11q-15 0 -31 13q-68 47 -119 144q-51 98 -51 237q0 227 107 433q107 207 309 298q28 12 39 12q9 0 20 -12q11 -16 11 -23q0 -12 -17 -20z" />
    <glyph glyph-name="parenright.inferior" unicode="&#x208e;" horiz-adv-x="425" 
d="M-178 -397q167 99 263 283q97 185 97 417q0 197 -125 334q-6 11 -6 16q0 11 12 23q14 10 25 10q10 0 31 -12q67 -46 120 -146q52 -98 52 -237q0 -228 -108 -433q-109 -207 -310 -298q-25 -11 -39 -11q-9 0 -20 13q-9 14 -9 22q0 11 17 19z" />
    <glyph glyph-name="Euro" unicode="&#x20ac;" horiz-adv-x="1265" 
d="M985 514h-463q-4 -31 -4 -96q0 -309 295 -309q141 0 252 24q66 12 70 12q18 0 24 -24q12 -50 12 -62q-5 -35 -49 -45q-150 -39 -338 -39q-417 0 -417 431q0 39 4 108h-133q-35 0 -35 25q0 6 6 39q7 32 45 32h129q17 98 39 176h-131q-35 0 -35 21t6 43q8 31 45 31h144
q85 239 206 360q163 168 469 168q126 0 217 -18q41 -6 41 -39q0 -30 -18 -76q-8 -21 -35 -21q-5 0 -69 11q-60 10 -172 10q-196 0 -320 -119q-98 -97 -166 -276h447q32 0 32 -25q0 -19 -6 -43q-5 -27 -41 -27h-463q-22 -76 -38 -176h464q33 0 33 -24q0 -20 -6 -43
q-8 -29 -41 -29z" />
    <glyph glyph-name="afii61289" unicode="&#x2113;" horiz-adv-x="911" 
d="M356 444q-10 -57 -10 -131q0 -211 186 -211q112 0 224 66q27 14 39 14q19 0 30 -18q21 -37 21 -55q0 -23 -29 -41q-148 -95 -334 -95q-125 0 -202 80q-76 79 -76 221q0 55 4 76q-85 -51 -105 -59q-14 -10 -32 -10q-21 0 -35 36q-10 20 -10 37q0 18 30 35q66 36 156 92
q33 220 43 260q67 304 131 424q72 131 158 188q84 56 211 56q107 0 165 -61t58 -156q0 -129 -56 -229q-57 -102 -165 -213q-115 -117 -402 -306zM369 588q204 143 311 250q166 173 166 329q0 57 -32 89t-87 32q-112 0 -188 -112q-81 -124 -136 -394q-5 -23 -34 -194z" />
    <glyph glyph-name="trademark" unicode="&#x2122;" horiz-adv-x="1611" 
d="M477 774q-5 -31 -28 -31h-46q-26 0 -26 23q0 5 6 35l119 555h-195q-24 0 -24 20q0 8 8 43q8 27 35 27h483q29 0 29 -21q0 -11 -9 -47q-6 -22 -36 -22h-191zM934 774q-6 -31 -29 -31h-45q-24 0 -24 21q0 5 4 24l125 588q7 36 23 55q14 17 52 17h37q39 0 47 -45
q74 -305 88 -383q58 91 244 377q33 51 78 51h39q47 0 47 -43l-8 -53l-123 -576q-6 -33 -31 -33h-47q-22 0 -22 19q0 17 6 41q7 31 29 131.5t32 147.5q8 36 15.5 70.5t13.5 62t8 37.5q7 32 23 98q-35 -63 -265 -420q-19 -31 -53 -31h-16q-34 0 -39 33q-62 264 -90 418
q-48 -241 -119 -576z" />
    <glyph glyph-name="Omega" unicode="&#x2126;" horiz-adv-x="1488" 
d="M604 39q-8 -39 -49 -39h-424q-37 0 -37 25q0 11 12 73q5 24 14 32q8 7 30 7h337q-284 124 -284 451q0 153 50 327q49 170 153 291q178 205 520 205q479 0 479 -440q0 -354 -158 -580q-118 -165 -329 -254h348q37 0 37 -28q0 -21 -11 -74q-4 -21 -13 -28q-8 -7 -32 -7
h-448q-37 0 -37 33q0 29 16 110q11 46 43 58q203 86 299 248q121 211 121 487q0 173 -82 255q-83 83 -260 83q-253 0 -377 -160q-75 -97 -116 -250t-41 -276q0 -285 233 -387q25 -13 25 -43q0 -13 -19 -119z" />
    <glyph glyph-name="estimated" unicode="&#x212e;" horiz-adv-x="1730" 
d="M1702 688h-1262q-12 0 -12 -8v-399q0 -21 21 -45q195 -218 477 -218q301 0 499 242h117q-113 -133 -272 -208q-163 -77 -346 -77q-323 0 -552 215t-229 519q0 302 229 517q227 214 552 214q324 0 551 -214t227 -517v-21zM1419 741v400q0 27 -22 49q-201 207 -471 207
q-269 0 -475 -215q-23 -23 -23 -49v-392q0 -10 12 -10h967q12 0 12 10z" />
    <glyph glyph-name="onethird" unicode="&#x2153;" horiz-adv-x="1734" 
d="M1432 444q147 -16 147 -159q0 -145 -74 -217q-90 -84 -288 -84q-123 0 -191 24q-27 11 -27 29q0 23 17 57q6 15 24 15q3 0 43 -9q64 -16 146 -16q142 0 188 55q43 49 43 140q0 56 -41 82q-42 27 -155 28q-39 0 -39 37q0 63 57 63q126 0 178 46q49 39 49 122
q0 103 -147 103q-84 0 -141 -17q-33 -10 -45 -10q-13 0 -19 17q-8 32 -8 47q0 20 39 32q99 31 211 31q125 0 177 -46t52 -132q0 -193 -196 -238zM475 -31q-24 -35 -51 -35q-13 0 -37 3q-16 1 -16 18t18 41l920 1415q30 45 57 45q22 0 41 -4q16 -1 16 -18q0 -19 -22 -48z
M592 541h-348q-23 0 -23 20t10 57q6 25 35 25h119l137 623l-125 -45q-21 -7 -28 -7q-11 0 -19 13q-14 46 -14 55q0 18 22 25l168 63q36 14 68 14h8q49 0 49 -43q0 -19 -8 -59l-143 -639h112q27 0 27 -18q0 -5 -12 -60q-7 -24 -35 -24z" />
    <glyph glyph-name="twothirds" unicode="&#x2154;" horiz-adv-x="1734" 
d="M555 -31q-24 -35 -51 -35q-13 0 -37 3q-16 1 -16 18t18 41l920 1415q30 45 57 45q22 0 41 -4q16 -1 16 -18q0 -19 -22 -48zM696 541h-512q-49 0 -49 49q0 48 39 76q272 187 393 286q61 51 92 100q31 50 31 117q0 131 -164 131q-60 0 -133 -18q-1 0 -7.5 -1.5t-10.5 -2.5
t-10.5 -2.5t-7.5 -1.5q-10 -2 -11 -2q-16 0 -22 16q-9 40 -9 47q0 20 39 35q102 31 211 31q250 0 250 -209q0 -87 -32 -151q-30 -60 -105 -123q-143 -120 -377 -277h412q24 0 24 -18t-8 -58q-6 -24 -33 -24zM1485 444q147 -16 147 -159q0 -145 -73 -217q-90 -84 -289 -84
q-124 0 -191 24q-26 10 -26 29q0 25 16 57q6 15 25 15q3 0 43 -9q64 -16 145 -16q142 0 188 55q43 49 43 140q0 57 -40 82q-42 27 -156 28q-39 0 -39 37q0 63 57 63q126 0 178 46q50 39 50 122q0 103 -148 103q-84 0 -141 -17q-33 -10 -45 -10q-13 0 -19 17q-8 32 -8 47
q0 20 39 32q99 31 211 31q125 0 177 -46t52 -132q0 -193 -196 -238z" />
    <glyph glyph-name="oneeighth" unicode="&#x215b;" horiz-adv-x="1734" 
d="M1442 442q135 -28 135 -161q0 -297 -348 -297q-134 0 -201 52t-67 144q0 230 221 269q-109 30 -109 147q0 264 320 264q241 0 241 -172q0 -202 -192 -246zM432 -31q-24 -35 -51 -35q-13 0 -37 3q-16 1 -16 18t18 41l920 1415q30 45 57 45q22 0 41 -4q16 -1 16 -18
q0 -19 -22 -48zM559 541h-348q-23 0 -23 20q0 16 11 57q6 25 34 25h119l137 623l-124 -45q-21 -7 -29 -7q-11 0 -19 13q-14 46 -14 55q0 17 23 25l168 63q36 14 67 14h8q49 0 49 -43q0 -19 -8 -59l-143 -639h113q26 0 26 -18q0 -5 -12 -60q-8 -24 -35 -24zM1458 272
q0 117 -160 117q-221 0 -221 -186q0 -123 168 -123q213 0 213 192zM1520 664q0 98 -142 98q-194 0 -194 -168q0 -107 139 -107q90 0 143 47q54 48 54 130z" />
    <glyph glyph-name="threeeighths" unicode="&#x215c;" horiz-adv-x="1734" 
d="M481 -31q-24 -35 -51 -35q-13 0 -37 3q-16 1 -16 18t18 41l920 1415q30 45 57 45q22 0 41 -4q17 -2 17 -18q0 -17 -23 -48zM567 985q148 -17 148 -160q0 -145 -74 -217q-85 -84 -289 -84q-115 0 -190 25q-27 11 -27 29q0 17 17 57q6 14 24 14q8 0 43 -8q67 -16 146 -16
q139 0 188 55q45 52 45 139q0 57 -42 83q-44 27 -155 28q-39 0 -39 37q0 63 56 63q127 0 178 45q51 39 51 123q0 102 -149 102q-91 0 -140 -16q-33 -10 -45 -10t-18 16q-12 34 -12 47q0 21 39 33q112 31 213 31q127 0 179 -46t52 -132q0 -193 -199 -238zM1470 442
q136 -29 136 -161q0 -297 -349 -297q-133 0 -200 52q-68 53 -68 144q0 230 221 269q-108 30 -108 147q0 264 319 264q242 0 242 -172q0 -202 -193 -246zM1487 272q0 117 -160 117q-221 0 -221 -186q0 -123 168 -123q213 0 213 192zM1548 664q0 98 -141 98q-195 0 -195 -168
q0 -107 140 -107q90 0 143 47t53 130z" />
    <glyph glyph-name="fiveeighths" unicode="&#x215d;" horiz-adv-x="1734" 
d="M498 -31q-24 -35 -52 -35q-12 0 -36 3q-17 2 -17 18t19 41l919 1415q30 45 58 45q22 0 41 -4q16 -1 16 -18t-23 -48zM375 1055q52 12 139 12q244 0 244 -184q0 -174 -88 -266q-88 -93 -295 -93q-129 0 -203 21q-27 7 -27 28q0 19 15 56q6 20 28 20q1 0 11 -2l20 -5l21 -5
q59 -14 145 -14q133 0 192 56q60 57 60 173q0 68 -42 93q-43 26 -126 26q-57 0 -113 -8l-55 -7q-43 0 -43 43q0 13 14 66l72 283q7 36 39 36h387q25 0 25 -16q0 -3 -11 -61q-6 -23 -34 -23h-320zM1481 442q135 -28 135 -161q0 -297 -348 -297q-134 0 -201 52q-68 53 -68 144
q0 230 222 269q-109 30 -109 147q0 264 320 264q241 0 241 -172q0 -202 -192 -246zM1497 272q0 117 -160 117q-221 0 -221 -186q0 -123 168 -123q213 0 213 192zM1559 664q0 98 -142 98q-194 0 -194 -168q0 -107 139 -107q91 0 143 46q54 48 54 131z" />
    <glyph glyph-name="seveneighths" unicode="&#x215e;" horiz-adv-x="1734" 
d="M395 -31q-24 -35 -51 -35q-13 0 -37 3q-16 1 -16 18t18 41l920 1415q30 45 57 45q22 0 41 -4q16 -1 16 -18q0 -19 -22 -48zM715 1284h-426q-27 0 -27 21q0 18 10 55q4 24 33 24h488q63 0 63 -49q0 -34 -31 -82l-411 -682q-22 -34 -43 -34q-34 0 -64 6q-24 6 -24 22
q0 13 16 39zM1401 442q135 -28 135 -161q0 -297 -348 -297q-134 0 -201 52t-67 144q0 230 221 269q-109 30 -109 147q0 264 320 264q241 0 241 -172q0 -202 -192 -246zM1417 272q0 117 -160 117q-221 0 -221 -186q0 -123 168 -123q213 0 213 192zM1479 664q0 98 -142 98
q-194 0 -194 -168q0 -107 139 -107q91 0 143 46q54 48 54 131z" />
    <glyph glyph-name="arrowleft" unicode="&#x2190;" horiz-adv-x="1572" 
d="M1446 762q55 0 55 -47v-49q0 -50 -47 -50q-919 0 -1153 2q136 -117 512 -479q29 -24 29 -45q0 -13 -13 -31l-34 -36q-21 -21 -35 -21q-11 0 -33 17l-637 630q-14 11 -14 35q0 26 14 37l643 639q16 16 29 16q15 0 31 -16l32 -37q19 -24 19 -33q0 -17 -17 -34l-526 -502
q149 4 1145 4z" />
    <glyph glyph-name="arrowup" unicode="&#x2191;" horiz-adv-x="1572" 
d="M713 53q0 974 4 1125q-181 -193 -508 -506q-18 -15 -31 -15q-20 0 -31 13l-32 35q-17 22 -17 32q0 20 17 35l641 635q18 18 35 18q19 0 34 -16l633 -633q17 -22 17 -33q0 -14 -17 -36l-33 -33q-15 -15 -28 -15q-22 0 -47 25l-486 494q2 -232 2 -1129q0 -49 -43 -49h-67
q-43 0 -43 53z" />
    <glyph glyph-name="arrowright" unicode="&#x2192;" horiz-adv-x="1572" 
d="M129 762q990 0 1141 -4l-527 502q-16 16 -16 34q0 17 16 33l33 37q16 16 33 16q13 0 29 -16l643 -639q16 -15 16 -37q0 -20 -16 -35l-637 -630q-15 -15 -33 -15q-16 0 -33 17l-33 38q-14 10 -14 31q0 23 25 45l514 479q-234 -2 -1153 -2q-45 0 -45 50v49q0 47 57 47z" />
    <glyph glyph-name="arrowdown" unicode="&#x2193;" horiz-adv-x="1572" 
d="M713 1325q0 57 43 57h67q43 0 43 -49q0 -898 -2 -1130l488 495q25 25 45 25q15 0 26 -12l35 -35q17 -22 17 -35t-17 -35l-631 -633q-18 -18 -36 -18q-13 0 -35 18l-641 639q-15 15 -15 33t15 33l37 35q15 12 32 12q14 0 31 -14q371 -362 502 -506q-4 155 -4 1120z" />
    <glyph glyph-name="uni2196" unicode="&#x2196;" horiz-adv-x="1572" 
d="M1329 266q23 -23 23 -41q0 -19 -25 -47q-45 -47 -61 -47q-17 0 -33 16q-603 593 -805 803q12 -369 12 -694q0 -30 -16 -47q-12 -12 -29 -12h-53q-23 0 -35 12q-12 17 -12 41v887q0 27 16 39q17 14 41 14h901q23 0 33 -10q12 -10 12 -37v-49q0 -25 -12 -37q-7 -10 -37 -10
q-602 0 -729 10z" />
    <glyph glyph-name="uni2197" unicode="&#x2197;" horiz-adv-x="1572" 
d="M350 156q-23 -23 -39 -23q-22 0 -43 21q-47 52 -47 71q0 18 17 35l817 793q-400 -13 -711 -13q-30 0 -43 11q-14 14 -14 34v58q0 23 12 35t37 12h895q16 0 37 -14q10 -7 10 -43v-895q0 -29 -8 -37q-13 -13 -35 -13h-55q-13 0 -29 11q-12 12 -12 39q0 592 8 706z" />
    <glyph glyph-name="uni2198" unicode="&#x2198;" horiz-adv-x="1572" 
d="M244 1106q-23 23 -23 43q0 18 21 39q49 49 67 49q17 0 33 -16q662 -647 807 -799q0 12 -3 89q-4 93 -5 234q-2 210 -2 367q0 32 12 47t29 15h57q19 0 31 -15q12 -12 12 -39v-887q0 -21 -12 -38q-12 -15 -43 -15h-901q-28 0 -35 10q-10 11 -10 37v45q0 29 10 39
q13 13 37 13q466 0 731 -9z" />
    <glyph glyph-name="uni2199" unicode="&#x2199;" horiz-adv-x="1572" 
d="M1229 1221q20 20 35 20q20 0 65 -49q25 -25 25 -43q0 -23 -21 -41l-813 -791q275 9 723 9q26 0 39 -13q10 -10 10 -34v-52q0 -20 -10 -34q-11 -11 -35 -11h-897q-31 0 -43 15q-12 17 -12 39v892q0 26 12 37q13 13 35 13h51q25 0 33 -13q12 -17 12 -47q0 -541 -10 -692
q141 150 801 795z" />
    <glyph glyph-name="partialdiff" unicode="&#x2202;" horiz-adv-x="1124" 
d="M920 780q24 147 24 250q0 132 -57 195t-180 63q-130 0 -222 -26q-29 -9 -34 -9q-23 0 -31 27q-10 29 -10 51q0 27 30 37q125 41 283 41q364 0 364 -360q0 -214 -62 -493q-64 -286 -173 -419q-137 -164 -383 -164q-160 0 -254 79t-94 237q0 311 192 475q127 108 330 108
q191 0 277 -92zM899 639q-66 117 -272 117q-147 0 -230 -74q-68 -62 -106 -165q-37 -101 -37 -206q0 -217 233 -217q116 0 188 48q73 48 128 171q56 122 96 326z" />
    <glyph glyph-name="Delta" unicode="&#x2206;" horiz-adv-x="1343" 
d="M1253 82q7 -28 7 -43q0 -39 -46 -39h-1210q-35 0 -35 27q0 17 19 45l807 1276q22 36 59 36h102q35 0 41 -36zM879 1227q-134 -225 -684 -1090h892q-188 956 -208 1090z" />
    <glyph glyph-name="product" unicode="&#x220f;" horiz-adv-x="1449" 
d="M233 -225q-5 -26 -15 -36q-11 -11 -38 -11h-63q-37 0 -37 30q0 20 4 39l330 1538q10 49 51 49h913q45 0 45 -30q0 -4 -6 -41l-330 -1538q-6 -26 -15 -37q-9 -10 -30 -10h-73q-37 0 -37 28q0 16 4 31l311 1460h-702z" />
    <glyph glyph-name="summation" unicode="&#x2211;" horiz-adv-x="1214" 
d="M1022 -268h-950q-76 0 -76 65q0 50 43 99l651 698l-336 596q-30 57 -30 96q0 98 104 98h815q41 0 41 -28q0 -17 -12 -74q-6 -35 -55 -35h-723l352 -610q12 -23 12 -53q0 -25 -39 -64l-614 -649h844q43 0 43 -31q0 -13 -13 -73q-11 -35 -57 -35z" />
    <glyph glyph-name="minus" unicode="&#x2212;" horiz-adv-x="1435" 
d="M1253 543h-989q-33 0 -33 32q0 13 9 54q6 37 39 37h991q35 0 35 -33q0 -6 -9 -53q-6 -37 -43 -37z" />
    <glyph glyph-name="uni2215" unicode="&#x2215;" horiz-adv-x="172" 
d="M-283 -31q-24 -35 -51 -35q-13 0 -37 3q-16 1 -16 18t18 41l920 1415q30 45 57 45q22 0 41 -4q17 -2 17 -18q0 -17 -23 -48z" />
    <glyph glyph-name="uni2219" unicode="&#x2219;" horiz-adv-x="450" 
d="M354 584q0 -81 -43 -121q-31 -31 -86 -31q-98 0 -98 88q0 72 41 113q33 35 90 35q96 0 96 -84z" />
    <glyph glyph-name="radical" unicode="&#x221a;" horiz-adv-x="1306" 
d="M602 -342q-10 -33 -45 -33h-53q-29 0 -41 35l-195 545l-106 -39q-9 -4 -21 -4q-25 0 -35 33q-10 26 -10 36q0 21 29 33l182 70q18 8 35 8q22 0 33 -31l174 -499l694 1574q15 35 47 35q38 0 60 -6q20 -6 20 -24q0 -11 -8 -35z" />
    <glyph glyph-name="infinity" unicode="&#x221e;" horiz-adv-x="1495" 
d="M801 684q102 108 191 161q88 52 190 52q116 0 183 -73t67 -191q0 -149 -89 -246q-89 -96 -229 -96q-98 0 -166 48t-153 165q-112 -112 -197 -162q-83 -49 -180 -49q-118 0 -188 72q-70 71 -70 190q0 146 90 245t229 99q96 0 167 -49q74 -51 155 -166zM727 598
q-73 97 -129 140q-58 44 -133 44q-87 0 -140 -59q-55 -61 -55 -145q0 -75 44 -122q43 -46 116 -46q136 0 297 188zM866 594q78 -105 132 -147q53 -41 130 -41q87 0 139 61t52 152q0 71 -42 115t-114 44q-128 0 -297 -184z" />
    </font>
</defs>
</svg>
